<svg width="40" height="40" viewBox="0 0 40 40" fill="none" xmlns="http://www.w3.org/2000/svg">
<rect width="40" height="40" rx="20" fill="#D1E9FF"/>
<path d="M22.4993 24.1667V27.5H17.4993V24.1667M14.3327 24.1667H25.666C26.5994 24.1667 27.0661 24.1667 27.4227 23.985C27.7363 23.8252 27.9912 23.5703 28.151 23.2567C28.3327 22.9001 28.3327 22.4334 28.3327 21.5V15.1667C28.3327 14.2332 28.3327 13.7665 28.151 13.41C27.9912 13.0964 27.7363 12.8414 27.4227 12.6817C27.0661 12.5 26.5994 12.5 25.666 12.5H14.3327C13.3993 12.5 12.9326 12.5 12.576 12.6817C12.2624 12.8414 12.0075 13.0964 11.8477 13.41C11.666 13.7665 11.666 14.2332 11.666 15.1667V21.5C11.666 22.4334 11.666 22.9001 11.8477 23.2567C12.0075 23.5703 12.2624 23.8252 12.576 23.985C12.9326 24.1667 13.3993 24.1667 14.3327 24.1667Z" stroke="#175CD3" stroke-width="1.66667" stroke-linecap="round" stroke-linejoin="round"/>
</svg>
