<svg width="18" height="18" viewBox="0 0 18 18" fill="none" xmlns="http://www.w3.org/2000/svg">
<path d="M10.5001 5.25V5.25C10.5001 5.01783 10.5001 4.90175 10.4904 4.80397C10.3969 3.85441 9.64565 3.10315 8.6961 3.00963C8.59831 3 8.48223 3 8.25006 3H6.75006C5.10632 3 4.28445 3 3.73127 3.45398C3.63001 3.53709 3.53715 3.62995 3.45404 3.73121C3.00006 4.28439 3.00006 5.10626 3.00006 6.75V8.25C3.00006 8.48217 3.00006 8.59825 3.00969 8.69603C3.10321 9.64559 3.85447 10.3968 4.80403 10.4904C4.90181 10.5 5.01789 10.5 5.25006 10.5V10.5" stroke="#475467" stroke-width="2"/>
<rect x="7.50006" y="7.5" width="7.5" height="7.5" rx="2" stroke="#475467" stroke-width="2"/>
</svg>
