<svg width="77" height="112" viewBox="0 0 77 112" fill="none" xmlns="http://www.w3.org/2000/svg">
<path d="M5.41113 4.39253C5.43608 3.21367 5.51092 2.0348 5.46518 0.859831C5.44024 0.175079 5.64813 0 6.37989 0.00389064C11.39 0.0350157 16.4001 0.0233438 21.4144 0.0233438C39.5548 0.0233438 57.6952 0.0311251 75.8356 0C76.7711 0 77.0164 0.206204 76.9997 1.08938C76.9374 4.20578 76.9748 7.32218 76.9748 10.4386C76.9748 36.4747 76.979 62.5108 76.979 88.547C76.979 90.4067 76.979 90.4067 74.9458 90.4067C72.9417 90.4067 70.9335 90.4378 68.9336 90.3911C68.2185 90.3756 68.0189 90.5429 68.0231 91.2354C68.0564 96.3477 68.0439 101.464 68.0397 106.576C68.0397 106.938 68.0189 107.3 68.0065 107.662C65.042 107.642 62.0775 107.623 59.1171 107.607L59.1213 107.615C59.1296 106.168 59.2336 104.72 59.0714 103.273C60.352 103.487 61.6451 103.292 62.9298 103.378C63.5701 103.421 63.6657 103.149 63.6616 102.635C63.6408 98.7599 63.6741 94.8887 63.62 91.0136C63.6117 90.4923 63.7863 90.4728 64.1772 90.4728C65.2748 90.4728 66.3766 90.4534 67.4743 90.4845C67.969 90.5001 68.1561 90.3717 68.1395 89.8854C68.1021 88.9477 68.1645 88.0062 68.1187 87.0724C68.0855 86.4188 68.2892 86.1231 69.0376 86.1698C69.8109 86.2165 70.5968 86.1192 71.366 86.1893C72.3056 86.2748 72.6174 86.0414 72.6133 85.0765C72.58 58.4724 72.5842 31.8721 72.6091 5.26792C72.6091 4.447 72.368 4.2797 71.5364 4.28359C51.3213 4.30693 31.1062 4.30693 10.8952 4.28359C10.072 4.28359 9.89737 4.50536 9.89737 5.24069C9.91816 31.9032 9.91816 58.5657 9.89322 85.2283C9.89322 86.0803 10.1967 86.1931 10.995 86.1893C18.0799 86.162 25.1606 86.1737 32.2454 86.1698C36.4489 86.1698 40.6566 86.1854 44.8601 86.1542C45.5503 86.1504 45.7457 86.3332 45.7083 86.9635C45.6501 87.8972 45.7291 88.8388 45.6792 89.7764C45.6501 90.3522 45.8788 90.5001 46.4567 90.4806C47.4587 90.4417 48.4608 90.4923 49.4628 90.4651C49.995 90.4495 50.2029 90.5896 50.1821 91.1226C50.1405 92.3326 50.1696 93.5426 50.1696 94.7525C48.6894 94.7409 47.2051 94.7292 45.7249 94.7175L45.7332 94.7253C45.7291 93.5465 45.6584 92.3637 45.7457 91.1887C45.7956 90.469 45.542 90.3873 44.8601 90.3911C32.0583 90.4106 19.2524 90.395 6.45058 90.4184C5.69386 90.4184 5.48182 90.2433 5.49013 89.5235C5.52755 84.9871 5.51092 80.4467 5.51092 75.9102C5.51092 52.7959 5.51092 29.6817 5.50676 6.5635C5.48597 5.83595 5.44024 5.11619 5.41113 4.39253Z" fill="#475467"/>
<path d="M5.41142 4.39251C5.43636 5.11616 5.48626 5.83982 5.48626 6.56348C5.49041 29.6777 5.49041 52.792 5.49041 75.9063C5.49041 80.4428 5.50705 84.9831 5.46962 89.5196C5.46547 90.2394 5.67751 90.4145 6.43007 90.4145C19.2319 90.395 32.0378 90.4067 44.8396 90.3872C45.5215 90.3872 45.7751 90.4689 45.7252 91.1848C45.6421 92.3598 45.7086 93.5425 45.7127 94.7214C40.4448 94.7292 35.1728 94.737 29.9049 94.7408C20.6247 94.7447 11.3487 94.7331 2.06856 94.7525C1.32016 94.7525 0.991699 94.6397 0.991699 93.8304C1.0208 64.2772 1.01665 34.7239 1.00001 5.17063C1.00001 4.49366 1.20375 4.24855 1.93136 4.29913C3.08722 4.38083 4.25555 4.20965 5.41142 4.39251Z" fill="#8A9FE6"/>
<path d="M59.1091 107.603C62.0736 107.623 65.0381 107.642 67.9984 107.658C68.2978 108.969 68.0732 110.296 68.119 111.615C68.1314 112.019 67.7697 111.98 67.4828 111.98C64.9258 111.984 62.3729 111.969 59.8201 111.996C59.1839 112.004 59.0675 111.747 59.08 111.233C59.1174 110.023 59.1049 108.813 59.1091 107.603Z" fill="#8A9FE6"/>
<path d="M59.0673 103.269C59.2294 104.713 59.1255 106.164 59.1172 107.611C57.8615 107.623 56.6059 107.611 55.3544 107.658C54.7224 107.681 54.6018 107.413 54.6143 106.899C54.6434 105.965 54.6018 105.032 54.6309 104.098C54.6475 103.596 54.4604 103.39 53.9116 103.405C53.0426 103.433 52.1695 103.366 51.3047 103.425C50.4482 103.479 50.0781 103.254 50.1405 102.378C50.2154 101.301 50.1447 100.211 50.1364 99.1256C50.1696 99.0906 50.2029 99.0595 50.2361 99.0245C51.6997 99.0556 53.1632 99.0828 54.6268 99.114L54.6101 99.0945C54.6268 100.269 54.66 101.444 54.6475 102.619C54.6434 103.09 54.7307 103.351 55.3253 103.328C56.5809 103.285 57.8366 103.292 59.0922 103.281L59.0673 103.269Z" fill="#8A9FE6"/>
<path d="M45.7085 94.7175C47.1886 94.7292 48.673 94.7408 50.1531 94.7525L50.1406 94.737C50.1698 96.1648 50.1989 97.5966 50.228 99.0244C50.1947 99.0595 50.1614 99.0906 50.1282 99.1256C48.9349 99.11 47.7375 99.0556 46.5442 99.0945C45.8457 99.1139 45.6544 98.8766 45.6794 98.258C45.7251 97.0791 45.7001 95.8964 45.7085 94.7175Z" fill="#8A9FE6"/>
<path d="M50.1533 94.7525C50.1533 93.5425 50.1242 92.3287 50.1658 91.1226C50.1866 90.5856 49.9787 90.4495 49.4465 90.465C48.4445 90.4923 47.4383 90.4456 46.4404 90.4806C45.8625 90.5039 45.6338 90.3522 45.6629 89.7764C45.7128 88.8387 45.6338 87.8972 45.692 86.9635C45.7336 86.3293 45.534 86.1464 44.8439 86.1542C40.6403 86.1853 36.4368 86.1698 32.2292 86.1698C25.1443 86.1698 18.0636 86.1581 10.9788 86.1892C10.1846 86.1931 9.87695 86.0842 9.87695 85.2282C9.90606 58.5657 9.9019 31.9032 9.88111 5.24065C9.88111 4.50143 10.0557 4.27967 10.879 4.28356C31.0941 4.3069 51.3092 4.3069 71.5202 4.28356C72.3559 4.28356 72.5929 4.45086 72.5929 5.26789C72.5679 31.8721 72.5638 58.4723 72.597 85.0765C72.597 86.0414 72.2893 86.2748 71.3497 86.1892C70.5805 86.1192 69.7947 86.2203 69.0213 86.1698C68.2729 86.1231 68.0692 86.4188 68.1025 87.0724C68.1482 88.01 68.0858 88.9477 68.1232 89.8853C68.144 90.3756 67.9569 90.5001 67.458 90.4845C66.3603 90.4534 65.2585 90.4767 64.1609 90.4728C63.7701 90.4728 63.5954 90.4923 63.6037 91.0136C63.6578 94.8887 63.6287 98.7599 63.6453 102.635C63.6495 103.152 63.5539 103.421 62.9136 103.378C61.6288 103.292 60.3357 103.487 59.0551 103.273L59.0759 103.289C59.0801 102.086 59.0676 100.884 59.105 99.6858C59.1175 99.2073 58.9512 99.0672 58.4481 99.0789C57.1633 99.1139 55.8786 99.0945 54.598 99.0984L54.6146 99.1178C54.6146 97.9389 54.5606 96.7601 54.6354 95.589C54.6812 94.8692 54.3984 94.7408 53.7082 94.7642C52.5191 94.807 51.3217 94.7564 50.1325 94.7447L50.1533 94.7525ZM41.2141 60.2581C43.8917 60.2581 46.5735 60.2348 49.2511 60.2737C49.987 60.2854 50.2115 60.0675 50.17 59.3944C50.1159 58.4918 50.1325 57.5814 50.1617 56.6749C50.1783 56.1302 49.9621 55.9201 49.3758 55.9201C43.9541 55.9317 38.5282 55.9317 33.1065 55.9201C32.4578 55.9201 32.2624 56.1691 32.2832 56.7371C32.3165 57.6436 32.329 58.5502 32.2791 59.4567C32.2416 60.1103 32.5119 60.2776 33.173 60.2698C35.8547 60.2426 38.5365 60.2581 41.2141 60.2581ZM32.2957 38.7779C32.2998 37.5991 32.2749 36.4202 32.3082 35.2452C32.3248 34.6811 32.1751 34.436 31.5057 34.4438C29.0526 34.4749 26.5995 34.471 24.1464 34.4477C23.5727 34.4438 23.3481 34.5877 23.3565 35.1596C23.3856 37.5446 23.3814 39.9335 23.3565 42.3184C23.3523 42.8864 23.581 43.0382 24.1506 43.0343C26.6037 43.0148 29.0568 43.0071 31.5099 43.0382C32.1876 43.046 32.3165 42.7775 32.304 42.225C32.2749 41.0773 32.2957 39.9257 32.2957 38.7779ZM59.0884 38.7235C59.0884 37.5757 59.0593 36.4241 59.1009 35.2764C59.1217 34.6733 58.9678 34.4243 58.2527 34.436C55.8329 34.4788 53.4089 34.471 50.9849 34.4438C50.3571 34.436 50.1409 34.6072 50.1492 35.2102C50.1783 37.5679 50.1741 39.9257 50.1533 42.2834C50.1492 42.8164 50.2947 43.0382 50.9101 43.0304C53.3964 43.0032 55.8828 43.0071 58.3733 43.0265C58.9179 43.0304 59.1133 42.8553 59.1009 42.3456C59.0718 41.1434 59.0884 39.9335 59.0884 38.7235Z" fill="#FDFDFD"/>
<path d="M50.1406 94.737C51.3339 94.7487 52.5272 94.7992 53.7163 94.7564C54.4023 94.7331 54.6892 94.8615 54.6435 95.5813C54.5687 96.7562 54.6227 97.9351 54.6227 99.1101C53.1592 99.0789 51.6956 99.0517 50.2321 99.0206C50.1988 97.5966 50.1697 96.1687 50.1406 94.737Z" fill="#475467"/>
<path d="M54.6064 99.0984C55.8912 99.0945 57.176 99.11 58.4566 99.0789C58.9638 99.0672 59.1301 99.2073 59.1135 99.6858C59.0761 100.888 59.0927 102.086 59.0844 103.289C57.8287 103.3 56.5731 103.292 55.3174 103.335C54.7229 103.355 54.6356 103.098 54.6397 102.627C54.6563 101.448 54.6189 100.273 54.6064 99.0984Z" fill="#475467"/>
<path d="M41.2141 62.2186C38.5365 62.2186 35.8547 62.203 33.1771 62.2303C32.516 62.2381 32.2458 62.0708 32.2832 61.4171C32.3372 60.5145 32.3206 59.6041 32.2873 58.6976C32.2665 58.1295 32.4578 57.8805 33.1106 57.8805C38.5323 57.8961 43.9582 57.8922 49.38 57.8805C49.9662 57.8805 50.1824 58.0906 50.1658 58.6353C50.1367 59.5418 50.1159 60.4484 50.1741 61.3549C50.2157 62.0241 49.9911 62.2419 49.2552 62.2342C46.5735 62.1953 43.8917 62.2186 41.2141 62.2186Z" fill="#8A9FE6"/>
<path d="M32.2959 40.7384C32.2959 41.8861 32.2751 43.0339 32.3042 44.1816C32.3208 44.7341 32.1878 45.0025 31.5101 44.9947C29.057 44.9636 26.6039 44.9714 24.1508 44.9909C23.577 44.9947 23.3483 44.843 23.3567 44.275C23.3816 41.89 23.3858 39.5012 23.3567 37.1162C23.3483 36.5443 23.577 36.4003 24.1466 36.4042C26.5997 36.4276 29.0528 36.4315 31.5059 36.4003C32.1712 36.3925 32.325 36.6338 32.3084 37.2018C32.2751 38.3807 32.3 39.5595 32.2959 40.7384Z" fill="#8A9FE6"/>
<path d="M59.0881 40.6839C59.0881 41.8939 59.0673 43.1039 59.0965 44.31C59.1089 44.8196 58.9177 44.9947 58.3688 44.9908C55.8825 44.9714 53.3961 44.9675 50.9056 44.9947C50.2903 45.0025 50.1448 44.7768 50.1489 44.2477C50.1739 41.89 50.178 39.5323 50.1448 37.1745C50.1364 36.5715 50.3527 36.4042 50.9805 36.4081C53.4045 36.4353 55.8243 36.4392 58.2483 36.4003C58.9634 36.3886 59.1172 36.6376 59.0965 37.2407C59.059 38.3884 59.0881 39.5362 59.0881 40.6839Z" fill="#8A9FE6"/>
</svg>
