<svg width="40" height="40" viewBox="0 0 40 40" fill="none" xmlns="http://www.w3.org/2000/svg">
<rect width="40" height="40" rx="20" fill="#F2F4F7"/>
<path d="M21.6673 11.8912V15.3334C21.6673 15.8001 21.6673 16.0334 21.7581 16.2117C21.838 16.3685 21.9655 16.496 22.1223 16.5759C22.3006 16.6667 22.5339 16.6667 23.0007 16.6667H26.4428M26.6673 18.3235V24.3334C26.6673 25.7335 26.6673 26.4336 26.3948 26.9683C26.1552 27.4387 25.7727 27.8212 25.3023 28.0609C24.7675 28.3334 24.0674 28.3334 22.6673 28.3334H17.334C15.9339 28.3334 15.2338 28.3334 14.699 28.0609C14.2286 27.8212 13.8462 27.4387 13.6065 26.9683C13.334 26.4336 13.334 25.7335 13.334 24.3334V15.6667C13.334 14.2666 13.334 13.5665 13.6065 13.0317C13.8462 12.5613 14.2286 12.1789 14.699 11.9392C15.2338 11.6667 15.9339 11.6667 17.334 11.6667H20.0105C20.6219 11.6667 20.9277 11.6667 21.2154 11.7358C21.4705 11.797 21.7143 11.898 21.938 12.0351C22.1903 12.1897 22.4065 12.4059 22.8389 12.8383L25.4957 15.4951C25.9281 15.9275 26.1443 16.1437 26.2989 16.396C26.436 16.6197 26.537 16.8635 26.5982 17.1186C26.6673 17.4063 26.6673 17.7121 26.6673 18.3235Z" stroke="#475467" stroke-width="1.66667" stroke-linecap="round" stroke-linejoin="round"/>
</svg>
