<svg width="48" height="48" viewBox="0 0 48 48" fill="none" xmlns="http://www.w3.org/2000/svg">
<path d="M3 15.075C3 10.8038 3 8.66823 3.8444 7.04269C4.55597 5.67287 5.67287 4.55597 7.04269 3.8444C8.66823 3 10.8038 3 15.075 3H32.925C37.1962 3 39.3318 3 40.9573 3.8444C42.3271 4.55597 43.444 5.67287 44.1556 7.04269C45 8.66823 45 10.8038 45 15.075V32.925C45 37.1962 45 39.3318 44.1556 40.9573C43.444 42.3271 42.3271 43.444 40.9573 44.1556C39.3318 45 37.1962 45 32.925 45H15.075C10.8038 45 8.66823 45 7.04269 44.1556C5.67287 43.444 4.55597 42.3271 3.8444 40.9573C3 39.3318 3 37.1962 3 32.925V15.075Z" fill="url(#paint0_linear_5424_411806)"/>
<path d="M21.9323 36.2905L11.7109 26.0691C12.584 31.2937 16.7077 35.4174 21.9323 36.2905Z" fill="#F2F3F8"/>
<path d="M11.5586 23.3062L24.6949 36.4425C25.4742 36.3996 26.2344 36.2854 26.9691 36.1058L11.8953 21.032C11.7157 21.7667 11.6014 22.5269 11.5586 23.3062Z" fill="#F2F3F8"/>
<path d="M12.5508 19.0762L28.9256 35.451C29.5212 35.1945 30.0928 34.893 30.6361 34.5506L13.4512 17.3657C13.1088 17.909 12.8073 18.4806 12.5508 19.0762Z" fill="#F2F3F8"/>
<path d="M14.5586 15.865C16.8437 13.2154 20.2254 11.5383 23.9988 11.5383C30.8811 11.5383 36.4604 17.1176 36.4604 23.9999C36.4604 27.7733 34.7833 31.155 32.1337 33.4401L14.5586 15.865Z" fill="#F2F3F8"/>
<defs>
<linearGradient id="paint0_linear_5424_411806" x1="3" y1="45" x2="45" y2="3" gradientUnits="userSpaceOnUse">
<stop stop-color="#29359B"/>
<stop offset="1" stop-color="#6068CA"/>
</linearGradient>
</defs>
</svg>
