<svg width="28" height="26" viewBox="0 0 28 26" fill="none" xmlns="http://www.w3.org/2000/svg">
<g clip-path="url(#clip0_203_16274)">
<path d="M22.9997 22.1663H22.0991V22.9994H22.9997V22.1663Z" fill="#F2A317"/>
<path d="M23.9001 19.6669H22.9995V20.4988H23.9001V19.6669Z" fill="#F2A317"/>
<path d="M5.8996 11.3331H4.99902V12.1663H5.8996V11.3331Z" fill="#FAF1CE"/>
<path d="M26.6008 8.83374H25.699H24.7997H23.9003V9.66687V10.5V11.3331V12.1663V13.0006V13.8337V14.6669V15.5V16.3344V17.1663V17.9994H22.9997V18.8325V19.6669H23.9003V20.5H22.9997V19.6669H22.0992V20.5H21.1998V21.3331H20.3005V22.1663V22.9994H19.3999H18.4993V23.8325H17.6V24.6656H16.7006H15.7988V25.5H16.7006H17.6H18.4993H19.3999V24.6656H20.3005H21.1998V23.8325H22.0992V22.9994V22.1663H22.9997V22.9994H23.9003V22.1663V21.3331H24.7997V20.5H25.699V19.6669V18.8325H26.6008V17.9994V17.1663H27.5001V16.3344V15.5V14.6669V13.8337V13.0006V12.1663V11.3331V10.5V9.66687V8.83374H26.6008Z" fill="#F2A317"/>
<path d="M17.6 24.6448V24.6656H15.7988V25.5H19.3999V24.6656H21.1998V24.6448H17.6Z" fill="black"/>
<path d="M22.9997 6.33313H22.0991V7.16626H22.9997V6.33313Z" fill="white"/>
<path d="M22.0991 8.83374V7.99939V7.16626V6.33313H21.1997V5.5H20.3004V4.66687H19.3998V3.83374H18.4993V3.00061H17.5999V2.16748H16.7006H15.8V1.33313H14.9006H14.0013H13.1007H12.2002H11.3008H10.4015H9.50213H8.60155V2.16748H7.70221H6.80287V3.00061H5.90229V3.83374H5.00172V4.66687H4.10238V5.5H3.20303V6.33313V7.16626H2.30246V7.99939V8.83252H1.39941V9.66565V10.4988V11.3319V12.165V12.9982V13.8313V14.6644V15.4976V16.3319V17.165H2.29876V17.9969V18.8301H3.19933V19.6644V20.4963H4.09867V21.3295H4.99802V22.1626H5.89859V22.9957H6.79917V23.8289H7.69851H8.59785V24.662H9.49843H10.3978H11.2971H12.1965H13.097H13.9976H14.8969H15.7963V23.8289H16.6969H17.5962V22.9957H18.4956V22.1626H19.3961V21.3295H20.2967V20.4963H21.196V19.6644H22.0954V18.8301V17.9969H22.996V17.165V16.3319V15.4976V14.6644V13.8313V12.9982V12.165V11.3319V10.4988V9.66565V8.83252H22.0991V8.83374ZM4.99925 9.66687V8.83374V7.99939H5.89983V7.16626H6.8004V6.33313H7.69974V5.5H8.59909V4.66687H9.49966H10.399H11.2983H12.1977H13.0983H13.9988H14.8982H15.7975V5.5H16.6981V6.33313H17.5974V7.16626H18.4968V7.99939H19.3974V8.83252V9.66565H20.2979V10.4988V11.3319V12.165V12.9982V13.8313V14.6644V15.4976V16.3319H19.3974V17.165V17.9969H18.4968V18.8301H17.5974V19.6644H16.6981V20.4963H15.7975V21.3295H14.8982H13.9988H13.0983H12.1977H11.2983H10.399H9.49966H8.59909V20.4963H7.69974V19.6644H6.8004V18.8301H5.89983V17.9969H4.99925V17.165V16.3319H4.09991V15.4976V14.6644V13.8313V12.9982V12.165V11.3319V10.4988V9.66565H4.99925V9.66687Z" fill="#FDCD00"/>
<path d="M6.79924 8.83374H5.8999V9.66687V10.5V11.3331V12.1663V13.0006V13.8337V14.6669V15.5H6.79924V16.3344V17.1663H7.69982V17.9994H8.59916V18.8325H9.49974H10.4003V19.6669H11.2997H12.199H13.0996H14.0001H14.9007V18.8325H15.7988H16.7006V17.9994H17.6V17.1663H18.4993V16.3344V15.5H19.3999V14.6669V13.8337V13.0006V12.1663V11.3331V10.5H18.4993V9.66687V8.83374V7.99939H17.6V7.16626H16.7006V6.33313H15.7988H14.9007V5.5H14.0001H13.0996H12.199H11.2997H10.4003H9.49974V6.33313H8.59916H7.69982V7.16626H6.79924V7.99939V8.83374Z" fill="#FDCD00"/>
<path d="M25.6988 6.33313V5.5V4.66687H24.7994V5.5H23.9001H22.9995V6.33313V7.16626V7.99939H23.9001V7.16626H24.7994H25.6988V7.99939V8.83374H26.6006V7.99939V7.16626V6.33313H25.6988Z" fill="#F2A317"/>
<path d="M23.9003 3.83374V3.00061H22.9997H22.0992V2.16748H21.1998V1.33313H20.3005H19.3999V0.5H18.4993H17.6H16.7006H15.7988V1.33313H16.7006H17.6V2.16748H18.4993V3.00061H19.3999V3.83374H20.3005V4.66687H21.1998H22.0992H22.9997H23.9003H24.7997V3.83374H23.9003Z" fill="#F2A317"/>
<path d="M25.6988 6.33313V5.5V4.66687H24.7994V5.5H23.9001H22.9995V6.33313V7.16626V7.99939H23.9001V7.16626H24.7994H25.6988V7.99939V8.83374H26.6006V7.99939V7.16626V6.33313H25.6988Z" fill="#F2A317"/>
<path d="M25.6987 6.33313V5.5V4.66687H24.7993V5.5V6.33313H25.6987V7.16626V7.99939V8.83374H26.6005V7.99939V7.16626V6.33313H25.6987Z" fill="black"/>
<path d="M22.0991 2.16748H21.1997V3.00061H22.0991V2.16748Z" fill="black"/>
<path d="M22.0991 3.83374H22.9997H23.9003V3.00061H22.9997H22.0991V3.83374Z" fill="black"/>
<path d="M20.3005 2.16748H21.1998V1.33313H20.3005H19.3999V2.16748H20.3005Z" fill="black"/>
<path d="M24.7997 3.83374H23.9004V4.66687H24.7997V3.83374Z" fill="black"/>
<path d="M16.7006 1.33313H17.6H18.4993H19.3999V0.5H18.4993H17.6H16.7006H15.7988V1.33313H16.7006Z" fill="black"/>
<path d="M22.9997 19.6669H22.0991V20.5H22.9997V19.6669Z" fill="black"/>
<path d="M26.6005 8.83374H25.6987H26.6005V9.66687V10.5V11.3331V12.1663V13.0006V13.8337V14.6669V15.5V16.3344V17.1663H27.4999V16.3344V15.5V14.6669V13.8337V13.0006V12.1663V11.3331V10.5V9.66687V8.83374H26.6005Z" fill="black"/>
<path d="M22.9995 21.3331V22.1663V22.9994H23.9001V22.1663V21.3331H22.9995Z" fill="black"/>
<path d="M24.7997 20.5H23.9004V21.3331H24.7997V20.5Z" fill="black"/>
<path d="M25.6987 17.1663V17.9994V18.8325H24.7993V19.6669V20.5H25.6987V19.6669V18.8325H26.6005V17.9994V17.1663H25.6987Z" fill="black"/>
<path d="M19.3996 24.6656H18.499V25.5H19.3996V24.6656Z" fill="black"/>
<path d="M22.0991 22.9994V22.1663H21.1997V22.9994V23.8325H22.0991V22.9994Z" fill="black"/>
<path d="M21.1996 23.8325H20.3003V24.6656H21.1996V23.8325Z" fill="black"/>
<path d="M15.7988 23.8325V24.6656H14.9007H14.0001H13.0995H12.199H11.3008H10.4003H9.4997H8.59912V25.5H9.4997H10.4003H11.3008H12.199H13.0995H14.0001H14.9007H15.7988V24.6656H16.7006H17.5999V23.8325H16.7006H15.7988Z" fill="black"/>
<path d="M18.499 22.9994H17.5996V23.8325H18.499V22.9994Z" fill="black"/>
<path d="M19.3996 22.1663H18.499V22.9994H19.3996H20.3002V22.1663V21.3331H19.3996V22.1663Z" fill="black"/>
<path d="M21.1996 20.5H20.3003V21.3331H21.1996V20.5Z" fill="black"/>
<path d="M22.0991 19.6669H21.1997V20.4988H22.0991V19.6669Z" fill="black"/>
<path d="M22.0991 18.8325V19.6669H22.9997V18.8325V17.9994H22.0991V18.8325Z" fill="black"/>
<path d="M22.9995 9.66687V10.5V11.3331V12.1663V13.0006V13.8337V14.6669V15.5V16.3344V17.1663V17.9994H23.9001V17.1663V16.3344V15.5V14.6669V13.8337V13.0006V12.1663V11.3331V10.5V9.66687H22.9995Z" fill="black"/>
<path d="M22.0991 7.99939V8.83374H22.9997V7.99939V7.16626H22.0991V7.99939Z" fill="black"/>
<path d="M22.0991 5.5H21.1997V6.33313H22.0991V5.5Z" fill="black"/>
<path d="M17.6 18.8325H16.7007V19.6669H17.6V18.8325Z" fill="black"/>
<path d="M18.499 9.66687V10.5H19.3995V11.3331V12.1663V13.0006V13.8337V14.6669V15.5H18.499V16.3344V17.1663H17.5996V17.9994V18.8325H18.499V17.9994H19.3995V17.1663V16.3344H20.3001V15.5V14.6669V13.8337V13.0006V12.1663V11.3331V10.5V9.66687H19.3995V8.83374V7.99939H18.499V8.83374V9.66687Z" fill="black"/>
<path d="M18.499 7.16626H17.5996V7.99939H18.499V7.16626Z" fill="black"/>
<path d="M17.6 6.33313H16.7007V7.16626H17.6V6.33313Z" fill="black"/>
<path d="M21.1996 4.66687H20.3003V5.5H21.1996V4.66687Z" fill="black"/>
<path d="M20.3005 3.83374H19.3999V4.66687H20.3005V3.83374Z" fill="black"/>
<path d="M19.3996 3.00061H18.499V3.83374H19.3996V3.00061Z" fill="black"/>
<path d="M18.499 2.16748H17.5996V3.00061H18.499V2.16748Z" fill="black"/>
<path d="M15.7988 2.16748H16.7006H17.6V1.33313H16.7006H15.7988V2.16748Z" fill="black"/>
<path d="M7.69989 23.8325H6.79932V24.6656H7.69989H8.59923V23.8325H7.69989Z" fill="black"/>
<path d="M6.80048 22.9994H5.8999V23.8325H6.80048V22.9994Z" fill="black"/>
<path d="M4.99895 22.1663V21.3331H4.09961V22.1663V22.9994H4.99895H5.89953V22.1663H4.99895Z" fill="black"/>
<path d="M4.09856 20.5H3.19922V21.3331H4.09856V20.5Z" fill="black"/>
<path d="M9.49962 21.3331H10.4002H11.3008H12.1989H13.0995H14H14.9006H15.7987V20.5H16.7005V19.6669H15.7987H14.9006V20.5H14H13.0995H12.1989H11.3008H10.4002H9.49962V19.6669H8.59905H7.69971V20.5H8.59905V21.3331H9.49962Z" fill="black"/>
<path d="M7.69866 18.8325H6.79932V19.6669H7.69866V18.8325Z" fill="black"/>
<path d="M3.19915 18.8325H2.2998V19.6669V20.5H3.19915V19.6669V18.8325Z" fill="black"/>
<path d="M2.29999 17.1663H1.39941V17.9994V18.8325H2.29999V17.9994V17.1663Z" fill="black"/>
<path d="M1.39934 15.5V14.6669V13.8337V13.0006V12.1663V11.3331V10.5V9.66687H0.5V10.5V11.3331V12.1663V13.0006V13.8337V14.6669V15.5V16.3344H1.39934V15.5Z" fill="black"/>
<path d="M6.79887 17.1663H5.89953V16.3344V15.5H4.99895V14.6669V13.8337V13.0006V12.1663V11.3331V10.5H5.89953V9.66687V8.83374H6.79887V7.99939V7.16626H5.89953V7.99939H4.99895V8.83374V9.66687H4.09961V10.5V11.3331V12.1663V13.0006V13.8337V14.6669V15.5V16.3344H4.99895V17.1663V17.9994H5.89953V18.8325H6.79887V17.9994V17.1663Z" fill="black"/>
<path d="M2.29999 7.99939V7.16626H1.39941V7.99939V8.83374H2.29999V7.99939Z" fill="black"/>
<path d="M7.69866 6.33313H6.79932V7.16626H7.69866V6.33313Z" fill="black"/>
<path d="M3.19915 6.33313V5.5H2.2998V6.33313V7.16626H3.19915V6.33313Z" fill="black"/>
<path d="M9.49962 6.33313V5.5H10.4002H11.3008H12.1989H13.0995H14H14.9006V6.33313H15.7987H16.7005V5.5H15.7987V4.66687H14.9006H14H13.0995H12.1989H11.3008H10.4002H9.49962H8.59905V5.5H7.69971V6.33313H8.59905H9.49962Z" fill="black"/>
<path d="M4.09856 4.66687H3.19922V5.5H4.09856V4.66687Z" fill="black"/>
<path d="M4.99895 3.83374H4.09961V4.66687H4.99895V3.83374Z" fill="black"/>
<path d="M5.8996 3.00061H4.99902V3.83374H5.8996V3.00061Z" fill="black"/>
<path d="M6.80048 2.16748H5.8999V3.00061H6.80048V2.16748Z" fill="black"/>
<path d="M8.59923 2.16748V1.33313H7.69989H6.79932V2.16748H7.69989H8.59923Z" fill="black"/>
<path d="M10.4003 1.33313H11.3008H12.199H13.0995H14.0001H14.9007H15.7988V0.5H14.9007H14.0001H13.0995H12.199H11.3008H10.4003H9.4997H8.59912V1.33313H9.4997H10.4003Z" fill="black"/>
<path d="M24.7994 7.16626H23.9001V7.99939H22.9995V8.83374V9.66687H23.9001V8.83374H24.7994H25.6988V7.99939V7.16626H24.7994Z" fill="white"/>
<path d="M23.9002 4.66687H22.9996H22.0991H21.1997V5.5H22.0991V6.33313H22.9996V5.5H23.9002H24.7995V4.66687H23.9002Z" fill="white"/>
<path d="M13.0992 19.6669H12.1986H11.2992H10.3999V18.8325H9.49932H8.59875V17.9994H7.6994V17.1663H6.79883V17.9994V18.8325H7.6994V19.6669H8.59875H9.49932V20.5H10.3999H11.2992H12.1986H13.0992H13.9997H14.9003V19.6669H13.9997H13.0992Z" fill="white"/>
<path d="M14.9004 18.8325V19.6669H15.7985H16.7003V18.8325H15.7985H14.9004Z" fill="white"/>
<path d="M17.5995 17.9994H16.7002V18.8325H17.5995V17.9994Z" fill="white"/>
<path d="M6.79876 15.5H5.89941V16.3344V17.1663H6.79876V16.3344V15.5Z" fill="white"/>
<path d="M5.8996 13.8337V13.0006V12.1663H4.99902V13.0006V13.8337V14.6669V15.5H5.8996V14.6669V13.8337Z" fill="white"/>
<path d="M5.8996 10.5H4.99902V11.3331H5.8996V10.5Z" fill="white"/>
</g>
<defs>
<clipPath id="clip0_203_16274">
<rect width="27" height="25" fill="white" transform="translate(0.5 0.5)"/>
</clipPath>
</defs>
</svg>
