<svg width="35" height="28" viewBox="0 0 35 28" fill="none" xmlns="http://www.w3.org/2000/svg">
<path d="M2.94192 4.30418C3.00421 3.67254 2.96528 3.04091 2.96528 2.40928C2.96528 2.19369 3.03535 2.13696 3.24948 2.14452C3.79844 2.15965 4.35128 2.13318 4.90413 2.15587C5.16887 2.16722 5.2117 2.08023 5.20391 1.84951C5.18834 1.30109 5.20391 0.756446 5.19612 0.208023C5.19612 0.0680801 5.2117 0 5.38689 0C8.24845 0.00756446 11.11 0.00378223 13.9677 0.00756446C13.9988 0.00756446 14.03 0.0264756 14.0611 0.0340401C14.0339 0.714841 14.03 1.39186 14.065 2.07266C14.1351 2.20504 14.2597 2.14074 14.357 2.14452C14.9099 2.15209 15.4627 2.15965 16.0155 2.14074C16.2414 2.13318 16.292 2.20882 16.2881 2.41684C16.2725 2.96527 16.2959 3.51369 16.2764 4.05833C16.2686 4.2777 16.3465 4.31931 16.5567 4.31552C17.3509 4.30418 18.1491 4.3004 18.9433 4.31552C19.1847 4.31931 19.2353 4.24366 19.2275 4.02807C19.2119 3.52504 19.2392 3.01822 19.2158 2.51518C19.2041 2.2353 19.2625 2.12183 19.5857 2.13696C20.1268 2.16722 20.668 2.13696 21.2092 2.14831C21.3999 2.15209 21.4506 2.09157 21.4467 1.91381C21.435 1.36538 21.4506 0.816962 21.4389 0.272321C21.435 0.0794268 21.47 0 21.7036 0C24.4912 0.00756446 27.2749 0.00756446 30.0625 0C30.2766 0 30.3156 0.0642979 30.3117 0.253409C30.3 0.790486 30.3194 1.32756 30.3 1.86464C30.2922 2.08401 30.3467 2.15965 30.5842 2.15209C31.1487 2.13318 31.7132 2.15587 32.2739 2.14074C32.4763 2.13696 32.5425 2.18991 32.5386 2.39415C32.5269 2.95392 32.5308 3.50991 32.5386 4.06968C32.5386 4.15289 32.4763 4.27014 32.6243 4.30796C33.3173 4.33065 34.0103 4.33822 34.7072 4.30418C34.7734 4.40251 34.7422 4.5122 34.7422 4.6181C34.7461 8.71047 34.7422 12.8028 34.75 16.8952C34.75 17.1562 34.6994 17.2432 34.4152 17.2318C33.8623 17.2054 33.3095 17.2318 32.7566 17.2205C32.5814 17.2167 32.5308 17.2659 32.5347 17.4361C32.5464 17.9732 32.5153 18.5102 32.5464 19.0473C32.562 19.3499 32.453 19.4066 32.1726 19.3953C31.6432 19.3726 31.1098 19.3991 30.5803 19.3839C30.3701 19.3801 30.2922 19.4255 30.3 19.6449C30.3194 20.182 30.2961 20.7191 30.3117 21.2561C30.3194 21.4755 30.2688 21.5511 30.0275 21.5436C29.3851 21.5247 28.7466 21.536 28.1042 21.536L28.1081 21.5436C28.1042 20.9006 28.112 20.2538 28.0925 19.6109C28.0847 19.3915 28.182 19.3688 28.3689 19.3726C28.9101 19.3801 29.4512 19.365 29.9924 19.3801C30.2338 19.3877 30.3194 19.3348 30.3117 19.0851C30.2883 18.5481 30.3156 18.011 30.3 17.4739C30.2961 17.2772 30.3506 17.2129 30.5569 17.2205C31.1215 17.2356 31.686 17.2167 32.2466 17.2281C32.453 17.2318 32.5308 17.1902 32.5308 16.9671C32.523 12.8331 32.523 8.69913 32.5308 4.56893C32.5308 4.37604 32.4802 4.30796 32.2739 4.31174C31.721 4.32309 31.1682 4.30418 30.6153 4.32309C30.374 4.33065 30.2883 4.27392 30.2961 4.02429C30.3156 3.48722 30.2922 2.95014 30.3078 2.41306C30.3156 2.19369 30.2377 2.14831 30.0275 2.14831C28.7232 2.15587 27.419 2.15209 26.1147 2.15209C25.2971 2.15587 24.4795 2.16344 23.6619 2.171C22.9806 2.16344 22.3032 2.15965 21.6219 2.14831C21.4622 2.14452 21.4467 2.21639 21.4467 2.3412C21.4545 3.00309 21.4545 3.6612 21.4583 4.32309L21.4661 4.31552C20.816 4.31552 20.1619 4.33065 19.5117 4.30418C19.2431 4.29283 19.2119 4.39117 19.2158 4.61054C19.2314 5.22326 19.2197 5.8322 19.2197 6.44492C18.3126 6.4487 17.4054 6.44492 16.4983 6.45627C16.3192 6.46005 16.2764 6.39953 16.2764 6.2369C16.2842 5.67713 16.2725 5.12114 16.2842 4.56137C16.2881 4.36847 16.2414 4.3004 16.0311 4.30796C15.4549 4.32309 14.8826 4.30418 14.3064 4.31931C14.0962 4.32309 14.0417 4.25501 14.0455 4.06211C14.0572 3.52504 14.0378 2.98796 14.0572 2.45088C14.065 2.20882 13.991 2.14452 13.7419 2.14831C11.9938 2.15965 10.2457 2.15209 8.49762 2.15587C8.13166 2.15587 7.76958 2.16722 7.40361 2.17478C6.75733 2.16722 6.11104 2.16722 5.46476 2.14831C5.25452 2.14074 5.18444 2.18991 5.18834 2.4055C5.20391 3.04469 5.19612 3.68389 5.19612 4.32309L5.20002 4.31931C4.53816 4.31931 3.87241 4.31552 3.21055 4.31931C3.10154 4.31931 2.95749 4.26635 2.96138 4.47059C2.97696 5.13627 2.97696 5.79816 2.98474 6.46383C2.98085 6.47518 2.97696 6.48274 2.97696 6.49409C2.98085 10.004 2.98085 13.5177 2.96917 17.0276C2.96917 17.2243 3.07039 17.2243 3.21445 17.2243C3.79065 17.2205 4.36296 17.2318 4.93917 17.2205C5.14162 17.2167 5.2078 17.2697 5.20002 17.4701C5.18444 18.0185 5.20391 18.567 5.18834 19.1116C5.18055 19.3272 5.25842 19.3839 5.46865 19.3764C6.03318 19.365 6.5977 19.3801 7.15834 19.3688C7.34911 19.365 7.40361 19.4293 7.39972 19.6071C7.38804 20.2501 7.38804 20.8968 7.38804 21.5398L7.39193 21.5322C6.73786 21.5322 6.08768 21.5247 5.43361 21.536C5.22338 21.5398 5.17666 21.4831 5.18055 21.2864C5.19612 20.7266 5.17666 20.1706 5.18834 19.6109C5.19223 19.4255 5.12994 19.3726 4.94695 19.3764C4.38243 19.3877 3.8179 19.365 3.25727 19.3877C3.00031 19.3953 2.94192 19.3121 2.9497 19.0776C2.96917 18.5405 2.94581 18.0034 2.96138 17.4663C2.96528 17.2734 2.91856 17.2091 2.70832 17.2129C2.05814 17.2243 1.40407 17.2167 0.75 17.2129C0.76168 12.9239 0.76168 8.62348 0.76168 4.32687C1.48972 4.31931 2.21387 4.31174 2.94192 4.30418Z" fill="#344054"/>
<path d="M2.94195 4.30332C2.21391 4.31089 1.48976 4.31845 0.761719 4.32602C0.761719 4.30332 0.761719 4.28441 0.761719 4.26172C1.36907 4.2655 1.97642 4.27307 2.57988 4.28063C2.70057 4.28063 2.82126 4.29576 2.94195 4.30332Z" fill="#FD529F"/>
<path d="M16.2412 25.8636C14.8747 25.8598 13.512 25.8485 12.1455 25.856C11.9041 25.856 11.8262 25.8107 11.834 25.561C11.8535 24.9294 11.8418 24.2978 11.8457 23.6699L11.8418 23.6737C13.2278 23.6775 14.6138 23.6813 16.0037 23.6775C16.214 23.6775 16.2879 23.7267 16.284 23.9422C16.2724 24.5814 16.284 25.2244 16.2879 25.8674L16.2918 25.8636L16.2646 25.8485C16.2685 25.8447 16.2412 25.8636 16.2412 25.8636Z" fill="#344054"/>
<path d="M23.658 23.6699C23.658 24.3016 23.6425 24.937 23.6658 25.5686C23.6736 25.8258 23.5802 25.8598 23.3466 25.8598C21.9683 25.8523 20.5862 25.8636 19.208 25.8674L19.2119 25.8712C19.2158 25.2509 19.2314 24.6306 19.2119 24.0103C19.2041 23.7342 19.2937 23.6775 19.5623 23.6775C20.9288 23.6888 22.2915 23.6775 23.658 23.6775V23.6699Z" fill="#344054"/>
<path d="M11.846 23.6692C10.425 23.673 9.00393 23.6768 7.58289 23.6881C7.39601 23.6881 7.3999 23.5935 7.4038 23.4649C7.40769 22.822 7.4038 22.179 7.4038 21.536L7.3999 21.5436C8.80538 21.5398 10.2109 21.5436 11.6124 21.5322C11.8032 21.5322 11.8538 21.589 11.8499 21.7705C11.8382 22.4059 11.846 23.0376 11.846 23.673V23.6692Z" fill="#344054"/>
<path d="M28.1081 21.5399C28.1081 22.1829 28.1042 22.8259 28.1081 23.4651C28.1081 23.5937 28.1159 23.6882 27.929 23.6882C26.508 23.6769 25.0869 23.6731 23.6659 23.6693L23.6698 23.6731C23.6698 23.0415 23.6737 22.4098 23.6659 21.7782C23.662 21.6156 23.6854 21.5286 23.8917 21.5323C25.3011 21.5437 26.7104 21.5399 28.1198 21.5437L28.1081 21.5399Z" fill="#344054"/>
<path d="M19.2119 25.8626C19.2158 26.517 19.2236 27.1675 19.2274 27.8218C19.2274 27.9088 19.243 27.9958 19.1029 27.9958C18.1568 27.9731 17.2107 28.0374 16.2686 27.9618C16.2763 27.2621 16.288 26.5624 16.2958 25.8664L16.2919 25.8702C17.2652 25.8324 18.2386 25.8324 19.2119 25.8626Z" fill="#344054"/>
<path d="M16.2954 25.8589C16.2876 26.5586 16.2798 27.2583 16.2682 27.9542C16.1981 27.2583 16.2487 26.5586 16.2409 25.8627L16.2643 25.8438L16.2954 25.8589Z" fill="#FD529F"/>
<path d="M14.0649 2.0728C14.0298 1.392 14.0376 0.714981 14.061 0.0341797C14.1194 0.714981 14.1155 1.392 14.0649 2.0728Z" fill="#FD529F"/>
<path d="M34.7118 4.30683C34.0188 4.33709 33.3219 4.33331 32.6289 4.31061C33.3258 4.25388 34.0188 4.25388 34.7118 4.30683Z" fill="#FD529F"/>
<path d="M19.2159 25.864C18.2426 25.83 17.2654 25.83 16.2921 25.864C16.2882 25.221 16.2765 24.5818 16.2882 23.9388C16.2921 23.7233 16.2181 23.6703 16.0079 23.6741C14.6219 23.6816 13.2359 23.6741 11.846 23.6703C11.846 23.0349 11.8421 22.4033 11.8498 21.7678C11.8537 21.5901 11.8031 21.5296 11.6124 21.5296C10.2069 21.5409 8.80141 21.5371 7.39983 21.5409C7.40372 20.8979 7.39983 20.2512 7.41151 19.6082C7.4154 19.4266 7.36089 19.3661 7.17012 19.3699C6.6056 19.3813 6.04107 19.3661 5.48044 19.3775C5.2702 19.3813 5.19234 19.3283 5.20013 19.1127C5.2157 18.5643 5.19623 18.0159 5.21181 17.4712C5.2157 17.267 5.14951 17.2178 4.95096 17.2216C4.37475 17.2329 3.80244 17.2254 3.22623 17.2254C3.08218 17.2254 2.98096 17.2254 2.98096 17.0287C2.98096 13.5188 2.98096 10.0051 2.98485 6.4952C2.98485 6.48385 2.99264 6.47628 2.99264 6.46494C3.63113 6.46494 4.26963 6.45359 4.90424 6.46494C5.13005 6.46872 5.20791 6.4082 5.20402 6.18127C5.18845 5.56098 5.20013 4.9407 5.20402 4.3242L5.20013 4.32798C5.83862 4.3242 6.47712 4.31285 7.11562 4.32798C7.35311 4.33176 7.41151 4.25612 7.40761 4.03675C7.39593 3.41646 7.40761 2.79618 7.40761 2.17589C7.77358 2.16833 8.13566 2.15698 8.50163 2.15698C10.2497 2.15698 11.9978 2.16076 13.7459 2.14941C13.995 2.14941 14.069 2.20993 14.0612 2.45199C14.0418 2.98907 14.0651 3.52615 14.0495 4.06322C14.0457 4.25612 14.1002 4.3242 14.3104 4.32041C14.8866 4.30907 15.4589 4.3242 16.0351 4.30907C16.2454 4.30528 16.296 4.36958 16.2882 4.56248C16.2765 5.12225 16.2882 5.67823 16.2804 6.238C16.2765 6.40442 16.3232 6.46116 16.5023 6.45737C17.4094 6.44603 18.3166 6.44981 19.2237 6.44603C19.87 6.44981 20.5202 6.44224 21.1665 6.45737C21.4001 6.46494 21.4662 6.38929 21.4623 6.16992C21.4507 5.55342 21.4662 4.93313 21.4701 4.31285L21.4623 4.32041C22.1008 4.31663 22.7393 4.30528 23.3739 4.32041C23.6114 4.3242 23.6698 4.24477 23.6659 4.02918C23.6543 3.4089 23.6621 2.78861 23.6659 2.17211C24.4835 2.16454 25.3011 2.15698 26.1187 2.1532C27.423 2.14941 28.7272 2.15698 30.0315 2.14941C30.2417 2.14941 30.3196 2.1948 30.3118 2.41417C30.2962 2.95125 30.3196 3.48832 30.3001 4.0254C30.2884 4.27503 30.378 4.33176 30.6193 4.3242C31.1722 4.30907 31.725 4.32798 32.2779 4.31285C32.4842 4.30907 32.5348 4.37336 32.5348 4.57004C32.5309 8.70402 32.5309 12.838 32.5348 16.9682C32.5348 17.1913 32.4531 17.2329 32.2506 17.2292C31.6861 17.2178 31.1216 17.2329 30.5609 17.2216C30.3546 17.2178 30.2962 17.2783 30.304 17.475C30.3157 18.0121 30.2923 18.5492 30.3157 19.0862C30.3273 19.3396 30.2378 19.3888 29.9964 19.3813C29.4552 19.3661 28.9141 19.3813 28.3729 19.3737C28.1899 19.3699 28.0926 19.3964 28.0965 19.612C28.116 20.2549 28.1082 20.8979 28.1121 21.5447C26.7027 21.5409 25.2933 21.5447 23.884 21.5333C23.6776 21.5333 23.6582 21.6165 23.6582 21.7792C23.6659 22.4108 23.662 23.0424 23.662 23.6741C22.2955 23.6779 20.9329 23.6854 19.5663 23.6741C19.2977 23.6703 19.2081 23.7308 19.2159 24.0069C19.2354 24.6234 19.2198 25.2437 19.2159 25.864Z" fill="#FD529F"/>
<path d="M21.4664 4.31804C21.4625 4.93833 21.4509 5.55483 21.4586 6.17512C21.4625 6.39827 21.3964 6.47013 21.1628 6.46257C20.5165 6.44744 19.8663 6.45122 19.22 6.45122C19.22 5.8385 19.2317 5.22956 19.2161 4.61684C19.2122 4.39369 19.2434 4.29913 19.512 4.31048C20.1661 4.33317 20.8163 4.31804 21.4664 4.31804Z" fill="#FEFEFE"/>
<path d="M7.40732 2.1699C7.40732 2.79019 7.39564 3.41048 7.40732 4.03076C7.41122 4.25013 7.34892 4.32578 7.11533 4.32199C6.47683 4.31065 5.83833 4.32199 5.19983 4.32199C5.19983 3.6828 5.20762 3.0436 5.19205 2.4044C5.18815 2.18882 5.25823 2.13965 5.46847 2.14721C6.11475 2.16612 6.76104 2.16612 7.40732 2.1699Z" fill="#FEFEFE"/>
<path d="M23.666 2.17017C23.666 2.79046 23.6543 3.41074 23.666 4.02725C23.6699 4.24662 23.6153 4.32604 23.374 4.31848C22.7355 4.30335 22.097 4.31848 21.4624 4.31848C21.4585 3.65659 21.4585 2.99848 21.4507 2.33659C21.4507 2.21178 21.4663 2.13991 21.6259 2.1437C22.3033 2.16261 22.9846 2.16639 23.666 2.17017Z" fill="#FEFEFE"/>
<path d="M5.20748 4.31953C5.20748 4.93981 5.1958 5.5601 5.20748 6.1766C5.21137 6.40354 5.1374 6.46783 4.90769 6.46027C4.26919 6.44892 3.6307 6.45649 2.99609 6.46027C2.98831 5.7946 2.98441 5.13271 2.97273 4.46703C2.96884 4.26279 3.11289 4.31574 3.2219 4.31574C3.87987 4.31574 4.54172 4.31953 5.20748 4.31953Z" fill="#FEFEFE"/>
</svg>
