<svg width="60" height="60" viewBox="0 0 239 379" fill="none" xmlns="http://www.w3.org/2000/svg">
<path d="M0 292.371V227.4H10.8286V205.743H21.6571V184.086H32.4857V151.6H43.3143V140.771H54.1429V129.943H64.9714V86.6286H75.8V75.8H86.6286V64.9714H97.4571V54.1429H108.286V43.3143H151.6V0H184.086V10.8286H194.914V32.4857H205.743V64.9714H194.914V75.8H162.429V97.4571H151.6V108.286H173.257V119.114H184.086V129.943H194.914V140.771H205.743V151.6H216.571V173.257H227.4V227.4H238.229V292.371H227.4V314.029H216.571V335.686H205.743V346.514H194.914V357.343H173.257V368.171H151.6V379H86.6286V368.171H64.9714V357.343H43.3143V346.514H32.4857V335.686H21.6571V314.029H10.8286V292.371H0Z" fill="#000082"/>
<path fill-rule="evenodd" clip-rule="evenodd" d="M10.8286 238.229V281.543H21.6571V303.2H32.4857V324.857H43.3143V335.686H54.1429V346.514H75.8V357.343H97.4571V368.171H140.771V357.343H162.429V346.514H184.086V335.686H194.914V324.857H205.743V303.2H216.571V281.543H227.4V238.229H216.571V184.086H205.743V162.429H194.914V151.6H184.086V140.771H173.257V129.943H162.429V119.114H140.771V108.286H129.943V97.4571H140.771V75.8H151.6V64.9714H140.771V54.1429H119.114V64.9714H108.286V75.8H97.4571V86.6286H86.6286V97.4571H75.8V119.114H86.6286V129.943H75.8V140.771H64.9714V151.6H54.1429V162.429H43.3143V194.914H32.4857V216.571H21.6571V238.229H10.8286ZM97.4571 140.771H86.6286V129.943H97.4571V140.771ZM97.4571 140.771H108.286V162.429H97.4571V173.257H86.6286V151.6H97.4571V140.771ZM86.6286 281.543H75.8V270.714H64.9714V259.886H54.1429V238.229H64.9714V227.4H75.8V238.229H97.4571V227.4H86.6286V216.571H108.286V205.743H119.114V194.914H129.943V184.086H140.771V162.429H151.6V173.257H162.429V184.086H151.6V205.743H162.429V216.571H173.257V227.4H184.086V281.543H151.6V270.714H162.429V249.057H140.771V259.886H129.943V270.714H119.114V281.543H108.286V292.371H140.771V281.543H151.6V303.2H162.429V314.029H140.771V324.857H97.4571V314.029H75.8V303.2H64.9714V292.371H86.6286V281.543ZM162.429 205.743H173.257V194.914H162.429V205.743ZM140.771 162.429H129.943V151.6H140.771V162.429Z" fill="white"/>
<path d="M162.429 43.3143V32.4857H173.257V21.6571H162.429V10.8286H173.257V21.6571H184.086V43.3143H162.429Z" fill="white"/>
<path d="M162.429 64.9714V54.1429H184.086V43.3143H194.914V54.1429H184.086V64.9714H162.429Z" fill="#4691FF"/>
<path d="M43.3143 303.2V292.371H64.9714V303.2H75.8V314.029H97.4571V324.857H140.771V314.029H162.429V303.2H173.257V324.857H162.429V335.686H108.286V346.514H97.4571V335.686H86.6286V324.857H75.8V314.029H64.9714V303.2H43.3143Z" fill="#4691FF"/>
<path fill-rule="evenodd" clip-rule="evenodd" d="M119.114 75.8H108.286V86.6286H97.4571V108.286H86.6286V119.114H97.4571V129.943H108.286V140.771H119.114V173.257H108.286V184.086H97.4571V194.914H86.6286V184.086H75.8V173.257H64.9714V162.429H54.1429V194.914H64.9714V205.743H54.1429V216.571H43.3143V238.229H32.4857V270.714H43.3143V249.057H54.1429V227.4H64.9714V205.743H75.8V216.571H108.286V205.743H119.114V194.914H129.943V184.086H140.771V162.429H129.943V151.6H140.771V129.943H129.943V119.114H119.114V108.286H108.286V97.4571H119.114V75.8ZM151.6 162.429V173.257H162.429V162.429H173.257V184.086H162.429V194.914H184.086V205.743H173.257V227.4H184.086V281.543H173.257V292.371H194.914V281.543H205.743V270.714H194.914V249.057H205.743V238.229H194.914V216.571H205.743V205.743H194.914V194.914H184.086V162.429H173.257V151.6H162.429V140.771H151.6V151.6H162.429V162.429H151.6Z" fill="#4691FF"/>
<path d="M140.771 162.429H151.6V151.6H140.771V162.429Z" fill="#4691FF"/>
<path d="M21.6571 281.543V238.229H32.4857V216.571H43.3143V194.914H64.9714V205.743H75.8V216.571H86.6286V227.4H97.4571V238.229H75.8V227.4H64.9714V238.229H54.1429V227.4H64.9714V205.743H54.1429V216.571H43.3143V238.229H32.4857V270.714H43.3143V249.057H54.1429V270.714H43.3143V281.543H54.1429V292.371H43.3143V303.2H64.9714V314.029H75.8V324.857H86.6286V335.686H97.4571V346.514H108.286V335.686H162.429V324.857H173.257V303.2H151.6V281.543H173.257V292.371H194.914V281.543H205.743V270.714H194.914V249.057H205.743V238.229H194.914V216.571H205.743V238.229H216.571V281.543H205.743V303.2H194.914V324.857H184.086V335.686H162.429V346.514H140.771V357.343H97.4571V346.514H75.8V335.686H54.1429V324.857H43.3143V303.2H32.4857V281.543H21.6571Z" fill="#4BFFFF"/>
<path d="M64.9714 173.257V151.6H75.8V140.771H86.6286V151.6H75.8V173.257H86.6286V184.086H97.4571V173.257H108.286V162.429H119.114V173.257H108.286V184.086H97.4571V194.914H86.6286V184.086H75.8V173.257H64.9714Z" fill="#4BFFFF"/>
<path d="M140.771 64.9714H119.114V97.4571H129.943V75.8H140.771V64.9714Z" fill="#4BFFFF"/>
<path d="M86.6286 97.4571H97.4571V108.286H86.6286V97.4571Z" fill="#4BFFFF"/>
<path d="M162.429 151.6H173.257V140.771H162.429V151.6Z" fill="#4BFFFF"/>
<path d="M151.6 151.6V162.429H162.429V151.6H151.6Z" fill="#4BFFFF"/>
<path d="M184.086 151.6H173.257V162.429H184.086V151.6Z" fill="#4BFFFF"/>
<path d="M173.257 184.086V162.429H162.429V184.086H173.257Z" fill="#4BFFFF"/>
<path d="M194.914 162.429H184.086V194.914H194.914V205.743H205.743V184.086H194.914V162.429Z" fill="#4BFFFF"/>
<path d="M162.429 205.743V216.571H173.257V205.743H162.429Z" fill="#4BFFFF"/>
<path d="M162.429 184.086H151.6V205.743H162.429V184.086Z" fill="#4BFFFF"/>
<path d="M119.114 97.4571H108.286V108.286H119.114V97.4571Z" fill="#4BFFFF"/>
<path d="M119.114 108.286V119.114H129.943V108.286H119.114Z" fill="#4BFFFF"/>
<path d="M129.943 119.114V129.943H140.771V119.114H129.943Z" fill="#4BFFFF"/>
<path d="M140.771 129.943V151.6H151.6V140.771H162.429V129.943H140.771Z" fill="#4BFFFF"/>
<path d="M184.086 194.914H173.257V205.743H184.086V194.914Z" fill="#4BFFFF"/>
<path d="M162.429 43.3143H184.086V54.1429H162.429V43.3143Z" fill="#4BFFFF"/>
<path d="M140.771 238.229V249.057H151.6V238.229H140.771Z" fill="#4BFFFF"/>
<path d="M129.943 249.057V259.886H140.771V249.057H129.943Z" fill="#4BFFFF"/>
<path d="M119.114 259.886V270.714H129.943V259.886H119.114Z" fill="#4BFFFF"/>
<path d="M108.286 270.714V281.543H119.114V270.714H108.286Z" fill="#4BFFFF"/>
<path d="M97.4571 281.543V292.371H108.286V281.543H97.4571Z" fill="#4BFFFF"/>
</svg>
