<svg width="164" height="58" viewBox="0 0 164 58" fill="none" xmlns="http://www.w3.org/2000/svg">
<path d="M8.85918 0.493164L1.84668 7.50569V50.8558L8.85918 57.8684H154.847L161.222 51.4933V6.86819L154.847 0.493164H8.85918Z" fill="#F2F4F7"/>
<rect x="154.846" y="0.494141" width="2.73214" height="2.73215" fill="#4691FF"/>
<rect width="2.73214" height="2.73215" transform="matrix(1 0 0 -1 154.846 57.8691)" fill="#4691FF"/>
<rect x="157.577" y="3.22559" width="2.73214" height="2.73215" fill="#4691FF"/>
<rect width="2.73214" height="2.73215" transform="matrix(1 0 0 -1 157.577 55.1377)" fill="#4691FF"/>
<rect x="160.31" y="5.95898" width="2.73214" height="2.73215" fill="#4691FF"/>
<rect width="2.73214" height="2.73215" transform="matrix(1 0 0 -1 160.31 52.4043)" fill="#4691FF"/>
<rect x="160.31" y="8.69141" width="2.73214" height="2.73215" fill="#4691FF"/>
<rect width="2.73214" height="2.73215" transform="matrix(1 0 0 -1 160.31 49.6738)" fill="#4691FF"/>
<rect x="160.31" y="11.4238" width="2.73214" height="2.73215" fill="#4691FF"/>
<rect width="2.73214" height="2.73215" transform="matrix(1 0 0 -1 160.31 46.9414)" fill="#4691FF"/>
<rect x="160.31" y="14.1543" width="2.73214" height="2.73215" fill="#4691FF"/>
<rect width="2.73214" height="2.73215" transform="matrix(1 0 0 -1 160.31 44.209)" fill="#4691FF"/>
<rect x="160.31" y="16.8877" width="2.73214" height="2.73215" fill="#4691FF"/>
<rect width="2.73214" height="2.73215" transform="matrix(1 0 0 -1 160.31 41.4756)" fill="#4691FF"/>
<rect x="160.31" y="19.6191" width="2.73214" height="2.73215" fill="#4691FF"/>
<rect x="160.31" y="22.3506" width="2.73214" height="2.73215" fill="#4691FF"/>
<rect x="160.31" y="25.084" width="2.73214" height="2.73215" fill="#4691FF"/>
<rect x="160.31" y="27.8164" width="2.73214" height="2.73215" fill="#4691FF"/>
<rect x="160.31" y="30.5488" width="2.73214" height="2.73215" fill="#4691FF"/>
<rect x="160.31" y="33.2793" width="2.73214" height="2.73215" fill="#4691FF"/>
<rect x="160.31" y="36.0127" width="2.73214" height="2.73215" fill="#4691FF"/>
<rect width="2.73214" height="2.73215" transform="matrix(-1 0 0 1 8.76758 0.494141)" fill="#4691FF"/>
<rect x="8.76758" y="57.8691" width="2.73214" height="2.73215" transform="rotate(180 8.76758 57.8691)" fill="#4691FF"/>
<rect width="2.73214" height="2.73215" transform="matrix(-1 0 0 1 6.03613 3.22559)" fill="#4691FF"/>
<rect x="6.03662" y="55.1377" width="2.73214" height="2.73215" transform="rotate(180 6.03662 55.1377)" fill="#4691FF"/>
<rect width="2.73214" height="2.73215" transform="matrix(-1 0 0 1 3.30322 5.95898)" fill="#4691FF"/>
<rect x="3.30322" y="52.4043" width="2.73214" height="2.73215" transform="rotate(180 3.30322 52.4043)" fill="#4691FF"/>
<rect width="2.73214" height="2.73215" transform="matrix(-1 0 0 1 3.30322 8.69141)" fill="#4691FF"/>
<rect x="3.30322" y="49.6738" width="2.73214" height="2.73215" transform="rotate(180 3.30322 49.6738)" fill="#4691FF"/>
<rect width="2.73214" height="2.73215" transform="matrix(-1 0 0 1 3.30322 11.4238)" fill="#4691FF"/>
<rect x="3.30322" y="46.9414" width="2.73214" height="2.73215" transform="rotate(180 3.30322 46.9414)" fill="#4691FF"/>
<rect width="2.73214" height="2.73215" transform="matrix(-1 0 0 1 3.30322 14.1543)" fill="#4691FF"/>
<rect x="3.30322" y="44.209" width="2.73214" height="2.73215" transform="rotate(180 3.30322 44.209)" fill="#4691FF"/>
<rect width="2.73214" height="2.73215" transform="matrix(-1 0 0 1 3.30322 16.8877)" fill="#4691FF"/>
<rect x="3.30322" y="41.4756" width="2.73214" height="2.73215" transform="rotate(180 3.30322 41.4756)" fill="#4691FF"/>
<rect width="2.73214" height="2.73215" transform="matrix(-1 0 0 1 3.30322 19.6191)" fill="#4691FF"/>
<rect width="2.73214" height="2.73215" transform="matrix(-1 0 0 1 3.30322 22.3506)" fill="#4691FF"/>
<rect width="2.73214" height="2.73215" transform="matrix(-1 0 0 1 3.30322 25.084)" fill="#4691FF"/>
<rect width="2.73214" height="2.73215" transform="matrix(-1 0 0 1 3.30322 27.8164)" fill="#4691FF"/>
<rect width="2.73214" height="2.73215" transform="matrix(-1 0 0 1 3.30322 30.5488)" fill="#4691FF"/>
<rect width="2.73214" height="2.73215" transform="matrix(-1 0 0 1 3.30322 33.2793)" fill="#4691FF"/>
<rect width="2.73214" height="2.73215" transform="matrix(-1 0 0 1 3.30322 36.0127)" fill="#4691FF"/>
</svg>
