<svg width="174" height="69" viewBox="0 0 174 69" fill="none" xmlns="http://www.w3.org/2000/svg">
<g filter="url(#filter0_d_1056_100176)">
<path d="M14.012 0.493164L6.99951 7.50569V50.8558L14.012 57.8684H160L166.375 51.4933V6.86819L160 0.493164H14.012Z" fill="#4BFFFF"/>
<rect x="159.999" y="0.494141" width="2.73214" height="2.73215" fill="#4691FF"/>
<rect width="2.73214" height="2.73215" transform="matrix(1 0 0 -1 159.999 57.8691)" fill="#4691FF"/>
<rect x="162.731" y="3.22559" width="2.73214" height="2.73215" fill="#4691FF"/>
<rect width="2.73214" height="2.73215" transform="matrix(1 0 0 -1 162.731 55.1377)" fill="#4691FF"/>
<rect x="165.464" y="5.95898" width="2.73214" height="2.73215" fill="#4691FF"/>
<rect width="2.73214" height="2.73215" transform="matrix(1 0 0 -1 165.464 52.4043)" fill="#4691FF"/>
<rect x="165.464" y="8.69141" width="2.73214" height="2.73215" fill="#4691FF"/>
<rect width="2.73214" height="2.73215" transform="matrix(1 0 0 -1 165.464 49.6738)" fill="#4691FF"/>
<rect x="165.464" y="11.4238" width="2.73214" height="2.73215" fill="#4691FF"/>
<rect width="2.73214" height="2.73215" transform="matrix(1 0 0 -1 165.464 46.9414)" fill="#4691FF"/>
<rect x="165.464" y="14.1543" width="2.73214" height="2.73215" fill="#4691FF"/>
<rect width="2.73214" height="2.73215" transform="matrix(1 0 0 -1 165.464 44.209)" fill="#4691FF"/>
<rect x="165.464" y="16.8877" width="2.73214" height="2.73215" fill="#4691FF"/>
<rect width="2.73214" height="2.73215" transform="matrix(1 0 0 -1 165.464 41.4756)" fill="#4691FF"/>
<rect x="165.464" y="19.6191" width="2.73214" height="2.73215" fill="#4691FF"/>
<rect x="165.464" y="22.3506" width="2.73214" height="2.73215" fill="#4691FF"/>
<rect x="165.464" y="25.084" width="2.73214" height="2.73215" fill="#4691FF"/>
<rect x="165.464" y="27.8164" width="2.73214" height="2.73215" fill="#4691FF"/>
<rect x="165.464" y="30.5488" width="2.73214" height="2.73215" fill="#4691FF"/>
<rect x="165.464" y="33.2793" width="2.73214" height="2.73215" fill="#4691FF"/>
<rect x="165.464" y="36.0127" width="2.73214" height="2.73215" fill="#4691FF"/>
<rect width="2.73214" height="2.73215" transform="matrix(-1 0 0 1 13.9209 0.494141)" fill="#4691FF"/>
<rect x="13.9209" y="57.8691" width="2.73214" height="2.73215" transform="rotate(180 13.9209 57.8691)" fill="#4691FF"/>
<rect width="2.73214" height="2.73215" transform="matrix(-1 0 0 1 11.1895 3.22559)" fill="#4691FF"/>
<rect x="11.1895" y="55.1377" width="2.73214" height="2.73215" transform="rotate(180 11.1895 55.1377)" fill="#4691FF"/>
<rect width="2.73214" height="2.73215" transform="matrix(-1 0 0 1 8.45654 5.95898)" fill="#4691FF"/>
<rect x="8.45703" y="52.4043" width="2.73214" height="2.73215" transform="rotate(180 8.45703 52.4043)" fill="#4691FF"/>
<rect width="2.73214" height="2.73215" transform="matrix(-1 0 0 1 8.45703 8.69141)" fill="#4691FF"/>
<rect x="8.45703" y="49.6738" width="2.73214" height="2.73215" transform="rotate(180 8.45703 49.6738)" fill="#4691FF"/>
<rect width="2.73214" height="2.73215" transform="matrix(-1 0 0 1 8.45703 11.4238)" fill="#4691FF"/>
<rect x="8.45703" y="46.9414" width="2.73214" height="2.73215" transform="rotate(180 8.45703 46.9414)" fill="#4691FF"/>
<rect width="2.73214" height="2.73215" transform="matrix(-1 0 0 1 8.45703 14.1543)" fill="#4691FF"/>
<rect x="8.45654" y="44.209" width="2.73214" height="2.73215" transform="rotate(180 8.45654 44.209)" fill="#4691FF"/>
<rect width="2.73214" height="2.73215" transform="matrix(-1 0 0 1 8.45654 16.8877)" fill="#4691FF"/>
<rect x="8.45703" y="41.4756" width="2.73214" height="2.73215" transform="rotate(180 8.45703 41.4756)" fill="#4691FF"/>
<rect width="2.73214" height="2.73215" transform="matrix(-1 0 0 1 8.45703 19.6191)" fill="#4691FF"/>
<rect width="2.73214" height="2.73215" transform="matrix(-1 0 0 1 8.45703 22.3506)" fill="#4691FF"/>
<rect width="2.73214" height="2.73215" transform="matrix(-1 0 0 1 8.45654 25.084)" fill="#4691FF"/>
<rect width="2.73214" height="2.73215" transform="matrix(-1 0 0 1 8.45703 27.8164)" fill="#4691FF"/>
<rect width="2.73214" height="2.73215" transform="matrix(-1 0 0 1 8.45703 30.5488)" fill="#4691FF"/>
<rect width="2.73214" height="2.73215" transform="matrix(-1 0 0 1 8.45703 33.2793)" fill="#4691FF"/>
<rect width="2.73214" height="2.73215" transform="matrix(-1 0 0 1 8.45654 36.0127)" fill="#4691FF"/>
</g>
<defs>
<filter id="filter0_d_1056_100176" x="0.6246" y="0.493164" width="172.672" height="67.5799" filterUnits="userSpaceOnUse" color-interpolation-filters="sRGB">
<feFlood flood-opacity="0" result="BackgroundImageFix"/>
<feColorMatrix in="SourceAlpha" type="matrix" values="0 0 0 0 0 0 0 0 0 0 0 0 0 0 0 0 0 0 127 0" result="hardAlpha"/>
<feOffset dy="5.10001"/>
<feGaussianBlur stdDeviation="2.55"/>
<feComposite in2="hardAlpha" operator="out"/>
<feColorMatrix type="matrix" values="0 0 0 0 0.294118 0 0 0 0 1 0 0 0 0 1 0 0 0 0.5 0"/>
<feBlend mode="normal" in2="BackgroundImageFix" result="effect1_dropShadow_1056_100176"/>
<feBlend mode="normal" in="SourceGraphic" in2="effect1_dropShadow_1056_100176" result="shape"/>
</filter>
</defs>
</svg>
