<svg width="18" height="18" viewBox="0 0 18 18" fill="none" xmlns="http://www.w3.org/2000/svg">
<path fill-rule="evenodd" clip-rule="evenodd" d="M7.12911 1.86871L7.31863 1.83893C10.5392 1.33284 12.1495 1.07979 13.1998 1.97791C14.2501 2.87603 14.2501 4.50609 14.2501 7.76619V7.99971H10.3307L12.0309 5.8744L10.4692 4.62501L7.46919 8.37501L6.96944 8.99971L7.46919 9.6244L10.4692 13.3744L12.0309 12.125L10.3307 9.99971H14.2501V10.2332C14.2501 13.4933 14.2501 15.1234 13.1998 16.0215C12.1495 16.9196 10.5392 16.6666 7.31863 16.1605L7.12911 16.1307C5.51638 15.8773 4.71001 15.7506 4.23004 15.1893C3.75006 14.628 3.75006 13.8117 3.75006 12.1792V5.82022C3.75006 4.1877 3.75006 3.37144 4.23004 2.81015C4.71001 2.24886 5.51638 2.12214 7.12911 1.86871Z" fill="#475467"/>
</svg>
