<svg width="22" height="18" viewBox="0 0 22 18" fill="none" xmlns="http://www.w3.org/2000/svg">
<path fill-rule="evenodd" clip-rule="evenodd" d="M1.07394 1.56697C0 2.63394 0 4.3512 0 7.78571V10.2143C0 13.6488 0 15.3661 1.07394 16.433C2.14788 17.5 3.87637 17.5 7.33333 17.5H14.6667C18.1236 17.5 19.8521 17.5 20.9261 16.433C22 15.3661 22 13.6488 22 10.2143V7.78571C22 4.3512 22 2.63394 20.9261 1.56697C19.8521 0.5 18.1236 0.5 14.6667 0.5H7.33333C3.87637 0.5 2.14788 0.5 1.07394 1.56697ZM4.34463 4.3468C3.78299 3.9748 3.02415 4.12558 2.64972 4.68358C2.27529 5.24158 2.42705 5.99549 2.9887 6.36749L9.64407 10.7756C10.4652 11.3194 11.5348 11.3194 12.3559 10.7756L19.0113 6.36749C19.5729 5.99549 19.7247 5.24158 19.3503 4.68358C18.9759 4.12558 18.217 3.9748 17.6554 4.3468L11 8.7549L4.34463 4.3468Z" fill="#AFB0A4"/>
</svg>
