<svg width="19" height="20" viewBox="0 0 19 20" fill="none" xmlns="http://www.w3.org/2000/svg">
<path fill-rule="evenodd" clip-rule="evenodd" d="M16.1491 15.3276C16.9912 14.5596 17.6812 13.7796 18.1713 13.1756C18.5674 12.6874 18.7654 12.4433 18.7654 12.0717C18.7654 11.7 18.5674 11.4559 18.1713 10.9678C16.722 9.18179 13.5256 5.85657 9.81534 5.85657C8.94297 5.85657 8.09901 6.04039 7.29949 6.34482L9.88067 8.96481C11.5196 8.99964 12.8419 10.3418 12.8762 12.0054L16.1491 15.3276ZM7.17668 10.4948C6.90798 10.9571 6.75382 11.4961 6.75382 12.0717C6.75382 13.7879 8.12451 15.1792 9.81534 15.1792C10.3824 15.1792 10.9134 15.0227 11.3688 14.75L13.718 17.1345C12.5335 17.8164 11.2108 18.2868 9.81534 18.2868C6.10506 18.2868 2.90862 14.9615 1.45942 13.1756C1.06329 12.6874 0.865234 12.4433 0.865234 12.0717C0.865234 11.7 1.06329 11.4559 1.45942 10.9677C2.15242 10.1137 3.24497 8.90769 4.60218 7.88161L7.17668 10.4948Z" fill="#AFB0A4"/>
<path d="M1.40723 1.42859L17.5924 18.5714" stroke="#AFB0A4" stroke-width="2"/>
</svg>
