<svg width="48" height="47" viewBox="0 0 48 47" fill="none" xmlns="http://www.w3.org/2000/svg">
<rect x="0.5" width="47" height="47" rx="7.58065" fill="#E6E6E6"/>
<g clip-path="url(#clip0_3_23500)">
<path d="M40.2984 15.3129V33.5065H38.4875V35.3258H36.6765V37.1452H33.0547V35.3258H31.2437V33.5065H27.6219V35.3258H25.8109V37.1452H22.1891V35.3258H20.3781V33.5065H16.7563V35.3258H14.9453V37.1452H11.3235V35.3258H9.51255V33.5065H7.70161V15.3129H9.51255V13.4936H11.3235V11.6742H13.1344V9.85486H34.8656V11.6742H36.6765V13.4936H38.4875V15.3129H40.2984Z" fill="#75CCEA"/>
<path d="M20.3781 18.9516V20.7709H22.189V18.9516V17.1322H20.3781V18.9516Z" fill="#1A1A1A"/>
<path d="M16.7562 20.7709V18.9516V17.1322H18.5671H20.3781V15.3129H18.5671H16.7562H14.9453V17.1322V18.9516V20.7709V22.5903V24.4096V26.229V28.0484H16.7562V26.229V24.4096V22.5903H18.5671H20.3781V20.7709H18.5671H16.7562Z" fill="#1A1A1A"/>
<path d="M34.8655 9.85474H13.1343V11.6741H34.8655V9.85474Z" fill="#1A1A1A"/>
<path d="M36.6765 11.6741H34.8656V13.4934H36.6765V11.6741Z" fill="#1A1A1A"/>
<path d="M38.4874 13.4935H36.6764V15.3129H38.4874V13.4935Z" fill="#1A1A1A"/>
<path d="M29.4328 15.3129H27.6219V17.1322H29.4328H31.2437H33.0547V15.3129H31.2437H29.4328Z" fill="#1A1A1A"/>
<path d="M25.8109 18.9516V20.7709H27.6218V18.9516V17.1322H25.8109V18.9516Z" fill="#1A1A1A"/>
<path d="M29.4328 22.5902H31.2437V20.7709H29.4328H27.6219V22.5902H29.4328Z" fill="#1A1A1A"/>
<path d="M31.2437 26.2289H33.0546V24.4096V22.5902H31.2437V24.4096V26.2289Z" fill="#1A1A1A"/>
<path d="M27.6218 26.229H25.8109V28.0484H27.6218H29.4328H31.2437V26.229H29.4328H27.6218Z" fill="#1A1A1A"/>
<path d="M40.2983 15.3129H38.4874V33.5064H40.2983V15.3129Z" fill="#1A1A1A"/>
<path d="M34.8656 11.6741H33.0546V13.4934H34.8656V11.6741Z" fill="#4B9EB2"/>
<path d="M36.6765 13.4935H34.8656V15.3129H36.6765V13.4935Z" fill="#4B9EB2"/>
<path d="M38.4874 15.3129H36.6764V33.5064H38.4874V15.3129Z" fill="#4B9EB2"/>
<path d="M13.1344 11.6741H11.3235V13.4934H13.1344V11.6741Z" fill="#1A1A1A"/>
<path d="M11.3234 13.4935H9.51251V15.3129H11.3234V13.4935Z" fill="#1A1A1A"/>
<path d="M9.5125 15.3129H7.70157V33.5064H9.5125V15.3129Z" fill="#1A1A1A"/>
<path d="M11.3234 33.5065H9.51251V35.3258H11.3234V33.5065Z" fill="#1A1A1A"/>
<path d="M14.9453 35.3257H11.3235V37.145H14.9453V35.3257Z" fill="#1A1A1A"/>
<path d="M16.7562 33.5065H14.9453V35.3258H16.7562V33.5065Z" fill="#1A1A1A"/>
<path d="M20.3781 31.687H16.7562V33.5064H20.3781V31.687Z" fill="#1A1A1A"/>
<path d="M22.189 33.5065H20.3781V35.3258H22.189V33.5065Z" fill="#1A1A1A"/>
<path d="M25.8109 35.3257H22.189V37.145H25.8109V35.3257Z" fill="#1A1A1A"/>
<path d="M27.6218 33.5065H25.8109V35.3258H27.6218V33.5065Z" fill="#1A1A1A"/>
<path d="M31.2437 31.687H27.6219V33.5064H31.2437V31.687Z" fill="#1A1A1A"/>
<path d="M33.0546 33.5065H31.2437V35.3258H33.0546V33.5065Z" fill="#1A1A1A"/>
<path d="M36.6765 35.3257H33.0546V37.145H36.6765V35.3257Z" fill="#1A1A1A"/>
<path d="M38.4874 33.5065H36.6764V35.3258H38.4874V33.5065Z" fill="#1A1A1A"/>
<path d="M36.6765 33.5065H34.8656V35.3258H36.6765V33.5065Z" fill="#4B9EB2"/>
<path d="M25.8109 33.5065H24V35.3258H25.8109V33.5065Z" fill="#4B9EB2"/>
<path d="M14.9453 33.5065H13.1343V35.3258H14.9453V33.5065Z" fill="#4B9EB2"/>
<path d="M27.6218 31.687H25.8109V33.5064H27.6218V31.687Z" fill="#4B9EB2"/>
<path d="M16.7562 31.687H14.9453V33.5064H16.7562V31.687Z" fill="#4B9EB2"/>
</g>
<defs>
<clipPath id="clip0_3_23500">
<rect width="32.5968" height="27.2903" fill="white" transform="translate(7.70161 9.85486)"/>
</clipPath>
</defs>
</svg>
