<svg width="33" height="33" viewBox="0 0 33 33" fill="none" xmlns="http://www.w3.org/2000/svg">
<path fill-rule="evenodd" clip-rule="evenodd" d="M0.5 16.1504C0.5 7.31384 7.66344 0.150391 16.5 0.150391C25.3366 0.150391 32.5 7.31384 32.5 16.1504C32.5 24.9869 25.3366 32.1504 16.5 32.1504C7.66344 32.1504 0.5 24.9869 0.5 16.1504ZM16.5 8.15039C20.9 8.15039 24.5 11.7504 24.5 16.1504C24.5 20.1504 21.6 23.5504 17.6 24.1504V18.4504H19.5L19.9 16.1504H17.7V14.6504C17.7 14.0504 18 13.4504 19 13.4504H20V11.4504C20 11.4504 19.1 11.2504 18.2 11.2504C16.4 11.2504 15.2 12.3504 15.2 14.3504V16.1504H13.2V18.4504H15.2V24.0504C11.4 23.4504 8.5 20.1504 8.5 16.1504C8.5 11.7504 12.1 8.15039 16.5 8.15039Z" fill="#4691FF"/>
</svg>
