<svg width="33" height="33" viewBox="0 0 33 33" fill="none" xmlns="http://www.w3.org/2000/svg">
<path fill-rule="evenodd" clip-rule="evenodd" d="M0.5 16.1504C0.5 7.31384 7.66344 0.150391 16.5 0.150391C25.3366 0.150391 32.5 7.31384 32.5 16.1504C32.5 24.9869 25.3366 32.1504 16.5 32.1504C7.66344 32.1504 0.5 24.9869 0.5 16.1504ZM8.7 13.4504V24.1504H12.1V13.4504H8.7ZM8.5 10.0504C8.5 11.1504 9.3 11.9504 10.4 11.9504C11.5 11.9504 12.3 11.1504 12.3 10.0504C12.3 8.95039 11.5 8.15039 10.4 8.15039C9.4 8.15039 8.5 8.95039 8.5 10.0504ZM21.1 24.1504H24.3V17.5504C24.3 14.2504 22.3 13.1504 20.4 13.1504C18.7 13.1504 17.5 14.2504 17.2 14.9504V13.4504H14V24.1504H17.4V18.4504C17.4 16.9504 18.4 16.1504 19.4 16.1504C20.4 16.1504 21.1 16.6504 21.1 18.3504V24.1504Z" fill="#4691FF"/>
</svg>
