<svg width="33" height="33" viewBox="0 0 33 33" fill="none" xmlns="http://www.w3.org/2000/svg">
<path fill-rule="evenodd" clip-rule="evenodd" d="M16.5 32.1504C7.66344 32.1504 0.5 24.9869 0.5 16.1504C0.5 7.31384 7.66344 0.150391 16.5 0.150391C25.3366 0.150391 32.5 7.31384 32.5 16.1504C32.5 24.9869 25.3366 32.1504 16.5 32.1504ZM17.1919 12.1578C15.7589 12.7538 12.8949 13.9874 8.59992 15.8587C7.90248 16.136 7.53714 16.4074 7.50388 16.6727C7.44767 17.121 8.00915 17.2976 8.77374 17.538C8.87774 17.5707 8.9855 17.6046 9.09598 17.6405C9.84822 17.885 10.8601 18.1711 11.3862 18.1825C11.8633 18.1928 12.3959 17.996 12.9839 17.5923C16.9968 14.8835 19.0683 13.5143 19.1983 13.4848C19.2901 13.4639 19.4172 13.4378 19.5034 13.5143C19.5895 13.5909 19.5811 13.7359 19.5719 13.7748C19.5163 14.0119 17.3123 16.061 16.1717 17.1214C15.8161 17.4519 15.5639 17.6864 15.5124 17.74C15.3969 17.8599 15.2791 17.9734 15.166 18.0825C14.4672 18.7562 13.9431 19.2614 15.195 20.0864C15.7967 20.4829 16.2781 20.8107 16.7584 21.1378C17.2829 21.495 17.806 21.8513 18.4829 22.295C18.6554 22.408 18.8201 22.5254 18.9805 22.6398C19.5909 23.075 20.1393 23.4659 20.8168 23.4036C21.2105 23.3674 21.6172 22.9972 21.8237 21.8931C22.3118 19.2839 23.2712 13.6305 23.4929 11.3009C23.5123 11.0967 23.4879 10.8355 23.4683 10.7209C23.4486 10.6062 23.4076 10.4428 23.2586 10.3219C23.082 10.1786 22.8095 10.1484 22.6877 10.1505C22.1335 10.1604 21.2834 10.456 17.1919 12.1578Z" fill="#4691FF"/>
</svg>
