<svg width="33" height="33" viewBox="0 0 33 33" fill="none" xmlns="http://www.w3.org/2000/svg">
<path fill-rule="evenodd" clip-rule="evenodd" d="M0.5 16.1504C0.5 7.31384 7.66344 0.150391 16.5 0.150391C25.3366 0.150391 32.5 7.31384 32.5 16.1504C32.5 24.9869 25.3366 32.1504 16.5 32.1504C7.66344 32.1504 0.5 24.9869 0.5 16.1504ZM22.6 11.6504C23.3 11.5504 23.9 11.4504 24.5 11.1504C24.1 11.8504 23.5 12.4504 22.8 12.8504C23 17.5504 19.6 22.6504 13.5 22.6504C11.7 22.6504 10 22.0504 8.5 21.1504C10.2 21.3504 12 20.8504 13.2 19.9504C11.7 19.9504 10.5 18.9504 10.1 17.6504C10.6 17.7504 11.1 17.6504 11.6 17.5504C10.1 17.1504 9 15.7504 9 14.2504C9.5 14.4504 10 14.6504 10.5 14.6504C9.1 13.6504 8.6 11.7504 9.5 10.2504C11.2 12.2504 13.6 13.5504 16.3 13.6504C15.8 11.6504 17.4 9.65039 19.5 9.65039C20.4 9.65039 21.3 10.0504 21.9 10.6504C22.7 10.4504 23.4 10.2504 24 9.85039C23.8 10.6504 23.3 11.2504 22.6 11.6504Z" fill="#4691FF"/>
</svg>
