<svg width="27" height="25" viewBox="0 0 27 25" fill="none" xmlns="http://www.w3.org/2000/svg">
<path d="M22.4997 21.6663H21.5991V22.4994H22.4997V21.6663Z" fill="#F2A317"/>
<path d="M23.4001 19.1669H22.4995V19.9988H23.4001V19.1669Z" fill="#F2A317"/>
<path d="M5.3996 10.8331H4.49902V11.6663H5.3996V10.8331Z" fill="#FAF1CE"/>
<path d="M26.1008 8.33374H25.199H24.2997H23.4003V9.16687V10V10.8331V11.6663V12.5006V13.3337V14.1669V15V15.8344V16.6663V17.4994H22.4997V18.3325V19.1669H23.4003V20H22.4997V19.1669H21.5992V20H20.6998V20.8331H19.8005V21.6663V22.4994H18.8999H17.9993V23.3325H17.1V24.1656H16.2006H15.2988V25H16.2006H17.1H17.9993H18.8999V24.1656H19.8005H20.6998V23.3325H21.5992V22.4994V21.6663H22.4997V22.4994H23.4003V21.6663V20.8331H24.2997V20H25.199V19.1669V18.3325H26.1008V17.4994V16.6663H27.0001V15.8344V15V14.1669V13.3337V12.5006V11.6663V10.8331V10V9.16687V8.33374H26.1008Z" fill="#F2A317"/>
<path d="M17.1 24.1448V24.1656H15.2988V25H18.8999V24.1656H20.6998V24.1448H17.1Z" fill="black"/>
<path d="M22.4997 5.83313H21.5991V6.66626H22.4997V5.83313Z" fill="white"/>
<path d="M21.5991 8.33374V7.49939V6.66626V5.83313H20.6997V5H19.8004V4.16687H18.8998V3.33374H17.9993V2.50061H17.0999V1.66748H16.2006H15.3V0.83313H14.4006H13.5013H12.6007H11.7002H10.8008H9.90147H9.00213H8.10155V1.66748H7.20221H6.30287V2.50061H5.40229V3.33374H4.50172V4.16687H3.60238V5H2.70303V5.83313V6.66626H1.80246V7.49939V8.33252H0.899414V9.16565V9.99878V10.8319V11.665V12.4982V13.3313V14.1644V14.9976V15.8319V16.665H1.79876V17.4969V18.3301H2.69933V19.1644V19.9963H3.59867V20.8295H4.49802V21.6626H5.39859V22.4957H6.29917V23.3289H7.19851H8.09785V24.162H8.99843H9.89777H10.7971H11.6965H12.597H13.4976H14.3969H15.2963V23.3289H16.1969H17.0962V22.4957H17.9956V21.6626H18.8961V20.8295H19.7967V19.9963H20.696V19.1644H21.5954V18.3301V17.4969H22.496V16.665V15.8319V14.9976V14.1644V13.3313V12.4982V11.665V10.8319V9.99878V9.16565V8.33252H21.5991V8.33374ZM4.49925 9.16687V8.33374V7.49939H5.39983V6.66626H6.3004V5.83313H7.19974V5H8.09909V4.16687H8.99966H9.899H10.7983H11.6977H12.5983H13.4988H14.3982H15.2975V5H16.1981V5.83313H17.0974V6.66626H17.9968V7.49939H18.8974V8.33252V9.16565H19.7979V9.99878V10.8319V11.665V12.4982V13.3313V14.1644V14.9976V15.8319H18.8974V16.665V17.4969H17.9968V18.3301H17.0974V19.1644H16.1981V19.9963H15.2975V20.8295H14.3982H13.4988H12.5983H11.6977H10.7983H9.899H8.99966H8.09909V19.9963H7.19974V19.1644H6.3004V18.3301H5.39983V17.4969H4.49925V16.665V15.8319H3.59991V14.9976V14.1644V13.3313V12.4982V11.665V10.8319V9.99878V9.16565H4.49925V9.16687Z" fill="#FDCD00"/>
<path d="M6.29924 8.33374H5.3999V9.16687V10V10.8331V11.6663V12.5006V13.3337V14.1669V15H6.29924V15.8344V16.6663H7.19982V17.4994H8.09916V18.3325H8.99974H9.90031V19.1669H10.7997H11.699H12.5996H13.5001H14.4007V18.3325H15.2988H16.2006V17.4994H17.1V16.6663H17.9993V15.8344V15H18.8999V14.1669V13.3337V12.5006V11.6663V10.8331V10H17.9993V9.16687V8.33374V7.49939H17.1V6.66626H16.2006V5.83313H15.2988H14.4007V5H13.5001H12.5996H11.699H10.7997H9.90031H8.99974V5.83313H8.09916H7.19982V6.66626H6.29924V7.49939V8.33374Z" fill="#FDCD00"/>
<path d="M25.1988 5.83313V5V4.16687H24.2994V5H23.4001H22.4995V5.83313V6.66626V7.49939H23.4001V6.66626H24.2994H25.1988V7.49939V8.33374H26.1006V7.49939V6.66626V5.83313H25.1988Z" fill="#F2A317"/>
<path d="M23.4003 3.33374V2.50061H22.4997H21.5992V1.66748H20.6998V0.833129H19.8005H18.8999V0H17.9993H17.1H16.2006H15.2988V0.833129H16.2006H17.1V1.66748H17.9993V2.50061H18.8999V3.33374H19.8005V4.16687H20.6998H21.5992H22.4997H23.4003H24.2997V3.33374H23.4003Z" fill="#F2A317"/>
<path d="M25.1988 5.83313V5V4.16687H24.2994V5H23.4001H22.4995V5.83313V6.66626V7.49939H23.4001V6.66626H24.2994H25.1988V7.49939V8.33374H26.1006V7.49939V6.66626V5.83313H25.1988Z" fill="#F2A317"/>
<path d="M25.1987 5.83313V5V4.16687H24.2993V5V5.83313H25.1987V6.66626V7.49939V8.33374H26.1005V7.49939V6.66626V5.83313H25.1987Z" fill="black"/>
<path d="M21.5991 1.66748H20.6997V2.50061H21.5991V1.66748Z" fill="black"/>
<path d="M21.5991 3.33374H22.4997H23.4003V2.50061H22.4997H21.5991V3.33374Z" fill="black"/>
<path d="M19.8005 1.66748H20.6998V0.83313H19.8005H18.8999V1.66748H19.8005Z" fill="black"/>
<path d="M24.2997 3.33374H23.4004V4.16687H24.2997V3.33374Z" fill="black"/>
<path d="M16.2006 0.833129H17.1H17.9993H18.8999V0H17.9993H17.1H16.2006H15.2988V0.833129H16.2006Z" fill="black"/>
<path d="M22.4997 19.1669H21.5991V20H22.4997V19.1669Z" fill="black"/>
<path d="M26.1005 8.33374H25.1987H26.1005V9.16687V10V10.8331V11.6663V12.5006V13.3337V14.1669V15V15.8344V16.6663H26.9999V15.8344V15V14.1669V13.3337V12.5006V11.6663V10.8331V10V9.16687V8.33374H26.1005Z" fill="black"/>
<path d="M22.4995 20.8331V21.6663V22.4994H23.4001V21.6663V20.8331H22.4995Z" fill="black"/>
<path d="M24.2997 20H23.4004V20.8331H24.2997V20Z" fill="black"/>
<path d="M25.1987 16.6663V17.4994V18.3325H24.2993V19.1669V20H25.1987V19.1669V18.3325H26.1005V17.4994V16.6663H25.1987Z" fill="black"/>
<path d="M18.8996 24.1656H17.999V25H18.8996V24.1656Z" fill="black"/>
<path d="M21.5991 22.4994V21.6663H20.6997V22.4994V23.3325H21.5991V22.4994Z" fill="black"/>
<path d="M20.6996 23.3325H19.8003V24.1656H20.6996V23.3325Z" fill="black"/>
<path d="M15.2988 23.3325V24.1656H14.4007H13.5001H12.5995H11.699H10.8008H9.90027H8.9997H8.09912V25H8.9997H9.90027H10.8008H11.699H12.5995H13.5001H14.4007H15.2988V24.1656H16.2006H17.0999V23.3325H16.2006H15.2988Z" fill="black"/>
<path d="M17.999 22.4994H17.0996V23.3325H17.999V22.4994Z" fill="black"/>
<path d="M18.8996 21.6663H17.999V22.4994H18.8996H19.8002V21.6663V20.8331H18.8996V21.6663Z" fill="black"/>
<path d="M20.6996 20H19.8003V20.8331H20.6996V20Z" fill="black"/>
<path d="M21.5991 19.1669H20.6997V19.9988H21.5991V19.1669Z" fill="black"/>
<path d="M21.5991 18.3325V19.1669H22.4997V18.3325V17.4994H21.5991V18.3325Z" fill="black"/>
<path d="M22.4995 9.16687V10V10.8331V11.6663V12.5006V13.3337V14.1669V15V15.8344V16.6663V17.4994H23.4001V16.6663V15.8344V15V14.1669V13.3337V12.5006V11.6663V10.8331V10V9.16687H22.4995Z" fill="black"/>
<path d="M21.5991 7.49939V8.33374H22.4997V7.49939V6.66626H21.5991V7.49939Z" fill="black"/>
<path d="M21.5991 5H20.6997V5.83313H21.5991V5Z" fill="black"/>
<path d="M17.1 18.3325H16.2007V19.1669H17.1V18.3325Z" fill="black"/>
<path d="M17.999 9.16687V10H18.8995V10.8331V11.6663V12.5006V13.3337V14.1669V15H17.999V15.8344V16.6663H17.0996V17.4994V18.3325H17.999V17.4994H18.8995V16.6663V15.8344H19.8001V15V14.1669V13.3337V12.5006V11.6663V10.8331V10V9.16687H18.8995V8.33374V7.49939H17.999V8.33374V9.16687Z" fill="black"/>
<path d="M17.999 6.66626H17.0996V7.49939H17.999V6.66626Z" fill="black"/>
<path d="M17.1 5.83313H16.2007V6.66626H17.1V5.83313Z" fill="black"/>
<path d="M20.6996 4.16687H19.8003V5H20.6996V4.16687Z" fill="black"/>
<path d="M19.8005 3.33374H18.8999V4.16687H19.8005V3.33374Z" fill="black"/>
<path d="M18.8996 2.50061H17.999V3.33374H18.8996V2.50061Z" fill="black"/>
<path d="M17.999 1.66748H17.0996V2.50061H17.999V1.66748Z" fill="black"/>
<path d="M15.2988 1.66748H16.2006H17.1V0.83313H16.2006H15.2988V1.66748Z" fill="black"/>
<path d="M7.19989 23.3325H6.29932V24.1656H7.19989H8.09923V23.3325H7.19989Z" fill="black"/>
<path d="M6.30048 22.4994H5.3999V23.3325H6.30048V22.4994Z" fill="black"/>
<path d="M4.49895 21.6663V20.8331H3.59961V21.6663V22.4994H4.49895H5.39953V21.6663H4.49895Z" fill="black"/>
<path d="M3.59856 20H2.69922V20.8331H3.59856V20Z" fill="black"/>
<path d="M8.99962 20.8331H9.9002H10.8008H11.6989H12.5995H13.5H14.4006H15.2987V20H16.2005V19.1669H15.2987H14.4006V20H13.5H12.5995H11.6989H10.8008H9.9002H8.99962V19.1669H8.09905H7.19971V20H8.09905V20.8331H8.99962Z" fill="black"/>
<path d="M7.19866 18.3325H6.29932V19.1669H7.19866V18.3325Z" fill="black"/>
<path d="M2.69915 18.3325H1.7998V19.1669V20H2.69915V19.1669V18.3325Z" fill="black"/>
<path d="M1.79999 16.6663H0.899414V17.4994V18.3325H1.79999V17.4994V16.6663Z" fill="black"/>
<path d="M0.899342 15V14.1669V13.3337V12.5006V11.6663V10.8331V10V9.16687H0V10V10.8331V11.6663V12.5006V13.3337V14.1669V15V15.8344H0.899342V15Z" fill="black"/>
<path d="M6.29887 16.6663H5.39953V15.8344V15H4.49895V14.1669V13.3337V12.5006V11.6663V10.8331V10H5.39953V9.16687V8.33374H6.29887V7.49939V6.66626H5.39953V7.49939H4.49895V8.33374V9.16687H3.59961V10V10.8331V11.6663V12.5006V13.3337V14.1669V15V15.8344H4.49895V16.6663V17.4994H5.39953V18.3325H6.29887V17.4994V16.6663Z" fill="black"/>
<path d="M1.79999 7.49939V6.66626H0.899414V7.49939V8.33374H1.79999V7.49939Z" fill="black"/>
<path d="M7.19866 5.83313H6.29932V6.66626H7.19866V5.83313Z" fill="black"/>
<path d="M2.69915 5.83313V5H1.7998V5.83313V6.66626H2.69915V5.83313Z" fill="black"/>
<path d="M8.99962 5.83313V5H9.9002H10.8008H11.6989H12.5995H13.5H14.4006V5.83313H15.2987H16.2005V5H15.2987V4.16687H14.4006H13.5H12.5995H11.6989H10.8008H9.9002H8.99962H8.09905V5H7.19971V5.83313H8.09905H8.99962Z" fill="black"/>
<path d="M3.59856 4.16687H2.69922V5H3.59856V4.16687Z" fill="black"/>
<path d="M4.49895 3.33374H3.59961V4.16687H4.49895V3.33374Z" fill="black"/>
<path d="M5.3996 2.50061H4.49902V3.33374H5.3996V2.50061Z" fill="black"/>
<path d="M6.30048 1.66748H5.3999V2.50061H6.30048V1.66748Z" fill="black"/>
<path d="M8.09923 1.66748V0.83313H7.19989H6.29932V1.66748H7.19989H8.09923Z" fill="black"/>
<path d="M9.90027 0.833129H10.8008H11.699H12.5995H13.5001H14.4007H15.2988V0H14.4007H13.5001H12.5995H11.699H10.8008H9.90027H8.9997H8.09912V0.833129H8.9997H9.90027Z" fill="black"/>
<path d="M24.2994 6.66626H23.4001V7.49939H22.4995V8.33374V9.16687H23.4001V8.33374H24.2994H25.1988V7.49939V6.66626H24.2994Z" fill="white"/>
<path d="M23.4002 4.16687H22.4996H21.5991H20.6997V5H21.5991V5.83313H22.4996V5H23.4002H24.2995V4.16687H23.4002Z" fill="white"/>
<path d="M12.5992 19.1669H11.6986H10.7992H9.8999V18.3325H8.99932H8.09875V17.4994H7.1994V16.6663H6.29883V17.4994V18.3325H7.1994V19.1669H8.09875H8.99932V20H9.8999H10.7992H11.6986H12.5992H13.4997H14.4003V19.1669H13.4997H12.5992Z" fill="white"/>
<path d="M14.4004 18.3325V19.1669H15.2985H16.2003V18.3325H15.2985H14.4004Z" fill="white"/>
<path d="M17.0995 17.4994H16.2002V18.3325H17.0995V17.4994Z" fill="white"/>
<path d="M6.29876 15H5.39941V15.8344V16.6663H6.29876V15.8344V15Z" fill="white"/>
<path d="M5.3996 13.3337V12.5006V11.6663H4.49902V12.5006V13.3337V14.1669V15H5.3996V14.1669V13.3337Z" fill="white"/>
<path d="M5.3996 10H4.49902V10.8331H5.3996V10Z" fill="white"/>
</svg>
