<svg width="34" height="47" viewBox="0 0 34 47" fill="none" xmlns="http://www.w3.org/2000/svg">
<path d="M2.60498 1.84329C2.61567 1.34859 2.64775 0.85389 2.62815 0.360822C2.61745 0.0734705 2.70655 0 3.02016 0.00163268C5.16736 0.0146941 7.31455 0.00979607 9.46353 0.00979607C17.238 0.00979607 25.0124 0.0130614 32.7869 0C33.1878 0 33.2929 0.0865319 33.2858 0.45715C33.2591 1.76492 33.2751 3.0727 33.2751 4.38047C33.2751 15.3064 33.2769 26.2322 33.2769 37.1581C33.2769 37.9385 33.2769 37.9385 32.4056 37.9385C31.5467 37.9385 30.686 37.9516 29.8289 37.932C29.5224 37.9255 29.4369 37.9957 29.4387 38.2863C29.4529 40.4316 29.4476 42.5786 29.4458 44.7239C29.4458 44.8758 29.4369 45.0276 29.4316 45.1795C28.1611 45.1713 26.8906 45.1631 25.6218 45.1566L25.6236 45.1599C25.6272 44.5525 25.6717 43.9452 25.6022 43.3378C26.1511 43.4276 26.7052 43.346 27.2558 43.3819C27.5303 43.3998 27.5712 43.2855 27.5695 43.07C27.5606 41.4439 27.5748 39.8194 27.5516 38.1932C27.5481 37.9744 27.6229 37.9663 27.7904 37.9663C28.2608 37.9663 28.733 37.9581 29.2035 37.9712C29.4155 37.9777 29.4957 37.9238 29.4886 37.7198C29.4725 37.3263 29.4993 36.9312 29.4797 36.5393C29.4654 36.265 29.5527 36.141 29.8735 36.1605C30.2049 36.1801 30.5417 36.1393 30.8713 36.1687C31.274 36.2046 31.4077 36.1067 31.4059 35.7018C31.3916 24.5375 31.3934 13.3749 31.4041 2.21065C31.4041 1.86615 31.3008 1.79595 30.9444 1.79758C22.2808 1.80737 13.6171 1.80737 4.95531 1.79758C4.6025 1.79758 4.52766 1.89064 4.52766 2.19922C4.53656 13.388 4.53656 24.5767 4.52587 35.7654C4.52587 36.123 4.65595 36.1703 4.99808 36.1687C8.03444 36.1573 11.069 36.1622 14.1054 36.1605C15.9069 36.1605 17.7102 36.1671 19.5117 36.154C19.8075 36.1524 19.8912 36.2291 19.8752 36.4936C19.8503 36.8855 19.8841 37.2806 19.8627 37.674C19.8503 37.9157 19.9483 37.9777 20.1959 37.9696C20.6254 37.9532 21.0548 37.9744 21.4843 37.963C21.7123 37.9565 21.8014 38.0153 21.7925 38.2389C21.7747 38.7467 21.7872 39.2545 21.7872 39.7622C21.1528 39.7573 20.5167 39.7524 19.8823 39.7475L19.8859 39.7508C19.8841 39.2561 19.8538 38.7598 19.8912 38.2667C19.9126 37.9647 19.8039 37.9304 19.5117 37.932C14.0252 37.9402 8.53694 37.9336 3.05046 37.9434C2.72615 37.9434 2.63527 37.87 2.63884 37.5679C2.65487 35.6642 2.64775 33.7589 2.64775 31.8552C2.64775 22.1554 2.64775 12.4557 2.64596 2.75433C2.63705 2.44902 2.61745 2.14697 2.60498 1.84329Z" fill="#475467"/>
<path d="M2.6051 1.84329C2.61579 2.14697 2.63718 2.45065 2.63718 2.75433C2.63896 12.4541 2.63896 22.1538 2.63896 31.8535C2.63896 33.7572 2.64609 35.6626 2.63005 37.5663C2.62827 37.8683 2.71914 37.9418 3.04167 37.9418C8.52815 37.9336 14.0164 37.9385 19.5029 37.9304C19.7951 37.9304 19.9038 37.9647 19.8824 38.2651C19.8468 38.7581 19.8753 39.2545 19.8771 39.7492C17.6194 39.7524 15.36 39.7557 13.1023 39.7573C9.12509 39.759 5.14966 39.7541 1.17245 39.7622C0.851708 39.7622 0.710938 39.7149 0.710938 39.3753C0.723411 26.9735 0.721629 14.5716 0.714501 2.16983C0.714501 1.88574 0.801815 1.78289 1.11365 1.80411C1.60902 1.8384 2.10973 1.76656 2.6051 1.84329Z" fill="#8A9FE6"/>
<path d="M25.6183 45.155C26.8888 45.1631 28.1593 45.1713 29.428 45.1778C29.5563 45.728 29.4601 46.2848 29.4797 46.8383C29.485 47.0081 29.33 46.9917 29.2071 46.9917C28.1112 46.9934 27.0171 46.9868 25.923 46.9983C25.6504 47.0015 25.6005 46.8938 25.6058 46.6783C25.6219 46.1705 25.6165 45.6627 25.6183 45.155Z" fill="#8A9FE6"/>
<path d="M25.6006 43.3362C25.6701 43.9419 25.6256 44.5509 25.622 45.1582C25.0839 45.1631 24.5457 45.1582 24.0094 45.1778C23.7385 45.1876 23.6868 45.075 23.6922 44.8594C23.7047 44.4676 23.6868 44.0758 23.6993 43.6839C23.7064 43.4733 23.6263 43.3868 23.391 43.3933C23.0186 43.4047 22.6444 43.377 22.2738 43.4015C21.9067 43.4243 21.7481 43.3296 21.7749 42.9623C21.8069 42.51 21.7766 42.0529 21.7731 41.5973C21.7873 41.5827 21.8016 41.5696 21.8158 41.5549C22.4431 41.568 23.0703 41.5794 23.6975 41.5925L23.6904 41.5843C23.6975 42.0774 23.7118 42.5704 23.7064 43.0635C23.7047 43.2611 23.7421 43.3704 23.9969 43.3606C24.535 43.3427 25.0732 43.3459 25.6113 43.341L25.6006 43.3362Z" fill="#8A9FE6"/>
<path d="M19.8752 39.7475C20.5096 39.7524 21.1457 39.7573 21.78 39.7622L21.7747 39.7557C21.7872 40.3549 21.7996 40.9557 21.8121 41.5549C21.7979 41.5696 21.7836 41.5827 21.7694 41.5974C21.258 41.5908 20.7448 41.568 20.2334 41.5843C19.934 41.5925 19.852 41.4929 19.8627 41.2333C19.8823 40.7386 19.8716 40.2422 19.8752 39.7475Z" fill="#8A9FE6"/>
<path d="M21.7803 39.7622C21.7803 39.2545 21.7679 38.7451 21.7857 38.2389C21.7946 38.0136 21.7055 37.9565 21.4774 37.963C21.048 37.9744 20.6168 37.9548 20.1891 37.9695C19.9414 37.9793 19.8434 37.9157 19.8559 37.674C19.8773 37.2805 19.8434 36.8854 19.8684 36.4936C19.8862 36.2275 19.8007 36.1507 19.5049 36.154C17.7034 36.1671 15.9018 36.1605 14.0986 36.1605C11.0622 36.1605 8.02761 36.1556 4.99125 36.1687C4.6509 36.1703 4.51904 36.1246 4.51904 35.7654C4.53152 24.5767 4.52973 13.3879 4.52082 2.19921C4.52082 1.889 4.59566 1.79593 4.94848 1.79757C13.6121 1.80736 22.2757 1.80736 30.9376 1.79757C31.2957 1.79757 31.3973 1.86777 31.3973 2.21063C31.3866 13.3749 31.3848 24.5375 31.3991 35.7018C31.3991 36.1067 31.2672 36.2046 30.8645 36.1687C30.5348 36.1393 30.1981 36.1818 29.8666 36.1605C29.5459 36.1409 29.4586 36.265 29.4728 36.5393C29.4924 36.9328 29.4657 37.3263 29.4817 37.7197C29.4906 37.9255 29.4105 37.9777 29.1966 37.9712C28.7262 37.9581 28.254 37.9679 27.7836 37.9663C27.6161 37.9663 27.5412 37.9744 27.5448 38.1932C27.568 39.8194 27.5555 41.4439 27.5626 43.07C27.5644 43.2872 27.5234 43.3998 27.249 43.3819C26.6984 43.3459 26.1442 43.4276 25.5954 43.3378L25.6043 43.3443C25.6061 42.8398 25.6008 42.3353 25.6168 41.8325C25.6221 41.6316 25.5509 41.5729 25.3352 41.5778C24.7846 41.5925 24.234 41.5843 23.6852 41.5859L23.6923 41.5941C23.6923 41.0994 23.6692 40.6047 23.7012 40.1132C23.7208 39.8112 23.5997 39.7573 23.3039 39.7671C22.7943 39.7851 22.2811 39.7639 21.7714 39.759L21.7803 39.7622ZM17.9493 25.2869C19.0968 25.2869 20.2461 25.2771 21.3937 25.2934C21.7091 25.2983 21.8053 25.2069 21.7875 24.9244C21.7643 24.5457 21.7714 24.1636 21.7839 23.7832C21.791 23.5546 21.6984 23.4665 21.4471 23.4665C19.1235 23.4714 16.7981 23.4714 14.4745 23.4665C14.1966 23.4665 14.1128 23.571 14.1217 23.8093C14.136 24.1897 14.1413 24.5702 14.1199 24.9506C14.1039 25.2249 14.2197 25.2951 14.5031 25.2918C15.6524 25.2804 16.8017 25.2869 17.9493 25.2869ZM14.1271 16.2729C14.1289 15.7782 14.1182 15.2835 14.1324 14.7904C14.1395 14.5537 14.0754 14.4508 13.7885 14.4541C12.7372 14.4671 11.6859 14.4655 10.6345 14.4557C10.3886 14.4541 10.2924 14.5145 10.296 14.7545C10.3084 15.7553 10.3067 16.7578 10.296 17.7586C10.2942 17.997 10.3922 18.0607 10.6363 18.059C11.6876 18.0509 12.739 18.0476 13.7903 18.0607C14.0807 18.0639 14.136 17.9513 14.1306 17.7194C14.1182 17.2378 14.1271 16.7545 14.1271 16.2729ZM25.6097 16.25C25.6097 15.7684 25.5972 15.2851 25.615 14.8035C25.6239 14.5504 25.558 14.4459 25.2515 14.4508C24.2144 14.4688 23.1756 14.4655 22.1367 14.4541C21.8677 14.4508 21.775 14.5227 21.7786 14.7757C21.791 15.7651 21.7893 16.7545 21.7803 17.7439C21.7786 17.9676 21.8409 18.0607 22.1047 18.0574C23.1702 18.046 24.2358 18.0476 25.3032 18.0558C25.5366 18.0574 25.6204 17.9839 25.615 17.7701C25.6025 17.2656 25.6097 16.7578 25.6097 16.25Z" fill="#FDFDFD"/>
<path d="M21.7749 39.7557C22.2863 39.7606 22.7977 39.7818 23.3073 39.7639C23.6014 39.7541 23.7243 39.808 23.7047 40.11C23.6726 40.6031 23.6958 41.0978 23.6958 41.5908C23.0686 41.5778 22.4413 41.5663 21.8141 41.5533C21.7998 40.9557 21.7874 40.3565 21.7749 39.7557Z" fill="#475467"/>
<path d="M23.6885 41.5859C24.2391 41.5843 24.7897 41.5908 25.3385 41.5778C25.5559 41.5729 25.6272 41.6316 25.6201 41.8325C25.604 42.337 25.6112 42.8398 25.6076 43.3443C25.0695 43.3492 24.5313 43.346 23.9932 43.3639C23.7384 43.3721 23.701 43.2643 23.7027 43.0668C23.7099 42.5721 23.6938 42.079 23.6885 41.5859Z" fill="#475467"/>
<path d="M17.9491 26.1096C16.8016 26.1096 15.6522 26.1031 14.5047 26.1145C14.2214 26.1178 14.1055 26.0475 14.1216 25.7733C14.1447 25.3945 14.1376 25.0124 14.1234 24.632C14.1144 24.3936 14.1964 24.2892 14.4762 24.2892C16.7998 24.2957 19.1252 24.2941 21.4488 24.2892C21.7 24.2892 21.7927 24.3773 21.7855 24.6059C21.7731 24.9863 21.7642 25.3667 21.7891 25.7471C21.8069 26.028 21.7107 26.1194 21.3953 26.1161C20.246 26.0998 19.0966 26.1096 17.9491 26.1096Z" fill="#8A9FE6"/>
<path d="M14.1271 17.0956C14.1271 17.5772 14.1182 18.0588 14.1306 18.5405C14.1378 18.7723 14.0808 18.885 13.7903 18.8817C12.739 18.8687 11.6877 18.8719 10.6363 18.8801C10.3904 18.8817 10.2924 18.818 10.296 18.5797C10.3067 17.5788 10.3085 16.5764 10.296 15.5755C10.2924 15.3355 10.3904 15.2751 10.6346 15.2768C11.6859 15.2866 12.7372 15.2882 13.7885 15.2751C14.0736 15.2719 14.1396 15.3731 14.1324 15.6115C14.1182 16.1062 14.1289 16.6009 14.1271 17.0956Z" fill="#8A9FE6"/>
<path d="M25.6093 17.0727C25.6093 17.5805 25.6004 18.0882 25.6129 18.5944C25.6183 18.8082 25.5363 18.8817 25.3011 18.8801C24.2355 18.8719 23.1699 18.8703 22.1026 18.8817C21.8388 18.885 21.7765 18.7903 21.7782 18.5682C21.7889 17.5788 21.7907 16.5894 21.7765 15.6C21.7729 15.347 21.8656 15.2768 22.1346 15.2784C23.1735 15.2898 24.2105 15.2915 25.2494 15.2751C25.5559 15.2702 25.6218 15.3747 25.6129 15.6278C25.5969 16.1094 25.6093 16.5911 25.6093 17.0727Z" fill="#8A9FE6"/>
<path d="M16.1133 5.78903H14.9185V6.96202H16.1133V5.78903Z" fill="#F7931E"/>
<path d="M18.503 12.8269H17.3081V13.9999H18.503V12.8269Z" fill="#F7931E"/>
<path d="M17.3081 4.61609H16.1133V5.78908H17.3081V4.61609Z" fill="#F7931E"/>
<path d="M18.503 4.61609H17.3081V5.78908H18.503V4.61609Z" fill="#F7931E"/>
<path d="M19.6978 4.61609H18.5029V5.78908H19.6978V4.61609Z" fill="#F7931E"/>
<path d="M20.8926 6.9621H19.6978V8.13509H20.8926V6.9621Z" fill="#F7931E"/>
<path d="M19.6978 8.13504H18.5029V9.30803H19.6978V8.13504Z" fill="#F7931E"/>
<path d="M20.8926 5.78903H19.6978V6.96202H20.8926V5.78903Z" fill="#F7931E"/>
<path d="M18.503 9.30798H17.3081V10.481H18.503V9.30798Z" fill="#F7931E"/>
<path d="M18.503 10.4811H17.3081V11.6541H18.503V10.4811Z" fill="#F7931E"/>
</svg>
