<svg width="62" height="62" viewBox="0 0 62 62" fill="none" xmlns="http://www.w3.org/2000/svg">
<rect width="62" height="62" rx="10" fill="#E6E6E6"/>
<g clip-path="url(#clip0_51_13227)">
<path d="M52.5 20.2V44.2H50.1111V46.6H47.7222V49H42.9444V46.6H40.5556V44.2H35.7778V46.6H33.3889V49H28.6111V46.6H26.2222V44.2H21.4444V46.6H19.0556V49H14.2778V46.6H11.8889V44.2H9.5V20.2H11.8889V17.8H14.2778V15.4H16.6667V13H45.3333V15.4H47.7222V17.8H50.1111V20.2H52.5Z" fill="#75CCEA"/>
<path d="M26.2222 24.9999V27.3999H28.6111V24.9999V22.5999H26.2222V24.9999Z" fill="#1A1A1A"/>
<path d="M21.4446 27.4V25V22.6H23.8334H26.2223V20.2H23.8334H21.4446H19.0557V22.6V25V27.4V29.8V32.2V34.6V37H21.4446V34.6V32.2V29.8H23.8334H26.2223V27.4H23.8334H21.4446Z" fill="#1A1A1A"/>
<path d="M45.3332 12.9999H16.6665V15.3999H45.3332V12.9999Z" fill="#1A1A1A"/>
<path d="M47.7224 15.3999H45.3335V17.7999H47.7224V15.3999Z" fill="#1A1A1A"/>
<path d="M50.1111 17.7999H47.7222V20.1999H50.1111V17.7999Z" fill="#1A1A1A"/>
<path d="M38.1667 20.2H35.7778V22.6H38.1667H40.5556H42.9445V20.2H40.5556H38.1667Z" fill="#1A1A1A"/>
<path d="M33.3887 24.9999V27.3999H35.7776V24.9999V22.5999H33.3887V24.9999Z" fill="#1A1A1A"/>
<path d="M38.1667 29.7999H40.5556V27.3999H38.1667H35.7778V29.7999H38.1667Z" fill="#1A1A1A"/>
<path d="M40.5557 34.6H42.9446V32.2V29.8H40.5557V32.2V34.6Z" fill="#1A1A1A"/>
<path d="M35.7776 34.5999H33.3887V36.9999H35.7776H38.1664H40.5553V34.5999H38.1664H35.7776Z" fill="#1A1A1A"/>
<path d="M52.5002 20.2H50.1113V44.1999H52.5002V20.2Z" fill="#1A1A1A"/>
<path d="M45.3332 15.3999H42.9443V17.7999H45.3332V15.3999Z" fill="#4B9EB2"/>
<path d="M47.7224 17.7999H45.3335V20.1999H47.7224V17.7999Z" fill="#4B9EB2"/>
<path d="M50.1111 20.2H47.7222V44.1999H50.1111V20.2Z" fill="#4B9EB2"/>
<path d="M16.6667 15.3999H14.2778V17.7999H16.6667V15.3999Z" fill="#1A1A1A"/>
<path d="M14.2776 17.7999H11.8887V20.1999H14.2776V17.7999Z" fill="#1A1A1A"/>
<path d="M11.8889 20.2H9.5V44.1999H11.8889V20.2Z" fill="#1A1A1A"/>
<path d="M14.2776 44.2H11.8887V46.6H14.2776V44.2Z" fill="#1A1A1A"/>
<path d="M19.0556 46.5999H14.2778V48.9999H19.0556V46.5999Z" fill="#1A1A1A"/>
<path d="M21.4446 44.2H19.0557V46.6H21.4446V44.2Z" fill="#1A1A1A"/>
<path d="M26.2221 41.8H21.4443V44.2H26.2221V41.8Z" fill="#1A1A1A"/>
<path d="M28.6111 44.2H26.2222V46.6H28.6111V44.2Z" fill="#1A1A1A"/>
<path d="M33.3891 46.5999H28.6113V48.9999H33.3891V46.5999Z" fill="#1A1A1A"/>
<path d="M35.7776 44.2H33.3887V46.6H35.7776V44.2Z" fill="#1A1A1A"/>
<path d="M40.5556 41.8H35.7778V44.2H40.5556V41.8Z" fill="#1A1A1A"/>
<path d="M42.9446 44.2H40.5557V46.6H42.9446V44.2Z" fill="#1A1A1A"/>
<path d="M47.7221 46.5999H42.9443V48.9999H47.7221V46.5999Z" fill="#1A1A1A"/>
<path d="M50.1111 44.2H47.7222V46.6H50.1111V44.2Z" fill="#1A1A1A"/>
<path d="M47.7224 44.2H45.3335V46.6H47.7224V44.2Z" fill="#4B9EB2"/>
<path d="M33.3889 44.2H31V46.6H33.3889V44.2Z" fill="#4B9EB2"/>
<path d="M19.0554 44.2H16.6665V46.6H19.0554V44.2Z" fill="#4B9EB2"/>
<path d="M35.7776 41.8H33.3887V44.2H35.7776V41.8Z" fill="#4B9EB2"/>
<path d="M21.4446 41.8H19.0557V44.2H21.4446V41.8Z" fill="#4B9EB2"/>
</g>
<defs>
<clipPath id="clip0_51_13227">
<rect width="43" height="36" fill="white" transform="translate(9.5 13)"/>
</clipPath>
</defs>
</svg>
