<svg width="86" height="85" viewBox="0 0 86 85" fill="none" xmlns="http://www.w3.org/2000/svg">
<g filter="url(#filter0_dd_5257_410541)">
<g clip-path="url(#clip0_5257_410541)">
<rect x="3" y="2" width="80" height="79" rx="8" fill="white"/>
<rect x="3" y="2" width="80" height="79" rx="8" fill="url(#paint0_linear_5257_410541)"/>
<path fill-rule="evenodd" clip-rule="evenodd" d="M42.9994 7.03342C23.7231 7.03342 8.09652 22.4647 8.09652 41.5C8.09652 60.5354 23.7231 75.9667 42.9994 75.9667C62.2758 75.9667 77.9023 60.5354 77.9023 41.5C77.9023 22.4647 62.2758 7.03342 42.9994 7.03342ZM7.90234 41.5C7.90234 22.3588 23.6158 6.84167 42.9994 6.84167C62.383 6.84167 78.0965 22.3588 78.0965 41.5C78.0965 60.6413 62.383 76.1584 42.9994 76.1584C23.6158 76.1584 7.90234 60.6413 7.90234 41.5Z" fill="#D0D5DD"/>
<path fill-rule="evenodd" clip-rule="evenodd" d="M43 31.8174C37.5844 31.8174 33.1942 36.1527 33.1942 41.5006C33.1942 46.8485 37.5844 51.1839 43 51.1839C48.4156 51.1839 52.8058 46.8485 52.8058 41.5006C52.8058 36.1527 48.4156 31.8174 43 31.8174ZM33 41.5006C33 36.0468 37.4772 31.6256 43 31.6256C48.5228 31.6256 53 36.0468 53 41.5006C53 46.9544 48.5228 51.3756 43 51.3756C37.4772 51.3756 33 46.9544 33 41.5006Z" fill="#D0D5DD"/>
<path fill-rule="evenodd" clip-rule="evenodd" d="M43.0006 34.8839C39.3009 34.8839 36.3016 37.8457 36.3016 41.4992C36.3016 45.1528 39.3009 48.1145 43.0006 48.1145C46.7004 48.1145 49.6997 45.1528 49.6997 41.4992C49.6997 37.8457 46.7004 34.8839 43.0006 34.8839ZM36.1074 41.4992C36.1074 37.7398 39.1936 34.6922 43.0006 34.6922C46.8076 34.6922 49.8938 37.7398 49.8938 41.4992C49.8938 45.2587 46.8076 48.3063 43.0006 48.3063C39.1936 48.3063 36.1074 45.2587 36.1074 41.4992Z" fill="#D0D5DD"/>
<path d="M42.9023 2H43.0965V81H42.9023V2Z" fill="#D0D5DD"/>
<path d="M83 41.4036L83 41.5953L3 41.5953L3 41.4036L83 41.4036Z" fill="#D0D5DD"/>
<path d="M69.5059 2H69.7V81H69.5059V2Z" fill="#D0D5DD"/>
<path d="M29.6016 2H29.7957V81H29.6016V2Z" fill="#D0D5DD"/>
<path d="M56.2031 2H56.3973V81H56.2031V2Z" fill="#D0D5DD"/>
<path d="M16.3008 2H16.495V81H16.3008V2Z" fill="#D0D5DD"/>
<path d="M83 67.6726L83 67.8644L3 67.8644L3 67.6726L83 67.6726Z" fill="#D0D5DD"/>
<path d="M83 28.269L83 28.4608L3 28.4608L3 28.269L83 28.269Z" fill="#D0D5DD"/>
<path d="M83 54.5381L83 54.7298L3 54.7298L3 54.5381L83 54.5381Z" fill="#D0D5DD"/>
<path d="M83 15.1345L83 15.3263L3 15.3263L3 15.1345L83 15.1345Z" fill="#D0D5DD"/>
<g filter="url(#filter1_dd_5257_410541)">
<ellipse cx="43" cy="41.5" rx="20" ry="19.75" fill="url(#paint1_linear_5257_410541)"/>
</g>
</g>
<rect x="3.1" y="2.1" width="79.8" height="78.8" rx="7.9" stroke="#D0D5DD" stroke-width="0.2"/>
</g>
<defs>
<filter id="filter0_dd_5257_410541" x="0" y="0" width="86" height="85" filterUnits="userSpaceOnUse" color-interpolation-filters="sRGB">
<feFlood flood-opacity="0" result="BackgroundImageFix"/>
<feColorMatrix in="SourceAlpha" type="matrix" values="0 0 0 0 0 0 0 0 0 0 0 0 0 0 0 0 0 0 127 0" result="hardAlpha"/>
<feOffset dy="1"/>
<feGaussianBlur stdDeviation="1"/>
<feColorMatrix type="matrix" values="0 0 0 0 0.0627451 0 0 0 0 0.0941176 0 0 0 0 0.156863 0 0 0 0.06 0"/>
<feBlend mode="normal" in2="BackgroundImageFix" result="effect1_dropShadow_5257_410541"/>
<feColorMatrix in="SourceAlpha" type="matrix" values="0 0 0 0 0 0 0 0 0 0 0 0 0 0 0 0 0 0 127 0" result="hardAlpha"/>
<feOffset dy="1"/>
<feGaussianBlur stdDeviation="1.5"/>
<feColorMatrix type="matrix" values="0 0 0 0 0.0627451 0 0 0 0 0.0941176 0 0 0 0 0.156863 0 0 0 0.1 0"/>
<feBlend mode="normal" in2="effect1_dropShadow_5257_410541" result="effect2_dropShadow_5257_410541"/>
<feBlend mode="normal" in="SourceGraphic" in2="effect2_dropShadow_5257_410541" result="shape"/>
</filter>
<filter id="filter1_dd_5257_410541" x="20" y="19.75" width="46" height="45.5" filterUnits="userSpaceOnUse" color-interpolation-filters="sRGB">
<feFlood flood-opacity="0" result="BackgroundImageFix"/>
<feColorMatrix in="SourceAlpha" type="matrix" values="0 0 0 0 0 0 0 0 0 0 0 0 0 0 0 0 0 0 127 0" result="hardAlpha"/>
<feOffset dy="1"/>
<feGaussianBlur stdDeviation="1"/>
<feColorMatrix type="matrix" values="0 0 0 0 0.0627451 0 0 0 0 0.0941176 0 0 0 0 0.156863 0 0 0 0.06 0"/>
<feBlend mode="normal" in2="BackgroundImageFix" result="effect1_dropShadow_5257_410541"/>
<feColorMatrix in="SourceAlpha" type="matrix" values="0 0 0 0 0 0 0 0 0 0 0 0 0 0 0 0 0 0 127 0" result="hardAlpha"/>
<feOffset dy="1"/>
<feGaussianBlur stdDeviation="1.5"/>
<feColorMatrix type="matrix" values="0 0 0 0 0.0627451 0 0 0 0 0.0941176 0 0 0 0 0.156863 0 0 0 0.1 0"/>
<feBlend mode="normal" in2="effect1_dropShadow_5257_410541" result="effect2_dropShadow_5257_410541"/>
<feBlend mode="normal" in="SourceGraphic" in2="effect2_dropShadow_5257_410541" result="shape"/>
</filter>
<linearGradient id="paint0_linear_5257_410541" x1="43" y1="2" x2="43" y2="81" gradientUnits="userSpaceOnUse">
<stop stop-color="white"/>
<stop offset="1" stop-color="#D0D5DD"/>
</linearGradient>
<linearGradient id="paint1_linear_5257_410541" x1="33" y1="61.25" x2="52.6005" y2="21.5528" gradientUnits="userSpaceOnUse">
<stop stop-color="#53389E"/>
<stop offset="1" stop-color="#6941C6"/>
</linearGradient>
<clipPath id="clip0_5257_410541">
<rect x="3" y="2" width="80" height="79" rx="8" fill="white"/>
</clipPath>
</defs>
</svg>
