<svg width="26" height="26" viewBox="0 0 26 26" fill="none" xmlns="http://www.w3.org/2000/svg">
<rect width="26" height="26" rx="13" fill="#75CCEA"/>
<g clip-path="url(#clip0_203_13803)">
<path d="M21.5 8.5V18.5H20.5556V19.5H19.6111V20.5H17.7222V19.5H16.7778V18.5H14.8889V19.5H13.9444V20.5H12.0556V19.5H11.1111V18.5H9.22222V19.5H8.27778V20.5H6.38889V19.5H5.44444V18.5H4.5V8.5H5.44444V7.5H6.38889V6.5H7.33333V5.5H18.6667V6.5H19.6111V7.5H20.5556V8.5H21.5Z" fill="#FCFCFD"/>
<path d="M11.1111 10.5V11.5H12.0555V10.5V9.49998H11.1111V10.5Z" fill="#1A1A1A"/>
<path d="M9.22228 11.5V10.5V9.49998H10.1667H11.1112V8.49998H10.1667H9.22228H8.27783V9.49998V10.5V11.5V12.5V13.5V14.5V15.5H9.22228V14.5V13.5V12.5H10.1667H11.1112V11.5H10.1667H9.22228Z" fill="#1A1A1A"/>
<path d="M18.6666 5.49997H7.33325V6.49997H18.6666V5.49997Z" fill="#1A1A1A"/>
<path d="M19.6112 6.49996H18.6667V7.49996H19.6112V6.49996Z" fill="#1A1A1A"/>
<path d="M20.5555 7.49995H19.6111V8.49995H20.5555V7.49995Z" fill="#1A1A1A"/>
<path d="M15.8334 8.49998H14.8889V9.49998H15.8334H16.7778H17.7222V8.49998H16.7778H15.8334Z" fill="#1A1A1A"/>
<path d="M13.9443 10.5V11.5H14.8888V10.5V9.49998H13.9443V10.5Z" fill="#1A1A1A"/>
<path d="M15.8334 12.5H16.7778V11.5H15.8334H14.8889V12.5H15.8334Z" fill="#1A1A1A"/>
<path d="M16.7778 14.5H17.7223V13.5V12.5H16.7778V13.5V14.5Z" fill="#1A1A1A"/>
<path d="M14.8888 14.5H13.9443V15.5H14.8888H15.8332H16.7777V14.5H15.8332H14.8888Z" fill="#1A1A1A"/>
<path d="M21.5001 8.49998H20.5557V18.5H21.5001V8.49998Z" fill="#1A1A1A"/>
<path d="M18.6666 6.49996H17.7222V7.49996H18.6666V6.49996Z" fill="#D0D5DD"/>
<path d="M19.6112 7.49995H18.6667V8.49995H19.6112V7.49995Z" fill="#D0D5DD"/>
<path d="M20.5555 8.49998H19.6111V18.5H20.5555V8.49998Z" fill="#D0D5DD"/>
<path d="M7.33336 6.49996H6.38892V7.49996H7.33336V6.49996Z" fill="#1A1A1A"/>
<path d="M6.38878 7.49995H5.44434V8.49995H6.38878V7.49995Z" fill="#1A1A1A"/>
<path d="M5.44444 8.49998H4.5V18.5H5.44444V8.49998Z" fill="#1A1A1A"/>
<path d="M6.38878 18.5H5.44434V19.5H6.38878V18.5Z" fill="#1A1A1A"/>
<path d="M8.2778 19.5H6.38892V20.5H8.2778V19.5Z" fill="#1A1A1A"/>
<path d="M9.22228 18.5H8.27783V19.5H9.22228V18.5Z" fill="#1A1A1A"/>
<path d="M11.1111 17.5H9.22217V18.5H11.1111V17.5Z" fill="#1A1A1A"/>
<path d="M12.0555 18.5H11.1111V19.5H12.0555V18.5Z" fill="#1A1A1A"/>
<path d="M13.9446 19.5H12.0557V20.5H13.9446V19.5Z" fill="#1A1A1A"/>
<path d="M14.8888 18.5H13.9443V19.5H14.8888V18.5Z" fill="#1A1A1A"/>
<path d="M16.7778 17.5H14.8889V18.5H16.7778V17.5Z" fill="#1A1A1A"/>
<path d="M17.7223 18.5H16.7778V19.5H17.7223V18.5Z" fill="#1A1A1A"/>
<path d="M19.6111 19.5H17.7222V20.5H19.6111V19.5Z" fill="#1A1A1A"/>
<path d="M20.5555 18.5H19.6111V19.5H20.5555V18.5Z" fill="#1A1A1A"/>
<path d="M19.6112 18.5H18.6667V19.5H19.6112V18.5Z" fill="#D0D5DD"/>
<path d="M13.9444 18.5H13V19.5H13.9444V18.5Z" fill="#D0D5DD"/>
<path d="M8.2777 18.5H7.33325V19.5H8.2777V18.5Z" fill="#D0D5DD"/>
<path d="M14.8888 17.5H13.9443V18.5H14.8888V17.5Z" fill="#D0D5DD"/>
<path d="M9.22228 17.5H8.27783V18.5H9.22228V17.5Z" fill="#D0D5DD"/>
</g>
<defs>
<clipPath id="clip0_203_13803">
<rect width="17" height="15" fill="white" transform="translate(4.5 5.5)"/>
</clipPath>
</defs>
</svg>
