<svg width="4" height="15" viewBox="0 0 4 15" fill="none" xmlns="http://www.w3.org/2000/svg">
<path d="M1.99935 8.33337C2.45959 8.33337 2.83268 7.96028 2.83268 7.50004C2.83268 7.0398 2.45959 6.66671 1.99935 6.66671C1.53911 6.66671 1.16602 7.0398 1.16602 7.50004C1.16602 7.96028 1.53911 8.33337 1.99935 8.33337Z" stroke="#fff" stroke-width="1.66667" stroke-linecap="round" stroke-linejoin="round"/>
<path d="M1.99935 2.50004C2.45959 2.50004 2.83268 2.12694 2.83268 1.66671C2.83268 1.20647 2.45959 0.833374 1.99935 0.833374C1.53911 0.833374 1.16602 1.20647 1.16602 1.66671C1.16602 2.12694 1.53911 2.50004 1.99935 2.50004Z" stroke="#fff" stroke-width="1.66667" stroke-linecap="round" stroke-linejoin="round"/>
<path d="M1.99935 14.1667C2.45959 14.1667 2.83268 13.7936 2.83268 13.3334C2.83268 12.8731 2.45959 12.5 1.99935 12.5C1.53911 12.5 1.16602 12.8731 1.16602 13.3334C1.16602 13.7936 1.53911 14.1667 1.99935 14.1667Z" stroke="#fff" stroke-width="1.66667" stroke-linecap="round" stroke-linejoin="round"/>
</svg>
