<svg width="26" height="26" viewBox="0 0 26 26" fill="none" xmlns="http://www.w3.org/2000/svg">
<rect x="2.08594" y="8.82907" width="2.08546" height="2.08546" fill="white"/>
<rect x="4.1709" y="8.82907" width="2.08546" height="2.08546" fill="white"/>
<rect x="6.25684" y="8.82907" width="2.08546" height="2.08546" fill="white"/>
<rect x="8.3418" y="8.82907" width="2.08546" height="2.08546" fill="white"/>
<rect x="10.4277" y="8.82907" width="2.08546" height="2.08546" fill="white"/>
<rect y="10.9146" width="2.08546" height="2.08546" fill="white"/>
<rect y="13" width="2.08546" height="2.08546" fill="white"/>
<rect y="15.0854" width="2.08546" height="2.08546" fill="white"/>
<rect y="17.1709" width="2.08546" height="2.08546" fill="white"/>
<rect y="19.2564" width="2.08546" height="2.08546" fill="white"/>
<rect x="2.08594" y="21.3418" width="2.08546" height="2.08546" fill="white"/>
<rect x="4.1709" y="21.3418" width="2.08546" height="2.08546" fill="white"/>
<rect x="6.25684" y="21.3418" width="2.08546" height="2.08546" fill="white"/>
<rect x="8.3418" y="21.3418" width="2.08546" height="2.08546" fill="white"/>
<rect x="10.4277" y="21.3418" width="2.08546" height="2.08546" fill="white"/>
<rect width="2.08546" height="2.08546" transform="matrix(-1 0 0 1 22.9404 8.82907)" fill="white"/>
<rect width="2.08546" height="2.08546" transform="matrix(-1 0 0 1 20.8545 8.82907)" fill="white"/>
<rect width="2.08546" height="2.08546" transform="matrix(-1 0 0 1 18.7695 8.82907)" fill="white"/>
<rect width="2.08546" height="2.08546" transform="matrix(-1 0 0 1 16.6836 8.82907)" fill="white"/>
<rect width="2.08546" height="2.08546" transform="matrix(-1 0 0 1 14.5986 8.82907)" fill="white"/>
<rect width="2.08546" height="2.08546" transform="matrix(-1 0 0 1 25.0254 10.9146)" fill="white"/>
<rect width="2.08546" height="2.08546" transform="matrix(-1 0 0 1 25.0254 13)" fill="white"/>
<rect width="2.08546" height="2.08546" transform="matrix(-1 0 0 1 25.0254 15.0854)" fill="white"/>
<rect width="2.08546" height="2.08546" transform="matrix(-1 0 0 1 25.0254 17.1709)" fill="white"/>
<rect width="2.08546" height="2.08546" transform="matrix(-1 0 0 1 25.0254 19.2564)" fill="white"/>
<rect width="2.08546" height="2.08546" transform="matrix(-1 0 0 1 22.9404 21.3418)" fill="white"/>
<rect width="2.08546" height="2.08546" transform="matrix(-1 0 0 1 20.8545 21.3418)" fill="white"/>
<rect width="2.08546" height="2.08546" transform="matrix(-1 0 0 1 18.7695 21.3418)" fill="white"/>
<rect width="2.08546" height="2.08546" transform="matrix(-1 0 0 1 16.6836 21.3418)" fill="white"/>
<rect width="2.08546" height="2.08546" transform="matrix(-1 0 0 1 14.5986 21.3418)" fill="white"/>
<rect x="6.25684" y="2.57269" width="2.08546" height="2.08546" fill="white"/>
<rect x="6.25684" y="4.65817" width="2.08546" height="2.08546" fill="white"/>
<rect x="8.3418" y="4.65817" width="2.08546" height="2.08546" fill="white"/>
<rect x="6.25684" y="13" width="2.08546" height="2.08546" fill="white"/>
<rect x="6.25684" y="15.0854" width="2.08546" height="2.08546" fill="white"/>
<rect x="8.3418" y="15.0854" width="2.08546" height="2.08546" fill="white"/>
<rect x="14.5986" y="17.1709" width="2.08546" height="2.08546" fill="white"/>
<rect x="18.7695" y="13" width="2.08546" height="2.08546" fill="white"/>
<rect x="4.1709" y="15.0854" width="2.08546" height="2.08546" fill="white"/>
<rect x="6.25684" y="17.1709" width="2.08546" height="2.08546" fill="white"/>
<rect x="10.4277" y="4.65817" width="2.08546" height="2.08546" fill="white"/>
<rect x="10.4277" y="6.74362" width="2.08546" height="2.08546" fill="white"/>
</svg>
