<svg width="26" height="26" viewBox="0 0 26 26" fill="none" xmlns="http://www.w3.org/2000/svg">
<rect x="2.08594" y="8.50388" width="2.08546" height="2.08546" fill="#344054"/>
<rect x="4.1709" y="8.50388" width="2.08546" height="2.08546" fill="#344054"/>
<rect x="6.25684" y="8.50388" width="2.08546" height="2.08546" fill="#344054"/>
<rect x="8.3418" y="8.50388" width="2.08546" height="2.08546" fill="#344054"/>
<rect x="10.4277" y="8.50388" width="2.08546" height="2.08546" fill="#344054"/>
<rect y="10.5894" width="2.08546" height="2.08546" fill="#344054"/>
<rect y="12.6748" width="2.08546" height="2.08546" fill="#344054"/>
<rect y="14.7603" width="2.08546" height="2.08546" fill="#344054"/>
<rect y="16.8457" width="2.08546" height="2.08546" fill="#344054"/>
<rect y="18.9312" width="2.08546" height="2.08546" fill="#344054"/>
<rect x="2.08594" y="21.0166" width="2.08546" height="2.08546" fill="#344054"/>
<rect x="4.1709" y="21.0166" width="2.08546" height="2.08546" fill="#344054"/>
<rect x="6.25684" y="21.0166" width="2.08546" height="2.08546" fill="#344054"/>
<rect x="8.3418" y="21.0166" width="2.08546" height="2.08546" fill="#344054"/>
<rect x="10.4277" y="21.0166" width="2.08546" height="2.08546" fill="#344054"/>
<rect width="2.08546" height="2.08546" transform="matrix(-1 0 0 1 22.9404 8.50388)" fill="#344054"/>
<rect width="2.08546" height="2.08546" transform="matrix(-1 0 0 1 20.8545 8.50388)" fill="#344054"/>
<rect width="2.08546" height="2.08546" transform="matrix(-1 0 0 1 18.7695 8.50388)" fill="#344054"/>
<rect width="2.08546" height="2.08546" transform="matrix(-1 0 0 1 16.6836 8.50388)" fill="#344054"/>
<rect width="2.08546" height="2.08546" transform="matrix(-1 0 0 1 14.5986 8.50388)" fill="#344054"/>
<rect width="2.08546" height="2.08546" transform="matrix(-1 0 0 1 25.0254 10.5894)" fill="#344054"/>
<rect width="2.08546" height="2.08546" transform="matrix(-1 0 0 1 25.0254 12.6748)" fill="#344054"/>
<rect width="2.08546" height="2.08546" transform="matrix(-1 0 0 1 25.0254 14.7603)" fill="#344054"/>
<rect width="2.08546" height="2.08546" transform="matrix(-1 0 0 1 25.0254 16.8457)" fill="#344054"/>
<rect width="2.08546" height="2.08546" transform="matrix(-1 0 0 1 25.0254 18.9312)" fill="#344054"/>
<rect width="2.08546" height="2.08546" transform="matrix(-1 0 0 1 22.9404 21.0166)" fill="#344054"/>
<rect width="2.08546" height="2.08546" transform="matrix(-1 0 0 1 20.8545 21.0166)" fill="#344054"/>
<rect width="2.08546" height="2.08546" transform="matrix(-1 0 0 1 18.7695 21.0166)" fill="#344054"/>
<rect width="2.08546" height="2.08546" transform="matrix(-1 0 0 1 16.6836 21.0166)" fill="#344054"/>
<rect width="2.08546" height="2.08546" transform="matrix(-1 0 0 1 14.5986 21.0166)" fill="#344054"/>
<rect x="6.25684" y="2.2475" width="2.08546" height="2.08546" fill="#344054"/>
<rect x="6.25684" y="4.33298" width="2.08546" height="2.08546" fill="#344054"/>
<rect x="8.3418" y="4.33298" width="2.08546" height="2.08546" fill="#344054"/>
<rect x="6.25684" y="12.6748" width="2.08546" height="2.08546" fill="#344054"/>
<rect x="6.25684" y="14.7603" width="2.08546" height="2.08546" fill="#344054"/>
<rect x="8.3418" y="14.7603" width="2.08546" height="2.08546" fill="#344054"/>
<rect x="14.5986" y="16.8457" width="2.08546" height="2.08546" fill="#344054"/>
<rect x="18.7695" y="12.6748" width="2.08546" height="2.08546" fill="#344054"/>
<rect x="4.1709" y="14.7603" width="2.08546" height="2.08546" fill="#344054"/>
<rect x="6.25684" y="16.8457" width="2.08546" height="2.08546" fill="#344054"/>
<rect x="10.4277" y="4.33298" width="2.08546" height="2.08546" fill="#344054"/>
<rect x="10.4277" y="6.41843" width="2.08546" height="2.08546" fill="#344054"/>
</svg>
