<svg width="26" height="26" viewBox="0 0 26 26" fill="none" xmlns="http://www.w3.org/2000/svg">
<rect x="4.17188" y="6.33292" width="2.08546" height="2.08546" fill="#344054"/>
<rect x="6.25684" y="6.33292" width="2.08546" height="2.08546" fill="#344054"/>
<rect x="14.5986" y="4.24744" width="2.08546" height="2.08546" fill="#344054"/>
<rect x="14.5986" y="2.16199" width="2.08546" height="2.08546" fill="#344054"/>
<rect x="8.34277" y="2.16199" width="2.08546" height="2.08546" fill="#344054"/>
<rect x="12.5137" y="6.33292" width="2.08546" height="2.08546" fill="#344054"/>
<rect x="10.4277" y="8.41837" width="2.08546" height="2.08546" fill="#344054"/>
<rect x="10.4277" y="10.5038" width="2.08546" height="2.08546" fill="#344054"/>
<rect x="10.4277" y="12.5893" width="2.08546" height="2.08546" fill="#344054"/>
<rect x="10.4277" y="14.6747" width="2.08546" height="2.08546" fill="#344054"/>
<rect x="8.34277" y="16.7602" width="2.08546" height="2.08546" fill="#344054"/>
<rect x="8.34277" y="18.8456" width="2.08546" height="2.08546" fill="#344054"/>
<rect x="2.08594" y="8.41837" width="2.08546" height="2.08546" fill="#344054"/>
<rect x="2.08594" y="10.5038" width="2.08546" height="2.08546" fill="#344054"/>
<rect x="2.08594" y="12.5893" width="2.08546" height="2.08546" fill="#344054"/>
<rect x="2.08594" y="14.6747" width="2.08546" height="2.08546" fill="#344054"/>
<rect x="2.08594" y="16.7602" width="2.08546" height="2.08546" fill="#344054"/>
<rect x="4.17188" y="18.8456" width="2.08546" height="2.08546" fill="#344054"/>
<rect x="6.25684" y="20.9311" width="2.08546" height="2.08546" fill="#344054"/>
<rect x="8.34277" y="20.9311" width="2.08546" height="2.08546" fill="#344054"/>
<rect x="10.4277" y="20.9311" width="2.08546" height="2.08546" fill="#344054"/>
<rect width="2.08546" height="2.08546" transform="matrix(-1 0 0 1 20.8555 6.33292)" fill="#344054"/>
<rect width="2.08546" height="2.08546" transform="matrix(-1 0 0 1 18.7695 6.33292)" fill="#344054"/>
<rect width="2.08546" height="2.08546" transform="matrix(-1 0 0 1 22.9404 8.41837)" fill="#344054"/>
<rect width="2.08546" height="2.08546" transform="matrix(-1 0 0 1 22.9404 10.5038)" fill="#344054"/>
<rect width="2.08546" height="2.08546" transform="matrix(-1 0 0 1 22.9404 12.5893)" fill="#344054"/>
<rect width="2.08546" height="2.08546" transform="matrix(-1 0 0 1 22.9404 14.6747)" fill="#344054"/>
<rect width="2.08546" height="2.08546" transform="matrix(-1 0 0 1 22.9404 16.7602)" fill="#344054"/>
<rect width="2.08546" height="2.08546" transform="matrix(-1 0 0 1 20.8555 18.8456)" fill="#344054"/>
<rect width="2.08546" height="2.08546" transform="matrix(-1 0 0 1 18.7695 20.9311)" fill="#344054"/>
<rect width="2.08546" height="2.08546" transform="matrix(-1 0 0 1 16.6846 20.9311)" fill="#344054"/>
<rect width="2.08546" height="2.08546" transform="matrix(-1 0 0 1 14.5986 20.9311)" fill="#344054"/>
</svg>
