<svg width="26" height="26" viewBox="0 0 26 26" fill="none" xmlns="http://www.w3.org/2000/svg">
<rect x="4.17188" y="6.74362" width="2.08546" height="2.08546" fill="white"/>
<rect x="6.25684" y="6.74362" width="2.08546" height="2.08546" fill="white"/>
<rect x="14.5986" y="4.65814" width="2.08546" height="2.08546" fill="white"/>
<rect x="14.5986" y="2.57269" width="2.08546" height="2.08546" fill="white"/>
<rect x="8.34277" y="2.57269" width="2.08546" height="2.08546" fill="white"/>
<rect x="12.5137" y="6.74362" width="2.08546" height="2.08546" fill="white"/>
<rect x="10.4277" y="8.82907" width="2.08546" height="2.08546" fill="white"/>
<rect x="10.4277" y="10.9145" width="2.08546" height="2.08546" fill="white"/>
<rect x="10.4277" y="13" width="2.08546" height="2.08546" fill="white"/>
<rect x="10.4277" y="15.0854" width="2.08546" height="2.08546" fill="white"/>
<rect x="8.34277" y="17.1709" width="2.08546" height="2.08546" fill="white"/>
<rect x="8.34277" y="19.2563" width="2.08546" height="2.08546" fill="white"/>
<rect x="2.08594" y="8.82907" width="2.08546" height="2.08546" fill="white"/>
<rect x="2.08594" y="10.9145" width="2.08546" height="2.08546" fill="white"/>
<rect x="2.08594" y="13" width="2.08546" height="2.08546" fill="white"/>
<rect x="2.08594" y="15.0854" width="2.08546" height="2.08546" fill="white"/>
<rect x="2.08594" y="17.1709" width="2.08546" height="2.08546" fill="white"/>
<rect x="4.17188" y="19.2563" width="2.08546" height="2.08546" fill="white"/>
<rect x="6.25684" y="21.3418" width="2.08546" height="2.08546" fill="white"/>
<rect x="8.34277" y="21.3418" width="2.08546" height="2.08546" fill="white"/>
<rect x="10.4277" y="21.3418" width="2.08546" height="2.08546" fill="white"/>
<rect width="2.08546" height="2.08546" transform="matrix(-1 0 0 1 20.8555 6.74362)" fill="white"/>
<rect width="2.08546" height="2.08546" transform="matrix(-1 0 0 1 18.7695 6.74362)" fill="white"/>
<rect width="2.08546" height="2.08546" transform="matrix(-1 0 0 1 22.9404 8.82907)" fill="white"/>
<rect width="2.08546" height="2.08546" transform="matrix(-1 0 0 1 22.9404 10.9145)" fill="white"/>
<rect width="2.08546" height="2.08546" transform="matrix(-1 0 0 1 22.9404 13)" fill="white"/>
<rect width="2.08546" height="2.08546" transform="matrix(-1 0 0 1 22.9404 15.0854)" fill="white"/>
<rect width="2.08546" height="2.08546" transform="matrix(-1 0 0 1 22.9404 17.1709)" fill="white"/>
<rect width="2.08546" height="2.08546" transform="matrix(-1 0 0 1 20.8555 19.2563)" fill="white"/>
<rect width="2.08546" height="2.08546" transform="matrix(-1 0 0 1 18.7695 21.3418)" fill="white"/>
<rect width="2.08546" height="2.08546" transform="matrix(-1 0 0 1 16.6846 21.3418)" fill="white"/>
<rect width="2.08546" height="2.08546" transform="matrix(-1 0 0 1 14.5986 21.3418)" fill="white"/>
</svg>
