<svg width="26" height="26" viewBox="0 0 26 26" fill="none" xmlns="http://www.w3.org/2000/svg">
<rect x="5.21387" y="2.08545" width="2.08546" height="2.08546" fill="white"/>
<rect x="3.12793" y="4.1709" width="2.08546" height="2.08546" fill="white"/>
<rect x="19.8115" y="4.1709" width="2.08546" height="2.08546" fill="white"/>
<rect x="1.04297" y="6.25635" width="2.08546" height="2.08546" fill="white"/>
<rect x="3.12793" y="6.25635" width="2.08546" height="2.08546" fill="white"/>
<rect x="5.21387" y="6.25635" width="2.08546" height="2.08546" fill="white"/>
<rect x="5.21387" y="8.34186" width="2.08546" height="2.08546" fill="white"/>
<rect x="9.38477" y="8.34186" width="2.08546" height="2.08546" fill="white"/>
<rect x="7.29883" y="6.25635" width="2.08546" height="2.08546" fill="white"/>
<rect x="9.38477" y="6.25635" width="2.08546" height="2.08546" fill="white"/>
<rect x="1.04297" y="8.34186" width="2.08546" height="2.08546" fill="white"/>
<rect x="1.04297" y="10.4273" width="2.08546" height="2.08546" fill="white"/>
<rect x="3.12793" y="10.4273" width="2.08546" height="2.08546" fill="white"/>
<rect x="5.21387" y="10.4273" width="2.08546" height="2.08546" fill="white"/>
<rect x="7.29883" y="10.4273" width="2.08546" height="2.08546" fill="white"/>
<rect x="9.38477" y="10.4273" width="2.08546" height="2.08546" fill="white"/>
<rect x="1.04297" y="12.5128" width="2.08546" height="2.08546" fill="white"/>
<rect x="1.04297" y="14.5982" width="2.08546" height="2.08546" fill="white"/>
<rect x="1.04297" y="16.6837" width="2.08546" height="2.08546" fill="white"/>
<rect x="1.04297" y="18.7691" width="2.08546" height="2.08546" fill="white"/>
<rect x="1.04297" y="20.8546" width="2.08546" height="2.08546" fill="white"/>
<rect x="3.12793" y="20.8546" width="2.08546" height="2.08546" fill="white"/>
<rect x="5.21387" y="20.8546" width="2.08546" height="2.08546" fill="white"/>
<rect x="5.21387" y="18.7691" width="2.08546" height="2.08546" fill="white"/>
<rect x="5.21387" y="16.6837" width="2.08546" height="2.08546" fill="white"/>
<rect x="5.21387" y="14.5982" width="2.08546" height="2.08546" fill="white"/>
<rect x="7.29883" y="14.5982" width="2.08546" height="2.08546" fill="white"/>
<rect x="9.38477" y="14.5982" width="2.08546" height="2.08546" fill="white"/>
<rect x="9.38477" y="16.6837" width="2.08546" height="2.08546" fill="white"/>
<rect x="9.38477" y="18.7691" width="2.08546" height="2.08546" fill="white"/>
<rect x="9.38477" y="20.8546" width="2.08546" height="2.08546" fill="white"/>
<rect width="2.08546" height="2.08546" transform="matrix(-1 0 0 1 23.9824 6.25635)" fill="white"/>
<rect width="2.08546" height="2.08546" transform="matrix(-1 0 0 1 21.8975 6.25635)" fill="white"/>
<rect width="2.08546" height="2.08546" transform="matrix(-1 0 0 1 19.8115 6.25635)" fill="white"/>
<rect width="2.08546" height="2.08546" transform="matrix(-1 0 0 1 19.8115 8.34186)" fill="white"/>
<rect width="2.08546" height="2.08546" transform="matrix(-1 0 0 1 15.6406 8.34186)" fill="white"/>
<rect width="2.08546" height="2.08546" transform="matrix(-1 0 0 1 17.7266 6.25635)" fill="white"/>
<rect width="2.08546" height="2.08546" transform="matrix(-1 0 0 1 15.6406 6.25635)" fill="white"/>
<rect width="2.08546" height="2.08546" transform="matrix(-1 0 0 1 13.5557 6.25635)" fill="white"/>
<rect width="2.08546" height="2.08546" transform="matrix(-1 0 0 1 23.9824 8.34186)" fill="white"/>
<rect width="2.08546" height="2.08546" transform="matrix(-1 0 0 1 23.9824 10.4273)" fill="white"/>
<rect width="2.08546" height="2.08546" transform="matrix(-1 0 0 1 21.8975 10.4273)" fill="white"/>
<rect width="2.08546" height="2.08546" transform="matrix(-1 0 0 1 19.8115 10.4273)" fill="white"/>
<rect width="2.08546" height="2.08546" transform="matrix(-1 0 0 1 17.7266 10.4273)" fill="white"/>
<rect width="2.08546" height="2.08546" transform="matrix(-1 0 0 1 15.6406 10.4273)" fill="white"/>
<rect width="2.08546" height="2.08546" transform="matrix(-1 0 0 1 15.6406 12.5128)" fill="white"/>
<rect width="2.08546" height="2.08546" transform="matrix(-1 0 0 1 15.6406 14.5982)" fill="white"/>
<rect width="2.08546" height="2.08546" transform="matrix(-1 0 0 1 17.7266 14.5982)" fill="white"/>
<rect width="2.08546" height="2.08546" transform="matrix(-1 0 0 1 19.8115 14.5982)" fill="white"/>
<rect width="2.08546" height="2.08546" transform="matrix(-1 0 0 1 21.8975 14.5982)" fill="white"/>
<rect width="2.08546" height="2.08546" transform="matrix(-1 0 0 1 13.5557 10.4273)" fill="white"/>
<rect width="2.08546" height="2.08546" transform="matrix(-1 0 0 1 23.9824 12.5128)" fill="white"/>
<rect width="2.08546" height="2.08546" transform="matrix(-1 0 0 1 23.9824 14.5982)" fill="white"/>
<rect width="2.08546" height="2.08546" transform="matrix(-1 0 0 1 23.9824 16.6837)" fill="white"/>
<rect width="2.08546" height="2.08546" transform="matrix(-1 0 0 1 23.9824 18.7691)" fill="white"/>
<rect width="2.08546" height="2.08546" transform="matrix(-1 0 0 1 23.9824 20.8546)" fill="white"/>
<rect width="2.08546" height="2.08546" transform="matrix(-1 0 0 1 21.8975 20.8546)" fill="white"/>
<rect width="2.08546" height="2.08546" transform="matrix(-1 0 0 1 19.8115 20.8546)" fill="white"/>
<rect width="2.08546" height="2.08546" transform="matrix(-1 0 0 1 17.7266 20.8546)" fill="white"/>
<rect width="2.08546" height="2.08546" transform="matrix(-1 0 0 1 15.6406 20.8546)" fill="white"/>
<rect width="2.08546" height="2.08546" transform="matrix(-1 0 0 1 13.5557 20.8546)" fill="white"/>
<rect x="7.29883" y="2.08545" width="2.08546" height="2.08546" fill="white"/>
<rect x="9.38477" y="2.08545" width="2.08546" height="2.08546" fill="white"/>
<rect x="11.4697" y="2.08545" width="2.08546" height="2.08546" fill="white"/>
<rect x="13.5557" y="2.08545" width="2.08546" height="2.08546" fill="white"/>
<rect x="15.6406" y="2.08545" width="2.08546" height="2.08546" fill="white"/>
<rect x="17.7266" y="2.08545" width="2.08546" height="2.08546" fill="white"/>
</svg>
