<svg width="26" height="26" viewBox="0 0 26 26" fill="none" xmlns="http://www.w3.org/2000/svg">
<rect x="5.21387" y="2.13672" width="2.08546" height="2.08546" fill="#344054"/>
<rect x="3.12842" y="4.22266" width="2.08546" height="2.08546" fill="#344054"/>
<rect x="19.812" y="4.22266" width="2.08546" height="2.08546" fill="#344054"/>
<rect x="1.04297" y="6.30762" width="2.08546" height="2.08546" fill="#344054"/>
<rect x="3.12842" y="6.30762" width="2.08546" height="2.08546" fill="#344054"/>
<rect x="5.21387" y="6.30762" width="2.08546" height="2.08546" fill="#344054"/>
<rect x="5.21387" y="8.39355" width="2.08546" height="2.08546" fill="#344054"/>
<rect x="9.38477" y="8.39355" width="2.08546" height="2.08546" fill="#344054"/>
<rect x="7.29932" y="6.30762" width="2.08546" height="2.08546" fill="#344054"/>
<rect x="9.38477" y="6.30762" width="2.08546" height="2.08546" fill="#344054"/>
<rect x="1.04297" y="8.39355" width="2.08546" height="2.08546" fill="#344054"/>
<rect x="1.04297" y="10.4785" width="2.08546" height="2.08546" fill="#344054"/>
<rect x="3.12842" y="10.4785" width="2.08546" height="2.08546" fill="#344054"/>
<rect x="5.21387" y="10.4785" width="2.08546" height="2.08546" fill="#344054"/>
<rect x="7.29932" y="10.4785" width="2.08546" height="2.08546" fill="#344054"/>
<rect x="9.38477" y="10.4785" width="2.08546" height="2.08546" fill="#344054"/>
<rect x="1.04297" y="12.5645" width="2.08546" height="2.08546" fill="#344054"/>
<rect x="1.04297" y="14.6494" width="2.08546" height="2.08546" fill="#344054"/>
<rect x="1.04297" y="16.7354" width="2.08546" height="2.08546" fill="#344054"/>
<rect x="1.04297" y="18.8203" width="2.08546" height="2.08546" fill="#344054"/>
<rect x="1.04297" y="20.9062" width="2.08546" height="2.08546" fill="#344054"/>
<rect x="3.12842" y="20.9062" width="2.08546" height="2.08546" fill="#344054"/>
<rect x="5.21387" y="20.9062" width="2.08546" height="2.08546" fill="#344054"/>
<rect x="5.21387" y="18.8203" width="2.08546" height="2.08546" fill="#344054"/>
<rect x="5.21387" y="16.7354" width="2.08546" height="2.08546" fill="#344054"/>
<rect x="5.21387" y="14.6494" width="2.08546" height="2.08546" fill="#344054"/>
<rect x="7.29932" y="14.6494" width="2.08546" height="2.08546" fill="#344054"/>
<rect x="9.38477" y="14.6494" width="2.08546" height="2.08546" fill="#344054"/>
<rect x="9.38477" y="16.7354" width="2.08546" height="2.08546" fill="#344054"/>
<rect x="9.38477" y="18.8203" width="2.08546" height="2.08546" fill="#344054"/>
<rect x="9.38477" y="20.9062" width="2.08546" height="2.08546" fill="#344054"/>
<rect width="2.08546" height="2.08546" transform="matrix(-1 0 0 1 23.9829 6.30762)" fill="#344054"/>
<rect width="2.08546" height="2.08546" transform="matrix(-1 0 0 1 21.8975 6.30762)" fill="#344054"/>
<rect width="2.08546" height="2.08546" transform="matrix(-1 0 0 1 19.812 6.30762)" fill="#344054"/>
<rect width="2.08546" height="2.08546" transform="matrix(-1 0 0 1 19.812 8.39355)" fill="#344054"/>
<rect width="2.08546" height="2.08546" transform="matrix(-1 0 0 1 15.6411 8.39355)" fill="#344054"/>
<rect width="2.08546" height="2.08546" transform="matrix(-1 0 0 1 17.7266 6.30762)" fill="#344054"/>
<rect width="2.08546" height="2.08546" transform="matrix(-1 0 0 1 15.6411 6.30762)" fill="#344054"/>
<rect width="2.08546" height="2.08546" transform="matrix(-1 0 0 1 13.5557 6.30762)" fill="#344054"/>
<rect width="2.08546" height="2.08546" transform="matrix(-1 0 0 1 23.9829 8.39355)" fill="#344054"/>
<rect width="2.08546" height="2.08546" transform="matrix(-1 0 0 1 23.9829 10.4785)" fill="#344054"/>
<rect width="2.08546" height="2.08546" transform="matrix(-1 0 0 1 21.8975 10.4785)" fill="#344054"/>
<rect width="2.08546" height="2.08546" transform="matrix(-1 0 0 1 19.812 10.4785)" fill="#344054"/>
<rect width="2.08546" height="2.08546" transform="matrix(-1 0 0 1 17.7266 10.4785)" fill="#344054"/>
<rect width="2.08546" height="2.08546" transform="matrix(-1 0 0 1 15.6411 10.4785)" fill="#344054"/>
<rect width="2.08546" height="2.08546" transform="matrix(-1 0 0 1 15.6411 12.5645)" fill="#344054"/>
<rect width="2.08546" height="2.08546" transform="matrix(-1 0 0 1 15.6411 14.6494)" fill="#344054"/>
<rect width="2.08546" height="2.08546" transform="matrix(-1 0 0 1 17.7266 14.6494)" fill="#344054"/>
<rect width="2.08546" height="2.08546" transform="matrix(-1 0 0 1 19.812 14.6494)" fill="#344054"/>
<rect width="2.08546" height="2.08546" transform="matrix(-1 0 0 1 21.8975 14.6494)" fill="#344054"/>
<rect width="2.08546" height="2.08546" transform="matrix(-1 0 0 1 13.5557 10.4785)" fill="#344054"/>
<rect width="2.08546" height="2.08546" transform="matrix(-1 0 0 1 23.9829 12.5645)" fill="#344054"/>
<rect width="2.08546" height="2.08546" transform="matrix(-1 0 0 1 23.9829 14.6494)" fill="#344054"/>
<rect width="2.08546" height="2.08546" transform="matrix(-1 0 0 1 23.9829 16.7354)" fill="#344054"/>
<rect width="2.08546" height="2.08546" transform="matrix(-1 0 0 1 23.9829 18.8203)" fill="#344054"/>
<rect width="2.08546" height="2.08546" transform="matrix(-1 0 0 1 23.9829 20.9062)" fill="#344054"/>
<rect width="2.08546" height="2.08546" transform="matrix(-1 0 0 1 21.8975 20.9062)" fill="#344054"/>
<rect width="2.08546" height="2.08546" transform="matrix(-1 0 0 1 19.812 20.9062)" fill="#344054"/>
<rect width="2.08546" height="2.08546" transform="matrix(-1 0 0 1 17.7266 20.9062)" fill="#344054"/>
<rect width="2.08546" height="2.08546" transform="matrix(-1 0 0 1 15.6411 20.9062)" fill="#344054"/>
<rect width="2.08546" height="2.08546" transform="matrix(-1 0 0 1 13.5557 20.9062)" fill="#344054"/>
<rect x="7.29932" y="2.13672" width="2.08546" height="2.08546" fill="#344054"/>
<rect x="9.38477" y="2.13672" width="2.08546" height="2.08546" fill="#344054"/>
<rect x="11.4702" y="2.13672" width="2.08546" height="2.08546" fill="#344054"/>
<rect x="13.5557" y="2.13672" width="2.08546" height="2.08546" fill="#344054"/>
<rect x="15.6411" y="2.13672" width="2.08546" height="2.08546" fill="#344054"/>
<rect x="17.7266" y="2.13672" width="2.08546" height="2.08546" fill="#344054"/>
</svg>
