<svg width="26" height="26" viewBox="0 0 26 26" fill="none" xmlns="http://www.w3.org/2000/svg">
<rect x="5.21387" y="5.70088" width="2.08546" height="2.08546" fill="white"/>
<rect x="3.12793" y="7.78635" width="2.08546" height="2.08546" fill="white"/>
<rect x="3.12793" y="9.8718" width="2.08546" height="2.08546" fill="white"/>
<rect x="3.12793" y="11.9573" width="2.08546" height="2.08546" fill="white"/>
<rect x="3.12793" y="14.0427" width="2.08546" height="2.08546" fill="white"/>
<rect x="5.21387" y="16.1282" width="2.08546" height="2.08546" fill="white"/>
<rect x="7.29883" y="18.2136" width="2.08546" height="2.08546" fill="white"/>
<rect x="9.38477" y="20.2991" width="2.08546" height="2.08546" fill="white"/>
<rect x="11.4697" y="22.3846" width="2.08546" height="2.08546" fill="white"/>
<rect x="7.29883" y="3.61543" width="2.08546" height="2.08546" fill="white"/>
<rect x="9.38477" y="1.52997" width="2.08546" height="2.08546" fill="white"/>
<rect x="11.4697" y="1.52997" width="2.08546" height="2.08546" fill="white"/>
<rect width="2.08546" height="2.08546" transform="matrix(-1 0 0 1 19.8115 5.70088)" fill="white"/>
<rect width="2.08546" height="2.08546" transform="matrix(-1 0 0 1 21.8975 7.78635)" fill="white"/>
<rect width="2.08546" height="2.08546" transform="matrix(-1 0 0 1 21.8975 9.8718)" fill="white"/>
<rect width="2.08546" height="2.08546" transform="matrix(-1 0 0 1 21.8975 11.9573)" fill="white"/>
<rect width="2.08546" height="2.08546" transform="matrix(-1 0 0 1 21.8975 14.0427)" fill="white"/>
<rect width="2.08546" height="2.08546" transform="matrix(-1 0 0 1 19.8115 16.1282)" fill="white"/>
<rect width="2.08546" height="2.08546" transform="matrix(-1 0 0 1 17.7266 18.2136)" fill="white"/>
<rect width="2.08546" height="2.08546" transform="matrix(-1 0 0 1 15.6406 20.2991)" fill="white"/>
<rect width="2.08546" height="2.08546" transform="matrix(-1 0 0 1 17.7266 3.61543)" fill="white"/>
<rect width="2.08546" height="2.08546" transform="matrix(-1 0 0 1 15.6406 1.52997)" fill="white"/>
<rect x="11.4697" y="5.70088" width="2.08546" height="2.08546" fill="white"/>
<rect x="9.38477" y="7.78635" width="2.08546" height="2.08546" fill="white"/>
<rect x="7.29883" y="9.8718" width="2.08546" height="2.08546" fill="white"/>
<rect x="9.38477" y="11.9573" width="2.08546" height="2.08546" fill="white"/>
<rect x="9.38477" y="14.0427" width="2.08546" height="2.08546" fill="white"/>
<rect x="13.5557" y="14.0427" width="2.08546" height="2.08546" fill="white"/>
<rect x="11.4697" y="16.1282" width="2.08546" height="2.08546" fill="white"/>
<rect x="13.5557" y="11.9573" width="2.08546" height="2.08546" fill="white"/>
<rect x="15.6406" y="9.8718" width="2.08546" height="2.08546" fill="white"/>
<rect x="13.5557" y="7.78635" width="2.08546" height="2.08546" fill="white"/>
</svg>
