<svg width="26" height="26" viewBox="0 0 26 26" fill="none" xmlns="http://www.w3.org/2000/svg">
<rect x="5.21387" y="5.4012" width="2.08546" height="2.08546" fill="#344054"/>
<rect x="3.12793" y="7.48666" width="2.08546" height="2.08546" fill="#344054"/>
<rect x="3.12793" y="9.57211" width="2.08546" height="2.08546" fill="#344054"/>
<rect x="3.12793" y="11.6576" width="2.08546" height="2.08546" fill="#344054"/>
<rect x="3.12793" y="13.743" width="2.08546" height="2.08546" fill="#344054"/>
<rect x="5.21387" y="15.8285" width="2.08546" height="2.08546" fill="#344054"/>
<rect x="7.29883" y="17.914" width="2.08546" height="2.08546" fill="#344054"/>
<rect x="9.38477" y="19.9994" width="2.08546" height="2.08546" fill="#344054"/>
<rect x="11.4697" y="22.0849" width="2.08546" height="2.08546" fill="#344054"/>
<rect x="7.29883" y="3.31575" width="2.08546" height="2.08546" fill="#344054"/>
<rect x="9.38477" y="1.23029" width="2.08546" height="2.08546" fill="#344054"/>
<rect x="11.4697" y="1.23029" width="2.08546" height="2.08546" fill="#344054"/>
<rect width="2.08546" height="2.08546" transform="matrix(-1 0 0 1 19.8115 5.4012)" fill="#344054"/>
<rect width="2.08546" height="2.08546" transform="matrix(-1 0 0 1 21.8975 7.48666)" fill="#344054"/>
<rect width="2.08546" height="2.08546" transform="matrix(-1 0 0 1 21.8975 9.57211)" fill="#344054"/>
<rect width="2.08546" height="2.08546" transform="matrix(-1 0 0 1 21.8975 11.6576)" fill="#344054"/>
<rect width="2.08546" height="2.08546" transform="matrix(-1 0 0 1 21.8975 13.743)" fill="#344054"/>
<rect width="2.08546" height="2.08546" transform="matrix(-1 0 0 1 19.8115 15.8285)" fill="#344054"/>
<rect width="2.08546" height="2.08546" transform="matrix(-1 0 0 1 17.7266 17.914)" fill="#344054"/>
<rect width="2.08546" height="2.08546" transform="matrix(-1 0 0 1 15.6406 19.9994)" fill="#344054"/>
<rect width="2.08546" height="2.08546" transform="matrix(-1 0 0 1 17.7266 3.31575)" fill="#344054"/>
<rect width="2.08546" height="2.08546" transform="matrix(-1 0 0 1 15.6406 1.23029)" fill="#344054"/>
<rect x="11.4697" y="5.4012" width="2.08546" height="2.08546" fill="#344054"/>
<rect x="9.38477" y="7.48666" width="2.08546" height="2.08546" fill="#344054"/>
<rect x="7.29883" y="9.57211" width="2.08546" height="2.08546" fill="#344054"/>
<rect x="9.38477" y="11.6576" width="2.08546" height="2.08546" fill="#344054"/>
<rect x="9.38477" y="13.743" width="2.08546" height="2.08546" fill="#344054"/>
<rect x="13.5557" y="13.743" width="2.08546" height="2.08546" fill="#344054"/>
<rect x="11.4697" y="15.8285" width="2.08546" height="2.08546" fill="#344054"/>
<rect x="13.5557" y="11.6576" width="2.08546" height="2.08546" fill="#344054"/>
<rect x="15.6406" y="9.57211" width="2.08546" height="2.08546" fill="#344054"/>
<rect x="13.5557" y="7.48666" width="2.08546" height="2.08546" fill="#344054"/>
</svg>
