<svg width="26" height="26" viewBox="0 0 26 26" fill="none" xmlns="http://www.w3.org/2000/svg">
<rect x="3.12793" y="4.1709" width="2.08546" height="2.08546" fill="#344054"/>
<rect x="1.04297" y="6.25635" width="2.08546" height="2.08546" fill="#344054"/>
<rect x="1.04297" y="8.34186" width="2.08546" height="2.08546" fill="#344054"/>
<rect x="1.04297" y="10.4273" width="2.08546" height="2.08546" fill="#344054"/>
<rect x="3.12793" y="12.5128" width="2.08546" height="2.08546" fill="#344054"/>
<rect x="5.21387" y="14.5982" width="2.08546" height="2.08546" fill="#344054"/>
<rect x="7.29883" y="16.6837" width="2.08546" height="2.08546" fill="#344054"/>
<rect x="9.38477" y="18.7691" width="2.08546" height="2.08546" fill="#344054"/>
<rect x="11.4697" y="20.8546" width="2.08546" height="2.08546" fill="#344054"/>
<rect x="5.21387" y="2.08545" width="2.08546" height="2.08546" fill="#344054"/>
<rect x="7.29883" y="2.08545" width="2.08546" height="2.08546" fill="#344054"/>
<rect x="9.38477" y="4.1709" width="2.08546" height="2.08546" fill="#344054"/>
<rect x="11.4697" y="6.25635" width="2.08546" height="2.08546" fill="#344054"/>
<rect width="2.08546" height="2.08546" transform="matrix(-1 0 0 1 21.8975 4.1709)" fill="#344054"/>
<rect width="2.08546" height="2.08546" transform="matrix(-1 0 0 1 23.9834 6.25635)" fill="#344054"/>
<rect width="2.08546" height="2.08546" transform="matrix(-1 0 0 1 23.9834 8.3418)" fill="#344054"/>
<rect width="2.08546" height="2.08546" transform="matrix(-1 0 0 1 23.9834 10.4273)" fill="#344054"/>
<rect width="2.08546" height="2.08546" transform="matrix(-1 0 0 1 21.8975 12.5128)" fill="#344054"/>
<rect width="2.08546" height="2.08546" transform="matrix(-1 0 0 1 19.8125 14.5982)" fill="#344054"/>
<rect width="2.08546" height="2.08546" transform="matrix(-1 0 0 1 17.7266 16.6837)" fill="#344054"/>
<rect width="2.08546" height="2.08546" transform="matrix(-1 0 0 1 15.6416 18.7691)" fill="#344054"/>
<rect width="2.08546" height="2.08546" transform="matrix(-1 0 0 1 13.5557 20.8546)" fill="#344054"/>
<rect width="2.08546" height="2.08546" transform="matrix(-1 0 0 1 19.8125 2.08545)" fill="#344054"/>
<rect width="2.08546" height="2.08546" transform="matrix(-1 0 0 1 17.7266 2.08545)" fill="#344054"/>
<rect width="2.08546" height="2.08546" transform="matrix(-1 0 0 1 15.6416 4.1709)" fill="#344054"/>
<rect width="2.08546" height="2.08546" transform="matrix(-1 0 0 1 13.5557 6.25635)" fill="#344054"/>
</svg>
