<svg width="22" height="20" viewBox="0 0 22 20" fill="none" xmlns="http://www.w3.org/2000/svg">
<path fill-rule="evenodd" clip-rule="evenodd" d="M12.3954 1.90745C11.723 2.33877 11.3868 2.55443 11.2184 2.59351C10.9919 2.64606 10.9924 2.64606 10.766 2.59342C10.5976 2.55428 10.2619 2.33878 9.59055 1.90778C7.64163 0.656623 5.13827 0.6152 3.15469 2.31001C0.649644 4.45038 0.296968 8.02898 2.2642 10.5604C3.89982 12.6651 8.84977 17.1041 10.4721 18.5408C10.6536 18.7016 10.7444 18.7819 10.8502 18.8135C10.9426 18.8411 11.0437 18.8411 11.1361 18.8135C11.2419 18.7819 11.3327 18.7016 11.5142 18.5408C13.1365 17.1041 18.0865 12.6651 19.7221 10.5604C21.6893 8.02898 21.3797 4.42787 18.8316 2.31001C16.8154 0.634217 14.334 0.664002 12.3954 1.90745Z" stroke="#667085" stroke-width="2" stroke-linecap="round" stroke-linejoin="round"/>
</svg>
