<svg width="26" height="26" viewBox="0 0 26 26" fill="none" xmlns="http://www.w3.org/2000/svg">
<rect x="6.25684" y="2.57269" width="2.08546" height="2.08546" fill="white"/>
<rect x="8.34277" y="2.57269" width="2.08546" height="2.08546" fill="white"/>
<rect x="6.25684" y="4.65814" width="2.08546" height="2.08546" fill="white"/>
<rect x="6.25684" y="6.74359" width="2.08546" height="2.08546" fill="white"/>
<rect x="6.25684" y="8.82904" width="2.08546" height="2.08546" fill="white"/>
<rect x="6.25684" y="10.9146" width="2.08546" height="2.08546" fill="white"/>
<rect x="6.25684" y="13" width="2.08546" height="2.08546" fill="white"/>
<rect x="6.25684" y="15.0854" width="2.08546" height="2.08546" fill="white"/>
<rect x="6.25684" y="17.1709" width="2.08546" height="2.08546" fill="white"/>
<rect x="6.25684" y="19.2563" width="2.08546" height="2.08546" fill="white"/>
<rect x="10.4277" y="4.65814" width="2.08546" height="2.08546" fill="white"/>
<rect x="12.5137" y="6.74359" width="2.08546" height="2.08546" fill="white"/>
<rect x="14.5986" y="8.82904" width="2.08546" height="2.08546" fill="white"/>
<rect x="16.6846" y="10.9146" width="2.08546" height="2.08546" fill="white"/>
<rect x="16.6846" y="13" width="2.08546" height="2.08546" fill="white"/>
<rect x="14.5986" y="15.0854" width="2.08546" height="2.08546" fill="white"/>
<rect x="12.5137" y="17.1709" width="2.08546" height="2.08546" fill="white"/>
<rect x="10.4277" y="19.2563" width="2.08546" height="2.08546" fill="white"/>
<rect x="8.34277" y="21.3418" width="2.08546" height="2.08546" fill="white"/>
<rect x="6.25684" y="21.3418" width="2.08546" height="2.08546" fill="white"/>
</svg>
