<svg width="26" height="26" viewBox="0 0 26 26" fill="none" xmlns="http://www.w3.org/2000/svg">
<rect x="6.25684" y="2.11096" width="2.08546" height="2.08546" fill="#344054"/>
<rect x="8.34277" y="2.11096" width="2.08546" height="2.08546" fill="#344054"/>
<rect x="6.25684" y="4.19641" width="2.08546" height="2.08546" fill="#344054"/>
<rect x="6.25684" y="6.28186" width="2.08546" height="2.08546" fill="#344054"/>
<rect x="6.25684" y="8.36731" width="2.08546" height="2.08546" fill="#344054"/>
<rect x="6.25684" y="10.4528" width="2.08546" height="2.08546" fill="#344054"/>
<rect x="6.25684" y="12.5383" width="2.08546" height="2.08546" fill="#344054"/>
<rect x="6.25684" y="14.6237" width="2.08546" height="2.08546" fill="#344054"/>
<rect x="6.25684" y="16.7092" width="2.08546" height="2.08546" fill="#344054"/>
<rect x="6.25684" y="18.7946" width="2.08546" height="2.08546" fill="#344054"/>
<rect x="10.4277" y="4.19641" width="2.08546" height="2.08546" fill="#344054"/>
<rect x="12.5137" y="6.28186" width="2.08546" height="2.08546" fill="#344054"/>
<rect x="14.5986" y="8.36731" width="2.08546" height="2.08546" fill="#344054"/>
<rect x="16.6846" y="10.4528" width="2.08546" height="2.08546" fill="#344054"/>
<rect x="16.6846" y="12.5383" width="2.08546" height="2.08546" fill="#344054"/>
<rect x="14.5986" y="14.6237" width="2.08546" height="2.08546" fill="#344054"/>
<rect x="12.5137" y="16.7092" width="2.08546" height="2.08546" fill="#344054"/>
<rect x="10.4277" y="18.7946" width="2.08546" height="2.08546" fill="#344054"/>
<rect x="8.34277" y="20.8801" width="2.08546" height="2.08546" fill="#344054"/>
<rect x="6.25684" y="20.8801" width="2.08546" height="2.08546" fill="#344054"/>
</svg>
