<svg width="30" height="31" viewBox="0 0 30 31" fill="none" xmlns="http://www.w3.org/2000/svg">
<g filter="url(#filter0_d_5420_378936)">
<path d="M5 12.0001L14.6422 16.8212C14.7734 16.8868 14.839 16.9196 14.9078 16.9325C14.9687 16.9439 15.0313 16.9439 15.0922 16.9325C15.161 16.9196 15.2266 16.8868 15.3578 16.8212L25 12.0001M5 17.0001L14.6422 21.8212C14.7734 21.8868 14.839 21.9196 14.9078 21.9325C14.9687 21.9439 15.0313 21.9439 15.0922 21.9325C15.161 21.9196 15.2266 21.8868 15.3578 21.8212L25 17.0001M5 7.00006L14.6422 2.17895C14.7734 2.11336 14.839 2.08056 14.9078 2.06766C14.9687 2.05622 15.0313 2.05622 15.0922 2.06766C15.161 2.08056 15.2266 2.11336 15.3578 2.17895L25 7.00006L15.3578 11.8212C15.2266 11.8868 15.161 11.9196 15.0922 11.9325C15.0313 11.9439 14.9687 11.9439 14.9078 11.9325C14.839 11.9196 14.7734 11.8868 14.6422 11.8212L5 7.00006Z" stroke="#667085" stroke-width="2" stroke-linecap="round" stroke-linejoin="round"/>
</g>
<defs>
<filter id="filter0_d_5420_378936" x="-1" y="0" width="32" height="32" filterUnits="userSpaceOnUse" color-interpolation-filters="sRGB">
<feFlood flood-opacity="0" result="BackgroundImageFix"/>
<feColorMatrix in="SourceAlpha" type="matrix" values="0 0 0 0 0 0 0 0 0 0 0 0 0 0 0 0 0 0 127 0" result="hardAlpha"/>
<feOffset dy="4"/>
<feGaussianBlur stdDeviation="2"/>
<feComposite in2="hardAlpha" operator="out"/>
<feColorMatrix type="matrix" values="0 0 0 0 0 0 0 0 0 0 0 0 0 0 0 0 0 0 0.25 0"/>
<feBlend mode="normal" in2="BackgroundImageFix" result="effect1_dropShadow_5420_378936"/>
<feBlend mode="normal" in="SourceGraphic" in2="effect1_dropShadow_5420_378936" result="shape"/>
</filter>
</defs>
</svg>
