<svg width="25" height="25" viewBox="0 0 25 25" fill="none" xmlns="http://www.w3.org/2000/svg">
<rect x="6.54199" y="22.7917" width="2.16667" height="2.16667" fill="#344054"/>
<rect x="8.70898" y="22.7917" width="2.16667" height="2.16667" fill="#344054"/>
<rect x="10.875" y="22.7917" width="2.16667" height="2.16667" fill="#344054"/>
<rect x="13.042" y="22.7917" width="2.16667" height="2.16667" fill="#344054"/>
<rect x="15.209" y="22.7917" width="2.16667" height="2.16667" fill="#344054"/>
<rect x="17.375" y="22.7917" width="2.16667" height="2.16667" fill="#344054"/>
<rect x="19.542" y="22.7917" width="2.16667" height="2.16667" fill="#344054"/>
<rect x="10.875" y="5.45834" width="2.16667" height="2.16667" fill="#344054"/>
<rect x="5.45898" y="2.20834" width="2.16667" height="2.16667" fill="#344054"/>
<rect x="7.625" y="2.20834" width="2.16667" height="2.16667" fill="#344054"/>
<rect x="5.45898" y="0.0416718" width="2.16667" height="2.16667" fill="#344054"/>
<rect x="5.45898" y="4.375" width="2.16667" height="2.16667" fill="#344054"/>
<rect x="3.29199" y="2.20834" width="2.16667" height="2.16667" fill="#344054"/>
<rect x="10.875" y="9.79167" width="2.16667" height="2.16667" fill="#344054"/>
<rect x="10.875" y="7.625" width="2.16667" height="2.16667" fill="#344054"/>
<rect x="13.042" y="5.45834" width="2.16667" height="2.16667" fill="#344054"/>
<rect x="13.042" y="9.79167" width="2.16667" height="2.16667" fill="#344054"/>
<rect x="6.54199" y="20.625" width="2.16667" height="2.16667" fill="#344054"/>
<rect width="2.16667" height="2.16667" transform="matrix(-1 0 0 1 21.709 20.625)" fill="#344054"/>
<rect x="6.54199" y="18.4583" width="2.16667" height="2.16667" fill="#344054"/>
<rect width="2.16667" height="2.16667" transform="matrix(-1 0 0 1 21.709 18.4583)" fill="#344054"/>
<rect x="8.70898" y="16.2917" width="2.16667" height="2.16667" fill="#344054"/>
<rect x="6.54199" y="16.2917" width="2.16667" height="2.16667" fill="#344054"/>
<rect x="8.70898" y="14.125" width="2.16667" height="2.16667" fill="#344054"/>
<rect x="17.375" y="14.125" width="2.16667" height="2.16667" fill="#344054"/>
<rect x="19.542" y="16.2917" width="2.16667" height="2.16667" fill="#344054"/>
<rect width="2.16667" height="2.16667" transform="matrix(-1 0 0 1 19.542 16.2917)" fill="#344054"/>
<rect x="10.875" y="14.125" width="2.16667" height="2.16667" fill="#344054"/>
<rect width="2.16667" height="2.16667" transform="matrix(-1 0 0 1 17.375 14.125)" fill="#344054"/>
<rect x="13.042" y="14.125" width="2.16667" height="2.16667" fill="#344054"/>
<rect x="15.209" y="5.45834" width="2.16667" height="2.16667" fill="#344054"/>
<rect x="15.209" y="9.79167" width="2.16667" height="2.16667" fill="#344054"/>
<rect x="15.209" y="7.625" width="2.16667" height="2.16667" fill="#344054"/>
</svg>
