<svg width="26" height="26" viewBox="0 0 26 26" fill="none" xmlns="http://www.w3.org/2000/svg">
<rect x="2.09766" y="6.39703" width="2.08334" height="2.08334" fill="#344054"/>
<rect width="2.08334" height="2.08334" transform="matrix(-1 0 0 1 22.9316 6.39703)" fill="#344054"/>
<rect x="0.0146484" y="8.48038" width="2.08334" height="2.08334" fill="#344054"/>
<rect width="2.08334" height="2.08334" transform="matrix(-1 0 0 1 25.0146 8.48038)" fill="#344054"/>
<rect x="2.09766" y="10.5637" width="2.08334" height="2.08334" fill="#344054"/>
<rect width="2.08334" height="2.08334" transform="matrix(-1 0 0 1 22.9316 10.5637)" fill="#344054"/>
<rect x="2.09766" y="12.6471" width="2.08334" height="2.08334" fill="#344054"/>
<rect width="2.08334" height="2.08334" transform="matrix(-1 0 0 1 22.9316 12.6471)" fill="#344054"/>
<rect x="0.0146484" y="14.7304" width="2.08334" height="2.08334" fill="#344054"/>
<rect width="2.08334" height="2.08334" transform="matrix(-1 0 0 1 25.0146 14.7304)" fill="#344054"/>
<rect x="2.09766" y="16.8138" width="2.08334" height="2.08334" fill="#344054"/>
<rect width="2.08334" height="2.08334" transform="matrix(-1 0 0 1 22.9316 16.8138)" fill="#344054"/>
<rect x="4.18164" y="18.8971" width="2.08334" height="2.08334" fill="#344054"/>
<rect width="2.08334" height="2.08334" transform="matrix(-1 0 0 1 20.8477 18.8971)" fill="#344054"/>
<rect width="2.08334" height="2.08334" transform="matrix(-1 0 0 1 22.9316 20.9804)" fill="#344054"/>
<rect x="6.26465" y="20.9804" width="2.08334" height="2.08334" fill="#344054"/>
<rect x="2.09766" y="20.9804" width="2.08334" height="2.08334" fill="#344054"/>
<rect width="2.08334" height="2.08334" transform="matrix(-1 0 0 1 18.7646 20.9804)" fill="#344054"/>
<rect x="8.34766" y="23.0638" width="2.08334" height="2.08334" fill="#344054"/>
<rect width="2.08334" height="2.08334" transform="matrix(-1 0 0 1 16.6816 23.0638)" fill="#344054"/>
<rect x="10.4316" y="20.9804" width="2.08334" height="2.08334" fill="#344054"/>
<rect width="2.08334" height="2.08334" transform="matrix(-1 0 0 1 14.5977 20.9804)" fill="#344054"/>
<rect x="4.18164" y="4.31369" width="2.08334" height="2.08334" fill="#344054"/>
<rect x="2.09766" y="2.23035" width="2.08334" height="2.08334" fill="#344054"/>
<rect width="2.08334" height="2.08334" transform="matrix(-1 0 0 1 20.8477 4.31369)" fill="#344054"/>
<rect width="2.08334" height="2.08334" transform="matrix(-1 0 0 1 22.9316 2.23035)" fill="#344054"/>
<rect x="6.26465" y="2.23035" width="2.08334" height="2.08334" fill="#344054"/>
<rect width="2.08334" height="2.08334" transform="matrix(-1 0 0 1 18.7646 2.23035)" fill="#344054"/>
<rect x="8.34766" y="0.147003" width="2.08334" height="2.08334" fill="#344054"/>
<rect x="8.34766" y="4.31369" width="2.08334" height="2.08334" fill="#344054"/>
<rect x="8.34766" y="18.8971" width="2.08334" height="2.08334" fill="#344054"/>
<rect x="18.7646" y="8.48038" width="2.08334" height="2.08334" fill="#344054"/>
<rect x="10.4316" y="8.48038" width="2.08334" height="2.08334" fill="#344054"/>
<rect x="12.5146" y="8.48038" width="2.08334" height="2.08334" fill="#344054"/>
<rect x="14.5977" y="10.5637" width="2.08334" height="2.08334" fill="#344054"/>
<rect x="8.34766" y="10.5637" width="2.08334" height="2.08334" fill="#344054"/>
<rect x="14.5977" y="12.6471" width="2.08334" height="2.08334" fill="#344054"/>
<rect x="8.34766" y="12.6471" width="2.08334" height="2.08334" fill="#344054"/>
<rect x="12.5146" y="14.7304" width="2.08334" height="2.08334" fill="#344054"/>
<rect x="10.4316" y="14.7304" width="2.08334" height="2.08334" fill="#344054"/>
<rect width="2.08334" height="2.08334" transform="matrix(1 0 0 -1 18.7646 16.8138)" fill="#344054"/>
<rect x="4.18164" y="8.48038" width="2.08334" height="2.08334" fill="#344054"/>
<rect x="4.18164" y="14.7304" width="2.08334" height="2.08334" fill="#344054"/>
<rect width="2.08334" height="2.08334" transform="matrix(-1 0 0 1 16.6816 0.147003)" fill="#344054"/>
<rect width="2.08334" height="2.08334" transform="matrix(-1 0 0 1 16.6816 4.31369)" fill="#344054"/>
<rect x="16.6816" y="20.9804" width="2.08334" height="2.08334" transform="rotate(180 16.6816 20.9804)" fill="#344054"/>
<rect x="10.4316" y="2.23035" width="2.08334" height="2.08334" fill="#344054"/>
<rect width="2.08334" height="2.08334" transform="matrix(-1 0 0 1 14.5977 2.23035)" fill="#344054"/>
</svg>
