<svg width="26" height="26" viewBox="0 0 26 26" fill="none" xmlns="http://www.w3.org/2000/svg">
<rect x="2.09766" y="6.74997" width="2.08334" height="2.08334" fill="white"/>
<rect width="2.08334" height="2.08334" transform="matrix(-1 0 0 1 22.9316 6.74997)" fill="white"/>
<rect x="0.0146484" y="8.83331" width="2.08334" height="2.08334" fill="white"/>
<rect width="2.08334" height="2.08334" transform="matrix(-1 0 0 1 25.0146 8.83331)" fill="white"/>
<rect x="2.09766" y="10.9167" width="2.08334" height="2.08334" fill="white"/>
<rect width="2.08334" height="2.08334" transform="matrix(-1 0 0 1 22.9316 10.9167)" fill="white"/>
<rect x="2.09766" y="13" width="2.08334" height="2.08334" fill="white"/>
<rect width="2.08334" height="2.08334" transform="matrix(-1 0 0 1 22.9316 13)" fill="white"/>
<rect x="0.0146484" y="15.0833" width="2.08334" height="2.08334" fill="white"/>
<rect width="2.08334" height="2.08334" transform="matrix(-1 0 0 1 25.0146 15.0833)" fill="white"/>
<rect x="2.09766" y="17.1667" width="2.08334" height="2.08334" fill="white"/>
<rect width="2.08334" height="2.08334" transform="matrix(-1 0 0 1 22.9316 17.1667)" fill="white"/>
<rect x="4.18164" y="19.25" width="2.08334" height="2.08334" fill="white"/>
<rect width="2.08334" height="2.08334" transform="matrix(-1 0 0 1 20.8477 19.25)" fill="white"/>
<rect width="2.08334" height="2.08334" transform="matrix(-1 0 0 1 22.9316 21.3334)" fill="white"/>
<rect x="6.26465" y="21.3334" width="2.08334" height="2.08334" fill="white"/>
<rect x="2.09766" y="21.3334" width="2.08334" height="2.08334" fill="white"/>
<rect width="2.08334" height="2.08334" transform="matrix(-1 0 0 1 18.7646 21.3334)" fill="white"/>
<rect x="8.34766" y="23.4167" width="2.08334" height="2.08334" fill="white"/>
<rect width="2.08334" height="2.08334" transform="matrix(-1 0 0 1 16.6816 23.4167)" fill="white"/>
<rect x="10.4316" y="21.3334" width="2.08334" height="2.08334" fill="white"/>
<rect width="2.08334" height="2.08334" transform="matrix(-1 0 0 1 14.5977 21.3334)" fill="white"/>
<rect x="4.18164" y="4.66663" width="2.08334" height="2.08334" fill="white"/>
<rect x="2.09766" y="2.58328" width="2.08334" height="2.08334" fill="white"/>
<rect width="2.08334" height="2.08334" transform="matrix(-1 0 0 1 20.8477 4.66663)" fill="white"/>
<rect width="2.08334" height="2.08334" transform="matrix(-1 0 0 1 22.9316 2.58328)" fill="white"/>
<rect x="6.26465" y="2.58328" width="2.08334" height="2.08334" fill="white"/>
<rect width="2.08334" height="2.08334" transform="matrix(-1 0 0 1 18.7646 2.58328)" fill="white"/>
<rect x="8.34766" y="0.499939" width="2.08334" height="2.08334" fill="white"/>
<rect x="8.34766" y="4.66663" width="2.08334" height="2.08334" fill="white"/>
<rect x="8.34766" y="19.25" width="2.08334" height="2.08334" fill="white"/>
<rect x="18.7646" y="8.83331" width="2.08334" height="2.08334" fill="white"/>
<rect x="10.4316" y="8.83331" width="2.08334" height="2.08334" fill="white"/>
<rect x="12.5146" y="8.83331" width="2.08334" height="2.08334" fill="white"/>
<rect x="14.5977" y="10.9167" width="2.08334" height="2.08334" fill="white"/>
<rect x="8.34766" y="10.9167" width="2.08334" height="2.08334" fill="white"/>
<rect x="14.5977" y="13" width="2.08334" height="2.08334" fill="white"/>
<rect x="8.34766" y="13" width="2.08334" height="2.08334" fill="white"/>
<rect x="12.5146" y="15.0833" width="2.08334" height="2.08334" fill="white"/>
<rect x="10.4316" y="15.0833" width="2.08334" height="2.08334" fill="white"/>
<rect width="2.08334" height="2.08334" transform="matrix(1 0 0 -1 18.7646 17.1667)" fill="white"/>
<rect x="4.18164" y="8.83331" width="2.08334" height="2.08334" fill="white"/>
<rect x="4.18164" y="15.0833" width="2.08334" height="2.08334" fill="white"/>
<rect width="2.08334" height="2.08334" transform="matrix(-1 0 0 1 16.6816 0.499939)" fill="white"/>
<rect width="2.08334" height="2.08334" transform="matrix(-1 0 0 1 16.6816 4.66663)" fill="white"/>
<rect x="16.6816" y="21.3334" width="2.08334" height="2.08334" transform="rotate(180 16.6816 21.3334)" fill="white"/>
<rect x="10.4316" y="2.58328" width="2.08334" height="2.08334" fill="white"/>
<rect width="2.08334" height="2.08334" transform="matrix(-1 0 0 1 14.5977 2.58328)" fill="white"/>
</svg>
