<svg width="26" height="26" viewBox="0 0 26 26" fill="none" xmlns="http://www.w3.org/2000/svg">
<rect x="5.21387" y="3.34125" width="2.08546" height="2.08546" fill="#344054"/>
<rect x="5.21387" y="5.4267" width="2.08546" height="2.08546" fill="#344054"/>
<rect x="5.21387" y="7.51216" width="2.08546" height="2.08546" fill="#344054"/>
<rect x="5.21387" y="9.59763" width="2.08546" height="2.08546" fill="#344054"/>
<rect x="5.21387" y="11.6831" width="2.08546" height="2.08546" fill="#344054"/>
<rect x="5.21387" y="13.7685" width="2.08546" height="2.08546" fill="#344054"/>
<rect x="11.4697" y="13.7685" width="2.08546" height="2.08546" fill="#344054"/>
<rect x="7.29883" y="13.7685" width="2.08546" height="2.08546" fill="#344054"/>
<rect x="15.6406" y="13.7685" width="2.08546" height="2.08546" fill="#344054"/>
<rect x="5.21387" y="15.854" width="2.08546" height="2.08546" fill="#344054"/>
<rect x="5.21387" y="17.9395" width="2.08546" height="2.08546" fill="#344054"/>
<rect x="5.21387" y="20.0249" width="2.08546" height="2.08546" fill="#344054"/>
<rect x="5.21387" y="22.1104" width="2.08546" height="2.08546" fill="#344054"/>
<rect x="7.29883" y="22.1104" width="2.08546" height="2.08546" fill="#344054"/>
<rect x="9.38477" y="22.1104" width="2.08546" height="2.08546" fill="#344054"/>
<rect x="11.4697" y="17.9395" width="2.08546" height="2.08546" fill="#344054"/>
<rect x="13.5557" y="17.9395" width="2.08546" height="2.08546" fill="#344054"/>
<rect x="11.4697" y="17.9395" width="2.08546" height="2.08546" fill="#344054"/>
<rect x="9.38477" y="20.0249" width="2.08546" height="2.08546" fill="#344054"/>
<rect x="9.38477" y="17.9395" width="2.08546" height="2.08546" fill="#344054"/>
<rect x="13.5557" y="20.0249" width="2.08546" height="2.08546" fill="#344054"/>
<rect x="13.5557" y="22.1104" width="2.08546" height="2.08546" fill="#344054"/>
<rect x="15.6406" y="22.1104" width="2.08546" height="2.08546" fill="#344054"/>
<rect x="17.7266" y="20.0249" width="2.08546" height="2.08546" fill="#344054"/>
<rect x="17.7266" y="22.1104" width="2.08546" height="2.08546" fill="#344054"/>
<rect x="17.7266" y="17.9395" width="2.08546" height="2.08546" fill="#344054"/>
<rect x="17.7266" y="15.854" width="2.08546" height="2.08546" fill="#344054"/>
<rect x="17.7266" y="13.7685" width="2.08546" height="2.08546" fill="#344054"/>
<rect x="17.7266" y="11.6831" width="2.08546" height="2.08546" fill="#344054"/>
<rect x="17.7266" y="9.59763" width="2.08546" height="2.08546" fill="#344054"/>
<rect x="17.7266" y="7.51216" width="2.08546" height="2.08546" fill="#344054"/>
<rect x="17.7266" y="5.4267" width="2.08546" height="2.08546" fill="#344054"/>
<rect x="17.7266" y="3.34125" width="2.08546" height="2.08546" fill="#344054"/>
<rect x="15.6406" y="1.25578" width="2.08546" height="2.08546" fill="#344054"/>
<rect x="17.7266" y="1.25578" width="2.08546" height="2.08546" fill="#344054"/>
<rect x="13.5557" y="3.34125" width="2.08546" height="2.08546" fill="#344054"/>
<rect x="13.5557" y="1.25578" width="2.08546" height="2.08546" fill="#344054"/>
<rect x="11.4697" y="5.4267" width="2.08546" height="2.08546" fill="#344054"/>
<rect x="13.5557" y="5.4267" width="2.08546" height="2.08546" fill="#344054"/>
<rect x="7.29883" y="1.25578" width="2.08546" height="2.08546" fill="#344054"/>
<rect x="5.21387" y="1.25578" width="2.08546" height="2.08546" fill="#344054"/>
<rect x="9.38477" y="3.34125" width="2.08546" height="2.08546" fill="#344054"/>
<rect x="9.38477" y="5.4267" width="2.08546" height="2.08546" fill="#344054"/>
<rect x="9.38477" y="1.25578" width="2.08546" height="2.08546" fill="#344054"/>
<rect x="11.4697" y="5.4267" width="2.08546" height="2.08546" fill="#344054"/>
</svg>
