<svg width="25" height="21" viewBox="0 0 25 21" fill="none" xmlns="http://www.w3.org/2000/svg">
<g id="Group 56">
<rect id="Rectangle 4401" x="4.16699" y="0.108826" width="2.08333" height="2.08333" fill="#344054"/>
<rect id="Rectangle 4421" x="4.16699" y="18.8588" width="2.08333" height="2.08333" fill="#344054"/>
<rect id="Rectangle 4402" x="6.25" y="0.108826" width="2.08333" height="2.08333" fill="#344054"/>
<rect id="Rectangle 4422" x="6.25" y="18.8588" width="2.08333" height="2.08333" fill="#344054"/>
<rect id="Rectangle 4403" x="8.33301" y="0.108826" width="2.08333" height="2.08333" fill="#344054"/>
<rect id="Rectangle 4469" x="7.29199" y="2.19214" width="2.08333" height="2.08333" fill="#344054"/>
<rect id="Rectangle 4473" x="7.29199" y="4.27551" width="2.08333" height="2.08333" fill="#344054"/>
<rect id="Rectangle 4423" x="8.33301" y="18.8588" width="2.08333" height="2.08333" fill="#344054"/>
<rect id="Rectangle 4404" x="10.417" y="0.108826" width="2.08333" height="2.08333" fill="#344054"/>
<rect id="Rectangle 4424" x="10.417" y="18.8588" width="2.08333" height="2.08333" fill="#344054"/>
<rect id="Rectangle 4405" x="10.417" y="0.108826" width="2.08333" height="2.08333" fill="#344054"/>
<rect id="Rectangle 4425" x="10.417" y="18.8588" width="2.08333" height="2.08333" fill="#344054"/>
<rect id="Rectangle 4406" x="12.5" y="0.108826" width="2.08333" height="2.08333" fill="#344054"/>
<rect id="Rectangle 4426" x="12.5" y="18.8588" width="2.08333" height="2.08333" fill="#344054"/>
<rect id="Rectangle 4407" x="12.5" y="0.108826" width="2.08333" height="2.08333" fill="#344054"/>
<rect id="Rectangle 4427" x="12.5" y="18.8588" width="2.08333" height="2.08333" fill="#344054"/>
<rect id="Rectangle 4408" x="14.583" y="0.108826" width="2.08333" height="2.08333" fill="#344054"/>
<rect id="Rectangle 4428" x="14.583" y="18.8588" width="2.08333" height="2.08333" fill="#344054"/>
<rect id="Rectangle 4409" x="14.583" y="0.108826" width="2.08333" height="2.08333" fill="#344054"/>
<rect id="Rectangle 4472" x="15.625" y="2.19214" width="2.08333" height="2.08333" fill="#344054"/>
<rect id="Rectangle 4474" x="15.625" y="4.27551" width="2.08333" height="2.08333" fill="#344054"/>
<rect id="Rectangle 4452" x="16.667" y="0.108826" width="2.08333" height="2.08333" fill="#344054"/>
<rect id="Rectangle 4454" x="18.75" y="0.108826" width="2.08333" height="2.08333" fill="#344054"/>
<rect id="Rectangle 4429" x="14.583" y="18.8588" width="2.08333" height="2.08333" fill="#344054"/>
<rect id="Rectangle 4453" x="16.667" y="18.8588" width="2.08333" height="2.08333" fill="#344054"/>
<rect id="Rectangle 4455" x="18.75" y="18.8588" width="2.08333" height="2.08333" fill="#344054"/>
<rect id="Rectangle 4391" x="2.08301" y="2.19214" width="2.08333" height="2.08333" fill="#344054"/>
<rect id="Rectangle 4411" x="20.833" y="2.19214" width="2.08333" height="2.08333" fill="#344054"/>
<rect id="Rectangle 4392" x="2.08301" y="4.27551" width="2.08333" height="2.08333" fill="#344054"/>
<rect id="Rectangle 4412" x="20.833" y="4.27551" width="2.08333" height="2.08333" fill="#344054"/>
<rect id="Rectangle 4393" x="2.08301" y="6.35883" width="2.08333" height="2.08333" fill="#344054"/>
<rect id="Rectangle 4413" x="20.833" y="6.35883" width="2.08333" height="2.08333" fill="#344054"/>
<rect id="Rectangle 4394" x="2.08301" y="8.44214" width="2.08333" height="2.08333" fill="#344054"/>
<rect id="Rectangle 4414" x="20.833" y="8.44214" width="2.08333" height="2.08333" fill="#344054"/>
<rect id="Rectangle 4395" x="2.08301" y="10.5255" width="2.08333" height="2.08333" fill="#344054"/>
<rect id="Rectangle 4451" y="10.5255" width="2.08333" height="2.08333" fill="#344054"/>
<rect id="Rectangle 4470" y="8.44214" width="2.08333" height="2.08333" fill="#344054"/>
<rect id="Rectangle 4456" x="4.16699" y="10.5255" width="2.08333" height="2.08333" fill="#344054"/>
<rect id="Rectangle 4457" x="6.25" y="10.5255" width="2.08333" height="2.08333" fill="#344054"/>
<rect id="Rectangle 4458" x="8.33301" y="10.5255" width="2.08333" height="2.08333" fill="#344054"/>
<rect id="Rectangle 4459" x="10.417" y="10.5255" width="2.08333" height="2.08333" fill="#344054"/>
<rect id="Rectangle 4462" x="12.5" y="10.5255" width="2.08333" height="2.08333" fill="#344054"/>
<rect id="Rectangle 4463" x="14.583" y="10.5255" width="2.08333" height="2.08333" fill="#344054"/>
<rect id="Rectangle 4464" x="14.583" y="10.5255" width="2.08333" height="2.08333" fill="#344054"/>
<rect id="Rectangle 4465" x="16.667" y="10.5255" width="2.08333" height="2.08333" fill="#344054"/>
<rect id="Rectangle 4466" x="18.75" y="10.5255" width="2.08333" height="2.08333" fill="#344054"/>
<rect id="Rectangle 4467" x="20.833" y="10.5255" width="2.08333" height="2.08333" fill="#344054"/>
<rect id="Rectangle 4468" x="22.917" y="10.5255" width="2.08333" height="2.08333" fill="#344054"/>
<rect id="Rectangle 4471" x="22.917" y="8.44214" width="2.08333" height="2.08333" fill="#344054"/>
<rect id="Rectangle 4415" x="20.833" y="10.5255" width="2.08333" height="2.08333" fill="#344054"/>
<rect id="Rectangle 4430" x="10.417" y="8.44214" width="2.08333" height="2.08333" fill="#344054"/>
<rect id="Rectangle 4435" x="10.417" y="12.6088" width="2.08333" height="2.08333" fill="#344054"/>
<rect id="Rectangle 4434" x="10.417" y="10.5255" width="2.08333" height="2.08333" fill="#344054"/>
<rect id="Rectangle 4431" x="12.5" y="8.44214" width="2.08333" height="2.08333" fill="#344054"/>
<rect id="Rectangle 4436" x="12.5" y="12.6088" width="2.08333" height="2.08333" fill="#344054"/>
<rect id="Rectangle 4432" x="12.5" y="8.44214" width="2.08333" height="2.08333" fill="#344054"/>
<rect id="Rectangle 4437" x="12.5" y="12.6088" width="2.08333" height="2.08333" fill="#344054"/>
<rect id="Rectangle 4396" x="2.08301" y="12.6088" width="2.08333" height="2.08333" fill="#344054"/>
<rect id="Rectangle 4416" x="20.833" y="12.6088" width="2.08333" height="2.08333" fill="#344054"/>
<rect id="Rectangle 4397" x="2.08301" y="14.6921" width="2.08333" height="2.08333" fill="#344054"/>
<rect id="Rectangle 4417" x="20.833" y="14.6921" width="2.08333" height="2.08333" fill="#344054"/>
<rect id="Rectangle 4398" x="2.08301" y="16.7755" width="2.08333" height="2.08333" fill="#344054"/>
<rect id="Rectangle 4418" x="20.833" y="16.7755" width="2.08333" height="2.08333" fill="#344054"/>
<rect id="Rectangle 4399" x="2.08301" y="16.7755" width="2.08333" height="2.08333" fill="#344054"/>
<rect id="Rectangle 4419" x="20.833" y="16.7755" width="2.08333" height="2.08333" fill="#344054"/>
</g>
</svg>
