<svg width="26" height="26" viewBox="0 0 26 26" fill="none" xmlns="http://www.w3.org/2000/svg">
<rect x="5.21387" y="3.61543" width="2.08546" height="2.08546" fill="white"/>
<rect x="5.21387" y="5.7009" width="2.08546" height="2.08546" fill="white"/>
<rect x="5.21387" y="7.78635" width="2.08546" height="2.08546" fill="white"/>
<rect x="5.21387" y="9.87181" width="2.08546" height="2.08546" fill="white"/>
<rect x="5.21387" y="11.9573" width="2.08546" height="2.08546" fill="white"/>
<rect x="5.21387" y="14.0427" width="2.08546" height="2.08546" fill="white"/>
<rect x="11.4697" y="14.0427" width="2.08546" height="2.08546" fill="white"/>
<rect x="7.29883" y="14.0427" width="2.08546" height="2.08546" fill="white"/>
<rect x="15.6406" y="14.0427" width="2.08546" height="2.08546" fill="white"/>
<rect x="5.21387" y="16.1282" width="2.08546" height="2.08546" fill="white"/>
<rect x="5.21387" y="18.2136" width="2.08546" height="2.08546" fill="white"/>
<rect x="5.21387" y="20.2991" width="2.08546" height="2.08546" fill="white"/>
<rect x="5.21387" y="22.3846" width="2.08546" height="2.08546" fill="white"/>
<rect x="7.29883" y="22.3846" width="2.08546" height="2.08546" fill="white"/>
<rect x="9.38477" y="22.3846" width="2.08546" height="2.08546" fill="white"/>
<rect x="11.4697" y="18.2136" width="2.08546" height="2.08546" fill="white"/>
<rect x="13.5557" y="18.2136" width="2.08546" height="2.08546" fill="white"/>
<rect x="11.4697" y="18.2136" width="2.08546" height="2.08546" fill="white"/>
<rect x="9.38477" y="20.2991" width="2.08546" height="2.08546" fill="white"/>
<rect x="9.38477" y="18.2136" width="2.08546" height="2.08546" fill="white"/>
<rect x="13.5557" y="20.2991" width="2.08546" height="2.08546" fill="white"/>
<rect x="13.5557" y="22.3846" width="2.08546" height="2.08546" fill="white"/>
<rect x="15.6406" y="22.3846" width="2.08546" height="2.08546" fill="white"/>
<rect x="17.7266" y="20.2991" width="2.08546" height="2.08546" fill="white"/>
<rect x="17.7266" y="22.3846" width="2.08546" height="2.08546" fill="white"/>
<rect x="17.7266" y="18.2136" width="2.08546" height="2.08546" fill="white"/>
<rect x="17.7266" y="16.1282" width="2.08546" height="2.08546" fill="white"/>
<rect x="17.7266" y="14.0427" width="2.08546" height="2.08546" fill="white"/>
<rect x="17.7266" y="11.9573" width="2.08546" height="2.08546" fill="white"/>
<rect x="17.7266" y="9.87181" width="2.08546" height="2.08546" fill="white"/>
<rect x="17.7266" y="7.78635" width="2.08546" height="2.08546" fill="white"/>
<rect x="17.7266" y="5.7009" width="2.08546" height="2.08546" fill="white"/>
<rect x="17.7266" y="3.61543" width="2.08546" height="2.08546" fill="white"/>
<rect x="15.6406" y="1.52997" width="2.08546" height="2.08546" fill="white"/>
<rect x="17.7266" y="1.52997" width="2.08546" height="2.08546" fill="white"/>
<rect x="13.5557" y="3.61543" width="2.08546" height="2.08546" fill="white"/>
<rect x="13.5557" y="1.52997" width="2.08546" height="2.08546" fill="white"/>
<rect x="11.4697" y="5.7009" width="2.08546" height="2.08546" fill="white"/>
<rect x="13.5557" y="5.7009" width="2.08546" height="2.08546" fill="white"/>
<rect x="7.29883" y="1.52997" width="2.08546" height="2.08546" fill="white"/>
<rect x="5.21387" y="1.52997" width="2.08546" height="2.08546" fill="white"/>
<rect x="9.38477" y="3.61543" width="2.08546" height="2.08546" fill="white"/>
<rect x="9.38477" y="5.7009" width="2.08546" height="2.08546" fill="white"/>
<rect x="9.38477" y="1.52997" width="2.08546" height="2.08546" fill="white"/>
<rect x="11.4697" y="5.7009" width="2.08546" height="2.08546" fill="white"/>
</svg>
