<svg width="26" height="26" viewBox="0 0 26 26" fill="none" xmlns="http://www.w3.org/2000/svg">
<rect x="1.05664" y="5.32535" width="2.08334" height="2.08334" fill="#344054"/>
<rect width="2.08334" height="2.08334" transform="matrix(-1 0 0 1 23.9736 5.32535)" fill="#344054"/>
<rect x="1.05664" y="7.40869" width="2.08334" height="2.08334" fill="#344054"/>
<rect width="2.08334" height="2.08334" transform="matrix(-1 0 0 1 23.9736 7.40869)" fill="#344054"/>
<rect x="1.05664" y="9.49203" width="2.08334" height="2.08334" fill="#344054"/>
<rect width="2.08334" height="2.08334" transform="matrix(-1 0 0 1 23.9736 9.49203)" fill="#344054"/>
<rect x="1.05664" y="11.5754" width="2.08334" height="2.08334" fill="#344054"/>
<rect width="2.08334" height="2.08334" transform="matrix(-1 0 0 1 23.9736 11.5754)" fill="#344054"/>
<rect x="1.05664" y="13.6587" width="2.08334" height="2.08334" fill="#344054"/>
<rect x="7.30664" y="13.6587" width="2.08334" height="2.08334" fill="#344054"/>
<rect x="15.6396" y="13.6587" width="2.08334" height="2.08334" fill="#344054"/>
<rect width="2.08334" height="2.08334" transform="matrix(-1 0 0 1 23.9736 13.6587)" fill="#344054"/>
<rect x="1.05664" y="15.7421" width="2.08334" height="2.08334" fill="#344054"/>
<rect x="9.38965" y="15.7421" width="2.08334" height="2.08334" fill="#344054"/>
<rect x="7.30664" y="15.7421" width="2.08334" height="2.08334" fill="#344054"/>
<rect x="5.22363" y="17.8254" width="2.08334" height="2.08334" fill="#344054"/>
<rect x="13.5566" y="15.7421" width="2.08334" height="2.08334" fill="#344054"/>
<rect x="15.6396" y="15.7421" width="2.08334" height="2.08334" fill="#344054"/>
<rect x="17.7236" y="17.8254" width="2.08334" height="2.08334" fill="#344054"/>
<rect width="2.08334" height="2.08334" transform="matrix(-1 0 0 1 23.9736 15.7421)" fill="#344054"/>
<rect x="1.05664" y="17.8254" width="2.08334" height="2.08334" fill="#344054"/>
<rect width="2.08334" height="2.08334" transform="matrix(-1 0 0 1 23.9736 17.8254)" fill="#344054"/>
<rect x="3.13965" y="19.9088" width="2.08334" height="2.08334" fill="#344054"/>
<rect width="2.08334" height="2.08334" transform="matrix(-1 0 0 1 21.8896 19.9088)" fill="#344054"/>
<rect x="5.22363" y="21.9921" width="2.08334" height="2.08334" fill="#344054"/>
<rect width="2.08334" height="2.08334" transform="matrix(-1 0 0 1 19.8066 21.9921)" fill="#344054"/>
<rect x="7.30664" y="21.9921" width="2.08334" height="2.08334" fill="#344054"/>
<rect width="2.08334" height="2.08334" transform="matrix(-1 0 0 1 17.7236 21.9921)" fill="#344054"/>
<rect x="9.38965" y="21.9921" width="2.08334" height="2.08334" fill="#344054"/>
<rect width="2.08334" height="2.08334" transform="matrix(-1 0 0 1 15.6396 21.9921)" fill="#344054"/>
<rect x="11.4736" y="21.9921" width="2.08334" height="2.08334" fill="#344054"/>
<rect x="3.13965" y="3.242" width="2.08334" height="2.08334" fill="#344054"/>
<rect width="2.08334" height="2.08334" transform="matrix(-1 0 0 1 21.8896 3.242)" fill="#344054"/>
<rect x="5.22363" y="1.15866" width="2.08334" height="2.08334" fill="#344054"/>
<rect width="2.08334" height="2.08334" transform="matrix(-1 0 0 1 19.8066 1.15866)" fill="#344054"/>
<rect x="7.30664" y="1.15866" width="2.08334" height="2.08334" fill="#344054"/>
<rect width="2.08334" height="2.08334" transform="matrix(-1 0 0 1 17.7236 1.15866)" fill="#344054"/>
<rect x="9.38965" y="1.15866" width="2.08334" height="2.08334" fill="#344054"/>
<rect x="9.38965" y="7.40869" width="2.08334" height="2.08334" fill="#344054"/>
<rect x="7.30664" y="9.49203" width="2.08334" height="2.08334" fill="#344054"/>
<rect x="7.30664" y="7.40869" width="2.08334" height="2.08334" fill="#344054"/>
<rect x="5.22363" y="5.32535" width="2.08334" height="2.08334" fill="#344054"/>
<rect x="15.6396" y="9.49203" width="2.08334" height="2.08334" fill="#344054"/>
<rect x="15.6396" y="7.40869" width="2.08334" height="2.08334" fill="#344054"/>
<rect x="17.7236" y="5.32535" width="2.08334" height="2.08334" fill="#344054"/>
<rect x="7.30664" y="11.5754" width="2.08334" height="2.08334" fill="#344054"/>
<rect x="15.6396" y="11.5754" width="2.08334" height="2.08334" fill="#344054"/>
<rect width="2.08334" height="2.08334" transform="matrix(-1 0 0 1 15.6396 1.15866)" fill="#344054"/>
<rect width="2.08334" height="2.08334" transform="matrix(-1 0 0 1 15.6396 7.40869)" fill="#344054"/>
<rect x="11.4736" y="1.15866" width="2.08334" height="2.08334" fill="#344054"/>
<rect x="11.4736" y="7.40869" width="2.08334" height="2.08334" fill="#344054"/>
<rect x="11.4736" y="15.7421" width="2.08334" height="2.08334" fill="#344054"/>
</svg>
