<svg width="26" height="26" viewBox="0 0 26 26" fill="none" xmlns="http://www.w3.org/2000/svg">
<rect x="1.05664" y="5.70828" width="2.08334" height="2.08334" fill="white"/>
<rect width="2.08334" height="2.08334" transform="matrix(-1 0 0 1 23.9736 5.70828)" fill="white"/>
<rect x="1.05664" y="7.79163" width="2.08334" height="2.08334" fill="white"/>
<rect width="2.08334" height="2.08334" transform="matrix(-1 0 0 1 23.9736 7.79163)" fill="white"/>
<rect x="1.05664" y="9.87497" width="2.08334" height="2.08334" fill="white"/>
<rect width="2.08334" height="2.08334" transform="matrix(-1 0 0 1 23.9736 9.87497)" fill="white"/>
<rect x="1.05664" y="11.9583" width="2.08334" height="2.08334" fill="white"/>
<rect width="2.08334" height="2.08334" transform="matrix(-1 0 0 1 23.9736 11.9583)" fill="white"/>
<rect x="1.05664" y="14.0417" width="2.08334" height="2.08334" fill="white"/>
<rect x="7.30664" y="14.0417" width="2.08334" height="2.08334" fill="white"/>
<rect x="15.6396" y="14.0417" width="2.08334" height="2.08334" fill="white"/>
<rect width="2.08334" height="2.08334" transform="matrix(-1 0 0 1 23.9736 14.0417)" fill="white"/>
<rect x="1.05664" y="16.125" width="2.08334" height="2.08334" fill="white"/>
<rect x="9.38965" y="16.125" width="2.08334" height="2.08334" fill="white"/>
<rect x="7.30664" y="16.125" width="2.08334" height="2.08334" fill="white"/>
<rect x="5.22363" y="18.2083" width="2.08334" height="2.08334" fill="white"/>
<rect x="13.5566" y="16.125" width="2.08334" height="2.08334" fill="white"/>
<rect x="15.6396" y="16.125" width="2.08334" height="2.08334" fill="white"/>
<rect x="17.7236" y="18.2083" width="2.08334" height="2.08334" fill="white"/>
<rect width="2.08334" height="2.08334" transform="matrix(-1 0 0 1 23.9736 16.125)" fill="white"/>
<rect x="1.05664" y="18.2083" width="2.08334" height="2.08334" fill="white"/>
<rect width="2.08334" height="2.08334" transform="matrix(-1 0 0 1 23.9736 18.2083)" fill="white"/>
<rect x="3.13965" y="20.2917" width="2.08334" height="2.08334" fill="white"/>
<rect width="2.08334" height="2.08334" transform="matrix(-1 0 0 1 21.8896 20.2917)" fill="white"/>
<rect x="5.22363" y="22.375" width="2.08334" height="2.08334" fill="white"/>
<rect width="2.08334" height="2.08334" transform="matrix(-1 0 0 1 19.8066 22.375)" fill="white"/>
<rect x="7.30664" y="22.375" width="2.08334" height="2.08334" fill="white"/>
<rect width="2.08334" height="2.08334" transform="matrix(-1 0 0 1 17.7236 22.375)" fill="white"/>
<rect x="9.38965" y="22.375" width="2.08334" height="2.08334" fill="white"/>
<rect width="2.08334" height="2.08334" transform="matrix(-1 0 0 1 15.6396 22.375)" fill="white"/>
<rect x="11.4736" y="22.375" width="2.08334" height="2.08334" fill="white"/>
<rect x="3.13965" y="3.62494" width="2.08334" height="2.08334" fill="white"/>
<rect width="2.08334" height="2.08334" transform="matrix(-1 0 0 1 21.8896 3.62494)" fill="white"/>
<rect x="5.22363" y="1.5416" width="2.08334" height="2.08334" fill="white"/>
<rect width="2.08334" height="2.08334" transform="matrix(-1 0 0 1 19.8066 1.5416)" fill="white"/>
<rect x="7.30664" y="1.5416" width="2.08334" height="2.08334" fill="white"/>
<rect width="2.08334" height="2.08334" transform="matrix(-1 0 0 1 17.7236 1.5416)" fill="white"/>
<rect x="9.38965" y="1.5416" width="2.08334" height="2.08334" fill="white"/>
<rect x="9.38965" y="7.79163" width="2.08334" height="2.08334" fill="white"/>
<rect x="7.30664" y="9.87497" width="2.08334" height="2.08334" fill="white"/>
<rect x="7.30664" y="7.79163" width="2.08334" height="2.08334" fill="white"/>
<rect x="5.22363" y="5.70828" width="2.08334" height="2.08334" fill="white"/>
<rect x="15.6396" y="9.87497" width="2.08334" height="2.08334" fill="white"/>
<rect x="15.6396" y="7.79163" width="2.08334" height="2.08334" fill="white"/>
<rect x="17.7236" y="5.70828" width="2.08334" height="2.08334" fill="white"/>
<rect x="7.30664" y="11.9583" width="2.08334" height="2.08334" fill="white"/>
<rect x="15.6396" y="11.9583" width="2.08334" height="2.08334" fill="white"/>
<rect width="2.08334" height="2.08334" transform="matrix(-1 0 0 1 15.6396 1.5416)" fill="white"/>
<rect width="2.08334" height="2.08334" transform="matrix(-1 0 0 1 15.6396 7.79163)" fill="white"/>
<rect x="11.4736" y="1.5416" width="2.08334" height="2.08334" fill="white"/>
<rect x="11.4736" y="7.79163" width="2.08334" height="2.08334" fill="white"/>
<rect x="11.4736" y="16.125" width="2.08334" height="2.08334" fill="white"/>
</svg>
