<svg width="26" height="26" viewBox="0 0 26 26" fill="none" xmlns="http://www.w3.org/2000/svg">
<rect x="5.21387" y="2.57269" width="2.08546" height="2.08546" fill="white"/>
<rect x="3.12793" y="4.65814" width="2.08546" height="2.08546" fill="white"/>
<rect x="19.8115" y="4.65814" width="2.08546" height="2.08546" fill="white"/>
<rect x="1.04297" y="6.74359" width="2.08546" height="2.08546" fill="white"/>
<rect x="3.12793" y="6.74359" width="2.08546" height="2.08546" fill="white"/>
<rect x="5.21387" y="6.74359" width="2.08546" height="2.08546" fill="white"/>
<rect x="5.21387" y="8.8291" width="2.08546" height="2.08546" fill="white"/>
<rect x="9.38477" y="8.8291" width="2.08546" height="2.08546" fill="white"/>
<rect x="7.29883" y="6.74359" width="2.08546" height="2.08546" fill="white"/>
<rect x="9.38477" y="6.74359" width="2.08546" height="2.08546" fill="white"/>
<rect x="1.04297" y="8.8291" width="2.08546" height="2.08546" fill="white"/>
<rect x="1.04297" y="10.9146" width="2.08546" height="2.08546" fill="white"/>
<rect x="3.12793" y="10.9146" width="2.08546" height="2.08546" fill="white"/>
<rect x="5.21387" y="10.9146" width="2.08546" height="2.08546" fill="white"/>
<rect x="7.29883" y="10.9146" width="2.08546" height="2.08546" fill="white"/>
<rect x="9.38477" y="10.9146" width="2.08546" height="2.08546" fill="white"/>
<rect x="1.04297" y="13" width="2.08546" height="2.08546" fill="white"/>
<rect x="1.04297" y="15.0854" width="2.08546" height="2.08546" fill="white"/>
<rect x="1.04297" y="17.1709" width="2.08546" height="2.08546" fill="white"/>
<rect x="1.04297" y="19.2564" width="2.08546" height="2.08546" fill="white"/>
<rect x="1.04297" y="21.3418" width="2.08546" height="2.08546" fill="white"/>
<rect x="3.12793" y="21.3418" width="2.08546" height="2.08546" fill="white"/>
<rect x="5.21387" y="21.3418" width="2.08546" height="2.08546" fill="white"/>
<rect x="5.21387" y="19.2564" width="2.08546" height="2.08546" fill="white"/>
<rect x="5.21387" y="17.1709" width="2.08546" height="2.08546" fill="white"/>
<rect x="5.21387" y="15.0854" width="2.08546" height="2.08546" fill="white"/>
<rect x="7.29883" y="15.0854" width="2.08546" height="2.08546" fill="white"/>
<rect x="9.38477" y="15.0854" width="2.08546" height="2.08546" fill="white"/>
<rect x="9.38477" y="17.1709" width="2.08546" height="2.08546" fill="white"/>
<rect x="9.38477" y="19.2564" width="2.08546" height="2.08546" fill="white"/>
<rect x="9.38477" y="21.3418" width="2.08546" height="2.08546" fill="white"/>
<rect width="2.08546" height="2.08546" transform="matrix(-1 0 0 1 23.9824 6.74359)" fill="white"/>
<rect width="2.08546" height="2.08546" transform="matrix(-1 0 0 1 21.8975 6.74359)" fill="white"/>
<rect width="2.08546" height="2.08546" transform="matrix(-1 0 0 1 19.8115 6.74359)" fill="white"/>
<rect width="2.08546" height="2.08546" transform="matrix(-1 0 0 1 19.8115 8.8291)" fill="white"/>
<rect width="2.08546" height="2.08546" transform="matrix(-1 0 0 1 15.6406 8.8291)" fill="white"/>
<rect width="2.08546" height="2.08546" transform="matrix(-1 0 0 1 17.7266 6.74359)" fill="white"/>
<rect width="2.08546" height="2.08546" transform="matrix(-1 0 0 1 15.6406 6.74359)" fill="white"/>
<rect width="2.08546" height="2.08546" transform="matrix(-1 0 0 1 13.5557 6.74359)" fill="white"/>
<rect width="2.08546" height="2.08546" transform="matrix(-1 0 0 1 23.9824 8.8291)" fill="white"/>
<rect width="2.08546" height="2.08546" transform="matrix(-1 0 0 1 23.9824 10.9146)" fill="white"/>
<rect width="2.08546" height="2.08546" transform="matrix(-1 0 0 1 21.8975 10.9146)" fill="white"/>
<rect width="2.08546" height="2.08546" transform="matrix(-1 0 0 1 19.8115 10.9146)" fill="white"/>
<rect width="2.08546" height="2.08546" transform="matrix(-1 0 0 1 17.7266 10.9146)" fill="white"/>
<rect width="2.08546" height="2.08546" transform="matrix(-1 0 0 1 15.6406 10.9146)" fill="white"/>
<rect width="2.08546" height="2.08546" transform="matrix(-1 0 0 1 15.6406 13)" fill="white"/>
<rect width="2.08546" height="2.08546" transform="matrix(-1 0 0 1 15.6406 15.0854)" fill="white"/>
<rect width="2.08546" height="2.08546" transform="matrix(-1 0 0 1 17.7266 15.0854)" fill="white"/>
<rect width="2.08546" height="2.08546" transform="matrix(-1 0 0 1 19.8115 15.0854)" fill="white"/>
<rect width="2.08546" height="2.08546" transform="matrix(-1 0 0 1 21.8975 15.0854)" fill="white"/>
<rect width="2.08546" height="2.08546" transform="matrix(-1 0 0 1 13.5557 10.9146)" fill="white"/>
<rect width="2.08546" height="2.08546" transform="matrix(-1 0 0 1 23.9824 13)" fill="white"/>
<rect width="2.08546" height="2.08546" transform="matrix(-1 0 0 1 23.9824 15.0854)" fill="white"/>
<rect width="2.08546" height="2.08546" transform="matrix(-1 0 0 1 23.9824 17.1709)" fill="white"/>
<rect width="2.08546" height="2.08546" transform="matrix(-1 0 0 1 23.9824 19.2564)" fill="white"/>
<rect width="2.08546" height="2.08546" transform="matrix(-1 0 0 1 23.9824 21.3418)" fill="white"/>
<rect width="2.08546" height="2.08546" transform="matrix(-1 0 0 1 21.8975 21.3418)" fill="white"/>
<rect width="2.08546" height="2.08546" transform="matrix(-1 0 0 1 19.8115 21.3418)" fill="white"/>
<rect width="2.08546" height="2.08546" transform="matrix(-1 0 0 1 17.7266 21.3418)" fill="white"/>
<rect width="2.08546" height="2.08546" transform="matrix(-1 0 0 1 15.6406 21.3418)" fill="white"/>
<rect width="2.08546" height="2.08546" transform="matrix(-1 0 0 1 13.5557 21.3418)" fill="white"/>
<rect x="7.29883" y="2.57269" width="2.08546" height="2.08546" fill="white"/>
<rect x="9.38477" y="2.57269" width="2.08546" height="2.08546" fill="white"/>
<rect x="11.4697" y="2.57269" width="2.08546" height="2.08546" fill="white"/>
<rect x="13.5557" y="2.57269" width="2.08546" height="2.08546" fill="white"/>
<rect x="15.6406" y="2.57269" width="2.08546" height="2.08546" fill="white"/>
<rect x="17.7266" y="2.57269" width="2.08546" height="2.08546" fill="white"/>
</svg>
