<svg width="334" height="59" viewBox="0 0 334 59" fill="none" xmlns="http://www.w3.org/2000/svg">
<path d="M302.77 12.2052H292.366H281.962H271.586H261.182H250.778H240.373H229.969H219.565H209.161H198.757H188.353H177.948H167.572H157.168H146.764H136.36H125.956H115.552H105.147H94.7432H84.3391H73.9349H63.5587H53.1546H42.7504H32.3463H21.9421V16.913V21.6207V26.3284V31.0361V35.7439V40.4516V45.1593H32.3463H42.7504H53.1546H63.5587H73.9349H84.3391H94.7432H105.147H115.552H125.956H136.36H146.764H157.168H167.572H177.948H188.353H198.757H209.161H219.565H229.969H240.373H250.778H261.182H271.586H281.962H292.366H302.77H313.174V40.4516V35.7439V31.0361V26.3284V21.6207V16.913V12.2052H302.77Z" fill="#F5A927"/>
<path d="M319.717 9.06845V13.6088V18.1491V22.6895V27.2298V31.7702V36.3105V40.8508V45.3912H312.296V49.9193H222.554H215.133H207.713H200.312H192.892H185.471H178.051H170.63H163.21H155.79H148.369H140.949H133.528H126.128H118.707H111.287H103.866H96.446H89.0255H81.6051H74.1846H66.7642H59.3438H51.9433H44.5228H37.1024H29.6819H22.2615H14.8411V54.4596H22.2615H29.6819H37.1024H44.5228H51.9433H59.3438H66.7642H74.1846H81.6051H89.0255H96.446H103.866H111.287H118.707H126.128H133.528H140.949H148.369H155.79H163.21H170.63H178.051H185.471H192.892H200.312H207.713H215.133H222.554H312.296H319.717V49.9193H327.137V45.3912V40.8508V36.3105V31.7702V27.2298V22.6895V18.1491V13.6088V9.06845H319.717Z" fill="#B0761D"/>
<path d="M313.175 4.52814V9.06848V13.6088V18.1492V22.6895V27.2298V31.7702V36.3105V40.8509V45.3912H320.595V40.8509V36.3105V31.7702V27.2298V22.6895V18.1492V13.6088V9.06848V4.52814H313.175Z" fill="#D99124"/>
<path d="M292.534 45.1593H282.213H271.92H261.6H251.279H240.959H230.638H220.318H209.997H199.677H189.356H179.036H168.743H158.423H148.102H137.782H127.461H117.141H106.82H96.4996H86.1791H75.8586H65.5659H55.2454H44.9249H34.6044H24.2839H13.9634V50.0414H24.2839H34.6044H44.9249H55.2454H65.5659H75.8586H86.1791H96.4996H106.82H117.141H127.461H137.782H148.102H158.423H168.743H179.036H189.356H199.677H209.997H220.318H230.638H240.959H251.279H261.6H271.92H282.213H292.534H302.854H313.175V45.1593H302.854H292.534Z" fill="#D99124"/>
<path d="M302.854 8.54367H292.534H282.213H271.92H261.6H251.279H240.959H230.638H220.318H209.997H199.677H189.356H179.036H168.743H158.423H148.102H137.782H127.461H117.141H106.82H96.4996H86.1791H75.8586H65.5659H55.2454H44.9249H34.6044H24.2839H13.9634V13.1206V17.6976V22.2745V26.8515V31.4284V36.0054V40.5824V45.1593H24.2839V40.5824V36.0054V31.4284V26.8515V22.2745V17.6976V13.1206H34.6044H44.9249H55.2454H65.5659H75.8586H86.1791H96.4996H106.82H117.141H127.461H137.782H148.102H158.423H168.743H179.036H189.356H199.677H209.997H220.318H230.638H240.959H251.279H261.6H271.92H282.213H292.534H302.854H313.175V8.54367H302.854Z" fill="#FFB048"/>
<path d="M288.426 3.66156H263.678H238.93H214.249H189.5V8.54365H214.249H238.93H263.678H288.426H313.174V3.66156H288.426Z" fill="#F8C06B"/>
<path d="M163.21 4.52814V9.06848H170.631H178.051V4.52814H170.631H163.21Z" fill="#F8C06B"/>
<path d="M118.707 4.52814V9.06848H126.128H133.528V4.52814H126.128H118.707Z" fill="#F8C06B"/>
<path d="M29.6819 4.52814H22.2615H14.8411V9.06848H22.2615H29.6819H37.1024H44.5228V4.52814H37.1024H29.6819Z" fill="#F8C06B"/>
<path d="M7.42065 31.7702V36.3105V40.8509V45.3912V49.9194H14.8411V45.3912V40.8509V36.3105V31.7702V27.2299H7.42065V31.7702Z" fill="#F8C06B"/>
<path d="M185.472 4.52814H178.051V9.06848H185.472H192.892V4.52814H185.472Z" fill="#FFD8A4"/>
<path d="M148.369 4.52814H140.949H133.528V9.06848H140.949H148.369H155.79H163.21V4.52814H155.79H148.369Z" fill="#FFD8A4"/>
<path d="M103.867 4.52814H96.4461H89.0256H81.6052H74.1848H66.7643H59.3439H51.9434H44.5229V9.06848H51.9434H59.3439H66.7643H74.1848H81.6052H89.0256H96.4461H103.867H111.287H118.707V4.52814H111.287H103.867Z" fill="#FFD8A4"/>
<path d="M7.42065 13.6088V18.1491V22.6895V27.2298H14.8411V22.6895V18.1491V13.6088V9.06845H7.42065V13.6088Z" fill="#FFD8A4"/>
<path d="M326.58 13.6088V18.1491V22.6895V27.2298V31.7702V36.3105V40.8508V45.3912V49.9193H334V45.3912V40.8508V36.3105V31.7702V27.2298V22.6895V18.1491V13.6088V9.06845H326.58V13.6088Z" fill="#754138"/>
<path d="M326.579 49.9194H319.159V54.4597H326.579V49.9194Z" fill="#754138"/>
<path d="M326.579 4.52814H319.159V9.06848H326.579V4.52814Z" fill="#754138"/>
<path d="M304.318 54.4597L215.133 54.4597H207.712H200.312H192.891H185.471H178.051H170.63H163.21H155.789H148.369H140.948H133.528H126.127H118.707H111.287H103.866H96.4457H89.0253H81.6048H74.1844H66.764H59.3435H51.943H44.5226H37.1021H29.6817H22.2613H14.8408V59H22.2613H29.6817H37.1021H44.5226H51.943H59.3435H66.764H74.1844H81.6048H89.0253H96.4457H103.866H111.287H118.707H126.127H133.528H140.948H148.369H155.789H163.21H170.63H178.051H185.471H192.891H200.312H207.712H215.133H304.318H311.738H319.159V54.4597H311.738H304.318Z" fill="#754138"/>
<path d="M29.6817 4.52813H37.1021H44.5226H51.943H59.3435H66.764H74.1844H81.6048H89.0253H96.4457H103.866H111.287H118.707H126.127H133.528H140.948H148.369H155.789H163.21H170.63H178.051H185.471H192.891H200.312H207.712H215.133H222.553H229.974H319.159V0H229.974H222.553H215.133H207.712H200.312H192.891H185.471H178.051H170.63H163.21H155.789H148.369H140.948H133.528H126.127H118.707H111.287H103.866H96.4457H89.0253H81.6048H74.1844H66.764H59.3435H51.943H44.5226H37.1021H29.6817H22.2613H14.8408V4.52813H22.2613H29.6817Z" fill="#754138"/>
<path d="M14.8411 49.9194H7.42065V54.4597H14.8411V49.9194Z" fill="#754138"/>
<path d="M14.8411 4.52814H7.42065V9.06848H14.8411V4.52814Z" fill="#754138"/>
<path d="M7.42044 40.8508V36.3105V31.7702V27.2298V22.6895V18.1491V13.6088V9.06845H0V13.6088V18.1491V22.6895V27.2298V31.7702V36.3105V40.8508V45.3912V49.9193H7.42044V45.3912V40.8508Z" fill="#754138"/>
</svg>
