<svg width="275" height="59" viewBox="0 0 275 59" fill="none" xmlns="http://www.w3.org/2000/svg">
<path d="M249.287 12.2052H240.721H232.154H223.611H215.045H206.479H197.912H189.346H180.78H172.213H163.647H155.081H146.514H137.971H129.405H120.839H112.272H103.706H95.1398H86.5735H78.0072H69.4409H60.8746H52.3313H43.765H35.1987H26.6325H18.0662V16.9129V21.6207V26.3284V31.0361V35.7438V40.4516V45.1593H26.6325H35.1987H43.765H52.3313H60.8746H69.4409H78.0072H86.5735H95.1398H103.706H112.272H120.839H129.405H137.971H146.514H155.081H163.647H172.213H180.78H189.346H197.912H206.479H215.045H223.611H232.154H240.721H249.287H257.853V40.4516V35.7438V31.0361V26.3284V21.6207V16.9129V12.2052H249.287Z" fill="#F5A927"/>
<path d="M263.24 9.06848V13.6088V18.1492V22.6895V27.2298V31.7702V36.3105V40.8509V45.3912H257.13V49.9193H183.24H177.131H171.021H164.928H158.818H152.708H146.599H140.489H134.38H128.27H122.16H116.051H109.941H103.848H97.7381H91.6284H85.5188H79.4091H73.2995H67.1898H61.0802H54.9706H48.8609H42.7677H36.6581H30.5484H24.4388H18.3291H12.2195V54.4597H18.3291H24.4388H30.5484H36.6581H42.7677H48.8609H54.9706H61.0802H67.1898H73.2995H79.4091H85.5188H91.6284H97.7381H103.848H109.941H116.051H122.16H128.27H134.38H140.489H146.599H152.708H158.818H164.928H171.021H177.131H183.24H257.13H263.24V49.9193H269.349V45.3912V40.8509V36.3105V31.7702V27.2298V22.6895V18.1492V13.6088V9.06848H263.24Z" fill="#B0761D"/>
<path d="M257.853 4.52814V9.06848V13.6088V18.1492V22.6895V27.2298V31.7702V36.3105V40.8509V45.3912H263.963V40.8509V36.3105V31.7702V27.2298V22.6895V18.1492V13.6088V9.06848V4.52814H257.853Z" fill="#D99124"/>
<path d="M240.859 45.1593H232.361H223.887H215.389H206.892H198.394H189.897H181.399H172.902H164.405H155.907H147.41H138.935H130.438H121.94H113.443H104.946H96.4482H87.9508H79.4533H70.9559H62.4585H53.9839H45.4865H36.9891H28.4917H19.9942H11.4968V50.0414H19.9942H28.4917H36.9891H45.4865H53.9839H62.4585H70.9559H79.4533H87.9508H96.4482H104.946H113.443H121.94H130.438H138.935H147.41H155.907H164.405H172.902H181.399H189.897H198.394H206.892H215.389H223.887H232.361H240.859H249.356H257.853V45.1593H249.356H240.859Z" fill="#D99124"/>
<path d="M249.356 8.5437H240.859H232.361H223.887H215.389H206.892H198.394H189.897H181.399H172.902H164.405H155.907H147.41H138.935H130.438H121.94H113.443H104.946H96.4482H87.9508H79.4533H70.9559H62.4585H53.9839H45.4865H36.9891H28.4917H19.9942H11.4968V13.1207V17.6976V22.2746V26.8515V31.4285V36.0054V40.5824V45.1593H19.9942V40.5824V36.0054V31.4285V26.8515V22.2746V17.6976V13.1207H28.4917H36.9891H45.4865H53.9839H62.4585H70.9559H79.4533H87.9508H96.4482H104.946H113.443H121.94H130.438H138.935H147.41H155.907H164.405H172.902H181.399H189.897H198.394H206.892H215.389H223.887H232.361H240.859H249.356H257.853V8.5437H249.356Z" fill="#FFB048"/>
<path d="M237.477 3.66156H217.1H196.724H176.402H156.026V8.54365H176.402H196.724H217.1H237.477H257.853V3.66156H237.477Z" fill="#F8C06B"/>
<path d="M134.38 4.52814V9.06848H140.49H146.599V4.52814H140.49H134.38Z" fill="#F8C06B"/>
<path d="M97.738 4.52814V9.06848H103.848H109.941V4.52814H103.848H97.738Z" fill="#F8C06B"/>
<path d="M24.4388 4.52814H18.3291H12.2195V9.06848H18.3291H24.4388H30.5484H36.6581V4.52814H30.5484H24.4388Z" fill="#F8C06B"/>
<path d="M6.10986 31.7702V36.3105V40.8509V45.3912V49.9194H12.2195V45.3912V40.8509V36.3105V31.7702V27.2299H6.10986V31.7702Z" fill="#F8C06B"/>
<path d="M152.709 4.52814H146.599V9.06848H152.709H158.818V4.52814H152.709Z" fill="#FFD8A4"/>
<path d="M122.16 4.52814H116.051H109.941V9.06848H116.051H122.16H128.27H134.379V4.52814H128.27H122.16Z" fill="#FFD8A4"/>
<path d="M85.5189 4.52814H79.4093H73.2996H67.19H61.0804H54.9707H48.8611H42.7678H36.6582V9.06848H42.7678H48.8611H54.9707H61.0804H67.19H73.2996H79.4093H85.5189H91.6286H97.7382V4.52814H91.6286H85.5189Z" fill="#FFD8A4"/>
<path d="M6.10986 13.6088V18.1491V22.6894V27.2298H12.2195V22.6894V18.1491V13.6088V9.06842H6.10986V13.6088Z" fill="#FFD8A4"/>
<path d="M268.89 13.6088V18.1492V22.6895V27.2298V31.7702V36.3105V40.8509V45.3912V49.9193H275V45.3912V40.8509V36.3105V31.7702V27.2298V22.6895V18.1492V13.6088V9.06848H268.89V13.6088Z" fill="#754138"/>
<path d="M268.89 49.9194H262.781V54.4597H268.89V49.9194Z" fill="#754138"/>
<path d="M268.89 4.52814H262.781V9.06848H268.89V4.52814Z" fill="#754138"/>
<path d="M250.561 54.4597L177.13 54.4597H171.021H164.927H158.818H152.708H146.599H140.489H134.379H128.27H122.16H116.05H109.941H103.847H97.7378H91.6282H85.5185H79.4089H73.2993H67.1896H61.08H54.9703H48.8607H42.7675H36.6578H30.5482H24.4385H18.3289H12.2192V59H18.3289H24.4385H30.5482H36.6578H42.7675H48.8607H54.9703H61.08H67.1896H73.2993H79.4089H85.5185H91.6282H97.7378H103.847H109.941H116.05H122.16H128.27H134.379H140.489H146.599H152.708H158.818H164.927H171.021H177.13H250.561H256.671H262.78V54.4597H256.671H250.561Z" fill="#754138"/>
<path d="M24.4385 4.52813H30.5482H36.6578H42.7675H48.8607H54.9703H61.08H67.1896H73.2993H79.4089H85.5185H91.6282H97.7378H103.847H109.941H116.05H122.16H128.27H134.379H140.489H146.599H152.708H158.818H164.927H171.021H177.13H183.24H189.35H262.78V0H189.35H183.24H177.13H171.021H164.927H158.818H152.708H146.599H140.489H134.379H128.27H122.16H116.05H109.941H103.847H97.7378H91.6282H85.5185H79.4089H73.2993H67.1896H61.08H54.9703H48.8607H42.7675H36.6578H30.5482H24.4385H18.3289H12.2192V4.52813H18.3289H24.4385Z" fill="#754138"/>
<path d="M12.2195 49.9194H6.10986V54.4597H12.2195V49.9194Z" fill="#754138"/>
<path d="M12.2195 4.52814H6.10986V9.06848H12.2195V4.52814Z" fill="#754138"/>
<path d="M6.10964 40.8508V36.3105V31.7701V27.2298V22.6894V18.1491V13.6088V9.06842H0V13.6088V18.1491V22.6894V27.2298V31.7701V36.3105V40.8508V45.3911V49.9193H6.10964V45.3911V40.8508Z" fill="#754138"/>
</svg>
