<svg width="230" height="59" viewBox="0 0 230 59" fill="none" xmlns="http://www.w3.org/2000/svg">
<path d="M208.495 12.2053H201.33H194.165H187.02H179.856H172.691H165.527H158.362H151.197H144.033H136.868H129.704H122.539H115.394H108.23H101.065H93.9005H86.7359H79.5714H72.4069H65.2423H58.0778H50.9133H43.768H36.6035H29.4389H22.2744H15.1099V16.913V21.6207V26.3284V31.0362V35.7439V40.4516V45.1593H22.2744H29.4389H36.6035H43.768H50.9133H58.0778H65.2423H72.4069H79.5714H86.7359H93.9005H101.065H108.23H115.394H122.539H129.704H136.868H144.033H151.197H158.362H165.527H172.691H179.856H187.02H194.165H201.33H208.495H215.659V40.4516V35.7439V31.0362V26.3284V21.6207V16.913V12.2053H208.495Z" fill="#F5A927"/>
<path d="M220.164 9.06842V13.6088V18.1491V22.6894V27.2298V31.7701V36.3105V40.8508V45.3911H215.054V49.9193H153.255H148.146H143.036H137.94H132.83H127.72H122.61H117.5H112.39H107.28H102.17H97.0605H91.9506H86.8545H81.7446H76.6347H71.5248H66.415H61.3051H56.1952H51.0853H45.9754H40.8655H35.7694H30.6595H25.5496H20.4397H15.3299H10.22V54.4596H15.3299H20.4397H25.5496H30.6595H35.7694H40.8655H45.9754H51.0853H56.1952H61.3051H66.415H71.5248H76.6347H81.7446H86.8545H91.9506H97.0605H102.17H107.28H112.39H117.5H122.61H127.72H132.83H137.94H143.036H148.146H153.255H215.054H220.164V49.9193H225.274V45.3911V40.8508V36.3105V31.7701V27.2298V22.6894V18.1491V13.6088V9.06842H220.164Z" fill="#B0761D"/>
<path d="M215.659 4.52814V9.06848V13.6088V18.1492V22.6895V27.2298V31.7702V36.3105V40.8509V45.3912H220.769V40.8509V36.3105V31.7702V27.2298V22.6895V18.1492V13.6088V9.06848V4.52814H215.659Z" fill="#D99124"/>
<path d="M201.445 45.1593H194.338H187.251H180.144H173.037H165.93H158.823H151.716H144.609H137.502H130.395H123.288H116.2H109.093H101.986H94.8795H87.7726H80.6657H73.5588H66.4518H59.3449H52.238H45.1501H38.0432H30.9363H23.8293H16.7224H9.61548V50.0414H16.7224H23.8293H30.9363H38.0432H45.1501H52.238H59.3449H66.4518H73.5588H80.6657H87.7726H94.8795H101.986H109.093H116.2H123.288H130.395H137.502H144.609H151.716H158.823H165.93H173.037H180.144H187.251H194.338H201.445H208.552H215.659V45.1593H208.552H201.445Z" fill="#D99124"/>
<path d="M208.552 8.5437H201.445H194.338H187.251H180.144H173.037H165.93H158.823H151.716H144.609H137.502H130.395H123.288H116.2H109.093H101.986H94.8795H87.7726H80.6657H73.5588H66.4518H59.3449H52.238H45.1501H38.0432H30.9363H23.8293H16.7224H9.61548V13.1207V17.6976V22.2746V26.8515V31.4285V36.0054V40.5824V45.1593H16.7224V40.5824V36.0054V31.4285V26.8515V22.2746V17.6976V13.1207H23.8293H30.9363H38.0432H45.1501H52.238H59.3449H66.4518H73.5588H80.6657H87.7726H94.8795H101.986H109.093H116.2H123.288H130.395H137.502H144.609H151.716H158.823H165.93H173.037H180.144H187.251H194.338H201.445H208.552H215.659V8.5437H208.552Z" fill="#FFB048"/>
<path d="M198.617 3.66156H181.575H164.533H147.536H130.494V8.54365H147.536H164.533H181.575H198.617H215.659V3.66156H198.617Z" fill="#F8C06B"/>
<path d="M112.39 4.52814V9.06848H117.5H122.61V4.52814H117.5H112.39Z" fill="#F8C06B"/>
<path d="M81.7446 4.52814V9.06848H86.8545H91.9507V4.52814H86.8545H81.7446Z" fill="#F8C06B"/>
<path d="M20.4397 4.52814H15.3299H10.22V9.06848H15.3299H20.4397H25.5496H30.6595V4.52814H25.5496H20.4397Z" fill="#F8C06B"/>
<path d="M5.11011 31.7702V36.3105V40.8509V45.3912V49.9194H10.22V45.3912V40.8509V36.3105V31.7702V27.2299H5.11011V31.7702Z" fill="#F8C06B"/>
<path d="M127.72 4.52814H122.61V9.06848H127.72H132.83V4.52814H127.72Z" fill="#FFD8A4"/>
<path d="M102.17 4.52814H97.0606H91.9507V9.06848H97.0606H102.17H107.28H112.39V4.52814H107.28H102.17Z" fill="#FFD8A4"/>
<path d="M71.525 4.52814H66.4151H61.3052H56.1954H51.0855H45.9756H40.8657H35.7696H30.6597V9.06848H35.7696H40.8657H45.9756H51.0855H56.1954H61.3052H66.4151H71.525H76.6349H81.7448V4.52814H76.6349H71.525Z" fill="#FFD8A4"/>
<path d="M5.11011 13.6088V18.1491V22.6894V27.2298H10.22V22.6894V18.1491V13.6088V9.06842H5.11011V13.6088Z" fill="#FFD8A4"/>
<path d="M224.89 13.6088V18.1491V22.6894V27.2298V31.7701V36.3105V40.8508V45.3911V49.9193H230V45.3911V40.8508V36.3105V31.7701V27.2298V22.6894V18.1491V13.6088V9.06842H224.89V13.6088Z" fill="#754138"/>
<path d="M224.89 49.9194H219.78V54.4597H224.89V49.9194Z" fill="#754138"/>
<path d="M224.89 4.52814H219.78V9.06848H224.89V4.52814Z" fill="#754138"/>
<path d="M209.56 54.4597L148.145 54.4597H143.035H137.939H132.829H127.72H122.61H117.5H112.39H107.28H102.17H97.0603H91.9504H86.8542H81.7444H76.6345H71.5246H66.4147H61.3048H56.1949H51.0851H45.9752H40.8653H35.7691H30.6593H25.5494H20.4395H15.3296H10.2197V59H15.3296H20.4395H25.5494H30.6593H35.7691H40.8653H45.9752H51.0851H56.1949H61.3048H66.4147H71.5246H76.6345H81.7444H86.8542H91.9504H97.0603H102.17H107.28H112.39H117.5H122.61H127.72H132.829H137.939H143.035H148.145H209.56H214.67H219.78V54.4597H214.67H209.56Z" fill="#754138"/>
<path d="M20.4395 4.52813H25.5494H30.6593H35.7691H40.8653H45.9752H51.0851H56.1949H61.3048H66.4147H71.5246H76.6345H81.7444H86.8542H91.9504H97.0603H102.17H107.28H112.39H117.5H122.61H127.72H132.829H137.939H143.035H148.145H153.255H158.365H219.78V0H158.365H153.255H148.145H143.035H137.939H132.829H127.72H122.61H117.5H112.39H107.28H102.17H97.0603H91.9504H86.8542H81.7444H76.6345H71.5246H66.4147H61.3048H56.1949H51.0851H45.9752H40.8653H35.7691H30.6593H25.5494H20.4395H15.3296H10.2197V4.52813H15.3296H20.4395Z" fill="#754138"/>
<path d="M10.22 49.9194H5.11011V54.4597H10.22V49.9194Z" fill="#754138"/>
<path d="M10.22 4.52814H5.11011V9.06848H10.22V4.52814Z" fill="#754138"/>
<path d="M5.10988 40.8508V36.3105V31.7701V27.2298V22.6894V18.1491V13.6088V9.06842H0V13.6088V18.1491V22.6894V27.2298V31.7701V36.3105V40.8508V45.3911V49.9193H5.10988V45.3911V40.8508Z" fill="#754138"/>
</svg>
