<svg width="183" height="38" viewBox="0 0 183 38" fill="none" xmlns="http://www.w3.org/2000/svg">
<path d="M40.8799 7.43005H37.1599V11.1501H40.8799V7.43005Z" fill="#E2E2E2"/>
<path d="M40.8799 3.70996H37.1599V7.42996H40.8799V3.70996Z" fill="#E2E2E2"/>
<path d="M37.1599 14.87H33.4399V18.59H37.1599V14.87Z" fill="#E2E2E2"/>
<path d="M37.1599 11.15H33.4399V14.87H37.1599V11.15Z" fill="#E2E2E2"/>
<path d="M33.44 22.3101H29.72V26.0301H33.44V22.3101Z" fill="#CACACA"/>
<path d="M33.44 18.59H29.72V22.31H33.44V18.59Z" fill="#E2E2E2"/>
<path d="M29.72 26.03H26V29.75H29.72V26.03Z" fill="#B3B3B3"/>
<path d="M33.44 26.03H29.72V29.75H33.44H37.16H40.88V26.03H37.16H33.44Z" fill="#E2E2E2"/>
<path d="M55.76 7.43005H52.04V11.1501H55.76V7.43005Z" fill="#E2E2E2"/>
<path d="M55.76 3.70996H52.04V7.42996H55.76V3.70996Z" fill="#E2E2E2"/>
<path d="M52.0401 14.87H48.3201V18.59H52.0401V14.87Z" fill="#E2E2E2"/>
<path d="M52.0401 11.15H48.3201V14.87H52.0401V11.15Z" fill="#E2E2E2"/>
<path d="M48.3199 22.3101H44.5999V26.0301H48.3199V22.3101Z" fill="#CACACA"/>
<path d="M48.3199 18.59H44.5999V22.31H48.3199V18.59Z" fill="#E2E2E2"/>
<path d="M44.5999 26.03H40.8799V29.75H44.5999V26.03Z" fill="#B3B3B3"/>
<g style="mix-blend-mode:multiply">
<path d="M40.8799 26.0301H44.5999V22.3101H40.8799H37.1599H33.4399V26.0301H37.1599H40.8799Z" fill="#F8F8F8"/>
</g>
<path d="M25.8799 7.43005H22.1599V11.1501H25.8799V7.43005Z" fill="#E2E2E2"/>
<path d="M25.8799 3.70996H22.1599V7.42996H25.8799V3.70996Z" fill="#E2E2E2"/>
<path d="M22.1599 14.87H18.4399V18.59H22.1599V14.87Z" fill="#E2E2E2"/>
<path d="M22.1599 11.15H18.4399V14.87H22.1599V11.15Z" fill="#E2E2E2"/>
<path d="M18.44 22.3101H14.72V26.0301H18.44V22.3101Z" fill="#CACACA"/>
<path d="M18.44 18.59H14.72V22.31H18.44V18.59Z" fill="#E2E2E2"/>
<path d="M14.72 26.03H11V29.75H14.72V26.03Z" fill="#B3B3B3"/>
<path d="M18.44 26.03H14.72V29.75H18.44H22.16H25.88V26.03H22.16H18.44Z" fill="#E2E2E2"/>
<path d="M40.76 7.43005H37.04V11.1501H40.76V7.43005Z" fill="#E2E2E2"/>
<path d="M40.76 3.70996H37.04V7.42996H40.76V3.70996Z" fill="#E2E2E2"/>
<path d="M37.0401 14.87H33.3201V18.59H37.0401V14.87Z" fill="#E2E2E2"/>
<path d="M37.0401 11.15H33.3201V14.87H37.0401V11.15Z" fill="#E2E2E2"/>
<path d="M33.3199 22.3101H29.5999V26.0301H33.3199V22.3101Z" fill="#CACACA"/>
<path d="M33.3199 18.59H29.5999V22.31H33.3199V18.59Z" fill="#E2E2E2"/>
<path d="M29.5999 26.03H25.8799V29.75H29.5999V26.03Z" fill="#B3B3B3"/>
<g style="mix-blend-mode:multiply">
<path d="M25.8799 26.0301H29.5999V22.3101H25.8799H22.1599H18.4399V26.0301H22.1599H25.8799Z" fill="#F8F8F8"/>
</g>
<path d="M78.0999 26.03H74.3799V29.75H78.0999H81.8199H85.5399V26.03H81.8199H78.0999Z" fill="#E2E2E2"/>
<path d="M107.84 26.03H104.12V29.75H107.84V26.03Z" fill="#E2E2E2"/>
<path d="M107.85 26.03V29.75H111.57H115.29V26.03H111.57H107.85Z" fill="#E2E2E2"/>
<path d="M122.71 26.03H118.99V29.75H122.71V26.03Z" fill="#E2E2E2"/>
<path d="M122.73 26.03V29.75H126.45H130.17V26.03H126.45H122.73Z" fill="#E2E2E2"/>
<path d="M137.61 26.03H133.89V29.75H137.61H141.33H145.05V26.03H141.33H137.61Z" fill="#E2E2E2"/>
<path d="M156.17 26.03H152.49H152.45H148.77V29.75H152.45H152.49H156.17H159.89V26.03H156.17Z" fill="#E2E2E2"/>
<g style="mix-blend-mode:multiply">
<path d="M167.36 26.03H163.64V29.75H167.36V26.03Z" fill="#E2E2E2"/>
</g>
<g style="mix-blend-mode:multiply">
<path d="M171.09 22.3101H167.37V26.0301H171.09V22.3101Z" fill="#F8F8F8"/>
</g>
<path d="M130.17 7.43005H126.45V11.1501H130.17V7.43005Z" fill="#E2E2E2"/>
<path d="M130.17 3.70996H126.45V7.42996H130.17V3.70996Z" fill="#E2E2E2"/>
<path d="M126.45 14.87H122.73V18.59H126.45V14.87Z" fill="#E2E2E2"/>
<path d="M126.45 11.15H122.73V14.87H126.45V11.15Z" fill="#E2E2E2"/>
<path d="M122.73 22.3101H119.01V26.0301H122.73V22.3101Z" fill="#CACACA"/>
<path d="M122.73 18.59H119.01V22.31H122.73V18.59Z" fill="#E2E2E2"/>
<path d="M119.01 26.03H115.29V29.75H119.01V26.03Z" fill="#B3B3B3"/>
<path d="M145.05 7.43005H141.33V11.1501H145.05V7.43005Z" fill="#E2E2E2"/>
<path d="M145.05 3.70996H141.33V7.42996H145.05V3.70996Z" fill="#E2E2E2"/>
<path d="M141.33 14.87H137.61V18.59H141.33V14.87Z" fill="#E2E2E2"/>
<path d="M141.33 11.15H137.61V14.87H141.33V11.15Z" fill="#E2E2E2"/>
<path d="M137.61 22.3101H133.89V26.0301H137.61V22.3101Z" fill="#CACACA"/>
<path d="M137.61 18.59H133.89V22.31H137.61V18.59Z" fill="#E2E2E2"/>
<path d="M133.89 26.03H130.17V29.75H133.89V26.03Z" fill="#B3B3B3"/>
<path d="M159.93 7.43005H156.21V11.1501H159.93V7.43005Z" fill="#E2E2E2"/>
<path d="M159.93 3.70996H156.21V7.42996H159.93V3.70996Z" fill="#E2E2E2"/>
<path d="M156.21 14.87H152.49V18.59H156.21V14.87Z" fill="#E2E2E2"/>
<path d="M156.21 11.15H152.49V14.87H156.21V11.15Z" fill="#E2E2E2"/>
<path d="M152.49 22.3101H148.77V26.0301H152.49V22.3101Z" fill="#CACACA"/>
<path d="M152.49 18.59H148.77V22.31H152.49V18.59Z" fill="#E2E2E2"/>
<path d="M148.77 26.03H145.05V29.75H148.77V26.03Z" fill="#B3B3B3"/>
<path d="M174.81 7.43005H171.09V11.1501H174.81V7.43005Z" fill="#E2E2E2"/>
<path d="M171.09 14.87H167.37V18.59H171.09V14.87Z" fill="#E2E2E2"/>
<path d="M171.09 11.15H167.37V14.87H171.09V11.15Z" fill="#E2E2E2"/>
<path d="M167.37 22.3101H163.65V26.0301H167.37V22.3101Z" fill="#CACACA"/>
<path d="M167.37 18.59H163.65V22.31H167.37V18.59Z" fill="#E2E2E2"/>
<path d="M163.61 26.03H159.89V29.75H163.61V26.03Z" fill="#B3B3B3"/>
<path d="M26.0301 7.43005H22.3101V11.1501H26.0301V7.43005Z" fill="#BE7100"/>
<path d="M26.0301 3.70996H22.3101V7.42996H26.0301V3.70996Z" fill="#A36000"/>
<path d="M22.3101 14.87H18.5901V18.59H22.3101V14.87Z" fill="#A16700"/>
<path d="M22.3101 11.15H18.5901V14.87H22.3101V11.15Z" fill="#A16700"/>
<path d="M22.3101 7.43005H18.5901V11.1501H22.3101V7.43005Z" fill="#FFD69C"/>
<path d="M22.3101 3.70996H18.5901V7.42996H22.3101V3.70996Z" fill="#FFBC57"/>
<path d="M18.5899 22.3101H14.8799V26.0301H18.5899V22.3101Z" fill="#8C5000"/>
<path d="M18.5899 18.59H14.8799V22.31H18.5899V18.59Z" fill="#A16700"/>
<path d="M18.5899 14.87H14.8799V18.59H18.5899V14.87Z" fill="#FF9E03"/>
<path d="M18.5899 11.15H14.8799V14.87H18.5899V11.15Z" fill="#FF9E03"/>
<path d="M18.5899 7.43005H14.8799V11.1501H18.5899V7.43005Z" fill="#FFD69C"/>
<path d="M18.5899 3.70996H14.8799V7.42996H18.5899V3.70996Z" fill="#FFBC57"/>
<path d="M14.8799 26.03H11.1599V29.75H14.8799V26.03Z" fill="#7D4500"/>
<path d="M14.8799 22.3101H11.1599V26.0301H14.8799V22.3101Z" fill="#EB8201"/>
<path d="M14.8799 18.59H11.1599V22.31H14.8799V18.59Z" fill="#FF9E03"/>
<path d="M14.8799 14.87H11.1599V18.59H14.8799V14.87Z" fill="#FF9E03"/>
<path d="M14.8799 11.15H11.1599V14.87H14.8799V11.15Z" fill="#FF9E03"/>
<path d="M14.8799 7.43005H11.1599V11.1501H14.8799V7.43005Z" fill="#FFA21B"/>
<path d="M14.8799 3.70996H11.1599V7.42996H14.8799V3.70996Z" fill="#FFBC57"/>
<path d="M11.1599 22.3101H7.43994V26.0301H11.1599V22.3101Z" fill="#EB8201"/>
<path d="M11.1599 18.59H7.43994V22.31H11.1599V18.59Z" fill="#FF9E03"/>
<path d="M11.1599 14.87H7.43994V18.59H11.1599V14.87Z" fill="#FFA21B"/>
<path d="M11.1599 11.15H7.43994V14.87H11.1599V11.15Z" fill="#FFA21B"/>
<path d="M11.1599 7.43005H7.43994V11.1501H11.1599V7.43005Z" fill="#FFBC57"/>
<path d="M7.43997 22.3101H3.71997V26.0301H7.43997V22.3101Z" fill="#FF9E03"/>
<path d="M7.43997 18.59H3.71997V22.31H7.43997V18.59Z" fill="#FFA21B"/>
<path d="M7.43997 14.87H3.71997V18.59H7.43997V14.87Z" fill="#FFBC57"/>
<path d="M7.43997 11.15H3.71997V14.87H7.43997V11.15Z" fill="#FFD69C"/>
<path d="M7.43997 7.43005H3.71997V11.1501H7.43997V7.43005Z" fill="#FFD69C"/>
<path d="M174.79 14.8701V18.5901V22.3101V26.0301H178.51V22.3101V18.5901V14.8701V11.1501V7.43005H174.79V11.1501V14.8701Z" fill="#1D2920"/>
<path d="M167.35 26.03V29.75H171.07H174.79V26.03H171.07H167.35Z" fill="#1D2920"/>
<path d="M171.07 7.42996H174.79V3.70996H171.07H167.35V7.42996H171.07Z" fill="#1D2920"/>
<path d="M159.92 29.75H156.2H152.48H148.76H145.04H141.32H137.6H133.88H130.16H126.45H122.73H119.01H115.29H111.57H107.85H104.13H100.41H96.6899H92.9699H89.2599H85.5399H81.8199H78.0999H74.3799H70.6599H66.9399H63.2199H59.4999H55.7799H52.0699H48.3499H44.6299H40.9099H37.1899H33.4699H29.7499H26.0299H22.3099H18.5899H14.8799H11.1599V33.47H14.8799H18.5899H22.3099H26.0299H29.7499H33.4699H37.1899H40.9099H44.6299H48.3499H52.0699H55.7799H59.4999H63.2199H66.9399H70.6599H74.3799H78.0999H81.8199H85.5399H89.2599H92.9699H96.6899H100.41H104.13H107.85H111.57H115.29H119.01H122.73H126.45H130.16H133.88H137.6H141.32H145.04H148.76H152.48H156.2H159.92H163.64H167.35V29.75H163.64H159.92Z" fill="#1D2920"/>
<path d="M18.5899 3.71H22.3099H26.0299H29.7499H33.4699H37.1899H40.9099H44.6299H48.3499H52.0699H55.7799H59.4999H63.2199H66.9399H70.6599H74.3799H78.0999H81.8199H85.5399H89.2599H92.9699H96.6899H100.41H104.13H107.85H111.57H115.29H119.01H122.73H126.45H130.16H133.88H137.6H141.32H145.04H148.76H152.48H156.2H159.92H163.64H167.35V0H163.64H159.92H156.2H152.48H148.76H145.04H141.32H137.6H133.88H130.16H126.45H122.73H119.01H115.29H111.57H107.85H104.13H100.41H96.6899H92.9699H89.2599H85.5399H81.8199H78.0999H74.3799H70.6599H66.9399H63.2199H59.4999H55.7799H52.0699H48.3499H44.6299H40.9099H37.1899H33.4699H29.7499H26.0299H22.3099H18.5899H14.8799H11.1599V3.71H14.8799H18.5899Z" fill="#1D2920"/>
<path d="M7.43997 26.03H3.71997V29.75H7.43997H11.16V26.03H7.43997Z" fill="#1D2920"/>
<path d="M11.16 7.42996V3.70996H7.43997H3.71997V7.42996H7.43997H11.16Z" fill="#1D2920"/>
<path d="M3.72 22.3101V18.5901V14.8701V11.1501V7.43005H0V11.1501V14.8701V18.5901V22.3101V26.0301H3.72V22.3101Z" fill="#1D2920"/>
<g style="mix-blend-mode:multiply">
<path d="M85.5401 26.0301H89.2601V22.3101H85.5401H81.8201H78.1001V26.0301H81.8201H85.5401Z" fill="#F8F8F8"/>
</g>
<path d="M100.41 7.43005H96.6899V11.1501H100.41V7.43005Z" fill="#E2E2E2"/>
<path d="M100.41 3.70996H96.6899V7.42996H100.41V3.70996Z" fill="#E2E2E2"/>
<path d="M96.69 14.87H92.97V18.59H96.69V14.87Z" fill="#E2E2E2"/>
<path d="M96.69 11.15H92.97V14.87H96.69V11.15Z" fill="#E2E2E2"/>
<path d="M92.97 22.3101H89.25V26.0301H92.97V22.3101Z" fill="#CACACA"/>
<path d="M92.97 18.59H89.25V22.31H92.97V18.59Z" fill="#E2E2E2"/>
<path d="M89.25 26.03H85.53V29.75H89.25V26.03Z" fill="#B3B3B3"/>
<path d="M92.97 26.03H89.25V29.75H92.97H96.69H100.41V26.03H96.69H92.97Z" fill="#E2E2E2"/>
<path d="M115.29 7.43005H111.57V11.1501H115.29V7.43005Z" fill="#E2E2E2"/>
<path d="M115.29 3.70996H111.57V7.42996H115.29V3.70996Z" fill="#E2E2E2"/>
<path d="M111.57 14.87H107.85V18.59H111.57V14.87Z" fill="#E2E2E2"/>
<path d="M111.57 11.15H107.85V14.87H111.57V11.15Z" fill="#E2E2E2"/>
<path d="M107.85 22.3101H104.13V26.0301H107.85V22.3101Z" fill="#CACACA"/>
<path d="M107.85 18.59H104.13V22.31H107.85V18.59Z" fill="#E2E2E2"/>
<path d="M104.13 26.03H100.41V29.75H104.13V26.03Z" fill="#B3B3B3"/>
<g style="mix-blend-mode:multiply">
<path d="M100.41 26.0301H104.13V22.3101H100.41H96.69H92.97V26.0301H96.69H100.41Z" fill="#F8F8F8"/>
</g>
<path d="M70.8799 7.43005H67.1599V11.1501H70.8799V7.43005Z" fill="#E2E2E2"/>
<path d="M70.8799 3.70996H67.1599V7.42996H70.8799V3.70996Z" fill="#E2E2E2"/>
<path d="M67.1599 14.87H63.4399V18.59H67.1599V14.87Z" fill="#E2E2E2"/>
<path d="M67.1599 11.15H63.4399V14.87H67.1599V11.15Z" fill="#E2E2E2"/>
<path d="M63.44 22.3101H59.72V26.0301H63.44V22.3101Z" fill="#CACACA"/>
<path d="M63.44 18.59H59.72V22.31H63.44V18.59Z" fill="#E2E2E2"/>
<path d="M59.72 26.03H56V29.75H59.72V26.03Z" fill="#B3B3B3"/>
<path d="M63.44 26.03H59.72V29.75H63.44H67.16H70.88V26.03H67.16H63.44Z" fill="#E2E2E2"/>
<path d="M85.76 7.43005H82.04V11.1501H85.76V7.43005Z" fill="#E2E2E2"/>
<path d="M85.76 3.70996H82.04V7.42996H85.76V3.70996Z" fill="#E2E2E2"/>
<path d="M82.0401 14.87H78.3201V18.59H82.0401V14.87Z" fill="#E2E2E2"/>
<path d="M82.0401 11.15H78.3201V14.87H82.0401V11.15Z" fill="#E2E2E2"/>
<path d="M78.3199 22.3101H74.5999V26.0301H78.3199V22.3101Z" fill="#CACACA"/>
<path d="M78.3199 18.59H74.5999V22.31H78.3199V18.59Z" fill="#E2E2E2"/>
<path d="M74.5999 26.03H70.8799V29.75H74.5999V26.03Z" fill="#B3B3B3"/>
<g style="mix-blend-mode:multiply">
<path d="M70.8799 26.0301H74.5999V22.3101H70.8799H67.1599H63.4399V26.0301H67.1599H70.8799Z" fill="#F8F8F8"/>
</g>
<path d="M55.8799 7.43005H52.1599V11.1501H55.8799V7.43005Z" fill="#E2E2E2"/>
<path d="M55.8799 3.70996H52.1599V7.42996H55.8799V3.70996Z" fill="#E2E2E2"/>
<path d="M52.1599 14.87H48.4399V18.59H52.1599V14.87Z" fill="#E2E2E2"/>
<path d="M52.1599 11.15H48.4399V14.87H52.1599V11.15Z" fill="#E2E2E2"/>
<path d="M48.44 22.3101H44.72V26.0301H48.44V22.3101Z" fill="#CACACA"/>
<path d="M48.44 18.59H44.72V22.31H48.44V18.59Z" fill="#E2E2E2"/>
<path d="M44.72 26.03H41V29.75H44.72V26.03Z" fill="#B3B3B3"/>
<path d="M48.44 26.03H44.72V29.75H48.44H52.16H55.88V26.03H52.16H48.44Z" fill="#E2E2E2"/>
<path d="M70.76 7.43005H67.04V11.1501H70.76V7.43005Z" fill="#E2E2E2"/>
<path d="M70.76 3.70996H67.04V7.42996H70.76V3.70996Z" fill="#E2E2E2"/>
<path d="M67.0401 14.87H63.3201V18.59H67.0401V14.87Z" fill="#E2E2E2"/>
<path d="M67.0401 11.15H63.3201V14.87H67.0401V11.15Z" fill="#E2E2E2"/>
<path d="M63.3199 22.3101H59.5999V26.0301H63.3199V22.3101Z" fill="#CACACA"/>
<path d="M63.3199 18.59H59.5999V22.31H63.3199V18.59Z" fill="#E2E2E2"/>
<path d="M59.5999 26.03H55.8799V29.75H59.5999V26.03Z" fill="#B3B3B3"/>
<g style="mix-blend-mode:multiply">
<path d="M55.8799 26.0301H59.5999V22.3101H55.8799H52.1599H48.4399V26.0301H52.1599H55.8799Z" fill="#F8F8F8"/>
</g>
<g style="mix-blend-mode:multiply">
<path d="M115.28 26.0301H119V22.3101H115.28H111.56H107.84V26.0301H111.56H115.28Z" fill="#F8F8F8"/>
</g>
<g style="mix-blend-mode:multiply">
<path d="M130.15 26.0301H133.87V22.3101H130.15H126.43H122.71V26.0301H126.43H130.15Z" fill="#F8F8F8"/>
</g>
<g style="mix-blend-mode:multiply">
<path d="M145.02 26.0301H148.74V22.3101H145.02H141.3H137.58V26.0301H141.3H145.02Z" fill="#F8F8F8"/>
</g>
<g style="mix-blend-mode:multiply">
<path d="M159.89 26.0301H163.61V22.3101H159.89H156.17H152.45V26.0301H156.17H159.89Z" fill="#F8F8F8"/>
</g>
<g style="mix-blend-mode:multiply">
<path d="M174.79 18.59V14.87V11.15H171.07V14.87V18.59V22.31V26.03H174.79V22.31V18.59Z" fill="#F8F8F8"/>
</g>
<g style="mix-blend-mode:multiply">
<path d="M167.35 29.75V33.47H171.07H174.79V29.75H171.07H167.35Z" fill="#F8F8F8"/>
</g>
<g style="mix-blend-mode:multiply">
<path d="M178.51 11.15V26.03H174.79V29.75H178.51H182.23V11.15H178.51Z" fill="#F8F8F8"/>
</g>
<g style="mix-blend-mode:multiply">
<path d="M167.35 33.47H14.8799V37.19H167.35V33.47Z" fill="#F8F8F8"/>
</g>
</svg>
