<svg width="183" height="38" viewBox="0 0 183 38" fill="none" xmlns="http://www.w3.org/2000/svg">
<path d="M40.8799 7.43005H37.1599V11.1501H40.8799V7.43005Z" fill="#E2E2E2"/>
<path d="M40.8799 3.70996H37.1599V7.42996H40.8799V3.70996Z" fill="#E2E2E2"/>
<path d="M37.1599 14.87H33.4399V18.59H37.1599V14.87Z" fill="#E2E2E2"/>
<path d="M37.1599 11.15H33.4399V14.87H37.1599V11.15Z" fill="#E2E2E2"/>
<path d="M33.44 22.3101H29.72V26.0301H33.44V22.3101Z" fill="#CACACA"/>
<path d="M33.44 18.59H29.72V22.31H33.44V18.59Z" fill="#E2E2E2"/>
<path d="M29.72 26.03H26V29.75H29.72V26.03Z" fill="#B3B3B3"/>
<path d="M33.44 26.03H29.72V29.75H33.44H37.16H40.88V26.03H37.16H33.44Z" fill="#E2E2E2"/>
<path d="M55.76 7.43005H52.04V11.1501H55.76V7.43005Z" fill="#E2E2E2"/>
<path d="M55.76 3.70996H52.04V7.42996H55.76V3.70996Z" fill="#E2E2E2"/>
<path d="M52.0401 14.87H48.3201V18.59H52.0401V14.87Z" fill="#E2E2E2"/>
<path d="M52.0401 11.15H48.3201V14.87H52.0401V11.15Z" fill="#E2E2E2"/>
<path d="M48.3199 22.3101H44.5999V26.0301H48.3199V22.3101Z" fill="#CACACA"/>
<path d="M48.3199 18.59H44.5999V22.31H48.3199V18.59Z" fill="#E2E2E2"/>
<path d="M44.5999 26.03H40.8799V29.75H44.5999V26.03Z" fill="#B3B3B3"/>
<g style="mix-blend-mode:multiply">
<path d="M40.8799 26.0301H44.5999V22.3101H40.8799H37.1599H33.4399V26.0301H37.1599H40.8799Z" fill="#F8F8F8"/>
</g>
<path d="M78.0999 26.03H74.3799V29.75H78.0999H81.8199H85.5399V26.03H81.8199H78.0999Z" fill="#E2E2E2"/>
<path d="M107.84 26.03H104.12V29.75H107.84V26.03Z" fill="#E2E2E2"/>
<path d="M107.85 26.03V29.75H111.57H115.29V26.03H111.57H107.85Z" fill="#E2E2E2"/>
<path d="M122.71 26.03H118.99V29.75H122.71V26.03Z" fill="#E2E2E2"/>
<path d="M122.73 26.03V29.75H126.45H130.17V26.03H126.45H122.73Z" fill="#E2E2E2"/>
<path d="M137.61 26.03H133.89V29.75H137.61H141.33H145.05V26.03H141.33H137.61Z" fill="#E2E2E2"/>
<path d="M156.17 26.03H152.49H152.45H148.77V29.75H152.45H152.49H156.17H159.89V26.03H156.17Z" fill="#E2E2E2"/>
<g style="mix-blend-mode:multiply">
<path d="M167.36 26.03H163.64V29.75H167.36V26.03Z" fill="#E2E2E2"/>
</g>
<g style="mix-blend-mode:multiply">
<path d="M171.09 22.3101H167.37V26.0301H171.09V22.3101Z" fill="#F8F8F8"/>
</g>
<path d="M130.17 7.43005H126.45V11.1501H130.17V7.43005Z" fill="#E2E2E2"/>
<path d="M130.17 3.70996H126.45V7.42996H130.17V3.70996Z" fill="#E2E2E2"/>
<path d="M126.45 14.87H122.73V18.59H126.45V14.87Z" fill="#E2E2E2"/>
<path d="M126.45 11.15H122.73V14.87H126.45V11.15Z" fill="#E2E2E2"/>
<path d="M122.73 22.3101H119.01V26.0301H122.73V22.3101Z" fill="#CACACA"/>
<path d="M122.73 18.59H119.01V22.31H122.73V18.59Z" fill="#E2E2E2"/>
<path d="M119.01 26.03H115.29V29.75H119.01V26.03Z" fill="#B3B3B3"/>
<path d="M145.05 7.43005H141.33V11.1501H145.05V7.43005Z" fill="#E2E2E2"/>
<path d="M145.05 3.70996H141.33V7.42996H145.05V3.70996Z" fill="#E2E2E2"/>
<path d="M141.33 14.87H137.61V18.59H141.33V14.87Z" fill="#E2E2E2"/>
<path d="M141.33 11.15H137.61V14.87H141.33V11.15Z" fill="#E2E2E2"/>
<path d="M137.61 22.3101H133.89V26.0301H137.61V22.3101Z" fill="#CACACA"/>
<path d="M137.61 18.59H133.89V22.31H137.61V18.59Z" fill="#E2E2E2"/>
<path d="M133.89 26.03H130.17V29.75H133.89V26.03Z" fill="#B3B3B3"/>
<path d="M159.93 7.43005H156.21V11.1501H159.93V7.43005Z" fill="#E2E2E2"/>
<path d="M159.93 3.70996H156.21V7.42996H159.93V3.70996Z" fill="#E2E2E2"/>
<path d="M156.21 14.87H152.49V18.59H156.21V14.87Z" fill="#E2E2E2"/>
<path d="M156.21 11.15H152.49V14.87H156.21V11.15Z" fill="#E2E2E2"/>
<path d="M152.49 22.3101H148.77V26.0301H152.49V22.3101Z" fill="#CACACA"/>
<path d="M152.49 18.59H148.77V22.31H152.49V18.59Z" fill="#E2E2E2"/>
<path d="M148.77 26.03H145.05V29.75H148.77V26.03Z" fill="#B3B3B3"/>
<path d="M174.81 7.43005H171.09V11.1501H174.81V7.43005Z" fill="#E2E2E2"/>
<path d="M171.09 14.87H167.37V18.59H171.09V14.87Z" fill="#E2E2E2"/>
<path d="M171.09 11.15H167.37V14.87H171.09V11.15Z" fill="#E2E2E2"/>
<path d="M167.37 22.3101H163.65V26.0301H167.37V22.3101Z" fill="#CACACA"/>
<path d="M167.37 18.59H163.65V22.31H167.37V18.59Z" fill="#E2E2E2"/>
<path d="M163.61 26.03H159.89V29.75H163.61V26.03Z" fill="#B3B3B3"/>
<path d="M40.76 7.42993H37.04V11.1499H40.76V7.42993Z" fill="#BE7100"/>
<path d="M40.76 3.70996H37.04V7.42996H40.76V3.70996Z" fill="#A36000"/>
<path d="M37.0401 14.87H33.3201V18.59H37.0401V14.87Z" fill="#A16700"/>
<path d="M37.0401 11.1499H33.3201V14.8699H37.0401V11.1499Z" fill="#A16700"/>
<path d="M37.0401 7.42993H33.3201V11.1499H37.0401V7.42993Z" fill="#FFD69C"/>
<path d="M37.0401 3.70996H33.3201V7.42996H37.0401V3.70996Z" fill="#FFBC57"/>
<path d="M33.3199 22.3099H29.5999V26.0299H33.3199V22.3099Z" fill="#8C5000"/>
<path d="M33.3199 18.59H29.5999V22.31H33.3199V18.59Z" fill="#A16700"/>
<path d="M33.3199 14.87H29.5999V18.59H33.3199V14.87Z" fill="#FF9E03"/>
<path d="M33.3199 11.1499H29.5999V14.8699H33.3199V11.1499Z" fill="#FF9E03"/>
<path d="M33.3199 7.42993H29.5999V11.1499H33.3199V7.42993Z" fill="#FFD69C"/>
<path d="M33.3199 3.70996H29.5999V7.42996H33.3199V3.70996Z" fill="#FFBC57"/>
<path d="M29.5999 26.0299H25.8799V29.7499H29.5999V26.0299Z" fill="#7D4500"/>
<path d="M29.5999 22.3099H25.8799V26.0299H29.5999V22.3099Z" fill="#EB8201"/>
<path d="M29.5999 18.59H25.8799V22.31H29.5999V18.59Z" fill="#FF9E03"/>
<path d="M29.5999 14.87H25.8799V18.59H29.5999V14.87Z" fill="#FF9E03"/>
<path d="M29.5999 11.1499H25.8799V14.8699H29.5999V11.1499Z" fill="#FF9E03"/>
<path d="M29.5999 7.42993H25.8799V11.1499H29.5999V7.42993Z" fill="#FFD69C"/>
<path d="M29.5999 3.70996H25.8799V7.42996H29.5999V3.70996Z" fill="#FFBC57"/>
<path d="M25.8799 26.0299H22.1599V29.7499H25.8799V26.0299Z" fill="#B96400"/>
<path d="M25.8799 22.3099H22.1599V26.0299H25.8799V22.3099Z" fill="#EB8201"/>
<path d="M25.8799 18.59H22.1599V22.31H25.8799V18.59Z" fill="#FF9E03"/>
<path d="M25.8799 14.87H22.1599V18.59H25.8799V14.87Z" fill="#FF9E03"/>
<path d="M25.8799 11.1499H22.1599V14.8699H25.8799V11.1499Z" fill="#FF9E03"/>
<path d="M25.8799 7.42993H22.1599V11.1499H25.8799V7.42993Z" fill="#BE7100"/>
<path d="M25.8799 3.70996H22.1599V7.42996H25.8799V3.70996Z" fill="#A36000"/>
<path d="M22.1599 26.0299H18.4399V29.7499H22.1599V26.0299Z" fill="#B96400"/>
<path d="M22.1599 22.3099H18.4399V26.0299H22.1599V22.3099Z" fill="#EB8201"/>
<path d="M22.1599 18.59H18.4399V22.31H22.1599V18.59Z" fill="#FF9E03"/>
<path d="M22.1599 14.87H18.4399V18.59H22.1599V14.87Z" fill="#A16700"/>
<path d="M22.1599 11.1499H18.4399V14.8699H22.1599V11.1499Z" fill="#A16700"/>
<path d="M18.44 26.0299H14.72V29.7499H18.44V26.0299Z" fill="#B96400"/>
<path d="M18.44 22.3099H14.72V26.0299H18.44V22.3099Z" fill="#8C5000"/>
<path d="M18.44 18.59H14.72V22.31H18.44V18.59Z" fill="#A16700"/>
<path d="M14.72 26.0299H11V29.7499H14.72V26.0299Z" fill="#7D4500"/>
<path d="M26.0301 7.43005H22.3101V11.1501H26.0301V7.43005Z" fill="#BE7100"/>
<path d="M26.0301 3.70996H22.3101V7.42996H26.0301V3.70996Z" fill="#A36000"/>
<path d="M22.3101 14.87H18.5901V18.59H22.3101V14.87Z" fill="#A16700"/>
<path d="M22.3101 11.15H18.5901V14.87H22.3101V11.15Z" fill="#A16700"/>
<path d="M22.3101 7.43005H18.5901V11.1501H22.3101V7.43005Z" fill="#FFD69C"/>
<path d="M22.3101 3.70996H18.5901V7.42996H22.3101V3.70996Z" fill="#FFBC57"/>
<path d="M18.5899 22.3101H14.8799V26.0301H18.5899V22.3101Z" fill="#8C5000"/>
<path d="M18.5899 18.59H14.8799V22.31H18.5899V18.59Z" fill="#A16700"/>
<path d="M18.5899 14.87H14.8799V18.59H18.5899V14.87Z" fill="#FF9E03"/>
<path d="M18.5899 11.15H14.8799V14.87H18.5899V11.15Z" fill="#FF9E03"/>
<path d="M18.5899 7.43005H14.8799V11.1501H18.5899V7.43005Z" fill="#FFD69C"/>
<path d="M18.5899 3.70996H14.8799V7.42996H18.5899V3.70996Z" fill="#FFBC57"/>
<path d="M14.8799 26.03H11.1599V29.75H14.8799V26.03Z" fill="#7D4500"/>
<path d="M14.8799 22.3101H11.1599V26.0301H14.8799V22.3101Z" fill="#EB8201"/>
<path d="M14.8799 18.59H11.1599V22.31H14.8799V18.59Z" fill="#FF9E03"/>
<path d="M14.8799 14.87H11.1599V18.59H14.8799V14.87Z" fill="#FF9E03"/>
<path d="M14.8799 11.15H11.1599V14.87H14.8799V11.15Z" fill="#FF9E03"/>
<path d="M14.8799 7.43005H11.1599V11.1501H14.8799V7.43005Z" fill="#FFA21B"/>
<path d="M14.8799 3.70996H11.1599V7.42996H14.8799V3.70996Z" fill="#FFBC57"/>
<path d="M11.1599 22.3101H7.43994V26.0301H11.1599V22.3101Z" fill="#EB8201"/>
<path d="M11.1599 18.59H7.43994V22.31H11.1599V18.59Z" fill="#FF9E03"/>
<path d="M11.1599 14.87H7.43994V18.59H11.1599V14.87Z" fill="#FFA21B"/>
<path d="M11.1599 11.15H7.43994V14.87H11.1599V11.15Z" fill="#FFA21B"/>
<path d="M11.1599 7.43005H7.43994V11.1501H11.1599V7.43005Z" fill="#FFBC57"/>
<path d="M7.43997 22.3101H3.71997V26.0301H7.43997V22.3101Z" fill="#FF9E03"/>
<path d="M7.43997 18.59H3.71997V22.31H7.43997V18.59Z" fill="#FFA21B"/>
<path d="M7.43997 14.87H3.71997V18.59H7.43997V14.87Z" fill="#FFBC57"/>
<path d="M7.43997 11.15H3.71997V14.87H7.43997V11.15Z" fill="#FFD69C"/>
<path d="M7.43997 7.43005H3.71997V11.1501H7.43997V7.43005Z" fill="#FFD69C"/>
<path d="M174.79 14.8701V18.5901V22.3101V26.0301H178.51V22.3101V18.5901V14.8701V11.1501V7.43005H174.79V11.1501V14.8701Z" fill="#1D2920"/>
<path d="M167.35 26.03V29.75H171.07H174.79V26.03H171.07H167.35Z" fill="#1D2920"/>
<path d="M171.07 7.42996H174.79V3.70996H171.07H167.35V7.42996H171.07Z" fill="#1D2920"/>
<path d="M159.92 29.75H156.2H152.48H148.76H145.04H141.32H137.6H133.88H130.16H126.45H122.73H119.01H115.29H111.57H107.85H104.13H100.41H96.6899H92.9699H89.2599H85.5399H81.8199H78.0999H74.3799H70.6599H66.9399H63.2199H59.4999H55.7799H52.0699H48.3499H44.6299H40.9099H37.1899H33.4699H29.7499H26.0299H22.3099H18.5899H14.8799H11.1599V33.47H14.8799H18.5899H22.3099H26.0299H29.7499H33.4699H37.1899H40.9099H44.6299H48.3499H52.0699H55.7799H59.4999H63.2199H66.9399H70.6599H74.3799H78.0999H81.8199H85.5399H89.2599H92.9699H96.6899H100.41H104.13H107.85H111.57H115.29H119.01H122.73H126.45H130.16H133.88H137.6H141.32H145.04H148.76H152.48H156.2H159.92H163.64H167.35V29.75H163.64H159.92Z" fill="#1D2920"/>
<path d="M18.5899 3.71H22.3099H26.0299H29.7499H33.4699H37.1899H40.9099H44.6299H48.3499H52.0699H55.7799H59.4999H63.2199H66.9399H70.6599H74.3799H78.0999H81.8199H85.5399H89.2599H92.9699H96.6899H100.41H104.13H107.85H111.57H115.29H119.01H122.73H126.45H130.16H133.88H137.6H141.32H145.04H148.76H152.48H156.2H159.92H163.64H167.35V0H163.64H159.92H156.2H152.48H148.76H145.04H141.32H137.6H133.88H130.16H126.45H122.73H119.01H115.29H111.57H107.85H104.13H100.41H96.6899H92.9699H89.2599H85.5399H81.8199H78.0999H74.3799H70.6599H66.9399H63.2199H59.4999H55.7799H52.0699H48.3499H44.6299H40.9099H37.1899H33.4699H29.7499H26.0299H22.3099H18.5899H14.8799H11.1599V3.71H14.8799H18.5899Z" fill="#1D2920"/>
<path d="M7.43997 26.03H3.71997V29.75H7.43997H11.16V26.03H7.43997Z" fill="#1D2920"/>
<path d="M11.16 7.42996V3.70996H7.43997H3.71997V7.42996H7.43997H11.16Z" fill="#1D2920"/>
<path d="M3.72 22.3101V18.5901V14.8701V11.1501V7.43005H0V11.1501V14.8701V18.5901V22.3101V26.0301H3.72V22.3101Z" fill="#1D2920"/>
<g style="mix-blend-mode:multiply">
<path d="M85.5401 26.0301H89.2601V22.3101H85.5401H81.8201H78.1001V26.0301H81.8201H85.5401Z" fill="#F8F8F8"/>
</g>
<path d="M100.41 7.43005H96.6899V11.1501H100.41V7.43005Z" fill="#E2E2E2"/>
<path d="M100.41 3.70996H96.6899V7.42996H100.41V3.70996Z" fill="#E2E2E2"/>
<path d="M96.69 14.87H92.97V18.59H96.69V14.87Z" fill="#E2E2E2"/>
<path d="M96.69 11.15H92.97V14.87H96.69V11.15Z" fill="#E2E2E2"/>
<path d="M92.97 22.3101H89.25V26.0301H92.97V22.3101Z" fill="#CACACA"/>
<path d="M92.97 18.59H89.25V22.31H92.97V18.59Z" fill="#E2E2E2"/>
<path d="M89.25 26.03H85.53V29.75H89.25V26.03Z" fill="#B3B3B3"/>
<path d="M92.97 26.03H89.25V29.75H92.97H96.69H100.41V26.03H96.69H92.97Z" fill="#E2E2E2"/>
<path d="M115.29 7.43005H111.57V11.1501H115.29V7.43005Z" fill="#E2E2E2"/>
<path d="M115.29 3.70996H111.57V7.42996H115.29V3.70996Z" fill="#E2E2E2"/>
<path d="M111.57 14.87H107.85V18.59H111.57V14.87Z" fill="#E2E2E2"/>
<path d="M111.57 11.15H107.85V14.87H111.57V11.15Z" fill="#E2E2E2"/>
<path d="M107.85 22.3101H104.13V26.0301H107.85V22.3101Z" fill="#CACACA"/>
<path d="M107.85 18.59H104.13V22.31H107.85V18.59Z" fill="#E2E2E2"/>
<path d="M104.13 26.03H100.41V29.75H104.13V26.03Z" fill="#B3B3B3"/>
<g style="mix-blend-mode:multiply">
<path d="M100.41 26.0301H104.13V22.3101H100.41H96.69H92.97V26.0301H96.69H100.41Z" fill="#F8F8F8"/>
</g>
<path d="M70.8799 7.43005H67.1599V11.1501H70.8799V7.43005Z" fill="#E2E2E2"/>
<path d="M70.8799 3.70996H67.1599V7.42996H70.8799V3.70996Z" fill="#E2E2E2"/>
<path d="M67.1599 14.87H63.4399V18.59H67.1599V14.87Z" fill="#E2E2E2"/>
<path d="M67.1599 11.15H63.4399V14.87H67.1599V11.15Z" fill="#E2E2E2"/>
<path d="M63.44 22.3101H59.72V26.0301H63.44V22.3101Z" fill="#CACACA"/>
<path d="M63.44 18.59H59.72V22.31H63.44V18.59Z" fill="#E2E2E2"/>
<path d="M59.72 26.03H56V29.75H59.72V26.03Z" fill="#B3B3B3"/>
<path d="M63.44 26.03H59.72V29.75H63.44H67.16H70.88V26.03H67.16H63.44Z" fill="#E2E2E2"/>
<path d="M85.76 7.43005H82.04V11.1501H85.76V7.43005Z" fill="#E2E2E2"/>
<path d="M85.76 3.70996H82.04V7.42996H85.76V3.70996Z" fill="#E2E2E2"/>
<path d="M82.0401 14.87H78.3201V18.59H82.0401V14.87Z" fill="#E2E2E2"/>
<path d="M82.0401 11.15H78.3201V14.87H82.0401V11.15Z" fill="#E2E2E2"/>
<path d="M78.3199 22.3101H74.5999V26.0301H78.3199V22.3101Z" fill="#CACACA"/>
<path d="M78.3199 18.59H74.5999V22.31H78.3199V18.59Z" fill="#E2E2E2"/>
<path d="M74.5999 26.03H70.8799V29.75H74.5999V26.03Z" fill="#B3B3B3"/>
<g style="mix-blend-mode:multiply">
<path d="M70.8799 26.0301H74.5999V22.3101H70.8799H67.1599H63.4399V26.0301H67.1599H70.8799Z" fill="#F8F8F8"/>
</g>
<path d="M55.8799 7.43005H52.1599V11.1501H55.8799V7.43005Z" fill="#E2E2E2"/>
<path d="M55.8799 3.70996H52.1599V7.42996H55.8799V3.70996Z" fill="#E2E2E2"/>
<path d="M52.1599 14.87H48.4399V18.59H52.1599V14.87Z" fill="#E2E2E2"/>
<path d="M52.1599 11.15H48.4399V14.87H52.1599V11.15Z" fill="#E2E2E2"/>
<path d="M48.44 22.3101H44.72V26.0301H48.44V22.3101Z" fill="#CACACA"/>
<path d="M48.44 18.59H44.72V22.31H48.44V18.59Z" fill="#E2E2E2"/>
<path d="M44.72 26.03H41V29.75H44.72V26.03Z" fill="#B3B3B3"/>
<path d="M48.44 26.03H44.72V29.75H48.44H52.16H55.88V26.03H52.16H48.44Z" fill="#E2E2E2"/>
<path d="M70.76 7.43005H67.04V11.1501H70.76V7.43005Z" fill="#E2E2E2"/>
<path d="M70.76 3.70996H67.04V7.42996H70.76V3.70996Z" fill="#E2E2E2"/>
<path d="M67.0401 14.87H63.3201V18.59H67.0401V14.87Z" fill="#E2E2E2"/>
<path d="M67.0401 11.15H63.3201V14.87H67.0401V11.15Z" fill="#E2E2E2"/>
<path d="M63.3199 22.3101H59.5999V26.0301H63.3199V22.3101Z" fill="#CACACA"/>
<path d="M63.3199 18.59H59.5999V22.31H63.3199V18.59Z" fill="#E2E2E2"/>
<path d="M59.5999 26.03H55.8799V29.75H59.5999V26.03Z" fill="#B3B3B3"/>
<g style="mix-blend-mode:multiply">
<path d="M55.8799 26.0301H59.5999V22.3101H55.8799H52.1599H48.4399V26.0301H52.1599H55.8799Z" fill="#F8F8F8"/>
</g>
<g style="mix-blend-mode:multiply">
<path d="M115.28 26.0301H119V22.3101H115.28H111.56H107.84V26.0301H111.56H115.28Z" fill="#F8F8F8"/>
</g>
<g style="mix-blend-mode:multiply">
<path d="M130.15 26.0301H133.87V22.3101H130.15H126.43H122.71V26.0301H126.43H130.15Z" fill="#F8F8F8"/>
</g>
<g style="mix-blend-mode:multiply">
<path d="M145.02 26.0301H148.74V22.3101H145.02H141.3H137.58V26.0301H141.3H145.02Z" fill="#F8F8F8"/>
</g>
<g style="mix-blend-mode:multiply">
<path d="M159.89 26.0301H163.61V22.3101H159.89H156.17H152.45V26.0301H156.17H159.89Z" fill="#F8F8F8"/>
</g>
<g style="mix-blend-mode:multiply">
<path d="M174.79 18.59V14.87V11.15H171.07V14.87V18.59V22.31V26.03H174.79V22.31V18.59Z" fill="#F8F8F8"/>
</g>
<g style="mix-blend-mode:multiply">
<path d="M167.35 29.75V33.47H171.07H174.79V29.75H171.07H167.35Z" fill="#F8F8F8"/>
</g>
<g style="mix-blend-mode:multiply">
<path d="M178.51 11.15V26.03H174.79V29.75H178.51H182.23V11.15H178.51Z" fill="#F8F8F8"/>
</g>
<g style="mix-blend-mode:multiply">
<path d="M167.47 34H15V37.72H167.47V34Z" fill="#F8F8F8"/>
</g>
<path d="M55.76 7.42993H52.04V11.1499H55.76V7.42993Z" fill="#BE7100"/>
<path d="M55.76 3.70996H52.04V7.42996H55.76V3.70996Z" fill="#A36000"/>
<path d="M52.0401 14.87H48.3201V18.59H52.0401V14.87Z" fill="#A16700"/>
<path d="M52.0401 11.1499H48.3201V14.8699H52.0401V11.1499Z" fill="#A16700"/>
<path d="M52.0401 7.42993H48.3201V11.1499H52.0401V7.42993Z" fill="#FFD69C"/>
<path d="M52.0401 3.70996H48.3201V7.42996H52.0401V3.70996Z" fill="#FFBC57"/>
<path d="M48.3199 22.3099H44.5999V26.0299H48.3199V22.3099Z" fill="#8C5000"/>
<path d="M48.3199 18.59H44.5999V22.31H48.3199V18.59Z" fill="#A16700"/>
<path d="M48.3199 14.87H44.5999V18.59H48.3199V14.87Z" fill="#FF9E03"/>
<path d="M48.3199 11.1499H44.5999V14.8699H48.3199V11.1499Z" fill="#FF9E03"/>
<path d="M48.3199 7.42993H44.5999V11.1499H48.3199V7.42993Z" fill="#FFD69C"/>
<path d="M48.3199 3.70996H44.5999V7.42996H48.3199V3.70996Z" fill="#FFBC57"/>
<path d="M44.5999 26.0299H40.8799V29.7499H44.5999V26.0299Z" fill="#7D4500"/>
<path d="M44.5999 22.3099H40.8799V26.0299H44.5999V22.3099Z" fill="#EB8201"/>
<path d="M44.5999 18.59H40.8799V22.31H44.5999V18.59Z" fill="#FF9E03"/>
<path d="M44.5999 14.87H40.8799V18.59H44.5999V14.87Z" fill="#FF9E03"/>
<path d="M44.5999 11.1499H40.8799V14.8699H44.5999V11.1499Z" fill="#FF9E03"/>
<path d="M44.5999 7.42993H40.8799V11.1499H44.5999V7.42993Z" fill="#FFD69C"/>
<path d="M44.5999 3.70996H40.8799V7.42996H44.5999V3.70996Z" fill="#FFBC57"/>
<path d="M40.8799 26.0299H37.1599V29.7499H40.8799V26.0299Z" fill="#B96400"/>
<path d="M40.8799 22.3099H37.1599V26.0299H40.8799V22.3099Z" fill="#EB8201"/>
<path d="M40.8799 18.59H37.1599V22.31H40.8799V18.59Z" fill="#FF9E03"/>
<path d="M40.8799 14.87H37.1599V18.59H40.8799V14.87Z" fill="#FF9E03"/>
<path d="M40.8799 11.1499H37.1599V14.8699H40.8799V11.1499Z" fill="#FF9E03"/>
<path d="M40.8799 7.42993H37.1599V11.1499H40.8799V7.42993Z" fill="#BE7100"/>
<path d="M40.8799 3.70996H37.1599V7.42996H40.8799V3.70996Z" fill="#A36000"/>
<path d="M37.1599 26.0299H33.4399V29.7499H37.1599V26.0299Z" fill="#B96400"/>
<path d="M37.1599 22.3099H33.4399V26.0299H37.1599V22.3099Z" fill="#EB8201"/>
<path d="M37.1599 18.59H33.4399V22.31H37.1599V18.59Z" fill="#FF9E03"/>
<path d="M37.1599 14.87H33.4399V18.59H37.1599V14.87Z" fill="#A16700"/>
<path d="M37.1599 11.1499H33.4399V14.8699H37.1599V11.1499Z" fill="#A16700"/>
<path d="M33.44 26.0299H29.72V29.7499H33.44V26.0299Z" fill="#B96400"/>
<path d="M33.44 22.3099H29.72V26.0299H33.44V22.3099Z" fill="#8C5000"/>
<path d="M33.44 18.59H29.72V22.31H33.44V18.59Z" fill="#A16700"/>
<path d="M29.72 26.0299H26V29.7499H29.72V26.0299Z" fill="#7D4500"/>
<path d="M70.76 7.42993H67.04V11.1499H70.76V7.42993Z" fill="#BE7100"/>
<path d="M70.76 3.70996H67.04V7.42996H70.76V3.70996Z" fill="#A36000"/>
<path d="M67.0401 14.87H63.3201V18.59H67.0401V14.87Z" fill="#A16700"/>
<path d="M67.0401 11.1499H63.3201V14.8699H67.0401V11.1499Z" fill="#A16700"/>
<path d="M67.0401 7.42993H63.3201V11.1499H67.0401V7.42993Z" fill="#FFD69C"/>
<path d="M67.0401 3.70996H63.3201V7.42996H67.0401V3.70996Z" fill="#FFBC57"/>
<path d="M63.3199 22.3099H59.5999V26.0299H63.3199V22.3099Z" fill="#8C5000"/>
<path d="M63.3199 18.59H59.5999V22.31H63.3199V18.59Z" fill="#A16700"/>
<path d="M63.3199 14.87H59.5999V18.59H63.3199V14.87Z" fill="#FF9E03"/>
<path d="M63.3199 11.1499H59.5999V14.8699H63.3199V11.1499Z" fill="#FF9E03"/>
<path d="M63.3199 7.42993H59.5999V11.1499H63.3199V7.42993Z" fill="#FFD69C"/>
<path d="M63.3199 3.70996H59.5999V7.42996H63.3199V3.70996Z" fill="#FFBC57"/>
<path d="M59.5999 26.0299H55.8799V29.7499H59.5999V26.0299Z" fill="#7D4500"/>
<path d="M59.5999 22.3099H55.8799V26.0299H59.5999V22.3099Z" fill="#EB8201"/>
<path d="M59.5999 18.59H55.8799V22.31H59.5999V18.59Z" fill="#FF9E03"/>
<path d="M59.5999 14.87H55.8799V18.59H59.5999V14.87Z" fill="#FF9E03"/>
<path d="M59.5999 11.1499H55.8799V14.8699H59.5999V11.1499Z" fill="#FF9E03"/>
<path d="M59.5999 7.42993H55.8799V11.1499H59.5999V7.42993Z" fill="#FFD69C"/>
<path d="M59.5999 3.70996H55.8799V7.42996H59.5999V3.70996Z" fill="#FFBC57"/>
<path d="M55.8799 26.0299H52.1599V29.7499H55.8799V26.0299Z" fill="#B96400"/>
<path d="M55.8799 22.3099H52.1599V26.0299H55.8799V22.3099Z" fill="#EB8201"/>
<path d="M55.8799 18.59H52.1599V22.31H55.8799V18.59Z" fill="#FF9E03"/>
<path d="M55.8799 14.87H52.1599V18.59H55.8799V14.87Z" fill="#FF9E03"/>
<path d="M55.8799 11.1499H52.1599V14.8699H55.8799V11.1499Z" fill="#FF9E03"/>
<path d="M55.8799 7.42993H52.1599V11.1499H55.8799V7.42993Z" fill="#BE7100"/>
<path d="M55.8799 3.70996H52.1599V7.42996H55.8799V3.70996Z" fill="#A36000"/>
<path d="M52.1599 26.0299H48.4399V29.7499H52.1599V26.0299Z" fill="#B96400"/>
<path d="M52.1599 22.3099H48.4399V26.0299H52.1599V22.3099Z" fill="#EB8201"/>
<path d="M52.1599 18.59H48.4399V22.31H52.1599V18.59Z" fill="#FF9E03"/>
<path d="M52.1599 14.87H48.4399V18.59H52.1599V14.87Z" fill="#A16700"/>
<path d="M52.1599 11.1499H48.4399V14.8699H52.1599V11.1499Z" fill="#A16700"/>
<path d="M48.44 26.0299H44.72V29.7499H48.44V26.0299Z" fill="#B96400"/>
<path d="M48.44 22.3099H44.72V26.0299H48.44V22.3099Z" fill="#8C5000"/>
<path d="M48.44 18.59H44.72V22.31H48.44V18.59Z" fill="#A16700"/>
<path d="M44.72 26.0299H41V29.7499H44.72V26.0299Z" fill="#7D4500"/>
<path d="M85.76 7.42993H82.04V11.1499H85.76V7.42993Z" fill="#BE7100"/>
<path d="M85.76 3.70996H82.04V7.42996H85.76V3.70996Z" fill="#A36000"/>
<path d="M82.0401 14.87H78.3201V18.59H82.0401V14.87Z" fill="#A16700"/>
<path d="M82.0401 11.1499H78.3201V14.8699H82.0401V11.1499Z" fill="#A16700"/>
<path d="M82.0401 7.42993H78.3201V11.1499H82.0401V7.42993Z" fill="#FFD69C"/>
<path d="M82.0401 3.70996H78.3201V7.42996H82.0401V3.70996Z" fill="#FFBC57"/>
<path d="M78.3199 22.3099H74.5999V26.0299H78.3199V22.3099Z" fill="#8C5000"/>
<path d="M78.3199 18.59H74.5999V22.31H78.3199V18.59Z" fill="#A16700"/>
<path d="M78.3199 14.87H74.5999V18.59H78.3199V14.87Z" fill="#FF9E03"/>
<path d="M78.3199 11.1499H74.5999V14.8699H78.3199V11.1499Z" fill="#FF9E03"/>
<path d="M78.3199 7.42993H74.5999V11.1499H78.3199V7.42993Z" fill="#FFD69C"/>
<path d="M78.3199 3.70996H74.5999V7.42996H78.3199V3.70996Z" fill="#FFBC57"/>
<path d="M74.5999 26.0299H70.8799V29.7499H74.5999V26.0299Z" fill="#7D4500"/>
<path d="M74.5999 22.3099H70.8799V26.0299H74.5999V22.3099Z" fill="#EB8201"/>
<path d="M74.5999 18.59H70.8799V22.31H74.5999V18.59Z" fill="#FF9E03"/>
<path d="M74.5999 14.87H70.8799V18.59H74.5999V14.87Z" fill="#FF9E03"/>
<path d="M74.5999 11.1499H70.8799V14.8699H74.5999V11.1499Z" fill="#FF9E03"/>
<path d="M74.5999 7.42993H70.8799V11.1499H74.5999V7.42993Z" fill="#FFD69C"/>
<path d="M74.5999 3.70996H70.8799V7.42996H74.5999V3.70996Z" fill="#FFBC57"/>
<path d="M70.8799 26.0299H67.1599V29.7499H70.8799V26.0299Z" fill="#B96400"/>
<path d="M70.8799 22.3099H67.1599V26.0299H70.8799V22.3099Z" fill="#EB8201"/>
<path d="M70.8799 18.59H67.1599V22.31H70.8799V18.59Z" fill="#FF9E03"/>
<path d="M70.8799 14.87H67.1599V18.59H70.8799V14.87Z" fill="#FF9E03"/>
<path d="M70.8799 11.1499H67.1599V14.8699H70.8799V11.1499Z" fill="#FF9E03"/>
<path d="M70.8799 7.42993H67.1599V11.1499H70.8799V7.42993Z" fill="#BE7100"/>
<path d="M70.8799 3.70996H67.1599V7.42996H70.8799V3.70996Z" fill="#A36000"/>
<path d="M67.1599 26.0299H63.4399V29.7499H67.1599V26.0299Z" fill="#B96400"/>
<path d="M67.1599 22.3099H63.4399V26.0299H67.1599V22.3099Z" fill="#EB8201"/>
<path d="M67.1599 18.59H63.4399V22.31H67.1599V18.59Z" fill="#FF9E03"/>
<path d="M67.1599 14.87H63.4399V18.59H67.1599V14.87Z" fill="#A16700"/>
<path d="M67.1599 11.1499H63.4399V14.8699H67.1599V11.1499Z" fill="#A16700"/>
<path d="M63.44 26.0299H59.72V29.7499H63.44V26.0299Z" fill="#B96400"/>
<path d="M63.44 22.3099H59.72V26.0299H63.44V22.3099Z" fill="#8C5000"/>
<path d="M63.44 18.59H59.72V22.31H63.44V18.59Z" fill="#A16700"/>
<path d="M59.72 26.0299H56V29.7499H59.72V26.0299Z" fill="#7D4500"/>
<path d="M100.76 7.42993H97.04V11.1499H100.76V7.42993Z" fill="#BE7100"/>
<path d="M100.76 3.70996H97.04V7.42996H100.76V3.70996Z" fill="#A36000"/>
<path d="M97.0401 14.87H93.3201V18.59H97.0401V14.87Z" fill="#A16700"/>
<path d="M97.0401 11.1499H93.3201V14.8699H97.0401V11.1499Z" fill="#A16700"/>
<path d="M97.0401 7.42993H93.3201V11.1499H97.0401V7.42993Z" fill="#FFD69C"/>
<path d="M97.0401 3.70996H93.3201V7.42996H97.0401V3.70996Z" fill="#FFBC57"/>
<path d="M93.3199 22.3099H89.5999V26.0299H93.3199V22.3099Z" fill="#8C5000"/>
<path d="M93.3199 18.59H89.5999V22.31H93.3199V18.59Z" fill="#A16700"/>
<path d="M93.3199 14.87H89.5999V18.59H93.3199V14.87Z" fill="#FF9E03"/>
<path d="M93.3199 11.1499H89.5999V14.8699H93.3199V11.1499Z" fill="#FF9E03"/>
<path d="M93.3199 7.42993H89.5999V11.1499H93.3199V7.42993Z" fill="#FFD69C"/>
<path d="M93.3199 3.70996H89.5999V7.42996H93.3199V3.70996Z" fill="#FFBC57"/>
<path d="M89.5999 26.0299H85.8799V29.7499H89.5999V26.0299Z" fill="#7D4500"/>
<path d="M89.5999 22.3099H85.8799V26.0299H89.5999V22.3099Z" fill="#EB8201"/>
<path d="M89.5999 18.59H85.8799V22.31H89.5999V18.59Z" fill="#FF9E03"/>
<path d="M89.5999 14.87H85.8799V18.59H89.5999V14.87Z" fill="#FF9E03"/>
<path d="M89.5999 11.1499H85.8799V14.8699H89.5999V11.1499Z" fill="#FF9E03"/>
<path d="M89.5999 7.42993H85.8799V11.1499H89.5999V7.42993Z" fill="#FFD69C"/>
<path d="M89.5999 3.70996H85.8799V7.42996H89.5999V3.70996Z" fill="#FFBC57"/>
<path d="M85.8799 26.0299H82.1599V29.7499H85.8799V26.0299Z" fill="#B96400"/>
<path d="M85.8799 22.3099H82.1599V26.0299H85.8799V22.3099Z" fill="#EB8201"/>
<path d="M85.8799 18.59H82.1599V22.31H85.8799V18.59Z" fill="#FF9E03"/>
<path d="M85.8799 14.87H82.1599V18.59H85.8799V14.87Z" fill="#FF9E03"/>
<path d="M85.8799 11.1499H82.1599V14.8699H85.8799V11.1499Z" fill="#FF9E03"/>
<path d="M85.8799 7.42993H82.1599V11.1499H85.8799V7.42993Z" fill="#BE7100"/>
<path d="M85.8799 3.70996H82.1599V7.42996H85.8799V3.70996Z" fill="#A36000"/>
<path d="M82.1599 26.0299H78.4399V29.7499H82.1599V26.0299Z" fill="#B96400"/>
<path d="M82.1599 22.3099H78.4399V26.0299H82.1599V22.3099Z" fill="#EB8201"/>
<path d="M82.1599 18.59H78.4399V22.31H82.1599V18.59Z" fill="#FF9E03"/>
<path d="M82.1599 14.87H78.4399V18.59H82.1599V14.87Z" fill="#A16700"/>
<path d="M82.1599 11.1499H78.4399V14.8699H82.1599V11.1499Z" fill="#A16700"/>
<path d="M78.44 26.0299H74.72V29.7499H78.44V26.0299Z" fill="#B96400"/>
<path d="M78.44 22.3099H74.72V26.0299H78.44V22.3099Z" fill="#8C5000"/>
<path d="M78.44 18.59H74.72V22.31H78.44V18.59Z" fill="#A16700"/>
<path d="M74.72 26.0299H71V29.7499H74.72V26.0299Z" fill="#7D4500"/>
<path d="M115.76 7.42993H112.04V11.1499H115.76V7.42993Z" fill="#BE7100"/>
<path d="M115.76 3.70996H112.04V7.42996H115.76V3.70996Z" fill="#A36000"/>
<path d="M112.04 14.87H108.32V18.59H112.04V14.87Z" fill="#A16700"/>
<path d="M112.04 11.1499H108.32V14.8699H112.04V11.1499Z" fill="#A16700"/>
<path d="M112.04 7.42993H108.32V11.1499H112.04V7.42993Z" fill="#FFD69C"/>
<path d="M112.04 3.70996H108.32V7.42996H112.04V3.70996Z" fill="#FFBC57"/>
<path d="M108.32 22.3099H104.6V26.0299H108.32V22.3099Z" fill="#8C5000"/>
<path d="M108.32 18.59H104.6V22.31H108.32V18.59Z" fill="#A16700"/>
<path d="M108.32 14.87H104.6V18.59H108.32V14.87Z" fill="#FF9E03"/>
<path d="M108.32 11.1499H104.6V14.8699H108.32V11.1499Z" fill="#FF9E03"/>
<path d="M108.32 7.42993H104.6V11.1499H108.32V7.42993Z" fill="#FFD69C"/>
<path d="M108.32 3.70996H104.6V7.42996H108.32V3.70996Z" fill="#FFBC57"/>
<path d="M104.6 26.0299H100.88V29.7499H104.6V26.0299Z" fill="#7D4500"/>
<path d="M104.6 22.3099H100.88V26.0299H104.6V22.3099Z" fill="#EB8201"/>
<path d="M104.6 18.59H100.88V22.31H104.6V18.59Z" fill="#FF9E03"/>
<path d="M104.6 14.87H100.88V18.59H104.6V14.87Z" fill="#FF9E03"/>
<path d="M104.6 11.1499H100.88V14.8699H104.6V11.1499Z" fill="#FF9E03"/>
<path d="M104.6 7.42993H100.88V11.1499H104.6V7.42993Z" fill="#FFD69C"/>
<path d="M104.6 3.70996H100.88V7.42996H104.6V3.70996Z" fill="#FFBC57"/>
<path d="M100.88 26.0299H97.1599V29.7499H100.88V26.0299Z" fill="#B96400"/>
<path d="M100.88 22.3099H97.1599V26.0299H100.88V22.3099Z" fill="#EB8201"/>
<path d="M100.88 18.59H97.1599V22.31H100.88V18.59Z" fill="#FF9E03"/>
<path d="M100.88 14.87H97.1599V18.59H100.88V14.87Z" fill="#FF9E03"/>
<path d="M100.88 11.1499H97.1599V14.8699H100.88V11.1499Z" fill="#FF9E03"/>
<path d="M100.88 7.42993H97.1599V11.1499H100.88V7.42993Z" fill="#BE7100"/>
<path d="M100.88 3.70996H97.1599V7.42996H100.88V3.70996Z" fill="#A36000"/>
<path d="M97.1599 26.0299H93.4399V29.7499H97.1599V26.0299Z" fill="#B96400"/>
<path d="M97.1599 22.3099H93.4399V26.0299H97.1599V22.3099Z" fill="#EB8201"/>
<path d="M97.1599 18.59H93.4399V22.31H97.1599V18.59Z" fill="#FF9E03"/>
<path d="M97.1599 14.87H93.4399V18.59H97.1599V14.87Z" fill="#A16700"/>
<path d="M97.1599 11.1499H93.4399V14.8699H97.1599V11.1499Z" fill="#A16700"/>
<path d="M93.44 26.0299H89.72V29.7499H93.44V26.0299Z" fill="#B96400"/>
<path d="M93.44 22.3099H89.72V26.0299H93.44V22.3099Z" fill="#8C5000"/>
<path d="M93.44 18.59H89.72V22.31H93.44V18.59Z" fill="#A16700"/>
<path d="M89.72 26.0299H86V29.7499H89.72V26.0299Z" fill="#7D4500"/>
<path d="M130.76 7.42993H127.04V11.1499H130.76V7.42993Z" fill="#BE7100"/>
<path d="M130.76 3.70996H127.04V7.42996H130.76V3.70996Z" fill="#A36000"/>
<path d="M127.04 14.87H123.32V18.59H127.04V14.87Z" fill="#A16700"/>
<path d="M127.04 11.1499H123.32V14.8699H127.04V11.1499Z" fill="#A16700"/>
<path d="M127.04 7.42993H123.32V11.1499H127.04V7.42993Z" fill="#FFD69C"/>
<path d="M127.04 3.70996H123.32V7.42996H127.04V3.70996Z" fill="#FFBC57"/>
<path d="M123.32 22.3099H119.6V26.0299H123.32V22.3099Z" fill="#8C5000"/>
<path d="M123.32 18.59H119.6V22.31H123.32V18.59Z" fill="#A16700"/>
<path d="M123.32 14.87H119.6V18.59H123.32V14.87Z" fill="#FF9E03"/>
<path d="M123.32 11.1499H119.6V14.8699H123.32V11.1499Z" fill="#FF9E03"/>
<path d="M123.32 7.42993H119.6V11.1499H123.32V7.42993Z" fill="#FFD69C"/>
<path d="M123.32 3.70996H119.6V7.42996H123.32V3.70996Z" fill="#FFBC57"/>
<path d="M119.6 26.0299H115.88V29.7499H119.6V26.0299Z" fill="#7D4500"/>
<path d="M119.6 22.3099H115.88V26.0299H119.6V22.3099Z" fill="#EB8201"/>
<path d="M119.6 18.59H115.88V22.31H119.6V18.59Z" fill="#FF9E03"/>
<path d="M119.6 14.87H115.88V18.59H119.6V14.87Z" fill="#FF9E03"/>
<path d="M119.6 11.1499H115.88V14.8699H119.6V11.1499Z" fill="#FF9E03"/>
<path d="M119.6 7.42993H115.88V11.1499H119.6V7.42993Z" fill="#FFD69C"/>
<path d="M119.6 3.70996H115.88V7.42996H119.6V3.70996Z" fill="#FFBC57"/>
<path d="M115.88 26.0299H112.16V29.7499H115.88V26.0299Z" fill="#B96400"/>
<path d="M115.88 22.3099H112.16V26.0299H115.88V22.3099Z" fill="#EB8201"/>
<path d="M115.88 18.59H112.16V22.31H115.88V18.59Z" fill="#FF9E03"/>
<path d="M115.88 14.87H112.16V18.59H115.88V14.87Z" fill="#FF9E03"/>
<path d="M115.88 11.1499H112.16V14.8699H115.88V11.1499Z" fill="#FF9E03"/>
<path d="M115.88 7.42993H112.16V11.1499H115.88V7.42993Z" fill="#BE7100"/>
<path d="M115.88 3.70996H112.16V7.42996H115.88V3.70996Z" fill="#A36000"/>
<path d="M112.16 26.0299H108.44V29.7499H112.16V26.0299Z" fill="#B96400"/>
<path d="M112.16 22.3099H108.44V26.0299H112.16V22.3099Z" fill="#EB8201"/>
<path d="M112.16 18.59H108.44V22.31H112.16V18.59Z" fill="#FF9E03"/>
<path d="M112.16 14.87H108.44V18.59H112.16V14.87Z" fill="#A16700"/>
<path d="M112.16 11.1499H108.44V14.8699H112.16V11.1499Z" fill="#A16700"/>
<path d="M108.44 26.0299H104.72V29.7499H108.44V26.0299Z" fill="#B96400"/>
<path d="M108.44 22.3099H104.72V26.0299H108.44V22.3099Z" fill="#8C5000"/>
<path d="M108.44 18.59H104.72V22.31H108.44V18.59Z" fill="#A16700"/>
<path d="M104.72 26.0299H101V29.7499H104.72V26.0299Z" fill="#7D4500"/>
<path d="M145.76 7.42993H142.04V11.1499H145.76V7.42993Z" fill="#BE7100"/>
<path d="M145.76 3.70996H142.04V7.42996H145.76V3.70996Z" fill="#A36000"/>
<path d="M142.04 14.87H138.32V18.59H142.04V14.87Z" fill="#A16700"/>
<path d="M142.04 11.1499H138.32V14.8699H142.04V11.1499Z" fill="#A16700"/>
<path d="M142.04 7.42993H138.32V11.1499H142.04V7.42993Z" fill="#FFD69C"/>
<path d="M142.04 3.70996H138.32V7.42996H142.04V3.70996Z" fill="#FFBC57"/>
<path d="M138.32 22.3099H134.6V26.0299H138.32V22.3099Z" fill="#8C5000"/>
<path d="M138.32 18.59H134.6V22.31H138.32V18.59Z" fill="#A16700"/>
<path d="M138.32 14.87H134.6V18.59H138.32V14.87Z" fill="#FF9E03"/>
<path d="M138.32 11.1499H134.6V14.8699H138.32V11.1499Z" fill="#FF9E03"/>
<path d="M138.32 7.42993H134.6V11.1499H138.32V7.42993Z" fill="#FFD69C"/>
<path d="M138.32 3.70996H134.6V7.42996H138.32V3.70996Z" fill="#FFBC57"/>
<path d="M134.6 26.0299H130.88V29.7499H134.6V26.0299Z" fill="#7D4500"/>
<path d="M134.6 22.3099H130.88V26.0299H134.6V22.3099Z" fill="#EB8201"/>
<path d="M134.6 18.59H130.88V22.31H134.6V18.59Z" fill="#FF9E03"/>
<path d="M134.6 14.87H130.88V18.59H134.6V14.87Z" fill="#FF9E03"/>
<path d="M134.6 11.1499H130.88V14.8699H134.6V11.1499Z" fill="#FF9E03"/>
<path d="M134.6 7.42993H130.88V11.1499H134.6V7.42993Z" fill="#FFD69C"/>
<path d="M134.6 3.70996H130.88V7.42996H134.6V3.70996Z" fill="#FFBC57"/>
<path d="M130.88 26.0299H127.16V29.7499H130.88V26.0299Z" fill="#B96400"/>
<path d="M130.88 22.3099H127.16V26.0299H130.88V22.3099Z" fill="#EB8201"/>
<path d="M130.88 18.59H127.16V22.31H130.88V18.59Z" fill="#FF9E03"/>
<path d="M130.88 14.87H127.16V18.59H130.88V14.87Z" fill="#FF9E03"/>
<path d="M130.88 11.1499H127.16V14.8699H130.88V11.1499Z" fill="#FF9E03"/>
<path d="M130.88 7.42993H127.16V11.1499H130.88V7.42993Z" fill="#BE7100"/>
<path d="M130.88 3.70996H127.16V7.42996H130.88V3.70996Z" fill="#A36000"/>
<path d="M127.16 26.0299H123.44V29.7499H127.16V26.0299Z" fill="#B96400"/>
<path d="M127.16 22.3099H123.44V26.0299H127.16V22.3099Z" fill="#EB8201"/>
<path d="M127.16 18.59H123.44V22.31H127.16V18.59Z" fill="#FF9E03"/>
<path d="M127.16 14.87H123.44V18.59H127.16V14.87Z" fill="#A16700"/>
<path d="M127.16 11.1499H123.44V14.8699H127.16V11.1499Z" fill="#A16700"/>
<path d="M123.44 26.0299H119.72V29.7499H123.44V26.0299Z" fill="#B96400"/>
<path d="M123.44 22.3099H119.72V26.0299H123.44V22.3099Z" fill="#8C5000"/>
<path d="M123.44 18.59H119.72V22.31H123.44V18.59Z" fill="#A16700"/>
<path d="M119.72 26.0299H116V29.7499H119.72V26.0299Z" fill="#7D4500"/>
<path d="M159.76 7.42993H156.04V11.1499H159.76V7.42993Z" fill="#BE7100"/>
<path d="M159.76 3.70996H156.04V7.42996H159.76V3.70996Z" fill="#A36000"/>
<path d="M156.04 14.87H152.32V18.59H156.04V14.87Z" fill="#A16700"/>
<path d="M156.04 11.1499H152.32V14.8699H156.04V11.1499Z" fill="#A16700"/>
<path d="M156.04 7.42993H152.32V11.1499H156.04V7.42993Z" fill="#FFD69C"/>
<path d="M156.04 3.70996H152.32V7.42996H156.04V3.70996Z" fill="#FFBC57"/>
<path d="M152.32 22.3099H148.6V26.0299H152.32V22.3099Z" fill="#8C5000"/>
<path d="M152.32 18.59H148.6V22.31H152.32V18.59Z" fill="#A16700"/>
<path d="M152.32 14.87H148.6V18.59H152.32V14.87Z" fill="#FF9E03"/>
<path d="M152.32 11.1499H148.6V14.8699H152.32V11.1499Z" fill="#FF9E03"/>
<path d="M152.32 7.42993H148.6V11.1499H152.32V7.42993Z" fill="#FFD69C"/>
<path d="M152.32 3.70996H148.6V7.42996H152.32V3.70996Z" fill="#FFBC57"/>
<path d="M148.6 26.0299H144.88V29.7499H148.6V26.0299Z" fill="#7D4500"/>
<path d="M148.6 22.3099H144.88V26.0299H148.6V22.3099Z" fill="#EB8201"/>
<path d="M148.6 18.59H144.88V22.31H148.6V18.59Z" fill="#FF9E03"/>
<path d="M148.6 14.87H144.88V18.59H148.6V14.87Z" fill="#FF9E03"/>
<path d="M148.6 11.1499H144.88V14.8699H148.6V11.1499Z" fill="#FF9E03"/>
<path d="M148.6 7.42993H144.88V11.1499H148.6V7.42993Z" fill="#FFD69C"/>
<path d="M148.6 3.70996H144.88V7.42996H148.6V3.70996Z" fill="#FFBC57"/>
<path d="M144.88 26.0299H141.16V29.7499H144.88V26.0299Z" fill="#B96400"/>
<path d="M144.88 22.3099H141.16V26.0299H144.88V22.3099Z" fill="#EB8201"/>
<path d="M144.88 18.59H141.16V22.31H144.88V18.59Z" fill="#FF9E03"/>
<path d="M144.88 14.87H141.16V18.59H144.88V14.87Z" fill="#FF9E03"/>
<path d="M144.88 11.1499H141.16V14.8699H144.88V11.1499Z" fill="#FF9E03"/>
<path d="M144.88 7.42993H141.16V11.1499H144.88V7.42993Z" fill="#BE7100"/>
<path d="M144.88 3.70996H141.16V7.42996H144.88V3.70996Z" fill="#A36000"/>
<path d="M141.16 26.0299H137.44V29.7499H141.16V26.0299Z" fill="#B96400"/>
<path d="M141.16 22.3099H137.44V26.0299H141.16V22.3099Z" fill="#EB8201"/>
<path d="M141.16 18.59H137.44V22.31H141.16V18.59Z" fill="#FF9E03"/>
<path d="M141.16 14.87H137.44V18.59H141.16V14.87Z" fill="#A16700"/>
<path d="M141.16 11.1499H137.44V14.8699H141.16V11.1499Z" fill="#A16700"/>
<path d="M137.44 26.0299H133.72V29.7499H137.44V26.0299Z" fill="#B96400"/>
<path d="M137.44 22.3099H133.72V26.0299H137.44V22.3099Z" fill="#8C5000"/>
<path d="M137.44 18.59H133.72V22.31H137.44V18.59Z" fill="#A16700"/>
<path d="M133.72 26.0299H130V29.7499H133.72V26.0299Z" fill="#7D4500"/>
<path d="M174.76 7.42993H171.04V11.1499H174.76V7.42993Z" fill="#BE7100"/>
<path d="M171.04 14.87H167.32V18.59H171.04V14.87Z" fill="#A16700"/>
<path d="M171.04 11.1499H167.32V14.8699H171.04V11.1499Z" fill="#A16700"/>
<path d="M171.04 7.42993H167.32V11.1499H171.04V7.42993Z" fill="#FFD69C"/>
<path d="M167.32 22.3099H163.6V26.0299H167.32V22.3099Z" fill="#8C5000"/>
<path d="M167.32 18.59H163.6V22.31H167.32V18.59Z" fill="#A16700"/>
<path d="M167.32 14.87H163.6V18.59H167.32V14.87Z" fill="#FF9E03"/>
<path d="M167.32 11.1499H163.6V14.8699H167.32V11.1499Z" fill="#FF9E03"/>
<path d="M167.32 7.42993H163.6V11.1499H167.32V7.42993Z" fill="#FFD69C"/>
<path d="M167.32 3.70996H163.6V7.42996H167.32V3.70996Z" fill="#FFBC57"/>
<path d="M163.6 26.0299H159.88V29.7499H163.6V26.0299Z" fill="#7D4500"/>
<path d="M163.6 22.3099H159.88V26.0299H163.6V22.3099Z" fill="#EB8201"/>
<path d="M163.6 18.59H159.88V22.31H163.6V18.59Z" fill="#FF9E03"/>
<path d="M163.6 14.87H159.88V18.59H163.6V14.87Z" fill="#FF9E03"/>
<path d="M163.6 11.1499H159.88V14.8699H163.6V11.1499Z" fill="#FF9E03"/>
<path d="M163.6 7.42993H159.88V11.1499H163.6V7.42993Z" fill="#FFD69C"/>
<path d="M163.6 3.70996H159.88V7.42996H163.6V3.70996Z" fill="#FFBC57"/>
<path d="M159.88 26.0299H156.16V29.7499H159.88V26.0299Z" fill="#B96400"/>
<path d="M159.88 22.3099H156.16V26.0299H159.88V22.3099Z" fill="#EB8201"/>
<path d="M159.88 18.59H156.16V22.31H159.88V18.59Z" fill="#FF9E03"/>
<path d="M159.88 14.87H156.16V18.59H159.88V14.87Z" fill="#FF9E03"/>
<path d="M159.88 11.1499H156.16V14.8699H159.88V11.1499Z" fill="#FF9E03"/>
<path d="M159.88 7.42993H156.16V11.1499H159.88V7.42993Z" fill="#BE7100"/>
<path d="M159.88 3.70996H156.16V7.42996H159.88V3.70996Z" fill="#A36000"/>
<path d="M156.16 26.0299H152.44V29.7499H156.16V26.0299Z" fill="#B96400"/>
<path d="M156.16 22.3099H152.44V26.0299H156.16V22.3099Z" fill="#EB8201"/>
<path d="M156.16 18.59H152.44V22.31H156.16V18.59Z" fill="#FF9E03"/>
<path d="M156.16 14.87H152.44V18.59H156.16V14.87Z" fill="#A16700"/>
<path d="M156.16 11.1499H152.44V14.8699H156.16V11.1499Z" fill="#A16700"/>
<path d="M152.44 26.0299H148.72V29.7499H152.44V26.0299Z" fill="#B96400"/>
<path d="M152.44 22.3099H148.72V26.0299H152.44V22.3099Z" fill="#8C5000"/>
<path d="M152.44 18.59H148.72V22.31H152.44V18.59Z" fill="#A16700"/>
<path d="M148.72 26.0299H145V29.7499H148.72V26.0299Z" fill="#7D4500"/>
</svg>
