<svg width="183" height="38" viewBox="0 0 183 38" fill="none" xmlns="http://www.w3.org/2000/svg">
<path d="M40.8799 7.43018H37.1599V11.1502H40.8799V7.43018Z" fill="#E2E2E2"/>
<path d="M40.8799 3.70996H37.1599V7.42996H40.8799V3.70996Z" fill="#E2E2E2"/>
<path d="M37.1599 14.8701H33.4399V18.5901H37.1599V14.8701Z" fill="#E2E2E2"/>
<path d="M37.1599 11.1499H33.4399V14.8699H37.1599V11.1499Z" fill="#E2E2E2"/>
<path d="M33.44 22.3101H29.72V26.0301H33.44V22.3101Z" fill="#CACACA"/>
<path d="M33.44 18.5898H29.72V22.3098H33.44V18.5898Z" fill="#E2E2E2"/>
<path d="M29.72 26.03H26V29.75H29.72V26.03Z" fill="#B3B3B3"/>
<path d="M33.44 26.03H29.72V29.75H33.44H37.16H40.88V26.03H37.16H33.44Z" fill="#E2E2E2"/>
<path d="M55.76 7.43018H52.04V11.1502H55.76V7.43018Z" fill="#E2E2E2"/>
<path d="M55.76 3.70996H52.04V7.42996H55.76V3.70996Z" fill="#E2E2E2"/>
<path d="M52.0401 14.8701H48.3201V18.5901H52.0401V14.8701Z" fill="#E2E2E2"/>
<path d="M52.0401 11.1499H48.3201V14.8699H52.0401V11.1499Z" fill="#E2E2E2"/>
<path d="M48.3199 22.3101H44.5999V26.0301H48.3199V22.3101Z" fill="#CACACA"/>
<path d="M48.3199 18.5898H44.5999V22.3098H48.3199V18.5898Z" fill="#E2E2E2"/>
<path d="M44.5999 26.03H40.8799V29.75H44.5999V26.03Z" fill="#B3B3B3"/>
<g style="mix-blend-mode:multiply">
<path d="M40.8799 26.0301H44.5999V22.3101H40.8799H37.1599H33.4399V26.0301H37.1599H40.8799Z" fill="#F8F8F8"/>
</g>
<path d="M78.0999 26.03H74.3799V29.75H78.0999H81.8199H85.5399V26.03H81.8199H78.0999Z" fill="#E2E2E2"/>
<path d="M107.84 26.03H104.12V29.75H107.84V26.03Z" fill="#E2E2E2"/>
<path d="M107.85 26.03V29.75H111.57H115.29V26.03H111.57H107.85Z" fill="#E2E2E2"/>
<path d="M122.71 26.03H118.99V29.75H122.71V26.03Z" fill="#E2E2E2"/>
<path d="M122.73 26.03V29.75H126.45H130.17V26.03H126.45H122.73Z" fill="#E2E2E2"/>
<path d="M137.61 26.03H133.89V29.75H137.61H141.33H145.05V26.03H141.33H137.61Z" fill="#E2E2E2"/>
<path d="M156.17 26.03H152.49H152.45H148.77V29.75H152.45H152.49H156.17H159.89V26.03H156.17Z" fill="#E2E2E2"/>
<g style="mix-blend-mode:multiply">
<path d="M167.36 26.03H163.64V29.75H167.36V26.03Z" fill="#E2E2E2"/>
</g>
<g style="mix-blend-mode:multiply">
<path d="M171.09 22.3101H167.37V26.0301H171.09V22.3101Z" fill="#F8F8F8"/>
</g>
<path d="M130.17 7.43018H126.45V11.1502H130.17V7.43018Z" fill="#E2E2E2"/>
<path d="M130.17 3.70996H126.45V7.42996H130.17V3.70996Z" fill="#E2E2E2"/>
<path d="M126.45 14.8701H122.73V18.5901H126.45V14.8701Z" fill="#E2E2E2"/>
<path d="M126.45 11.1499H122.73V14.8699H126.45V11.1499Z" fill="#E2E2E2"/>
<path d="M122.73 22.3101H119.01V26.0301H122.73V22.3101Z" fill="#CACACA"/>
<path d="M122.73 18.5898H119.01V22.3098H122.73V18.5898Z" fill="#E2E2E2"/>
<path d="M119.01 26.03H115.29V29.75H119.01V26.03Z" fill="#B3B3B3"/>
<path d="M145.05 7.43018H141.33V11.1502H145.05V7.43018Z" fill="#E2E2E2"/>
<path d="M145.05 3.70996H141.33V7.42996H145.05V3.70996Z" fill="#E2E2E2"/>
<path d="M141.33 14.8701H137.61V18.5901H141.33V14.8701Z" fill="#E2E2E2"/>
<path d="M141.33 11.1499H137.61V14.8699H141.33V11.1499Z" fill="#E2E2E2"/>
<path d="M137.61 22.3101H133.89V26.0301H137.61V22.3101Z" fill="#CACACA"/>
<path d="M137.61 18.5898H133.89V22.3098H137.61V18.5898Z" fill="#E2E2E2"/>
<path d="M133.89 26.03H130.17V29.75H133.89V26.03Z" fill="#B3B3B3"/>
<path d="M159.93 7.43018H156.21V11.1502H159.93V7.43018Z" fill="#E2E2E2"/>
<path d="M159.93 3.70996H156.21V7.42996H159.93V3.70996Z" fill="#E2E2E2"/>
<path d="M156.21 14.8701H152.49V18.5901H156.21V14.8701Z" fill="#E2E2E2"/>
<path d="M156.21 11.1499H152.49V14.8699H156.21V11.1499Z" fill="#E2E2E2"/>
<path d="M152.49 22.3101H148.77V26.0301H152.49V22.3101Z" fill="#CACACA"/>
<path d="M152.49 18.5898H148.77V22.3098H152.49V18.5898Z" fill="#E2E2E2"/>
<path d="M148.77 26.03H145.05V29.75H148.77V26.03Z" fill="#B3B3B3"/>
<path d="M174.81 7.43018H171.09V11.1502H174.81V7.43018Z" fill="#E2E2E2"/>
<path d="M171.09 14.8701H167.37V18.5901H171.09V14.8701Z" fill="#E2E2E2"/>
<path d="M171.09 11.1499H167.37V14.8699H171.09V11.1499Z" fill="#E2E2E2"/>
<path d="M167.37 22.3101H163.65V26.0301H167.37V22.3101Z" fill="#CACACA"/>
<path d="M167.37 18.5898H163.65V22.3098H167.37V18.5898Z" fill="#E2E2E2"/>
<path d="M163.61 26.03H159.89V29.75H163.61V26.03Z" fill="#B3B3B3"/>
<path d="M40.76 7.42993H37.04V11.1499H40.76V7.42993Z" fill="#BE7100"/>
<path d="M40.76 3.70996H37.04V7.42996H40.76V3.70996Z" fill="#A36000"/>
<path d="M37.0401 14.8701H33.3201V18.5901H37.0401V14.8701Z" fill="#A16700"/>
<path d="M37.0401 11.1499H33.3201V14.8699H37.0401V11.1499Z" fill="#A16700"/>
<path d="M37.0401 7.42993H33.3201V11.1499H37.0401V7.42993Z" fill="#FFD69C"/>
<path d="M37.0401 3.70996H33.3201V7.42996H37.0401V3.70996Z" fill="#FFBC57"/>
<path d="M33.3199 22.3101H29.5999V26.0301H33.3199V22.3101Z" fill="#8C5000"/>
<path d="M33.3199 18.5898H29.5999V22.3098H33.3199V18.5898Z" fill="#A16700"/>
<path d="M33.3199 14.8701H29.5999V18.5901H33.3199V14.8701Z" fill="#FF9E03"/>
<path d="M33.3199 11.1499H29.5999V14.8699H33.3199V11.1499Z" fill="#FF9E03"/>
<path d="M33.3199 7.42993H29.5999V11.1499H33.3199V7.42993Z" fill="#FFD69C"/>
<path d="M33.3199 3.70996H29.5999V7.42996H33.3199V3.70996Z" fill="#FFBC57"/>
<path d="M29.5999 26.0298H25.8799V29.7498H29.5999V26.0298Z" fill="#7D4500"/>
<path d="M29.5999 22.3101H25.8799V26.0301H29.5999V22.3101Z" fill="#EB8201"/>
<path d="M29.5999 18.5898H25.8799V22.3098H29.5999V18.5898Z" fill="#FF9E03"/>
<path d="M29.5999 14.8701H25.8799V18.5901H29.5999V14.8701Z" fill="#FF9E03"/>
<path d="M29.5999 11.1499H25.8799V14.8699H29.5999V11.1499Z" fill="#FF9E03"/>
<path d="M29.5999 7.42993H25.8799V11.1499H29.5999V7.42993Z" fill="#FFD69C"/>
<path d="M29.5999 3.70996H25.8799V7.42996H29.5999V3.70996Z" fill="#FFBC57"/>
<path d="M25.8799 26.0298H22.1599V29.7498H25.8799V26.0298Z" fill="#B96400"/>
<path d="M25.8799 22.3101H22.1599V26.0301H25.8799V22.3101Z" fill="#EB8201"/>
<path d="M25.8799 18.5898H22.1599V22.3098H25.8799V18.5898Z" fill="#FF9E03"/>
<path d="M25.8799 14.8701H22.1599V18.5901H25.8799V14.8701Z" fill="#FF9E03"/>
<path d="M25.8799 11.1499H22.1599V14.8699H25.8799V11.1499Z" fill="#FF9E03"/>
<path d="M25.8799 7.42993H22.1599V11.1499H25.8799V7.42993Z" fill="#BE7100"/>
<path d="M25.8799 3.70996H22.1599V7.42996H25.8799V3.70996Z" fill="#A36000"/>
<path d="M22.1599 26.0298H18.4399V29.7498H22.1599V26.0298Z" fill="#B96400"/>
<path d="M22.1599 22.3101H18.4399V26.0301H22.1599V22.3101Z" fill="#EB8201"/>
<path d="M22.1599 18.5898H18.4399V22.3098H22.1599V18.5898Z" fill="#FF9E03"/>
<path d="M22.1599 14.8701H18.4399V18.5901H22.1599V14.8701Z" fill="#A16700"/>
<path d="M22.1599 11.1499H18.4399V14.8699H22.1599V11.1499Z" fill="#A16700"/>
<path d="M18.44 26.0298H14.72V29.7498H18.44V26.0298Z" fill="#B96400"/>
<path d="M18.44 22.3101H14.72V26.0301H18.44V22.3101Z" fill="#8C5000"/>
<path d="M18.44 18.5898H14.72V22.3098H18.44V18.5898Z" fill="#A16700"/>
<path d="M14.72 26.0298H11V29.7498H14.72V26.0298Z" fill="#7D4500"/>
<path d="M26.0301 7.43018H22.3101V11.1502H26.0301V7.43018Z" fill="#BE7100"/>
<path d="M26.0301 3.70996H22.3101V7.42996H26.0301V3.70996Z" fill="#A36000"/>
<path d="M22.3101 14.8701H18.5901V18.5901H22.3101V14.8701Z" fill="#A16700"/>
<path d="M22.3101 11.1499H18.5901V14.8699H22.3101V11.1499Z" fill="#A16700"/>
<path d="M22.3101 7.43018H18.5901V11.1502H22.3101V7.43018Z" fill="#FFD69C"/>
<path d="M22.3101 3.70996H18.5901V7.42996H22.3101V3.70996Z" fill="#FFBC57"/>
<path d="M18.5899 22.3101H14.8799V26.0301H18.5899V22.3101Z" fill="#8C5000"/>
<path d="M18.5899 18.5898H14.8799V22.3098H18.5899V18.5898Z" fill="#A16700"/>
<path d="M18.5899 14.8701H14.8799V18.5901H18.5899V14.8701Z" fill="#FF9E03"/>
<path d="M18.5899 11.1499H14.8799V14.8699H18.5899V11.1499Z" fill="#FF9E03"/>
<path d="M18.5899 7.43018H14.8799V11.1502H18.5899V7.43018Z" fill="#FFD69C"/>
<path d="M18.5899 3.70996H14.8799V7.42996H18.5899V3.70996Z" fill="#FFBC57"/>
<path d="M14.8799 26.03H11.1599V29.75H14.8799V26.03Z" fill="#7D4500"/>
<path d="M14.8799 22.3101H11.1599V26.0301H14.8799V22.3101Z" fill="#EB8201"/>
<path d="M14.8799 18.5898H11.1599V22.3098H14.8799V18.5898Z" fill="#FF9E03"/>
<path d="M14.8799 14.8701H11.1599V18.5901H14.8799V14.8701Z" fill="#FF9E03"/>
<path d="M14.8799 11.1499H11.1599V14.8699H14.8799V11.1499Z" fill="#FF9E03"/>
<path d="M14.8799 7.43018H11.1599V11.1502H14.8799V7.43018Z" fill="#FFA21B"/>
<path d="M14.8799 3.70996H11.1599V7.42996H14.8799V3.70996Z" fill="#FFBC57"/>
<path d="M11.1599 22.3101H7.43994V26.0301H11.1599V22.3101Z" fill="#EB8201"/>
<path d="M11.1599 18.5898H7.43994V22.3098H11.1599V18.5898Z" fill="#FF9E03"/>
<path d="M11.1599 14.8701H7.43994V18.5901H11.1599V14.8701Z" fill="#FFA21B"/>
<path d="M11.1599 11.1499H7.43994V14.8699H11.1599V11.1499Z" fill="#FFA21B"/>
<path d="M11.1599 7.43018H7.43994V11.1502H11.1599V7.43018Z" fill="#FFBC57"/>
<path d="M7.43997 22.3101H3.71997V26.0301H7.43997V22.3101Z" fill="#FF9E03"/>
<path d="M7.43997 18.5898H3.71997V22.3098H7.43997V18.5898Z" fill="#FFA21B"/>
<path d="M7.43997 14.8701H3.71997V18.5901H7.43997V14.8701Z" fill="#FFBC57"/>
<path d="M7.43997 11.1499H3.71997V14.8699H7.43997V11.1499Z" fill="#FFD69C"/>
<path d="M7.43997 7.43018H3.71997V11.1502H7.43997V7.43018Z" fill="#FFD69C"/>
<path d="M174.79 14.8702V18.5902V22.3102V26.0302H178.51V22.3102V18.5902V14.8702V11.1502V7.43018H174.79V11.1502V14.8702Z" fill="#1D2920"/>
<path d="M167.35 26.03V29.75H171.07H174.79V26.03H171.07H167.35Z" fill="#1D2920"/>
<path d="M171.07 7.42996H174.79V3.70996H171.07H167.35V7.42996H171.07Z" fill="#1D2920"/>
<path d="M159.92 29.75H156.2H152.48H148.76H145.04H141.32H137.6H133.88H130.16H126.45H122.73H119.01H115.29H111.57H107.85H104.13H100.41H96.6899H92.9699H89.2599H85.5399H81.8199H78.0999H74.3799H70.6599H66.9399H63.2199H59.4999H55.7799H52.0699H48.3499H44.6299H40.9099H37.1899H33.4699H29.7499H26.0299H22.3099H18.5899H14.8799H11.1599V33.47H14.8799H18.5899H22.3099H26.0299H29.7499H33.4699H37.1899H40.9099H44.6299H48.3499H52.0699H55.7799H59.4999H63.2199H66.9399H70.6599H74.3799H78.0999H81.8199H85.5399H89.2599H92.9699H96.6899H100.41H104.13H107.85H111.57H115.29H119.01H122.73H126.45H130.16H133.88H137.6H141.32H145.04H148.76H152.48H156.2H159.92H163.64H167.35V29.75H163.64H159.92Z" fill="#1D2920"/>
<path d="M18.5899 3.71H22.3099H26.0299H29.7499H33.4699H37.1899H40.9099H44.6299H48.3499H52.0699H55.7799H59.4999H63.2199H66.9399H70.6599H74.3799H78.0999H81.8199H85.5399H89.2599H92.9699H96.6899H100.41H104.13H107.85H111.57H115.29H119.01H122.73H126.45H130.16H133.88H137.6H141.32H145.04H148.76H152.48H156.2H159.92H163.64H167.35V0H163.64H159.92H156.2H152.48H148.76H145.04H141.32H137.6H133.88H130.16H126.45H122.73H119.01H115.29H111.57H107.85H104.13H100.41H96.6899H92.9699H89.2599H85.5399H81.8199H78.0999H74.3799H70.6599H66.9399H63.2199H59.4999H55.7799H52.0699H48.3499H44.6299H40.9099H37.1899H33.4699H29.7499H26.0299H22.3099H18.5899H14.8799H11.1599V3.71H14.8799H18.5899Z" fill="#1D2920"/>
<path d="M7.43997 26.03H3.71997V29.75H7.43997H11.16V26.03H7.43997Z" fill="#1D2920"/>
<path d="M11.16 7.42996V3.70996H7.43997H3.71997V7.42996H7.43997H11.16Z" fill="#1D2920"/>
<path d="M3.72 22.3102V18.5902V14.8702V11.1502V7.43018H0V11.1502V14.8702V18.5902V22.3102V26.0302H3.72V22.3102Z" fill="#1D2920"/>
<g style="mix-blend-mode:multiply">
<path d="M85.5401 26.0301H89.2601V22.3101H85.5401H81.8201H78.1001V26.0301H81.8201H85.5401Z" fill="#F8F8F8"/>
</g>
<path d="M100.41 7.43018H96.6899V11.1502H100.41V7.43018Z" fill="#E2E2E2"/>
<path d="M100.41 3.70996H96.6899V7.42996H100.41V3.70996Z" fill="#E2E2E2"/>
<path d="M96.69 14.8701H92.97V18.5901H96.69V14.8701Z" fill="#E2E2E2"/>
<path d="M96.69 11.1499H92.97V14.8699H96.69V11.1499Z" fill="#E2E2E2"/>
<path d="M92.97 22.3101H89.25V26.0301H92.97V22.3101Z" fill="#CACACA"/>
<path d="M92.97 18.5898H89.25V22.3098H92.97V18.5898Z" fill="#E2E2E2"/>
<path d="M89.25 26.03H85.53V29.75H89.25V26.03Z" fill="#B3B3B3"/>
<path d="M92.97 26.03H89.25V29.75H92.97H96.69H100.41V26.03H96.69H92.97Z" fill="#E2E2E2"/>
<path d="M115.29 7.43018H111.57V11.1502H115.29V7.43018Z" fill="#E2E2E2"/>
<path d="M115.29 3.70996H111.57V7.42996H115.29V3.70996Z" fill="#E2E2E2"/>
<path d="M111.57 14.8701H107.85V18.5901H111.57V14.8701Z" fill="#E2E2E2"/>
<path d="M111.57 11.1499H107.85V14.8699H111.57V11.1499Z" fill="#E2E2E2"/>
<path d="M107.85 22.3101H104.13V26.0301H107.85V22.3101Z" fill="#CACACA"/>
<path d="M107.85 18.5898H104.13V22.3098H107.85V18.5898Z" fill="#E2E2E2"/>
<path d="M104.13 26.03H100.41V29.75H104.13V26.03Z" fill="#B3B3B3"/>
<g style="mix-blend-mode:multiply">
<path d="M100.41 26.0301H104.13V22.3101H100.41H96.69H92.97V26.0301H96.69H100.41Z" fill="#F8F8F8"/>
</g>
<path d="M70.8799 7.43018H67.1599V11.1502H70.8799V7.43018Z" fill="#E2E2E2"/>
<path d="M70.8799 3.70996H67.1599V7.42996H70.8799V3.70996Z" fill="#E2E2E2"/>
<path d="M67.1599 14.8701H63.4399V18.5901H67.1599V14.8701Z" fill="#E2E2E2"/>
<path d="M67.1599 11.1499H63.4399V14.8699H67.1599V11.1499Z" fill="#E2E2E2"/>
<path d="M63.44 22.3101H59.72V26.0301H63.44V22.3101Z" fill="#CACACA"/>
<path d="M63.44 18.5898H59.72V22.3098H63.44V18.5898Z" fill="#E2E2E2"/>
<path d="M59.72 26.03H56V29.75H59.72V26.03Z" fill="#B3B3B3"/>
<path d="M63.44 26.03H59.72V29.75H63.44H67.16H70.88V26.03H67.16H63.44Z" fill="#E2E2E2"/>
<path d="M85.76 7.43018H82.04V11.1502H85.76V7.43018Z" fill="#E2E2E2"/>
<path d="M85.76 3.70996H82.04V7.42996H85.76V3.70996Z" fill="#E2E2E2"/>
<path d="M82.0401 14.8701H78.3201V18.5901H82.0401V14.8701Z" fill="#E2E2E2"/>
<path d="M82.0401 11.1499H78.3201V14.8699H82.0401V11.1499Z" fill="#E2E2E2"/>
<path d="M78.3199 22.3101H74.5999V26.0301H78.3199V22.3101Z" fill="#CACACA"/>
<path d="M78.3199 18.5898H74.5999V22.3098H78.3199V18.5898Z" fill="#E2E2E2"/>
<path d="M74.5999 26.03H70.8799V29.75H74.5999V26.03Z" fill="#B3B3B3"/>
<g style="mix-blend-mode:multiply">
<path d="M70.8799 26.0301H74.5999V22.3101H70.8799H67.1599H63.4399V26.0301H67.1599H70.8799Z" fill="#F8F8F8"/>
</g>
<path d="M55.8799 7.43018H52.1599V11.1502H55.8799V7.43018Z" fill="#E2E2E2"/>
<path d="M55.8799 3.70996H52.1599V7.42996H55.8799V3.70996Z" fill="#E2E2E2"/>
<path d="M52.1599 14.8701H48.4399V18.5901H52.1599V14.8701Z" fill="#E2E2E2"/>
<path d="M52.1599 11.1499H48.4399V14.8699H52.1599V11.1499Z" fill="#E2E2E2"/>
<path d="M48.44 22.3101H44.72V26.0301H48.44V22.3101Z" fill="#CACACA"/>
<path d="M48.44 18.5898H44.72V22.3098H48.44V18.5898Z" fill="#E2E2E2"/>
<path d="M44.72 26.03H41V29.75H44.72V26.03Z" fill="#B3B3B3"/>
<path d="M48.44 26.03H44.72V29.75H48.44H52.16H55.88V26.03H52.16H48.44Z" fill="#E2E2E2"/>
<path d="M70.76 7.43018H67.04V11.1502H70.76V7.43018Z" fill="#E2E2E2"/>
<path d="M70.76 3.70996H67.04V7.42996H70.76V3.70996Z" fill="#E2E2E2"/>
<path d="M67.0401 14.8701H63.3201V18.5901H67.0401V14.8701Z" fill="#E2E2E2"/>
<path d="M67.0401 11.1499H63.3201V14.8699H67.0401V11.1499Z" fill="#E2E2E2"/>
<path d="M63.3199 22.3101H59.5999V26.0301H63.3199V22.3101Z" fill="#CACACA"/>
<path d="M63.3199 18.5898H59.5999V22.3098H63.3199V18.5898Z" fill="#E2E2E2"/>
<path d="M59.5999 26.03H55.8799V29.75H59.5999V26.03Z" fill="#B3B3B3"/>
<g style="mix-blend-mode:multiply">
<path d="M55.8799 26.0301H59.5999V22.3101H55.8799H52.1599H48.4399V26.0301H52.1599H55.8799Z" fill="#F8F8F8"/>
</g>
<g style="mix-blend-mode:multiply">
<path d="M115.28 26.0301H119V22.3101H115.28H111.56H107.84V26.0301H111.56H115.28Z" fill="#F8F8F8"/>
</g>
<g style="mix-blend-mode:multiply">
<path d="M130.15 26.0301H133.87V22.3101H130.15H126.43H122.71V26.0301H126.43H130.15Z" fill="#F8F8F8"/>
</g>
<g style="mix-blend-mode:multiply">
<path d="M145.02 26.0301H148.74V22.3101H145.02H141.3H137.58V26.0301H141.3H145.02Z" fill="#F8F8F8"/>
</g>
<g style="mix-blend-mode:multiply">
<path d="M159.89 26.0301H163.61V22.3101H159.89H156.17H152.45V26.0301H156.17H159.89Z" fill="#F8F8F8"/>
</g>
<g style="mix-blend-mode:multiply">
<path d="M174.79 18.5899V14.8699V11.1499H171.07V14.8699V18.5899V22.3099V26.0299H174.79V22.3099V18.5899Z" fill="#F8F8F8"/>
</g>
<g style="mix-blend-mode:multiply">
<path d="M167.35 29.75V33.47H171.07H174.79V29.75H171.07H167.35Z" fill="#F8F8F8"/>
</g>
<g style="mix-blend-mode:multiply">
<path d="M178.51 11.1499V26.0299H174.79V29.7499H178.51H182.23V11.1499H178.51Z" fill="#F8F8F8"/>
</g>
<g style="mix-blend-mode:multiply">
<path d="M167.47 34H15V37.72H167.47V34Z" fill="#F8F8F8"/>
</g>
<path d="M55.76 7.42993H52.04V11.1499H55.76V7.42993Z" fill="#BE7100"/>
<path d="M55.76 3.70996H52.04V7.42996H55.76V3.70996Z" fill="#A36000"/>
<path d="M52.0401 14.8701H48.3201V18.5901H52.0401V14.8701Z" fill="#A16700"/>
<path d="M52.0401 11.1499H48.3201V14.8699H52.0401V11.1499Z" fill="#A16700"/>
<path d="M52.0401 7.42993H48.3201V11.1499H52.0401V7.42993Z" fill="#FFD69C"/>
<path d="M52.0401 3.70996H48.3201V7.42996H52.0401V3.70996Z" fill="#FFBC57"/>
<path d="M48.3199 22.3101H44.5999V26.0301H48.3199V22.3101Z" fill="#8C5000"/>
<path d="M48.3199 18.5898H44.5999V22.3098H48.3199V18.5898Z" fill="#A16700"/>
<path d="M48.3199 14.8701H44.5999V18.5901H48.3199V14.8701Z" fill="#FF9E03"/>
<path d="M48.3199 11.1499H44.5999V14.8699H48.3199V11.1499Z" fill="#FF9E03"/>
<path d="M48.3199 7.42993H44.5999V11.1499H48.3199V7.42993Z" fill="#FFD69C"/>
<path d="M48.3199 3.70996H44.5999V7.42996H48.3199V3.70996Z" fill="#FFBC57"/>
<path d="M44.5999 26.0298H40.8799V29.7498H44.5999V26.0298Z" fill="#7D4500"/>
<path d="M44.5999 22.3101H40.8799V26.0301H44.5999V22.3101Z" fill="#EB8201"/>
<path d="M44.5999 18.5898H40.8799V22.3098H44.5999V18.5898Z" fill="#FF9E03"/>
<path d="M44.5999 14.8701H40.8799V18.5901H44.5999V14.8701Z" fill="#FF9E03"/>
<path d="M44.5999 11.1499H40.8799V14.8699H44.5999V11.1499Z" fill="#FF9E03"/>
<path d="M44.5999 7.42993H40.8799V11.1499H44.5999V7.42993Z" fill="#FFD69C"/>
<path d="M44.5999 3.70996H40.8799V7.42996H44.5999V3.70996Z" fill="#FFBC57"/>
<path d="M40.8799 26.0298H37.1599V29.7498H40.8799V26.0298Z" fill="#B96400"/>
<path d="M40.8799 22.3101H37.1599V26.0301H40.8799V22.3101Z" fill="#EB8201"/>
<path d="M40.8799 18.5898H37.1599V22.3098H40.8799V18.5898Z" fill="#FF9E03"/>
<path d="M40.8799 14.8701H37.1599V18.5901H40.8799V14.8701Z" fill="#FF9E03"/>
<path d="M40.8799 11.1499H37.1599V14.8699H40.8799V11.1499Z" fill="#FF9E03"/>
<path d="M40.8799 7.42993H37.1599V11.1499H40.8799V7.42993Z" fill="#BE7100"/>
<path d="M40.8799 3.70996H37.1599V7.42996H40.8799V3.70996Z" fill="#A36000"/>
<path d="M37.1599 26.0298H33.4399V29.7498H37.1599V26.0298Z" fill="#B96400"/>
<path d="M37.1599 22.3101H33.4399V26.0301H37.1599V22.3101Z" fill="#EB8201"/>
<path d="M37.1599 18.5898H33.4399V22.3098H37.1599V18.5898Z" fill="#FF9E03"/>
<path d="M37.1599 14.8701H33.4399V18.5901H37.1599V14.8701Z" fill="#A16700"/>
<path d="M37.1599 11.1499H33.4399V14.8699H37.1599V11.1499Z" fill="#A16700"/>
<path d="M33.44 26.0298H29.72V29.7498H33.44V26.0298Z" fill="#B96400"/>
<path d="M33.44 22.3101H29.72V26.0301H33.44V22.3101Z" fill="#8C5000"/>
<path d="M33.44 18.5898H29.72V22.3098H33.44V18.5898Z" fill="#A16700"/>
<path d="M29.72 26.0298H26V29.7498H29.72V26.0298Z" fill="#7D4500"/>
<path d="M70.76 7.42993H67.04V11.1499H70.76V7.42993Z" fill="#BE7100"/>
<path d="M70.76 3.70996H67.04V7.42996H70.76V3.70996Z" fill="#A36000"/>
<path d="M67.0401 14.8701H63.3201V18.5901H67.0401V14.8701Z" fill="#A16700"/>
<path d="M67.0401 11.1499H63.3201V14.8699H67.0401V11.1499Z" fill="#A16700"/>
<path d="M67.0401 7.42993H63.3201V11.1499H67.0401V7.42993Z" fill="#FFD69C"/>
<path d="M67.0401 3.70996H63.3201V7.42996H67.0401V3.70996Z" fill="#FFBC57"/>
<path d="M63.3199 22.3101H59.5999V26.0301H63.3199V22.3101Z" fill="#8C5000"/>
<path d="M63.3199 18.5898H59.5999V22.3098H63.3199V18.5898Z" fill="#A16700"/>
<path d="M63.3199 14.8701H59.5999V18.5901H63.3199V14.8701Z" fill="#FF9E03"/>
<path d="M63.3199 11.1499H59.5999V14.8699H63.3199V11.1499Z" fill="#FF9E03"/>
<path d="M63.3199 7.42993H59.5999V11.1499H63.3199V7.42993Z" fill="#FFD69C"/>
<path d="M63.3199 3.70996H59.5999V7.42996H63.3199V3.70996Z" fill="#FFBC57"/>
<path d="M59.5999 26.0298H55.8799V29.7498H59.5999V26.0298Z" fill="#7D4500"/>
<path d="M59.5999 22.3101H55.8799V26.0301H59.5999V22.3101Z" fill="#EB8201"/>
<path d="M59.5999 18.5898H55.8799V22.3098H59.5999V18.5898Z" fill="#FF9E03"/>
<path d="M59.5999 14.8701H55.8799V18.5901H59.5999V14.8701Z" fill="#FF9E03"/>
<path d="M59.5999 11.1499H55.8799V14.8699H59.5999V11.1499Z" fill="#FF9E03"/>
<path d="M59.5999 7.42993H55.8799V11.1499H59.5999V7.42993Z" fill="#FFD69C"/>
<path d="M59.5999 3.70996H55.8799V7.42996H59.5999V3.70996Z" fill="#FFBC57"/>
<path d="M55.8799 26.0298H52.1599V29.7498H55.8799V26.0298Z" fill="#B96400"/>
<path d="M55.8799 22.3101H52.1599V26.0301H55.8799V22.3101Z" fill="#EB8201"/>
<path d="M55.8799 18.5898H52.1599V22.3098H55.8799V18.5898Z" fill="#FF9E03"/>
<path d="M55.8799 14.8701H52.1599V18.5901H55.8799V14.8701Z" fill="#FF9E03"/>
<path d="M55.8799 11.1499H52.1599V14.8699H55.8799V11.1499Z" fill="#FF9E03"/>
<path d="M55.8799 7.42993H52.1599V11.1499H55.8799V7.42993Z" fill="#BE7100"/>
<path d="M55.8799 3.70996H52.1599V7.42996H55.8799V3.70996Z" fill="#A36000"/>
<path d="M52.1599 26.0298H48.4399V29.7498H52.1599V26.0298Z" fill="#B96400"/>
<path d="M52.1599 22.3101H48.4399V26.0301H52.1599V22.3101Z" fill="#EB8201"/>
<path d="M52.1599 18.5898H48.4399V22.3098H52.1599V18.5898Z" fill="#FF9E03"/>
<path d="M52.1599 14.8701H48.4399V18.5901H52.1599V14.8701Z" fill="#A16700"/>
<path d="M52.1599 11.1499H48.4399V14.8699H52.1599V11.1499Z" fill="#A16700"/>
<path d="M48.44 26.0298H44.72V29.7498H48.44V26.0298Z" fill="#B96400"/>
<path d="M48.44 22.3101H44.72V26.0301H48.44V22.3101Z" fill="#8C5000"/>
<path d="M48.44 18.5898H44.72V22.3098H48.44V18.5898Z" fill="#A16700"/>
<path d="M44.72 26.0298H41V29.7498H44.72V26.0298Z" fill="#7D4500"/>
<path d="M85.76 7.42993H82.04V11.1499H85.76V7.42993Z" fill="#BE7100"/>
<path d="M85.76 3.70996H82.04V7.42996H85.76V3.70996Z" fill="#A36000"/>
<path d="M82.0401 14.8701H78.3201V18.5901H82.0401V14.8701Z" fill="#A16700"/>
<path d="M82.0401 11.1499H78.3201V14.8699H82.0401V11.1499Z" fill="#A16700"/>
<path d="M82.0401 7.42993H78.3201V11.1499H82.0401V7.42993Z" fill="#FFD69C"/>
<path d="M82.0401 3.70996H78.3201V7.42996H82.0401V3.70996Z" fill="#FFBC57"/>
<path d="M78.3199 22.3101H74.5999V26.0301H78.3199V22.3101Z" fill="#8C5000"/>
<path d="M78.3199 18.5898H74.5999V22.3098H78.3199V18.5898Z" fill="#A16700"/>
<path d="M78.3199 14.8701H74.5999V18.5901H78.3199V14.8701Z" fill="#FF9E03"/>
<path d="M78.3199 11.1499H74.5999V14.8699H78.3199V11.1499Z" fill="#FF9E03"/>
<path d="M78.3199 7.42993H74.5999V11.1499H78.3199V7.42993Z" fill="#FFD69C"/>
<path d="M78.3199 3.70996H74.5999V7.42996H78.3199V3.70996Z" fill="#FFBC57"/>
<path d="M74.5999 26.0298H70.8799V29.7498H74.5999V26.0298Z" fill="#7D4500"/>
<path d="M74.5999 22.3101H70.8799V26.0301H74.5999V22.3101Z" fill="#EB8201"/>
<path d="M74.5999 18.5898H70.8799V22.3098H74.5999V18.5898Z" fill="#FF9E03"/>
<path d="M74.5999 14.8701H70.8799V18.5901H74.5999V14.8701Z" fill="#FF9E03"/>
<path d="M74.5999 11.1499H70.8799V14.8699H74.5999V11.1499Z" fill="#FF9E03"/>
<path d="M74.5999 7.42993H70.8799V11.1499H74.5999V7.42993Z" fill="#FFD69C"/>
<path d="M74.5999 3.70996H70.8799V7.42996H74.5999V3.70996Z" fill="#FFBC57"/>
<path d="M70.8799 26.0298H67.1599V29.7498H70.8799V26.0298Z" fill="#B96400"/>
<path d="M70.8799 22.3101H67.1599V26.0301H70.8799V22.3101Z" fill="#EB8201"/>
<path d="M70.8799 18.5898H67.1599V22.3098H70.8799V18.5898Z" fill="#FF9E03"/>
<path d="M70.8799 14.8701H67.1599V18.5901H70.8799V14.8701Z" fill="#FF9E03"/>
<path d="M70.8799 11.1499H67.1599V14.8699H70.8799V11.1499Z" fill="#FF9E03"/>
<path d="M70.8799 7.42993H67.1599V11.1499H70.8799V7.42993Z" fill="#BE7100"/>
<path d="M70.8799 3.70996H67.1599V7.42996H70.8799V3.70996Z" fill="#A36000"/>
<path d="M67.1599 26.0298H63.4399V29.7498H67.1599V26.0298Z" fill="#B96400"/>
<path d="M67.1599 22.3101H63.4399V26.0301H67.1599V22.3101Z" fill="#EB8201"/>
<path d="M67.1599 18.5898H63.4399V22.3098H67.1599V18.5898Z" fill="#FF9E03"/>
<path d="M67.1599 14.8701H63.4399V18.5901H67.1599V14.8701Z" fill="#A16700"/>
<path d="M67.1599 11.1499H63.4399V14.8699H67.1599V11.1499Z" fill="#A16700"/>
<path d="M63.44 26.0298H59.72V29.7498H63.44V26.0298Z" fill="#B96400"/>
<path d="M63.44 22.3101H59.72V26.0301H63.44V22.3101Z" fill="#8C5000"/>
<path d="M63.44 18.5898H59.72V22.3098H63.44V18.5898Z" fill="#A16700"/>
<path d="M59.72 26.0298H56V29.7498H59.72V26.0298Z" fill="#7D4500"/>
<path d="M100.76 7.42993H97.04V11.1499H100.76V7.42993Z" fill="#BE7100"/>
<path d="M100.76 3.70996H97.04V7.42996H100.76V3.70996Z" fill="#A36000"/>
<path d="M97.0401 14.8701H93.3201V18.5901H97.0401V14.8701Z" fill="#A16700"/>
<path d="M97.0401 11.1499H93.3201V14.8699H97.0401V11.1499Z" fill="#A16700"/>
<path d="M97.0401 7.42993H93.3201V11.1499H97.0401V7.42993Z" fill="#FFD69C"/>
<path d="M97.0401 3.70996H93.3201V7.42996H97.0401V3.70996Z" fill="#FFBC57"/>
<path d="M93.3199 22.3101H89.5999V26.0301H93.3199V22.3101Z" fill="#8C5000"/>
<path d="M93.3199 18.5898H89.5999V22.3098H93.3199V18.5898Z" fill="#A16700"/>
<path d="M93.3199 14.8701H89.5999V18.5901H93.3199V14.8701Z" fill="#FF9E03"/>
<path d="M93.3199 11.1499H89.5999V14.8699H93.3199V11.1499Z" fill="#FF9E03"/>
<path d="M93.3199 7.42993H89.5999V11.1499H93.3199V7.42993Z" fill="#FFD69C"/>
<path d="M93.3199 3.70996H89.5999V7.42996H93.3199V3.70996Z" fill="#FFBC57"/>
<path d="M89.5999 26.0298H85.8799V29.7498H89.5999V26.0298Z" fill="#7D4500"/>
<path d="M89.5999 22.3101H85.8799V26.0301H89.5999V22.3101Z" fill="#EB8201"/>
<path d="M89.5999 18.5898H85.8799V22.3098H89.5999V18.5898Z" fill="#FF9E03"/>
<path d="M89.5999 14.8701H85.8799V18.5901H89.5999V14.8701Z" fill="#FF9E03"/>
<path d="M89.5999 11.1499H85.8799V14.8699H89.5999V11.1499Z" fill="#FF9E03"/>
<path d="M89.5999 7.42993H85.8799V11.1499H89.5999V7.42993Z" fill="#FFD69C"/>
<path d="M89.5999 3.70996H85.8799V7.42996H89.5999V3.70996Z" fill="#FFBC57"/>
<path d="M85.8799 26.0298H82.1599V29.7498H85.8799V26.0298Z" fill="#B96400"/>
<path d="M85.8799 22.3101H82.1599V26.0301H85.8799V22.3101Z" fill="#EB8201"/>
<path d="M85.8799 18.5898H82.1599V22.3098H85.8799V18.5898Z" fill="#FF9E03"/>
<path d="M85.8799 14.8701H82.1599V18.5901H85.8799V14.8701Z" fill="#FF9E03"/>
<path d="M85.8799 11.1499H82.1599V14.8699H85.8799V11.1499Z" fill="#FF9E03"/>
<path d="M85.8799 7.42993H82.1599V11.1499H85.8799V7.42993Z" fill="#BE7100"/>
<path d="M85.8799 3.70996H82.1599V7.42996H85.8799V3.70996Z" fill="#A36000"/>
<path d="M82.1599 26.0298H78.4399V29.7498H82.1599V26.0298Z" fill="#B96400"/>
<path d="M82.1599 22.3101H78.4399V26.0301H82.1599V22.3101Z" fill="#EB8201"/>
<path d="M82.1599 18.5898H78.4399V22.3098H82.1599V18.5898Z" fill="#FF9E03"/>
<path d="M82.1599 14.8701H78.4399V18.5901H82.1599V14.8701Z" fill="#A16700"/>
<path d="M82.1599 11.1499H78.4399V14.8699H82.1599V11.1499Z" fill="#A16700"/>
<path d="M78.44 26.0298H74.72V29.7498H78.44V26.0298Z" fill="#B96400"/>
<path d="M78.44 22.3101H74.72V26.0301H78.44V22.3101Z" fill="#8C5000"/>
<path d="M78.44 18.5898H74.72V22.3098H78.44V18.5898Z" fill="#A16700"/>
<path d="M74.72 26.0298H71V29.7498H74.72V26.0298Z" fill="#7D4500"/>
<path d="M115.76 7.42993H112.04V11.1499H115.76V7.42993Z" fill="#BE7100"/>
<path d="M115.76 3.70996H112.04V7.42996H115.76V3.70996Z" fill="#A36000"/>
<path d="M112.04 14.8701H108.32V18.5901H112.04V14.8701Z" fill="#A16700"/>
<path d="M112.04 11.1499H108.32V14.8699H112.04V11.1499Z" fill="#A16700"/>
<path d="M112.04 7.42993H108.32V11.1499H112.04V7.42993Z" fill="#FFD69C"/>
<path d="M112.04 3.70996H108.32V7.42996H112.04V3.70996Z" fill="#FFBC57"/>
<path d="M108.32 22.3101H104.6V26.0301H108.32V22.3101Z" fill="#8C5000"/>
<path d="M108.32 18.5898H104.6V22.3098H108.32V18.5898Z" fill="#A16700"/>
<path d="M108.32 14.8701H104.6V18.5901H108.32V14.8701Z" fill="#FF9E03"/>
<path d="M108.32 11.1499H104.6V14.8699H108.32V11.1499Z" fill="#FF9E03"/>
<path d="M108.32 7.42993H104.6V11.1499H108.32V7.42993Z" fill="#FFD69C"/>
<path d="M108.32 3.70996H104.6V7.42996H108.32V3.70996Z" fill="#FFBC57"/>
<path d="M104.6 26.0298H100.88V29.7498H104.6V26.0298Z" fill="#7D4500"/>
<path d="M104.6 22.3101H100.88V26.0301H104.6V22.3101Z" fill="#EB8201"/>
<path d="M104.6 18.5898H100.88V22.3098H104.6V18.5898Z" fill="#FF9E03"/>
<path d="M104.6 14.8701H100.88V18.5901H104.6V14.8701Z" fill="#FF9E03"/>
<path d="M104.6 11.1499H100.88V14.8699H104.6V11.1499Z" fill="#FF9E03"/>
<path d="M104.6 7.42993H100.88V11.1499H104.6V7.42993Z" fill="#FFD69C"/>
<path d="M104.6 3.70996H100.88V7.42996H104.6V3.70996Z" fill="#FFBC57"/>
<path d="M100.88 26.0298H97.1599V29.7498H100.88V26.0298Z" fill="#B96400"/>
<path d="M100.88 22.3101H97.1599V26.0301H100.88V22.3101Z" fill="#EB8201"/>
<path d="M100.88 18.5898H97.1599V22.3098H100.88V18.5898Z" fill="#FF9E03"/>
<path d="M100.88 14.8701H97.1599V18.5901H100.88V14.8701Z" fill="#FF9E03"/>
<path d="M100.88 11.1499H97.1599V14.8699H100.88V11.1499Z" fill="#FF9E03"/>
<path d="M100.88 7.42993H97.1599V11.1499H100.88V7.42993Z" fill="#BE7100"/>
<path d="M100.88 3.70996H97.1599V7.42996H100.88V3.70996Z" fill="#A36000"/>
<path d="M97.1599 26.0298H93.4399V29.7498H97.1599V26.0298Z" fill="#B96400"/>
<path d="M97.1599 22.3101H93.4399V26.0301H97.1599V22.3101Z" fill="#EB8201"/>
<path d="M97.1599 18.5898H93.4399V22.3098H97.1599V18.5898Z" fill="#FF9E03"/>
<path d="M97.1599 14.8701H93.4399V18.5901H97.1599V14.8701Z" fill="#A16700"/>
<path d="M97.1599 11.1499H93.4399V14.8699H97.1599V11.1499Z" fill="#A16700"/>
<path d="M93.44 26.0298H89.72V29.7498H93.44V26.0298Z" fill="#B96400"/>
<path d="M93.44 22.3101H89.72V26.0301H93.44V22.3101Z" fill="#8C5000"/>
<path d="M93.44 18.5898H89.72V22.3098H93.44V18.5898Z" fill="#A16700"/>
<path d="M89.72 26.0298H86V29.7498H89.72V26.0298Z" fill="#7D4500"/>
<path d="M130.76 7.42993H127.04V11.1499H130.76V7.42993Z" fill="#BE7100"/>
<path d="M130.76 3.70996H127.04V7.42996H130.76V3.70996Z" fill="#A36000"/>
<path d="M127.04 14.8701H123.32V18.5901H127.04V14.8701Z" fill="#A16700"/>
<path d="M127.04 11.1499H123.32V14.8699H127.04V11.1499Z" fill="#A16700"/>
<path d="M127.04 7.42993H123.32V11.1499H127.04V7.42993Z" fill="#FFD69C"/>
<path d="M127.04 3.70996H123.32V7.42996H127.04V3.70996Z" fill="#FFBC57"/>
<path d="M123.32 22.3101H119.6V26.0301H123.32V22.3101Z" fill="#8C5000"/>
<path d="M123.32 18.5898H119.6V22.3098H123.32V18.5898Z" fill="#A16700"/>
<path d="M123.32 14.8701H119.6V18.5901H123.32V14.8701Z" fill="#FF9E03"/>
<path d="M123.32 11.1499H119.6V14.8699H123.32V11.1499Z" fill="#FF9E03"/>
<path d="M123.32 7.42993H119.6V11.1499H123.32V7.42993Z" fill="#FFD69C"/>
<path d="M123.32 3.70996H119.6V7.42996H123.32V3.70996Z" fill="#FFBC57"/>
<path d="M119.6 26.0298H115.88V29.7498H119.6V26.0298Z" fill="#7D4500"/>
<path d="M119.6 22.3101H115.88V26.0301H119.6V22.3101Z" fill="#EB8201"/>
<path d="M119.6 18.5898H115.88V22.3098H119.6V18.5898Z" fill="#FF9E03"/>
<path d="M119.6 14.8701H115.88V18.5901H119.6V14.8701Z" fill="#FF9E03"/>
<path d="M119.6 11.1499H115.88V14.8699H119.6V11.1499Z" fill="#FF9E03"/>
<path d="M119.6 7.42993H115.88V11.1499H119.6V7.42993Z" fill="#FFD69C"/>
<path d="M119.6 3.70996H115.88V7.42996H119.6V3.70996Z" fill="#FFBC57"/>
<path d="M115.88 26.0298H112.16V29.7498H115.88V26.0298Z" fill="#B96400"/>
<path d="M115.88 22.3101H112.16V26.0301H115.88V22.3101Z" fill="#EB8201"/>
<path d="M115.88 18.5898H112.16V22.3098H115.88V18.5898Z" fill="#FF9E03"/>
<path d="M115.88 14.8701H112.16V18.5901H115.88V14.8701Z" fill="#FF9E03"/>
<path d="M115.88 11.1499H112.16V14.8699H115.88V11.1499Z" fill="#FF9E03"/>
<path d="M115.88 7.42993H112.16V11.1499H115.88V7.42993Z" fill="#BE7100"/>
<path d="M115.88 3.70996H112.16V7.42996H115.88V3.70996Z" fill="#A36000"/>
<path d="M112.16 26.0298H108.44V29.7498H112.16V26.0298Z" fill="#B96400"/>
<path d="M112.16 22.3101H108.44V26.0301H112.16V22.3101Z" fill="#EB8201"/>
<path d="M112.16 18.5898H108.44V22.3098H112.16V18.5898Z" fill="#FF9E03"/>
<path d="M112.16 14.8701H108.44V18.5901H112.16V14.8701Z" fill="#A16700"/>
<path d="M112.16 11.1499H108.44V14.8699H112.16V11.1499Z" fill="#A16700"/>
<path d="M108.44 26.0298H104.72V29.7498H108.44V26.0298Z" fill="#B96400"/>
<path d="M108.44 22.3101H104.72V26.0301H108.44V22.3101Z" fill="#8C5000"/>
<path d="M108.44 18.5898H104.72V22.3098H108.44V18.5898Z" fill="#A16700"/>
<path d="M104.72 26.0298H101V29.7498H104.72V26.0298Z" fill="#7D4500"/>
<path d="M145.76 7.42993H142.04V11.1499H145.76V7.42993Z" fill="#BE7100"/>
<path d="M145.76 3.70996H142.04V7.42996H145.76V3.70996Z" fill="#A36000"/>
<path d="M142.04 14.8701H138.32V18.5901H142.04V14.8701Z" fill="#A16700"/>
<path d="M142.04 11.1499H138.32V14.8699H142.04V11.1499Z" fill="#A16700"/>
<path d="M142.04 7.42993H138.32V11.1499H142.04V7.42993Z" fill="#FFD69C"/>
<path d="M142.04 3.70996H138.32V7.42996H142.04V3.70996Z" fill="#FFBC57"/>
<path d="M138.32 22.3101H134.6V26.0301H138.32V22.3101Z" fill="#8C5000"/>
<path d="M138.32 18.5898H134.6V22.3098H138.32V18.5898Z" fill="#A16700"/>
<path d="M138.32 14.8701H134.6V18.5901H138.32V14.8701Z" fill="#FF9E03"/>
<path d="M138.32 11.1499H134.6V14.8699H138.32V11.1499Z" fill="#FF9E03"/>
<path d="M138.32 7.42993H134.6V11.1499H138.32V7.42993Z" fill="#FFD69C"/>
<path d="M138.32 3.70996H134.6V7.42996H138.32V3.70996Z" fill="#FFBC57"/>
<path d="M134.6 26.0298H130.88V29.7498H134.6V26.0298Z" fill="#7D4500"/>
<path d="M134.6 22.3101H130.88V26.0301H134.6V22.3101Z" fill="#EB8201"/>
<path d="M134.6 18.5898H130.88V22.3098H134.6V18.5898Z" fill="#FF9E03"/>
<path d="M134.6 14.8701H130.88V18.5901H134.6V14.8701Z" fill="#FF9E03"/>
<path d="M134.6 11.1499H130.88V14.8699H134.6V11.1499Z" fill="#FF9E03"/>
<path d="M134.6 7.42993H130.88V11.1499H134.6V7.42993Z" fill="#FFD69C"/>
<path d="M134.6 3.70996H130.88V7.42996H134.6V3.70996Z" fill="#FFBC57"/>
<path d="M130.88 26.0298H127.16V29.7498H130.88V26.0298Z" fill="#B96400"/>
<path d="M130.88 22.3101H127.16V26.0301H130.88V22.3101Z" fill="#EB8201"/>
<path d="M130.88 18.5898H127.16V22.3098H130.88V18.5898Z" fill="#FF9E03"/>
<path d="M130.88 14.8701H127.16V18.5901H130.88V14.8701Z" fill="#FF9E03"/>
<path d="M130.88 11.1499H127.16V14.8699H130.88V11.1499Z" fill="#FF9E03"/>
<path d="M130.88 7.42993H127.16V11.1499H130.88V7.42993Z" fill="#BE7100"/>
<path d="M130.88 3.70996H127.16V7.42996H130.88V3.70996Z" fill="#A36000"/>
<path d="M127.16 26.0298H123.44V29.7498H127.16V26.0298Z" fill="#B96400"/>
<path d="M127.16 22.3101H123.44V26.0301H127.16V22.3101Z" fill="#EB8201"/>
<path d="M127.16 18.5898H123.44V22.3098H127.16V18.5898Z" fill="#FF9E03"/>
<path d="M127.16 14.8701H123.44V18.5901H127.16V14.8701Z" fill="#A16700"/>
<path d="M127.16 11.1499H123.44V14.8699H127.16V11.1499Z" fill="#A16700"/>
<path d="M123.44 26.0298H119.72V29.7498H123.44V26.0298Z" fill="#B96400"/>
<path d="M123.44 22.3101H119.72V26.0301H123.44V22.3101Z" fill="#8C5000"/>
<path d="M123.44 18.5898H119.72V22.3098H123.44V18.5898Z" fill="#A16700"/>
<path d="M119.72 26.0298H116V29.7498H119.72V26.0298Z" fill="#7D4500"/>
<path d="M159.76 7.42993H156.04V11.1499H159.76V7.42993Z" fill="#BE7100"/>
<path d="M159.76 3.70996H156.04V7.42996H159.76V3.70996Z" fill="#A36000"/>
<path d="M156.04 14.8701H152.32V18.5901H156.04V14.8701Z" fill="#A16700"/>
<path d="M156.04 11.1499H152.32V14.8699H156.04V11.1499Z" fill="#A16700"/>
<path d="M156.04 7.42993H152.32V11.1499H156.04V7.42993Z" fill="#FFD69C"/>
<path d="M156.04 3.70996H152.32V7.42996H156.04V3.70996Z" fill="#FFBC57"/>
<path d="M152.32 22.3101H148.6V26.0301H152.32V22.3101Z" fill="#8C5000"/>
<path d="M152.32 18.5898H148.6V22.3098H152.32V18.5898Z" fill="#A16700"/>
<path d="M152.32 14.8701H148.6V18.5901H152.32V14.8701Z" fill="#FF9E03"/>
<path d="M152.32 11.1499H148.6V14.8699H152.32V11.1499Z" fill="#FF9E03"/>
<path d="M152.32 7.42993H148.6V11.1499H152.32V7.42993Z" fill="#FFD69C"/>
<path d="M152.32 3.70996H148.6V7.42996H152.32V3.70996Z" fill="#FFBC57"/>
<path d="M148.6 26.0298H144.88V29.7498H148.6V26.0298Z" fill="#7D4500"/>
<path d="M148.6 22.3101H144.88V26.0301H148.6V22.3101Z" fill="#EB8201"/>
<path d="M148.6 18.5898H144.88V22.3098H148.6V18.5898Z" fill="#FF9E03"/>
<path d="M148.6 14.8701H144.88V18.5901H148.6V14.8701Z" fill="#FF9E03"/>
<path d="M148.6 11.1499H144.88V14.8699H148.6V11.1499Z" fill="#FF9E03"/>
<path d="M148.6 7.42993H144.88V11.1499H148.6V7.42993Z" fill="#FFD69C"/>
<path d="M148.6 3.70996H144.88V7.42996H148.6V3.70996Z" fill="#FFBC57"/>
<path d="M144.88 26.0298H141.16V29.7498H144.88V26.0298Z" fill="#B96400"/>
<path d="M144.88 22.3101H141.16V26.0301H144.88V22.3101Z" fill="#EB8201"/>
<path d="M144.88 18.5898H141.16V22.3098H144.88V18.5898Z" fill="#FF9E03"/>
<path d="M144.88 14.8701H141.16V18.5901H144.88V14.8701Z" fill="#FF9E03"/>
<path d="M144.88 11.1499H141.16V14.8699H144.88V11.1499Z" fill="#FF9E03"/>
<path d="M144.88 7.42993H141.16V11.1499H144.88V7.42993Z" fill="#BE7100"/>
<path d="M144.88 3.70996H141.16V7.42996H144.88V3.70996Z" fill="#A36000"/>
<path d="M141.16 26.0298H137.44V29.7498H141.16V26.0298Z" fill="#B96400"/>
<path d="M141.16 22.3101H137.44V26.0301H141.16V22.3101Z" fill="#EB8201"/>
<path d="M141.16 18.5898H137.44V22.3098H141.16V18.5898Z" fill="#FF9E03"/>
<path d="M141.16 14.8701H137.44V18.5901H141.16V14.8701Z" fill="#A16700"/>
<path d="M141.16 11.1499H137.44V14.8699H141.16V11.1499Z" fill="#A16700"/>
<path d="M137.44 26.0298H133.72V29.7498H137.44V26.0298Z" fill="#B96400"/>
<path d="M137.44 22.3101H133.72V26.0301H137.44V22.3101Z" fill="#8C5000"/>
<path d="M137.44 18.5898H133.72V22.3098H137.44V18.5898Z" fill="#A16700"/>
<path d="M133.72 26.0298H130V29.7498H133.72V26.0298Z" fill="#7D4500"/>
<path d="M174.76 7.42993H171.04V11.1499H174.76V7.42993Z" fill="#BE7100"/>
<path d="M171.04 14.8701H167.32V18.5901H171.04V14.8701Z" fill="#A16700"/>
<path d="M171.04 11.1499H167.32V14.8699H171.04V11.1499Z" fill="#A16700"/>
<path d="M171.04 7.42993H167.32V11.1499H171.04V7.42993Z" fill="#FFD69C"/>
<path d="M167.32 22.3101H163.6V26.0301H167.32V22.3101Z" fill="#8C5000"/>
<path d="M167.32 18.5898H163.6V22.3098H167.32V18.5898Z" fill="#A16700"/>
<path d="M167.32 14.8701H163.6V18.5901H167.32V14.8701Z" fill="#FF9E03"/>
<path d="M167.32 11.1499H163.6V14.8699H167.32V11.1499Z" fill="#FF9E03"/>
<path d="M167.32 7.42993H163.6V11.1499H167.32V7.42993Z" fill="#FFD69C"/>
<path d="M167.32 3.70996H163.6V7.42996H167.32V3.70996Z" fill="#FFBC57"/>
<path d="M163.6 26.0298H159.88V29.7498H163.6V26.0298Z" fill="#7D4500"/>
<path d="M163.6 22.3101H159.88V26.0301H163.6V22.3101Z" fill="#EB8201"/>
<path d="M163.6 18.5898H159.88V22.3098H163.6V18.5898Z" fill="#FF9E03"/>
<path d="M163.6 14.8701H159.88V18.5901H163.6V14.8701Z" fill="#FF9E03"/>
<path d="M163.6 11.1499H159.88V14.8699H163.6V11.1499Z" fill="#FF9E03"/>
<path d="M163.6 7.42993H159.88V11.1499H163.6V7.42993Z" fill="#FFD69C"/>
<path d="M163.6 3.70996H159.88V7.42996H163.6V3.70996Z" fill="#FFBC57"/>
<path d="M159.88 26.0298H156.16V29.7498H159.88V26.0298Z" fill="#B96400"/>
<path d="M159.88 22.3101H156.16V26.0301H159.88V22.3101Z" fill="#EB8201"/>
<path d="M159.88 18.5898H156.16V22.3098H159.88V18.5898Z" fill="#FF9E03"/>
<path d="M159.88 14.8701H156.16V18.5901H159.88V14.8701Z" fill="#FF9E03"/>
<path d="M159.88 11.1499H156.16V14.8699H159.88V11.1499Z" fill="#FF9E03"/>
<path d="M159.88 7.42993H156.16V11.1499H159.88V7.42993Z" fill="#BE7100"/>
<path d="M159.88 3.70996H156.16V7.42996H159.88V3.70996Z" fill="#A36000"/>
<path d="M156.16 26.0298H152.44V29.7498H156.16V26.0298Z" fill="#B96400"/>
<path d="M156.16 22.3101H152.44V26.0301H156.16V22.3101Z" fill="#EB8201"/>
<path d="M156.16 18.5898H152.44V22.3098H156.16V18.5898Z" fill="#FF9E03"/>
<path d="M156.16 14.8701H152.44V18.5901H156.16V14.8701Z" fill="#A16700"/>
<path d="M156.16 11.1499H152.44V14.8699H156.16V11.1499Z" fill="#A16700"/>
<path d="M152.44 26.0298H148.72V29.7498H152.44V26.0298Z" fill="#B96400"/>
<path d="M152.44 22.3101H148.72V26.0301H152.44V22.3101Z" fill="#8C5000"/>
<path d="M152.44 18.5898H148.72V22.3098H152.44V18.5898Z" fill="#A16700"/>
<path d="M148.72 26.0298H145V29.7498H148.72V26.0298Z" fill="#7D4500"/>
<path d="M174.88 22.3101H171.16V26.0301H174.88V22.3101Z" fill="#EB8201"/>
<path d="M174.88 18.5898H171.16V22.3098H174.88V18.5898Z" fill="#FF9E03"/>
<path d="M174.88 14.8701H171.16V18.5901H174.88V14.8701Z" fill="#FF9E03"/>
<path d="M174.88 11.1499H171.16V14.8699H174.88V11.1499Z" fill="#FF9E03"/>
<path d="M171.16 22.3101H167.44V26.0301H171.16V22.3101Z" fill="#EB8201"/>
<path d="M171.16 18.5898H167.44V22.3098H171.16V18.5898Z" fill="#FF9E03"/>
<path d="M171.16 14.8701H167.44V18.5901H171.16V14.8701Z" fill="#A16700"/>
<path d="M171.16 11.1499H167.44V14.8699H171.16V11.1499Z" fill="#A16700"/>
<path d="M167.44 26.0298H163.72V29.7498H167.44V26.0298Z" fill="#B96400"/>
<path d="M167.44 22.3101H163.72V26.0301H167.44V22.3101Z" fill="#8C5000"/>
<path d="M167.44 18.5898H163.72V22.3098H167.44V18.5898Z" fill="#A16700"/>
<path d="M163.72 26.0298H160V29.7498H163.72V26.0298Z" fill="#7D4500"/>
</svg>
