<svg width="183" height="38" viewBox="0 0 183 38" fill="none" xmlns="http://www.w3.org/2000/svg">
<path d="M40.8799 7.62H37.1599V11.34H40.8799V7.62Z" fill="#E2E2E2"/>
<path d="M40.8799 3.8999H37.1599V7.6199H40.8799V3.8999Z" fill="#E2E2E2"/>
<path d="M37.1599 15.0599H33.4399V18.7799H37.1599V15.0599Z" fill="#E2E2E2"/>
<path d="M37.1599 11.34H33.4399V15.06H37.1599V11.34Z" fill="#E2E2E2"/>
<path d="M33.44 22.5H29.72V26.22H33.44V22.5Z" fill="#CACACA"/>
<path d="M33.44 18.7799H29.72V22.4999H33.44V18.7799Z" fill="#E2E2E2"/>
<path d="M29.72 26.22H26V29.94H29.72V26.22Z" fill="#B3B3B3"/>
<path d="M33.44 26.22H29.72V29.94H33.44H37.16H40.88V26.22H37.16H33.44Z" fill="#E2E2E2"/>
<path d="M55.76 7.62H52.04V11.34H55.76V7.62Z" fill="#E2E2E2"/>
<path d="M55.76 3.8999H52.04V7.6199H55.76V3.8999Z" fill="#E2E2E2"/>
<path d="M52.0401 15.0599H48.3201V18.7799H52.0401V15.0599Z" fill="#E2E2E2"/>
<path d="M52.0401 11.34H48.3201V15.06H52.0401V11.34Z" fill="#E2E2E2"/>
<path d="M48.3199 22.5H44.5999V26.22H48.3199V22.5Z" fill="#CACACA"/>
<path d="M48.3199 18.7799H44.5999V22.4999H48.3199V18.7799Z" fill="#E2E2E2"/>
<path d="M44.5999 26.22H40.8799V29.94H44.5999V26.22Z" fill="#B3B3B3"/>
<g style="mix-blend-mode:multiply">
<path d="M40.8799 26.22H44.5999V22.5H40.8799H37.1599H33.4399V26.22H37.1599H40.8799Z" fill="#F8F8F8"/>
</g>
<path d="M78.0999 26.22H74.3799V29.94H78.0999H81.8199H85.5399V26.22H81.8199H78.0999Z" fill="#E2E2E2"/>
<path d="M107.84 26.22H104.12V29.94H107.84V26.22Z" fill="#E2E2E2"/>
<path d="M107.85 26.22V29.94H111.57H115.29V26.22H111.57H107.85Z" fill="#E2E2E2"/>
<path d="M122.71 26.22H118.99V29.94H122.71V26.22Z" fill="#E2E2E2"/>
<path d="M122.73 26.22V29.94H126.45H130.17V26.22H126.45H122.73Z" fill="#E2E2E2"/>
<path d="M137.61 26.22H133.89V29.94H137.61H141.33H145.05V26.22H141.33H137.61Z" fill="#E2E2E2"/>
<path d="M156.17 26.22H152.49H152.45H148.77V29.94H152.45H152.49H156.17H159.89V26.22H156.17Z" fill="#E2E2E2"/>
<g style="mix-blend-mode:multiply">
<path d="M167.36 26.22H163.64V29.94H167.36V26.22Z" fill="#E2E2E2"/>
</g>
<g style="mix-blend-mode:multiply">
<path d="M171.09 22.5H167.37V26.22H171.09V22.5Z" fill="#F8F8F8"/>
</g>
<path d="M130.17 7.62H126.45V11.34H130.17V7.62Z" fill="#E2E2E2"/>
<path d="M130.17 3.8999H126.45V7.6199H130.17V3.8999Z" fill="#E2E2E2"/>
<path d="M126.45 15.0599H122.73V18.7799H126.45V15.0599Z" fill="#E2E2E2"/>
<path d="M126.45 11.34H122.73V15.06H126.45V11.34Z" fill="#E2E2E2"/>
<path d="M122.73 22.5H119.01V26.22H122.73V22.5Z" fill="#CACACA"/>
<path d="M122.73 18.7799H119.01V22.4999H122.73V18.7799Z" fill="#E2E2E2"/>
<path d="M119.01 26.22H115.29V29.94H119.01V26.22Z" fill="#B3B3B3"/>
<path d="M145.05 7.62H141.33V11.34H145.05V7.62Z" fill="#E2E2E2"/>
<path d="M145.05 3.8999H141.33V7.6199H145.05V3.8999Z" fill="#E2E2E2"/>
<path d="M141.33 15.0599H137.61V18.7799H141.33V15.0599Z" fill="#E2E2E2"/>
<path d="M141.33 11.34H137.61V15.06H141.33V11.34Z" fill="#E2E2E2"/>
<path d="M137.61 22.5H133.89V26.22H137.61V22.5Z" fill="#CACACA"/>
<path d="M137.61 18.7799H133.89V22.4999H137.61V18.7799Z" fill="#E2E2E2"/>
<path d="M133.89 26.22H130.17V29.94H133.89V26.22Z" fill="#B3B3B3"/>
<path d="M159.93 7.62H156.21V11.34H159.93V7.62Z" fill="#E2E2E2"/>
<path d="M159.93 3.8999H156.21V7.6199H159.93V3.8999Z" fill="#E2E2E2"/>
<path d="M156.21 15.0599H152.49V18.7799H156.21V15.0599Z" fill="#E2E2E2"/>
<path d="M156.21 11.34H152.49V15.06H156.21V11.34Z" fill="#E2E2E2"/>
<path d="M152.49 22.5H148.77V26.22H152.49V22.5Z" fill="#CACACA"/>
<path d="M152.49 18.7799H148.77V22.4999H152.49V18.7799Z" fill="#E2E2E2"/>
<path d="M148.77 26.22H145.05V29.94H148.77V26.22Z" fill="#B3B3B3"/>
<path d="M174.81 7.62H171.09V11.34H174.81V7.62Z" fill="#E2E2E2"/>
<path d="M171.09 15.0599H167.37V18.7799H171.09V15.0599Z" fill="#E2E2E2"/>
<path d="M171.09 11.34H167.37V15.06H171.09V11.34Z" fill="#E2E2E2"/>
<path d="M167.37 22.5H163.65V26.22H167.37V22.5Z" fill="#CACACA"/>
<path d="M167.37 18.7799H163.65V22.4999H167.37V18.7799Z" fill="#E2E2E2"/>
<path d="M163.61 26.22H159.89V29.94H163.61V26.22Z" fill="#B3B3B3"/>
<path d="M40.76 7.61987H37.04V11.3399H40.76V7.61987Z" fill="#BE7100"/>
<path d="M40.76 3.8999H37.04V7.6199H40.76V3.8999Z" fill="#A36000"/>
<path d="M37.0401 15.0599H33.3201V18.7799H37.0401V15.0599Z" fill="#A16700"/>
<path d="M37.0401 11.3398H33.3201V15.0598H37.0401V11.3398Z" fill="#A16700"/>
<path d="M37.0401 7.61987H33.3201V11.3399H37.0401V7.61987Z" fill="#FFD69C"/>
<path d="M37.0401 3.8999H33.3201V7.6199H37.0401V3.8999Z" fill="#FFBC57"/>
<path d="M33.3199 22.4999H29.5999V26.2199H33.3199V22.4999Z" fill="#8C5000"/>
<path d="M33.3199 18.7799H29.5999V22.4999H33.3199V18.7799Z" fill="#A16700"/>
<path d="M33.3199 15.0599H29.5999V18.7799H33.3199V15.0599Z" fill="#FF9E03"/>
<path d="M33.3199 11.3398H29.5999V15.0598H33.3199V11.3398Z" fill="#FF9E03"/>
<path d="M33.3199 7.61987H29.5999V11.3399H33.3199V7.61987Z" fill="#FFD69C"/>
<path d="M33.3199 3.8999H29.5999V7.6199H33.3199V3.8999Z" fill="#FFBC57"/>
<path d="M29.5999 26.2198H25.8799V29.9398H29.5999V26.2198Z" fill="#7D4500"/>
<path d="M29.5999 22.4999H25.8799V26.2199H29.5999V22.4999Z" fill="#EB8201"/>
<path d="M29.5999 18.7799H25.8799V22.4999H29.5999V18.7799Z" fill="#FF9E03"/>
<path d="M29.5999 15.0599H25.8799V18.7799H29.5999V15.0599Z" fill="#FF9E03"/>
<path d="M29.5999 11.3398H25.8799V15.0598H29.5999V11.3398Z" fill="#FF9E03"/>
<path d="M29.5999 7.61987H25.8799V11.3399H29.5999V7.61987Z" fill="#FFD69C"/>
<path d="M29.5999 3.8999H25.8799V7.6199H29.5999V3.8999Z" fill="#FFBC57"/>
<path d="M25.8799 26.2198H22.1599V29.9398H25.8799V26.2198Z" fill="#B96400"/>
<path d="M25.8799 22.4999H22.1599V26.2199H25.8799V22.4999Z" fill="#EB8201"/>
<path d="M25.8799 18.7799H22.1599V22.4999H25.8799V18.7799Z" fill="#FF9E03"/>
<path d="M25.8799 15.0599H22.1599V18.7799H25.8799V15.0599Z" fill="#FF9E03"/>
<path d="M25.8799 11.3398H22.1599V15.0598H25.8799V11.3398Z" fill="#FF9E03"/>
<path d="M25.8799 7.61987H22.1599V11.3399H25.8799V7.61987Z" fill="#BE7100"/>
<path d="M25.8799 3.8999H22.1599V7.6199H25.8799V3.8999Z" fill="#A36000"/>
<path d="M22.1599 26.2198H18.4399V29.9398H22.1599V26.2198Z" fill="#B96400"/>
<path d="M22.1599 22.4999H18.4399V26.2199H22.1599V22.4999Z" fill="#EB8201"/>
<path d="M22.1599 18.7799H18.4399V22.4999H22.1599V18.7799Z" fill="#FF9E03"/>
<path d="M22.1599 15.0599H18.4399V18.7799H22.1599V15.0599Z" fill="#A16700"/>
<path d="M22.1599 11.3398H18.4399V15.0598H22.1599V11.3398Z" fill="#A16700"/>
<path d="M18.44 26.2198H14.72V29.9398H18.44V26.2198Z" fill="#B96400"/>
<path d="M18.44 22.4999H14.72V26.2199H18.44V22.4999Z" fill="#8C5000"/>
<path d="M18.44 18.7799H14.72V22.4999H18.44V18.7799Z" fill="#A16700"/>
<path d="M14.72 26.2198H11V29.9398H14.72V26.2198Z" fill="#7D4500"/>
<path d="M26.0301 7.62H22.3101V11.34H26.0301V7.62Z" fill="#BE7100"/>
<path d="M26.0301 3.8999H22.3101V7.6199H26.0301V3.8999Z" fill="#A36000"/>
<path d="M22.3101 15.0599H18.5901V18.7799H22.3101V15.0599Z" fill="#A16700"/>
<path d="M22.3101 11.34H18.5901V15.06H22.3101V11.34Z" fill="#A16700"/>
<path d="M22.3101 7.62H18.5901V11.34H22.3101V7.62Z" fill="#FFD69C"/>
<path d="M22.3101 3.8999H18.5901V7.6199H22.3101V3.8999Z" fill="#FFBC57"/>
<path d="M18.5899 22.5H14.8799V26.22H18.5899V22.5Z" fill="#8C5000"/>
<path d="M18.5899 18.7799H14.8799V22.4999H18.5899V18.7799Z" fill="#A16700"/>
<path d="M18.5899 15.0599H14.8799V18.7799H18.5899V15.0599Z" fill="#FF9E03"/>
<path d="M18.5899 11.34H14.8799V15.06H18.5899V11.34Z" fill="#FF9E03"/>
<path d="M18.5899 7.62H14.8799V11.34H18.5899V7.62Z" fill="#FFD69C"/>
<path d="M18.5899 3.8999H14.8799V7.6199H18.5899V3.8999Z" fill="#FFBC57"/>
<path d="M14.8799 26.22H11.1599V29.94H14.8799V26.22Z" fill="#7D4500"/>
<path d="M14.8799 22.5H11.1599V26.22H14.8799V22.5Z" fill="#EB8201"/>
<path d="M14.8799 18.7799H11.1599V22.4999H14.8799V18.7799Z" fill="#FF9E03"/>
<path d="M14.8799 15.0599H11.1599V18.7799H14.8799V15.0599Z" fill="#FF9E03"/>
<path d="M14.8799 11.34H11.1599V15.06H14.8799V11.34Z" fill="#FF9E03"/>
<path d="M14.8799 7.62H11.1599V11.34H14.8799V7.62Z" fill="#FFA21B"/>
<path d="M14.8799 3.8999H11.1599V7.6199H14.8799V3.8999Z" fill="#FFBC57"/>
<path d="M11.1599 22.5H7.43994V26.22H11.1599V22.5Z" fill="#EB8201"/>
<path d="M11.1599 18.7799H7.43994V22.4999H11.1599V18.7799Z" fill="#FF9E03"/>
<path d="M11.1599 15.0599H7.43994V18.7799H11.1599V15.0599Z" fill="#FFA21B"/>
<path d="M11.1599 11.34H7.43994V15.06H11.1599V11.34Z" fill="#FFA21B"/>
<path d="M11.1599 7.62H7.43994V11.34H11.1599V7.62Z" fill="#FFBC57"/>
<path d="M7.43997 22.5H3.71997V26.22H7.43997V22.5Z" fill="#FF9E03"/>
<path d="M7.43997 18.7799H3.71997V22.4999H7.43997V18.7799Z" fill="#FFA21B"/>
<path d="M7.43997 15.0599H3.71997V18.7799H7.43997V15.0599Z" fill="#FFBC57"/>
<path d="M7.43997 11.34H3.71997V15.06H7.43997V11.34Z" fill="#FFD69C"/>
<path d="M7.43997 7.62H3.71997V11.34H7.43997V7.62Z" fill="#FFD69C"/>
<path d="M174.79 15.06V18.78V22.5V26.22H178.51V22.5V18.78V15.06V11.34V7.62H174.79V11.34V15.06Z" fill="#1D2920"/>
<path d="M167.35 26.22V29.94H171.07H174.79V26.22H171.07H167.35Z" fill="#1D2920"/>
<path d="M171.07 7.6199H174.79V3.8999H171.07H167.35V7.6199H171.07Z" fill="#1D2920"/>
<path d="M159.92 29.9399H156.2H152.48H148.76H145.04H141.32H137.6H133.88H130.16H126.45H122.73H119.01H115.29H111.57H107.85H104.13H100.41H96.6899H92.9699H89.2599H85.5399H81.8199H78.0999H74.3799H70.6599H66.9399H63.2199H59.4999H55.7799H52.0699H48.3499H44.6299H40.9099H37.1899H33.4699H29.7499H26.0299H22.3099H18.5899H14.8799H11.1599V33.6599H14.8799H18.5899H22.3099H26.0299H29.7499H33.4699H37.1899H40.9099H44.6299H48.3499H52.0699H55.7799H59.4999H63.2199H66.9399H70.6599H74.3799H78.0999H81.8199H85.5399H89.2599H92.9699H96.6899H100.41H104.13H107.85H111.57H115.29H119.01H122.73H126.45H130.16H133.88H137.6H141.32H145.04H148.76H152.48H156.2H159.92H163.64H167.35V29.9399H163.64H159.92Z" fill="#1D2920"/>
<path d="M18.5899 3.89994H22.3099H26.0299H29.7499H33.4699H37.1899H40.9099H44.6299H48.3499H52.0699H55.7799H59.4999H63.2199H66.9399H70.6599H74.3799H78.0999H81.8199H85.5399H89.2599H92.9699H96.6899H100.41H104.13H107.85H111.57H115.29H119.01H122.73H126.45H130.16H133.88H137.6H141.32H145.04H148.76H152.48H156.2H159.92H163.64H167.35V0.189941H163.64H159.92H156.2H152.48H148.76H145.04H141.32H137.6H133.88H130.16H126.45H122.73H119.01H115.29H111.57H107.85H104.13H100.41H96.6899H92.9699H89.2599H85.5399H81.8199H78.0999H74.3799H70.6599H66.9399H63.2199H59.4999H55.7799H52.0699H48.3499H44.6299H40.9099H37.1899H33.4699H29.7499H26.0299H22.3099H18.5899H14.8799H11.1599V3.89994H14.8799H18.5899Z" fill="#1D2920"/>
<path d="M7.43997 26.22H3.71997V29.94H7.43997H11.16V26.22H7.43997Z" fill="#1D2920"/>
<path d="M11.16 7.6199V3.8999H7.43997H3.71997V7.6199H7.43997H11.16Z" fill="#1D2920"/>
<path d="M3.72 22.5V18.78V15.06V11.34V7.62H0V11.34V15.06V18.78V22.5V26.22H3.72V22.5Z" fill="#1D2920"/>
<g style="mix-blend-mode:multiply">
<path d="M85.5401 26.22H89.2601V22.5H85.5401H81.8201H78.1001V26.22H81.8201H85.5401Z" fill="#F8F8F8"/>
</g>
<path d="M100.41 7.62H96.6899V11.34H100.41V7.62Z" fill="#E2E2E2"/>
<path d="M100.41 3.8999H96.6899V7.6199H100.41V3.8999Z" fill="#E2E2E2"/>
<path d="M96.69 15.0599H92.97V18.7799H96.69V15.0599Z" fill="#E2E2E2"/>
<path d="M96.69 11.34H92.97V15.06H96.69V11.34Z" fill="#E2E2E2"/>
<path d="M92.97 22.5H89.25V26.22H92.97V22.5Z" fill="#CACACA"/>
<path d="M92.97 18.7799H89.25V22.4999H92.97V18.7799Z" fill="#E2E2E2"/>
<path d="M89.25 26.22H85.53V29.94H89.25V26.22Z" fill="#B3B3B3"/>
<path d="M92.97 26.22H89.25V29.94H92.97H96.69H100.41V26.22H96.69H92.97Z" fill="#E2E2E2"/>
<path d="M115.29 7.62H111.57V11.34H115.29V7.62Z" fill="#E2E2E2"/>
<path d="M115.29 3.8999H111.57V7.6199H115.29V3.8999Z" fill="#E2E2E2"/>
<path d="M111.57 15.0599H107.85V18.7799H111.57V15.0599Z" fill="#E2E2E2"/>
<path d="M111.57 11.34H107.85V15.06H111.57V11.34Z" fill="#E2E2E2"/>
<path d="M107.85 22.5H104.13V26.22H107.85V22.5Z" fill="#CACACA"/>
<path d="M107.85 18.7799H104.13V22.4999H107.85V18.7799Z" fill="#E2E2E2"/>
<path d="M104.13 26.22H100.41V29.94H104.13V26.22Z" fill="#B3B3B3"/>
<g style="mix-blend-mode:multiply">
<path d="M100.41 26.22H104.13V22.5H100.41H96.69H92.97V26.22H96.69H100.41Z" fill="#F8F8F8"/>
</g>
<path d="M70.8799 7.62H67.1599V11.34H70.8799V7.62Z" fill="#E2E2E2"/>
<path d="M70.8799 3.8999H67.1599V7.6199H70.8799V3.8999Z" fill="#E2E2E2"/>
<path d="M67.1599 15.0599H63.4399V18.7799H67.1599V15.0599Z" fill="#E2E2E2"/>
<path d="M67.1599 11.34H63.4399V15.06H67.1599V11.34Z" fill="#E2E2E2"/>
<path d="M63.44 22.5H59.72V26.22H63.44V22.5Z" fill="#CACACA"/>
<path d="M63.44 18.7799H59.72V22.4999H63.44V18.7799Z" fill="#E2E2E2"/>
<path d="M59.72 26.22H56V29.94H59.72V26.22Z" fill="#B3B3B3"/>
<path d="M63.44 26.22H59.72V29.94H63.44H67.16H70.88V26.22H67.16H63.44Z" fill="#E2E2E2"/>
<path d="M85.76 7.62H82.04V11.34H85.76V7.62Z" fill="#E2E2E2"/>
<path d="M85.76 3.8999H82.04V7.6199H85.76V3.8999Z" fill="#E2E2E2"/>
<path d="M82.0401 15.0599H78.3201V18.7799H82.0401V15.0599Z" fill="#E2E2E2"/>
<path d="M82.0401 11.34H78.3201V15.06H82.0401V11.34Z" fill="#E2E2E2"/>
<path d="M78.3199 22.5H74.5999V26.22H78.3199V22.5Z" fill="#CACACA"/>
<path d="M78.3199 18.7799H74.5999V22.4999H78.3199V18.7799Z" fill="#E2E2E2"/>
<path d="M74.5999 26.22H70.8799V29.94H74.5999V26.22Z" fill="#B3B3B3"/>
<g style="mix-blend-mode:multiply">
<path d="M70.8799 26.22H74.5999V22.5H70.8799H67.1599H63.4399V26.22H67.1599H70.8799Z" fill="#F8F8F8"/>
</g>
<path d="M55.8799 7.62H52.1599V11.34H55.8799V7.62Z" fill="#E2E2E2"/>
<path d="M55.8799 3.8999H52.1599V7.6199H55.8799V3.8999Z" fill="#E2E2E2"/>
<path d="M52.1599 15.0599H48.4399V18.7799H52.1599V15.0599Z" fill="#E2E2E2"/>
<path d="M52.1599 11.34H48.4399V15.06H52.1599V11.34Z" fill="#E2E2E2"/>
<path d="M48.44 22.5H44.72V26.22H48.44V22.5Z" fill="#CACACA"/>
<path d="M48.44 18.7799H44.72V22.4999H48.44V18.7799Z" fill="#E2E2E2"/>
<path d="M44.72 26.22H41V29.94H44.72V26.22Z" fill="#B3B3B3"/>
<path d="M48.44 26.22H44.72V29.94H48.44H52.16H55.88V26.22H52.16H48.44Z" fill="#E2E2E2"/>
<path d="M70.76 7.62H67.04V11.34H70.76V7.62Z" fill="#E2E2E2"/>
<path d="M70.76 3.8999H67.04V7.6199H70.76V3.8999Z" fill="#E2E2E2"/>
<path d="M67.0401 15.0599H63.3201V18.7799H67.0401V15.0599Z" fill="#E2E2E2"/>
<path d="M67.0401 11.34H63.3201V15.06H67.0401V11.34Z" fill="#E2E2E2"/>
<path d="M63.3199 22.5H59.5999V26.22H63.3199V22.5Z" fill="#CACACA"/>
<path d="M63.3199 18.7799H59.5999V22.4999H63.3199V18.7799Z" fill="#E2E2E2"/>
<path d="M59.5999 26.22H55.8799V29.94H59.5999V26.22Z" fill="#B3B3B3"/>
<g style="mix-blend-mode:multiply">
<path d="M55.8799 26.22H59.5999V22.5H55.8799H52.1599H48.4399V26.22H52.1599H55.8799Z" fill="#F8F8F8"/>
</g>
<g style="mix-blend-mode:multiply">
<path d="M115.28 26.22H119V22.5H115.28H111.56H107.84V26.22H111.56H115.28Z" fill="#F8F8F8"/>
</g>
<g style="mix-blend-mode:multiply">
<path d="M130.15 26.22H133.87V22.5H130.15H126.43H122.71V26.22H126.43H130.15Z" fill="#F8F8F8"/>
</g>
<g style="mix-blend-mode:multiply">
<path d="M145.02 26.22H148.74V22.5H145.02H141.3H137.58V26.22H141.3H145.02Z" fill="#F8F8F8"/>
</g>
<g style="mix-blend-mode:multiply">
<path d="M159.89 26.22H163.61V22.5H159.89H156.17H152.45V26.22H156.17H159.89Z" fill="#F8F8F8"/>
</g>
<g style="mix-blend-mode:multiply">
<path d="M174.79 18.78V15.06V11.34H171.07V15.06V18.78V22.5V26.22H174.79V22.5V18.78Z" fill="#F8F8F8"/>
</g>
<g style="mix-blend-mode:multiply">
<path d="M167.35 29.9399V33.6599H171.07H174.79V29.9399H171.07H167.35Z" fill="#F8F8F8"/>
</g>
<g style="mix-blend-mode:multiply">
<path d="M178.51 11.34V26.22H174.79V29.94H178.51H182.23V11.34H178.51Z" fill="#F8F8F8"/>
</g>
<g style="mix-blend-mode:multiply">
<path d="M167.35 33.6599H14.8799V37.3799H167.35V33.6599Z" fill="#F8F8F8"/>
</g>
</svg>
