<svg width="183" height="39" viewBox="0 0 183 39" fill="none" xmlns="http://www.w3.org/2000/svg">
<path d="M40.8799 7.81H37.1599V11.53H40.8799V7.81Z" fill="#E2E2E2"/>
<path d="M40.8799 4.0899H37.1599V7.8099H40.8799V4.0899Z" fill="#E2E2E2"/>
<path d="M37.1599 15.2499H33.4399V18.9699H37.1599V15.2499Z" fill="#E2E2E2"/>
<path d="M37.1599 11.53H33.4399V15.25H37.1599V11.53Z" fill="#E2E2E2"/>
<path d="M33.44 22.69H29.72V26.41H33.44V22.69Z" fill="#CACACA"/>
<path d="M33.44 18.9699H29.72V22.6899H33.44V18.9699Z" fill="#E2E2E2"/>
<path d="M29.72 26.41H26V30.13H29.72V26.41Z" fill="#B3B3B3"/>
<path d="M33.44 26.41H29.72V30.13H33.44H37.16H40.88V26.41H37.16H33.44Z" fill="#E2E2E2"/>
<path d="M55.76 7.81H52.04V11.53H55.76V7.81Z" fill="#E2E2E2"/>
<path d="M55.76 4.0899H52.04V7.8099H55.76V4.0899Z" fill="#E2E2E2"/>
<path d="M52.0401 15.2499H48.3201V18.9699H52.0401V15.2499Z" fill="#E2E2E2"/>
<path d="M52.0401 11.53H48.3201V15.25H52.0401V11.53Z" fill="#E2E2E2"/>
<path d="M48.3199 22.69H44.5999V26.41H48.3199V22.69Z" fill="#CACACA"/>
<path d="M48.3199 18.9699H44.5999V22.6899H48.3199V18.9699Z" fill="#E2E2E2"/>
<path d="M44.5999 26.41H40.8799V30.13H44.5999V26.41Z" fill="#B3B3B3"/>
<g style="mix-blend-mode:multiply">
<path d="M40.8799 26.41H44.5999V22.69H40.8799H37.1599H33.4399V26.41H37.1599H40.8799Z" fill="#F8F8F8"/>
</g>
<path d="M78.0999 26.41H74.3799V30.13H78.0999H81.8199H85.5399V26.41H81.8199H78.0999Z" fill="#E2E2E2"/>
<path d="M107.84 26.41H104.12V30.13H107.84V26.41Z" fill="#E2E2E2"/>
<path d="M107.85 26.41V30.13H111.57H115.29V26.41H111.57H107.85Z" fill="#E2E2E2"/>
<path d="M122.71 26.41H118.99V30.13H122.71V26.41Z" fill="#E2E2E2"/>
<path d="M122.73 26.41V30.13H126.45H130.17V26.41H126.45H122.73Z" fill="#E2E2E2"/>
<path d="M137.61 26.41H133.89V30.13H137.61H141.33H145.05V26.41H141.33H137.61Z" fill="#E2E2E2"/>
<path d="M156.17 26.41H152.49H152.45H148.77V30.13H152.45H152.49H156.17H159.89V26.41H156.17Z" fill="#E2E2E2"/>
<g style="mix-blend-mode:multiply">
<path d="M167.36 26.41H163.64V30.13H167.36V26.41Z" fill="#E2E2E2"/>
</g>
<g style="mix-blend-mode:multiply">
<path d="M171.09 22.69H167.37V26.41H171.09V22.69Z" fill="#F8F8F8"/>
</g>
<path d="M130.17 7.81H126.45V11.53H130.17V7.81Z" fill="#E2E2E2"/>
<path d="M130.17 4.0899H126.45V7.8099H130.17V4.0899Z" fill="#E2E2E2"/>
<path d="M126.45 15.2499H122.73V18.9699H126.45V15.2499Z" fill="#E2E2E2"/>
<path d="M126.45 11.53H122.73V15.25H126.45V11.53Z" fill="#E2E2E2"/>
<path d="M122.73 22.69H119.01V26.41H122.73V22.69Z" fill="#CACACA"/>
<path d="M122.73 18.9699H119.01V22.6899H122.73V18.9699Z" fill="#E2E2E2"/>
<path d="M119.01 26.41H115.29V30.13H119.01V26.41Z" fill="#B3B3B3"/>
<path d="M145.05 7.81H141.33V11.53H145.05V7.81Z" fill="#E2E2E2"/>
<path d="M145.05 4.0899H141.33V7.8099H145.05V4.0899Z" fill="#E2E2E2"/>
<path d="M141.33 15.2499H137.61V18.9699H141.33V15.2499Z" fill="#E2E2E2"/>
<path d="M141.33 11.53H137.61V15.25H141.33V11.53Z" fill="#E2E2E2"/>
<path d="M137.61 22.69H133.89V26.41H137.61V22.69Z" fill="#CACACA"/>
<path d="M137.61 18.9699H133.89V22.6899H137.61V18.9699Z" fill="#E2E2E2"/>
<path d="M133.89 26.41H130.17V30.13H133.89V26.41Z" fill="#B3B3B3"/>
<path d="M159.93 7.81H156.21V11.53H159.93V7.81Z" fill="#E2E2E2"/>
<path d="M159.93 4.0899H156.21V7.8099H159.93V4.0899Z" fill="#E2E2E2"/>
<path d="M156.21 15.2499H152.49V18.9699H156.21V15.2499Z" fill="#E2E2E2"/>
<path d="M156.21 11.53H152.49V15.25H156.21V11.53Z" fill="#E2E2E2"/>
<path d="M152.49 22.69H148.77V26.41H152.49V22.69Z" fill="#CACACA"/>
<path d="M152.49 18.9699H148.77V22.6899H152.49V18.9699Z" fill="#E2E2E2"/>
<path d="M148.77 26.41H145.05V30.13H148.77V26.41Z" fill="#B3B3B3"/>
<path d="M174.81 7.81H171.09V11.53H174.81V7.81Z" fill="#E2E2E2"/>
<path d="M171.09 15.2499H167.37V18.9699H171.09V15.2499Z" fill="#E2E2E2"/>
<path d="M171.09 11.53H167.37V15.25H171.09V11.53Z" fill="#E2E2E2"/>
<path d="M167.37 22.69H163.65V26.41H167.37V22.69Z" fill="#CACACA"/>
<path d="M167.37 18.9699H163.65V22.6899H167.37V18.9699Z" fill="#E2E2E2"/>
<path d="M163.61 26.41H159.89V30.13H163.61V26.41Z" fill="#B3B3B3"/>
<path d="M40.76 7.80988H37.04V11.5299H40.76V7.80988Z" fill="#BE7100"/>
<path d="M40.76 4.0899H37.04V7.8099H40.76V4.0899Z" fill="#A36000"/>
<path d="M37.0401 15.2499H33.3201V18.9699H37.0401V15.2499Z" fill="#A16700"/>
<path d="M37.0401 11.5298H33.3201V15.2498H37.0401V11.5298Z" fill="#A16700"/>
<path d="M37.0401 7.80988H33.3201V11.5299H37.0401V7.80988Z" fill="#FFD69C"/>
<path d="M37.0401 4.0899H33.3201V7.8099H37.0401V4.0899Z" fill="#FFBC57"/>
<path d="M33.3199 22.6899H29.5999V26.4099H33.3199V22.6899Z" fill="#8C5000"/>
<path d="M33.3199 18.9699H29.5999V22.6899H33.3199V18.9699Z" fill="#A16700"/>
<path d="M33.3199 15.2499H29.5999V18.9699H33.3199V15.2499Z" fill="#FF9E03"/>
<path d="M33.3199 11.5298H29.5999V15.2498H33.3199V11.5298Z" fill="#FF9E03"/>
<path d="M33.3199 7.80988H29.5999V11.5299H33.3199V7.80988Z" fill="#FFD69C"/>
<path d="M33.3199 4.0899H29.5999V7.8099H33.3199V4.0899Z" fill="#FFBC57"/>
<path d="M29.5999 26.4099H25.8799V30.1299H29.5999V26.4099Z" fill="#7D4500"/>
<path d="M29.5999 22.6899H25.8799V26.4099H29.5999V22.6899Z" fill="#EB8201"/>
<path d="M29.5999 18.9699H25.8799V22.6899H29.5999V18.9699Z" fill="#FF9E03"/>
<path d="M29.5999 15.2499H25.8799V18.9699H29.5999V15.2499Z" fill="#FF9E03"/>
<path d="M29.5999 11.5298H25.8799V15.2498H29.5999V11.5298Z" fill="#FF9E03"/>
<path d="M29.5999 7.80988H25.8799V11.5299H29.5999V7.80988Z" fill="#FFD69C"/>
<path d="M29.5999 4.0899H25.8799V7.8099H29.5999V4.0899Z" fill="#FFBC57"/>
<path d="M25.8799 26.4099H22.1599V30.1299H25.8799V26.4099Z" fill="#B96400"/>
<path d="M25.8799 22.6899H22.1599V26.4099H25.8799V22.6899Z" fill="#EB8201"/>
<path d="M25.8799 18.9699H22.1599V22.6899H25.8799V18.9699Z" fill="#FF9E03"/>
<path d="M25.8799 15.2499H22.1599V18.9699H25.8799V15.2499Z" fill="#FF9E03"/>
<path d="M25.8799 11.5298H22.1599V15.2498H25.8799V11.5298Z" fill="#FF9E03"/>
<path d="M25.8799 7.80988H22.1599V11.5299H25.8799V7.80988Z" fill="#BE7100"/>
<path d="M25.8799 4.0899H22.1599V7.8099H25.8799V4.0899Z" fill="#A36000"/>
<path d="M22.1599 26.4099H18.4399V30.1299H22.1599V26.4099Z" fill="#B96400"/>
<path d="M22.1599 22.6899H18.4399V26.4099H22.1599V22.6899Z" fill="#EB8201"/>
<path d="M22.1599 18.9699H18.4399V22.6899H22.1599V18.9699Z" fill="#FF9E03"/>
<path d="M22.1599 15.2499H18.4399V18.9699H22.1599V15.2499Z" fill="#A16700"/>
<path d="M22.1599 11.5298H18.4399V15.2498H22.1599V11.5298Z" fill="#A16700"/>
<path d="M18.44 26.4099H14.72V30.1299H18.44V26.4099Z" fill="#B96400"/>
<path d="M18.44 22.6899H14.72V26.4099H18.44V22.6899Z" fill="#8C5000"/>
<path d="M18.44 18.9699H14.72V22.6899H18.44V18.9699Z" fill="#A16700"/>
<path d="M14.72 26.4099H11V30.1299H14.72V26.4099Z" fill="#7D4500"/>
<path d="M26.0301 7.81H22.3101V11.53H26.0301V7.81Z" fill="#BE7100"/>
<path d="M26.0301 4.0899H22.3101V7.8099H26.0301V4.0899Z" fill="#A36000"/>
<path d="M22.3101 15.2499H18.5901V18.9699H22.3101V15.2499Z" fill="#A16700"/>
<path d="M22.3101 11.53H18.5901V15.25H22.3101V11.53Z" fill="#A16700"/>
<path d="M22.3101 7.81H18.5901V11.53H22.3101V7.81Z" fill="#FFD69C"/>
<path d="M22.3101 4.0899H18.5901V7.8099H22.3101V4.0899Z" fill="#FFBC57"/>
<path d="M18.5899 22.69H14.8799V26.41H18.5899V22.69Z" fill="#8C5000"/>
<path d="M18.5899 18.9699H14.8799V22.6899H18.5899V18.9699Z" fill="#A16700"/>
<path d="M18.5899 15.2499H14.8799V18.9699H18.5899V15.2499Z" fill="#FF9E03"/>
<path d="M18.5899 11.53H14.8799V15.25H18.5899V11.53Z" fill="#FF9E03"/>
<path d="M18.5899 7.81H14.8799V11.53H18.5899V7.81Z" fill="#FFD69C"/>
<path d="M18.5899 4.0899H14.8799V7.8099H18.5899V4.0899Z" fill="#FFBC57"/>
<path d="M14.8799 26.41H11.1599V30.13H14.8799V26.41Z" fill="#7D4500"/>
<path d="M14.8799 22.69H11.1599V26.41H14.8799V22.69Z" fill="#EB8201"/>
<path d="M14.8799 18.9699H11.1599V22.6899H14.8799V18.9699Z" fill="#FF9E03"/>
<path d="M14.8799 15.2499H11.1599V18.9699H14.8799V15.2499Z" fill="#FF9E03"/>
<path d="M14.8799 11.53H11.1599V15.25H14.8799V11.53Z" fill="#FF9E03"/>
<path d="M14.8799 7.81H11.1599V11.53H14.8799V7.81Z" fill="#FFA21B"/>
<path d="M14.8799 4.0899H11.1599V7.8099H14.8799V4.0899Z" fill="#FFBC57"/>
<path d="M11.1599 22.69H7.43994V26.41H11.1599V22.69Z" fill="#EB8201"/>
<path d="M11.1599 18.9699H7.43994V22.6899H11.1599V18.9699Z" fill="#FF9E03"/>
<path d="M11.1599 15.2499H7.43994V18.9699H11.1599V15.2499Z" fill="#FFA21B"/>
<path d="M11.1599 11.53H7.43994V15.25H11.1599V11.53Z" fill="#FFA21B"/>
<path d="M11.1599 7.81H7.43994V11.53H11.1599V7.81Z" fill="#FFBC57"/>
<path d="M7.43997 22.69H3.71997V26.41H7.43997V22.69Z" fill="#FF9E03"/>
<path d="M7.43997 18.9699H3.71997V22.6899H7.43997V18.9699Z" fill="#FFA21B"/>
<path d="M7.43997 15.2499H3.71997V18.9699H7.43997V15.2499Z" fill="#FFBC57"/>
<path d="M7.43997 11.53H3.71997V15.25H7.43997V11.53Z" fill="#FFD69C"/>
<path d="M7.43997 7.81H3.71997V11.53H7.43997V7.81Z" fill="#FFD69C"/>
<path d="M174.79 15.25V18.97V22.69V26.41H178.51V22.69V18.97V15.25V11.53V7.81H174.79V11.53V15.25Z" fill="#1D2920"/>
<path d="M167.35 26.41V30.13H171.07H174.79V26.41H171.07H167.35Z" fill="#1D2920"/>
<path d="M171.07 7.8099H174.79V4.0899H171.07H167.35V7.8099H171.07Z" fill="#1D2920"/>
<path d="M159.92 30.1299H156.2H152.48H148.76H145.04H141.32H137.6H133.88H130.16H126.45H122.73H119.01H115.29H111.57H107.85H104.13H100.41H96.6899H92.9699H89.2599H85.5399H81.8199H78.0999H74.3799H70.6599H66.9399H63.2199H59.4999H55.7799H52.0699H48.3499H44.6299H40.9099H37.1899H33.4699H29.7499H26.0299H22.3099H18.5899H14.8799H11.1599V33.8499H14.8799H18.5899H22.3099H26.0299H29.7499H33.4699H37.1899H40.9099H44.6299H48.3499H52.0699H55.7799H59.4999H63.2199H66.9399H70.6599H74.3799H78.0999H81.8199H85.5399H89.2599H92.9699H96.6899H100.41H104.13H107.85H111.57H115.29H119.01H122.73H126.45H130.16H133.88H137.6H141.32H145.04H148.76H152.48H156.2H159.92H163.64H167.35V30.1299H163.64H159.92Z" fill="#1D2920"/>
<path d="M18.5899 4.08994H22.3099H26.0299H29.7499H33.4699H37.1899H40.9099H44.6299H48.3499H52.0699H55.7799H59.4999H63.2199H66.9399H70.6599H74.3799H78.0999H81.8199H85.5399H89.2599H92.9699H96.6899H100.41H104.13H107.85H111.57H115.29H119.01H122.73H126.45H130.16H133.88H137.6H141.32H145.04H148.76H152.48H156.2H159.92H163.64H167.35V0.379944H163.64H159.92H156.2H152.48H148.76H145.04H141.32H137.6H133.88H130.16H126.45H122.73H119.01H115.29H111.57H107.85H104.13H100.41H96.6899H92.9699H89.2599H85.5399H81.8199H78.0999H74.3799H70.6599H66.9399H63.2199H59.4999H55.7799H52.0699H48.3499H44.6299H40.9099H37.1899H33.4699H29.7499H26.0299H22.3099H18.5899H14.8799H11.1599V4.08994H14.8799H18.5899Z" fill="#1D2920"/>
<path d="M7.43997 26.41H3.71997V30.13H7.43997H11.16V26.41H7.43997Z" fill="#1D2920"/>
<path d="M11.16 7.8099V4.0899H7.43997H3.71997V7.8099H7.43997H11.16Z" fill="#1D2920"/>
<path d="M3.72 22.69V18.97V15.25V11.53V7.81H0V11.53V15.25V18.97V22.69V26.41H3.72V22.69Z" fill="#1D2920"/>
<g style="mix-blend-mode:multiply">
<path d="M85.5401 26.41H89.2601V22.69H85.5401H81.8201H78.1001V26.41H81.8201H85.5401Z" fill="#F8F8F8"/>
</g>
<path d="M100.41 7.81H96.6899V11.53H100.41V7.81Z" fill="#E2E2E2"/>
<path d="M100.41 4.0899H96.6899V7.8099H100.41V4.0899Z" fill="#E2E2E2"/>
<path d="M96.69 15.2499H92.97V18.9699H96.69V15.2499Z" fill="#E2E2E2"/>
<path d="M96.69 11.53H92.97V15.25H96.69V11.53Z" fill="#E2E2E2"/>
<path d="M92.97 22.69H89.25V26.41H92.97V22.69Z" fill="#CACACA"/>
<path d="M92.97 18.9699H89.25V22.6899H92.97V18.9699Z" fill="#E2E2E2"/>
<path d="M89.25 26.41H85.53V30.13H89.25V26.41Z" fill="#B3B3B3"/>
<path d="M92.97 26.41H89.25V30.13H92.97H96.69H100.41V26.41H96.69H92.97Z" fill="#E2E2E2"/>
<path d="M115.29 7.81H111.57V11.53H115.29V7.81Z" fill="#E2E2E2"/>
<path d="M115.29 4.0899H111.57V7.8099H115.29V4.0899Z" fill="#E2E2E2"/>
<path d="M111.57 15.2499H107.85V18.9699H111.57V15.2499Z" fill="#E2E2E2"/>
<path d="M111.57 11.53H107.85V15.25H111.57V11.53Z" fill="#E2E2E2"/>
<path d="M107.85 22.69H104.13V26.41H107.85V22.69Z" fill="#CACACA"/>
<path d="M107.85 18.9699H104.13V22.6899H107.85V18.9699Z" fill="#E2E2E2"/>
<path d="M104.13 26.41H100.41V30.13H104.13V26.41Z" fill="#B3B3B3"/>
<g style="mix-blend-mode:multiply">
<path d="M100.41 26.41H104.13V22.69H100.41H96.69H92.97V26.41H96.69H100.41Z" fill="#F8F8F8"/>
</g>
<path d="M70.8799 7.81H67.1599V11.53H70.8799V7.81Z" fill="#E2E2E2"/>
<path d="M70.8799 4.0899H67.1599V7.8099H70.8799V4.0899Z" fill="#E2E2E2"/>
<path d="M67.1599 15.2499H63.4399V18.9699H67.1599V15.2499Z" fill="#E2E2E2"/>
<path d="M67.1599 11.53H63.4399V15.25H67.1599V11.53Z" fill="#E2E2E2"/>
<path d="M63.44 22.69H59.72V26.41H63.44V22.69Z" fill="#CACACA"/>
<path d="M63.44 18.9699H59.72V22.6899H63.44V18.9699Z" fill="#E2E2E2"/>
<path d="M59.72 26.41H56V30.13H59.72V26.41Z" fill="#B3B3B3"/>
<path d="M63.44 26.41H59.72V30.13H63.44H67.16H70.88V26.41H67.16H63.44Z" fill="#E2E2E2"/>
<path d="M85.76 7.81H82.04V11.53H85.76V7.81Z" fill="#E2E2E2"/>
<path d="M85.76 4.0899H82.04V7.8099H85.76V4.0899Z" fill="#E2E2E2"/>
<path d="M82.0401 15.2499H78.3201V18.9699H82.0401V15.2499Z" fill="#E2E2E2"/>
<path d="M82.0401 11.53H78.3201V15.25H82.0401V11.53Z" fill="#E2E2E2"/>
<path d="M78.3199 22.69H74.5999V26.41H78.3199V22.69Z" fill="#CACACA"/>
<path d="M78.3199 18.9699H74.5999V22.6899H78.3199V18.9699Z" fill="#E2E2E2"/>
<path d="M74.5999 26.41H70.8799V30.13H74.5999V26.41Z" fill="#B3B3B3"/>
<g style="mix-blend-mode:multiply">
<path d="M70.8799 26.41H74.5999V22.69H70.8799H67.1599H63.4399V26.41H67.1599H70.8799Z" fill="#F8F8F8"/>
</g>
<path d="M55.8799 7.81H52.1599V11.53H55.8799V7.81Z" fill="#E2E2E2"/>
<path d="M55.8799 4.0899H52.1599V7.8099H55.8799V4.0899Z" fill="#E2E2E2"/>
<path d="M52.1599 15.2499H48.4399V18.9699H52.1599V15.2499Z" fill="#E2E2E2"/>
<path d="M52.1599 11.53H48.4399V15.25H52.1599V11.53Z" fill="#E2E2E2"/>
<path d="M48.44 22.69H44.72V26.41H48.44V22.69Z" fill="#CACACA"/>
<path d="M48.44 18.9699H44.72V22.6899H48.44V18.9699Z" fill="#E2E2E2"/>
<path d="M44.72 26.41H41V30.13H44.72V26.41Z" fill="#B3B3B3"/>
<path d="M48.44 26.41H44.72V30.13H48.44H52.16H55.88V26.41H52.16H48.44Z" fill="#E2E2E2"/>
<path d="M70.76 7.81H67.04V11.53H70.76V7.81Z" fill="#E2E2E2"/>
<path d="M70.76 4.0899H67.04V7.8099H70.76V4.0899Z" fill="#E2E2E2"/>
<path d="M67.0401 15.2499H63.3201V18.9699H67.0401V15.2499Z" fill="#E2E2E2"/>
<path d="M67.0401 11.53H63.3201V15.25H67.0401V11.53Z" fill="#E2E2E2"/>
<path d="M63.3199 22.69H59.5999V26.41H63.3199V22.69Z" fill="#CACACA"/>
<path d="M63.3199 18.9699H59.5999V22.6899H63.3199V18.9699Z" fill="#E2E2E2"/>
<path d="M59.5999 26.41H55.8799V30.13H59.5999V26.41Z" fill="#B3B3B3"/>
<g style="mix-blend-mode:multiply">
<path d="M55.8799 26.41H59.5999V22.69H55.8799H52.1599H48.4399V26.41H52.1599H55.8799Z" fill="#F8F8F8"/>
</g>
<g style="mix-blend-mode:multiply">
<path d="M115.28 26.41H119V22.69H115.28H111.56H107.84V26.41H111.56H115.28Z" fill="#F8F8F8"/>
</g>
<g style="mix-blend-mode:multiply">
<path d="M130.15 26.41H133.87V22.69H130.15H126.43H122.71V26.41H126.43H130.15Z" fill="#F8F8F8"/>
</g>
<g style="mix-blend-mode:multiply">
<path d="M145.02 26.41H148.74V22.69H145.02H141.3H137.58V26.41H141.3H145.02Z" fill="#F8F8F8"/>
</g>
<g style="mix-blend-mode:multiply">
<path d="M159.89 26.41H163.61V22.69H159.89H156.17H152.45V26.41H156.17H159.89Z" fill="#F8F8F8"/>
</g>
<g style="mix-blend-mode:multiply">
<path d="M174.79 18.97V15.25V11.53H171.07V15.25V18.97V22.69V26.41H174.79V22.69V18.97Z" fill="#F8F8F8"/>
</g>
<g style="mix-blend-mode:multiply">
<path d="M167.35 30.1299V33.8499H171.07H174.79V30.1299H171.07H167.35Z" fill="#F8F8F8"/>
</g>
<g style="mix-blend-mode:multiply">
<path d="M178.51 11.53V26.41H174.79V30.13H178.51H182.23V11.53H178.51Z" fill="#F8F8F8"/>
</g>
<g style="mix-blend-mode:multiply">
<path d="M167.47 34.3799H15V38.0999H167.47V34.3799Z" fill="#F8F8F8"/>
</g>
<path d="M55.76 7.80988H52.04V11.5299H55.76V7.80988Z" fill="#BE7100"/>
<path d="M55.76 4.0899H52.04V7.8099H55.76V4.0899Z" fill="#A36000"/>
<path d="M52.0401 15.2499H48.3201V18.9699H52.0401V15.2499Z" fill="#A16700"/>
<path d="M52.0401 11.5298H48.3201V15.2498H52.0401V11.5298Z" fill="#A16700"/>
<path d="M52.0401 7.80988H48.3201V11.5299H52.0401V7.80988Z" fill="#FFD69C"/>
<path d="M52.0401 4.0899H48.3201V7.8099H52.0401V4.0899Z" fill="#FFBC57"/>
<path d="M48.3199 22.6899H44.5999V26.4099H48.3199V22.6899Z" fill="#8C5000"/>
<path d="M48.3199 18.9699H44.5999V22.6899H48.3199V18.9699Z" fill="#A16700"/>
<path d="M48.3199 15.2499H44.5999V18.9699H48.3199V15.2499Z" fill="#FF9E03"/>
<path d="M48.3199 11.5298H44.5999V15.2498H48.3199V11.5298Z" fill="#FF9E03"/>
<path d="M48.3199 7.80988H44.5999V11.5299H48.3199V7.80988Z" fill="#FFD69C"/>
<path d="M48.3199 4.0899H44.5999V7.8099H48.3199V4.0899Z" fill="#FFBC57"/>
<path d="M44.5999 26.4099H40.8799V30.1299H44.5999V26.4099Z" fill="#7D4500"/>
<path d="M44.5999 22.6899H40.8799V26.4099H44.5999V22.6899Z" fill="#EB8201"/>
<path d="M44.5999 18.9699H40.8799V22.6899H44.5999V18.9699Z" fill="#FF9E03"/>
<path d="M44.5999 15.2499H40.8799V18.9699H44.5999V15.2499Z" fill="#FF9E03"/>
<path d="M44.5999 11.5298H40.8799V15.2498H44.5999V11.5298Z" fill="#FF9E03"/>
<path d="M44.5999 7.80988H40.8799V11.5299H44.5999V7.80988Z" fill="#FFD69C"/>
<path d="M44.5999 4.0899H40.8799V7.8099H44.5999V4.0899Z" fill="#FFBC57"/>
<path d="M40.8799 26.4099H37.1599V30.1299H40.8799V26.4099Z" fill="#B96400"/>
<path d="M40.8799 22.6899H37.1599V26.4099H40.8799V22.6899Z" fill="#EB8201"/>
<path d="M40.8799 18.9699H37.1599V22.6899H40.8799V18.9699Z" fill="#FF9E03"/>
<path d="M40.8799 15.2499H37.1599V18.9699H40.8799V15.2499Z" fill="#FF9E03"/>
<path d="M40.8799 11.5298H37.1599V15.2498H40.8799V11.5298Z" fill="#FF9E03"/>
<path d="M40.8799 7.80988H37.1599V11.5299H40.8799V7.80988Z" fill="#BE7100"/>
<path d="M40.8799 4.0899H37.1599V7.8099H40.8799V4.0899Z" fill="#A36000"/>
<path d="M37.1599 26.4099H33.4399V30.1299H37.1599V26.4099Z" fill="#B96400"/>
<path d="M37.1599 22.6899H33.4399V26.4099H37.1599V22.6899Z" fill="#EB8201"/>
<path d="M37.1599 18.9699H33.4399V22.6899H37.1599V18.9699Z" fill="#FF9E03"/>
<path d="M37.1599 15.2499H33.4399V18.9699H37.1599V15.2499Z" fill="#A16700"/>
<path d="M37.1599 11.5298H33.4399V15.2498H37.1599V11.5298Z" fill="#A16700"/>
<path d="M33.44 26.4099H29.72V30.1299H33.44V26.4099Z" fill="#B96400"/>
<path d="M33.44 22.6899H29.72V26.4099H33.44V22.6899Z" fill="#8C5000"/>
<path d="M33.44 18.9699H29.72V22.6899H33.44V18.9699Z" fill="#A16700"/>
<path d="M29.72 26.4099H26V30.1299H29.72V26.4099Z" fill="#7D4500"/>
</svg>
