<svg width="183" height="38" viewBox="0 0 183 38" fill="none" xmlns="http://www.w3.org/2000/svg">
<path d="M40.8799 7.52997H37.1599V11.25H40.8799V7.52997Z" fill="#E2E2E2"/>
<path d="M40.8799 3.80988H37.1599V7.52988H40.8799V3.80988Z" fill="#E2E2E2"/>
<path d="M37.1599 14.9699H33.4399V18.6899H37.1599V14.9699Z" fill="#E2E2E2"/>
<path d="M37.1599 11.2499H33.4399V14.9699H37.1599V11.2499Z" fill="#E2E2E2"/>
<path d="M33.44 22.41H29.72V26.13H33.44V22.41Z" fill="#CACACA"/>
<path d="M33.44 18.6899H29.72V22.4099H33.44V18.6899Z" fill="#E2E2E2"/>
<path d="M29.72 26.1299H26V29.8499H29.72V26.1299Z" fill="#B3B3B3"/>
<path d="M33.44 26.1299H29.72V29.8499H33.44H37.16H40.88V26.1299H37.16H33.44Z" fill="#E2E2E2"/>
<path d="M55.76 7.52997H52.04V11.25H55.76V7.52997Z" fill="#E2E2E2"/>
<path d="M55.76 3.80988H52.04V7.52988H55.76V3.80988Z" fill="#E2E2E2"/>
<path d="M52.0401 14.9699H48.3201V18.6899H52.0401V14.9699Z" fill="#E2E2E2"/>
<path d="M52.0401 11.2499H48.3201V14.9699H52.0401V11.2499Z" fill="#E2E2E2"/>
<path d="M48.3199 22.41H44.5999V26.13H48.3199V22.41Z" fill="#CACACA"/>
<path d="M48.3199 18.6899H44.5999V22.4099H48.3199V18.6899Z" fill="#E2E2E2"/>
<path d="M44.5999 26.1299H40.8799V29.8499H44.5999V26.1299Z" fill="#B3B3B3"/>
<g style="mix-blend-mode:multiply">
<path d="M40.8799 26.13H44.5999V22.41H40.8799H37.1599H33.4399V26.13H37.1599H40.8799Z" fill="#F8F8F8"/>
</g>
<path d="M78.0999 26.1299H74.3799V29.8499H78.0999H81.8199H85.5399V26.1299H81.8199H78.0999Z" fill="#E2E2E2"/>
<path d="M107.84 26.1299H104.12V29.8499H107.84V26.1299Z" fill="#E2E2E2"/>
<path d="M107.85 26.1299V29.8499H111.57H115.29V26.1299H111.57H107.85Z" fill="#E2E2E2"/>
<path d="M122.71 26.1299H118.99V29.8499H122.71V26.1299Z" fill="#E2E2E2"/>
<path d="M122.73 26.1299V29.8499H126.45H130.17V26.1299H126.45H122.73Z" fill="#E2E2E2"/>
<path d="M137.61 26.1299H133.89V29.8499H137.61H141.33H145.05V26.1299H141.33H137.61Z" fill="#E2E2E2"/>
<path d="M156.17 26.1299H152.49H152.45H148.77V29.8499H152.45H152.49H156.17H159.89V26.1299H156.17Z" fill="#E2E2E2"/>
<g style="mix-blend-mode:multiply">
<path d="M167.36 26.1299H163.64V29.8499H167.36V26.1299Z" fill="#E2E2E2"/>
</g>
<g style="mix-blend-mode:multiply">
<path d="M171.09 22.41H167.37V26.13H171.09V22.41Z" fill="#F8F8F8"/>
</g>
<path d="M130.17 7.52997H126.45V11.25H130.17V7.52997Z" fill="#E2E2E2"/>
<path d="M130.17 3.80988H126.45V7.52988H130.17V3.80988Z" fill="#E2E2E2"/>
<path d="M126.45 14.9699H122.73V18.6899H126.45V14.9699Z" fill="#E2E2E2"/>
<path d="M126.45 11.2499H122.73V14.9699H126.45V11.2499Z" fill="#E2E2E2"/>
<path d="M122.73 22.41H119.01V26.13H122.73V22.41Z" fill="#CACACA"/>
<path d="M122.73 18.6899H119.01V22.4099H122.73V18.6899Z" fill="#E2E2E2"/>
<path d="M119.01 26.1299H115.29V29.8499H119.01V26.1299Z" fill="#B3B3B3"/>
<path d="M145.05 7.52997H141.33V11.25H145.05V7.52997Z" fill="#E2E2E2"/>
<path d="M145.05 3.80988H141.33V7.52988H145.05V3.80988Z" fill="#E2E2E2"/>
<path d="M141.33 14.9699H137.61V18.6899H141.33V14.9699Z" fill="#E2E2E2"/>
<path d="M141.33 11.2499H137.61V14.9699H141.33V11.2499Z" fill="#E2E2E2"/>
<path d="M137.61 22.41H133.89V26.13H137.61V22.41Z" fill="#CACACA"/>
<path d="M137.61 18.6899H133.89V22.4099H137.61V18.6899Z" fill="#E2E2E2"/>
<path d="M133.89 26.1299H130.17V29.8499H133.89V26.1299Z" fill="#B3B3B3"/>
<path d="M159.93 7.52997H156.21V11.25H159.93V7.52997Z" fill="#E2E2E2"/>
<path d="M159.93 3.80988H156.21V7.52988H159.93V3.80988Z" fill="#E2E2E2"/>
<path d="M156.21 14.9699H152.49V18.6899H156.21V14.9699Z" fill="#E2E2E2"/>
<path d="M156.21 11.2499H152.49V14.9699H156.21V11.2499Z" fill="#E2E2E2"/>
<path d="M152.49 22.41H148.77V26.13H152.49V22.41Z" fill="#CACACA"/>
<path d="M152.49 18.6899H148.77V22.4099H152.49V18.6899Z" fill="#E2E2E2"/>
<path d="M148.77 26.1299H145.05V29.8499H148.77V26.1299Z" fill="#B3B3B3"/>
<path d="M174.81 7.52997H171.09V11.25H174.81V7.52997Z" fill="#E2E2E2"/>
<path d="M171.09 14.9699H167.37V18.6899H171.09V14.9699Z" fill="#E2E2E2"/>
<path d="M171.09 11.2499H167.37V14.9699H171.09V11.2499Z" fill="#E2E2E2"/>
<path d="M167.37 22.41H163.65V26.13H167.37V22.41Z" fill="#CACACA"/>
<path d="M167.37 18.6899H163.65V22.4099H167.37V18.6899Z" fill="#E2E2E2"/>
<path d="M163.61 26.1299H159.89V29.8499H163.61V26.1299Z" fill="#B3B3B3"/>
<path d="M40.76 7.52985H37.04V11.2498H40.76V7.52985Z" fill="#BE7100"/>
<path d="M40.76 3.80988H37.04V7.52988H40.76V3.80988Z" fill="#A36000"/>
<path d="M37.0401 14.9699H33.3201V18.6899H37.0401V14.9699Z" fill="#A16700"/>
<path d="M37.0401 11.2498H33.3201V14.9698H37.0401V11.2498Z" fill="#A16700"/>
<path d="M37.0401 7.52985H33.3201V11.2498H37.0401V7.52985Z" fill="#FFD69C"/>
<path d="M37.0401 3.80988H33.3201V7.52988H37.0401V3.80988Z" fill="#FFBC57"/>
<path d="M33.3199 22.4099H29.5999V26.1299H33.3199V22.4099Z" fill="#8C5000"/>
<path d="M33.3199 18.6899H29.5999V22.4099H33.3199V18.6899Z" fill="#A16700"/>
<path d="M33.3199 14.9699H29.5999V18.6899H33.3199V14.9699Z" fill="#FF9E03"/>
<path d="M33.3199 11.2498H29.5999V14.9698H33.3199V11.2498Z" fill="#FF9E03"/>
<path d="M33.3199 7.52985H29.5999V11.2498H33.3199V7.52985Z" fill="#FFD69C"/>
<path d="M33.3199 3.80988H29.5999V7.52988H33.3199V3.80988Z" fill="#FFBC57"/>
<path d="M29.5999 26.1298H25.8799V29.8498H29.5999V26.1298Z" fill="#7D4500"/>
<path d="M29.5999 22.4099H25.8799V26.1299H29.5999V22.4099Z" fill="#EB8201"/>
<path d="M29.5999 18.6899H25.8799V22.4099H29.5999V18.6899Z" fill="#FF9E03"/>
<path d="M29.5999 14.9699H25.8799V18.6899H29.5999V14.9699Z" fill="#FF9E03"/>
<path d="M29.5999 11.2498H25.8799V14.9698H29.5999V11.2498Z" fill="#FF9E03"/>
<path d="M29.5999 7.52985H25.8799V11.2498H29.5999V7.52985Z" fill="#FFD69C"/>
<path d="M29.5999 3.80988H25.8799V7.52988H29.5999V3.80988Z" fill="#FFBC57"/>
<path d="M25.8799 26.1298H22.1599V29.8498H25.8799V26.1298Z" fill="#B96400"/>
<path d="M25.8799 22.4099H22.1599V26.1299H25.8799V22.4099Z" fill="#EB8201"/>
<path d="M25.8799 18.6899H22.1599V22.4099H25.8799V18.6899Z" fill="#FF9E03"/>
<path d="M25.8799 14.9699H22.1599V18.6899H25.8799V14.9699Z" fill="#FF9E03"/>
<path d="M25.8799 11.2498H22.1599V14.9698H25.8799V11.2498Z" fill="#FF9E03"/>
<path d="M25.8799 7.52985H22.1599V11.2498H25.8799V7.52985Z" fill="#BE7100"/>
<path d="M25.8799 3.80988H22.1599V7.52988H25.8799V3.80988Z" fill="#A36000"/>
<path d="M22.1599 26.1298H18.4399V29.8498H22.1599V26.1298Z" fill="#B96400"/>
<path d="M22.1599 22.4099H18.4399V26.1299H22.1599V22.4099Z" fill="#EB8201"/>
<path d="M22.1599 18.6899H18.4399V22.4099H22.1599V18.6899Z" fill="#FF9E03"/>
<path d="M22.1599 14.9699H18.4399V18.6899H22.1599V14.9699Z" fill="#A16700"/>
<path d="M22.1599 11.2498H18.4399V14.9698H22.1599V11.2498Z" fill="#A16700"/>
<path d="M18.44 26.1298H14.72V29.8498H18.44V26.1298Z" fill="#B96400"/>
<path d="M18.44 22.4099H14.72V26.1299H18.44V22.4099Z" fill="#8C5000"/>
<path d="M18.44 18.6899H14.72V22.4099H18.44V18.6899Z" fill="#A16700"/>
<path d="M14.72 26.1298H11V29.8498H14.72V26.1298Z" fill="#7D4500"/>
<path d="M26.0301 7.52997H22.3101V11.25H26.0301V7.52997Z" fill="#BE7100"/>
<path d="M26.0301 3.80988H22.3101V7.52988H26.0301V3.80988Z" fill="#A36000"/>
<path d="M22.3101 14.9699H18.5901V18.6899H22.3101V14.9699Z" fill="#A16700"/>
<path d="M22.3101 11.2499H18.5901V14.9699H22.3101V11.2499Z" fill="#A16700"/>
<path d="M22.3101 7.52997H18.5901V11.25H22.3101V7.52997Z" fill="#FFD69C"/>
<path d="M22.3101 3.80988H18.5901V7.52988H22.3101V3.80988Z" fill="#FFBC57"/>
<path d="M18.5899 22.41H14.8799V26.13H18.5899V22.41Z" fill="#8C5000"/>
<path d="M18.5899 18.6899H14.8799V22.4099H18.5899V18.6899Z" fill="#A16700"/>
<path d="M18.5899 14.9699H14.8799V18.6899H18.5899V14.9699Z" fill="#FF9E03"/>
<path d="M18.5899 11.2499H14.8799V14.9699H18.5899V11.2499Z" fill="#FF9E03"/>
<path d="M18.5899 7.52997H14.8799V11.25H18.5899V7.52997Z" fill="#FFD69C"/>
<path d="M18.5899 3.80988H14.8799V7.52988H18.5899V3.80988Z" fill="#FFBC57"/>
<path d="M14.8799 26.1299H11.1599V29.8499H14.8799V26.1299Z" fill="#7D4500"/>
<path d="M14.8799 22.41H11.1599V26.13H14.8799V22.41Z" fill="#EB8201"/>
<path d="M14.8799 18.6899H11.1599V22.4099H14.8799V18.6899Z" fill="#FF9E03"/>
<path d="M14.8799 14.9699H11.1599V18.6899H14.8799V14.9699Z" fill="#FF9E03"/>
<path d="M14.8799 11.2499H11.1599V14.9699H14.8799V11.2499Z" fill="#FF9E03"/>
<path d="M14.8799 7.52997H11.1599V11.25H14.8799V7.52997Z" fill="#FFA21B"/>
<path d="M14.8799 3.80988H11.1599V7.52988H14.8799V3.80988Z" fill="#FFBC57"/>
<path d="M11.1599 22.41H7.43994V26.13H11.1599V22.41Z" fill="#EB8201"/>
<path d="M11.1599 18.6899H7.43994V22.4099H11.1599V18.6899Z" fill="#FF9E03"/>
<path d="M11.1599 14.9699H7.43994V18.6899H11.1599V14.9699Z" fill="#FFA21B"/>
<path d="M11.1599 11.2499H7.43994V14.9699H11.1599V11.2499Z" fill="#FFA21B"/>
<path d="M11.1599 7.52997H7.43994V11.25H11.1599V7.52997Z" fill="#FFBC57"/>
<path d="M7.43997 22.41H3.71997V26.13H7.43997V22.41Z" fill="#FF9E03"/>
<path d="M7.43997 18.6899H3.71997V22.4099H7.43997V18.6899Z" fill="#FFA21B"/>
<path d="M7.43997 14.9699H3.71997V18.6899H7.43997V14.9699Z" fill="#FFBC57"/>
<path d="M7.43997 11.2499H3.71997V14.9699H7.43997V11.2499Z" fill="#FFD69C"/>
<path d="M7.43997 7.52997H3.71997V11.25H7.43997V7.52997Z" fill="#FFD69C"/>
<path d="M174.79 14.97V18.69V22.41V26.13H178.51V22.41V18.69V14.97V11.25V7.52997H174.79V11.25V14.97Z" fill="#1D2920"/>
<path d="M167.35 26.1299V29.8499H171.07H174.79V26.1299H171.07H167.35Z" fill="#1D2920"/>
<path d="M171.07 7.52988H174.79V3.80988H171.07H167.35V7.52988H171.07Z" fill="#1D2920"/>
<path d="M159.92 29.8499H156.2H152.48H148.76H145.04H141.32H137.6H133.88H130.16H126.45H122.73H119.01H115.29H111.57H107.85H104.13H100.41H96.6899H92.9699H89.2599H85.5399H81.8199H78.0999H74.3799H70.6599H66.9399H63.2199H59.4999H55.7799H52.0699H48.3499H44.6299H40.9099H37.1899H33.4699H29.7499H26.0299H22.3099H18.5899H14.8799H11.1599V33.5699H14.8799H18.5899H22.3099H26.0299H29.7499H33.4699H37.1899H40.9099H44.6299H48.3499H52.0699H55.7799H59.4999H63.2199H66.9399H70.6599H74.3799H78.0999H81.8199H85.5399H89.2599H92.9699H96.6899H100.41H104.13H107.85H111.57H115.29H119.01H122.73H126.45H130.16H133.88H137.6H141.32H145.04H148.76H152.48H156.2H159.92H163.64H167.35V29.8499H163.64H159.92Z" fill="#1D2920"/>
<path d="M18.5899 3.80991H22.3099H26.0299H29.7499H33.4699H37.1899H40.9099H44.6299H48.3499H52.0699H55.7799H59.4999H63.2199H66.9399H70.6599H74.3799H78.0999H81.8199H85.5399H89.2599H92.9699H96.6899H100.41H104.13H107.85H111.57H115.29H119.01H122.73H126.45H130.16H133.88H137.6H141.32H145.04H148.76H152.48H156.2H159.92H163.64H167.35V0.0999146H163.64H159.92H156.2H152.48H148.76H145.04H141.32H137.6H133.88H130.16H126.45H122.73H119.01H115.29H111.57H107.85H104.13H100.41H96.6899H92.9699H89.2599H85.5399H81.8199H78.0999H74.3799H70.6599H66.9399H63.2199H59.4999H55.7799H52.0699H48.3499H44.6299H40.9099H37.1899H33.4699H29.7499H26.0299H22.3099H18.5899H14.8799H11.1599V3.80991H14.8799H18.5899Z" fill="#1D2920"/>
<path d="M7.43997 26.1299H3.71997V29.8499H7.43997H11.16V26.1299H7.43997Z" fill="#1D2920"/>
<path d="M11.16 7.52988V3.80988H7.43997H3.71997V7.52988H7.43997H11.16Z" fill="#1D2920"/>
<path d="M3.72 22.41V18.69V14.97V11.25V7.52997H0V11.25V14.97V18.69V22.41V26.13H3.72V22.41Z" fill="#1D2920"/>
<g style="mix-blend-mode:multiply">
<path d="M85.5401 26.13H89.2601V22.41H85.5401H81.8201H78.1001V26.13H81.8201H85.5401Z" fill="#F8F8F8"/>
</g>
<path d="M100.41 7.52997H96.6899V11.25H100.41V7.52997Z" fill="#E2E2E2"/>
<path d="M100.41 3.80988H96.6899V7.52988H100.41V3.80988Z" fill="#E2E2E2"/>
<path d="M96.69 14.9699H92.97V18.6899H96.69V14.9699Z" fill="#E2E2E2"/>
<path d="M96.69 11.2499H92.97V14.9699H96.69V11.2499Z" fill="#E2E2E2"/>
<path d="M92.97 22.41H89.25V26.13H92.97V22.41Z" fill="#CACACA"/>
<path d="M92.97 18.6899H89.25V22.4099H92.97V18.6899Z" fill="#E2E2E2"/>
<path d="M89.25 26.1299H85.53V29.8499H89.25V26.1299Z" fill="#B3B3B3"/>
<path d="M92.97 26.1299H89.25V29.8499H92.97H96.69H100.41V26.1299H96.69H92.97Z" fill="#E2E2E2"/>
<path d="M115.29 7.52997H111.57V11.25H115.29V7.52997Z" fill="#E2E2E2"/>
<path d="M115.29 3.80988H111.57V7.52988H115.29V3.80988Z" fill="#E2E2E2"/>
<path d="M111.57 14.9699H107.85V18.6899H111.57V14.9699Z" fill="#E2E2E2"/>
<path d="M111.57 11.2499H107.85V14.9699H111.57V11.2499Z" fill="#E2E2E2"/>
<path d="M107.85 22.41H104.13V26.13H107.85V22.41Z" fill="#CACACA"/>
<path d="M107.85 18.6899H104.13V22.4099H107.85V18.6899Z" fill="#E2E2E2"/>
<path d="M104.13 26.1299H100.41V29.8499H104.13V26.1299Z" fill="#B3B3B3"/>
<g style="mix-blend-mode:multiply">
<path d="M100.41 26.13H104.13V22.41H100.41H96.69H92.97V26.13H96.69H100.41Z" fill="#F8F8F8"/>
</g>
<path d="M70.8799 7.52997H67.1599V11.25H70.8799V7.52997Z" fill="#E2E2E2"/>
<path d="M70.8799 3.80988H67.1599V7.52988H70.8799V3.80988Z" fill="#E2E2E2"/>
<path d="M67.1599 14.9699H63.4399V18.6899H67.1599V14.9699Z" fill="#E2E2E2"/>
<path d="M67.1599 11.2499H63.4399V14.9699H67.1599V11.2499Z" fill="#E2E2E2"/>
<path d="M63.44 22.41H59.72V26.13H63.44V22.41Z" fill="#CACACA"/>
<path d="M63.44 18.6899H59.72V22.4099H63.44V18.6899Z" fill="#E2E2E2"/>
<path d="M59.72 26.1299H56V29.8499H59.72V26.1299Z" fill="#B3B3B3"/>
<path d="M63.44 26.1299H59.72V29.8499H63.44H67.16H70.88V26.1299H67.16H63.44Z" fill="#E2E2E2"/>
<path d="M85.76 7.52997H82.04V11.25H85.76V7.52997Z" fill="#E2E2E2"/>
<path d="M85.76 3.80988H82.04V7.52988H85.76V3.80988Z" fill="#E2E2E2"/>
<path d="M82.0401 14.9699H78.3201V18.6899H82.0401V14.9699Z" fill="#E2E2E2"/>
<path d="M82.0401 11.2499H78.3201V14.9699H82.0401V11.2499Z" fill="#E2E2E2"/>
<path d="M78.3199 22.41H74.5999V26.13H78.3199V22.41Z" fill="#CACACA"/>
<path d="M78.3199 18.6899H74.5999V22.4099H78.3199V18.6899Z" fill="#E2E2E2"/>
<path d="M74.5999 26.1299H70.8799V29.8499H74.5999V26.1299Z" fill="#B3B3B3"/>
<g style="mix-blend-mode:multiply">
<path d="M70.8799 26.13H74.5999V22.41H70.8799H67.1599H63.4399V26.13H67.1599H70.8799Z" fill="#F8F8F8"/>
</g>
<path d="M55.8799 7.52997H52.1599V11.25H55.8799V7.52997Z" fill="#E2E2E2"/>
<path d="M55.8799 3.80988H52.1599V7.52988H55.8799V3.80988Z" fill="#E2E2E2"/>
<path d="M52.1599 14.9699H48.4399V18.6899H52.1599V14.9699Z" fill="#E2E2E2"/>
<path d="M52.1599 11.2499H48.4399V14.9699H52.1599V11.2499Z" fill="#E2E2E2"/>
<path d="M48.44 22.41H44.72V26.13H48.44V22.41Z" fill="#CACACA"/>
<path d="M48.44 18.6899H44.72V22.4099H48.44V18.6899Z" fill="#E2E2E2"/>
<path d="M44.72 26.1299H41V29.8499H44.72V26.1299Z" fill="#B3B3B3"/>
<path d="M48.44 26.1299H44.72V29.8499H48.44H52.16H55.88V26.1299H52.16H48.44Z" fill="#E2E2E2"/>
<path d="M70.76 7.52997H67.04V11.25H70.76V7.52997Z" fill="#E2E2E2"/>
<path d="M70.76 3.80988H67.04V7.52988H70.76V3.80988Z" fill="#E2E2E2"/>
<path d="M67.0401 14.9699H63.3201V18.6899H67.0401V14.9699Z" fill="#E2E2E2"/>
<path d="M67.0401 11.2499H63.3201V14.9699H67.0401V11.2499Z" fill="#E2E2E2"/>
<path d="M63.3199 22.41H59.5999V26.13H63.3199V22.41Z" fill="#CACACA"/>
<path d="M63.3199 18.6899H59.5999V22.4099H63.3199V18.6899Z" fill="#E2E2E2"/>
<path d="M59.5999 26.1299H55.8799V29.8499H59.5999V26.1299Z" fill="#B3B3B3"/>
<g style="mix-blend-mode:multiply">
<path d="M55.8799 26.13H59.5999V22.41H55.8799H52.1599H48.4399V26.13H52.1599H55.8799Z" fill="#F8F8F8"/>
</g>
<g style="mix-blend-mode:multiply">
<path d="M115.28 26.13H119V22.41H115.28H111.56H107.84V26.13H111.56H115.28Z" fill="#F8F8F8"/>
</g>
<g style="mix-blend-mode:multiply">
<path d="M130.15 26.13H133.87V22.41H130.15H126.43H122.71V26.13H126.43H130.15Z" fill="#F8F8F8"/>
</g>
<g style="mix-blend-mode:multiply">
<path d="M145.02 26.13H148.74V22.41H145.02H141.3H137.58V26.13H141.3H145.02Z" fill="#F8F8F8"/>
</g>
<g style="mix-blend-mode:multiply">
<path d="M159.89 26.13H163.61V22.41H159.89H156.17H152.45V26.13H156.17H159.89Z" fill="#F8F8F8"/>
</g>
<g style="mix-blend-mode:multiply">
<path d="M174.79 18.6899V14.9699V11.2499H171.07V14.9699V18.6899V22.4099V26.1299H174.79V22.4099V18.6899Z" fill="#F8F8F8"/>
</g>
<g style="mix-blend-mode:multiply">
<path d="M167.35 29.8499V33.5699H171.07H174.79V29.8499H171.07H167.35Z" fill="#F8F8F8"/>
</g>
<g style="mix-blend-mode:multiply">
<path d="M178.51 11.2499V26.1299H174.79V29.8499H178.51H182.23V11.2499H178.51Z" fill="#F8F8F8"/>
</g>
<g style="mix-blend-mode:multiply">
<path d="M167.47 34.0999H15V37.8199H167.47V34.0999Z" fill="#F8F8F8"/>
</g>
<path d="M55.76 7.52985H52.04V11.2498H55.76V7.52985Z" fill="#BE7100"/>
<path d="M55.76 3.80988H52.04V7.52988H55.76V3.80988Z" fill="#A36000"/>
<path d="M52.0401 14.9699H48.3201V18.6899H52.0401V14.9699Z" fill="#A16700"/>
<path d="M52.0401 11.2498H48.3201V14.9698H52.0401V11.2498Z" fill="#A16700"/>
<path d="M52.0401 7.52985H48.3201V11.2498H52.0401V7.52985Z" fill="#FFD69C"/>
<path d="M52.0401 3.80988H48.3201V7.52988H52.0401V3.80988Z" fill="#FFBC57"/>
<path d="M48.3199 22.4099H44.5999V26.1299H48.3199V22.4099Z" fill="#8C5000"/>
<path d="M48.3199 18.6899H44.5999V22.4099H48.3199V18.6899Z" fill="#A16700"/>
<path d="M48.3199 14.9699H44.5999V18.6899H48.3199V14.9699Z" fill="#FF9E03"/>
<path d="M48.3199 11.2498H44.5999V14.9698H48.3199V11.2498Z" fill="#FF9E03"/>
<path d="M48.3199 7.52985H44.5999V11.2498H48.3199V7.52985Z" fill="#FFD69C"/>
<path d="M48.3199 3.80988H44.5999V7.52988H48.3199V3.80988Z" fill="#FFBC57"/>
<path d="M44.5999 26.1298H40.8799V29.8498H44.5999V26.1298Z" fill="#7D4500"/>
<path d="M44.5999 22.4099H40.8799V26.1299H44.5999V22.4099Z" fill="#EB8201"/>
<path d="M44.5999 18.6899H40.8799V22.4099H44.5999V18.6899Z" fill="#FF9E03"/>
<path d="M44.5999 14.9699H40.8799V18.6899H44.5999V14.9699Z" fill="#FF9E03"/>
<path d="M44.5999 11.2498H40.8799V14.9698H44.5999V11.2498Z" fill="#FF9E03"/>
<path d="M44.5999 7.52985H40.8799V11.2498H44.5999V7.52985Z" fill="#FFD69C"/>
<path d="M44.5999 3.80988H40.8799V7.52988H44.5999V3.80988Z" fill="#FFBC57"/>
<path d="M40.8799 26.1298H37.1599V29.8498H40.8799V26.1298Z" fill="#B96400"/>
<path d="M40.8799 22.4099H37.1599V26.1299H40.8799V22.4099Z" fill="#EB8201"/>
<path d="M40.8799 18.6899H37.1599V22.4099H40.8799V18.6899Z" fill="#FF9E03"/>
<path d="M40.8799 14.9699H37.1599V18.6899H40.8799V14.9699Z" fill="#FF9E03"/>
<path d="M40.8799 11.2498H37.1599V14.9698H40.8799V11.2498Z" fill="#FF9E03"/>
<path d="M40.8799 7.52985H37.1599V11.2498H40.8799V7.52985Z" fill="#BE7100"/>
<path d="M40.8799 3.80988H37.1599V7.52988H40.8799V3.80988Z" fill="#A36000"/>
<path d="M37.1599 26.1298H33.4399V29.8498H37.1599V26.1298Z" fill="#B96400"/>
<path d="M37.1599 22.4099H33.4399V26.1299H37.1599V22.4099Z" fill="#EB8201"/>
<path d="M37.1599 18.6899H33.4399V22.4099H37.1599V18.6899Z" fill="#FF9E03"/>
<path d="M37.1599 14.9699H33.4399V18.6899H37.1599V14.9699Z" fill="#A16700"/>
<path d="M37.1599 11.2498H33.4399V14.9698H37.1599V11.2498Z" fill="#A16700"/>
<path d="M33.44 26.1298H29.72V29.8498H33.44V26.1298Z" fill="#B96400"/>
<path d="M33.44 22.4099H29.72V26.1299H33.44V22.4099Z" fill="#8C5000"/>
<path d="M33.44 18.6899H29.72V22.4099H33.44V18.6899Z" fill="#A16700"/>
<path d="M29.72 26.1298H26V29.8498H29.72V26.1298Z" fill="#7D4500"/>
<path d="M70.76 7.52985H67.04V11.2498H70.76V7.52985Z" fill="#BE7100"/>
<path d="M70.76 3.80988H67.04V7.52988H70.76V3.80988Z" fill="#A36000"/>
<path d="M67.0401 14.9699H63.3201V18.6899H67.0401V14.9699Z" fill="#A16700"/>
<path d="M67.0401 11.2498H63.3201V14.9698H67.0401V11.2498Z" fill="#A16700"/>
<path d="M67.0401 7.52985H63.3201V11.2498H67.0401V7.52985Z" fill="#FFD69C"/>
<path d="M67.0401 3.80988H63.3201V7.52988H67.0401V3.80988Z" fill="#FFBC57"/>
<path d="M63.3199 22.4099H59.5999V26.1299H63.3199V22.4099Z" fill="#8C5000"/>
<path d="M63.3199 18.6899H59.5999V22.4099H63.3199V18.6899Z" fill="#A16700"/>
<path d="M63.3199 14.9699H59.5999V18.6899H63.3199V14.9699Z" fill="#FF9E03"/>
<path d="M63.3199 11.2498H59.5999V14.9698H63.3199V11.2498Z" fill="#FF9E03"/>
<path d="M63.3199 7.52985H59.5999V11.2498H63.3199V7.52985Z" fill="#FFD69C"/>
<path d="M63.3199 3.80988H59.5999V7.52988H63.3199V3.80988Z" fill="#FFBC57"/>
<path d="M59.5999 26.1298H55.8799V29.8498H59.5999V26.1298Z" fill="#7D4500"/>
<path d="M59.5999 22.4099H55.8799V26.1299H59.5999V22.4099Z" fill="#EB8201"/>
<path d="M59.5999 18.6899H55.8799V22.4099H59.5999V18.6899Z" fill="#FF9E03"/>
<path d="M59.5999 14.9699H55.8799V18.6899H59.5999V14.9699Z" fill="#FF9E03"/>
<path d="M59.5999 11.2498H55.8799V14.9698H59.5999V11.2498Z" fill="#FF9E03"/>
<path d="M59.5999 7.52985H55.8799V11.2498H59.5999V7.52985Z" fill="#FFD69C"/>
<path d="M59.5999 3.80988H55.8799V7.52988H59.5999V3.80988Z" fill="#FFBC57"/>
<path d="M55.8799 26.1298H52.1599V29.8498H55.8799V26.1298Z" fill="#B96400"/>
<path d="M55.8799 22.4099H52.1599V26.1299H55.8799V22.4099Z" fill="#EB8201"/>
<path d="M55.8799 18.6899H52.1599V22.4099H55.8799V18.6899Z" fill="#FF9E03"/>
<path d="M55.8799 14.9699H52.1599V18.6899H55.8799V14.9699Z" fill="#FF9E03"/>
<path d="M55.8799 11.2498H52.1599V14.9698H55.8799V11.2498Z" fill="#FF9E03"/>
<path d="M55.8799 7.52985H52.1599V11.2498H55.8799V7.52985Z" fill="#BE7100"/>
<path d="M55.8799 3.80988H52.1599V7.52988H55.8799V3.80988Z" fill="#A36000"/>
<path d="M52.1599 26.1298H48.4399V29.8498H52.1599V26.1298Z" fill="#B96400"/>
<path d="M52.1599 22.4099H48.4399V26.1299H52.1599V22.4099Z" fill="#EB8201"/>
<path d="M52.1599 18.6899H48.4399V22.4099H52.1599V18.6899Z" fill="#FF9E03"/>
<path d="M52.1599 14.9699H48.4399V18.6899H52.1599V14.9699Z" fill="#A16700"/>
<path d="M52.1599 11.2498H48.4399V14.9698H52.1599V11.2498Z" fill="#A16700"/>
<path d="M48.44 26.1298H44.72V29.8498H48.44V26.1298Z" fill="#B96400"/>
<path d="M48.44 22.4099H44.72V26.1299H48.44V22.4099Z" fill="#8C5000"/>
<path d="M48.44 18.6899H44.72V22.4099H48.44V18.6899Z" fill="#A16700"/>
<path d="M44.72 26.1298H41V29.8498H44.72V26.1298Z" fill="#7D4500"/>
</svg>
