<svg width="183" height="39" viewBox="0 0 183 39" fill="none" xmlns="http://www.w3.org/2000/svg">
<path d="M40.8799 8.25H37.1599V11.97H40.8799V8.25Z" fill="#E2E2E2"/>
<path d="M40.8799 4.52991H37.1599V8.24991H40.8799V4.52991Z" fill="#E2E2E2"/>
<path d="M37.1599 15.6899H33.4399V19.4099H37.1599V15.6899Z" fill="#E2E2E2"/>
<path d="M37.1599 11.97H33.4399V15.69H37.1599V11.97Z" fill="#E2E2E2"/>
<path d="M33.44 23.13H29.72V26.85H33.44V23.13Z" fill="#CACACA"/>
<path d="M33.44 19.4099H29.72V23.1299H33.44V19.4099Z" fill="#E2E2E2"/>
<path d="M29.72 26.85H26V30.57H29.72V26.85Z" fill="#B3B3B3"/>
<path d="M33.44 26.85H29.72V30.57H33.44H37.16H40.88V26.85H37.16H33.44Z" fill="#E2E2E2"/>
<path d="M55.76 8.25H52.04V11.97H55.76V8.25Z" fill="#E2E2E2"/>
<path d="M55.76 4.52991H52.04V8.24991H55.76V4.52991Z" fill="#E2E2E2"/>
<path d="M52.0401 15.6899H48.3201V19.4099H52.0401V15.6899Z" fill="#E2E2E2"/>
<path d="M52.0401 11.97H48.3201V15.69H52.0401V11.97Z" fill="#E2E2E2"/>
<path d="M48.3199 23.13H44.5999V26.85H48.3199V23.13Z" fill="#CACACA"/>
<path d="M48.3199 19.4099H44.5999V23.1299H48.3199V19.4099Z" fill="#E2E2E2"/>
<path d="M44.5999 26.85H40.8799V30.57H44.5999V26.85Z" fill="#B3B3B3"/>
<g style="mix-blend-mode:multiply">
<path d="M40.8799 26.85H44.5999V23.13H40.8799H37.1599H33.4399V26.85H37.1599H40.8799Z" fill="#F8F8F8"/>
</g>
<path d="M78.0999 26.85H74.3799V30.57H78.0999H81.8199H85.5399V26.85H81.8199H78.0999Z" fill="#E2E2E2"/>
<path d="M107.84 26.85H104.12V30.57H107.84V26.85Z" fill="#E2E2E2"/>
<path d="M107.85 26.85V30.57H111.57H115.29V26.85H111.57H107.85Z" fill="#E2E2E2"/>
<path d="M122.71 26.85H118.99V30.57H122.71V26.85Z" fill="#E2E2E2"/>
<path d="M122.73 26.85V30.57H126.45H130.17V26.85H126.45H122.73Z" fill="#E2E2E2"/>
<path d="M137.61 26.85H133.89V30.57H137.61H141.33H145.05V26.85H141.33H137.61Z" fill="#E2E2E2"/>
<path d="M156.17 26.85H152.49H152.45H148.77V30.57H152.45H152.49H156.17H159.89V26.85H156.17Z" fill="#E2E2E2"/>
<g style="mix-blend-mode:multiply">
<path d="M167.36 26.85H163.64V30.57H167.36V26.85Z" fill="#E2E2E2"/>
</g>
<g style="mix-blend-mode:multiply">
<path d="M171.09 23.13H167.37V26.85H171.09V23.13Z" fill="#F8F8F8"/>
</g>
<path d="M130.17 8.25H126.45V11.97H130.17V8.25Z" fill="#E2E2E2"/>
<path d="M130.17 4.52991H126.45V8.24991H130.17V4.52991Z" fill="#E2E2E2"/>
<path d="M126.45 15.6899H122.73V19.4099H126.45V15.6899Z" fill="#E2E2E2"/>
<path d="M126.45 11.97H122.73V15.69H126.45V11.97Z" fill="#E2E2E2"/>
<path d="M122.73 23.13H119.01V26.85H122.73V23.13Z" fill="#CACACA"/>
<path d="M122.73 19.4099H119.01V23.1299H122.73V19.4099Z" fill="#E2E2E2"/>
<path d="M119.01 26.85H115.29V30.57H119.01V26.85Z" fill="#B3B3B3"/>
<path d="M145.05 8.25H141.33V11.97H145.05V8.25Z" fill="#E2E2E2"/>
<path d="M145.05 4.52991H141.33V8.24991H145.05V4.52991Z" fill="#E2E2E2"/>
<path d="M141.33 15.6899H137.61V19.4099H141.33V15.6899Z" fill="#E2E2E2"/>
<path d="M141.33 11.97H137.61V15.69H141.33V11.97Z" fill="#E2E2E2"/>
<path d="M137.61 23.13H133.89V26.85H137.61V23.13Z" fill="#CACACA"/>
<path d="M137.61 19.4099H133.89V23.1299H137.61V19.4099Z" fill="#E2E2E2"/>
<path d="M133.89 26.85H130.17V30.57H133.89V26.85Z" fill="#B3B3B3"/>
<path d="M159.93 8.25H156.21V11.97H159.93V8.25Z" fill="#E2E2E2"/>
<path d="M159.93 4.52991H156.21V8.24991H159.93V4.52991Z" fill="#E2E2E2"/>
<path d="M156.21 15.6899H152.49V19.4099H156.21V15.6899Z" fill="#E2E2E2"/>
<path d="M156.21 11.97H152.49V15.69H156.21V11.97Z" fill="#E2E2E2"/>
<path d="M152.49 23.13H148.77V26.85H152.49V23.13Z" fill="#CACACA"/>
<path d="M152.49 19.4099H148.77V23.1299H152.49V19.4099Z" fill="#E2E2E2"/>
<path d="M148.77 26.85H145.05V30.57H148.77V26.85Z" fill="#B3B3B3"/>
<path d="M174.81 8.25H171.09V11.97H174.81V8.25Z" fill="#E2E2E2"/>
<path d="M171.09 15.6899H167.37V19.4099H171.09V15.6899Z" fill="#E2E2E2"/>
<path d="M171.09 11.97H167.37V15.69H171.09V11.97Z" fill="#E2E2E2"/>
<path d="M167.37 23.13H163.65V26.85H167.37V23.13Z" fill="#CACACA"/>
<path d="M167.37 19.4099H163.65V23.1299H167.37V19.4099Z" fill="#E2E2E2"/>
<path d="M163.61 26.85H159.89V30.57H163.61V26.85Z" fill="#B3B3B3"/>
<path d="M40.76 8.24988H37.04V11.9699H40.76V8.24988Z" fill="#BE7100"/>
<path d="M40.76 4.52991H37.04V8.24991H40.76V4.52991Z" fill="#A36000"/>
<path d="M37.0401 15.6899H33.3201V19.4099H37.0401V15.6899Z" fill="#A16700"/>
<path d="M37.0401 11.9698H33.3201V15.6898H37.0401V11.9698Z" fill="#A16700"/>
<path d="M37.0401 8.24988H33.3201V11.9699H37.0401V8.24988Z" fill="#FFD69C"/>
<path d="M37.0401 4.52991H33.3201V8.24991H37.0401V4.52991Z" fill="#FFBC57"/>
<path d="M33.3199 23.1299H29.5999V26.8499H33.3199V23.1299Z" fill="#8C5000"/>
<path d="M33.3199 19.4099H29.5999V23.1299H33.3199V19.4099Z" fill="#A16700"/>
<path d="M33.3199 15.6899H29.5999V19.4099H33.3199V15.6899Z" fill="#FF9E03"/>
<path d="M33.3199 11.9698H29.5999V15.6898H33.3199V11.9698Z" fill="#FF9E03"/>
<path d="M33.3199 8.24988H29.5999V11.9699H33.3199V8.24988Z" fill="#FFD69C"/>
<path d="M33.3199 4.52991H29.5999V8.24991H33.3199V4.52991Z" fill="#FFBC57"/>
<path d="M29.5999 26.8499H25.8799V30.5699H29.5999V26.8499Z" fill="#7D4500"/>
<path d="M29.5999 23.1299H25.8799V26.8499H29.5999V23.1299Z" fill="#EB8201"/>
<path d="M29.5999 19.4099H25.8799V23.1299H29.5999V19.4099Z" fill="#FF9E03"/>
<path d="M29.5999 15.6899H25.8799V19.4099H29.5999V15.6899Z" fill="#FF9E03"/>
<path d="M29.5999 11.9698H25.8799V15.6898H29.5999V11.9698Z" fill="#FF9E03"/>
<path d="M29.5999 8.24988H25.8799V11.9699H29.5999V8.24988Z" fill="#FFD69C"/>
<path d="M29.5999 4.52991H25.8799V8.24991H29.5999V4.52991Z" fill="#FFBC57"/>
<path d="M25.8799 26.8499H22.1599V30.5699H25.8799V26.8499Z" fill="#B96400"/>
<path d="M25.8799 23.1299H22.1599V26.8499H25.8799V23.1299Z" fill="#EB8201"/>
<path d="M25.8799 19.4099H22.1599V23.1299H25.8799V19.4099Z" fill="#FF9E03"/>
<path d="M25.8799 15.6899H22.1599V19.4099H25.8799V15.6899Z" fill="#FF9E03"/>
<path d="M25.8799 11.9698H22.1599V15.6898H25.8799V11.9698Z" fill="#FF9E03"/>
<path d="M25.8799 8.24988H22.1599V11.9699H25.8799V8.24988Z" fill="#BE7100"/>
<path d="M25.8799 4.52991H22.1599V8.24991H25.8799V4.52991Z" fill="#A36000"/>
<path d="M22.1599 26.8499H18.4399V30.5699H22.1599V26.8499Z" fill="#B96400"/>
<path d="M22.1599 23.1299H18.4399V26.8499H22.1599V23.1299Z" fill="#EB8201"/>
<path d="M22.1599 19.4099H18.4399V23.1299H22.1599V19.4099Z" fill="#FF9E03"/>
<path d="M22.1599 15.6899H18.4399V19.4099H22.1599V15.6899Z" fill="#A16700"/>
<path d="M22.1599 11.9698H18.4399V15.6898H22.1599V11.9698Z" fill="#A16700"/>
<path d="M18.44 26.8499H14.72V30.5699H18.44V26.8499Z" fill="#B96400"/>
<path d="M18.44 23.1299H14.72V26.8499H18.44V23.1299Z" fill="#8C5000"/>
<path d="M18.44 19.4099H14.72V23.1299H18.44V19.4099Z" fill="#A16700"/>
<path d="M14.72 26.8499H11V30.5699H14.72V26.8499Z" fill="#7D4500"/>
<path d="M26.0301 8.25H22.3101V11.97H26.0301V8.25Z" fill="#BE7100"/>
<path d="M26.0301 4.52991H22.3101V8.24991H26.0301V4.52991Z" fill="#A36000"/>
<path d="M22.3101 15.6899H18.5901V19.4099H22.3101V15.6899Z" fill="#A16700"/>
<path d="M22.3101 11.97H18.5901V15.69H22.3101V11.97Z" fill="#A16700"/>
<path d="M22.3101 8.25H18.5901V11.97H22.3101V8.25Z" fill="#FFD69C"/>
<path d="M22.3101 4.52991H18.5901V8.24991H22.3101V4.52991Z" fill="#FFBC57"/>
<path d="M18.5899 23.13H14.8799V26.85H18.5899V23.13Z" fill="#8C5000"/>
<path d="M18.5899 19.4099H14.8799V23.1299H18.5899V19.4099Z" fill="#A16700"/>
<path d="M18.5899 15.6899H14.8799V19.4099H18.5899V15.6899Z" fill="#FF9E03"/>
<path d="M18.5899 11.97H14.8799V15.69H18.5899V11.97Z" fill="#FF9E03"/>
<path d="M18.5899 8.25H14.8799V11.97H18.5899V8.25Z" fill="#FFD69C"/>
<path d="M18.5899 4.52991H14.8799V8.24991H18.5899V4.52991Z" fill="#FFBC57"/>
<path d="M14.8799 26.85H11.1599V30.57H14.8799V26.85Z" fill="#7D4500"/>
<path d="M14.8799 23.13H11.1599V26.85H14.8799V23.13Z" fill="#EB8201"/>
<path d="M14.8799 19.4099H11.1599V23.1299H14.8799V19.4099Z" fill="#FF9E03"/>
<path d="M14.8799 15.6899H11.1599V19.4099H14.8799V15.6899Z" fill="#FF9E03"/>
<path d="M14.8799 11.97H11.1599V15.69H14.8799V11.97Z" fill="#FF9E03"/>
<path d="M14.8799 8.25H11.1599V11.97H14.8799V8.25Z" fill="#FFA21B"/>
<path d="M14.8799 4.52991H11.1599V8.24991H14.8799V4.52991Z" fill="#FFBC57"/>
<path d="M11.1599 23.13H7.43994V26.85H11.1599V23.13Z" fill="#EB8201"/>
<path d="M11.1599 19.4099H7.43994V23.1299H11.1599V19.4099Z" fill="#FF9E03"/>
<path d="M11.1599 15.6899H7.43994V19.4099H11.1599V15.6899Z" fill="#FFA21B"/>
<path d="M11.1599 11.97H7.43994V15.69H11.1599V11.97Z" fill="#FFA21B"/>
<path d="M11.1599 8.25H7.43994V11.97H11.1599V8.25Z" fill="#FFBC57"/>
<path d="M7.43997 23.13H3.71997V26.85H7.43997V23.13Z" fill="#FF9E03"/>
<path d="M7.43997 19.4099H3.71997V23.1299H7.43997V19.4099Z" fill="#FFA21B"/>
<path d="M7.43997 15.6899H3.71997V19.4099H7.43997V15.6899Z" fill="#FFBC57"/>
<path d="M7.43997 11.97H3.71997V15.69H7.43997V11.97Z" fill="#FFD69C"/>
<path d="M7.43997 8.25H3.71997V11.97H7.43997V8.25Z" fill="#FFD69C"/>
<path d="M174.79 15.69V19.41V23.13V26.85H178.51V23.13V19.41V15.69V11.97V8.25H174.79V11.97V15.69Z" fill="#1D2920"/>
<path d="M167.35 26.85V30.57H171.07H174.79V26.85H171.07H167.35Z" fill="#1D2920"/>
<path d="M171.07 8.24991H174.79V4.52991H171.07H167.35V8.24991H171.07Z" fill="#1D2920"/>
<path d="M159.92 30.5699H156.2H152.48H148.76H145.04H141.32H137.6H133.88H130.16H126.45H122.73H119.01H115.29H111.57H107.85H104.13H100.41H96.6899H92.9699H89.2599H85.5399H81.8199H78.0999H74.3799H70.6599H66.9399H63.2199H59.4999H55.7799H52.0699H48.3499H44.6299H40.9099H37.1899H33.4699H29.7499H26.0299H22.3099H18.5899H14.8799H11.1599V34.2899H14.8799H18.5899H22.3099H26.0299H29.7499H33.4699H37.1899H40.9099H44.6299H48.3499H52.0699H55.7799H59.4999H63.2199H66.9399H70.6599H74.3799H78.0999H81.8199H85.5399H89.2599H92.9699H96.6899H100.41H104.13H107.85H111.57H115.29H119.01H122.73H126.45H130.16H133.88H137.6H141.32H145.04H148.76H152.48H156.2H159.92H163.64H167.35V30.5699H163.64H159.92Z" fill="#1D2920"/>
<path d="M18.5899 4.52995H22.3099H26.0299H29.7499H33.4699H37.1899H40.9099H44.6299H48.3499H52.0699H55.7799H59.4999H63.2199H66.9399H70.6599H74.3799H78.0999H81.8199H85.5399H89.2599H92.9699H96.6899H100.41H104.13H107.85H111.57H115.29H119.01H122.73H126.45H130.16H133.88H137.6H141.32H145.04H148.76H152.48H156.2H159.92H163.64H167.35V0.819946H163.64H159.92H156.2H152.48H148.76H145.04H141.32H137.6H133.88H130.16H126.45H122.73H119.01H115.29H111.57H107.85H104.13H100.41H96.6899H92.9699H89.2599H85.5399H81.8199H78.0999H74.3799H70.6599H66.9399H63.2199H59.4999H55.7799H52.0699H48.3499H44.6299H40.9099H37.1899H33.4699H29.7499H26.0299H22.3099H18.5899H14.8799H11.1599V4.52995H14.8799H18.5899Z" fill="#1D2920"/>
<path d="M7.43997 26.85H3.71997V30.57H7.43997H11.16V26.85H7.43997Z" fill="#1D2920"/>
<path d="M11.16 8.24991V4.52991H7.43997H3.71997V8.24991H7.43997H11.16Z" fill="#1D2920"/>
<path d="M3.72 23.13V19.41V15.69V11.97V8.25H0V11.97V15.69V19.41V23.13V26.85H3.72V23.13Z" fill="#1D2920"/>
<g style="mix-blend-mode:multiply">
<path d="M85.5401 26.85H89.2601V23.13H85.5401H81.8201H78.1001V26.85H81.8201H85.5401Z" fill="#F8F8F8"/>
</g>
<path d="M100.41 8.25H96.6899V11.97H100.41V8.25Z" fill="#E2E2E2"/>
<path d="M100.41 4.52991H96.6899V8.24991H100.41V4.52991Z" fill="#E2E2E2"/>
<path d="M96.69 15.6899H92.97V19.4099H96.69V15.6899Z" fill="#E2E2E2"/>
<path d="M96.69 11.97H92.97V15.69H96.69V11.97Z" fill="#E2E2E2"/>
<path d="M92.97 23.13H89.25V26.85H92.97V23.13Z" fill="#CACACA"/>
<path d="M92.97 19.4099H89.25V23.1299H92.97V19.4099Z" fill="#E2E2E2"/>
<path d="M89.25 26.85H85.53V30.57H89.25V26.85Z" fill="#B3B3B3"/>
<path d="M92.97 26.85H89.25V30.57H92.97H96.69H100.41V26.85H96.69H92.97Z" fill="#E2E2E2"/>
<path d="M115.29 8.25H111.57V11.97H115.29V8.25Z" fill="#E2E2E2"/>
<path d="M115.29 4.52991H111.57V8.24991H115.29V4.52991Z" fill="#E2E2E2"/>
<path d="M111.57 15.6899H107.85V19.4099H111.57V15.6899Z" fill="#E2E2E2"/>
<path d="M111.57 11.97H107.85V15.69H111.57V11.97Z" fill="#E2E2E2"/>
<path d="M107.85 23.13H104.13V26.85H107.85V23.13Z" fill="#CACACA"/>
<path d="M107.85 19.4099H104.13V23.1299H107.85V19.4099Z" fill="#E2E2E2"/>
<path d="M104.13 26.85H100.41V30.57H104.13V26.85Z" fill="#B3B3B3"/>
<g style="mix-blend-mode:multiply">
<path d="M100.41 26.85H104.13V23.13H100.41H96.69H92.97V26.85H96.69H100.41Z" fill="#F8F8F8"/>
</g>
<path d="M70.8799 8.25H67.1599V11.97H70.8799V8.25Z" fill="#E2E2E2"/>
<path d="M70.8799 4.52991H67.1599V8.24991H70.8799V4.52991Z" fill="#E2E2E2"/>
<path d="M67.1599 15.6899H63.4399V19.4099H67.1599V15.6899Z" fill="#E2E2E2"/>
<path d="M67.1599 11.97H63.4399V15.69H67.1599V11.97Z" fill="#E2E2E2"/>
<path d="M63.44 23.13H59.72V26.85H63.44V23.13Z" fill="#CACACA"/>
<path d="M63.44 19.4099H59.72V23.1299H63.44V19.4099Z" fill="#E2E2E2"/>
<path d="M59.72 26.85H56V30.57H59.72V26.85Z" fill="#B3B3B3"/>
<path d="M63.44 26.85H59.72V30.57H63.44H67.16H70.88V26.85H67.16H63.44Z" fill="#E2E2E2"/>
<path d="M85.76 8.25H82.04V11.97H85.76V8.25Z" fill="#E2E2E2"/>
<path d="M85.76 4.52991H82.04V8.24991H85.76V4.52991Z" fill="#E2E2E2"/>
<path d="M82.0401 15.6899H78.3201V19.4099H82.0401V15.6899Z" fill="#E2E2E2"/>
<path d="M82.0401 11.97H78.3201V15.69H82.0401V11.97Z" fill="#E2E2E2"/>
<path d="M78.3199 23.13H74.5999V26.85H78.3199V23.13Z" fill="#CACACA"/>
<path d="M78.3199 19.4099H74.5999V23.1299H78.3199V19.4099Z" fill="#E2E2E2"/>
<path d="M74.5999 26.85H70.8799V30.57H74.5999V26.85Z" fill="#B3B3B3"/>
<g style="mix-blend-mode:multiply">
<path d="M70.8799 26.85H74.5999V23.13H70.8799H67.1599H63.4399V26.85H67.1599H70.8799Z" fill="#F8F8F8"/>
</g>
<path d="M55.8799 8.25H52.1599V11.97H55.8799V8.25Z" fill="#E2E2E2"/>
<path d="M55.8799 4.52991H52.1599V8.24991H55.8799V4.52991Z" fill="#E2E2E2"/>
<path d="M52.1599 15.6899H48.4399V19.4099H52.1599V15.6899Z" fill="#E2E2E2"/>
<path d="M52.1599 11.97H48.4399V15.69H52.1599V11.97Z" fill="#E2E2E2"/>
<path d="M48.44 23.13H44.72V26.85H48.44V23.13Z" fill="#CACACA"/>
<path d="M48.44 19.4099H44.72V23.1299H48.44V19.4099Z" fill="#E2E2E2"/>
<path d="M44.72 26.85H41V30.57H44.72V26.85Z" fill="#B3B3B3"/>
<path d="M48.44 26.85H44.72V30.57H48.44H52.16H55.88V26.85H52.16H48.44Z" fill="#E2E2E2"/>
<path d="M70.76 8.25H67.04V11.97H70.76V8.25Z" fill="#E2E2E2"/>
<path d="M70.76 4.52991H67.04V8.24991H70.76V4.52991Z" fill="#E2E2E2"/>
<path d="M67.0401 15.6899H63.3201V19.4099H67.0401V15.6899Z" fill="#E2E2E2"/>
<path d="M67.0401 11.97H63.3201V15.69H67.0401V11.97Z" fill="#E2E2E2"/>
<path d="M63.3199 23.13H59.5999V26.85H63.3199V23.13Z" fill="#CACACA"/>
<path d="M63.3199 19.4099H59.5999V23.1299H63.3199V19.4099Z" fill="#E2E2E2"/>
<path d="M59.5999 26.85H55.8799V30.57H59.5999V26.85Z" fill="#B3B3B3"/>
<g style="mix-blend-mode:multiply">
<path d="M55.8799 26.85H59.5999V23.13H55.8799H52.1599H48.4399V26.85H52.1599H55.8799Z" fill="#F8F8F8"/>
</g>
<g style="mix-blend-mode:multiply">
<path d="M115.28 26.85H119V23.13H115.28H111.56H107.84V26.85H111.56H115.28Z" fill="#F8F8F8"/>
</g>
<g style="mix-blend-mode:multiply">
<path d="M130.15 26.85H133.87V23.13H130.15H126.43H122.71V26.85H126.43H130.15Z" fill="#F8F8F8"/>
</g>
<g style="mix-blend-mode:multiply">
<path d="M145.02 26.85H148.74V23.13H145.02H141.3H137.58V26.85H141.3H145.02Z" fill="#F8F8F8"/>
</g>
<g style="mix-blend-mode:multiply">
<path d="M159.89 26.85H163.61V23.13H159.89H156.17H152.45V26.85H156.17H159.89Z" fill="#F8F8F8"/>
</g>
<g style="mix-blend-mode:multiply">
<path d="M174.79 19.41V15.69V11.97H171.07V15.69V19.41V23.13V26.85H174.79V23.13V19.41Z" fill="#F8F8F8"/>
</g>
<g style="mix-blend-mode:multiply">
<path d="M167.35 30.5699V34.2899H171.07H174.79V30.5699H171.07H167.35Z" fill="#F8F8F8"/>
</g>
<g style="mix-blend-mode:multiply">
<path d="M178.51 11.97V26.85H174.79V30.57H178.51H182.23V11.97H178.51Z" fill="#F8F8F8"/>
</g>
<g style="mix-blend-mode:multiply">
<path d="M167.47 34.8199H15V38.5399H167.47V34.8199Z" fill="#F8F8F8"/>
</g>
<path d="M55.76 8.24988H52.04V11.9699H55.76V8.24988Z" fill="#BE7100"/>
<path d="M55.76 4.52991H52.04V8.24991H55.76V4.52991Z" fill="#A36000"/>
<path d="M52.0401 15.6899H48.3201V19.4099H52.0401V15.6899Z" fill="#A16700"/>
<path d="M52.0401 11.9698H48.3201V15.6898H52.0401V11.9698Z" fill="#A16700"/>
<path d="M52.0401 8.24988H48.3201V11.9699H52.0401V8.24988Z" fill="#FFD69C"/>
<path d="M52.0401 4.52991H48.3201V8.24991H52.0401V4.52991Z" fill="#FFBC57"/>
<path d="M48.3199 23.1299H44.5999V26.8499H48.3199V23.1299Z" fill="#8C5000"/>
<path d="M48.3199 19.4099H44.5999V23.1299H48.3199V19.4099Z" fill="#A16700"/>
<path d="M48.3199 15.6899H44.5999V19.4099H48.3199V15.6899Z" fill="#FF9E03"/>
<path d="M48.3199 11.9698H44.5999V15.6898H48.3199V11.9698Z" fill="#FF9E03"/>
<path d="M48.3199 8.24988H44.5999V11.9699H48.3199V8.24988Z" fill="#FFD69C"/>
<path d="M48.3199 4.52991H44.5999V8.24991H48.3199V4.52991Z" fill="#FFBC57"/>
<path d="M44.5999 26.8499H40.8799V30.5699H44.5999V26.8499Z" fill="#7D4500"/>
<path d="M44.5999 23.1299H40.8799V26.8499H44.5999V23.1299Z" fill="#EB8201"/>
<path d="M44.5999 19.4099H40.8799V23.1299H44.5999V19.4099Z" fill="#FF9E03"/>
<path d="M44.5999 15.6899H40.8799V19.4099H44.5999V15.6899Z" fill="#FF9E03"/>
<path d="M44.5999 11.9698H40.8799V15.6898H44.5999V11.9698Z" fill="#FF9E03"/>
<path d="M44.5999 8.24988H40.8799V11.9699H44.5999V8.24988Z" fill="#FFD69C"/>
<path d="M44.5999 4.52991H40.8799V8.24991H44.5999V4.52991Z" fill="#FFBC57"/>
<path d="M40.8799 26.8499H37.1599V30.5699H40.8799V26.8499Z" fill="#B96400"/>
<path d="M40.8799 23.1299H37.1599V26.8499H40.8799V23.1299Z" fill="#EB8201"/>
<path d="M40.8799 19.4099H37.1599V23.1299H40.8799V19.4099Z" fill="#FF9E03"/>
<path d="M40.8799 15.6899H37.1599V19.4099H40.8799V15.6899Z" fill="#FF9E03"/>
<path d="M40.8799 11.9698H37.1599V15.6898H40.8799V11.9698Z" fill="#FF9E03"/>
<path d="M40.8799 8.24988H37.1599V11.9699H40.8799V8.24988Z" fill="#BE7100"/>
<path d="M40.8799 4.52991H37.1599V8.24991H40.8799V4.52991Z" fill="#A36000"/>
<path d="M37.1599 26.8499H33.4399V30.5699H37.1599V26.8499Z" fill="#B96400"/>
<path d="M37.1599 23.1299H33.4399V26.8499H37.1599V23.1299Z" fill="#EB8201"/>
<path d="M37.1599 19.4099H33.4399V23.1299H37.1599V19.4099Z" fill="#FF9E03"/>
<path d="M37.1599 15.6899H33.4399V19.4099H37.1599V15.6899Z" fill="#A16700"/>
<path d="M37.1599 11.9698H33.4399V15.6898H37.1599V11.9698Z" fill="#A16700"/>
<path d="M33.44 26.8499H29.72V30.5699H33.44V26.8499Z" fill="#B96400"/>
<path d="M33.44 23.1299H29.72V26.8499H33.44V23.1299Z" fill="#8C5000"/>
<path d="M33.44 19.4099H29.72V23.1299H33.44V19.4099Z" fill="#A16700"/>
<path d="M29.72 26.8499H26V30.5699H29.72V26.8499Z" fill="#7D4500"/>
<path d="M70.76 8.24988H67.04V11.9699H70.76V8.24988Z" fill="#BE7100"/>
<path d="M70.76 4.52991H67.04V8.24991H70.76V4.52991Z" fill="#A36000"/>
<path d="M67.0401 15.6899H63.3201V19.4099H67.0401V15.6899Z" fill="#A16700"/>
<path d="M67.0401 11.9698H63.3201V15.6898H67.0401V11.9698Z" fill="#A16700"/>
<path d="M67.0401 8.24988H63.3201V11.9699H67.0401V8.24988Z" fill="#FFD69C"/>
<path d="M67.0401 4.52991H63.3201V8.24991H67.0401V4.52991Z" fill="#FFBC57"/>
<path d="M63.3199 23.1299H59.5999V26.8499H63.3199V23.1299Z" fill="#8C5000"/>
<path d="M63.3199 19.4099H59.5999V23.1299H63.3199V19.4099Z" fill="#A16700"/>
<path d="M63.3199 15.6899H59.5999V19.4099H63.3199V15.6899Z" fill="#FF9E03"/>
<path d="M63.3199 11.9698H59.5999V15.6898H63.3199V11.9698Z" fill="#FF9E03"/>
<path d="M63.3199 8.24988H59.5999V11.9699H63.3199V8.24988Z" fill="#FFD69C"/>
<path d="M63.3199 4.52991H59.5999V8.24991H63.3199V4.52991Z" fill="#FFBC57"/>
<path d="M59.5999 26.8499H55.8799V30.5699H59.5999V26.8499Z" fill="#7D4500"/>
<path d="M59.5999 23.1299H55.8799V26.8499H59.5999V23.1299Z" fill="#EB8201"/>
<path d="M59.5999 19.4099H55.8799V23.1299H59.5999V19.4099Z" fill="#FF9E03"/>
<path d="M59.5999 15.6899H55.8799V19.4099H59.5999V15.6899Z" fill="#FF9E03"/>
<path d="M59.5999 11.9698H55.8799V15.6898H59.5999V11.9698Z" fill="#FF9E03"/>
<path d="M59.5999 8.24988H55.8799V11.9699H59.5999V8.24988Z" fill="#FFD69C"/>
<path d="M59.5999 4.52991H55.8799V8.24991H59.5999V4.52991Z" fill="#FFBC57"/>
<path d="M55.8799 26.8499H52.1599V30.5699H55.8799V26.8499Z" fill="#B96400"/>
<path d="M55.8799 23.1299H52.1599V26.8499H55.8799V23.1299Z" fill="#EB8201"/>
<path d="M55.8799 19.4099H52.1599V23.1299H55.8799V19.4099Z" fill="#FF9E03"/>
<path d="M55.8799 15.6899H52.1599V19.4099H55.8799V15.6899Z" fill="#FF9E03"/>
<path d="M55.8799 11.9698H52.1599V15.6898H55.8799V11.9698Z" fill="#FF9E03"/>
<path d="M55.8799 8.24988H52.1599V11.9699H55.8799V8.24988Z" fill="#BE7100"/>
<path d="M55.8799 4.52991H52.1599V8.24991H55.8799V4.52991Z" fill="#A36000"/>
<path d="M52.1599 26.8499H48.4399V30.5699H52.1599V26.8499Z" fill="#B96400"/>
<path d="M52.1599 23.1299H48.4399V26.8499H52.1599V23.1299Z" fill="#EB8201"/>
<path d="M52.1599 19.4099H48.4399V23.1299H52.1599V19.4099Z" fill="#FF9E03"/>
<path d="M52.1599 15.6899H48.4399V19.4099H52.1599V15.6899Z" fill="#A16700"/>
<path d="M52.1599 11.9698H48.4399V15.6898H52.1599V11.9698Z" fill="#A16700"/>
<path d="M48.44 26.8499H44.72V30.5699H48.44V26.8499Z" fill="#B96400"/>
<path d="M48.44 23.1299H44.72V26.8499H48.44V23.1299Z" fill="#8C5000"/>
<path d="M48.44 19.4099H44.72V23.1299H48.44V19.4099Z" fill="#A16700"/>
<path d="M44.72 26.8499H41V30.5699H44.72V26.8499Z" fill="#7D4500"/>
<path d="M85.76 8.24988H82.04V11.9699H85.76V8.24988Z" fill="#BE7100"/>
<path d="M85.76 4.52991H82.04V8.24991H85.76V4.52991Z" fill="#A36000"/>
<path d="M82.0401 15.6899H78.3201V19.4099H82.0401V15.6899Z" fill="#A16700"/>
<path d="M82.0401 11.9698H78.3201V15.6898H82.0401V11.9698Z" fill="#A16700"/>
<path d="M82.0401 8.24988H78.3201V11.9699H82.0401V8.24988Z" fill="#FFD69C"/>
<path d="M82.0401 4.52991H78.3201V8.24991H82.0401V4.52991Z" fill="#FFBC57"/>
<path d="M78.3199 23.1299H74.5999V26.8499H78.3199V23.1299Z" fill="#8C5000"/>
<path d="M78.3199 19.4099H74.5999V23.1299H78.3199V19.4099Z" fill="#A16700"/>
<path d="M78.3199 15.6899H74.5999V19.4099H78.3199V15.6899Z" fill="#FF9E03"/>
<path d="M78.3199 11.9698H74.5999V15.6898H78.3199V11.9698Z" fill="#FF9E03"/>
<path d="M78.3199 8.24988H74.5999V11.9699H78.3199V8.24988Z" fill="#FFD69C"/>
<path d="M78.3199 4.52991H74.5999V8.24991H78.3199V4.52991Z" fill="#FFBC57"/>
<path d="M74.5999 26.8499H70.8799V30.5699H74.5999V26.8499Z" fill="#7D4500"/>
<path d="M74.5999 23.1299H70.8799V26.8499H74.5999V23.1299Z" fill="#EB8201"/>
<path d="M74.5999 19.4099H70.8799V23.1299H74.5999V19.4099Z" fill="#FF9E03"/>
<path d="M74.5999 15.6899H70.8799V19.4099H74.5999V15.6899Z" fill="#FF9E03"/>
<path d="M74.5999 11.9698H70.8799V15.6898H74.5999V11.9698Z" fill="#FF9E03"/>
<path d="M74.5999 8.24988H70.8799V11.9699H74.5999V8.24988Z" fill="#FFD69C"/>
<path d="M74.5999 4.52991H70.8799V8.24991H74.5999V4.52991Z" fill="#FFBC57"/>
<path d="M70.8799 26.8499H67.1599V30.5699H70.8799V26.8499Z" fill="#B96400"/>
<path d="M70.8799 23.1299H67.1599V26.8499H70.8799V23.1299Z" fill="#EB8201"/>
<path d="M70.8799 19.4099H67.1599V23.1299H70.8799V19.4099Z" fill="#FF9E03"/>
<path d="M70.8799 15.6899H67.1599V19.4099H70.8799V15.6899Z" fill="#FF9E03"/>
<path d="M70.8799 11.9698H67.1599V15.6898H70.8799V11.9698Z" fill="#FF9E03"/>
<path d="M70.8799 8.24988H67.1599V11.9699H70.8799V8.24988Z" fill="#BE7100"/>
<path d="M70.8799 4.52991H67.1599V8.24991H70.8799V4.52991Z" fill="#A36000"/>
<path d="M67.1599 26.8499H63.4399V30.5699H67.1599V26.8499Z" fill="#B96400"/>
<path d="M67.1599 23.1299H63.4399V26.8499H67.1599V23.1299Z" fill="#EB8201"/>
<path d="M67.1599 19.4099H63.4399V23.1299H67.1599V19.4099Z" fill="#FF9E03"/>
<path d="M67.1599 15.6899H63.4399V19.4099H67.1599V15.6899Z" fill="#A16700"/>
<path d="M67.1599 11.9698H63.4399V15.6898H67.1599V11.9698Z" fill="#A16700"/>
<path d="M63.44 26.8499H59.72V30.5699H63.44V26.8499Z" fill="#B96400"/>
<path d="M63.44 23.1299H59.72V26.8499H63.44V23.1299Z" fill="#8C5000"/>
<path d="M63.44 19.4099H59.72V23.1299H63.44V19.4099Z" fill="#A16700"/>
<path d="M59.72 26.8499H56V30.5699H59.72V26.8499Z" fill="#7D4500"/>
</svg>
