<svg width="183" height="39" viewBox="0 0 183 39" fill="none" xmlns="http://www.w3.org/2000/svg">
<path d="M40.8799 7.96997H37.1599V11.69H40.8799V7.96997Z" fill="#E2E2E2"/>
<path d="M40.8799 4.24988H37.1599V7.96988H40.8799V4.24988Z" fill="#E2E2E2"/>
<path d="M37.1599 15.4099H33.4399V19.1299H37.1599V15.4099Z" fill="#E2E2E2"/>
<path d="M37.1599 11.6899H33.4399V15.4099H37.1599V11.6899Z" fill="#E2E2E2"/>
<path d="M33.44 22.85H29.72V26.57H33.44V22.85Z" fill="#CACACA"/>
<path d="M33.44 19.1299H29.72V22.8499H33.44V19.1299Z" fill="#E2E2E2"/>
<path d="M29.72 26.5699H26V30.2899H29.72V26.5699Z" fill="#B3B3B3"/>
<path d="M33.44 26.5699H29.72V30.2899H33.44H37.16H40.88V26.5699H37.16H33.44Z" fill="#E2E2E2"/>
<path d="M55.76 7.96997H52.04V11.69H55.76V7.96997Z" fill="#E2E2E2"/>
<path d="M55.76 4.24988H52.04V7.96988H55.76V4.24988Z" fill="#E2E2E2"/>
<path d="M52.0401 15.4099H48.3201V19.1299H52.0401V15.4099Z" fill="#E2E2E2"/>
<path d="M52.0401 11.6899H48.3201V15.4099H52.0401V11.6899Z" fill="#E2E2E2"/>
<path d="M48.3199 22.85H44.5999V26.57H48.3199V22.85Z" fill="#CACACA"/>
<path d="M48.3199 19.1299H44.5999V22.8499H48.3199V19.1299Z" fill="#E2E2E2"/>
<path d="M44.5999 26.5699H40.8799V30.2899H44.5999V26.5699Z" fill="#B3B3B3"/>
<g style="mix-blend-mode:multiply">
<path d="M40.8799 26.57H44.5999V22.85H40.8799H37.1599H33.4399V26.57H37.1599H40.8799Z" fill="#F8F8F8"/>
</g>
<path d="M78.0999 26.5699H74.3799V30.2899H78.0999H81.8199H85.5399V26.5699H81.8199H78.0999Z" fill="#E2E2E2"/>
<path d="M107.84 26.5699H104.12V30.2899H107.84V26.5699Z" fill="#E2E2E2"/>
<path d="M107.85 26.5699V30.2899H111.57H115.29V26.5699H111.57H107.85Z" fill="#E2E2E2"/>
<path d="M122.71 26.5699H118.99V30.2899H122.71V26.5699Z" fill="#E2E2E2"/>
<path d="M122.73 26.5699V30.2899H126.45H130.17V26.5699H126.45H122.73Z" fill="#E2E2E2"/>
<path d="M137.61 26.5699H133.89V30.2899H137.61H141.33H145.05V26.5699H141.33H137.61Z" fill="#E2E2E2"/>
<path d="M156.17 26.5699H152.49H152.45H148.77V30.2899H152.45H152.49H156.17H159.89V26.5699H156.17Z" fill="#E2E2E2"/>
<g style="mix-blend-mode:multiply">
<path d="M167.36 26.5699H163.64V30.2899H167.36V26.5699Z" fill="#E2E2E2"/>
</g>
<g style="mix-blend-mode:multiply">
<path d="M171.09 22.85H167.37V26.57H171.09V22.85Z" fill="#F8F8F8"/>
</g>
<path d="M130.17 7.96997H126.45V11.69H130.17V7.96997Z" fill="#E2E2E2"/>
<path d="M130.17 4.24988H126.45V7.96988H130.17V4.24988Z" fill="#E2E2E2"/>
<path d="M126.45 15.4099H122.73V19.1299H126.45V15.4099Z" fill="#E2E2E2"/>
<path d="M126.45 11.6899H122.73V15.4099H126.45V11.6899Z" fill="#E2E2E2"/>
<path d="M122.73 22.85H119.01V26.57H122.73V22.85Z" fill="#CACACA"/>
<path d="M122.73 19.1299H119.01V22.8499H122.73V19.1299Z" fill="#E2E2E2"/>
<path d="M119.01 26.5699H115.29V30.2899H119.01V26.5699Z" fill="#B3B3B3"/>
<path d="M145.05 7.96997H141.33V11.69H145.05V7.96997Z" fill="#E2E2E2"/>
<path d="M145.05 4.24988H141.33V7.96988H145.05V4.24988Z" fill="#E2E2E2"/>
<path d="M141.33 15.4099H137.61V19.1299H141.33V15.4099Z" fill="#E2E2E2"/>
<path d="M141.33 11.6899H137.61V15.4099H141.33V11.6899Z" fill="#E2E2E2"/>
<path d="M137.61 22.85H133.89V26.57H137.61V22.85Z" fill="#CACACA"/>
<path d="M137.61 19.1299H133.89V22.8499H137.61V19.1299Z" fill="#E2E2E2"/>
<path d="M133.89 26.5699H130.17V30.2899H133.89V26.5699Z" fill="#B3B3B3"/>
<path d="M159.93 7.96997H156.21V11.69H159.93V7.96997Z" fill="#E2E2E2"/>
<path d="M159.93 4.24988H156.21V7.96988H159.93V4.24988Z" fill="#E2E2E2"/>
<path d="M156.21 15.4099H152.49V19.1299H156.21V15.4099Z" fill="#E2E2E2"/>
<path d="M156.21 11.6899H152.49V15.4099H156.21V11.6899Z" fill="#E2E2E2"/>
<path d="M152.49 22.85H148.77V26.57H152.49V22.85Z" fill="#CACACA"/>
<path d="M152.49 19.1299H148.77V22.8499H152.49V19.1299Z" fill="#E2E2E2"/>
<path d="M148.77 26.5699H145.05V30.2899H148.77V26.5699Z" fill="#B3B3B3"/>
<path d="M174.81 7.96997H171.09V11.69H174.81V7.96997Z" fill="#E2E2E2"/>
<path d="M171.09 15.4099H167.37V19.1299H171.09V15.4099Z" fill="#E2E2E2"/>
<path d="M171.09 11.6899H167.37V15.4099H171.09V11.6899Z" fill="#E2E2E2"/>
<path d="M167.37 22.85H163.65V26.57H167.37V22.85Z" fill="#CACACA"/>
<path d="M167.37 19.1299H163.65V22.8499H167.37V19.1299Z" fill="#E2E2E2"/>
<path d="M163.61 26.5699H159.89V30.2899H163.61V26.5699Z" fill="#B3B3B3"/>
<path d="M40.76 7.96985H37.04V11.6898H40.76V7.96985Z" fill="#BE7100"/>
<path d="M40.76 4.24988H37.04V7.96988H40.76V4.24988Z" fill="#A36000"/>
<path d="M37.0401 15.4099H33.3201V19.1299H37.0401V15.4099Z" fill="#A16700"/>
<path d="M37.0401 11.6898H33.3201V15.4098H37.0401V11.6898Z" fill="#A16700"/>
<path d="M37.0401 7.96985H33.3201V11.6898H37.0401V7.96985Z" fill="#FFD69C"/>
<path d="M37.0401 4.24988H33.3201V7.96988H37.0401V4.24988Z" fill="#FFBC57"/>
<path d="M33.3199 22.8499H29.5999V26.5699H33.3199V22.8499Z" fill="#8C5000"/>
<path d="M33.3199 19.1299H29.5999V22.8499H33.3199V19.1299Z" fill="#A16700"/>
<path d="M33.3199 15.4099H29.5999V19.1299H33.3199V15.4099Z" fill="#FF9E03"/>
<path d="M33.3199 11.6898H29.5999V15.4098H33.3199V11.6898Z" fill="#FF9E03"/>
<path d="M33.3199 7.96985H29.5999V11.6898H33.3199V7.96985Z" fill="#FFD69C"/>
<path d="M33.3199 4.24988H29.5999V7.96988H33.3199V4.24988Z" fill="#FFBC57"/>
<path d="M29.5999 26.5698H25.8799V30.2898H29.5999V26.5698Z" fill="#7D4500"/>
<path d="M29.5999 22.8499H25.8799V26.5699H29.5999V22.8499Z" fill="#EB8201"/>
<path d="M29.5999 19.1299H25.8799V22.8499H29.5999V19.1299Z" fill="#FF9E03"/>
<path d="M29.5999 15.4099H25.8799V19.1299H29.5999V15.4099Z" fill="#FF9E03"/>
<path d="M29.5999 11.6898H25.8799V15.4098H29.5999V11.6898Z" fill="#FF9E03"/>
<path d="M29.5999 7.96985H25.8799V11.6898H29.5999V7.96985Z" fill="#FFD69C"/>
<path d="M29.5999 4.24988H25.8799V7.96988H29.5999V4.24988Z" fill="#FFBC57"/>
<path d="M25.8799 26.5698H22.1599V30.2898H25.8799V26.5698Z" fill="#B96400"/>
<path d="M25.8799 22.8499H22.1599V26.5699H25.8799V22.8499Z" fill="#EB8201"/>
<path d="M25.8799 19.1299H22.1599V22.8499H25.8799V19.1299Z" fill="#FF9E03"/>
<path d="M25.8799 15.4099H22.1599V19.1299H25.8799V15.4099Z" fill="#FF9E03"/>
<path d="M25.8799 11.6898H22.1599V15.4098H25.8799V11.6898Z" fill="#FF9E03"/>
<path d="M25.8799 7.96985H22.1599V11.6898H25.8799V7.96985Z" fill="#BE7100"/>
<path d="M25.8799 4.24988H22.1599V7.96988H25.8799V4.24988Z" fill="#A36000"/>
<path d="M22.1599 26.5698H18.4399V30.2898H22.1599V26.5698Z" fill="#B96400"/>
<path d="M22.1599 22.8499H18.4399V26.5699H22.1599V22.8499Z" fill="#EB8201"/>
<path d="M22.1599 19.1299H18.4399V22.8499H22.1599V19.1299Z" fill="#FF9E03"/>
<path d="M22.1599 15.4099H18.4399V19.1299H22.1599V15.4099Z" fill="#A16700"/>
<path d="M22.1599 11.6898H18.4399V15.4098H22.1599V11.6898Z" fill="#A16700"/>
<path d="M18.44 26.5698H14.72V30.2898H18.44V26.5698Z" fill="#B96400"/>
<path d="M18.44 22.8499H14.72V26.5699H18.44V22.8499Z" fill="#8C5000"/>
<path d="M18.44 19.1299H14.72V22.8499H18.44V19.1299Z" fill="#A16700"/>
<path d="M14.72 26.5698H11V30.2898H14.72V26.5698Z" fill="#7D4500"/>
<path d="M26.0301 7.96997H22.3101V11.69H26.0301V7.96997Z" fill="#BE7100"/>
<path d="M26.0301 4.24988H22.3101V7.96988H26.0301V4.24988Z" fill="#A36000"/>
<path d="M22.3101 15.4099H18.5901V19.1299H22.3101V15.4099Z" fill="#A16700"/>
<path d="M22.3101 11.6899H18.5901V15.4099H22.3101V11.6899Z" fill="#A16700"/>
<path d="M22.3101 7.96997H18.5901V11.69H22.3101V7.96997Z" fill="#FFD69C"/>
<path d="M22.3101 4.24988H18.5901V7.96988H22.3101V4.24988Z" fill="#FFBC57"/>
<path d="M18.5899 22.85H14.8799V26.57H18.5899V22.85Z" fill="#8C5000"/>
<path d="M18.5899 19.1299H14.8799V22.8499H18.5899V19.1299Z" fill="#A16700"/>
<path d="M18.5899 15.4099H14.8799V19.1299H18.5899V15.4099Z" fill="#FF9E03"/>
<path d="M18.5899 11.6899H14.8799V15.4099H18.5899V11.6899Z" fill="#FF9E03"/>
<path d="M18.5899 7.96997H14.8799V11.69H18.5899V7.96997Z" fill="#FFD69C"/>
<path d="M18.5899 4.24988H14.8799V7.96988H18.5899V4.24988Z" fill="#FFBC57"/>
<path d="M14.8799 26.5699H11.1599V30.2899H14.8799V26.5699Z" fill="#7D4500"/>
<path d="M14.8799 22.85H11.1599V26.57H14.8799V22.85Z" fill="#EB8201"/>
<path d="M14.8799 19.1299H11.1599V22.8499H14.8799V19.1299Z" fill="#FF9E03"/>
<path d="M14.8799 15.4099H11.1599V19.1299H14.8799V15.4099Z" fill="#FF9E03"/>
<path d="M14.8799 11.6899H11.1599V15.4099H14.8799V11.6899Z" fill="#FF9E03"/>
<path d="M14.8799 7.96997H11.1599V11.69H14.8799V7.96997Z" fill="#FFA21B"/>
<path d="M14.8799 4.24988H11.1599V7.96988H14.8799V4.24988Z" fill="#FFBC57"/>
<path d="M11.1599 22.85H7.43994V26.57H11.1599V22.85Z" fill="#EB8201"/>
<path d="M11.1599 19.1299H7.43994V22.8499H11.1599V19.1299Z" fill="#FF9E03"/>
<path d="M11.1599 15.4099H7.43994V19.1299H11.1599V15.4099Z" fill="#FFA21B"/>
<path d="M11.1599 11.6899H7.43994V15.4099H11.1599V11.6899Z" fill="#FFA21B"/>
<path d="M11.1599 7.96997H7.43994V11.69H11.1599V7.96997Z" fill="#FFBC57"/>
<path d="M7.43997 22.85H3.71997V26.57H7.43997V22.85Z" fill="#FF9E03"/>
<path d="M7.43997 19.1299H3.71997V22.8499H7.43997V19.1299Z" fill="#FFA21B"/>
<path d="M7.43997 15.4099H3.71997V19.1299H7.43997V15.4099Z" fill="#FFBC57"/>
<path d="M7.43997 11.6899H3.71997V15.4099H7.43997V11.6899Z" fill="#FFD69C"/>
<path d="M7.43997 7.96997H3.71997V11.69H7.43997V7.96997Z" fill="#FFD69C"/>
<path d="M174.79 15.41V19.13V22.85V26.57H178.51V22.85V19.13V15.41V11.69V7.96997H174.79V11.69V15.41Z" fill="#1D2920"/>
<path d="M167.35 26.5699V30.2899H171.07H174.79V26.5699H171.07H167.35Z" fill="#1D2920"/>
<path d="M171.07 7.96988H174.79V4.24988H171.07H167.35V7.96988H171.07Z" fill="#1D2920"/>
<path d="M159.92 30.2899H156.2H152.48H148.76H145.04H141.32H137.6H133.88H130.16H126.45H122.73H119.01H115.29H111.57H107.85H104.13H100.41H96.6899H92.9699H89.2599H85.5399H81.8199H78.0999H74.3799H70.6599H66.9399H63.2199H59.4999H55.7799H52.0699H48.3499H44.6299H40.9099H37.1899H33.4699H29.7499H26.0299H22.3099H18.5899H14.8799H11.1599V34.0099H14.8799H18.5899H22.3099H26.0299H29.7499H33.4699H37.1899H40.9099H44.6299H48.3499H52.0699H55.7799H59.4999H63.2199H66.9399H70.6599H74.3799H78.0999H81.8199H85.5399H89.2599H92.9699H96.6899H100.41H104.13H107.85H111.57H115.29H119.01H122.73H126.45H130.16H133.88H137.6H141.32H145.04H148.76H152.48H156.2H159.92H163.64H167.35V30.2899H163.64H159.92Z" fill="#1D2920"/>
<path d="M18.5899 4.24992H22.3099H26.0299H29.7499H33.4699H37.1899H40.9099H44.6299H48.3499H52.0699H55.7799H59.4999H63.2199H66.9399H70.6599H74.3799H78.0999H81.8199H85.5399H89.2599H92.9699H96.6899H100.41H104.13H107.85H111.57H115.29H119.01H122.73H126.45H130.16H133.88H137.6H141.32H145.04H148.76H152.48H156.2H159.92H163.64H167.35V0.539917H163.64H159.92H156.2H152.48H148.76H145.04H141.32H137.6H133.88H130.16H126.45H122.73H119.01H115.29H111.57H107.85H104.13H100.41H96.6899H92.9699H89.2599H85.5399H81.8199H78.0999H74.3799H70.6599H66.9399H63.2199H59.4999H55.7799H52.0699H48.3499H44.6299H40.9099H37.1899H33.4699H29.7499H26.0299H22.3099H18.5899H14.8799H11.1599V4.24992H14.8799H18.5899Z" fill="#1D2920"/>
<path d="M7.43997 26.5699H3.71997V30.2899H7.43997H11.16V26.5699H7.43997Z" fill="#1D2920"/>
<path d="M11.16 7.96988V4.24988H7.43997H3.71997V7.96988H7.43997H11.16Z" fill="#1D2920"/>
<path d="M3.72 22.85V19.13V15.41V11.69V7.96997H0V11.69V15.41V19.13V22.85V26.57H3.72V22.85Z" fill="#1D2920"/>
<g style="mix-blend-mode:multiply">
<path d="M85.5401 26.57H89.2601V22.85H85.5401H81.8201H78.1001V26.57H81.8201H85.5401Z" fill="#F8F8F8"/>
</g>
<path d="M100.41 7.96997H96.6899V11.69H100.41V7.96997Z" fill="#E2E2E2"/>
<path d="M100.41 4.24988H96.6899V7.96988H100.41V4.24988Z" fill="#E2E2E2"/>
<path d="M96.69 15.4099H92.97V19.1299H96.69V15.4099Z" fill="#E2E2E2"/>
<path d="M96.69 11.6899H92.97V15.4099H96.69V11.6899Z" fill="#E2E2E2"/>
<path d="M92.97 22.85H89.25V26.57H92.97V22.85Z" fill="#CACACA"/>
<path d="M92.97 19.1299H89.25V22.8499H92.97V19.1299Z" fill="#E2E2E2"/>
<path d="M89.25 26.5699H85.53V30.2899H89.25V26.5699Z" fill="#B3B3B3"/>
<path d="M92.97 26.5699H89.25V30.2899H92.97H96.69H100.41V26.5699H96.69H92.97Z" fill="#E2E2E2"/>
<path d="M115.29 7.96997H111.57V11.69H115.29V7.96997Z" fill="#E2E2E2"/>
<path d="M115.29 4.24988H111.57V7.96988H115.29V4.24988Z" fill="#E2E2E2"/>
<path d="M111.57 15.4099H107.85V19.1299H111.57V15.4099Z" fill="#E2E2E2"/>
<path d="M111.57 11.6899H107.85V15.4099H111.57V11.6899Z" fill="#E2E2E2"/>
<path d="M107.85 22.85H104.13V26.57H107.85V22.85Z" fill="#CACACA"/>
<path d="M107.85 19.1299H104.13V22.8499H107.85V19.1299Z" fill="#E2E2E2"/>
<path d="M104.13 26.5699H100.41V30.2899H104.13V26.5699Z" fill="#B3B3B3"/>
<g style="mix-blend-mode:multiply">
<path d="M100.41 26.57H104.13V22.85H100.41H96.69H92.97V26.57H96.69H100.41Z" fill="#F8F8F8"/>
</g>
<path d="M70.8799 7.96997H67.1599V11.69H70.8799V7.96997Z" fill="#E2E2E2"/>
<path d="M70.8799 4.24988H67.1599V7.96988H70.8799V4.24988Z" fill="#E2E2E2"/>
<path d="M67.1599 15.4099H63.4399V19.1299H67.1599V15.4099Z" fill="#E2E2E2"/>
<path d="M67.1599 11.6899H63.4399V15.4099H67.1599V11.6899Z" fill="#E2E2E2"/>
<path d="M63.44 22.85H59.72V26.57H63.44V22.85Z" fill="#CACACA"/>
<path d="M63.44 19.1299H59.72V22.8499H63.44V19.1299Z" fill="#E2E2E2"/>
<path d="M59.72 26.5699H56V30.2899H59.72V26.5699Z" fill="#B3B3B3"/>
<path d="M63.44 26.5699H59.72V30.2899H63.44H67.16H70.88V26.5699H67.16H63.44Z" fill="#E2E2E2"/>
<path d="M85.76 7.96997H82.04V11.69H85.76V7.96997Z" fill="#E2E2E2"/>
<path d="M85.76 4.24988H82.04V7.96988H85.76V4.24988Z" fill="#E2E2E2"/>
<path d="M82.0401 15.4099H78.3201V19.1299H82.0401V15.4099Z" fill="#E2E2E2"/>
<path d="M82.0401 11.6899H78.3201V15.4099H82.0401V11.6899Z" fill="#E2E2E2"/>
<path d="M78.3199 22.85H74.5999V26.57H78.3199V22.85Z" fill="#CACACA"/>
<path d="M78.3199 19.1299H74.5999V22.8499H78.3199V19.1299Z" fill="#E2E2E2"/>
<path d="M74.5999 26.5699H70.8799V30.2899H74.5999V26.5699Z" fill="#B3B3B3"/>
<g style="mix-blend-mode:multiply">
<path d="M70.8799 26.57H74.5999V22.85H70.8799H67.1599H63.4399V26.57H67.1599H70.8799Z" fill="#F8F8F8"/>
</g>
<path d="M55.8799 7.96997H52.1599V11.69H55.8799V7.96997Z" fill="#E2E2E2"/>
<path d="M55.8799 4.24988H52.1599V7.96988H55.8799V4.24988Z" fill="#E2E2E2"/>
<path d="M52.1599 15.4099H48.4399V19.1299H52.1599V15.4099Z" fill="#E2E2E2"/>
<path d="M52.1599 11.6899H48.4399V15.4099H52.1599V11.6899Z" fill="#E2E2E2"/>
<path d="M48.44 22.85H44.72V26.57H48.44V22.85Z" fill="#CACACA"/>
<path d="M48.44 19.1299H44.72V22.8499H48.44V19.1299Z" fill="#E2E2E2"/>
<path d="M44.72 26.5699H41V30.2899H44.72V26.5699Z" fill="#B3B3B3"/>
<path d="M48.44 26.5699H44.72V30.2899H48.44H52.16H55.88V26.5699H52.16H48.44Z" fill="#E2E2E2"/>
<path d="M70.76 7.96997H67.04V11.69H70.76V7.96997Z" fill="#E2E2E2"/>
<path d="M70.76 4.24988H67.04V7.96988H70.76V4.24988Z" fill="#E2E2E2"/>
<path d="M67.0401 15.4099H63.3201V19.1299H67.0401V15.4099Z" fill="#E2E2E2"/>
<path d="M67.0401 11.6899H63.3201V15.4099H67.0401V11.6899Z" fill="#E2E2E2"/>
<path d="M63.3199 22.85H59.5999V26.57H63.3199V22.85Z" fill="#CACACA"/>
<path d="M63.3199 19.1299H59.5999V22.8499H63.3199V19.1299Z" fill="#E2E2E2"/>
<path d="M59.5999 26.5699H55.8799V30.2899H59.5999V26.5699Z" fill="#B3B3B3"/>
<g style="mix-blend-mode:multiply">
<path d="M55.8799 26.57H59.5999V22.85H55.8799H52.1599H48.4399V26.57H52.1599H55.8799Z" fill="#F8F8F8"/>
</g>
<g style="mix-blend-mode:multiply">
<path d="M115.28 26.57H119V22.85H115.28H111.56H107.84V26.57H111.56H115.28Z" fill="#F8F8F8"/>
</g>
<g style="mix-blend-mode:multiply">
<path d="M130.15 26.57H133.87V22.85H130.15H126.43H122.71V26.57H126.43H130.15Z" fill="#F8F8F8"/>
</g>
<g style="mix-blend-mode:multiply">
<path d="M145.02 26.57H148.74V22.85H145.02H141.3H137.58V26.57H141.3H145.02Z" fill="#F8F8F8"/>
</g>
<g style="mix-blend-mode:multiply">
<path d="M159.89 26.57H163.61V22.85H159.89H156.17H152.45V26.57H156.17H159.89Z" fill="#F8F8F8"/>
</g>
<g style="mix-blend-mode:multiply">
<path d="M174.79 19.1299V15.4099V11.6899H171.07V15.4099V19.1299V22.8499V26.5699H174.79V22.8499V19.1299Z" fill="#F8F8F8"/>
</g>
<g style="mix-blend-mode:multiply">
<path d="M167.35 30.2899V34.0099H171.07H174.79V30.2899H171.07H167.35Z" fill="#F8F8F8"/>
</g>
<g style="mix-blend-mode:multiply">
<path d="M178.51 11.6899V26.5699H174.79V30.2899H178.51H182.23V11.6899H178.51Z" fill="#F8F8F8"/>
</g>
<g style="mix-blend-mode:multiply">
<path d="M167.47 34.5399H15V38.2599H167.47V34.5399Z" fill="#F8F8F8"/>
</g>
<path d="M55.76 7.96985H52.04V11.6898H55.76V7.96985Z" fill="#BE7100"/>
<path d="M55.76 4.24988H52.04V7.96988H55.76V4.24988Z" fill="#A36000"/>
<path d="M52.0401 15.4099H48.3201V19.1299H52.0401V15.4099Z" fill="#A16700"/>
<path d="M52.0401 11.6898H48.3201V15.4098H52.0401V11.6898Z" fill="#A16700"/>
<path d="M52.0401 7.96985H48.3201V11.6898H52.0401V7.96985Z" fill="#FFD69C"/>
<path d="M52.0401 4.24988H48.3201V7.96988H52.0401V4.24988Z" fill="#FFBC57"/>
<path d="M48.3199 22.8499H44.5999V26.5699H48.3199V22.8499Z" fill="#8C5000"/>
<path d="M48.3199 19.1299H44.5999V22.8499H48.3199V19.1299Z" fill="#A16700"/>
<path d="M48.3199 15.4099H44.5999V19.1299H48.3199V15.4099Z" fill="#FF9E03"/>
<path d="M48.3199 11.6898H44.5999V15.4098H48.3199V11.6898Z" fill="#FF9E03"/>
<path d="M48.3199 7.96985H44.5999V11.6898H48.3199V7.96985Z" fill="#FFD69C"/>
<path d="M48.3199 4.24988H44.5999V7.96988H48.3199V4.24988Z" fill="#FFBC57"/>
<path d="M44.5999 26.5698H40.8799V30.2898H44.5999V26.5698Z" fill="#7D4500"/>
<path d="M44.5999 22.8499H40.8799V26.5699H44.5999V22.8499Z" fill="#EB8201"/>
<path d="M44.5999 19.1299H40.8799V22.8499H44.5999V19.1299Z" fill="#FF9E03"/>
<path d="M44.5999 15.4099H40.8799V19.1299H44.5999V15.4099Z" fill="#FF9E03"/>
<path d="M44.5999 11.6898H40.8799V15.4098H44.5999V11.6898Z" fill="#FF9E03"/>
<path d="M44.5999 7.96985H40.8799V11.6898H44.5999V7.96985Z" fill="#FFD69C"/>
<path d="M44.5999 4.24988H40.8799V7.96988H44.5999V4.24988Z" fill="#FFBC57"/>
<path d="M40.8799 26.5698H37.1599V30.2898H40.8799V26.5698Z" fill="#B96400"/>
<path d="M40.8799 22.8499H37.1599V26.5699H40.8799V22.8499Z" fill="#EB8201"/>
<path d="M40.8799 19.1299H37.1599V22.8499H40.8799V19.1299Z" fill="#FF9E03"/>
<path d="M40.8799 15.4099H37.1599V19.1299H40.8799V15.4099Z" fill="#FF9E03"/>
<path d="M40.8799 11.6898H37.1599V15.4098H40.8799V11.6898Z" fill="#FF9E03"/>
<path d="M40.8799 7.96985H37.1599V11.6898H40.8799V7.96985Z" fill="#BE7100"/>
<path d="M40.8799 4.24988H37.1599V7.96988H40.8799V4.24988Z" fill="#A36000"/>
<path d="M37.1599 26.5698H33.4399V30.2898H37.1599V26.5698Z" fill="#B96400"/>
<path d="M37.1599 22.8499H33.4399V26.5699H37.1599V22.8499Z" fill="#EB8201"/>
<path d="M37.1599 19.1299H33.4399V22.8499H37.1599V19.1299Z" fill="#FF9E03"/>
<path d="M37.1599 15.4099H33.4399V19.1299H37.1599V15.4099Z" fill="#A16700"/>
<path d="M37.1599 11.6898H33.4399V15.4098H37.1599V11.6898Z" fill="#A16700"/>
<path d="M33.44 26.5698H29.72V30.2898H33.44V26.5698Z" fill="#B96400"/>
<path d="M33.44 22.8499H29.72V26.5699H33.44V22.8499Z" fill="#8C5000"/>
<path d="M33.44 19.1299H29.72V22.8499H33.44V19.1299Z" fill="#A16700"/>
<path d="M29.72 26.5698H26V30.2898H29.72V26.5698Z" fill="#7D4500"/>
<path d="M70.76 7.96985H67.04V11.6898H70.76V7.96985Z" fill="#BE7100"/>
<path d="M70.76 4.24988H67.04V7.96988H70.76V4.24988Z" fill="#A36000"/>
<path d="M67.0401 15.4099H63.3201V19.1299H67.0401V15.4099Z" fill="#A16700"/>
<path d="M67.0401 11.6898H63.3201V15.4098H67.0401V11.6898Z" fill="#A16700"/>
<path d="M67.0401 7.96985H63.3201V11.6898H67.0401V7.96985Z" fill="#FFD69C"/>
<path d="M67.0401 4.24988H63.3201V7.96988H67.0401V4.24988Z" fill="#FFBC57"/>
<path d="M63.3199 22.8499H59.5999V26.5699H63.3199V22.8499Z" fill="#8C5000"/>
<path d="M63.3199 19.1299H59.5999V22.8499H63.3199V19.1299Z" fill="#A16700"/>
<path d="M63.3199 15.4099H59.5999V19.1299H63.3199V15.4099Z" fill="#FF9E03"/>
<path d="M63.3199 11.6898H59.5999V15.4098H63.3199V11.6898Z" fill="#FF9E03"/>
<path d="M63.3199 7.96985H59.5999V11.6898H63.3199V7.96985Z" fill="#FFD69C"/>
<path d="M63.3199 4.24988H59.5999V7.96988H63.3199V4.24988Z" fill="#FFBC57"/>
<path d="M59.5999 26.5698H55.8799V30.2898H59.5999V26.5698Z" fill="#7D4500"/>
<path d="M59.5999 22.8499H55.8799V26.5699H59.5999V22.8499Z" fill="#EB8201"/>
<path d="M59.5999 19.1299H55.8799V22.8499H59.5999V19.1299Z" fill="#FF9E03"/>
<path d="M59.5999 15.4099H55.8799V19.1299H59.5999V15.4099Z" fill="#FF9E03"/>
<path d="M59.5999 11.6898H55.8799V15.4098H59.5999V11.6898Z" fill="#FF9E03"/>
<path d="M59.5999 7.96985H55.8799V11.6898H59.5999V7.96985Z" fill="#FFD69C"/>
<path d="M59.5999 4.24988H55.8799V7.96988H59.5999V4.24988Z" fill="#FFBC57"/>
<path d="M55.8799 26.5698H52.1599V30.2898H55.8799V26.5698Z" fill="#B96400"/>
<path d="M55.8799 22.8499H52.1599V26.5699H55.8799V22.8499Z" fill="#EB8201"/>
<path d="M55.8799 19.1299H52.1599V22.8499H55.8799V19.1299Z" fill="#FF9E03"/>
<path d="M55.8799 15.4099H52.1599V19.1299H55.8799V15.4099Z" fill="#FF9E03"/>
<path d="M55.8799 11.6898H52.1599V15.4098H55.8799V11.6898Z" fill="#FF9E03"/>
<path d="M55.8799 7.96985H52.1599V11.6898H55.8799V7.96985Z" fill="#BE7100"/>
<path d="M55.8799 4.24988H52.1599V7.96988H55.8799V4.24988Z" fill="#A36000"/>
<path d="M52.1599 26.5698H48.4399V30.2898H52.1599V26.5698Z" fill="#B96400"/>
<path d="M52.1599 22.8499H48.4399V26.5699H52.1599V22.8499Z" fill="#EB8201"/>
<path d="M52.1599 19.1299H48.4399V22.8499H52.1599V19.1299Z" fill="#FF9E03"/>
<path d="M52.1599 15.4099H48.4399V19.1299H52.1599V15.4099Z" fill="#A16700"/>
<path d="M52.1599 11.6898H48.4399V15.4098H52.1599V11.6898Z" fill="#A16700"/>
<path d="M48.44 26.5698H44.72V30.2898H48.44V26.5698Z" fill="#B96400"/>
<path d="M48.44 22.8499H44.72V26.5699H48.44V22.8499Z" fill="#8C5000"/>
<path d="M48.44 19.1299H44.72V22.8499H48.44V19.1299Z" fill="#A16700"/>
<path d="M44.72 26.5698H41V30.2898H44.72V26.5698Z" fill="#7D4500"/>
<path d="M85.76 7.96985H82.04V11.6898H85.76V7.96985Z" fill="#BE7100"/>
<path d="M85.76 4.24988H82.04V7.96988H85.76V4.24988Z" fill="#A36000"/>
<path d="M82.0401 15.4099H78.3201V19.1299H82.0401V15.4099Z" fill="#A16700"/>
<path d="M82.0401 11.6898H78.3201V15.4098H82.0401V11.6898Z" fill="#A16700"/>
<path d="M82.0401 7.96985H78.3201V11.6898H82.0401V7.96985Z" fill="#FFD69C"/>
<path d="M82.0401 4.24988H78.3201V7.96988H82.0401V4.24988Z" fill="#FFBC57"/>
<path d="M78.3199 22.8499H74.5999V26.5699H78.3199V22.8499Z" fill="#8C5000"/>
<path d="M78.3199 19.1299H74.5999V22.8499H78.3199V19.1299Z" fill="#A16700"/>
<path d="M78.3199 15.4099H74.5999V19.1299H78.3199V15.4099Z" fill="#FF9E03"/>
<path d="M78.3199 11.6898H74.5999V15.4098H78.3199V11.6898Z" fill="#FF9E03"/>
<path d="M78.3199 7.96985H74.5999V11.6898H78.3199V7.96985Z" fill="#FFD69C"/>
<path d="M78.3199 4.24988H74.5999V7.96988H78.3199V4.24988Z" fill="#FFBC57"/>
<path d="M74.5999 26.5698H70.8799V30.2898H74.5999V26.5698Z" fill="#7D4500"/>
<path d="M74.5999 22.8499H70.8799V26.5699H74.5999V22.8499Z" fill="#EB8201"/>
<path d="M74.5999 19.1299H70.8799V22.8499H74.5999V19.1299Z" fill="#FF9E03"/>
<path d="M74.5999 15.4099H70.8799V19.1299H74.5999V15.4099Z" fill="#FF9E03"/>
<path d="M74.5999 11.6898H70.8799V15.4098H74.5999V11.6898Z" fill="#FF9E03"/>
<path d="M74.5999 7.96985H70.8799V11.6898H74.5999V7.96985Z" fill="#FFD69C"/>
<path d="M74.5999 4.24988H70.8799V7.96988H74.5999V4.24988Z" fill="#FFBC57"/>
<path d="M70.8799 26.5698H67.1599V30.2898H70.8799V26.5698Z" fill="#B96400"/>
<path d="M70.8799 22.8499H67.1599V26.5699H70.8799V22.8499Z" fill="#EB8201"/>
<path d="M70.8799 19.1299H67.1599V22.8499H70.8799V19.1299Z" fill="#FF9E03"/>
<path d="M70.8799 15.4099H67.1599V19.1299H70.8799V15.4099Z" fill="#FF9E03"/>
<path d="M70.8799 11.6898H67.1599V15.4098H70.8799V11.6898Z" fill="#FF9E03"/>
<path d="M70.8799 7.96985H67.1599V11.6898H70.8799V7.96985Z" fill="#BE7100"/>
<path d="M70.8799 4.24988H67.1599V7.96988H70.8799V4.24988Z" fill="#A36000"/>
<path d="M67.1599 26.5698H63.4399V30.2898H67.1599V26.5698Z" fill="#B96400"/>
<path d="M67.1599 22.8499H63.4399V26.5699H67.1599V22.8499Z" fill="#EB8201"/>
<path d="M67.1599 19.1299H63.4399V22.8499H67.1599V19.1299Z" fill="#FF9E03"/>
<path d="M67.1599 15.4099H63.4399V19.1299H67.1599V15.4099Z" fill="#A16700"/>
<path d="M67.1599 11.6898H63.4399V15.4098H67.1599V11.6898Z" fill="#A16700"/>
<path d="M63.44 26.5698H59.72V30.2898H63.44V26.5698Z" fill="#B96400"/>
<path d="M63.44 22.8499H59.72V26.5699H63.44V22.8499Z" fill="#8C5000"/>
<path d="M63.44 19.1299H59.72V22.8499H63.44V19.1299Z" fill="#A16700"/>
<path d="M59.72 26.5698H56V30.2898H59.72V26.5698Z" fill="#7D4500"/>
<path d="M100.76 7.96985H97.04V11.6898H100.76V7.96985Z" fill="#BE7100"/>
<path d="M100.76 4.24988H97.04V7.96988H100.76V4.24988Z" fill="#A36000"/>
<path d="M97.0401 15.4099H93.3201V19.1299H97.0401V15.4099Z" fill="#A16700"/>
<path d="M97.0401 11.6898H93.3201V15.4098H97.0401V11.6898Z" fill="#A16700"/>
<path d="M97.0401 7.96985H93.3201V11.6898H97.0401V7.96985Z" fill="#FFD69C"/>
<path d="M97.0401 4.24988H93.3201V7.96988H97.0401V4.24988Z" fill="#FFBC57"/>
<path d="M93.3199 22.8499H89.5999V26.5699H93.3199V22.8499Z" fill="#8C5000"/>
<path d="M93.3199 19.1299H89.5999V22.8499H93.3199V19.1299Z" fill="#A16700"/>
<path d="M93.3199 15.4099H89.5999V19.1299H93.3199V15.4099Z" fill="#FF9E03"/>
<path d="M93.3199 11.6898H89.5999V15.4098H93.3199V11.6898Z" fill="#FF9E03"/>
<path d="M93.3199 7.96985H89.5999V11.6898H93.3199V7.96985Z" fill="#FFD69C"/>
<path d="M93.3199 4.24988H89.5999V7.96988H93.3199V4.24988Z" fill="#FFBC57"/>
<path d="M89.5999 26.5698H85.8799V30.2898H89.5999V26.5698Z" fill="#7D4500"/>
<path d="M89.5999 22.8499H85.8799V26.5699H89.5999V22.8499Z" fill="#EB8201"/>
<path d="M89.5999 19.1299H85.8799V22.8499H89.5999V19.1299Z" fill="#FF9E03"/>
<path d="M89.5999 15.4099H85.8799V19.1299H89.5999V15.4099Z" fill="#FF9E03"/>
<path d="M89.5999 11.6898H85.8799V15.4098H89.5999V11.6898Z" fill="#FF9E03"/>
<path d="M89.5999 7.96985H85.8799V11.6898H89.5999V7.96985Z" fill="#FFD69C"/>
<path d="M89.5999 4.24988H85.8799V7.96988H89.5999V4.24988Z" fill="#FFBC57"/>
<path d="M85.8799 26.5698H82.1599V30.2898H85.8799V26.5698Z" fill="#B96400"/>
<path d="M85.8799 22.8499H82.1599V26.5699H85.8799V22.8499Z" fill="#EB8201"/>
<path d="M85.8799 19.1299H82.1599V22.8499H85.8799V19.1299Z" fill="#FF9E03"/>
<path d="M85.8799 15.4099H82.1599V19.1299H85.8799V15.4099Z" fill="#FF9E03"/>
<path d="M85.8799 11.6898H82.1599V15.4098H85.8799V11.6898Z" fill="#FF9E03"/>
<path d="M85.8799 7.96985H82.1599V11.6898H85.8799V7.96985Z" fill="#BE7100"/>
<path d="M85.8799 4.24988H82.1599V7.96988H85.8799V4.24988Z" fill="#A36000"/>
<path d="M82.1599 26.5698H78.4399V30.2898H82.1599V26.5698Z" fill="#B96400"/>
<path d="M82.1599 22.8499H78.4399V26.5699H82.1599V22.8499Z" fill="#EB8201"/>
<path d="M82.1599 19.1299H78.4399V22.8499H82.1599V19.1299Z" fill="#FF9E03"/>
<path d="M82.1599 15.4099H78.4399V19.1299H82.1599V15.4099Z" fill="#A16700"/>
<path d="M82.1599 11.6898H78.4399V15.4098H82.1599V11.6898Z" fill="#A16700"/>
<path d="M78.44 26.5698H74.72V30.2898H78.44V26.5698Z" fill="#B96400"/>
<path d="M78.44 22.8499H74.72V26.5699H78.44V22.8499Z" fill="#8C5000"/>
<path d="M78.44 19.1299H74.72V22.8499H78.44V19.1299Z" fill="#A16700"/>
<path d="M74.72 26.5698H71V30.2898H74.72V26.5698Z" fill="#7D4500"/>
</svg>
