<svg width="36" height="36" viewBox="0 0 36 36" fill="none" xmlns="http://www.w3.org/2000/svg">
<g style="mix-blend-mode:multiply">
<rect x="2" y="2" width="32" height="32" rx="16" fill="#F4EBFF"/>
<path d="M11.334 19.6666L17.7621 22.8807C17.8496 22.9244 17.8933 22.9463 17.9392 22.9549C17.9798 22.9625 18.0215 22.9625 18.0621 22.9549C18.108 22.9463 18.1517 22.9244 18.2392 22.8807L24.6673 19.6666M11.334 16.3333L17.7621 13.1192C17.8496 13.0755 17.8933 13.0536 17.9392 13.045C17.9798 13.0374 18.0215 13.0374 18.0621 13.045C18.108 13.0536 18.1517 13.0755 18.2392 13.1192L24.6673 16.3333L18.2392 19.5474C18.1517 19.5911 18.108 19.613 18.0621 19.6216C18.0215 19.6292 17.9798 19.6292 17.9392 19.6216C17.8933 19.613 17.8496 19.5911 17.7621 19.5474L11.334 16.3333Z" stroke="#7F56D9" stroke-width="1.33333" stroke-linecap="round" stroke-linejoin="round"/>
<rect x="2" y="2" width="32" height="32" rx="16" stroke="#F9F5FF" stroke-width="4"/>
</g>
</svg>
