<svg width="79" height="81" viewBox="0 0 79 81" fill="none" xmlns="http://www.w3.org/2000/svg">
<rect x="0.670044" y="0.68206" width="77.9899" height="80.161" rx="5.34406" fill="#F64561"/>
<path fill-rule="evenodd" clip-rule="evenodd" d="M33.54 57.0354C32.9591 57.0282 32.3854 57.0136 31.8045 57.0209C31.543 57.0282 31.4559 56.941 31.4632 56.6796C31.4777 56.2148 31.4632 55.7574 31.4704 55.2926C31.4777 55.082 31.3978 54.9949 31.1872 55.0021C30.7079 55.0094 30.2287 54.9949 29.7494 55.0094C29.5025 55.0167 29.3936 54.9368 29.4008 54.6754C29.4153 54.2106 29.3936 53.7531 29.4081 53.2884C29.4153 53.0415 29.35 52.9253 29.0813 52.9398C28.7182 52.9616 28.3551 52.9471 27.992 52.9471C27.3312 52.9398 27.4038 53.0269 27.3966 52.3806C27.3966 52.0321 27.3966 51.6908 27.3966 51.3422C27.3893 50.9573 27.3893 50.9501 27.019 50.9501C26.5905 50.9428 26.1621 50.9501 25.7336 50.9501C25.3415 50.9428 25.3342 50.9428 25.3342 50.5289C25.3342 50.0859 25.3197 49.6357 25.3342 49.1927C25.3415 48.9458 25.2398 48.8732 25.0147 48.8877C24.6662 48.9023 24.3249 48.895 23.9763 48.8877C23.2501 48.8805 23.3373 48.9821 23.33 48.2705C23.3227 47.2974 23.33 46.3243 23.33 45.3513C23.33 45.1697 23.3155 44.9882 23.3082 44.8066C23.0613 44.1676 23.2356 43.4995 23.192 42.846C23.1848 42.403 23.1848 41.9528 23.1848 41.5098C23.192 40.6965 23.2574 40.6311 24.0562 40.6239C24.2522 40.6239 24.4556 40.6239 24.6516 40.6239C24.8187 40.6239 24.9857 40.6311 25.0946 40.4714C25.1745 40.2971 25.1672 40.1155 25.1672 39.934C25.1672 37.7772 25.1672 35.6132 25.1672 33.4565C25.1672 32.8175 25.1382 32.8029 24.4991 32.7812C24.0852 32.7666 23.6277 32.9191 23.2864 32.5415C23.163 32.2946 23.2065 32.0259 23.2065 31.7645C23.1993 30.8786 23.1993 29.9926 23.2065 29.0995C23.2065 28.8526 23.1848 28.5984 23.4099 28.4168C24.0344 28.199 24.6734 28.337 25.3052 28.3152C25.7917 28.3007 26.2855 28.3007 26.7721 28.3079C27.1352 28.3152 27.2513 28.1627 27.2659 27.8141C27.2876 27.3494 27.1279 26.8628 27.4184 26.4271C27.992 26.2093 28.5948 26.3182 29.1757 26.3255C33.1116 26.3545 37.0547 26.3255 40.9906 26.3327C41.1576 26.3327 41.3246 26.34 41.4481 26.1947C41.5933 25.9696 41.5425 25.7155 41.5425 25.4686C41.5497 24.2341 41.5497 24.2341 42.806 24.2268C43.5177 24.2195 43.5177 24.2123 43.5395 23.5152C43.554 23.1303 43.4451 22.7236 43.6774 22.3605C43.8517 22.2371 44.055 22.2589 44.2511 22.2589C45.8995 22.2589 47.5479 22.2516 49.2036 22.2589C49.879 22.2589 49.9806 22.3605 49.9952 23.0286C50.0169 23.9218 49.9661 24.8077 49.9806 25.7009C49.9879 26.2456 50.0605 26.3182 50.6197 26.3255C50.9174 26.3255 51.2151 26.3255 51.5129 26.3255C51.8832 26.3255 52.0575 26.4997 52.0648 26.8701C52.0648 27.1533 52.0648 27.4292 52.072 27.7125C52.072 27.894 52.0502 28.0828 52.2245 28.2062C52.4569 28.3297 52.7111 28.2861 52.9507 28.2861C53.7568 28.2934 54.5628 28.2861 55.3689 28.2934C55.594 28.2934 55.8336 28.2716 56.0297 28.4314C56.0515 28.4967 56.0515 28.4096 56.0515 28.4749C56.1822 29.8256 56.2112 31.169 56.0369 32.5197C55.6085 32.7812 55.1365 32.6287 54.679 32.6505C54.1053 32.6795 54.0545 32.7085 54.0545 33.275C54.0545 35.5043 54.0545 37.7409 54.0545 39.9703C54.0545 40.5658 54.0981 40.6021 54.7153 40.6093C54.9985 40.6093 55.2745 40.6166 55.5577 40.6093C55.9498 40.6021 56.1386 40.7909 56.1459 41.1757C56.1604 41.7204 56.1604 42.265 56.1459 42.8096C56.1096 43.4705 56.2766 44.1385 56.0369 44.7848C55.9788 45.8596 56.0297 46.9271 56.0152 48.0018C56.0152 48.1833 56.0006 48.3649 56.0152 48.5464C56.0369 48.8151 55.9208 48.8877 55.6666 48.8805C55.2018 48.8659 54.7443 48.8877 54.2796 48.8732C54.0182 48.8659 53.931 48.9676 53.9456 49.2218C53.9601 49.6865 53.9383 50.144 53.9528 50.6088C53.9601 50.8702 53.8584 50.9573 53.6043 50.9501C53.1395 50.9356 52.682 50.9501 52.2173 50.9428C51.9994 50.9356 51.9268 51.03 51.934 51.2333C51.9413 51.6763 51.9413 52.1265 51.934 52.5694C51.9268 52.9398 51.9268 52.9398 51.5419 52.9471C51.0989 52.9543 50.6487 52.9616 50.2058 52.9471C49.9589 52.9398 49.8499 53.0124 49.8644 53.2811C49.879 53.7241 49.8717 54.1743 49.8644 54.6173C49.8572 55.0021 49.8572 55.0094 49.4868 55.0094C49.0584 55.0167 48.6299 55.0239 48.2015 55.0094C47.9546 55.0021 47.8457 55.0748 47.8529 55.3434C47.8747 55.7356 47.8602 56.135 47.8602 56.5344C47.8602 57.0427 47.9038 57.0282 47.3882 57.0282C46.8581 57.0282 46.3352 57.0427 45.8051 57.0427C45.5364 57.217 45.2387 57.1661 44.9482 57.1661C43.7428 57.1807 43.859 57.05 43.8517 58.2845C43.8517 58.5459 43.8808 58.8073 43.7718 59.0615C43.7428 59.1195 43.692 59.1559 43.6339 59.1849C43.4451 59.2648 43.2417 59.2575 43.0457 59.2575C40.7655 59.2575 38.4853 59.2575 36.2051 59.2575C36.0235 59.2575 35.842 59.2575 35.6677 59.1994C35.6096 59.1776 35.5588 59.1413 35.5225 59.0905C35.3337 58.6621 35.4426 58.2118 35.4208 57.7689C35.399 57.217 35.37 57.1879 34.8254 57.1661C34.3824 57.1371 33.9467 57.2533 33.54 57.0354Z" fill="#FFA255"/>
<path fill-rule="evenodd" clip-rule="evenodd" d="M43.6918 22.4259C43.6991 22.9706 43.6991 23.5079 43.7063 24.0526C43.7136 24.285 43.6337 24.3794 43.3941 24.3721C42.9366 24.3576 42.4718 24.3794 42.0143 24.3648C41.7747 24.3576 41.7021 24.452 41.7021 24.6844C41.6948 25.2435 41.7456 25.8027 41.673 26.3618C41.5714 26.4344 41.4479 26.4127 41.339 26.4127C37.4757 26.4127 33.6125 26.4127 29.7492 26.4127C29.6693 26.4127 29.5822 26.4126 29.5023 26.3909C29.2554 25.7228 29.3208 25.0474 29.466 24.3721C29.7056 24.1833 29.9961 24.2269 30.2721 24.2269C33.0388 24.2196 35.8128 24.2269 38.5795 24.2269C38.7611 24.2269 38.9426 24.2341 39.1241 24.2123C39.313 24.1906 39.4364 24.0961 39.4364 23.9001C39.4437 23.4571 39.5381 23.0141 39.3638 22.5857C39.175 22.3824 38.9353 22.4477 38.7102 22.4477C35.9145 22.4477 33.1259 22.4477 30.3302 22.4477C30.1486 22.4477 29.9671 22.455 29.7855 22.4332C29.5895 22.4114 29.4079 22.3243 29.3934 22.121C29.3643 21.5182 29.2554 20.9082 29.466 20.3128C29.7492 20.1094 30.0687 20.1748 30.381 20.1748C35.82 20.1675 41.2518 20.1748 46.6909 20.1748C47.6858 20.1748 47.6858 20.1748 47.693 19.1727C47.693 18.9113 47.664 18.6426 47.7874 18.3957C48.0198 18.1342 48.3393 18.2577 48.6225 18.2141C48.9566 18.1633 49.3197 18.3521 49.6174 18.0689C49.7481 17.7058 49.661 17.3282 49.69 16.9578C49.7045 16.7182 49.661 16.464 49.828 16.2535C50.2419 16.0138 50.6994 16.1373 51.1351 16.1227C51.7451 16.101 51.7451 16.0864 51.7741 15.4692C51.7959 15.0335 51.6434 14.576 51.9266 14.1766C52.4858 14.1839 53.0377 14.1984 53.5968 14.1839C53.851 14.1766 53.9454 14.2637 53.9309 14.5179C53.9091 15.0553 53.9163 15.5999 53.9091 16.1373C54.156 16.7763 54.0325 17.4299 53.989 18.0834C53.9744 18.3158 53.7493 18.3739 53.5387 18.3811C53.241 18.3957 52.9433 18.3884 52.6528 18.3884C52.4713 18.3884 52.2824 18.3594 52.1517 18.5264C51.9847 18.8749 52.0936 19.2453 52.0646 19.6011C52.0428 19.8625 52.1009 20.1385 51.9048 20.3563C51.5054 20.5742 51.0697 20.4653 50.6413 20.4798C50.0313 20.5016 49.995 20.5306 49.9805 21.1188C49.9732 21.3657 49.9805 21.6126 49.9732 21.8595C49.9659 22.2226 49.8135 22.3679 49.4213 22.3679C47.6567 22.3461 45.8994 22.3533 44.1348 22.3606C43.9968 22.3461 43.8152 22.2517 43.6918 22.4259Z" fill="#4F2000"/>
<path fill-rule="evenodd" clip-rule="evenodd" d="M31.4921 63.1645C32.1819 63.15 32.8645 63.1355 33.5544 63.121C34.1353 62.9176 34.7235 63.0048 35.3118 63.0484C35.595 63.0701 35.6676 63.3025 35.6894 63.5494C35.7184 63.898 35.7039 64.2393 35.7039 64.5879C35.7039 64.9437 35.8709 65.0962 36.2195 65.0889C36.4809 65.0817 36.7496 65.0817 37.011 65.0889C37.6718 65.1034 37.7662 65.2051 37.788 65.8804C37.7953 66.1419 37.788 66.4105 37.7953 66.672C37.8025 66.9334 37.926 67.0641 38.1947 67.0641C39.1823 67.0714 40.1771 67.0714 41.1647 67.0641C41.4334 67.0641 41.5423 66.9116 41.5496 66.6575C41.5569 66.3307 41.5423 65.9966 41.5641 65.6699C41.6004 65.1543 41.7457 65.0308 42.2467 65.0599C43.5175 65.1325 43.5175 65.1325 43.5393 63.8471C43.5538 63.1137 43.6482 63.0048 44.3672 63.0121C44.8392 63.0193 45.3257 62.9104 45.7832 63.121C46.4731 63.1355 47.1557 63.15 47.8455 63.1645C48.0126 63.3316 48.0126 63.5494 48.0126 63.7673C48.0198 64.704 48.0198 65.6481 48.0126 66.5848C48.0053 67.2529 47.8964 67.3618 47.2356 67.3836C47.1702 67.3836 47.1048 67.3836 47.0395 67.3836C45.8123 67.3909 45.943 67.3038 45.9284 68.5165C45.9212 69.3879 45.8486 69.4605 44.9554 69.4678C43.7136 69.475 43.8588 69.3806 43.8443 70.5933C43.8443 70.8402 43.8734 71.0944 43.7209 71.3122C43.1327 71.5664 42.5227 71.4502 41.9199 71.4066C41.6585 71.3849 41.5932 71.1597 41.5714 70.9346C41.5351 70.5861 41.5569 70.2448 41.5496 69.8962C41.5423 69.613 41.4116 69.475 41.1212 69.475C40.1626 69.4677 39.2041 69.475 38.2455 69.475C37.9332 69.475 37.8025 69.6203 37.7953 69.9252C37.7953 70.252 37.8098 70.5861 37.7807 70.9128C37.759 71.138 37.7081 71.3703 37.4467 71.3994C36.8077 71.4575 36.1686 71.5591 35.5441 71.3268C35.3045 70.9491 35.4207 70.5207 35.4062 70.114C35.3844 69.5113 35.3626 69.4678 34.7526 69.4678C33.3729 69.4678 33.4164 69.4823 33.4164 68.1316C33.4164 67.4054 33.3946 67.3836 32.6685 67.3836C31.3396 67.3764 31.3396 67.3764 31.3396 66.0475C31.3396 65.3068 31.3396 64.5588 31.3396 63.8181C31.325 63.5857 31.3105 63.3461 31.4921 63.1645Z" fill="white"/>
<path fill-rule="evenodd" clip-rule="evenodd" d="M51.9195 14.1476C51.9195 14.7213 51.9195 15.295 51.9122 15.8687C51.905 16.2172 51.8904 16.2318 51.5491 16.239C50.9755 16.2463 50.4018 16.239 49.8281 16.239C49.8063 16.2172 49.7918 16.1955 49.77 16.1737C49.6175 15.8106 49.7119 15.4257 49.6829 15.0481C49.6683 14.8375 49.7119 14.6197 49.603 14.4163C49.4142 14.213 49.1745 14.3147 48.9567 14.2929C48.5718 14.2493 48.1724 14.3945 47.8093 14.1622C47.6278 13.8426 47.7222 13.4868 47.6931 13.1455C47.6714 12.8696 47.7585 12.5864 47.5842 12.3322C47.3881 12.1507 47.1412 12.216 46.9161 12.216C41.4335 12.216 35.9581 12.216 30.4755 12.216C30.3085 12.216 30.1415 12.2087 29.9817 12.216C29.5968 12.2305 29.3935 12.1071 29.4371 11.6714C29.4879 11.1485 29.3863 10.6184 29.4879 10.0956C29.6477 10.0302 29.8147 10.0593 29.9745 10.0593C36.4011 10.0593 42.835 10.0593 49.2617 10.0593C49.3125 10.0593 49.3633 10.0593 49.4069 10.0593C49.8208 10.0665 49.8281 10.0665 49.8281 10.5095C49.8281 10.9234 49.8426 11.3373 49.8281 11.7513C49.8208 11.9982 49.8935 12.1071 50.1621 12.0998C50.6051 12.0853 51.0553 12.0926 51.4983 12.0998C51.8904 12.1071 51.8977 12.1071 51.8977 12.521C51.9195 13.0511 51.9195 13.603 51.9195 14.1476Z" fill="#682A00"/>
<path fill-rule="evenodd" clip-rule="evenodd" d="M45.776 63.121C45.2168 63.1791 44.6577 63.1356 44.0985 63.1501C43.7209 63.1573 43.7136 63.1646 43.7136 63.5422C43.7064 63.9852 43.6991 64.4354 43.7136 64.8784C43.7209 65.1398 43.612 65.2269 43.3651 65.2197C42.9512 65.2052 42.5372 65.2124 42.1306 65.1979C41.7384 65.1834 41.7239 65.1906 41.7167 65.6045C41.7094 66.033 41.7021 66.4614 41.7167 66.8899C41.7239 67.1513 41.6223 67.2312 41.3681 67.2312C40.228 67.2239 39.0879 67.2239 37.9551 67.2312C37.7227 67.2312 37.6283 67.1586 37.6356 66.9189C37.6501 66.4542 37.6283 65.9967 37.6428 65.5319C37.6501 65.2923 37.5411 65.2124 37.316 65.2197C36.8513 65.2269 36.3938 65.2269 35.929 65.2197C35.5805 65.2124 35.5732 65.1979 35.566 64.8421C35.5587 64.4499 35.566 64.0505 35.566 63.6511C35.566 63.1573 35.566 63.1646 35.0867 63.1573C34.5784 63.1501 34.0628 63.1937 33.5544 63.1283C33.5617 61.7849 33.569 60.4414 33.5762 59.0908C34.237 58.8656 34.8979 58.8511 35.5587 59.1053L35.5514 59.098C35.8201 59.4902 35.6821 59.9331 35.7039 60.347C35.733 60.9716 35.762 61.0151 36.3865 61.0296C36.6843 61.0369 36.982 61.0224 37.2797 61.0442C37.592 61.0587 37.759 61.2257 37.7808 61.538C37.8026 61.8357 37.788 62.1334 37.7953 62.4312C37.8098 62.9685 37.8461 63.0121 38.4053 63.0194C39.2622 63.0266 40.1191 63.0266 40.976 63.0194C41.5061 63.0121 41.5424 62.9685 41.5569 62.4602C41.5642 62.1625 41.5569 61.8647 41.5642 61.567C41.5787 61.2257 41.753 61.0587 42.087 61.0442C42.2976 61.0369 42.5154 61.0369 42.726 61.0369C43.5321 61.0369 43.5321 61.0369 43.5321 60.2091C43.5321 60.013 43.5321 59.8169 43.5321 59.6136C43.5394 59.4321 43.5539 59.2505 43.6846 59.1053L43.6773 59.1125C44.3672 58.8584 45.0643 58.8656 45.7542 59.1053C45.7615 60.4342 45.7687 61.7776 45.776 63.121Z" fill="#FFA255"/>
<path fill-rule="evenodd" clip-rule="evenodd" d="M25.3341 28.4459C24.7096 28.4822 24.0851 28.475 23.4533 28.4532C23.1265 28.3806 23.2064 28.0974 23.1991 27.894C23.1773 27.0226 23.1919 26.1512 23.1919 25.2798C23.1919 24.5318 23.1773 24.5318 22.4149 24.5173C22.059 24.5101 21.6887 24.5682 21.3401 24.452C21.282 24.4229 21.2385 24.3866 21.2022 24.3285C21.0932 23.6459 20.9988 22.956 21.2675 22.288C21.2748 21.6271 21.2893 20.9663 21.2966 20.3055C21.9719 20.0441 22.6545 20.0949 23.3444 20.2692C23.5404 20.4798 23.4896 20.7485 23.5041 21.0026C23.5259 21.373 23.4388 21.7433 23.5767 22.0992C23.6929 22.2589 23.86 22.2371 24.027 22.2444C24.3029 22.2444 24.5861 22.2371 24.8621 22.2517C25.3704 22.2662 25.4358 22.3606 25.4793 22.8689C25.5156 23.2973 25.3268 23.7548 25.6246 24.147C25.9949 24.2777 26.3725 24.1905 26.7429 24.2196C26.9825 24.2341 27.2367 24.1905 27.4473 24.3721C27.6143 25.0837 27.745 25.7954 27.3456 26.478C26.9462 26.7031 26.5105 26.5797 26.0893 26.6014C25.5302 26.6305 25.5156 26.645 25.4866 27.1896C25.4575 27.6108 25.5883 28.0538 25.3341 28.4459Z" fill="#4F2000"/>
<path fill-rule="evenodd" clip-rule="evenodd" d="M60.0381 34.5751C60.0961 34.9672 60.0598 35.3666 60.0598 35.7588C60.0598 37.3854 60.0526 39.0193 60.0453 40.6459C59.4426 40.9001 58.8181 40.7839 58.2081 40.7331C57.9684 40.7113 57.8813 40.4789 57.845 40.2611C57.7942 39.9706 57.816 39.6729 57.8305 39.3751C57.8595 38.8523 57.8377 38.8232 57.3004 38.816C57.0244 38.8087 56.7412 38.8232 56.4653 38.8087C56.2474 38.7942 56.0368 38.7579 55.9134 38.5473C55.7609 38.0971 55.8408 37.6323 55.8335 37.1748C55.819 36.4995 55.8262 35.8241 55.8335 35.1488C55.8335 34.9527 55.8335 34.7494 55.9642 34.5824C56.0877 34.4807 56.2329 34.4662 56.3854 34.4662C57.4383 34.4734 58.4913 34.4299 59.537 34.4444C59.7113 34.4371 59.8928 34.4444 60.0381 34.5751Z" fill="#FFA255"/>
<path fill-rule="evenodd" clip-rule="evenodd" d="M19.2778 40.6458C19.256 38.6198 19.2415 36.601 19.285 34.575C19.4158 34.4588 19.5828 34.4443 19.7498 34.437C20.8318 34.4225 21.9138 34.4588 22.9958 34.4588C23.1265 34.4588 23.2572 34.4806 23.3662 34.5677C23.4896 34.7202 23.4969 34.9018 23.5041 35.0833C23.5114 36.1217 23.5114 37.1529 23.5041 38.1913C23.5041 38.3584 23.4896 38.5181 23.3952 38.6634C22.9885 38.9393 22.5311 38.8013 22.1026 38.8158C21.4563 38.8449 21.42 38.8522 21.4273 39.4767C21.4345 40.9653 21.3619 40.7765 20.0911 40.7838C19.8152 40.7838 19.5247 40.8419 19.2778 40.6458Z" fill="#FFA255"/>
<path fill-rule="evenodd" clip-rule="evenodd" d="M25.4284 24.3722C25.276 24.2415 25.334 24.0672 25.334 23.9147C25.3268 23.508 25.3268 23.0941 25.334 22.6874C25.334 22.4768 25.2469 22.3897 25.0436 22.3897C24.6369 22.397 24.223 22.397 23.8163 22.3897C23.6566 22.3897 23.4823 22.4478 23.3588 22.2953C23.6784 22.0557 24.0487 22.1573 24.4045 22.1428C24.7168 22.1283 25.0218 22.1283 25.334 22.1501C26.0239 22.1355 26.7065 22.1355 27.3964 22.1501C27.8539 22.1355 28.3114 22.1355 28.7761 22.1501C29.1392 22.1573 29.2772 22.0048 29.2627 21.649C29.2481 21.206 29.2481 20.7631 29.2627 20.3201C29.2481 19.8408 29.2554 19.3688 29.2554 18.8895C29.2554 18.5991 29.1247 18.4756 28.8342 18.4756C28.3767 18.4756 27.912 18.4901 27.4545 18.4684C27.0115 18.4756 26.5758 18.4611 26.1328 18.4756C25.6318 18.4829 25.5882 18.5337 25.5737 19.0493C25.5664 19.456 25.5737 19.8626 25.6536 20.2693C25.5882 20.4145 25.472 20.3927 25.3558 20.3637C25.305 20.3346 25.2687 20.2911 25.2396 20.233C25.1307 19.8336 25.1743 19.4196 25.1815 19.0202C25.1888 18.6136 25.0218 18.4684 24.6297 18.4829C24.1867 18.4974 23.751 18.4974 23.308 18.4829C22.8215 18.5047 22.3277 18.4901 21.8411 18.4901C21.6451 18.4901 21.4417 18.4974 21.2965 18.3376C21.3836 18.1851 21.5289 18.2505 21.6523 18.2505C22.2115 18.236 22.7706 18.236 23.3298 18.236C23.7582 17.9746 24.223 18.1198 24.6805 18.0907C24.8911 18.0762 25.1089 18.0835 25.3195 18.098C26.0021 18.0835 26.692 18.0762 27.3746 18.098C27.8394 18.0835 28.2968 18.0835 28.7616 18.098C29.1247 18.1053 29.2627 17.9528 29.2554 17.5897C29.2409 17.1467 29.2627 16.6965 29.2191 16.2535C29.2481 15.796 29.2481 15.3385 29.2554 14.881C29.2627 14.547 29.1102 14.4163 28.7834 14.4163C28.3259 14.4236 27.8684 14.4236 27.4109 14.4163C26.7791 14.409 26.1474 14.4671 25.5156 14.38C25.4575 14.3582 25.4067 14.3219 25.3631 14.2783C25.443 14.1113 25.5955 14.1839 25.7117 14.1839C26.2708 14.1767 26.8372 14.1767 27.3964 14.1694C27.774 13.9298 28.1952 14.0459 28.5946 14.0314C29.2191 14.0096 29.2481 13.9951 29.2481 13.3996C29.2481 12.245 29.3498 12.3467 28.1879 12.3394C27.9338 12.3394 27.6578 12.3975 27.44 12.1942C27.5126 12.0635 27.6433 12.1143 27.7522 12.1143C28.1807 12.1071 28.6091 12.1143 29.0375 12.1071C29.4079 12.0998 29.4079 12.0998 29.4152 11.7149C29.4224 11.2865 29.4152 10.858 29.4152 10.4296C29.4152 10.3207 29.3716 10.1972 29.495 10.1173C29.495 10.662 29.5023 11.2066 29.495 11.7512C29.4878 12.0054 29.5894 12.1143 29.8436 12.0998C29.9743 12.0925 30.105 12.0998 30.243 12.0998C35.9289 12.0998 41.6076 12.0998 47.2863 12.0998C47.4751 12.0998 47.6857 12.0199 47.8455 12.1942C47.5695 12.4193 47.25 12.354 46.9378 12.354C41.4987 12.3612 36.0597 12.354 30.6279 12.354C29.6475 12.354 29.6475 12.354 29.6548 13.3343C29.6621 13.9806 29.6984 14.0169 30.381 14.0169C35.8999 14.0169 41.4188 14.0169 46.945 14.0242C47.25 14.0242 47.5768 13.9588 47.8528 14.1839C48.3611 14.1839 48.8694 14.1767 49.3777 14.1839C49.5375 14.1839 49.7118 14.1331 49.8352 14.2783C49.5157 14.5252 49.1381 14.4163 48.7823 14.4308C48.47 14.4453 48.1577 14.4453 47.8382 14.4236C47.1266 14.4526 46.4149 14.4381 45.7105 14.4381C40.6927 14.4381 35.6748 14.4381 30.6497 14.4381C30.4536 14.4381 30.2503 14.4381 30.0542 14.4453C29.7855 14.4526 29.6911 14.5978 29.6621 14.852C29.5459 15.905 29.6257 15.9994 30.6497 15.9994C36.1178 15.9994 41.5786 15.9994 47.0467 15.9994C47.2936 15.9994 47.5405 15.9848 47.7874 16.0139C47.9689 16.0429 48.2013 15.9848 48.2594 16.2608C48.136 16.3915 47.9689 16.3915 47.8019 16.3988C47.5913 16.4278 47.3735 16.4133 47.1556 16.4133C41.6222 16.4133 36.0887 16.4133 30.5625 16.4133C29.6548 16.4133 29.6548 16.4133 29.6548 17.3065C29.6548 18.0544 29.6766 18.0762 30.4391 18.0762C36.0379 18.0762 41.6367 18.0762 47.2355 18.0762C47.4316 18.0762 47.6349 18.069 47.831 18.0907C48.3175 18.069 48.804 18.0835 49.2833 18.0835C49.4794 18.0835 49.6755 18.098 49.828 18.236C49.6972 18.3885 49.523 18.3304 49.3705 18.3304C48.8621 18.3376 48.3538 18.3304 47.8455 18.3304C47.5768 18.5555 47.25 18.4901 46.9378 18.4901C41.506 18.4974 36.0669 18.4901 30.6351 18.4901C29.6548 18.4901 29.6621 18.4901 29.6475 19.456C29.6475 19.7464 29.7056 20.0587 29.4878 20.3128C29.4878 20.8575 29.495 21.4021 29.4878 21.9467C29.4805 22.1936 29.5676 22.3171 29.8291 22.2953C29.9453 22.288 30.0614 22.2953 30.1776 22.2953C33.1332 22.2953 36.0887 22.2953 39.0442 22.2953C39.233 22.2953 39.4436 22.2227 39.6107 22.3897C39.371 22.593 39.0806 22.5495 38.8046 22.5495C36.0161 22.5567 33.2203 22.5495 30.4318 22.5495C29.6693 22.5495 29.6621 22.564 29.6475 23.3192C29.6403 23.675 29.7419 24.0526 29.495 24.3722C29.495 25.033 29.495 25.6865 29.5023 26.3401C29.2118 26.3111 29.2627 26.0714 29.2554 25.9044C29.2336 25.4033 29.2336 24.9023 29.2554 24.4012C29.2409 23.9582 29.2336 23.5153 29.2554 23.0723C29.2772 22.6584 29.0956 22.5204 28.7035 22.5349C28.2751 22.5567 27.8466 22.5495 27.4254 22.5349C27.1132 22.5495 26.8009 22.5422 26.4887 22.5422C25.5955 22.5422 25.6027 22.5422 25.5882 23.4209C25.5737 23.7404 25.6536 24.0817 25.4284 24.3722Z" fill="#5D2600"/>
<path fill-rule="evenodd" clip-rule="evenodd" d="M23.3444 34.5966C21.9937 34.5893 20.643 34.582 19.2923 34.5675C19.285 34.0882 19.2705 33.609 19.2705 33.137C19.2705 31.5684 19.285 30.0071 19.2923 28.4386C19.9531 28.1844 20.6139 28.2135 21.2748 28.4168C21.4563 28.6419 21.42 28.9106 21.42 29.172C21.4272 30.668 21.42 32.1639 21.4272 33.6598C21.4272 34.2843 21.4636 34.3206 22.1026 34.3279C22.3785 34.3279 22.6617 34.3061 22.9377 34.3424C23.0975 34.3715 23.3226 34.3279 23.3444 34.5966Z" fill="#682A00"/>
<path fill-rule="evenodd" clip-rule="evenodd" d="M60.038 34.5749C58.8689 34.5749 57.6997 34.5821 56.5306 34.5894C56.349 34.5894 56.1675 34.6039 55.986 34.6112C55.986 34.328 56.2183 34.3788 56.3781 34.357C56.654 34.3207 56.9373 34.3425 57.2205 34.3425C57.8813 34.3352 57.9031 34.3134 57.9103 33.6308C57.9103 32.164 57.9103 30.6898 57.9176 29.223C57.9176 28.9325 57.8813 28.6202 58.15 28.3951C58.789 28.2571 59.4208 28.17 60.0525 28.4459C60.0598 29.7966 60.0743 31.1473 60.0743 32.498C60.0598 33.1879 60.0961 33.885 60.038 34.5749Z" fill="#682A00"/>
<path fill-rule="evenodd" clip-rule="evenodd" d="M60.0308 22.3897C60.1034 23.007 60.0526 23.6315 60.0598 24.2488C60.0671 24.9531 60.0526 25.6575 60.0453 26.3547C59.3918 26.6016 58.7237 26.5289 58.0629 26.391C57.8232 26.0497 57.9394 25.6575 57.9176 25.2872C57.9031 25.0766 57.9249 24.8587 57.8886 24.6482C57.8305 24.4158 57.6489 24.4013 57.4601 24.4013C57.1116 24.4013 56.763 24.4085 56.4217 24.394C56.124 24.3795 55.9715 24.227 55.9569 23.922C55.9569 23.8711 55.9497 23.8203 55.9497 23.7767C55.9424 22.6294 55.8625 22.4406 57.0535 22.6221C57.511 22.6947 57.9757 22.5786 58.3896 22.3462C58.9343 22.3534 59.4862 22.2953 60.0308 22.3897Z" fill="#682A00"/>
<path fill-rule="evenodd" clip-rule="evenodd" d="M55.9932 38.5543C56.1311 38.6705 56.2982 38.6632 56.4652 38.6632C56.8573 38.6632 57.2567 38.6559 57.6561 38.6632C58.0192 38.6705 58.0991 38.7576 58.0265 39.1207C57.9538 39.4983 57.9829 39.8759 57.9902 40.2535C57.9974 40.5803 58.0846 40.6457 58.4186 40.6457C58.9632 40.6529 59.5079 40.6457 60.0525 40.6457C60.0525 40.682 60.0525 40.711 60.0525 40.7473C59.8129 40.9434 59.5224 40.8708 59.2537 40.8926C58.9197 40.9143 58.5711 40.8272 58.2443 40.9724C57.9829 41.292 58.1281 41.6696 58.1136 42.0181C58.0846 42.7879 58.0265 42.875 57.2712 42.8678C56.8501 42.8605 56.4216 42.9404 56.0004 42.8314C56.0004 42.2868 55.9932 41.7422 55.9932 41.1976C55.9859 40.7546 55.9859 40.7546 55.5647 40.7473C55.1653 40.7401 54.7732 40.7473 54.3738 40.7473C53.909 40.7401 53.9018 40.7401 53.9018 40.2826C53.9018 38.5325 53.9018 36.7824 53.9018 35.0323C53.9018 34.3207 53.8945 33.609 53.9018 32.9046C53.909 32.5198 53.9163 32.5125 54.2939 32.5052C54.8531 32.498 55.4195 32.498 55.9786 32.498C56.0222 32.5561 56.015 32.6069 55.9569 32.6577C55.5502 32.8465 55.1145 32.7521 54.6861 32.7594C54.3084 32.7667 54.156 32.9119 54.156 33.2895C54.1632 35.5189 54.1632 37.741 54.156 39.9703C54.156 40.3552 54.323 40.4932 54.6933 40.4932C56.0004 40.4859 55.8116 40.5658 55.8407 39.3966C55.8407 39.1062 55.7535 38.7939 55.9932 38.5543Z" fill="#B26632"/>
<path fill-rule="evenodd" clip-rule="evenodd" d="M19.2778 40.6456C19.8369 40.6456 20.3961 40.6384 20.948 40.6456C21.1804 40.6529 21.2675 40.5585 21.2675 40.3261C21.2602 39.8832 21.2748 39.4402 21.2602 38.9972C21.253 38.7503 21.3401 38.6414 21.6015 38.6487C22.1752 38.6559 22.7489 38.6487 23.3226 38.6414C23.5404 38.8302 23.4896 39.0916 23.4896 39.3385C23.5114 40.6311 23.3516 40.4714 24.6224 40.4859C24.8693 40.4859 25.1235 40.4568 25.3268 40.6456C25.2251 40.8054 25.0654 40.74 24.9274 40.7473C24.5062 40.7546 24.0778 40.7546 23.6566 40.7473C23.4242 40.74 23.3371 40.8345 23.3444 41.0668C23.3516 41.655 23.3444 42.2432 23.3444 42.8314C22.6472 42.875 21.9428 42.9984 21.253 42.7298V42.737C20.9988 42.3449 21.1295 41.9092 21.1077 41.488C21.0787 40.9361 21.0642 40.9143 20.5195 40.8853C20.1056 40.8635 19.6626 41.0015 19.2705 40.7473C19.2778 40.7183 19.2778 40.682 19.2778 40.6456Z" fill="#B26632"/>
<path fill-rule="evenodd" clip-rule="evenodd" d="M21.2604 28.4388C20.5995 28.4388 19.9387 28.4388 19.2852 28.4388C19.2489 27.0808 19.2489 25.7229 19.2852 24.3722C19.946 24.1253 20.6068 24.1253 21.2604 24.3722C21.362 24.4884 21.4056 24.6263 21.4056 24.7788C21.4201 25.8826 21.4274 26.9792 21.4056 28.0829C21.4056 28.1846 21.3766 28.279 21.3257 28.3661C21.3039 28.3952 21.2821 28.417 21.2604 28.4388Z" fill="#4F2000"/>
<path fill-rule="evenodd" clip-rule="evenodd" d="M55.9933 42.8317C56.3055 42.6502 56.6396 42.7664 56.9591 42.7373C57.2786 42.701 57.6853 42.8753 57.9104 42.6429C58.1137 42.4323 57.954 42.0402 57.983 41.7352C58.0193 41.4157 57.8959 41.0816 58.0629 40.7766C58.3171 41.4302 58.288 42.0838 58.0702 42.7373C57.9757 43.2747 58.0484 43.8121 58.0266 44.3494C58.0121 44.7779 58.0193 44.7851 57.5836 44.7851C57.0608 44.7924 56.5379 44.7851 56.0151 44.7851C55.957 44.1388 56.0005 43.4853 55.9933 42.8317Z" fill="#502102"/>
<path fill-rule="evenodd" clip-rule="evenodd" d="M45.7542 59.0905C45.0644 59.0905 44.3672 59.0978 43.6774 59.0978C43.6846 58.5241 43.6774 57.9504 43.6919 57.3768C43.6992 57.0355 43.7064 57.0209 44.0622 57.0209C44.6359 57.0209 45.2096 57.0355 45.7833 57.0427C45.776 57.7181 45.7688 58.4007 45.7542 59.0905Z" fill="#B36632"/>
<path fill-rule="evenodd" clip-rule="evenodd" d="M21.2531 42.73C21.7759 42.73 22.2987 42.7373 22.8216 42.7373C23.0031 42.7373 23.1847 42.7228 23.3444 42.8244C23.3372 43.478 23.388 44.1315 23.3154 44.7851C22.7417 44.7851 22.168 44.7706 21.6016 44.7851C21.3402 44.7924 21.2676 44.6907 21.2676 44.4365C21.2748 43.8701 21.2603 43.3037 21.2531 42.73Z" fill="#502101"/>
<path fill-rule="evenodd" clip-rule="evenodd" d="M25.3268 18.2214C24.6587 18.2214 23.9907 18.2142 23.3298 18.2142C23.3298 17.6332 23.3444 17.0595 23.3371 16.4786C23.3371 16.2462 23.4097 16.1446 23.6494 16.1591C23.9326 16.1736 24.2085 16.1591 24.4917 16.1591C25.3341 16.1591 25.3341 16.1591 25.3413 15.2877C25.3413 14.9391 25.3559 14.5978 25.3631 14.2492C25.3849 14.2492 25.4067 14.2492 25.4357 14.2565C25.7262 14.8955 25.5592 15.5564 25.5519 16.2172C25.4575 16.6674 25.5011 17.1249 25.4866 17.5751C25.4793 17.8002 25.4938 18.0326 25.3268 18.2214Z" fill="#682A01"/>
<path fill-rule="evenodd" clip-rule="evenodd" d="M57.9758 18.3159C58.0702 18.9767 58.0484 19.6376 57.9903 20.3056C57.3149 20.5525 56.6396 20.5453 55.957 20.3056C55.7537 19.6376 55.7464 18.9767 55.957 18.3159C56.6323 18.2506 57.3077 18.2433 57.9758 18.3159Z" fill="#672A02"/>
<path fill-rule="evenodd" clip-rule="evenodd" d="M21.2967 18.323C21.9793 18.323 22.6619 18.323 23.3445 18.323C23.6059 18.9548 23.5188 19.5938 23.4099 20.2401C23.3881 20.2619 23.3663 20.2837 23.3445 20.3055C22.6619 20.3055 21.9721 20.3055 21.2894 20.3055C21.2604 19.6447 21.2459 18.9838 21.2967 18.323Z" fill="#672A01"/>
<path fill-rule="evenodd" clip-rule="evenodd" d="M35.5515 59.0979C34.8907 59.0907 34.2299 59.0907 33.5691 59.0834C33.5618 58.4008 33.5546 57.7182 33.54 57.0283C34.0992 57.0211 34.6584 57.0211 35.2175 56.9993C35.4862 56.992 35.5515 57.1155 35.5515 57.3551C35.5443 57.9433 35.5515 58.517 35.5515 59.0979Z" fill="#B26632"/>
<path fill-rule="evenodd" clip-rule="evenodd" d="M21.2604 24.3721C20.5995 24.3721 19.9387 24.3721 19.2852 24.3721C19.2779 23.7839 19.2779 23.1884 19.2634 22.6002C19.2561 22.3533 19.3723 22.2952 19.5902 22.3025C20.1493 22.3097 20.7085 22.2952 21.2676 22.2879C21.2604 22.9851 21.2604 23.6822 21.2604 24.3721Z" fill="#682A00"/>
<path fill-rule="evenodd" clip-rule="evenodd" d="M55.986 20.3054C56.654 20.3054 57.3221 20.3054 57.9902 20.3054C58.0846 20.9663 57.9902 21.6343 58.041 22.2952C57.3584 22.5203 56.6686 22.4767 55.9787 22.3315C55.71 21.6924 55.8044 21.0316 55.9133 20.3781C55.9424 20.3563 55.9642 20.3272 55.986 20.3054Z" fill="#4F2000"/>
<path fill-rule="evenodd" clip-rule="evenodd" d="M27.4401 12.1725C27.9629 12.1725 28.4857 12.1653 29.0159 12.1725C29.3862 12.1798 29.3935 12.1871 29.4007 12.5719C29.408 12.9641 29.408 13.3562 29.4007 13.7556C29.3935 14.1477 29.3862 14.155 28.9723 14.155C28.4494 14.155 27.9266 14.155 27.3965 14.1477C27.4401 13.4942 27.3602 12.8261 27.4401 12.1725Z" fill="#682A01"/>
<path fill-rule="evenodd" clip-rule="evenodd" d="M19.2778 40.7474C19.837 40.7474 20.3962 40.7547 20.9553 40.7402C21.1877 40.7329 21.2748 40.8273 21.2676 41.0597C21.253 41.6188 21.253 42.178 21.253 42.7371C20.6939 42.7371 20.1275 42.7299 19.5683 42.7444C19.3287 42.7517 19.2488 42.6645 19.2561 42.4322C19.2778 41.873 19.2778 41.3066 19.2778 40.7474Z" fill="#4F2000"/>
<path fill-rule="evenodd" clip-rule="evenodd" d="M58.0702 42.7298C58.0702 42.0762 58.063 41.4227 58.063 40.7691C58.7238 40.7038 59.3846 40.7546 60.0454 40.7401C60.0527 41.2992 60.0454 41.8656 60.0672 42.4248C60.0745 42.6572 59.9946 42.7443 59.755 42.7371C59.1958 42.7298 58.6367 42.737 58.0702 42.7298Z" fill="#4F2000"/>
<path fill-rule="evenodd" clip-rule="evenodd" d="M60.0453 28.446C59.4208 28.446 58.7963 28.446 58.1646 28.446C58.0484 28.4606 58.0048 28.3807 57.9685 28.2935C57.8886 27.7852 57.9394 27.2696 57.9322 26.7613C57.9394 26.6379 57.9685 26.5144 58.0774 26.4345C58.731 26.4273 59.3845 26.3692 60.0381 26.4636C60.0744 27.1171 60.0817 27.778 60.0453 28.446Z" fill="#4F2000"/>
<path fill-rule="evenodd" clip-rule="evenodd" d="M55.9496 16.2391C56.044 16.9 55.9569 17.5608 56.0005 18.2143C55.3977 18.4903 54.7732 18.345 54.156 18.316C53.9744 18.3087 53.9526 18.1345 53.9526 17.9747C53.9526 17.4809 53.9526 16.9871 53.9526 16.486C53.9526 16.3263 53.9672 16.181 54.1777 16.1883C54.766 16.2174 55.3614 16.1375 55.9496 16.2391Z" fill="#682A01"/>
<path fill-rule="evenodd" clip-rule="evenodd" d="M55.9498 16.2391C55.4052 16.2391 54.8606 16.2391 54.3159 16.2391C54.1271 16.2391 53.9964 16.2899 53.9964 16.515C54.0037 16.9943 54.0037 17.4736 53.9964 17.9528C53.9964 18.178 54.1199 18.2288 54.3087 18.2288C54.8678 18.2215 55.4342 18.2215 55.9934 18.2215C56.5162 18.2288 57.0391 18.2288 57.5619 18.236C57.6999 18.2433 57.8597 18.1707 57.9686 18.3232C57.3078 18.3232 56.6397 18.3232 55.9789 18.3305C55.5867 18.5919 55.151 18.4539 54.7299 18.4757C54.1852 18.5047 54.1562 18.5193 54.1489 19.0784C54.1417 19.4923 54.1562 19.899 54.1417 20.3129C54.1562 20.6397 54.1489 20.9737 54.1489 21.3005C54.1489 22.1501 54.1489 22.1356 54.9768 22.1501C55.3181 22.1574 55.6739 22.063 55.9789 22.2954C56.6615 22.2954 57.3513 22.3026 58.034 22.3026C58.5786 22.3026 59.1232 22.3026 59.6678 22.3172C59.7913 22.3172 59.9365 22.2518 60.0237 22.397C59.4645 22.397 58.9126 22.4043 58.3535 22.4043C57.9541 22.6367 57.5184 22.535 57.0972 22.5568C56.7196 22.5713 56.342 22.5495 55.9644 22.5495C55.4342 22.5786 54.9114 22.5713 54.3813 22.5568C53.8657 22.5423 53.7495 22.4188 53.735 21.896C53.7205 21.3877 53.7132 20.8721 53.7423 20.3637C53.7277 19.9353 53.7423 19.5069 53.735 19.0857C53.7277 18.5265 53.6987 18.512 53.1541 18.4829C52.7329 18.4612 52.2972 18.5991 51.905 18.3377C52.0357 18.1852 52.21 18.2433 52.3625 18.2433C52.7547 18.236 53.1468 18.2288 53.5462 18.2433C53.8003 18.2506 53.8948 18.1489 53.8948 17.8947C53.8875 17.3065 53.902 16.7111 53.902 16.1229C54.4031 16.2463 54.9187 16.1447 55.427 16.181C55.6085 16.181 55.7973 16.0938 55.9498 16.2391Z" fill="#5C2500"/>
<path fill-rule="evenodd" clip-rule="evenodd" d="M60.0454 26.4562C59.3845 26.4562 58.7237 26.4562 58.0702 26.4562C58.0484 26.4199 58.0484 26.3908 58.0702 26.3545C58.731 26.3545 59.3918 26.3545 60.0454 26.3545C60.0454 26.3908 60.0454 26.4199 60.0454 26.4562Z" fill="#682A00"/>
<path fill-rule="evenodd" clip-rule="evenodd" d="M35.5658 50.9647C35.0212 50.9066 34.4838 50.9575 33.9392 50.9357C33.5689 50.9284 33.5616 50.9284 33.5543 50.5436C33.5471 50.1006 33.5616 49.6576 33.5471 49.2074C33.5398 48.9605 33.6197 48.8516 33.8811 48.8588C34.3241 48.8733 34.7671 48.8516 35.2173 48.8661C35.4714 48.8733 35.5731 48.7935 35.5658 48.532C35.5513 47.9874 35.5658 47.4428 35.5658 46.9054C35.7474 46.7093 35.987 46.7311 36.2121 46.7311C38.4851 46.7529 40.7653 46.7457 43.0382 46.7311C43.6918 46.7239 43.7135 46.782 43.7353 47.4355C43.7498 47.9075 43.6482 48.3868 43.7934 48.8516C44.338 48.8588 44.8754 48.8588 45.4201 48.8661C45.7614 48.8733 45.7686 48.8806 45.7686 49.2292C45.7759 49.6721 45.7759 50.1151 45.7686 50.5581C45.7614 50.9212 45.7614 50.9212 45.3692 50.9284C44.8101 50.9429 44.2509 50.8921 43.699 50.9575C43.4884 51.1245 43.2343 51.11 42.9874 51.11C40.7435 51.11 38.5069 51.1172 36.263 51.11C36.0306 51.1172 35.7692 51.1535 35.5658 50.9647Z" fill="#4F2000"/>
<path fill-rule="evenodd" clip-rule="evenodd" d="M25.334 40.6456C24.8257 40.6456 24.3101 40.6529 23.8018 40.6529C23.3516 40.6529 23.3516 40.6456 23.3443 40.1736C23.3371 39.6653 23.3298 39.1497 23.3225 38.6414C23.3298 37.2907 23.3298 35.9473 23.3371 34.5966C23.2499 34.4586 23.1047 34.4877 22.9812 34.4877C22.5673 34.4877 22.1534 34.4877 21.7467 34.4877C21.2675 34.4877 21.2675 34.4804 21.2675 33.9866C21.2675 32.1349 21.2675 30.2904 21.2675 28.4386C21.8484 28.1482 22.4584 28.2861 23.0611 28.3297C23.3298 28.3515 23.3007 28.5911 23.3007 28.7945C23.3007 29.8692 23.3007 30.9439 23.3007 32.0187C23.3007 32.1784 23.2572 32.3527 23.3516 32.5052C23.5041 32.5851 23.6711 32.5706 23.8381 32.5706C24.2157 32.5706 24.6006 32.5633 24.9782 32.5706C25.3413 32.5778 25.3486 32.5778 25.3486 32.9191C25.3413 35.4971 25.334 38.075 25.334 40.6456Z" fill="#4F2000"/>
<path fill-rule="evenodd" clip-rule="evenodd" d="M43.6846 59.0906C43.6846 59.6643 43.6774 60.2452 43.6919 60.8262C43.6991 61.0803 43.5975 61.182 43.3433 61.1747C42.9948 61.1602 42.6535 61.1747 42.3049 61.1747C41.6513 61.1747 41.7022 61.1457 41.7022 61.7992C41.7022 62.1478 41.6949 62.4891 41.7022 62.8376C41.7094 63.0628 41.6295 63.1644 41.3899 63.1644C40.2353 63.1572 39.0807 63.1572 37.926 63.1644C37.7155 63.1644 37.6283 63.0846 37.6283 62.874C37.6356 62.431 37.6356 61.9808 37.6283 61.5378C37.6211 61.1892 37.6065 61.182 37.258 61.1747C36.8586 61.1675 36.4664 61.1747 36.067 61.1747C35.566 61.1675 35.5515 61.1529 35.5515 60.6373C35.5442 60.129 35.5442 59.6134 35.5442 59.1051C38.2601 59.0906 40.9687 59.0906 43.6846 59.0906Z" fill="#B26632"/>
<path fill-rule="evenodd" clip-rule="evenodd" d="M31.4922 34.5968C32.0514 34.5896 32.6105 34.5751 33.1769 34.5751C33.5545 34.5751 33.5545 34.5823 33.5545 34.9599C33.5545 36.7463 33.5545 38.5255 33.5545 40.3119C33.5545 40.3627 33.5473 40.4135 33.5545 40.4571C33.5691 40.6459 33.4819 40.7185 33.2931 40.7185C32.0877 40.7112 30.8822 40.7112 29.6768 40.7185C29.4807 40.7185 29.4226 40.6168 29.4226 40.4426C29.4226 39.2734 29.4299 38.097 29.4226 36.9279C29.4226 36.7028 29.5243 36.6447 29.7203 36.6519C30.1488 36.6592 30.5772 36.6592 31.0057 36.6519C31.1509 36.6519 31.3034 36.7028 31.4341 36.6011C31.2744 35.9258 31.209 35.2577 31.4922 34.5968Z" fill="black"/>
<path fill-rule="evenodd" clip-rule="evenodd" d="M49.8279 34.5894C49.8352 35.0977 49.8497 35.6133 49.8497 36.1216C49.8497 37.5231 49.8497 38.9246 49.8497 40.3262C49.8497 40.711 49.8425 40.7183 49.4794 40.7183C48.3538 40.7256 47.2355 40.711 46.1172 40.7256C45.8558 40.7256 45.7759 40.6384 45.7759 40.3842C45.7831 39.2659 45.7759 38.1404 45.7831 37.0221C45.7831 36.6662 45.7904 36.659 46.1317 36.659C46.5747 36.6517 47.0249 36.659 47.4679 36.659C47.5768 36.659 47.7002 36.7025 47.7946 36.6009C47.6639 35.9328 47.5913 35.2647 47.8455 34.6112C48.5063 34.5748 49.1744 34.5821 49.8352 34.6039L49.8279 34.5894Z" fill="black"/>
<path fill-rule="evenodd" clip-rule="evenodd" d="M35.5659 50.9647C38.2745 50.9647 40.9904 50.972 43.6991 50.972C43.6991 51.4803 43.7063 51.9959 43.6991 52.5042C43.6991 52.9327 43.6918 52.9327 43.2561 52.9327C41.2809 52.9327 39.3057 52.9327 37.3305 52.9327C36.8512 52.9327 36.372 52.9254 35.8999 52.9399C35.6385 52.9472 35.5514 52.8528 35.5586 52.5986C35.5732 52.0467 35.5659 51.5021 35.5659 50.9647Z" fill="#BF0000"/>
<path fill-rule="evenodd" clip-rule="evenodd" d="M43.6919 22.4259C43.8008 22.208 44.0114 22.2952 44.1712 22.2879C45.8341 22.2806 47.4971 22.2806 49.16 22.2806C49.2617 22.2806 49.3561 22.2806 49.4577 22.2806C49.8063 22.2661 49.8208 22.2588 49.8281 21.9175C49.8353 21.5399 49.8281 21.1623 49.8281 20.7847C49.8281 20.3054 49.8353 20.3054 50.3291 20.3054C50.8592 20.3054 51.3821 20.3054 51.9122 20.3054C51.934 20.3272 51.9558 20.349 51.9776 20.3781C52.0792 20.5741 52.072 20.792 52.0647 21.0026C52.0357 22.0991 52.1373 23.1956 52.0066 24.2849C51.9848 24.343 51.9485 24.3865 51.8977 24.4228C51.4838 24.5971 51.0553 24.5172 50.6269 24.51C50.2347 24.51 50.0605 24.6407 50.0677 25.0546C50.0895 26.3763 49.9443 26.1875 51.186 26.2092C51.4329 26.2092 51.6798 26.1875 51.9195 26.2746C52.0066 26.3182 52.0647 26.3835 52.101 26.4707C52.1518 27.1315 52.2971 27.7923 51.9993 28.4386C51.8396 28.3587 51.9049 28.2062 51.8977 28.09C51.8904 27.6471 51.8832 27.1968 51.8977 26.7539C51.9049 26.5215 51.8178 26.4271 51.5854 26.4344C51.157 26.4489 50.7285 26.4416 50.3001 26.4344C49.8353 26.4344 49.8281 26.4271 49.8281 25.9769C49.8281 24.9675 49.8281 23.9654 49.8353 22.956C49.8353 22.8398 49.8281 22.7236 49.8353 22.6074C49.8426 22.4113 49.7409 22.346 49.5667 22.3533C49.2036 22.3605 48.8405 22.3533 48.4774 22.3533C47.0759 22.3533 45.6744 22.3533 44.2728 22.3533C44.084 22.3678 43.8807 22.3315 43.6919 22.4259Z" fill="#682A00"/>
<path fill-rule="evenodd" clip-rule="evenodd" d="M23.3443 32.5053C23.1846 32.3601 23.2499 32.164 23.2499 31.9897C23.2427 30.9658 23.2499 29.9419 23.2499 28.9253C23.2499 28.446 23.2427 28.4387 22.7489 28.4387C22.2551 28.4387 21.7613 28.4387 21.2675 28.4387C21.2675 27.0808 21.2675 25.7301 21.2675 24.3722C21.8411 24.3722 22.4148 24.3649 22.9885 24.3722C23.3298 24.3794 23.3443 24.3939 23.3443 24.7425C23.3516 25.81 23.3443 26.8775 23.3516 27.9377C23.3516 28.112 23.2935 28.3008 23.4605 28.446C23.308 28.5912 23.3588 28.78 23.3588 28.9616C23.3443 30.1453 23.3443 31.3289 23.3443 32.5053Z" fill="#682A00"/>
<path fill-rule="evenodd" clip-rule="evenodd" d="M29.4008 32.6144C29.4081 32.0552 29.4153 31.496 29.4226 30.9296C29.4299 30.5157 29.4299 30.5085 29.822 30.5085C30.9476 30.5085 32.0659 30.5085 33.1915 30.5085C33.5473 30.5085 33.5473 30.5157 33.5545 30.857C33.5618 31.2855 33.5545 31.7139 33.5545 32.1423C33.5545 32.549 33.5473 32.5563 33.1551 32.5635C32.3491 32.5708 31.5358 32.5563 30.7297 32.5708C30.2868 32.5781 29.8365 32.5272 29.3936 32.6071L29.4008 32.6144Z" fill="#010100"/>
<path fill-rule="evenodd" clip-rule="evenodd" d="M37.6355 44.8142C37.6355 44.2405 37.6428 43.6668 37.6283 43.0859C37.621 42.839 37.7009 42.73 37.9623 42.73C39.0951 42.7373 40.228 42.7373 41.3681 42.73C41.6295 42.73 41.7094 42.839 41.7021 43.0859C41.6876 43.6595 41.6948 44.2332 41.6948 44.8142C41.6731 44.8359 41.6513 44.8577 41.6222 44.8795C41.4044 44.9884 41.172 44.9666 40.9469 44.9666C40.0392 44.9666 39.1387 44.9666 38.231 44.9666C38.0494 44.9666 37.8679 44.9667 37.7009 44.8795C37.6791 44.8577 37.6573 44.8359 37.6355 44.8142Z" fill="#B26632"/>
<path fill-rule="evenodd" clip-rule="evenodd" d="M49.8281 32.6144C49.6756 32.5272 49.5013 32.5708 49.3416 32.5635C48.2814 32.5563 47.2284 32.5635 46.1682 32.5635C45.7833 32.5635 45.7833 32.5563 45.7761 32.1859C45.7688 31.7212 45.7833 31.2637 45.7688 30.7989C45.7615 30.5883 45.8342 30.5085 46.052 30.5085C47.2284 30.5157 48.3976 30.5157 49.574 30.5085C49.7482 30.5085 49.8572 30.5375 49.8499 30.7481C49.8281 31.3726 49.8862 32.0044 49.8136 32.6289L49.8281 32.6144Z" fill="#010100"/>
<path fill-rule="evenodd" clip-rule="evenodd" d="M43.7936 48.8587C43.6411 48.8078 43.6774 48.6771 43.6774 48.5682C43.6702 48.1688 43.6774 47.7767 43.6774 47.3773C43.6774 46.8835 43.6774 46.8762 43.1981 46.8762C42.4066 46.8762 41.6151 46.8907 40.8163 46.8907C39.2623 46.8907 37.7083 46.8835 36.1542 46.8762C35.9582 46.8762 35.7621 46.898 35.5588 46.9052C35.5588 46.8617 35.5515 46.8254 35.5515 46.7818C35.6387 46.3243 35.5878 45.8668 35.5806 45.4021C35.5806 45.1043 35.704 44.9736 35.98 44.9591C36.3576 44.9373 36.7352 44.9446 37.1128 44.9518C37.4759 44.9591 37.6356 45.1406 37.6574 45.5037C37.6865 45.8523 37.5267 46.2299 37.7954 46.5494C38.0423 46.6801 38.311 46.622 38.5724 46.6293C39.393 46.6366 40.2136 46.622 41.0341 46.6366C41.39 46.6438 41.5207 46.4986 41.5352 46.1428C41.5497 45.6925 41.4045 45.2205 41.6877 44.7993L41.6804 44.8066C42.2396 44.8066 42.7987 44.8066 43.3579 44.7993C43.5903 44.7921 43.6919 44.8865 43.6774 45.1189C43.6702 45.2496 43.6702 45.3803 43.6774 45.511C43.7283 46.6293 43.7646 47.7403 43.7936 48.8587Z" fill="#B26632"/>
<path fill-rule="evenodd" clip-rule="evenodd" d="M52.0138 28.4462C52.0138 27.7854 52.0138 27.1245 52.0211 26.4637C52.0864 26.3838 52.1808 26.3403 52.2752 26.333C53.4879 26.3112 54.7006 26.2386 55.9061 26.3693C55.9642 26.3984 56.015 26.4419 56.0513 26.4928C56.1239 27.1536 56.2547 27.8217 55.9715 28.4752C54.8314 28.4752 53.6913 28.468 52.5512 28.4607C52.3696 28.468 52.1953 28.4534 52.0138 28.4462Z" fill="#4F2000"/>
<path fill-rule="evenodd" clip-rule="evenodd" d="M29.4007 24.3721C29.4007 24.8949 29.4007 25.4178 29.4007 25.9406C29.4007 26.0786 29.3498 26.2383 29.5023 26.3473C31.2016 26.3473 32.9008 26.3545 34.6001 26.3545C36.9601 26.3545 39.3202 26.3545 41.673 26.3545C41.5278 26.5215 41.3317 26.4344 41.1647 26.4344C36.7931 26.4417 32.4288 26.4344 28.0572 26.4344C27.8466 26.4344 27.6288 26.4489 27.4182 26.4562C27.3819 26.4925 27.3456 26.4925 27.3165 26.4562C27.4182 26.2964 27.4182 26.1221 27.4182 25.9406C27.4182 25.4178 27.4182 24.8949 27.4182 24.3793C27.44 24.3575 27.4618 24.3358 27.4835 24.314C28.1226 24.1978 28.7689 24.1106 29.4007 24.3721Z" fill="#682A00"/>
<path fill-rule="evenodd" clip-rule="evenodd" d="M49.8135 32.6288C50.4452 32.4981 51.0843 32.5925 51.7233 32.5707C51.8322 32.5634 51.9121 32.6215 51.9121 32.745C51.9121 33.2896 51.9121 33.827 51.9121 34.3716C51.9121 34.5967 51.7451 34.5749 51.5999 34.5749C51.0117 34.5749 50.4162 34.5822 49.828 34.5822L49.8353 34.5895C49.8498 33.9286 49.8716 33.2678 49.828 32.6143L49.8135 32.6288Z" fill="#010101"/>
<path fill-rule="evenodd" clip-rule="evenodd" d="M31.4921 34.5966C31.4631 35.2574 31.5502 35.9255 31.4413 36.5936C30.8822 36.5863 30.3303 36.5791 29.7711 36.5718C29.4298 36.5646 29.4225 36.5573 29.4153 36.2087C29.408 35.6714 29.4008 35.1267 29.3935 34.5894L29.3862 34.5966C30.0906 34.5603 30.795 34.5458 31.4921 34.5966Z" fill="#FFFFFE"/>
<path fill-rule="evenodd" clip-rule="evenodd" d="M47.8456 34.5967C47.8456 35.134 47.8456 35.6714 47.8383 36.2088C47.8383 36.3395 47.8746 36.4702 47.7875 36.5864C47.2283 36.5791 46.6692 36.5646 46.11 36.5719C45.8631 36.5719 45.7542 36.4992 45.7687 36.2378C45.7833 35.7949 45.776 35.3519 45.7687 34.9017C45.7615 34.6911 45.8123 34.5531 46.0665 34.5676C46.6547 34.5894 47.2501 34.5386 47.8456 34.5967Z" fill="#FFFEFE"/>
<path fill-rule="evenodd" clip-rule="evenodd" d="M27.3094 26.4563C27.3457 26.4563 27.3747 26.4563 27.411 26.4563C27.411 27.001 27.411 27.5456 27.411 28.0902C27.4038 28.4533 27.4038 28.4606 27.0625 28.4606C26.4888 28.4606 25.9078 28.4533 25.3342 28.4461C25.3342 27.9087 25.3269 27.3641 25.3342 26.8267C25.3414 26.4781 25.3559 26.4636 25.6972 26.4563C26.2346 26.4491 26.772 26.4563 27.3094 26.4563Z" fill="#682A00"/>
<path fill-rule="evenodd" clip-rule="evenodd" d="M29.4006 34.5893C28.856 34.582 28.3113 34.582 27.7667 34.5748C27.4254 34.5675 27.4181 34.5675 27.4181 34.2117C27.4109 33.7469 27.4181 33.2894 27.4181 32.8247C27.4181 32.6722 27.4545 32.5633 27.636 32.5705C28.2242 32.5923 28.8197 32.5124 29.4079 32.6141L29.4006 32.6068C29.4514 33.2677 29.4442 33.9285 29.4006 34.5893Z" fill="#010100"/>
<path fill-rule="evenodd" clip-rule="evenodd" d="M37.6501 46.7817C37.4831 46.6873 37.5339 46.5276 37.5339 46.3824C37.5267 46.0556 37.5267 45.7288 37.5339 45.3948C37.5412 45.1842 37.4468 45.097 37.2435 45.097C36.815 45.1043 36.3866 45.1043 35.9654 45.097C35.7258 45.0898 35.6459 45.1987 35.6531 45.4238C35.6604 45.7361 35.6604 46.0483 35.6531 46.3606C35.6531 46.5058 35.6967 46.6583 35.566 46.7745C35.566 46.2153 35.566 45.6634 35.5587 45.1043C35.5515 44.8719 35.6459 44.7848 35.8783 44.7848C36.4665 44.792 37.0547 44.792 37.6429 44.792L37.6356 44.7848C37.8825 45.4601 37.8535 46.1209 37.6501 46.7817Z" fill="#B26632"/>
<path fill-rule="evenodd" clip-rule="evenodd" d="M55.9714 28.475C55.9787 27.7997 55.9787 27.1243 55.986 26.4563C56.0441 26.4272 56.0949 26.4417 56.1385 26.4926C56.2692 26.7395 56.2401 27.0082 56.2256 27.2623C56.2038 27.6762 56.2837 28.0756 56.32 28.4823C56.1457 29.4554 56.2764 30.443 56.2401 31.4233C56.2329 31.6847 56.2619 31.9461 56.2256 32.2076C56.2038 32.3673 56.2474 32.5924 55.9714 32.5997C55.9714 32.5634 55.9714 32.5271 55.9714 32.498C55.9714 31.1546 55.9714 29.8185 55.9714 28.475Z" fill="#682A00"/>
<path fill-rule="evenodd" clip-rule="evenodd" d="M29.4952 20.3054C29.4952 19.7608 29.5024 19.2162 29.4952 18.6715C29.4879 18.4246 29.575 18.3012 29.8365 18.323C29.9672 18.3302 30.0979 18.323 30.2359 18.323C36.1106 18.323 41.9781 18.323 47.8529 18.323C47.8529 18.8676 47.8456 19.4122 47.8529 19.9569C47.8601 20.2038 47.773 20.3272 47.5116 20.3054C47.4099 20.2982 47.3155 20.3054 47.2139 20.3054C41.31 20.3054 35.399 20.3054 29.4952 20.3054Z" fill="#682A00"/>
<path fill-rule="evenodd" clip-rule="evenodd" d="M29.4952 24.3722C29.4952 23.8275 29.5025 23.2829 29.4952 22.7383C29.4879 22.4914 29.5678 22.3606 29.8365 22.3824C29.9527 22.3897 30.0689 22.3824 30.1851 22.3824C33.3294 22.3824 36.4737 22.3824 39.6181 22.3824C39.6181 22.9271 39.6108 23.4717 39.6253 24.0163C39.6326 24.2632 39.5527 24.3939 39.284 24.3722C39.1896 24.3649 39.088 24.3722 38.9863 24.3722C35.8202 24.3722 32.6613 24.3722 29.4952 24.3722Z" fill="#682A00"/>
<path fill-rule="evenodd" clip-rule="evenodd" d="M51.9194 18.323C52.4786 18.323 53.0305 18.3303 53.5824 18.323C53.8148 18.323 53.9019 18.4102 53.9019 18.6425C53.8946 19.1944 53.9019 19.7536 53.9019 20.3055C53.2411 20.5524 52.5803 20.5524 51.9194 20.3055C51.9194 19.6447 51.9194 18.9838 51.9194 18.323Z" fill="#682A00"/>
<path fill-rule="evenodd" clip-rule="evenodd" d="M47.8455 16.239C47.9762 16.239 48.1069 16.239 48.2449 16.239C48.775 15.9921 49.3051 16.0139 49.8352 16.239C49.8352 16.8998 49.8352 17.5606 49.8352 18.2215C49.1744 18.2215 48.5135 18.2215 47.8527 18.2215C47.6058 17.5606 47.6058 16.8998 47.8455 16.239Z" fill="#682A00"/>
<path fill-rule="evenodd" clip-rule="evenodd" d="M47.8457 14.1549C41.9346 14.1549 36.0235 14.1549 30.1125 14.1549C29.4517 14.1549 29.4952 14.1913 29.4952 13.5377C29.4952 13.1746 29.4952 12.8115 29.4952 12.4484C29.4952 12.2669 29.5751 12.1725 29.7639 12.1725C29.8656 12.1725 29.96 12.1725 30.0616 12.1725C35.9872 12.1725 41.9201 12.1725 47.8457 12.1725C47.8457 12.8333 47.8457 13.4941 47.8457 14.1549Z" fill="#4F2000"/>
<path fill-rule="evenodd" clip-rule="evenodd" d="M49.8353 16.239C49.3052 16.239 48.7751 16.239 48.245 16.239C48.1433 16.0937 47.9835 16.1518 47.8456 16.1373C47.5987 15.5128 47.5987 14.881 47.8456 14.2492C48.5064 14.2492 49.1672 14.2492 49.828 14.2492C49.8353 14.9173 49.8353 15.5781 49.8353 16.239Z" fill="#4F2000"/>
<path fill-rule="evenodd" clip-rule="evenodd" d="M25.3341 22.288C24.6733 22.288 24.0125 22.288 23.3517 22.288C23.3517 21.6271 23.3517 20.9663 23.3517 20.3055C24.0125 20.0586 24.6733 20.0586 25.3341 20.3055C25.5738 20.9663 25.5738 21.6271 25.3341 22.288Z" fill="#682A00"/>
<path fill-rule="evenodd" clip-rule="evenodd" d="M25.4286 24.3722C25.4286 23.813 25.4359 23.2611 25.4286 22.7092C25.4286 22.4768 25.5157 22.3897 25.7481 22.3897C26.3 22.397 26.8592 22.3897 27.411 22.3897C27.6579 23.0505 27.6579 23.7113 27.411 24.3722C26.7502 24.3722 26.0894 24.3722 25.4286 24.3722Z" fill="#682A00"/>
<path fill-rule="evenodd" clip-rule="evenodd" d="M55.9643 32.5996C56.1531 32.4689 56.0732 32.2728 56.0805 32.1058C56.0877 31.0238 56.0805 29.9491 56.0877 28.8671C56.0877 28.7073 56.0078 28.4822 56.2838 28.4386C56.7994 28.1554 57.3658 28.3588 57.9032 28.2861C57.9613 28.2861 58.0194 28.3079 58.0702 28.3442C58.1065 28.3805 58.1355 28.4096 58.1719 28.4459C58.0484 28.642 58.0702 28.8526 58.0702 29.0704C58.0702 30.668 58.0702 32.2656 58.0702 33.8559C58.0702 33.9721 58.0629 34.0883 58.0702 34.2045C58.0774 34.4151 57.983 34.5022 57.7725 34.5022C57.3295 34.4949 56.8865 34.4949 56.4363 34.5022C56.2838 34.5022 56.1023 34.4368 55.9861 34.6184C55.9861 35.9328 55.9933 37.2472 55.9933 38.5615C55.9933 39.1352 55.9933 39.7161 55.9861 40.2898C55.9788 40.6456 55.9715 40.6529 55.623 40.6602C55.18 40.6674 54.7298 40.6602 54.2868 40.6602C54.0835 40.6602 53.9746 40.5876 53.9891 40.3697C53.9963 40.268 53.9891 40.1736 53.9891 40.072C53.9891 37.7773 53.9891 35.4825 53.9891 33.1878C53.9891 33.137 53.9891 33.0862 53.9891 33.0426C53.9963 32.6141 53.9963 32.6142 54.432 32.6069C54.9476 32.5996 55.456 32.6069 55.9643 32.5996Z" fill="#4F2000"/>
<path fill-rule="evenodd" clip-rule="evenodd" d="M47.8457 16.2392C47.8457 16.9 47.8457 17.5608 47.8457 18.2216C41.9346 18.2216 36.0235 18.2216 30.1125 18.2216C29.4517 18.2216 29.4952 18.2579 29.4952 17.6044C29.4952 17.2413 29.4952 16.8782 29.4952 16.5151C29.4952 16.3336 29.5751 16.2392 29.7639 16.2464C29.9091 16.2464 30.0616 16.2464 30.2069 16.2464C36.0889 16.2392 41.9709 16.2392 47.8457 16.2392Z" fill="#4F2000"/>
<path fill-rule="evenodd" clip-rule="evenodd" d="M47.8456 14.2568C47.8456 14.8813 47.8456 15.513 47.8456 16.1448C41.9345 16.1448 36.0234 16.1448 30.1124 16.1448C29.4588 16.1448 29.4951 16.1811 29.4951 15.5276C29.4951 15.2008 29.4951 14.8667 29.4951 14.54C29.4951 14.3584 29.575 14.264 29.7638 14.264C29.909 14.264 30.0615 14.264 30.2068 14.264C36.0888 14.2567 41.9708 14.2568 47.8456 14.2568Z" fill="#682A00"/>
<path fill-rule="evenodd" clip-rule="evenodd" d="M25.3341 22.2879C25.3341 21.6271 25.3341 20.9663 25.3341 20.3054C25.4358 20.3054 25.5302 20.3054 25.6318 20.3054C26.1983 20.044 26.7719 20.1457 27.3529 20.2256C27.411 20.2546 27.4545 20.2982 27.4908 20.3563C27.5853 21.0026 27.6869 21.6561 27.4182 22.2952C26.7211 22.2879 26.024 22.2879 25.3341 22.2879Z" fill="#4F2000"/>
<path fill-rule="evenodd" clip-rule="evenodd" d="M25.3267 18.2214C25.3267 17.7131 25.3267 17.2047 25.3267 16.6964C25.3267 16.5367 25.2759 16.3624 25.4211 16.2389C26.082 15.992 26.75 16.0138 27.4109 16.2244C27.636 16.8925 27.6505 17.5606 27.4036 18.2214C26.721 18.2214 26.0239 18.2214 25.3267 18.2214Z" fill="#4F2000"/>
<path fill-rule="evenodd" clip-rule="evenodd" d="M25.3268 20.3055C24.666 20.3055 24.0052 20.3055 23.3444 20.3055C23.3444 19.6447 23.3444 18.9838 23.3444 18.323C23.9035 18.323 24.4554 18.3303 25.0146 18.323C25.2469 18.323 25.3341 18.4102 25.3341 18.6425C25.3268 19.1944 25.3268 19.7536 25.3268 20.3055Z" fill="#4F2000"/>
<path fill-rule="evenodd" clip-rule="evenodd" d="M27.411 22.288C27.411 21.6271 27.411 20.9663 27.411 20.3055C28.0718 20.0586 28.7327 20.0586 29.3935 20.3055C29.3935 20.8647 29.3862 21.4166 29.3935 21.9757C29.3935 22.2081 29.3063 22.2952 29.074 22.2952C28.5221 22.288 27.9702 22.288 27.411 22.288Z" fill="#682A00"/>
<path fill-rule="evenodd" clip-rule="evenodd" d="M29.4007 20.3055C28.7398 20.3055 28.079 20.3055 27.4182 20.3055C27.1713 19.6447 27.1713 18.9838 27.4182 18.323C27.9774 18.323 28.5293 18.3303 29.0811 18.323C29.3135 18.323 29.4007 18.4102 29.4007 18.6425C29.3934 19.1944 29.3934 19.7536 29.4007 20.3055Z" fill="#4F2000"/>
<path fill-rule="evenodd" clip-rule="evenodd" d="M27.411 24.3722C27.411 23.7113 27.411 23.0505 27.411 22.3897C27.9702 22.3897 28.5221 22.397 29.074 22.3897C29.3063 22.3897 29.3935 22.4768 29.3935 22.7092C29.3862 23.2684 29.3935 23.8203 29.3935 24.3794C28.7327 24.3722 28.0718 24.3722 27.411 24.3722Z" fill="#4F2000"/>
<path fill-rule="evenodd" clip-rule="evenodd" d="M27.411 16.2392C26.7502 16.2392 26.0894 16.2392 25.4286 16.2392C25.4286 15.5784 25.4286 14.9176 25.4286 14.264C26.0894 14.264 26.7502 14.264 27.411 14.2568C27.6797 14.8885 27.5853 15.5276 27.4764 16.1739C27.4546 16.1956 27.4328 16.2174 27.411 16.2392Z" fill="#682A00"/>
<path fill-rule="evenodd" clip-rule="evenodd" d="M27.411 18.2214C27.411 17.5606 27.411 16.8997 27.411 16.2389C28.0355 15.992 28.6673 15.992 29.2991 16.2389C29.408 16.3188 29.4007 16.435 29.4007 16.5512C29.4007 16.9796 29.408 17.4081 29.4007 17.8365C29.3935 18.2069 29.3862 18.2141 29.0013 18.2214C28.4712 18.2286 27.9411 18.2214 27.411 18.2214Z" fill="#682A00"/>
<path fill-rule="evenodd" clip-rule="evenodd" d="M29.2991 16.2388C28.6673 16.2388 28.0428 16.2388 27.411 16.2388C27.411 15.578 27.411 14.9172 27.411 14.2564C27.9339 14.2564 28.464 14.2491 28.9868 14.2564C29.3862 14.2636 29.3862 14.2709 29.3935 14.6776C29.4007 15.0407 29.3935 15.4037 29.3935 15.7596C29.4007 15.9339 29.3862 16.0936 29.2991 16.2388Z" fill="#4F2000"/>
<path fill-rule="evenodd" clip-rule="evenodd" d="M27.4109 18.3232C27.4109 18.984 27.4109 19.6448 27.4109 20.3057C26.8154 20.3057 26.22 20.3057 25.6245 20.3057C25.5083 20.1895 25.4139 20.0733 25.4212 19.8845C25.4357 19.4778 25.4357 19.0639 25.4212 18.65C25.4139 18.3813 25.5446 18.3159 25.7843 18.3159C26.3289 18.3305 26.8735 18.3232 27.4109 18.3232Z" fill="#682A00"/>
<path fill-rule="evenodd" clip-rule="evenodd" d="M56.0803 26.4564C56.044 26.4564 56.015 26.4564 55.9787 26.4564C55.7027 25.8028 55.8334 25.1275 55.8915 24.4594C55.9206 24.4013 55.9569 24.3577 56.015 24.3287C56.5596 24.3214 57.1043 24.3359 57.6489 24.3214C57.8595 24.3141 57.9974 24.3577 58.0555 24.5756C58.0555 25.171 58.0555 25.7665 58.0555 26.362C58.0555 26.3983 58.0555 26.4273 58.0555 26.4636C58.0555 26.5653 58.0555 26.6597 58.0555 26.7614C58.0047 26.7904 57.9539 26.7904 57.8958 26.7614C57.6271 26.5653 57.3076 26.6161 57.0098 26.6016C56.7049 26.5798 56.3708 26.6815 56.0803 26.4564Z" fill="#4F2000"/>
<path fill-rule="evenodd" clip-rule="evenodd" d="M58.063 24.5757C57.9396 24.4304 57.7943 24.3651 57.5982 24.3723C57.0609 24.3868 56.5235 24.3796 55.9789 24.3796C55.732 23.7188 55.732 23.0579 55.9789 22.3971C56.7704 22.3971 57.5619 22.4044 58.3607 22.4044C58.1647 22.782 57.7871 22.7602 57.4603 22.782C57.1044 22.8038 56.7414 22.8401 56.3855 22.7166C56.1822 22.644 56.0805 22.7602 56.0805 22.9708C56.0805 23.2976 56.0878 23.6316 56.0805 23.9584C56.0733 24.1908 56.1677 24.2852 56.4001 24.2779C56.843 24.2707 57.286 24.2852 57.729 24.2707C57.9541 24.2707 58.0848 24.3288 58.063 24.5757Z" fill="#682A00"/>
<path fill-rule="evenodd" clip-rule="evenodd" d="M53.9962 20.3057C53.9962 19.7538 54.0035 19.1946 53.9962 18.6355C53.9962 18.4031 54.0906 18.3159 54.3157 18.3159C54.8676 18.3232 55.4268 18.3159 55.9859 18.3159C55.9859 18.9768 55.9859 19.6376 55.9859 20.2984C55.3251 20.5526 54.657 20.5526 53.9962 20.3057Z" fill="#4F2000"/>
<path fill-rule="evenodd" clip-rule="evenodd" d="M53.9963 20.3054C54.6571 20.3054 55.3179 20.3054 55.9787 20.3054C55.9787 20.9663 55.9787 21.6271 55.9787 22.2879C55.4196 22.2879 54.8677 22.2806 54.3085 22.2879C54.0762 22.2879 53.989 22.2007 53.989 21.9684C54.0035 21.4165 53.9963 20.8646 53.9963 20.3054Z" fill="#682A00"/>
<path fill-rule="evenodd" clip-rule="evenodd" d="M57.9685 26.7542C57.9976 26.7542 58.0339 26.7542 58.0702 26.7542C58.0702 27.2843 58.0702 27.8144 58.0702 28.3372C58.0339 28.3372 58.0049 28.3372 57.9685 28.3372C57.7289 27.8144 57.7289 27.2843 57.9685 26.7542Z" fill="#682A00"/>
<path fill-rule="evenodd" clip-rule="evenodd" d="M55.986 22.3896C55.986 23.0504 55.986 23.7112 55.986 24.372C55.8408 24.5027 55.6592 24.5245 55.4777 24.5245C54.461 24.5318 53.4371 24.5318 52.4205 24.5245C52.239 24.5245 52.0574 24.5173 51.9194 24.372C51.9194 23.0141 51.9194 21.6634 51.9194 20.3054C52.5803 20.3054 53.2411 20.3054 53.9019 20.3054C53.9019 20.8791 53.8946 21.4528 53.9019 22.0192C53.9092 22.3605 53.9237 22.3823 54.265 22.3823C54.8387 22.3968 55.4123 22.3896 55.986 22.3896Z" fill="#4F2000"/>
<path fill-rule="evenodd" clip-rule="evenodd" d="M51.9122 24.3721C53.2701 24.3721 54.6208 24.3721 55.9787 24.3721C55.9787 25.0692 55.9787 25.7591 55.9787 26.4562C54.6571 26.4562 53.3355 26.4562 52.0138 26.4562C51.9775 26.4199 51.9485 26.3909 51.9122 26.3546C51.6725 25.6938 51.6725 25.0329 51.9122 24.3721Z" fill="#682A00"/>
<path fill-rule="evenodd" clip-rule="evenodd" d="M51.9194 24.3721C51.9194 25.0329 51.9194 25.6938 51.9122 26.3546C51.3893 26.3546 50.8592 26.3618 50.3364 26.3546C49.9442 26.3473 49.937 26.3401 49.937 25.977C49.9297 25.5848 49.9297 25.1927 49.937 24.7933C49.9442 24.3794 49.9442 24.3794 50.3436 24.3721C50.8665 24.3721 51.3893 24.3721 51.9194 24.3721Z" fill="#4F2100"/>
<path fill-rule="evenodd" clip-rule="evenodd" d="M37.6501 46.782C37.6428 46.1212 37.6356 45.4676 37.6283 44.8068C38.9862 44.8068 40.3442 44.8068 41.7021 44.8068C41.7021 45.3369 41.7094 45.867 41.7021 46.3898C41.6949 46.7747 41.6949 46.7892 41.3173 46.7892C40.0973 46.7892 38.8773 46.7892 37.6501 46.782Z" fill="#FFA255"/>
<path fill-rule="evenodd" clip-rule="evenodd" d="M57.9684 26.7539C57.9684 27.284 57.9684 27.8141 57.9684 28.3442C57.8595 28.4822 57.6998 28.4386 57.5545 28.4386C57.1261 28.4459 56.7049 28.4386 56.2765 28.4386C56.1022 28.2498 56.0659 28.0174 56.0731 27.7633C56.0876 27.3276 56.0731 26.8919 56.0731 26.4562C56.596 26.4562 57.1116 26.4634 57.6344 26.4489C57.8595 26.4489 57.9902 26.5142 57.9684 26.7539Z" fill="#682A00"/>
</svg>
