<svg width="79" height="81" viewBox="0 0 79 81" fill="none" xmlns="http://www.w3.org/2000/svg">
<rect x="0.340088" y="0.68206" width="77.9899" height="80.161" rx="5.34406" fill="#FF7852"/>
<path fill-rule="evenodd" clip-rule="evenodd" d="M55.3733 51.4195C55.3657 51.9876 55.3581 52.5557 55.3505 53.1162C55.343 53.5177 55.343 53.5177 54.9491 53.5253C54.487 53.5328 54.0174 53.5404 53.5553 53.5253C53.2977 53.5177 53.1841 53.5934 53.1917 53.8737C53.2068 54.3509 53.1841 54.8357 53.1993 55.3205C53.2068 55.5856 53.1311 55.6917 52.8508 55.6841C52.4039 55.669 51.957 55.6765 51.5101 55.6841C51.0783 55.6841 51.0707 55.6917 51.0707 56.1007C51.0632 56.5325 51.0707 56.9567 51.0707 57.3885C51.0632 57.7899 51.0632 57.7975 50.6768 57.7975C50.2678 57.8051 49.8512 57.7975 49.4421 57.7975C48.9573 57.7975 48.9498 57.8051 48.9498 58.3202C48.9498 58.7519 48.9346 59.1837 48.9498 59.6079C48.9573 59.8654 48.8513 59.9336 48.6165 59.9336C48.0181 59.9412 47.4121 59.8882 46.8137 59.9639C46.4349 60.1306 46.0334 60.0548 45.6396 60.0624C44.9199 60.0775 44.8972 60.0927 44.8896 60.8274C44.8896 61.085 44.8972 61.3425 44.8745 61.6001C44.8442 61.9864 44.6397 62.1909 44.2534 62.2212C44.064 62.2364 43.8746 62.2364 43.6852 62.2364C40.7916 62.2364 37.9056 62.2364 35.012 62.2364C34.8605 62.2364 34.7015 62.2288 34.55 62.2288C34.1182 62.2288 33.9212 62.0091 33.9212 61.5849C33.9212 61.4486 33.9137 61.3122 33.9137 61.1683C33.9137 59.9715 33.9515 60.0624 32.7699 60.0548C32.482 60.0548 32.179 60.1003 31.9063 59.9563C31.3231 59.8806 30.7398 59.9412 30.149 59.9185C29.7626 59.9033 29.7551 59.9033 29.7475 59.5094C29.7399 59.0473 29.7399 58.5777 29.7475 58.1156C29.7551 57.8657 29.6642 57.7823 29.4218 57.7899C28.937 57.8051 28.4598 57.7823 27.975 57.7975C27.725 57.8051 27.6417 57.7066 27.6493 57.4642C27.6644 56.9643 27.6493 56.4643 27.6568 55.9644C27.6644 55.7371 27.5735 55.6614 27.3538 55.6614C26.8539 55.669 26.3539 55.6538 25.854 55.669C25.5889 55.6765 25.4828 55.6008 25.498 55.3205C25.5207 54.8357 25.4904 54.3585 25.5056 53.8737C25.5131 53.601 25.4222 53.5101 25.1495 53.5177C24.6648 53.5328 24.1875 53.5177 23.7027 53.5253C23.4831 53.5328 23.3998 53.4419 23.3998 53.2223C23.3998 52.6163 23.3922 52.0179 23.3846 51.4119C23.1574 50.9877 23.2786 50.5332 23.2634 50.0939C23.2331 49.45 23.2028 49.4197 22.5438 49.3894C22.1045 49.3667 21.6424 49.5106 21.2333 49.2379L21.2409 49.2455C20.9758 48.8743 21.1046 48.4501 21.0818 48.0486C21.0667 47.7608 21.0667 47.4654 21.0894 47.1775C21.0667 45.3596 21.0818 43.534 21.0818 41.7085C21.0818 40.9283 21.0667 40.9207 20.3168 40.9207C19.3396 40.9131 19.3396 40.9131 19.3396 41.8676C19.3396 42.7084 19.3548 43.5492 19.3321 44.3976C19.3169 45.0338 19.2033 45.1626 18.5594 45.1399C18.0367 45.1247 17.4914 45.2838 16.9914 45.0035V45.0111C16.8248 44.8066 16.8323 44.5642 16.8323 44.3218C16.8323 42.6856 16.8248 41.0495 16.8323 39.4057C16.8399 38.6482 16.9535 38.5346 17.7035 38.527C18.5973 38.5195 19.4987 38.527 20.3925 38.5195C21.0137 38.5119 21.0667 38.4664 21.0743 37.8377C21.0818 35.5956 21.0743 33.3534 21.0743 31.1188C21.0743 30.9143 21.0743 30.7022 21.0894 30.4977C21.1121 30.1492 21.2939 29.9674 21.6424 29.9447C21.9151 29.9296 22.1954 29.9371 22.468 29.9296C23.2104 29.922 23.2407 29.8993 23.2483 29.1342C23.2483 28.907 23.2483 28.6873 23.2558 28.46C23.271 28.0889 23.4528 27.8919 23.8315 27.8692C24.2103 27.8541 24.589 27.8465 24.9677 27.8692C25.4828 27.8995 25.604 28.0207 25.6343 28.5282C25.6571 28.8388 25.6419 29.1494 25.6419 29.4599C25.6419 29.7856 25.7934 29.9296 26.1191 29.9296C27.8235 29.9371 29.5354 29.9371 31.2397 29.9296C31.5958 29.9296 31.7321 29.7553 31.7321 29.4221C31.7321 29.0963 31.7245 28.7706 31.7473 28.4373C31.77 28.0889 31.9442 27.8995 32.2926 27.8768C32.7396 27.8541 33.1865 27.8616 33.6334 27.8692C34.0424 27.8844 34.2167 28.104 34.2242 28.4979C34.2318 28.8236 34.2318 29.1494 34.2394 29.4827C34.247 29.7856 34.3909 29.922 34.6863 29.9296C34.9817 29.9371 35.2696 29.9296 35.565 29.9371C36.1558 29.9599 36.277 30.0811 36.2997 30.6871C36.3149 30.9976 36.3073 31.3082 36.3073 31.6188C36.3073 31.9293 36.4209 32.1036 36.7618 32.1036C38.4889 32.1036 40.2084 32.1111 41.9354 32.1036C42.2687 32.1036 42.3899 31.9293 42.3899 31.6188C42.3899 31.293 42.3824 30.9597 42.3975 30.634C42.4278 30.0886 42.549 29.9674 43.0793 29.9371C43.4201 29.9144 43.7686 29.9371 44.1094 29.922C44.4049 29.9144 44.5488 29.7781 44.5563 29.4751C44.5639 29.1494 44.5564 28.8236 44.5715 28.4903C44.5867 28.0965 44.7609 27.8768 45.1623 27.8616C45.579 27.8465 45.988 27.8389 46.4046 27.8692C46.7606 27.8919 46.9273 28.0813 46.95 28.4297C46.9652 28.7555 46.9652 29.0812 46.9652 29.4145C46.9652 29.7553 47.1091 29.922 47.4575 29.922C49.1619 29.922 50.8738 29.9296 52.5781 29.922C52.8963 29.922 53.0478 29.7781 53.0478 29.4524C53.0478 29.1266 53.0478 28.8009 53.0553 28.4676C53.0705 28.104 53.2296 27.8844 53.6159 27.8692C54.078 27.8465 54.5476 27.8465 55.0097 27.8768C55.3354 27.8995 55.502 28.0813 55.5323 28.407C55.555 28.7327 55.5551 29.0585 55.5475 29.3918C55.5399 29.7932 55.7217 29.9599 56.108 29.9296C56.2292 29.922 56.3504 29.9296 56.4716 29.9296C57.5851 29.9296 57.6154 29.9599 57.6154 31.1037C57.6154 32.0657 57.6154 33.0353 57.6154 33.9973C57.6154 35.2698 57.6078 36.55 57.6154 37.8226C57.623 38.4361 57.6912 38.5043 58.3047 38.5119C59.2213 38.5195 60.1303 38.5043 61.0468 38.5195C61.7134 38.527 61.8498 38.6558 61.8498 39.3073C61.8649 41.0116 61.8573 42.7235 61.8498 44.4279C61.8498 44.64 61.8346 44.8445 61.6983 45.0187V45.0035C61.0317 45.2762 60.3424 45.1626 59.6682 45.0869C59.3576 45.049 59.3652 44.7006 59.3576 44.4506C59.3425 43.5416 59.3576 42.625 59.3501 41.7085C59.3501 40.951 59.3273 40.9283 58.5699 40.9207C57.6154 40.9131 57.6078 40.9131 57.6154 41.8903C57.6154 44.0946 57.6154 46.2989 57.5927 48.5031C57.5927 48.7607 57.6381 49.0258 57.4563 49.2455H57.4715C57.0549 49.503 56.6004 49.3742 56.161 49.3894C55.4793 49.4197 55.4566 49.4424 55.4263 50.1317C55.4187 50.5635 55.5248 50.9953 55.3733 51.4195Z" fill="#AD5E00"/>
<path fill-rule="evenodd" clip-rule="evenodd" d="M61.7059 45.0263C61.7059 43.0568 61.7135 41.0949 61.7135 39.1254C61.7135 38.6709 61.7059 38.6634 61.259 38.6634C60.2439 38.6634 59.2213 38.6634 58.2063 38.6634C57.3503 38.6634 57.4715 38.7012 57.4715 37.8983C57.464 35.535 57.4715 33.1716 57.4715 30.8082C57.4715 30.687 57.464 30.5658 57.4715 30.4446C57.4867 30.2022 57.3958 30.1038 57.1458 30.1113C56.7141 30.1265 56.2823 30.1189 55.8505 30.1113C55.3582 30.1113 55.3582 30.1038 55.3582 29.6341C55.3506 29.2175 55.3657 28.8085 55.3582 28.3919C55.3506 28.0131 55.343 28.0055 54.987 27.998C54.5022 27.9904 54.025 28.0055 53.5402 27.9904C53.3054 27.9828 53.1917 28.0661 53.1993 28.3161C53.2145 28.763 53.2069 29.2099 53.1993 29.6644C53.1917 30.0962 53.1918 30.1113 52.7827 30.1113C50.9344 30.1113 49.0938 30.1113 47.2455 30.1113C46.8213 30.1113 46.8137 30.1038 46.8137 29.6796C46.8061 29.2327 46.8061 28.7857 46.8137 28.3313C46.8213 28.0964 46.7455 27.9828 46.488 27.9904C46.0032 28.0055 45.5184 28.0055 45.0412 27.9904C44.7609 27.9828 44.6852 28.1116 44.6928 28.3616C44.7003 28.8085 44.7003 29.2554 44.6928 29.7099C44.6852 30.0962 44.6776 30.1038 44.2761 30.1113C43.8292 30.1189 43.3823 30.1038 42.9278 30.1113C42.5718 30.1189 42.5642 30.1265 42.5566 30.4977C42.5491 30.9597 42.5491 31.4294 42.5566 31.8914C42.5642 32.1338 42.5112 32.2702 42.2233 32.2702C40.3069 32.2626 38.398 32.2626 36.4816 32.2702C36.2392 32.2702 36.1407 32.1944 36.1483 31.9445C36.1635 31.4597 36.1559 30.9825 36.1483 30.4977C36.1407 30.1265 36.1407 30.1189 35.7771 30.1113C35.3832 30.1038 34.9818 30.1113 34.5879 30.1113C34.0349 30.1113 34.0349 30.1113 34.0349 29.5357C34.0349 29.1569 34.0425 28.7782 34.0349 28.3994C34.0273 28.0131 34.0198 28.0055 33.6183 27.998C33.1714 27.9904 32.7245 28.0055 32.27 27.9904C32.0124 27.9828 31.8912 28.0661 31.9064 28.3464C31.9215 28.7933 31.914 29.2402 31.9064 29.6947C31.8988 30.1038 31.8988 30.1113 31.5201 30.1113C29.6415 30.1189 27.7629 30.1189 25.8844 30.1113C25.5208 30.1113 25.5132 30.0962 25.5056 29.725C25.498 29.263 25.498 28.7933 25.5056 28.3313C25.5132 28.0889 25.4147 27.9904 25.1723 27.998C24.7103 28.0055 24.2406 27.998 23.7785 28.0055C23.4225 28.0131 23.4225 28.0207 23.415 28.3994C23.4074 28.8312 23.415 29.263 23.415 29.6947C23.4074 30.1113 23.4074 30.1113 22.9756 30.1189C22.5287 30.1265 22.0818 30.1113 21.6273 30.1189C21.2637 30.1265 21.2561 30.1341 21.2561 30.5052C21.2485 31.8157 21.2561 33.1261 21.2561 34.4366C21.2561 35.6637 21.2561 36.8833 21.2561 38.1104C21.2561 38.6634 21.2561 38.6634 20.6804 38.6634C19.6427 38.6634 18.6125 38.6634 17.5747 38.6634C17.0066 38.6634 16.999 38.6634 16.999 39.2163C16.999 41.0267 16.999 42.8371 16.999 44.6475C16.999 44.7687 16.9915 44.8899 16.9915 45.0111C16.4234 45.0111 15.8552 45.0187 15.2871 45.0187C14.8478 45.0187 14.8402 45.0111 14.8402 44.5566C14.8402 42.1402 14.8402 39.7314 14.8402 37.315C14.8402 36.4515 14.8402 35.588 14.8402 34.732C14.8402 34.3684 14.8478 34.3608 15.2114 34.3608C15.6431 34.3533 16.0749 34.3608 16.5067 34.3608C16.9915 34.3608 16.9915 34.3608 16.9915 33.8912C16.9915 32.7853 16.9915 31.6869 16.9915 30.581C16.9915 30.1189 16.999 30.1113 17.4763 30.1113C17.908 30.1113 18.3398 30.0962 18.7716 30.1189C19.0291 30.1265 19.0973 30.028 19.0973 29.7856C19.0897 29.0281 19.0973 28.2707 19.0973 27.5132C19.0973 26.4072 19.0973 25.3089 19.0973 24.203C19.0973 23.7106 19.0973 23.7106 19.6124 23.703C20.0593 23.703 20.5062 23.6954 20.9607 23.703C21.1879 23.7106 21.2637 23.6197 21.2561 23.4C21.2485 22.9531 21.2485 22.5062 21.2561 22.0517C21.2561 21.6199 21.2637 21.6199 21.6727 21.6123C22.1348 21.6048 22.6044 21.5972 23.0665 21.6123C23.3468 21.6199 23.415 21.5063 23.415 21.2488C23.4074 20.1655 23.4074 19.0748 23.4074 17.9916C23.4074 17.8704 23.415 17.7492 23.4074 17.628C23.3922 17.431 23.4831 17.3553 23.6801 17.3553C24.18 17.3628 24.68 17.3477 25.1799 17.3628C25.4374 17.3704 25.5132 17.2644 25.5056 17.0296C25.4905 16.5675 25.498 16.0978 25.5056 15.6358C25.5056 15.2116 25.5132 15.204 25.9222 15.204C26.9903 15.204 28.0583 15.204 29.1264 15.204C29.2476 15.204 29.3688 15.1964 29.49 15.204C29.7021 15.2192 29.7551 15.1131 29.7551 14.9237C29.7475 14.439 29.7475 13.9617 29.7551 13.4769C29.7627 13.0527 29.7627 13.0452 30.1869 13.0452C31.967 13.0452 33.7395 13.0452 35.512 13.0452C35.6332 13.0452 35.7544 13.0376 35.8756 13.0452C36.0726 13.0527 36.1483 12.9694 36.1483 12.7725C36.1407 12.2877 36.1407 11.8105 36.1483 11.3257C36.1559 10.9697 36.1559 10.9621 36.527 10.9545C38.4208 10.9545 40.3221 10.9545 42.2158 10.9469C42.4885 10.9469 42.5718 11.0454 42.5642 11.303C42.5491 11.7499 42.5566 12.1968 42.5642 12.6513C42.5718 13.0376 42.5718 13.0452 42.9733 13.0452C44.2004 13.0452 45.4199 13.0452 46.6471 13.0452C47.2985 13.0452 47.9575 13.0527 48.609 13.0452C48.8589 13.0376 48.9422 13.1361 48.9422 13.3785C48.9347 13.8633 48.9347 14.3405 48.9422 14.8253C48.9498 15.1889 48.9498 15.1964 49.3134 15.204C50.3966 15.2116 51.4874 15.204 52.5706 15.204C53.2826 15.204 53.1842 15.1207 53.1917 15.8403C53.1993 16.2342 53.1993 16.6357 53.1917 17.0296C53.1842 17.2719 53.2675 17.3704 53.5175 17.3628C53.9795 17.3477 54.4492 17.3553 54.9112 17.3628C55.3051 17.3704 55.3127 17.3704 55.3203 17.7643C55.3279 18.8854 55.3203 20.0065 55.3203 21.1276C55.3203 21.6123 55.3279 21.6123 55.7975 21.6123C56.2596 21.6123 56.7292 21.6199 57.1913 21.6123C57.3882 21.6123 57.464 21.6881 57.464 21.885C57.4564 22.3168 57.464 22.7486 57.464 23.1803C57.464 23.7409 57.4185 23.6954 58.0018 23.703C58.3805 23.703 58.7593 23.703 59.138 23.703C59.5395 23.7106 59.5471 23.7106 59.5546 24.0969C59.5622 24.7332 59.5546 25.3695 59.5546 26.0133C59.5546 27.2556 59.5546 28.4979 59.5546 29.7402C59.5546 30.1113 59.5622 30.1113 59.9258 30.1189C60.3879 30.1265 60.8575 30.1189 61.3196 30.1189C61.6832 30.1189 61.6907 30.1265 61.6983 30.4825C61.7059 31.5657 61.6983 32.6565 61.6983 33.7397C61.6983 34.4442 61.6074 34.3533 62.3422 34.3608C62.7209 34.3608 63.0997 34.376 63.4784 34.3533C63.7511 34.3381 63.8344 34.4517 63.8269 34.7169C63.8193 36.0273 63.8269 37.3378 63.8269 38.6482C63.8269 40.5647 63.8269 42.4735 63.8269 44.39C63.8269 44.496 63.8193 44.5945 63.8269 44.7005C63.8496 44.9505 63.7435 45.0338 63.5011 45.0338C62.9179 45.0111 62.3119 45.0187 61.7059 45.0263Z" fill="black"/>
<path fill-rule="evenodd" clip-rule="evenodd" d="M31.9064 59.9638C32.5199 59.8578 33.1411 59.9335 33.7546 59.9184C34.0122 59.9108 34.0576 60.0926 34.0576 60.3047C34.0576 60.7364 34.0576 61.1682 34.0576 61.5924C34.0652 62.0545 34.0652 62.0696 34.5046 62.0696C37.739 62.0696 40.9735 62.0696 44.208 62.0696C44.6776 62.0696 44.7079 62.0393 44.7079 61.5772C44.7155 61.1303 44.7155 60.6834 44.7079 60.2365C44.7079 60.0244 44.7836 59.9108 45.0109 59.9184C45.6093 59.9411 46.2153 59.8653 46.8137 59.9638C46.8061 61.3879 46.7986 62.8044 46.791 64.2284C46.4274 64.5314 46.0032 64.3951 45.6017 64.4027C44.8215 64.4254 44.7912 64.4405 44.7912 65.2283C44.7912 65.4556 44.7836 65.6752 44.8064 65.9025C44.8518 66.3115 44.6397 66.463 44.2686 66.4782C44.0943 66.4858 43.9277 66.4858 43.7535 66.4858C40.8447 66.4858 37.936 66.4858 35.0348 66.4858C34.9136 66.4858 34.7924 66.4858 34.6712 66.4858C34.0501 66.463 33.9364 66.3418 33.9137 65.7055C33.9061 65.448 33.8986 65.1905 33.9061 64.9329C33.9137 64.5542 33.7395 64.4027 33.3759 64.4178C33.088 64.4254 32.7926 64.4254 32.4972 64.4178C32.2927 64.4102 32.0806 64.4178 31.9291 64.236C31.9215 62.8044 31.9139 61.3879 31.9064 59.9638Z" fill="#4C2800"/>
<path fill-rule="evenodd" clip-rule="evenodd" d="M31.929 64.2284C32.4592 64.2284 32.997 64.236 33.5273 64.236C34.05 64.236 34.0575 64.2435 34.0575 64.7889C34.0575 65.1677 34.05 65.5464 34.0575 65.9252C34.0651 66.3115 34.0727 66.3191 34.4741 66.3266C35.1786 66.3342 35.8831 66.3266 36.5875 66.3266C39.0645 66.3266 41.5491 66.3266 44.0261 66.3266C44.1473 66.3266 44.2684 66.3191 44.3896 66.3266C44.6017 66.3342 44.6851 66.2888 44.6623 66.0312C44.6169 65.5843 44.632 65.1374 44.6396 64.6905C44.6472 64.289 44.6926 64.2435 45.0865 64.236C45.6546 64.2284 46.2228 64.2284 46.7909 64.2284C46.806 64.9253 46.8212 65.6297 46.8363 66.3266C46.8288 66.8569 46.8212 67.3947 46.8136 67.9249C46.806 68.4779 46.8591 68.44 46.2682 68.44C45.8364 68.44 45.4047 68.4476 44.9805 68.44C44.7608 68.4324 44.6699 68.5158 44.6775 68.743C44.6851 69.1899 44.6775 69.6368 44.6775 70.0838C44.6775 70.6367 44.6851 70.5761 44.1624 70.5761C41.2385 70.5761 38.307 70.5761 35.3831 70.5761C35.0877 70.5761 34.7999 70.5761 34.5044 70.5761C33.9742 70.5761 34.0197 70.5989 34.0197 70.061C34.0197 69.6293 34.0121 69.1975 34.0197 68.7733C34.0272 68.5309 33.9288 68.44 33.6864 68.4476C33.2546 68.4627 32.8228 68.4552 32.3986 68.4476C31.9138 68.4476 31.9138 68.44 31.9063 67.978C31.8987 67.425 31.8911 66.8796 31.8835 66.3266C31.9063 65.6297 31.9138 64.9253 31.929 64.2284Z" fill="#AD5E00"/>
<path fill-rule="evenodd" clip-rule="evenodd" d="M57.464 49.2528C57.464 46.5486 57.464 43.852 57.4716 41.1477C57.4716 40.7841 57.4867 40.7766 57.8579 40.769C58.2897 40.7614 58.7214 40.7614 59.1456 40.769C59.5244 40.7766 59.5395 40.7841 59.5395 41.1932C59.5471 42.2082 59.5395 43.2232 59.5395 44.2383C59.5395 44.3595 59.5395 44.4807 59.5395 44.6019C59.5547 44.9882 59.5546 44.9958 59.9561 45.0033C60.5394 45.0109 61.1226 45.0109 61.7135 45.0109C61.7362 45.0412 61.7286 45.0791 61.7059 45.1094C61.3045 45.3897 60.8424 45.2533 60.403 45.2685C59.7062 45.2912 59.7061 45.2912 59.6834 45.9956C59.6683 46.3971 59.7895 46.8213 59.5319 47.2H59.5395C59.1456 47.4576 58.6987 47.344 58.2821 47.344C57.8579 47.344 57.714 47.4955 57.7064 47.9197C57.6988 48.3666 57.8503 48.8514 57.5397 49.268L57.5019 49.2907L57.464 49.2528Z" fill="#4C2800"/>
<path fill-rule="evenodd" clip-rule="evenodd" d="M16.9914 45.0036C17.5747 45.0036 18.1579 45.0036 18.7488 45.0036C19.1427 44.996 19.1578 44.996 19.1578 44.5946C19.1654 43.5265 19.1578 42.4585 19.1578 41.398C19.1578 41.2768 19.1578 41.1556 19.1578 41.0344C19.1578 40.8753 19.226 40.7693 19.4002 40.7693C19.9305 40.7693 20.4683 40.7693 20.9985 40.7693C21.1727 40.7693 21.2409 40.8677 21.2409 41.0344C21.2409 41.1404 21.2409 41.2389 21.2409 41.3449C21.2409 43.2917 21.2409 45.2309 21.2409 47.1776C20.5592 47.4579 19.8699 47.3897 19.1805 47.223C18.8927 46.8216 19.0366 46.3671 19.0139 45.9353C18.9836 45.299 18.976 45.2915 18.3473 45.2612C17.9004 45.2384 17.4232 45.3899 17.0066 45.1021C16.9838 45.0718 16.9763 45.0415 16.9914 45.0036Z" fill="#4C2800"/>
<path fill-rule="evenodd" clip-rule="evenodd" d="M21.2333 49.2455C21.8014 49.2531 22.3619 49.2607 22.9301 49.2758C23.3997 49.2834 23.4073 49.2834 23.4073 49.7227C23.4073 50.2908 23.3921 50.8514 23.3845 51.4195C22.8013 51.4195 22.218 51.4195 21.6272 51.4195C21.2636 51.4195 21.256 51.4119 21.2484 51.0559C21.2409 50.4499 21.2409 49.8439 21.2333 49.2455Z" fill="#010000"/>
<path fill-rule="evenodd" clip-rule="evenodd" d="M55.3734 51.4193C55.2522 50.7906 55.3355 50.1618 55.3204 49.5255C55.3128 49.321 55.4567 49.2756 55.6309 49.2756C56.04 49.2756 56.449 49.2756 56.8657 49.2756C57.0702 49.2756 57.2747 49.2604 57.4792 49.2529C57.4792 49.8285 57.4792 50.4118 57.4716 50.9951C57.4716 51.4193 57.4641 51.4193 57.0626 51.4193C56.5021 51.4193 55.9339 51.4193 55.3734 51.4193Z" fill="#020100"/>
<path fill-rule="evenodd" clip-rule="evenodd" d="M17.0066 45.1019C17.5596 45.1019 18.105 45.1019 18.6579 45.1094C19.1579 45.1094 19.1579 45.117 19.1579 45.6321C19.1654 46.1472 19.1654 46.6623 19.173 47.1774C19.4003 47.8591 19.4306 48.5408 19.1655 49.2226C18.9988 48.9196 19.12 48.5939 19.0897 48.2757C19.0518 47.9197 19.2336 47.4652 19.0064 47.238C18.7564 46.9804 18.2943 47.1698 17.9232 47.1471C17.7187 47.1319 17.5141 47.1319 17.3096 47.1471C17.0596 47.1622 16.9839 47.0486 16.9839 46.8062C17.0066 46.2305 17.0066 45.6624 17.0066 45.1019Z" fill="#010101"/>
<path fill-rule="evenodd" clip-rule="evenodd" d="M59.5319 47.1852C59.5319 46.6398 59.5244 46.0944 59.5319 45.5414C59.5395 45.1097 59.5395 45.1097 59.9561 45.1021C60.5394 45.0945 61.1151 45.1021 61.6983 45.0945C61.7059 45.6626 61.6983 46.2307 61.7135 46.7989C61.7211 47.0488 61.6302 47.1397 61.3802 47.1246C60.9484 47.1094 60.5167 47.1246 60.0849 47.1246C59.9031 47.1321 59.7137 47.1246 59.5319 47.1852Z" fill="#010101"/>
<path fill-rule="evenodd" clip-rule="evenodd" d="M19.173 49.215C19.173 48.5333 19.1806 47.8515 19.1806 47.1698C19.8699 47.1698 20.5592 47.1698 21.2485 47.1698C21.2485 47.8591 21.2485 48.556 21.2485 49.2453C20.5516 49.2453 19.8547 49.3059 19.173 49.215Z" fill="#000001"/>
<path fill-rule="evenodd" clip-rule="evenodd" d="M57.5472 49.2453C57.5472 48.6772 57.5472 48.1091 57.5624 47.541C57.57 47.185 57.5851 47.1698 57.9487 47.1623C58.4789 47.1547 59.0168 47.1698 59.547 47.1774C59.5546 47.7607 59.5546 48.3439 59.5773 48.9272C59.5849 49.1696 59.5016 49.2681 59.2516 49.2605C58.6759 49.2453 58.1078 49.2529 57.5472 49.2453Z" fill="#010101"/>
<path fill-rule="evenodd" clip-rule="evenodd" d="M44.6247 55.6462C44.0944 55.6538 43.5566 55.6614 43.0264 55.6689C42.5643 55.6765 42.5643 55.6765 42.5567 56.1159C42.5491 56.5628 42.5491 57.0097 42.5567 57.4566C42.5643 57.7141 42.481 57.8278 42.2007 57.8278C40.2918 57.8202 38.383 57.8202 36.4741 57.8278C36.1863 57.8278 36.1257 57.699 36.1332 57.449C36.1408 56.987 36.1408 56.5173 36.1332 56.0553C36.1257 55.6841 36.1181 55.6765 35.7621 55.6689C35.194 55.6538 34.6258 55.6538 34.0653 55.6462C33.982 54.9645 33.982 54.2827 34.0653 53.601C34.1032 53.5934 34.1335 53.5858 34.1638 53.5858C37.6179 53.5858 41.0645 53.5858 44.5186 53.5858C44.5489 53.5858 44.5868 53.5934 44.6171 53.601C44.708 54.2827 44.708 54.9645 44.6247 55.6462Z" fill="#4C2800"/>
<path fill-rule="evenodd" clip-rule="evenodd" d="M27.6643 42.9356C27.6643 41.663 27.6643 40.398 27.6643 39.1255C27.6643 38.7013 27.6719 38.6937 28.0809 38.6937C28.5127 38.6861 28.9369 38.6937 29.3687 38.6937C29.4823 38.6937 29.611 38.7316 29.7095 38.6331C29.6792 38.5573 29.6944 38.5346 29.7701 38.5725C29.8762 38.065 29.8004 37.5423 29.8156 37.0348C29.8307 36.5424 29.8231 36.5424 30.2852 36.5424C30.7321 36.5424 31.179 36.55 31.626 36.5424C31.8229 36.5424 31.9138 36.6182 31.9062 36.8151C31.8987 36.8833 31.9062 36.9515 31.9062 37.0196C31.9062 38.83 31.9062 40.6404 31.9062 42.4433C31.9062 42.9205 31.8987 42.9205 31.4214 42.928C30.1716 42.9205 28.9142 42.9205 27.6643 42.9356Z" fill="black"/>
<path fill-rule="evenodd" clip-rule="evenodd" d="M46.9046 38.7013C47.45 38.6937 47.9953 38.6937 48.5407 38.6861C48.6695 38.6861 48.821 38.7543 48.9119 38.6028C48.7756 37.9135 48.7074 37.2242 48.9498 36.5424C49.6467 36.5424 50.3511 36.5424 51.048 36.5424C51.1389 36.6864 51.0935 36.8454 51.0935 36.9969C51.0935 38.7846 51.0859 40.5798 51.101 42.3675C51.101 42.7538 51.0329 42.9129 50.6011 42.8977C49.5179 42.8674 48.4347 42.875 47.3439 42.8977C46.9727 42.9053 46.8288 42.8296 46.844 42.4205C46.897 41.1783 46.7909 39.936 46.9046 38.7013Z" fill="black"/>
<path fill-rule="evenodd" clip-rule="evenodd" d="M36.1407 45.0035C36.1407 44.4505 36.1407 43.9051 36.1483 43.3521C36.1559 42.9355 36.1559 42.928 36.5422 42.928C38.4208 42.9204 40.2918 42.9204 42.1703 42.928C42.5415 42.928 42.5567 42.9431 42.5567 43.2991C42.5642 43.8672 42.5567 44.4353 42.5491 45.0035L42.5567 44.9959C40.4205 44.9959 38.2769 44.9959 36.1407 45.0035Z" fill="#4C2800"/>
<path fill-rule="evenodd" clip-rule="evenodd" d="M44.6246 55.6463C44.6246 54.9646 44.6246 54.2828 44.6246 53.6011C44.6322 53.0178 44.6246 52.4346 44.6398 51.8437C44.6474 51.465 44.6852 51.4271 45.0564 51.4271C46.2229 51.4195 47.397 51.4195 48.5636 51.4271C48.9347 51.4271 48.9423 51.4423 48.9499 51.7983C48.9575 52.2452 48.9575 52.6921 48.9499 53.139C48.9423 53.5329 48.9044 53.5708 48.4954 53.5784C47.4652 53.586 46.4274 53.5784 45.3973 53.5784C44.6398 53.5784 44.708 53.5178 44.708 54.2753C44.708 54.6161 44.708 54.9646 44.708 55.3054C44.7155 55.4266 44.7383 55.5554 44.6246 55.6463Z" fill="#4D2900"/>
<path fill-rule="evenodd" clip-rule="evenodd" d="M34.0652 53.6011C34.0652 54.2829 34.0652 54.9646 34.0652 55.6463C33.9061 55.4721 33.9894 55.2525 33.9819 55.0555C33.9667 54.6919 33.9819 54.3283 33.9743 53.9723C33.9667 53.6087 33.9516 53.5936 33.5955 53.586C32.9214 53.5784 32.2548 53.586 31.5806 53.586C31.0958 53.586 30.6186 53.5936 30.1338 53.586C29.793 53.5784 29.7475 53.5254 29.7399 53.1921C29.7324 52.73 29.7399 52.2604 29.7399 51.7983C29.7399 51.5332 29.8611 51.4347 30.1187 51.4347C31.3079 51.4423 32.4972 51.4347 33.6864 51.4423C34.0122 51.4423 34.05 51.4953 34.0576 51.8589C34.0652 52.427 34.0652 53.0179 34.0652 53.6011Z" fill="#4D2900"/>
<path fill-rule="evenodd" clip-rule="evenodd" d="M27.657 34.3458C27.657 33.7777 27.6721 33.2096 27.657 32.6415C27.6494 32.3839 27.7252 32.2703 28.0054 32.2779C29.1947 32.2854 30.3839 32.2854 31.5732 32.2779C31.808 32.2779 31.9141 32.346 31.9141 32.6036C31.8989 33.0657 31.9141 33.5353 31.9065 33.9974C31.8989 34.361 31.8913 34.3685 31.5202 34.3761C30.5051 34.3837 29.4825 34.3837 28.4675 34.3761C28.2024 34.3685 27.9221 34.3988 27.657 34.3458Z" fill="black"/>
<path fill-rule="evenodd" clip-rule="evenodd" d="M46.9121 32.2853C48.2832 32.2853 49.6542 32.2928 51.0253 32.2928C51.1768 32.9216 51.0556 33.5578 51.0859 34.1866C51.0934 34.3759 50.9495 34.3911 50.8056 34.3911C49.586 34.3911 48.3589 34.3911 47.1394 34.3911C46.9879 34.3911 46.8515 34.3684 46.8591 34.179C46.8818 33.5503 46.7758 32.914 46.9121 32.2853Z" fill="black"/>
<path fill-rule="evenodd" clip-rule="evenodd" d="M46.9122 32.2853C46.9047 32.8534 46.9047 33.4215 46.8895 33.9896C46.8819 34.2169 46.9425 34.3456 47.2077 34.3456C48.3742 34.3381 49.5483 34.3381 50.7148 34.3456C50.9724 34.3456 51.0405 34.232 51.033 34.0048C51.0178 33.4366 51.0254 32.8685 51.0178 32.3004C51.1769 32.3837 51.1239 32.5352 51.1314 32.6716C51.139 33.1185 51.139 33.5654 51.1314 34.0123C51.1239 34.2547 51.2148 34.3532 51.4572 34.3532C51.9192 34.3456 52.3889 34.3608 52.8509 34.3456C53.1161 34.3381 53.2221 34.4365 53.2145 34.7016C53.1994 35.2167 53.2145 35.7318 53.207 36.2545C53.207 36.353 53.2145 36.4666 53.1009 36.5196C52.8282 36.1333 52.9646 35.6864 52.9494 35.2698C52.9191 34.6335 52.9115 34.6107 52.2677 34.6107C51.2375 34.6107 51.2981 34.535 51.2829 35.5879C51.2829 35.906 51.3587 36.2469 51.1314 36.5348C51.1314 38.5194 51.1239 40.5116 51.1239 42.4962C51.1239 42.9204 51.1314 42.9204 51.5556 42.9279C52.0707 42.9355 52.5858 42.9431 53.1009 42.9431C53.1842 43.6324 53.1842 44.3217 53.1009 45.0035C52.4116 45.0035 51.7223 45.0035 51.0254 45.0035L51.033 45.011C51.033 44.4959 51.0405 43.9809 51.0405 43.4658C51.0405 42.9507 51.033 42.9507 50.5406 42.9507C49.4574 42.9507 48.3742 42.9507 47.291 42.9507C46.791 42.9507 46.7835 42.9431 46.7835 42.4356C46.7835 41.3372 46.7835 40.2313 46.7835 39.1329C46.7835 38.989 46.7077 38.8148 46.8895 38.7163C46.8895 39.9435 46.8819 41.163 46.8819 42.3901C46.8819 42.837 46.8895 42.8446 47.344 42.8446C48.3969 42.8522 49.4498 42.8446 50.5027 42.8446C51.0178 42.8446 51.0178 42.837 51.0178 42.3371C51.0178 40.4055 51.0254 38.4739 51.0254 36.5423C51.0254 36.0121 51.0254 35.4743 51.0254 34.944C51.0254 34.4592 51.0178 34.4517 50.5482 34.4517C49.5029 34.4517 48.4499 34.4517 47.4046 34.4517C47.2834 34.4517 47.1622 34.4517 47.041 34.4517C46.8744 34.4517 46.7835 34.3759 46.7835 34.2093C46.791 33.6109 46.791 33.0049 46.7986 32.4065C46.8138 32.3534 46.8819 32.3231 46.9122 32.2853Z" fill="#4C2800"/>
<path fill-rule="evenodd" clip-rule="evenodd" d="M27.6644 36.5272C27.066 36.5272 26.46 36.5196 25.8616 36.5348C25.604 36.5423 25.4828 36.459 25.498 36.1863C25.5131 35.7243 25.498 35.2622 25.5055 34.8001C25.5131 34.3987 25.5283 34.3911 25.96 34.3835C26.5281 34.3759 27.0887 34.3684 27.6568 34.3608L27.6492 34.3532C27.6568 35.0728 27.6568 35.8 27.6644 36.5272Z" fill="#010100"/>
<path fill-rule="evenodd" clip-rule="evenodd" d="M42.5491 45.0035C43.1172 45.0035 43.6853 45.0035 44.2458 45.0111C44.6549 45.0187 44.7003 45.0565 44.7079 45.4429C44.7155 45.8746 44.7155 46.2988 44.7079 46.7306C44.7003 47.1093 44.6625 47.1472 44.2913 47.1548C43.8292 47.1623 43.3596 47.1472 42.8975 47.1623C42.6248 47.1699 42.5415 47.0487 42.5415 46.7912C42.5642 46.2003 42.5566 45.6019 42.5491 45.0035Z" fill="#4D2900"/>
<path fill-rule="evenodd" clip-rule="evenodd" d="M36.1408 44.9961C36.1408 45.5945 36.1408 46.2005 36.1559 46.7989C36.1635 47.0565 36.0726 47.1701 35.7999 47.1625C35.3151 47.1474 34.8379 47.1549 34.3531 47.1625C34.088 47.1625 33.9819 47.0413 33.9819 46.7838C33.9895 46.3217 33.9744 45.8521 33.9895 45.39C33.9971 45.0567 34.0501 45.0112 34.3986 45.0037C34.9742 45.0037 35.5575 45.0112 36.1408 44.9961Z" fill="#4D2900"/>
<path fill-rule="evenodd" clip-rule="evenodd" d="M53.2144 45.0035C53.7976 45.0035 54.3809 45.0035 54.9717 45.0111C55.3202 45.0187 55.3656 45.0641 55.3732 45.3974C55.3883 45.8595 55.3732 46.3291 55.3808 46.7912C55.3808 47.0487 55.2747 47.1699 55.0096 47.1699C54.5097 47.1623 54.0097 47.1623 53.5098 47.1699C53.2901 47.1699 53.2068 47.0714 53.2068 46.8594C53.2144 46.2382 53.2144 45.6171 53.2144 45.0035Z" fill="#4E2900"/>
<path fill-rule="evenodd" clip-rule="evenodd" d="M48.9423 36.535C48.9196 37.2243 48.9802 37.9136 48.9045 38.5953C48.306 38.5953 47.7076 38.5953 47.1092 38.6029C46.8895 38.6029 46.8062 38.5347 46.8062 38.3075C46.8214 37.8151 46.8138 37.3152 46.8062 36.8152C46.7987 36.6031 46.8517 36.5047 47.0865 36.5047C47.7152 36.535 48.3288 36.5274 48.9423 36.535Z" fill="#FEFEFE"/>
<path fill-rule="evenodd" clip-rule="evenodd" d="M51.0405 45.0035C51.0481 45.6019 51.0405 46.2079 51.0557 46.8063C51.0633 47.0639 50.9724 47.1775 50.6997 47.1699C50.2376 47.1548 49.768 47.1623 49.3059 47.1699C49.0711 47.1775 48.9574 47.1017 48.9574 46.8442C48.965 46.3443 48.965 45.8443 48.9574 45.352C48.9499 45.1096 49.0483 45.0111 49.2907 45.0111C49.874 45.0187 50.4573 45.0111 51.0405 45.0035Z" fill="#4C2800"/>
<path fill-rule="evenodd" clip-rule="evenodd" d="M27.6643 36.5273C28.2627 36.5273 28.8687 36.5273 29.4671 36.5121C29.6944 36.5045 29.7625 36.5954 29.7625 36.8075C29.755 37.3908 29.7701 37.9741 29.7777 38.5573C29.755 38.5725 29.7322 38.5952 29.7171 38.6179C29.1869 38.6104 28.6566 38.6028 28.1264 38.6028C27.6719 38.5952 27.6719 38.5952 27.6719 38.1634C27.6643 37.6181 27.6643 37.0727 27.6643 36.5273Z" fill="#FEFEFE"/>
<path fill-rule="evenodd" clip-rule="evenodd" d="M27.6569 42.9281C27.6569 43.6174 27.6569 44.3143 27.6645 45.0036C27.051 45.1097 26.4298 45.0264 25.8162 45.0567C25.6193 45.0642 25.536 44.9809 25.5435 44.784C25.5738 44.1704 25.4905 43.5493 25.589 42.9357C26.2783 42.9357 26.9676 42.9357 27.6569 42.9281Z" fill="#4C2800"/>
<path fill-rule="evenodd" clip-rule="evenodd" d="M51.1466 36.5272C51.1466 35.9591 51.139 35.391 51.1466 34.8229C51.1541 34.4593 51.1617 34.4593 51.5329 34.4517C51.9268 34.4441 52.3207 34.4441 52.7221 34.4517C53.1084 34.4593 53.116 34.4668 53.1236 34.8683C53.1312 35.4213 53.1236 35.9667 53.116 36.5196C52.457 36.5196 51.798 36.5196 51.1466 36.5272Z" fill="#020100"/>
<path fill-rule="evenodd" clip-rule="evenodd" d="M23.415 47.0641C23.415 46.4127 23.415 45.7612 23.415 45.1098C24.0438 44.981 24.6725 45.087 25.3012 45.0567C25.4906 45.0492 25.5284 45.1552 25.5284 45.3219C25.5284 45.837 25.5284 46.3521 25.5284 46.8596C25.5284 47.0186 25.483 47.1323 25.3012 47.1171C24.6725 47.0944 24.0438 47.1929 23.415 47.0641Z" fill="#4C2800"/>
<path fill-rule="evenodd" clip-rule="evenodd" d="M27.6643 47.064C27.6643 46.4126 27.6643 45.7611 27.6643 45.1097C28.2779 45.0036 28.899 45.087 29.5201 45.0567C29.7247 45.0491 29.7853 45.1476 29.7853 45.3369C29.7777 45.8369 29.7777 46.3368 29.7853 46.8368C29.7853 47.0261 29.7247 47.1322 29.5201 47.117C28.899 47.0867 28.2779 47.1928 27.6643 47.064Z" fill="#4C2800"/>
<path fill-rule="evenodd" clip-rule="evenodd" d="M27.6645 47.0639C28.2326 47.0639 28.7932 47.0639 29.3537 47.079C29.6037 47.0866 29.7325 47.0033 29.7249 46.7306C29.7097 46.3064 29.7097 45.8746 29.7249 45.4504C29.7325 45.1701 29.5961 45.102 29.3537 45.1095C28.7932 45.1171 28.2251 45.1095 27.6645 45.1095C27.0813 45.1095 26.498 45.1171 25.9223 45.1095C25.6799 45.1095 25.5814 45.2004 25.589 45.4428C25.5966 45.9049 25.5814 46.367 25.5966 46.829C25.6042 47.0942 25.4981 47.1926 25.233 47.1926C24.7179 47.1775 24.2104 47.1926 23.6953 47.1926C23.5892 47.1926 23.4908 47.1851 23.4302 47.079C23.9907 47.079 24.5588 47.079 25.1194 47.0866C25.3693 47.0942 25.4981 47.0184 25.4905 46.7381C25.4754 46.314 25.4754 45.8822 25.4905 45.458C25.4981 45.1777 25.3693 45.1095 25.1194 45.1095C24.5588 45.1247 23.9907 45.1171 23.4302 45.1171C23.5589 44.9429 23.7407 45.0111 23.9074 45.0111C24.3316 45.0035 24.7634 45.0035 25.1951 45.0111C25.4148 45.0111 25.5057 44.9202 25.4981 44.7005C25.4905 44.2763 25.4905 43.8445 25.4981 43.4128C25.4981 43.2461 25.4375 43.0643 25.5966 42.9356C25.5966 43.5188 25.6042 44.0945 25.5966 44.6778C25.5966 44.9202 25.6951 45.0111 25.9299 45.0111C26.5131 45.0035 27.0888 45.0111 27.6721 45.0111C28.2781 45.0111 28.8765 45.0187 29.4825 45.0111C29.7476 45.0035 29.8537 45.102 29.8461 45.3747C29.8309 45.8746 29.8385 46.3746 29.8461 46.8745C29.8461 47.079 29.7779 47.2002 29.5507 47.1926C28.9977 47.1851 28.4523 47.1926 27.8993 47.1926C27.7857 47.1775 27.71 47.1472 27.6645 47.0639Z" fill="#7C4000"/>
<path fill-rule="evenodd" clip-rule="evenodd" d="M53.1084 45.0037C53.1084 44.3143 53.1084 43.625 53.1084 42.9433C53.2599 43.0569 53.1993 43.2236 53.2069 43.3675C53.2145 43.9129 53.2144 44.4583 53.2144 45.0037L53.222 44.9961C53.1841 45.0037 53.1463 45.0037 53.1084 45.0037Z" fill="#4E2900"/>
</svg>
