<svg width="79" height="81" viewBox="0 0 79 81" fill="none" xmlns="http://www.w3.org/2000/svg">
<rect x="0.670044" y="0.523132" width="77.9899" height="80.161" rx="5.34406" fill="#F88B9E"/>
<path d="M36.3617 14.1672H33.0551V17.4738H36.3617V14.1672Z" fill="#E43E31"/>
<path d="M39.6683 14.1672H36.3617V17.4738H39.6683V14.1672Z" fill="#E43E31"/>
<path d="M26.4485 17.4738H23.1418V20.7804H26.4485V17.4738Z" fill="#E43E31"/>
<path d="M29.7551 17.4738H26.4485V20.7804H29.7551V17.4738Z" fill="#E43E31"/>
<path d="M33.0618 17.4738H29.7551V20.7804H33.0618V17.4738Z" fill="#E43E31"/>
<path d="M36.3617 17.4738H33.0551V20.7804H36.3617V17.4738Z" fill="#E43E31"/>
<path d="M39.6683 17.4738H36.3617V20.7804H39.6683V17.4738Z" fill="#E43E31"/>
<path d="M19.8418 20.7738H16.5352V24.0804H19.8418V20.7738Z" fill="#E43E31"/>
<path d="M23.1486 20.7738H19.8419V24.0804H23.1486V20.7738Z" fill="#E43E31"/>
<path d="M26.4485 20.7738H23.1418V24.0804H26.4485V20.7738Z" fill="#E43E31"/>
<path d="M29.7551 20.7738H26.4485V24.0804H29.7551V20.7738Z" fill="#E43E31"/>
<path d="M33.0618 20.7738H29.7551V24.0804H33.0618V20.7738Z" fill="#E43E31"/>
<path d="M36.3617 20.7738H33.0551V24.0804H36.3617V20.7738Z" fill="#E43E31"/>
<path d="M39.6683 20.7738H36.3617V24.0804H39.6683V20.7738Z" fill="#E43E31"/>
<path d="M16.5353 24.0804H13.2286V27.3871H16.5353V24.0804Z" fill="#E43E31"/>
<path d="M19.8418 24.0804H16.5352V27.3871H19.8418V24.0804Z" fill="#E43E31"/>
<path d="M23.1486 24.0804H19.8419V27.3871H23.1486V24.0804Z" fill="#E43E31"/>
<path d="M26.4485 24.0804H23.1418V27.3871H26.4485V24.0804Z" fill="#E43E31"/>
<path d="M29.7551 24.0804H26.4485V27.3871H29.7551V24.0804Z" fill="#E43E31"/>
<path d="M33.0618 24.0804H29.7551V27.3871H33.0618V24.0804Z" fill="#E43E31"/>
<path d="M36.3617 24.0804H33.0551V27.3871H36.3617V24.0804Z" fill="#E43E31"/>
<path d="M39.6683 24.0804H36.3617V27.3871H39.6683V24.0804Z" fill="#BA2649"/>
<path d="M16.5353 27.3871H13.2286V30.6937H16.5353V27.3871Z" fill="#E43E31"/>
<path d="M19.8418 27.3871H16.5352V30.6937H19.8418V27.3871Z" fill="#E43E31"/>
<path d="M23.1486 27.3871H19.8419V30.6937H23.1486V27.3871Z" fill="#E43E31"/>
<path d="M26.4485 27.3871H23.1418V30.6937H26.4485V27.3871Z" fill="#BA2649"/>
<path d="M29.7551 27.3871H26.4485V30.6937H29.7551V27.3871Z" fill="#BA2649"/>
<path d="M33.0618 27.3871H29.7551V30.6937H33.0618V27.3871Z" fill="#BA2649"/>
<path d="M36.3617 27.3871H33.0551V30.6937H36.3617V27.3871Z" fill="#BA2649"/>
<path d="M39.6683 27.3871H36.3617V30.6937H39.6683V27.3871Z" fill="#BA2649"/>
<path d="M16.5353 30.687H13.2286V33.9937H16.5353V30.687Z" fill="#E43E31"/>
<path d="M19.8418 30.687H16.5352V33.9937H19.8418V30.687Z" fill="#E43E31"/>
<path d="M23.1486 30.687H19.8419V33.9937H23.1486V30.687Z" fill="#BA2649"/>
<path d="M26.4485 30.687H23.1418V33.9937H26.4485V30.687Z" fill="#BA2649"/>
<path d="M29.7551 30.687H26.4485V33.9937H29.7551V30.687Z" fill="#BA2649"/>
<path d="M33.0618 30.687H29.7551V33.9937H33.0618V30.687Z" fill="#BA2649"/>
<path d="M36.3617 30.687H33.0551V33.9937H36.3617V30.687Z" fill="#BA2649"/>
<path d="M39.6683 30.687H36.3617V33.9937H39.6683V30.687Z" fill="#BA2649"/>
<path d="M16.5353 33.9937H13.2286V37.3004H16.5353V33.9937Z" fill="#E43E31"/>
<path d="M19.8418 33.9937H16.5352V37.3004H19.8418V33.9937Z" fill="#E43E31"/>
<path d="M23.1486 33.9937H19.8419V37.3004H23.1486V33.9937Z" fill="#BA2649"/>
<path d="M26.4485 33.9937H23.1418V37.3004H26.4485V33.9937Z" fill="#BA2649"/>
<path d="M29.7551 33.9937H26.4485V37.3004H29.7551V33.9937Z" fill="#BA2649"/>
<path d="M33.0618 33.9937H29.7551V37.3004H33.0618V33.9937Z" fill="#D18573"/>
<path d="M36.3617 33.9937H33.0551V37.3004H36.3617V33.9937Z" fill="#D18573"/>
<path d="M39.6683 33.9937H36.3617V37.3004H39.6683V33.9937Z" fill="#D18573"/>
<path d="M16.5353 37.3003H13.2286V40.6069H16.5353V37.3003Z" fill="#E43E31"/>
<path d="M19.8418 37.3003H16.5352V40.6069H19.8418V37.3003Z" fill="#BA2649"/>
<path d="M23.1486 37.3003H19.8419V40.6069H23.1486V37.3003Z" fill="#BA2649"/>
<path d="M26.4485 37.3003H23.1418V40.6069H26.4485V37.3003Z" fill="#BA2649"/>
<path d="M29.7551 37.3003H26.4485V40.6069H29.7551V37.3003Z" fill="#FFB49C"/>
<path d="M33.0618 37.3003H29.7551V40.6069H33.0618V37.3003Z" fill="#5A3319"/>
<path d="M36.3617 37.3003H33.0551V40.6069H36.3617V37.3003Z" fill="#5A3319"/>
<path d="M39.6683 37.3003H36.3617V40.6069H39.6683V37.3003Z" fill="#FFB49C"/>
<path d="M16.5353 40.6002H13.2286V43.9069H16.5353V40.6002Z" fill="#E43E31"/>
<path d="M19.8418 40.6002H16.5352V43.9069H19.8418V40.6002Z" fill="#BA2649"/>
<path d="M23.1486 40.6002H19.8419V43.9069H23.1486V40.6002Z" fill="#BA2649"/>
<path d="M26.4485 40.6002H23.1418V43.9069H26.4485V40.6002Z" fill="#FFB49C"/>
<path d="M29.7551 40.6002H26.4485V43.9069H29.7551V40.6002Z" fill="#5A3319"/>
<path d="M33.0618 40.6002H29.7551V43.9069H33.0618V40.6002Z" fill="white"/>
<path d="M36.3617 40.6002H33.0551V43.9069H36.3617V40.6002Z" fill="white"/>
<path d="M39.6683 40.6002H36.3617V43.9069H39.6683V40.6002Z" fill="#FFB49C"/>
<path d="M16.5353 43.9069H13.2286V47.2136H16.5353V43.9069Z" fill="#E43E31"/>
<path d="M19.8418 43.9069H16.5352V47.2136H19.8418V43.9069Z" fill="#E43E31"/>
<path d="M23.1486 43.9069H19.8419V47.2136H23.1486V43.9069Z" fill="#D18573"/>
<path d="M26.4485 43.9069H23.1418V47.2136H26.4485V43.9069Z" fill="#FFB49C"/>
<path d="M29.7551 43.9069H26.4485V47.2136H29.7551V43.9069Z" fill="white"/>
<path d="M33.0618 43.9069H29.7551V47.2136H33.0618V43.9069Z" fill="#030406"/>
<path d="M36.3617 43.9069H33.0551V47.2136H36.3617V43.9069Z" fill="#D18573"/>
<path d="M39.6683 43.9069H36.3617V47.2136H39.6683V43.9069Z" fill="#FFB49C"/>
<path d="M16.5353 47.2135H13.2286V50.5202H16.5353V47.2135Z" fill="#E43E31"/>
<path d="M19.8418 47.2135H16.5352V50.5202H19.8418V47.2135Z" fill="#E43E31"/>
<path d="M23.1486 47.2135H19.8419V50.5202H23.1486V47.2135Z" fill="#D18573"/>
<path d="M26.4485 47.2135H23.1418V50.5202H26.4485V47.2135Z" fill="#FFB49C"/>
<path d="M29.7551 47.2135H26.4485V50.5202H29.7551V47.2135Z" fill="#FFB49C"/>
<path d="M33.0618 47.2135H29.7551V50.5202H33.0618V47.2135Z" fill="#030406"/>
<path d="M36.3617 47.2135H33.0551V50.5202H36.3617V47.2135Z" fill="#D18573"/>
<path d="M39.6683 47.2135H36.3617V50.5202H39.6683V47.2135Z" fill="#E43E31"/>
<path d="M19.8418 50.5135H16.5352V53.8202H19.8418V50.5135Z" fill="#E43E31"/>
<path d="M23.1486 50.5135H19.8419V53.8202H23.1486V50.5135Z" fill="#E43E31"/>
<path d="M26.4485 50.5135H23.1418V53.8202H26.4485V50.5135Z" fill="#FFB49C"/>
<path d="M29.7551 50.5135H26.4485V53.8202H29.7551V50.5135Z" fill="#FFB49C"/>
<path d="M33.0618 50.5135H29.7551V53.8202H33.0618V50.5135Z" fill="#FFB49C"/>
<path d="M36.3617 50.5135H33.0551V53.8202H36.3617V50.5135Z" fill="#FFB49C"/>
<path d="M39.6683 50.5135H36.3617V53.8202H39.6683V50.5135Z" fill="#BA2649"/>
<path d="M23.1486 53.8201H19.8419V57.1268H23.1486V53.8201Z" fill="#E43E31"/>
<path d="M26.4485 53.8201H23.1418V57.1268H26.4485V53.8201Z" fill="#FFB49C"/>
<path d="M29.7551 53.8201H26.4485V57.1268H29.7551V53.8201Z" fill="#FFB49C"/>
<path d="M33.0618 53.8201H29.7551V57.1268H33.0618V53.8201Z" fill="#FFB49C"/>
<path d="M36.3617 53.8201H33.0551V57.1268H36.3617V53.8201Z" fill="white"/>
<path d="M39.6683 53.8201H36.3617V57.1268H39.6683V53.8201Z" fill="#FFB49C"/>
<path d="M29.7551 57.1268H26.4485V60.4335H29.7551V57.1268Z" fill="#FFB49C"/>
<path d="M33.0618 57.1268H29.7551V60.4335H33.0618V57.1268Z" fill="#FFB49C"/>
<path d="M36.3617 57.1268H33.0551V60.4335H36.3617V57.1268Z" fill="#FFB49C"/>
<path d="M39.6683 57.1268H36.3617V60.4335H39.6683V57.1268Z" fill="white"/>
<path d="M33.0618 60.4268H29.7551V63.7334H33.0618V60.4268Z" fill="#FFB49C"/>
<path d="M36.3617 60.4268H33.0551V63.7334H36.3617V60.4268Z" fill="#FFB49C"/>
<path d="M39.6683 60.4268H36.3617V63.7334H39.6683V60.4268Z" fill="#FFB49C"/>
<path d="M36.3617 63.7334H33.0551V67.04H36.3617V63.7334Z" fill="#D18573"/>
<path d="M39.6683 63.7334H36.3617V67.04H39.6683V63.7334Z" fill="#D18573"/>
<path d="M46.275 14.1672H42.9684V17.4738H46.275V14.1672Z" fill="#E43E31"/>
<path d="M42.9683 14.1672H39.6616V17.4738H42.9683V14.1672Z" fill="#E43E31"/>
<path d="M56.1882 17.4738H52.8816V20.7804H56.1882V17.4738Z" fill="#E43E31"/>
<path d="M52.8815 17.4738H49.5748V20.7804H52.8815V17.4738Z" fill="#E43E31"/>
<path d="M49.5815 17.4738H46.2749V20.7804H49.5815V17.4738Z" fill="#E43E31"/>
<path d="M46.275 17.4738H42.9684V20.7804H46.275V17.4738Z" fill="#E43E31"/>
<path d="M42.9683 17.4738H39.6616V20.7804H42.9683V17.4738Z" fill="#E43E31"/>
<path d="M62.7948 20.7738H59.4882V24.0804H62.7948V20.7738Z" fill="#E43E31"/>
<path d="M59.4947 20.7738H56.1881V24.0804H59.4947V20.7738Z" fill="#E43E31"/>
<path d="M56.1882 20.7738H52.8816V24.0804H56.1882V20.7738Z" fill="#E43E31"/>
<path d="M52.8815 20.7738H49.5748V24.0804H52.8815V20.7738Z" fill="#E43E31"/>
<path d="M49.5815 20.7738H46.2749V24.0804H49.5815V20.7738Z" fill="#E43E31"/>
<path d="M46.275 20.7738H42.9684V24.0804H46.275V20.7738Z" fill="#E43E31"/>
<path d="M42.9683 20.7738H39.6616V24.0804H42.9683V20.7738Z" fill="#E43E31"/>
<path d="M66.1014 24.0804H62.7948V27.3871H66.1014V24.0804Z" fill="#E43E31"/>
<path d="M62.7948 24.0804H59.4882V27.3871H62.7948V24.0804Z" fill="#E43E31"/>
<path d="M59.4947 24.0804H56.1881V27.3871H59.4947V24.0804Z" fill="#E43E31"/>
<path d="M56.1882 24.0804H52.8816V27.3871H56.1882V24.0804Z" fill="#E43E31"/>
<path d="M52.8815 24.0804H49.5748V27.3871H52.8815V24.0804Z" fill="#E43E31"/>
<path d="M49.5815 24.0804H46.2749V27.3871H49.5815V24.0804Z" fill="#E43E31"/>
<path d="M46.275 24.0804H42.9684V27.3871H46.275V24.0804Z" fill="#E43E31"/>
<path d="M42.9683 24.0804H39.6616V27.3871H42.9683V24.0804Z" fill="#BA2649"/>
<path d="M66.1014 27.3871H62.7948V30.6937H66.1014V27.3871Z" fill="#E43E31"/>
<path d="M62.7948 27.3871H59.4882V30.6937H62.7948V27.3871Z" fill="#E43E31"/>
<path d="M59.4947 27.3871H56.1881V30.6937H59.4947V27.3871Z" fill="#E43E31"/>
<path d="M56.1882 27.3871H52.8816V30.6937H56.1882V27.3871Z" fill="#BA2649"/>
<path d="M52.8815 27.3871H49.5748V30.6937H52.8815V27.3871Z" fill="#BA2649"/>
<path d="M49.5815 27.3871H46.2749V30.6937H49.5815V27.3871Z" fill="#BA2649"/>
<path d="M46.275 27.3871H42.9684V30.6937H46.275V27.3871Z" fill="#BA2649"/>
<path d="M42.9683 27.3871H39.6616V30.6937H42.9683V27.3871Z" fill="#BA2649"/>
<path d="M66.1014 30.687H62.7948V33.9937H66.1014V30.687Z" fill="#E43E31"/>
<path d="M62.7948 30.687H59.4882V33.9937H62.7948V30.687Z" fill="#E43E31"/>
<path d="M59.4947 30.687H56.1881V33.9937H59.4947V30.687Z" fill="#BA2649"/>
<path d="M56.1882 30.687H52.8816V33.9937H56.1882V30.687Z" fill="#BA2649"/>
<path d="M52.8815 30.687H49.5748V33.9937H52.8815V30.687Z" fill="#BA2649"/>
<path d="M49.5815 30.687H46.2749V33.9937H49.5815V30.687Z" fill="#BA2649"/>
<path d="M46.275 30.687H42.9684V33.9937H46.275V30.687Z" fill="#BA2649"/>
<path d="M42.9683 30.687H39.6616V33.9937H42.9683V30.687Z" fill="#BA2649"/>
<path d="M66.1014 33.9937H62.7948V37.3004H66.1014V33.9937Z" fill="#E43E31"/>
<path d="M62.7948 33.9937H59.4882V37.3004H62.7948V33.9937Z" fill="#E43E31"/>
<path d="M59.4947 33.9937H56.1881V37.3004H59.4947V33.9937Z" fill="#BA2649"/>
<path d="M56.1882 33.9937H52.8816V37.3004H56.1882V33.9937Z" fill="#BA2649"/>
<path d="M52.8815 33.9937H49.5748V37.3004H52.8815V33.9937Z" fill="#BA2649"/>
<path d="M49.5815 33.9937H46.2749V37.3004H49.5815V33.9937Z" fill="#D18573"/>
<path d="M46.275 33.9937H42.9684V37.3004H46.275V33.9937Z" fill="#D18573"/>
<path d="M42.9683 33.9937H39.6616V37.3004H42.9683V33.9937Z" fill="#D18573"/>
<path d="M66.1014 37.3003H62.7948V40.6069H66.1014V37.3003Z" fill="#E43E31"/>
<path d="M62.7948 37.3003H59.4882V40.6069H62.7948V37.3003Z" fill="#BA2649"/>
<path d="M59.4947 37.3003H56.1881V40.6069H59.4947V37.3003Z" fill="#BA2649"/>
<path d="M56.1882 37.3003H52.8816V40.6069H56.1882V37.3003Z" fill="#BA2649"/>
<path d="M52.8815 37.3003H49.5748V40.6069H52.8815V37.3003Z" fill="#FFB49C"/>
<path d="M49.5815 37.3003H46.2749V40.6069H49.5815V37.3003Z" fill="#5A3319"/>
<path d="M46.275 37.3003H42.9684V40.6069H46.275V37.3003Z" fill="#5A3319"/>
<path d="M42.9683 37.3003H39.6616V40.6069H42.9683V37.3003Z" fill="#FFB49C"/>
<path d="M66.1014 40.6002H62.7948V43.9069H66.1014V40.6002Z" fill="#E43E31"/>
<path d="M62.7948 40.6002H59.4882V43.9069H62.7948V40.6002Z" fill="#BA2649"/>
<path d="M59.4947 40.6002H56.1881V43.9069H59.4947V40.6002Z" fill="#BA2649"/>
<path d="M56.1882 40.6002H52.8816V43.9069H56.1882V40.6002Z" fill="#FFB49C"/>
<path d="M52.8815 40.6002H49.5748V43.9069H52.8815V40.6002Z" fill="#5A3319"/>
<path d="M49.5815 40.6002H46.2749V43.9069H49.5815V40.6002Z" fill="white"/>
<path d="M46.275 40.6002H42.9684V43.9069H46.275V40.6002Z" fill="white"/>
<path d="M42.9683 40.6002H39.6616V43.9069H42.9683V40.6002Z" fill="#FFB49C"/>
<path d="M66.1014 43.9069H62.7948V47.2136H66.1014V43.9069Z" fill="#E43E31"/>
<path d="M62.7948 43.9069H59.4882V47.2136H62.7948V43.9069Z" fill="#E43E31"/>
<path d="M59.4947 43.9069H56.1881V47.2136H59.4947V43.9069Z" fill="#D18573"/>
<path d="M56.1882 43.9069H52.8816V47.2136H56.1882V43.9069Z" fill="#FFB49C"/>
<path d="M52.8815 43.9069H49.5748V47.2136H52.8815V43.9069Z" fill="white"/>
<path d="M49.5815 43.9069H46.2749V47.2136H49.5815V43.9069Z" fill="#030406"/>
<path d="M46.275 43.9069H42.9684V47.2136H46.275V43.9069Z" fill="#D18573"/>
<path d="M42.9683 43.9069H39.6616V47.2136H42.9683V43.9069Z" fill="#FFB49C"/>
<path d="M66.1014 47.2135H62.7948V50.5202H66.1014V47.2135Z" fill="#E43E31"/>
<path d="M62.7948 47.2135H59.4882V50.5202H62.7948V47.2135Z" fill="#E43E31"/>
<path d="M59.4947 47.2135H56.1881V50.5202H59.4947V47.2135Z" fill="#D18573"/>
<path d="M56.1882 47.2135H52.8816V50.5202H56.1882V47.2135Z" fill="#FFB49C"/>
<path d="M52.8815 47.2135H49.5748V50.5202H52.8815V47.2135Z" fill="#FFB49C"/>
<path d="M49.5815 47.2135H46.2749V50.5202H49.5815V47.2135Z" fill="#030406"/>
<path d="M46.275 47.2135H42.9684V50.5202H46.275V47.2135Z" fill="#D18573"/>
<path d="M42.9683 47.2135H39.6616V50.5202H42.9683V47.2135Z" fill="#E43E31"/>
<path d="M62.7948 50.5135H59.4882V53.8202H62.7948V50.5135Z" fill="#E43E31"/>
<path d="M59.4947 50.5135H56.1881V53.8202H59.4947V50.5135Z" fill="#E43E31"/>
<path d="M56.1882 50.5135H52.8816V53.8202H56.1882V50.5135Z" fill="#FFB49C"/>
<path d="M52.8815 50.5135H49.5748V53.8202H52.8815V50.5135Z" fill="#FFB49C"/>
<path d="M49.5815 50.5135H46.2749V53.8202H49.5815V50.5135Z" fill="#FFB49C"/>
<path d="M46.275 50.5135H42.9684V53.8202H46.275V50.5135Z" fill="#FFB49C"/>
<path d="M42.9683 50.5135H39.6616V53.8202H42.9683V50.5135Z" fill="#BA2649"/>
<path d="M59.4947 53.8201H56.1881V57.1268H59.4947V53.8201Z" fill="#E43E31"/>
<path d="M56.1882 53.8201H52.8816V57.1268H56.1882V53.8201Z" fill="#FFB49C"/>
<path d="M52.8815 53.8201H49.5748V57.1268H52.8815V53.8201Z" fill="#FFB49C"/>
<path d="M49.5815 53.8201H46.2749V57.1268H49.5815V53.8201Z" fill="#FFB49C"/>
<path d="M46.275 53.8201H42.9684V57.1268H46.275V53.8201Z" fill="white"/>
<path d="M42.9683 53.8201H39.6616V57.1268H42.9683V53.8201Z" fill="#FFB49C"/>
<path d="M52.8815 57.1268H49.5748V60.4335H52.8815V57.1268Z" fill="#FFB49C"/>
<path d="M49.5815 57.1268H46.2749V60.4335H49.5815V57.1268Z" fill="#FFB49C"/>
<path d="M46.275 57.1268H42.9684V60.4335H46.275V57.1268Z" fill="#FFB49C"/>
<path d="M42.9683 57.1268H39.6616V60.4335H42.9683V57.1268Z" fill="white"/>
<path d="M49.5815 60.4268H46.2749V63.7334H49.5815V60.4268Z" fill="#FFB49C"/>
<path d="M46.275 60.4268H42.9684V63.7334H46.275V60.4268Z" fill="#FFB49C"/>
<path d="M42.9683 60.4268H39.6616V63.7334H42.9683V60.4268Z" fill="#FFB49C"/>
<path d="M46.275 63.7334H42.9684V67.04H46.275V63.7334Z" fill="#D18573"/>
<path d="M42.9683 63.7334H39.6616V67.04H42.9683V63.7334Z" fill="#D18573"/>
</svg>
