<svg width="79" height="81" viewBox="0 0 79 81" fill="none" xmlns="http://www.w3.org/2000/svg">
<rect x="0.340088" y="0.523132" width="77.9899" height="80.161" rx="5.34406" fill="#28BC8C"/>
<path d="M29.4186 14.1672H26.1119V17.4738H29.4186V14.1672Z" fill="#FAEC00"/>
<path d="M32.7252 14.1672H29.4186V17.4738H32.7252V14.1672Z" fill="#FAEC00"/>
<path d="M36.0319 14.1672H32.7252V17.4738H36.0319V14.1672Z" fill="#FAEC00"/>
<path d="M39.3318 14.1672H36.0251V17.4738H39.3318V14.1672Z" fill="#FAEC00"/>
<path d="M22.8119 17.4738H19.5052V20.7805H22.8119V17.4738Z" fill="#FFF79C"/>
<path d="M26.1186 17.4738H22.812V20.7805H26.1186V17.4738Z" fill="#FFF79C"/>
<path d="M29.4186 17.4738H26.1119V20.7805H29.4186V17.4738Z" fill="#FAEC00"/>
<path d="M32.7252 17.4738H29.4186V20.7805H32.7252V17.4738Z" fill="#FAEC00"/>
<path d="M36.0319 17.4738H32.7252V20.7805H36.0319V17.4738Z" fill="#FAEC00"/>
<path d="M39.3318 17.4738H36.0251V20.7805H39.3318V17.4738Z" fill="#FAEC00"/>
<path d="M19.5052 20.7738H16.1986V24.0805H19.5052V20.7738Z" fill="#FAEC00"/>
<path d="M22.8119 20.7738H19.5052V24.0805H22.8119V20.7738Z" fill="#FAEC00"/>
<path d="M26.1186 20.7738H22.812V24.0805H26.1186V20.7738Z" fill="#FAEC00"/>
<path d="M29.4186 20.7738H26.1119V24.0805H29.4186V20.7738Z" fill="#FFF79C"/>
<path d="M32.7252 20.7738H29.4186V24.0805H32.7252V20.7738Z" fill="#FFF79C"/>
<path d="M36.0319 20.7738H32.7252V24.0805H36.0319V20.7738Z" fill="#FFF79C"/>
<path d="M39.3318 20.7738H36.0251V24.0805H39.3318V20.7738Z" fill="#FFF79C"/>
<path d="M19.5052 24.0804H16.1986V27.3871H19.5052V24.0804Z" fill="#FAEC00"/>
<path d="M22.8119 24.0804H19.5052V27.3871H22.8119V24.0804Z" fill="#FAEC00"/>
<path d="M26.1186 24.0804H22.812V27.3871H26.1186V24.0804Z" fill="#FAEC00"/>
<path d="M29.4186 24.0804H26.1119V27.3871H29.4186V24.0804Z" fill="#FAEC00"/>
<path d="M32.7252 24.0804H29.4186V27.3871H32.7252V24.0804Z" fill="#FAEC00"/>
<path d="M36.0319 24.0804H32.7252V27.3871H36.0319V24.0804Z" fill="#FAEC00"/>
<path d="M39.3318 24.0804H36.0251V27.3871H39.3318V24.0804Z" fill="#FAEC00"/>
<path d="M19.5052 27.3871H16.1986V30.6938H19.5052V27.3871Z" fill="#FAEC00"/>
<path d="M22.8119 27.3871H19.5052V30.6938H22.8119V27.3871Z" fill="#FAEC00"/>
<path d="M26.1186 27.3871H22.812V30.6938H26.1186V27.3871Z" fill="#FAEC00"/>
<path d="M29.4186 27.3871H26.1119V30.6938H29.4186V27.3871Z" fill="#FAEC00"/>
<path d="M32.7252 27.3871H29.4186V30.6938H32.7252V27.3871Z" fill="#D18573"/>
<path d="M36.0319 27.3871H32.7252V30.6938H36.0319V27.3871Z" fill="#D18573"/>
<path d="M39.3318 27.3871H36.0251V30.6938H39.3318V27.3871Z" fill="#D18573"/>
<path d="M19.5052 30.687H16.1986V33.9937H19.5052V30.687Z" fill="#FAEC00"/>
<path d="M22.8119 30.687H19.5052V33.9937H22.8119V30.687Z" fill="#FAEC00"/>
<path d="M26.1186 30.687H22.812V33.9937H26.1186V30.687Z" fill="#FAEC00"/>
<path d="M29.4186 30.687H26.1119V33.9937H29.4186V30.687Z" fill="#FAEC00"/>
<path d="M32.7252 30.687H29.4186V33.9937H32.7252V30.687Z" fill="#FFB49C"/>
<path d="M36.0319 30.687H32.7252V33.9937H36.0319V30.687Z" fill="#FFB49C"/>
<path d="M39.3318 30.687H36.0251V33.9937H39.3318V30.687Z" fill="#FFB49C"/>
<path d="M19.5052 33.9937H16.1986V37.3004H19.5052V33.9937Z" fill="#FAEC00"/>
<path d="M22.8119 33.9937H19.5052V37.3004H22.8119V33.9937Z" fill="#FAEC00"/>
<path d="M26.1186 33.9937H22.812V37.3004H26.1186V33.9937Z" fill="#FAEC00"/>
<path d="M29.4186 33.9937H26.1119V37.3004H29.4186V33.9937Z" fill="#FFB49C"/>
<path d="M32.7252 33.9937H29.4186V37.3004H32.7252V33.9937Z" fill="#EC771C"/>
<path d="M36.0319 33.9937H32.7252V37.3004H36.0319V33.9937Z" fill="#EC771C"/>
<path d="M39.3318 33.9937H36.0251V37.3004H39.3318V33.9937Z" fill="#FFB49C"/>
<path d="M19.5052 37.3003H16.1986V40.607H19.5052V37.3003Z" fill="#FAEC00"/>
<path d="M22.8119 37.3003H19.5052V40.607H22.8119V37.3003Z" fill="#FAEC00"/>
<path d="M26.1186 37.3003H22.812V40.607H26.1186V37.3003Z" fill="#FFB49C"/>
<path d="M29.4186 37.3003H26.1119V40.607H29.4186V37.3003Z" fill="#EC771C"/>
<path d="M32.7252 37.3003H29.4186V40.607H32.7252V37.3003Z" fill="#FFB49C"/>
<path d="M36.0319 37.3003H32.7252V40.607H36.0319V37.3003Z" fill="#FFB49C"/>
<path d="M39.3318 37.3003H36.0251V40.607H39.3318V37.3003Z" fill="#FFB49C"/>
<path d="M19.5052 40.6003H16.1986V43.9069H19.5052V40.6003Z" fill="#FAEC00"/>
<path d="M22.8119 40.6003H19.5052V43.9069H22.8119V40.6003Z" fill="#D18573"/>
<path d="M26.1186 40.6003H22.812V43.9069H26.1186V40.6003Z" fill="#FFB49C"/>
<path d="M29.4186 40.6003H26.1119V43.9069H29.4186V40.6003Z" fill="#FFB49C"/>
<path d="M32.7252 40.6003H29.4186V43.9069H32.7252V40.6003Z" fill="#030406"/>
<path d="M36.0319 40.6003H32.7252V43.9069H36.0319V40.6003Z" fill="#D18573"/>
<path d="M39.3318 40.6003H36.0251V43.9069H39.3318V40.6003Z" fill="#FFB49C"/>
<path d="M19.5052 43.9069H16.1986V47.2136H19.5052V43.9069Z" fill="#FAEC00"/>
<path d="M22.8119 43.9069H19.5052V47.2136H22.8119V43.9069Z" fill="#D18573"/>
<path d="M26.1186 43.9069H22.812V47.2136H26.1186V43.9069Z" fill="#FFB49C"/>
<path d="M29.4186 43.9069H26.1119V47.2136H29.4186V43.9069Z" fill="#FFB49C"/>
<path d="M32.7252 43.9069H29.4186V47.2136H32.7252V43.9069Z" fill="#030406"/>
<path d="M36.0319 43.9069H32.7252V47.2136H36.0319V43.9069Z" fill="#D18573"/>
<path d="M39.3318 43.9069H36.0251V47.2136H39.3318V43.9069Z" fill="#FFB49C"/>
<path d="M19.5052 47.2135H16.1986V50.5202H19.5052V47.2135Z" fill="#FFB000"/>
<path d="M22.8119 47.2135H19.5052V50.5202H22.8119V47.2135Z" fill="#0097DA"/>
<path d="M26.1186 47.2135H22.812V50.5202H26.1186V47.2135Z" fill="#FFB49C"/>
<path d="M29.4186 47.2135H26.1119V50.5202H29.4186V47.2135Z" fill="#FFB49C"/>
<path d="M32.7252 47.2135H29.4186V50.5202H32.7252V47.2135Z" fill="#FFB49C"/>
<path d="M36.0319 47.2135H32.7252V50.5202H36.0319V47.2135Z" fill="#FFB49C"/>
<path d="M39.3318 47.2135H36.0251V50.5202H39.3318V47.2135Z" fill="#FFB49C"/>
<path d="M19.5052 50.5135H16.1986V53.8202H19.5052V50.5135Z" fill="#FFB000"/>
<path d="M22.8119 50.5135H19.5052V53.8202H22.8119V50.5135Z" fill="#FFB000"/>
<path d="M26.1186 50.5135H22.812V53.8202H26.1186V50.5135Z" fill="#FFB49C"/>
<path d="M29.4186 50.5135H26.1119V53.8202H29.4186V50.5135Z" fill="#FFB49C"/>
<path d="M32.7252 50.5135H29.4186V53.8202H32.7252V50.5135Z" fill="#FFB49C"/>
<path d="M36.0319 50.5135H32.7252V53.8202H36.0319V50.5135Z" fill="white"/>
<path d="M39.3318 50.5135H36.0251V53.8202H39.3318V50.5135Z" fill="white"/>
<path d="M19.5052 53.8202H16.1986V57.1268H19.5052V53.8202Z" fill="#EC771C"/>
<path d="M22.8119 53.8202H19.5052V57.1268H22.8119V53.8202Z" fill="#FFB000"/>
<path d="M26.1186 53.8202H22.812V57.1268H26.1186V53.8202Z" fill="#EC771C"/>
<path d="M29.4186 53.8202H26.1119V57.1268H29.4186V53.8202Z" fill="#FFB49C"/>
<path d="M32.7252 53.8202H29.4186V57.1268H32.7252V53.8202Z" fill="#FFB49C"/>
<path d="M36.0319 53.8202H32.7252V57.1268H36.0319V53.8202Z" fill="#FFB49C"/>
<path d="M39.3318 53.8202H36.0251V57.1268H39.3318V53.8202Z" fill="white"/>
<path d="M19.5052 57.1268H16.1986V60.4335H19.5052V57.1268Z" fill="#FFB000"/>
<path d="M22.8119 57.1268H19.5052V60.4335H22.8119V57.1268Z" fill="#FFB000"/>
<path d="M26.1186 57.1268H22.812V60.4335H26.1186V57.1268Z" fill="#FFB000"/>
<path d="M29.4186 57.1268H26.1119V60.4335H29.4186V57.1268Z" fill="#EC771C"/>
<path d="M32.7252 57.1268H29.4186V60.4335H32.7252V57.1268Z" fill="#FFB49C"/>
<path d="M36.0319 57.1268H32.7252V60.4335H36.0319V57.1268Z" fill="#FFB49C"/>
<path d="M39.3318 57.1268H36.0251V60.4335H39.3318V57.1268Z" fill="#FFB49C"/>
<path d="M22.8119 60.4268H19.5052V63.7334H22.8119V60.4268Z" fill="#FFB000"/>
<path d="M26.1186 60.4268H22.812V63.7334H26.1186V60.4268Z" fill="#FFB000"/>
<path d="M29.4186 60.4268H26.1119V63.7334H29.4186V60.4268Z" fill="#FFB000"/>
<path d="M32.7252 60.4268H29.4186V63.7334H32.7252V60.4268Z" fill="#EC771C"/>
<path d="M36.0319 60.4268H32.7252V63.7334H36.0319V60.4268Z" fill="#D18573"/>
<path d="M39.3318 60.4268H36.0251V63.7334H39.3318V60.4268Z" fill="#D18573"/>
<path d="M36.0319 63.7334H32.7252V67.04H36.0319V63.7334Z" fill="#FFB49C"/>
<path d="M39.3318 63.7334H36.0251V67.04H39.3318V63.7334Z" fill="#FFB49C"/>
<path d="M52.5584 14.1672H49.2517V17.4738H52.5584V14.1672Z" fill="#FAEC00"/>
<path d="M49.2517 14.1672H45.9451V17.4738H49.2517V14.1672Z" fill="#FAEC00"/>
<path d="M45.9451 14.1672H42.6384V17.4738H45.9451V14.1672Z" fill="#FAEC00"/>
<path d="M42.6451 14.1672H39.3385V17.4738H42.6451V14.1672Z" fill="#FAEC00"/>
<path d="M59.1649 17.4738H55.8583V20.7805H59.1649V17.4738Z" fill="#FFF79C"/>
<path d="M55.8583 17.4738H52.5516V20.7805H55.8583V17.4738Z" fill="#FFF79C"/>
<path d="M52.5584 17.4738H49.2517V20.7805H52.5584V17.4738Z" fill="#FAEC00"/>
<path d="M49.2517 17.4738H45.9451V20.7805H49.2517V17.4738Z" fill="#FAEC00"/>
<path d="M45.9451 17.4738H42.6384V20.7805H45.9451V17.4738Z" fill="#FAEC00"/>
<path d="M42.6451 17.4738H39.3385V20.7805H42.6451V17.4738Z" fill="#FAEC00"/>
<path d="M62.4717 20.7738H59.165V24.0805H62.4717V20.7738Z" fill="#FAEC00"/>
<path d="M59.1649 20.7738H55.8583V24.0805H59.1649V20.7738Z" fill="#FAEC00"/>
<path d="M55.8583 20.7738H52.5516V24.0805H55.8583V20.7738Z" fill="#FAEC00"/>
<path d="M52.5584 20.7738H49.2517V24.0805H52.5584V20.7738Z" fill="#FFF79C"/>
<path d="M49.2517 20.7738H45.9451V24.0805H49.2517V20.7738Z" fill="#FFF79C"/>
<path d="M45.9451 20.7738H42.6384V24.0805H45.9451V20.7738Z" fill="#FFF79C"/>
<path d="M42.6451 20.7738H39.3385V24.0805H42.6451V20.7738Z" fill="#FFF79C"/>
<path d="M62.4717 24.0804H59.165V27.3871H62.4717V24.0804Z" fill="#FAEC00"/>
<path d="M59.1649 24.0804H55.8583V27.3871H59.1649V24.0804Z" fill="#FAEC00"/>
<path d="M55.8583 24.0804H52.5516V27.3871H55.8583V24.0804Z" fill="#FAEC00"/>
<path d="M52.5584 24.0804H49.2517V27.3871H52.5584V24.0804Z" fill="#FAEC00"/>
<path d="M49.2517 24.0804H45.9451V27.3871H49.2517V24.0804Z" fill="#FAEC00"/>
<path d="M45.9451 24.0804H42.6384V27.3871H45.9451V24.0804Z" fill="#FAEC00"/>
<path d="M42.6451 24.0804H39.3385V27.3871H42.6451V24.0804Z" fill="#FAEC00"/>
<path d="M62.4717 27.3871H59.165V30.6938H62.4717V27.3871Z" fill="#FAEC00"/>
<path d="M59.1649 27.3871H55.8583V30.6938H59.1649V27.3871Z" fill="#FAEC00"/>
<path d="M55.8583 27.3871H52.5516V30.6938H55.8583V27.3871Z" fill="#FAEC00"/>
<path d="M52.5584 27.3871H49.2517V30.6938H52.5584V27.3871Z" fill="#FAEC00"/>
<path d="M49.2517 27.3871H45.9451V30.6938H49.2517V27.3871Z" fill="#FAEC00"/>
<path d="M45.9451 27.3871H42.6384V30.6938H45.9451V27.3871Z" fill="#FAEC00"/>
<path d="M42.6451 27.3871H39.3385V30.6938H42.6451V27.3871Z" fill="#FAEC00"/>
<path d="M62.4717 30.687H59.165V33.9937H62.4717V30.687Z" fill="#FAEC00"/>
<path d="M59.1649 30.687H55.8583V33.9937H59.1649V30.687Z" fill="#FAEC00"/>
<path d="M55.8583 30.687H52.5516V33.9937H55.8583V30.687Z" fill="#FAEC00"/>
<path d="M52.5584 30.687H49.2517V33.9937H52.5584V30.687Z" fill="#FAEC00"/>
<path d="M49.2517 30.687H45.9451V33.9937H49.2517V30.687Z" fill="#FAEC00"/>
<path d="M45.9451 30.687H42.6384V33.9937H45.9451V30.687Z" fill="#FAEC00"/>
<path d="M42.6451 30.687H39.3385V33.9937H42.6451V30.687Z" fill="#FFB49C"/>
<path d="M62.4717 33.9937H59.165V37.3004H62.4717V33.9937Z" fill="#FAEC00"/>
<path d="M59.1649 33.9937H55.8583V37.3004H59.1649V33.9937Z" fill="#FAEC00"/>
<path d="M55.8583 33.9937H52.5516V37.3004H55.8583V33.9937Z" fill="#FAEC00"/>
<path d="M52.5584 33.9937H49.2517V37.3004H52.5584V33.9937Z" fill="#FAEC00"/>
<path d="M49.2517 33.9937H45.9451V37.3004H49.2517V33.9937Z" fill="#FAEC00"/>
<path d="M45.9451 33.9937H42.6384V37.3004H45.9451V33.9937Z" fill="#EC771C"/>
<path d="M42.6451 33.9937H39.3385V37.3004H42.6451V33.9937Z" fill="#FFB49C"/>
<path d="M62.4717 37.3003H59.165V40.607H62.4717V37.3003Z" fill="#FAEC00"/>
<path d="M59.1649 37.3003H55.8583V40.607H59.1649V37.3003Z" fill="#FAEC00"/>
<path d="M55.8583 37.3003H52.5516V40.607H55.8583V37.3003Z" fill="#FAEC00"/>
<path d="M52.5584 37.3003H49.2517V40.607H52.5584V37.3003Z" fill="#EC771C"/>
<path d="M49.2517 37.3003H45.9451V40.607H49.2517V37.3003Z" fill="#FFB49C"/>
<path d="M45.9451 37.3003H42.6384V40.607H45.9451V37.3003Z" fill="#FFB49C"/>
<path d="M42.6451 37.3003H39.3385V40.607H42.6451V37.3003Z" fill="#FFB49C"/>
<path d="M62.4717 40.6003H59.165V43.9069H62.4717V40.6003Z" fill="#FAEC00"/>
<path d="M59.1649 40.6003H55.8583V43.9069H59.1649V40.6003Z" fill="#D18573"/>
<path d="M55.8583 40.6003H52.5516V43.9069H55.8583V40.6003Z" fill="#FFB49C"/>
<path d="M52.5584 40.6003H49.2517V43.9069H52.5584V40.6003Z" fill="#FFB49C"/>
<path d="M49.2517 40.6003H45.9451V43.9069H49.2517V40.6003Z" fill="#030406"/>
<path d="M45.9451 40.6003H42.6384V43.9069H45.9451V40.6003Z" fill="#D18573"/>
<path d="M42.6451 40.6003H39.3385V43.9069H42.6451V40.6003Z" fill="#FFB49C"/>
<path d="M62.4717 43.9069H59.165V47.2136H62.4717V43.9069Z" fill="#FAEC00"/>
<path d="M59.1649 43.9069H55.8583V47.2136H59.1649V43.9069Z" fill="#D18573"/>
<path d="M55.8583 43.9069H52.5516V47.2136H55.8583V43.9069Z" fill="#FFB49C"/>
<path d="M52.5584 43.9069H49.2517V47.2136H52.5584V43.9069Z" fill="#FFB49C"/>
<path d="M49.2517 43.9069H45.9451V47.2136H49.2517V43.9069Z" fill="#030406"/>
<path d="M45.9451 43.9069H42.6384V47.2136H45.9451V43.9069Z" fill="#D18573"/>
<path d="M42.6451 43.9069H39.3385V47.2136H42.6451V43.9069Z" fill="#FFB49C"/>
<path d="M62.4717 47.2135H59.165V50.5202H62.4717V47.2135Z" fill="#FFB000"/>
<path d="M59.1649 47.2135H55.8583V50.5202H59.1649V47.2135Z" fill="#0097DA"/>
<path d="M55.8583 47.2135H52.5516V50.5202H55.8583V47.2135Z" fill="#FFB49C"/>
<path d="M52.5584 47.2135H49.2517V50.5202H52.5584V47.2135Z" fill="#FFB49C"/>
<path d="M49.2517 47.2135H45.9451V50.5202H49.2517V47.2135Z" fill="#FFB49C"/>
<path d="M45.9451 47.2135H42.6384V50.5202H45.9451V47.2135Z" fill="#FFB49C"/>
<path d="M42.6451 47.2135H39.3385V50.5202H42.6451V47.2135Z" fill="#FFB49C"/>
<path d="M62.4717 50.5135H59.165V53.8202H62.4717V50.5135Z" fill="#FFB000"/>
<path d="M59.1649 50.5135H55.8583V53.8202H59.1649V50.5135Z" fill="#FFB000"/>
<path d="M55.8583 50.5135H52.5516V53.8202H55.8583V50.5135Z" fill="#FFB49C"/>
<path d="M52.5584 50.5135H49.2517V53.8202H52.5584V50.5135Z" fill="#FFB49C"/>
<path d="M49.2517 50.5135H45.9451V53.8202H49.2517V50.5135Z" fill="#FFB49C"/>
<path d="M45.9451 50.5135H42.6384V53.8202H45.9451V50.5135Z" fill="white"/>
<path d="M42.6451 50.5135H39.3385V53.8202H42.6451V50.5135Z" fill="white"/>
<path d="M62.4717 53.8202H59.165V57.1268H62.4717V53.8202Z" fill="#EC771C"/>
<path d="M59.1649 53.8202H55.8583V57.1268H59.1649V53.8202Z" fill="#FFB000"/>
<path d="M55.8583 53.8202H52.5516V57.1268H55.8583V53.8202Z" fill="#EC771C"/>
<path d="M52.5584 53.8202H49.2517V57.1268H52.5584V53.8202Z" fill="#FFB49C"/>
<path d="M49.2517 53.8202H45.9451V57.1268H49.2517V53.8202Z" fill="#FFB49C"/>
<path d="M45.9451 53.8202H42.6384V57.1268H45.9451V53.8202Z" fill="#FFB49C"/>
<path d="M42.6451 53.8202H39.3385V57.1268H42.6451V53.8202Z" fill="white"/>
<path d="M62.4717 57.1268H59.165V60.4335H62.4717V57.1268Z" fill="#FFB000"/>
<path d="M59.1649 57.1268H55.8583V60.4335H59.1649V57.1268Z" fill="#FFB000"/>
<path d="M55.8583 57.1268H52.5516V60.4335H55.8583V57.1268Z" fill="#FFB000"/>
<path d="M52.5584 57.1268H49.2517V60.4335H52.5584V57.1268Z" fill="#EC771C"/>
<path d="M49.2517 57.1268H45.9451V60.4335H49.2517V57.1268Z" fill="#FFB49C"/>
<path d="M45.9451 57.1268H42.6384V60.4335H45.9451V57.1268Z" fill="#FFB49C"/>
<path d="M42.6451 57.1268H39.3385V60.4335H42.6451V57.1268Z" fill="#FFB49C"/>
<path d="M59.1649 60.4268H55.8583V63.7334H59.1649V60.4268Z" fill="#FFB000"/>
<path d="M55.8583 60.4268H52.5516V63.7334H55.8583V60.4268Z" fill="#FFB000"/>
<path d="M52.5584 60.4268H49.2517V63.7334H52.5584V60.4268Z" fill="#FFB000"/>
<path d="M49.2517 60.4268H45.9451V63.7334H49.2517V60.4268Z" fill="#EC771C"/>
<path d="M45.9451 60.4268H42.6384V63.7334H45.9451V60.4268Z" fill="#D18573"/>
<path d="M42.6451 60.4268H39.3385V63.7334H42.6451V60.4268Z" fill="#D18573"/>
<path d="M45.9451 63.7334H42.6384V67.04H45.9451V63.7334Z" fill="#FFB49C"/>
<path d="M42.6451 63.7334H39.3385V67.04H42.6451V63.7334Z" fill="#FFB49C"/>
</svg>
