<svg width="78" height="81" viewBox="0 0 78 81" fill="none" xmlns="http://www.w3.org/2000/svg">
<rect x="0.0100098" y="0.523132" width="77.9899" height="80.161" rx="5.34406" fill="#28BC8C"/>
<path d="M31.6201 16.6055H27.926V20.2996H31.6201V16.6055Z" fill="#00C3FF"/>
<path d="M35.3142 16.6055H31.6201V20.2996H35.3142V16.6055Z" fill="#00C3FF"/>
<path d="M39.0083 16.6055H35.3142V20.2996H39.0083V16.6055Z" fill="#00C3FF"/>
<path d="M27.9329 20.2996H24.2388V23.9937H27.9329V20.2996Z" fill="#FAEC00"/>
<path d="M31.6201 20.2996H27.926V23.9937H31.6201V20.2996Z" fill="#006EB2"/>
<path d="M35.3142 20.2996H31.6201V23.9937H35.3142V20.2996Z" fill="#00C3FF"/>
<path d="M39.0083 20.2996H35.3142V23.9937H39.0083V20.2996Z" fill="#0097DA"/>
<path d="M20.5445 23.9937H16.8505V27.6878H20.5445V23.9937Z" fill="#00C3FF"/>
<path d="M24.2388 23.9937H20.5447V27.6878H24.2388V23.9937Z" fill="#00C3FF"/>
<path d="M27.9329 23.9937H24.2388V27.6878H27.9329V23.9937Z" fill="#006EB2"/>
<path d="M31.6201 23.9937H27.926V27.6878H31.6201V23.9937Z" fill="#FAEC00"/>
<path d="M35.3142 23.9937H31.6201V27.6878H35.3142V23.9937Z" fill="#006EB2"/>
<path d="M39.0083 23.9937H35.3142V27.6878H39.0083V23.9937Z" fill="#0097DA"/>
<path d="M20.5445 27.681H16.8505V31.3751H20.5445V27.681Z" fill="#0097DA"/>
<path d="M24.2388 27.681H20.5447V31.3751H24.2388V27.681Z" fill="#00C3FF"/>
<path d="M27.9329 27.681H24.2388V31.3751H27.9329V27.681Z" fill="#00C3FF"/>
<path d="M31.6201 27.681H27.926V31.3751H31.6201V27.681Z" fill="#006EB2"/>
<path d="M35.3142 27.681H31.6201V31.3751H35.3142V27.681Z" fill="#FAEC00"/>
<path d="M39.0083 27.681H35.3142V31.3751H39.0083V27.681Z" fill="#006EB2"/>
<path d="M20.5445 31.3751H16.8505V35.0692H20.5445V31.3751Z" fill="#0097DA"/>
<path d="M24.2388 31.3751H20.5447V35.0692H24.2388V31.3751Z" fill="#0097DA"/>
<path d="M27.9329 31.3751H24.2388V35.0692H27.9329V31.3751Z" fill="#0097DA"/>
<path d="M31.6201 31.3751H27.926V35.0692H31.6201V31.3751Z" fill="#0097DA"/>
<path d="M35.3142 31.3751H31.6201V35.0692H35.3142V31.3751Z" fill="#006EB2"/>
<path d="M39.0083 31.3751H35.3142V35.0692H39.0083V31.3751Z" fill="#FAEC00"/>
<path d="M20.5445 35.0692H16.8505V38.7633H20.5445V35.0692Z" fill="#0097DA"/>
<path d="M24.2388 35.0692H20.5447V38.7633H24.2388V35.0692Z" fill="#4B5967"/>
<path d="M27.9329 35.0692H24.2388V38.7633H27.9329V35.0692Z" fill="#4B5967"/>
<path d="M31.6201 35.0692H27.926V38.7633H31.6201V35.0692Z" fill="#38414B"/>
<path d="M35.3142 35.0692H31.6201V38.7633H35.3142V35.0692Z" fill="#4B5967"/>
<path d="M39.0083 35.0692H35.3142V38.7633H39.0083V35.0692Z" fill="#38414B"/>
<path d="M20.5445 38.7567H16.8505V42.4507H20.5445V38.7567Z" fill="#38414B"/>
<path d="M24.2388 38.7567H20.5447V42.4507H24.2388V38.7567Z" fill="#38414B"/>
<path d="M27.9329 38.7567H24.2388V42.4507H27.9329V38.7567Z" fill="#030406"/>
<path d="M31.6201 38.7567H27.926V42.4507H31.6201V38.7567Z" fill="#030406"/>
<path d="M35.3142 38.7567H31.6201V42.4507H35.3142V38.7567Z" fill="#030406"/>
<path d="M39.0083 38.7567H35.3142V42.4507H39.0083V38.7567Z" fill="#030406"/>
<path d="M20.5445 42.4507H16.8505V46.1448H20.5445V42.4507Z" fill="#0097DA"/>
<path d="M24.2388 42.4507H20.5447V46.1448H24.2388V42.4507Z" fill="#38414B"/>
<path d="M27.9329 42.4507H24.2388V46.1448H27.9329V42.4507Z" fill="#38414B"/>
<path d="M31.6201 42.4507H27.926V46.1448H31.6201V42.4507Z" fill="#38414B"/>
<path d="M35.3142 42.4507H31.6201V46.1448H35.3142V42.4507Z" fill="#030406"/>
<path d="M39.0083 42.4507H35.3142V46.1448H39.0083V42.4507Z" fill="#030406"/>
<path d="M20.5445 46.1381H16.8505V49.8322H20.5445V46.1381Z" fill="#0097DA"/>
<path d="M24.2388 46.1381H20.5447V49.8322H24.2388V46.1381Z" fill="#0097DA"/>
<path d="M27.9329 46.1381H24.2388V49.8322H27.9329V46.1381Z" fill="#0097DA"/>
<path d="M31.6201 46.1381H27.926V49.8322H31.6201V46.1381Z" fill="#38414B"/>
<path d="M35.3142 46.1381H31.6201V49.8322H35.3142V46.1381Z" fill="#38414B"/>
<path d="M39.0083 46.1381H35.3142V49.8322H39.0083V46.1381Z" fill="#38414B"/>
<path d="M20.5445 49.8322H16.8505V53.5263H20.5445V49.8322Z" fill="#006EB2"/>
<path d="M24.2388 49.8322H20.5447V53.5263H24.2388V49.8322Z" fill="#0097DA"/>
<path d="M27.9329 49.8322H24.2388V53.5263H27.9329V49.8322Z" fill="#0097DA"/>
<path d="M31.6201 49.8322H27.926V53.5263H31.6201V49.8322Z" fill="#0097DA"/>
<path d="M35.3142 49.8322H31.6201V53.5263H35.3142V49.8322Z" fill="#0097DA"/>
<path d="M39.0083 49.8322H35.3142V53.5263H39.0083V49.8322Z" fill="#0097DA"/>
<path d="M24.2388 53.5263H20.5447V57.2204H24.2388V53.5263Z" fill="#006EB2"/>
<path d="M27.9329 53.5263H24.2388V57.2204H27.9329V53.5263Z" fill="#0097DA"/>
<path d="M31.6201 53.5263H27.926V57.2204H31.6201V53.5263Z" fill="#0097DA"/>
<path d="M35.3142 53.5263H31.6201V57.2204H35.3142V53.5263Z" fill="#006EB2"/>
<path d="M39.0083 53.5263H35.3142V57.2204H39.0083V53.5263Z" fill="#0097DA"/>
<path d="M27.9329 57.2137H24.2388V60.9078H27.9329V57.2137Z" fill="#006EB2"/>
<path d="M31.6201 57.2137H27.926V60.9078H31.6201V57.2137Z" fill="#006EB2"/>
<path d="M35.3142 57.2137H31.6201V60.9078H35.3142V57.2137Z" fill="#006EB2"/>
<path d="M39.0083 57.2137H35.3142V60.9078H39.0083V57.2137Z" fill="#006EB2"/>
<path d="M35.3142 60.9078H31.6201V64.6019H35.3142V60.9078Z" fill="#BA2649"/>
<path d="M39.0083 60.9078H35.3142V64.6019H39.0083V60.9078Z" fill="#BA2649"/>
<path d="M50.0839 16.6055H46.3898V20.2996H50.0839V16.6055Z" fill="#00C3FF"/>
<path d="M46.3965 16.6055H42.7024V20.2996H46.3965V16.6055Z" fill="#00C3FF"/>
<path d="M42.7024 16.6055H39.0083V20.2996H42.7024V16.6055Z" fill="#00C3FF"/>
<path d="M53.7779 20.2996H50.0839V23.9937H53.7779V20.2996Z" fill="#FAEC00"/>
<path d="M50.0839 20.2996H46.3898V23.9937H50.0839V20.2996Z" fill="#006EB2"/>
<path d="M46.3965 20.2996H42.7024V23.9937H46.3965V20.2996Z" fill="#00C3FF"/>
<path d="M42.7024 20.2996H39.0083V23.9937H42.7024V20.2996Z" fill="#0097DA"/>
<path d="M61.1594 23.9937H57.4653V27.6878H61.1594V23.9937Z" fill="#00C3FF"/>
<path d="M57.472 23.9937H53.778V27.6878H57.472V23.9937Z" fill="#00C3FF"/>
<path d="M53.7779 23.9937H50.0839V27.6878H53.7779V23.9937Z" fill="#006EB2"/>
<path d="M50.0839 23.9937H46.3898V27.6878H50.0839V23.9937Z" fill="#FAEC00"/>
<path d="M46.3965 23.9937H42.7024V27.6878H46.3965V23.9937Z" fill="#006EB2"/>
<path d="M42.7024 23.9937H39.0083V27.6878H42.7024V23.9937Z" fill="#0097DA"/>
<path d="M61.1594 27.6811H57.4653V31.3751H61.1594V27.6811Z" fill="#0097DA"/>
<path d="M57.472 27.6811H53.778V31.3751H57.472V27.6811Z" fill="#00C3FF"/>
<path d="M53.7779 27.6811H50.0839V31.3751H53.7779V27.6811Z" fill="#00C3FF"/>
<path d="M50.0839 27.6811H46.3898V31.3751H50.0839V27.6811Z" fill="#006EB2"/>
<path d="M46.3965 27.6811H42.7024V31.3751H46.3965V27.6811Z" fill="#FAEC00"/>
<path d="M42.7024 27.6811H39.0083V31.3751H42.7024V27.6811Z" fill="#006EB2"/>
<path d="M61.1594 31.3752H57.4653V35.0693H61.1594V31.3752Z" fill="#0097DA"/>
<path d="M57.472 31.3752H53.778V35.0693H57.472V31.3752Z" fill="#0097DA"/>
<path d="M53.7779 31.3752H50.0839V35.0693H53.7779V31.3752Z" fill="#0097DA"/>
<path d="M50.0839 31.3752H46.3898V35.0693H50.0839V31.3752Z" fill="#0097DA"/>
<path d="M46.3965 31.3752H42.7024V35.0693H46.3965V31.3752Z" fill="#006EB2"/>
<path d="M42.7024 31.3752H39.0083V35.0693H42.7024V31.3752Z" fill="#FAEC00"/>
<path d="M61.1594 35.0693H57.4653V38.7634H61.1594V35.0693Z" fill="#0097DA"/>
<path d="M57.472 35.0693H53.778V38.7634H57.472V35.0693Z" fill="#38414B"/>
<path d="M53.7779 35.0693H50.0839V38.7634H53.7779V35.0693Z" fill="#38414B"/>
<path d="M50.0839 35.0693H46.3898V38.7634H50.0839V35.0693Z" fill="#38414B"/>
<path d="M46.3965 35.0693H42.7024V38.7634H46.3965V35.0693Z" fill="#4B5967"/>
<path d="M42.7024 35.0693H39.0083V38.7634H42.7024V35.0693Z" fill="#38414B"/>
<path d="M61.1594 38.7567H57.4653V42.4508H61.1594V38.7567Z" fill="#38414B"/>
<path d="M57.472 38.7567H53.778V42.4508H57.472V38.7567Z" fill="#38414B"/>
<path d="M53.7779 38.7567H50.0839V42.4508H53.7779V38.7567Z" fill="#030406"/>
<path d="M50.0839 38.7567H46.3898V42.4508H50.0839V38.7567Z" fill="#030406"/>
<path d="M46.3965 38.7567H42.7024V42.4508H46.3965V38.7567Z" fill="#030406"/>
<path d="M42.7024 38.7567H39.0083V42.4508H42.7024V38.7567Z" fill="#030406"/>
<path d="M61.1594 42.4507H57.4653V46.1448H61.1594V42.4507Z" fill="#0097DA"/>
<path d="M57.472 42.4507H53.778V46.1448H57.472V42.4507Z" fill="#38414B"/>
<path d="M53.7779 42.4507H50.0839V46.1448H53.7779V42.4507Z" fill="#38414B"/>
<path d="M50.0839 42.4507H46.3898V46.1448H50.0839V42.4507Z" fill="#38414B"/>
<path d="M46.3965 42.4507H42.7024V46.1448H46.3965V42.4507Z" fill="#030406"/>
<path d="M42.7024 42.4507H39.0083V46.1448H42.7024V42.4507Z" fill="#030406"/>
<path d="M61.1594 46.1381H57.4653V49.8322H61.1594V46.1381Z" fill="#0097DA"/>
<path d="M57.472 46.1381H53.778V49.8322H57.472V46.1381Z" fill="#0097DA"/>
<path d="M53.7779 46.1381H50.0839V49.8322H53.7779V46.1381Z" fill="#0097DA"/>
<path d="M50.0839 46.1381H46.3898V49.8322H50.0839V46.1381Z" fill="#4B5967"/>
<path d="M46.3965 46.1381H42.7024V49.8322H46.3965V46.1381Z" fill="#38414B"/>
<path d="M42.7024 46.1381H39.0083V49.8322H42.7024V46.1381Z" fill="#4B5967"/>
<path d="M61.1594 49.8322H57.4653V53.5263H61.1594V49.8322Z" fill="#006EB2"/>
<path d="M57.472 49.8322H53.778V53.5263H57.472V49.8322Z" fill="#0097DA"/>
<path d="M53.7779 49.8322H50.0839V53.5263H53.7779V49.8322Z" fill="#0097DA"/>
<path d="M50.0839 49.8322H46.3898V53.5263H50.0839V49.8322Z" fill="#0097DA"/>
<path d="M46.3965 49.8322H42.7024V53.5263H46.3965V49.8322Z" fill="#0097DA"/>
<path d="M42.7024 49.8322H39.0083V53.5263H42.7024V49.8322Z" fill="#0097DA"/>
<path d="M57.472 53.5263H53.778V57.2204H57.472V53.5263Z" fill="#006EB2"/>
<path d="M53.7779 53.5263H50.0839V57.2204H53.7779V53.5263Z" fill="#0097DA"/>
<path d="M50.0839 53.5263H46.3898V57.2204H50.0839V53.5263Z" fill="#0097DA"/>
<path d="M46.3965 53.5263H42.7024V57.2204H46.3965V53.5263Z" fill="#006EB2"/>
<path d="M42.7024 53.5263H39.0083V57.2204H42.7024V53.5263Z" fill="#0097DA"/>
<path d="M53.7779 57.2137H50.0839V60.9078H53.7779V57.2137Z" fill="#006EB2"/>
<path d="M50.0839 57.2137H46.3898V60.9078H50.0839V57.2137Z" fill="#006EB2"/>
<path d="M46.3965 57.2137H42.7024V60.9078H46.3965V57.2137Z" fill="#006EB2"/>
<path d="M42.7024 57.2137H39.0083V60.9078H42.7024V57.2137Z" fill="#006EB2"/>
<path d="M46.3965 60.9079H42.7024V64.602H46.3965V60.9079Z" fill="#BA2649"/>
<path d="M42.7024 60.9079H39.0083V64.602H42.7024V60.9079Z" fill="#BA2649"/>
</svg>
