<svg width="78" height="81" viewBox="0 0 78 81" fill="none" xmlns="http://www.w3.org/2000/svg">
<rect x="0.0100098" y="0.68206" width="77.9899" height="80.161" rx="5.34406" fill="#42495B"/>
<path fill-rule="evenodd" clip-rule="evenodd" d="M55.1529 45.0548C55.046 45.2304 55.0918 45.429 55.0918 45.6123C55.0918 46.6739 55.0918 47.7278 55.0918 48.7894C55.0918 49.3851 55.1377 49.3392 54.5191 49.3392C54.1219 49.3392 53.7171 49.3469 53.32 49.3392C53.0756 49.3316 52.9763 49.4309 52.984 49.6753C52.9992 50.1412 52.9916 50.6147 52.984 51.0805C52.984 51.4929 52.9763 51.4929 52.5487 51.5006C52.0828 51.5006 51.6093 51.5082 51.1434 51.5006C50.899 51.4929 50.7997 51.5693 50.8074 51.829C50.8226 52.2796 50.815 52.7302 50.8074 53.1808C50.8074 53.6466 50.7997 53.6466 50.311 53.6543C49.8909 53.6543 49.4785 53.6619 49.0585 53.6543C48.7988 53.6466 48.6842 53.723 48.6919 54.0056C48.7148 54.4714 48.6995 54.9449 48.6919 55.4108C48.6842 55.785 48.6842 55.7927 48.3176 55.8003C47.7449 55.8079 47.1721 55.8003 46.5993 55.7927C46.3625 55.9301 46.1105 55.9454 45.8432 55.9454C41.2762 55.9454 36.7091 55.9454 32.1421 55.9454C31.8824 55.9454 31.6227 55.9301 31.386 55.7927C30.8285 55.7927 30.2786 55.785 29.7211 55.8003C29.4614 55.8079 29.3469 55.7239 29.3545 55.449C29.3698 54.9602 29.3469 54.4791 29.3621 53.9903C29.3698 53.7459 29.2858 53.6466 29.0337 53.6466C28.545 53.6619 28.0638 53.6543 27.575 53.6466C27.2008 53.639 27.1932 53.639 27.1932 53.2724C27.1855 52.8371 27.1932 52.4018 27.1932 51.9741C27.1932 51.5082 27.1855 51.5082 26.6968 51.5006C26.2614 51.5006 25.8261 51.4853 25.3984 51.5082C25.1159 51.5235 25.0395 51.4013 25.0471 51.1416C25.0624 50.7445 25.0548 50.3474 25.0471 49.9426C25.0471 49.3392 25.0471 49.3392 24.4667 49.3392C24.123 49.3392 23.7717 49.3392 23.428 49.3392C22.9163 49.3392 22.9087 49.3392 22.9087 48.8428C22.9087 47.766 22.9087 46.6891 22.9087 45.6123C22.9087 45.4214 22.9469 45.2304 22.8476 45.0471C22.6872 44.3445 22.7942 43.6266 22.7712 42.9164C22.7483 41.0834 22.7712 39.2429 22.756 37.41C22.756 36.6539 22.7331 36.631 21.9617 36.631C20.8314 36.631 20.8925 36.5393 20.8925 37.7002C20.8925 38.4944 20.9001 39.2963 20.8925 40.0906C20.8925 40.3274 20.9154 40.5794 20.7397 40.7856C20.1364 41.0147 19.5102 40.9231 18.8992 40.8696C18.5479 40.8391 18.5097 40.5336 18.5021 40.2357C18.4944 39.4262 18.5021 38.609 18.5021 37.7995C18.5021 36.8448 18.5021 35.8978 18.5021 34.9431C18.5021 34.7217 18.4715 34.4925 18.6013 34.2863C18.8152 34.0878 19.0825 34.1183 19.3421 34.1183C20.2815 34.1107 21.2209 34.1183 22.1603 34.1107C22.7101 34.1031 22.7636 34.0572 22.7636 33.515C22.7712 32.5603 22.756 31.6057 22.7712 30.651C22.7789 29.979 22.9011 29.8644 23.5655 29.8415C23.8252 29.8339 24.0848 29.8415 24.3445 29.8339C24.8944 29.8186 24.9402 29.7728 24.9555 29.2382C24.9631 28.9403 24.9478 28.6501 24.9631 28.3522C24.986 27.8024 25.1006 27.6802 25.6428 27.6496C25.8872 27.6344 26.1316 27.6496 26.376 27.642C27.0022 27.6343 27.0404 27.5962 27.0481 26.947C27.0481 26.6873 27.0481 26.4277 27.0557 26.168C27.0633 25.7632 27.2695 25.5723 27.6743 25.5647C28.0256 25.557 28.3693 25.5494 28.713 25.557C29.0948 25.5647 29.2399 25.3967 29.2399 25.0224C29.2323 24.6558 29.2323 24.2893 29.2552 23.9303C29.2781 23.579 29.4614 23.3881 29.8127 23.3804C30.9583 23.3575 32.1039 23.3575 33.2495 23.3804C33.6313 23.3881 33.8146 23.5866 33.8299 23.9685C33.8452 24.3504 33.8375 24.7322 33.8452 25.1141C33.8528 25.4196 33.9979 25.557 34.2958 25.557C34.6089 25.557 34.922 25.5494 35.2351 25.5647C35.7774 25.5952 35.8919 25.7098 35.9225 26.2597C35.9378 26.5728 35.9301 26.8859 35.9301 27.199C35.9301 27.5045 36.0752 27.6343 36.3807 27.642C36.7626 27.6496 37.1444 27.642 37.5263 27.6573C37.9082 27.6725 38.0991 27.8558 38.1144 28.2377C38.1296 28.6195 38.122 29.0014 38.1296 29.3833C38.1373 29.6811 38.2747 29.8033 38.5726 29.8339C39.9091 29.9637 39.9702 29.9179 39.9855 28.5737C39.9931 27.7489 40.0924 27.6573 40.9248 27.6496C42.185 27.642 42.0551 27.7184 42.0704 26.4811C42.0781 25.6716 42.1773 25.5799 42.964 25.5647C44.2394 25.5418 44.2394 25.5418 44.2623 24.2358C44.2776 23.4874 44.3769 23.3804 45.1024 23.3728C46.0723 23.3652 47.0499 23.3652 48.0198 23.3728C48.7301 23.3804 48.8293 23.495 48.8675 24.1823C48.8904 24.61 48.6842 25.1294 49.005 25.4348C49.3028 25.7251 49.8069 25.5265 50.2193 25.557C50.7997 25.5952 50.9143 25.7021 50.9525 26.2749C50.9525 26.3131 50.9525 26.3437 50.9525 26.3819C50.9907 27.6267 50.9907 27.6267 52.2661 27.6496C53.0298 27.6649 53.1291 27.7642 53.1444 28.5279C53.1673 29.7957 53.1673 29.7957 54.458 29.8415C55.0918 29.8644 55.214 29.979 55.2217 30.6205C55.2369 31.5751 55.2217 32.5298 55.2293 33.4844C55.2369 34.0496 55.2904 34.1107 55.8632 34.1107C56.8331 34.1183 57.8107 34.1031 58.7806 34.1183C59.4756 34.126 59.5978 34.2482 59.5978 34.9508C59.6054 36.6691 59.6054 38.3875 59.5978 40.1135C59.5978 40.3426 59.5978 40.5718 59.4374 40.755L59.445 40.7474C58.7119 41.03 57.9787 40.9689 57.2379 40.7856C57.0546 40.5641 57.0851 40.2968 57.0851 40.0371C57.0775 39.0978 57.0699 38.1584 57.0851 37.219C57.0928 36.8066 56.9553 36.6157 56.5124 36.6233C55.046 36.6462 55.2293 36.4935 55.214 37.8987C55.1988 39.5713 55.2293 41.2362 55.1988 42.9087C55.2064 43.6343 55.3133 44.3522 55.1529 45.0548Z" fill="#FFDC94"/>
<path fill-rule="evenodd" clip-rule="evenodd" d="M59.4528 40.7626C59.4451 38.8151 59.4451 36.8676 59.4375 34.9202C59.4375 34.2404 59.491 34.3015 58.8265 34.3015C57.7344 34.3015 56.6346 34.3015 55.5425 34.3015C55.0919 34.3015 55.0919 34.2939 55.0919 33.8357C55.0919 32.7054 55.0919 31.5751 55.0919 30.4448C55.0919 30.0247 55.0843 30.0247 54.6566 30.0171C54.2213 30.0094 53.786 30.0018 53.3506 30.0171C53.091 30.0247 52.9764 29.9407 52.9841 29.6658C52.9993 29.177 52.9764 28.6958 52.9917 28.2071C52.9993 27.9398 52.9153 27.8328 52.6404 27.8405C52.1745 27.8558 51.701 27.8481 51.2351 27.8405C50.8304 27.8328 50.8227 27.8328 50.8151 27.4433C50.8075 26.9775 50.8075 26.504 50.8151 26.0381C50.8227 25.8166 50.7387 25.725 50.5096 25.7326C50.0208 25.7403 49.5321 25.725 49.0509 25.7403C48.776 25.7479 48.692 25.641 48.6996 25.3737C48.7149 24.8849 48.692 24.4037 48.7072 23.915C48.7149 23.6477 48.6232 23.5484 48.3483 23.5484C47.1492 23.556 45.9502 23.556 44.7512 23.5484C44.5068 23.5484 44.4075 23.6324 44.4151 23.8768C44.4304 24.3426 44.4228 24.8162 44.4151 25.282C44.4151 25.7173 44.4075 25.7173 43.9951 25.725C43.5292 25.7326 43.0557 25.7403 42.5898 25.725C42.3073 25.7173 42.2309 25.8319 42.2385 26.0916C42.2538 26.5116 42.2462 26.924 42.2385 27.3441C42.2385 27.8405 42.2309 27.8405 41.7116 27.8405C41.2915 27.8405 40.8791 27.8481 40.4591 27.8405C40.207 27.8328 40.1154 27.9321 40.123 28.1765C40.1307 28.6806 40.1154 29.1846 40.1307 29.6887C40.1383 29.9407 40.039 30.0247 39.7946 30.0171C39.2906 30.0018 38.7865 30.0018 38.2825 30.0171C38.0381 30.0247 37.9388 29.9407 37.9464 29.6887C37.9617 29.1846 37.9388 28.6806 37.9541 28.1765C37.9617 27.9321 37.8777 27.8328 37.6257 27.8405C37.1369 27.8558 36.6557 27.8481 36.167 27.8405C35.7927 27.8328 35.7851 27.8328 35.7775 27.4663C35.7698 27.0004 35.7622 26.5269 35.7775 26.061C35.7851 25.8166 35.7011 25.7173 35.4491 25.725C34.9603 25.7403 34.4791 25.7173 33.9904 25.7326C33.7383 25.7403 33.6543 25.641 33.662 25.3966C33.6772 24.8925 33.6543 24.3885 33.6696 23.8844C33.6772 23.64 33.5856 23.5484 33.3412 23.5484C32.1269 23.556 30.9049 23.556 29.6906 23.5484C29.4615 23.5484 29.3851 23.64 29.3928 23.8615C29.4004 24.3808 29.3851 24.9078 29.4004 25.4271C29.4081 25.6486 29.324 25.7403 29.0949 25.7326C28.6291 25.725 28.1556 25.725 27.6897 25.7326C27.2238 25.7326 27.2238 25.7403 27.2238 26.229C27.2238 26.6644 27.2162 27.0997 27.2238 27.535C27.2315 27.7565 27.1474 27.8481 26.9183 27.8481C26.4677 27.8405 26.0171 27.8405 25.5589 27.8481C25.116 27.8558 25.1083 27.8558 25.1083 28.3216C25.1083 28.7188 25.1083 29.1235 25.1083 29.5207C25.1083 30.0171 25.1007 30.0171 24.5813 30.0247C24.1613 30.0247 23.7489 30.0171 23.3288 30.0247C22.9394 30.0324 22.9317 30.0324 22.9317 30.4371C22.9241 31.5674 22.9317 32.6977 22.9317 33.828C22.9317 34.3015 22.9241 34.3092 22.4429 34.3092C21.1904 34.3092 19.9379 34.3015 18.6854 34.3015C18.5403 34.4466 18.6091 34.6299 18.6091 34.7903C18.6014 36.6156 18.6091 38.4333 18.6014 40.2586C18.6014 40.4266 18.6472 40.6099 18.548 40.7702C17.9752 40.7779 17.4024 40.7855 16.8296 40.7855C16.4706 40.7702 16.463 40.7626 16.463 40.396C16.463 38.3263 16.463 36.2567 16.463 34.1946C16.463 32.9421 16.463 31.6896 16.463 30.4371C16.463 30.0247 16.4706 30.0171 16.8983 30.0171C17.3642 30.0171 17.8377 30.0094 18.3036 30.0171C18.548 30.0247 18.6396 29.9483 18.632 29.6887C18.6167 28.925 18.6243 28.1612 18.6243 27.3975C18.6243 26.2519 18.6243 25.1064 18.6243 23.9531C18.6243 23.556 18.632 23.556 19.0291 23.5484C19.4644 23.5407 19.8997 23.5484 20.3351 23.5484C20.7322 23.5407 20.7398 23.5407 20.7398 23.1512C20.7398 22.0744 20.7398 20.9976 20.7398 19.9207C20.7398 19.8367 20.7398 19.7451 20.7398 19.661C20.7475 19.2868 20.7475 19.2792 21.1064 19.2792C21.557 19.2715 22.0076 19.2792 22.4658 19.2792C22.9088 19.2792 22.9164 19.2715 22.9164 18.821C22.9164 18.4009 22.9164 17.9885 22.9164 17.5685C22.9241 17.1713 22.9241 17.1713 23.3136 17.1713C25.1007 17.1713 26.8954 17.1713 28.6825 17.1713C29.4386 17.1713 29.3622 17.2782 29.3699 16.4687C29.3699 16.0716 29.3775 15.6668 29.3699 15.2697C29.3699 15.0711 29.4386 14.9947 29.6448 14.9947C30.1489 15.0024 30.6529 14.9871 31.157 15.0024C31.4014 15.01 31.493 14.9336 31.4854 14.674C31.4701 14.2234 31.4777 13.7728 31.4777 13.3222C31.4777 12.8334 31.4777 12.8334 31.9512 12.8334C33.0663 12.8334 34.1737 12.8334 35.2887 12.8334C35.7622 12.8334 35.7622 12.8258 35.7622 12.3446C35.7622 11.9093 35.7775 11.474 35.7546 11.0387C35.7622 10.779 35.8462 10.695 36.0982 10.7026C36.7779 10.7179 37.4577 10.7103 38.1297 10.7103C39.367 10.7103 40.5965 10.7103 41.8338 10.7103C42.2309 10.7103 42.2385 10.7179 42.2385 11.1074C42.2462 11.5045 42.2385 11.9093 42.2385 12.3064C42.2385 12.8563 42.1698 12.8258 42.7808 12.8258C43.8729 12.8258 44.9726 12.8258 46.0648 12.8258C46.5154 12.8258 46.5154 12.8334 46.523 13.284C46.523 13.7499 46.5306 14.2234 46.523 14.6892C46.5154 14.9107 46.5841 15.0024 46.8132 14.9947C47.3325 14.9794 47.8595 15.0024 48.3788 14.9871C48.6309 14.9794 48.7072 15.0711 48.6996 15.3231C48.6843 15.8119 48.692 16.293 48.6996 16.7818C48.7072 17.156 48.7072 17.1637 49.0662 17.1637C49.5321 17.1713 50.0056 17.1637 50.4714 17.1637C51.8308 17.1637 53.1826 17.1637 54.542 17.1637C55.1454 17.1637 55.0843 17.0949 55.0843 17.7288C55.0843 18.126 55.0996 18.5307 55.0767 18.9279C55.0614 19.2181 55.1759 19.2868 55.4356 19.2792C55.9015 19.2639 56.375 19.2715 56.8408 19.2792C57.238 19.2792 57.2456 19.2868 57.2456 19.6763C57.2456 20.7379 57.2456 21.7995 57.2456 22.8534C57.2456 22.9374 57.2456 23.029 57.2456 23.1131C57.2533 23.5407 57.2533 23.5484 57.6657 23.5484C58.1163 23.556 58.5668 23.5484 59.0251 23.5484C59.4146 23.556 59.4222 23.556 59.4222 23.9531C59.4222 25.534 59.4222 27.1149 59.4222 28.6958C59.4222 29.0472 59.4299 29.3908 59.4222 29.7421C59.4146 29.9483 59.4986 30.0094 59.6972 30.0094C60.2012 30.0018 60.7053 30.0171 61.2093 30.0018C61.4537 29.9942 61.5454 30.0705 61.5454 30.3226C61.5301 30.9106 61.5454 31.5063 61.5454 32.0944C61.5454 34.7903 61.5454 37.4786 61.5454 40.1745C61.5454 40.2815 61.5377 40.3807 61.5454 40.4877C61.5606 40.6862 61.4766 40.7626 61.2781 40.7626C60.6747 40.7626 60.0637 40.7626 59.4528 40.7626Z" fill="#FF4800"/>
<path fill-rule="evenodd" clip-rule="evenodd" d="M48.7072 60.0697C48.7072 62.0019 48.7072 63.9264 48.7072 65.8586C48.7072 65.9808 48.6996 66.103 48.7072 66.2252C48.7148 66.4543 48.6003 66.5307 48.3864 66.5307C47.9511 66.5231 47.5158 66.5307 47.0805 66.5307C46.3168 66.5307 45.553 66.5384 44.7817 66.5307C44.5144 66.5307 44.4075 66.63 44.4151 66.8973C44.4304 67.3479 44.4075 67.7985 44.4227 68.2567C44.4304 68.4782 44.3616 68.5851 44.1249 68.6539C43.743 68.7531 43.3688 68.7073 42.9869 68.7226C42.8495 68.7302 42.712 68.7302 42.5669 68.7226C42.3225 68.7073 42.2232 68.8219 42.2309 69.0663C42.2385 69.4863 42.2385 69.8987 42.2309 70.3188C42.2309 70.8152 42.2232 70.8228 41.7497 70.8228C39.9244 70.8228 38.0991 70.8228 36.2739 70.8228C35.7698 70.8228 35.7698 70.8152 35.7698 70.2882C35.7698 69.8682 35.7622 69.4558 35.7698 69.0357C35.7698 68.8142 35.6705 68.7226 35.4567 68.7226C34.9908 68.7302 34.5173 68.715 34.0514 68.7226C33.7918 68.7302 33.6696 68.6386 33.6772 68.3636C33.6925 67.913 33.6848 67.4625 33.6772 67.0042C33.6696 66.546 33.6696 66.5384 33.219 66.5384C32.1727 66.5307 31.134 66.5384 30.0877 66.5384C29.9655 66.5384 29.8433 66.5307 29.7211 66.5384C29.5073 66.546 29.3927 66.4696 29.4004 66.2405C29.408 66.1183 29.4004 65.9961 29.4004 65.8739C29.4004 63.9417 29.4004 62.0171 29.4004 60.0849C30.0877 60.0773 30.7751 60.0773 31.4624 60.0697C31.7068 60.2606 31.6534 60.5355 31.6534 60.7875C31.661 61.7422 31.6457 62.6968 31.661 63.6515C31.6686 64.209 31.7297 64.2701 32.3025 64.2777C33.219 64.2854 34.1431 64.2777 35.0595 64.2854C35.8003 64.293 35.9149 64.3999 35.9302 65.1178C35.9531 66.4925 35.7622 66.3627 37.198 66.3703C38.6032 66.378 40.0084 66.378 41.4137 66.3703C42.0247 66.3703 42.0628 66.3245 42.0705 65.7212C42.0705 65.5684 42.0705 65.408 42.0705 65.2553C42.0781 64.3847 42.1621 64.293 43.0175 64.2854C43.8652 64.2777 44.7206 64.2854 45.5683 64.2854C46.3397 64.2854 46.3397 64.2777 46.3473 63.4987C46.3473 62.5823 46.3397 61.6582 46.3549 60.7417C46.3549 60.505 46.3168 60.2453 46.5535 60.0773C47.2714 60.062 47.9893 60.062 48.7072 60.0697Z" fill="#006BA0"/>
<path fill-rule="evenodd" clip-rule="evenodd" d="M46.5534 60.0542C46.4923 61.2838 46.5458 62.521 46.5305 63.7506C46.5229 64.4685 46.6145 64.3998 45.8966 64.3998C44.8732 64.3998 43.8499 64.3998 42.8188 64.3998C42.162 64.3998 42.246 64.3692 42.246 65.0031C42.246 65.4003 42.2308 65.805 42.2537 66.2022C42.269 66.4924 42.1468 66.5535 41.8871 66.5535C40.5659 66.5458 39.2446 66.5535 37.9234 66.5535C37.3812 66.5535 36.8466 66.5535 36.3043 66.5535C35.7086 66.5535 35.785 66.5535 35.785 66.0036C35.785 65.6065 35.785 65.2017 35.785 64.8046C35.7773 64.4151 35.7773 64.4151 35.3726 64.4074C34.3263 64.3998 33.2876 64.4074 32.2413 64.4074C32.1191 64.4074 31.9969 64.4074 31.8747 64.4074C31.5082 64.3921 31.5005 64.3921 31.5005 64.0179C31.4929 62.9029 31.5005 61.7955 31.5005 60.6805C31.5005 60.4743 31.5234 60.2604 31.47 60.0619C31.4852 59.3592 31.5005 58.6643 31.5158 57.9616C32.1726 57.6791 32.8447 57.8089 33.5091 57.87C33.7535 57.8929 33.8146 58.122 33.8375 58.3435C33.868 58.6566 33.8528 58.9697 33.8604 59.2829C33.8757 59.8327 33.9291 59.8786 34.4561 59.8938C34.7311 59.9015 35.0136 59.9015 35.2886 59.9015C35.7162 59.9015 35.9301 60.1 35.9377 60.5354C35.9454 60.8867 35.9454 61.2304 35.9454 61.5817C35.9377 61.9253 36.0752 62.0934 36.4341 62.0934C38.1525 62.0934 39.8785 62.0934 41.5969 62.0934C41.9558 62.0934 42.0933 61.9253 42.0857 61.5817C42.078 61.238 42.0857 60.8867 42.0933 60.5354C42.1009 60.1 42.3148 59.9015 42.7425 59.9015C43.0556 59.9015 43.3687 59.9015 43.6818 59.8938C44.2164 59.8786 44.2623 59.8251 44.2775 59.2829C44.2852 59.0079 44.2775 58.7254 44.2852 58.4504C44.2928 58.0533 44.4685 57.8089 44.8809 57.8242C45.4308 57.8471 45.9883 57.6791 46.5152 57.9616C46.5229 58.6566 46.5381 59.3516 46.5534 60.0542Z" fill="#FFDC94"/>
<path fill-rule="evenodd" clip-rule="evenodd" d="M46.5078 57.954C45.935 57.954 45.3622 57.9693 44.7894 57.954C44.5221 57.9464 44.4152 58.0533 44.4228 58.3206C44.4381 58.7712 44.4305 59.2218 44.4228 59.6724C44.4152 60.0313 44.3999 60.0466 44.0333 60.0542C43.5446 60.0619 43.0634 60.0619 42.5746 60.0542C42.3302 60.0466 42.2386 60.1535 42.2386 60.3979C42.2462 60.8867 42.2462 61.3678 42.2386 61.8566C42.231 62.2156 42.2157 62.2385 41.8491 62.2385C39.9551 62.2461 38.0611 62.2461 36.167 62.2385C35.7928 62.2385 35.7852 62.2232 35.7775 61.8566C35.7699 61.3678 35.7699 60.8867 35.7775 60.3979C35.7852 60.1535 35.6859 60.0542 35.4415 60.0619C35.0214 60.0695 34.609 60.0695 34.189 60.0619C33.6849 60.0619 33.6849 60.0542 33.6849 59.5349C33.6849 59.1683 33.6849 58.8017 33.6849 58.4428C33.6773 57.9769 33.6773 57.9693 33.2267 57.9693C32.6539 57.9616 32.0811 57.9617 31.5083 57.9617C31.5007 57.4118 31.4931 56.8543 31.4854 56.3044C31.4854 56.1364 31.5236 55.9531 31.4091 55.8003C31.4625 55.7927 31.516 55.785 31.5618 55.785C36.526 55.785 41.4978 55.785 46.462 55.785C46.5154 55.785 46.5689 55.7927 46.6147 55.8003C46.4925 55.9683 46.5383 56.1669 46.5383 56.3578C46.5231 56.8848 46.5154 57.4194 46.5078 57.954Z" fill="#D8A95B"/>
<path fill-rule="evenodd" clip-rule="evenodd" d="M55.0921 42.9545C55.0844 40.923 55.0768 38.8915 55.0768 36.86C55.0768 36.4934 55.0921 36.4858 55.4586 36.4782C55.894 36.4705 56.3293 36.4705 56.7646 36.4782C57.2534 36.4782 57.261 36.4858 57.261 36.9593C57.261 38.1202 57.261 39.2886 57.261 40.4495C57.261 40.5564 57.261 40.6557 57.2687 40.7626C57.4672 40.9994 57.4138 41.2819 57.4214 41.5569C57.4367 42.817 57.2992 42.6643 58.5746 42.6872C58.8572 42.6948 59.1703 42.6108 59.4071 42.8552C59.2772 42.985 59.1169 42.9239 58.9717 42.9239C58.4066 42.9316 57.8491 42.9316 57.2839 42.9316C56.5584 43.2218 55.8252 43.1912 55.0921 42.9545Z" fill="#D8A95B"/>
<path fill-rule="evenodd" clip-rule="evenodd" d="M18.5556 40.7549C18.5556 38.7769 18.5556 36.7912 18.5632 34.8132C18.5632 34.6375 18.4792 34.4237 18.6854 34.2862C18.6701 34.4237 18.6472 34.5612 18.6472 34.6986C18.6472 36.5545 18.6472 38.4179 18.6472 40.2738C18.6472 40.7549 18.6548 40.7549 19.1284 40.7549C19.663 40.7549 20.2052 40.7549 20.7398 40.7549C21.03 41.4041 20.9002 42.0762 20.8314 42.7482C20.8009 42.8093 20.7551 42.8552 20.694 42.8781C20.0219 42.8857 19.3575 42.901 18.6854 42.8704C18.5632 42.3664 18.6625 41.8547 18.6243 41.3506C18.6167 41.1521 18.6854 40.9382 18.5556 40.7549Z" fill="#FF4801"/>
<path fill-rule="evenodd" clip-rule="evenodd" d="M22.9319 42.9545C22.9319 43.5044 22.9395 44.0619 22.9319 44.6118C22.9319 44.7645 22.9701 44.9249 22.8631 45.0624C22.3056 45.0624 21.7481 45.07 21.1982 45.0624C20.7553 45.0624 20.7629 45.0547 20.7553 44.5965C20.7476 44.039 20.74 43.4891 20.7324 42.9316C20.7094 42.8934 20.7171 42.8629 20.7629 42.84L20.7553 42.8476C21.4808 42.7865 22.214 42.6567 22.9319 42.9545Z" fill="#FF4800"/>
<path fill-rule="evenodd" clip-rule="evenodd" d="M59.4069 42.8553C58.8189 42.8553 58.2385 42.8553 57.6504 42.8476C57.2838 42.84 57.2762 42.8324 57.2685 42.4658C57.2609 41.9006 57.2685 41.3278 57.2685 40.7627C58.0017 40.7627 58.7272 40.755 59.4604 40.755C59.4528 41.2667 59.4451 41.7861 59.4375 42.2977C59.4375 42.481 59.468 42.672 59.4069 42.8553Z" fill="#FE4902"/>
<path fill-rule="evenodd" clip-rule="evenodd" d="M55.092 42.9544C55.8176 42.8857 56.5507 42.9315 57.2839 42.9315C57.2763 43.5043 57.2763 44.0771 57.2686 44.6499C57.261 45.0546 57.261 45.0546 56.8791 45.0623C56.3063 45.0699 55.7336 45.0623 55.1608 45.0623C55.0309 44.7339 55.1073 44.3825 55.0997 44.0465C55.0768 43.6799 55.092 43.321 55.092 42.9544Z" fill="#FF4801"/>
<path fill-rule="evenodd" clip-rule="evenodd" d="M20.7549 42.8398C20.7549 42.8703 20.7473 42.9009 20.7244 42.9314C20.0447 42.9085 19.3649 43.0002 18.6929 42.878C19.3802 42.8627 20.0676 42.8474 20.7549 42.8398Z" fill="#D8A95B"/>
<path fill-rule="evenodd" clip-rule="evenodd" d="M33.6772 47.2315C33.8299 47.1628 33.9827 47.1933 34.1431 47.1933C37.4118 47.1933 40.6729 47.1933 43.9416 47.1933C44.1172 47.1933 44.2929 47.1628 44.4533 47.2468L44.4456 47.2392C44.438 47.7738 44.4227 48.316 44.4227 48.8506C44.4151 49.3394 44.4151 49.3394 43.9492 49.347C43.4986 49.347 43.048 49.3623 42.5974 49.3394C42.3225 49.3317 42.2308 49.431 42.2461 49.6983C42.2614 50.1489 42.2538 50.5995 42.2538 51.0501C42.2538 51.516 42.2996 51.5083 41.8108 51.5083C40.1612 51.5083 38.5115 51.5083 36.8619 51.5083C36.6175 51.5083 36.3731 51.4931 36.1364 51.516C35.8538 51.5389 35.7851 51.4091 35.7927 51.1494C35.808 50.6606 35.7851 50.1795 35.8003 49.6907C35.808 49.4234 35.7163 49.3241 35.4414 49.3317C34.9526 49.347 34.4715 49.3317 33.9827 49.3394C33.7612 49.347 33.6696 49.2707 33.6772 49.0415C33.6925 48.4382 33.6925 47.8272 33.7001 47.2239L33.6772 47.2315Z" fill="#3F2100"/>
<path fill-rule="evenodd" clip-rule="evenodd" d="M33.5933 34.2785C33.746 34.1792 33.6697 34.0265 33.6697 33.9043C33.6773 33.4384 33.6849 32.9649 33.6697 32.4991C33.662 32.2852 33.7231 32.1859 33.9599 32.1936C34.4487 32.2088 34.9298 32.1936 35.4186 32.2012C35.7699 32.2012 35.7775 32.2088 35.7775 32.5831C35.7775 34.248 35.7775 35.9129 35.7775 37.5778C35.7775 37.8069 35.7622 38.0284 35.7852 38.2575C35.8081 38.5248 35.7088 38.6164 35.4339 38.6164C34.5327 38.6012 33.6315 38.6088 32.7303 38.6088C32.4019 38.6088 32.0735 38.6012 31.7374 38.6088C31.5618 38.6088 31.4854 38.5401 31.4931 38.3644C31.516 37.0126 31.4549 35.6609 31.5236 34.3091C32.211 34.0036 32.8983 34.0494 33.5933 34.2785Z" fill="black"/>
<path fill-rule="evenodd" clip-rule="evenodd" d="M46.5078 32.1863C46.5154 33.1562 46.5231 34.1262 46.5307 35.0961C46.5307 36.15 46.5307 37.2116 46.5383 38.2655C46.5383 38.487 46.5078 38.6168 46.2328 38.6168C45.0033 38.6016 43.7737 38.6092 42.5441 38.6092C42.3684 38.6092 42.2462 38.5786 42.2462 38.3572C42.2691 37.0054 42.208 35.6536 42.2768 34.3018C42.9641 33.9963 43.6515 34.0421 44.3465 34.2713C44.4763 34.2102 44.4305 34.0956 44.4305 34.004C44.4381 33.5686 44.4305 33.141 44.4305 32.7056C44.4305 32.1099 44.377 32.2016 44.9651 32.1939C45.4844 32.1863 46.0037 32.1939 46.5231 32.1939L46.5078 32.1863Z" fill="black"/>
<path fill-rule="evenodd" clip-rule="evenodd" d="M22.9318 42.9546C22.4048 42.947 21.8779 42.9394 21.3509 42.9317C21.1447 42.9317 20.9385 42.9546 20.7476 42.8477C20.7476 42.1527 20.7476 41.4654 20.7476 40.7704C20.7476 39.5026 20.7476 38.2349 20.7552 36.9671C20.7552 36.4859 20.7628 36.4859 21.2516 36.4859C21.6869 36.4859 22.1223 36.4783 22.5499 36.4859C22.9165 36.4936 22.9318 36.5012 22.9394 36.8678C22.9471 37.853 22.9394 38.8458 22.9394 39.831C22.9394 40.8697 22.9318 41.9083 22.9318 42.9546Z" fill="#D8A95B"/>
<path fill-rule="evenodd" clip-rule="evenodd" d="M46.5307 29.9941C45.6448 30.0704 44.7589 30.0093 43.8806 30.0246C43.4453 30.0323 43.01 30.0093 42.5747 30.0323C42.2921 30.0475 42.2234 29.933 42.231 29.6733C42.2463 29.1845 42.2539 28.7034 42.231 28.2146C42.2157 27.9244 42.3379 27.8633 42.59 27.8709C43.5064 27.8786 44.4305 27.8633 45.347 27.8786C45.7212 27.8862 46.21 27.7105 46.4544 27.9626C46.6759 28.1841 46.5078 28.6576 46.5155 29.0241C46.5231 29.3525 46.5155 29.6809 46.5155 30.017L46.5307 29.9941Z" fill="#010100"/>
<path fill-rule="evenodd" clip-rule="evenodd" d="M31.4929 30.0017C31.4929 29.3907 31.5006 28.7874 31.4929 28.1764C31.4929 27.9625 31.5464 27.8633 31.7831 27.8633C33.0204 27.8709 34.25 27.8709 35.4872 27.8633C35.7087 27.8633 35.7927 27.9396 35.785 28.1611C35.7698 28.7034 35.7774 29.238 35.785 29.7802C35.785 29.9559 35.7239 30.0246 35.5406 30.0246C34.1889 30.0017 32.8294 30.0704 31.4777 29.9864L31.4929 30.0017Z" fill="#010100"/>
<path fill-rule="evenodd" clip-rule="evenodd" d="M46.5153 32.2013C46.523 31.4681 46.523 30.735 46.5306 29.9942L46.523 30.0094C47.1492 30.0171 47.7678 30.0324 48.3941 30.0247C48.6079 30.0247 48.7072 30.0782 48.7072 30.3149C48.6919 30.8343 48.6919 31.3536 48.7072 31.8729C48.7148 32.1249 48.6308 32.209 48.3788 32.2013C47.7526 32.186 47.1263 32.186 46.5077 32.186L46.5153 32.2013Z" fill="#020101"/>
<path fill-rule="evenodd" clip-rule="evenodd" d="M33.6848 47.2237C33.0967 47.155 32.5087 47.2085 31.9206 47.1932C31.5006 47.1779 31.5006 47.1856 31.4929 46.7579C31.4929 46.3073 31.5082 45.8567 31.4853 45.4061C31.47 45.1235 31.5922 45.0471 31.8519 45.0548C32.333 45.0701 32.8218 45.0701 33.3106 45.0548C33.5779 45.0471 33.6772 45.1388 33.6695 45.4137C33.6542 46.0171 33.6695 46.628 33.6695 47.2314L33.6848 47.2237Z" fill="#412301"/>
<path fill-rule="evenodd" clip-rule="evenodd" d="M29.4157 40.7473C28.6826 40.7473 27.9494 40.7473 27.2162 40.7473L27.2239 40.7549C27.2239 40.1516 27.2315 39.5483 27.2162 38.9373C27.2086 38.67 27.3079 38.5631 27.5752 38.5707C28.0258 38.586 28.4764 38.5707 28.9193 38.5783C29.3776 38.586 29.3928 38.5936 29.3928 39.0442C29.4005 39.617 29.4005 40.1898 29.4157 40.7473Z" fill="#BF7E1E"/>
<path fill-rule="evenodd" clip-rule="evenodd" d="M37.9693 40.7548C37.9693 40.1514 37.9769 39.5405 37.9617 38.9371C37.954 38.6775 38.038 38.5553 38.313 38.5629C38.7636 38.5782 39.2142 38.5629 39.6647 38.5705C40.1001 38.5782 40.1459 38.6164 40.1459 39.044C40.1535 39.6168 40.1535 40.182 40.1535 40.7548L40.1612 40.7471C39.428 40.7548 38.6948 40.7548 37.9693 40.7548Z" fill="#D8A95B"/>
<path fill-rule="evenodd" clip-rule="evenodd" d="M50.7921 40.7553C51.3802 40.7553 51.9759 40.7553 52.5639 40.7553C52.9764 40.7629 52.9764 40.7629 52.984 41.1524C52.9916 41.6183 52.9764 42.0918 52.984 42.5576C52.9916 42.7944 52.9 42.9166 52.6556 42.9166C52.1515 42.9166 51.6475 42.9166 51.1434 42.9166C50.9067 42.9166 50.7998 42.8173 50.7998 42.5729C50.8074 41.9619 50.7998 41.3586 50.7921 40.7476V40.7553Z" fill="#C07E1E"/>
<path fill-rule="evenodd" clip-rule="evenodd" d="M37.9617 40.755C37.9617 41.3431 37.9693 41.9388 37.9617 42.5269C37.9541 42.8705 37.9006 42.9316 37.5722 42.9393C37.1063 42.9545 36.6328 42.9393 36.167 42.9469C35.9149 42.9469 35.7775 42.8476 35.7775 42.5803C35.7851 42.0763 35.7851 41.5722 35.7775 41.0682C35.7775 40.839 35.8767 40.7627 36.0906 40.7627C36.7168 40.7627 37.3431 40.755 37.9617 40.755Z" fill="#D8AA5C"/>
<path fill-rule="evenodd" clip-rule="evenodd" d="M48.7074 40.7476C48.7074 41.3357 48.7151 41.9314 48.7074 42.5194C48.6998 42.8784 48.6769 42.9089 48.3179 42.9166C47.8521 42.9242 47.3786 42.9166 46.9127 42.9242C46.6683 42.9242 46.5156 42.8555 46.5232 42.5729C46.5385 42.0689 46.5308 41.5648 46.5232 41.0607C46.5156 40.8316 46.6225 40.7629 46.8363 40.7629C47.4626 40.7629 48.0888 40.7629 48.7074 40.7476Z" fill="#C07E1E"/>
<path fill-rule="evenodd" clip-rule="evenodd" d="M31.4854 32.1937C30.8973 32.1937 30.3092 32.1937 29.7212 32.209C29.4844 32.2166 29.3775 32.1631 29.3851 31.8958C29.4004 31.3765 29.4004 30.8572 29.3851 30.3378C29.3775 30.0705 29.4921 30.0247 29.7288 30.0247C30.3169 30.0324 30.9049 30.0171 31.493 30.0094L31.4777 29.9942C31.4854 30.7273 31.4854 31.4605 31.4854 32.1937Z" fill="#010101"/>
<path fill-rule="evenodd" clip-rule="evenodd" d="M44.4533 47.2388C44.3693 46.5972 44.438 45.9557 44.4151 45.3142C44.4075 45.1462 44.4686 45.0545 44.6519 45.0545C45.1941 45.0622 45.7287 45.0622 46.271 45.0545C46.4848 45.0545 46.5383 45.1614 46.5306 45.3447C46.523 45.8488 46.523 46.3528 46.5306 46.8569C46.5383 47.1013 46.4619 47.2006 46.2022 47.1929C45.7822 47.1777 45.3698 47.1853 44.9497 47.1929C44.7817 47.1929 44.5984 47.1624 44.438 47.2311C44.4457 47.2311 44.4533 47.2388 44.4533 47.2388Z" fill="#402201"/>
<path fill-rule="evenodd" clip-rule="evenodd" d="M50.7998 40.7471C50.1048 40.7471 49.4022 40.7471 48.7072 40.7471L48.7148 40.7547C48.7148 40.1514 48.7148 39.548 48.6995 38.9447C48.6919 38.6774 48.7835 38.5705 49.0585 38.5781C49.5244 38.5934 49.9902 38.5934 50.4561 38.5781C50.731 38.5705 50.8227 38.6774 50.815 38.9447C50.7998 39.548 50.7998 40.1514 50.7998 40.7547V40.7471Z" fill="#BF7D1D"/>
<path fill-rule="evenodd" clip-rule="evenodd" d="M27.2162 40.7476C27.2162 41.3357 27.2238 41.9237 27.2162 42.5118C27.2085 42.8784 27.1856 42.9089 26.842 42.9166C26.3761 42.9242 25.9102 42.9089 25.4443 42.9242C25.1923 42.9319 25.1083 42.8249 25.116 42.5805C25.1236 42.0765 25.1236 41.5801 25.116 41.076C25.1083 40.8164 25.2305 40.7553 25.4673 40.7553C26.0477 40.7629 26.6358 40.7629 27.2162 40.7476Z" fill="#BF7E1E"/>
<path fill-rule="evenodd" clip-rule="evenodd" d="M29.408 40.7549C29.9808 40.7549 30.5536 40.7626 31.1263 40.7549C31.3784 40.7473 31.5158 40.816 31.5006 41.0986C31.4853 41.5874 31.4853 42.0685 31.5006 42.5573C31.5082 42.8323 31.3784 42.9239 31.1187 42.9163C30.6528 42.9086 30.1793 42.9086 29.7135 42.9163C29.4538 42.9239 29.3927 42.7941 29.3927 42.565C29.408 41.9616 29.408 41.3583 29.408 40.7549Z" fill="#BF7E1E"/>
<path fill-rule="evenodd" clip-rule="evenodd" d="M40.1535 40.7548C40.711 40.7548 41.2609 40.7472 41.8184 40.7548C42.2308 40.7625 42.2385 40.7625 42.2385 41.152C42.2461 41.6026 42.2461 42.0532 42.2385 42.5038C42.2308 42.8703 42.185 42.9162 41.8108 42.9238C41.3755 42.9314 40.9401 42.9162 40.5125 42.9314C40.2375 42.9391 40.1459 42.8322 40.1459 42.5649C40.1611 41.9692 40.1535 41.3582 40.1535 40.7548Z" fill="#D8A95B"/>
<path fill-rule="evenodd" clip-rule="evenodd" d="M33.5932 34.2787C32.9059 34.3551 32.2109 34.294 31.5235 34.3092C31.4472 33.6066 31.5159 32.8963 31.4854 32.1937C32.02 32.1937 32.5546 32.1937 33.0892 32.2014C33.5779 32.2014 33.5856 32.209 33.5856 32.6749C33.5932 33.2095 33.5932 33.7441 33.5932 34.2787Z" fill="#FFFEFE"/>
<path fill-rule="evenodd" clip-rule="evenodd" d="M44.3386 34.2785C43.6513 34.3548 42.9563 34.2937 42.269 34.309C42.2002 33.721 42.2613 33.1253 42.2384 32.5372C42.2308 32.3004 42.3148 32.1859 42.5668 32.1935C43.0556 32.2012 43.5367 32.2012 44.0255 32.1935C44.247 32.1935 44.3386 32.2852 44.331 32.5066C44.331 33.0947 44.3386 33.6904 44.3386 34.2785Z" fill="#FFFEFE"/>
</svg>
