<svg width="78" height="82" viewBox="0 0 78 82" fill="none" xmlns="http://www.w3.org/2000/svg">
<rect x="0.0100098" y="0.84103" width="77.9899" height="80.161" rx="5.34406" fill="#D4883A"/>
<path d="M69.9238 30.9883H67.7126V33.1927H69.9238V30.9883Z" fill="#FFA726"/>
<path d="M67.7126 30.9883H65.5082V33.1927H67.7126V30.9883Z" fill="#BF7D1D"/>
<path d="M67.7126 28.7771H65.5082V30.9882H67.7126V28.7771Z" fill="#FFA726"/>
<path d="M65.5082 30.9883H63.2971V33.1927H65.5082V30.9883Z" fill="#FFA726"/>
<path d="M65.5082 28.7771H63.2971V30.9882H65.5082V28.7771Z" fill="#BF7D1D"/>
<path d="M65.5082 26.5661H63.2971V28.7772H65.5082V26.5661Z" fill="#FFA726"/>
<path d="M63.297 30.9883H61.0859V33.1927H63.297V30.9883Z" fill="#BF7D1D"/>
<path d="M63.3038 28.7771H61.0927V30.9882H63.3038V28.7771Z" fill="#FFA726"/>
<path d="M63.3038 26.5661H61.0927V28.7772H63.3038V26.5661Z" fill="#BF7D1D"/>
<path d="M63.297 24.3616H61.0859V26.566H63.297V24.3616Z" fill="#FFA726"/>
<path d="M61.086 44.2348H58.8816V46.4393H61.086V44.2348Z" fill="#FFE0B2"/>
<path d="M61.086 42.0238H58.8816V44.2349H61.086V42.0238Z" fill="#FFE0B2"/>
<path d="M61.086 39.8193H58.8816V42.0304H61.086V39.8193Z" fill="#FFE0B2"/>
<path d="M61.086 30.9883H58.8816V33.1927H61.086V30.9883Z" fill="#FFA726"/>
<path d="M61.0927 28.7771H58.8816V30.9882H61.0927V28.7771Z" fill="#BF7D1D"/>
<path d="M61.0927 26.5661H58.8816V28.7772H61.0927V26.5661Z" fill="#FFA726"/>
<path d="M61.0927 24.3616H58.8816V26.5727H61.0927V24.3616Z" fill="#BF7D1D"/>
<path d="M61.086 22.1505H58.8816V24.3616H61.086V22.1505Z" fill="#FFA726"/>
<path d="M58.8815 46.4393H56.6704V48.6504H58.8815V46.4393Z" fill="#FFE0B2"/>
<path d="M58.8815 44.2348H56.6704V46.4459H58.8815V44.2348Z" fill="#FFE0B2"/>
<path d="M58.8815 42.0238H56.6704V44.2349H58.8815V42.0238Z" fill="#FFE0B2"/>
<path d="M58.8815 39.8193H56.6704V42.0304H58.8815V39.8193Z" fill="#FFCC80"/>
<path d="M58.8815 37.6082H56.6704V39.8127H58.8815V37.6082Z" fill="#FFE0B2"/>
<path d="M58.8815 35.4038H56.6704V37.6149H58.8815V35.4038Z" fill="#263238"/>
<path d="M58.8815 33.1927H56.6704V35.4038H58.8815V33.1927Z" fill="#1D262A"/>
<path d="M58.8815 30.9816H56.6704V33.1927H58.8815V30.9816Z" fill="#BF7D1D"/>
<path d="M58.8815 28.7771H56.6704V30.9882H58.8815V28.7771Z" fill="#FFA726"/>
<path d="M58.8815 26.5661H56.6704V28.7772H58.8815V26.5661Z" fill="#BF7D1D"/>
<path d="M58.8815 24.3616H56.6704V26.5727H58.8815V24.3616Z" fill="#FFA726"/>
<path d="M58.8815 22.1505H56.6704V24.3616H58.8815V22.1505Z" fill="#BF7D1D"/>
<path d="M58.8815 19.9394H56.6704V22.1438H58.8815V19.9394Z" fill="#FFA726"/>
<path d="M56.6772 46.4393H54.4661V48.6504H56.6772V46.4393Z" fill="#FFE0B2"/>
<path d="M56.6772 44.2348H54.4661V46.4459H56.6772V44.2348Z" fill="#FFCC80"/>
<path d="M56.6772 42.0238H54.4661V44.2349H56.6772V42.0238Z" fill="#FFCC80"/>
<path d="M56.6772 39.8193H54.4661V42.0304H56.6772V39.8193Z" fill="#FFCC80"/>
<path d="M56.6772 37.6082H54.4661V39.8194H56.6772V37.6082Z" fill="#FFE0B2"/>
<path d="M56.6772 35.4038H54.4661V37.6149H56.6772V35.4038Z" fill="#263238"/>
<path d="M56.6772 33.1927H54.4661V35.4038H56.6772V33.1927Z" fill="#1D262A"/>
<path d="M56.6772 30.9816H54.4661V33.1927H56.6772V30.9816Z" fill="#FFA726"/>
<path d="M56.6772 28.7771H54.4661V30.9882H56.6772V28.7771Z" fill="#BF7D1D"/>
<path d="M56.6772 26.5661H54.4661V28.7772H56.6772V26.5661Z" fill="#FFA726"/>
<path d="M56.6772 24.3616H54.4661V26.5727H56.6772V24.3616Z" fill="#BF7D1D"/>
<path d="M56.6772 22.1505H54.4661V24.3616H56.6772V22.1505Z" fill="#FFA726"/>
<path d="M56.6772 19.9394H54.4661V22.1505H56.6772V19.9394Z" fill="#BF7D1D"/>
<path d="M56.6772 17.735H54.4661V19.9461H56.6772V17.735Z" fill="#FFA726"/>
<path d="M54.4593 53.066H52.2549V55.2771H54.4593V53.066Z" fill="#FFE0B2"/>
<path d="M54.4593 50.8615H52.2549V53.0726H54.4593V50.8615Z" fill="#FFE0B2"/>
<path d="M54.4593 48.6504H52.2549V50.8615H54.4593V48.6504Z" fill="#FFE0B2"/>
<path d="M54.466 46.4393H52.2549V48.6504H54.466V46.4393Z" fill="#FFE0B2"/>
<path d="M54.466 44.2348H52.2549V46.4459H54.466V44.2348Z" fill="#FFE0B2"/>
<path d="M54.466 42.0238H52.2549V44.2349H54.466V42.0238Z" fill="#FFE0B2"/>
<path d="M54.466 39.8193H52.2549V42.0304H54.466V39.8193Z" fill="#FFE0B2"/>
<path d="M54.466 37.6082H52.2549V39.8194H54.466V37.6082Z" fill="#FFE0B2"/>
<path d="M54.466 35.4038H52.2549V37.6149H54.466V35.4038Z" fill="#37474F"/>
<path d="M54.466 33.1927H52.2549V35.4038H54.466V33.1927Z" fill="#FFCC80"/>
<path d="M54.466 30.9816H52.2549V33.1927H54.466V30.9816Z" fill="#BF7D1D"/>
<path d="M54.466 28.7771H52.2549V30.9882H54.466V28.7771Z" fill="#FFA726"/>
<path d="M54.466 26.5661H52.2549V28.7772H54.466V26.5661Z" fill="#BF7D1D"/>
<path d="M54.466 24.3616H52.2549V26.5727H54.466V24.3616Z" fill="#FFA726"/>
<path d="M54.466 22.1505H52.2549V24.3616H54.466V22.1505Z" fill="#BF7D1D"/>
<path d="M54.466 19.9394H52.2549V22.1505H54.466V19.9394Z" fill="#FFA726"/>
<path d="M54.466 17.735H52.2549V19.9461H54.466V17.735Z" fill="#BF7D1D"/>
<path d="M54.4593 15.5239H52.2549V17.735H54.4593V15.5239Z" fill="#FFA726"/>
<path d="M52.2616 55.277H50.0505V57.4815H52.2616V55.277Z" fill="#FFE0B2"/>
<path d="M52.2616 53.066H50.0505V55.2771H52.2616V53.066Z" fill="#FFE0B2"/>
<path d="M52.2616 50.8615H50.0505V53.0726H52.2616V50.8615Z" fill="#FFE0B2"/>
<path d="M52.2616 48.6504H50.0505V50.8615H52.2616V48.6504Z" fill="#FFE0B2"/>
<path d="M52.2616 46.4393H50.0505V48.6504H52.2616V46.4393Z" fill="#FFE0B2"/>
<path d="M52.2616 44.2348H50.0505V46.4459H52.2616V44.2348Z" fill="#FFE0B2"/>
<path d="M52.2616 42.0238H50.0505V44.2349H52.2616V42.0238Z" fill="#FFE0B2"/>
<path d="M52.2616 39.8193H50.0505V42.0304H52.2616V39.8193Z" fill="white"/>
<path d="M52.2616 37.6082H50.0505V39.8194H52.2616V37.6082Z" fill="#FFCC80"/>
<path d="M52.2616 35.4038H50.0505V37.6149H52.2616V35.4038Z" fill="#FFE0B2"/>
<path d="M52.2616 33.1927H50.0505V35.4038H52.2616V33.1927Z" fill="#37474F"/>
<path d="M52.2616 30.9816H50.0505V33.1927H52.2616V30.9816Z" fill="#FFA726"/>
<path d="M52.2616 28.7771H50.0505V30.9882H52.2616V28.7771Z" fill="#BF7D1D"/>
<path d="M52.2616 26.5661H50.0505V28.7772H52.2616V26.5661Z" fill="#FFA726"/>
<path d="M52.2616 24.3616H50.0505V26.5727H52.2616V24.3616Z" fill="#BF7D1D"/>
<path d="M52.2616 22.1505H50.0505V24.3616H52.2616V22.1505Z" fill="#FFA726"/>
<path d="M52.2616 19.9394H50.0505V22.1505H52.2616V19.9394Z" fill="#BF7D1D"/>
<path d="M52.2616 17.735H50.0505V19.9461H52.2616V17.735Z" fill="#FFA726"/>
<path d="M52.2616 15.5239H50.0505V17.735H52.2616V15.5239Z" fill="#BF7D1D"/>
<path d="M52.2616 13.3195H50.0505V15.5239H52.2616V13.3195Z" fill="#FFA726"/>
<path d="M50.0439 57.4815H47.8395V59.6926H50.0439V57.4815Z" fill="#FFE0B2"/>
<path d="M50.0506 55.277H47.8395V57.4881H50.0506V55.277Z" fill="#FFE0B2"/>
<path d="M50.0506 53.066H47.8395V55.2771H50.0506V53.066Z" fill="#FFE0B2"/>
<path d="M50.0506 50.8615H47.8395V53.0726H50.0506V50.8615Z" fill="#FFE0B2"/>
<path d="M50.0506 48.6504H47.8395V50.8615H50.0506V48.6504Z" fill="#FFE0B2"/>
<path d="M50.0506 46.4393H47.8395V48.6504H50.0506V46.4393Z" fill="#FFE0B2"/>
<path d="M50.0506 44.2348H47.8395V46.4459H50.0506V44.2348Z" fill="#FFE0B2"/>
<path d="M50.0506 42.0238H47.8395V44.2349H50.0506V42.0238Z" fill="#FFE0B2"/>
<path d="M50.0506 39.8193H47.8395V42.0304H50.0506V39.8193Z" fill="#37474F"/>
<path d="M50.0506 37.6082H47.8395V39.8194H50.0506V37.6082Z" fill="#FFCC80"/>
<path d="M50.0506 35.4038H47.8395V37.6149H50.0506V35.4038Z" fill="#FFE0B2"/>
<path d="M50.0506 33.1927H47.8395V35.4038H50.0506V33.1927Z" fill="#37474F"/>
<path d="M50.0506 30.9816H47.8395V33.1927H50.0506V30.9816Z" fill="#BF7D1D"/>
<path d="M50.0506 28.7771H47.8395V30.9882H50.0506V28.7771Z" fill="#FFA726"/>
<path d="M50.0506 26.5661H47.8395V28.7772H50.0506V26.5661Z" fill="#BF7D1D"/>
<path d="M50.0506 24.3616H47.8395V26.5727H50.0506V24.3616Z" fill="#FFA726"/>
<path d="M50.0506 22.1505H47.8395V24.3616H50.0506V22.1505Z" fill="#BF7D1D"/>
<path d="M50.0506 19.9394H47.8395V22.1505H50.0506V19.9394Z" fill="#FFA726"/>
<path d="M50.0506 17.735H47.8395V19.9461H50.0506V17.735Z" fill="#BF7D1D"/>
<path d="M50.0506 15.5239H47.8395V17.735H50.0506V15.5239Z" fill="#FFA726"/>
<path d="M50.0506 13.3195H47.8395V15.5306H50.0506V13.3195Z" fill="#BF7D1D"/>
<path d="M50.0439 11.1083H47.8395V13.3194H50.0439V11.1083Z" fill="#FFA726"/>
<path d="M47.8394 59.6926H45.6283V61.9037H47.8394V59.6926Z" fill="#FFE0B2"/>
<path d="M47.8394 57.4882H45.6283V59.6993H47.8394V57.4882Z" fill="#FFE0B2"/>
<path d="M47.8394 55.277H45.6283V57.4881H47.8394V55.277Z" fill="#FFE0B2"/>
<path d="M47.8394 53.066H45.6283V55.2771H47.8394V53.066Z" fill="#FFE0B2"/>
<path d="M47.8394 50.8615H45.6283V53.0726H47.8394V50.8615Z" fill="#FFE0B2"/>
<path d="M47.8394 48.6504H45.6283V50.8615H47.8394V48.6504Z" fill="#FFCC80"/>
<path d="M47.8394 46.4393H45.6283V48.6504H47.8394V46.4393Z" fill="#FFE0B2"/>
<path d="M47.8394 44.2348H45.6283V46.4459H47.8394V44.2348Z" fill="#FFE0B2"/>
<path d="M47.8394 42.0238H45.6283V44.2349H47.8394V42.0238Z" fill="#FFE0B2"/>
<path d="M47.8394 39.8193H45.6283V42.0304H47.8394V39.8193Z" fill="white"/>
<path d="M47.8394 37.6082H45.6283V39.8194H47.8394V37.6082Z" fill="#FFCC80"/>
<path d="M47.8394 35.4038H45.6283V37.6149H47.8394V35.4038Z" fill="#FFE0B2"/>
<path d="M47.8394 33.1927H45.6283V35.4038H47.8394V33.1927Z" fill="#37474F"/>
<path d="M47.8394 30.9816H45.6283V33.1927H47.8394V30.9816Z" fill="#FFA726"/>
<path d="M47.8394 28.7771H45.6283V30.9882H47.8394V28.7771Z" fill="#BF7D1D"/>
<path d="M47.8394 26.5661H45.6283V28.7772H47.8394V26.5661Z" fill="#FFA726"/>
<path d="M47.8394 24.3616H45.6283V26.5727H47.8394V24.3616Z" fill="#BF7D1D"/>
<path d="M47.8394 22.1505H45.6283V24.3616H47.8394V22.1505Z" fill="#FFA726"/>
<path d="M47.8394 19.9394H45.6283V22.1505H47.8394V19.9394Z" fill="#BF7D1D"/>
<path d="M47.8394 17.735H45.6283V19.9461H47.8394V17.735Z" fill="#FFA726"/>
<path d="M47.8394 15.5239H45.6283V17.735H47.8394V15.5239Z" fill="#BF7D1D"/>
<path d="M47.8394 13.3195H45.6283V15.5306H47.8394V13.3195Z" fill="#FFA726"/>
<path d="M47.8394 11.1083H45.6283V13.3194H47.8394V11.1083Z" fill="#BF7D1D"/>
<path d="M45.6351 59.6926H43.424V61.9037H45.6351V59.6926Z" fill="#FFE0B2"/>
<path d="M45.6351 57.4882H43.424V59.6993H45.6351V57.4882Z" fill="#FFE0B2"/>
<path d="M45.6351 55.277H43.424V57.4881H45.6351V55.277Z" fill="#FFE0B2"/>
<path d="M45.6351 53.066H43.424V55.2771H45.6351V53.066Z" fill="#FFE0B2"/>
<path d="M45.6351 50.8615H43.424V53.0726H45.6351V50.8615Z" fill="#FFCC80"/>
<path d="M45.6351 48.6504H43.424V50.8615H45.6351V48.6504Z" fill="#FFE0B2"/>
<path d="M45.6351 46.4393H43.424V48.6504H45.6351V46.4393Z" fill="#FFE0B2"/>
<path d="M45.6351 44.2348H43.424V46.4459H45.6351V44.2348Z" fill="#FFE0B2"/>
<path d="M45.6351 42.0238H43.424V44.2349H45.6351V42.0238Z" fill="#FFE0B2"/>
<path d="M45.6351 39.8193H43.424V42.0304H45.6351V39.8193Z" fill="#FFCC80"/>
<path d="M45.6351 37.6082H43.424V39.8194H45.6351V37.6082Z" fill="#FFE0B2"/>
<path d="M45.6351 35.4038H43.424V37.6149H45.6351V35.4038Z" fill="#FFE0B2"/>
<path d="M45.6351 33.1927H43.424V35.4038H45.6351V33.1927Z" fill="#FFCC80"/>
<path d="M45.6351 30.9816H43.424V33.1927H45.6351V30.9816Z" fill="#BF7D1D"/>
<path d="M45.6351 28.7771H43.424V30.9882H45.6351V28.7771Z" fill="#FFA726"/>
<path d="M45.6351 26.5661H43.424V28.7772H45.6351V26.5661Z" fill="#BF7D1D"/>
<path d="M45.6351 24.3616H43.424V26.5727H45.6351V24.3616Z" fill="#FFA726"/>
<path d="M45.6351 22.1505H43.424V24.3616H45.6351V22.1505Z" fill="#BF7D1D"/>
<path d="M45.6351 19.9394H43.424V22.1505H45.6351V19.9394Z" fill="#FFA726"/>
<path d="M45.6351 17.735H43.424V19.9461H45.6351V17.735Z" fill="#BF7D1D"/>
<path d="M45.6351 15.5239H43.424V17.735H45.6351V15.5239Z" fill="#FFA726"/>
<path d="M45.6351 13.3195H43.424V15.5306H45.6351V13.3195Z" fill="#BF7D1D"/>
<path d="M45.6283 11.1083H43.4172V13.3194H45.6283V11.1083Z" fill="#FFA726"/>
<path d="M43.4239 59.6926H41.2128V61.9037H43.4239V59.6926Z" fill="#FFE0B2"/>
<path d="M43.4239 57.4882H41.2128V59.6993H43.4239V57.4882Z" fill="#FFE0B2"/>
<path d="M43.4239 55.277H41.2128V57.4881H43.4239V55.277Z" fill="#FFE0B2"/>
<path d="M43.4239 53.066H41.2128V55.2771H43.4239V53.066Z" fill="#FFE0B2"/>
<path d="M43.4239 50.8615H41.2128V53.0726H43.4239V50.8615Z" fill="#FFCC80"/>
<path d="M43.4239 48.6504H41.2128V50.8615H43.4239V48.6504Z" fill="#FFE0B2"/>
<path d="M43.4239 46.4393H41.2128V48.6504H43.4239V46.4393Z" fill="#FFA726"/>
<path d="M43.4239 44.2348H41.2128V46.4459H43.4239V44.2348Z" fill="#FFE0B2"/>
<path d="M43.4239 42.0238H41.2128V44.2349H43.4239V42.0238Z" fill="#FFE0B2"/>
<path d="M43.4239 39.8193H41.2128V42.0304H43.4239V39.8193Z" fill="#FFE0B2"/>
<path d="M43.4239 37.6082H41.2128V39.8194H43.4239V37.6082Z" fill="#FFE0B2"/>
<path d="M43.4239 35.4038H41.2128V37.6149H43.4239V35.4038Z" fill="#FFE0B2"/>
<path d="M43.4239 33.1927H41.2128V35.4038H43.4239V33.1927Z" fill="#FFCC80"/>
<path d="M43.4239 30.9816H41.2128V33.1927H43.4239V30.9816Z" fill="#FFA726"/>
<path d="M43.4239 28.7771H41.2128V30.9882H43.4239V28.7771Z" fill="#BF7D1D"/>
<path d="M43.4239 26.5661H41.2128V28.7772H43.4239V26.5661Z" fill="#FFA726"/>
<path d="M43.4239 24.3616H41.2128V26.5727H43.4239V24.3616Z" fill="#BF7D1D"/>
<path d="M43.4239 22.1505H41.2128V24.3616H43.4239V22.1505Z" fill="#FFA726"/>
<path d="M43.4239 19.9394H41.2128V22.1505H43.4239V19.9394Z" fill="#BF7D1D"/>
<path d="M43.4239 17.735H41.2128V19.9461H43.4239V17.735Z" fill="#FFA726"/>
<path d="M43.4239 15.5239H41.2128V17.735H43.4239V15.5239Z" fill="#BF7D1D"/>
<path d="M43.4239 13.3195H41.2128V15.5306H43.4239V13.3195Z" fill="#FFA726"/>
<path d="M43.4172 11.1083H41.2128V13.3194H43.4172V11.1083Z" fill="#BF7D1D"/>
<path d="M41.2195 59.6926H39.0084V61.9037H41.2195V59.6926Z" fill="#FFE0B2"/>
<path d="M41.2195 57.4882H39.0084V59.6993H41.2195V57.4882Z" fill="#FFCC80"/>
<path d="M41.2195 55.277H39.0084V57.4881H41.2195V55.277Z" fill="#FFE0B2"/>
<path d="M41.2195 53.066H39.0084V55.2771H41.2195V53.066Z" fill="white"/>
<path d="M41.2195 50.8615H39.0084V53.0726H41.2195V50.8615Z" fill="#FFCC80"/>
<path d="M41.2195 48.6504H39.0084V50.8615H41.2195V48.6504Z" fill="#FFE0B2"/>
<path d="M41.2195 46.4393H39.0084V48.6504H41.2195V46.4393Z" fill="#FFA726"/>
<path d="M41.2195 44.2348H39.0084V46.4459H41.2195V44.2348Z" fill="#FFA726"/>
<path d="M41.2195 42.0238H39.0084V44.2349H41.2195V42.0238Z" fill="#FFA726"/>
<path d="M41.2195 39.8193H39.0084V42.0304H41.2195V39.8193Z" fill="#FFE0B2"/>
<path d="M41.2195 37.6082H39.0084V39.8194H41.2195V37.6082Z" fill="#FFE0B2"/>
<path d="M41.2195 35.4038H39.0084V37.6149H41.2195V35.4038Z" fill="#FFE0B2"/>
<path d="M41.2195 33.1927H39.0084V35.4038H41.2195V33.1927Z" fill="#FFCC80"/>
<path d="M41.2195 30.9816H39.0084V33.1927H41.2195V30.9816Z" fill="#BF7D1D"/>
<path d="M41.2195 28.7771H39.0084V30.9882H41.2195V28.7771Z" fill="#FFA726"/>
<path d="M41.2195 26.5661H39.0084V28.7772H41.2195V26.5661Z" fill="#BF7D1D"/>
<path d="M41.2195 24.3616H39.0084V26.5727H41.2195V24.3616Z" fill="#FFA726"/>
<path d="M41.2195 22.1505H39.0084V24.3616H41.2195V22.1505Z" fill="#BF7D1D"/>
<path d="M41.2195 19.9394H39.0084V22.1505H41.2195V19.9394Z" fill="#FFA726"/>
<path d="M41.2195 17.735H39.0084V19.9461H41.2195V17.735Z" fill="#BF7D1D"/>
<path d="M41.2195 15.5239H39.0084V17.735H41.2195V15.5239Z" fill="#FFA726"/>
<path d="M41.2195 13.3195H39.0084V15.5306H41.2195V13.3195Z" fill="#BF7D1D"/>
<path d="M41.2195 11.1083H39.0084V13.3194H41.2195V11.1083Z" fill="#FFA726"/>
<path d="M39.0083 59.6926H36.7972V61.9037H39.0083V59.6926Z" fill="#FFE0B2"/>
<path d="M39.0083 57.4882H36.7972V59.6993H39.0083V57.4882Z" fill="#FFCC80"/>
<path d="M39.0083 55.277H36.7972V57.4881H39.0083V55.277Z" fill="#FFE0B2"/>
<path d="M39.0083 53.066H36.7972V55.2771H39.0083V53.066Z" fill="white"/>
<path d="M39.0083 50.8615H36.7972V53.0726H39.0083V50.8615Z" fill="#FFCC80"/>
<path d="M39.0083 48.6504H36.7972V50.8615H39.0083V48.6504Z" fill="#FFE0B2"/>
<path d="M39.0083 46.4393H36.7972V48.6504H39.0083V46.4393Z" fill="#FFA726"/>
<path d="M39.0083 44.2348H36.7972V46.4459H39.0083V44.2348Z" fill="#FFA726"/>
<path d="M39.0083 42.0238H36.7972V44.2349H39.0083V42.0238Z" fill="#FFA726"/>
<path d="M39.0083 39.8193H36.7972V42.0304H39.0083V39.8193Z" fill="#FFE0B2"/>
<path d="M39.0083 37.6082H36.7972V39.8194H39.0083V37.6082Z" fill="#FFE0B2"/>
<path d="M39.0083 35.4038H36.7972V37.6149H39.0083V35.4038Z" fill="#FFE0B2"/>
<path d="M39.0083 33.1927H36.7972V35.4038H39.0083V33.1927Z" fill="#FFCC80"/>
<path d="M39.0083 30.9816H36.7972V33.1927H39.0083V30.9816Z" fill="#FFA726"/>
<path d="M39.0083 28.7771H36.7972V30.9882H39.0083V28.7771Z" fill="#BF7D1D"/>
<path d="M39.0083 26.5661H36.7972V28.7772H39.0083V26.5661Z" fill="#FFA726"/>
<path d="M39.0083 24.3616H36.7972V26.5727H39.0083V24.3616Z" fill="#BF7D1D"/>
<path d="M39.0083 22.1505H36.7972V24.3616H39.0083V22.1505Z" fill="#FFA726"/>
<path d="M39.0083 19.9394H36.7972V22.1505H39.0083V19.9394Z" fill="#BF7D1D"/>
<path d="M39.0083 17.735H36.7972V19.9461H39.0083V17.735Z" fill="#FFA726"/>
<path d="M39.0083 15.5239H36.7972V17.735H39.0083V15.5239Z" fill="#BF7D1D"/>
<path d="M39.0083 13.3195H36.7972V15.5306H39.0083V13.3195Z" fill="#FFA726"/>
<path d="M39.0083 11.1083H36.7972V13.3194H39.0083V11.1083Z" fill="#BF7D1D"/>
<path d="M36.7973 59.6926H34.5862V61.9037H36.7973V59.6926Z" fill="#FFE0B2"/>
<path d="M36.7973 57.4882H34.5862V59.6993H36.7973V57.4882Z" fill="#FFE0B2"/>
<path d="M36.7973 55.277H34.5862V57.4881H36.7973V55.277Z" fill="#FFE0B2"/>
<path d="M36.7973 53.066H34.5862V55.2771H36.7973V53.066Z" fill="#FFE0B2"/>
<path d="M36.7973 50.8615H34.5862V53.0726H36.7973V50.8615Z" fill="#FFCC80"/>
<path d="M36.7973 48.6504H34.5862V50.8615H36.7973V48.6504Z" fill="#FFE0B2"/>
<path d="M36.7973 46.4393H34.5862V48.6504H36.7973V46.4393Z" fill="#FFA726"/>
<path d="M36.7973 44.2348H34.5862V46.4459H36.7973V44.2348Z" fill="#FFE0B2"/>
<path d="M36.7973 42.0238H34.5862V44.2349H36.7973V42.0238Z" fill="#FFE0B2"/>
<path d="M36.7973 39.8193H34.5862V42.0304H36.7973V39.8193Z" fill="#FFE0B2"/>
<path d="M36.7973 37.6082H34.5862V39.8194H36.7973V37.6082Z" fill="#FFE0B2"/>
<path d="M36.7973 35.4038H34.5862V37.6149H36.7973V35.4038Z" fill="#FFE0B2"/>
<path d="M36.7973 33.1927H34.5862V35.4038H36.7973V33.1927Z" fill="#FFCC80"/>
<path d="M36.7973 30.9816H34.5862V33.1927H36.7973V30.9816Z" fill="#BF7D1D"/>
<path d="M36.7973 28.7771H34.5862V30.9882H36.7973V28.7771Z" fill="#FFA726"/>
<path d="M36.7973 26.5661H34.5862V28.7772H36.7973V26.5661Z" fill="#BF7D1D"/>
<path d="M36.7973 24.3616H34.5862V26.5727H36.7973V24.3616Z" fill="#FFA726"/>
<path d="M36.7973 22.1505H34.5862V24.3616H36.7973V22.1505Z" fill="#BF7D1D"/>
<path d="M36.7973 19.9394H34.5862V22.1505H36.7973V19.9394Z" fill="#FFA726"/>
<path d="M36.7973 17.735H34.5862V19.9461H36.7973V17.735Z" fill="#BF7D1D"/>
<path d="M36.7973 15.5239H34.5862V17.735H36.7973V15.5239Z" fill="#FFA726"/>
<path d="M36.7973 13.3195H34.5862V15.5306H36.7973V13.3195Z" fill="#BF7D1D"/>
<path d="M36.7973 11.1083H34.5929V13.3194H36.7973V11.1083Z" fill="#FFA726"/>
<path d="M34.5928 59.6926H32.3817V61.9037H34.5928V59.6926Z" fill="#FFE0B2"/>
<path d="M34.5928 57.4882H32.3817V59.6993H34.5928V57.4882Z" fill="#FFE0B2"/>
<path d="M34.5928 55.277H32.3817V57.4881H34.5928V55.277Z" fill="#FFE0B2"/>
<path d="M34.5928 53.066H32.3817V55.2771H34.5928V53.066Z" fill="#FFE0B2"/>
<path d="M34.5928 50.8615H32.3817V53.0726H34.5928V50.8615Z" fill="#FFCC80"/>
<path d="M34.5928 48.6504H32.3817V50.8615H34.5928V48.6504Z" fill="#FFE0B2"/>
<path d="M34.5928 46.4393H32.3817V48.6504H34.5928V46.4393Z" fill="#FFE0B2"/>
<path d="M34.5928 44.2348H32.3817V46.4459H34.5928V44.2348Z" fill="#FFE0B2"/>
<path d="M34.5928 42.0238H32.3817V44.2349H34.5928V42.0238Z" fill="#FFE0B2"/>
<path d="M34.5928 39.8193H32.3817V42.0304H34.5928V39.8193Z" fill="#FFCC80"/>
<path d="M34.5928 37.6082H32.3817V39.8194H34.5928V37.6082Z" fill="#FFE0B2"/>
<path d="M34.5928 35.4038H32.3817V37.6149H34.5928V35.4038Z" fill="#FFE0B2"/>
<path d="M34.5928 33.1927H32.3817V35.4038H34.5928V33.1927Z" fill="#FFCC80"/>
<path d="M34.5928 30.9816H32.3817V33.1927H34.5928V30.9816Z" fill="#FFA726"/>
<path d="M34.5928 28.7771H32.3817V30.9882H34.5928V28.7771Z" fill="#BF7D1D"/>
<path d="M34.5928 26.5661H32.3817V28.7772H34.5928V26.5661Z" fill="#FFA726"/>
<path d="M34.5928 24.3616H32.3817V26.5727H34.5928V24.3616Z" fill="#BF7D1D"/>
<path d="M34.5928 22.1505H32.3817V24.3616H34.5928V22.1505Z" fill="#FFA726"/>
<path d="M34.5928 19.9394H32.3817V22.1505H34.5928V19.9394Z" fill="#BF7D1D"/>
<path d="M34.5928 17.735H32.3817V19.9461H34.5928V17.735Z" fill="#FFA726"/>
<path d="M34.5928 15.5239H32.3817V17.735H34.5928V15.5239Z" fill="#BF7D1D"/>
<path d="M34.5928 13.3195H32.3817V15.5306H34.5928V13.3195Z" fill="#FFA726"/>
<path d="M34.5928 11.1083H32.3817V13.3194H34.5928V11.1083Z" fill="#BF7D1D"/>
<path d="M32.3816 59.6926H30.1705V61.9037H32.3816V59.6926Z" fill="#FFE0B2"/>
<path d="M32.3816 57.4882H30.1705V59.6993H32.3816V57.4882Z" fill="#FFE0B2"/>
<path d="M32.3816 55.277H30.1705V57.4881H32.3816V55.277Z" fill="#FFE0B2"/>
<path d="M32.3816 53.066H30.1705V55.2771H32.3816V53.066Z" fill="#FFE0B2"/>
<path d="M32.3816 50.8615H30.1705V53.0726H32.3816V50.8615Z" fill="#FFE0B2"/>
<path d="M32.3816 48.6504H30.1705V50.8615H32.3816V48.6504Z" fill="#FFCC80"/>
<path d="M32.3816 46.4393H30.1705V48.6504H32.3816V46.4393Z" fill="#FFE0B2"/>
<path d="M32.3816 44.2348H30.1705V46.4459H32.3816V44.2348Z" fill="#FFE0B2"/>
<path d="M32.3816 42.0238H30.1705V44.2349H32.3816V42.0238Z" fill="#FFE0B2"/>
<path d="M32.3816 39.8193H30.1705V42.0304H32.3816V39.8193Z" fill="white"/>
<path d="M32.3816 37.6082H30.1705V39.8194H32.3816V37.6082Z" fill="#FFCC80"/>
<path d="M32.3816 35.4038H30.1705V37.6149H32.3816V35.4038Z" fill="#FFE0B2"/>
<path d="M32.3816 33.1927H30.1705V35.4038H32.3816V33.1927Z" fill="#37474F"/>
<path d="M32.3816 30.9816H30.1705V33.1927H32.3816V30.9816Z" fill="#BF7D1D"/>
<path d="M32.3816 28.7771H30.1705V30.9882H32.3816V28.7771Z" fill="#FFA726"/>
<path d="M32.3816 26.5661H30.1705V28.7772H32.3816V26.5661Z" fill="#BF7D1D"/>
<path d="M32.3816 24.3616H30.1705V26.5727H32.3816V24.3616Z" fill="#FFA726"/>
<path d="M32.3816 22.1505H30.1705V24.3616H32.3816V22.1505Z" fill="#BF7D1D"/>
<path d="M32.3816 19.9394H30.1705V22.1505H32.3816V19.9394Z" fill="#FFA726"/>
<path d="M32.3816 17.735H30.1705V19.9461H32.3816V17.735Z" fill="#BF7D1D"/>
<path d="M32.3816 15.5239H30.1705V17.735H32.3816V15.5239Z" fill="#FFA726"/>
<path d="M32.3816 13.3195H30.1705V15.5306H32.3816V13.3195Z" fill="#BF7D1D"/>
<path d="M32.3816 11.1083H30.1705V13.3194H32.3816V11.1083Z" fill="#FFA726"/>
<path d="M30.1706 57.4815H27.9662V59.6926H30.1706V57.4815Z" fill="#FFE0B2"/>
<path d="M30.1773 55.277H27.9662V57.4881H30.1773V55.277Z" fill="#FFE0B2"/>
<path d="M30.1773 53.066H27.9662V55.2771H30.1773V53.066Z" fill="#FFE0B2"/>
<path d="M30.1773 50.8615H27.9662V53.0726H30.1773V50.8615Z" fill="#FFE0B2"/>
<path d="M30.1773 48.6504H27.9662V50.8615H30.1773V48.6504Z" fill="#FFE0B2"/>
<path d="M30.1773 46.4393H27.9662V48.6504H30.1773V46.4393Z" fill="#FFE0B2"/>
<path d="M30.1773 44.2348H27.9662V46.4459H30.1773V44.2348Z" fill="#FFE0B2"/>
<path d="M30.1773 42.0238H27.9662V44.2349H30.1773V42.0238Z" fill="#FFE0B2"/>
<path d="M30.1773 39.8193H27.9662V42.0304H30.1773V39.8193Z" fill="#37474F"/>
<path d="M30.1773 37.6082H27.9662V39.8194H30.1773V37.6082Z" fill="#FFCC80"/>
<path d="M30.1773 35.4038H27.9662V37.6149H30.1773V35.4038Z" fill="#FFE0B2"/>
<path d="M30.1773 33.1927H27.9662V35.4038H30.1773V33.1927Z" fill="#37474F"/>
<path d="M30.1773 30.9816H27.9662V33.1927H30.1773V30.9816Z" fill="#FFA726"/>
<path d="M30.1773 28.7771H27.9662V30.9882H30.1773V28.7771Z" fill="#BF7D1D"/>
<path d="M30.1773 26.5661H27.9662V28.7772H30.1773V26.5661Z" fill="#FFA726"/>
<path d="M30.1773 24.3616H27.9662V26.5727H30.1773V24.3616Z" fill="#BF7D1D"/>
<path d="M30.1773 22.1505H27.9662V24.3616H30.1773V22.1505Z" fill="#FFA726"/>
<path d="M30.1773 19.9394H27.9662V22.1505H30.1773V19.9394Z" fill="#BF7D1D"/>
<path d="M30.1773 17.735H27.9662V19.9461H30.1773V17.735Z" fill="#FFA726"/>
<path d="M30.1773 15.5239H27.9662V17.735H30.1773V15.5239Z" fill="#BF7D1D"/>
<path d="M30.1773 13.3195H27.9662V15.5306H30.1773V13.3195Z" fill="#FFA726"/>
<path d="M30.1706 11.1083H27.9662V13.3194H30.1706V11.1083Z" fill="#BF7D1D"/>
<path d="M27.9661 55.277H25.755V57.4815H27.9661V55.277Z" fill="#FFE0B2"/>
<path d="M27.9661 53.066H25.755V55.2771H27.9661V53.066Z" fill="#FFE0B2"/>
<path d="M27.9661 50.8615H25.755V53.0726H27.9661V50.8615Z" fill="#FFE0B2"/>
<path d="M27.9661 48.6504H25.755V50.8615H27.9661V48.6504Z" fill="#FFE0B2"/>
<path d="M27.9661 46.4393H25.755V48.6504H27.9661V46.4393Z" fill="#FFE0B2"/>
<path d="M27.9661 44.2348H25.755V46.4459H27.9661V44.2348Z" fill="#FFE0B2"/>
<path d="M27.9661 42.0238H25.755V44.2349H27.9661V42.0238Z" fill="#FFE0B2"/>
<path d="M27.9661 39.8193H25.755V42.0304H27.9661V39.8193Z" fill="white"/>
<path d="M27.9661 37.6082H25.755V39.8194H27.9661V37.6082Z" fill="#FFCC80"/>
<path d="M27.9661 35.4038H25.755V37.6149H27.9661V35.4038Z" fill="#FFE0B2"/>
<path d="M27.9661 33.1927H25.755V35.4038H27.9661V33.1927Z" fill="#37474F"/>
<path d="M27.9661 30.9816H25.755V33.1927H27.9661V30.9816Z" fill="#BF7D1D"/>
<path d="M27.9661 28.7771H25.755V30.9882H27.9661V28.7771Z" fill="#FFA726"/>
<path d="M27.9661 26.5661H25.755V28.7772H27.9661V26.5661Z" fill="#BF7D1D"/>
<path d="M27.9661 24.3616H25.755V26.5727H27.9661V24.3616Z" fill="#FFA726"/>
<path d="M27.9661 22.1505H25.755V24.3616H27.9661V22.1505Z" fill="#BF7D1D"/>
<path d="M27.9661 19.9394H25.755V22.1505H27.9661V19.9394Z" fill="#FFA726"/>
<path d="M27.9661 17.735H25.755V19.9461H27.9661V17.735Z" fill="#BF7D1D"/>
<path d="M27.9661 15.5239H25.755V17.735H27.9661V15.5239Z" fill="#FFA726"/>
<path d="M27.9661 13.3195H25.755V15.5239H27.9661V13.3195Z" fill="#BF7D1D"/>
<path d="M25.7551 53.066H23.5439V55.2771H25.7551V53.066Z" fill="#FFE0B2"/>
<path d="M25.7551 50.8615H23.5439V53.0726H25.7551V50.8615Z" fill="#FFE0B2"/>
<path d="M25.7551 48.6504H23.5439V50.8615H25.7551V48.6504Z" fill="#FFE0B2"/>
<path d="M25.7618 46.4393H23.5507V48.6504H25.7618V46.4393Z" fill="#FFE0B2"/>
<path d="M25.7618 44.2348H23.5507V46.4459H25.7618V44.2348Z" fill="#FFE0B2"/>
<path d="M25.7618 42.0238H23.5507V44.2349H25.7618V42.0238Z" fill="#FFE0B2"/>
<path d="M25.7618 39.8193H23.5507V42.0304H25.7618V39.8193Z" fill="#FFE0B2"/>
<path d="M25.7618 37.6082H23.5507V39.8194H25.7618V37.6082Z" fill="#FFE0B2"/>
<path d="M25.7618 35.4038H23.5507V37.6149H25.7618V35.4038Z" fill="#37474F"/>
<path d="M25.7618 33.1927H23.5507V35.4038H25.7618V33.1927Z" fill="#FFCC80"/>
<path d="M25.7618 30.9816H23.5507V33.1927H25.7618V30.9816Z" fill="#FFA726"/>
<path d="M25.7618 28.7771H23.5507V30.9882H25.7618V28.7771Z" fill="#BF7D1D"/>
<path d="M25.7618 26.5661H23.5507V28.7772H25.7618V26.5661Z" fill="#FFA726"/>
<path d="M25.7618 24.3616H23.5507V26.5727H25.7618V24.3616Z" fill="#BF7D1D"/>
<path d="M25.7618 22.1505H23.5507V24.3616H25.7618V22.1505Z" fill="#FFA726"/>
<path d="M25.7618 19.9394H23.5507V22.1505H25.7618V19.9394Z" fill="#BF7D1D"/>
<path d="M25.7618 17.735H23.5507V19.9461H25.7618V17.735Z" fill="#FFA726"/>
<path d="M25.7551 15.5239H23.5439V17.735H25.7551V15.5239Z" fill="#BF7D1D"/>
<path d="M23.5439 46.4393H21.3395V48.6504H23.5439V46.4393Z" fill="#FFE0B2"/>
<path d="M23.5506 44.2348H21.3395V46.4459H23.5506V44.2348Z" fill="#FFCC80"/>
<path d="M23.5506 42.0238H21.3395V44.2349H23.5506V42.0238Z" fill="#FFCC80"/>
<path d="M23.5506 39.8193H21.3395V42.0304H23.5506V39.8193Z" fill="#FFCC80"/>
<path d="M23.5506 37.6082H21.3395V39.8194H23.5506V37.6082Z" fill="#FFE0B2"/>
<path d="M23.5506 35.4038H21.3395V37.6149H23.5506V35.4038Z" fill="#263238"/>
<path d="M23.5506 33.1927H21.3395V35.4038H23.5506V33.1927Z" fill="#1D262A"/>
<path d="M23.5506 30.9816H21.3395V33.1927H23.5506V30.9816Z" fill="#BF7D1D"/>
<path d="M23.5506 28.7771H21.3395V30.9882H23.5506V28.7771Z" fill="#FFA726"/>
<path d="M23.5506 26.5661H21.3395V28.7772H23.5506V26.5661Z" fill="#BF7D1D"/>
<path d="M23.5506 24.3616H21.3395V26.5727H23.5506V24.3616Z" fill="#FFA726"/>
<path d="M23.5506 22.1505H21.3395V24.3616H23.5506V22.1505Z" fill="#BF7D1D"/>
<path d="M23.5506 19.9394H21.3395V22.1505H23.5506V19.9394Z" fill="#FFA726"/>
<path d="M23.5439 17.735H21.3395V19.9461H23.5439V17.735Z" fill="#BF7D1D"/>
<path d="M21.3395 46.4393H19.1284V48.6504H21.3395V46.4393Z" fill="#FFE0B2"/>
<path d="M21.3395 44.2348H19.1284V46.4459H21.3395V44.2348Z" fill="#FFE0B2"/>
<path d="M21.3395 42.0238H19.1284V44.2349H21.3395V42.0238Z" fill="#FFE0B2"/>
<path d="M21.3395 39.8193H19.1284V42.0304H21.3395V39.8193Z" fill="#FFCC80"/>
<path d="M21.3395 37.6082H19.1284V39.8127H21.3395V37.6082Z" fill="#FFE0B2"/>
<path d="M21.3395 35.4038H19.1284V37.6149H21.3395V35.4038Z" fill="#263238"/>
<path d="M21.3395 33.1927H19.1284V35.4038H21.3395V33.1927Z" fill="#1D262A"/>
<path d="M21.3395 30.9816H19.1284V33.1927H21.3395V30.9816Z" fill="#FFA726"/>
<path d="M21.3395 28.7771H19.1284V30.9882H21.3395V28.7771Z" fill="#BF7D1D"/>
<path d="M21.3395 26.5661H19.1284V28.7772H21.3395V26.5661Z" fill="#FFA726"/>
<path d="M21.3395 24.3616H19.1284V26.5727H21.3395V24.3616Z" fill="#BF7D1D"/>
<path d="M21.3395 22.1505H19.1284V24.3616H21.3395V22.1505Z" fill="#FFA726"/>
<path d="M21.3395 19.9394H19.1284V22.1438H21.3395V19.9394Z" fill="#BF7D1D"/>
<path d="M19.1351 44.2348H16.924V46.4393H19.1351V44.2348Z" fill="#FFE0B2"/>
<path d="M19.1351 42.0238H16.924V44.2349H19.1351V42.0238Z" fill="#FFE0B2"/>
<path d="M19.1351 39.8193H16.924V42.0304H19.1351V39.8193Z" fill="#FFE0B2"/>
<path d="M19.1351 30.9883H16.924V33.1927H19.1351V30.9883Z" fill="#BF7D1D"/>
<path d="M19.1351 28.7771H16.924V30.9882H19.1351V28.7771Z" fill="#FFA726"/>
<path d="M19.1351 26.5661H16.924V28.7772H19.1351V26.5661Z" fill="#BF7D1D"/>
<path d="M19.1351 24.3616H16.924V26.5727H19.1351V24.3616Z" fill="#FFA726"/>
<path d="M19.1351 22.1505H16.924V24.3616H19.1351V22.1505Z" fill="#BF7D1D"/>
<path d="M16.924 30.9883H14.7129V33.1927H16.924V30.9883Z" fill="#FFA726"/>
<path d="M16.924 28.7771H14.7129V30.9882H16.924V28.7771Z" fill="#BF7D1D"/>
<path d="M16.924 26.5661H14.7129V28.7772H16.924V26.5661Z" fill="#FFA726"/>
<path d="M16.924 24.3616H14.7129V26.566H16.924V24.3616Z" fill="#BF7D1D"/>
<path d="M14.7129 30.9883H12.5018V33.1927H14.7129V30.9883Z" fill="#BF7D1D"/>
<path d="M14.7129 28.7771H12.5018V30.9882H14.7129V28.7771Z" fill="#FFA726"/>
<path d="M14.7129 26.5661H12.5018V28.7772H14.7129V26.5661Z" fill="#BF7D1D"/>
<path d="M12.5018 30.9883H10.2974V33.1927H12.5018V30.9883Z" fill="#FFA726"/>
<path d="M12.5018 28.7771H10.2974V30.9882H12.5018V28.7771Z" fill="#BF7D1D"/>
<path d="M10.2974 30.9883H8.0863V33.1927H10.2974V30.9883Z" fill="#BF7D1D"/>
<path d="M47.8394 68.5303H45.6283V70.7347H47.8394V68.5303Z" fill="#FFE0B2"/>
<path d="M45.6284 68.5303H43.424V70.7347H45.6284V68.5303Z" fill="#FFE0B2"/>
<path d="M45.6284 66.3192H43.424V68.5303H45.6284V66.3192Z" fill="#FFE0B2"/>
<path d="M45.6284 64.1081H43.424V66.3192H45.6284V64.1081Z" fill="#FFE0B2"/>
<path d="M45.6284 61.9037H43.424V64.1081H45.6284V61.9037Z" fill="#FFCC80"/>
<path d="M43.4239 68.5303H41.2128V70.7347H43.4239V68.5303Z" fill="#FFE0B2"/>
<path d="M43.4239 66.3192H41.2128V68.5303H43.4239V66.3192Z" fill="#FFE0B2"/>
<path d="M43.4239 64.1081H41.2128V66.3192H43.4239V64.1081Z" fill="#FFCC80"/>
<path d="M43.4239 61.9037H41.2128V64.1148H43.4239V61.9037Z" fill="#FFCC80"/>
<path d="M41.2195 68.5303H39.0084V70.7347H41.2195V68.5303Z" fill="#FFE0B2"/>
<path d="M41.2195 66.3192H39.0084V68.5303H41.2195V66.3192Z" fill="#FFCC80"/>
<path d="M41.2195 64.1081H39.0084V66.3192H41.2195V64.1081Z" fill="#FFCC80"/>
<path d="M41.2195 61.9037H39.0084V64.1148H41.2195V61.9037Z" fill="#FFCC80"/>
<path d="M39.0017 68.5303H36.7972V70.7347H39.0017V68.5303Z" fill="#FFE0B2"/>
<path d="M39.0083 66.3192H36.7972V68.5303H39.0083V66.3192Z" fill="#FFCC80"/>
<path d="M39.0083 64.1081H36.7972V66.3192H39.0083V64.1081Z" fill="#FFCC80"/>
<path d="M39.0083 61.9037H36.7972V64.1148H39.0083V61.9037Z" fill="#FFCC80"/>
<path d="M36.7973 68.5303H34.5862V70.7347H36.7973V68.5303Z" fill="#FFE0B2"/>
<path d="M36.7973 66.3192H34.5862V68.5303H36.7973V66.3192Z" fill="#FFE0B2"/>
<path d="M36.7973 64.1081H34.5862V66.3192H36.7973V64.1081Z" fill="#FFCC80"/>
<path d="M36.7973 61.9037H34.5862V64.1148H36.7973V61.9037Z" fill="#FFCC80"/>
<path d="M34.5861 68.5303H32.3817V70.7347H34.5861V68.5303Z" fill="#FFE0B2"/>
<path d="M34.5861 66.3192H32.3817V68.5303H34.5861V66.3192Z" fill="#FFE0B2"/>
<path d="M34.5861 64.1081H32.3817V66.3192H34.5861V64.1081Z" fill="#FFE0B2"/>
<path d="M34.5861 61.9037H32.3817V64.1081H34.5861V61.9037Z" fill="#FFCC80"/>
<path d="M32.3816 68.5303H30.1705V70.7347H32.3816V68.5303Z" fill="#FFE0B2"/>
</svg>
