<svg width="78" height="82" viewBox="0 0 78 82" fill="none" xmlns="http://www.w3.org/2000/svg">
<rect y="0.841049" width="77.9899" height="80.161" rx="5.34406" fill="#28BC8C"/>
<path d="M69.9137 28.7738H67.7026V30.9849H69.9137V28.7738Z" fill="#515B60"/>
<path d="M67.7026 28.7738H65.4915V30.9849H67.7026V28.7738Z" fill="#263238"/>
<path d="M67.7026 26.5693H65.4915V28.7804H67.7026V26.5693Z" fill="#515B60"/>
<path d="M65.4982 28.7738H63.2871V30.9849H65.4982V28.7738Z" fill="#263238"/>
<path d="M65.4982 26.5693H63.2871V28.7804H65.4982V26.5693Z" fill="#515B60"/>
<path d="M63.287 28.7738H61.0759V30.9849H63.287V28.7738Z" fill="#263238"/>
<path d="M63.287 26.5693H61.0759V28.7804H63.287V26.5693Z" fill="#515B60"/>
<path d="M61.076 42.0271H58.8649V44.2382H61.076V42.0271Z" fill="#FFAB91"/>
<path d="M61.076 39.816H58.8649V42.0271H61.076V39.816Z" fill="#FFAB91"/>
<path d="M61.076 37.6115H58.8649V39.8226H61.076V37.6115Z" fill="#FFAB91"/>
<path d="M61.076 28.7738H58.8649V30.9849H61.076V28.7738Z" fill="#263238"/>
<path d="M61.076 26.5693H58.8649V28.7804H61.076V26.5693Z" fill="#515B60"/>
<path d="M58.8715 44.2315H56.6604V46.4426H58.8715V44.2315Z" fill="#FFAB91"/>
<path d="M58.8715 42.0271H56.6604V44.2382H58.8715V42.0271Z" fill="#FFAB91"/>
<path d="M58.8715 39.816H56.6604V42.0271H58.8715V39.816Z" fill="#FFAB91"/>
<path d="M58.8715 37.6115H56.6604V39.8226H58.8715V37.6115Z" fill="#FF8A65"/>
<path d="M58.8715 35.4005H56.6604V37.6116H58.8715V35.4005Z" fill="#FFAB91"/>
<path d="M58.8715 33.196H56.6604V35.4071H58.8715V33.196Z" fill="#37474F"/>
<path d="M58.8715 30.9849H56.6604V33.196H58.8715V30.9849Z" fill="#29353B"/>
<path d="M58.8715 28.7738H56.6604V30.9849H58.8715V28.7738Z" fill="#263238"/>
<path d="M58.8715 26.5693H56.6604V28.7804H58.8715V26.5693Z" fill="#515B60"/>
<path d="M58.8715 24.3583H56.6604V26.5694H58.8715V24.3583Z" fill="#FFB951"/>
<path d="M58.8715 22.1538H56.6604V24.3649H58.8715V22.1538Z" fill="#515B60"/>
<path d="M58.8715 19.9427H56.6604V22.1539H58.8715V19.9427Z" fill="#515B60"/>
<path d="M58.8715 17.7316H56.6604V19.9427H58.8715V17.7316Z" fill="#515B60"/>
<path d="M56.6604 44.2315H54.4493V46.4426H56.6604V44.2315Z" fill="#FFAB91"/>
<path d="M56.6604 42.0271H54.4493V44.2382H56.6604V42.0271Z" fill="#FF8A65"/>
<path d="M56.6604 39.816H54.4493V42.0271H56.6604V39.816Z" fill="#FF8A65"/>
<path d="M56.6604 37.6115H54.4493V39.8226H56.6604V37.6115Z" fill="#FF8A65"/>
<path d="M56.6604 35.4005H54.4493V37.6116H56.6604V35.4005Z" fill="#FFAB91"/>
<path d="M56.6604 33.196H54.4493V35.4071H56.6604V33.196Z" fill="#37474F"/>
<path d="M56.6604 30.9849H54.4493V33.196H56.6604V30.9849Z" fill="#29353B"/>
<path d="M56.6604 28.7738H54.4493V30.9849H56.6604V28.7738Z" fill="#263238"/>
<path d="M56.6604 26.5693H54.4493V28.7804H56.6604V26.5693Z" fill="#263238"/>
<path d="M56.6604 24.3583H54.4493V26.5694H56.6604V24.3583Z" fill="#FFA726"/>
<path d="M56.6604 22.1538H54.4493V24.3649H56.6604V22.1538Z" fill="#263238"/>
<path d="M56.6604 19.9427H54.4493V22.1539H56.6604V19.9427Z" fill="#263238"/>
<path d="M56.6604 17.7316H54.4493V19.9427H56.6604V17.7316Z" fill="#263238"/>
<path d="M56.6604 15.5272H54.4493V17.7383H56.6604V15.5272Z" fill="#515B60"/>
<path d="M54.456 53.0692H52.2449V55.2803H54.456V53.0692Z" fill="#FFAB91"/>
<path d="M54.456 50.8581H52.2449V53.0692H54.456V50.8581Z" fill="#FFAB91"/>
<path d="M54.456 48.6537H52.2449V50.8648H54.456V48.6537Z" fill="#FFAB91"/>
<path d="M54.456 46.4426H52.2449V48.6537H54.456V46.4426Z" fill="#37474F"/>
<path d="M54.456 44.2315H52.2449V46.4426H54.456V44.2315Z" fill="#37474F"/>
<path d="M54.456 42.0271H52.2449V44.2382H54.456V42.0271Z" fill="#37474F"/>
<path d="M54.456 39.816H52.2449V42.0271H54.456V39.816Z" fill="#37474F"/>
<path d="M54.456 37.6115H52.2449V39.8226H54.456V37.6115Z" fill="#37474F"/>
<path d="M54.456 35.4005H52.2449V37.6116H54.456V35.4005Z" fill="#37474F"/>
<path d="M54.456 33.196H52.2449V35.4071H54.456V33.196Z" fill="#37474F"/>
<path d="M54.456 30.9849H52.2449V33.196H54.456V30.9849Z" fill="#29353B"/>
<path d="M54.456 28.7738H52.2449V30.9849H54.456V28.7738Z" fill="#263238"/>
<path d="M54.456 26.5693H52.2449V28.7804H54.456V26.5693Z" fill="#263238"/>
<path d="M54.456 24.3583H52.2449V26.5694H54.456V24.3583Z" fill="#FFA726"/>
<path d="M54.456 22.1538H52.2449V24.3649H54.456V22.1538Z" fill="#263238"/>
<path d="M54.456 19.9427H52.2449V22.1539H54.456V19.9427Z" fill="#263238"/>
<path d="M54.456 17.7316H52.2449V19.9427H54.456V17.7316Z" fill="#263238"/>
<path d="M54.456 15.5272H52.2449V17.7383H54.456V15.5272Z" fill="#263238"/>
<path d="M54.456 13.3161H52.2449V15.5272H54.456V13.3161Z" fill="#515B60"/>
<path d="M52.2448 55.2803H50.0337V57.4914H52.2448V55.2803Z" fill="#FFAB91"/>
<path d="M52.2448 53.0692H50.0337V55.2803H52.2448V53.0692Z" fill="#FFAB91"/>
<path d="M52.2448 50.8581H50.0337V53.0692H52.2448V50.8581Z" fill="#FFAB91"/>
<path d="M52.2448 48.6537H50.0337V50.8648H52.2448V48.6537Z" fill="#FFAB91"/>
<path d="M52.2448 46.4426H50.0337V48.6537H52.2448V46.4426Z" fill="#37474F"/>
<path d="M52.2448 44.2315H50.0337V46.4426H52.2448V44.2315Z" fill="#37474F"/>
<path d="M52.2448 42.0271H50.0337V44.2382H52.2448V42.0271Z" fill="#FFAB91"/>
<path d="M52.2448 39.816H50.0337V42.0271H52.2448V39.816Z" fill="#FFAB91"/>
<path d="M52.2448 37.6115H50.0337V39.8226H52.2448V37.6115Z" fill="#FFAB91"/>
<path d="M52.2448 35.4005H50.0337V37.6116H52.2448V35.4005Z" fill="#FFAB91"/>
<path d="M52.2448 33.196H50.0337V35.4071H52.2448V33.196Z" fill="#FFAB91"/>
<path d="M52.2448 30.9849H50.0337V33.196H52.2448V30.9849Z" fill="#FF8A65"/>
<path d="M52.2448 28.7738H50.0337V30.9849H52.2448V28.7738Z" fill="#263238"/>
<path d="M52.2448 26.5693H50.0337V28.7804H52.2448V26.5693Z" fill="#263238"/>
<path d="M52.2448 24.3583H50.0337V26.5694H52.2448V24.3583Z" fill="#FFA726"/>
<path d="M52.2448 22.1538H50.0337V24.3649H52.2448V22.1538Z" fill="#263238"/>
<path d="M52.2448 19.9427H50.0337V22.1539H52.2448V19.9427Z" fill="#263238"/>
<path d="M52.2448 17.7316H50.0337V19.9427H52.2448V17.7316Z" fill="#263238"/>
<path d="M52.2448 15.5272H50.0337V17.7383H52.2448V15.5272Z" fill="#263238"/>
<path d="M52.2448 13.3161H50.0337V15.5272H52.2448V13.3161Z" fill="#263238"/>
<path d="M50.0405 57.4848H47.8293V59.6959H50.0405V57.4848Z" fill="#FFAB91"/>
<path d="M50.0405 55.2803H47.8293V57.4914H50.0405V55.2803Z" fill="#FFAB91"/>
<path d="M50.0405 53.0692H47.8293V55.2803H50.0405V53.0692Z" fill="#FFAB91"/>
<path d="M50.0405 50.8581H47.8293V53.0692H50.0405V50.8581Z" fill="#263238"/>
<path d="M50.0405 48.6537H47.8293V50.8648H50.0405V48.6537Z" fill="#FFAB91"/>
<path d="M50.0405 46.4426H47.8293V48.6537H50.0405V46.4426Z" fill="#37474F"/>
<path d="M50.0405 44.2315H47.8293V46.4426H50.0405V44.2315Z" fill="#FFAB91"/>
<path d="M50.0405 42.0271H47.8293V44.2382H50.0405V42.0271Z" fill="#FFAB91"/>
<path d="M50.0405 39.816H47.8293V42.0271H50.0405V39.816Z" fill="#FFAB91"/>
<path d="M50.0405 37.6115H47.8293V39.8226H50.0405V37.6115Z" fill="#263238"/>
<path d="M50.0405 35.4005H47.8293V37.6116H50.0405V35.4005Z" fill="#FFAB91"/>
<path d="M50.0405 33.196H47.8293V35.4071H50.0405V33.196Z" fill="#FFAB91"/>
<path d="M50.0405 30.9849H47.8293V33.196H50.0405V30.9849Z" fill="#FF8A65"/>
<path d="M50.0405 28.7738H47.8293V30.9849H50.0405V28.7738Z" fill="#263238"/>
<path d="M50.0405 26.5693H47.8293V28.7804H50.0405V26.5693Z" fill="#263238"/>
<path d="M50.0405 24.3583H47.8293V26.5694H50.0405V24.3583Z" fill="#FFA726"/>
<path d="M50.0405 22.1538H47.8293V24.3649H50.0405V22.1538Z" fill="#263238"/>
<path d="M50.0405 19.9427H47.8293V22.1539H50.0405V19.9427Z" fill="#263238"/>
<path d="M50.0405 17.7316H47.8293V19.9427H50.0405V17.7316Z" fill="#263238"/>
<path d="M50.0405 15.5272H47.8293V17.7383H50.0405V15.5272Z" fill="#263238"/>
<path d="M50.0405 13.3161H47.8293V15.5272H50.0405V13.3161Z" fill="#263238"/>
<path d="M47.8293 66.3158H45.6182V68.5269H47.8293V66.3158Z" fill="#FFAB91"/>
<path d="M47.8293 57.4848H45.6182V59.6959H47.8293V57.4848Z" fill="#FFAB91"/>
<path d="M47.8293 55.2803H45.6182V57.4914H47.8293V55.2803Z" fill="#FFAB91"/>
<path d="M47.8293 53.0692H45.6182V55.2803H47.8293V53.0692Z" fill="#FFAB91"/>
<path d="M47.8293 50.8581H45.6182V53.0692H47.8293V50.8581Z" fill="#263238"/>
<path d="M47.8293 48.6537H45.6182V50.8648H47.8293V48.6537Z" fill="#FFAB91"/>
<path d="M47.8293 46.4426H45.6182V48.6537H47.8293V46.4426Z" fill="#FFAB91"/>
<path d="M47.8293 44.2315H45.6182V46.4426H47.8293V44.2315Z" fill="#FFAB91"/>
<path d="M47.8293 42.0271H45.6182V44.2382H47.8293V42.0271Z" fill="#FFAB91"/>
<path d="M47.8293 39.816H45.6182V42.0271H47.8293V39.816Z" fill="#FFAB91"/>
<path d="M47.8293 37.6115H45.6182V39.8226H47.8293V37.6115Z" fill="#263238"/>
<path d="M47.8293 35.4005H45.6182V37.6116H47.8293V35.4005Z" fill="#FFAB91"/>
<path d="M47.8293 33.196H45.6182V35.4071H47.8293V33.196Z" fill="#FFAB91"/>
<path d="M47.8293 30.9849H45.6182V33.196H47.8293V30.9849Z" fill="#FF8A65"/>
<path d="M47.8293 28.7738H45.6182V30.9849H47.8293V28.7738Z" fill="#263238"/>
<path d="M47.8293 26.5693H45.6182V28.7804H47.8293V26.5693Z" fill="#263238"/>
<path d="M47.8293 24.3583H45.6182V26.5694H47.8293V24.3583Z" fill="#FFA726"/>
<path d="M47.8293 22.1538H45.6182V24.3649H47.8293V22.1538Z" fill="#263238"/>
<path d="M47.8293 19.9427H45.6182V22.1539H47.8293V19.9427Z" fill="#263238"/>
<path d="M47.8293 17.7316H45.6182V19.9427H47.8293V17.7316Z" fill="#515B60"/>
<path d="M47.8293 15.5272H45.6182V17.7383H47.8293V15.5272Z" fill="#515B60"/>
<path d="M47.8293 13.3161H45.6182V15.5272H47.8293V13.3161Z" fill="#263238"/>
<path d="M45.6182 66.3158H43.4071V68.5269H45.6182V66.3158Z" fill="#FFAB91"/>
<path d="M45.6182 64.1114H43.4071V66.3225H45.6182V64.1114Z" fill="#FFAB91"/>
<path d="M45.6182 61.9003H43.4071V64.1114H45.6182V61.9003Z" fill="#FFAB91"/>
<path d="M45.6182 59.6959H43.4071V61.907H45.6182V59.6959Z" fill="#FF8A65"/>
<path d="M45.6182 57.4848H43.4071V59.6959H45.6182V57.4848Z" fill="#FFAB91"/>
<path d="M45.6182 55.2803H43.4071V57.4914H45.6182V55.2803Z" fill="#FFAB91"/>
<path d="M45.6182 53.0692H43.4071V55.2803H45.6182V53.0692Z" fill="#FF8A65"/>
<path d="M45.6182 50.8581H43.4071V53.0692H45.6182V50.8581Z" fill="white"/>
<path d="M45.6182 48.6537H43.4071V50.8648H45.6182V48.6537Z" fill="#263238"/>
<path d="M45.6182 46.4426H43.4071V48.6537H45.6182V46.4426Z" fill="#FFAB91"/>
<path d="M45.6182 44.2315H43.4071V46.4426H45.6182V44.2315Z" fill="#FFAB91"/>
<path d="M45.6182 42.0271H43.4071V44.2382H45.6182V42.0271Z" fill="#FFAB91"/>
<path d="M45.6182 39.816H43.4071V42.0271H45.6182V39.816Z" fill="#FFAB91"/>
<path d="M45.6182 37.6115H43.4071V39.8226H45.6182V37.6115Z" fill="#263238"/>
<path d="M45.6182 35.4005H43.4071V37.6116H45.6182V35.4005Z" fill="#FF8A65"/>
<path d="M45.6182 33.196H43.4071V35.4071H45.6182V33.196Z" fill="#FFAB91"/>
<path d="M45.6182 30.9849H43.4071V33.196H45.6182V30.9849Z" fill="#29353B"/>
<path d="M45.6182 28.7738H43.4071V30.9849H45.6182V28.7738Z" fill="#263238"/>
<path d="M45.6182 26.5693H43.4071V28.7804H45.6182V26.5693Z" fill="#263238"/>
<path d="M45.6182 24.3583H43.4071V26.5694H45.6182V24.3583Z" fill="#FFA726"/>
<path d="M45.6182 22.1538H43.4071V24.3649H45.6182V22.1538Z" fill="#263238"/>
<path d="M45.6182 19.9427H43.4071V22.1539H45.6182V19.9427Z" fill="#515B60"/>
<path d="M45.6182 17.7316H43.4071V19.9427H45.6182V17.7316Z" fill="#263238"/>
<path d="M45.6182 15.5272H43.4071V17.7383H45.6182V15.5272Z" fill="#263238"/>
<path d="M45.6182 13.3161H43.4071V15.5272H45.6182V13.3161Z" fill="#263238"/>
<path d="M43.4137 66.3158H41.2026V68.5269H43.4137V66.3158Z" fill="#FFAB91"/>
<path d="M43.4137 64.1114H41.2026V66.3225H43.4137V64.1114Z" fill="#FFAB91"/>
<path d="M43.4137 61.9003H41.2026V64.1114H43.4137V61.9003Z" fill="#FF8A65"/>
<path d="M43.4137 59.6959H41.2026V61.907H43.4137V59.6959Z" fill="#FF8A65"/>
<path d="M43.4137 57.4848H41.2026V59.6959H43.4137V57.4848Z" fill="#FFAB91"/>
<path d="M43.4137 55.2803H41.2026V57.4914H43.4137V55.2803Z" fill="#FF8A65"/>
<path d="M43.4137 53.0692H41.2026V55.2803H43.4137V53.0692Z" fill="white"/>
<path d="M43.4137 50.8581H41.2026V53.0692H43.4137V50.8581Z" fill="white"/>
<path d="M43.4137 48.6537H41.2026V50.8648H43.4137V48.6537Z" fill="#263238"/>
<path d="M43.4137 46.4426H41.2026V48.6537H43.4137V46.4426Z" fill="#263238"/>
<path d="M43.4137 44.2315H41.2026V46.4426H43.4137V44.2315Z" fill="#FF8A65"/>
<path d="M43.4137 42.0271H41.2026V44.2382H43.4137V42.0271Z" fill="#FFAB91"/>
<path d="M43.4137 39.816H41.2026V42.0271H43.4137V39.816Z" fill="#FFAB91"/>
<path d="M43.4137 37.6115H41.2026V39.8226H43.4137V37.6115Z" fill="#FFAB91"/>
<path d="M43.4137 35.4005H41.2026V37.6116H43.4137V35.4005Z" fill="#FFAB91"/>
<path d="M43.4137 33.196H41.2026V35.4071H43.4137V33.196Z" fill="#263238"/>
<path d="M43.4137 30.9849H41.2026V33.196H43.4137V30.9849Z" fill="#FF8A65"/>
<path d="M43.4137 28.7738H41.2026V30.9849H43.4137V28.7738Z" fill="#263238"/>
<path d="M43.4137 26.5693H41.2026V28.7804H43.4137V26.5693Z" fill="#263238"/>
<path d="M43.4137 24.3583H41.2026V26.5694H43.4137V24.3583Z" fill="#FFA726"/>
<path d="M43.4137 22.1538H41.2026V24.3649H43.4137V22.1538Z" fill="#515B60"/>
<path d="M43.4137 19.9427H41.2026V22.1539H43.4137V19.9427Z" fill="#263238"/>
<path d="M43.4137 17.7316H41.2026V19.9427H43.4137V17.7316Z" fill="#263238"/>
<path d="M43.4137 15.5272H41.2026V17.7383H43.4137V15.5272Z" fill="#263238"/>
<path d="M43.4137 13.3161H41.2026V15.5272H43.4137V13.3161Z" fill="#263238"/>
<path d="M41.2027 66.3158H38.9916V68.5269H41.2027V66.3158Z" fill="#FFAB91"/>
<path d="M41.2027 64.1114H38.9916V66.3225H41.2027V64.1114Z" fill="#FF8A65"/>
<path d="M41.2027 61.9003H38.9916V64.1114H41.2027V61.9003Z" fill="#FF8A65"/>
<path d="M41.2027 59.6959H38.9916V61.907H41.2027V59.6959Z" fill="#FF8A65"/>
<path d="M41.2027 57.4848H38.9916V59.6959H41.2027V57.4848Z" fill="#FFAB91"/>
<path d="M41.2027 55.2803H38.9916V57.4914H41.2027V55.2803Z" fill="#FF8A65"/>
<path d="M41.2027 53.0692H38.9916V55.2803H41.2027V53.0692Z" fill="white"/>
<path d="M41.2027 50.8581H38.9916V53.0692H41.2027V50.8581Z" fill="white"/>
<path d="M41.2027 48.6537H38.9916V50.8648H41.2027V48.6537Z" fill="#263238"/>
<path d="M41.2027 46.4426H38.9916V48.6537H41.2027V46.4426Z" fill="#FF8A65"/>
<path d="M41.2027 44.2315H38.9916V46.4426H41.2027V44.2315Z" fill="#FF8A65"/>
<path d="M41.2027 42.0271H38.9916V44.2382H41.2027V42.0271Z" fill="#FF8A65"/>
<path d="M41.2027 39.816H38.9916V42.0271H41.2027V39.816Z" fill="#FF8A65"/>
<path d="M41.2027 37.6115H38.9916V39.8226H41.2027V37.6115Z" fill="#FF8A65"/>
<path d="M41.2027 35.4005H38.9916V37.6116H41.2027V35.4005Z" fill="#FFAB91"/>
<path d="M41.2027 33.196H38.9916V35.4071H41.2027V33.196Z" fill="#FFAB91"/>
<path d="M41.2027 30.9849H38.9916V33.196H41.2027V30.9849Z" fill="#FF8A65"/>
<path d="M41.2027 28.7738H38.9916V30.9849H41.2027V28.7738Z" fill="#263238"/>
<path d="M41.2027 26.5693H38.9916V28.7804H41.2027V26.5693Z" fill="#263238"/>
<path d="M41.2027 24.3583H38.9916V26.5694H41.2027V24.3583Z" fill="#FFA726"/>
<path d="M41.2027 22.1538H38.9916V24.3649H41.2027V22.1538Z" fill="#263238"/>
<path d="M41.2027 19.9427H38.9916V22.1539H41.2027V19.9427Z" fill="#263238"/>
<path d="M41.2027 17.7316H38.9916V19.9427H41.2027V17.7316Z" fill="#263238"/>
<path d="M41.2027 15.5272H38.9916V17.7383H41.2027V15.5272Z" fill="#263238"/>
<path d="M41.2027 13.3161H38.9916V15.5272H41.2027V13.3161Z" fill="#263238"/>
<path d="M38.9982 66.3158H36.7871V68.5269H38.9982V66.3158Z" fill="#FFAB91"/>
<path d="M38.9982 64.1114H36.7871V66.3225H38.9982V64.1114Z" fill="#FF8A65"/>
<path d="M38.9982 61.9003H36.7871V64.1114H38.9982V61.9003Z" fill="#FF8A65"/>
<path d="M38.9982 59.6959H36.7871V61.907H38.9982V59.6959Z" fill="#FF8A65"/>
<path d="M38.9982 57.4848H36.7871V59.6959H38.9982V57.4848Z" fill="#FFAB91"/>
<path d="M38.9982 55.2803H36.7871V57.4914H38.9982V55.2803Z" fill="#FF8A65"/>
<path d="M38.9982 53.0692H36.7871V55.2803H38.9982V53.0692Z" fill="white"/>
<path d="M38.9982 50.8581H36.7871V53.0692H38.9982V50.8581Z" fill="white"/>
<path d="M38.9982 48.6537H36.7871V50.8648H38.9982V48.6537Z" fill="#263238"/>
<path d="M38.9982 46.4426H36.7871V48.6537H38.9982V46.4426Z" fill="#FF8A65"/>
<path d="M38.9982 44.2315H36.7871V46.4426H38.9982V44.2315Z" fill="#FF8A65"/>
<path d="M38.9982 42.0271H36.7871V44.2382H38.9982V42.0271Z" fill="#FF8A65"/>
<path d="M38.9982 39.816H36.7871V42.0271H38.9982V39.816Z" fill="#FF8A65"/>
<path d="M38.9982 37.6115H36.7871V39.8226H38.9982V37.6115Z" fill="#FF8A65"/>
<path d="M38.9982 35.4005H36.7871V37.6116H38.9982V35.4005Z" fill="#FFAB91"/>
<path d="M38.9982 33.196H36.7871V35.4071H38.9982V33.196Z" fill="#FFAB91"/>
<path d="M38.9982 30.9849H36.7871V33.196H38.9982V30.9849Z" fill="#FF8A65"/>
<path d="M38.9982 28.7738H36.7871V30.9849H38.9982V28.7738Z" fill="#263238"/>
<path d="M38.9982 26.5693H36.7871V28.7804H38.9982V26.5693Z" fill="#263238"/>
<path d="M38.9982 24.3583H36.7871V26.5694H38.9982V24.3583Z" fill="#FFA726"/>
<path d="M38.9982 22.1538H36.7871V24.3649H38.9982V22.1538Z" fill="#263238"/>
<path d="M38.9982 19.9427H36.7871V22.1539H38.9982V19.9427Z" fill="#263238"/>
<path d="M38.9982 17.7316H36.7871V19.9427H38.9982V17.7316Z" fill="#263238"/>
<path d="M38.9982 15.5272H36.7871V17.7383H38.9982V15.5272Z" fill="#263238"/>
<path d="M38.9982 13.3161H36.7871V15.5272H38.9982V13.3161Z" fill="#263238"/>
<path d="M36.7872 66.3158H34.576V68.5269H36.7872V66.3158Z" fill="#FFAB91"/>
<path d="M36.7872 64.1114H34.576V66.3225H36.7872V64.1114Z" fill="#FFAB91"/>
<path d="M36.7872 61.9003H34.576V64.1114H36.7872V61.9003Z" fill="#FF8A65"/>
<path d="M36.7872 59.6959H34.576V61.907H36.7872V59.6959Z" fill="#FF8A65"/>
<path d="M36.7872 57.4848H34.576V59.6959H36.7872V57.4848Z" fill="#FFAB91"/>
<path d="M36.7872 55.2803H34.576V57.4914H36.7872V55.2803Z" fill="#FF8A65"/>
<path d="M36.7872 53.0692H34.576V55.2803H36.7872V53.0692Z" fill="white"/>
<path d="M36.7872 50.8581H34.576V53.0692H36.7872V50.8581Z" fill="white"/>
<path d="M36.7872 48.6537H34.576V50.8648H36.7872V48.6537Z" fill="#263238"/>
<path d="M36.7872 46.4426H34.576V48.6537H36.7872V46.4426Z" fill="#263238"/>
<path d="M36.7872 44.2315H34.576V46.4426H36.7872V44.2315Z" fill="#FF8A65"/>
<path d="M36.7872 42.0271H34.576V44.2382H36.7872V42.0271Z" fill="#FFAB91"/>
<path d="M36.7872 39.816H34.576V42.0271H36.7872V39.816Z" fill="#FFAB91"/>
<path d="M36.7872 37.6115H34.576V39.8226H36.7872V37.6115Z" fill="#FFAB91"/>
<path d="M36.7872 35.4005H34.576V37.6116H36.7872V35.4005Z" fill="#263238"/>
<path d="M36.7872 33.196H34.576V35.4071H36.7872V33.196Z" fill="#FFAB91"/>
<path d="M36.7872 30.9849H34.576V33.196H36.7872V30.9849Z" fill="#FF8A65"/>
<path d="M36.7872 28.7738H34.576V30.9849H36.7872V28.7738Z" fill="#263238"/>
<path d="M36.7872 26.5693H34.576V28.7804H36.7872V26.5693Z" fill="#263238"/>
<path d="M36.7872 24.3583H34.576V26.5694H36.7872V24.3583Z" fill="#FFA726"/>
<path d="M36.7872 22.1538H34.576V24.3649H36.7872V22.1538Z" fill="#263238"/>
<path d="M36.7872 19.9427H34.576V22.1539H36.7872V19.9427Z" fill="#263238"/>
<path d="M36.7872 17.7316H34.576V19.9427H36.7872V17.7316Z" fill="#263238"/>
<path d="M36.7872 15.5272H34.576V17.7383H36.7872V15.5272Z" fill="#263238"/>
<path d="M36.7872 13.3161H34.576V15.5272H36.7872V13.3161Z" fill="#263238"/>
<path d="M34.5761 66.3158H32.365V68.5269H34.5761V66.3158Z" fill="#FFAB91"/>
<path d="M34.5761 64.1114H32.365V66.3225H34.5761V64.1114Z" fill="#FFAB91"/>
<path d="M34.5761 61.9003H32.365V64.1114H34.5761V61.9003Z" fill="#FFAB91"/>
<path d="M34.5761 59.6959H32.365V61.907H34.5761V59.6959Z" fill="#FF8A65"/>
<path d="M34.5761 57.4848H32.365V59.6959H34.5761V57.4848Z" fill="#FFAB91"/>
<path d="M34.5761 55.2803H32.365V57.4914H34.5761V55.2803Z" fill="#FFAB91"/>
<path d="M34.5761 53.0692H32.365V55.2803H34.5761V53.0692Z" fill="#FF8A65"/>
<path d="M34.5761 50.8581H32.365V53.0692H34.5761V50.8581Z" fill="white"/>
<path d="M34.5761 48.6537H32.365V50.8648H34.5761V48.6537Z" fill="#263238"/>
<path d="M34.5761 46.4426H32.365V48.6537H34.5761V46.4426Z" fill="#FFAB91"/>
<path d="M34.5761 44.2315H32.365V46.4426H34.5761V44.2315Z" fill="#FFAB91"/>
<path d="M34.5761 42.0271H32.365V44.2382H34.5761V42.0271Z" fill="#FFAB91"/>
<path d="M34.5761 39.816H32.365V42.0271H34.5761V39.816Z" fill="#FFF3E0"/>
<path d="M34.5761 37.6115H32.365V39.8226H34.5761V37.6115Z" fill="#FFF3E0"/>
<path d="M34.5761 35.4005H32.365V37.6116H34.5761V35.4005Z" fill="#FFF3E0"/>
<path d="M34.5761 33.196H32.365V35.4071H34.5761V33.196Z" fill="#263238"/>
<path d="M34.5761 30.9849H32.365V33.196H34.5761V30.9849Z" fill="#FF8A65"/>
<path d="M34.5761 28.7738H32.365V30.9849H34.5761V28.7738Z" fill="#263238"/>
<path d="M34.5761 26.5693H32.365V28.7804H34.5761V26.5693Z" fill="#263238"/>
<path d="M34.5761 24.3583H32.365V26.5694H34.5761V24.3583Z" fill="#FFA726"/>
<path d="M34.5761 22.1538H32.365V24.3649H34.5761V22.1538Z" fill="#263238"/>
<path d="M34.5761 19.9427H32.365V22.1539H34.5761V19.9427Z" fill="#263238"/>
<path d="M34.5761 17.7316H32.365V19.9427H34.5761V17.7316Z" fill="#263238"/>
<path d="M34.5761 15.5272H32.365V17.7383H34.5761V15.5272Z" fill="#263238"/>
<path d="M34.5761 13.3161H32.365V15.5272H34.5761V13.3161Z" fill="#263238"/>
<path d="M32.3716 66.3158H30.1605V68.5269H32.3716V66.3158Z" fill="#FFAB91"/>
<path d="M32.3716 57.4848H30.1605V59.6959H32.3716V57.4848Z" fill="#FFAB91"/>
<path d="M32.3716 55.2803H30.1605V57.4914H32.3716V55.2803Z" fill="#FFAB91"/>
<path d="M32.3716 53.0692H30.1605V55.2803H32.3716V53.0692Z" fill="#FFAB91"/>
<path d="M32.3716 50.8581H30.1605V53.0692H32.3716V50.8581Z" fill="#263238"/>
<path d="M32.3716 48.6537H30.1605V50.8648H32.3716V48.6537Z" fill="#FFAB91"/>
<path d="M32.3716 46.4426H30.1605V48.6537H32.3716V46.4426Z" fill="#FFAB91"/>
<path d="M32.3716 44.2315H30.1605V46.4426H32.3716V44.2315Z" fill="#FFAB91"/>
<path d="M32.3716 42.0271H30.1605V44.2382H32.3716V42.0271Z" fill="#FFAB91"/>
<path d="M32.3716 39.816H30.1605V42.0271H32.3716V39.816Z" fill="#FFF3E0"/>
<path d="M32.3716 37.6115H30.1605V39.8226H32.3716V37.6115Z" fill="#263238"/>
<path d="M32.3716 35.4005H30.1605V37.6116H32.3716V35.4005Z" fill="#263238"/>
<path d="M32.3716 33.196H30.1605V35.4071H32.3716V33.196Z" fill="#263238"/>
<path d="M32.3716 30.9849H30.1605V33.196H32.3716V30.9849Z" fill="#FF8A65"/>
<path d="M32.3716 28.7738H30.1605V30.9849H32.3716V28.7738Z" fill="#263238"/>
<path d="M32.3716 26.5693H30.1605V28.7804H32.3716V26.5693Z" fill="#263238"/>
<path d="M32.3716 24.3583H30.1605V26.5694H32.3716V24.3583Z" fill="#FFA726"/>
<path d="M32.3716 22.1538H30.1605V24.3649H32.3716V22.1538Z" fill="#263238"/>
<path d="M32.3716 19.9427H30.1605V22.1539H32.3716V19.9427Z" fill="#263238"/>
<path d="M32.3716 17.7316H30.1605V19.9427H32.3716V17.7316Z" fill="#263238"/>
<path d="M32.3716 15.5272H30.1605V17.7383H32.3716V15.5272Z" fill="#263238"/>
<path d="M32.3716 13.3161H30.1605V15.5272H32.3716V13.3161Z" fill="#263238"/>
<path d="M30.1606 57.4848H27.9495V59.6959H30.1606V57.4848Z" fill="#FFAB91"/>
<path d="M30.1606 55.2803H27.9495V57.4914H30.1606V55.2803Z" fill="#FFAB91"/>
<path d="M30.1606 53.0692H27.9495V55.2803H30.1606V53.0692Z" fill="#FFAB91"/>
<path d="M30.1606 50.8581H27.9495V53.0692H30.1606V50.8581Z" fill="#263238"/>
<path d="M30.1606 48.6537H27.9495V50.8648H30.1606V48.6537Z" fill="#FFAB91"/>
<path d="M30.1606 46.4426H27.9495V48.6537H30.1606V46.4426Z" fill="#37474F"/>
<path d="M30.1606 44.2315H27.9495V46.4426H30.1606V44.2315Z" fill="#FFAB91"/>
<path d="M30.1606 42.0271H27.9495V44.2382H30.1606V42.0271Z" fill="#FFAB91"/>
<path d="M30.1606 39.816H27.9495V42.0271H30.1606V39.816Z" fill="#FFF3E0"/>
<path d="M30.1606 37.6115H27.9495V39.8226H30.1606V37.6115Z" fill="#FFF3E0"/>
<path d="M30.1606 35.4005H27.9495V37.6116H30.1606V35.4005Z" fill="#FFF3E0"/>
<path d="M30.1606 33.196H27.9495V35.4071H30.1606V33.196Z" fill="#263238"/>
<path d="M30.1606 30.9849H27.9495V33.196H30.1606V30.9849Z" fill="#FF8A65"/>
<path d="M30.1606 28.7738H27.9495V30.9849H30.1606V28.7738Z" fill="#263238"/>
<path d="M30.1606 26.5693H27.9495V28.7804H30.1606V26.5693Z" fill="#263238"/>
<path d="M30.1606 24.3583H27.9495V26.5694H30.1606V24.3583Z" fill="#FFA726"/>
<path d="M30.1606 22.1538H27.9495V24.3649H30.1606V22.1538Z" fill="#263238"/>
<path d="M30.1606 19.9427H27.9495V22.1539H30.1606V19.9427Z" fill="#263238"/>
<path d="M30.1606 17.7316H27.9495V19.9427H30.1606V17.7316Z" fill="#263238"/>
<path d="M30.1606 15.5272H27.9495V17.7383H30.1606V15.5272Z" fill="#263238"/>
<path d="M30.1606 13.3161H27.9495V15.5272H30.1606V13.3161Z" fill="#263238"/>
<path d="M27.9561 55.2803H25.745V57.4914H27.9561V55.2803Z" fill="#FFAB91"/>
<path d="M27.9561 53.0692H25.745V55.2803H27.9561V53.0692Z" fill="#FFAB91"/>
<path d="M27.9561 50.8581H25.745V53.0692H27.9561V50.8581Z" fill="#FFAB91"/>
<path d="M27.9561 48.6537H25.745V50.8648H27.9561V48.6537Z" fill="#FFAB91"/>
<path d="M27.9561 46.4426H25.745V48.6537H27.9561V46.4426Z" fill="#37474F"/>
<path d="M27.9561 44.2315H25.745V46.4426H27.9561V44.2315Z" fill="#37474F"/>
<path d="M27.9561 42.0271H25.745V44.2382H27.9561V42.0271Z" fill="#FFAB91"/>
<path d="M27.9561 39.816H25.745V42.0271H27.9561V39.816Z" fill="#FFAB91"/>
<path d="M27.9561 37.6115H25.745V39.8226H27.9561V37.6115Z" fill="#FFAB91"/>
<path d="M27.9561 35.4005H25.745V37.6116H27.9561V35.4005Z" fill="#FFAB91"/>
<path d="M27.9561 33.196H25.745V35.4071H27.9561V33.196Z" fill="#FFAB91"/>
<path d="M27.9561 30.9849H25.745V33.196H27.9561V30.9849Z" fill="#FF8A65"/>
<path d="M27.9561 28.7738H25.745V30.9849H27.9561V28.7738Z" fill="#263238"/>
<path d="M27.9561 26.5693H25.745V28.7804H27.9561V26.5693Z" fill="#263238"/>
<path d="M27.9561 24.3583H25.745V26.5694H27.9561V24.3583Z" fill="#FFA726"/>
<path d="M27.9561 22.1538H25.745V24.3649H27.9561V22.1538Z" fill="#263238"/>
<path d="M27.9561 19.9427H25.745V22.1539H27.9561V19.9427Z" fill="#263238"/>
<path d="M27.9561 17.7316H25.745V19.9427H27.9561V17.7316Z" fill="#263238"/>
<path d="M27.9561 15.5272H25.745V17.7383H27.9561V15.5272Z" fill="#263238"/>
<path d="M27.9561 13.3161H25.745V15.5272H27.9561V13.3161Z" fill="#263238"/>
<path d="M25.745 53.0692H23.5339V55.2803H25.745V53.0692Z" fill="#FFAB91"/>
<path d="M25.745 50.8581H23.5339V53.0692H25.745V50.8581Z" fill="#FFAB91"/>
<path d="M25.745 48.6537H23.5339V50.8648H25.745V48.6537Z" fill="#FFAB91"/>
<path d="M25.745 46.4426H23.5339V48.6537H25.745V46.4426Z" fill="#37474F"/>
<path d="M25.745 44.2315H23.5339V46.4426H25.745V44.2315Z" fill="#37474F"/>
<path d="M25.745 42.0271H23.5339V44.2382H25.745V42.0271Z" fill="#37474F"/>
<path d="M25.745 39.816H23.5339V42.0271H25.745V39.816Z" fill="#37474F"/>
<path d="M25.745 37.6115H23.5339V39.8226H25.745V37.6115Z" fill="#37474F"/>
<path d="M25.745 35.4005H23.5339V37.6116H25.745V35.4005Z" fill="#37474F"/>
<path d="M25.745 33.196H23.5339V35.4071H25.745V33.196Z" fill="#37474F"/>
<path d="M25.745 30.9849H23.5339V33.196H25.745V30.9849Z" fill="#29353B"/>
<path d="M25.745 28.7738H23.5339V30.9849H25.745V28.7738Z" fill="#263238"/>
<path d="M25.745 26.5693H23.5339V28.7804H25.745V26.5693Z" fill="#263238"/>
<path d="M25.745 24.3583H23.5339V26.5694H25.745V24.3583Z" fill="#FFA726"/>
<path d="M25.745 22.1538H23.5339V24.3649H25.745V22.1538Z" fill="#263238"/>
<path d="M25.745 19.9427H23.5339V22.1539H25.745V19.9427Z" fill="#263238"/>
<path d="M25.745 17.7316H23.5339V19.9427H25.745V17.7316Z" fill="#263238"/>
<path d="M25.745 15.5272H23.5339V17.7383H25.745V15.5272Z" fill="#263238"/>
<path d="M25.745 13.3161H23.5339V15.5272H25.745V13.3161Z" fill="#263238"/>
<path d="M23.5339 44.2315H21.3228V46.4426H23.5339V44.2315Z" fill="#FFAB91"/>
<path d="M23.5339 42.0271H21.3228V44.2382H23.5339V42.0271Z" fill="#FF8A65"/>
<path d="M23.5339 39.816H21.3228V42.0271H23.5339V39.816Z" fill="#FF8A65"/>
<path d="M23.5339 37.6115H21.3228V39.8226H23.5339V37.6115Z" fill="#FF8A65"/>
<path d="M23.5339 35.4005H21.3228V37.6116H23.5339V35.4005Z" fill="#FFAB91"/>
<path d="M23.5339 33.196H21.3228V35.4071H23.5339V33.196Z" fill="#37474F"/>
<path d="M23.5339 30.9849H21.3228V33.196H23.5339V30.9849Z" fill="#29353B"/>
<path d="M23.5339 28.7738H21.3228V30.9849H23.5339V28.7738Z" fill="#263238"/>
<path d="M23.5339 26.5693H21.3228V28.7804H23.5339V26.5693Z" fill="#263238"/>
<path d="M23.5339 24.3583H21.3228V26.5694H23.5339V24.3583Z" fill="#FFA726"/>
<path d="M23.5339 22.1538H21.3228V24.3649H23.5339V22.1538Z" fill="#263238"/>
<path d="M23.5339 19.9427H21.3228V22.1539H23.5339V19.9427Z" fill="#263238"/>
<path d="M23.5339 17.7316H21.3228V19.9427H23.5339V17.7316Z" fill="#263238"/>
<path d="M23.5339 15.5272H21.3228V17.7383H23.5339V15.5272Z" fill="#263238"/>
<path d="M21.3295 44.2315H19.1184V46.4426H21.3295V44.2315Z" fill="#FFAB91"/>
<path d="M21.3295 42.0271H19.1184V44.2382H21.3295V42.0271Z" fill="#FFAB91"/>
<path d="M21.3295 39.816H19.1184V42.0271H21.3295V39.816Z" fill="#FFAB91"/>
<path d="M21.3295 37.6115H19.1184V39.8226H21.3295V37.6115Z" fill="#FF8A65"/>
<path d="M21.3295 35.4005H19.1184V37.6116H21.3295V35.4005Z" fill="#FFAB91"/>
<path d="M21.3295 33.196H19.1184V35.4071H21.3295V33.196Z" fill="#37474F"/>
<path d="M21.3295 30.9849H19.1184V33.196H21.3295V30.9849Z" fill="#29353B"/>
<path d="M21.3295 28.7738H19.1184V30.9849H21.3295V28.7738Z" fill="#263238"/>
<path d="M21.3295 26.5693H19.1184V28.7804H21.3295V26.5693Z" fill="#263238"/>
<path d="M21.3295 24.3583H19.1184V26.5694H21.3295V24.3583Z" fill="#FFA726"/>
<path d="M21.3295 22.1538H19.1184V24.3649H21.3295V22.1538Z" fill="#263238"/>
<path d="M21.3295 19.9427H19.1184V22.1539H21.3295V19.9427Z" fill="#263238"/>
<path d="M21.3295 17.7316H19.1184V19.9427H21.3295V17.7316Z" fill="#263238"/>
<path d="M19.1183 42.0271H16.9072V44.2382H19.1183V42.0271Z" fill="#FFAB91"/>
<path d="M19.1183 39.816H16.9072V42.0271H19.1183V39.816Z" fill="#FFAB91"/>
<path d="M19.1183 37.6115H16.9072V39.8226H19.1183V37.6115Z" fill="#FFAB91"/>
<path d="M19.1183 28.7738H16.9072V30.9849H19.1183V28.7738Z" fill="#263238"/>
<path d="M19.1183 26.5693H16.9072V28.7804H19.1183V26.5693Z" fill="#263238"/>
<path d="M16.914 28.7738H14.7029V30.9849H16.914V28.7738Z" fill="#263238"/>
<path d="M16.914 26.5693H14.7029V28.7804H16.914V26.5693Z" fill="#263238"/>
<path d="M14.7028 28.7738H12.4917V30.9849H14.7028V28.7738Z" fill="#263238"/>
<path d="M14.7028 26.5693H12.4917V28.7804H14.7028V26.5693Z" fill="#263238"/>
<path d="M12.4983 28.7738H10.2872V30.9849H12.4983V28.7738Z" fill="#263238"/>
<path d="M12.4983 26.5693H10.2872V28.7804H12.4983V26.5693Z" fill="#263238"/>
<path d="M10.2873 28.7738H8.07617V30.9849H10.2873V28.7738Z" fill="#263238"/>
</svg>
