<svg width="78" height="81" viewBox="0 0 78 81" fill="none" xmlns="http://www.w3.org/2000/svg">
<rect y="0.682098" width="77.9899" height="80.161" rx="5.34406" fill="#F6623E"/>
<path d="M61.0827 44.0725H58.8716V46.2836H61.0827V44.0725Z" fill="#FFCCBC"/>
<path d="M61.0827 41.8614H58.8716V44.0725H61.0827V41.8614Z" fill="#FFCCBC"/>
<path d="M61.0827 39.657H58.8716V41.8681H61.0827V39.657Z" fill="#FFCCBC"/>
<path d="M58.8716 57.3258H56.6605V59.5369H58.8716V57.3258Z" fill="#FFE0B2"/>
<path d="M58.8716 55.1147H56.6605V57.3258H58.8716V55.1147Z" fill="#FFE0B2"/>
<path d="M58.8716 52.9102H56.6605V55.1214H58.8716V52.9102Z" fill="#FFCC80"/>
<path d="M58.8716 50.6991H56.6605V52.9102H58.8716V50.6991Z" fill="#FFCC80"/>
<path d="M58.8716 48.4881H56.6605V50.6992H58.8716V48.4881Z" fill="#FFCC80"/>
<path d="M58.8716 46.2836H56.6605V48.4947H58.8716V46.2836Z" fill="#FFCCBC"/>
<path d="M58.8716 44.0725H56.6605V46.2836H58.8716V44.0725Z" fill="#FFCCBC"/>
<path d="M58.8716 41.8614H56.6605V44.0725H58.8716V41.8614Z" fill="#FFCCBC"/>
<path d="M58.8716 39.657H56.6605V41.8681H58.8716V39.657Z" fill="#FFAB91"/>
<path d="M58.8716 37.4459H56.6605V39.657H58.8716V37.4459Z" fill="#FFCC80"/>
<path d="M58.8716 35.2415H56.6605V37.4526H58.8716V35.2415Z" fill="#FFE0B2"/>
<path d="M58.8716 33.0303H56.6605V35.2414H58.8716V33.0303Z" fill="#FFCC80"/>
<path d="M58.8716 30.8259H56.6605V33.037H58.8716V30.8259Z" fill="#FFE0B2"/>
<path d="M58.8716 28.6148H56.6605V30.8259H58.8716V28.6148Z" fill="#FFCC80"/>
<path d="M58.8716 26.4037H56.6605V28.6148H58.8716V26.4037Z" fill="#FFE0B2"/>
<path d="M58.8716 24.1993H56.6605V26.4104H58.8716V24.1993Z" fill="#FFCC80"/>
<path d="M56.6604 59.5302H54.4493V61.7413H56.6604V59.5302Z" fill="#FFE0B2"/>
<path d="M56.6604 57.3258H54.4493V59.5369H56.6604V57.3258Z" fill="#FFE0B2"/>
<path d="M56.6604 55.1147H54.4493V57.3258H56.6604V55.1147Z" fill="#FFCC80"/>
<path d="M56.6604 52.9102H54.4493V55.1214H56.6604V52.9102Z" fill="#FFE0B2"/>
<path d="M56.6604 50.6991H54.4493V52.9102H56.6604V50.6991Z" fill="#FFE0B2"/>
<path d="M56.6604 48.4881H54.4493V50.6992H56.6604V48.4881Z" fill="#FFE0B2"/>
<path d="M56.6604 46.2836H54.4493V48.4947H56.6604V46.2836Z" fill="white"/>
<path d="M56.6604 44.0725H54.4493V46.2836H56.6604V44.0725Z" fill="#FFAB91"/>
<path d="M56.6604 41.8614H54.4493V44.0725H56.6604V41.8614Z" fill="#FFAB91"/>
<path d="M56.6604 39.657H54.4493V41.8681H56.6604V39.657Z" fill="#FFAB91"/>
<path d="M56.6604 37.4459H54.4493V39.657H56.6604V37.4459Z" fill="#FFCC80"/>
<path d="M56.6604 35.2415H54.4493V37.4526H56.6604V35.2415Z" fill="#FFE0B2"/>
<path d="M56.6604 33.0303H54.4493V35.2414H56.6604V33.0303Z" fill="#FFCC80"/>
<path d="M56.6604 30.8259H54.4493V33.037H56.6604V30.8259Z" fill="#FFE0B2"/>
<path d="M56.6604 28.6148H54.4493V30.8259H56.6604V28.6148Z" fill="#FFCC80"/>
<path d="M56.6604 26.4037H54.4493V28.6148H56.6604V26.4037Z" fill="#FFE0B2"/>
<path d="M56.6604 24.1993H54.4493V26.4104H56.6604V24.1993Z" fill="#FFCC80"/>
<path d="M56.6604 21.9881H54.4493V24.1992H56.6604V21.9881Z" fill="#FFCC80"/>
<path d="M54.4561 61.7413H52.245V63.9524H54.4561V61.7413Z" fill="#FFE0B2"/>
<path d="M54.4561 59.5302H52.245V61.7413H54.4561V59.5302Z" fill="#FFE0B2"/>
<path d="M54.4561 57.3258H52.245V59.5369H54.4561V57.3258Z" fill="#FFCC80"/>
<path d="M54.4561 55.1147H52.245V57.3258H54.4561V55.1147Z" fill="#FFE0B2"/>
<path d="M54.4561 52.9102H52.245V55.1214H54.4561V52.9102Z" fill="#FFCCBC"/>
<path d="M54.4561 50.6991H52.245V52.9102H54.4561V50.6991Z" fill="#FFCCBC"/>
<path d="M54.4561 48.4881H52.245V50.6992H54.4561V48.4881Z" fill="#FFCCBC"/>
<path d="M54.4561 46.2836H52.245V48.4947H54.4561V46.2836Z" fill="#FFCCBC"/>
<path d="M54.4561 44.0725H52.245V46.2836H54.4561V44.0725Z" fill="#FFCCBC"/>
<path d="M54.4561 41.8614H52.245V44.0725H54.4561V41.8614Z" fill="#FFCCBC"/>
<path d="M54.4561 39.657H52.245V41.8681H54.4561V39.657Z" fill="#FFCCBC"/>
<path d="M54.4561 37.4459H52.245V39.657H54.4561V37.4459Z" fill="#FFCC80"/>
<path d="M54.4561 35.2415H52.245V37.4526H54.4561V35.2415Z" fill="#FFE0B2"/>
<path d="M54.4561 33.0303H52.245V35.2414H54.4561V33.0303Z" fill="#FFCC80"/>
<path d="M54.4561 30.8259H52.245V33.037H54.4561V30.8259Z" fill="#FFE0B2"/>
<path d="M54.4561 28.6148H52.245V30.8259H54.4561V28.6148Z" fill="#FFCC80"/>
<path d="M54.4561 26.4037H52.245V28.6148H54.4561V26.4037Z" fill="#FFE0B2"/>
<path d="M54.4561 24.1993H52.245V26.4104H54.4561V24.1993Z" fill="#FFCC80"/>
<path d="M54.4561 21.9881H52.245V24.1992H54.4561V21.9881Z" fill="#FFE0B2"/>
<path d="M54.4561 19.7838H52.245V21.9949H54.4561V19.7838Z" fill="#FFCC80"/>
<path d="M52.2449 61.7413H50.0338V63.9524H52.2449V61.7413Z" fill="#FFE0B2"/>
<path d="M52.2449 59.5302H50.0338V61.7413H52.2449V59.5302Z" fill="#FFCC80"/>
<path d="M52.2449 57.3258H50.0338V59.5369H52.2449V57.3258Z" fill="#FFE0B2"/>
<path d="M52.2449 55.1147H50.0338V57.3258H52.2449V55.1147Z" fill="#FFCCBC"/>
<path d="M52.2449 52.9102H50.0338V55.1214H52.2449V52.9102Z" fill="#FFCCBC"/>
<path d="M52.2449 50.6991H50.0338V52.9102H52.2449V50.6991Z" fill="#FFCCBC"/>
<path d="M52.2449 48.4881H50.0338V50.6992H52.2449V48.4881Z" fill="#FFCCBC"/>
<path d="M52.2449 46.2836H50.0338V48.4947H52.2449V46.2836Z" fill="#FFCCBC"/>
<path d="M52.2449 44.0725H50.0338V46.2836H52.2449V44.0725Z" fill="#FFCCBC"/>
<path d="M52.2449 41.8614H50.0338V44.0725H52.2449V41.8614Z" fill="#FFCCBC"/>
<path d="M52.2449 39.657H50.0338V41.8681H52.2449V39.657Z" fill="#263238"/>
<path d="M52.2449 37.4459H50.0338V39.657H52.2449V37.4459Z" fill="#FFCC80"/>
<path d="M52.2449 35.2415H50.0338V37.4526H52.2449V35.2415Z" fill="#FFE0B2"/>
<path d="M52.2449 33.0303H50.0338V35.2414H52.2449V33.0303Z" fill="#FFCC80"/>
<path d="M52.2449 30.8259H50.0338V33.037H52.2449V30.8259Z" fill="#FFE0B2"/>
<path d="M52.2449 28.6148H50.0338V30.8259H52.2449V28.6148Z" fill="#FFCC80"/>
<path d="M52.2449 26.4037H50.0338V28.6148H52.2449V26.4037Z" fill="#FFE0B2"/>
<path d="M52.2449 24.1993H50.0338V26.4104H52.2449V24.1993Z" fill="#FFCC80"/>
<path d="M52.2449 21.9881H50.0338V24.1992H52.2449V21.9881Z" fill="#FFE0B2"/>
<path d="M52.2449 19.7838H50.0338V21.9949H52.2449V19.7838Z" fill="#FFE0B2"/>
<path d="M52.2449 17.5726H50.0338V19.7837H52.2449V17.5726Z" fill="#FFCC80"/>
<path d="M50.0406 61.7413H47.8295V63.9524H50.0406V61.7413Z" fill="#FFCC80"/>
<path d="M50.0406 59.5302H47.8295V61.7413H50.0406V59.5302Z" fill="#FFE0B2"/>
<path d="M50.0406 57.3258H47.8295V59.5369H50.0406V57.3258Z" fill="#FFCCBC"/>
<path d="M50.0406 55.1147H47.8295V57.3258H50.0406V55.1147Z" fill="#FFCCBC"/>
<path d="M50.0406 52.9102H47.8295V55.1214H50.0406V52.9102Z" fill="#FFCCBC"/>
<path d="M50.0406 50.6991H47.8295V52.9102H50.0406V50.6991Z" fill="#FFCCBC"/>
<path d="M50.0406 48.4881H47.8295V50.6992H50.0406V48.4881Z" fill="#FFCCBC"/>
<path d="M50.0406 46.2836H47.8295V48.4947H50.0406V46.2836Z" fill="#FFCCBC"/>
<path d="M50.0406 44.0725H47.8295V46.2836H50.0406V44.0725Z" fill="white"/>
<path d="M50.0406 41.8614H47.8295V44.0725H50.0406V41.8614Z" fill="white"/>
<path d="M50.0406 39.657H47.8295V41.8681H50.0406V39.657Z" fill="white"/>
<path d="M50.0406 37.4459H47.8295V39.657H50.0406V37.4459Z" fill="#263238"/>
<path d="M50.0406 35.2415H47.8295V37.4526H50.0406V35.2415Z" fill="#FFCC80"/>
<path d="M50.0406 33.0303H47.8295V35.2414H50.0406V33.0303Z" fill="#FFE0B2"/>
<path d="M50.0406 30.8259H47.8295V33.037H50.0406V30.8259Z" fill="#FFCC80"/>
<path d="M50.0406 28.6148H47.8295V30.8259H50.0406V28.6148Z" fill="#FFE0B2"/>
<path d="M50.0406 26.4037H47.8295V28.6148H50.0406V26.4037Z" fill="#FFCC80"/>
<path d="M50.0406 24.1993H47.8295V26.4104H50.0406V24.1993Z" fill="#FFE0B2"/>
<path d="M50.0406 21.9881H47.8295V24.1992H50.0406V21.9881Z" fill="#FFCC80"/>
<path d="M50.0406 19.7838H47.8295V21.9949H50.0406V19.7838Z" fill="#FFE0B2"/>
<path d="M50.0406 17.5726H47.8295V19.7837H50.0406V17.5726Z" fill="#FFE0B2"/>
<path d="M50.0406 15.3615H47.8295V17.5727H50.0406V15.3615Z" fill="#FFCC80"/>
<path d="M47.8294 66.1568H45.6183V68.3679H47.8294V66.1568Z" fill="#FFCCBC"/>
<path d="M47.8294 61.7413H45.6183V63.9524H47.8294V61.7413Z" fill="#FFCC80"/>
<path d="M47.8294 59.5302H45.6183V61.7413H47.8294V59.5302Z" fill="#FFAB91"/>
<path d="M47.8294 57.3258H45.6183V59.5369H47.8294V57.3258Z" fill="#FFCCBC"/>
<path d="M47.8294 55.1147H45.6183V57.3258H47.8294V55.1147Z" fill="#FFCCBC"/>
<path d="M47.8294 52.9102H45.6183V55.1214H47.8294V52.9102Z" fill="#FFCCBC"/>
<path d="M47.8294 50.6991H45.6183V52.9102H47.8294V50.6991Z" fill="#FFCCBC"/>
<path d="M47.8294 48.4881H45.6183V50.6992H47.8294V48.4881Z" fill="#FFCCBC"/>
<path d="M47.8294 46.2836H45.6183V48.4947H47.8294V46.2836Z" fill="#FFCCBC"/>
<path d="M47.8294 44.0725H45.6183V46.2836H47.8294V44.0725Z" fill="white"/>
<path d="M47.8294 41.8614H45.6183V44.0725H47.8294V41.8614Z" fill="#2196F3"/>
<path d="M47.8294 39.657H45.6183V41.8681H47.8294V39.657Z" fill="#2196F3"/>
<path d="M47.8294 37.4459H45.6183V39.657H47.8294V37.4459Z" fill="#263238"/>
<path d="M47.8294 35.2415H45.6183V37.4526H47.8294V35.2415Z" fill="#FFAB91"/>
<path d="M47.8294 33.0303H45.6183V35.2414H47.8294V33.0303Z" fill="#FFCC80"/>
<path d="M47.8294 30.8259H45.6183V33.037H47.8294V30.8259Z" fill="#FFE0B2"/>
<path d="M47.8294 28.6148H45.6183V30.8259H47.8294V28.6148Z" fill="#FFCC80"/>
<path d="M47.8294 26.4037H45.6183V28.6148H47.8294V26.4037Z" fill="#FFE0B2"/>
<path d="M47.8294 24.1993H45.6183V26.4104H47.8294V24.1993Z" fill="#FFCC80"/>
<path d="M47.8294 21.9881H45.6183V24.1992H47.8294V21.9881Z" fill="#FFE0B2"/>
<path d="M47.8294 19.7838H45.6183V21.9949H47.8294V19.7838Z" fill="#FFCC80"/>
<path d="M47.8294 17.5726H45.6183V19.7837H47.8294V17.5726Z" fill="#FFE0B2"/>
<path d="M47.8294 15.3615H45.6183V17.5727H47.8294V15.3615Z" fill="#FFE0B2"/>
<path d="M47.8294 13.1571H45.6183V15.3682H47.8294V13.1571Z" fill="#FFCC80"/>
<path d="M45.6249 66.1568H43.4138V68.3679H45.6249V66.1568Z" fill="#FFCCBC"/>
<path d="M45.6249 63.9458H43.4138V66.1569H45.6249V63.9458Z" fill="#FFCCBC"/>
<path d="M45.6249 61.7413H43.4138V63.9524H45.6249V61.7413Z" fill="#FFCCBC"/>
<path d="M45.6249 59.5302H43.4138V61.7413H45.6249V59.5302Z" fill="#FFAB91"/>
<path d="M45.6249 57.3258H43.4138V59.5369H45.6249V57.3258Z" fill="#FFCCBC"/>
<path d="M45.6249 55.1147H43.4138V57.3258H45.6249V55.1147Z" fill="#FFCCBC"/>
<path d="M45.6249 52.9102H43.4138V55.1214H45.6249V52.9102Z" fill="#FFCCBC"/>
<path d="M45.6249 50.6991H43.4138V52.9102H45.6249V50.6991Z" fill="#D81B60"/>
<path d="M45.6249 48.4881H43.4138V50.6992H45.6249V48.4881Z" fill="#FFCCBC"/>
<path d="M45.6249 46.2836H43.4138V48.4947H45.6249V46.2836Z" fill="#FFCCBC"/>
<path d="M45.6249 44.0725H43.4138V46.2836H45.6249V44.0725Z" fill="white"/>
<path d="M45.6249 41.8614H43.4138V44.0725H45.6249V41.8614Z" fill="white"/>
<path d="M45.6249 39.657H43.4138V41.8681H45.6249V39.657Z" fill="white"/>
<path d="M45.6249 37.4459H43.4138V39.657H45.6249V37.4459Z" fill="#263238"/>
<path d="M45.6249 35.2415H43.4138V37.4526H45.6249V35.2415Z" fill="#FFCCBC"/>
<path d="M45.6249 33.0303H43.4138V35.2414H45.6249V33.0303Z" fill="#FFAB91"/>
<path d="M45.6249 30.8259H43.4138V33.037H45.6249V30.8259Z" fill="#FFCC80"/>
<path d="M45.6249 28.6148H43.4138V30.8259H45.6249V28.6148Z" fill="#FFE0B2"/>
<path d="M45.6249 26.4037H43.4138V28.6148H45.6249V26.4037Z" fill="#FFCC80"/>
<path d="M45.6249 24.1993H43.4138V26.4104H45.6249V24.1993Z" fill="#FFE0B2"/>
<path d="M45.6249 21.9881H43.4138V24.1992H45.6249V21.9881Z" fill="#FFCC80"/>
<path d="M45.6249 19.7838H43.4138V21.9949H45.6249V19.7838Z" fill="#FFE0B2"/>
<path d="M45.6249 17.5726H43.4138V19.7837H45.6249V17.5726Z" fill="#FFCC80"/>
<path d="M45.6249 15.3615H43.4138V17.5727H45.6249V15.3615Z" fill="#FFE0B2"/>
<path d="M45.6249 13.1571H43.4138V15.3682H45.6249V13.1571Z" fill="#FFE0B2"/>
<path d="M43.4139 66.1568H41.2028V68.3679H43.4139V66.1568Z" fill="#FFCCBC"/>
<path d="M43.4139 63.9458H41.2028V66.1569H43.4139V63.9458Z" fill="#FFCCBC"/>
<path d="M43.4139 61.7413H41.2028V63.9524H43.4139V61.7413Z" fill="#FFAB91"/>
<path d="M43.4139 59.5302H41.2028V61.7413H43.4139V59.5302Z" fill="#FFAB91"/>
<path d="M43.4139 57.3258H41.2028V59.5369H43.4139V57.3258Z" fill="#FFCCBC"/>
<path d="M43.4139 55.1147H41.2028V57.3258H43.4139V55.1147Z" fill="#FFCCBC"/>
<path d="M43.4139 52.9102H41.2028V55.1214H43.4139V52.9102Z" fill="#D81B60"/>
<path d="M43.4139 50.6991H41.2028V52.9102H43.4139V50.6991Z" fill="#FFCCBC"/>
<path d="M43.4139 48.4881H41.2028V50.6992H43.4139V48.4881Z" fill="#FF8A65"/>
<path d="M43.4139 46.2836H41.2028V48.4947H43.4139V46.2836Z" fill="#FFCCBC"/>
<path d="M43.4139 44.0725H41.2028V46.2836H43.4139V44.0725Z" fill="#FFCCBC"/>
<path d="M43.4139 41.8614H41.2028V44.0725H43.4139V41.8614Z" fill="#FFCCBC"/>
<path d="M43.4139 39.657H41.2028V41.8681H43.4139V39.657Z" fill="#FFCCBC"/>
<path d="M43.4139 37.4459H41.2028V39.657H43.4139V37.4459Z" fill="#FFCCBC"/>
<path d="M43.4139 35.2415H41.2028V37.4526H43.4139V35.2415Z" fill="#FFCCBC"/>
<path d="M43.4139 33.0303H41.2028V35.2414H43.4139V33.0303Z" fill="#FFCCBC"/>
<path d="M43.4139 30.8259H41.2028V33.037H43.4139V30.8259Z" fill="#FFAB91"/>
<path d="M43.4139 28.6148H41.2028V30.8259H43.4139V28.6148Z" fill="#FFCC80"/>
<path d="M43.4139 26.4037H41.2028V28.6148H43.4139V26.4037Z" fill="#FFE0B2"/>
<path d="M43.4139 24.1993H41.2028V26.4104H43.4139V24.1993Z" fill="#FFCC80"/>
<path d="M43.4139 21.9881H41.2028V24.1992H43.4139V21.9881Z" fill="#FFE0B2"/>
<path d="M43.4139 19.7838H41.2028V21.9949H43.4139V19.7838Z" fill="#FFCC80"/>
<path d="M43.4139 17.5726H41.2028V19.7837H43.4139V17.5726Z" fill="#FFE0B2"/>
<path d="M43.4139 15.3615H41.2028V17.5727H43.4139V15.3615Z" fill="#FFCC80"/>
<path d="M43.4139 13.1571H41.2028V15.3682H43.4139V13.1571Z" fill="#FFE0B2"/>
<path d="M41.2028 66.1568H38.9917V68.3679H41.2028V66.1568Z" fill="#FFCCBC"/>
<path d="M41.2028 63.9458H38.9917V66.1569H41.2028V63.9458Z" fill="#FFAB91"/>
<path d="M41.2028 61.7413H38.9917V63.9524H41.2028V61.7413Z" fill="#FFAB91"/>
<path d="M41.2028 59.5302H38.9917V61.7413H41.2028V59.5302Z" fill="#FFAB91"/>
<path d="M41.2028 57.3258H38.9917V59.5369H41.2028V57.3258Z" fill="#FFCCBC"/>
<path d="M41.2028 55.1147H38.9917V57.3258H41.2028V55.1147Z" fill="#FFAB91"/>
<path d="M41.2028 52.9102H38.9917V55.1214H41.2028V52.9102Z" fill="#D81B60"/>
<path d="M41.2028 50.6991H38.9917V52.9102H41.2028V50.6991Z" fill="#FFCCBC"/>
<path d="M41.2028 48.4881H38.9917V50.6992H41.2028V48.4881Z" fill="#FF8A65"/>
<path d="M41.2028 46.2836H38.9917V48.4947H41.2028V46.2836Z" fill="#FF8A65"/>
<path d="M41.2028 44.0725H38.9917V46.2836H41.2028V44.0725Z" fill="#FFCCBC"/>
<path d="M41.2028 41.8614H38.9917V44.0725H41.2028V41.8614Z" fill="#FFCCBC"/>
<path d="M41.2028 39.657H38.9917V41.8681H41.2028V39.657Z" fill="#FFCCBC"/>
<path d="M41.2028 37.4459H38.9917V39.657H41.2028V37.4459Z" fill="#FFCCBC"/>
<path d="M41.2028 35.2415H38.9917V37.4526H41.2028V35.2415Z" fill="#FFCCBC"/>
<path d="M41.2028 33.0303H38.9917V35.2414H41.2028V33.0303Z" fill="#FFCCBC"/>
<path d="M41.2028 30.8259H38.9917V33.037H41.2028V30.8259Z" fill="#FFCCBC"/>
<path d="M41.2028 28.6148H38.9917V30.8259H41.2028V28.6148Z" fill="#FFAB91"/>
<path d="M41.2028 26.4037H38.9917V28.6148H41.2028V26.4037Z" fill="#FFCC80"/>
<path d="M41.2028 24.1993H38.9917V26.4104H41.2028V24.1993Z" fill="#FFE0B2"/>
<path d="M41.2028 21.9881H38.9917V24.1992H41.2028V21.9881Z" fill="#FFCC80"/>
<path d="M41.2028 19.7838H38.9917V21.9949H41.2028V19.7838Z" fill="#FFE0B2"/>
<path d="M41.2028 17.5726H38.9917V19.7837H41.2028V17.5726Z" fill="#FFCC80"/>
<path d="M41.2028 15.3615H38.9917V17.5727H41.2028V15.3615Z" fill="#FFE0B2"/>
<path d="M41.2028 13.1571H38.9917V15.3682H41.2028V13.1571Z" fill="#FFCC80"/>
<path d="M38.9983 66.1568H36.7872V68.3679H38.9983V66.1568Z" fill="#FFCCBC"/>
<path d="M38.9983 63.9458H36.7872V66.1569H38.9983V63.9458Z" fill="#FFAB91"/>
<path d="M38.9983 61.7413H36.7872V63.9524H38.9983V61.7413Z" fill="#FFAB91"/>
<path d="M38.9983 59.5302H36.7872V61.7413H38.9983V59.5302Z" fill="#FFAB91"/>
<path d="M38.9983 57.3258H36.7872V59.5369H38.9983V57.3258Z" fill="#FFCCBC"/>
<path d="M38.9983 55.1147H36.7872V57.3258H38.9983V55.1147Z" fill="#FFAB91"/>
<path d="M38.9983 52.9102H36.7872V55.1214H38.9983V52.9102Z" fill="#D81B60"/>
<path d="M38.9983 50.6991H36.7872V52.9102H38.9983V50.6991Z" fill="#FFCCBC"/>
<path d="M38.9983 48.4881H36.7872V50.6992H38.9983V48.4881Z" fill="#FF8A65"/>
<path d="M38.9983 46.2836H36.7872V48.4947H38.9983V46.2836Z" fill="#FF8A65"/>
<path d="M38.9983 44.0725H36.7872V46.2836H38.9983V44.0725Z" fill="#FFCCBC"/>
<path d="M38.9983 41.8614H36.7872V44.0725H38.9983V41.8614Z" fill="#FFCCBC"/>
<path d="M38.9983 39.657H36.7872V41.8681H38.9983V39.657Z" fill="#FFCCBC"/>
<path d="M38.9983 37.4459H36.7872V39.657H38.9983V37.4459Z" fill="#FFCCBC"/>
<path d="M38.9983 35.2415H36.7872V37.4526H38.9983V35.2415Z" fill="#FFCCBC"/>
<path d="M38.9983 33.0303H36.7872V35.2414H38.9983V33.0303Z" fill="#FFCCBC"/>
<path d="M38.9983 30.8259H36.7872V33.037H38.9983V30.8259Z" fill="#FFCCBC"/>
<path d="M38.9983 28.6148H36.7872V30.8259H38.9983V28.6148Z" fill="#FFAB91"/>
<path d="M38.9983 26.4037H36.7872V28.6148H38.9983V26.4037Z" fill="#FFCC80"/>
<path d="M38.9983 24.1993H36.7872V26.4104H38.9983V24.1993Z" fill="#FFCC80"/>
<path d="M38.9983 21.9881H36.7872V24.1992H38.9983V21.9881Z" fill="#FFCC80"/>
<path d="M38.9983 19.7838H36.7872V21.9949H38.9983V19.7838Z" fill="#FFCC80"/>
<path d="M38.9983 17.5726H36.7872V19.7837H38.9983V17.5726Z" fill="#FFCC80"/>
<path d="M38.9983 15.3615H36.7872V17.5727H38.9983V15.3615Z" fill="#FFCC80"/>
<path d="M38.9983 13.1571H36.7872V15.3682H38.9983V13.1571Z" fill="#FFCC80"/>
<path d="M36.7872 66.1568H34.576V68.3679H36.7872V66.1568Z" fill="#FFCCBC"/>
<path d="M36.7872 63.9458H34.576V66.1569H36.7872V63.9458Z" fill="#FFCCBC"/>
<path d="M36.7872 61.7413H34.576V63.9524H36.7872V61.7413Z" fill="#FFAB91"/>
<path d="M36.7872 59.5302H34.576V61.7413H36.7872V59.5302Z" fill="#FFAB91"/>
<path d="M36.7872 57.3258H34.576V59.5369H36.7872V57.3258Z" fill="#FFCCBC"/>
<path d="M36.7872 55.1147H34.576V57.3258H36.7872V55.1147Z" fill="#FFCCBC"/>
<path d="M36.7872 52.9102H34.576V55.1214H36.7872V52.9102Z" fill="#D81B60"/>
<path d="M36.7872 50.6991H34.576V52.9102H36.7872V50.6991Z" fill="#FFCCBC"/>
<path d="M36.7872 48.4881H34.576V50.6992H36.7872V48.4881Z" fill="#FF8A65"/>
<path d="M36.7872 46.2836H34.576V48.4947H36.7872V46.2836Z" fill="#FFCCBC"/>
<path d="M36.7872 44.0725H34.576V46.2836H36.7872V44.0725Z" fill="#FFCCBC"/>
<path d="M36.7872 41.8614H34.576V44.0725H36.7872V41.8614Z" fill="#FFCCBC"/>
<path d="M36.7872 39.657H34.576V41.8681H36.7872V39.657Z" fill="#FFCCBC"/>
<path d="M36.7872 37.4459H34.576V39.657H36.7872V37.4459Z" fill="#FFCCBC"/>
<path d="M36.7872 35.2415H34.576V37.4526H36.7872V35.2415Z" fill="#FFCCBC"/>
<path d="M36.7872 33.0303H34.576V35.2414H36.7872V33.0303Z" fill="#FFCCBC"/>
<path d="M36.7872 30.8259H34.576V33.037H36.7872V30.8259Z" fill="#FFAB91"/>
<path d="M36.7872 28.6148H34.576V30.8259H36.7872V28.6148Z" fill="#FFE0B2"/>
<path d="M36.7872 26.4037H34.576V28.6148H36.7872V26.4037Z" fill="#FFE0B2"/>
<path d="M36.7872 24.1993H34.576V26.4104H36.7872V24.1993Z" fill="#FFCC80"/>
<path d="M36.7872 21.9881H34.576V24.1992H36.7872V21.9881Z" fill="#FFE0B2"/>
<path d="M36.7872 19.7838H34.576V21.9949H36.7872V19.7838Z" fill="#FFCC80"/>
<path d="M36.7872 17.5726H34.576V19.7837H36.7872V17.5726Z" fill="#FFE0B2"/>
<path d="M36.7872 15.3615H34.576V17.5727H36.7872V15.3615Z" fill="#FFCC80"/>
<path d="M36.7872 13.1571H34.576V15.3682H36.7872V13.1571Z" fill="#FFE0B2"/>
<path d="M34.5761 66.1568H32.365V68.3679H34.5761V66.1568Z" fill="#FFCCBC"/>
<path d="M34.5761 63.9458H32.365V66.1569H34.5761V63.9458Z" fill="#FFCCBC"/>
<path d="M34.5761 61.7413H32.365V63.9524H34.5761V61.7413Z" fill="#FFCCBC"/>
<path d="M34.5761 59.5302H32.365V61.7413H34.5761V59.5302Z" fill="#FFAB91"/>
<path d="M34.5761 57.3258H32.365V59.5369H34.5761V57.3258Z" fill="#FFCCBC"/>
<path d="M34.5761 55.1147H32.365V57.3258H34.5761V55.1147Z" fill="#FFCCBC"/>
<path d="M34.5761 52.9102H32.365V55.1214H34.5761V52.9102Z" fill="#FFCCBC"/>
<path d="M34.5761 50.6991H32.365V52.9102H34.5761V50.6991Z" fill="#D81B60"/>
<path d="M34.5761 48.4881H32.365V50.6992H34.5761V48.4881Z" fill="#FFCCBC"/>
<path d="M34.5761 46.2836H32.365V48.4947H34.5761V46.2836Z" fill="#FFCCBC"/>
<path d="M34.5761 44.0725H32.365V46.2836H34.5761V44.0725Z" fill="white"/>
<path d="M34.5761 41.8614H32.365V44.0725H34.5761V41.8614Z" fill="white"/>
<path d="M34.5761 39.657H32.365V41.8681H34.5761V39.657Z" fill="white"/>
<path d="M34.5761 37.4459H32.365V39.657H34.5761V37.4459Z" fill="#263238"/>
<path d="M34.5761 35.2415H32.365V37.4526H34.5761V35.2415Z" fill="#FFCCBC"/>
<path d="M34.5761 33.0303H32.365V35.2414H34.5761V33.0303Z" fill="#FFAB91"/>
<path d="M34.5761 30.8259H32.365V33.037H34.5761V30.8259Z" fill="#FFE0B2"/>
<path d="M34.5761 28.6148H32.365V30.8259H34.5761V28.6148Z" fill="#FFE0B2"/>
<path d="M34.5761 26.4037H32.365V28.6148H34.5761V26.4037Z" fill="#FFCC80"/>
<path d="M34.5761 24.1993H32.365V26.4104H34.5761V24.1993Z" fill="#FFE0B2"/>
<path d="M34.5761 21.9881H32.365V24.1992H34.5761V21.9881Z" fill="#FFCC80"/>
<path d="M34.5761 19.7838H32.365V21.9949H34.5761V19.7838Z" fill="#FFE0B2"/>
<path d="M34.5761 17.5726H32.365V19.7837H34.5761V17.5726Z" fill="#FFCC80"/>
<path d="M34.5761 15.3615H32.365V17.5727H34.5761V15.3615Z" fill="#FFE0B2"/>
<path d="M34.5761 13.1571H32.365V15.3682H34.5761V13.1571Z" fill="#FFCC80"/>
<path d="M32.3716 66.1568H30.1605V68.3679H32.3716V66.1568Z" fill="#FFCCBC"/>
<path d="M32.3716 61.7413H30.1605V63.9524H32.3716V61.7413Z" fill="#FFCC80"/>
<path d="M32.3716 59.5302H30.1605V61.7413H32.3716V59.5302Z" fill="#FFAB91"/>
<path d="M32.3716 57.3258H30.1605V59.5369H32.3716V57.3258Z" fill="#FFCCBC"/>
<path d="M32.3716 55.1147H30.1605V57.3258H32.3716V55.1147Z" fill="#FFCCBC"/>
<path d="M32.3716 52.9102H30.1605V55.1214H32.3716V52.9102Z" fill="#FFCCBC"/>
<path d="M32.3716 50.6991H30.1605V52.9102H32.3716V50.6991Z" fill="#FFCCBC"/>
<path d="M32.3716 48.4881H30.1605V50.6992H32.3716V48.4881Z" fill="#FFCCBC"/>
<path d="M32.3716 46.2836H30.1605V48.4947H32.3716V46.2836Z" fill="#FFCCBC"/>
<path d="M32.3716 44.0725H30.1605V46.2836H32.3716V44.0725Z" fill="white"/>
<path d="M32.3716 41.8614H30.1605V44.0725H32.3716V41.8614Z" fill="#2196F3"/>
<path d="M32.3716 39.657H30.1605V41.8681H32.3716V39.657Z" fill="#2196F3"/>
<path d="M32.3716 37.4459H30.1605V39.657H32.3716V37.4459Z" fill="#263238"/>
<path d="M32.3716 35.2415H30.1605V37.4526H32.3716V35.2415Z" fill="#FFAB91"/>
<path d="M32.3716 33.0303H30.1605V35.2414H32.3716V33.0303Z" fill="#FFE0B2"/>
<path d="M32.3716 30.8259H30.1605V33.037H32.3716V30.8259Z" fill="#FFE0B2"/>
<path d="M32.3716 28.6148H30.1605V30.8259H32.3716V28.6148Z" fill="#FFCC80"/>
<path d="M32.3716 26.4037H30.1605V28.6148H32.3716V26.4037Z" fill="#FFE0B2"/>
<path d="M32.3716 24.1993H30.1605V26.4104H32.3716V24.1993Z" fill="#FFCC80"/>
<path d="M32.3716 21.9881H30.1605V24.1992H32.3716V21.9881Z" fill="#FFE0B2"/>
<path d="M32.3716 19.7838H30.1605V21.9949H32.3716V19.7838Z" fill="#FFCC80"/>
<path d="M32.3716 17.5726H30.1605V19.7837H32.3716V17.5726Z" fill="#FFE0B2"/>
<path d="M32.3716 15.3615H30.1605V17.5727H32.3716V15.3615Z" fill="#FFCC80"/>
<path d="M32.3716 13.1571H30.1605V15.3682H32.3716V13.1571Z" fill="#FFE0B2"/>
<path d="M30.1606 61.7413H27.9495V63.9524H30.1606V61.7413Z" fill="#FFCC80"/>
<path d="M30.1606 59.5302H27.9495V61.7413H30.1606V59.5302Z" fill="#FFE0B2"/>
<path d="M30.1606 57.3258H27.9495V59.5369H30.1606V57.3258Z" fill="#FFCCBC"/>
<path d="M30.1606 55.1147H27.9495V57.3258H30.1606V55.1147Z" fill="#FFCCBC"/>
<path d="M30.1606 52.9102H27.9495V55.1214H30.1606V52.9102Z" fill="#FFCCBC"/>
<path d="M30.1606 50.6991H27.9495V52.9102H30.1606V50.6991Z" fill="#FFCCBC"/>
<path d="M30.1606 48.4881H27.9495V50.6992H30.1606V48.4881Z" fill="#FFCCBC"/>
<path d="M30.1606 46.2836H27.9495V48.4947H30.1606V46.2836Z" fill="#FFCCBC"/>
<path d="M30.1606 44.0725H27.9495V46.2836H30.1606V44.0725Z" fill="white"/>
<path d="M30.1606 41.8614H27.9495V44.0725H30.1606V41.8614Z" fill="white"/>
<path d="M30.1606 39.657H27.9495V41.8681H30.1606V39.657Z" fill="white"/>
<path d="M30.1606 37.4459H27.9495V39.657H30.1606V37.4459Z" fill="#263238"/>
<path d="M30.1606 35.2415H27.9495V37.4526H30.1606V35.2415Z" fill="#FFE0B2"/>
<path d="M30.1606 33.0303H27.9495V35.2414H30.1606V33.0303Z" fill="#FFE0B2"/>
<path d="M30.1606 30.8259H27.9495V33.037H30.1606V30.8259Z" fill="#FFCC80"/>
<path d="M30.1606 28.6148H27.9495V30.8259H30.1606V28.6148Z" fill="#FFE0B2"/>
<path d="M30.1606 26.4037H27.9495V28.6148H30.1606V26.4037Z" fill="#FFCC80"/>
<path d="M30.1606 24.1993H27.9495V26.4104H30.1606V24.1993Z" fill="#FFE0B2"/>
<path d="M30.1606 21.9881H27.9495V24.1992H30.1606V21.9881Z" fill="#FFCC80"/>
<path d="M30.1606 19.7838H27.9495V21.9949H30.1606V19.7838Z" fill="#FFE0B2"/>
<path d="M30.1606 17.5726H27.9495V19.7837H30.1606V17.5726Z" fill="#FFCC80"/>
<path d="M30.1606 15.3615H27.9495V17.5727H30.1606V15.3615Z" fill="#FFE0B2"/>
<path d="M27.9562 61.7413H25.7451V63.9524H27.9562V61.7413Z" fill="#FFCC80"/>
<path d="M27.9562 59.5302H25.7451V61.7413H27.9562V59.5302Z" fill="#FFE0B2"/>
<path d="M27.9562 57.3258H25.7451V59.5369H27.9562V57.3258Z" fill="#FFE0B2"/>
<path d="M27.9562 55.1147H25.7451V57.3258H27.9562V55.1147Z" fill="#FFCCBC"/>
<path d="M27.9562 52.9102H25.7451V55.1214H27.9562V52.9102Z" fill="#FFCCBC"/>
<path d="M27.9562 50.6991H25.7451V52.9102H27.9562V50.6991Z" fill="#FFCCBC"/>
<path d="M27.9562 48.4881H25.7451V50.6992H27.9562V48.4881Z" fill="#FFCCBC"/>
<path d="M27.9562 46.2836H25.7451V48.4947H27.9562V46.2836Z" fill="#FFCCBC"/>
<path d="M27.9562 44.0725H25.7451V46.2836H27.9562V44.0725Z" fill="#FFCCBC"/>
<path d="M27.9562 41.8614H25.7451V44.0725H27.9562V41.8614Z" fill="#FFCCBC"/>
<path d="M27.9562 39.657H25.7451V41.8681H27.9562V39.657Z" fill="#263238"/>
<path d="M27.9562 37.4459H25.7451V39.657H27.9562V37.4459Z" fill="#FFE0B2"/>
<path d="M27.9562 35.2415H25.7451V37.4526H27.9562V35.2415Z" fill="#FFE0B2"/>
<path d="M27.9562 33.0303H25.7451V35.2414H27.9562V33.0303Z" fill="#FFCC80"/>
<path d="M27.9562 30.8259H25.7451V33.037H27.9562V30.8259Z" fill="#FFE0B2"/>
<path d="M27.9562 28.6148H25.7451V30.8259H27.9562V28.6148Z" fill="#FFCC80"/>
<path d="M27.9562 26.4037H25.7451V28.6148H27.9562V26.4037Z" fill="#FFE0B2"/>
<path d="M27.9562 24.1993H25.7451V26.4104H27.9562V24.1993Z" fill="#FFCC80"/>
<path d="M27.9562 21.9881H25.7451V24.1992H27.9562V21.9881Z" fill="#FFE0B2"/>
<path d="M27.9562 19.7838H25.7451V21.9949H27.9562V19.7838Z" fill="#FFCC80"/>
<path d="M27.9562 17.5726H25.7451V19.7837H27.9562V17.5726Z" fill="#FFE0B2"/>
<path d="M25.745 61.7413H23.5339V63.9524H25.745V61.7413Z" fill="#FFE0B2"/>
<path d="M25.745 59.5302H23.5339V61.7413H25.745V59.5302Z" fill="#FFCC80"/>
<path d="M25.745 57.3258H23.5339V59.5369H25.745V57.3258Z" fill="#FFE0B2"/>
<path d="M25.745 55.1147H23.5339V57.3258H25.745V55.1147Z" fill="#FFE0B2"/>
<path d="M25.745 52.9102H23.5339V55.1214H25.745V52.9102Z" fill="#FFCCBC"/>
<path d="M25.745 50.6991H23.5339V52.9102H25.745V50.6991Z" fill="#FFCCBC"/>
<path d="M25.745 48.4881H23.5339V50.6992H25.745V48.4881Z" fill="#FFCCBC"/>
<path d="M25.745 46.2836H23.5339V48.4947H25.745V46.2836Z" fill="#FFCCBC"/>
<path d="M25.745 44.0725H23.5339V46.2836H25.745V44.0725Z" fill="#FFCCBC"/>
<path d="M25.745 41.8614H23.5339V44.0725H25.745V41.8614Z" fill="#FFCCBC"/>
<path d="M25.745 39.657H23.5339V41.8681H25.745V39.657Z" fill="#FFAB91"/>
<path d="M25.745 37.4459H23.5339V39.657H25.745V37.4459Z" fill="#FFE0B2"/>
<path d="M25.745 35.2415H23.5339V37.4526H25.745V35.2415Z" fill="#FFCC80"/>
<path d="M25.745 33.0303H23.5339V35.2414H25.745V33.0303Z" fill="#FFE0B2"/>
<path d="M25.745 30.8259H23.5339V33.037H25.745V30.8259Z" fill="#FFCC80"/>
<path d="M25.745 28.6148H23.5339V30.8259H25.745V28.6148Z" fill="#FFE0B2"/>
<path d="M25.745 26.4037H23.5339V28.6148H25.745V26.4037Z" fill="#FFCC80"/>
<path d="M25.745 24.1993H23.5339V26.4104H25.745V24.1993Z" fill="#FFE0B2"/>
<path d="M25.745 21.9881H23.5339V24.1992H25.745V21.9881Z" fill="#FFCC80"/>
<path d="M25.745 19.7838H23.5339V21.9949H25.745V19.7838Z" fill="#FFE0B2"/>
<path d="M23.5407 59.5302H21.3296V61.7413H23.5407V59.5302Z" fill="#FFE0B2"/>
<path d="M23.5407 57.3258H21.3296V59.5369H23.5407V57.3258Z" fill="#FFCC80"/>
<path d="M23.5407 55.1147H21.3296V57.3258H23.5407V55.1147Z" fill="#FFCC80"/>
<path d="M23.5407 52.9102H21.3296V55.1214H23.5407V52.9102Z" fill="#FFCC80"/>
<path d="M23.5407 50.6991H21.3296V52.9102H23.5407V50.6991Z" fill="#FFCC80"/>
<path d="M23.5407 48.4881H21.3296V50.6992H23.5407V48.4881Z" fill="#FFCC80"/>
<path d="M23.5407 46.2836H21.3296V48.4947H23.5407V46.2836Z" fill="white"/>
<path d="M23.5407 44.0725H21.3296V46.2836H23.5407V44.0725Z" fill="#FFAB91"/>
<path d="M23.5407 41.8614H21.3296V44.0725H23.5407V41.8614Z" fill="#FFAB91"/>
<path d="M23.5407 39.657H21.3296V41.8681H23.5407V39.657Z" fill="#FFAB91"/>
<path d="M23.5407 37.4459H21.3296V39.657H23.5407V37.4459Z" fill="#FFCC80"/>
<path d="M23.5407 35.2415H21.3296V37.4526H23.5407V35.2415Z" fill="#FFE0B2"/>
<path d="M23.5407 33.0303H21.3296V35.2414H23.5407V33.0303Z" fill="#FFCC80"/>
<path d="M23.5407 30.8259H21.3296V33.037H23.5407V30.8259Z" fill="#FFE0B2"/>
<path d="M23.5407 28.6148H21.3296V30.8259H23.5407V28.6148Z" fill="#FFCC80"/>
<path d="M23.5407 26.4037H21.3296V28.6148H23.5407V26.4037Z" fill="#FFE0B2"/>
<path d="M23.5407 24.1993H21.3296V26.4104H23.5407V24.1993Z" fill="#FFCC80"/>
<path d="M23.5407 21.9881H21.3296V24.1992H23.5407V21.9881Z" fill="#FFE0B2"/>
<path d="M21.3295 57.3258H19.1184V59.5369H21.3295V57.3258Z" fill="#FFE0B2"/>
<path d="M21.3295 55.1147H19.1184V57.3258H21.3295V55.1147Z" fill="#FFE0B2"/>
<path d="M21.3295 52.9102H19.1184V55.1214H21.3295V52.9102Z" fill="#FFE0B2"/>
<path d="M21.3295 50.6991H19.1184V52.9102H21.3295V50.6991Z" fill="#FFE0B2"/>
<path d="M21.3295 48.4881H19.1184V50.6992H21.3295V48.4881Z" fill="#FFE0B2"/>
<path d="M21.3295 46.2836H19.1184V48.4947H21.3295V46.2836Z" fill="#FFCCBC"/>
<path d="M21.3295 44.0725H19.1184V46.2836H21.3295V44.0725Z" fill="#FFCCBC"/>
<path d="M21.3295 41.8614H19.1184V44.0725H21.3295V41.8614Z" fill="#FFCCBC"/>
<path d="M21.3295 39.657H19.1184V41.8681H21.3295V39.657Z" fill="#FFAB91"/>
<path d="M21.3295 37.4459H19.1184V39.657H21.3295V37.4459Z" fill="#FFCC80"/>
<path d="M21.3295 35.2415H19.1184V37.4526H21.3295V35.2415Z" fill="#FFE0B2"/>
<path d="M21.3295 33.0303H19.1184V35.2414H21.3295V33.0303Z" fill="#FFCC80"/>
<path d="M21.3295 30.8259H19.1184V33.037H21.3295V30.8259Z" fill="#FFE0B2"/>
<path d="M21.3295 28.6148H19.1184V30.8259H21.3295V28.6148Z" fill="#FFCC80"/>
<path d="M21.3295 26.4037H19.1184V28.6148H21.3295V26.4037Z" fill="#FFE0B2"/>
<path d="M21.3295 24.1993H19.1184V26.4104H21.3295V24.1993Z" fill="#FFCC80"/>
<path d="M19.1185 44.0725H16.9073V46.2836H19.1185V44.0725Z" fill="#FFCCBC"/>
<path d="M19.1185 41.8614H16.9073V44.0725H19.1185V41.8614Z" fill="#FFCCBC"/>
<path d="M19.1185 39.657H16.9073V41.8681H19.1185V39.657Z" fill="#FFCCBC"/>
</svg>
