<svg width="79" height="82" viewBox="0 0 79 82" fill="none" xmlns="http://www.w3.org/2000/svg">
<rect x="0.670044" y="0.84103" width="77.9899" height="80.161" rx="5.34406" fill="#3948D9"/>
<path d="M61.7493 49.7592H59.5382V51.9703H61.7493V49.7592Z" fill="#FFF3E0"/>
<path d="M61.7493 47.5481H59.5382V49.7592H61.7493V47.5481Z" fill="#FFF3E0"/>
<path d="M61.7493 45.337H59.5382V47.5481H61.7493V45.337Z" fill="#FFF3E0"/>
<path d="M61.7493 7.79498H59.5382V10.0061H61.7493V7.79498Z" fill="#E53935"/>
<path d="M59.5381 51.9637H57.327V54.1748H59.5381V51.9637Z" fill="#FFF3E0"/>
<path d="M59.5381 49.7592H57.327V51.9703H59.5381V49.7592Z" fill="#FFF3E0"/>
<path d="M59.5381 47.5481H57.327V49.7592H59.5381V47.5481Z" fill="#FFF3E0"/>
<path d="M59.5381 45.337H57.327V47.5481H59.5381V45.337Z" fill="#BFB6A8"/>
<path d="M59.5381 43.1259H57.327V45.337H59.5381V43.1259Z" fill="#FFF3E0"/>
<path d="M59.5381 10.006H57.327V12.2171H59.5381V10.006Z" fill="#E53935"/>
<path d="M57.3338 51.9637H55.1227V54.1748H57.3338V51.9637Z" fill="#FFF3E0"/>
<path d="M57.3338 49.7592H55.1227V51.9703H57.3338V49.7592Z" fill="#BFB6A8"/>
<path d="M57.3338 47.5481H55.1227V49.7592H57.3338V47.5481Z" fill="#BFB6A8"/>
<path d="M57.3338 45.337H55.1227V47.5481H57.3338V45.337Z" fill="#BFB6A8"/>
<path d="M57.3338 43.1259H55.1227V45.337H57.3338V43.1259Z" fill="#FFF3E0"/>
<path d="M57.3338 40.9215H55.1227V43.1326H57.3338V40.9215Z" fill="#AC2B28"/>
<path d="M57.3338 38.7104H55.1227V40.9215H57.3338V38.7104Z" fill="#AC2B28"/>
<path d="M57.3338 36.506H55.1227V38.7171H57.3338V36.506Z" fill="#AC2B28"/>
<path d="M57.3338 34.2949H55.1227V36.506H57.3338V34.2949Z" fill="#E53935"/>
<path d="M57.3338 32.0904H55.1227V34.3015H57.3338V32.0904Z" fill="#E53935"/>
<path d="M57.3338 29.8793H55.1227V32.0904H57.3338V29.8793Z" fill="#EA615D"/>
<path d="M57.3338 27.6749H55.1227V29.886H57.3338V27.6749Z" fill="#E53935"/>
<path d="M57.3338 12.2105H55.1227V14.4216H57.3338V12.2105Z" fill="#E53935"/>
<path d="M57.3338 10.006H55.1227V12.2171H57.3338V10.006Z" fill="#E53935"/>
<path d="M55.1227 58.5903H52.9116V60.8014H55.1227V58.5903Z" fill="#FFF3E0"/>
<path d="M55.1227 56.3792H52.9116V58.5903H55.1227V56.3792Z" fill="#FFF3E0"/>
<path d="M55.1227 54.1748H52.9116V56.3859H55.1227V54.1748Z" fill="#FFF3E0"/>
<path d="M55.1227 51.9637H52.9116V54.1748H55.1227V51.9637Z" fill="#FFF3E0"/>
<path d="M55.1227 49.7592H52.9116V51.9703H55.1227V49.7592Z" fill="#FFF3E0"/>
<path d="M55.1227 47.5481H52.9116V49.7592H55.1227V47.5481Z" fill="#FFF3E0"/>
<path d="M55.1227 45.337H52.9116V47.5481H55.1227V45.337Z" fill="#FFF3E0"/>
<path d="M55.1227 43.1259H52.9116V45.337H55.1227V43.1259Z" fill="#BFB6A8"/>
<path d="M55.1227 40.9215H52.9116V43.1326H55.1227V40.9215Z" fill="#E53935"/>
<path d="M55.1227 38.7104H52.9116V40.9215H55.1227V38.7104Z" fill="#E53935"/>
<path d="M55.1227 36.506H52.9116V38.7171H55.1227V36.506Z" fill="#E53935"/>
<path d="M55.1227 34.2949H52.9116V36.506H55.1227V34.2949Z" fill="#AC2B28"/>
<path d="M55.1227 32.0904H52.9116V34.3015H55.1227V32.0904Z" fill="#EA615D"/>
<path d="M55.1227 29.8793H52.9116V32.0904H55.1227V29.8793Z" fill="#E53935"/>
<path d="M55.1227 27.6749H52.9116V29.886H55.1227V27.6749Z" fill="#E53935"/>
<path d="M55.1227 25.4638H52.9116V27.6749H55.1227V25.4638Z" fill="#E53935"/>
<path d="M55.1227 16.626H52.9116V18.8371H55.1227V16.626Z" fill="#E53935"/>
<path d="M55.1227 14.4216H52.9116V16.6328H55.1227V14.4216Z" fill="#EA615D"/>
<path d="M55.1227 12.2105H52.9116V14.4216H55.1227V12.2105Z" fill="#E53935"/>
<path d="M52.9183 60.7947H50.7072V63.0058H52.9183V60.7947Z" fill="#FFF3E0"/>
<path d="M52.9183 58.5903H50.7072V60.8014H52.9183V58.5903Z" fill="#FFF3E0"/>
<path d="M52.9183 56.3792H50.7072V58.5903H52.9183V56.3792Z" fill="#FFCCBC"/>
<path d="M52.9183 54.1748H50.7072V56.3859H52.9183V54.1748Z" fill="#FFF3E0"/>
<path d="M52.9183 51.9637H50.7072V54.1748H52.9183V51.9637Z" fill="#FFCCBC"/>
<path d="M52.9183 49.7592H50.7072V51.9703H52.9183V49.7592Z" fill="#FFF3E0"/>
<path d="M52.9183 47.5481H50.7072V49.7592H52.9183V47.5481Z" fill="#FFF3E0"/>
<path d="M52.9183 45.337H50.7072V47.5481H52.9183V45.337Z" fill="#263238"/>
<path d="M52.9183 43.1259H50.7072V45.337H52.9183V43.1259Z" fill="#BFB6A8"/>
<path d="M52.9183 40.9215H50.7072V43.1326H52.9183V40.9215Z" fill="#E53935"/>
<path d="M52.9183 38.7104H50.7072V40.9215H52.9183V38.7104Z" fill="#E53935"/>
<path d="M52.9183 36.506H50.7072V38.7171H52.9183V36.506Z" fill="#E53935"/>
<path d="M52.9183 34.2949H50.7072V36.506H52.9183V34.2949Z" fill="#E53935"/>
<path d="M52.9183 32.0904H50.7072V34.3015H52.9183V32.0904Z" fill="#AC2B28"/>
<path d="M52.9183 29.8793H50.7072V32.0904H52.9183V29.8793Z" fill="#E53935"/>
<path d="M52.9183 27.6749H50.7072V29.886H52.9183V27.6749Z" fill="#E53935"/>
<path d="M52.9183 25.4638H50.7072V27.6749H52.9183V25.4638Z" fill="#EA615D"/>
<path d="M52.9183 23.2527H50.7072V25.4638H52.9183V23.2527Z" fill="#E53935"/>
<path d="M52.9183 18.8372H50.7072V21.0483H52.9183V18.8372Z" fill="#E53935"/>
<path d="M52.9183 16.626H50.7072V18.8371H52.9183V16.626Z" fill="#EA615D"/>
<path d="M52.9183 14.4216H50.7072V16.6328H52.9183V14.4216Z" fill="#E53935"/>
<path d="M50.7072 63.0059H48.4961V65.217H50.7072V63.0059Z" fill="#FFF3E0"/>
<path d="M50.7072 60.7947H48.4961V63.0058H50.7072V60.7947Z" fill="#FFF3E0"/>
<path d="M50.7072 58.5903H48.4961V60.8014H50.7072V58.5903Z" fill="#FFF3E0"/>
<path d="M50.7072 56.3792H48.4961V58.5903H50.7072V56.3792Z" fill="#FFF3E0"/>
<path d="M50.7072 54.1748H48.4961V56.3859H50.7072V54.1748Z" fill="#FFCCBC"/>
<path d="M50.7072 51.9637H48.4961V54.1748H50.7072V51.9637Z" fill="#FFF3E0"/>
<path d="M50.7072 49.7592H48.4961V51.9703H50.7072V49.7592Z" fill="white"/>
<path d="M50.7072 47.5481H48.4961V49.7592H50.7072V47.5481Z" fill="white"/>
<path d="M50.7072 45.337H48.4961V47.5481H50.7072V45.337Z" fill="white"/>
<path d="M50.7072 43.1259H48.4961V45.337H50.7072V43.1259Z" fill="#263238"/>
<path d="M50.7072 40.9215H48.4961V43.1326H50.7072V40.9215Z" fill="#EA615D"/>
<path d="M50.7072 38.7104H48.4961V40.9215H50.7072V38.7104Z" fill="#EA615D"/>
<path d="M50.7072 36.506H48.4961V38.7171H50.7072V36.506Z" fill="#EA615D"/>
<path d="M50.7072 34.2949H48.4961V36.506H50.7072V34.2949Z" fill="#E53935"/>
<path d="M50.7072 32.0904H48.4961V34.3015H50.7072V32.0904Z" fill="#E53935"/>
<path d="M50.7072 29.8793H48.4961V32.0904H50.7072V29.8793Z" fill="#AC2B28"/>
<path d="M50.7072 27.6749H48.4961V29.886H50.7072V27.6749Z" fill="#EA615D"/>
<path d="M50.7072 25.4638H48.4961V27.6749H50.7072V25.4638Z" fill="#E53935"/>
<path d="M50.7072 23.2527H48.4961V25.4638H50.7072V23.2527Z" fill="#E53935"/>
<path d="M50.7072 21.0482H48.4961V23.2593H50.7072V21.0482Z" fill="#E53935"/>
<path d="M50.7072 16.626H48.4961V18.8371H50.7072V16.626Z" fill="#E53935"/>
<path d="M50.7072 14.4216H48.4961V16.6328H50.7072V14.4216Z" fill="#E53935"/>
<path d="M50.7072 12.2105H48.4961V14.4216H50.7072V12.2105Z" fill="#E53935"/>
<path d="M48.496 71.8369H46.2849V74.048H48.496V71.8369Z" fill="#FFF3E0"/>
<path d="M48.496 63.0059H46.2849V65.217H48.496V63.0059Z" fill="#FFF3E0"/>
<path d="M48.496 60.7947H46.2849V63.0058H48.496V60.7947Z" fill="#FFF3E0"/>
<path d="M48.496 58.5903H46.2849V60.8014H48.496V58.5903Z" fill="#FFF3E0"/>
<path d="M48.496 56.3792H46.2849V58.5903H48.496V56.3792Z" fill="#FFCCBC"/>
<path d="M48.496 54.1748H46.2849V56.3859H48.496V54.1748Z" fill="#FFF3E0"/>
<path d="M48.496 51.9637H46.2849V54.1748H48.496V51.9637Z" fill="#FFCCBC"/>
<path d="M48.496 49.7592H46.2849V51.9703H48.496V49.7592Z" fill="white"/>
<path d="M48.496 47.5481H46.2849V49.7592H48.496V47.5481Z" fill="#26A69A"/>
<path d="M48.496 45.337H46.2849V47.5481H48.496V45.337Z" fill="#26A69A"/>
<path d="M48.496 43.1259H46.2849V45.337H48.496V43.1259Z" fill="#263238"/>
<path d="M48.496 40.9215H46.2849V43.1326H48.496V40.9215Z" fill="#E53935"/>
<path d="M48.496 38.7104H46.2849V40.9215H48.496V38.7104Z" fill="#E53935"/>
<path d="M48.496 36.506H46.2849V38.7171H48.496V36.506Z" fill="#E53935"/>
<path d="M48.496 34.2949H46.2849V36.506H48.496V34.2949Z" fill="#EA615D"/>
<path d="M48.496 32.0904H46.2849V34.3015H48.496V32.0904Z" fill="#E53935"/>
<path d="M48.496 29.8793H46.2849V32.0904H48.496V29.8793Z" fill="#E53935"/>
<path d="M48.496 27.6749H46.2849V29.886H48.496V27.6749Z" fill="#AC2B28"/>
<path d="M48.496 25.4638H46.2849V27.6749H48.496V25.4638Z" fill="#E53935"/>
<path d="M48.496 23.2527H46.2849V25.4638H48.496V23.2527Z" fill="#E53935"/>
<path d="M48.496 21.0482H46.2849V23.2593H48.496V21.0482Z" fill="#E53935"/>
<path d="M48.496 18.8372H46.2849V21.0483H48.496V18.8372Z" fill="#E53935"/>
<path d="M48.496 14.4216H46.2849V16.6328H48.496V14.4216Z" fill="#E53935"/>
<path d="M48.496 12.2105H46.2849V14.4216H48.496V12.2105Z" fill="#E53935"/>
<path d="M48.496 10.006H46.2849V12.2171H48.496V10.006Z" fill="#E53935"/>
<path d="M46.2917 71.8369H44.0806V74.048H46.2917V71.8369Z" fill="#FFF3E0"/>
<path d="M46.2917 69.6324H44.0806V71.8436H46.2917V69.6324Z" fill="#FFF3E0"/>
<path d="M46.2917 67.4214H44.0806V69.6325H46.2917V67.4214Z" fill="#FFF3E0"/>
<path d="M46.2917 65.2102H44.0806V67.4213H46.2917V65.2102Z" fill="#BFB6A8"/>
<path d="M46.2917 63.0059H44.0806V65.217H46.2917V63.0059Z" fill="#FFF3E0"/>
<path d="M46.2917 60.7947H44.0806V63.0058H46.2917V60.7947Z" fill="#FFF3E0"/>
<path d="M46.2917 58.5903H44.0806V60.8014H46.2917V58.5903Z" fill="#FFF3E0"/>
<path d="M46.2917 56.3792H44.0806V58.5903H46.2917V56.3792Z" fill="#E91E63"/>
<path d="M46.2917 54.1748H44.0806V56.3859H46.2917V54.1748Z" fill="#FFF3E0"/>
<path d="M46.2917 51.9637H44.0806V54.1748H46.2917V51.9637Z" fill="#FFF3E0"/>
<path d="M46.2917 49.7592H44.0806V51.9703H46.2917V49.7592Z" fill="white"/>
<path d="M46.2917 47.5481H44.0806V49.7592H46.2917V47.5481Z" fill="white"/>
<path d="M46.2917 45.337H44.0806V47.5481H46.2917V45.337Z" fill="white"/>
<path d="M46.2917 43.1259H44.0806V45.337H46.2917V43.1259Z" fill="#263238"/>
<path d="M46.2917 40.9215H44.0806V43.1326H46.2917V40.9215Z" fill="#E53935"/>
<path d="M46.2917 38.7104H44.0806V40.9215H46.2917V38.7104Z" fill="#E53935"/>
<path d="M46.2917 36.506H44.0806V38.7171H46.2917V36.506Z" fill="#E53935"/>
<path d="M46.2917 34.2949H44.0806V36.506H46.2917V34.2949Z" fill="#E53935"/>
<path d="M46.2917 32.0904H44.0806V34.3015H46.2917V32.0904Z" fill="#EA615D"/>
<path d="M46.2917 29.8793H44.0806V32.0904H46.2917V29.8793Z" fill="#E53935"/>
<path d="M46.2917 27.6749H44.0806V29.886H46.2917V27.6749Z" fill="#E53935"/>
<path d="M46.2917 25.4638H44.0806V27.6749H46.2917V25.4638Z" fill="#AC2B28"/>
<path d="M46.2917 23.2527H44.0806V25.4638H46.2917V23.2527Z" fill="#EA615D"/>
<path d="M46.2917 21.0482H44.0806V23.2593H46.2917V21.0482Z" fill="#EA615D"/>
<path d="M46.2917 18.8372H44.0806V21.0483H46.2917V18.8372Z" fill="#E53935"/>
<path d="M46.2917 16.626H44.0806V18.8371H46.2917V16.626Z" fill="#2196F3"/>
<path d="M46.2917 12.2105H44.0806V14.4216H46.2917V12.2105Z" fill="#AC2B28"/>
<path d="M46.2917 10.006H44.0806V12.2171H46.2917V10.006Z" fill="#E53935"/>
<path d="M46.2917 7.79498H44.0806V10.0061H46.2917V7.79498Z" fill="#E53935"/>
<path d="M44.0806 71.8369H41.8695V74.048H44.0806V71.8369Z" fill="#FFF3E0"/>
<path d="M44.0806 69.6324H41.8695V71.8436H44.0806V69.6324Z" fill="#FFF3E0"/>
<path d="M44.0806 67.4214H41.8695V69.6325H44.0806V67.4214Z" fill="#BFB6A8"/>
<path d="M44.0806 65.2102H41.8695V67.4213H44.0806V65.2102Z" fill="#BFB6A8"/>
<path d="M44.0806 63.0059H41.8695V65.217H44.0806V63.0059Z" fill="#FFF3E0"/>
<path d="M44.0806 60.7947H41.8695V63.0058H44.0806V60.7947Z" fill="#FFF3E0"/>
<path d="M44.0806 58.5903H41.8695V60.8014H44.0806V58.5903Z" fill="#E91E63"/>
<path d="M44.0806 56.3792H41.8695V58.5903H44.0806V56.3792Z" fill="#FFF3E0"/>
<path d="M44.0806 54.1748H41.8695V56.3859H44.0806V54.1748Z" fill="#FFF3E0"/>
<path d="M44.0806 51.9637H41.8695V54.1748H44.0806V51.9637Z" fill="#FF8A65"/>
<path d="M44.0806 49.7592H41.8695V51.9703H44.0806V49.7592Z" fill="#FFF3E0"/>
<path d="M44.0806 47.5481H41.8695V49.7592H44.0806V47.5481Z" fill="#FFF3E0"/>
<path d="M44.0806 45.337H41.8695V47.5481H44.0806V45.337Z" fill="#FFF3E0"/>
<path d="M44.0806 43.1259H41.8695V45.337H44.0806V43.1259Z" fill="#BFB6A8"/>
<path d="M44.0806 40.9215H41.8695V43.1326H44.0806V40.9215Z" fill="#E53935"/>
<path d="M44.0806 38.7104H41.8695V40.9215H44.0806V38.7104Z" fill="#E53935"/>
<path d="M44.0806 36.506H41.8695V38.7171H44.0806V36.506Z" fill="#E53935"/>
<path d="M44.0806 34.2949H41.8695V36.506H44.0806V34.2949Z" fill="#E53935"/>
<path d="M44.0806 32.0904H41.8695V34.3015H44.0806V32.0904Z" fill="#E53935"/>
<path d="M44.0806 29.8793H41.8695V32.0904H44.0806V29.8793Z" fill="#EA615D"/>
<path d="M44.0806 27.6749H41.8695V29.886H44.0806V27.6749Z" fill="#E53935"/>
<path d="M44.0806 25.4638H41.8695V27.6749H44.0806V25.4638Z" fill="#AC2B28"/>
<path d="M44.0806 23.2527H41.8695V25.4638H44.0806V23.2527Z" fill="#E53935"/>
<path d="M44.0806 21.0482H41.8695V23.2593H44.0806V21.0482Z" fill="#E53935"/>
<path d="M44.0806 18.8372H41.8695V21.0483H44.0806V18.8372Z" fill="#EA615D"/>
<path d="M44.0806 16.626H41.8695V18.8371H44.0806V16.626Z" fill="#2196F3"/>
<path d="M44.0806 14.4216H41.8695V16.6328H44.0806V14.4216Z" fill="#E53935"/>
<path d="M44.0806 12.2105H41.8695V14.4216H44.0806V12.2105Z" fill="#E53935"/>
<path d="M44.0806 10.006H41.8695V12.2171H44.0806V10.006Z" fill="#EA615D"/>
<path d="M44.0806 7.79498H41.8695V10.0061H44.0806V7.79498Z" fill="#E53935"/>
<path d="M41.8761 71.8369H39.665V74.048H41.8761V71.8369Z" fill="#FFF3E0"/>
<path d="M41.8761 69.6324H39.665V71.8436H41.8761V69.6324Z" fill="#BFB6A8"/>
<path d="M41.8761 67.4214H39.665V69.6325H41.8761V67.4214Z" fill="#BFB6A8"/>
<path d="M41.8761 65.2102H39.665V67.4213H41.8761V65.2102Z" fill="#BFB6A8"/>
<path d="M41.8761 63.0059H39.665V65.217H41.8761V63.0059Z" fill="#FFF3E0"/>
<path d="M41.8761 60.7947H39.665V63.0058H41.8761V60.7947Z" fill="#BFB6A8"/>
<path d="M41.8761 58.5903H39.665V60.8014H41.8761V58.5903Z" fill="#E91E63"/>
<path d="M41.8761 56.3792H39.665V58.5903H41.8761V56.3792Z" fill="#FFF3E0"/>
<path d="M41.8761 54.1748H39.665V56.3859H41.8761V54.1748Z" fill="#FFF3E0"/>
<path d="M41.8761 51.9637H39.665V54.1748H41.8761V51.9637Z" fill="#FF8A65"/>
<path d="M41.8761 49.7592H39.665V51.9703H41.8761V49.7592Z" fill="#FF8A65"/>
<path d="M41.8761 47.5481H39.665V49.7592H41.8761V47.5481Z" fill="#FFF3E0"/>
<path d="M41.8761 45.337H39.665V47.5481H41.8761V45.337Z" fill="#FFF3E0"/>
<path d="M41.8761 43.1259H39.665V45.337H41.8761V43.1259Z" fill="#BFB6A8"/>
<path d="M41.8761 40.9215H39.665V43.1326H41.8761V40.9215Z" fill="#E53935"/>
<path d="M41.8761 38.7104H39.665V40.9215H41.8761V38.7104Z" fill="#E53935"/>
<path d="M41.8761 36.506H39.665V38.7171H41.8761V36.506Z" fill="#E53935"/>
<path d="M41.8761 34.2949H39.665V36.506H41.8761V34.2949Z" fill="#E53935"/>
<path d="M41.8761 32.0904H39.665V34.3015H41.8761V32.0904Z" fill="#E53935"/>
<path d="M41.8761 29.8793H39.665V32.0904H41.8761V29.8793Z" fill="#E53935"/>
<path d="M41.8761 27.6749H39.665V29.886H41.8761V27.6749Z" fill="#EA615D"/>
<path d="M41.8761 25.4638H39.665V27.6749H41.8761V25.4638Z" fill="#AC2B28"/>
<path d="M41.8761 23.2527H39.665V25.4638H41.8761V23.2527Z" fill="#E53935"/>
<path d="M41.8761 21.0482H39.665V23.2593H41.8761V21.0482Z" fill="#E53935"/>
<path d="M41.8761 18.8372H39.665V21.0483H41.8761V18.8372Z" fill="#E53935"/>
<path d="M41.8761 16.626H39.665V18.8371H41.8761V16.626Z" fill="#2196F3"/>
<path d="M41.8761 14.4216H39.665V16.6328H41.8761V14.4216Z" fill="#E53935"/>
<path d="M41.8761 12.2105H39.665V14.4216H41.8761V12.2105Z" fill="#E53935"/>
<path d="M41.8761 10.006H39.665V12.2171H41.8761V10.006Z" fill="#EA615D"/>
<path d="M41.8761 7.79498H39.665V10.0061H41.8761V7.79498Z" fill="#E53935"/>
<path d="M39.665 71.8369H37.4539V74.048H39.665V71.8369Z" fill="#FFF3E0"/>
<path d="M39.665 69.6324H37.4539V71.8436H39.665V69.6324Z" fill="#BFB6A8"/>
<path d="M39.665 67.4214H37.4539V69.6325H39.665V67.4214Z" fill="#BFB6A8"/>
<path d="M39.665 65.2102H37.4539V67.4213H39.665V65.2102Z" fill="#BFB6A8"/>
<path d="M39.665 63.0059H37.4539V65.217H39.665V63.0059Z" fill="#FFF3E0"/>
<path d="M39.665 60.7947H37.4539V63.0058H39.665V60.7947Z" fill="#BFB6A8"/>
<path d="M39.665 58.5903H37.4539V60.8014H39.665V58.5903Z" fill="#E91E63"/>
<path d="M39.665 56.3792H37.4539V58.5903H39.665V56.3792Z" fill="#FFF3E0"/>
<path d="M39.665 54.1748H37.4539V56.3859H39.665V54.1748Z" fill="#FFF3E0"/>
<path d="M39.665 51.9637H37.4539V54.1748H39.665V51.9637Z" fill="#FF8A65"/>
<path d="M39.665 49.7592H37.4539V51.9703H39.665V49.7592Z" fill="#FF8A65"/>
<path d="M39.665 47.5481H37.4539V49.7592H39.665V47.5481Z" fill="#FFF3E0"/>
<path d="M39.665 45.337H37.4539V47.5481H39.665V45.337Z" fill="#FFF3E0"/>
<path d="M39.665 43.1259H37.4539V45.337H39.665V43.1259Z" fill="#BFB6A8"/>
<path d="M39.665 40.9215H37.4539V43.1326H39.665V40.9215Z" fill="#EA615D"/>
<path d="M39.665 38.7104H37.4539V40.9215H39.665V38.7104Z" fill="#EA615D"/>
<path d="M39.665 36.506H37.4539V38.7171H39.665V36.506Z" fill="#EA615D"/>
<path d="M39.665 34.2949H37.4539V36.506H39.665V34.2949Z" fill="#EA615D"/>
<path d="M39.665 32.0904H37.4539V34.3015H39.665V32.0904Z" fill="#EA615D"/>
<path d="M39.665 29.8793H37.4539V32.0904H39.665V29.8793Z" fill="#EA615D"/>
<path d="M39.665 27.6749H37.4539V29.886H39.665V27.6749Z" fill="#EA615D"/>
<path d="M39.665 25.4638H37.4539V27.6749H39.665V25.4638Z" fill="#AC2B28"/>
<path d="M39.665 23.2527H37.4539V25.4638H39.665V23.2527Z" fill="#E53935"/>
<path d="M39.665 21.0482H37.4539V23.2593H39.665V21.0482Z" fill="#E53935"/>
<path d="M39.665 18.8372H37.4539V21.0483H39.665V18.8372Z" fill="#E53935"/>
<path d="M39.665 16.626H37.4539V18.8371H39.665V16.626Z" fill="#2196F3"/>
<path d="M39.665 14.4216H37.4539V16.6328H39.665V14.4216Z" fill="#E53935"/>
<path d="M39.665 12.2105H37.4539V14.4216H39.665V12.2105Z" fill="#EA615D"/>
<path d="M39.665 10.006H37.4539V12.2171H39.665V10.006Z" fill="#E53935"/>
<path d="M37.4539 71.8369H35.2428V74.048H37.4539V71.8369Z" fill="#FFF3E0"/>
<path d="M37.4539 69.6324H35.2428V71.8436H37.4539V69.6324Z" fill="#FFF3E0"/>
<path d="M37.4539 67.4214H35.2428V69.6325H37.4539V67.4214Z" fill="#BFB6A8"/>
<path d="M37.4539 65.2102H35.2428V67.4213H37.4539V65.2102Z" fill="#BFB6A8"/>
<path d="M37.4539 63.0059H35.2428V65.217H37.4539V63.0059Z" fill="#FFF3E0"/>
<path d="M37.4539 60.7947H35.2428V63.0058H37.4539V60.7947Z" fill="#FFF3E0"/>
<path d="M37.4539 58.5903H35.2428V60.8014H37.4539V58.5903Z" fill="#E91E63"/>
<path d="M37.4539 56.3792H35.2428V58.5903H37.4539V56.3792Z" fill="#FFF3E0"/>
<path d="M37.4539 54.1748H35.2428V56.3859H37.4539V54.1748Z" fill="#FFF3E0"/>
<path d="M37.4539 51.9637H35.2428V54.1748H37.4539V51.9637Z" fill="#FF8A65"/>
<path d="M37.4539 49.7592H35.2428V51.9703H37.4539V49.7592Z" fill="#FFF3E0"/>
<path d="M37.4539 47.5481H35.2428V49.7592H37.4539V47.5481Z" fill="#FFF3E0"/>
<path d="M37.4539 45.337H35.2428V47.5481H37.4539V45.337Z" fill="#FFF3E0"/>
<path d="M37.4539 43.1259H35.2428V45.337H37.4539V43.1259Z" fill="#BFB6A8"/>
<path d="M37.4539 40.9215H35.2428V43.1326H37.4539V40.9215Z" fill="#E53935"/>
<path d="M37.4539 38.7104H35.2428V40.9215H37.4539V38.7104Z" fill="#E53935"/>
<path d="M37.4539 36.506H35.2428V38.7171H37.4539V36.506Z" fill="#E53935"/>
<path d="M37.4539 34.2949H35.2428V36.506H37.4539V34.2949Z" fill="#E53935"/>
<path d="M37.4539 32.0904H35.2428V34.3015H37.4539V32.0904Z" fill="#E53935"/>
<path d="M37.4539 29.8793H35.2428V32.0904H37.4539V29.8793Z" fill="#EA615D"/>
<path d="M37.4539 27.6749H35.2428V29.886H37.4539V27.6749Z" fill="#E53935"/>
<path d="M37.4539 25.4638H35.2428V27.6749H37.4539V25.4638Z" fill="#AC2B28"/>
<path d="M37.4539 23.2527H35.2428V25.4638H37.4539V23.2527Z" fill="#E53935"/>
<path d="M37.4539 21.0482H35.2428V23.2593H37.4539V21.0482Z" fill="#E53935"/>
<path d="M37.4539 18.8372H35.2428V21.0483H37.4539V18.8372Z" fill="#EA615D"/>
<path d="M37.4539 16.626H35.2428V18.8371H37.4539V16.626Z" fill="#2196F3"/>
<path d="M37.4539 14.4216H35.2428V16.6328H37.4539V14.4216Z" fill="#E53935"/>
<path d="M37.4539 12.2105H35.2428V14.4216H37.4539V12.2105Z" fill="#E53935"/>
<path d="M35.2494 71.8369H33.0383V74.048H35.2494V71.8369Z" fill="#FFF3E0"/>
<path d="M35.2494 69.6324H33.0383V71.8436H35.2494V69.6324Z" fill="#FFF3E0"/>
<path d="M35.2494 67.4214H33.0383V69.6325H35.2494V67.4214Z" fill="#FFF3E0"/>
<path d="M35.2494 65.2102H33.0383V67.4213H35.2494V65.2102Z" fill="#BFB6A8"/>
<path d="M35.2494 63.0059H33.0383V65.217H35.2494V63.0059Z" fill="#FFF3E0"/>
<path d="M35.2494 60.7947H33.0383V63.0058H35.2494V60.7947Z" fill="#FFF3E0"/>
<path d="M35.2494 58.5903H33.0383V60.8014H35.2494V58.5903Z" fill="#FFF3E0"/>
<path d="M35.2494 56.3792H33.0383V58.5903H35.2494V56.3792Z" fill="#E91E63"/>
<path d="M35.2494 54.1748H33.0383V56.3859H35.2494V54.1748Z" fill="#FFF3E0"/>
<path d="M35.2494 51.9637H33.0383V54.1748H35.2494V51.9637Z" fill="#FFF3E0"/>
<path d="M35.2494 49.7592H33.0383V51.9703H35.2494V49.7592Z" fill="white"/>
<path d="M35.2494 47.5481H33.0383V49.7592H35.2494V47.5481Z" fill="white"/>
<path d="M35.2494 45.337H33.0383V47.5481H35.2494V45.337Z" fill="white"/>
<path d="M35.2494 43.1259H33.0383V45.337H35.2494V43.1259Z" fill="#263238"/>
<path d="M35.2494 40.9215H33.0383V43.1326H35.2494V40.9215Z" fill="#E53935"/>
<path d="M35.2494 38.7104H33.0383V40.9215H35.2494V38.7104Z" fill="#E53935"/>
<path d="M35.2494 36.506H33.0383V38.7171H35.2494V36.506Z" fill="#E53935"/>
<path d="M35.2494 34.2949H33.0383V36.506H35.2494V34.2949Z" fill="#E53935"/>
<path d="M35.2494 32.0904H33.0383V34.3015H35.2494V32.0904Z" fill="#EA615D"/>
<path d="M35.2494 29.8793H33.0383V32.0904H35.2494V29.8793Z" fill="#E53935"/>
<path d="M35.2494 27.6749H33.0383V29.886H35.2494V27.6749Z" fill="#E53935"/>
<path d="M35.2494 25.4638H33.0383V27.6749H35.2494V25.4638Z" fill="#AC2B28"/>
<path d="M35.2494 23.2527H33.0383V25.4638H35.2494V23.2527Z" fill="#EA615D"/>
<path d="M35.2494 21.0482H33.0383V23.2593H35.2494V21.0482Z" fill="#EA615D"/>
<path d="M35.2494 18.8372H33.0383V21.0483H35.2494V18.8372Z" fill="#E53935"/>
<path d="M35.2494 16.626H33.0383V18.8371H35.2494V16.626Z" fill="#2196F3"/>
<path d="M33.0384 71.8369H30.8273V74.048H33.0384V71.8369Z" fill="#FFF3E0"/>
<path d="M33.0384 63.0059H30.8273V65.217H33.0384V63.0059Z" fill="#FFF3E0"/>
<path d="M33.0384 60.7947H30.8273V63.0058H33.0384V60.7947Z" fill="#FFF3E0"/>
<path d="M33.0384 58.5903H30.8273V60.8014H33.0384V58.5903Z" fill="#FFF3E0"/>
<path d="M33.0384 56.3792H30.8273V58.5903H33.0384V56.3792Z" fill="#FFCCBC"/>
<path d="M33.0384 54.1748H30.8273V56.3859H33.0384V54.1748Z" fill="#FFF3E0"/>
<path d="M33.0384 51.9637H30.8273V54.1748H33.0384V51.9637Z" fill="#FFCCBC"/>
<path d="M33.0384 49.7592H30.8273V51.9703H33.0384V49.7592Z" fill="white"/>
<path d="M33.0384 47.5481H30.8273V49.7592H33.0384V47.5481Z" fill="#26A69A"/>
<path d="M33.0384 45.337H30.8273V47.5481H33.0384V45.337Z" fill="#26A69A"/>
<path d="M33.0384 43.1259H30.8273V45.337H33.0384V43.1259Z" fill="#263238"/>
<path d="M33.0384 40.9215H30.8273V43.1326H33.0384V40.9215Z" fill="#E53935"/>
<path d="M33.0384 38.7104H30.8273V40.9215H33.0384V38.7104Z" fill="#E53935"/>
<path d="M33.0384 36.506H30.8273V38.7171H33.0384V36.506Z" fill="#E53935"/>
<path d="M33.0384 34.2949H30.8273V36.506H33.0384V34.2949Z" fill="#EA615D"/>
<path d="M33.0384 32.0904H30.8273V34.3015H33.0384V32.0904Z" fill="#E53935"/>
<path d="M33.0384 29.8793H30.8273V32.0904H33.0384V29.8793Z" fill="#E53935"/>
<path d="M33.0384 27.6749H30.8273V29.886H33.0384V27.6749Z" fill="#AC2B28"/>
<path d="M33.0384 25.4638H30.8273V27.6749H33.0384V25.4638Z" fill="#E53935"/>
<path d="M33.0384 23.2527H30.8273V25.4638H33.0384V23.2527Z" fill="#E53935"/>
<path d="M33.0384 21.0482H30.8273V23.2593H33.0384V21.0482Z" fill="#E53935"/>
<path d="M33.0384 18.8372H30.8273V21.0483H33.0384V18.8372Z" fill="#E53935"/>
<path d="M30.8339 63.0059H28.6228V65.217H30.8339V63.0059Z" fill="#FFF3E0"/>
<path d="M30.8339 60.7947H28.6228V63.0058H30.8339V60.7947Z" fill="#FFF3E0"/>
<path d="M30.8339 58.5903H28.6228V60.8014H30.8339V58.5903Z" fill="#FFF3E0"/>
<path d="M30.8339 56.3792H28.6228V58.5903H30.8339V56.3792Z" fill="#FFF3E0"/>
<path d="M30.8339 54.1748H28.6228V56.3859H30.8339V54.1748Z" fill="#FFCCBC"/>
<path d="M30.8339 51.9637H28.6228V54.1748H30.8339V51.9637Z" fill="#FFF3E0"/>
<path d="M30.8339 49.7592H28.6228V51.9703H30.8339V49.7592Z" fill="white"/>
<path d="M30.8339 47.5481H28.6228V49.7592H30.8339V47.5481Z" fill="white"/>
<path d="M30.8339 45.337H28.6228V47.5481H30.8339V45.337Z" fill="white"/>
<path d="M30.8339 43.1259H28.6228V45.337H30.8339V43.1259Z" fill="#263238"/>
<path d="M30.8339 40.9215H28.6228V43.1326H30.8339V40.9215Z" fill="#EA615D"/>
<path d="M30.8339 38.7104H28.6228V40.9215H30.8339V38.7104Z" fill="#EA615D"/>
<path d="M30.8339 36.506H28.6228V38.7171H30.8339V36.506Z" fill="#EA615D"/>
<path d="M30.8339 34.2949H28.6228V36.506H30.8339V34.2949Z" fill="#E53935"/>
<path d="M30.8339 32.0904H28.6228V34.3015H30.8339V32.0904Z" fill="#E53935"/>
<path d="M30.8339 29.8793H28.6228V32.0904H30.8339V29.8793Z" fill="#AC2B28"/>
<path d="M30.8339 27.6749H28.6228V29.886H30.8339V27.6749Z" fill="#EA615D"/>
<path d="M30.8339 25.4638H28.6228V27.6749H30.8339V25.4638Z" fill="#E53935"/>
<path d="M30.8339 23.2527H28.6228V25.4638H30.8339V23.2527Z" fill="#E53935"/>
<path d="M30.8339 21.0482H28.6228V23.2593H30.8339V21.0482Z" fill="#E53935"/>
<path d="M28.6228 60.7947H26.4117V63.0058H28.6228V60.7947Z" fill="#FFF3E0"/>
<path d="M28.6228 58.5903H26.4117V60.8014H28.6228V58.5903Z" fill="#FFF3E0"/>
<path d="M28.6228 56.3792H26.4117V58.5903H28.6228V56.3792Z" fill="#FFCCBC"/>
<path d="M28.6228 54.1748H26.4117V56.3859H28.6228V54.1748Z" fill="#FFF3E0"/>
<path d="M28.6228 51.9637H26.4117V54.1748H28.6228V51.9637Z" fill="#FFCCBC"/>
<path d="M28.6228 49.7592H26.4117V51.9703H28.6228V49.7592Z" fill="#FFF3E0"/>
<path d="M28.6228 47.5481H26.4117V49.7592H28.6228V47.5481Z" fill="#FFF3E0"/>
<path d="M28.6228 45.337H26.4117V47.5481H28.6228V45.337Z" fill="#263238"/>
<path d="M28.6228 43.1259H26.4117V45.337H28.6228V43.1259Z" fill="#BFB6A8"/>
<path d="M28.6228 40.9215H26.4117V43.1326H28.6228V40.9215Z" fill="#E53935"/>
<path d="M28.6228 38.7104H26.4117V40.9215H28.6228V38.7104Z" fill="#E53935"/>
<path d="M28.6228 36.506H26.4117V38.7171H28.6228V36.506Z" fill="#E53935"/>
<path d="M28.6228 34.2949H26.4117V36.506H28.6228V34.2949Z" fill="#E53935"/>
<path d="M28.6228 32.0904H26.4117V34.3015H28.6228V32.0904Z" fill="#AC2B28"/>
<path d="M28.6228 29.8793H26.4117V32.0904H28.6228V29.8793Z" fill="#E53935"/>
<path d="M28.6228 27.6749H26.4117V29.886H28.6228V27.6749Z" fill="#E53935"/>
<path d="M28.6228 25.4638H26.4117V27.6749H28.6228V25.4638Z" fill="#EA615D"/>
<path d="M28.6228 23.2527H26.4117V25.4638H28.6228V23.2527Z" fill="#E53935"/>
<path d="M26.4184 58.5903H24.2073V60.8014H26.4184V58.5903Z" fill="#FFF3E0"/>
<path d="M26.4184 56.3792H24.2073V58.5903H26.4184V56.3792Z" fill="#FFF3E0"/>
<path d="M26.4184 54.1748H24.2073V56.3859H26.4184V54.1748Z" fill="#FFF3E0"/>
<path d="M26.4184 51.9637H24.2073V54.1748H26.4184V51.9637Z" fill="#FFF3E0"/>
<path d="M26.4184 49.7592H24.2073V51.9703H26.4184V49.7592Z" fill="#FFF3E0"/>
<path d="M26.4184 47.5481H24.2073V49.7592H26.4184V47.5481Z" fill="#FFF3E0"/>
<path d="M26.4184 45.337H24.2073V47.5481H26.4184V45.337Z" fill="#FFF3E0"/>
<path d="M26.4184 43.1259H24.2073V45.337H26.4184V43.1259Z" fill="#BFB6A8"/>
<path d="M26.4184 40.9215H24.2073V43.1326H26.4184V40.9215Z" fill="#E53935"/>
<path d="M26.4184 38.7104H24.2073V40.9215H26.4184V38.7104Z" fill="#E53935"/>
<path d="M26.4184 36.506H24.2073V38.7171H26.4184V36.506Z" fill="#E53935"/>
<path d="M26.4184 34.2949H24.2073V36.506H26.4184V34.2949Z" fill="#AC2B28"/>
<path d="M26.4184 32.0904H24.2073V34.3015H26.4184V32.0904Z" fill="#EA615D"/>
<path d="M26.4184 29.8793H24.2073V32.0904H26.4184V29.8793Z" fill="#E53935"/>
<path d="M26.4184 27.6749H24.2073V29.886H26.4184V27.6749Z" fill="#E53935"/>
<path d="M26.4184 25.4638H24.2073V27.6749H26.4184V25.4638Z" fill="#E53935"/>
<path d="M24.2073 51.9637H21.9962V54.1748H24.2073V51.9637Z" fill="#FFF3E0"/>
<path d="M24.2073 49.7592H21.9962V51.9703H24.2073V49.7592Z" fill="#BFB6A8"/>
<path d="M24.2073 47.5481H21.9962V49.7592H24.2073V47.5481Z" fill="#BFB6A8"/>
<path d="M24.2073 45.337H21.9962V47.5481H24.2073V45.337Z" fill="#BFB6A8"/>
<path d="M24.2073 43.1259H21.9962V45.337H24.2073V43.1259Z" fill="#FFF3E0"/>
<path d="M24.2073 40.9215H21.9962V43.1326H24.2073V40.9215Z" fill="#AC2B28"/>
<path d="M24.2073 38.7104H21.9962V40.9215H24.2073V38.7104Z" fill="#AC2B28"/>
<path d="M24.2073 36.506H21.9962V38.7171H24.2073V36.506Z" fill="#AC2B28"/>
<path d="M24.2073 34.2949H21.9962V36.506H24.2073V34.2949Z" fill="#E53935"/>
<path d="M24.2073 32.0904H21.9962V34.3015H24.2073V32.0904Z" fill="#E53935"/>
<path d="M24.2073 29.8793H21.9962V32.0904H24.2073V29.8793Z" fill="#EA615D"/>
<path d="M24.2073 27.6749H21.9962V29.886H24.2073V27.6749Z" fill="#E53935"/>
<path d="M21.9961 51.9637H19.785V54.1748H21.9961V51.9637Z" fill="#FFF3E0"/>
<path d="M21.9961 49.7592H19.785V51.9703H21.9961V49.7592Z" fill="#FFF3E0"/>
<path d="M21.9961 47.5481H19.785V49.7592H21.9961V47.5481Z" fill="#FFF3E0"/>
<path d="M21.9961 45.337H19.785V47.5481H21.9961V45.337Z" fill="#BFB6A8"/>
<path d="M21.9961 43.1259H19.785V45.337H21.9961V43.1259Z" fill="#FFF3E0"/>
<path d="M19.7917 49.7592H17.5806V51.9703H19.7917V49.7592Z" fill="#FFF3E0"/>
<path d="M19.7917 47.5482H17.5806V49.7593H19.7917V47.5482Z" fill="#FFF3E0"/>
<path d="M19.7917 45.337H17.5806V47.5481H19.7917V45.337Z" fill="#FFF3E0"/>
</svg>
