<svg width="79" height="81" viewBox="0 0 79 81" fill="none" xmlns="http://www.w3.org/2000/svg">
<rect x="0.670044" width="77.9899" height="80.161" rx="5.34406" fill="#B9BE95"/>
<path d="M61.7493 40.0805H59.5382V42.2916H61.7493V40.0805Z" fill="#424242"/>
<path d="M61.7493 37.8693H59.5382V40.0804H61.7493V37.8693Z" fill="#424242"/>
<path d="M61.7493 35.6583H59.5382V37.8694H61.7493V35.6583Z" fill="#424242"/>
<path d="M59.5448 42.2916H57.3337V44.5027H59.5448V42.2916Z" fill="#424242"/>
<path d="M59.5448 40.0805H57.3337V42.2916H59.5448V40.0805Z" fill="#424242"/>
<path d="M59.5448 37.8693H57.3337V40.0804H59.5448V37.8693Z" fill="#424242"/>
<path d="M59.5448 35.6583H57.3337V37.8694H59.5448V35.6583Z" fill="#263238"/>
<path d="M59.5448 33.4538H57.3337V35.6649H59.5448V33.4538Z" fill="#424242"/>
<path d="M57.3338 42.2916H55.1227V44.5027H57.3338V42.2916Z" fill="#424242"/>
<path d="M57.3338 40.0805H55.1227V42.2916H57.3338V40.0805Z" fill="#263238"/>
<path d="M57.3338 37.8693H55.1227V40.0804H57.3338V37.8693Z" fill="#263238"/>
<path d="M57.3338 35.6583H55.1227V37.8694H57.3338V35.6583Z" fill="#263238"/>
<path d="M57.3338 33.4538H55.1227V35.6649H57.3338V33.4538Z" fill="#424242"/>
<path d="M57.3338 31.2428H55.1227V33.4539H57.3338V31.2428Z" fill="#37474F"/>
<path d="M57.3338 29.0383H55.1227V31.2494H57.3338V29.0383Z" fill="#263238"/>
<path d="M57.3338 26.8272H55.1227V29.0383H57.3338V26.8272Z" fill="#37474F"/>
<path d="M57.3338 24.6228H55.1227V26.8339H57.3338V24.6228Z" fill="#263238"/>
<path d="M57.3338 22.4116H55.1227V24.6227H57.3338V22.4116Z" fill="#37474F"/>
<path d="M55.1293 48.9115H52.9182V51.1226H55.1293V48.9115Z" fill="#424242"/>
<path d="M55.1293 46.7071H52.9182V48.9182H55.1293V46.7071Z" fill="#424242"/>
<path d="M55.1293 44.496H52.9182V46.7071H55.1293V44.496Z" fill="#424242"/>
<path d="M55.1293 42.2916H52.9182V44.5027H55.1293V42.2916Z" fill="#424242"/>
<path d="M55.1293 40.0805H52.9182V42.2916H55.1293V40.0805Z" fill="#424242"/>
<path d="M55.1293 37.8693H52.9182V40.0804H55.1293V37.8693Z" fill="#424242"/>
<path d="M55.1293 35.6583H52.9182V37.8694H55.1293V35.6583Z" fill="#424242"/>
<path d="M55.1293 33.4538H52.9182V35.6649H55.1293V33.4538Z" fill="#37474F"/>
<path d="M55.1293 31.2428H52.9182V33.4539H55.1293V31.2428Z" fill="#263238"/>
<path d="M55.1293 29.0383H52.9182V31.2494H55.1293V29.0383Z" fill="#37474F"/>
<path d="M55.1293 26.8272H52.9182V29.0383H55.1293V26.8272Z" fill="#263238"/>
<path d="M55.1293 24.6228H52.9182V26.8339H55.1293V24.6228Z" fill="#37474F"/>
<path d="M55.1293 22.4116H52.9182V24.6227H55.1293V22.4116Z" fill="#263238"/>
<path d="M55.1293 20.2073H52.9182V22.4184H55.1293V20.2073Z" fill="#37474F"/>
<path d="M52.9183 51.1226H50.7072V53.3337H52.9183V51.1226Z" fill="#424242"/>
<path d="M52.9183 48.9115H50.7072V51.1226H52.9183V48.9115Z" fill="#424242"/>
<path d="M52.9183 46.7071H50.7072V48.9182H52.9183V46.7071Z" fill="#424242"/>
<path d="M52.9183 44.496H50.7072V46.7071H52.9183V44.496Z" fill="#424242"/>
<path d="M52.9183 42.2916H50.7072V44.5027H52.9183V42.2916Z" fill="#424242"/>
<path d="M52.9183 40.0805H50.7072V42.2916H52.9183V40.0805Z" fill="#424242"/>
<path d="M52.9183 37.8693H50.7072V40.0804H52.9183V37.8693Z" fill="#424242"/>
<path d="M52.9183 35.6583H50.7072V37.8694H52.9183V35.6583Z" fill="#263238"/>
<path d="M52.9183 33.4538H50.7072V35.6649H52.9183V33.4538Z" fill="#424242"/>
<path d="M52.9183 31.2428H50.7072V33.4539H52.9183V31.2428Z" fill="#424242"/>
<path d="M52.9183 29.0383H50.7072V31.2494H52.9183V29.0383Z" fill="#424242"/>
<path d="M52.9183 26.8272H50.7072V29.0383H52.9183V26.8272Z" fill="#37474F"/>
<path d="M52.9183 24.6228H50.7072V26.8339H52.9183V24.6228Z" fill="#263238"/>
<path d="M52.9183 22.4116H50.7072V24.6227H52.9183V22.4116Z" fill="#37474F"/>
<path d="M52.9183 20.2073H50.7072V22.4184H52.9183V20.2073Z" fill="#263238"/>
<path d="M52.9183 17.9961H50.7072V20.2072H52.9183V17.9961Z" fill="#37474F"/>
<path d="M50.7072 53.3271H48.4961V55.5382H50.7072V53.3271Z" fill="#424242"/>
<path d="M50.7072 51.1226H48.4961V53.3337H50.7072V51.1226Z" fill="#424242"/>
<path d="M50.7072 48.9115H48.4961V51.1226H50.7072V48.9115Z" fill="#424242"/>
<path d="M50.7072 46.7071H48.4961V48.9182H50.7072V46.7071Z" fill="#424242"/>
<path d="M50.7072 44.496H48.4961V46.7071H50.7072V44.496Z" fill="#424242"/>
<path d="M50.7072 42.2916H48.4961V44.5027H50.7072V42.2916Z" fill="#424242"/>
<path d="M50.7072 40.0805H48.4961V42.2916H50.7072V40.0805Z" fill="#FFF3E0"/>
<path d="M50.7072 37.8693H48.4961V40.0804H50.7072V37.8693Z" fill="#FFF3E0"/>
<path d="M50.7072 35.6583H48.4961V37.8694H50.7072V35.6583Z" fill="#FFF3E0"/>
<path d="M50.7072 33.4538H48.4961V35.6649H50.7072V33.4538Z" fill="#263238"/>
<path d="M50.7072 31.2428H48.4961V33.4539H50.7072V31.2428Z" fill="#424242"/>
<path d="M50.7072 29.0383H48.4961V31.2494H50.7072V29.0383Z" fill="#424242"/>
<path d="M50.7072 26.8272H48.4961V29.0383H50.7072V26.8272Z" fill="#424242"/>
<path d="M50.7072 24.6228H48.4961V26.8339H50.7072V24.6228Z" fill="#37474F"/>
<path d="M50.7072 22.4116H48.4961V24.6227H50.7072V22.4116Z" fill="#263238"/>
<path d="M50.7072 20.2073H48.4961V22.4184H50.7072V20.2073Z" fill="#37474F"/>
<path d="M50.7072 17.9961H48.4961V20.2072H50.7072V17.9961Z" fill="#263238"/>
<path d="M50.7072 15.785H48.4961V17.9961H50.7072V15.785Z" fill="#37474F"/>
<path d="M48.5027 55.5382H46.2916V57.7493H48.5027V55.5382Z" fill="#424242"/>
<path d="M48.5027 53.3271H46.2916V55.5382H48.5027V53.3271Z" fill="#424242"/>
<path d="M48.5027 51.1226H46.2916V53.3337H48.5027V51.1226Z" fill="#424242"/>
<path d="M48.5027 48.9115H46.2916V51.1226H48.5027V48.9115Z" fill="#424242"/>
<path d="M48.5027 46.7071H46.2916V48.9182H48.5027V46.7071Z" fill="#ED4B82"/>
<path d="M48.5027 44.496H46.2916V46.7071H48.5027V44.496Z" fill="#424242"/>
<path d="M48.5027 42.2916H46.2916V44.5027H48.5027V42.2916Z" fill="#424242"/>
<path d="M48.5027 40.0805H46.2916V42.2916H48.5027V40.0805Z" fill="#FFF3E0"/>
<path d="M48.5027 37.8693H46.2916V40.0804H48.5027V37.8693Z" fill="#263238"/>
<path d="M48.5027 35.6583H46.2916V37.8694H48.5027V35.6583Z" fill="#263238"/>
<path d="M48.5027 33.4538H46.2916V35.6649H48.5027V33.4538Z" fill="#263238"/>
<path d="M48.5027 31.2428H46.2916V33.4539H48.5027V31.2428Z" fill="#424242"/>
<path d="M48.5027 29.0383H46.2916V31.2494H48.5027V29.0383Z" fill="#424242"/>
<path d="M48.5027 26.8272H46.2916V29.0383H48.5027V26.8272Z" fill="#424242"/>
<path d="M48.5027 24.6228H46.2916V26.8339H48.5027V24.6228Z" fill="#424242"/>
<path d="M48.5027 22.4116H46.2916V24.6227H48.5027V22.4116Z" fill="#37474F"/>
<path d="M48.5027 20.2073H46.2916V22.4184H48.5027V20.2073Z" fill="#263238"/>
<path d="M48.5027 17.9961H46.2916V20.2072H48.5027V17.9961Z" fill="#37474F"/>
<path d="M48.5027 15.785H46.2916V17.9961H48.5027V15.785Z" fill="#263238"/>
<path d="M48.5027 13.5806H46.2916V15.7917H48.5027V13.5806Z" fill="#37474F"/>
<path d="M46.2917 64.3693H44.0806V66.5804H46.2917V64.3693Z" fill="#FFB951"/>
<path d="M46.2917 62.1648H44.0806V64.3759H46.2917V62.1648Z" fill="#2196F3"/>
<path d="M46.2917 59.9537H44.0806V62.1648H46.2917V59.9537Z" fill="#B73229"/>
<path d="M46.2917 57.7426H44.0806V59.9537H46.2917V57.7426Z" fill="#26A69A"/>
<path d="M46.2917 55.5382H44.0806V57.7493H46.2917V55.5382Z" fill="#424242"/>
<path d="M46.2917 53.3271H44.0806V55.5382H46.2917V53.3271Z" fill="#424242"/>
<path d="M46.2917 51.1226H44.0806V53.3337H46.2917V51.1226Z" fill="#424242"/>
<path d="M46.2917 48.9115H44.0806V51.1226H46.2917V48.9115Z" fill="#ED4B82"/>
<path d="M46.2917 46.7071H44.0806V48.9182H46.2917V46.7071Z" fill="#424242"/>
<path d="M46.2917 44.496H44.0806V46.7071H46.2917V44.496Z" fill="#424242"/>
<path d="M46.2917 42.2916H44.0806V44.5027H46.2917V42.2916Z" fill="#424242"/>
<path d="M46.2917 40.0805H44.0806V42.2916H46.2917V40.0805Z" fill="#FFF3E0"/>
<path d="M46.2917 37.8693H44.0806V40.0804H46.2917V37.8693Z" fill="#FFF3E0"/>
<path d="M46.2917 35.6583H44.0806V37.8694H46.2917V35.6583Z" fill="#FFF3E0"/>
<path d="M46.2917 33.4538H44.0806V35.6649H46.2917V33.4538Z" fill="#263238"/>
<path d="M46.2917 31.2428H44.0806V33.4539H46.2917V31.2428Z" fill="#424242"/>
<path d="M46.2917 29.0383H44.0806V31.2494H46.2917V29.0383Z" fill="#424242"/>
<path d="M46.2917 26.8272H44.0806V29.0383H46.2917V26.8272Z" fill="#424242"/>
<path d="M46.2917 24.6228H44.0806V26.8339H46.2917V24.6228Z" fill="#424242"/>
<path d="M46.2917 22.4116H44.0806V24.6227H46.2917V22.4116Z" fill="#263238"/>
<path d="M46.2917 20.2073H44.0806V22.4184H46.2917V20.2073Z" fill="#37474F"/>
<path d="M46.2917 17.9961H44.0806V20.2072H46.2917V17.9961Z" fill="#263238"/>
<path d="M46.2917 15.785H44.0806V17.9961H46.2917V15.785Z" fill="#37474F"/>
<path d="M46.2917 13.5806H44.0806V15.7917H46.2917V13.5806Z" fill="#263238"/>
<path d="M44.0872 64.3693H41.8761V66.5804H44.0872V64.3693Z" fill="#FFA726"/>
<path d="M44.0872 62.1648H41.8761V64.3759H44.0872V62.1648Z" fill="#4DABF5"/>
<path d="M44.0872 59.9537H41.8761V62.1648H44.0872V59.9537Z" fill="#F44336"/>
<path d="M44.0872 57.7426H41.8761V59.9537H44.0872V57.7426Z" fill="#51B8AE"/>
<path d="M44.0872 55.5382H41.8761V57.7493H44.0872V55.5382Z" fill="#424242"/>
<path d="M44.0872 53.3271H41.8761V55.5382H44.0872V53.3271Z" fill="#424242"/>
<path d="M44.0872 51.1226H41.8761V53.3337H44.0872V51.1226Z" fill="#E91E63"/>
<path d="M44.0872 48.9115H41.8761V51.1226H44.0872V48.9115Z" fill="#ED4B82"/>
<path d="M44.0872 46.7071H41.8761V48.9182H44.0872V46.7071Z" fill="#424242"/>
<path d="M44.0872 44.496H41.8761V46.7071H44.0872V44.496Z" fill="#263238"/>
<path d="M44.0872 42.2916H41.8761V44.5027H44.0872V42.2916Z" fill="#424242"/>
<path d="M44.0872 40.0805H41.8761V42.2916H44.0872V40.0805Z" fill="#424242"/>
<path d="M44.0872 37.8693H41.8761V40.0804H44.0872V37.8693Z" fill="#424242"/>
<path d="M44.0872 35.6583H41.8761V37.8694H44.0872V35.6583Z" fill="#323232"/>
<path d="M44.0872 33.4538H41.8761V35.6649H44.0872V33.4538Z" fill="#424242"/>
<path d="M44.0872 31.2428H41.8761V33.4539H44.0872V31.2428Z" fill="#424242"/>
<path d="M44.0872 29.0383H41.8761V31.2494H44.0872V29.0383Z" fill="#424242"/>
<path d="M44.0872 26.8272H41.8761V29.0383H44.0872V26.8272Z" fill="#424242"/>
<path d="M44.0872 24.6228H41.8761V26.8339H44.0872V24.6228Z" fill="#263238"/>
<path d="M44.0872 22.4116H41.8761V24.6227H44.0872V22.4116Z" fill="#37474F"/>
<path d="M44.0872 20.2073H41.8761V22.4184H44.0872V20.2073Z" fill="#263238"/>
<path d="M44.0872 17.9961H41.8761V20.2072H44.0872V17.9961Z" fill="#37474F"/>
<path d="M44.0872 15.785H41.8761V17.9961H44.0872V15.785Z" fill="#263238"/>
<path d="M44.0872 13.5806H41.8761V15.7917H44.0872V13.5806Z" fill="#37474F"/>
<path d="M41.8761 64.3693H39.665V66.5804H41.8761V64.3693Z" fill="#FFB951"/>
<path d="M41.8761 62.1648H39.665V64.3759H41.8761V62.1648Z" fill="#2196F3"/>
<path d="M41.8761 59.9537H39.665V62.1648H41.8761V59.9537Z" fill="#B73229"/>
<path d="M41.8761 57.7426H39.665V59.9537H41.8761V57.7426Z" fill="#26A69A"/>
<path d="M41.8761 55.5382H39.665V57.7493H41.8761V55.5382Z" fill="#424242"/>
<path d="M41.8761 53.3271H39.665V55.5382H41.8761V53.3271Z" fill="#323232"/>
<path d="M41.8761 51.1226H39.665V53.3337H41.8761V51.1226Z" fill="#E91E63"/>
<path d="M41.8761 48.9115H39.665V51.1226H41.8761V48.9115Z" fill="#ED4B82"/>
<path d="M41.8761 46.7071H39.665V48.9182H41.8761V46.7071Z" fill="#424242"/>
<path d="M41.8761 44.496H39.665V46.7071H41.8761V44.496Z" fill="#263238"/>
<path d="M41.8761 42.2916H39.665V44.5027H41.8761V42.2916Z" fill="#263238"/>
<path d="M41.8761 40.0805H39.665V42.2916H41.8761V40.0805Z" fill="#263238"/>
<path d="M41.8761 37.8693H39.665V40.0804H41.8761V37.8693Z" fill="#424242"/>
<path d="M41.8761 35.6583H39.665V37.8694H41.8761V35.6583Z" fill="#424242"/>
<path d="M41.8761 33.4538H39.665V35.6649H41.8761V33.4538Z" fill="#424242"/>
<path d="M41.8761 31.2428H39.665V33.4539H41.8761V31.2428Z" fill="#424242"/>
<path d="M41.8761 29.0383H39.665V31.2494H41.8761V29.0383Z" fill="#424242"/>
<path d="M41.8761 26.8272H39.665V29.0383H41.8761V26.8272Z" fill="#263238"/>
<path d="M41.8761 24.6228H39.665V26.8339H41.8761V24.6228Z" fill="#37474F"/>
<path d="M41.8761 22.4116H39.665V24.6227H41.8761V22.4116Z" fill="#263238"/>
<path d="M41.8761 20.2073H39.665V22.4184H41.8761V20.2073Z" fill="#37474F"/>
<path d="M41.8761 17.9961H39.665V20.2072H41.8761V17.9961Z" fill="#263238"/>
<path d="M41.8761 15.785H39.665V17.9961H41.8761V15.785Z" fill="#37474F"/>
<path d="M41.8761 13.5806H39.665V15.7917H41.8761V13.5806Z" fill="#263238"/>
<path d="M39.665 64.3693H37.4539V66.5804H39.665V64.3693Z" fill="#FFA726"/>
<path d="M39.665 62.1648H37.4539V64.3759H39.665V62.1648Z" fill="#4DABF5"/>
<path d="M39.665 59.9537H37.4539V62.1648H39.665V59.9537Z" fill="#F44336"/>
<path d="M39.665 57.7426H37.4539V59.9537H39.665V57.7426Z" fill="#51B8AE"/>
<path d="M39.665 55.5382H37.4539V57.7493H39.665V55.5382Z" fill="#424242"/>
<path d="M39.665 53.3271H37.4539V55.5382H39.665V53.3271Z" fill="#323232"/>
<path d="M39.665 51.1226H37.4539V53.3337H39.665V51.1226Z" fill="#E91E63"/>
<path d="M39.665 48.9115H37.4539V51.1226H39.665V48.9115Z" fill="#ED4B82"/>
<path d="M39.665 46.7071H37.4539V48.9182H39.665V46.7071Z" fill="#424242"/>
<path d="M39.665 44.496H37.4539V46.7071H39.665V44.496Z" fill="#263238"/>
<path d="M39.665 42.2916H37.4539V44.5027H39.665V42.2916Z" fill="#263238"/>
<path d="M39.665 40.0805H37.4539V42.2916H39.665V40.0805Z" fill="#263238"/>
<path d="M39.665 37.8693H37.4539V40.0804H39.665V37.8693Z" fill="#424242"/>
<path d="M39.665 35.6583H37.4539V37.8694H39.665V35.6583Z" fill="#424242"/>
<path d="M39.665 33.4538H37.4539V35.6649H39.665V33.4538Z" fill="#424242"/>
<path d="M39.665 31.2428H37.4539V33.4539H39.665V31.2428Z" fill="#424242"/>
<path d="M39.665 29.0383H37.4539V31.2494H39.665V29.0383Z" fill="#424242"/>
<path d="M39.665 26.8272H37.4539V29.0383H39.665V26.8272Z" fill="#37474F"/>
<path d="M39.665 24.6228H37.4539V26.8339H39.665V24.6228Z" fill="#263238"/>
<path d="M39.665 22.4116H37.4539V24.6227H39.665V22.4116Z" fill="#37474F"/>
<path d="M39.665 20.2073H37.4539V22.4184H39.665V20.2073Z" fill="#263238"/>
<path d="M39.665 17.9961H37.4539V20.2072H39.665V17.9961Z" fill="#37474F"/>
<path d="M39.665 15.785H37.4539V17.9961H39.665V15.785Z" fill="#263238"/>
<path d="M39.665 13.5806H37.4539V15.7917H39.665V13.5806Z" fill="#37474F"/>
<path d="M37.4605 64.3693H35.2494V66.5804H37.4605V64.3693Z" fill="#FFB951"/>
<path d="M37.4605 62.1648H35.2494V64.3759H37.4605V62.1648Z" fill="#2196F3"/>
<path d="M37.4605 59.9537H35.2494V62.1648H37.4605V59.9537Z" fill="#B73229"/>
<path d="M37.4605 57.7426H35.2494V59.9537H37.4605V57.7426Z" fill="#26A69A"/>
<path d="M37.4605 55.5382H35.2494V57.7493H37.4605V55.5382Z" fill="#424242"/>
<path d="M37.4605 53.3271H35.2494V55.5382H37.4605V53.3271Z" fill="#424242"/>
<path d="M37.4605 51.1226H35.2494V53.3337H37.4605V51.1226Z" fill="#E91E63"/>
<path d="M37.4605 48.9115H35.2494V51.1226H37.4605V48.9115Z" fill="#ED4B82"/>
<path d="M37.4605 46.7071H35.2494V48.9182H37.4605V46.7071Z" fill="#424242"/>
<path d="M37.4605 44.496H35.2494V46.7071H37.4605V44.496Z" fill="#263238"/>
<path d="M37.4605 42.2916H35.2494V44.5027H37.4605V42.2916Z" fill="#424242"/>
<path d="M37.4605 40.0805H35.2494V42.2916H37.4605V40.0805Z" fill="#424242"/>
<path d="M37.4605 37.8693H35.2494V40.0804H37.4605V37.8693Z" fill="#424242"/>
<path d="M37.4605 35.6583H35.2494V37.8694H37.4605V35.6583Z" fill="#323232"/>
<path d="M37.4605 33.4538H35.2494V35.6649H37.4605V33.4538Z" fill="#424242"/>
<path d="M37.4605 31.2428H35.2494V33.4539H37.4605V31.2428Z" fill="#424242"/>
<path d="M37.4605 29.0383H35.2494V31.2494H37.4605V29.0383Z" fill="#424242"/>
<path d="M37.4605 26.8272H35.2494V29.0383H37.4605V26.8272Z" fill="#424242"/>
<path d="M37.4605 24.6228H35.2494V26.8339H37.4605V24.6228Z" fill="#37474F"/>
<path d="M37.4605 22.4116H35.2494V24.6227H37.4605V22.4116Z" fill="#263238"/>
<path d="M37.4605 20.2073H35.2494V22.4184H37.4605V20.2073Z" fill="#37474F"/>
<path d="M37.4605 17.9961H35.2494V20.2072H37.4605V17.9961Z" fill="#263238"/>
<path d="M37.4605 15.785H35.2494V17.9961H37.4605V15.785Z" fill="#37474F"/>
<path d="M37.4605 13.5806H35.2494V15.7917H37.4605V13.5806Z" fill="#263238"/>
<path d="M35.2494 64.3693H33.0383V66.5804H35.2494V64.3693Z" fill="#FFA726"/>
<path d="M35.2494 62.1648H33.0383V64.3759H35.2494V62.1648Z" fill="#4DABF5"/>
<path d="M35.2494 59.9537H33.0383V62.1648H35.2494V59.9537Z" fill="#F44336"/>
<path d="M35.2494 57.7426H33.0383V59.9537H35.2494V57.7426Z" fill="#51B8AE"/>
<path d="M35.2494 55.5382H33.0383V57.7493H35.2494V55.5382Z" fill="#424242"/>
<path d="M35.2494 53.3271H33.0383V55.5382H35.2494V53.3271Z" fill="#424242"/>
<path d="M35.2494 51.1226H33.0383V53.3337H35.2494V51.1226Z" fill="#424242"/>
<path d="M35.2494 48.9115H33.0383V51.1226H35.2494V48.9115Z" fill="#ED4B82"/>
<path d="M35.2494 46.7071H33.0383V48.9182H35.2494V46.7071Z" fill="#424242"/>
<path d="M35.2494 44.496H33.0383V46.7071H35.2494V44.496Z" fill="#424242"/>
<path d="M35.2494 42.2916H33.0383V44.5027H35.2494V42.2916Z" fill="#424242"/>
<path d="M35.2494 40.0805H33.0383V42.2916H35.2494V40.0805Z" fill="#FFF3E0"/>
<path d="M35.2494 37.8693H33.0383V40.0804H35.2494V37.8693Z" fill="#FFF3E0"/>
<path d="M35.2494 35.6583H33.0383V37.8694H35.2494V35.6583Z" fill="#FFF3E0"/>
<path d="M35.2494 33.4538H33.0383V35.6649H35.2494V33.4538Z" fill="#263238"/>
<path d="M35.2494 31.2428H33.0383V33.4539H35.2494V31.2428Z" fill="#424242"/>
<path d="M35.2494 29.0383H33.0383V31.2494H35.2494V29.0383Z" fill="#424242"/>
<path d="M35.2494 26.8272H33.0383V29.0383H35.2494V26.8272Z" fill="#424242"/>
<path d="M35.2494 24.6228H33.0383V26.8339H35.2494V24.6228Z" fill="#424242"/>
<path d="M35.2494 22.4116H33.0383V24.6227H35.2494V22.4116Z" fill="#37474F"/>
<path d="M35.2494 20.2073H33.0383V22.4184H35.2494V20.2073Z" fill="#263238"/>
<path d="M35.2494 17.9961H33.0383V20.2072H35.2494V17.9961Z" fill="#37474F"/>
<path d="M35.2494 15.785H33.0383V17.9961H35.2494V15.785Z" fill="#263238"/>
<path d="M35.2494 13.5806H33.0383V15.7917H35.2494V13.5806Z" fill="#37474F"/>
<path d="M33.045 55.5382H30.8339V57.7493H33.045V55.5382Z" fill="#424242"/>
<path d="M33.045 53.3271H30.8339V55.5382H33.045V53.3271Z" fill="#424242"/>
<path d="M33.045 51.1226H30.8339V53.3337H33.045V51.1226Z" fill="#424242"/>
<path d="M33.045 48.9115H30.8339V51.1226H33.045V48.9115Z" fill="#424242"/>
<path d="M33.045 46.7071H30.8339V48.9182H33.045V46.7071Z" fill="#ED4B82"/>
<path d="M33.045 44.496H30.8339V46.7071H33.045V44.496Z" fill="#424242"/>
<path d="M33.045 42.2916H30.8339V44.5027H33.045V42.2916Z" fill="#424242"/>
<path d="M33.045 40.0805H30.8339V42.2916H33.045V40.0805Z" fill="#FFF3E0"/>
<path d="M33.045 37.8693H30.8339V40.0804H33.045V37.8693Z" fill="#263238"/>
<path d="M33.045 35.6583H30.8339V37.8694H33.045V35.6583Z" fill="#263238"/>
<path d="M33.045 33.4538H30.8339V35.6649H33.045V33.4538Z" fill="#263238"/>
<path d="M33.045 31.2428H30.8339V33.4539H33.045V31.2428Z" fill="#424242"/>
<path d="M33.045 29.0383H30.8339V31.2494H33.045V29.0383Z" fill="#424242"/>
<path d="M33.045 26.8272H30.8339V29.0383H33.045V26.8272Z" fill="#424242"/>
<path d="M33.045 24.6228H30.8339V26.8339H33.045V24.6228Z" fill="#424242"/>
<path d="M33.045 22.4116H30.8339V24.6227H33.045V22.4116Z" fill="#263238"/>
<path d="M33.045 20.2073H30.8339V22.4184H33.045V20.2073Z" fill="#37474F"/>
<path d="M33.045 17.9961H30.8339V20.2072H33.045V17.9961Z" fill="#263238"/>
<path d="M33.045 15.785H30.8339V17.9961H33.045V15.785Z" fill="#37474F"/>
<path d="M33.045 13.5806H30.8339V15.7917H33.045V13.5806Z" fill="#263238"/>
<path d="M30.8339 53.3271H28.6228V55.5382H30.8339V53.3271Z" fill="#424242"/>
<path d="M30.8339 51.1226H28.6228V53.3337H30.8339V51.1226Z" fill="#424242"/>
<path d="M30.8339 48.9115H28.6228V51.1226H30.8339V48.9115Z" fill="#424242"/>
<path d="M30.8339 46.7071H28.6228V48.9182H30.8339V46.7071Z" fill="#424242"/>
<path d="M30.8339 44.496H28.6228V46.7071H30.8339V44.496Z" fill="#424242"/>
<path d="M30.8339 42.2916H28.6228V44.5027H30.8339V42.2916Z" fill="#424242"/>
<path d="M30.8339 40.0805H28.6228V42.2916H30.8339V40.0805Z" fill="#FFF3E0"/>
<path d="M30.8339 37.8693H28.6228V40.0804H30.8339V37.8693Z" fill="#FFF3E0"/>
<path d="M30.8339 35.6583H28.6228V37.8694H30.8339V35.6583Z" fill="#FFF3E0"/>
<path d="M30.8339 33.4538H28.6228V35.6649H30.8339V33.4538Z" fill="#263238"/>
<path d="M30.8339 31.2428H28.6228V33.4539H30.8339V31.2428Z" fill="#424242"/>
<path d="M30.8339 29.0383H28.6228V31.2494H30.8339V29.0383Z" fill="#424242"/>
<path d="M30.8339 26.8272H28.6228V29.0383H30.8339V26.8272Z" fill="#424242"/>
<path d="M30.8339 24.6228H28.6228V26.8339H30.8339V24.6228Z" fill="#263238"/>
<path d="M30.8339 22.4116H28.6228V24.6227H30.8339V22.4116Z" fill="#37474F"/>
<path d="M30.8339 20.2073H28.6228V22.4184H30.8339V20.2073Z" fill="#263238"/>
<path d="M30.8339 17.9961H28.6228V20.2072H30.8339V17.9961Z" fill="#37474F"/>
<path d="M30.8339 15.785H28.6228V17.9961H30.8339V15.785Z" fill="#263238"/>
<path d="M28.6294 51.1226H26.4183V53.3337H28.6294V51.1226Z" fill="#424242"/>
<path d="M28.6294 48.9115H26.4183V51.1226H28.6294V48.9115Z" fill="#424242"/>
<path d="M28.6294 46.7071H26.4183V48.9182H28.6294V46.7071Z" fill="#424242"/>
<path d="M28.6294 44.496H26.4183V46.7071H28.6294V44.496Z" fill="#424242"/>
<path d="M28.6294 42.2916H26.4183V44.5027H28.6294V42.2916Z" fill="#424242"/>
<path d="M28.6294 40.0805H26.4183V42.2916H28.6294V40.0805Z" fill="#424242"/>
<path d="M28.6294 37.8693H26.4183V40.0804H28.6294V37.8693Z" fill="#424242"/>
<path d="M28.6294 35.6583H26.4183V37.8694H28.6294V35.6583Z" fill="#263238"/>
<path d="M28.6294 33.4538H26.4183V35.6649H28.6294V33.4538Z" fill="#424242"/>
<path d="M28.6294 31.2428H26.4183V33.4539H28.6294V31.2428Z" fill="#424242"/>
<path d="M28.6294 29.0383H26.4183V31.2494H28.6294V29.0383Z" fill="#424242"/>
<path d="M28.6294 26.8272H26.4183V29.0383H28.6294V26.8272Z" fill="#263238"/>
<path d="M28.6294 24.6228H26.4183V26.8339H28.6294V24.6228Z" fill="#37474F"/>
<path d="M28.6294 22.4116H26.4183V24.6227H28.6294V22.4116Z" fill="#263238"/>
<path d="M28.6294 20.2073H26.4183V22.4184H28.6294V20.2073Z" fill="#37474F"/>
<path d="M28.6294 17.9961H26.4183V20.2072H28.6294V17.9961Z" fill="#263238"/>
<path d="M26.4184 48.9115H24.2073V51.1226H26.4184V48.9115Z" fill="#424242"/>
<path d="M26.4184 46.7071H24.2073V48.9182H26.4184V46.7071Z" fill="#424242"/>
<path d="M26.4184 44.496H24.2073V46.7071H26.4184V44.496Z" fill="#424242"/>
<path d="M26.4184 42.2916H24.2073V44.5027H26.4184V42.2916Z" fill="#424242"/>
<path d="M26.4184 40.0805H24.2073V42.2916H26.4184V40.0805Z" fill="#424242"/>
<path d="M26.4184 37.8693H24.2073V40.0804H26.4184V37.8693Z" fill="#424242"/>
<path d="M26.4184 35.6583H24.2073V37.8694H26.4184V35.6583Z" fill="#424242"/>
<path d="M26.4184 33.4538H24.2073V35.6649H26.4184V33.4538Z" fill="#263238"/>
<path d="M26.4184 31.2428H24.2073V33.4539H26.4184V31.2428Z" fill="#37474F"/>
<path d="M26.4184 29.0383H24.2073V31.2494H26.4184V29.0383Z" fill="#263238"/>
<path d="M26.4184 26.8272H24.2073V29.0383H26.4184V26.8272Z" fill="#37474F"/>
<path d="M26.4184 24.6228H24.2073V26.8339H26.4184V24.6228Z" fill="#263238"/>
<path d="M26.4184 22.4116H24.2073V24.6227H26.4184V22.4116Z" fill="#37474F"/>
<path d="M26.4184 20.2073H24.2073V22.4184H26.4184V20.2073Z" fill="#263238"/>
<path d="M24.2072 42.2916H21.9961V44.5027H24.2072V42.2916Z" fill="#424242"/>
<path d="M24.2072 40.0805H21.9961V42.2916H24.2072V40.0805Z" fill="#263238"/>
<path d="M24.2072 37.8693H21.9961V40.0804H24.2072V37.8693Z" fill="#263238"/>
<path d="M24.2072 35.6583H21.9961V37.8694H24.2072V35.6583Z" fill="#263238"/>
<path d="M24.2072 33.4538H21.9961V35.6649H24.2072V33.4538Z" fill="#424242"/>
<path d="M24.2072 31.2428H21.9961V33.4539H24.2072V31.2428Z" fill="#263238"/>
<path d="M24.2072 29.0383H21.9961V31.2494H24.2072V29.0383Z" fill="#37474F"/>
<path d="M24.2072 26.8272H21.9961V29.0383H24.2072V26.8272Z" fill="#263238"/>
<path d="M24.2072 24.6228H21.9961V26.8339H24.2072V24.6228Z" fill="#37474F"/>
<path d="M24.2072 22.4116H21.9961V24.6227H24.2072V22.4116Z" fill="#263238"/>
<path d="M22.0029 42.2916H19.7917V44.5027H22.0029V42.2916Z" fill="#424242"/>
<path d="M22.0029 40.0805H19.7917V42.2916H22.0029V40.0805Z" fill="#424242"/>
<path d="M22.0029 37.8693H19.7917V40.0804H22.0029V37.8693Z" fill="#424242"/>
<path d="M22.0029 35.6583H19.7917V37.8694H22.0029V35.6583Z" fill="#263238"/>
<path d="M22.0029 33.4538H19.7917V35.6649H22.0029V33.4538Z" fill="#424242"/>
<path d="M19.7917 40.0805H17.5806V42.2916H19.7917V40.0805Z" fill="#424242"/>
<path d="M19.7917 37.8693H17.5806V40.0804H19.7917V37.8693Z" fill="#424242"/>
<path d="M19.7917 35.6583H17.5806V37.8694H19.7917V35.6583Z" fill="#424242"/>
</svg>
