<svg width="103" height="31" viewBox="0 0 103 31" fill="none" xmlns="http://www.w3.org/2000/svg">
<path d="M1 4.625V1H4.79343M8.11268 1H18.5446M21.3897 1L81.6103 1M1 7.79688V24M1 26.375V30H4.79343M8.11268 30H18.5446M21.8638 30H81.6103M84.9296 30H94.8873M97.7324 30H102V26.375M102 24V7.79688M102 5.07812V1H97.7324M94.4131 1H84.4554" stroke="#667085" stroke-width="1.5"/>
<path d="M11.5397 7.91489V4.48936V4H91.4603V7.42553H94.4762V10.8511H99V19.1702H95.9841V22.5957H91.963V27H11.037V23.5745H8.52381V20.1489H4V10.8511H8.02116V7.91489H11.5397Z" fill="#D0D5DD"/>
<path d="M36.8589 17.12C36.9069 17.312 36.9309 17.552 36.9309 17.84C36.9309 18.116 36.9069 18.356 36.8589 18.56H36.1389C36.1869 18.752 36.2109 18.992 36.2109 19.28C36.2109 19.556 36.1869 19.796 36.1389 20H32.5389C32.4909 19.796 32.4669 19.556 32.4669 19.28C32.4669 18.992 32.4909 18.752 32.5389 18.56H31.8189C31.7709 18.356 31.7469 18.116 31.7469 17.84C31.7469 17.552 31.7709 17.312 31.8189 17.12H31.0989C31.0509 16.916 31.0269 16.676 31.0269 16.4C31.0269 16.112 31.0509 15.872 31.0989 15.68C31.0509 15.476 31.0269 15.236 31.0269 14.96C31.0269 14.672 31.0509 14.432 31.0989 14.24C31.0509 14.036 31.0269 13.796 31.0269 13.52C31.0269 13.232 31.0509 12.992 31.0989 12.8H31.8189C31.7709 12.596 31.7469 12.356 31.7469 12.08C31.7469 11.792 31.7709 11.552 31.8189 11.36H32.5389C32.4909 11.156 32.4669 10.916 32.4669 10.64C32.4669 10.352 32.4909 10.112 32.5389 9.92H36.1389C36.1869 10.112 36.2109 10.352 36.2109 10.64C36.2109 10.916 36.1869 11.156 36.1389 11.36H36.8589C36.9069 11.552 36.9309 11.792 36.9309 12.08C36.9309 12.356 36.9069 12.596 36.8589 12.8H35.4189C35.3709 12.596 35.3469 12.356 35.3469 12.08C35.3469 11.792 35.3709 11.552 35.4189 11.36H33.2589C33.3069 11.552 33.3309 11.792 33.3309 12.08C33.3309 12.356 33.3069 12.596 33.2589 12.8H32.5389C32.5869 12.992 32.6109 13.232 32.6109 13.52C32.6109 13.796 32.5869 14.036 32.5389 14.24C32.5869 14.432 32.6109 14.672 32.6109 14.96C32.6109 15.236 32.5869 15.476 32.5389 15.68C32.5869 15.872 32.6109 16.112 32.6109 16.4C32.6109 16.676 32.5869 16.916 32.5389 17.12H33.2589C33.3069 17.312 33.3309 17.552 33.3309 17.84C33.3309 18.116 33.3069 18.356 33.2589 18.56H35.4189C35.3709 18.356 35.3469 18.116 35.3469 17.84C35.3469 17.552 35.3709 17.312 35.4189 17.12H36.8589ZM44.1379 16.4C44.1379 16.676 44.1139 16.916 44.0659 17.12H43.5259C43.5739 17.312 43.5979 17.552 43.5979 17.84C43.5979 18.116 43.5739 18.356 43.5259 18.56H42.6259C42.6739 18.752 42.6979 18.992 42.6979 19.28C42.6979 19.556 42.6739 19.796 42.6259 20H39.7459C39.6979 19.796 39.6739 19.556 39.6739 19.28C39.6739 18.992 39.6979 18.752 39.7459 18.56H38.8459C38.7979 18.356 38.7739 18.116 38.7739 17.84C38.7739 17.552 38.7979 17.312 38.8459 17.12H38.3059C38.2579 16.916 38.2339 16.676 38.2339 16.4C38.2339 16.112 38.2579 15.872 38.3059 15.68H38.8459C38.7979 15.476 38.7739 15.236 38.7739 14.96C38.7739 14.672 38.7979 14.432 38.8459 14.24H39.7459C39.6979 14.036 39.6739 13.796 39.6739 13.52C39.6739 13.232 39.6979 12.992 39.7459 12.8H42.6259C42.6739 12.992 42.6979 13.232 42.6979 13.52C42.6979 13.796 42.6739 14.036 42.6259 14.24H43.5259C43.5739 14.432 43.5979 14.672 43.5979 14.96C43.5979 15.236 43.5739 15.476 43.5259 15.68H44.0659C44.1139 15.872 44.1379 16.112 44.1379 16.4ZM42.6259 17.12C42.5779 16.916 42.5539 16.676 42.5539 16.4C42.5539 16.112 42.5779 15.872 42.6259 15.68H42.0859C42.0379 15.476 42.0139 15.236 42.0139 14.96C42.0139 14.672 42.0379 14.432 42.0859 14.24H40.2859C40.3339 14.432 40.3579 14.672 40.3579 14.96C40.3579 15.236 40.3339 15.476 40.2859 15.68H39.7459C39.7939 15.872 39.8179 16.112 39.8179 16.4C39.8179 16.676 39.7939 16.916 39.7459 17.12H40.2859C40.3339 17.312 40.3579 17.552 40.3579 17.84C40.3579 18.116 40.3339 18.356 40.2859 18.56H42.0859C42.0379 18.356 42.0139 18.116 42.0139 17.84C42.0139 17.552 42.0379 17.312 42.0859 17.12H42.6259ZM46.485 13.52C46.485 13.796 46.461 14.036 46.413 14.24H46.953C47.001 14.432 47.025 14.672 47.025 14.96C47.025 15.236 47.001 15.476 46.953 15.68C47.001 15.872 47.025 16.112 47.025 16.4C47.025 16.676 47.001 16.916 46.953 17.12C47.001 17.312 47.025 17.552 47.025 17.84C47.025 18.116 47.001 18.356 46.953 18.56C47.001 18.752 47.025 18.992 47.025 19.28C47.025 19.556 47.001 19.796 46.953 20H45.513C45.465 19.796 45.441 19.556 45.441 19.28C45.441 18.992 45.465 18.752 45.513 18.56C45.465 18.356 45.441 18.116 45.441 17.84C45.441 17.552 45.465 17.312 45.513 17.12C45.465 16.916 45.441 16.676 45.441 16.4C45.441 16.112 45.465 15.872 45.513 15.68C45.465 15.476 45.441 15.236 45.441 14.96C45.441 14.672 45.465 14.432 45.513 14.24C45.465 14.036 45.441 13.796 45.441 13.52C45.441 13.232 45.465 12.992 45.513 12.8H46.413C46.461 12.992 46.485 13.232 46.485 13.52ZM48.465 13.52C48.465 13.796 48.441 14.036 48.393 14.24H48.933C48.981 14.432 49.005 14.672 49.005 14.96C49.005 15.236 48.981 15.476 48.933 15.68C48.981 15.872 49.005 16.112 49.005 16.4C49.005 16.676 48.981 16.916 48.933 17.12C48.981 17.312 49.005 17.552 49.005 17.84C49.005 18.116 48.981 18.356 48.933 18.56C48.981 18.752 49.005 18.992 49.005 19.28C49.005 19.556 48.981 19.796 48.933 20H47.853C47.805 19.796 47.781 19.556 47.781 19.28C47.781 18.992 47.805 18.752 47.853 18.56C47.805 18.356 47.781 18.116 47.781 17.84C47.781 17.552 47.805 17.312 47.853 17.12C47.805 16.916 47.781 16.676 47.781 16.4C47.781 16.112 47.805 15.872 47.853 15.68C47.805 15.476 47.781 15.236 47.781 14.96C47.781 14.672 47.805 14.432 47.853 14.24H46.953C46.905 14.036 46.881 13.796 46.881 13.52C46.881 13.232 46.905 12.992 46.953 12.8H48.393C48.441 12.992 48.465 13.232 48.465 13.52ZM51.273 15.68C51.321 15.872 51.345 16.112 51.345 16.4C51.345 16.676 51.321 16.916 51.273 17.12C51.321 17.312 51.345 17.552 51.345 17.84C51.345 18.116 51.321 18.356 51.273 18.56C51.321 18.752 51.345 18.992 51.345 19.28C51.345 19.556 51.321 19.796 51.273 20H49.833C49.785 19.796 49.761 19.556 49.761 19.28C49.761 18.992 49.785 18.752 49.833 18.56C49.785 18.356 49.761 18.116 49.761 17.84C49.761 17.552 49.785 17.312 49.833 17.12C49.785 16.916 49.761 16.676 49.761 16.4C49.761 16.112 49.785 15.872 49.833 15.68C49.785 15.476 49.761 15.236 49.761 14.96C49.761 14.672 49.785 14.432 49.833 14.24H48.933C48.885 14.036 48.861 13.796 48.861 13.52C48.861 13.232 48.885 12.992 48.933 12.8H50.553C50.601 12.992 50.625 13.232 50.625 13.52C50.625 13.796 50.601 14.036 50.553 14.24H51.273C51.321 14.432 51.345 14.672 51.345 14.96C51.345 15.236 51.321 15.476 51.273 15.68ZM53.692 13.52C53.692 13.796 53.668 14.036 53.62 14.24H54.16C54.208 14.432 54.232 14.672 54.232 14.96C54.232 15.236 54.208 15.476 54.16 15.68C54.208 15.872 54.232 16.112 54.232 16.4C54.232 16.676 54.208 16.916 54.16 17.12C54.208 17.312 54.232 17.552 54.232 17.84C54.232 18.116 54.208 18.356 54.16 18.56C54.208 18.752 54.232 18.992 54.232 19.28C54.232 19.556 54.208 19.796 54.16 20H52.72C52.672 19.796 52.648 19.556 52.648 19.28C52.648 18.992 52.672 18.752 52.72 18.56C52.672 18.356 52.648 18.116 52.648 17.84C52.648 17.552 52.672 17.312 52.72 17.12C52.672 16.916 52.648 16.676 52.648 16.4C52.648 16.112 52.672 15.872 52.72 15.68C52.672 15.476 52.648 15.236 52.648 14.96C52.648 14.672 52.672 14.432 52.72 14.24C52.672 14.036 52.648 13.796 52.648 13.52C52.648 13.232 52.672 12.992 52.72 12.8H53.62C53.668 12.992 53.692 13.232 53.692 13.52ZM55.672 13.52C55.672 13.796 55.648 14.036 55.6 14.24H56.14C56.188 14.432 56.212 14.672 56.212 14.96C56.212 15.236 56.188 15.476 56.14 15.68C56.188 15.872 56.212 16.112 56.212 16.4C56.212 16.676 56.188 16.916 56.14 17.12C56.188 17.312 56.212 17.552 56.212 17.84C56.212 18.116 56.188 18.356 56.14 18.56C56.188 18.752 56.212 18.992 56.212 19.28C56.212 19.556 56.188 19.796 56.14 20H55.06C55.012 19.796 54.988 19.556 54.988 19.28C54.988 18.992 55.012 18.752 55.06 18.56C55.012 18.356 54.988 18.116 54.988 17.84C54.988 17.552 55.012 17.312 55.06 17.12C55.012 16.916 54.988 16.676 54.988 16.4C54.988 16.112 55.012 15.872 55.06 15.68C55.012 15.476 54.988 15.236 54.988 14.96C54.988 14.672 55.012 14.432 55.06 14.24H54.16C54.112 14.036 54.088 13.796 54.088 13.52C54.088 13.232 54.112 12.992 54.16 12.8H55.6C55.648 12.992 55.672 13.232 55.672 13.52ZM58.48 15.68C58.528 15.872 58.552 16.112 58.552 16.4C58.552 16.676 58.528 16.916 58.48 17.12C58.528 17.312 58.552 17.552 58.552 17.84C58.552 18.116 58.528 18.356 58.48 18.56C58.528 18.752 58.552 18.992 58.552 19.28C58.552 19.556 58.528 19.796 58.48 20H57.04C56.992 19.796 56.968 19.556 56.968 19.28C56.968 18.992 56.992 18.752 57.04 18.56C56.992 18.356 56.968 18.116 56.968 17.84C56.968 17.552 56.992 17.312 57.04 17.12C56.992 16.916 56.968 16.676 56.968 16.4C56.968 16.112 56.992 15.872 57.04 15.68C56.992 15.476 56.968 15.236 56.968 14.96C56.968 14.672 56.992 14.432 57.04 14.24H56.14C56.092 14.036 56.068 13.796 56.068 13.52C56.068 13.232 56.092 12.992 56.14 12.8H57.76C57.808 12.992 57.832 13.232 57.832 13.52C57.832 13.796 57.808 14.036 57.76 14.24H58.48C58.528 14.432 58.552 14.672 58.552 14.96C58.552 15.236 58.528 15.476 58.48 15.68ZM65.759 16.4C65.759 16.676 65.735 16.916 65.687 17.12H65.147C65.195 17.312 65.219 17.552 65.219 17.84C65.219 18.116 65.195 18.356 65.147 18.56H64.247C64.295 18.752 64.319 18.992 64.319 19.28C64.319 19.556 64.295 19.796 64.247 20H61.367C61.319 19.796 61.295 19.556 61.295 19.28C61.295 18.992 61.319 18.752 61.367 18.56H60.467C60.419 18.356 60.395 18.116 60.395 17.84C60.395 17.552 60.419 17.312 60.467 17.12H59.927C59.879 16.916 59.855 16.676 59.855 16.4C59.855 16.112 59.879 15.872 59.927 15.68H60.467C60.419 15.476 60.395 15.236 60.395 14.96C60.395 14.672 60.419 14.432 60.467 14.24H61.367C61.319 14.036 61.295 13.796 61.295 13.52C61.295 13.232 61.319 12.992 61.367 12.8H64.247C64.295 12.992 64.319 13.232 64.319 13.52C64.319 13.796 64.295 14.036 64.247 14.24H65.147C65.195 14.432 65.219 14.672 65.219 14.96C65.219 15.236 65.195 15.476 65.147 15.68H65.687C65.735 15.872 65.759 16.112 65.759 16.4ZM64.247 17.12C64.199 16.916 64.175 16.676 64.175 16.4C64.175 16.112 64.199 15.872 64.247 15.68H63.707C63.659 15.476 63.635 15.236 63.635 14.96C63.635 14.672 63.659 14.432 63.707 14.24H61.907C61.955 14.432 61.979 14.672 61.979 14.96C61.979 15.236 61.955 15.476 61.907 15.68H61.367C61.415 15.872 61.439 16.112 61.439 16.4C61.439 16.676 61.415 16.916 61.367 17.12H61.907C61.955 17.312 61.979 17.552 61.979 17.84C61.979 18.116 61.955 18.356 61.907 18.56H63.707C63.659 18.356 63.635 18.116 63.635 17.84C63.635 17.552 63.659 17.312 63.707 17.12H64.247ZM68.4661 13.52C68.4661 13.796 68.4421 14.036 68.3941 14.24H69.1141C69.1621 14.432 69.1861 14.672 69.1861 14.96C69.1861 15.236 69.1621 15.476 69.1141 15.68H68.5741C68.6221 15.872 68.6461 16.112 68.6461 16.4C68.6461 16.676 68.6221 16.916 68.5741 17.12C68.6221 17.312 68.6461 17.552 68.6461 17.84C68.6461 18.116 68.6221 18.356 68.5741 18.56C68.6221 18.752 68.6461 18.992 68.6461 19.28C68.6461 19.556 68.6221 19.796 68.5741 20H67.1341C67.0861 19.796 67.0621 19.556 67.0621 19.28C67.0621 18.992 67.0861 18.752 67.1341 18.56C67.0861 18.356 67.0621 18.116 67.0621 17.84C67.0621 17.552 67.0861 17.312 67.1341 17.12C67.0861 16.916 67.0621 16.676 67.0621 16.4C67.0621 16.112 67.0861 15.872 67.1341 15.68C67.0861 15.476 67.0621 15.236 67.0621 14.96C67.0621 14.672 67.0861 14.432 67.1341 14.24C67.0861 14.036 67.0621 13.796 67.0621 13.52C67.0621 13.232 67.0861 12.992 67.1341 12.8H68.3941C68.4421 12.992 68.4661 13.232 68.4661 13.52ZM72.8941 15.68C72.9421 15.872 72.9661 16.112 72.9661 16.4C72.9661 16.676 72.9421 16.916 72.8941 17.12C72.9421 17.312 72.9661 17.552 72.9661 17.84C72.9661 18.116 72.9421 18.356 72.8941 18.56C72.9421 18.752 72.9661 18.992 72.9661 19.28C72.9661 19.556 72.9421 19.796 72.8941 20H71.4541C71.4061 19.796 71.3821 19.556 71.3821 19.28C71.3821 18.992 71.4061 18.752 71.4541 18.56C71.4061 18.356 71.3821 18.116 71.3821 17.84C71.3821 17.552 71.4061 17.312 71.4541 17.12C71.4061 16.916 71.3821 16.676 71.3821 16.4C71.3821 16.112 71.4061 15.872 71.4541 15.68C71.4061 15.476 71.3821 15.236 71.3821 14.96C71.3821 14.672 71.4061 14.432 71.4541 14.24H69.1141C69.0661 14.036 69.0421 13.796 69.0421 13.52C69.0421 13.232 69.0661 12.992 69.1141 12.8H71.9941C72.0421 12.992 72.0661 13.232 72.0661 13.52C72.0661 13.796 72.0421 14.036 71.9941 14.24H72.8941C72.9421 14.432 72.9661 14.672 72.9661 14.96C72.9661 15.236 72.9421 15.476 72.8941 15.68Z" fill="black"/>
</svg>
