<svg width="103" height="31" viewBox="0 0 103 31" fill="none" xmlns="http://www.w3.org/2000/svg">
<path d="M1 4.625V1H4.79343M8.11268 1H18.5446M21.3897 1L81.6103 1M1 7.79688V23.5M1 26.375V30H4.79343M8.11268 30H18.5446M21.8638 30H81.6103M84.9296 30H94.8873M97.7324 30H102V26.375M102 23.5V7.79688M102 5.07812V1H97.7324M94.4131 1H84.4554" stroke="#D92D20" stroke-width="1.5"/>
<path d="M7.97906 4H4V8.18182M95.0209 4H99V8.18182M99 22.8182V27H95.0209M7.97906 27H4V22.8182" stroke="#D92D20" stroke-width="2"/>
<path d="M11.5397 7.91489V4.48936V4H91.4603V7.42553H94.4762V10.8511H99V19.1702H95.9841V22.5957H91.963V27H11.037V23.5745H8.52381V20.1489H4V10.8511H8.02116V7.91489H11.5397Z" fill="#FDA29B"/>
<path d="M36.8589 11.36C36.9069 11.552 36.9309 11.792 36.9309 12.08C36.9309 12.356 36.9069 12.596 36.8589 12.8C36.9069 12.992 36.9309 13.232 36.9309 13.52C36.9309 13.796 36.9069 14.036 36.8589 14.24C36.9069 14.432 36.9309 14.672 36.9309 14.96C36.9309 15.236 36.9069 15.476 36.8589 15.68C36.9069 15.872 36.9309 16.112 36.9309 16.4C36.9309 16.676 36.9069 16.916 36.8589 17.12C36.9069 17.312 36.9309 17.552 36.9309 17.84C36.9309 18.116 36.9069 18.356 36.8589 18.56C36.9069 18.752 36.9309 18.992 36.9309 19.28C36.9309 19.556 36.9069 19.796 36.8589 20H35.4189C35.3709 19.796 35.3469 19.556 35.3469 19.28C35.3469 18.992 35.3709 18.752 35.4189 18.56C35.3709 18.356 35.3469 18.116 35.3469 17.84C35.3469 17.552 35.3709 17.312 35.4189 17.12C35.3709 16.916 35.3469 16.676 35.3469 16.4C35.3469 16.112 35.3709 15.872 35.4189 15.68C35.3709 15.476 35.3469 15.236 35.3469 14.96C35.3469 14.672 35.3709 14.432 35.4189 14.24C35.3709 14.036 35.3469 13.796 35.3469 13.52C35.3469 13.232 35.3709 12.992 35.4189 12.8H34.8789C34.9269 12.992 34.9509 13.232 34.9509 13.52C34.9509 13.796 34.9269 14.036 34.8789 14.24C34.9269 14.432 34.9509 14.672 34.9509 14.96C34.9509 15.236 34.9269 15.476 34.8789 15.68H34.5189C34.5669 15.872 34.5909 16.112 34.5909 16.4C34.5909 16.676 34.5669 16.916 34.5189 17.12C34.5669 17.312 34.5909 17.552 34.5909 17.84C34.5909 18.116 34.5669 18.356 34.5189 18.56H33.4389C33.3909 18.356 33.3669 18.116 33.3669 17.84C33.3669 17.552 33.3909 17.312 33.4389 17.12C33.3909 16.916 33.3669 16.676 33.3669 16.4C33.3669 16.112 33.3909 15.872 33.4389 15.68H33.0789C33.0309 15.476 33.0069 15.236 33.0069 14.96C33.0069 14.672 33.0309 14.432 33.0789 14.24C33.0309 14.036 33.0069 13.796 33.0069 13.52C33.0069 13.232 33.0309 12.992 33.0789 12.8H32.5389C32.5869 12.992 32.6109 13.232 32.6109 13.52C32.6109 13.796 32.5869 14.036 32.5389 14.24C32.5869 14.432 32.6109 14.672 32.6109 14.96C32.6109 15.236 32.5869 15.476 32.5389 15.68C32.5869 15.872 32.6109 16.112 32.6109 16.4C32.6109 16.676 32.5869 16.916 32.5389 17.12C32.5869 17.312 32.6109 17.552 32.6109 17.84C32.6109 18.116 32.5869 18.356 32.5389 18.56C32.5869 18.752 32.6109 18.992 32.6109 19.28C32.6109 19.556 32.5869 19.796 32.5389 20H31.0989C31.0509 19.796 31.0269 19.556 31.0269 19.28C31.0269 18.992 31.0509 18.752 31.0989 18.56C31.0509 18.356 31.0269 18.116 31.0269 17.84C31.0269 17.552 31.0509 17.312 31.0989 17.12C31.0509 16.916 31.0269 16.676 31.0269 16.4C31.0269 16.112 31.0509 15.872 31.0989 15.68C31.0509 15.476 31.0269 15.236 31.0269 14.96C31.0269 14.672 31.0509 14.432 31.0989 14.24C31.0509 14.036 31.0269 13.796 31.0269 13.52C31.0269 13.232 31.0509 12.992 31.0989 12.8C31.0509 12.596 31.0269 12.356 31.0269 12.08C31.0269 11.792 31.0509 11.552 31.0989 11.36C31.0509 11.156 31.0269 10.916 31.0269 10.64C31.0269 10.352 31.0509 10.112 31.0989 9.92H32.8989C32.9469 10.112 32.9709 10.352 32.9709 10.64C32.9709 10.916 32.9469 11.156 32.8989 11.36H33.4389C33.4869 11.552 33.5109 11.792 33.5109 12.08C33.5109 12.356 33.4869 12.596 33.4389 12.8H33.7089C33.7569 12.992 33.7809 13.232 33.7809 13.52C33.7809 13.796 33.7569 14.036 33.7089 14.24H34.2489C34.2009 14.036 34.1769 13.796 34.1769 13.52C34.1769 13.232 34.2009 12.992 34.2489 12.8H34.5189C34.4709 12.596 34.4469 12.356 34.4469 12.08C34.4469 11.792 34.4709 11.552 34.5189 11.36H35.0589C35.0109 11.156 34.9869 10.916 34.9869 10.64C34.9869 10.352 35.0109 10.112 35.0589 9.92H36.8589C36.9069 10.112 36.9309 10.352 36.9309 10.64C36.9309 10.916 36.9069 11.156 36.8589 11.36ZM44.1379 13.52C44.1379 13.796 44.1139 14.036 44.0659 14.24H43.5259C43.5739 14.432 43.5979 14.672 43.5979 14.96C43.5979 15.236 43.5739 15.476 43.5259 15.68H42.9859C43.0339 15.872 43.0579 16.112 43.0579 16.4C43.0579 16.676 43.0339 16.916 42.9859 17.12H42.6259C42.6739 17.312 42.6979 17.552 42.6979 17.84C42.6979 18.116 42.6739 18.356 42.6259 18.56H42.0859C42.1339 18.752 42.1579 18.992 42.1579 19.28C42.1579 19.556 42.1339 19.796 42.0859 20H41.7259C41.7739 20.192 41.7979 20.432 41.7979 20.72C41.7979 20.996 41.7739 21.236 41.7259 21.44H41.0059C41.0539 21.632 41.0779 21.872 41.0779 22.16C41.0779 22.436 41.0539 22.676 41.0059 22.88H38.8459C38.7979 22.676 38.7739 22.436 38.7739 22.16C38.7739 21.872 38.7979 21.632 38.8459 21.44H40.2859C40.2379 21.236 40.2139 20.996 40.2139 20.72C40.2139 20.432 40.2379 20.192 40.2859 20C40.2379 19.796 40.2139 19.556 40.2139 19.28C40.2139 18.992 40.2379 18.752 40.2859 18.56H39.5659C39.5179 18.356 39.4939 18.116 39.4939 17.84C39.4939 17.552 39.5179 17.312 39.5659 17.12H39.2059C39.1579 16.916 39.1339 16.676 39.1339 16.4C39.1339 16.112 39.1579 15.872 39.2059 15.68H38.6659C38.6179 15.476 38.5939 15.236 38.5939 14.96C38.5939 14.672 38.6179 14.432 38.6659 14.24H38.1259C38.0779 14.036 38.0539 13.796 38.0539 13.52C38.0539 13.232 38.0779 12.992 38.1259 12.8H39.5659C39.6139 12.992 39.6379 13.232 39.6379 13.52C39.6379 13.796 39.6139 14.036 39.5659 14.24H40.1059C40.1539 14.432 40.1779 14.672 40.1779 14.96C40.1779 15.236 40.1539 15.476 40.1059 15.68H40.6459C40.6939 15.872 40.7179 16.112 40.7179 16.4C40.7179 16.676 40.6939 16.916 40.6459 17.12C40.6939 17.312 40.7179 17.552 40.7179 17.84C40.7179 18.116 40.6939 18.356 40.6459 18.56H41.1859C41.1379 18.356 41.1139 18.116 41.1139 17.84C41.1139 17.552 41.1379 17.312 41.1859 17.12H41.5459C41.4979 16.916 41.4739 16.676 41.4739 16.4C41.4739 16.112 41.4979 15.872 41.5459 15.68H42.0859C42.0379 15.476 42.0139 15.236 42.0139 14.96C42.0139 14.672 42.0379 14.432 42.0859 14.24H42.6259C42.5779 14.036 42.5539 13.796 42.5539 13.52C42.5539 13.232 42.5779 12.992 42.6259 12.8H44.0659C44.1139 12.992 44.1379 13.232 44.1379 13.52ZM50.553 18.56C50.601 18.752 50.625 18.992 50.625 19.28C50.625 19.556 50.601 19.796 50.553 20H47.673C47.625 19.796 47.601 19.556 47.601 19.28C47.601 18.992 47.625 18.752 47.673 18.56H46.953C46.905 18.356 46.881 18.116 46.881 17.84C46.881 17.552 46.905 17.312 46.953 17.12C46.905 16.916 46.881 16.676 46.881 16.4C46.881 16.112 46.905 15.872 46.953 15.68C46.905 15.476 46.881 15.236 46.881 14.96C46.881 14.672 46.905 14.432 46.953 14.24H45.513C45.465 14.036 45.441 13.796 45.441 13.52C45.441 13.232 45.465 12.992 45.513 12.8H46.953C46.905 12.596 46.881 12.356 46.881 12.08C46.881 11.792 46.905 11.552 46.953 11.36C46.905 11.156 46.881 10.916 46.881 10.64C46.881 10.352 46.905 10.112 46.953 9.92H48.393C48.441 10.112 48.465 10.352 48.465 10.64C48.465 10.916 48.441 11.156 48.393 11.36C48.441 11.552 48.465 11.792 48.465 12.08C48.465 12.356 48.441 12.596 48.393 12.8H50.553C50.601 12.992 50.625 13.232 50.625 13.52C50.625 13.796 50.601 14.036 50.553 14.24H48.393C48.441 14.432 48.465 14.672 48.465 14.96C48.465 15.236 48.441 15.476 48.393 15.68C48.441 15.872 48.465 16.112 48.465 16.4C48.465 16.676 48.441 16.916 48.393 17.12C48.441 17.312 48.465 17.552 48.465 17.84C48.465 18.116 48.441 18.356 48.393 18.56H50.553ZM54.232 13.52C54.232 13.796 54.208 14.036 54.16 14.24H54.7C54.748 14.432 54.772 14.672 54.772 14.96C54.772 15.236 54.748 15.476 54.7 15.68H54.16C54.208 15.872 54.232 16.112 54.232 16.4C54.232 16.676 54.208 16.916 54.16 17.12C54.208 17.312 54.232 17.552 54.232 17.84C54.232 18.116 54.208 18.356 54.16 18.56C54.208 18.752 54.232 18.992 54.232 19.28C54.232 19.556 54.208 19.796 54.16 20H52.72C52.672 19.796 52.648 19.556 52.648 19.28C52.648 18.992 52.672 18.752 52.72 18.56C52.672 18.356 52.648 18.116 52.648 17.84C52.648 17.552 52.672 17.312 52.72 17.12C52.672 16.916 52.648 16.676 52.648 16.4C52.648 16.112 52.672 15.872 52.72 15.68C52.672 15.476 52.648 15.236 52.648 14.96C52.648 14.672 52.672 14.432 52.72 14.24C52.672 14.036 52.648 13.796 52.648 13.52C52.648 13.232 52.672 12.992 52.72 12.8C52.672 12.596 52.648 12.356 52.648 12.08C52.648 11.792 52.672 11.552 52.72 11.36C52.672 11.156 52.648 10.916 52.648 10.64C52.648 10.352 52.672 10.112 52.72 9.92H54.16C54.208 10.112 54.232 10.352 54.232 10.64C54.232 10.916 54.208 11.156 54.16 11.36C54.208 11.552 54.232 11.792 54.232 12.08C54.232 12.356 54.208 12.596 54.16 12.8C54.208 12.992 54.232 13.232 54.232 13.52ZM58.48 15.68C58.528 15.872 58.552 16.112 58.552 16.4C58.552 16.676 58.528 16.916 58.48 17.12C58.528 17.312 58.552 17.552 58.552 17.84C58.552 18.116 58.528 18.356 58.48 18.56C58.528 18.752 58.552 18.992 58.552 19.28C58.552 19.556 58.528 19.796 58.48 20H57.04C56.992 19.796 56.968 19.556 56.968 19.28C56.968 18.992 56.992 18.752 57.04 18.56C56.992 18.356 56.968 18.116 56.968 17.84C56.968 17.552 56.992 17.312 57.04 17.12C56.992 16.916 56.968 16.676 56.968 16.4C56.968 16.112 56.992 15.872 57.04 15.68C56.992 15.476 56.968 15.236 56.968 14.96C56.968 14.672 56.992 14.432 57.04 14.24H54.7C54.652 14.036 54.628 13.796 54.628 13.52C54.628 13.232 54.652 12.992 54.7 12.8H57.58C57.628 12.992 57.652 13.232 57.652 13.52C57.652 13.796 57.628 14.036 57.58 14.24H58.48C58.528 14.432 58.552 14.672 58.552 14.96C58.552 15.236 58.528 15.476 58.48 15.68ZM62.087 11.36C62.039 11.156 62.015 10.916 62.015 10.64C62.015 10.352 62.039 10.112 62.087 9.92H63.527C63.575 10.112 63.599 10.352 63.599 10.64C63.599 10.916 63.575 11.156 63.527 11.36H62.087ZM64.967 18.56C65.015 18.752 65.039 18.992 65.039 19.28C65.039 19.556 65.015 19.796 64.967 20H60.647C60.599 19.796 60.575 19.556 60.575 19.28C60.575 18.992 60.599 18.752 60.647 18.56H62.087C62.039 18.356 62.015 18.116 62.015 17.84C62.015 17.552 62.039 17.312 62.087 17.12C62.039 16.916 62.015 16.676 62.015 16.4C62.015 16.112 62.039 15.872 62.087 15.68C62.039 15.476 62.015 15.236 62.015 14.96C62.015 14.672 62.039 14.432 62.087 14.24H61.007C60.959 14.036 60.935 13.796 60.935 13.52C60.935 13.232 60.959 12.992 61.007 12.8H63.527C63.575 12.992 63.599 13.232 63.599 13.52C63.599 13.796 63.575 14.036 63.527 14.24C63.575 14.432 63.599 14.672 63.599 14.96C63.599 15.236 63.575 15.476 63.527 15.68C63.575 15.872 63.599 16.112 63.599 16.4C63.599 16.676 63.575 16.916 63.527 17.12C63.575 17.312 63.599 17.552 63.599 17.84C63.599 18.116 63.575 18.356 63.527 18.56H64.967ZM72.8941 17.12C72.9421 17.312 72.9661 17.552 72.9661 17.84C72.9661 18.116 72.9421 18.356 72.8941 18.56H72.1741C72.2221 18.752 72.2461 18.992 72.2461 19.28C72.2461 19.556 72.2221 19.796 72.1741 20H68.5741C68.5261 19.796 68.5021 19.556 68.5021 19.28C68.5021 18.992 68.5261 18.752 68.5741 18.56H67.8541C67.8061 18.356 67.7821 18.116 67.7821 17.84C67.7821 17.552 67.8061 17.312 67.8541 17.12H67.1341C67.0861 16.916 67.0621 16.676 67.0621 16.4C67.0621 16.112 67.0861 15.872 67.1341 15.68H67.8541C67.8061 15.476 67.7821 15.236 67.7821 14.96C67.7821 14.672 67.8061 14.432 67.8541 14.24H68.5741C68.5261 14.036 68.5021 13.796 68.5021 13.52C68.5021 13.232 68.5261 12.992 68.5741 12.8H72.1741C72.2221 12.992 72.2461 13.232 72.2461 13.52C72.2461 13.796 72.2221 14.036 72.1741 14.24H72.8941C72.9421 14.432 72.9661 14.672 72.9661 14.96C72.9661 15.236 72.9421 15.476 72.8941 15.68H71.4541C71.4061 15.476 71.3821 15.236 71.3821 14.96C71.3821 14.672 71.4061 14.432 71.4541 14.24H69.2941C69.3421 14.432 69.3661 14.672 69.3661 14.96C69.3661 15.236 69.3421 15.476 69.2941 15.68H68.5741C68.6221 15.872 68.6461 16.112 68.6461 16.4C68.6461 16.676 68.6221 16.916 68.5741 17.12H69.2941C69.3421 17.312 69.3661 17.552 69.3661 17.84C69.3661 18.116 69.3421 18.356 69.2941 18.56H71.4541C71.4061 18.356 71.3821 18.116 71.3821 17.84C71.3821 17.552 71.4061 17.312 71.4541 17.12H72.8941Z" fill="black"/>
</svg>
