<svg width="103" height="31" viewBox="0 0 103 31" fill="none" xmlns="http://www.w3.org/2000/svg">
<path d="M1 4.625V1H4.79343M8.11268 1H18.5446M21.3897 1L81.6103 1M1 7.79688V24M1 26.375V30H4.79343M8.11268 30H18.5446M21.8638 30H81.6103M84.9296 30H94.8873M97.7324 30H102V26.375M102 24V7.79688M102 5.07812V1H97.7324M94.4131 1H84.4554" stroke="#5F948D" stroke-width="1.5"/>
<path d="M11.5397 7.91489V4.48936V4H91.4603V7.42553H94.4762V10.8511H99V19.1702H95.9841V22.5957H91.963V27H11.037V23.5745H8.52381V20.1489H4V10.8511H8.02116V7.91489H11.5397Z" fill="#4BE8CB"/>
<path d="M33.7554 14.24C33.8034 14.432 33.8274 14.672 33.8274 14.96C33.8274 15.236 33.8034 15.476 33.7554 15.68C33.8034 15.872 33.8274 16.112 33.8274 16.4C33.8274 16.676 33.8034 16.916 33.7554 17.12H33.0354C33.0834 17.312 33.1074 17.552 33.1074 17.84C33.1074 18.116 33.0834 18.356 33.0354 18.56H32.3154C32.3634 18.752 32.3874 18.992 32.3874 19.28C32.3874 19.556 32.3634 19.796 32.3154 20H27.9954C27.9474 19.796 27.9234 19.556 27.9234 19.28C27.9234 18.992 27.9474 18.752 27.9954 18.56C27.9474 18.356 27.9234 18.116 27.9234 17.84C27.9234 17.552 27.9474 17.312 27.9954 17.12C27.9474 16.916 27.9234 16.676 27.9234 16.4C27.9234 16.112 27.9474 15.872 27.9954 15.68C27.9474 15.476 27.9234 15.236 27.9234 14.96C27.9234 14.672 27.9474 14.432 27.9954 14.24C27.9474 14.036 27.9234 13.796 27.9234 13.52C27.9234 13.232 27.9474 12.992 27.9954 12.8C27.9474 12.596 27.9234 12.356 27.9234 12.08C27.9234 11.792 27.9474 11.552 27.9954 11.36C27.9474 11.156 27.9234 10.916 27.9234 10.64C27.9234 10.352 27.9474 10.112 27.9954 9.92H32.3154C32.3634 10.112 32.3874 10.352 32.3874 10.64C32.3874 10.916 32.3634 11.156 32.3154 11.36H33.0354C33.0834 11.552 33.1074 11.792 33.1074 12.08C33.1074 12.356 33.0834 12.596 33.0354 12.8H33.7554C33.8034 12.992 33.8274 13.232 33.8274 13.52C33.8274 13.796 33.8034 14.036 33.7554 14.24ZM32.3154 17.12C32.2674 16.916 32.2434 16.676 32.2434 16.4C32.2434 16.112 32.2674 15.872 32.3154 15.68C32.2674 15.476 32.2434 15.236 32.2434 14.96C32.2434 14.672 32.2674 14.432 32.3154 14.24C32.2674 14.036 32.2434 13.796 32.2434 13.52C32.2434 13.232 32.2674 12.992 32.3154 12.8H31.5954C31.5474 12.596 31.5234 12.356 31.5234 12.08C31.5234 11.792 31.5474 11.552 31.5954 11.36H29.4354C29.4834 11.552 29.5074 11.792 29.5074 12.08C29.5074 12.356 29.4834 12.596 29.4354 12.8C29.4834 12.992 29.5074 13.232 29.5074 13.52C29.5074 13.796 29.4834 14.036 29.4354 14.24C29.4834 14.432 29.5074 14.672 29.5074 14.96C29.5074 15.236 29.4834 15.476 29.4354 15.68C29.4834 15.872 29.5074 16.112 29.5074 16.4C29.5074 16.676 29.4834 16.916 29.4354 17.12C29.4834 17.312 29.5074 17.552 29.5074 17.84C29.5074 18.116 29.4834 18.356 29.4354 18.56H31.5954C31.5474 18.356 31.5234 18.116 31.5234 17.84C31.5234 17.552 31.5474 17.312 31.5954 17.12H32.3154ZM37.3624 11.36C37.3144 11.156 37.2904 10.916 37.2904 10.64C37.2904 10.352 37.3144 10.112 37.3624 9.92H38.8024C38.8504 10.112 38.8744 10.352 38.8744 10.64C38.8744 10.916 38.8504 11.156 38.8024 11.36H37.3624ZM40.2424 18.56C40.2904 18.752 40.3144 18.992 40.3144 19.28C40.3144 19.556 40.2904 19.796 40.2424 20H35.9224C35.8744 19.796 35.8504 19.556 35.8504 19.28C35.8504 18.992 35.8744 18.752 35.9224 18.56H37.3624C37.3144 18.356 37.2904 18.116 37.2904 17.84C37.2904 17.552 37.3144 17.312 37.3624 17.12C37.3144 16.916 37.2904 16.676 37.2904 16.4C37.2904 16.112 37.3144 15.872 37.3624 15.68C37.3144 15.476 37.2904 15.236 37.2904 14.96C37.2904 14.672 37.3144 14.432 37.3624 14.24H36.2824C36.2344 14.036 36.2104 13.796 36.2104 13.52C36.2104 13.232 36.2344 12.992 36.2824 12.8H38.8024C38.8504 12.992 38.8744 13.232 38.8744 13.52C38.8744 13.796 38.8504 14.036 38.8024 14.24C38.8504 14.432 38.8744 14.672 38.8744 14.96C38.8744 15.236 38.8504 15.476 38.8024 15.68C38.8504 15.872 38.8744 16.112 38.8744 16.4C38.8744 16.676 38.8504 16.916 38.8024 17.12C38.8504 17.312 38.8744 17.552 38.8744 17.84C38.8744 18.116 38.8504 18.356 38.8024 18.56H40.2424ZM48.1695 18.56C48.2175 18.752 48.2415 18.992 48.2415 19.28C48.2415 19.556 48.2175 19.796 48.1695 20H46.7295C46.6815 19.796 46.6575 19.556 46.6575 19.28C46.6575 18.992 46.6815 18.752 46.7295 18.56H46.0095C45.9615 18.356 45.9375 18.116 45.9375 17.84C45.9375 17.552 45.9615 17.312 46.0095 17.12H43.8495C43.8975 17.312 43.9215 17.552 43.9215 17.84C43.9215 18.116 43.8975 18.356 43.8495 18.56H46.0095C46.0575 18.752 46.0815 18.992 46.0815 19.28C46.0815 19.556 46.0575 19.796 46.0095 20H43.1295C43.0815 19.796 43.0575 19.556 43.0575 19.28C43.0575 18.992 43.0815 18.752 43.1295 18.56H42.4095C42.3615 18.356 42.3375 18.116 42.3375 17.84C42.3375 17.552 42.3615 17.312 42.4095 17.12H43.1295C43.0815 16.916 43.0575 16.676 43.0575 16.4C43.0575 16.112 43.0815 15.872 43.1295 15.68H46.0095C45.9615 15.476 45.9375 15.236 45.9375 14.96C45.9375 14.672 45.9615 14.432 46.0095 14.24H43.4895C43.4415 14.036 43.4175 13.796 43.4175 13.52C43.4175 13.232 43.4415 12.992 43.4895 12.8H46.7295C46.7775 12.992 46.8015 13.232 46.8015 13.52C46.8015 13.796 46.7775 14.036 46.7295 14.24H47.4495C47.4975 14.432 47.5215 14.672 47.5215 14.96C47.5215 15.236 47.4975 15.476 47.4495 15.68C47.4975 15.872 47.5215 16.112 47.5215 16.4C47.5215 16.676 47.4975 16.916 47.4495 17.12C47.4975 17.312 47.5215 17.552 47.5215 17.84C47.5215 18.116 47.4975 18.356 47.4495 18.56H48.1695ZM50.5885 13.52C50.5885 13.796 50.5645 14.036 50.5165 14.24H51.0565C51.1045 14.432 51.1285 14.672 51.1285 14.96C51.1285 15.236 51.1045 15.476 51.0565 15.68C51.1045 15.872 51.1285 16.112 51.1285 16.4C51.1285 16.676 51.1045 16.916 51.0565 17.12C51.1045 17.312 51.1285 17.552 51.1285 17.84C51.1285 18.116 51.1045 18.356 51.0565 18.56C51.1045 18.752 51.1285 18.992 51.1285 19.28C51.1285 19.556 51.1045 19.796 51.0565 20H49.6165C49.5685 19.796 49.5445 19.556 49.5445 19.28C49.5445 18.992 49.5685 18.752 49.6165 18.56C49.5685 18.356 49.5445 18.116 49.5445 17.84C49.5445 17.552 49.5685 17.312 49.6165 17.12C49.5685 16.916 49.5445 16.676 49.5445 16.4C49.5445 16.112 49.5685 15.872 49.6165 15.68C49.5685 15.476 49.5445 15.236 49.5445 14.96C49.5445 14.672 49.5685 14.432 49.6165 14.24C49.5685 14.036 49.5445 13.796 49.5445 13.52C49.5445 13.232 49.5685 12.992 49.6165 12.8H50.5165C50.5645 12.992 50.5885 13.232 50.5885 13.52ZM52.5685 13.52C52.5685 13.796 52.5445 14.036 52.4965 14.24H53.0365C53.0845 14.432 53.1085 14.672 53.1085 14.96C53.1085 15.236 53.0845 15.476 53.0365 15.68C53.0845 15.872 53.1085 16.112 53.1085 16.4C53.1085 16.676 53.0845 16.916 53.0365 17.12C53.0845 17.312 53.1085 17.552 53.1085 17.84C53.1085 18.116 53.0845 18.356 53.0365 18.56C53.0845 18.752 53.1085 18.992 53.1085 19.28C53.1085 19.556 53.0845 19.796 53.0365 20H51.9565C51.9085 19.796 51.8845 19.556 51.8845 19.28C51.8845 18.992 51.9085 18.752 51.9565 18.56C51.9085 18.356 51.8845 18.116 51.8845 17.84C51.8845 17.552 51.9085 17.312 51.9565 17.12C51.9085 16.916 51.8845 16.676 51.8845 16.4C51.8845 16.112 51.9085 15.872 51.9565 15.68C51.9085 15.476 51.8845 15.236 51.8845 14.96C51.8845 14.672 51.9085 14.432 51.9565 14.24H51.0565C51.0085 14.036 50.9845 13.796 50.9845 13.52C50.9845 13.232 51.0085 12.992 51.0565 12.8H52.4965C52.5445 12.992 52.5685 13.232 52.5685 13.52ZM55.3765 15.68C55.4245 15.872 55.4485 16.112 55.4485 16.4C55.4485 16.676 55.4245 16.916 55.3765 17.12C55.4245 17.312 55.4485 17.552 55.4485 17.84C55.4485 18.116 55.4245 18.356 55.3765 18.56C55.4245 18.752 55.4485 18.992 55.4485 19.28C55.4485 19.556 55.4245 19.796 55.3765 20H53.9365C53.8885 19.796 53.8645 19.556 53.8645 19.28C53.8645 18.992 53.8885 18.752 53.9365 18.56C53.8885 18.356 53.8645 18.116 53.8645 17.84C53.8645 17.552 53.8885 17.312 53.9365 17.12C53.8885 16.916 53.8645 16.676 53.8645 16.4C53.8645 16.112 53.8885 15.872 53.9365 15.68C53.8885 15.476 53.8645 15.236 53.8645 14.96C53.8645 14.672 53.8885 14.432 53.9365 14.24H53.0365C52.9885 14.036 52.9645 13.796 52.9645 13.52C52.9645 13.232 52.9885 12.992 53.0365 12.8H54.6565C54.7045 12.992 54.7285 13.232 54.7285 13.52C54.7285 13.796 54.7045 14.036 54.6565 14.24H55.3765C55.4245 14.432 55.4485 14.672 55.4485 14.96C55.4485 15.236 55.4245 15.476 55.3765 15.68ZM62.6555 16.4C62.6555 16.676 62.6315 16.916 62.5835 17.12H62.0435C62.0915 17.312 62.1155 17.552 62.1155 17.84C62.1155 18.116 62.0915 18.356 62.0435 18.56H61.1435C61.1915 18.752 61.2155 18.992 61.2155 19.28C61.2155 19.556 61.1915 19.796 61.1435 20H58.2635C58.2155 19.796 58.1915 19.556 58.1915 19.28C58.1915 18.992 58.2155 18.752 58.2635 18.56H57.3635C57.3155 18.356 57.2915 18.116 57.2915 17.84C57.2915 17.552 57.3155 17.312 57.3635 17.12H56.8235C56.7755 16.916 56.7515 16.676 56.7515 16.4C56.7515 16.112 56.7755 15.872 56.8235 15.68H57.3635C57.3155 15.476 57.2915 15.236 57.2915 14.96C57.2915 14.672 57.3155 14.432 57.3635 14.24H58.2635C58.2155 14.036 58.1915 13.796 58.1915 13.52C58.1915 13.232 58.2155 12.992 58.2635 12.8H61.1435C61.1915 12.992 61.2155 13.232 61.2155 13.52C61.2155 13.796 61.1915 14.036 61.1435 14.24H62.0435C62.0915 14.432 62.1155 14.672 62.1155 14.96C62.1155 15.236 62.0915 15.476 62.0435 15.68H62.5835C62.6315 15.872 62.6555 16.112 62.6555 16.4ZM61.1435 17.12C61.0955 16.916 61.0715 16.676 61.0715 16.4C61.0715 16.112 61.0955 15.872 61.1435 15.68H60.6035C60.5555 15.476 60.5315 15.236 60.5315 14.96C60.5315 14.672 60.5555 14.432 60.6035 14.24H58.8035C58.8515 14.432 58.8755 14.672 58.8755 14.96C58.8755 15.236 58.8515 15.476 58.8035 15.68H58.2635C58.3115 15.872 58.3355 16.112 58.3355 16.4C58.3355 16.676 58.3115 16.916 58.2635 17.12H58.8035C58.8515 17.312 58.8755 17.552 58.8755 17.84C58.8755 18.116 58.8515 18.356 58.8035 18.56H60.6035C60.5555 18.356 60.5315 18.116 60.5315 17.84C60.5315 17.552 60.5555 17.312 60.6035 17.12H61.1435ZM65.3625 13.52C65.3625 13.796 65.3385 14.036 65.2905 14.24H66.0105C66.0585 14.432 66.0825 14.672 66.0825 14.96C66.0825 15.236 66.0585 15.476 66.0105 15.68H65.4705C65.5185 15.872 65.5425 16.112 65.5425 16.4C65.5425 16.676 65.5185 16.916 65.4705 17.12C65.5185 17.312 65.5425 17.552 65.5425 17.84C65.5425 18.116 65.5185 18.356 65.4705 18.56C65.5185 18.752 65.5425 18.992 65.5425 19.28C65.5425 19.556 65.5185 19.796 65.4705 20H64.0305C63.9825 19.796 63.9585 19.556 63.9585 19.28C63.9585 18.992 63.9825 18.752 64.0305 18.56C63.9825 18.356 63.9585 18.116 63.9585 17.84C63.9585 17.552 63.9825 17.312 64.0305 17.12C63.9825 16.916 63.9585 16.676 63.9585 16.4C63.9585 16.112 63.9825 15.872 64.0305 15.68C63.9825 15.476 63.9585 15.236 63.9585 14.96C63.9585 14.672 63.9825 14.432 64.0305 14.24C63.9825 14.036 63.9585 13.796 63.9585 13.52C63.9585 13.232 63.9825 12.992 64.0305 12.8H65.2905C65.3385 12.992 65.3625 13.232 65.3625 13.52ZM69.7905 15.68C69.8385 15.872 69.8625 16.112 69.8625 16.4C69.8625 16.676 69.8385 16.916 69.7905 17.12C69.8385 17.312 69.8625 17.552 69.8625 17.84C69.8625 18.116 69.8385 18.356 69.7905 18.56C69.8385 18.752 69.8625 18.992 69.8625 19.28C69.8625 19.556 69.8385 19.796 69.7905 20H68.3505C68.3025 19.796 68.2785 19.556 68.2785 19.28C68.2785 18.992 68.3025 18.752 68.3505 18.56C68.3025 18.356 68.2785 18.116 68.2785 17.84C68.2785 17.552 68.3025 17.312 68.3505 17.12C68.3025 16.916 68.2785 16.676 68.2785 16.4C68.2785 16.112 68.3025 15.872 68.3505 15.68C68.3025 15.476 68.2785 15.236 68.2785 14.96C68.2785 14.672 68.3025 14.432 68.3505 14.24H66.0105C65.9625 14.036 65.9385 13.796 65.9385 13.52C65.9385 13.232 65.9625 12.992 66.0105 12.8H68.8905C68.9385 12.992 68.9625 13.232 68.9625 13.52C68.9625 13.796 68.9385 14.036 68.8905 14.24H69.7905C69.8385 14.432 69.8625 14.672 69.8625 14.96C69.8625 15.236 69.8385 15.476 69.7905 15.68ZM76.9976 11.36C77.0456 11.552 77.0696 11.792 77.0696 12.08C77.0696 12.356 77.0456 12.596 76.9976 12.8C77.0456 12.992 77.0696 13.232 77.0696 13.52C77.0696 13.796 77.0456 14.036 76.9976 14.24C77.0456 14.432 77.0696 14.672 77.0696 14.96C77.0696 15.236 77.0456 15.476 76.9976 15.68C77.0456 15.872 77.0696 16.112 77.0696 16.4C77.0696 16.676 77.0456 16.916 76.9976 17.12C77.0456 17.312 77.0696 17.552 77.0696 17.84C77.0696 18.116 77.0456 18.356 76.9976 18.56C77.0456 18.752 77.0696 18.992 77.0696 19.28C77.0696 19.556 77.0456 19.796 76.9976 20H75.5576C75.5096 19.796 75.4856 19.556 75.4856 19.28C75.4856 18.992 75.5096 18.752 75.5576 18.56H75.0176C74.9696 18.356 74.9456 18.116 74.9456 17.84C74.9456 17.552 74.9696 17.312 75.0176 17.12H75.5576C75.5096 16.916 75.4856 16.676 75.4856 16.4C75.4856 16.112 75.5096 15.872 75.5576 15.68H75.0176C74.9696 15.476 74.9456 15.236 74.9456 14.96C74.9456 14.672 74.9696 14.432 75.0176 14.24H75.5576C75.5096 14.036 75.4856 13.796 75.4856 13.52C75.4856 13.232 75.5096 12.992 75.5576 12.8C75.5096 12.596 75.4856 12.356 75.4856 12.08C75.4856 11.792 75.5096 11.552 75.5576 11.36C75.5096 11.156 75.4856 10.916 75.4856 10.64C75.4856 10.352 75.5096 10.112 75.5576 9.92H76.9976C77.0456 10.112 77.0696 10.352 77.0696 10.64C77.0696 10.916 77.0456 11.156 76.9976 11.36ZM74.7296 13.52C74.7296 13.796 74.7056 14.036 74.6576 14.24H72.8576C72.9056 14.432 72.9296 14.672 72.9296 14.96C72.9296 15.236 72.9056 15.476 72.8576 15.68H72.3176C72.3656 15.872 72.3896 16.112 72.3896 16.4C72.3896 16.676 72.3656 16.916 72.3176 17.12H72.8576C72.9056 17.312 72.9296 17.552 72.9296 17.84C72.9296 18.116 72.9056 18.356 72.8576 18.56H74.6576C74.7056 18.752 74.7296 18.992 74.7296 19.28C74.7296 19.556 74.7056 19.796 74.6576 20H72.6776C72.6296 19.796 72.6056 19.556 72.6056 19.28C72.6056 18.992 72.6296 18.752 72.6776 18.56H71.7776C71.7296 18.356 71.7056 18.116 71.7056 17.84C71.7056 17.552 71.7296 17.312 71.7776 17.12H71.2376C71.1896 16.916 71.1656 16.676 71.1656 16.4C71.1656 16.112 71.1896 15.872 71.2376 15.68H71.7776C71.7296 15.476 71.7056 15.236 71.7056 14.96C71.7056 14.672 71.7296 14.432 71.7776 14.24H72.6776C72.6296 14.036 72.6056 13.796 72.6056 13.52C72.6056 13.232 72.6296 12.992 72.6776 12.8H74.6576C74.7056 12.992 74.7296 13.232 74.7296 13.52Z" fill="black"/>
</svg>
