<svg width="103" height="31" viewBox="0 0 103 31" fill="none" xmlns="http://www.w3.org/2000/svg">
<path d="M1 4.625V1H4.79343M8.11268 1H18.5446M21.3897 1L81.6103 1M1 7.79688V23.5M1 26.375V30H4.79343M8.11268 30H18.5446M21.8638 30H81.6103M84.9296 30H94.8873M97.7324 30H102V26.375M102 23.5V7.79688M102 5.07812V1H97.7324M94.4131 1H84.4554" stroke="#C6A13A" stroke-width="1.5"/>
<path d="M7.97906 4H4V8.18182M95.0209 4H99V8.18182M99 22.8182V27H95.0209M7.97906 27H4V22.8182" stroke="#C6A13A" stroke-width="2"/>
<path d="M11.5397 7.91489V4.48936V4H91.4603V7.42553H94.4762V10.8511H99V19.1702H95.9841V22.5957H91.963V27H11.037V23.5745H8.52381V20.1489H4V10.8511H8.02116V7.91489H11.5397Z" fill="#FEDF89"/>
<path d="M44.5659 14.24C44.6139 14.432 44.6379 14.672 44.6379 14.96C44.6379 15.236 44.6139 15.476 44.5659 15.68C44.6139 15.872 44.6379 16.112 44.6379 16.4C44.6379 16.676 44.6139 16.916 44.5659 17.12C44.6139 17.312 44.6379 17.552 44.6379 17.84C44.6379 18.116 44.6139 18.356 44.5659 18.56H43.8459C43.8939 18.752 43.9179 18.992 43.9179 19.28C43.9179 19.556 43.8939 19.796 43.8459 20H40.2459C40.1979 19.796 40.1739 19.556 40.1739 19.28C40.1739 18.992 40.1979 18.752 40.2459 18.56H39.5259C39.4779 18.356 39.4539 18.116 39.4539 17.84C39.4539 17.552 39.4779 17.312 39.5259 17.12H38.8059C38.7579 16.916 38.7339 16.676 38.7339 16.4C38.7339 16.112 38.7579 15.872 38.8059 15.68C38.7579 15.476 38.7339 15.236 38.7339 14.96C38.7339 14.672 38.7579 14.432 38.8059 14.24C38.7579 14.036 38.7339 13.796 38.7339 13.52C38.7339 13.232 38.7579 12.992 38.8059 12.8H39.5259C39.4779 12.596 39.4539 12.356 39.4539 12.08C39.4539 11.792 39.4779 11.552 39.5259 11.36H40.2459C40.1979 11.156 40.1739 10.916 40.1739 10.64C40.1739 10.352 40.1979 10.112 40.2459 9.92H43.8459C43.8939 10.112 43.9179 10.352 43.9179 10.64C43.9179 10.916 43.8939 11.156 43.8459 11.36H44.5659C44.6139 11.552 44.6379 11.792 44.6379 12.08C44.6379 12.356 44.6139 12.596 44.5659 12.8H43.1259C43.0779 12.596 43.0539 12.356 43.0539 12.08C43.0539 11.792 43.0779 11.552 43.1259 11.36H40.9659C41.0139 11.552 41.0379 11.792 41.0379 12.08C41.0379 12.356 41.0139 12.596 40.9659 12.8H40.2459C40.2939 12.992 40.3179 13.232 40.3179 13.52C40.3179 13.796 40.2939 14.036 40.2459 14.24C40.2939 14.432 40.3179 14.672 40.3179 14.96C40.3179 15.236 40.2939 15.476 40.2459 15.68C40.2939 15.872 40.3179 16.112 40.3179 16.4C40.3179 16.676 40.2939 16.916 40.2459 17.12H40.9659C41.0139 17.312 41.0379 17.552 41.0379 17.84C41.0379 18.116 41.0139 18.356 40.9659 18.56H43.1259C43.0779 18.356 43.0539 18.116 43.0539 17.84C43.0539 17.552 43.0779 17.312 43.1259 17.12C43.0779 16.916 43.0539 16.676 43.0539 16.4C43.0539 16.112 43.0779 15.872 43.1259 15.68H42.0459C41.9979 15.476 41.9739 15.236 41.9739 14.96C41.9739 14.672 41.9979 14.432 42.0459 14.24H44.5659ZM51.845 16.4C51.845 16.676 51.821 16.916 51.773 17.12H51.233C51.281 17.312 51.305 17.552 51.305 17.84C51.305 18.116 51.281 18.356 51.233 18.56H50.333C50.381 18.752 50.405 18.992 50.405 19.28C50.405 19.556 50.381 19.796 50.333 20H47.453C47.405 19.796 47.381 19.556 47.381 19.28C47.381 18.992 47.405 18.752 47.453 18.56H46.553C46.505 18.356 46.481 18.116 46.481 17.84C46.481 17.552 46.505 17.312 46.553 17.12H46.013C45.965 16.916 45.941 16.676 45.941 16.4C45.941 16.112 45.965 15.872 46.013 15.68H46.553C46.505 15.476 46.481 15.236 46.481 14.96C46.481 14.672 46.505 14.432 46.553 14.24H47.453C47.405 14.036 47.381 13.796 47.381 13.52C47.381 13.232 47.405 12.992 47.453 12.8H50.333C50.381 12.992 50.405 13.232 50.405 13.52C50.405 13.796 50.381 14.036 50.333 14.24H51.233C51.281 14.432 51.305 14.672 51.305 14.96C51.305 15.236 51.281 15.476 51.233 15.68H51.773C51.821 15.872 51.845 16.112 51.845 16.4ZM50.333 17.12C50.285 16.916 50.261 16.676 50.261 16.4C50.261 16.112 50.285 15.872 50.333 15.68H49.793C49.745 15.476 49.721 15.236 49.721 14.96C49.721 14.672 49.745 14.432 49.793 14.24H47.993C48.041 14.432 48.065 14.672 48.065 14.96C48.065 15.236 48.041 15.476 47.993 15.68H47.453C47.501 15.872 47.525 16.112 47.525 16.4C47.525 16.676 47.501 16.916 47.453 17.12H47.993C48.041 17.312 48.065 17.552 48.065 17.84C48.065 18.116 48.041 18.356 47.993 18.56H49.793C49.745 18.356 49.721 18.116 49.721 17.84C49.721 17.552 49.745 17.312 49.793 17.12H50.333ZM58.26 18.56C58.308 18.752 58.332 18.992 58.332 19.28C58.332 19.556 58.308 19.796 58.26 20H53.94C53.892 19.796 53.868 19.556 53.868 19.28C53.868 18.992 53.892 18.752 53.94 18.56H55.38C55.332 18.356 55.308 18.116 55.308 17.84C55.308 17.552 55.332 17.312 55.38 17.12C55.332 16.916 55.308 16.676 55.308 16.4C55.308 16.112 55.332 15.872 55.38 15.68C55.332 15.476 55.308 15.236 55.308 14.96C55.308 14.672 55.332 14.432 55.38 14.24C55.332 14.036 55.308 13.796 55.308 13.52C55.308 13.232 55.332 12.992 55.38 12.8C55.332 12.596 55.308 12.356 55.308 12.08C55.308 11.792 55.332 11.552 55.38 11.36H54.3C54.252 11.156 54.228 10.916 54.228 10.64C54.228 10.352 54.252 10.112 54.3 9.92H56.82C56.868 10.112 56.892 10.352 56.892 10.64C56.892 10.916 56.868 11.156 56.82 11.36C56.868 11.552 56.892 11.792 56.892 12.08C56.892 12.356 56.868 12.596 56.82 12.8C56.868 12.992 56.892 13.232 56.892 13.52C56.892 13.796 56.868 14.036 56.82 14.24C56.868 14.432 56.892 14.672 56.892 14.96C56.892 15.236 56.868 15.476 56.82 15.68C56.868 15.872 56.892 16.112 56.892 16.4C56.892 16.676 56.868 16.916 56.82 17.12C56.868 17.312 56.892 17.552 56.892 17.84C56.892 18.116 56.868 18.356 56.82 18.56H58.26ZM66.187 11.36C66.235 11.552 66.259 11.792 66.259 12.08C66.259 12.356 66.235 12.596 66.187 12.8C66.235 12.992 66.259 13.232 66.259 13.52C66.259 13.796 66.235 14.036 66.187 14.24C66.235 14.432 66.259 14.672 66.259 14.96C66.259 15.236 66.235 15.476 66.187 15.68C66.235 15.872 66.259 16.112 66.259 16.4C66.259 16.676 66.235 16.916 66.187 17.12C66.235 17.312 66.259 17.552 66.259 17.84C66.259 18.116 66.235 18.356 66.187 18.56C66.235 18.752 66.259 18.992 66.259 19.28C66.259 19.556 66.235 19.796 66.187 20H64.747C64.699 19.796 64.675 19.556 64.675 19.28C64.675 18.992 64.699 18.752 64.747 18.56H64.207C64.159 18.356 64.135 18.116 64.135 17.84C64.135 17.552 64.159 17.312 64.207 17.12H64.747C64.699 16.916 64.675 16.676 64.675 16.4C64.675 16.112 64.699 15.872 64.747 15.68H64.207C64.159 15.476 64.135 15.236 64.135 14.96C64.135 14.672 64.159 14.432 64.207 14.24H64.747C64.699 14.036 64.675 13.796 64.675 13.52C64.675 13.232 64.699 12.992 64.747 12.8C64.699 12.596 64.675 12.356 64.675 12.08C64.675 11.792 64.699 11.552 64.747 11.36C64.699 11.156 64.675 10.916 64.675 10.64C64.675 10.352 64.699 10.112 64.747 9.92H66.187C66.235 10.112 66.259 10.352 66.259 10.64C66.259 10.916 66.235 11.156 66.187 11.36ZM63.919 13.52C63.919 13.796 63.895 14.036 63.847 14.24H62.047C62.095 14.432 62.119 14.672 62.119 14.96C62.119 15.236 62.095 15.476 62.047 15.68H61.507C61.555 15.872 61.579 16.112 61.579 16.4C61.579 16.676 61.555 16.916 61.507 17.12H62.047C62.095 17.312 62.119 17.552 62.119 17.84C62.119 18.116 62.095 18.356 62.047 18.56H63.847C63.895 18.752 63.919 18.992 63.919 19.28C63.919 19.556 63.895 19.796 63.847 20H61.867C61.819 19.796 61.795 19.556 61.795 19.28C61.795 18.992 61.819 18.752 61.867 18.56H60.967C60.919 18.356 60.895 18.116 60.895 17.84C60.895 17.552 60.919 17.312 60.967 17.12H60.427C60.379 16.916 60.355 16.676 60.355 16.4C60.355 16.112 60.379 15.872 60.427 15.68H60.967C60.919 15.476 60.895 15.236 60.895 14.96C60.895 14.672 60.919 14.432 60.967 14.24H61.867C61.819 14.036 61.795 13.796 61.795 13.52C61.795 13.232 61.819 12.992 61.867 12.8H63.847C63.895 12.992 63.919 13.232 63.919 13.52Z" fill="black"/>
</svg>
