<svg width="103" height="31" viewBox="0 0 103 31" fill="none" xmlns="http://www.w3.org/2000/svg">
<path d="M1 4.625V1H4.79343M8.11268 1H18.5446M21.3897 1L81.6103 1M1 7.79688V23.5M1 26.375V30H4.79343M8.11268 30H18.5446M21.8638 30H81.6103M84.9296 30H94.8873M97.7324 30H102V26.375M102 23.5V7.79688M102 5.07812V1H97.7324M94.4131 1H84.4554" stroke="#D92D20" stroke-width="1.5"/>
<path d="M7.97906 4H4V8.18182M95.0209 4H99V8.18182M99 22.8182V27H95.0209M7.97906 27H4V22.8182" stroke="#D92D20" stroke-width="2"/>
<path d="M11.5397 7.91489V4.48936V4H91.4603V7.42553H94.4762V10.8511H99V19.1702H95.9841V22.5957H91.963V27H11.037V23.5745H8.52381V20.1489H4V10.8511H8.02116V7.91489H11.5397Z" fill="#FDA29B"/>
<path d="M22.9448 18.56C22.9928 18.752 23.0168 18.992 23.0168 19.28C23.0168 19.556 22.9928 19.796 22.9448 20H17.9048C17.8568 19.796 17.8328 19.556 17.8328 19.28C17.8328 18.992 17.8568 18.752 17.9048 18.56C17.8568 18.356 17.8328 18.116 17.8328 17.84C17.8328 17.552 17.8568 17.312 17.9048 17.12C17.8568 16.916 17.8328 16.676 17.8328 16.4C17.8328 16.112 17.8568 15.872 17.9048 15.68C17.8568 15.476 17.8328 15.236 17.8328 14.96C17.8328 14.672 17.8568 14.432 17.9048 14.24C17.8568 14.036 17.8328 13.796 17.8328 13.52C17.8328 13.232 17.8568 12.992 17.9048 12.8C17.8568 12.596 17.8328 12.356 17.8328 12.08C17.8328 11.792 17.8568 11.552 17.9048 11.36C17.8568 11.156 17.8328 10.916 17.8328 10.64C17.8328 10.352 17.8568 10.112 17.9048 9.92H19.3448C19.3928 10.112 19.4168 10.352 19.4168 10.64C19.4168 10.916 19.3928 11.156 19.3448 11.36C19.3928 11.552 19.4168 11.792 19.4168 12.08C19.4168 12.356 19.3928 12.596 19.3448 12.8C19.3928 12.992 19.4168 13.232 19.4168 13.52C19.4168 13.796 19.3928 14.036 19.3448 14.24C19.3928 14.432 19.4168 14.672 19.4168 14.96C19.4168 15.236 19.3928 15.476 19.3448 15.68C19.3928 15.872 19.4168 16.112 19.4168 16.4C19.4168 16.676 19.3928 16.916 19.3448 17.12C19.3928 17.312 19.4168 17.552 19.4168 17.84C19.4168 18.116 19.3928 18.356 19.3448 18.56H22.9448ZM30.2239 14.96C30.2239 15.236 30.1999 15.476 30.1519 15.68C30.1999 15.872 30.2239 16.112 30.2239 16.4C30.2239 16.676 30.1999 16.916 30.1519 17.12H26.3719C26.4199 17.312 26.4439 17.552 26.4439 17.84C26.4439 18.116 26.4199 18.356 26.3719 18.56H29.4319C29.4799 18.752 29.5039 18.992 29.5039 19.28C29.5039 19.556 29.4799 19.796 29.4319 20H25.8319C25.7839 19.796 25.7599 19.556 25.7599 19.28C25.7599 18.992 25.7839 18.752 25.8319 18.56H24.9319C24.8839 18.356 24.8599 18.116 24.8599 17.84C24.8599 17.552 24.8839 17.312 24.9319 17.12H24.3919C24.3439 16.916 24.3199 16.676 24.3199 16.4C24.3199 16.112 24.3439 15.872 24.3919 15.68H24.9319C24.8839 15.476 24.8599 15.236 24.8599 14.96C24.8599 14.672 24.8839 14.432 24.9319 14.24H25.8319C25.7839 14.036 25.7599 13.796 25.7599 13.52C25.7599 13.232 25.7839 12.992 25.8319 12.8H29.4319C29.4799 12.992 29.5039 13.232 29.5039 13.52C29.5039 13.796 29.4799 14.036 29.4319 14.24H30.1519C30.1999 14.432 30.2239 14.672 30.2239 14.96ZM28.7119 15.68C28.6639 15.476 28.6399 15.236 28.6399 14.96C28.6399 14.672 28.6639 14.432 28.7119 14.24H26.3719C26.4199 14.432 26.4439 14.672 26.4439 14.96C26.4439 15.236 26.4199 15.476 26.3719 15.68H28.7119ZM32.9309 13.52C32.9309 13.796 32.9069 14.036 32.8589 14.24H33.5789C33.6269 14.432 33.6509 14.672 33.6509 14.96C33.6509 15.236 33.6269 15.476 33.5789 15.68H33.0389C33.0869 15.872 33.1109 16.112 33.1109 16.4C33.1109 16.676 33.0869 16.916 33.0389 17.12C33.0869 17.312 33.1109 17.552 33.1109 17.84C33.1109 18.116 33.0869 18.356 33.0389 18.56C33.0869 18.752 33.1109 18.992 33.1109 19.28C33.1109 19.556 33.0869 19.796 33.0389 20H31.5989C31.5509 19.796 31.5269 19.556 31.5269 19.28C31.5269 18.992 31.5509 18.752 31.5989 18.56C31.5509 18.356 31.5269 18.116 31.5269 17.84C31.5269 17.552 31.5509 17.312 31.5989 17.12C31.5509 16.916 31.5269 16.676 31.5269 16.4C31.5269 16.112 31.5509 15.872 31.5989 15.68C31.5509 15.476 31.5269 15.236 31.5269 14.96C31.5269 14.672 31.5509 14.432 31.5989 14.24C31.5509 14.036 31.5269 13.796 31.5269 13.52C31.5269 13.232 31.5509 12.992 31.5989 12.8H32.8589C32.9069 12.992 32.9309 13.232 32.9309 13.52ZM37.3589 15.68C37.4069 15.872 37.4309 16.112 37.4309 16.4C37.4309 16.676 37.4069 16.916 37.3589 17.12C37.4069 17.312 37.4309 17.552 37.4309 17.84C37.4309 18.116 37.4069 18.356 37.3589 18.56C37.4069 18.752 37.4309 18.992 37.4309 19.28C37.4309 19.556 37.4069 19.796 37.3589 20H35.9189C35.8709 19.796 35.8469 19.556 35.8469 19.28C35.8469 18.992 35.8709 18.752 35.9189 18.56C35.8709 18.356 35.8469 18.116 35.8469 17.84C35.8469 17.552 35.8709 17.312 35.9189 17.12C35.8709 16.916 35.8469 16.676 35.8469 16.4C35.8469 16.112 35.8709 15.872 35.9189 15.68C35.8709 15.476 35.8469 15.236 35.8469 14.96C35.8469 14.672 35.8709 14.432 35.9189 14.24H33.5789C33.5309 14.036 33.5069 13.796 33.5069 13.52C33.5069 13.232 33.5309 12.992 33.5789 12.8H36.4589C36.5069 12.992 36.5309 13.232 36.5309 13.52C36.5309 13.796 36.5069 14.036 36.4589 14.24H37.3589C37.4069 14.432 37.4309 14.672 37.4309 14.96C37.4309 15.236 37.4069 15.476 37.3589 15.68ZM44.5659 14.24C44.6139 14.432 44.6379 14.672 44.6379 14.96C44.6379 15.236 44.6139 15.476 44.5659 15.68C44.6139 15.872 44.6379 16.112 44.6379 16.4C44.6379 16.676 44.6139 16.916 44.5659 17.12C44.6139 17.312 44.6379 17.552 44.6379 17.84C44.6379 18.116 44.6139 18.356 44.5659 18.56C44.6139 18.752 44.6379 18.992 44.6379 19.28C44.6379 19.556 44.6139 19.796 44.5659 20H43.8459C43.8939 20.192 43.9179 20.432 43.9179 20.72C43.9179 20.996 43.8939 21.236 43.8459 21.44H43.1259C43.1739 21.632 43.1979 21.872 43.1979 22.16C43.1979 22.436 43.1739 22.676 43.1259 22.88H40.2459C40.1979 22.676 40.1739 22.436 40.1739 22.16C40.1739 21.872 40.1979 21.632 40.2459 21.44H42.4059C42.3579 21.236 42.3339 20.996 42.3339 20.72C42.3339 20.432 42.3579 20.192 42.4059 20H43.1259C43.0779 19.796 43.0539 19.556 43.0539 19.28C43.0539 18.992 43.0779 18.752 43.1259 18.56H42.4059C42.3579 18.356 42.3339 18.116 42.3339 17.84C42.3339 17.552 42.3579 17.312 42.4059 17.12H43.1259C43.0779 16.916 43.0539 16.676 43.0539 16.4C43.0539 16.112 43.0779 15.872 43.1259 15.68C43.0779 15.476 43.0539 15.236 43.0539 14.96C43.0539 14.672 43.0779 14.432 43.1259 14.24H40.7859C40.8339 14.432 40.8579 14.672 40.8579 14.96C40.8579 15.236 40.8339 15.476 40.7859 15.68H40.2459C40.2939 15.872 40.3179 16.112 40.3179 16.4C40.3179 16.676 40.2939 16.916 40.2459 17.12H40.7859C40.8339 17.312 40.8579 17.552 40.8579 17.84C40.8579 18.116 40.8339 18.356 40.7859 18.56H42.4059C42.4539 18.752 42.4779 18.992 42.4779 19.28C42.4779 19.556 42.4539 19.796 42.4059 20H40.2459C40.1979 19.796 40.1739 19.556 40.1739 19.28C40.1739 18.992 40.1979 18.752 40.2459 18.56H39.3459C39.2979 18.356 39.2739 18.116 39.2739 17.84C39.2739 17.552 39.2979 17.312 39.3459 17.12H38.8059C38.7579 16.916 38.7339 16.676 38.7339 16.4C38.7339 16.112 38.7579 15.872 38.8059 15.68H39.3459C39.2979 15.476 39.2739 15.236 39.2739 14.96C39.2739 14.672 39.2979 14.432 39.3459 14.24H40.2459C40.1979 14.036 40.1739 13.796 40.1739 13.52C40.1739 13.232 40.1979 12.992 40.2459 12.8H44.5659C44.6139 12.992 44.6379 13.232 44.6379 13.52C44.6379 13.796 44.6139 14.036 44.5659 14.24ZM51.845 14.96C51.845 15.236 51.821 15.476 51.773 15.68C51.821 15.872 51.845 16.112 51.845 16.4C51.845 16.676 51.821 16.916 51.773 17.12H47.993C48.041 17.312 48.065 17.552 48.065 17.84C48.065 18.116 48.041 18.356 47.993 18.56H51.053C51.101 18.752 51.125 18.992 51.125 19.28C51.125 19.556 51.101 19.796 51.053 20H47.453C47.405 19.796 47.381 19.556 47.381 19.28C47.381 18.992 47.405 18.752 47.453 18.56H46.553C46.505 18.356 46.481 18.116 46.481 17.84C46.481 17.552 46.505 17.312 46.553 17.12H46.013C45.965 16.916 45.941 16.676 45.941 16.4C45.941 16.112 45.965 15.872 46.013 15.68H46.553C46.505 15.476 46.481 15.236 46.481 14.96C46.481 14.672 46.505 14.432 46.553 14.24H47.453C47.405 14.036 47.381 13.796 47.381 13.52C47.381 13.232 47.405 12.992 47.453 12.8H51.053C51.101 12.992 51.125 13.232 51.125 13.52C51.125 13.796 51.101 14.036 51.053 14.24H51.773C51.821 14.432 51.845 14.672 51.845 14.96ZM50.333 15.68C50.285 15.476 50.261 15.236 50.261 14.96C50.261 14.672 50.285 14.432 50.333 14.24H47.993C48.041 14.432 48.065 14.672 48.065 14.96C48.065 15.236 48.041 15.476 47.993 15.68H50.333ZM54.552 13.52C54.552 13.796 54.528 14.036 54.48 14.24H55.2C55.248 14.432 55.272 14.672 55.272 14.96C55.272 15.236 55.248 15.476 55.2 15.68H54.66C54.708 15.872 54.732 16.112 54.732 16.4C54.732 16.676 54.708 16.916 54.66 17.12C54.708 17.312 54.732 17.552 54.732 17.84C54.732 18.116 54.708 18.356 54.66 18.56C54.708 18.752 54.732 18.992 54.732 19.28C54.732 19.556 54.708 19.796 54.66 20H53.22C53.172 19.796 53.148 19.556 53.148 19.28C53.148 18.992 53.172 18.752 53.22 18.56C53.172 18.356 53.148 18.116 53.148 17.84C53.148 17.552 53.172 17.312 53.22 17.12C53.172 16.916 53.148 16.676 53.148 16.4C53.148 16.112 53.172 15.872 53.22 15.68C53.172 15.476 53.148 15.236 53.148 14.96C53.148 14.672 53.172 14.432 53.22 14.24C53.172 14.036 53.148 13.796 53.148 13.52C53.148 13.232 53.172 12.992 53.22 12.8H54.48C54.528 12.992 54.552 13.232 54.552 13.52ZM58.98 15.68C59.028 15.872 59.052 16.112 59.052 16.4C59.052 16.676 59.028 16.916 58.98 17.12C59.028 17.312 59.052 17.552 59.052 17.84C59.052 18.116 59.028 18.356 58.98 18.56C59.028 18.752 59.052 18.992 59.052 19.28C59.052 19.556 59.028 19.796 58.98 20H57.54C57.492 19.796 57.468 19.556 57.468 19.28C57.468 18.992 57.492 18.752 57.54 18.56C57.492 18.356 57.468 18.116 57.468 17.84C57.468 17.552 57.492 17.312 57.54 17.12C57.492 16.916 57.468 16.676 57.468 16.4C57.468 16.112 57.492 15.872 57.54 15.68C57.492 15.476 57.468 15.236 57.468 14.96C57.468 14.672 57.492 14.432 57.54 14.24H55.2C55.152 14.036 55.128 13.796 55.128 13.52C55.128 13.232 55.152 12.992 55.2 12.8H58.08C58.128 12.992 58.152 13.232 58.152 13.52C58.152 13.796 58.128 14.036 58.08 14.24H58.98C59.028 14.432 59.052 14.672 59.052 14.96C59.052 15.236 59.028 15.476 58.98 15.68ZM66.187 11.36C66.235 11.552 66.259 11.792 66.259 12.08C66.259 12.356 66.235 12.596 66.187 12.8C66.235 12.992 66.259 13.232 66.259 13.52C66.259 13.796 66.235 14.036 66.187 14.24C66.235 14.432 66.259 14.672 66.259 14.96C66.259 15.236 66.235 15.476 66.187 15.68C66.235 15.872 66.259 16.112 66.259 16.4C66.259 16.676 66.235 16.916 66.187 17.12C66.235 17.312 66.259 17.552 66.259 17.84C66.259 18.116 66.235 18.356 66.187 18.56C66.235 18.752 66.259 18.992 66.259 19.28C66.259 19.556 66.235 19.796 66.187 20H64.747C64.699 19.796 64.675 19.556 64.675 19.28C64.675 18.992 64.699 18.752 64.747 18.56H64.207C64.159 18.356 64.135 18.116 64.135 17.84C64.135 17.552 64.159 17.312 64.207 17.12H64.747C64.699 16.916 64.675 16.676 64.675 16.4C64.675 16.112 64.699 15.872 64.747 15.68H64.207C64.159 15.476 64.135 15.236 64.135 14.96C64.135 14.672 64.159 14.432 64.207 14.24H64.747C64.699 14.036 64.675 13.796 64.675 13.52C64.675 13.232 64.699 12.992 64.747 12.8C64.699 12.596 64.675 12.356 64.675 12.08C64.675 11.792 64.699 11.552 64.747 11.36C64.699 11.156 64.675 10.916 64.675 10.64C64.675 10.352 64.699 10.112 64.747 9.92H66.187C66.235 10.112 66.259 10.352 66.259 10.64C66.259 10.916 66.235 11.156 66.187 11.36ZM63.919 13.52C63.919 13.796 63.895 14.036 63.847 14.24H62.047C62.095 14.432 62.119 14.672 62.119 14.96C62.119 15.236 62.095 15.476 62.047 15.68H61.507C61.555 15.872 61.579 16.112 61.579 16.4C61.579 16.676 61.555 16.916 61.507 17.12H62.047C62.095 17.312 62.119 17.552 62.119 17.84C62.119 18.116 62.095 18.356 62.047 18.56H63.847C63.895 18.752 63.919 18.992 63.919 19.28C63.919 19.556 63.895 19.796 63.847 20H61.867C61.819 19.796 61.795 19.556 61.795 19.28C61.795 18.992 61.819 18.752 61.867 18.56H60.967C60.919 18.356 60.895 18.116 60.895 17.84C60.895 17.552 60.919 17.312 60.967 17.12H60.427C60.379 16.916 60.355 16.676 60.355 16.4C60.355 16.112 60.379 15.872 60.427 15.68H60.967C60.919 15.476 60.895 15.236 60.895 14.96C60.895 14.672 60.919 14.432 60.967 14.24H61.867C61.819 14.036 61.795 13.796 61.795 13.52C61.795 13.232 61.819 12.992 61.867 12.8H63.847C63.895 12.992 63.919 13.232 63.919 13.52ZM73.3941 18.56C73.4421 18.752 73.4661 18.992 73.4661 19.28C73.4661 19.556 73.4421 19.796 73.3941 20H71.9541C71.9061 19.796 71.8821 19.556 71.8821 19.28C71.8821 18.992 71.9061 18.752 71.9541 18.56H71.2341C71.1861 18.356 71.1621 18.116 71.1621 17.84C71.1621 17.552 71.1861 17.312 71.2341 17.12H69.0741C69.1221 17.312 69.1461 17.552 69.1461 17.84C69.1461 18.116 69.1221 18.356 69.0741 18.56H71.2341C71.2821 18.752 71.3061 18.992 71.3061 19.28C71.3061 19.556 71.2821 19.796 71.2341 20H68.3541C68.3061 19.796 68.2821 19.556 68.2821 19.28C68.2821 18.992 68.3061 18.752 68.3541 18.56H67.6341C67.5861 18.356 67.5621 18.116 67.5621 17.84C67.5621 17.552 67.5861 17.312 67.6341 17.12H68.3541C68.3061 16.916 68.2821 16.676 68.2821 16.4C68.2821 16.112 68.3061 15.872 68.3541 15.68H71.2341C71.1861 15.476 71.1621 15.236 71.1621 14.96C71.1621 14.672 71.1861 14.432 71.2341 14.24H68.7141C68.6661 14.036 68.6421 13.796 68.6421 13.52C68.6421 13.232 68.6661 12.992 68.7141 12.8H71.9541C72.0021 12.992 72.0261 13.232 72.0261 13.52C72.0261 13.796 72.0021 14.036 71.9541 14.24H72.6741C72.7221 14.432 72.7461 14.672 72.7461 14.96C72.7461 15.236 72.7221 15.476 72.6741 15.68C72.7221 15.872 72.7461 16.112 72.7461 16.4C72.7461 16.676 72.7221 16.916 72.6741 17.12C72.7221 17.312 72.7461 17.552 72.7461 17.84C72.7461 18.116 72.7221 18.356 72.6741 18.56H73.3941ZM80.6011 14.24C80.6491 14.432 80.6731 14.672 80.6731 14.96C80.6731 15.236 80.6491 15.476 80.6011 15.68H79.1611C79.1131 15.476 79.0891 15.236 79.0891 14.96C79.0891 14.672 79.1131 14.432 79.1611 14.24H77.9011C77.9491 14.432 77.9731 14.672 77.9731 14.96C77.9731 15.236 77.9491 15.476 77.9011 15.68H77.3611C77.4091 15.872 77.4331 16.112 77.4331 16.4C77.4331 16.676 77.4091 16.916 77.3611 17.12C77.4091 17.312 77.4331 17.552 77.4331 17.84C77.4331 18.116 77.4091 18.356 77.3611 18.56H78.4411C78.4891 18.752 78.5131 18.992 78.5131 19.28C78.5131 19.556 78.4891 19.796 78.4411 20H74.8411C74.7931 19.796 74.7691 19.556 74.7691 19.28C74.7691 18.992 74.7931 18.752 74.8411 18.56H75.9211C75.8731 18.356 75.8491 18.116 75.8491 17.84C75.8491 17.552 75.8731 17.312 75.9211 17.12C75.8731 16.916 75.8491 16.676 75.8491 16.4C75.8491 16.112 75.8731 15.872 75.9211 15.68C75.8731 15.476 75.8491 15.236 75.8491 14.96C75.8491 14.672 75.8731 14.432 75.9211 14.24H74.8411C74.7931 14.036 74.7691 13.796 74.7691 13.52C74.7691 13.232 74.7931 12.992 74.8411 12.8H76.6411C76.6891 12.992 76.7131 13.232 76.7131 13.52C76.7131 13.796 76.6891 14.036 76.6411 14.24H77.3611C77.3131 14.036 77.2891 13.796 77.2891 13.52C77.2891 13.232 77.3131 12.992 77.3611 12.8H80.0611C80.1091 12.992 80.1331 13.232 80.1331 13.52C80.1331 13.796 80.1091 14.036 80.0611 14.24H80.6011ZM87.8801 13.52C87.8801 13.796 87.8561 14.036 87.8081 14.24H87.2681C87.3161 14.432 87.3401 14.672 87.3401 14.96C87.3401 15.236 87.3161 15.476 87.2681 15.68H86.7281C86.7761 15.872 86.8001 16.112 86.8001 16.4C86.8001 16.676 86.7761 16.916 86.7281 17.12H86.3681C86.4161 17.312 86.4401 17.552 86.4401 17.84C86.4401 18.116 86.4161 18.356 86.3681 18.56H85.8281C85.8761 18.752 85.9001 18.992 85.9001 19.28C85.9001 19.556 85.8761 19.796 85.8281 20H85.4681C85.5161 20.192 85.5401 20.432 85.5401 20.72C85.5401 20.996 85.5161 21.236 85.4681 21.44H84.7481C84.7961 21.632 84.8201 21.872 84.8201 22.16C84.8201 22.436 84.7961 22.676 84.7481 22.88H82.5881C82.5401 22.676 82.5161 22.436 82.5161 22.16C82.5161 21.872 82.5401 21.632 82.5881 21.44H84.0281C83.9801 21.236 83.9561 20.996 83.9561 20.72C83.9561 20.432 83.9801 20.192 84.0281 20C83.9801 19.796 83.9561 19.556 83.9561 19.28C83.9561 18.992 83.9801 18.752 84.0281 18.56H83.3081C83.2601 18.356 83.2361 18.116 83.2361 17.84C83.2361 17.552 83.2601 17.312 83.3081 17.12H82.9481C82.9001 16.916 82.8761 16.676 82.8761 16.4C82.8761 16.112 82.9001 15.872 82.9481 15.68H82.4081C82.3601 15.476 82.3361 15.236 82.3361 14.96C82.3361 14.672 82.3601 14.432 82.4081 14.24H81.8681C81.8201 14.036 81.7961 13.796 81.7961 13.52C81.7961 13.232 81.8201 12.992 81.8681 12.8H83.3081C83.3561 12.992 83.3801 13.232 83.3801 13.52C83.3801 13.796 83.3561 14.036 83.3081 14.24H83.8481C83.8961 14.432 83.9201 14.672 83.9201 14.96C83.9201 15.236 83.8961 15.476 83.8481 15.68H84.3881C84.4361 15.872 84.4601 16.112 84.4601 16.4C84.4601 16.676 84.4361 16.916 84.3881 17.12C84.4361 17.312 84.4601 17.552 84.4601 17.84C84.4601 18.116 84.4361 18.356 84.3881 18.56H84.9281C84.8801 18.356 84.8561 18.116 84.8561 17.84C84.8561 17.552 84.8801 17.312 84.9281 17.12H85.2881C85.2401 16.916 85.2161 16.676 85.2161 16.4C85.2161 16.112 85.2401 15.872 85.2881 15.68H85.8281C85.7801 15.476 85.7561 15.236 85.7561 14.96C85.7561 14.672 85.7801 14.432 85.8281 14.24H86.3681C86.3201 14.036 86.2961 13.796 86.2961 13.52C86.2961 13.232 86.3201 12.992 86.3681 12.8H87.8081C87.8561 12.992 87.8801 13.232 87.8801 13.52Z" fill="black"/>
</svg>
