<svg width="103" height="31" viewBox="0 0 103 31" fill="none" xmlns="http://www.w3.org/2000/svg">
<path d="M1 4.625V1H4.79343M8.11268 1H18.5446M21.3897 1L81.6103 1M1 7.79688V23.5M1 26.375V30H4.79343M8.11268 30H18.5446M21.8638 30H81.6103M84.9296 30H94.8873M97.7324 30H102V26.375M102 23.5V7.79688M102 5.07812V1H97.7324M94.4131 1H84.4554" stroke="url(#paint0_linear_727_27479)" stroke-width="1.5"/>
<path d="M7.97906 4H4V8.18182M95.0209 4H99V8.18182M99 22.8182V27H95.0209M7.97906 27H4V22.8182" stroke="url(#paint1_linear_727_27479)" stroke-width="2"/>
<path d="M11.5397 7.91489V4.48936V4H91.4603V7.42553H94.4762V10.8511H99V19.1702H95.9841V22.5957H91.963V27H11.037V23.5745H8.52381V20.1489H4V10.8511H8.02116V7.91489H11.5397Z" fill="url(#paint2_linear_727_27479)"/>
<path d="M21.9448 18.56C21.9928 18.752 22.0168 18.992 22.0168 19.28C22.0168 19.556 21.9928 19.796 21.9448 20H16.9048C16.8568 19.796 16.8328 19.556 16.8328 19.28C16.8328 18.992 16.8568 18.752 16.9048 18.56C16.8568 18.356 16.8328 18.116 16.8328 17.84C16.8328 17.552 16.8568 17.312 16.9048 17.12C16.8568 16.916 16.8328 16.676 16.8328 16.4C16.8328 16.112 16.8568 15.872 16.9048 15.68C16.8568 15.476 16.8328 15.236 16.8328 14.96C16.8328 14.672 16.8568 14.432 16.9048 14.24C16.8568 14.036 16.8328 13.796 16.8328 13.52C16.8328 13.232 16.8568 12.992 16.9048 12.8C16.8568 12.596 16.8328 12.356 16.8328 12.08C16.8328 11.792 16.8568 11.552 16.9048 11.36C16.8568 11.156 16.8328 10.916 16.8328 10.64C16.8328 10.352 16.8568 10.112 16.9048 9.92H18.3448C18.3928 10.112 18.4168 10.352 18.4168 10.64C18.4168 10.916 18.3928 11.156 18.3448 11.36C18.3928 11.552 18.4168 11.792 18.4168 12.08C18.4168 12.356 18.3928 12.596 18.3448 12.8C18.3928 12.992 18.4168 13.232 18.4168 13.52C18.4168 13.796 18.3928 14.036 18.3448 14.24C18.3928 14.432 18.4168 14.672 18.4168 14.96C18.4168 15.236 18.3928 15.476 18.3448 15.68C18.3928 15.872 18.4168 16.112 18.4168 16.4C18.4168 16.676 18.3928 16.916 18.3448 17.12C18.3928 17.312 18.4168 17.552 18.4168 17.84C18.4168 18.116 18.3928 18.356 18.3448 18.56H21.9448ZM29.2239 14.96C29.2239 15.236 29.1999 15.476 29.1519 15.68C29.1999 15.872 29.2239 16.112 29.2239 16.4C29.2239 16.676 29.1999 16.916 29.1519 17.12H25.3719C25.4199 17.312 25.4439 17.552 25.4439 17.84C25.4439 18.116 25.4199 18.356 25.3719 18.56H28.4319C28.4799 18.752 28.5039 18.992 28.5039 19.28C28.5039 19.556 28.4799 19.796 28.4319 20H24.8319C24.7839 19.796 24.7599 19.556 24.7599 19.28C24.7599 18.992 24.7839 18.752 24.8319 18.56H23.9319C23.8839 18.356 23.8599 18.116 23.8599 17.84C23.8599 17.552 23.8839 17.312 23.9319 17.12H23.3919C23.3439 16.916 23.3199 16.676 23.3199 16.4C23.3199 16.112 23.3439 15.872 23.3919 15.68H23.9319C23.8839 15.476 23.8599 15.236 23.8599 14.96C23.8599 14.672 23.8839 14.432 23.9319 14.24H24.8319C24.7839 14.036 24.7599 13.796 24.7599 13.52C24.7599 13.232 24.7839 12.992 24.8319 12.8H28.4319C28.4799 12.992 28.5039 13.232 28.5039 13.52C28.5039 13.796 28.4799 14.036 28.4319 14.24H29.1519C29.1999 14.432 29.2239 14.672 29.2239 14.96ZM27.7119 15.68C27.6639 15.476 27.6399 15.236 27.6399 14.96C27.6399 14.672 27.6639 14.432 27.7119 14.24H25.3719C25.4199 14.432 25.4439 14.672 25.4439 14.96C25.4439 15.236 25.4199 15.476 25.3719 15.68H27.7119ZM31.9309 13.52C31.9309 13.796 31.9069 14.036 31.8589 14.24H32.5789C32.6269 14.432 32.6509 14.672 32.6509 14.96C32.6509 15.236 32.6269 15.476 32.5789 15.68H32.0389C32.0869 15.872 32.1109 16.112 32.1109 16.4C32.1109 16.676 32.0869 16.916 32.0389 17.12C32.0869 17.312 32.1109 17.552 32.1109 17.84C32.1109 18.116 32.0869 18.356 32.0389 18.56C32.0869 18.752 32.1109 18.992 32.1109 19.28C32.1109 19.556 32.0869 19.796 32.0389 20H30.5989C30.5509 19.796 30.5269 19.556 30.5269 19.28C30.5269 18.992 30.5509 18.752 30.5989 18.56C30.5509 18.356 30.5269 18.116 30.5269 17.84C30.5269 17.552 30.5509 17.312 30.5989 17.12C30.5509 16.916 30.5269 16.676 30.5269 16.4C30.5269 16.112 30.5509 15.872 30.5989 15.68C30.5509 15.476 30.5269 15.236 30.5269 14.96C30.5269 14.672 30.5509 14.432 30.5989 14.24C30.5509 14.036 30.5269 13.796 30.5269 13.52C30.5269 13.232 30.5509 12.992 30.5989 12.8H31.8589C31.9069 12.992 31.9309 13.232 31.9309 13.52ZM36.3589 15.68C36.4069 15.872 36.4309 16.112 36.4309 16.4C36.4309 16.676 36.4069 16.916 36.3589 17.12C36.4069 17.312 36.4309 17.552 36.4309 17.84C36.4309 18.116 36.4069 18.356 36.3589 18.56C36.4069 18.752 36.4309 18.992 36.4309 19.28C36.4309 19.556 36.4069 19.796 36.3589 20H34.9189C34.8709 19.796 34.8469 19.556 34.8469 19.28C34.8469 18.992 34.8709 18.752 34.9189 18.56C34.8709 18.356 34.8469 18.116 34.8469 17.84C34.8469 17.552 34.8709 17.312 34.9189 17.12C34.8709 16.916 34.8469 16.676 34.8469 16.4C34.8469 16.112 34.8709 15.872 34.9189 15.68C34.8709 15.476 34.8469 15.236 34.8469 14.96C34.8469 14.672 34.8709 14.432 34.9189 14.24H32.5789C32.5309 14.036 32.5069 13.796 32.5069 13.52C32.5069 13.232 32.5309 12.992 32.5789 12.8H35.4589C35.5069 12.992 35.5309 13.232 35.5309 13.52C35.5309 13.796 35.5069 14.036 35.4589 14.24H36.3589C36.4069 14.432 36.4309 14.672 36.4309 14.96C36.4309 15.236 36.4069 15.476 36.3589 15.68ZM43.5659 14.24C43.6139 14.432 43.6379 14.672 43.6379 14.96C43.6379 15.236 43.6139 15.476 43.5659 15.68C43.6139 15.872 43.6379 16.112 43.6379 16.4C43.6379 16.676 43.6139 16.916 43.5659 17.12C43.6139 17.312 43.6379 17.552 43.6379 17.84C43.6379 18.116 43.6139 18.356 43.5659 18.56C43.6139 18.752 43.6379 18.992 43.6379 19.28C43.6379 19.556 43.6139 19.796 43.5659 20H42.8459C42.8939 20.192 42.9179 20.432 42.9179 20.72C42.9179 20.996 42.8939 21.236 42.8459 21.44H42.1259C42.1739 21.632 42.1979 21.872 42.1979 22.16C42.1979 22.436 42.1739 22.676 42.1259 22.88H39.2459C39.1979 22.676 39.1739 22.436 39.1739 22.16C39.1739 21.872 39.1979 21.632 39.2459 21.44H41.4059C41.3579 21.236 41.3339 20.996 41.3339 20.72C41.3339 20.432 41.3579 20.192 41.4059 20H42.1259C42.0779 19.796 42.0539 19.556 42.0539 19.28C42.0539 18.992 42.0779 18.752 42.1259 18.56H41.4059C41.3579 18.356 41.3339 18.116 41.3339 17.84C41.3339 17.552 41.3579 17.312 41.4059 17.12H42.1259C42.0779 16.916 42.0539 16.676 42.0539 16.4C42.0539 16.112 42.0779 15.872 42.1259 15.68C42.0779 15.476 42.0539 15.236 42.0539 14.96C42.0539 14.672 42.0779 14.432 42.1259 14.24H39.7859C39.8339 14.432 39.8579 14.672 39.8579 14.96C39.8579 15.236 39.8339 15.476 39.7859 15.68H39.2459C39.2939 15.872 39.3179 16.112 39.3179 16.4C39.3179 16.676 39.2939 16.916 39.2459 17.12H39.7859C39.8339 17.312 39.8579 17.552 39.8579 17.84C39.8579 18.116 39.8339 18.356 39.7859 18.56H41.4059C41.4539 18.752 41.4779 18.992 41.4779 19.28C41.4779 19.556 41.4539 19.796 41.4059 20H39.2459C39.1979 19.796 39.1739 19.556 39.1739 19.28C39.1739 18.992 39.1979 18.752 39.2459 18.56H38.3459C38.2979 18.356 38.2739 18.116 38.2739 17.84C38.2739 17.552 38.2979 17.312 38.3459 17.12H37.8059C37.7579 16.916 37.7339 16.676 37.7339 16.4C37.7339 16.112 37.7579 15.872 37.8059 15.68H38.3459C38.2979 15.476 38.2739 15.236 38.2739 14.96C38.2739 14.672 38.2979 14.432 38.3459 14.24H39.2459C39.1979 14.036 39.1739 13.796 39.1739 13.52C39.1739 13.232 39.1979 12.992 39.2459 12.8H43.5659C43.6139 12.992 43.6379 13.232 43.6379 13.52C43.6379 13.796 43.6139 14.036 43.5659 14.24ZM50.845 14.96C50.845 15.236 50.821 15.476 50.773 15.68C50.821 15.872 50.845 16.112 50.845 16.4C50.845 16.676 50.821 16.916 50.773 17.12H46.993C47.041 17.312 47.065 17.552 47.065 17.84C47.065 18.116 47.041 18.356 46.993 18.56H50.053C50.101 18.752 50.125 18.992 50.125 19.28C50.125 19.556 50.101 19.796 50.053 20H46.453C46.405 19.796 46.381 19.556 46.381 19.28C46.381 18.992 46.405 18.752 46.453 18.56H45.553C45.505 18.356 45.481 18.116 45.481 17.84C45.481 17.552 45.505 17.312 45.553 17.12H45.013C44.965 16.916 44.941 16.676 44.941 16.4C44.941 16.112 44.965 15.872 45.013 15.68H45.553C45.505 15.476 45.481 15.236 45.481 14.96C45.481 14.672 45.505 14.432 45.553 14.24H46.453C46.405 14.036 46.381 13.796 46.381 13.52C46.381 13.232 46.405 12.992 46.453 12.8H50.053C50.101 12.992 50.125 13.232 50.125 13.52C50.125 13.796 50.101 14.036 50.053 14.24H50.773C50.821 14.432 50.845 14.672 50.845 14.96ZM49.333 15.68C49.285 15.476 49.261 15.236 49.261 14.96C49.261 14.672 49.285 14.432 49.333 14.24H46.993C47.041 14.432 47.065 14.672 47.065 14.96C47.065 15.236 47.041 15.476 46.993 15.68H49.333ZM53.552 13.52C53.552 13.796 53.528 14.036 53.48 14.24H54.2C54.248 14.432 54.272 14.672 54.272 14.96C54.272 15.236 54.248 15.476 54.2 15.68H53.66C53.708 15.872 53.732 16.112 53.732 16.4C53.732 16.676 53.708 16.916 53.66 17.12C53.708 17.312 53.732 17.552 53.732 17.84C53.732 18.116 53.708 18.356 53.66 18.56C53.708 18.752 53.732 18.992 53.732 19.28C53.732 19.556 53.708 19.796 53.66 20H52.22C52.172 19.796 52.148 19.556 52.148 19.28C52.148 18.992 52.172 18.752 52.22 18.56C52.172 18.356 52.148 18.116 52.148 17.84C52.148 17.552 52.172 17.312 52.22 17.12C52.172 16.916 52.148 16.676 52.148 16.4C52.148 16.112 52.172 15.872 52.22 15.68C52.172 15.476 52.148 15.236 52.148 14.96C52.148 14.672 52.172 14.432 52.22 14.24C52.172 14.036 52.148 13.796 52.148 13.52C52.148 13.232 52.172 12.992 52.22 12.8H53.48C53.528 12.992 53.552 13.232 53.552 13.52ZM57.98 15.68C58.028 15.872 58.052 16.112 58.052 16.4C58.052 16.676 58.028 16.916 57.98 17.12C58.028 17.312 58.052 17.552 58.052 17.84C58.052 18.116 58.028 18.356 57.98 18.56C58.028 18.752 58.052 18.992 58.052 19.28C58.052 19.556 58.028 19.796 57.98 20H56.54C56.492 19.796 56.468 19.556 56.468 19.28C56.468 18.992 56.492 18.752 56.54 18.56C56.492 18.356 56.468 18.116 56.468 17.84C56.468 17.552 56.492 17.312 56.54 17.12C56.492 16.916 56.468 16.676 56.468 16.4C56.468 16.112 56.492 15.872 56.54 15.68C56.492 15.476 56.468 15.236 56.468 14.96C56.468 14.672 56.492 14.432 56.54 14.24H54.2C54.152 14.036 54.128 13.796 54.128 13.52C54.128 13.232 54.152 12.992 54.2 12.8H57.08C57.128 12.992 57.152 13.232 57.152 13.52C57.152 13.796 57.128 14.036 57.08 14.24H57.98C58.028 14.432 58.052 14.672 58.052 14.96C58.052 15.236 58.028 15.476 57.98 15.68ZM65.187 11.36C65.235 11.552 65.259 11.792 65.259 12.08C65.259 12.356 65.235 12.596 65.187 12.8C65.235 12.992 65.259 13.232 65.259 13.52C65.259 13.796 65.235 14.036 65.187 14.24C65.235 14.432 65.259 14.672 65.259 14.96C65.259 15.236 65.235 15.476 65.187 15.68C65.235 15.872 65.259 16.112 65.259 16.4C65.259 16.676 65.235 16.916 65.187 17.12C65.235 17.312 65.259 17.552 65.259 17.84C65.259 18.116 65.235 18.356 65.187 18.56C65.235 18.752 65.259 18.992 65.259 19.28C65.259 19.556 65.235 19.796 65.187 20H63.747C63.699 19.796 63.675 19.556 63.675 19.28C63.675 18.992 63.699 18.752 63.747 18.56H63.207C63.159 18.356 63.135 18.116 63.135 17.84C63.135 17.552 63.159 17.312 63.207 17.12H63.747C63.699 16.916 63.675 16.676 63.675 16.4C63.675 16.112 63.699 15.872 63.747 15.68H63.207C63.159 15.476 63.135 15.236 63.135 14.96C63.135 14.672 63.159 14.432 63.207 14.24H63.747C63.699 14.036 63.675 13.796 63.675 13.52C63.675 13.232 63.699 12.992 63.747 12.8C63.699 12.596 63.675 12.356 63.675 12.08C63.675 11.792 63.699 11.552 63.747 11.36C63.699 11.156 63.675 10.916 63.675 10.64C63.675 10.352 63.699 10.112 63.747 9.92H65.187C65.235 10.112 65.259 10.352 65.259 10.64C65.259 10.916 65.235 11.156 65.187 11.36ZM62.919 13.52C62.919 13.796 62.895 14.036 62.847 14.24H61.047C61.095 14.432 61.119 14.672 61.119 14.96C61.119 15.236 61.095 15.476 61.047 15.68H60.507C60.555 15.872 60.579 16.112 60.579 16.4C60.579 16.676 60.555 16.916 60.507 17.12H61.047C61.095 17.312 61.119 17.552 61.119 17.84C61.119 18.116 61.095 18.356 61.047 18.56H62.847C62.895 18.752 62.919 18.992 62.919 19.28C62.919 19.556 62.895 19.796 62.847 20H60.867C60.819 19.796 60.795 19.556 60.795 19.28C60.795 18.992 60.819 18.752 60.867 18.56H59.967C59.919 18.356 59.895 18.116 59.895 17.84C59.895 17.552 59.919 17.312 59.967 17.12H59.427C59.379 16.916 59.355 16.676 59.355 16.4C59.355 16.112 59.379 15.872 59.427 15.68H59.967C59.919 15.476 59.895 15.236 59.895 14.96C59.895 14.672 59.919 14.432 59.967 14.24H60.867C60.819 14.036 60.795 13.796 60.795 13.52C60.795 13.232 60.819 12.992 60.867 12.8H62.847C62.895 12.992 62.919 13.232 62.919 13.52ZM72.3941 18.56C72.4421 18.752 72.4661 18.992 72.4661 19.28C72.4661 19.556 72.4421 19.796 72.3941 20H70.9541C70.9061 19.796 70.8821 19.556 70.8821 19.28C70.8821 18.992 70.9061 18.752 70.9541 18.56H70.2341C70.1861 18.356 70.1621 18.116 70.1621 17.84C70.1621 17.552 70.1861 17.312 70.2341 17.12H68.0741C68.1221 17.312 68.1461 17.552 68.1461 17.84C68.1461 18.116 68.1221 18.356 68.0741 18.56H70.2341C70.2821 18.752 70.3061 18.992 70.3061 19.28C70.3061 19.556 70.2821 19.796 70.2341 20H67.3541C67.3061 19.796 67.2821 19.556 67.2821 19.28C67.2821 18.992 67.3061 18.752 67.3541 18.56H66.6341C66.5861 18.356 66.5621 18.116 66.5621 17.84C66.5621 17.552 66.5861 17.312 66.6341 17.12H67.3541C67.3061 16.916 67.2821 16.676 67.2821 16.4C67.2821 16.112 67.3061 15.872 67.3541 15.68H70.2341C70.1861 15.476 70.1621 15.236 70.1621 14.96C70.1621 14.672 70.1861 14.432 70.2341 14.24H67.7141C67.6661 14.036 67.6421 13.796 67.6421 13.52C67.6421 13.232 67.6661 12.992 67.7141 12.8H70.9541C71.0021 12.992 71.0261 13.232 71.0261 13.52C71.0261 13.796 71.0021 14.036 70.9541 14.24H71.6741C71.7221 14.432 71.7461 14.672 71.7461 14.96C71.7461 15.236 71.7221 15.476 71.6741 15.68C71.7221 15.872 71.7461 16.112 71.7461 16.4C71.7461 16.676 71.7221 16.916 71.6741 17.12C71.7221 17.312 71.7461 17.552 71.7461 17.84C71.7461 18.116 71.7221 18.356 71.6741 18.56H72.3941ZM79.6011 14.24C79.6491 14.432 79.6731 14.672 79.6731 14.96C79.6731 15.236 79.6491 15.476 79.6011 15.68H78.1611C78.1131 15.476 78.0891 15.236 78.0891 14.96C78.0891 14.672 78.1131 14.432 78.1611 14.24H76.9011C76.9491 14.432 76.9731 14.672 76.9731 14.96C76.9731 15.236 76.9491 15.476 76.9011 15.68H76.3611C76.4091 15.872 76.4331 16.112 76.4331 16.4C76.4331 16.676 76.4091 16.916 76.3611 17.12C76.4091 17.312 76.4331 17.552 76.4331 17.84C76.4331 18.116 76.4091 18.356 76.3611 18.56H77.4411C77.4891 18.752 77.5131 18.992 77.5131 19.28C77.5131 19.556 77.4891 19.796 77.4411 20H73.8411C73.7931 19.796 73.7691 19.556 73.7691 19.28C73.7691 18.992 73.7931 18.752 73.8411 18.56H74.9211C74.8731 18.356 74.8491 18.116 74.8491 17.84C74.8491 17.552 74.8731 17.312 74.9211 17.12C74.8731 16.916 74.8491 16.676 74.8491 16.4C74.8491 16.112 74.8731 15.872 74.9211 15.68C74.8731 15.476 74.8491 15.236 74.8491 14.96C74.8491 14.672 74.8731 14.432 74.9211 14.24H73.8411C73.7931 14.036 73.7691 13.796 73.7691 13.52C73.7691 13.232 73.7931 12.992 73.8411 12.8H75.6411C75.6891 12.992 75.7131 13.232 75.7131 13.52C75.7131 13.796 75.6891 14.036 75.6411 14.24H76.3611C76.3131 14.036 76.2891 13.796 76.2891 13.52C76.2891 13.232 76.3131 12.992 76.3611 12.8H79.0611C79.1091 12.992 79.1331 13.232 79.1331 13.52C79.1331 13.796 79.1091 14.036 79.0611 14.24H79.6011ZM86.8801 13.52C86.8801 13.796 86.8561 14.036 86.8081 14.24H86.2681C86.3161 14.432 86.3401 14.672 86.3401 14.96C86.3401 15.236 86.3161 15.476 86.2681 15.68H85.7281C85.7761 15.872 85.8001 16.112 85.8001 16.4C85.8001 16.676 85.7761 16.916 85.7281 17.12H85.3681C85.4161 17.312 85.4401 17.552 85.4401 17.84C85.4401 18.116 85.4161 18.356 85.3681 18.56H84.8281C84.8761 18.752 84.9001 18.992 84.9001 19.28C84.9001 19.556 84.8761 19.796 84.8281 20H84.4681C84.5161 20.192 84.5401 20.432 84.5401 20.72C84.5401 20.996 84.5161 21.236 84.4681 21.44H83.7481C83.7961 21.632 83.8201 21.872 83.8201 22.16C83.8201 22.436 83.7961 22.676 83.7481 22.88H81.5881C81.5401 22.676 81.5161 22.436 81.5161 22.16C81.5161 21.872 81.5401 21.632 81.5881 21.44H83.0281C82.9801 21.236 82.9561 20.996 82.9561 20.72C82.9561 20.432 82.9801 20.192 83.0281 20C82.9801 19.796 82.9561 19.556 82.9561 19.28C82.9561 18.992 82.9801 18.752 83.0281 18.56H82.3081C82.2601 18.356 82.2361 18.116 82.2361 17.84C82.2361 17.552 82.2601 17.312 82.3081 17.12H81.9481C81.9001 16.916 81.8761 16.676 81.8761 16.4C81.8761 16.112 81.9001 15.872 81.9481 15.68H81.4081C81.3601 15.476 81.3361 15.236 81.3361 14.96C81.3361 14.672 81.3601 14.432 81.4081 14.24H80.8681C80.8201 14.036 80.7961 13.796 80.7961 13.52C80.7961 13.232 80.8201 12.992 80.8681 12.8H82.3081C82.3561 12.992 82.3801 13.232 82.3801 13.52C82.3801 13.796 82.3561 14.036 82.3081 14.24H82.8481C82.8961 14.432 82.9201 14.672 82.9201 14.96C82.9201 15.236 82.8961 15.476 82.8481 15.68H83.3881C83.4361 15.872 83.4601 16.112 83.4601 16.4C83.4601 16.676 83.4361 16.916 83.3881 17.12C83.4361 17.312 83.4601 17.552 83.4601 17.84C83.4601 18.116 83.4361 18.356 83.3881 18.56H83.9281C83.8801 18.356 83.8561 18.116 83.8561 17.84C83.8561 17.552 83.8801 17.312 83.9281 17.12H84.2881C84.2401 16.916 84.2161 16.676 84.2161 16.4C84.2161 16.112 84.2401 15.872 84.2881 15.68H84.8281C84.7801 15.476 84.7561 15.236 84.7561 14.96C84.7561 14.672 84.7801 14.432 84.8281 14.24H85.3681C85.3201 14.036 85.2961 13.796 85.2961 13.52C85.2961 13.232 85.3201 12.992 85.3681 12.8H86.8081C86.8561 12.992 86.8801 13.232 86.8801 13.52Z" fill="white"/>
<defs>
<linearGradient id="paint0_linear_727_27479" x1="51.5" y1="1" x2="51.5" y2="30" gradientUnits="userSpaceOnUse">
<stop stop-color="#F7931E"/>
<stop offset="0.526042" stop-color="#B21EF7" stop-opacity="0.88"/>
<stop offset="1" stop-color="#1EF7A9"/>
</linearGradient>
<linearGradient id="paint1_linear_727_27479" x1="51.5" y1="4" x2="51.5" y2="27" gradientUnits="userSpaceOnUse">
<stop stop-color="#F7931E"/>
<stop offset="0.526042" stop-color="#B21EF7" stop-opacity="0.88"/>
<stop offset="1" stop-color="#1EF7A9"/>
</linearGradient>
<linearGradient id="paint2_linear_727_27479" x1="51.5" y1="4" x2="51.5" y2="27" gradientUnits="userSpaceOnUse">
<stop stop-color="#F7931E"/>
<stop offset="0.526042" stop-color="#B21EF7" stop-opacity="0.88"/>
<stop offset="1" stop-color="#1EF7A9"/>
</linearGradient>
</defs>
</svg>
