<svg width="103" height="31" viewBox="0 0 103 31" fill="none" xmlns="http://www.w3.org/2000/svg">
<path d="M1 4.625V1H4.79343M8.11268 1H18.5446M21.3897 1L81.6103 1M1 7.79688V23.5M1 26.375V30H4.79343M8.11268 30H18.5446M21.8638 30H81.6103M84.9296 30H94.8873M97.7324 30H102V26.375M102 23.5V7.79688M102 5.07812V1H97.7324M94.4131 1H84.4554" stroke="url(#paint0_linear_727_27479)" stroke-width="1.5"/>
<path d="M7.97906 4H4V8.18182M95.0209 4H99V8.18182M99 22.8182V27H95.0209M7.97906 27H4V22.8182" stroke="url(#paint1_linear_727_27479)" stroke-width="2"/>
<path d="M11.5397 7.91489V4.48936V4H91.4603V7.42553H94.4762V10.8511H99V19.1702H95.9841V22.5957H91.963V27H11.037V23.5745H8.52381V20.1489H4V10.8511H8.02116V7.91489H11.5397Z" fill="url(#paint2_linear_727_27479)"/>
<path d="M35.8589 11.36C35.9069 11.552 35.9309 11.792 35.9309 12.08C35.9309 12.356 35.9069 12.596 35.8589 12.8C35.9069 12.992 35.9309 13.232 35.9309 13.52C35.9309 13.796 35.9069 14.036 35.8589 14.24C35.9069 14.432 35.9309 14.672 35.9309 14.96C35.9309 15.236 35.9069 15.476 35.8589 15.68C35.9069 15.872 35.9309 16.112 35.9309 16.4C35.9309 16.676 35.9069 16.916 35.8589 17.12C35.9069 17.312 35.9309 17.552 35.9309 17.84C35.9309 18.116 35.9069 18.356 35.8589 18.56C35.9069 18.752 35.9309 18.992 35.9309 19.28C35.9309 19.556 35.9069 19.796 35.8589 20H34.4189C34.3709 19.796 34.3469 19.556 34.3469 19.28C34.3469 18.992 34.3709 18.752 34.4189 18.56C34.3709 18.356 34.3469 18.116 34.3469 17.84C34.3469 17.552 34.3709 17.312 34.4189 17.12C34.3709 16.916 34.3469 16.676 34.3469 16.4C34.3469 16.112 34.3709 15.872 34.4189 15.68C34.3709 15.476 34.3469 15.236 34.3469 14.96C34.3469 14.672 34.3709 14.432 34.4189 14.24C34.3709 14.036 34.3469 13.796 34.3469 13.52C34.3469 13.232 34.3709 12.992 34.4189 12.8H33.8789C33.9269 12.992 33.9509 13.232 33.9509 13.52C33.9509 13.796 33.9269 14.036 33.8789 14.24C33.9269 14.432 33.9509 14.672 33.9509 14.96C33.9509 15.236 33.9269 15.476 33.8789 15.68H33.5189C33.5669 15.872 33.5909 16.112 33.5909 16.4C33.5909 16.676 33.5669 16.916 33.5189 17.12C33.5669 17.312 33.5909 17.552 33.5909 17.84C33.5909 18.116 33.5669 18.356 33.5189 18.56H32.4389C32.3909 18.356 32.3669 18.116 32.3669 17.84C32.3669 17.552 32.3909 17.312 32.4389 17.12C32.3909 16.916 32.3669 16.676 32.3669 16.4C32.3669 16.112 32.3909 15.872 32.4389 15.68H32.0789C32.0309 15.476 32.0069 15.236 32.0069 14.96C32.0069 14.672 32.0309 14.432 32.0789 14.24C32.0309 14.036 32.0069 13.796 32.0069 13.52C32.0069 13.232 32.0309 12.992 32.0789 12.8H31.5389C31.5869 12.992 31.6109 13.232 31.6109 13.52C31.6109 13.796 31.5869 14.036 31.5389 14.24C31.5869 14.432 31.6109 14.672 31.6109 14.96C31.6109 15.236 31.5869 15.476 31.5389 15.68C31.5869 15.872 31.6109 16.112 31.6109 16.4C31.6109 16.676 31.5869 16.916 31.5389 17.12C31.5869 17.312 31.6109 17.552 31.6109 17.84C31.6109 18.116 31.5869 18.356 31.5389 18.56C31.5869 18.752 31.6109 18.992 31.6109 19.28C31.6109 19.556 31.5869 19.796 31.5389 20H30.0989C30.0509 19.796 30.0269 19.556 30.0269 19.28C30.0269 18.992 30.0509 18.752 30.0989 18.56C30.0509 18.356 30.0269 18.116 30.0269 17.84C30.0269 17.552 30.0509 17.312 30.0989 17.12C30.0509 16.916 30.0269 16.676 30.0269 16.4C30.0269 16.112 30.0509 15.872 30.0989 15.68C30.0509 15.476 30.0269 15.236 30.0269 14.96C30.0269 14.672 30.0509 14.432 30.0989 14.24C30.0509 14.036 30.0269 13.796 30.0269 13.52C30.0269 13.232 30.0509 12.992 30.0989 12.8C30.0509 12.596 30.0269 12.356 30.0269 12.08C30.0269 11.792 30.0509 11.552 30.0989 11.36C30.0509 11.156 30.0269 10.916 30.0269 10.64C30.0269 10.352 30.0509 10.112 30.0989 9.92H31.8989C31.9469 10.112 31.9709 10.352 31.9709 10.64C31.9709 10.916 31.9469 11.156 31.8989 11.36H32.4389C32.4869 11.552 32.5109 11.792 32.5109 12.08C32.5109 12.356 32.4869 12.596 32.4389 12.8H32.7089C32.7569 12.992 32.7809 13.232 32.7809 13.52C32.7809 13.796 32.7569 14.036 32.7089 14.24H33.2489C33.2009 14.036 33.1769 13.796 33.1769 13.52C33.1769 13.232 33.2009 12.992 33.2489 12.8H33.5189C33.4709 12.596 33.4469 12.356 33.4469 12.08C33.4469 11.792 33.4709 11.552 33.5189 11.36H34.0589C34.0109 11.156 33.9869 10.916 33.9869 10.64C33.9869 10.352 34.0109 10.112 34.0589 9.92H35.8589C35.9069 10.112 35.9309 10.352 35.9309 10.64C35.9309 10.916 35.9069 11.156 35.8589 11.36ZM43.1379 13.52C43.1379 13.796 43.1139 14.036 43.0659 14.24H42.5259C42.5739 14.432 42.5979 14.672 42.5979 14.96C42.5979 15.236 42.5739 15.476 42.5259 15.68H41.9859C42.0339 15.872 42.0579 16.112 42.0579 16.4C42.0579 16.676 42.0339 16.916 41.9859 17.12H41.6259C41.6739 17.312 41.6979 17.552 41.6979 17.84C41.6979 18.116 41.6739 18.356 41.6259 18.56H41.0859C41.1339 18.752 41.1579 18.992 41.1579 19.28C41.1579 19.556 41.1339 19.796 41.0859 20H40.7259C40.7739 20.192 40.7979 20.432 40.7979 20.72C40.7979 20.996 40.7739 21.236 40.7259 21.44H40.0059C40.0539 21.632 40.0779 21.872 40.0779 22.16C40.0779 22.436 40.0539 22.676 40.0059 22.88H37.8459C37.7979 22.676 37.7739 22.436 37.7739 22.16C37.7739 21.872 37.7979 21.632 37.8459 21.44H39.2859C39.2379 21.236 39.2139 20.996 39.2139 20.72C39.2139 20.432 39.2379 20.192 39.2859 20C39.2379 19.796 39.2139 19.556 39.2139 19.28C39.2139 18.992 39.2379 18.752 39.2859 18.56H38.5659C38.5179 18.356 38.4939 18.116 38.4939 17.84C38.4939 17.552 38.5179 17.312 38.5659 17.12H38.2059C38.1579 16.916 38.1339 16.676 38.1339 16.4C38.1339 16.112 38.1579 15.872 38.2059 15.68H37.6659C37.6179 15.476 37.5939 15.236 37.5939 14.96C37.5939 14.672 37.6179 14.432 37.6659 14.24H37.1259C37.0779 14.036 37.0539 13.796 37.0539 13.52C37.0539 13.232 37.0779 12.992 37.1259 12.8H38.5659C38.6139 12.992 38.6379 13.232 38.6379 13.52C38.6379 13.796 38.6139 14.036 38.5659 14.24H39.1059C39.1539 14.432 39.1779 14.672 39.1779 14.96C39.1779 15.236 39.1539 15.476 39.1059 15.68H39.6459C39.6939 15.872 39.7179 16.112 39.7179 16.4C39.7179 16.676 39.6939 16.916 39.6459 17.12C39.6939 17.312 39.7179 17.552 39.7179 17.84C39.7179 18.116 39.6939 18.356 39.6459 18.56H40.1859C40.1379 18.356 40.1139 18.116 40.1139 17.84C40.1139 17.552 40.1379 17.312 40.1859 17.12H40.5459C40.4979 16.916 40.4739 16.676 40.4739 16.4C40.4739 16.112 40.4979 15.872 40.5459 15.68H41.0859C41.0379 15.476 41.0139 15.236 41.0139 14.96C41.0139 14.672 41.0379 14.432 41.0859 14.24H41.6259C41.5779 14.036 41.5539 13.796 41.5539 13.52C41.5539 13.232 41.5779 12.992 41.6259 12.8H43.0659C43.1139 12.992 43.1379 13.232 43.1379 13.52ZM49.553 18.56C49.601 18.752 49.625 18.992 49.625 19.28C49.625 19.556 49.601 19.796 49.553 20H46.673C46.625 19.796 46.601 19.556 46.601 19.28C46.601 18.992 46.625 18.752 46.673 18.56H45.953C45.905 18.356 45.881 18.116 45.881 17.84C45.881 17.552 45.905 17.312 45.953 17.12C45.905 16.916 45.881 16.676 45.881 16.4C45.881 16.112 45.905 15.872 45.953 15.68C45.905 15.476 45.881 15.236 45.881 14.96C45.881 14.672 45.905 14.432 45.953 14.24H44.513C44.465 14.036 44.441 13.796 44.441 13.52C44.441 13.232 44.465 12.992 44.513 12.8H45.953C45.905 12.596 45.881 12.356 45.881 12.08C45.881 11.792 45.905 11.552 45.953 11.36C45.905 11.156 45.881 10.916 45.881 10.64C45.881 10.352 45.905 10.112 45.953 9.92H47.393C47.441 10.112 47.465 10.352 47.465 10.64C47.465 10.916 47.441 11.156 47.393 11.36C47.441 11.552 47.465 11.792 47.465 12.08C47.465 12.356 47.441 12.596 47.393 12.8H49.553C49.601 12.992 49.625 13.232 49.625 13.52C49.625 13.796 49.601 14.036 49.553 14.24H47.393C47.441 14.432 47.465 14.672 47.465 14.96C47.465 15.236 47.441 15.476 47.393 15.68C47.441 15.872 47.465 16.112 47.465 16.4C47.465 16.676 47.441 16.916 47.393 17.12C47.441 17.312 47.465 17.552 47.465 17.84C47.465 18.116 47.441 18.356 47.393 18.56H49.553ZM53.232 13.52C53.232 13.796 53.208 14.036 53.16 14.24H53.7C53.748 14.432 53.772 14.672 53.772 14.96C53.772 15.236 53.748 15.476 53.7 15.68H53.16C53.208 15.872 53.232 16.112 53.232 16.4C53.232 16.676 53.208 16.916 53.16 17.12C53.208 17.312 53.232 17.552 53.232 17.84C53.232 18.116 53.208 18.356 53.16 18.56C53.208 18.752 53.232 18.992 53.232 19.28C53.232 19.556 53.208 19.796 53.16 20H51.72C51.672 19.796 51.648 19.556 51.648 19.28C51.648 18.992 51.672 18.752 51.72 18.56C51.672 18.356 51.648 18.116 51.648 17.84C51.648 17.552 51.672 17.312 51.72 17.12C51.672 16.916 51.648 16.676 51.648 16.4C51.648 16.112 51.672 15.872 51.72 15.68C51.672 15.476 51.648 15.236 51.648 14.96C51.648 14.672 51.672 14.432 51.72 14.24C51.672 14.036 51.648 13.796 51.648 13.52C51.648 13.232 51.672 12.992 51.72 12.8C51.672 12.596 51.648 12.356 51.648 12.08C51.648 11.792 51.672 11.552 51.72 11.36C51.672 11.156 51.648 10.916 51.648 10.64C51.648 10.352 51.672 10.112 51.72 9.92H53.16C53.208 10.112 53.232 10.352 53.232 10.64C53.232 10.916 53.208 11.156 53.16 11.36C53.208 11.552 53.232 11.792 53.232 12.08C53.232 12.356 53.208 12.596 53.16 12.8C53.208 12.992 53.232 13.232 53.232 13.52ZM57.48 15.68C57.528 15.872 57.552 16.112 57.552 16.4C57.552 16.676 57.528 16.916 57.48 17.12C57.528 17.312 57.552 17.552 57.552 17.84C57.552 18.116 57.528 18.356 57.48 18.56C57.528 18.752 57.552 18.992 57.552 19.28C57.552 19.556 57.528 19.796 57.48 20H56.04C55.992 19.796 55.968 19.556 55.968 19.28C55.968 18.992 55.992 18.752 56.04 18.56C55.992 18.356 55.968 18.116 55.968 17.84C55.968 17.552 55.992 17.312 56.04 17.12C55.992 16.916 55.968 16.676 55.968 16.4C55.968 16.112 55.992 15.872 56.04 15.68C55.992 15.476 55.968 15.236 55.968 14.96C55.968 14.672 55.992 14.432 56.04 14.24H53.7C53.652 14.036 53.628 13.796 53.628 13.52C53.628 13.232 53.652 12.992 53.7 12.8H56.58C56.628 12.992 56.652 13.232 56.652 13.52C56.652 13.796 56.628 14.036 56.58 14.24H57.48C57.528 14.432 57.552 14.672 57.552 14.96C57.552 15.236 57.528 15.476 57.48 15.68ZM61.087 11.36C61.039 11.156 61.015 10.916 61.015 10.64C61.015 10.352 61.039 10.112 61.087 9.92H62.527C62.575 10.112 62.599 10.352 62.599 10.64C62.599 10.916 62.575 11.156 62.527 11.36H61.087ZM63.967 18.56C64.015 18.752 64.039 18.992 64.039 19.28C64.039 19.556 64.015 19.796 63.967 20H59.647C59.599 19.796 59.575 19.556 59.575 19.28C59.575 18.992 59.599 18.752 59.647 18.56H61.087C61.039 18.356 61.015 18.116 61.015 17.84C61.015 17.552 61.039 17.312 61.087 17.12C61.039 16.916 61.015 16.676 61.015 16.4C61.015 16.112 61.039 15.872 61.087 15.68C61.039 15.476 61.015 15.236 61.015 14.96C61.015 14.672 61.039 14.432 61.087 14.24H60.007C59.959 14.036 59.935 13.796 59.935 13.52C59.935 13.232 59.959 12.992 60.007 12.8H62.527C62.575 12.992 62.599 13.232 62.599 13.52C62.599 13.796 62.575 14.036 62.527 14.24C62.575 14.432 62.599 14.672 62.599 14.96C62.599 15.236 62.575 15.476 62.527 15.68C62.575 15.872 62.599 16.112 62.599 16.4C62.599 16.676 62.575 16.916 62.527 17.12C62.575 17.312 62.599 17.552 62.599 17.84C62.599 18.116 62.575 18.356 62.527 18.56H63.967ZM71.8941 17.12C71.9421 17.312 71.9661 17.552 71.9661 17.84C71.9661 18.116 71.9421 18.356 71.8941 18.56H71.1741C71.2221 18.752 71.2461 18.992 71.2461 19.28C71.2461 19.556 71.2221 19.796 71.1741 20H67.5741C67.5261 19.796 67.5021 19.556 67.5021 19.28C67.5021 18.992 67.5261 18.752 67.5741 18.56H66.8541C66.8061 18.356 66.7821 18.116 66.7821 17.84C66.7821 17.552 66.8061 17.312 66.8541 17.12H66.1341C66.0861 16.916 66.0621 16.676 66.0621 16.4C66.0621 16.112 66.0861 15.872 66.1341 15.68H66.8541C66.8061 15.476 66.7821 15.236 66.7821 14.96C66.7821 14.672 66.8061 14.432 66.8541 14.24H67.5741C67.5261 14.036 67.5021 13.796 67.5021 13.52C67.5021 13.232 67.5261 12.992 67.5741 12.8H71.1741C71.2221 12.992 71.2461 13.232 71.2461 13.52C71.2461 13.796 71.2221 14.036 71.1741 14.24H71.8941C71.9421 14.432 71.9661 14.672 71.9661 14.96C71.9661 15.236 71.9421 15.476 71.8941 15.68H70.4541C70.4061 15.476 70.3821 15.236 70.3821 14.96C70.3821 14.672 70.4061 14.432 70.4541 14.24H68.2941C68.3421 14.432 68.3661 14.672 68.3661 14.96C68.3661 15.236 68.3421 15.476 68.2941 15.68H67.5741C67.6221 15.872 67.6461 16.112 67.6461 16.4C67.6461 16.676 67.6221 16.916 67.5741 17.12H68.2941C68.3421 17.312 68.3661 17.552 68.3661 17.84C68.3661 18.116 68.3421 18.356 68.2941 18.56H70.4541C70.4061 18.356 70.3821 18.116 70.3821 17.84C70.3821 17.552 70.4061 17.312 70.4541 17.12H71.8941Z" fill="white"/>
<defs>
<linearGradient id="paint0_linear_727_27479" x1="51.5" y1="1" x2="51.5" y2="30" gradientUnits="userSpaceOnUse">
<stop stop-color="#F7931E"/>
<stop offset="0.526042" stop-color="#B21EF7" stop-opacity="0.88"/>
<stop offset="1" stop-color="#1EF7A9"/>
</linearGradient>
<linearGradient id="paint1_linear_727_27479" x1="51.5" y1="4" x2="51.5" y2="27" gradientUnits="userSpaceOnUse">
<stop stop-color="#F7931E"/>
<stop offset="0.526042" stop-color="#B21EF7" stop-opacity="0.88"/>
<stop offset="1" stop-color="#1EF7A9"/>
</linearGradient>
<linearGradient id="paint2_linear_727_27479" x1="51.5" y1="4" x2="51.5" y2="27" gradientUnits="userSpaceOnUse">
<stop stop-color="#F7931E"/>
<stop offset="0.526042" stop-color="#B21EF7" stop-opacity="0.88"/>
<stop offset="1" stop-color="#1EF7A9"/>
</linearGradient>
</defs>
</svg>
