<svg width="103" height="31" viewBox="0 0 103 31" fill="none" xmlns="http://www.w3.org/2000/svg">
<path d="M1 4.625V1H4.79343M8.11268 1H18.5446M21.3897 1L81.6103 1M1 7.79688V23.5M1 26.375V30H4.79343M8.11268 30H18.5446M21.8638 30H81.6103M84.9296 30H94.8873M97.7324 30H102V26.375M102 23.5V7.79688M102 5.07812V1H97.7324M94.4131 1H84.4554" stroke="#C6A13A" stroke-width="1.5"/>
<path d="M7.97906 4H4V8.18182M95.0209 4H99V8.18182M99 22.8182V27H95.0209M7.97906 27H4V22.8182" stroke="#C6A13A" stroke-width="2"/>
<path d="M11.5397 7.91489V4.48936V4H91.4603V7.42553H94.4762V10.8511H99V19.1702H95.9841V22.5957H91.963V27H11.037V23.5745H8.52381V20.1489H4V10.8511H8.02116V7.91489H11.5397Z" fill="#FEDF89"/>
<path d="M44.5659 18.56C44.6139 18.752 44.6379 18.992 44.6379 19.28C44.6379 19.556 44.6139 19.796 44.5659 20H43.1259C43.0779 19.796 43.0539 19.556 43.0539 19.28C43.0539 18.992 43.0779 18.752 43.1259 18.56H42.5859C42.5379 18.356 42.5139 18.116 42.5139 17.84C42.5139 17.552 42.5379 17.312 42.5859 17.12H42.0459C41.9979 16.916 41.9739 16.676 41.9739 16.4C41.9739 16.112 41.9979 15.872 42.0459 15.68H40.2459C40.2939 15.872 40.3179 16.112 40.3179 16.4C40.3179 16.676 40.2939 16.916 40.2459 17.12C40.2939 17.312 40.3179 17.552 40.3179 17.84C40.3179 18.116 40.2939 18.356 40.2459 18.56C40.2939 18.752 40.3179 18.992 40.3179 19.28C40.3179 19.556 40.2939 19.796 40.2459 20H38.8059C38.7579 19.796 38.7339 19.556 38.7339 19.28C38.7339 18.992 38.7579 18.752 38.8059 18.56C38.7579 18.356 38.7339 18.116 38.7339 17.84C38.7339 17.552 38.7579 17.312 38.8059 17.12C38.7579 16.916 38.7339 16.676 38.7339 16.4C38.7339 16.112 38.7579 15.872 38.8059 15.68C38.7579 15.476 38.7339 15.236 38.7339 14.96C38.7339 14.672 38.7579 14.432 38.8059 14.24C38.7579 14.036 38.7339 13.796 38.7339 13.52C38.7339 13.232 38.7579 12.992 38.8059 12.8C38.7579 12.596 38.7339 12.356 38.7339 12.08C38.7339 11.792 38.7579 11.552 38.8059 11.36C38.7579 11.156 38.7339 10.916 38.7339 10.64C38.7339 10.352 38.7579 10.112 38.8059 9.92H43.8459C43.8939 10.112 43.9179 10.352 43.9179 10.64C43.9179 10.916 43.8939 11.156 43.8459 11.36H44.5659C44.6139 11.552 44.6379 11.792 44.6379 12.08C44.6379 12.356 44.6139 12.596 44.5659 12.8H44.2059C44.2539 12.992 44.2779 13.232 44.2779 13.52C44.2779 13.796 44.2539 14.036 44.2059 14.24H43.1259C43.1739 14.432 43.1979 14.672 43.1979 14.96C43.1979 15.236 43.1739 15.476 43.1259 15.68H43.4859C43.5339 15.872 43.5579 16.112 43.5579 16.4C43.5579 16.676 43.5339 16.916 43.4859 17.12H44.0259C44.0739 17.312 44.0979 17.552 44.0979 17.84C44.0979 18.116 44.0739 18.356 44.0259 18.56H44.5659ZM42.7659 14.24C42.7179 14.036 42.6939 13.796 42.6939 13.52C42.6939 13.232 42.7179 12.992 42.7659 12.8C42.7179 12.596 42.6939 12.356 42.6939 12.08C42.6939 11.792 42.7179 11.552 42.7659 11.36H40.2459C40.2939 11.552 40.3179 11.792 40.3179 12.08C40.3179 12.356 40.2939 12.596 40.2459 12.8C40.2939 12.992 40.3179 13.232 40.3179 13.52C40.3179 13.796 40.2939 14.036 40.2459 14.24H42.7659ZM51.773 18.56C51.821 18.752 51.845 18.992 51.845 19.28C51.845 19.556 51.821 19.796 51.773 20H50.333C50.285 19.796 50.261 19.556 50.261 19.28C50.261 18.992 50.285 18.752 50.333 18.56H49.613C49.565 18.356 49.541 18.116 49.541 17.84C49.541 17.552 49.565 17.312 49.613 17.12H47.453C47.501 17.312 47.525 17.552 47.525 17.84C47.525 18.116 47.501 18.356 47.453 18.56H49.613C49.661 18.752 49.685 18.992 49.685 19.28C49.685 19.556 49.661 19.796 49.613 20H46.733C46.685 19.796 46.661 19.556 46.661 19.28C46.661 18.992 46.685 18.752 46.733 18.56H46.013C45.965 18.356 45.941 18.116 45.941 17.84C45.941 17.552 45.965 17.312 46.013 17.12H46.733C46.685 16.916 46.661 16.676 46.661 16.4C46.661 16.112 46.685 15.872 46.733 15.68H49.613C49.565 15.476 49.541 15.236 49.541 14.96C49.541 14.672 49.565 14.432 49.613 14.24H47.093C47.045 14.036 47.021 13.796 47.021 13.52C47.021 13.232 47.045 12.992 47.093 12.8H50.333C50.381 12.992 50.405 13.232 50.405 13.52C50.405 13.796 50.381 14.036 50.333 14.24H51.053C51.101 14.432 51.125 14.672 51.125 14.96C51.125 15.236 51.101 15.476 51.053 15.68C51.101 15.872 51.125 16.112 51.125 16.4C51.125 16.676 51.101 16.916 51.053 17.12C51.101 17.312 51.125 17.552 51.125 17.84C51.125 18.116 51.101 18.356 51.053 18.56H51.773ZM58.98 14.24C59.028 14.432 59.052 14.672 59.052 14.96C59.052 15.236 59.028 15.476 58.98 15.68H57.54C57.492 15.476 57.468 15.236 57.468 14.96C57.468 14.672 57.492 14.432 57.54 14.24H56.28C56.328 14.432 56.352 14.672 56.352 14.96C56.352 15.236 56.328 15.476 56.28 15.68H55.74C55.788 15.872 55.812 16.112 55.812 16.4C55.812 16.676 55.788 16.916 55.74 17.12C55.788 17.312 55.812 17.552 55.812 17.84C55.812 18.116 55.788 18.356 55.74 18.56H56.82C56.868 18.752 56.892 18.992 56.892 19.28C56.892 19.556 56.868 19.796 56.82 20H53.22C53.172 19.796 53.148 19.556 53.148 19.28C53.148 18.992 53.172 18.752 53.22 18.56H54.3C54.252 18.356 54.228 18.116 54.228 17.84C54.228 17.552 54.252 17.312 54.3 17.12C54.252 16.916 54.228 16.676 54.228 16.4C54.228 16.112 54.252 15.872 54.3 15.68C54.252 15.476 54.228 15.236 54.228 14.96C54.228 14.672 54.252 14.432 54.3 14.24H53.22C53.172 14.036 53.148 13.796 53.148 13.52C53.148 13.232 53.172 12.992 53.22 12.8H55.02C55.068 12.992 55.092 13.232 55.092 13.52C55.092 13.796 55.068 14.036 55.02 14.24H55.74C55.692 14.036 55.668 13.796 55.668 13.52C55.668 13.232 55.692 12.992 55.74 12.8H58.44C58.488 12.992 58.512 13.232 58.512 13.52C58.512 13.796 58.488 14.036 58.44 14.24H58.98ZM66.259 14.96C66.259 15.236 66.235 15.476 66.187 15.68C66.235 15.872 66.259 16.112 66.259 16.4C66.259 16.676 66.235 16.916 66.187 17.12H62.407C62.455 17.312 62.479 17.552 62.479 17.84C62.479 18.116 62.455 18.356 62.407 18.56H65.467C65.515 18.752 65.539 18.992 65.539 19.28C65.539 19.556 65.515 19.796 65.467 20H61.867C61.819 19.796 61.795 19.556 61.795 19.28C61.795 18.992 61.819 18.752 61.867 18.56H60.967C60.919 18.356 60.895 18.116 60.895 17.84C60.895 17.552 60.919 17.312 60.967 17.12H60.427C60.379 16.916 60.355 16.676 60.355 16.4C60.355 16.112 60.379 15.872 60.427 15.68H60.967C60.919 15.476 60.895 15.236 60.895 14.96C60.895 14.672 60.919 14.432 60.967 14.24H61.867C61.819 14.036 61.795 13.796 61.795 13.52C61.795 13.232 61.819 12.992 61.867 12.8H65.467C65.515 12.992 65.539 13.232 65.539 13.52C65.539 13.796 65.515 14.036 65.467 14.24H66.187C66.235 14.432 66.259 14.672 66.259 14.96ZM64.747 15.68C64.699 15.476 64.675 15.236 64.675 14.96C64.675 14.672 64.699 14.432 64.747 14.24H62.407C62.455 14.432 62.479 14.672 62.479 14.96C62.479 15.236 62.455 15.476 62.407 15.68H64.747Z" fill="black"/>
</svg>
