<svg width="103" height="31" viewBox="0 0 103 31" fill="none" xmlns="http://www.w3.org/2000/svg">
<path d="M1 4.625V1H4.79343M8.11268 1H18.5446M21.3897 1L81.6103 1M1 7.79688V24M1 26.375V30H4.79343M8.11268 30H18.5446M21.8638 30H81.6103M84.9296 30H94.8873M97.7324 30H102V26.375M102 24V7.79688M102 5.07812V1H97.7324M94.4131 1H84.4554" stroke="#5F6694" stroke-width="1.5"/>
<path d="M11.5397 7.91489V4.48936V4H91.4603V7.42553H94.4762V10.8511H99V19.1702H95.9841V22.5957H91.963V27H11.037V23.5745H8.52381V20.1489H4V10.8511H8.02116V7.91489H11.5397Z" fill="#B6BDE9"/>
<path d="M29.6519 11.36C29.6999 11.552 29.7239 11.792 29.7239 12.08C29.7239 12.356 29.6999 12.596 29.6519 12.8C29.6999 12.992 29.7239 13.232 29.7239 13.52C29.7239 13.796 29.6999 14.036 29.6519 14.24C29.6999 14.432 29.7239 14.672 29.7239 14.96C29.7239 15.236 29.6999 15.476 29.6519 15.68C29.6999 15.872 29.7239 16.112 29.7239 16.4C29.7239 16.676 29.6999 16.916 29.6519 17.12C29.6999 17.312 29.7239 17.552 29.7239 17.84C29.7239 18.116 29.6999 18.356 29.6519 18.56H28.9319C28.9799 18.752 29.0039 18.992 29.0039 19.28C29.0039 19.556 28.9799 19.796 28.9319 20H24.6119C24.5639 19.796 24.5399 19.556 24.5399 19.28C24.5399 18.992 24.5639 18.752 24.6119 18.56H23.8919C23.8439 18.356 23.8199 18.116 23.8199 17.84C23.8199 17.552 23.8439 17.312 23.8919 17.12C23.8439 16.916 23.8199 16.676 23.8199 16.4C23.8199 16.112 23.8439 15.872 23.8919 15.68C23.8439 15.476 23.8199 15.236 23.8199 14.96C23.8199 14.672 23.8439 14.432 23.8919 14.24C23.8439 14.036 23.8199 13.796 23.8199 13.52C23.8199 13.232 23.8439 12.992 23.8919 12.8C23.8439 12.596 23.8199 12.356 23.8199 12.08C23.8199 11.792 23.8439 11.552 23.8919 11.36C23.8439 11.156 23.8199 10.916 23.8199 10.64C23.8199 10.352 23.8439 10.112 23.8919 9.92H25.3319C25.3799 10.112 25.4039 10.352 25.4039 10.64C25.4039 10.916 25.3799 11.156 25.3319 11.36C25.3799 11.552 25.4039 11.792 25.4039 12.08C25.4039 12.356 25.3799 12.596 25.3319 12.8C25.3799 12.992 25.4039 13.232 25.4039 13.52C25.4039 13.796 25.3799 14.036 25.3319 14.24C25.3799 14.432 25.4039 14.672 25.4039 14.96C25.4039 15.236 25.3799 15.476 25.3319 15.68C25.3799 15.872 25.4039 16.112 25.4039 16.4C25.4039 16.676 25.3799 16.916 25.3319 17.12C25.3799 17.312 25.4039 17.552 25.4039 17.84C25.4039 18.116 25.3799 18.356 25.3319 18.56H28.2119C28.1639 18.356 28.1399 18.116 28.1399 17.84C28.1399 17.552 28.1639 17.312 28.2119 17.12C28.1639 16.916 28.1399 16.676 28.1399 16.4C28.1399 16.112 28.1639 15.872 28.2119 15.68C28.1639 15.476 28.1399 15.236 28.1399 14.96C28.1399 14.672 28.1639 14.432 28.2119 14.24C28.1639 14.036 28.1399 13.796 28.1399 13.52C28.1399 13.232 28.1639 12.992 28.2119 12.8C28.1639 12.596 28.1399 12.356 28.1399 12.08C28.1399 11.792 28.1639 11.552 28.2119 11.36C28.1639 11.156 28.1399 10.916 28.1399 10.64C28.1399 10.352 28.1639 10.112 28.2119 9.92H29.6519C29.6999 10.112 29.7239 10.352 29.7239 10.64C29.7239 10.916 29.6999 11.156 29.6519 11.36ZM32.4309 13.52C32.4309 13.796 32.4069 14.036 32.3589 14.24H33.0789C33.1269 14.432 33.1509 14.672 33.1509 14.96C33.1509 15.236 33.1269 15.476 33.0789 15.68H32.5389C32.5869 15.872 32.6109 16.112 32.6109 16.4C32.6109 16.676 32.5869 16.916 32.5389 17.12C32.5869 17.312 32.6109 17.552 32.6109 17.84C32.6109 18.116 32.5869 18.356 32.5389 18.56C32.5869 18.752 32.6109 18.992 32.6109 19.28C32.6109 19.556 32.5869 19.796 32.5389 20H31.0989C31.0509 19.796 31.0269 19.556 31.0269 19.28C31.0269 18.992 31.0509 18.752 31.0989 18.56C31.0509 18.356 31.0269 18.116 31.0269 17.84C31.0269 17.552 31.0509 17.312 31.0989 17.12C31.0509 16.916 31.0269 16.676 31.0269 16.4C31.0269 16.112 31.0509 15.872 31.0989 15.68C31.0509 15.476 31.0269 15.236 31.0269 14.96C31.0269 14.672 31.0509 14.432 31.0989 14.24C31.0509 14.036 31.0269 13.796 31.0269 13.52C31.0269 13.232 31.0509 12.992 31.0989 12.8H32.3589C32.4069 12.992 32.4309 13.232 32.4309 13.52ZM36.8589 15.68C36.9069 15.872 36.9309 16.112 36.9309 16.4C36.9309 16.676 36.9069 16.916 36.8589 17.12C36.9069 17.312 36.9309 17.552 36.9309 17.84C36.9309 18.116 36.9069 18.356 36.8589 18.56C36.9069 18.752 36.9309 18.992 36.9309 19.28C36.9309 19.556 36.9069 19.796 36.8589 20H35.4189C35.3709 19.796 35.3469 19.556 35.3469 19.28C35.3469 18.992 35.3709 18.752 35.4189 18.56C35.3709 18.356 35.3469 18.116 35.3469 17.84C35.3469 17.552 35.3709 17.312 35.4189 17.12C35.3709 16.916 35.3469 16.676 35.3469 16.4C35.3469 16.112 35.3709 15.872 35.4189 15.68C35.3709 15.476 35.3469 15.236 35.3469 14.96C35.3469 14.672 35.3709 14.432 35.4189 14.24H33.0789C33.0309 14.036 33.0069 13.796 33.0069 13.52C33.0069 13.232 33.0309 12.992 33.0789 12.8H35.9589C36.0069 12.992 36.0309 13.232 36.0309 13.52C36.0309 13.796 36.0069 14.036 35.9589 14.24H36.8589C36.9069 14.432 36.9309 14.672 36.9309 14.96C36.9309 15.236 36.9069 15.476 36.8589 15.68ZM44.0659 17.12C44.1139 17.312 44.1379 17.552 44.1379 17.84C44.1379 18.116 44.1139 18.356 44.0659 18.56H43.3459C43.3939 18.752 43.4179 18.992 43.4179 19.28C43.4179 19.556 43.3939 19.796 43.3459 20H39.7459C39.6979 19.796 39.6739 19.556 39.6739 19.28C39.6739 18.992 39.6979 18.752 39.7459 18.56H39.0259C38.9779 18.356 38.9539 18.116 38.9539 17.84C38.9539 17.552 38.9779 17.312 39.0259 17.12H38.3059C38.2579 16.916 38.2339 16.676 38.2339 16.4C38.2339 16.112 38.2579 15.872 38.3059 15.68H39.0259C38.9779 15.476 38.9539 15.236 38.9539 14.96C38.9539 14.672 38.9779 14.432 39.0259 14.24H39.7459C39.6979 14.036 39.6739 13.796 39.6739 13.52C39.6739 13.232 39.6979 12.992 39.7459 12.8H43.3459C43.3939 12.992 43.4179 13.232 43.4179 13.52C43.4179 13.796 43.3939 14.036 43.3459 14.24H44.0659C44.1139 14.432 44.1379 14.672 44.1379 14.96C44.1379 15.236 44.1139 15.476 44.0659 15.68H42.6259C42.5779 15.476 42.5539 15.236 42.5539 14.96C42.5539 14.672 42.5779 14.432 42.6259 14.24H40.4659C40.5139 14.432 40.5379 14.672 40.5379 14.96C40.5379 15.236 40.5139 15.476 40.4659 15.68H39.7459C39.7939 15.872 39.8179 16.112 39.8179 16.4C39.8179 16.676 39.7939 16.916 39.7459 17.12H40.4659C40.5139 17.312 40.5379 17.552 40.5379 17.84C40.5379 18.116 40.5139 18.356 40.4659 18.56H42.6259C42.5779 18.356 42.5539 18.116 42.5539 17.84C42.5539 17.552 42.5779 17.312 42.6259 17.12H44.0659ZM51.345 16.4C51.345 16.676 51.321 16.916 51.273 17.12H50.733C50.781 17.312 50.805 17.552 50.805 17.84C50.805 18.116 50.781 18.356 50.733 18.56H49.833C49.881 18.752 49.905 18.992 49.905 19.28C49.905 19.556 49.881 19.796 49.833 20H46.953C46.905 19.796 46.881 19.556 46.881 19.28C46.881 18.992 46.905 18.752 46.953 18.56H46.053C46.005 18.356 45.981 18.116 45.981 17.84C45.981 17.552 46.005 17.312 46.053 17.12H45.513C45.465 16.916 45.441 16.676 45.441 16.4C45.441 16.112 45.465 15.872 45.513 15.68H46.053C46.005 15.476 45.981 15.236 45.981 14.96C45.981 14.672 46.005 14.432 46.053 14.24H46.953C46.905 14.036 46.881 13.796 46.881 13.52C46.881 13.232 46.905 12.992 46.953 12.8H49.833C49.881 12.992 49.905 13.232 49.905 13.52C49.905 13.796 49.881 14.036 49.833 14.24H50.733C50.781 14.432 50.805 14.672 50.805 14.96C50.805 15.236 50.781 15.476 50.733 15.68H51.273C51.321 15.872 51.345 16.112 51.345 16.4ZM49.833 17.12C49.785 16.916 49.761 16.676 49.761 16.4C49.761 16.112 49.785 15.872 49.833 15.68H49.293C49.245 15.476 49.221 15.236 49.221 14.96C49.221 14.672 49.245 14.432 49.293 14.24H47.493C47.541 14.432 47.565 14.672 47.565 14.96C47.565 15.236 47.541 15.476 47.493 15.68H46.953C47.001 15.872 47.025 16.112 47.025 16.4C47.025 16.676 47.001 16.916 46.953 17.12H47.493C47.541 17.312 47.565 17.552 47.565 17.84C47.565 18.116 47.541 18.356 47.493 18.56H49.293C49.245 18.356 49.221 18.116 49.221 17.84C49.221 17.552 49.245 17.312 49.293 17.12H49.833ZM53.692 13.52C53.692 13.796 53.668 14.036 53.62 14.24H54.16C54.208 14.432 54.232 14.672 54.232 14.96C54.232 15.236 54.208 15.476 54.16 15.68C54.208 15.872 54.232 16.112 54.232 16.4C54.232 16.676 54.208 16.916 54.16 17.12C54.208 17.312 54.232 17.552 54.232 17.84C54.232 18.116 54.208 18.356 54.16 18.56C54.208 18.752 54.232 18.992 54.232 19.28C54.232 19.556 54.208 19.796 54.16 20H52.72C52.672 19.796 52.648 19.556 52.648 19.28C52.648 18.992 52.672 18.752 52.72 18.56C52.672 18.356 52.648 18.116 52.648 17.84C52.648 17.552 52.672 17.312 52.72 17.12C52.672 16.916 52.648 16.676 52.648 16.4C52.648 16.112 52.672 15.872 52.72 15.68C52.672 15.476 52.648 15.236 52.648 14.96C52.648 14.672 52.672 14.432 52.72 14.24C52.672 14.036 52.648 13.796 52.648 13.52C52.648 13.232 52.672 12.992 52.72 12.8H53.62C53.668 12.992 53.692 13.232 53.692 13.52ZM55.672 13.52C55.672 13.796 55.648 14.036 55.6 14.24H56.14C56.188 14.432 56.212 14.672 56.212 14.96C56.212 15.236 56.188 15.476 56.14 15.68C56.188 15.872 56.212 16.112 56.212 16.4C56.212 16.676 56.188 16.916 56.14 17.12C56.188 17.312 56.212 17.552 56.212 17.84C56.212 18.116 56.188 18.356 56.14 18.56C56.188 18.752 56.212 18.992 56.212 19.28C56.212 19.556 56.188 19.796 56.14 20H55.06C55.012 19.796 54.988 19.556 54.988 19.28C54.988 18.992 55.012 18.752 55.06 18.56C55.012 18.356 54.988 18.116 54.988 17.84C54.988 17.552 55.012 17.312 55.06 17.12C55.012 16.916 54.988 16.676 54.988 16.4C54.988 16.112 55.012 15.872 55.06 15.68C55.012 15.476 54.988 15.236 54.988 14.96C54.988 14.672 55.012 14.432 55.06 14.24H54.16C54.112 14.036 54.088 13.796 54.088 13.52C54.088 13.232 54.112 12.992 54.16 12.8H55.6C55.648 12.992 55.672 13.232 55.672 13.52ZM58.48 15.68C58.528 15.872 58.552 16.112 58.552 16.4C58.552 16.676 58.528 16.916 58.48 17.12C58.528 17.312 58.552 17.552 58.552 17.84C58.552 18.116 58.528 18.356 58.48 18.56C58.528 18.752 58.552 18.992 58.552 19.28C58.552 19.556 58.528 19.796 58.48 20H57.04C56.992 19.796 56.968 19.556 56.968 19.28C56.968 18.992 56.992 18.752 57.04 18.56C56.992 18.356 56.968 18.116 56.968 17.84C56.968 17.552 56.992 17.312 57.04 17.12C56.992 16.916 56.968 16.676 56.968 16.4C56.968 16.112 56.992 15.872 57.04 15.68C56.992 15.476 56.968 15.236 56.968 14.96C56.968 14.672 56.992 14.432 57.04 14.24H56.14C56.092 14.036 56.068 13.796 56.068 13.52C56.068 13.232 56.092 12.992 56.14 12.8H57.76C57.808 12.992 57.832 13.232 57.832 13.52C57.832 13.796 57.808 14.036 57.76 14.24H58.48C58.528 14.432 58.552 14.672 58.552 14.96C58.552 15.236 58.528 15.476 58.48 15.68ZM60.899 13.52C60.899 13.796 60.875 14.036 60.827 14.24H61.367C61.415 14.432 61.439 14.672 61.439 14.96C61.439 15.236 61.415 15.476 61.367 15.68C61.415 15.872 61.439 16.112 61.439 16.4C61.439 16.676 61.415 16.916 61.367 17.12C61.415 17.312 61.439 17.552 61.439 17.84C61.439 18.116 61.415 18.356 61.367 18.56C61.415 18.752 61.439 18.992 61.439 19.28C61.439 19.556 61.415 19.796 61.367 20H59.927C59.879 19.796 59.855 19.556 59.855 19.28C59.855 18.992 59.879 18.752 59.927 18.56C59.879 18.356 59.855 18.116 59.855 17.84C59.855 17.552 59.879 17.312 59.927 17.12C59.879 16.916 59.855 16.676 59.855 16.4C59.855 16.112 59.879 15.872 59.927 15.68C59.879 15.476 59.855 15.236 59.855 14.96C59.855 14.672 59.879 14.432 59.927 14.24C59.879 14.036 59.855 13.796 59.855 13.52C59.855 13.232 59.879 12.992 59.927 12.8H60.827C60.875 12.992 60.899 13.232 60.899 13.52ZM62.879 13.52C62.879 13.796 62.855 14.036 62.807 14.24H63.347C63.395 14.432 63.419 14.672 63.419 14.96C63.419 15.236 63.395 15.476 63.347 15.68C63.395 15.872 63.419 16.112 63.419 16.4C63.419 16.676 63.395 16.916 63.347 17.12C63.395 17.312 63.419 17.552 63.419 17.84C63.419 18.116 63.395 18.356 63.347 18.56C63.395 18.752 63.419 18.992 63.419 19.28C63.419 19.556 63.395 19.796 63.347 20H62.267C62.219 19.796 62.195 19.556 62.195 19.28C62.195 18.992 62.219 18.752 62.267 18.56C62.219 18.356 62.195 18.116 62.195 17.84C62.195 17.552 62.219 17.312 62.267 17.12C62.219 16.916 62.195 16.676 62.195 16.4C62.195 16.112 62.219 15.872 62.267 15.68C62.219 15.476 62.195 15.236 62.195 14.96C62.195 14.672 62.219 14.432 62.267 14.24H61.367C61.319 14.036 61.295 13.796 61.295 13.52C61.295 13.232 61.319 12.992 61.367 12.8H62.807C62.855 12.992 62.879 13.232 62.879 13.52ZM65.687 15.68C65.735 15.872 65.759 16.112 65.759 16.4C65.759 16.676 65.735 16.916 65.687 17.12C65.735 17.312 65.759 17.552 65.759 17.84C65.759 18.116 65.735 18.356 65.687 18.56C65.735 18.752 65.759 18.992 65.759 19.28C65.759 19.556 65.735 19.796 65.687 20H64.247C64.199 19.796 64.175 19.556 64.175 19.28C64.175 18.992 64.199 18.752 64.247 18.56C64.199 18.356 64.175 18.116 64.175 17.84C64.175 17.552 64.199 17.312 64.247 17.12C64.199 16.916 64.175 16.676 64.175 16.4C64.175 16.112 64.199 15.872 64.247 15.68C64.199 15.476 64.175 15.236 64.175 14.96C64.175 14.672 64.199 14.432 64.247 14.24H63.347C63.299 14.036 63.275 13.796 63.275 13.52C63.275 13.232 63.299 12.992 63.347 12.8H64.967C65.015 12.992 65.039 13.232 65.039 13.52C65.039 13.796 65.015 14.036 64.967 14.24H65.687C65.735 14.432 65.759 14.672 65.759 14.96C65.759 15.236 65.735 15.476 65.687 15.68ZM72.9661 16.4C72.9661 16.676 72.9421 16.916 72.8941 17.12H72.3541C72.4021 17.312 72.4261 17.552 72.4261 17.84C72.4261 18.116 72.4021 18.356 72.3541 18.56H71.4541C71.5021 18.752 71.5261 18.992 71.5261 19.28C71.5261 19.556 71.5021 19.796 71.4541 20H68.5741C68.5261 19.796 68.5021 19.556 68.5021 19.28C68.5021 18.992 68.5261 18.752 68.5741 18.56H67.6741C67.6261 18.356 67.6021 18.116 67.6021 17.84C67.6021 17.552 67.6261 17.312 67.6741 17.12H67.1341C67.0861 16.916 67.0621 16.676 67.0621 16.4C67.0621 16.112 67.0861 15.872 67.1341 15.68H67.6741C67.6261 15.476 67.6021 15.236 67.6021 14.96C67.6021 14.672 67.6261 14.432 67.6741 14.24H68.5741C68.5261 14.036 68.5021 13.796 68.5021 13.52C68.5021 13.232 68.5261 12.992 68.5741 12.8H71.4541C71.5021 12.992 71.5261 13.232 71.5261 13.52C71.5261 13.796 71.5021 14.036 71.4541 14.24H72.3541C72.4021 14.432 72.4261 14.672 72.4261 14.96C72.4261 15.236 72.4021 15.476 72.3541 15.68H72.8941C72.9421 15.872 72.9661 16.112 72.9661 16.4ZM71.4541 17.12C71.4061 16.916 71.3821 16.676 71.3821 16.4C71.3821 16.112 71.4061 15.872 71.4541 15.68H70.9141C70.8661 15.476 70.8421 15.236 70.8421 14.96C70.8421 14.672 70.8661 14.432 70.9141 14.24H69.1141C69.1621 14.432 69.1861 14.672 69.1861 14.96C69.1861 15.236 69.1621 15.476 69.1141 15.68H68.5741C68.6221 15.872 68.6461 16.112 68.6461 16.4C68.6461 16.676 68.6221 16.916 68.5741 17.12H69.1141C69.1621 17.312 69.1861 17.552 69.1861 17.84C69.1861 18.116 69.1621 18.356 69.1141 18.56H70.9141C70.8661 18.356 70.8421 18.116 70.8421 17.84C70.8421 17.552 70.8661 17.312 70.9141 17.12H71.4541ZM75.6731 13.52C75.6731 13.796 75.6491 14.036 75.6011 14.24H76.3211C76.3691 14.432 76.3931 14.672 76.3931 14.96C76.3931 15.236 76.3691 15.476 76.3211 15.68H75.7811C75.8291 15.872 75.8531 16.112 75.8531 16.4C75.8531 16.676 75.8291 16.916 75.7811 17.12C75.8291 17.312 75.8531 17.552 75.8531 17.84C75.8531 18.116 75.8291 18.356 75.7811 18.56C75.8291 18.752 75.8531 18.992 75.8531 19.28C75.8531 19.556 75.8291 19.796 75.7811 20H74.3411C74.2931 19.796 74.2691 19.556 74.2691 19.28C74.2691 18.992 74.2931 18.752 74.3411 18.56C74.2931 18.356 74.2691 18.116 74.2691 17.84C74.2691 17.552 74.2931 17.312 74.3411 17.12C74.2931 16.916 74.2691 16.676 74.2691 16.4C74.2691 16.112 74.2931 15.872 74.3411 15.68C74.2931 15.476 74.2691 15.236 74.2691 14.96C74.2691 14.672 74.2931 14.432 74.3411 14.24C74.2931 14.036 74.2691 13.796 74.2691 13.52C74.2691 13.232 74.2931 12.992 74.3411 12.8H75.6011C75.6491 12.992 75.6731 13.232 75.6731 13.52ZM80.1011 15.68C80.1491 15.872 80.1731 16.112 80.1731 16.4C80.1731 16.676 80.1491 16.916 80.1011 17.12C80.1491 17.312 80.1731 17.552 80.1731 17.84C80.1731 18.116 80.1491 18.356 80.1011 18.56C80.1491 18.752 80.1731 18.992 80.1731 19.28C80.1731 19.556 80.1491 19.796 80.1011 20H78.6611C78.6131 19.796 78.5891 19.556 78.5891 19.28C78.5891 18.992 78.6131 18.752 78.6611 18.56C78.6131 18.356 78.5891 18.116 78.5891 17.84C78.5891 17.552 78.6131 17.312 78.6611 17.12C78.6131 16.916 78.5891 16.676 78.5891 16.4C78.5891 16.112 78.6131 15.872 78.6611 15.68C78.6131 15.476 78.5891 15.236 78.5891 14.96C78.5891 14.672 78.6131 14.432 78.6611 14.24H76.3211C76.2731 14.036 76.2491 13.796 76.2491 13.52C76.2491 13.232 76.2731 12.992 76.3211 12.8H79.2011C79.2491 12.992 79.2731 13.232 79.2731 13.52C79.2731 13.796 79.2491 14.036 79.2011 14.24H80.1011C80.1491 14.432 80.1731 14.672 80.1731 14.96C80.1731 15.236 80.1491 15.476 80.1011 15.68Z" fill="black"/>
</svg>
