<svg width="40" height="33" viewBox="0 0 40 33" fill="none" xmlns="http://www.w3.org/2000/svg">
<path d="M5.97775 28.2764H4.93164V29.3209H5.97775V28.2764Z" fill="#440108"/>
<path d="M7.02413 28.2764H5.97803V29.3209H7.02413V28.2764Z" fill="#440108"/>
<path d="M8.07003 28.2764H7.02393V29.3209H8.07003V28.2764Z" fill="#440108"/>
<path d="M9.11642 28.2764H8.07031V29.3209H9.11642V28.2764Z" fill="#440108"/>
<path d="M10.1623 28.2764H9.11621V29.3209H10.1623V28.2764Z" fill="#440108"/>
<path d="M11.2087 28.2764H10.1626V29.3209H11.2087V28.2764Z" fill="#440108"/>
<path d="M12.2546 28.2764H11.2085V29.3209H12.2546V28.2764Z" fill="#440108"/>
<path d="M13.3005 28.2764H12.2544V29.3209H13.3005V28.2764Z" fill="#440108"/>
<path d="M14.3469 28.2764H13.3008V29.3209H14.3469V28.2764Z" fill="#440108"/>
<path d="M15.3928 28.2764H14.3467V29.3209H15.3928V28.2764Z" fill="#440108"/>
<path d="M16.4392 28.2764H15.3931V29.3209H16.4392V28.2764Z" fill="#440108"/>
<path d="M17.4851 28.2764H16.439V29.3209H17.4851V28.2764Z" fill="#440108"/>
<path d="M18.531 28.2764H17.4849V29.3209H18.531V28.2764Z" fill="#440108"/>
<path d="M19.5774 28.2764H18.5312V29.3209H19.5774V28.2764Z" fill="#440108"/>
<path d="M20.6233 28.2764H19.5771V29.3209H20.6233V28.2764Z" fill="#440108"/>
<path d="M21.6696 28.2764H20.6235V29.3209H21.6696V28.2764Z" fill="#440108"/>
<path d="M22.7155 28.2764H21.6694V29.3209H22.7155V28.2764Z" fill="#440108"/>
<path d="M23.7619 28.2764H22.7158V29.3209H23.7619V28.2764Z" fill="#440108"/>
<path d="M24.8078 28.2764H23.7617V29.3209H24.8078V28.2764Z" fill="#440108"/>
<path d="M25.8537 28.2764H24.8076V29.3209H25.8537V28.2764Z" fill="#440108"/>
<path d="M26.9001 28.2764H25.854V29.3209H26.9001V28.2764Z" fill="#440108"/>
<path d="M27.946 28.2764H26.8999V29.3209H27.946V28.2764Z" fill="#440108"/>
<path d="M28.9924 28.2764H27.9463V29.3209H28.9924V28.2764Z" fill="#440108"/>
<path d="M30.0383 28.2764H28.9922V29.3209H30.0383V28.2764Z" fill="#440108"/>
<path d="M31.0842 28.2764H30.0381V29.3209H31.0842V28.2764Z" fill="#440108"/>
<path d="M32.1306 28.2764H31.0845V29.3209H32.1306V28.2764Z" fill="#440108"/>
<path d="M33.1765 28.2764H32.1304V29.3209H33.1765V28.2764Z" fill="#440108"/>
<path d="M34.2229 28.2764H33.1768V29.3209H34.2229V28.2764Z" fill="#440108"/>
<path d="M35.2688 28.2764H34.2227V29.3209H35.2688V28.2764Z" fill="#440108"/>
<path d="M5.97775 27.2314H4.93164V28.276H5.97775V27.2314Z" fill="#843800"/>
<path d="M4.93185 27.2314H3.88574V28.276H4.93185V27.2314Z" fill="#440108"/>
<path d="M7.02413 27.2314H5.97803V28.276H7.02413V27.2314Z" fill="#843800"/>
<path d="M8.07003 27.2314H7.02393V28.276H8.07003V27.2314Z" fill="#843800"/>
<path d="M9.11642 27.2314H8.07031V28.276H9.11642V27.2314Z" fill="#843800"/>
<path d="M10.1623 27.2314H9.11621V28.276H10.1623V27.2314Z" fill="#843800"/>
<path d="M11.2087 27.2314H10.1626V28.276H11.2087V27.2314Z" fill="#843800"/>
<path d="M12.2546 27.2314H11.2085V28.276H12.2546V27.2314Z" fill="#843800"/>
<path d="M13.3005 27.2314H12.2544V28.276H13.3005V27.2314Z" fill="#440108"/>
<path d="M14.3469 27.2314H13.3008V28.276H14.3469V27.2314Z" fill="#843800"/>
<path d="M15.3928 27.2314H14.3467V28.276H15.3928V27.2314Z" fill="#843800"/>
<path d="M16.4392 27.2314H15.3931V28.276H16.4392V27.2314Z" fill="#843800"/>
<path d="M17.4851 27.2314H16.439V28.276H17.4851V27.2314Z" fill="#843800"/>
<path d="M18.531 27.2314H17.4849V28.276H18.531V27.2314Z" fill="#843800"/>
<path d="M19.5774 27.2314H18.5312V28.276H19.5774V27.2314Z" fill="#843800"/>
<path d="M20.6233 27.2314H19.5771V28.276H20.6233V27.2314Z" fill="#843800"/>
<path d="M21.6696 27.2314H20.6235V28.276H21.6696V27.2314Z" fill="#843800"/>
<path d="M22.7155 27.2314H21.6694V28.276H22.7155V27.2314Z" fill="#843800"/>
<path d="M23.7619 27.2314H22.7158V28.276H23.7619V27.2314Z" fill="#843800"/>
<path d="M24.8078 27.2314H23.7617V28.276H24.8078V27.2314Z" fill="#843800"/>
<path d="M25.8537 27.2314H24.8076V28.276H25.8537V27.2314Z" fill="#843800"/>
<path d="M26.9001 27.2314H25.854V28.276H26.9001V27.2314Z" fill="#843800"/>
<path d="M27.946 27.2314H26.8999V28.276H27.946V27.2314Z" fill="#440108"/>
<path d="M28.9924 27.2314H27.9463V28.276H28.9924V27.2314Z" fill="#843800"/>
<path d="M30.0383 27.2314H28.9922V28.276H30.0383V27.2314Z" fill="#843800"/>
<path d="M31.0842 27.2314H30.0381V28.276H31.0842V27.2314Z" fill="#843800"/>
<path d="M32.1306 27.2314H31.0845V28.276H32.1306V27.2314Z" fill="#843800"/>
<path d="M33.1765 27.2314H32.1304V28.276H33.1765V27.2314Z" fill="#843800"/>
<path d="M34.2229 27.2314H33.1768V28.276H34.2229V27.2314Z" fill="#843800"/>
<path d="M35.2688 27.2314H34.2227V28.276H35.2688V27.2314Z" fill="#843800"/>
<path d="M36.3147 27.2314H35.2686V28.276H36.3147V27.2314Z" fill="#440108"/>
<path d="M5.97775 26.1865H4.93164V27.2311H5.97775V26.1865Z" fill="#994500"/>
<path d="M4.93185 26.1865H3.88574V27.2311H4.93185V26.1865Z" fill="#440108"/>
<path d="M7.02413 26.1865H5.97803V27.2311H7.02413V26.1865Z" fill="#843800"/>
<path d="M8.07003 26.1865H7.02393V27.2311H8.07003V26.1865Z" fill="#843800"/>
<path d="M9.11642 26.1865H8.07031V27.2311H9.11642V26.1865Z" fill="#994500"/>
<path d="M10.1623 26.1865H9.11621V27.2311H10.1623V26.1865Z" fill="#994500"/>
<path d="M11.2087 26.1865H10.1626V27.2311H11.2087V26.1865Z" fill="#994500"/>
<path d="M12.2546 26.1865H11.2085V27.2311H12.2546V26.1865Z" fill="#994500"/>
<path d="M13.3005 26.1865H12.2544V27.2311H13.3005V26.1865Z" fill="#440108"/>
<path d="M14.3469 26.1865H13.3008V27.2311H14.3469V26.1865Z" fill="#994500"/>
<path d="M15.3928 26.1865H14.3467V27.2311H15.3928V26.1865Z" fill="#994500"/>
<path d="M16.4392 26.1865H15.3931V27.2311H16.4392V26.1865Z" fill="#843800"/>
<path d="M17.4851 26.1865H16.439V27.2311H17.4851V26.1865Z" fill="#843800"/>
<path d="M18.531 26.1865H17.4849V27.2311H18.531V26.1865Z" fill="#843800"/>
<path d="M19.5774 26.1865H18.5312V27.2311H19.5774V26.1865Z" fill="#994500"/>
<path d="M20.6233 26.1865H19.5771V27.2311H20.6233V26.1865Z" fill="#843800"/>
<path d="M21.6696 26.1865H20.6235V27.2311H21.6696V26.1865Z" fill="#843800"/>
<path d="M22.7155 26.1865H21.6694V27.2311H22.7155V26.1865Z" fill="#843800"/>
<path d="M23.7619 26.1865H22.7158V27.2311H23.7619V26.1865Z" fill="#843800"/>
<path d="M24.8078 26.1865H23.7617V27.2311H24.8078V26.1865Z" fill="#994500"/>
<path d="M25.8537 26.1865H24.8076V27.2311H25.8537V26.1865Z" fill="#843800"/>
<path d="M26.9001 26.1865H25.854V27.2311H26.9001V26.1865Z" fill="#843800"/>
<path d="M27.946 26.1865H26.8999V27.2311H27.946V26.1865Z" fill="#440108"/>
<path d="M28.9924 26.1865H27.9463V27.2311H28.9924V26.1865Z" fill="#994500"/>
<path d="M30.0383 26.1865H28.9922V27.2311H30.0383V26.1865Z" fill="#994500"/>
<path d="M31.0842 26.1865H30.0381V27.2311H31.0842V26.1865Z" fill="#843800"/>
<path d="M32.1306 26.1865H31.0845V27.2311H32.1306V26.1865Z" fill="#843800"/>
<path d="M33.1765 26.1865H32.1304V27.2311H33.1765V26.1865Z" fill="#994500"/>
<path d="M34.2229 26.1865H33.1768V27.2311H34.2229V26.1865Z" fill="#994500"/>
<path d="M35.2688 26.1865H34.2227V27.2311H35.2688V26.1865Z" fill="#994500"/>
<path d="M36.3147 26.1865H35.2686V27.2311H36.3147V26.1865Z" fill="#440108"/>
<path d="M5.97775 25.1426H4.93164V26.1871H5.97775V25.1426Z" fill="#994500"/>
<path d="M4.93185 25.1426H3.88574V26.1871H4.93185V25.1426Z" fill="#440108"/>
<path d="M7.02413 25.1426H5.97803V26.1871H7.02413V25.1426Z" fill="#994500"/>
<path d="M8.07003 25.1426H7.02393V26.1871H8.07003V25.1426Z" fill="#994500"/>
<path d="M9.11642 25.1426H8.07031V26.1871H9.11642V25.1426Z" fill="#994500"/>
<path d="M10.1623 25.1426H9.11621V26.1871H10.1623V25.1426Z" fill="#994500"/>
<path d="M11.2087 25.1426H10.1626V26.1871H11.2087V25.1426Z" fill="#994500"/>
<path d="M12.2546 25.1426H11.2085V26.1871H12.2546V25.1426Z" fill="#994500"/>
<path d="M13.3005 25.1426H12.2544V26.1871H13.3005V25.1426Z" fill="#440108"/>
<path d="M14.3469 25.1426H13.3008V26.1871H14.3469V25.1426Z" fill="#843800"/>
<path d="M15.3928 25.1426H14.3467V26.1871H15.3928V25.1426Z" fill="#843800"/>
<path d="M16.4392 25.1426H15.3931V26.1871H16.4392V25.1426Z" fill="#843800"/>
<path d="M17.4851 25.1426H16.439V26.1871H17.4851V25.1426Z" fill="#843800"/>
<path d="M18.531 25.1426H17.4849V26.1871H18.531V25.1426Z" fill="#843800"/>
<path d="M19.5774 25.1426H18.5312V26.1871H19.5774V25.1426Z" fill="#994500"/>
<path d="M20.6233 25.1426H19.5771V26.1871H20.6233V25.1426Z" fill="#994500"/>
<path d="M21.6696 25.1426H20.6235V26.1871H21.6696V25.1426Z" fill="#994500"/>
<path d="M22.7155 25.1426H21.6694V26.1871H22.7155V25.1426Z" fill="#843800"/>
<path d="M23.7619 25.1426H22.7158V26.1871H23.7619V25.1426Z" fill="#843800"/>
<path d="M24.8078 25.1426H23.7617V26.1871H24.8078V25.1426Z" fill="#843800"/>
<path d="M25.8537 25.1426H24.8076V26.1871H25.8537V25.1426Z" fill="#843800"/>
<path d="M26.9001 25.1426H25.854V26.1871H26.9001V25.1426Z" fill="#994500"/>
<path d="M27.946 25.1426H26.8999V26.1871H27.946V25.1426Z" fill="#440108"/>
<path d="M28.9924 25.1426H27.9463V26.1871H28.9924V25.1426Z" fill="#994500"/>
<path d="M30.0383 25.1426H28.9922V26.1871H30.0383V25.1426Z" fill="#994500"/>
<path d="M31.0842 25.1426H30.0381V26.1871H31.0842V25.1426Z" fill="#994500"/>
<path d="M32.1306 25.1426H31.0845V26.1871H32.1306V25.1426Z" fill="#843800"/>
<path d="M33.1765 25.1426H32.1304V26.1871H33.1765V25.1426Z" fill="#843800"/>
<path d="M34.2229 25.1426H33.1768V26.1871H34.2229V25.1426Z" fill="#994500"/>
<path d="M35.2688 25.1426H34.2227V26.1871H35.2688V25.1426Z" fill="#994500"/>
<path d="M36.3147 25.1426H35.2686V26.1871H36.3147V25.1426Z" fill="#440108"/>
<path d="M5.97775 24.0977H4.93164V25.1422H5.97775V24.0977Z" fill="#994500"/>
<path d="M4.93185 24.0977H3.88574V25.1422H4.93185V24.0977Z" fill="#440108"/>
<path d="M7.02413 24.0977H5.97803V25.1422H7.02413V24.0977Z" fill="#994500"/>
<path d="M8.07003 24.0977H7.02393V25.1422H8.07003V24.0977Z" fill="#843800"/>
<path d="M9.11642 24.0977H8.07031V25.1422H9.11642V24.0977Z" fill="#843800"/>
<path d="M10.1623 24.0977H9.11621V25.1422H10.1623V24.0977Z" fill="#843800"/>
<path d="M11.2087 24.0977H10.1626V25.1422H11.2087V24.0977Z" fill="#994500"/>
<path d="M12.2546 24.0977H11.2085V25.1422H12.2546V24.0977Z" fill="#994500"/>
<path d="M13.3005 24.0977H12.2544V25.1422H13.3005V24.0977Z" fill="#440108"/>
<path d="M14.3469 24.0977H13.3008V25.1422H14.3469V24.0977Z" fill="#994500"/>
<path d="M15.3928 24.0977H14.3467V25.1422H15.3928V24.0977Z" fill="#994500"/>
<path d="M16.4392 24.0977H15.3931V25.1422H16.4392V24.0977Z" fill="#994500"/>
<path d="M17.4851 24.0977H16.439V25.1422H17.4851V24.0977Z" fill="#843800"/>
<path d="M18.531 24.0977H17.4849V25.1422H18.531V24.0977Z" fill="#843800"/>
<path d="M19.5774 24.0977H18.5312V25.1422H19.5774V24.0977Z" fill="#994500"/>
<path d="M20.6233 24.0977H19.5771V25.1422H20.6233V24.0977Z" fill="#994500"/>
<path d="M21.6696 24.0977H20.6235V25.1422H21.6696V24.0977Z" fill="#994500"/>
<path d="M22.7155 24.0977H21.6694V25.1422H22.7155V24.0977Z" fill="#843800"/>
<path d="M23.7619 24.0977H22.7158V25.1422H23.7619V24.0977Z" fill="#843800"/>
<path d="M24.8078 24.0977H23.7617V25.1422H24.8078V24.0977Z" fill="#994500"/>
<path d="M25.8537 24.0977H24.8076V25.1422H25.8537V24.0977Z" fill="#994500"/>
<path d="M26.9001 24.0977H25.854V25.1422H26.9001V24.0977Z" fill="#994500"/>
<path d="M27.946 24.0977H26.8999V25.1422H27.946V24.0977Z" fill="#440108"/>
<path d="M28.9924 24.0977H27.9463V25.1422H28.9924V24.0977Z" fill="#994500"/>
<path d="M30.0383 24.0977H28.9922V25.1422H30.0383V24.0977Z" fill="#994500"/>
<path d="M31.0842 24.0977H30.0381V25.1422H31.0842V24.0977Z" fill="#994500"/>
<path d="M32.1306 24.0977H31.0845V25.1422H32.1306V24.0977Z" fill="#994500"/>
<path d="M33.1765 24.0977H32.1304V25.1422H33.1765V24.0977Z" fill="#994500"/>
<path d="M34.2229 24.0977H33.1768V25.1422H34.2229V24.0977Z" fill="#994500"/>
<path d="M35.2688 24.0977H34.2227V25.1422H35.2688V24.0977Z" fill="#994500"/>
<path d="M36.3147 24.0977H35.2686V25.1422H36.3147V24.0977Z" fill="#440108"/>
<path d="M5.97775 23.0527H4.93164V24.0973H5.97775V23.0527Z" fill="#843800"/>
<path d="M4.93185 23.0527H3.88574V24.0973H4.93185V23.0527Z" fill="#440108"/>
<path d="M7.02413 23.0527H5.97803V24.0973H7.02413V23.0527Z" fill="#843800"/>
<path d="M8.07003 23.0527H7.02393V24.0973H8.07003V23.0527Z" fill="#843800"/>
<path d="M9.11642 23.0527H8.07031V24.0973H9.11642V23.0527Z" fill="#843800"/>
<path d="M10.1623 23.0527H9.11621V24.0973H10.1623V23.0527Z" fill="#994500"/>
<path d="M11.2087 23.0527H10.1626V24.0973H11.2087V23.0527Z" fill="#994500"/>
<path d="M12.2546 23.0527H11.2085V24.0973H12.2546V23.0527Z" fill="#843800"/>
<path d="M13.3005 23.0527H12.2544V24.0973H13.3005V23.0527Z" fill="#440108"/>
<path d="M14.3469 23.0527H13.3008V24.0973H14.3469V23.0527Z" fill="#843800"/>
<path d="M15.3928 23.0527H14.3467V24.0973H15.3928V23.0527Z" fill="#843800"/>
<path d="M16.4392 23.0527H15.3931V24.0973H16.4392V23.0527Z" fill="#994500"/>
<path d="M17.4851 23.0527H16.439V24.0973H17.4851V23.0527Z" fill="#843800"/>
<path d="M18.531 23.0527H17.4849V24.0973H18.531V23.0527Z" fill="#843800"/>
<path d="M19.5774 23.0527H18.5312V24.0973H19.5774V23.0527Z" fill="#994500"/>
<path d="M20.6233 23.0527H19.5771V24.0973H20.6233V23.0527Z" fill="#994500"/>
<path d="M21.6696 23.0527H20.6235V24.0973H21.6696V23.0527Z" fill="#994500"/>
<path d="M22.7155 23.0527H21.6694V24.0973H22.7155V23.0527Z" fill="#843800"/>
<path d="M23.7619 23.0527H22.7158V24.0973H23.7619V23.0527Z" fill="#843800"/>
<path d="M24.8078 23.0527H23.7617V24.0973H24.8078V23.0527Z" fill="#994500"/>
<path d="M25.8537 23.0527H24.8076V24.0973H25.8537V23.0527Z" fill="#843800"/>
<path d="M26.9001 23.0527H25.854V24.0973H26.9001V23.0527Z" fill="#843800"/>
<path d="M27.946 23.0527H26.8999V24.0973H27.946V23.0527Z" fill="#440108"/>
<path d="M28.9924 23.0527H27.9463V24.0973H28.9924V23.0527Z" fill="#843800"/>
<path d="M30.0383 23.0527H28.9922V24.0973H30.0383V23.0527Z" fill="#843800"/>
<path d="M31.0842 23.0527H30.0381V24.0973H31.0842V23.0527Z" fill="#994500"/>
<path d="M32.1306 23.0527H31.0845V24.0973H32.1306V23.0527Z" fill="#994500"/>
<path d="M33.1765 23.0527H32.1304V24.0973H33.1765V23.0527Z" fill="#994500"/>
<path d="M34.2229 23.0527H33.1768V24.0973H34.2229V23.0527Z" fill="#843800"/>
<path d="M35.2688 23.0527H34.2227V24.0973H35.2688V23.0527Z" fill="#843800"/>
<path d="M36.3147 23.0527H35.2686V24.0973H36.3147V23.0527Z" fill="#440108"/>
<path d="M5.97775 22.0088H4.93164V23.0534H5.97775V22.0088Z" fill="#994500"/>
<path d="M4.93185 22.0088H3.88574V23.0534H4.93185V22.0088Z" fill="#440108"/>
<path d="M7.02413 22.0088H5.97803V23.0534H7.02413V22.0088Z" fill="#994500"/>
<path d="M8.07003 22.0088H7.02393V23.0534H8.07003V22.0088Z" fill="#994500"/>
<path d="M9.11642 22.0088H8.07031V23.0534H9.11642V22.0088Z" fill="#994500"/>
<path d="M10.1623 22.0088H9.11621V23.0534H10.1623V22.0088Z" fill="#994500"/>
<path d="M11.2087 22.0088H10.1626V23.0534H11.2087V22.0088Z" fill="#994500"/>
<path d="M12.2546 22.0088H11.2085V23.0534H12.2546V22.0088Z" fill="#994500"/>
<path d="M13.3005 22.0088H12.2544V23.0534H13.3005V22.0088Z" fill="#440108"/>
<path d="M14.3469 22.0088H13.3008V23.0534H14.3469V22.0088Z" fill="#994500"/>
<path d="M15.3928 22.0088H14.3467V23.0534H15.3928V22.0088Z" fill="#994500"/>
<path d="M16.4392 22.0088H15.3931V23.0534H16.4392V22.0088Z" fill="#994500"/>
<path d="M17.4851 22.0088H16.439V23.0534H17.4851V22.0088Z" fill="#843800"/>
<path d="M18.531 22.0088H17.4849V23.0534H18.531V22.0088Z" fill="#843800"/>
<path d="M19.5774 22.0088H18.5312V23.0534H19.5774V22.0088Z" fill="#994500"/>
<path d="M20.6233 22.0088H19.5771V23.0534H20.6233V22.0088Z" fill="#994500"/>
<path d="M21.6696 22.0088H20.6235V23.0534H21.6696V22.0088Z" fill="#994500"/>
<path d="M22.7155 22.0088H21.6694V23.0534H22.7155V22.0088Z" fill="#843800"/>
<path d="M23.7619 22.0088H22.7158V23.0534H23.7619V22.0088Z" fill="#843800"/>
<path d="M24.8078 22.0088H23.7617V23.0534H24.8078V22.0088Z" fill="#994500"/>
<path d="M25.8537 22.0088H24.8076V23.0534H25.8537V22.0088Z" fill="#994500"/>
<path d="M26.9001 22.0088H25.854V23.0534H26.9001V22.0088Z" fill="#994500"/>
<path d="M27.946 22.0088H26.8999V23.0534H27.946V22.0088Z" fill="#440108"/>
<path d="M28.9924 22.0088H27.9463V23.0534H28.9924V22.0088Z" fill="#994500"/>
<path d="M30.0383 22.0088H28.9922V23.0534H30.0383V22.0088Z" fill="#994500"/>
<path d="M31.0842 22.0088H30.0381V23.0534H31.0842V22.0088Z" fill="#994500"/>
<path d="M32.1306 22.0088H31.0845V23.0534H32.1306V22.0088Z" fill="#994500"/>
<path d="M33.1765 22.0088H32.1304V23.0534H33.1765V22.0088Z" fill="#994500"/>
<path d="M34.2229 22.0088H33.1768V23.0534H34.2229V22.0088Z" fill="#994500"/>
<path d="M35.2688 22.0088H34.2227V23.0534H35.2688V22.0088Z" fill="#994500"/>
<path d="M36.3147 22.0088H35.2686V23.0534H36.3147V22.0088Z" fill="#440108"/>
<path d="M5.97775 20.9639H4.93164V22.0084H5.97775V20.9639Z" fill="#440108"/>
<path d="M4.93185 20.9639H3.88574V22.0084H4.93185V20.9639Z" fill="#440108"/>
<path d="M7.02413 20.9639H5.97803V22.0084H7.02413V20.9639Z" fill="#440108"/>
<path d="M8.07003 20.9639H7.02393V22.0084H8.07003V20.9639Z" fill="#440108"/>
<path d="M9.11642 20.9639H8.07031V22.0084H9.11642V20.9639Z" fill="#440108"/>
<path d="M10.1623 20.9639H9.11621V22.0084H10.1623V20.9639Z" fill="#440108"/>
<path d="M11.2087 20.9639H10.1626V22.0084H11.2087V20.9639Z" fill="#440108"/>
<path d="M12.2546 20.9639H11.2085V22.0084H12.2546V20.9639Z" fill="#440108"/>
<path d="M13.3005 20.9639H12.2544V22.0084H13.3005V20.9639Z" fill="#440108"/>
<path d="M14.3469 20.9639H13.3008V22.0084H14.3469V20.9639Z" fill="#440108"/>
<path d="M15.3928 20.9639H14.3467V22.0084H15.3928V20.9639Z" fill="#440108"/>
<path d="M16.4392 20.9639H15.3931V22.0084H16.4392V20.9639Z" fill="#440108"/>
<path d="M17.4851 20.9639H16.439V22.0084H17.4851V20.9639Z" fill="#440108"/>
<path d="M18.531 20.9639H17.4849V22.0084H18.531V20.9639Z" fill="#440108"/>
<path d="M19.5774 20.9639H18.5312V22.0084H19.5774V20.9639Z" fill="#440108"/>
<path d="M20.6233 20.9639H19.5771V22.0084H20.6233V20.9639Z" fill="#440108"/>
<path d="M21.6696 20.9639H20.6235V22.0084H21.6696V20.9639Z" fill="#440108"/>
<path d="M22.7155 20.9639H21.6694V22.0084H22.7155V20.9639Z" fill="#440108"/>
<path d="M23.7619 20.9639H22.7158V22.0084H23.7619V20.9639Z" fill="#440108"/>
<path d="M24.8078 20.9639H23.7617V22.0084H24.8078V20.9639Z" fill="#440108"/>
<path d="M25.8537 20.9639H24.8076V22.0084H25.8537V20.9639Z" fill="#440108"/>
<path d="M26.9001 20.9639H25.854V22.0084H26.9001V20.9639Z" fill="#440108"/>
<path d="M27.946 20.9639H26.8999V22.0084H27.946V20.9639Z" fill="#440108"/>
<path d="M28.9924 20.9639H27.9463V22.0084H28.9924V20.9639Z" fill="#440108"/>
<path d="M30.0383 20.9639H28.9922V22.0084H30.0383V20.9639Z" fill="#440108"/>
<path d="M31.0842 20.9639H30.0381V22.0084H31.0842V20.9639Z" fill="#440108"/>
<path d="M32.1306 20.9639H31.0845V22.0084H32.1306V20.9639Z" fill="#440108"/>
<path d="M33.1765 20.9639H32.1304V22.0084H33.1765V20.9639Z" fill="#440108"/>
<path d="M34.2229 20.9639H33.1768V22.0084H34.2229V20.9639Z" fill="#440108"/>
<path d="M35.2688 20.9639H34.2227V22.0084H35.2688V20.9639Z" fill="#440108"/>
<path d="M36.3147 20.9639H35.2686V22.0084H36.3147V20.9639Z" fill="#440108"/>
<path d="M5.97775 19.9199H4.93164V20.9645H5.97775V19.9199Z" fill="#440108"/>
<path d="M4.93185 19.9199H3.88574V20.9645H4.93185V19.9199Z" fill="#440108"/>
<path d="M7.02413 19.9199H5.97803V20.9645H7.02413V19.9199Z" fill="#440108"/>
<path d="M8.07003 19.9199H7.02393V20.9645H8.07003V19.9199Z" fill="#440108"/>
<path d="M9.11642 19.9199H8.07031V20.9645H9.11642V19.9199Z" fill="#440108"/>
<path d="M10.1623 19.9199H9.11621V20.9645H10.1623V19.9199Z" fill="#440108"/>
<path d="M11.2087 19.9199H10.1626V20.9645H11.2087V19.9199Z" fill="#440108"/>
<path d="M12.2546 19.9199H11.2085V20.9645H12.2546V19.9199Z" fill="#440108"/>
<path d="M13.3005 19.9199H12.2544V20.9645H13.3005V19.9199Z" fill="#440108"/>
<path d="M14.3469 19.9199H13.3008V20.9645H14.3469V19.9199Z" fill="#440108"/>
<path d="M15.3928 19.9199H14.3467V20.9645H15.3928V19.9199Z" fill="#440108"/>
<path d="M16.4392 19.9199H15.3931V20.9645H16.4392V19.9199Z" fill="#440108"/>
<path d="M17.4851 19.9199H16.439V20.9645H17.4851V19.9199Z" fill="#440108"/>
<path d="M18.531 19.9199H17.4849V20.9645H18.531V19.9199Z" fill="#440108"/>
<path d="M19.5774 19.9199H18.5312V20.9645H19.5774V19.9199Z" fill="#440108"/>
<path d="M20.6233 19.9199H19.5771V20.9645H20.6233V19.9199Z" fill="#440108"/>
<path d="M21.6696 19.9199H20.6235V20.9645H21.6696V19.9199Z" fill="#440108"/>
<path d="M22.7155 19.9199H21.6694V20.9645H22.7155V19.9199Z" fill="#440108"/>
<path d="M23.7619 19.9199H22.7158V20.9645H23.7619V19.9199Z" fill="#440108"/>
<path d="M24.8078 19.9199H23.7617V20.9645H24.8078V19.9199Z" fill="#440108"/>
<path d="M25.8537 19.9199H24.8076V20.9645H25.8537V19.9199Z" fill="#440108"/>
<path d="M26.9001 19.9199H25.854V20.9645H26.9001V19.9199Z" fill="#440108"/>
<path d="M27.946 19.9199H26.8999V20.9645H27.946V19.9199Z" fill="#440108"/>
<path d="M28.9924 19.9199H27.9463V20.9645H28.9924V19.9199Z" fill="#440108"/>
<path d="M30.0383 19.9199H28.9922V20.9645H30.0383V19.9199Z" fill="#440108"/>
<path d="M31.0842 19.9199H30.0381V20.9645H31.0842V19.9199Z" fill="#440108"/>
<path d="M32.1306 19.9199H31.0845V20.9645H32.1306V19.9199Z" fill="#440108"/>
<path d="M33.1765 19.9199H32.1304V20.9645H33.1765V19.9199Z" fill="#440108"/>
<path d="M34.2229 19.9199H33.1768V20.9645H34.2229V19.9199Z" fill="#440108"/>
<path d="M35.2688 19.9199H34.2227V20.9645H35.2688V19.9199Z" fill="#440108"/>
<path d="M36.3147 19.9199H35.2686V20.9645H36.3147V19.9199Z" fill="#440108"/>
<path d="M5.97775 18.875H4.93164V19.9196H5.97775V18.875Z" fill="#B25900"/>
<path d="M4.93185 18.875H3.88574V19.9196H4.93185V18.875Z" fill="#B25900"/>
<path d="M7.02413 18.875H5.97803V19.9196H7.02413V18.875Z" fill="#B25900"/>
<path d="M8.07003 18.875H7.02393V19.9196H8.07003V18.875Z" fill="#B25900"/>
<path d="M9.11642 18.875H8.07031V19.9196H9.11642V18.875Z" fill="#B25900"/>
<path d="M10.1623 18.875H9.11621V19.9196H10.1623V18.875Z" fill="#B25900"/>
<path d="M11.2087 18.875H10.1626V19.9196H11.2087V18.875Z" fill="#B25900"/>
<path d="M12.2546 18.875H11.2085V19.9196H12.2546V18.875Z" fill="#B25900"/>
<path d="M13.3005 18.875H12.2544V19.9196H13.3005V18.875Z" fill="#B25900"/>
<path d="M14.3469 18.875H13.3008V19.9196H14.3469V18.875Z" fill="#B25900"/>
<path d="M15.3928 18.875H14.3467V19.9196H15.3928V18.875Z" fill="#B25900"/>
<path d="M16.4392 18.875H15.3931V19.9196H16.4392V18.875Z" fill="#B25900"/>
<path d="M17.4851 18.875H16.439V19.9196H17.4851V18.875Z" fill="#B25900"/>
<path d="M18.531 18.875H17.4849V19.9196H18.531V18.875Z" fill="#B25900"/>
<path d="M19.5774 18.875H18.5312V19.9196H19.5774V18.875Z" fill="#B25900"/>
<path d="M20.6233 18.875H19.5771V19.9196H20.6233V18.875Z" fill="#B25900"/>
<path d="M21.6696 18.875H20.6235V19.9196H21.6696V18.875Z" fill="#B25900"/>
<path d="M22.7155 18.875H21.6694V19.9196H22.7155V18.875Z" fill="#B25900"/>
<path d="M23.7619 18.875H22.7158V19.9196H23.7619V18.875Z" fill="#B25900"/>
<path d="M24.8078 18.875H23.7617V19.9196H24.8078V18.875Z" fill="#B25900"/>
<path d="M25.8537 18.875H24.8076V19.9196H25.8537V18.875Z" fill="#B25900"/>
<path d="M26.9001 18.875H25.854V19.9196H26.9001V18.875Z" fill="#B25900"/>
<path d="M27.946 18.875H26.8999V19.9196H27.946V18.875Z" fill="#B25900"/>
<path d="M28.9924 18.875H27.9463V19.9196H28.9924V18.875Z" fill="#B25900"/>
<path d="M30.0383 18.875H28.9922V19.9196H30.0383V18.875Z" fill="#B25900"/>
<path d="M31.0842 18.875H30.0381V19.9196H31.0842V18.875Z" fill="#B25900"/>
<path d="M32.1306 18.875H31.0845V19.9196H32.1306V18.875Z" fill="#B25900"/>
<path d="M33.1765 18.875H32.1304V19.9196H33.1765V18.875Z" fill="#B25900"/>
<path d="M34.2229 18.875H33.1768V19.9196H34.2229V18.875Z" fill="#B25900"/>
<path d="M35.2688 18.875H34.2227V19.9196H35.2688V18.875Z" fill="#B25900"/>
<path d="M36.3147 18.875H35.2686V19.9196H36.3147V18.875Z" fill="#B25900"/>
<path d="M5.97775 17.8301H4.93164V18.8746H5.97775V17.8301Z" fill="#EE8600"/>
<path d="M4.93185 17.8301H3.88574V18.8746H4.93185V17.8301Z" fill="#EE8600"/>
<path d="M7.02413 17.8301H5.97803V18.8746H7.02413V17.8301Z" fill="#EE8600"/>
<path d="M8.07003 17.8301H7.02393V18.8746H8.07003V17.8301Z" fill="#EE8600"/>
<path d="M9.11642 17.8301H8.07031V18.8746H9.11642V17.8301Z" fill="#EE8600"/>
<path d="M10.1623 17.8301H9.11621V18.8746H10.1623V17.8301Z" fill="#EE8600"/>
<path d="M11.2087 17.8301H10.1626V18.8746H11.2087V17.8301Z" fill="#EE8600"/>
<path d="M12.2546 17.8301H11.2085V18.8746H12.2546V17.8301Z" fill="#EE8600"/>
<path d="M13.3005 17.8301H12.2544V18.8746H13.3005V17.8301Z" fill="#EE8600"/>
<path d="M14.3469 17.8301H13.3008V18.8746H14.3469V17.8301Z" fill="#EE8600"/>
<path d="M15.3928 17.8301H14.3467V18.8746H15.3928V17.8301Z" fill="#EE8600"/>
<path d="M16.4392 17.8301H15.3931V18.8746H16.4392V17.8301Z" fill="#EE8600"/>
<path d="M17.4851 17.8301H16.439V18.8746H17.4851V17.8301Z" fill="#EE8600"/>
<path d="M18.531 17.8301H17.4849V18.8746H18.531V17.8301Z" fill="#EE8600"/>
<path d="M19.5774 17.8301H18.5312V18.8746H19.5774V17.8301Z" fill="#EE8600"/>
<path d="M20.6233 17.8301H19.5771V18.8746H20.6233V17.8301Z" fill="#EE8600"/>
<path d="M21.6696 17.8301H20.6235V18.8746H21.6696V17.8301Z" fill="#EE8600"/>
<path d="M22.7155 17.8301H21.6694V18.8746H22.7155V17.8301Z" fill="#EE8600"/>
<path d="M23.7619 17.8301H22.7158V18.8746H23.7619V17.8301Z" fill="#EE8600"/>
<path d="M24.8078 17.8301H23.7617V18.8746H24.8078V17.8301Z" fill="#EE8600"/>
<path d="M25.8537 17.8301H24.8076V18.8746H25.8537V17.8301Z" fill="#EE8600"/>
<path d="M26.9001 17.8301H25.854V18.8746H26.9001V17.8301Z" fill="#EE8600"/>
<path d="M27.946 17.8301H26.8999V18.8746H27.946V17.8301Z" fill="#EE8600"/>
<path d="M28.9924 17.8301H27.9463V18.8746H28.9924V17.8301Z" fill="#EE8600"/>
<path d="M30.0383 17.8301H28.9922V18.8746H30.0383V17.8301Z" fill="#EE8600"/>
<path d="M31.0842 17.8301H30.0381V18.8746H31.0842V17.8301Z" fill="#EE8600"/>
<path d="M32.1306 17.8301H31.0845V18.8746H32.1306V17.8301Z" fill="#EE8600"/>
<path d="M33.1765 17.8301H32.1304V18.8746H33.1765V17.8301Z" fill="#EE8600"/>
<path d="M34.2229 17.8301H33.1768V18.8746H34.2229V17.8301Z" fill="#EE8600"/>
<path d="M35.2688 17.8301H34.2227V18.8746H35.2688V17.8301Z" fill="#EE8600"/>
<path d="M36.3147 17.8301H35.2686V18.8746H36.3147V17.8301Z" fill="#EE8600"/>
<path d="M5.97775 16.7861H4.93164V17.8307H5.97775V16.7861Z" fill="#EE8600"/>
<path d="M4.93185 16.7861H3.88574V17.8307H4.93185V16.7861Z" fill="#ED9E00"/>
<path d="M7.02413 16.7861H5.97803V17.8307H7.02413V16.7861Z" fill="#EE8600"/>
<path d="M8.07003 16.7861H7.02393V17.8307H8.07003V16.7861Z" fill="#EE8600"/>
<path d="M9.11642 16.7861H8.07031V17.8307H9.11642V16.7861Z" fill="#EE8600"/>
<path d="M10.1623 16.7861H9.11621V17.8307H10.1623V16.7861Z" fill="#EE8600"/>
<path d="M11.2087 16.7861H10.1626V17.8307H11.2087V16.7861Z" fill="#EE8600"/>
<path d="M12.2546 16.7861H11.2085V17.8307H12.2546V16.7861Z" fill="#ED9E00"/>
<path d="M13.3005 16.7861H12.2544V17.8307H13.3005V16.7861Z" fill="#ED9E00"/>
<path d="M14.3469 16.7861H13.3008V17.8307H14.3469V16.7861Z" fill="#ED9E00"/>
<path d="M15.3928 16.7861H14.3467V17.8307H15.3928V16.7861Z" fill="#ED9E00"/>
<path d="M16.4392 16.7861H15.3931V17.8307H16.4392V16.7861Z" fill="#EE8600"/>
<path d="M17.4851 16.7861H16.439V17.8307H17.4851V16.7861Z" fill="#EE8600"/>
<path d="M18.531 16.7861H17.4849V17.8307H18.531V16.7861Z" fill="#EE8600"/>
<path d="M19.5774 16.7861H18.5312V17.8307H19.5774V16.7861Z" fill="#EE8600"/>
<path d="M20.6233 16.7861H19.5771V17.8307H20.6233V16.7861Z" fill="#EE8600"/>
<path d="M21.6696 16.7861H20.6235V17.8307H21.6696V16.7861Z" fill="#EE8600"/>
<path d="M22.7155 16.7861H21.6694V17.8307H22.7155V16.7861Z" fill="#EE8600"/>
<path d="M23.7619 16.7861H22.7158V17.8307H23.7619V16.7861Z" fill="#EE8600"/>
<path d="M24.8078 16.7861H23.7617V17.8307H24.8078V16.7861Z" fill="#EE8600"/>
<path d="M25.8537 16.7861H24.8076V17.8307H25.8537V16.7861Z" fill="#ED9E00"/>
<path d="M26.9001 16.7861H25.854V17.8307H26.9001V16.7861Z" fill="#ED9E00"/>
<path d="M27.946 16.7861H26.8999V17.8307H27.946V16.7861Z" fill="#EE8600"/>
<path d="M28.9924 16.7861H27.9463V17.8307H28.9924V16.7861Z" fill="#EE8600"/>
<path d="M30.0383 16.7861H28.9922V17.8307H30.0383V16.7861Z" fill="#EE8600"/>
<path d="M31.0842 16.7861H30.0381V17.8307H31.0842V16.7861Z" fill="#EE8600"/>
<path d="M32.1306 16.7861H31.0845V17.8307H32.1306V16.7861Z" fill="#EE8600"/>
<path d="M33.1765 16.7861H32.1304V17.8307H33.1765V16.7861Z" fill="#EE8600"/>
<path d="M34.2229 16.7861H33.1768V17.8307H34.2229V16.7861Z" fill="#EE8600"/>
<path d="M35.2688 16.7861H34.2227V17.8307H35.2688V16.7861Z" fill="#EE8600"/>
<path d="M36.3147 16.7861H35.2686V17.8307H36.3147V16.7861Z" fill="#ED9E00"/>
<path d="M5.97775 15.7412H4.93164V16.7858H5.97775V15.7412Z" fill="#ED9E00"/>
<path d="M4.93185 15.7412H3.88574V16.7858H4.93185V15.7412Z" fill="#ED9E00"/>
<path d="M7.02413 15.7412H5.97803V16.7858H7.02413V15.7412Z" fill="#EE8600"/>
<path d="M8.07003 15.7412H7.02393V16.7858H8.07003V15.7412Z" fill="#EE8600"/>
<path d="M9.11642 15.7412H8.07031V16.7858H9.11642V15.7412Z" fill="#EE8600"/>
<path d="M10.1623 15.7412H9.11621V16.7858H10.1623V15.7412Z" fill="#EE8600"/>
<path d="M11.2087 15.7412H10.1626V16.7858H11.2087V15.7412Z" fill="#EE8600"/>
<path d="M12.2546 15.7412H11.2085V16.7858H12.2546V15.7412Z" fill="#ED9E00"/>
<path d="M13.3005 15.7412H12.2544V16.7858H13.3005V15.7412Z" fill="#ED9E00"/>
<path d="M14.3469 15.7412H13.3008V16.7858H14.3469V15.7412Z" fill="#ED9E00"/>
<path d="M15.3928 15.7412H14.3467V16.7858H15.3928V15.7412Z" fill="#EE8600"/>
<path d="M16.4392 15.7412H15.3931V16.7858H16.4392V15.7412Z" fill="#EE8600"/>
<path d="M17.4851 15.7412H16.439V16.7858H17.4851V15.7412Z" fill="#EE8600"/>
<path d="M18.531 15.7412H17.4849V16.7858H18.531V15.7412Z" fill="#EE8600"/>
<path d="M19.5774 15.7412H18.5312V16.7858H19.5774V15.7412Z" fill="#EE8600"/>
<path d="M20.6233 15.7412H19.5771V16.7858H20.6233V15.7412Z" fill="#EE8600"/>
<path d="M21.6696 15.7412H20.6235V16.7858H21.6696V15.7412Z" fill="#EE8600"/>
<path d="M22.7155 15.7412H21.6694V16.7858H22.7155V15.7412Z" fill="#EE8600"/>
<path d="M23.7619 15.7412H22.7158V16.7858H23.7619V15.7412Z" fill="#EE8600"/>
<path d="M24.8078 15.7412H23.7617V16.7858H24.8078V15.7412Z" fill="#EE8600"/>
<path d="M25.8537 15.7412H24.8076V16.7858H25.8537V15.7412Z" fill="#EE8600"/>
<path d="M26.9001 15.7412H25.854V16.7858H26.9001V15.7412Z" fill="#ED9E00"/>
<path d="M27.946 15.7412H26.8999V16.7858H27.946V15.7412Z" fill="#EE8600"/>
<path d="M28.9924 15.7412H27.9463V16.7858H28.9924V15.7412Z" fill="#EE8600"/>
<path d="M30.0383 15.7412H28.9922V16.7858H30.0383V15.7412Z" fill="#EE8600"/>
<path d="M31.0842 15.7412H30.0381V16.7858H31.0842V15.7412Z" fill="#EE8600"/>
<path d="M32.1306 15.7412H31.0845V16.7858H32.1306V15.7412Z" fill="#EE8600"/>
<path d="M33.1765 15.7412H32.1304V16.7858H33.1765V15.7412Z" fill="#EE8600"/>
<path d="M34.2229 15.7412H33.1768V16.7858H34.2229V15.7412Z" fill="#EE8600"/>
<path d="M35.2688 15.7412H34.2227V16.7858H35.2688V15.7412Z" fill="#ED9E00"/>
<path d="M36.3147 15.7412H35.2686V16.7858H36.3147V15.7412Z" fill="#ED9E00"/>
<path d="M5.97775 14.6963H4.93164V15.7409H5.97775V14.6963Z" fill="#ED9E00"/>
<path d="M4.93185 14.6963H3.88574V15.7409H4.93185V14.6963Z" fill="#ED9E00"/>
<path d="M7.02413 14.6963H5.97803V15.7409H7.02413V14.6963Z" fill="#ED9E00"/>
<path d="M8.07003 14.6963H7.02393V15.7409H8.07003V14.6963Z" fill="#ED9E00"/>
<path d="M9.11642 14.6963H8.07031V15.7409H9.11642V14.6963Z" fill="#ED9E00"/>
<path d="M10.1623 14.6963H9.11621V15.7409H10.1623V14.6963Z" fill="#ED9E00"/>
<path d="M11.2087 14.6963H10.1626V15.7409H11.2087V14.6963Z" fill="#ED9E00"/>
<path d="M12.2546 14.6963H11.2085V15.7409H12.2546V14.6963Z" fill="#ED9E00"/>
<path d="M13.3005 14.6963H12.2544V15.7409H13.3005V14.6963Z" fill="#ED9E00"/>
<path d="M14.3469 14.6963H13.3008V15.7409H14.3469V14.6963Z" fill="#ED9E00"/>
<path d="M15.3928 14.6963H14.3467V15.7409H15.3928V14.6963Z" fill="#ED9E00"/>
<path d="M16.4392 14.6963H15.3931V15.7409H16.4392V14.6963Z" fill="#ED9E00"/>
<path d="M17.4851 14.6963H16.439V15.7409H17.4851V14.6963Z" fill="#ED9E00"/>
<path d="M18.531 14.6963H17.4849V15.7409H18.531V14.6963Z" fill="#ED9E00"/>
<path d="M19.5774 14.6963H18.5312V15.7409H19.5774V14.6963Z" fill="#ED9E00"/>
<path d="M20.6233 14.6963H19.5771V15.7409H20.6233V14.6963Z" fill="#ED9E00"/>
<path d="M21.6696 14.6963H20.6235V15.7409H21.6696V14.6963Z" fill="#ED9E00"/>
<path d="M22.7155 14.6963H21.6694V15.7409H22.7155V14.6963Z" fill="#ED9E00"/>
<path d="M23.7619 14.6963H22.7158V15.7409H23.7619V14.6963Z" fill="#ED9E00"/>
<path d="M24.8078 14.6963H23.7617V15.7409H24.8078V14.6963Z" fill="#ED9E00"/>
<path d="M25.8537 14.6963H24.8076V15.7409H25.8537V14.6963Z" fill="#ED9E00"/>
<path d="M26.9001 14.6963H25.854V15.7409H26.9001V14.6963Z" fill="#ED9E00"/>
<path d="M27.946 14.6963H26.8999V15.7409H27.946V14.6963Z" fill="#ED9E00"/>
<path d="M28.9924 14.6963H27.9463V15.7409H28.9924V14.6963Z" fill="#ED9E00"/>
<path d="M30.0383 14.6963H28.9922V15.7409H30.0383V14.6963Z" fill="#ED9E00"/>
<path d="M31.0842 14.6963H30.0381V15.7409H31.0842V14.6963Z" fill="#ED9E00"/>
<path d="M32.1306 14.6963H31.0845V15.7409H32.1306V14.6963Z" fill="#ED9E00"/>
<path d="M33.1765 14.6963H32.1304V15.7409H33.1765V14.6963Z" fill="#ED9E00"/>
<path d="M34.2229 14.6963H33.1768V15.7409H34.2229V14.6963Z" fill="#ED9E00"/>
<path d="M35.2688 14.6963H34.2227V15.7409H35.2688V14.6963Z" fill="#ED9E00"/>
<path d="M36.3147 14.6963H35.2686V15.7409H36.3147V14.6963Z" fill="#ED9E00"/>
<path d="M5.97775 13.6523H4.93164V14.6969H5.97775V13.6523Z" fill="#B25900"/>
<path d="M4.93185 13.6523H3.88574V14.6969H4.93185V13.6523Z" fill="#B25900"/>
<path d="M7.02413 13.6523H5.97803V14.6969H7.02413V13.6523Z" fill="#B25900"/>
<path d="M8.07003 13.6523H7.02393V14.6969H8.07003V13.6523Z" fill="#B25900"/>
<path d="M9.11642 13.6523H8.07031V14.6969H9.11642V13.6523Z" fill="#B25900"/>
<path d="M10.1623 13.6523H9.11621V14.6969H10.1623V13.6523Z" fill="#B25900"/>
<path d="M11.2087 13.6523H10.1626V14.6969H11.2087V13.6523Z" fill="#B25900"/>
<path d="M12.2546 13.6523H11.2085V14.6969H12.2546V13.6523Z" fill="#B25900"/>
<path d="M13.3005 13.6523H12.2544V14.6969H13.3005V13.6523Z" fill="#B25900"/>
<path d="M14.3469 13.6523H13.3008V14.6969H14.3469V13.6523Z" fill="#B25900"/>
<path d="M15.3928 13.6523H14.3467V14.6969H15.3928V13.6523Z" fill="#B25900"/>
<path d="M16.4392 13.6523H15.3931V14.6969H16.4392V13.6523Z" fill="#B25900"/>
<path d="M17.4851 13.6523H16.439V14.6969H17.4851V13.6523Z" fill="#B25900"/>
<path d="M18.531 13.6523H17.4849V14.6969H18.531V13.6523Z" fill="#B25900"/>
<path d="M19.5774 13.6523H18.5312V14.6969H19.5774V13.6523Z" fill="#B25900"/>
<path d="M20.6233 13.6523H19.5771V14.6969H20.6233V13.6523Z" fill="#B25900"/>
<path d="M21.6696 13.6523H20.6235V14.6969H21.6696V13.6523Z" fill="#B25900"/>
<path d="M22.7155 13.6523H21.6694V14.6969H22.7155V13.6523Z" fill="#B25900"/>
<path d="M23.7619 13.6523H22.7158V14.6969H23.7619V13.6523Z" fill="#B25900"/>
<path d="M24.8078 13.6523H23.7617V14.6969H24.8078V13.6523Z" fill="#B25900"/>
<path d="M25.8537 13.6523H24.8076V14.6969H25.8537V13.6523Z" fill="#B25900"/>
<path d="M26.9001 13.6523H25.854V14.6969H26.9001V13.6523Z" fill="#B25900"/>
<path d="M27.946 13.6523H26.8999V14.6969H27.946V13.6523Z" fill="#B25900"/>
<path d="M28.9924 13.6523H27.9463V14.6969H28.9924V13.6523Z" fill="#B25900"/>
<path d="M30.0383 13.6523H28.9922V14.6969H30.0383V13.6523Z" fill="#B25900"/>
<path d="M31.0842 13.6523H30.0381V14.6969H31.0842V13.6523Z" fill="#B25900"/>
<path d="M32.1306 13.6523H31.0845V14.6969H32.1306V13.6523Z" fill="#B25900"/>
<path d="M33.1765 13.6523H32.1304V14.6969H33.1765V13.6523Z" fill="#B25900"/>
<path d="M34.2229 13.6523H33.1768V14.6969H34.2229V13.6523Z" fill="#B25900"/>
<path d="M35.2688 13.6523H34.2227V14.6969H35.2688V13.6523Z" fill="#B25900"/>
<path d="M36.3147 13.6523H35.2686V14.6969H36.3147V13.6523Z" fill="#B25900"/>
<path d="M5.97775 12.6074H4.93164V13.652H5.97775V12.6074Z" fill="#FFD281"/>
<path d="M4.93185 12.6074H3.88574V13.652H4.93185V12.6074Z" fill="#FFD281"/>
<path d="M7.02413 12.6074H5.97803V13.652H7.02413V12.6074Z" fill="#FFD281"/>
<path d="M8.07003 12.6074H7.02393V13.652H8.07003V12.6074Z" fill="#ED9E00"/>
<path d="M9.11642 12.6074H8.07031V13.652H9.11642V12.6074Z" fill="#ED9E00"/>
<path d="M10.1623 12.6074H9.11621V13.652H10.1623V12.6074Z" fill="#ED9E00"/>
<path d="M11.2087 12.6074H10.1626V13.652H11.2087V12.6074Z" fill="#ED9E00"/>
<path d="M12.2546 12.6074H11.2085V13.652H12.2546V12.6074Z" fill="#ED9E00"/>
<path d="M13.3005 12.6074H12.2544V13.652H13.3005V12.6074Z" fill="#ED9E00"/>
<path d="M14.3469 12.6074H13.3008V13.652H14.3469V12.6074Z" fill="#ED9E00"/>
<path d="M15.3928 12.6074H14.3467V13.652H15.3928V12.6074Z" fill="#ED9E00"/>
<path d="M16.4392 12.6074H15.3931V13.652H16.4392V12.6074Z" fill="#ED9E00"/>
<path d="M17.4851 12.6074H16.439V13.652H17.4851V12.6074Z" fill="#ED9E00"/>
<path d="M18.531 12.6074H17.4849V13.652H18.531V12.6074Z" fill="#ED9E00"/>
<path d="M19.5774 12.6074H18.5312V13.652H19.5774V12.6074Z" fill="#ED9E00"/>
<path d="M20.6233 12.6074H19.5771V13.652H20.6233V12.6074Z" fill="#ED9E00"/>
<path d="M21.6696 12.6074H20.6235V13.652H21.6696V12.6074Z" fill="#ED9E00"/>
<path d="M22.7155 12.6074H21.6694V13.652H22.7155V12.6074Z" fill="#ED9E00"/>
<path d="M23.7619 12.6074H22.7158V13.652H23.7619V12.6074Z" fill="#ED9E00"/>
<path d="M24.8078 12.6074H23.7617V13.652H24.8078V12.6074Z" fill="#ED9E00"/>
<path d="M25.8537 12.6074H24.8076V13.652H25.8537V12.6074Z" fill="#ED9E00"/>
<path d="M26.9001 12.6074H25.854V13.652H26.9001V12.6074Z" fill="#ED9E00"/>
<path d="M27.946 12.6074H26.8999V13.652H27.946V12.6074Z" fill="#ED9E00"/>
<path d="M28.9924 12.6074H27.9463V13.652H28.9924V12.6074Z" fill="#ED9E00"/>
<path d="M30.0383 12.6074H28.9922V13.652H30.0383V12.6074Z" fill="#ED9E00"/>
<path d="M31.0842 12.6074H30.0381V13.652H31.0842V12.6074Z" fill="#ED9E00"/>
<path d="M32.1306 12.6074H31.0845V13.652H32.1306V12.6074Z" fill="#FFD281"/>
<path d="M33.1765 12.6074H32.1304V13.652H33.1765V12.6074Z" fill="#FFD281"/>
<path d="M34.2229 12.6074H33.1768V13.652H34.2229V12.6074Z" fill="#FFD281"/>
<path d="M35.2688 12.6074H34.2227V13.652H35.2688V12.6074Z" fill="#FFD281"/>
<path d="M36.3147 12.6074H35.2686V13.652H36.3147V12.6074Z" fill="#FFD281"/>
<path d="M5.97775 11.5625H4.93164V12.6071H5.97775V11.5625Z" fill="#ED9E00"/>
<path d="M4.93185 11.5625H3.88574V12.6071H4.93185V11.5625Z" fill="#ED9E00"/>
<path d="M7.02413 11.5625H5.97803V12.6071H7.02413V11.5625Z" fill="#ED9E00"/>
<path d="M8.07003 11.5625H7.02393V12.6071H8.07003V11.5625Z" fill="#ED9E00"/>
<path d="M9.11642 11.5625H8.07031V12.6071H9.11642V11.5625Z" fill="#ED9E00"/>
<path d="M10.1623 11.5625H9.11621V12.6071H10.1623V11.5625Z" fill="#ED9E00"/>
<path d="M11.2087 11.5625H10.1626V12.6071H11.2087V11.5625Z" fill="#ED9E00"/>
<path d="M12.2546 11.5625H11.2085V12.6071H12.2546V11.5625Z" fill="#ED9E00"/>
<path d="M13.3005 11.5625H12.2544V12.6071H13.3005V11.5625Z" fill="#ED9E00"/>
<path d="M14.3469 11.5625H13.3008V12.6071H14.3469V11.5625Z" fill="#ED9E00"/>
<path d="M15.3928 11.5625H14.3467V12.6071H15.3928V11.5625Z" fill="#ED9E00"/>
<path d="M16.4392 11.5625H15.3931V12.6071H16.4392V11.5625Z" fill="#ED9E00"/>
<path d="M17.4851 11.5625H16.439V12.6071H17.4851V11.5625Z" fill="#ED9E00"/>
<path d="M18.531 11.5625H17.4849V12.6071H18.531V11.5625Z" fill="#ED9E00"/>
<path d="M19.5774 11.5625H18.5312V12.6071H19.5774V11.5625Z" fill="#ED9E00"/>
<path d="M20.6233 11.5625H19.5771V12.6071H20.6233V11.5625Z" fill="#ED9E00"/>
<path d="M21.6696 11.5625H20.6235V12.6071H21.6696V11.5625Z" fill="#ED9E00"/>
<path d="M22.7155 11.5625H21.6694V12.6071H22.7155V11.5625Z" fill="#ED9E00"/>
<path d="M23.7619 11.5625H22.7158V12.6071H23.7619V11.5625Z" fill="#ED9E00"/>
<path d="M24.8078 11.5625H23.7617V12.6071H24.8078V11.5625Z" fill="#ED9E00"/>
<path d="M25.8537 11.5625H24.8076V12.6071H25.8537V11.5625Z" fill="#ED9E00"/>
<path d="M26.9001 11.5625H25.854V12.6071H26.9001V11.5625Z" fill="#ED9E00"/>
<path d="M27.946 11.5625H26.8999V12.6071H27.946V11.5625Z" fill="#ED9E00"/>
<path d="M28.9924 11.5625H27.9463V12.6071H28.9924V11.5625Z" fill="#ED9E00"/>
<path d="M30.0383 11.5625H28.9922V12.6071H30.0383V11.5625Z" fill="#ED9E00"/>
<path d="M31.0842 11.5625H30.0381V12.6071H31.0842V11.5625Z" fill="#ED9E00"/>
<path d="M32.1306 11.5625H31.0845V12.6071H32.1306V11.5625Z" fill="#ED9E00"/>
<path d="M33.1765 11.5625H32.1304V12.6071H33.1765V11.5625Z" fill="#ED9E00"/>
<path d="M34.2229 11.5625H33.1768V12.6071H34.2229V11.5625Z" fill="#ED9E00"/>
<path d="M35.2688 11.5625H34.2227V12.6071H35.2688V11.5625Z" fill="#ED9E00"/>
<path d="M36.3147 11.5625H35.2686V12.6071H36.3147V11.5625Z" fill="#ED9E00"/>
<path d="M5.97775 10.5186H4.93164V11.5631H5.97775V10.5186Z" fill="#FFD281"/>
<path d="M4.93185 10.5186H3.88574V11.5631H4.93185V10.5186Z" fill="#FFD281"/>
<path d="M7.02413 10.5186H5.97803V11.5631H7.02413V10.5186Z" fill="#FFD281"/>
<path d="M8.07003 10.5186H7.02393V11.5631H8.07003V10.5186Z" fill="#FFD281"/>
<path d="M9.11642 10.5186H8.07031V11.5631H9.11642V10.5186Z" fill="#FFD281"/>
<path d="M10.1623 10.5186H9.11621V11.5631H10.1623V10.5186Z" fill="#ED9E00"/>
<path d="M11.2087 10.5186H10.1626V11.5631H11.2087V10.5186Z" fill="#ED9E00"/>
<path d="M12.2546 10.5186H11.2085V11.5631H12.2546V10.5186Z" fill="#ED9E00"/>
<path d="M13.3005 10.5186H12.2544V11.5631H13.3005V10.5186Z" fill="#ED9E00"/>
<path d="M14.3469 10.5186H13.3008V11.5631H14.3469V10.5186Z" fill="#ED9E00"/>
<path d="M15.3928 10.5186H14.3467V11.5631H15.3928V10.5186Z" fill="#ED9E00"/>
<path d="M16.4392 10.5186H15.3931V11.5631H16.4392V10.5186Z" fill="#ED9E00"/>
<path d="M17.4851 10.5186H16.439V11.5631H17.4851V10.5186Z" fill="#B25900"/>
<path d="M18.531 10.5186H17.4849V11.5631H18.531V10.5186Z" fill="#B25900"/>
<path d="M19.5774 10.5186H18.5312V11.5631H19.5774V10.5186Z" fill="#ED9E00"/>
<path d="M20.6233 10.5186H19.5771V11.5631H20.6233V10.5186Z" fill="#ED9E00"/>
<path d="M21.6696 10.5186H20.6235V11.5631H21.6696V10.5186Z" fill="#ED9E00"/>
<path d="M22.7155 10.5186H21.6694V11.5631H22.7155V10.5186Z" fill="#B25900"/>
<path d="M23.7619 10.5186H22.7158V11.5631H23.7619V10.5186Z" fill="#B25900"/>
<path d="M24.8078 10.5186H23.7617V11.5631H24.8078V10.5186Z" fill="#ED9E00"/>
<path d="M25.8537 10.5186H24.8076V11.5631H25.8537V10.5186Z" fill="#ED9E00"/>
<path d="M26.9001 10.5186H25.854V11.5631H26.9001V10.5186Z" fill="#ED9E00"/>
<path d="M27.946 10.5186H26.8999V11.5631H27.946V10.5186Z" fill="#ED9E00"/>
<path d="M28.9924 10.5186H27.9463V11.5631H28.9924V10.5186Z" fill="#ED9E00"/>
<path d="M30.0383 10.5186H28.9922V11.5631H30.0383V10.5186Z" fill="#ED9E00"/>
<path d="M31.0842 10.5186H30.0381V11.5631H31.0842V10.5186Z" fill="#ED9E00"/>
<path d="M32.1306 10.5186H31.0845V11.5631H32.1306V10.5186Z" fill="#ED9E00"/>
<path d="M33.1765 10.5186H32.1304V11.5631H33.1765V10.5186Z" fill="#ED9E00"/>
<path d="M34.2229 10.5186H33.1768V11.5631H34.2229V10.5186Z" fill="#ED9E00"/>
<path d="M35.2688 10.5186H34.2227V11.5631H35.2688V10.5186Z" fill="#FFD281"/>
<path d="M36.3147 10.5186H35.2686V11.5631H36.3147V10.5186Z" fill="#FFD281"/>
<path d="M5.97775 9.47363H4.93164V10.5182H5.97775V9.47363Z" fill="#FFD281"/>
<path d="M4.93185 9.47363H3.88574V10.5182H4.93185V9.47363Z" fill="#FFD281"/>
<path d="M7.02413 9.47363H5.97803V10.5182H7.02413V9.47363Z" fill="#FFD281"/>
<path d="M8.07003 9.47363H7.02393V10.5182H8.07003V9.47363Z" fill="#FFD281"/>
<path d="M9.11642 9.47363H8.07031V10.5182H9.11642V9.47363Z" fill="#FFD281"/>
<path d="M10.1623 9.47363H9.11621V10.5182H10.1623V9.47363Z" fill="#FFD281"/>
<path d="M11.2087 9.47363H10.1626V10.5182H11.2087V9.47363Z" fill="#FFD281"/>
<path d="M12.2546 9.47363H11.2085V10.5182H12.2546V9.47363Z" fill="#ED9E00"/>
<path d="M13.3005 9.47363H12.2544V10.5182H13.3005V9.47363Z" fill="#ED9E00"/>
<path d="M14.3469 9.47363H13.3008V10.5182H14.3469V9.47363Z" fill="#ED9E00"/>
<path d="M15.3928 9.47363H14.3467V10.5182H15.3928V9.47363Z" fill="#ED9E00"/>
<path d="M16.4392 9.47363H15.3931V10.5182H16.4392V9.47363Z" fill="#ED9E00"/>
<path d="M17.4851 9.47363H16.439V10.5182H17.4851V9.47363Z" fill="#B25900"/>
<path d="M18.531 9.47363H17.4849V10.5182H18.531V9.47363Z" fill="#B25900"/>
<path d="M19.5774 9.47363H18.5312V10.5182H19.5774V9.47363Z" fill="#FFD281"/>
<path d="M20.6233 9.47363H19.5771V10.5182H20.6233V9.47363Z" fill="#FFD281"/>
<path d="M21.6696 9.47363H20.6235V10.5182H21.6696V9.47363Z" fill="#ED9E00"/>
<path d="M22.7155 9.47363H21.6694V10.5182H22.7155V9.47363Z" fill="#B25900"/>
<path d="M23.7619 9.47363H22.7158V10.5182H23.7619V9.47363Z" fill="#B25900"/>
<path d="M24.8078 9.47363H23.7617V10.5182H24.8078V9.47363Z" fill="#ED9E00"/>
<path d="M25.8537 9.47363H24.8076V10.5182H25.8537V9.47363Z" fill="#ED9E00"/>
<path d="M26.9001 9.47363H25.854V10.5182H26.9001V9.47363Z" fill="#ED9E00"/>
<path d="M27.946 9.47363H26.8999V10.5182H27.946V9.47363Z" fill="#ED9E00"/>
<path d="M28.9924 9.47363H27.9463V10.5182H28.9924V9.47363Z" fill="#ED9E00"/>
<path d="M30.0383 9.47363H28.9922V10.5182H30.0383V9.47363Z" fill="#ED9E00"/>
<path d="M31.0842 9.47363H30.0381V10.5182H31.0842V9.47363Z" fill="#ED9E00"/>
<path d="M32.1306 9.47363H31.0845V10.5182H32.1306V9.47363Z" fill="#ED9E00"/>
<path d="M33.1765 9.47363H32.1304V10.5182H33.1765V9.47363Z" fill="#FFD281"/>
<path d="M34.2229 9.47363H33.1768V10.5182H34.2229V9.47363Z" fill="#FFD281"/>
<path d="M35.2688 9.47363H34.2227V10.5182H35.2688V9.47363Z" fill="#FFD281"/>
<path d="M36.3147 9.47363H35.2686V10.5182H36.3147V9.47363Z" fill="#FFD281"/>
<path d="M5.97775 8.42871H4.93164V9.47328H5.97775V8.42871Z" fill="#440108"/>
<path d="M4.93185 8.42871H3.88574V9.47328H4.93185V8.42871Z" fill="#440108"/>
<path d="M7.02413 8.42871H5.97803V9.47328H7.02413V8.42871Z" fill="#440108"/>
<path d="M8.07003 8.42871H7.02393V9.47328H8.07003V8.42871Z" fill="#440108"/>
<path d="M9.11642 8.42871H8.07031V9.47328H9.11642V8.42871Z" fill="#440108"/>
<path d="M10.1623 8.42871H9.11621V9.47328H10.1623V8.42871Z" fill="#440108"/>
<path d="M11.2087 8.42871H10.1626V9.47328H11.2087V8.42871Z" fill="#440108"/>
<path d="M12.2546 8.42871H11.2085V9.47328H12.2546V8.42871Z" fill="#440108"/>
<path d="M13.3005 8.42871H12.2544V9.47328H13.3005V8.42871Z" fill="#440108"/>
<path d="M14.3469 8.42871H13.3008V9.47328H14.3469V8.42871Z" fill="#440108"/>
<path d="M15.3928 8.42871H14.3467V9.47328H15.3928V8.42871Z" fill="#440108"/>
<path d="M16.4392 8.42871H15.3931V9.47328H16.4392V8.42871Z" fill="#440108"/>
<path d="M17.4851 8.42871H16.439V9.47328H17.4851V8.42871Z" fill="#440108"/>
<path d="M18.531 8.42871H17.4849V9.47328H18.531V8.42871Z" fill="#440108"/>
<path d="M19.5774 8.42871H18.5312V9.47328H19.5774V8.42871Z" fill="#440108"/>
<path d="M20.6233 8.42871H19.5771V9.47328H20.6233V8.42871Z" fill="#440108"/>
<path d="M21.6696 8.42871H20.6235V9.47328H21.6696V8.42871Z" fill="#440108"/>
<path d="M22.7155 8.42871H21.6694V9.47328H22.7155V8.42871Z" fill="#440108"/>
<path d="M23.7619 8.42871H22.7158V9.47328H23.7619V8.42871Z" fill="#440108"/>
<path d="M24.8078 8.42871H23.7617V9.47328H24.8078V8.42871Z" fill="#440108"/>
<path d="M25.8537 8.42871H24.8076V9.47328H25.8537V8.42871Z" fill="#440108"/>
<path d="M26.9001 8.42871H25.854V9.47328H26.9001V8.42871Z" fill="#440108"/>
<path d="M27.946 8.42871H26.8999V9.47328H27.946V8.42871Z" fill="#440108"/>
<path d="M28.9924 8.42871H27.9463V9.47328H28.9924V8.42871Z" fill="#440108"/>
<path d="M30.0383 8.42871H28.9922V9.47328H30.0383V8.42871Z" fill="#440108"/>
<path d="M31.0842 8.42871H30.0381V9.47328H31.0842V8.42871Z" fill="#440108"/>
<path d="M32.1306 8.42871H31.0845V9.47328H32.1306V8.42871Z" fill="#440108"/>
<path d="M33.1765 8.42871H32.1304V9.47328H33.1765V8.42871Z" fill="#440108"/>
<path d="M34.2229 8.42871H33.1768V9.47328H34.2229V8.42871Z" fill="#440108"/>
<path d="M35.2688 8.42871H34.2227V9.47328H35.2688V8.42871Z" fill="#440108"/>
<path d="M36.3147 8.42871H35.2686V9.47328H36.3147V8.42871Z" fill="#440108"/>
<path d="M5.97775 7.38477H4.93164V8.42933H5.97775V7.38477Z" fill="#FFD281"/>
<path d="M4.93185 7.38477H3.88574V8.42933H4.93185V7.38477Z" fill="#FFD281"/>
<path d="M7.02413 7.38477H5.97803V8.42933H7.02413V7.38477Z" fill="#FFD281"/>
<path d="M8.07003 7.38477H7.02393V8.42933H8.07003V7.38477Z" fill="#FFD281"/>
<path d="M9.11642 7.38477H8.07031V8.42933H9.11642V7.38477Z" fill="#FFD281"/>
<path d="M10.1623 7.38477H9.11621V8.42933H10.1623V7.38477Z" fill="#FFD281"/>
<path d="M11.2087 7.38477H10.1626V8.42933H11.2087V7.38477Z" fill="#FFD281"/>
<path d="M12.2546 7.38477H11.2085V8.42933H12.2546V7.38477Z" fill="#FFD281"/>
<path d="M13.3005 7.38477H12.2544V8.42933H13.3005V7.38477Z" fill="#FFD281"/>
<path d="M14.3469 7.38477H13.3008V8.42933H14.3469V7.38477Z" fill="#ED9E00"/>
<path d="M15.3928 7.38477H14.3467V8.42933H15.3928V7.38477Z" fill="#ED9E00"/>
<path d="M16.4392 7.38477H15.3931V8.42933H16.4392V7.38477Z" fill="#ED9E00"/>
<path d="M17.4851 7.38477H16.439V8.42933H17.4851V7.38477Z" fill="#B25900"/>
<path d="M18.531 7.38477H17.4849V8.42933H18.531V7.38477Z" fill="#B25900"/>
<path d="M19.5774 7.38477H18.5312V8.42933H19.5774V7.38477Z" fill="#ED9E00"/>
<path d="M20.6233 7.38477H19.5771V8.42933H20.6233V7.38477Z" fill="#ED9E00"/>
<path d="M21.6696 7.38477H20.6235V8.42933H21.6696V7.38477Z" fill="#ED9E00"/>
<path d="M22.7155 7.38477H21.6694V8.42933H22.7155V7.38477Z" fill="#B25900"/>
<path d="M23.7619 7.38477H22.7158V8.42933H23.7619V7.38477Z" fill="#B25900"/>
<path d="M24.8078 7.38477H23.7617V8.42933H24.8078V7.38477Z" fill="#ED9E00"/>
<path d="M25.8537 7.38477H24.8076V8.42933H25.8537V7.38477Z" fill="#ED9E00"/>
<path d="M26.9001 7.38477H25.854V8.42933H26.9001V7.38477Z" fill="#ED9E00"/>
<path d="M27.946 7.38477H26.8999V8.42933H27.946V7.38477Z" fill="#FFD281"/>
<path d="M28.9924 7.38477H27.9463V8.42933H28.9924V7.38477Z" fill="#FFD281"/>
<path d="M30.0383 7.38477H28.9922V8.42933H30.0383V7.38477Z" fill="#FFD281"/>
<path d="M31.0842 7.38477H30.0381V8.42933H31.0842V7.38477Z" fill="#FFD281"/>
<path d="M32.1306 7.38477H31.0845V8.42933H32.1306V7.38477Z" fill="#FFD281"/>
<path d="M33.1765 7.38477H32.1304V8.42933H33.1765V7.38477Z" fill="#FFD281"/>
<path d="M34.2229 7.38477H33.1768V8.42933H34.2229V7.38477Z" fill="#FFD281"/>
<path d="M35.2688 7.38477H34.2227V8.42933H35.2688V7.38477Z" fill="#FFD281"/>
<path d="M36.3147 7.38477H35.2686V8.42933H36.3147V7.38477Z" fill="#FFD281"/>
<path d="M5.97775 6.33984H4.93164V7.38441H5.97775V6.33984Z" fill="#ED9E00"/>
<path d="M7.02413 6.33984H5.97803V7.38441H7.02413V6.33984Z" fill="#ED9E00"/>
<path d="M8.07003 6.33984H7.02393V7.38441H8.07003V6.33984Z" fill="#ED9E00"/>
<path d="M9.11642 6.33984H8.07031V7.38441H9.11642V6.33984Z" fill="#ED9E00"/>
<path d="M10.1623 6.33984H9.11621V7.38441H10.1623V6.33984Z" fill="#ED9E00"/>
<path d="M11.2087 6.33984H10.1626V7.38441H11.2087V6.33984Z" fill="#ED9E00"/>
<path d="M12.2546 6.33984H11.2085V7.38441H12.2546V6.33984Z" fill="#ED9E00"/>
<path d="M13.3005 6.33984H12.2544V7.38441H13.3005V6.33984Z" fill="#ED9E00"/>
<path d="M14.3469 6.33984H13.3008V7.38441H14.3469V6.33984Z" fill="#ED9E00"/>
<path d="M15.3928 6.33984H14.3467V7.38441H15.3928V6.33984Z" fill="#ED9E00"/>
<path d="M16.4392 6.33984H15.3931V7.38441H16.4392V6.33984Z" fill="#ED9E00"/>
<path d="M17.4851 6.33984H16.439V7.38441H17.4851V6.33984Z" fill="#B25900"/>
<path d="M18.531 6.33984H17.4849V7.38441H18.531V6.33984Z" fill="#B25900"/>
<path d="M19.5774 6.33984H18.5312V7.38441H19.5774V6.33984Z" fill="#ED9E00"/>
<path d="M20.6233 6.33984H19.5771V7.38441H20.6233V6.33984Z" fill="#ED9E00"/>
<path d="M21.6696 6.33984H20.6235V7.38441H21.6696V6.33984Z" fill="#ED9E00"/>
<path d="M22.7155 6.33984H21.6694V7.38441H22.7155V6.33984Z" fill="#B25900"/>
<path d="M23.7619 6.33984H22.7158V7.38441H23.7619V6.33984Z" fill="#B25900"/>
<path d="M24.8078 6.33984H23.7617V7.38441H24.8078V6.33984Z" fill="#ED9E00"/>
<path d="M25.8537 6.33984H24.8076V7.38441H25.8537V6.33984Z" fill="#ED9E00"/>
<path d="M26.9001 6.33984H25.854V7.38441H26.9001V6.33984Z" fill="#ED9E00"/>
<path d="M27.946 6.33984H26.8999V7.38441H27.946V6.33984Z" fill="#ED9E00"/>
<path d="M28.9924 6.33984H27.9463V7.38441H28.9924V6.33984Z" fill="#ED9E00"/>
<path d="M30.0383 6.33984H28.9922V7.38441H30.0383V6.33984Z" fill="#ED9E00"/>
<path d="M31.0842 6.33984H30.0381V7.38441H31.0842V6.33984Z" fill="#ED9E00"/>
<path d="M32.1306 6.33984H31.0845V7.38441H32.1306V6.33984Z" fill="#ED9E00"/>
<path d="M33.1765 6.33984H32.1304V7.38441H33.1765V6.33984Z" fill="#ED9E00"/>
<path d="M34.2229 6.33984H33.1768V7.38441H34.2229V6.33984Z" fill="#ED9E00"/>
<path d="M35.2688 6.33984H34.2227V7.38441H35.2688V6.33984Z" fill="#ED9E00"/>
<path d="M8.07003 5.2959H7.02393V6.34047H8.07003V5.2959Z" fill="#ED9E00"/>
<path d="M9.11642 5.2959H8.07031V6.34047H9.11642V5.2959Z" fill="#ED9E00"/>
<path d="M10.1623 5.2959H9.11621V6.34047H10.1623V5.2959Z" fill="#ED9E00"/>
<path d="M11.2087 5.2959H10.1626V6.34047H11.2087V5.2959Z" fill="#ED9E00"/>
<path d="M12.2546 5.2959H11.2085V6.34047H12.2546V5.2959Z" fill="#ED9E00"/>
<path d="M13.3005 5.2959H12.2544V6.34047H13.3005V5.2959Z" fill="#ED9E00"/>
<path d="M14.3469 5.2959H13.3008V6.34047H14.3469V5.2959Z" fill="#ED9E00"/>
<path d="M15.3928 5.2959H14.3467V6.34047H15.3928V5.2959Z" fill="#ED9E00"/>
<path d="M16.4392 5.2959H15.3931V6.34047H16.4392V5.2959Z" fill="#ED9E00"/>
<path d="M17.4851 5.2959H16.439V6.34047H17.4851V5.2959Z" fill="#B25900"/>
<path d="M18.531 5.2959H17.4849V6.34047H18.531V5.2959Z" fill="#B25900"/>
<path d="M19.5774 5.2959H18.5312V6.34047H19.5774V5.2959Z" fill="#ED9E00"/>
<path d="M20.6233 5.2959H19.5771V6.34047H20.6233V5.2959Z" fill="#ED9E00"/>
<path d="M21.6696 5.2959H20.6235V6.34047H21.6696V5.2959Z" fill="#ED9E00"/>
<path d="M22.7155 5.2959H21.6694V6.34047H22.7155V5.2959Z" fill="#B25900"/>
<path d="M23.7619 5.2959H22.7158V6.34047H23.7619V5.2959Z" fill="#B25900"/>
<path d="M24.8078 5.2959H23.7617V6.34047H24.8078V5.2959Z" fill="#ED9E00"/>
<path d="M25.8537 5.2959H24.8076V6.34047H25.8537V5.2959Z" fill="#ED9E00"/>
<path d="M26.9001 5.2959H25.854V6.34047H26.9001V5.2959Z" fill="#ED9E00"/>
<path d="M27.946 5.2959H26.8999V6.34047H27.946V5.2959Z" fill="#ED9E00"/>
<path d="M28.9924 5.2959H27.9463V6.34047H28.9924V5.2959Z" fill="#ED9E00"/>
<path d="M30.0383 5.2959H28.9922V6.34047H30.0383V5.2959Z" fill="#ED9E00"/>
<path d="M31.0842 5.2959H30.0381V6.34047H31.0842V5.2959Z" fill="#ED9E00"/>
<path d="M32.1306 5.2959H31.0845V6.34047H32.1306V5.2959Z" fill="#ED9E00"/>
<path d="M33.1765 5.2959H32.1304V6.34047H33.1765V5.2959Z" fill="#ED9E00"/>
<path d="M3.88546 17.8301H2.83936V18.8746H3.88546V17.8301Z" fill="#EE8600"/>
<path d="M2.83956 17.8301H1.79346V18.8746H2.83956V17.8301Z" fill="#440108"/>
<path d="M3.88546 18.875H2.83936V19.9196H3.88546V18.875Z" fill="#B25900"/>
<path d="M2.83956 18.875H1.79346V19.9196H2.83956V18.875Z" fill="#440108"/>
<path d="M3.88546 19.9199H2.83936V20.9645H3.88546V19.9199Z" fill="#440108"/>
<path d="M2.83956 19.9199H1.79346V20.9645H2.83956V19.9199Z" fill="#440108"/>
<path d="M3.88546 16.7861H2.83936V17.8307H3.88546V16.7861Z" fill="#440108"/>
<path d="M3.88546 15.7412H2.83936V16.7858H3.88546V15.7412Z" fill="#440108"/>
<path d="M3.88546 14.6963H2.83936V15.7409H3.88546V14.6963Z" fill="#440108"/>
<path d="M3.88546 13.6523H2.83936V14.6969H3.88546V13.6523Z" fill="#440108"/>
<path d="M3.88546 12.6074H2.83936V13.652H3.88546V12.6074Z" fill="#440108"/>
<path d="M3.88546 11.5625H2.83936V12.6071H3.88546V11.5625Z" fill="#440108"/>
<path d="M3.88546 10.5186H2.83936V11.5631H3.88546V10.5186Z" fill="#440108"/>
<path d="M3.88546 9.47363H2.83936V10.5182H3.88546V9.47363Z" fill="#440108"/>
<path d="M3.88546 8.42871H2.83936V9.47328H3.88546V8.42871Z" fill="#440108"/>
<path d="M4.93185 6.33984H3.88574V7.38441H4.93185V6.33984Z" fill="#440108"/>
<path d="M5.97775 5.2959H4.93164V6.34047H5.97775V5.2959Z" fill="#440108"/>
<path d="M7.02413 5.2959H5.97803V6.34047H7.02413V5.2959Z" fill="#440108"/>
<path d="M8.07003 4.25098H7.02393V5.29554H8.07003V4.25098Z" fill="#440108"/>
<path d="M9.11642 4.25098H8.07031V5.29554H9.11642V4.25098Z" fill="#440108"/>
<path d="M3.88546 7.38477H2.83936V8.42933H3.88546V7.38477Z" fill="#440108"/>
<path d="M10.1623 4.25098H9.11621V5.29554H10.1623V4.25098Z" fill="#440108"/>
<path d="M11.2087 4.25098H10.1626V5.29554H11.2087V4.25098Z" fill="#440108"/>
<path d="M12.2546 4.25098H11.2085V5.29554H12.2546V4.25098Z" fill="#440108"/>
<path d="M13.3005 4.25098H12.2544V5.29554H13.3005V4.25098Z" fill="#440108"/>
<path d="M14.3469 4.25098H13.3008V5.29554H14.3469V4.25098Z" fill="#440108"/>
<path d="M15.3928 4.25098H14.3467V5.29554H15.3928V4.25098Z" fill="#440108"/>
<path d="M16.4392 4.25098H15.3931V5.29554H16.4392V4.25098Z" fill="#440108"/>
<path d="M17.4851 4.25098H16.439V5.29554H17.4851V4.25098Z" fill="#440108"/>
<path d="M18.531 4.25098H17.4849V5.29554H18.531V4.25098Z" fill="#440108"/>
<path d="M19.5774 4.25098H18.5312V5.29554H19.5774V4.25098Z" fill="#440108"/>
<path d="M20.6233 4.25098H19.5771V5.29554H20.6233V4.25098Z" fill="#440108"/>
<path d="M21.6696 4.25098H20.6235V5.29554H21.6696V4.25098Z" fill="#440108"/>
<path d="M22.7155 4.25098H21.6694V5.29554H22.7155V4.25098Z" fill="#440108"/>
<path d="M23.7619 4.25098H22.7158V5.29554H23.7619V4.25098Z" fill="#440108"/>
<path d="M24.8078 4.25098H23.7617V5.29554H24.8078V4.25098Z" fill="#440108"/>
<path d="M25.8537 4.25098H24.8076V5.29554H25.8537V4.25098Z" fill="#440108"/>
<path d="M26.9001 4.25098H25.854V5.29554H26.9001V4.25098Z" fill="#440108"/>
<path d="M27.946 4.25098H26.8999V5.29554H27.946V4.25098Z" fill="#440108"/>
<path d="M28.9924 4.25098H27.9463V5.29554H28.9924V4.25098Z" fill="#440108"/>
<path d="M30.0383 4.25098H28.9922V5.29554H30.0383V4.25098Z" fill="#440108"/>
<path d="M31.0842 4.25098H30.0381V5.29554H31.0842V4.25098Z" fill="#440108"/>
<path d="M37.361 17.8301H36.3149V18.8746H37.361V17.8301Z" fill="#EE8600"/>
<path d="M38.4069 17.8301H37.3608V18.8746H38.4069V17.8301Z" fill="#440108"/>
<path d="M37.361 18.875H36.3149V19.9196H37.361V18.875Z" fill="#B25900"/>
<path d="M38.4069 18.875H37.3608V19.9196H38.4069V18.875Z" fill="#440108"/>
<path d="M37.361 19.9199H36.3149V20.9645H37.361V19.9199Z" fill="#440108"/>
<path d="M38.4069 19.9199H37.3608V20.9645H38.4069V19.9199Z" fill="#440108"/>
<path d="M37.361 16.7861H36.3149V17.8307H37.361V16.7861Z" fill="#440108"/>
<path d="M37.361 15.7412H36.3149V16.7858H37.361V15.7412Z" fill="#440108"/>
<path d="M37.361 14.6963H36.3149V15.7409H37.361V14.6963Z" fill="#440108"/>
<path d="M37.361 13.6523H36.3149V14.6969H37.361V13.6523Z" fill="#440108"/>
<path d="M37.361 12.6074H36.3149V13.652H37.361V12.6074Z" fill="#440108"/>
<path d="M37.361 11.5625H36.3149V12.6071H37.361V11.5625Z" fill="#440108"/>
<path d="M37.361 10.5186H36.3149V11.5631H37.361V10.5186Z" fill="#440108"/>
<path d="M37.361 9.47363H36.3149V10.5182H37.361V9.47363Z" fill="#440108"/>
<path d="M37.361 8.42871H36.3149V9.47328H37.361V8.42871Z" fill="#440108"/>
<path d="M36.3147 6.33984H35.2686V7.38441H36.3147V6.33984Z" fill="#440108"/>
<path d="M34.2229 5.2959H33.1768V6.34047H34.2229V5.2959Z" fill="#440108"/>
<path d="M35.2688 5.2959H34.2227V6.34047H35.2688V5.2959Z" fill="#440108"/>
<path d="M32.1306 4.25098H31.0845V5.29554H32.1306V4.25098Z" fill="#440108"/>
<path d="M33.1765 4.25098H32.1304V5.29554H33.1765V4.25098Z" fill="#440108"/>
<path d="M37.361 7.38477H36.3149V8.42933H37.361V7.38477Z" fill="#440108"/>
<path d="M19.072 21.085H18.0259V22.1295H19.072V21.085Z" fill="#440108"/>
<path d="M20.1179 21.085H19.0718V22.1295H20.1179V21.085Z" fill="#440108"/>
<path d="M21.1643 21.085H20.1182V22.1295H21.1643V21.085Z" fill="#440108"/>
<path d="M22.2102 21.085H21.1641V22.1295H22.2102V21.085Z" fill="#440108"/>
<path d="M19.072 20.04H18.0259V21.0846H19.072V20.04Z" fill="#EE8600"/>
<path d="M20.1179 20.04H19.0718V21.0846H20.1179V20.04Z" fill="#EE8600"/>
<path d="M21.1643 20.04H20.1182V21.0846H21.1643V20.04Z" fill="#EE8600"/>
<path d="M22.2102 20.04H21.1641V21.0846H22.2102V20.04Z" fill="#EE8600"/>
<path d="M19.072 18.9961H18.0259V20.0407H19.072V18.9961Z" fill="#EE8600"/>
<path d="M20.1179 18.9961H19.0718V20.0407H20.1179V18.9961Z" fill="#EE8600"/>
<path d="M21.1643 18.9961H20.1182V20.0407H21.1643V18.9961Z" fill="#EE8600"/>
<path d="M22.2102 18.9961H21.1641V20.0407H22.2102V18.9961Z" fill="#EE8600"/>
<path d="M19.072 17.9512H18.0259V18.9957H19.072V17.9512Z" fill="#EE8600"/>
<path d="M20.1179 17.9512H19.0718V18.9957H20.1179V17.9512Z" fill="#EE8600"/>
<path d="M21.1643 17.9512H20.1182V18.9957H21.1643V17.9512Z" fill="#EE8600"/>
<path d="M22.2102 17.9512H21.1641V18.9957H22.2102V17.9512Z" fill="#EE8600"/>
<path d="M19.072 16.9062H18.0259V17.9508H19.072V16.9062Z" fill="#EE8600"/>
<path d="M20.1179 16.9062H19.0718V17.9508H20.1179V16.9062Z" fill="#F9AF3C"/>
<path d="M21.1643 16.9062H20.1182V17.9508H21.1643V16.9062Z" fill="#EE8600"/>
<path d="M22.2102 16.9062H21.1641V17.9508H22.2102V16.9062Z" fill="#F9AF3C"/>
<path d="M19.072 15.8623H18.0259V16.9069H19.072V15.8623Z" fill="#EE8600"/>
<path d="M20.1179 15.8623H19.0718V16.9069H20.1179V15.8623Z" fill="#F9AF3C"/>
<path d="M21.1643 15.8623H20.1182V16.9069H21.1643V15.8623Z" fill="#F9AF3C"/>
<path d="M22.2102 15.8623H21.1641V16.9069H22.2102V15.8623Z" fill="#F9AF3C"/>
<path d="M19.072 14.8174H18.0259V15.862H19.072V14.8174Z" fill="#F9AF3C"/>
<path d="M20.1179 14.8174H19.0718V15.862H20.1179V14.8174Z" fill="#F9AF3C"/>
<path d="M21.1643 14.8174H20.1182V15.862H21.1643V14.8174Z" fill="#F9AF3C"/>
<path d="M22.2102 14.8174H21.1641V15.862H22.2102V14.8174Z" fill="#FEE762"/>
<path d="M19.072 13.7725H18.0259V14.817H19.072V13.7725Z" fill="#F9AF3C"/>
<path d="M20.1179 13.7725H19.0718V14.817H20.1179V13.7725Z" fill="#FEE762"/>
<path d="M21.1643 13.7725H20.1182V14.817H21.1643V13.7725Z" fill="#F9AF3C"/>
<path d="M22.2102 13.7725H21.1641V14.817H22.2102V13.7725Z" fill="#FEE762"/>
<path d="M19.072 12.7285H18.0259V13.7731H19.072V12.7285Z" fill="#FEE762"/>
<path d="M20.1179 12.7285H19.0718V13.7731H20.1179V12.7285Z" fill="#FEE762"/>
<path d="M21.1643 12.7285H20.1182V13.7731H21.1643V12.7285Z" fill="#FEE762"/>
<path d="M22.2102 12.7285H21.1641V13.7731H22.2102V12.7285Z" fill="#FEE762"/>
<path d="M19.072 11.6836H18.0259V12.7282H19.072V11.6836Z" fill="#FEE762"/>
<path d="M20.1179 11.6836H19.0718V12.7282H20.1179V11.6836Z" fill="#FEE762"/>
<path d="M21.1643 11.6836H20.1182V12.7282H21.1643V11.6836Z" fill="#FEE762"/>
<path d="M22.2102 11.6836H21.1641V12.7282H22.2102V11.6836Z" fill="#FEE762"/>
<path d="M19.072 10.6396H18.0259V11.6842H19.072V10.6396Z" fill="#FEE762"/>
<path d="M20.1179 10.6396H19.0718V11.6842H20.1179V10.6396Z" fill="#FEE762"/>
<path d="M21.1643 10.6396H20.1182V11.6842H21.1643V10.6396Z" fill="#FEE762"/>
<path d="M22.2102 10.6396H21.1641V11.6842H22.2102V10.6396Z" fill="#FEE762"/>
<path d="M19.072 9.59473H18.0259V10.6393H19.072V9.59473Z" fill="#FEE762"/>
<path d="M20.1179 9.59473H19.0718V10.6393H20.1179V9.59473Z" fill="#FEE762"/>
<path d="M21.1643 9.59473H20.1182V10.6393H21.1643V9.59473Z" fill="#FEE762"/>
<path d="M22.2102 9.59473H21.1641V10.6393H22.2102V9.59473Z" fill="#FEE762"/>
<path d="M19.072 8.5498H18.0259V9.59437H19.072V8.5498Z" fill="#FEE762"/>
<path d="M20.1179 8.5498H19.0718V9.59437H20.1179V8.5498Z" fill="#F9AF3C"/>
<path d="M21.1643 8.5498H20.1182V9.59437H21.1643V8.5498Z" fill="#FEE762"/>
<path d="M22.2102 8.5498H21.1641V9.59437H22.2102V8.5498Z" fill="#F9AF3C"/>
<path d="M19.072 7.50586H18.0259V8.55043H19.072V7.50586Z" fill="#FEE762"/>
<path d="M20.1179 7.50586H19.0718V8.55043H20.1179V7.50586Z" fill="#F9AF3C"/>
<path d="M21.1643 7.50586H20.1182V8.55043H21.1643V7.50586Z" fill="#F9AF3C"/>
<path d="M22.2102 7.50586H21.1641V8.55043H22.2102V7.50586Z" fill="#F9AF3C"/>
<path d="M19.072 6.46094H18.0259V7.5055H19.072V6.46094Z" fill="#F9AF3C"/>
<path d="M20.1179 6.46094H19.0718V7.5055H20.1179V6.46094Z" fill="#F9AF3C"/>
<path d="M21.1643 6.46094H20.1182V7.5055H21.1643V6.46094Z" fill="#EE8600"/>
<path d="M22.2102 6.46094H21.1641V7.5055H22.2102V6.46094Z" fill="#F9AF3C"/>
<path d="M19.072 5.41602H18.0259V6.46058H19.072V5.41602Z" fill="#F9AF3C"/>
<path d="M20.1179 5.41602H19.0718V6.46058H20.1179V5.41602Z" fill="#EE8600"/>
<path d="M21.1643 5.41602H20.1182V6.46058H21.1643V5.41602Z" fill="#EE8600"/>
<path d="M22.2102 5.41602H21.1641V6.46058H22.2102V5.41602Z" fill="#F9AF3C"/>
<path d="M19.072 4.37207H18.0259V5.41664H19.072V4.37207Z" fill="#EE8600"/>
<path d="M20.1179 4.37207H19.0718V5.41664H20.1179V4.37207Z" fill="#EE8600"/>
<path d="M21.1643 4.37207H20.1182V5.41664H21.1643V4.37207Z" fill="#EE8600"/>
<path d="M22.2102 4.37207H21.1641V5.41664H22.2102V4.37207Z" fill="#EE8600"/>
<path d="M19.072 3.32715H18.0259V4.37172H19.072V3.32715Z" fill="#440108"/>
<path d="M20.1179 3.32715H19.0718V4.37172H20.1179V3.32715Z" fill="#440108"/>
<path d="M21.1643 3.32715H20.1182V4.37172H21.1643V3.32715Z" fill="#440108"/>
<path d="M22.2102 3.32715H21.1641V4.37172H22.2102V3.32715Z" fill="#440108"/>
<path d="M21.1292 12.6631L22.1753 12.6631L22.1753 11.6253L21.1292 11.6253L21.1292 12.6631Z" fill="#440108"/>
<path d="M20.0828 12.6631L21.1289 12.6631L21.1289 11.6253L20.0828 11.6253L20.0828 12.6631Z" fill="#440108"/>
<path d="M19.0369 12.6631L20.083 12.6631L20.083 11.6253L19.0369 11.6253L19.0369 12.6631Z" fill="#440108"/>
<path d="M17.9905 12.6631L19.0366 12.6631L19.0366 11.6253L17.9905 11.6253L17.9905 12.6631Z" fill="#440108"/>
<path d="M21.1292 13.7012L22.1753 13.7012L22.1753 12.6634L21.1292 12.6634L21.1292 13.7012Z" fill="#EE8600"/>
<path d="M20.0828 13.7012L21.1289 13.7012L21.1289 12.6634L20.0828 12.6634L20.0828 13.7012Z" fill="#EE8600"/>
<path d="M19.0369 13.7012L20.083 13.7012L20.083 12.6634L19.0369 12.6634L19.0369 13.7012Z" fill="#EE8600"/>
<path d="M17.9905 13.7012L19.0366 13.7012L19.0366 12.6634L17.9905 12.6634L17.9905 13.7012Z" fill="#EE8600"/>
<path d="M21.1292 14.7393L22.1753 14.7393L22.1753 13.7015L21.1292 13.7015L21.1292 14.7393Z" fill="#EE8600"/>
<path d="M20.0828 14.7393L21.1289 14.7393L21.1289 13.7015L20.0828 13.7015L20.0828 14.7393Z" fill="#EE8600"/>
<path d="M19.0369 14.7393L20.083 14.7393L20.083 13.7015L19.0369 13.7015L19.0369 14.7393Z" fill="#EE8600"/>
<path d="M17.9905 14.7393L19.0366 14.7393L19.0366 13.7015L17.9905 13.7015L17.9905 14.7393Z" fill="#EE8600"/>
<path d="M21.1292 15.7764L22.1753 15.7764L22.1753 14.7386L21.1292 14.7386L21.1292 15.7764Z" fill="#EE8600"/>
<path d="M20.0828 15.7764L21.1289 15.7764L21.1289 14.7386L20.0828 14.7386L20.0828 15.7764Z" fill="#EE8600"/>
<path d="M19.0369 15.7764L20.083 15.7764L20.083 14.7386L19.0369 14.7386L19.0369 15.7764Z" fill="#EE8600"/>
<path d="M17.9905 15.7764L19.0366 15.7764L19.0366 14.7386L17.9905 14.7386L17.9905 15.7764Z" fill="#EE8600"/>
<path d="M21.1292 16.8145L22.1753 16.8145L22.1753 15.7767L21.1292 15.7767L21.1292 16.8145Z" fill="#EE8600"/>
<path d="M20.0828 16.8145L21.1289 16.8145L21.1289 15.7767L20.0828 15.7767L20.0828 16.8145Z" fill="#F9AF3C"/>
<path d="M19.0369 16.8145L20.083 16.8145L20.083 15.7767L19.0369 15.7767L19.0369 16.8145Z" fill="#EE8600"/>
<path d="M17.9905 16.8145L19.0366 16.8145L19.0366 15.7767L17.9905 15.7767L17.9905 16.8145Z" fill="#F9AF3C"/>
<path d="M21.1292 17.8525L22.1753 17.8525L22.1753 16.8148L21.1292 16.8148L21.1292 17.8525Z" fill="#EE8600"/>
<path d="M20.0828 17.8525L21.1289 17.8525L21.1289 16.8148L20.0828 16.8148L20.0828 17.8525Z" fill="#F9AF3C"/>
<path d="M19.0369 17.8525L20.083 17.8525L20.083 16.8148L19.0369 16.8148L19.0369 17.8525Z" fill="#F9AF3C"/>
<path d="M17.9905 17.8525L19.0366 17.8525L19.0366 16.8148L17.9905 16.8148L17.9905 17.8525Z" fill="#F9AF3C"/>
<path d="M21.1292 18.8906L22.1753 18.8906L22.1753 17.8528L21.1292 17.8528L21.1292 18.8906Z" fill="#F9AF3C"/>
<path d="M20.0828 18.8906L21.1289 18.8906L21.1289 17.8528L20.0828 17.8528L20.0828 18.8906Z" fill="#F9AF3C"/>
<path d="M19.0369 18.8906L20.083 18.8906L20.083 17.8528L19.0369 17.8528L19.0369 18.8906Z" fill="#F9AF3C"/>
<path d="M17.9905 18.8906L19.0366 18.8906L19.0366 17.8528L17.9905 17.8528L17.9905 18.8906Z" fill="#FEE762"/>
<path d="M21.1292 19.9277L22.1753 19.9277L22.1753 18.8899L21.1292 18.8899L21.1292 19.9277Z" fill="#F9AF3C"/>
<path d="M20.0828 19.9277L21.1289 19.9277L21.1289 18.8899L20.0828 18.8899L20.0828 19.9277Z" fill="#FEE762"/>
<path d="M19.0369 19.9277L20.083 19.9277L20.083 18.8899L19.0369 18.8899L19.0369 19.9277Z" fill="#F9AF3C"/>
<path d="M17.9905 19.9277L19.0366 19.9277L19.0366 18.8899L17.9905 18.8899L17.9905 19.9277Z" fill="#FEE762"/>
<path d="M21.1292 20.9658L22.1753 20.9658L22.1753 19.928L21.1292 19.928L21.1292 20.9658Z" fill="#FEE762"/>
<path d="M20.0828 20.9658L21.1289 20.9658L21.1289 19.928L20.0828 19.928L20.0828 20.9658Z" fill="#FEE762"/>
<path d="M19.0369 20.9658L20.083 20.9658L20.083 19.928L19.0369 19.928L19.0369 20.9658Z" fill="#FEE762"/>
<path d="M17.9905 20.9658L19.0366 20.9658L19.0366 19.928L17.9905 19.928L17.9905 20.9658Z" fill="#FEE762"/>
<path d="M21.1292 22.0039L22.1753 22.0039L22.1753 20.9661L21.1292 20.9661L21.1292 22.0039Z" fill="#FEE762"/>
<path d="M20.0828 22.0039L21.1289 22.0039L21.1289 20.9661L20.0828 20.9661L20.0828 22.0039Z" fill="#FEE762"/>
<path d="M19.0369 22.0039L20.083 22.0039L20.083 20.9661L19.0369 20.9661L19.0369 22.0039Z" fill="#FEE762"/>
<path d="M17.9905 22.0039L19.0366 22.0039L19.0366 20.9661L17.9905 20.9661L17.9905 22.0039Z" fill="#FEE762"/>
<path d="M21.1292 23.041L22.1753 23.041L22.1753 22.0032L21.1292 22.0032L21.1292 23.041Z" fill="#FEE762"/>
<path d="M20.0828 23.041L21.1289 23.041L21.1289 22.0032L20.0828 22.0032L20.0828 23.041Z" fill="#FEE762"/>
<path d="M19.0369 23.041L20.083 23.041L20.083 22.0032L19.0369 22.0032L19.0369 23.041Z" fill="#FEE762"/>
<path d="M17.9905 23.041L19.0366 23.041L19.0366 22.0032L17.9905 22.0032L17.9905 23.041Z" fill="#FEE762"/>
<path d="M21.1292 24.0791L22.1753 24.0791L22.1753 23.0413L21.1292 23.0413L21.1292 24.0791Z" fill="#FEE762"/>
<path d="M20.0828 24.0791L21.1289 24.0791L21.1289 23.0413L20.0828 23.0413L20.0828 24.0791Z" fill="#FEE762"/>
<path d="M19.0369 24.0791L20.083 24.0791L20.083 23.0413L19.0369 23.0413L19.0369 24.0791Z" fill="#FEE762"/>
<path d="M17.9905 24.0791L19.0366 24.0791L19.0366 23.0413L17.9905 23.0413L17.9905 24.0791Z" fill="#FEE762"/>
<path d="M21.1292 25.1172L22.1753 25.1172L22.1753 24.0794L21.1292 24.0794L21.1292 25.1172Z" fill="#FEE762"/>
<path d="M20.0828 25.1172L21.1289 25.1172L21.1289 24.0794L20.0828 24.0794L20.0828 25.1172Z" fill="#F9AF3C"/>
<path d="M19.0369 25.1172L20.083 25.1172L20.083 24.0794L19.0369 24.0794L19.0369 25.1172Z" fill="#FEE762"/>
<path d="M17.9905 25.1172L19.0366 25.1172L19.0366 24.0794L17.9905 24.0794L17.9905 25.1172Z" fill="#F9AF3C"/>
<path d="M21.1292 26.1543L22.1753 26.1543L22.1753 25.1165L21.1292 25.1165L21.1292 26.1543Z" fill="#FEE762"/>
<path d="M20.0828 26.1543L21.1289 26.1543L21.1289 25.1165L20.0828 25.1165L20.0828 26.1543Z" fill="#F9AF3C"/>
<path d="M19.0369 26.1543L20.083 26.1543L20.083 25.1165L19.0369 25.1165L19.0369 26.1543Z" fill="#F9AF3C"/>
<path d="M17.9905 26.1543L19.0366 26.1543L19.0366 25.1165L17.9905 25.1165L17.9905 26.1543Z" fill="#F9AF3C"/>
<path d="M21.1292 27.1924L22.1753 27.1924L22.1753 26.1546L21.1292 26.1546L21.1292 27.1924Z" fill="#F9AF3C"/>
<path d="M20.0828 27.1924L21.1289 27.1924L21.1289 26.1546L20.0828 26.1546L20.0828 27.1924Z" fill="#F9AF3C"/>
<path d="M19.0369 27.1924L20.083 27.1924L20.083 26.1546L19.0369 26.1546L19.0369 27.1924Z" fill="#EE8600"/>
<path d="M17.9905 27.1924L19.0366 27.1924L19.0366 26.1546L17.9905 26.1546L17.9905 27.1924Z" fill="#F9AF3C"/>
<path d="M21.1292 28.2305L22.1753 28.2305L22.1753 27.1927L21.1292 27.1927L21.1292 28.2305Z" fill="#F9AF3C"/>
<path d="M20.0828 28.2305L21.1289 28.2305L21.1289 27.1927L20.0828 27.1927L20.0828 28.2305Z" fill="#EE8600"/>
<path d="M19.0369 28.2305L20.083 28.2305L20.083 27.1927L19.0369 27.1927L19.0369 28.2305Z" fill="#EE8600"/>
<path d="M17.9905 28.2305L19.0366 28.2305L19.0366 27.1927L17.9905 27.1927L17.9905 28.2305Z" fill="#F9AF3C"/>
<path d="M21.1292 29.2686L22.1753 29.2686L22.1753 28.2308L21.1292 28.2308L21.1292 29.2686Z" fill="#EE8600"/>
<path d="M20.0828 29.2686L21.1289 29.2686L21.1289 28.2308L20.0828 28.2308L20.0828 29.2686Z" fill="#EE8600"/>
<path d="M19.0369 29.2686L20.083 29.2686L20.083 28.2308L19.0369 28.2308L19.0369 29.2686Z" fill="#EE8600"/>
<path d="M17.9905 29.2686L19.0366 29.2686L19.0366 28.2308L17.9905 28.2308L17.9905 29.2686Z" fill="#EE8600"/>
<path d="M21.1292 30.3057L22.1753 30.3057L22.1753 29.2679L21.1292 29.2679L21.1292 30.3057Z" fill="#440108"/>
<path d="M20.0828 30.3057L21.1289 30.3057L21.1289 29.2679L20.0828 29.2679L20.0828 30.3057Z" fill="#440108"/>
<path d="M19.0369 30.3057L20.083 30.3057L20.083 29.2679L19.0369 29.2679L19.0369 30.3057Z" fill="#440108"/>
<path d="M17.9905 30.3057L19.0366 30.3057L19.0366 29.2679L17.9905 29.2679L17.9905 30.3057Z" fill="#440108"/>
<rect width="10.8621" height="11.3963" transform="translate(14.6084 11.1758)" fill="#B25900"/>
<path d="M24.3293 12.4209H15.7588V21.3808H24.3293V12.4209Z" fill="#FFCE00"/>
<path d="M16.9112 20.4912H16.062V21.388H16.9112V20.4912Z" fill="#F6B210"/>
<path d="M23.55 12.4209V13.3176H22.7013V14.2144H21.8524V15.1111H21.0035V16.0079H20.1545V16.9043H19.3056V17.8011H18.4567V18.6978H17.6077V19.5946H16.7588V20.4916V21.3883H17.6077H18.4567H19.3056H20.1545H21.0035H21.8524H22.7013H23.55H24.3992V20.4916V19.5946V18.6978V17.8011V16.9043V16.0079V15.1111V14.2144V13.3176V12.4209H23.55Z" fill="#F6B210"/>
<path d="M16.1218 12.6035H15.3071V13.4347H16.1218V12.6035Z" fill="#B57A4A"/>
<path d="M16.1218 11.9844H15.3071V13.4344H16.1218V11.9844Z" fill="#B25900"/>
<path d="M16.8796 11.8779H16.0649V12.7088H16.8796V11.8779Z" fill="#B25900"/>
<path d="M24.7624 11.9316H23.9478V13.3808H24.7624V11.9316Z" fill="#B25900"/>
<path d="M24.0044 11.8252H23.1895V12.6561H24.0044V11.8252Z" fill="#B25900"/>
<path d="M16.1305 20.3125H15.3159V21.762H16.1305V20.3125Z" fill="#B25900"/>
<path d="M16.8886 21.0381H16.0737V21.8689H16.8886V21.0381Z" fill="#B25900"/>
<path d="M24.7717 20.3662H23.957V21.8154H24.7717V20.3662Z" fill="#B25900"/>
<path d="M24.0136 21.0908H23.1987V21.9223H24.0136V21.0908Z" fill="#B25900"/>
<path d="M17.6064 15.6363V14.8101H18.4182V15.6377L17.6064 15.6363ZM19.2311 18.9515V17.2948H20.0441V16.4657H20.8555V14.8101H18.4182V13.9795H21.6687V14.8101H22.4817V16.4671H21.6687V17.2962H20.8555V18.953L19.2311 18.9515ZM19.2311 20.6086V19.7809H20.8555V20.6086H19.2311Z" fill="#5B3311"/>
</svg>
