<svg width="39" height="33" viewBox="0 0 39 33" fill="none" xmlns="http://www.w3.org/2000/svg">
<g clip-path="url(#clip0_1056_100748)">
<path d="M36.7024 29.9121H35.4097V31.2101H36.7024V29.9121Z" fill="#F9ED19"/>
<path d="M36.7024 28.6133H35.4097V29.9113H36.7024V28.6133Z" fill="#F9ED19"/>
<path d="M36.7024 27.3145H35.4097V28.6125H36.7024V27.3145Z" fill="#F9ED19"/>
<path d="M36.7024 18.2285H35.4097V19.5265H36.7024V18.2285Z" fill="#F9ED19"/>
<path d="M36.7024 16.9307H35.4097V18.2287H36.7024V16.9307Z" fill="#F9ED19"/>
<path d="M36.7024 15.6328H35.4097V16.9308H36.7024V15.6328Z" fill="#FFF9C5"/>
<path d="M35.4094 29.9121H34.1167V31.2101H35.4094V29.9121Z" fill="#F9ED19"/>
<path d="M35.4094 28.6133H34.1167V29.9113H35.4094V28.6133Z" fill="#F4921E"/>
<path d="M35.4094 27.3145H34.1167V28.6125H35.4094V27.3145Z" fill="#F4921E"/>
<path d="M35.4094 26.0176H34.1167V27.3156H35.4094V26.0176Z" fill="#664929"/>
<path d="M35.4094 24.7197H34.1167V26.0178H35.4094V24.7197Z" fill="#7A572D"/>
<path d="M35.4094 23.4209H34.1167V24.7189H35.4094V23.4209Z" fill="#664929"/>
<path d="M35.4094 22.123H34.1167V23.4211H35.4094V22.123Z" fill="#493017"/>
<path d="M35.4094 20.8252H34.1167V22.1232H35.4094V20.8252Z" fill="#7A572D"/>
<path d="M35.4094 19.5264H34.1167V20.8244H35.4094V19.5264Z" fill="#664929"/>
<path d="M35.4094 18.2285H34.1167V19.5265H35.4094V18.2285Z" fill="#F4921E"/>
<path d="M35.4094 16.9307H34.1167V18.2287H35.4094V16.9307Z" fill="#F4921E"/>
<path d="M35.4094 15.6328H34.1167V16.9308H35.4094V15.6328Z" fill="#F9ED19"/>
<path d="M35.4094 14.334H34.1167V15.632H35.4094V14.334Z" fill="#D3771C"/>
<path d="M35.4094 13.0361H34.1167V14.3342H35.4094V13.0361Z" fill="#F9ED19"/>
<path d="M35.4094 11.7383H34.1167V13.0363H35.4094V11.7383Z" fill="#F9ED19"/>
<path d="M35.4094 10.4404H34.1167V11.7385H35.4094V10.4404Z" fill="#FFF9C5"/>
<path d="M34.1169 29.9121H32.8242V31.2101H34.1169V29.9121Z" fill="#F9ED19"/>
<path d="M34.1169 28.6133H32.8242V29.9113H34.1169V28.6133Z" fill="#F4921E"/>
<path d="M34.1169 27.3145H32.8242V28.6125H34.1169V27.3145Z" fill="#35210F"/>
<path d="M34.1169 26.0176H32.8242V27.3156H34.1169V26.0176Z" fill="#664929"/>
<path d="M34.1169 24.7197H32.8242V26.0178H34.1169V24.7197Z" fill="#664929"/>
<path d="M34.1169 23.4209H32.8242V24.7189H34.1169V23.4209Z" fill="#7A572D"/>
<path d="M34.1169 22.123H32.8242V23.4211H34.1169V22.123Z" fill="#493017"/>
<path d="M34.1169 20.8252H32.8242V22.1232H34.1169V20.8252Z" fill="#7A572D"/>
<path d="M34.1169 19.5264H32.8242V20.8244H34.1169V19.5264Z" fill="#7A572D"/>
<path d="M34.1169 18.2285H32.8242V19.5265H34.1169V18.2285Z" fill="#664929"/>
<path d="M34.1169 16.9307H32.8242V18.2287H34.1169V16.9307Z" fill="#493017"/>
<path d="M34.1169 15.6328H32.8242V16.9308H34.1169V15.6328Z" fill="#F4921E"/>
<path d="M34.1169 14.334H32.8242V15.632H34.1169V14.334Z" fill="#D3771C"/>
<path d="M34.1169 13.0361H32.8242V14.3342H34.1169V13.0361Z" fill="#F4921E"/>
<path d="M34.1169 11.7383H32.8242V13.0363H34.1169V11.7383Z" fill="#F4921E"/>
<path d="M34.1169 10.4404H32.8242V11.7385H34.1169V10.4404Z" fill="#F4921E"/>
<path d="M34.1169 9.1416H32.8242V10.4396H34.1169V9.1416Z" fill="#F9ED19"/>
<path d="M34.1169 7.84375H32.8242V9.14178H34.1169V7.84375Z" fill="#F9ED19"/>
<path d="M34.1169 6.5459H32.8242V7.84393H34.1169V6.5459Z" fill="#FFF9C5"/>
<path d="M32.824 22.123H31.5312V23.4211H32.824V22.123Z" fill="#493017"/>
<path d="M32.824 20.8252H31.5312V22.1232H32.824V20.8252Z" fill="#7A572D"/>
<path d="M32.824 19.5264H31.5312V20.8244H32.824V19.5264Z" fill="#7A572D"/>
<path d="M32.824 18.2285H31.5312V19.5265H32.824V18.2285Z" fill="#664929"/>
<path d="M32.824 16.9307H31.5312V18.2287H32.824V16.9307Z" fill="#493017"/>
<path d="M32.824 15.6328H31.5312V16.9308H32.824V15.6328Z" fill="#7A572D"/>
<path d="M32.824 14.334H31.5312V15.632H32.824V14.334Z" fill="#7A572D"/>
<path d="M32.824 13.0361H31.5312V14.3342H32.824V13.0361Z" fill="#7A572D"/>
<path d="M32.824 11.7383H31.5312V13.0363H32.824V11.7383Z" fill="#7A572D"/>
<path d="M32.824 10.4404H31.5312V11.7385H32.824V10.4404Z" fill="#493017"/>
<path d="M32.824 9.1416H31.5312V10.4396H32.824V9.1416Z" fill="#F4921E"/>
<path d="M32.824 7.84375H31.5312V9.14178H32.824V7.84375Z" fill="#F4921E"/>
<path d="M32.824 6.5459H31.5312V7.84393H32.824V6.5459Z" fill="#F4921E"/>
<path d="M32.824 5.24707H31.5312V6.5451H32.824V5.24707Z" fill="#FFF9C5"/>
<path d="M32.824 23.4209H31.5312V24.7189H32.824V23.4209Z" fill="#664929"/>
<path d="M32.824 24.7197H31.5312V26.0178H32.824V24.7197Z" fill="#7A572D"/>
<path d="M32.824 26.0176H31.5312V27.3156H32.824V26.0176Z" fill="#664929"/>
<path d="M32.824 27.3145H31.5312V28.6125H32.824V27.3145Z" fill="#35210F"/>
<path d="M32.824 28.6133H31.5312V29.9113H32.824V28.6133Z" fill="#563D23"/>
<path d="M32.824 29.9121H31.5312V31.2101H32.824V29.9121Z" fill="#F4921E"/>
<path d="M31.5315 22.123H30.2388V23.4211H31.5315V22.123Z" fill="#493017"/>
<path d="M31.5315 20.8252H30.2388V22.1232H31.5315V20.8252Z" fill="#7A572D"/>
<path d="M31.5315 19.5264H30.2388V20.8244H31.5315V19.5264Z" fill="#7A572D"/>
<path d="M31.5315 18.2285H30.2388V19.5265H31.5315V18.2285Z" fill="#664929"/>
<path d="M31.5315 16.9307H30.2388V18.2287H31.5315V16.9307Z" fill="#493017"/>
<path d="M31.5315 15.6328H30.2388V16.9308H31.5315V15.6328Z" fill="#7A572D"/>
<path d="M31.5315 14.334H30.2388V15.632H31.5315V14.334Z" fill="#7A572D"/>
<path d="M31.5315 13.0361H30.2388V14.3342H31.5315V13.0361Z" fill="#7A572D"/>
<path d="M31.5315 11.7383H30.2388V13.0363H31.5315V11.7383Z" fill="#7A572D"/>
<path d="M31.5315 10.4404H30.2388V11.7385H31.5315V10.4404Z" fill="#493017"/>
<path d="M31.5315 9.1416H30.2388V10.4396H31.5315V9.1416Z" fill="#7A572D"/>
<path d="M31.5315 7.84375H30.2388V9.14178H31.5315V7.84375Z" fill="#8E683F"/>
<path d="M31.5315 6.5459H30.2388V7.84393H31.5315V6.5459Z" fill="#5B3D22"/>
<path d="M31.5315 5.24707H30.2388V6.5451H31.5315V5.24707Z" fill="#F4921E"/>
<path d="M31.5315 3.94922H30.2388V5.24725H31.5315V3.94922Z" fill="#FFF9C5"/>
<path d="M31.5315 29.9121H30.2388V31.2101H31.5315V29.9121Z" fill="#563D23"/>
<path d="M30.2385 29.9121H28.9458V31.2101H30.2385V29.9121Z" fill="#563D23"/>
<path d="M31.5315 28.6133H30.2388V29.9113H31.5315V28.6133Z" fill="#563D23"/>
<path d="M30.2385 28.6133H28.9458V29.9113H30.2385V28.6133Z" fill="#563D23"/>
<path d="M31.5315 27.3145H30.2388V28.6125H31.5315V27.3145Z" fill="#35210F"/>
<path d="M30.2385 27.3145H28.9458V28.6125H30.2385V27.3145Z" fill="#35210F"/>
<path d="M31.5315 26.0176H30.2388V27.3156H31.5315V26.0176Z" fill="#664929"/>
<path d="M30.2385 26.0176H28.9458V27.3156H30.2385V26.0176Z" fill="#664929"/>
<path d="M31.5315 24.7197H30.2388V26.0178H31.5315V24.7197Z" fill="#664929"/>
<path d="M30.2385 24.7197H28.9458V26.0178H30.2385V24.7197Z" fill="#7A572D"/>
<path d="M31.5315 23.4209H30.2388V24.7189H31.5315V23.4209Z" fill="#7A572D"/>
<path d="M30.2385 23.4209H28.9458V24.7189H30.2385V23.4209Z" fill="#664929"/>
<path d="M30.2385 22.123H28.9458V23.4211H30.2385V22.123Z" fill="#493017"/>
<path d="M30.2385 20.8252H28.9458V22.1232H30.2385V20.8252Z" fill="#7A572D"/>
<path d="M30.2385 19.5264H28.9458V20.8244H30.2385V19.5264Z" fill="#7A572D"/>
<path d="M30.2385 18.2285H28.9458V19.5265H30.2385V18.2285Z" fill="#664929"/>
<path d="M30.2385 16.9307H28.9458V18.2287H30.2385V16.9307Z" fill="#493017"/>
<path d="M30.2385 15.6328H28.9458V16.9308H30.2385V15.6328Z" fill="#7A572D"/>
<path d="M30.2385 14.334H28.9458V15.632H30.2385V14.334Z" fill="#7A572D"/>
<path d="M30.2385 13.0361H28.9458V14.3342H30.2385V13.0361Z" fill="#7A572D"/>
<path d="M30.2385 11.7383H28.9458V13.0363H30.2385V11.7383Z" fill="#7A572D"/>
<path d="M30.2385 10.4404H28.9458V11.7385H30.2385V10.4404Z" fill="#493017"/>
<path d="M30.2385 9.1416H28.9458V10.4396H30.2385V9.1416Z" fill="#8E683F"/>
<path d="M30.2385 7.84375H28.9458V9.14178H30.2385V7.84375Z" fill="#7A572D"/>
<path d="M30.2385 6.5459H28.9458V7.84393H30.2385V6.5459Z" fill="#5B3D22"/>
<path d="M30.2385 5.24707H28.9458V6.5451H30.2385V5.24707Z" fill="#8E683F"/>
<path d="M30.2385 3.94922H28.9458V5.24725H30.2385V3.94922Z" fill="#F4921E"/>
<path d="M28.946 29.9121H27.6533V31.2101H28.946V29.9121Z" fill="#563D23"/>
<path d="M28.946 28.6133H27.6533V29.9113H28.946V28.6133Z" fill="#563D23"/>
<path d="M28.946 27.3145H27.6533V28.6125H28.946V27.3145Z" fill="#35210F"/>
<path d="M28.946 26.0176H27.6533V27.3156H28.946V26.0176Z" fill="#664929"/>
<path d="M28.946 24.7197H27.6533V26.0178H28.946V24.7197Z" fill="#664929"/>
<path d="M28.946 23.4209H27.6533V24.7189H28.946V23.4209Z" fill="#7A572D"/>
<path d="M28.946 22.123H27.6533V23.4211H28.946V22.123Z" fill="#493017"/>
<path d="M28.946 20.8252H27.6533V22.1232H28.946V20.8252Z" fill="#7A572D"/>
<path d="M28.946 19.5264H27.6533V20.8244H28.946V19.5264Z" fill="#7A572D"/>
<path d="M28.946 18.2285H27.6533V19.5265H28.946V18.2285Z" fill="#664929"/>
<path d="M28.946 16.9307H27.6533V18.2287H28.946V16.9307Z" fill="#493017"/>
<path d="M28.946 15.6328H27.6533V16.9308H28.946V15.6328Z" fill="#7A572D"/>
<path d="M28.946 14.334H27.6533V15.632H28.946V14.334Z" fill="#7A572D"/>
<path d="M28.946 13.0361H27.6533V14.3342H28.946V13.0361Z" fill="#7A572D"/>
<path d="M28.946 11.7383H27.6533V13.0363H28.946V11.7383Z" fill="#7A572D"/>
<path d="M28.946 10.4404H27.6533V11.7385H28.946V10.4404Z" fill="#493017"/>
<path d="M28.946 9.1416H27.6533V10.4396H28.946V9.1416Z" fill="#7A572D"/>
<path d="M28.946 7.84375H27.6533V9.14178H28.946V7.84375Z" fill="#8E683F"/>
<path d="M28.946 6.5459H27.6533V7.84393H28.946V6.5459Z" fill="#5B3D22"/>
<path d="M28.946 5.24707H27.6533V6.5451H28.946V5.24707Z" fill="#8E683F"/>
<path d="M28.946 3.94922H27.6533V5.24725H28.946V3.94922Z" fill="#8E683F"/>
<path d="M27.6521 29.9121H26.3594V31.2101H27.6521V29.9121Z" fill="#563D23"/>
<path d="M27.6521 28.6133H26.3594V29.9113H27.6521V28.6133Z" fill="#563D23"/>
<path d="M27.6521 27.3145H26.3594V28.6125H27.6521V27.3145Z" fill="#35210F"/>
<path d="M27.6521 26.0176H26.3594V27.3156H27.6521V26.0176Z" fill="#664929"/>
<path d="M27.6521 24.7197H26.3594V26.0178H27.6521V24.7197Z" fill="#7A572D"/>
<path d="M27.6521 23.4209H26.3594V24.7189H27.6521V23.4209Z" fill="#664929"/>
<path d="M27.6521 22.123H26.3594V23.4211H27.6521V22.123Z" fill="#493017"/>
<path d="M27.6521 20.8252H26.3594V22.1232H27.6521V20.8252Z" fill="#7A572D"/>
<path d="M27.6521 19.5264H26.3594V20.8244H27.6521V19.5264Z" fill="#7A572D"/>
<path d="M27.6521 18.2285H26.3594V19.5265H27.6521V18.2285Z" fill="#664929"/>
<path d="M27.6521 16.9307H26.3594V18.2287H27.6521V16.9307Z" fill="#493017"/>
<path d="M27.6521 15.6328H26.3594V16.9308H27.6521V15.6328Z" fill="#7A572D"/>
<path d="M27.6521 14.334H26.3594V15.632H27.6521V14.334Z" fill="#7A572D"/>
<path d="M27.6521 13.0361H26.3594V14.3342H27.6521V13.0361Z" fill="#7A572D"/>
<path d="M27.6521 11.7383H26.3594V13.0363H27.6521V11.7383Z" fill="#7A572D"/>
<path d="M27.6521 10.4404H26.3594V11.7385H27.6521V10.4404Z" fill="#493017"/>
<path d="M27.6521 9.1416H26.3594V10.4396H27.6521V9.1416Z" fill="#8E683F"/>
<path d="M27.6521 7.84375H26.3594V9.14178H27.6521V7.84375Z" fill="#7A572D"/>
<path d="M27.6521 6.5459H26.3594V7.84393H27.6521V6.5459Z" fill="#5B3D22"/>
<path d="M27.6521 5.24707H26.3594V6.5451H27.6521V5.24707Z" fill="#8E683F"/>
<path d="M27.6521 3.94922H26.3594V5.24725H27.6521V3.94922Z" fill="#8E683F"/>
<path d="M27.6521 2.65137H26.3594V3.9494H27.6521V2.65137Z" fill="#5B3D22"/>
<path d="M26.3596 29.9121H25.0669V31.2101H26.3596V29.9121Z" fill="#563D23"/>
<path d="M26.3596 28.6133H25.0669V29.9113H26.3596V28.6133Z" fill="#563D23"/>
<path d="M26.3596 27.3145H25.0669V28.6125H26.3596V27.3145Z" fill="#35210F"/>
<path d="M26.3596 26.0176H25.0669V27.3156H26.3596V26.0176Z" fill="#664929"/>
<path d="M26.3596 24.7197H25.0669V26.0178H26.3596V24.7197Z" fill="#664929"/>
<path d="M26.3596 23.4209H25.0669V24.7189H26.3596V23.4209Z" fill="#7A572D"/>
<path d="M26.3596 22.123H25.0669V23.4211H26.3596V22.123Z" fill="#493017"/>
<path d="M26.3596 20.8252H25.0669V22.1232H26.3596V20.8252Z" fill="#7A572D"/>
<path d="M26.3596 19.5264H25.0669V20.8244H26.3596V19.5264Z" fill="#7A572D"/>
<path d="M26.3596 18.2285H25.0669V19.5265H26.3596V18.2285Z" fill="#664929"/>
<path d="M26.3596 16.9307H25.0669V18.2287H26.3596V16.9307Z" fill="#493017"/>
<path d="M26.3596 15.6328H25.0669V16.9308H26.3596V15.6328Z" fill="#7A572D"/>
<path d="M26.3596 14.334H25.0669V15.632H26.3596V14.334Z" fill="#7A572D"/>
<path d="M26.3596 13.0361H25.0669V14.3342H26.3596V13.0361Z" fill="#7A572D"/>
<path d="M26.3596 11.7383H25.0669V13.0363H26.3596V11.7383Z" fill="#7A572D"/>
<path d="M26.3596 10.4404H25.0669V11.7385H26.3596V10.4404Z" fill="#493017"/>
<path d="M26.3596 9.1416H25.0669V10.4396H26.3596V9.1416Z" fill="#7A572D"/>
<path d="M26.3596 7.84375H25.0669V9.14178H26.3596V7.84375Z" fill="#8E683F"/>
<path d="M26.3596 6.5459H25.0669V7.84393H26.3596V6.5459Z" fill="#5B3D22"/>
<path d="M26.3596 5.24707H25.0669V6.5451H26.3596V5.24707Z" fill="#8E683F"/>
<path d="M26.3596 3.94922H25.0669V5.24725H26.3596V3.94922Z" fill="#8E683F"/>
<path d="M26.3596 2.65137H25.0669V3.9494H26.3596V2.65137Z" fill="#5B3D22"/>
<path d="M25.0681 29.9121H23.7754V31.2101H25.0681V29.9121Z" fill="#563D23"/>
<path d="M25.0681 28.6133H23.7754V29.9113H25.0681V28.6133Z" fill="#563D23"/>
<path d="M25.0681 27.3145H23.7754V28.6125H25.0681V27.3145Z" fill="#35210F"/>
<path d="M25.0681 26.0176H23.7754V27.3156H25.0681V26.0176Z" fill="#664929"/>
<path d="M25.0681 24.7197H23.7754V26.0178H25.0681V24.7197Z" fill="#7A572D"/>
<path d="M25.0681 23.4209H23.7754V24.7189H25.0681V23.4209Z" fill="#664929"/>
<path d="M25.0681 22.123H23.7754V23.4211H25.0681V22.123Z" fill="#493017"/>
<path d="M25.0681 20.8252H23.7754V22.1232H25.0681V20.8252Z" fill="#7A572D"/>
<path d="M25.0681 19.5264H23.7754V20.8244H25.0681V19.5264Z" fill="#7A572D"/>
<path d="M25.0681 18.2285H23.7754V19.5265H25.0681V18.2285Z" fill="#664929"/>
<path d="M25.0681 16.9307H23.7754V18.2287H25.0681V16.9307Z" fill="#493017"/>
<path d="M25.0681 15.6328H23.7754V16.9308H25.0681V15.6328Z" fill="#664929"/>
<path d="M25.0681 14.334H23.7754V15.632H25.0681V14.334Z" fill="#664929"/>
<path d="M25.0681 13.0361H23.7754V14.3342H25.0681V13.0361Z" fill="#664929"/>
<path d="M25.0681 11.7383H23.7754V13.0363H25.0681V11.7383Z" fill="#7A572D"/>
<path d="M25.0681 10.4404H23.7754V11.7385H25.0681V10.4404Z" fill="#493017"/>
<path d="M25.0681 9.1416H23.7754V10.4396H25.0681V9.1416Z" fill="#8E683F"/>
<path d="M25.0681 7.84375H23.7754V9.14178H25.0681V7.84375Z" fill="#7A572D"/>
<path d="M25.0681 6.5459H23.7754V7.84393H25.0681V6.5459Z" fill="#5B3D22"/>
<path d="M25.0681 5.24707H23.7754V6.5451H25.0681V5.24707Z" fill="#8E683F"/>
<path d="M25.0681 3.94922H23.7754V5.24725H25.0681V3.94922Z" fill="#8E683F"/>
<path d="M25.0681 2.65137H23.7754V3.9494H25.0681V2.65137Z" fill="#5B3D22"/>
<path d="M23.7742 29.9121H22.4814V31.2101H23.7742V29.9121Z" fill="#563D23"/>
<path d="M23.7742 28.6133H22.4814V29.9113H23.7742V28.6133Z" fill="#563D23"/>
<path d="M23.7742 27.3145H22.4814V28.6125H23.7742V27.3145Z" fill="#35210F"/>
<path d="M23.7742 26.0176H22.4814V27.3156H23.7742V26.0176Z" fill="#664929"/>
<path d="M23.7742 24.7197H22.4814V26.0178H23.7742V24.7197Z" fill="#664929"/>
<path d="M23.7742 23.4209H22.4814V24.7189H23.7742V23.4209Z" fill="#7A572D"/>
<path d="M23.7742 22.123H22.4814V23.4211H23.7742V22.123Z" fill="#493017"/>
<path d="M23.7742 20.8252H22.4814V22.1232H23.7742V20.8252Z" fill="#7A572D"/>
<path d="M23.7742 19.5264H22.4814V20.8244H23.7742V19.5264Z" fill="#7A572D"/>
<path d="M23.7742 18.2285H22.4814V19.5265H23.7742V18.2285Z" fill="#664929"/>
<path d="M23.7742 16.9307H22.4814V18.2287H23.7742V16.9307Z" fill="#493017"/>
<path d="M23.7742 15.6328H22.4814V16.9308H23.7742V15.6328Z" fill="#F4921E"/>
<path d="M23.7742 14.334H22.4814V15.632H23.7742V14.334Z" fill="#F4921E"/>
<path d="M23.7742 13.0361H22.4814V14.3342H23.7742V13.0361Z" fill="#F4921E"/>
<path d="M23.7742 11.7383H22.4814V13.0363H23.7742V11.7383Z" fill="#664929"/>
<path d="M23.7742 10.4404H22.4814V11.7385H23.7742V10.4404Z" fill="#493017"/>
<path d="M23.7742 9.1416H22.4814V10.4396H23.7742V9.1416Z" fill="#7A572D"/>
<path d="M23.7742 7.84375H22.4814V9.14178H23.7742V7.84375Z" fill="#8E683F"/>
<path d="M23.7742 6.5459H22.4814V7.84393H23.7742V6.5459Z" fill="#5B3D22"/>
<path d="M23.7742 5.24707H22.4814V6.5451H23.7742V5.24707Z" fill="#8E683F"/>
<path d="M23.7742 3.94922H22.4814V5.24725H23.7742V3.94922Z" fill="#8E683F"/>
<path d="M23.7742 2.65137H22.4814V3.9494H23.7742V2.65137Z" fill="#5B3D22"/>
<path d="M22.4817 29.9121H21.189V31.2101H22.4817V29.9121Z" fill="#563D23"/>
<path d="M22.4817 28.6133H21.189V29.9113H22.4817V28.6133Z" fill="#563D23"/>
<path d="M22.4817 27.3145H21.189V28.6125H22.4817V27.3145Z" fill="#35210F"/>
<path d="M22.4817 26.0176H21.189V27.3156H22.4817V26.0176Z" fill="#664929"/>
<path d="M22.4817 24.7197H21.189V26.0178H22.4817V24.7197Z" fill="#7A572D"/>
<path d="M22.4817 23.4209H21.189V24.7189H22.4817V23.4209Z" fill="#664929"/>
<path d="M22.4817 22.123H21.189V23.4211H22.4817V22.123Z" fill="#493017"/>
<path d="M22.4817 20.8252H21.189V22.1232H22.4817V20.8252Z" fill="#7A572D"/>
<path d="M22.4817 19.5264H21.189V20.8244H22.4817V19.5264Z" fill="#664929"/>
<path d="M22.4817 18.2285H21.189V19.5265H22.4817V18.2285Z" fill="#F4921E"/>
<path d="M22.4817 16.9307H21.189V18.2287H22.4817V16.9307Z" fill="#F4921E"/>
<path d="M22.4817 15.6328H21.189V16.9308H22.4817V15.6328Z" fill="#F7BE1C"/>
<path d="M22.4817 14.334H21.189V15.632H22.4817V14.334Z" fill="#F7BE1C"/>
<path d="M22.4817 13.0361H21.189V14.3342H22.4817V13.0361Z" fill="#F7BE1C"/>
<path d="M22.4817 11.7383H21.189V13.0363H22.4817V11.7383Z" fill="#F4921E"/>
<path d="M22.4817 10.4404H21.189V11.7385H22.4817V10.4404Z" fill="#382311"/>
<path d="M22.4817 9.1416H21.189V10.4396H22.4817V9.1416Z" fill="#8E683F"/>
<path d="M22.4817 7.84375H21.189V9.14178H22.4817V7.84375Z" fill="#7A572D"/>
<path d="M22.4817 6.5459H21.189V7.84393H22.4817V6.5459Z" fill="#5B3D22"/>
<path d="M22.4817 5.24707H21.189V6.5451H22.4817V5.24707Z" fill="#8E683F"/>
<path d="M22.4817 3.94922H21.189V5.24725H22.4817V3.94922Z" fill="#8E683F"/>
<path d="M22.4817 2.65137H21.189V3.9494H22.4817V2.65137Z" fill="#5B3D22"/>
<path d="M21.1887 29.9121H19.896V31.2101H21.1887V29.9121Z" fill="#563D23"/>
<path d="M21.1887 28.6133H19.896V29.9113H21.1887V28.6133Z" fill="#563D23"/>
<path d="M21.1887 27.3145H19.896V28.6125H21.1887V27.3145Z" fill="#35210F"/>
<path d="M21.1887 26.0176H19.896V27.3156H21.1887V26.0176Z" fill="#664929"/>
<path d="M21.1887 24.7197H19.896V26.0178H21.1887V24.7197Z" fill="#664929"/>
<path d="M21.1887 23.4209H19.896V24.7189H21.1887V23.4209Z" fill="#7A572D"/>
<path d="M21.1887 22.123H19.896V23.4211H21.1887V22.123Z" fill="#493017"/>
<path d="M21.1887 20.8252H19.896V22.1232H21.1887V20.8252Z" fill="#7A572D"/>
<path d="M21.1887 19.5264H19.896V20.8244H21.1887V19.5264Z" fill="#664929"/>
<path d="M21.1887 18.2285H19.896V19.5265H21.1887V18.2285Z" fill="#F4921E"/>
<path d="M21.1887 16.9307H19.896V18.2287H21.1887V16.9307Z" fill="#F7BE1C"/>
<path d="M21.1887 15.6328H19.896V16.9308H21.1887V15.6328Z" fill="#F9ED19"/>
<path d="M21.1887 14.334H19.896V15.632H21.1887V14.334Z" fill="#F9ED19"/>
<path d="M21.1887 13.0361H19.896V14.3342H21.1887V13.0361Z" fill="#F9ED19"/>
<path d="M21.1887 11.7383H19.896V13.0363H21.1887V11.7383Z" fill="#F4921E"/>
<path d="M21.1887 10.4404H19.896V11.7385H21.1887V10.4404Z" fill="#382311"/>
<path d="M21.1887 9.1416H19.896V10.4396H21.1887V9.1416Z" fill="#7A572D"/>
<path d="M21.1887 7.84375H19.896V9.14178H21.1887V7.84375Z" fill="#8E683F"/>
<path d="M21.1887 6.5459H19.896V7.84393H21.1887V6.5459Z" fill="#5B3D22"/>
<path d="M21.1887 5.24707H19.896V6.5451H21.1887V5.24707Z" fill="#8E683F"/>
<path d="M21.1887 3.94922H19.896V5.24725H21.1887V3.94922Z" fill="#8E683F"/>
<path d="M21.1887 2.65137H19.896V3.9494H21.1887V2.65137Z" fill="#5B3D22"/>
<path d="M19.8962 29.9121H18.6035V31.2101H19.8962V29.9121Z" fill="#563D23"/>
<path d="M19.8962 28.6133H18.6035V29.9113H19.8962V28.6133Z" fill="#563D23"/>
<path d="M19.8962 27.3145H18.6035V28.6125H19.8962V27.3145Z" fill="#35210F"/>
<path d="M19.8962 26.0176H18.6035V27.3156H19.8962V26.0176Z" fill="#664929"/>
<path d="M19.8962 24.7197H18.6035V26.0178H19.8962V24.7197Z" fill="#7A572D"/>
<path d="M19.8962 23.4209H18.6035V24.7189H19.8962V23.4209Z" fill="#664929"/>
<path d="M19.8962 22.123H18.6035V23.4211H19.8962V22.123Z" fill="#493017"/>
<path d="M19.8962 20.8252H18.6035V22.1232H19.8962V20.8252Z" fill="#7A572D"/>
<path d="M19.8962 19.5264H18.6035V20.8244H19.8962V19.5264Z" fill="#664929"/>
<path d="M19.8962 18.2285H18.6035V19.5265H19.8962V18.2285Z" fill="#F4921E"/>
<path d="M19.8962 16.9307H18.6035V18.2287H19.8962V16.9307Z" fill="#F9ED19"/>
<path d="M19.8962 15.6328H18.6035V16.9308H19.8962V15.6328Z" fill="#544D43"/>
<path d="M19.8962 14.334H18.6035V15.632H19.8962V14.334Z" fill="#544D43"/>
<path d="M19.8962 13.0361H18.6035V14.3342H19.8962V13.0361Z" fill="#F9ED19"/>
<path d="M19.8962 11.7383H18.6035V13.0363H19.8962V11.7383Z" fill="#F4921E"/>
<path d="M19.8962 10.4404H18.6035V11.7385H19.8962V10.4404Z" fill="#382311"/>
<path d="M19.8962 9.1416H18.6035V10.4396H19.8962V9.1416Z" fill="#8E683F"/>
<path d="M19.8962 7.84375H18.6035V9.14178H19.8962V7.84375Z" fill="#7A572D"/>
<path d="M19.8962 6.5459H18.6035V7.84393H19.8962V6.5459Z" fill="#5B3D22"/>
<path d="M19.8962 5.24707H18.6035V6.5451H19.8962V5.24707Z" fill="#8E683F"/>
<path d="M19.8962 3.94922H18.6035V5.24725H19.8962V3.94922Z" fill="#8E683F"/>
<path d="M19.8962 2.65137H18.6035V3.9494H19.8962V2.65137Z" fill="#5B3D22"/>
<path d="M18.6033 29.9121H17.3105V31.2101H18.6033V29.9121Z" fill="#563D23"/>
<path d="M18.6033 28.6133H17.3105V29.9113H18.6033V28.6133Z" fill="#563D23"/>
<path d="M18.6033 27.3145H17.3105V28.6125H18.6033V27.3145Z" fill="#35210F"/>
<path d="M18.6033 26.0176H17.3105V27.3156H18.6033V26.0176Z" fill="#664929"/>
<path d="M18.6033 24.7197H17.3105V26.0178H18.6033V24.7197Z" fill="#664929"/>
<path d="M18.6033 23.4209H17.3105V24.7189H18.6033V23.4209Z" fill="#7A572D"/>
<path d="M18.6033 22.123H17.3105V23.4211H18.6033V22.123Z" fill="#493017"/>
<path d="M18.6033 20.8252H17.3105V22.1232H18.6033V20.8252Z" fill="#7A572D"/>
<path d="M18.6033 19.5264H17.3105V20.8244H18.6033V19.5264Z" fill="#664929"/>
<path d="M18.6033 18.2285H17.3105V19.5265H18.6033V18.2285Z" fill="#F4921E"/>
<path d="M18.6033 16.9307H17.3105V18.2287H18.6033V16.9307Z" fill="#F9ED19"/>
<path d="M18.6033 15.6328H17.3105V16.9308H18.6033V15.6328Z" fill="#F9ED19"/>
<path d="M18.6033 14.334H17.3105V15.632H18.6033V14.334Z" fill="#F9ED19"/>
<path d="M18.6033 13.0361H17.3105V14.3342H18.6033V13.0361Z" fill="#FFF9C5"/>
<path d="M18.6033 11.7383H17.3105V13.0363H18.6033V11.7383Z" fill="#F4921E"/>
<path d="M18.6033 10.4404H17.3105V11.7385H18.6033V10.4404Z" fill="#382311"/>
<path d="M18.6033 9.1416H17.3105V10.4396H18.6033V9.1416Z" fill="#7A572D"/>
<path d="M18.6033 7.84375H17.3105V9.14178H18.6033V7.84375Z" fill="#8E683F"/>
<path d="M18.6033 6.5459H17.3105V7.84393H18.6033V6.5459Z" fill="#5B3D22"/>
<path d="M18.6033 5.24707H17.3105V6.5451H18.6033V5.24707Z" fill="#8E683F"/>
<path d="M18.6033 3.94922H17.3105V5.24725H18.6033V3.94922Z" fill="#8E683F"/>
<path d="M18.6033 2.65137H17.3105V3.9494H18.6033V2.65137Z" fill="#5B3D22"/>
<path d="M17.3108 29.9121H16.0181V31.2101H17.3108V29.9121Z" fill="#563D23"/>
<path d="M17.3108 28.6133H16.0181V29.9113H17.3108V28.6133Z" fill="#563D23"/>
<path d="M17.3108 27.3145H16.0181V28.6125H17.3108V27.3145Z" fill="#35210F"/>
<path d="M17.3108 26.0176H16.0181V27.3156H17.3108V26.0176Z" fill="#664929"/>
<path d="M17.3108 24.7197H16.0181V26.0178H17.3108V24.7197Z" fill="#7A572D"/>
<path d="M17.3108 23.4209H16.0181V24.7189H17.3108V23.4209Z" fill="#664929"/>
<path d="M17.3108 22.123H16.0181V23.4211H17.3108V22.123Z" fill="#493017"/>
<path d="M17.3108 20.8252H16.0181V22.1232H17.3108V20.8252Z" fill="#7A572D"/>
<path d="M17.3108 19.5264H16.0181V20.8244H17.3108V19.5264Z" fill="#664929"/>
<path d="M17.3108 18.2285H16.0181V19.5265H17.3108V18.2285Z" fill="#F4921E"/>
<path d="M17.3108 16.9307H16.0181V18.2287H17.3108V16.9307Z" fill="#F4921E"/>
<path d="M17.3108 15.6328H16.0181V16.9308H17.3108V15.6328Z" fill="#FFF9C5"/>
<path d="M17.3108 14.334H16.0181V15.632H17.3108V14.334Z" fill="#FFF9C5"/>
<path d="M17.3108 13.0361H16.0181V14.3342H17.3108V13.0361Z" fill="#FFF9C5"/>
<path d="M17.3108 11.7383H16.0181V13.0363H17.3108V11.7383Z" fill="#F4921E"/>
<path d="M17.3108 10.4404H16.0181V11.7385H17.3108V10.4404Z" fill="#382311"/>
<path d="M17.3108 9.1416H16.0181V10.4396H17.3108V9.1416Z" fill="#8E683F"/>
<path d="M17.3108 7.84375H16.0181V9.14178H17.3108V7.84375Z" fill="#7A572D"/>
<path d="M17.3108 6.5459H16.0181V7.84393H17.3108V6.5459Z" fill="#5B3D22"/>
<path d="M17.3108 5.24707H16.0181V6.5451H17.3108V5.24707Z" fill="#8E683F"/>
<path d="M17.3108 3.94922H16.0181V5.24725H17.3108V3.94922Z" fill="#8E683F"/>
<path d="M17.3108 2.65137H16.0181V3.9494H17.3108V2.65137Z" fill="#5B3D22"/>
<path d="M16.0178 29.9121H14.7251V31.2101H16.0178V29.9121Z" fill="#563D23"/>
<path d="M16.0178 28.6133H14.7251V29.9113H16.0178V28.6133Z" fill="#563D23"/>
<path d="M16.0178 27.3145H14.7251V28.6125H16.0178V27.3145Z" fill="#35210F"/>
<path d="M16.0178 26.0176H14.7251V27.3156H16.0178V26.0176Z" fill="#664929"/>
<path d="M16.0178 24.7197H14.7251V26.0178H16.0178V24.7197Z" fill="#664929"/>
<path d="M16.0178 23.4209H14.7251V24.7189H16.0178V23.4209Z" fill="#7A572D"/>
<path d="M16.0178 22.123H14.7251V23.4211H16.0178V22.123Z" fill="#493017"/>
<path d="M16.0178 20.8252H14.7251V22.1232H16.0178V20.8252Z" fill="#7A572D"/>
<path d="M16.0178 19.5264H14.7251V20.8244H16.0178V19.5264Z" fill="#7A572D"/>
<path d="M16.0178 18.2285H14.7251V19.5265H16.0178V18.2285Z" fill="#664929"/>
<path d="M16.0178 16.9307H14.7251V18.2287H16.0178V16.9307Z" fill="#493017"/>
<path d="M16.0178 15.6328H14.7251V16.9308H16.0178V15.6328Z" fill="#F4921E"/>
<path d="M16.0178 14.334H14.7251V15.632H16.0178V14.334Z" fill="#F4921E"/>
<path d="M16.0178 13.0361H14.7251V14.3342H16.0178V13.0361Z" fill="#F4921E"/>
<path d="M16.0178 11.7383H14.7251V13.0363H16.0178V11.7383Z" fill="#664929"/>
<path d="M16.0178 10.4404H14.7251V11.7385H16.0178V10.4404Z" fill="#493017"/>
<path d="M16.0178 9.1416H14.7251V10.4396H16.0178V9.1416Z" fill="#7A572D"/>
<path d="M16.0178 7.84375H14.7251V9.14178H16.0178V7.84375Z" fill="#8E683F"/>
<path d="M16.0178 6.5459H14.7251V7.84393H16.0178V6.5459Z" fill="#5B3D22"/>
<path d="M16.0178 5.24707H14.7251V6.5451H16.0178V5.24707Z" fill="#8E683F"/>
<path d="M16.0178 3.94922H14.7251V5.24725H16.0178V3.94922Z" fill="#8E683F"/>
<path d="M16.0178 2.65137H14.7251V3.9494H16.0178V2.65137Z" fill="#5B3D22"/>
<path d="M14.7253 29.9121H13.4326V31.2101H14.7253V29.9121Z" fill="#563D23"/>
<path d="M14.7253 28.6133H13.4326V29.9113H14.7253V28.6133Z" fill="#563D23"/>
<path d="M14.7253 27.3145H13.4326V28.6125H14.7253V27.3145Z" fill="#35210F"/>
<path d="M14.7253 26.0176H13.4326V27.3156H14.7253V26.0176Z" fill="#664929"/>
<path d="M14.7253 24.7197H13.4326V26.0178H14.7253V24.7197Z" fill="#7A572D"/>
<path d="M14.7253 23.4209H13.4326V24.7189H14.7253V23.4209Z" fill="#664929"/>
<path d="M14.7253 22.123H13.4326V23.4211H14.7253V22.123Z" fill="#493017"/>
<path d="M14.7253 20.8252H13.4326V22.1232H14.7253V20.8252Z" fill="#7A572D"/>
<path d="M14.7253 19.5264H13.4326V20.8244H14.7253V19.5264Z" fill="#7A572D"/>
<path d="M14.7253 18.2285H13.4326V19.5265H14.7253V18.2285Z" fill="#664929"/>
<path d="M14.7253 16.9307H13.4326V18.2287H14.7253V16.9307Z" fill="#493017"/>
<path d="M14.7253 15.6328H13.4326V16.9308H14.7253V15.6328Z" fill="#664929"/>
<path d="M14.7253 14.334H13.4326V15.632H14.7253V14.334Z" fill="#664929"/>
<path d="M14.7253 13.0361H13.4326V14.3342H14.7253V13.0361Z" fill="#664929"/>
<path d="M14.7253 11.7383H13.4326V13.0363H14.7253V11.7383Z" fill="#7A572D"/>
<path d="M14.7253 10.4404H13.4326V11.7385H14.7253V10.4404Z" fill="#493017"/>
<path d="M14.7253 9.1416H13.4326V10.4396H14.7253V9.1416Z" fill="#8E683F"/>
<path d="M14.7253 7.84375H13.4326V9.14178H14.7253V7.84375Z" fill="#7A572D"/>
<path d="M14.7253 6.5459H13.4326V7.84393H14.7253V6.5459Z" fill="#5B3D22"/>
<path d="M14.7253 5.24707H13.4326V6.5451H14.7253V5.24707Z" fill="#8E683F"/>
<path d="M14.7253 3.94922H13.4326V5.24725H14.7253V3.94922Z" fill="#8E683F"/>
<path d="M14.7253 2.65137H13.4326V3.9494H14.7253V2.65137Z" fill="#5B3D22"/>
<path d="M13.4314 29.9121H12.1387V31.2101H13.4314V29.9121Z" fill="#563D23"/>
<path d="M13.4314 28.6133H12.1387V29.9113H13.4314V28.6133Z" fill="#563D23"/>
<path d="M13.4314 27.3145H12.1387V28.6125H13.4314V27.3145Z" fill="#35210F"/>
<path d="M13.4314 26.0176H12.1387V27.3156H13.4314V26.0176Z" fill="#664929"/>
<path d="M13.4314 24.7197H12.1387V26.0178H13.4314V24.7197Z" fill="#664929"/>
<path d="M13.4314 23.4209H12.1387V24.7189H13.4314V23.4209Z" fill="#7A572D"/>
<path d="M13.4314 22.123H12.1387V23.4211H13.4314V22.123Z" fill="#493017"/>
<path d="M13.4314 20.8252H12.1387V22.1232H13.4314V20.8252Z" fill="#7A572D"/>
<path d="M13.4314 19.5264H12.1387V20.8244H13.4314V19.5264Z" fill="#7A572D"/>
<path d="M13.4314 18.2285H12.1387V19.5265H13.4314V18.2285Z" fill="#664929"/>
<path d="M13.4314 16.9307H12.1387V18.2287H13.4314V16.9307Z" fill="#493017"/>
<path d="M13.4314 15.6328H12.1387V16.9308H13.4314V15.6328Z" fill="#7A572D"/>
<path d="M13.4314 14.334H12.1387V15.632H13.4314V14.334Z" fill="#7A572D"/>
<path d="M13.4314 13.0361H12.1387V14.3342H13.4314V13.0361Z" fill="#7A572D"/>
<path d="M13.4314 11.7383H12.1387V13.0363H13.4314V11.7383Z" fill="#7A572D"/>
<path d="M13.4314 10.4404H12.1387V11.7385H13.4314V10.4404Z" fill="#493017"/>
<path d="M13.4314 9.1416H12.1387V10.4396H13.4314V9.1416Z" fill="#7A572D"/>
<path d="M13.4314 7.84375H12.1387V9.14178H13.4314V7.84375Z" fill="#8E683F"/>
<path d="M13.4314 6.5459H12.1387V7.84393H13.4314V6.5459Z" fill="#5B3D22"/>
<path d="M13.4314 5.24707H12.1387V6.5451H13.4314V5.24707Z" fill="#8E683F"/>
<path d="M13.4314 3.94922H12.1387V5.24725H13.4314V3.94922Z" fill="#8E683F"/>
<path d="M13.4314 2.65137H12.1387V3.9494H13.4314V2.65137Z" fill="#5B3D22"/>
<path d="M12.1399 29.9121H10.8472V31.2101H12.1399V29.9121Z" fill="#563D23"/>
<path d="M12.1399 28.6133H10.8472V29.9113H12.1399V28.6133Z" fill="#563D23"/>
<path d="M12.1399 27.3145H10.8472V28.6125H12.1399V27.3145Z" fill="#35210F"/>
<path d="M12.1399 26.0176H10.8472V27.3156H12.1399V26.0176Z" fill="#664929"/>
<path d="M12.1399 24.7197H10.8472V26.0178H12.1399V24.7197Z" fill="#7A572D"/>
<path d="M12.1399 23.4209H10.8472V24.7189H12.1399V23.4209Z" fill="#664929"/>
<path d="M12.1399 22.123H10.8472V23.4211H12.1399V22.123Z" fill="#493017"/>
<path d="M12.1399 20.8252H10.8472V22.1232H12.1399V20.8252Z" fill="#7A572D"/>
<path d="M12.1399 19.5264H10.8472V20.8244H12.1399V19.5264Z" fill="#7A572D"/>
<path d="M12.1399 18.2285H10.8472V19.5265H12.1399V18.2285Z" fill="#664929"/>
<path d="M12.1399 16.9307H10.8472V18.2287H12.1399V16.9307Z" fill="#493017"/>
<path d="M12.1399 15.6328H10.8472V16.9308H12.1399V15.6328Z" fill="#7A572D"/>
<path d="M12.1399 14.334H10.8472V15.632H12.1399V14.334Z" fill="#7A572D"/>
<path d="M12.1399 13.0361H10.8472V14.3342H12.1399V13.0361Z" fill="#7A572D"/>
<path d="M12.1399 11.7383H10.8472V13.0363H12.1399V11.7383Z" fill="#7A572D"/>
<path d="M12.1399 10.4404H10.8472V11.7385H12.1399V10.4404Z" fill="#493017"/>
<path d="M12.1399 9.1416H10.8472V10.4396H12.1399V9.1416Z" fill="#8E683F"/>
<path d="M12.1399 7.84375H10.8472V9.14178H12.1399V7.84375Z" fill="#7A572D"/>
<path d="M12.1399 6.5459H10.8472V7.84393H12.1399V6.5459Z" fill="#5B3D22"/>
<path d="M12.1399 5.24707H10.8472V6.5451H12.1399V5.24707Z" fill="#8E683F"/>
<path d="M12.1399 3.94922H10.8472V5.24725H12.1399V3.94922Z" fill="#8E683F"/>
<path d="M12.1399 2.65137H10.8472V3.9494H12.1399V2.65137Z" fill="#5B3D22"/>
<path d="M10.8469 29.9121H9.5542V31.2101H10.8469V29.9121Z" fill="#563D23"/>
<path d="M10.8469 28.6133H9.5542V29.9113H10.8469V28.6133Z" fill="#563D23"/>
<path d="M10.8469 27.3145H9.5542V28.6125H10.8469V27.3145Z" fill="#35210F"/>
<path d="M10.8469 26.0176H9.5542V27.3156H10.8469V26.0176Z" fill="#664929"/>
<path d="M10.8469 24.7197H9.5542V26.0178H10.8469V24.7197Z" fill="#664929"/>
<path d="M10.8469 23.4209H9.5542V24.7189H10.8469V23.4209Z" fill="#7A572D"/>
<path d="M10.8469 22.123H9.5542V23.4211H10.8469V22.123Z" fill="#493017"/>
<path d="M10.8469 20.8252H9.5542V22.1232H10.8469V20.8252Z" fill="#7A572D"/>
<path d="M10.8469 19.5264H9.5542V20.8244H10.8469V19.5264Z" fill="#7A572D"/>
<path d="M10.8469 18.2285H9.5542V19.5265H10.8469V18.2285Z" fill="#664929"/>
<path d="M10.8469 16.9307H9.5542V18.2287H10.8469V16.9307Z" fill="#493017"/>
<path d="M10.8469 15.6328H9.5542V16.9308H10.8469V15.6328Z" fill="#7A572D"/>
<path d="M10.8469 14.334H9.5542V15.632H10.8469V14.334Z" fill="#7A572D"/>
<path d="M10.8469 13.0361H9.5542V14.3342H10.8469V13.0361Z" fill="#7A572D"/>
<path d="M10.8469 11.7383H9.5542V13.0363H10.8469V11.7383Z" fill="#7A572D"/>
<path d="M10.8469 10.4404H9.5542V11.7385H10.8469V10.4404Z" fill="#493017"/>
<path d="M10.8469 9.1416H9.5542V10.4396H10.8469V9.1416Z" fill="#7A572D"/>
<path d="M10.8469 7.84375H9.5542V9.14178H10.8469V7.84375Z" fill="#8E683F"/>
<path d="M10.8469 6.5459H9.5542V7.84393H10.8469V6.5459Z" fill="#5B3D22"/>
<path d="M10.8469 5.24707H9.5542V6.5451H10.8469V5.24707Z" fill="#8E683F"/>
<path d="M10.8469 3.94922H9.5542V5.24725H10.8469V3.94922Z" fill="#8E683F"/>
<path d="M9.55345 29.9121H8.26074V31.2101H9.55345V29.9121Z" fill="#563D23"/>
<path d="M9.55345 28.6133H8.26074V29.9113H9.55345V28.6133Z" fill="#563D23"/>
<path d="M9.55345 27.3145H8.26074V28.6125H9.55345V27.3145Z" fill="#35210F"/>
<path d="M9.55345 26.0176H8.26074V27.3156H9.55345V26.0176Z" fill="#664929"/>
<path d="M9.55345 24.7197H8.26074V26.0178H9.55345V24.7197Z" fill="#7A572D"/>
<path d="M9.55345 23.4209H8.26074V24.7189H9.55345V23.4209Z" fill="#664929"/>
<path d="M9.55345 22.123H8.26074V23.4211H9.55345V22.123Z" fill="#493017"/>
<path d="M9.55345 20.8252H8.26074V22.1232H9.55345V20.8252Z" fill="#7A572D"/>
<path d="M9.55345 19.5264H8.26074V20.8244H9.55345V19.5264Z" fill="#7A572D"/>
<path d="M9.55345 18.2285H8.26074V19.5265H9.55345V18.2285Z" fill="#664929"/>
<path d="M9.55345 16.9307H8.26074V18.2287H9.55345V16.9307Z" fill="#493017"/>
<path d="M9.55345 15.6328H8.26074V16.9308H9.55345V15.6328Z" fill="#7A572D"/>
<path d="M9.55345 14.334H8.26074V15.632H9.55345V14.334Z" fill="#7A572D"/>
<path d="M9.55345 13.0361H8.26074V14.3342H9.55345V13.0361Z" fill="#7A572D"/>
<path d="M9.55345 11.7383H8.26074V13.0363H9.55345V11.7383Z" fill="#7A572D"/>
<path d="M9.55345 10.4404H8.26074V11.7385H9.55345V10.4404Z" fill="#493017"/>
<path d="M9.55345 9.1416H8.26074V10.4396H9.55345V9.1416Z" fill="#8E683F"/>
<path d="M9.55345 7.84375H8.26074V9.14178H9.55345V7.84375Z" fill="#7A572D"/>
<path d="M9.55345 6.5459H8.26074V7.84393H9.55345V6.5459Z" fill="#5B3D22"/>
<path d="M9.55345 5.24707H8.26074V6.5451H9.55345V5.24707Z" fill="#8E683F"/>
<path d="M9.55345 3.94922H8.26074V5.24725H9.55345V3.94922Z" fill="#F4921E"/>
<path d="M8.26097 29.9121H6.96826V31.2101H8.26097V29.9121Z" fill="#563D23"/>
<path d="M8.26097 28.6133H6.96826V29.9113H8.26097V28.6133Z" fill="#563D23"/>
<path d="M8.26097 27.3145H6.96826V28.6125H8.26097V27.3145Z" fill="#35210F"/>
<path d="M8.26097 26.0176H6.96826V27.3156H8.26097V26.0176Z" fill="#664929"/>
<path d="M8.26097 24.7197H6.96826V26.0178H8.26097V24.7197Z" fill="#664929"/>
<path d="M8.26097 23.4209H6.96826V24.7189H8.26097V23.4209Z" fill="#7A572D"/>
<path d="M8.26097 22.123H6.96826V23.4211H8.26097V22.123Z" fill="#493017"/>
<path d="M8.26097 20.8252H6.96826V22.1232H8.26097V20.8252Z" fill="#7A572D"/>
<path d="M8.26097 19.5264H6.96826V20.8244H8.26097V19.5264Z" fill="#7A572D"/>
<path d="M8.26097 18.2285H6.96826V19.5265H8.26097V18.2285Z" fill="#664929"/>
<path d="M8.26097 16.9307H6.96826V18.2287H8.26097V16.9307Z" fill="#493017"/>
<path d="M8.26097 15.6328H6.96826V16.9308H8.26097V15.6328Z" fill="#7A572D"/>
<path d="M8.26097 14.334H6.96826V15.632H8.26097V14.334Z" fill="#7A572D"/>
<path d="M8.26097 13.0361H6.96826V14.3342H8.26097V13.0361Z" fill="#7A572D"/>
<path d="M8.26097 11.7383H6.96826V13.0363H8.26097V11.7383Z" fill="#7A572D"/>
<path d="M8.26097 10.4404H6.96826V11.7385H8.26097V10.4404Z" fill="#493017"/>
<path d="M8.26097 9.1416H6.96826V10.4396H8.26097V9.1416Z" fill="#7A572D"/>
<path d="M8.26097 7.84375H6.96826V9.14178H8.26097V7.84375Z" fill="#8E683F"/>
<path d="M8.26097 6.5459H6.96826V7.84393H8.26097V6.5459Z" fill="#5B3D22"/>
<path d="M8.26097 5.24707H6.96826V6.5451H8.26097V5.24707Z" fill="#F4921E"/>
<path d="M8.26097 3.94922H6.96826V5.24725H8.26097V3.94922Z" fill="#FFF9C5"/>
<path d="M6.96898 29.9121H5.67627V31.2101H6.96898V29.9121Z" fill="#F4921E"/>
<path d="M6.96898 28.6133H5.67627V29.9113H6.96898V28.6133Z" fill="#563D23"/>
<path d="M6.96898 27.3145H5.67627V28.6125H6.96898V27.3145Z" fill="#35210F"/>
<path d="M6.96898 26.0176H5.67627V27.3156H6.96898V26.0176Z" fill="#664929"/>
<path d="M6.96898 24.7197H5.67627V26.0178H6.96898V24.7197Z" fill="#7A572D"/>
<path d="M6.96898 23.4209H5.67627V24.7189H6.96898V23.4209Z" fill="#664929"/>
<path d="M6.96898 22.123H5.67627V23.4211H6.96898V22.123Z" fill="#493017"/>
<path d="M6.96898 20.8252H5.67627V22.1232H6.96898V20.8252Z" fill="#7A572D"/>
<path d="M6.96898 19.5264H5.67627V20.8244H6.96898V19.5264Z" fill="#7A572D"/>
<path d="M6.96898 18.2285H5.67627V19.5265H6.96898V18.2285Z" fill="#664929"/>
<path d="M6.96898 16.9307H5.67627V18.2287H6.96898V16.9307Z" fill="#493017"/>
<path d="M6.96898 15.6328H5.67627V16.9308H6.96898V15.6328Z" fill="#7A572D"/>
<path d="M6.96898 14.334H5.67627V15.632H6.96898V14.334Z" fill="#7A572D"/>
<path d="M6.96898 13.0361H5.67627V14.3342H6.96898V13.0361Z" fill="#7A572D"/>
<path d="M6.96898 11.7383H5.67627V13.0363H6.96898V11.7383Z" fill="#7A572D"/>
<path d="M6.96898 10.4404H5.67627V11.7385H6.96898V10.4404Z" fill="#493017"/>
<path d="M6.96898 9.1416H5.67627V10.4396H6.96898V9.1416Z" fill="#F4921E"/>
<path d="M6.96898 7.84375H5.67627V9.14178H6.96898V7.84375Z" fill="#F4921E"/>
<path d="M6.96898 6.5459H5.67627V7.84393H6.96898V6.5459Z" fill="#F4921E"/>
<path d="M6.96898 5.24707H5.67627V6.5451H6.96898V5.24707Z" fill="#FFF9C5"/>
<path d="M5.67651 29.9121H4.38281V31.2101H5.67651V29.9121Z" fill="#F9ED19"/>
<path d="M5.67651 28.6133H4.38281V29.9113H5.67651V28.6133Z" fill="#F4921E"/>
<path d="M5.67651 27.3145H4.38281V28.6125H5.67651V27.3145Z" fill="#35210F"/>
<path d="M5.67651 26.0176H4.38281V27.3156H5.67651V26.0176Z" fill="#664929"/>
<path d="M5.67651 24.7197H4.38281V26.0178H5.67651V24.7197Z" fill="#664929"/>
<path d="M5.67651 23.4209H4.38281V24.7189H5.67651V23.4209Z" fill="#7A572D"/>
<path d="M5.67651 22.123H4.38281V23.4211H5.67651V22.123Z" fill="#493017"/>
<path d="M5.67651 20.8252H4.38281V22.1232H5.67651V20.8252Z" fill="#7A572D"/>
<path d="M5.67651 19.5264H4.38281V20.8244H5.67651V19.5264Z" fill="#7A572D"/>
<path d="M5.67651 18.2285H4.38281V19.5265H5.67651V18.2285Z" fill="#664929"/>
<path d="M5.67651 16.9307H4.38281V18.2287H5.67651V16.9307Z" fill="#493017"/>
<path d="M5.67651 15.6328H4.38281V16.9308H5.67651V15.6328Z" fill="#F4921E"/>
<path d="M5.67651 14.334H4.38281V15.632H5.67651V14.334Z" fill="#D3771C"/>
<path d="M5.67651 13.0361H4.38281V14.3342H5.67651V13.0361Z" fill="#F4921E"/>
<path d="M5.67651 11.7383H4.38281V13.0363H5.67651V11.7383Z" fill="#F4921E"/>
<path d="M5.67651 10.4404H4.38281V11.7385H5.67651V10.4404Z" fill="#F4921E"/>
<path d="M5.67651 9.1416H4.38281V10.4396H5.67651V9.1416Z" fill="#F9ED19"/>
<path d="M5.67651 7.84375H4.38281V9.14178H5.67651V7.84375Z" fill="#F9ED19"/>
<path d="M5.67651 6.5459H4.38281V7.84393H5.67651V6.5459Z" fill="#FFF9C5"/>
<path d="M4.38255 29.9121H3.08984V31.2101H4.38255V29.9121Z" fill="#F9ED19"/>
<path d="M4.38255 28.6133H3.08984V29.9113H4.38255V28.6133Z" fill="#F4921E"/>
<path d="M4.38255 27.3145H3.08984V28.6125H4.38255V27.3145Z" fill="#F4921E"/>
<path d="M4.38255 26.0176H3.08984V27.3156H4.38255V26.0176Z" fill="#664929"/>
<path d="M4.38255 24.7197H3.08984V26.0178H4.38255V24.7197Z" fill="#7A572D"/>
<path d="M4.38255 23.4209H3.08984V24.7189H4.38255V23.4209Z" fill="#664929"/>
<path d="M4.38255 22.123H3.08984V23.4211H4.38255V22.123Z" fill="#493017"/>
<path d="M4.38255 20.8252H3.08984V22.1232H4.38255V20.8252Z" fill="#7A572D"/>
<path d="M4.38255 19.5264H3.08984V20.8244H4.38255V19.5264Z" fill="#664929"/>
<path d="M4.38255 18.2285H3.08984V19.5265H4.38255V18.2285Z" fill="#F4921E"/>
<path d="M4.38255 16.9307H3.08984V18.2287H4.38255V16.9307Z" fill="#F4921E"/>
<path d="M4.38255 15.6328H3.08984V16.9308H4.38255V15.6328Z" fill="#F9ED19"/>
<path d="M4.38255 14.334H3.08984V15.632H4.38255V14.334Z" fill="#D3771C"/>
<path d="M4.38255 13.0361H3.08984V14.3342H4.38255V13.0361Z" fill="#F9ED19"/>
<path d="M4.38255 11.7383H3.08984V13.0363H4.38255V11.7383Z" fill="#F9ED19"/>
<path d="M4.38255 10.4404H3.08984V11.7385H4.38255V10.4404Z" fill="#FFF9C5"/>
<path d="M3.09007 29.9121H1.79736V31.2101H3.09007V29.9121Z" fill="#F9ED19"/>
<path d="M3.09007 28.6133H1.79736V29.9113H3.09007V28.6133Z" fill="#F9ED19"/>
<path d="M3.09007 27.3145H1.79736V28.6125H3.09007V27.3145Z" fill="#F9ED19"/>
<path d="M3.09007 18.2285H1.79736V19.5265H3.09007V18.2285Z" fill="#F9ED19"/>
<path d="M3.09007 16.9307H1.79736V18.2287H3.09007V16.9307Z" fill="#F9ED19"/>
<path d="M3.09007 15.6328H1.79736V16.9308H3.09007V15.6328Z" fill="#FFF9C5"/>
</g>
<defs>
<clipPath id="clip0_1056_100748">
<rect width="34.9051" height="28.5587" fill="white" transform="translate(1.79736 2.65137)"/>
</clipPath>
</defs>
</svg>
