<svg width="40" height="34" viewBox="0 0 40 34" fill="none" xmlns="http://www.w3.org/2000/svg">
<path d="M9.8024 2.43262H8.72363V3.51498H9.8024V2.43262Z" fill="#FA7322"/>
<path d="M10.8815 2.43262H9.80273V3.51498H10.8815V2.43262Z" fill="#FA7322"/>
<path d="M11.9601 2.43262H10.8813V3.51498H11.9601V2.43262Z" fill="#FA7322"/>
<path d="M13.0387 2.43262H11.96V3.51498H13.0387V2.43262Z" fill="#FA7322"/>
<path d="M28.1408 2.43262H27.062V3.51498H28.1408V2.43262Z" fill="#FA7322"/>
<path d="M29.2194 2.43262H28.1406V3.51498H29.2194V2.43262Z" fill="#FA7322"/>
<path d="M30.2985 2.43262H29.2197V3.51498H30.2985V2.43262Z" fill="#FA7322"/>
<path d="M31.3771 2.43262H30.2983V3.51498H31.3771V2.43262Z" fill="#FA7322"/>
<path d="M8.72379 3.51465H7.64502V4.59701H8.72379V3.51465Z" fill="#45262F"/>
<path d="M9.8024 3.51465H8.72363V4.59701H9.8024V3.51465Z" fill="#F9AF3C"/>
<path d="M10.8815 3.51465H9.80273V4.59701H10.8815V3.51465Z" fill="#FA7322"/>
<path d="M11.9601 3.51465H10.8813V4.59701H11.9601V3.51465Z" fill="#FA7322"/>
<path d="M13.0387 3.51465H11.96V4.59701H13.0387V3.51465Z" fill="#F9AF3C"/>
<path d="M14.1173 3.51465H13.0386V4.59701H14.1173V3.51465Z" fill="#45262F"/>
<path d="M15.1964 3.51465H14.1177V4.59701H15.1964V3.51465Z" fill="#45262F"/>
<path d="M16.2751 3.51465H15.1963V4.59701H16.2751V3.51465Z" fill="#45262F"/>
<path d="M17.3537 3.51465H16.2749V4.59701H17.3537V3.51465Z" fill="#45262F"/>
<path d="M18.4323 3.51465H17.3535V4.59701H18.4323V3.51465Z" fill="#45262F"/>
<path d="M19.5114 3.51465H18.4326V4.59701H19.5114V3.51465Z" fill="#45262F"/>
<path d="M20.5895 3.51465H19.5107V4.59701H20.5895V3.51465Z" fill="#45262F"/>
<path d="M21.6686 3.51465H20.5898V4.59701H21.6686V3.51465Z" fill="#45262F"/>
<path d="M22.7472 3.51465H21.6685V4.59701H22.7472V3.51465Z" fill="#45262F"/>
<path d="M23.8258 3.51465H22.7471V4.59701H23.8258V3.51465Z" fill="#45262F"/>
<path d="M24.9045 3.51465H23.8257V4.59701H24.9045V3.51465Z" fill="#45262F"/>
<path d="M25.9836 3.51465H24.9048V4.59701H25.9836V3.51465Z" fill="#45262F"/>
<path d="M27.0622 3.51465H25.9834V4.59701H27.0622V3.51465Z" fill="#45262F"/>
<path d="M28.1408 3.51465H27.062V4.59701H28.1408V3.51465Z" fill="#F9AF3C"/>
<path d="M29.2194 3.51465H28.1406V4.59701H29.2194V3.51465Z" fill="#FA7322"/>
<path d="M30.2985 3.51465H29.2197V4.59701H30.2985V3.51465Z" fill="#FA7322"/>
<path d="M31.3771 3.51465H30.2983V4.59701H31.3771V3.51465Z" fill="#F9AF3C"/>
<path d="M32.4557 3.51465H31.377V4.59701H32.4557V3.51465Z" fill="#45262F"/>
<path d="M6.56656 4.59668H5.48779V5.67904H6.56656V4.59668Z" fill="#45262F"/>
<path d="M8.72379 4.59668H7.64502V5.67904H8.72379V4.59668Z" fill="#45262F"/>
<path d="M9.8024 4.59668H8.72363V5.67904H9.8024V4.59668Z" fill="#F9AF3C"/>
<path d="M10.8815 4.59668H9.80273V5.67904H10.8815V4.59668Z" fill="#F9AF3C"/>
<path d="M11.9601 4.59668H10.8813V5.67904H11.9601V4.59668Z" fill="#FA7322"/>
<path d="M13.0387 4.59668H11.96V5.67904H13.0387V4.59668Z" fill="#F9AF3C"/>
<path d="M14.1173 4.59668H13.0386V5.67904H14.1173V4.59668Z" fill="#45262F"/>
<path d="M15.1964 4.59668H14.1177V5.67904H15.1964V4.59668Z" fill="#AF6B6B"/>
<path d="M16.2751 4.59668H15.1963V5.67904H16.2751V4.59668Z" fill="#AF6B6B"/>
<path d="M17.3537 4.59668H16.2749V5.67904H17.3537V4.59668Z" fill="#964035"/>
<path d="M18.4323 4.59668H17.3535V5.67904H18.4323V4.59668Z" fill="#964035"/>
<path d="M19.5114 4.59668H18.4326V5.67904H19.5114V4.59668Z" fill="#964035"/>
<path d="M20.5895 4.59668H19.5107V5.67904H20.5895V4.59668Z" fill="#964035"/>
<path d="M21.6686 4.59668H20.5898V5.67904H21.6686V4.59668Z" fill="#964035"/>
<path d="M22.7472 4.59668H21.6685V5.67904H22.7472V4.59668Z" fill="#964035"/>
<path d="M23.8258 4.59668H22.7471V5.67904H23.8258V4.59668Z" fill="#964035"/>
<path d="M24.9045 4.59668H23.8257V5.67904H24.9045V4.59668Z" fill="#964035"/>
<path d="M25.9836 4.59668H24.9048V5.67904H25.9836V4.59668Z" fill="#964035"/>
<path d="M27.0622 4.59668H25.9834V5.67904H27.0622V4.59668Z" fill="#45262F"/>
<path d="M28.1408 4.59668H27.062V5.67904H28.1408V4.59668Z" fill="#F9AF3C"/>
<path d="M29.2194 4.59668H28.1406V5.67904H29.2194V4.59668Z" fill="#F9AF3C"/>
<path d="M30.2985 4.59668H29.2197V5.67904H30.2985V4.59668Z" fill="#FA7322"/>
<path d="M31.3771 4.59668H30.2983V5.67904H31.3771V4.59668Z" fill="#F9AF3C"/>
<path d="M32.4557 4.59668H31.377V5.67904H32.4557V4.59668Z" fill="#45262F"/>
<path d="M34.6134 4.59668H33.5347V5.67904H34.6134V4.59668Z" fill="#45262F"/>
<path d="M6.56656 5.67969H5.48779V6.76205H6.56656V5.67969Z" fill="#45262F"/>
<path d="M8.72379 5.67969H7.64502V6.76205H8.72379V5.67969Z" fill="#45262F"/>
<path d="M9.8024 5.67969H8.72363V6.76205H9.8024V5.67969Z" fill="#FEE762"/>
<path d="M10.8815 5.67969H9.80273V6.76205H10.8815V5.67969Z" fill="#F9AF3C"/>
<path d="M11.9601 5.67969H10.8813V6.76205H11.9601V5.67969Z" fill="#F9AF3C"/>
<path d="M13.0387 5.67969H11.96V6.76205H13.0387V5.67969Z" fill="#F9AF3C"/>
<path d="M14.1173 5.67969H13.0386V6.76205H14.1173V5.67969Z" fill="#45262F"/>
<path d="M15.1964 5.67969H14.1177V6.76205H15.1964V5.67969Z" fill="#964035"/>
<path d="M16.2751 5.67969H15.1963V6.76205H16.2751V5.67969Z" fill="#964035"/>
<path d="M17.3537 5.67969H16.2749V6.76205H17.3537V5.67969Z" fill="#964035"/>
<path d="M18.4323 5.67969H17.3535V6.76205H18.4323V5.67969Z" fill="#964035"/>
<path d="M19.5114 5.67969H18.4326V6.76205H19.5114V5.67969Z" fill="#964035"/>
<path d="M20.5895 5.67969H19.5107V6.76205H20.5895V5.67969Z" fill="#AF6B6B"/>
<path d="M21.6686 5.67969H20.5898V6.76205H21.6686V5.67969Z" fill="#AF6B6B"/>
<path d="M22.7472 5.67969H21.6685V6.76205H22.7472V5.67969Z" fill="#AF6B6B"/>
<path d="M23.8258 5.67969H22.7471V6.76205H23.8258V5.67969Z" fill="#AF6B6B"/>
<path d="M24.9045 5.67969H23.8257V6.76205H24.9045V5.67969Z" fill="#AF6B6B"/>
<path d="M25.9836 5.67969H24.9048V6.76205H25.9836V5.67969Z" fill="#AF6B6B"/>
<path d="M27.0622 5.67969H25.9834V6.76205H27.0622V5.67969Z" fill="#45262F"/>
<path d="M28.1408 5.67969H27.062V6.76205H28.1408V5.67969Z" fill="#FEE762"/>
<path d="M29.2194 5.67969H28.1406V6.76205H29.2194V5.67969Z" fill="#F9AF3C"/>
<path d="M30.2985 5.67969H29.2197V6.76205H30.2985V5.67969Z" fill="#F9AF3C"/>
<path d="M31.3771 5.67969H30.2983V6.76205H31.3771V5.67969Z" fill="#F9AF3C"/>
<path d="M32.4557 5.67969H31.377V6.76205H32.4557V5.67969Z" fill="#45262F"/>
<path d="M34.6134 5.67969H33.5347V6.76205H34.6134V5.67969Z" fill="#45262F"/>
<path d="M6.56656 6.76172H5.48779V7.84408H6.56656V6.76172Z" fill="#45262F"/>
<path d="M8.72379 6.76172H7.64502V7.84408H8.72379V6.76172Z" fill="#45262F"/>
<path d="M9.8024 6.76172H8.72363V7.84408H9.8024V6.76172Z" fill="#FEE762"/>
<path d="M10.8815 6.76172H9.80273V7.84408H10.8815V6.76172Z" fill="#F9AF3C"/>
<path d="M11.9601 6.76172H10.8813V7.84408H11.9601V6.76172Z" fill="#FEE762"/>
<path d="M13.0387 6.76172H11.96V7.84408H13.0387V6.76172Z" fill="#F9AF3C"/>
<path d="M14.1173 6.76172H13.0386V7.84408H14.1173V6.76172Z" fill="#45262F"/>
<path d="M15.1964 6.76172H14.1177V7.84408H15.1964V6.76172Z" fill="#964035"/>
<path d="M16.2751 6.76172H15.1963V7.84408H16.2751V6.76172Z" fill="#964035"/>
<path d="M17.3537 6.76172H16.2749V7.84408H17.3537V6.76172Z" fill="#964035"/>
<path d="M18.4323 6.76172H17.3535V7.84408H18.4323V6.76172Z" fill="#964035"/>
<path d="M19.5114 6.76172H18.4326V7.84408H19.5114V6.76172Z" fill="#964035"/>
<path d="M20.5895 6.76172H19.5107V7.84408H20.5895V6.76172Z" fill="#964035"/>
<path d="M21.6686 6.76172H20.5898V7.84408H21.6686V6.76172Z" fill="#964035"/>
<path d="M22.7472 6.76172H21.6685V7.84408H22.7472V6.76172Z" fill="#964035"/>
<path d="M23.8258 6.76172H22.7471V7.84408H23.8258V6.76172Z" fill="#AF6B6B"/>
<path d="M24.9045 6.76172H23.8257V7.84408H24.9045V6.76172Z" fill="#AF6B6B"/>
<path d="M25.9836 6.76172H24.9048V7.84408H25.9836V6.76172Z" fill="#AF6B6B"/>
<path d="M27.0622 6.76172H25.9834V7.84408H27.0622V6.76172Z" fill="#45262F"/>
<path d="M28.1408 6.76172H27.062V7.84408H28.1408V6.76172Z" fill="#FEE762"/>
<path d="M29.2194 6.76172H28.1406V7.84408H29.2194V6.76172Z" fill="#F9AF3C"/>
<path d="M30.2985 6.76172H29.2197V7.84408H30.2985V6.76172Z" fill="#FEE762"/>
<path d="M31.3771 6.76172H30.2983V7.84408H31.3771V6.76172Z" fill="#F9AF3C"/>
<path d="M32.4557 6.76172H31.377V7.84408H32.4557V6.76172Z" fill="#45262F"/>
<path d="M34.6134 6.76172H33.5347V7.84408H34.6134V6.76172Z" fill="#45262F"/>
<path d="M6.56656 7.84375H5.48779V8.92611H6.56656V7.84375Z" fill="#45262F"/>
<path d="M8.72379 7.84375H7.64502V8.92611H8.72379V7.84375Z" fill="#45262F"/>
<path d="M9.8024 7.84375H8.72363V8.92611H9.8024V7.84375Z" fill="#FEE762"/>
<path d="M10.8815 7.84375H9.80273V8.92611H10.8815V7.84375Z" fill="#FEE762"/>
<path d="M11.9601 7.84375H10.8813V8.92611H11.9601V7.84375Z" fill="#FEE762"/>
<path d="M13.0387 7.84375H11.96V8.92611H13.0387V7.84375Z" fill="#FEE762"/>
<path d="M14.1173 7.84375H13.0386V8.92611H14.1173V7.84375Z" fill="#45262F"/>
<path d="M15.1964 7.84375H14.1177V8.92611H15.1964V7.84375Z" fill="#AF6B6B"/>
<path d="M16.2751 7.84375H15.1963V8.92611H16.2751V7.84375Z" fill="#AF6B6B"/>
<path d="M17.3537 7.84375H16.2749V8.92611H17.3537V7.84375Z" fill="#AF6B6B"/>
<path d="M18.4323 7.84375H17.3535V8.92611H18.4323V7.84375Z" fill="#AF6B6B"/>
<path d="M19.5114 7.84375H18.4326V8.92611H19.5114V7.84375Z" fill="#964035"/>
<path d="M20.5895 7.84375H19.5107V8.92611H20.5895V7.84375Z" fill="#964035"/>
<path d="M21.6686 7.84375H20.5898V8.92611H21.6686V7.84375Z" fill="#964035"/>
<path d="M22.7472 7.84375H21.6685V8.92611H22.7472V7.84375Z" fill="#964035"/>
<path d="M23.8258 7.84375H22.7471V8.92611H23.8258V7.84375Z" fill="#964035"/>
<path d="M24.9045 7.84375H23.8257V8.92611H24.9045V7.84375Z" fill="#964035"/>
<path d="M25.9836 7.84375H24.9048V8.92611H25.9836V7.84375Z" fill="#964035"/>
<path d="M27.0622 7.84375H25.9834V8.92611H27.0622V7.84375Z" fill="#45262F"/>
<path d="M28.1408 7.84375H27.062V8.92611H28.1408V7.84375Z" fill="#FEE762"/>
<path d="M29.2194 7.84375H28.1406V8.92611H29.2194V7.84375Z" fill="#FEE762"/>
<path d="M30.2985 7.84375H29.2197V8.92611H30.2985V7.84375Z" fill="#FEE762"/>
<path d="M31.3771 7.84375H30.2983V8.92611H31.3771V7.84375Z" fill="#FEE762"/>
<path d="M32.4557 7.84375H31.377V8.92611H32.4557V7.84375Z" fill="#45262F"/>
<path d="M34.6134 7.84375H33.5347V8.92611H34.6134V7.84375Z" fill="#45262F"/>
<path d="M5.48746 8.92676H4.40869V10.0091H5.48746V8.92676Z" fill="#F9AF3C"/>
<path d="M6.56656 8.92676H5.48779V10.0091H6.56656V8.92676Z" fill="#45262F"/>
<path d="M8.72379 8.92676H7.64502V10.0091H8.72379V8.92676Z" fill="#45262F"/>
<path d="M9.8024 8.92676H8.72363V10.0091H9.8024V8.92676Z" fill="#FEE762"/>
<path d="M10.8815 8.92676H9.80273V10.0091H10.8815V8.92676Z" fill="#FEE762"/>
<path d="M11.9601 8.92676H10.8813V10.0091H11.9601V8.92676Z" fill="#FEE762"/>
<path d="M13.0387 8.92676H11.96V10.0091H13.0387V8.92676Z" fill="#FEE762"/>
<path d="M14.1173 8.92676H13.0386V10.0091H14.1173V8.92676Z" fill="#45262F"/>
<path d="M15.1964 8.92676H14.1177V10.0091H15.1964V8.92676Z" fill="#AF6B6B"/>
<path d="M16.2751 8.92676H15.1963V10.0091H16.2751V8.92676Z" fill="#AF6B6B"/>
<path d="M17.3537 8.92676H16.2749V10.0091H17.3537V8.92676Z" fill="#AF6B6B"/>
<path d="M18.4323 8.92676H17.3535V10.0091H18.4323V8.92676Z" fill="#AF6B6B"/>
<path d="M19.5114 8.92676H18.4326V10.0091H19.5114V8.92676Z" fill="#AF6B6B"/>
<path d="M20.5895 8.92676H19.5107V10.0091H20.5895V8.92676Z" fill="#AF6B6B"/>
<path d="M21.6686 8.92676H20.5898V10.0091H21.6686V8.92676Z" fill="#AF6B6B"/>
<path d="M22.7472 8.92676H21.6685V10.0091H22.7472V8.92676Z" fill="#964035"/>
<path d="M23.8258 8.92676H22.7471V10.0091H23.8258V8.92676Z" fill="#964035"/>
<path d="M24.9045 8.92676H23.8257V10.0091H24.9045V8.92676Z" fill="#964035"/>
<path d="M25.9836 8.92676H24.9048V10.0091H25.9836V8.92676Z" fill="#964035"/>
<path d="M27.0622 8.92676H25.9834V10.0091H27.0622V8.92676Z" fill="#45262F"/>
<path d="M28.1408 8.92676H27.062V10.0091H28.1408V8.92676Z" fill="#FEE762"/>
<path d="M29.2194 8.92676H28.1406V10.0091H29.2194V8.92676Z" fill="#FEE762"/>
<path d="M30.2985 8.92676H29.2197V10.0091H30.2985V8.92676Z" fill="#FEE762"/>
<path d="M31.3771 8.92676H30.2983V10.0091H31.3771V8.92676Z" fill="#FEE762"/>
<path d="M32.4557 8.92676H31.377V10.0091H32.4557V8.92676Z" fill="#45262F"/>
<path d="M34.6134 8.92676H33.5347V10.0091H34.6134V8.92676Z" fill="#45262F"/>
<path d="M35.692 8.92676H34.6133V10.0091H35.692V8.92676Z" fill="#F9AF3C"/>
<path d="M5.48746 10.0088H4.40869V11.0912H5.48746V10.0088Z" fill="#F9AF3C"/>
<path d="M6.56656 10.0088H5.48779V11.0912H6.56656V10.0088Z" fill="#45262F"/>
<path d="M8.72379 10.0088H7.64502V11.0912H8.72379V10.0088Z" fill="#45262F"/>
<path d="M9.8024 10.0088H8.72363V11.0912H9.8024V10.0088Z" fill="#FEE762"/>
<path d="M10.8815 10.0088H9.80273V11.0912H10.8815V10.0088Z" fill="#FEE762"/>
<path d="M11.9601 10.0088H10.8813V11.0912H11.9601V10.0088Z" fill="#FEE762"/>
<path d="M13.0387 10.0088H11.96V11.0912H13.0387V10.0088Z" fill="#FEE762"/>
<path d="M14.1173 10.0088H13.0386V11.0912H14.1173V10.0088Z" fill="#45262F"/>
<path d="M15.1964 10.0088H14.1177V11.0912H15.1964V10.0088Z" fill="#45262F"/>
<path d="M16.2751 10.0088H15.1963V11.0912H16.2751V10.0088Z" fill="#45262F"/>
<path d="M17.3537 10.0088H16.2749V11.0912H17.3537V10.0088Z" fill="#45262F"/>
<path d="M18.4323 10.0088H17.3535V11.0912H18.4323V10.0088Z" fill="#45262F"/>
<path d="M19.5114 10.0088H18.4326V11.0912H19.5114V10.0088Z" fill="#45262F"/>
<path d="M20.5895 10.0088H19.5107V11.0912H20.5895V10.0088Z" fill="#45262F"/>
<path d="M21.6686 10.0088H20.5898V11.0912H21.6686V10.0088Z" fill="#45262F"/>
<path d="M22.7472 10.0088H21.6685V11.0912H22.7472V10.0088Z" fill="#45262F"/>
<path d="M23.8258 10.0088H22.7471V11.0912H23.8258V10.0088Z" fill="#45262F"/>
<path d="M24.9045 10.0088H23.8257V11.0912H24.9045V10.0088Z" fill="#45262F"/>
<path d="M25.9836 10.0088H24.9048V11.0912H25.9836V10.0088Z" fill="#45262F"/>
<path d="M27.0622 10.0088H25.9834V11.0912H27.0622V10.0088Z" fill="#45262F"/>
<path d="M28.1408 10.0088H27.062V11.0912H28.1408V10.0088Z" fill="#FEE762"/>
<path d="M29.2194 10.0088H28.1406V11.0912H29.2194V10.0088Z" fill="#FEE762"/>
<path d="M30.2985 10.0088H29.2197V11.0912H30.2985V10.0088Z" fill="#FEE762"/>
<path d="M31.3771 10.0088H30.2983V11.0912H31.3771V10.0088Z" fill="#FEE762"/>
<path d="M32.4557 10.0088H31.377V11.0912H32.4557V10.0088Z" fill="#45262F"/>
<path d="M34.6134 10.0088H33.5347V11.0912H34.6134V10.0088Z" fill="#45262F"/>
<path d="M35.692 10.0088H34.6133V11.0912H35.692V10.0088Z" fill="#F9AF3C"/>
<path d="M5.48746 11.0908H4.40869V12.1732H5.48746V11.0908Z" fill="#F9AF3C"/>
<path d="M6.56656 11.0908H5.48779V12.1732H6.56656V11.0908Z" fill="#45262F"/>
<path d="M8.72379 11.0908H7.64502V12.1732H8.72379V11.0908Z" fill="#45262F"/>
<path d="M9.8024 11.0908H8.72363V12.1732H9.8024V11.0908Z" fill="#FEE762"/>
<path d="M10.8815 11.0908H9.80273V12.1732H10.8815V11.0908Z" fill="#FEE762"/>
<path d="M11.9601 11.0908H10.8813V12.1732H11.9601V11.0908Z" fill="#FEE762"/>
<path d="M13.0387 11.0908H11.96V12.1732H13.0387V11.0908Z" fill="#FEE762"/>
<path d="M14.1173 11.0908H13.0386V12.1732H14.1173V11.0908Z" fill="#45262F"/>
<path d="M15.1964 11.0908H14.1177V12.1732H15.1964V11.0908Z" fill="#AF6B6B"/>
<path d="M16.2751 11.0908H15.1963V12.1732H16.2751V11.0908Z" fill="#AF6B6B"/>
<path d="M17.3537 11.0908H16.2749V12.1732H17.3537V11.0908Z" fill="#AF6B6B"/>
<path d="M18.4323 11.0908H17.3535V12.1732H18.4323V11.0908Z" fill="#964035"/>
<path d="M19.5114 11.0908H18.4326V12.1732H19.5114V11.0908Z" fill="#964035"/>
<path d="M20.5895 11.0908H19.5107V12.1732H20.5895V11.0908Z" fill="#964035"/>
<path d="M21.6686 11.0908H20.5898V12.1732H21.6686V11.0908Z" fill="#964035"/>
<path d="M22.7472 11.0908H21.6685V12.1732H22.7472V11.0908Z" fill="#964035"/>
<path d="M23.8258 11.0908H22.7471V12.1732H23.8258V11.0908Z" fill="#964035"/>
<path d="M24.9045 11.0908H23.8257V12.1732H24.9045V11.0908Z" fill="#964035"/>
<path d="M25.9836 11.0908H24.9048V12.1732H25.9836V11.0908Z" fill="#964035"/>
<path d="M27.0622 11.0908H25.9834V12.1732H27.0622V11.0908Z" fill="#45262F"/>
<path d="M28.1408 11.0908H27.062V12.1732H28.1408V11.0908Z" fill="#FEE762"/>
<path d="M29.2194 11.0908H28.1406V12.1732H29.2194V11.0908Z" fill="#FEE762"/>
<path d="M30.2985 11.0908H29.2197V12.1732H30.2985V11.0908Z" fill="#FEE762"/>
<path d="M31.3771 11.0908H30.2983V12.1732H31.3771V11.0908Z" fill="#FEE762"/>
<path d="M32.4557 11.0908H31.377V12.1732H32.4557V11.0908Z" fill="#45262F"/>
<path d="M34.6134 11.0908H33.5347V12.1732H34.6134V11.0908Z" fill="#45262F"/>
<path d="M35.692 11.0908H34.6133V12.1732H35.692V11.0908Z" fill="#F9AF3C"/>
<path d="M5.48746 12.1738H4.40869V13.2562H5.48746V12.1738Z" fill="#F9AF3C"/>
<path d="M6.56656 12.1738H5.48779V13.2562H6.56656V12.1738Z" fill="#45262F"/>
<path d="M8.72379 12.1738H7.64502V13.2562H8.72379V12.1738Z" fill="#45262F"/>
<path d="M9.8024 12.1738H8.72363V13.2562H9.8024V12.1738Z" fill="#F9AF3C"/>
<path d="M10.8815 12.1738H9.80273V13.2562H10.8815V12.1738Z" fill="#FEE762"/>
<path d="M11.9601 12.1738H10.8813V13.2562H11.9601V12.1738Z" fill="#F9AF3C"/>
<path d="M13.0387 12.1738H11.96V13.2562H13.0387V12.1738Z" fill="#FEE762"/>
<path d="M14.1173 12.1738H13.0386V13.2562H14.1173V12.1738Z" fill="#45262F"/>
<path d="M15.1964 12.1738H14.1177V13.2562H15.1964V12.1738Z" fill="#964035"/>
<path d="M16.2751 12.1738H15.1963V13.2562H16.2751V12.1738Z" fill="#964035"/>
<path d="M17.3537 12.1738H16.2749V13.2562H17.3537V12.1738Z" fill="#964035"/>
<path d="M18.4323 12.1738H17.3535V13.2562H18.4323V12.1738Z" fill="#964035"/>
<path d="M19.5114 12.1738H18.4326V13.2562H19.5114V12.1738Z" fill="#F8F8F9"/>
<path d="M20.5895 12.1738H19.5107V13.2562H20.5895V12.1738Z" fill="#F8F8F9"/>
<path d="M21.6686 12.1738H20.5898V13.2562H21.6686V12.1738Z" fill="#F8F8F9"/>
<path d="M22.7472 12.1738H21.6685V13.2562H22.7472V12.1738Z" fill="#964035"/>
<path d="M23.8258 12.1738H22.7471V13.2562H23.8258V12.1738Z" fill="#964035"/>
<path d="M24.9045 12.1738H23.8257V13.2562H24.9045V12.1738Z" fill="#964035"/>
<path d="M25.9836 12.1738H24.9048V13.2562H25.9836V12.1738Z" fill="#964035"/>
<path d="M27.0622 12.1738H25.9834V13.2562H27.0622V12.1738Z" fill="#45262F"/>
<path d="M28.1408 12.1738H27.062V13.2562H28.1408V12.1738Z" fill="#F9AF3C"/>
<path d="M29.2194 12.1738H28.1406V13.2562H29.2194V12.1738Z" fill="#FEE762"/>
<path d="M30.2985 12.1738H29.2197V13.2562H30.2985V12.1738Z" fill="#F9AF3C"/>
<path d="M31.3771 12.1738H30.2983V13.2562H31.3771V12.1738Z" fill="#FEE762"/>
<path d="M32.4557 12.1738H31.377V13.2562H32.4557V12.1738Z" fill="#45262F"/>
<path d="M34.6134 12.1738H33.5347V13.2562H34.6134V12.1738Z" fill="#45262F"/>
<path d="M35.692 12.1738H34.6133V13.2562H35.692V12.1738Z" fill="#F9AF3C"/>
<path d="M5.48746 13.2559H4.40869V14.3382H5.48746V13.2559Z" fill="#F9AF3C"/>
<path d="M6.56656 13.2559H5.48779V14.3382H6.56656V13.2559Z" fill="#45262F"/>
<path d="M8.72379 13.2559H7.64502V14.3382H8.72379V13.2559Z" fill="#45262F"/>
<path d="M9.8024 13.2559H8.72363V14.3382H9.8024V13.2559Z" fill="#F9AF3C"/>
<path d="M10.8815 13.2559H9.80273V14.3382H10.8815V13.2559Z" fill="#F9AF3C"/>
<path d="M11.9601 13.2559H10.8813V14.3382H11.9601V13.2559Z" fill="#F9AF3C"/>
<path d="M13.0387 13.2559H11.96V14.3382H13.0387V13.2559Z" fill="#FEE762"/>
<path d="M14.1173 13.2559H13.0386V14.3382H14.1173V13.2559Z" fill="#45262F"/>
<path d="M15.1964 13.2559H14.1177V14.3382H15.1964V13.2559Z" fill="#964035"/>
<path d="M16.2751 13.2559H15.1963V14.3382H16.2751V13.2559Z" fill="#964035"/>
<path d="M17.3537 13.2559H16.2749V14.3382H17.3537V13.2559Z" fill="#964035"/>
<path d="M18.4323 13.2559H17.3535V14.3382H18.4323V13.2559Z" fill="#F8F8F9"/>
<path d="M19.5114 13.2559H18.4326V14.3382H19.5114V13.2559Z" fill="#77312B"/>
<path d="M20.5895 13.2559H19.5107V14.3382H20.5895V13.2559Z" fill="#77312B"/>
<path d="M21.6686 13.2559H20.5898V14.3382H21.6686V13.2559Z" fill="#77312B"/>
<path d="M22.7472 13.2559H21.6685V14.3382H22.7472V13.2559Z" fill="#F8F8F9"/>
<path d="M23.8258 13.2559H22.7471V14.3382H23.8258V13.2559Z" fill="#964035"/>
<path d="M24.9045 13.2559H23.8257V14.3382H24.9045V13.2559Z" fill="#964035"/>
<path d="M25.9836 13.2559H24.9048V14.3382H25.9836V13.2559Z" fill="#964035"/>
<path d="M27.0622 13.2559H25.9834V14.3382H27.0622V13.2559Z" fill="#45262F"/>
<path d="M28.1408 13.2559H27.062V14.3382H28.1408V13.2559Z" fill="#F9AF3C"/>
<path d="M29.2194 13.2559H28.1406V14.3382H29.2194V13.2559Z" fill="#F9AF3C"/>
<path d="M30.2985 13.2559H29.2197V14.3382H30.2985V13.2559Z" fill="#F9AF3C"/>
<path d="M31.3771 13.2559H30.2983V14.3382H31.3771V13.2559Z" fill="#FEE762"/>
<path d="M32.4557 13.2559H31.377V14.3382H32.4557V13.2559Z" fill="#45262F"/>
<path d="M34.6134 13.2559H33.5347V14.3382H34.6134V13.2559Z" fill="#45262F"/>
<path d="M35.692 13.2559H34.6133V14.3382H35.692V13.2559Z" fill="#F9AF3C"/>
<path d="M5.48746 14.3379H4.40869V15.4203H5.48746V14.3379Z" fill="#F9AF3C"/>
<path d="M6.56656 14.3379H5.48779V15.4203H6.56656V14.3379Z" fill="#45262F"/>
<path d="M8.72379 14.3379H7.64502V15.4203H8.72379V14.3379Z" fill="#45262F"/>
<path d="M9.8024 14.3379H8.72363V15.4203H9.8024V14.3379Z" fill="#F9AF3C"/>
<path d="M10.8815 14.3379H9.80273V15.4203H10.8815V14.3379Z" fill="#F9AF3C"/>
<path d="M11.9601 14.3379H10.8813V15.4203H11.9601V14.3379Z" fill="#F9AF3C"/>
<path d="M13.0387 14.3379H11.96V15.4203H13.0387V14.3379Z" fill="#F9AF3C"/>
<path d="M14.1173 14.3379H13.0386V15.4203H14.1173V14.3379Z" fill="#45262F"/>
<path d="M15.1964 14.3379H14.1177V15.4203H15.1964V14.3379Z" fill="#964035"/>
<path d="M16.2751 14.3379H15.1963V15.4203H16.2751V14.3379Z" fill="#77312B"/>
<path d="M17.3537 14.3379H16.2749V15.4203H17.3537V14.3379Z" fill="#9B9DAA"/>
<path d="M18.4323 14.3379H17.3535V15.4203H18.4323V14.3379Z" fill="#F8F8F9"/>
<path d="M19.5114 14.3379H18.4326V15.4203H19.5114V14.3379Z" fill="#9B9DAA"/>
<path d="M20.5895 14.3379H19.5107V15.4203H20.5895V14.3379Z" fill="#9B9DAA"/>
<path d="M21.6686 14.3379H20.5898V15.4203H21.6686V14.3379Z" fill="#9B9DAA"/>
<path d="M22.7472 14.3379H21.6685V15.4203H22.7472V14.3379Z" fill="#F8F8F9"/>
<path d="M23.8258 14.3379H22.7471V15.4203H23.8258V14.3379Z" fill="#9B9DAA"/>
<path d="M24.9045 14.3379H23.8257V15.4203H24.9045V14.3379Z" fill="#964035"/>
<path d="M25.9836 14.3379H24.9048V15.4203H25.9836V14.3379Z" fill="#77312B"/>
<path d="M27.0622 14.3379H25.9834V15.4203H27.0622V14.3379Z" fill="#45262F"/>
<path d="M28.1408 14.3379H27.062V15.4203H28.1408V14.3379Z" fill="#F9AF3C"/>
<path d="M29.2194 14.3379H28.1406V15.4203H29.2194V14.3379Z" fill="#F9AF3C"/>
<path d="M30.2985 14.3379H29.2197V15.4203H30.2985V14.3379Z" fill="#F9AF3C"/>
<path d="M31.3771 14.3379H30.2983V15.4203H31.3771V14.3379Z" fill="#F9AF3C"/>
<path d="M32.4557 14.3379H31.377V15.4203H32.4557V14.3379Z" fill="#45262F"/>
<path d="M34.6134 14.3379H33.5347V15.4203H34.6134V14.3379Z" fill="#45262F"/>
<path d="M35.692 14.3379H34.6133V15.4203H35.692V14.3379Z" fill="#F9AF3C"/>
<path d="M5.48746 15.4199H4.40869V16.5023H5.48746V15.4199Z" fill="#F9AF3C"/>
<path d="M6.56656 15.4199H5.48779V16.5023H6.56656V15.4199Z" fill="#45262F"/>
<path d="M8.72379 15.4199H7.64502V16.5023H8.72379V15.4199Z" fill="#45262F"/>
<path d="M9.8024 15.4199H8.72363V16.5023H9.8024V15.4199Z" fill="#F9AF3C"/>
<path d="M10.8815 15.4199H9.80273V16.5023H10.8815V15.4199Z" fill="#F9AF3C"/>
<path d="M11.9601 15.4199H10.8813V16.5023H11.9601V15.4199Z" fill="#FA7322"/>
<path d="M13.0387 15.4199H11.96V16.5023H13.0387V15.4199Z" fill="#F9AF3C"/>
<path d="M14.1173 15.4199H13.0386V16.5023H14.1173V15.4199Z" fill="#45262F"/>
<path d="M15.1964 15.4199H14.1177V16.5023H15.1964V15.4199Z" fill="#77312B"/>
<path d="M16.2751 15.4199H15.1963V16.5023H16.2751V15.4199Z" fill="#77312B"/>
<path d="M17.3537 15.4199H16.2749V16.5023H17.3537V15.4199Z" fill="#9B9DAA"/>
<path d="M18.4323 15.4199H17.3535V16.5023H18.4323V15.4199Z" fill="black"/>
<path d="M19.5114 15.4199H18.4326V16.5023H19.5114V15.4199Z" fill="#9B9DAA"/>
<path d="M20.5895 15.4199H19.5107V16.5023H20.5895V15.4199Z" fill="#9B9DAA"/>
<path d="M21.6686 15.4199H20.5898V16.5023H21.6686V15.4199Z" fill="#9B9DAA"/>
<path d="M22.7472 15.4199H21.6685V16.5023H22.7472V15.4199Z" fill="black"/>
<path d="M23.8258 15.4199H22.7471V16.5023H23.8258V15.4199Z" fill="#9B9DAA"/>
<path d="M24.9045 15.4199H23.8257V16.5023H24.9045V15.4199Z" fill="#77312B"/>
<path d="M25.9836 15.4199H24.9048V16.5023H25.9836V15.4199Z" fill="#77312B"/>
<path d="M27.0622 15.4199H25.9834V16.5023H27.0622V15.4199Z" fill="#45262F"/>
<path d="M28.1408 15.4199H27.062V16.5023H28.1408V15.4199Z" fill="#F9AF3C"/>
<path d="M29.2194 15.4199H28.1406V16.5023H29.2194V15.4199Z" fill="#FA7322"/>
<path d="M30.2985 15.4199H29.2197V16.5023H30.2985V15.4199Z" fill="#F9AF3C"/>
<path d="M31.3771 15.4199H30.2983V16.5023H31.3771V15.4199Z" fill="#F9AF3C"/>
<path d="M32.4557 15.4199H31.377V16.5023H32.4557V15.4199Z" fill="#45262F"/>
<path d="M34.6134 15.4199H33.5347V16.5023H34.6134V15.4199Z" fill="#45262F"/>
<path d="M35.692 15.4199H34.6133V16.5023H35.692V15.4199Z" fill="#F9AF3C"/>
<path d="M5.48746 16.5029H4.40869V17.5853H5.48746V16.5029Z" fill="#F9AF3C"/>
<path d="M4.40885 8.92676H3.33008V10.0091H4.40885V8.92676Z" fill="#F9AF3C"/>
<path d="M4.40885 10.0088H3.33008V11.0912H4.40885V10.0088Z" fill="#F9AF3C"/>
<path d="M4.40885 11.0908H3.33008V12.1732H4.40885V11.0908Z" fill="#F9AF3C"/>
<path d="M4.40885 12.1738H3.33008V13.2562H4.40885V12.1738Z" fill="#F9AF3C"/>
<path d="M4.40885 13.2559H3.33008V14.3382H4.40885V13.2559Z" fill="#F9AF3C"/>
<path d="M4.40885 14.3379H3.33008V15.4203H4.40885V14.3379Z" fill="#F9AF3C"/>
<path d="M4.40885 15.4199H3.33008V16.5023H4.40885V15.4199Z" fill="#F9AF3C"/>
<path d="M4.40885 16.5029H3.33008V17.5853H4.40885V16.5029Z" fill="#F9AF3C"/>
<path d="M6.56656 16.5029H5.48779V17.5853H6.56656V16.5029Z" fill="#45262F"/>
<path d="M8.72379 16.5029H7.64502V17.5853H8.72379V16.5029Z" fill="#45262F"/>
<path d="M9.8024 16.5029H8.72363V17.5853H9.8024V16.5029Z" fill="#F9AF3C"/>
<path d="M10.8815 16.5029H9.80273V17.5853H10.8815V16.5029Z" fill="#FA7322"/>
<path d="M11.9601 16.5029H10.8813V17.5853H11.9601V16.5029Z" fill="#FA7322"/>
<path d="M13.0387 16.5029H11.96V17.5853H13.0387V16.5029Z" fill="#F9AF3C"/>
<path d="M14.1173 16.5029H13.0386V17.5853H14.1173V16.5029Z" fill="#45262F"/>
<path d="M15.1964 16.5029H14.1177V17.5853H15.1964V16.5029Z" fill="#77312B"/>
<path d="M16.2751 16.5029H15.1963V17.5853H16.2751V16.5029Z" fill="#77312B"/>
<path d="M17.3537 16.5029H16.2749V17.5853H17.3537V16.5029Z" fill="#F8F8F9"/>
<path d="M18.4323 16.5029H17.3535V17.5853H18.4323V16.5029Z" fill="#F8F8F9"/>
<path d="M19.5114 16.5029H18.4326V17.5853H19.5114V16.5029Z" fill="#F8F8F9"/>
<path d="M20.5895 16.5029H19.5107V17.5853H20.5895V16.5029Z" fill="#F8F8F9"/>
<path d="M21.6686 16.5029H20.5898V17.5853H21.6686V16.5029Z" fill="#F8F8F9"/>
<path d="M22.7472 16.5029H21.6685V17.5853H22.7472V16.5029Z" fill="#9B9DAA"/>
<path d="M23.8258 16.5029H22.7471V17.5853H23.8258V16.5029Z" fill="#9B9DAA"/>
<path d="M24.9045 16.5029H23.8257V17.5853H24.9045V16.5029Z" fill="#77312B"/>
<path d="M25.9836 16.5029H24.9048V17.5853H25.9836V16.5029Z" fill="#77312B"/>
<path d="M27.0622 16.5029H25.9834V17.5853H27.0622V16.5029Z" fill="#45262F"/>
<path d="M28.1408 16.5029H27.062V17.5853H28.1408V16.5029Z" fill="#F9AF3C"/>
<path d="M29.2194 16.5029H28.1406V17.5853H29.2194V16.5029Z" fill="#FA7322"/>
<path d="M30.2985 16.5029H29.2197V17.5853H30.2985V16.5029Z" fill="#FA7322"/>
<path d="M31.3771 16.5029H30.2983V17.5853H31.3771V16.5029Z" fill="#F9AF3C"/>
<path d="M32.4557 16.5029H31.377V17.5853H32.4557V16.5029Z" fill="#45262F"/>
<path d="M34.6134 16.5029H33.5347V17.5853H34.6134V16.5029Z" fill="#45262F"/>
<path d="M35.692 16.5029H34.6133V17.5853H35.692V16.5029Z" fill="#F9AF3C"/>
<path d="M36.7707 8.92676H35.6919V10.0091H36.7707V8.92676Z" fill="#F9AF3C"/>
<path d="M36.7707 10.0088H35.6919V11.0912H36.7707V10.0088Z" fill="#F9AF3C"/>
<path d="M36.7707 11.0908H35.6919V12.1732H36.7707V11.0908Z" fill="#F9AF3C"/>
<path d="M36.7707 12.1738H35.6919V13.2562H36.7707V12.1738Z" fill="#F9AF3C"/>
<path d="M36.7707 13.2559H35.6919V14.3382H36.7707V13.2559Z" fill="#F9AF3C"/>
<path d="M36.7707 14.3379H35.6919V15.4203H36.7707V14.3379Z" fill="#F9AF3C"/>
<path d="M36.7707 15.4199H35.6919V16.5023H36.7707V15.4199Z" fill="#F9AF3C"/>
<path d="M36.7707 16.5029H35.6919V17.5853H36.7707V16.5029Z" fill="#F9AF3C"/>
<path d="M4.40885 17.585H3.33008V18.6673H4.40885V17.585Z" fill="#F9AF3C"/>
<path d="M5.48746 17.585H4.40869V18.6673H5.48746V17.585Z" fill="#F9AF3C"/>
<path d="M6.56656 17.585H5.48779V18.6673H6.56656V17.585Z" fill="#45262F"/>
<path d="M8.72379 17.585H7.64502V18.6673H8.72379V17.585Z" fill="#45262F"/>
<path d="M9.8024 17.585H8.72363V18.6673H9.8024V17.585Z" fill="#FA7322"/>
<path d="M10.8815 17.585H9.80273V18.6673H10.8815V17.585Z" fill="#FA7322"/>
<path d="M11.9601 17.585H10.8813V18.6673H11.9601V17.585Z" fill="#FA7322"/>
<path d="M13.0387 17.585H11.96V18.6673H13.0387V17.585Z" fill="#FA7322"/>
<path d="M14.1173 17.585H13.0386V18.6673H14.1173V17.585Z" fill="#45262F"/>
<path d="M15.1964 17.585H14.1177V18.6673H15.1964V17.585Z" fill="#45262F"/>
<path d="M16.2751 17.585H15.1963V18.6673H16.2751V17.585Z" fill="#45262F"/>
<path d="M17.3537 17.585H16.2749V18.6673H17.3537V17.585Z" fill="#9B9DAA"/>
<path d="M18.4323 17.585H17.3535V18.6673H18.4323V17.585Z" fill="#9B9DAA"/>
<path d="M19.5114 17.585H18.4326V18.6673H19.5114V17.585Z" fill="#9B9DAA"/>
<path d="M20.5895 17.585H19.5107V18.6673H20.5895V17.585Z" fill="#9B9DAA"/>
<path d="M21.6686 17.585H20.5898V18.6673H21.6686V17.585Z" fill="#9B9DAA"/>
<path d="M22.7472 17.585H21.6685V18.6673H22.7472V17.585Z" fill="#9B9DAA"/>
<path d="M23.8258 17.585H22.7471V18.6673H23.8258V17.585Z" fill="#6A6C7B"/>
<path d="M24.9045 17.585H23.8257V18.6673H24.9045V17.585Z" fill="#45262F"/>
<path d="M25.9836 17.585H24.9048V18.6673H25.9836V17.585Z" fill="#45262F"/>
<path d="M27.0622 17.585H25.9834V18.6673H27.0622V17.585Z" fill="#45262F"/>
<path d="M28.1408 17.585H27.062V18.6673H28.1408V17.585Z" fill="#FA7322"/>
<path d="M29.2194 17.585H28.1406V18.6673H29.2194V17.585Z" fill="#FA7322"/>
<path d="M30.2985 17.585H29.2197V18.6673H30.2985V17.585Z" fill="#FA7322"/>
<path d="M31.3771 17.585H30.2983V18.6673H31.3771V17.585Z" fill="#FA7322"/>
<path d="M32.4557 17.585H31.377V18.6673H32.4557V17.585Z" fill="#45262F"/>
<path d="M34.6134 17.585H33.5347V18.6673H34.6134V17.585Z" fill="#45262F"/>
<path d="M35.692 17.585H34.6133V18.6673H35.692V17.585Z" fill="#F9AF3C"/>
<path d="M36.7707 17.585H35.6919V18.6673H36.7707V17.585Z" fill="#F9AF3C"/>
<path d="M4.40885 18.667H3.33008V19.7494H4.40885V18.667Z" fill="#F9AF3C"/>
<path d="M5.48746 18.667H4.40869V19.7494H5.48746V18.667Z" fill="#F9AF3C"/>
<path d="M6.56656 18.667H5.48779V19.7494H6.56656V18.667Z" fill="#F9AF3C"/>
<path d="M8.72379 18.667H7.64502V19.7494H8.72379V18.667Z" fill="#F9AF3C"/>
<path d="M9.8024 18.667H8.72363V19.7494H9.8024V18.667Z" fill="#F9AF3C"/>
<path d="M10.8815 18.667H9.80273V19.7494H10.8815V18.667Z" fill="#F9AF3C"/>
<path d="M11.9601 18.667H10.8813V19.7494H11.9601V18.667Z" fill="#F9AF3C"/>
<path d="M13.0387 18.667H11.96V19.7494H13.0387V18.667Z" fill="#F9AF3C"/>
<path d="M14.1173 18.667H13.0386V19.7494H14.1173V18.667Z" fill="#F9AF3C"/>
<path d="M15.1964 18.667H14.1177V19.7494H15.1964V18.667Z" fill="#F9AF3C"/>
<path d="M16.2751 18.667H15.1963V19.7494H16.2751V18.667Z" fill="#F9AF3C"/>
<path d="M17.3537 18.667H16.2749V19.7494H17.3537V18.667Z" fill="#9B9DAA"/>
<path d="M18.4323 18.667H17.3535V19.7494H18.4323V18.667Z" fill="#9B9DAA"/>
<path d="M19.5114 18.667H18.4326V19.7494H19.5114V18.667Z" fill="#9B9DAA"/>
<path d="M20.5895 18.667H19.5107V19.7494H20.5895V18.667Z" fill="black"/>
<path d="M21.6686 18.667H20.5898V19.7494H21.6686V18.667Z" fill="#9B9DAA"/>
<path d="M22.7472 18.667H21.6685V19.7494H22.7472V18.667Z" fill="#9B9DAA"/>
<path d="M23.8258 18.667H22.7471V19.7494H23.8258V18.667Z" fill="#6A6C7B"/>
<path d="M24.9045 18.667H23.8257V19.7494H24.9045V18.667Z" fill="#F9AF3C"/>
<path d="M25.9836 18.667H24.9048V19.7494H25.9836V18.667Z" fill="#F9AF3C"/>
<path d="M27.0622 18.667H25.9834V19.7494H27.0622V18.667Z" fill="#F9AF3C"/>
<path d="M28.1408 18.667H27.062V19.7494H28.1408V18.667Z" fill="#F9AF3C"/>
<path d="M29.2194 18.667H28.1406V19.7494H29.2194V18.667Z" fill="#F9AF3C"/>
<path d="M30.2985 18.667H29.2197V19.7494H30.2985V18.667Z" fill="#F9AF3C"/>
<path d="M31.3771 18.667H30.2983V19.7494H31.3771V18.667Z" fill="#F9AF3C"/>
<path d="M32.4557 18.667H31.377V19.7494H32.4557V18.667Z" fill="#F9AF3C"/>
<path d="M34.6134 18.667H33.5347V19.7494H34.6134V18.667Z" fill="#F9AF3C"/>
<path d="M35.692 18.667H34.6133V19.7494H35.692V18.667Z" fill="#F9AF3C"/>
<path d="M36.7707 18.667H35.6919V19.7494H36.7707V18.667Z" fill="#F9AF3C"/>
<path d="M4.40885 19.75H3.33008V20.8324H4.40885V19.75Z" fill="#FA7322"/>
<path d="M5.48746 19.75H4.40869V20.8324H5.48746V19.75Z" fill="#FA7322"/>
<path d="M6.56656 19.75H5.48779V20.8324H6.56656V19.75Z" fill="#FA7322"/>
<path d="M7.64517 3.51465H6.56641V4.59701H7.64517V3.51465Z" fill="#45262F"/>
<path d="M7.64517 4.59668H6.56641V5.67904H7.64517V4.59668Z" fill="#AF6B6B"/>
<path d="M7.64517 5.67969H6.56641V6.76205H7.64517V5.67969Z" fill="#964035"/>
<path d="M7.64517 6.76172H6.56641V7.84408H7.64517V6.76172Z" fill="#964035"/>
<path d="M7.64517 7.84375H6.56641V8.92611H7.64517V7.84375Z" fill="#AF6B6B"/>
<path d="M7.64517 8.92676H6.56641V10.0091H7.64517V8.92676Z" fill="#AF6B6B"/>
<path d="M7.64517 10.0088H6.56641V11.0912H7.64517V10.0088Z" fill="#45262F"/>
<path d="M7.64517 11.0908H6.56641V12.1732H7.64517V11.0908Z" fill="#AF6B6B"/>
<path d="M7.64517 12.1738H6.56641V13.2562H7.64517V12.1738Z" fill="#964035"/>
<path d="M7.64517 13.2559H6.56641V14.3382H7.64517V13.2559Z" fill="#964035"/>
<path d="M7.64517 14.3379H6.56641V15.4203H7.64517V14.3379Z" fill="#964035"/>
<path d="M7.64517 15.4199H6.56641V16.5023H7.64517V15.4199Z" fill="#77312B"/>
<path d="M7.64517 16.5029H6.56641V17.5853H7.64517V16.5029Z" fill="#77312B"/>
<path d="M7.64517 17.585H6.56641V18.6673H7.64517V17.585Z" fill="#45262F"/>
<path d="M7.64517 18.667H6.56641V19.7494H7.64517V18.667Z" fill="#F9AF3C"/>
<path d="M7.64517 19.75H6.56641V20.8324H7.64517V19.75Z" fill="#FA7322"/>
<path d="M8.72379 19.75H7.64502V20.8324H8.72379V19.75Z" fill="#FA7322"/>
<path d="M9.8024 19.75H8.72363V20.8324H9.8024V19.75Z" fill="#FA7322"/>
<path d="M10.8815 19.75H9.80273V20.8324H10.8815V19.75Z" fill="#FA7322"/>
<path d="M11.9601 19.75H10.8813V20.8324H11.9601V19.75Z" fill="#FA7322"/>
<path d="M13.0387 19.75H11.96V20.8324H13.0387V19.75Z" fill="#FA7322"/>
<path d="M14.1173 19.75H13.0386V20.8324H14.1173V19.75Z" fill="#FA7322"/>
<path d="M15.1964 19.75H14.1177V20.8324H15.1964V19.75Z" fill="#FA7322"/>
<path d="M16.2751 19.75H15.1963V20.8324H16.2751V19.75Z" fill="#FA7322"/>
<path d="M17.3537 19.75H16.2749V20.8324H17.3537V19.75Z" fill="#9B9DAA"/>
<path d="M18.4323 19.75H17.3535V20.8324H18.4323V19.75Z" fill="#9B9DAA"/>
<path d="M19.5114 19.75H18.4326V20.8324H19.5114V19.75Z" fill="#9B9DAA"/>
<path d="M20.5895 19.75H19.5107V20.8324H20.5895V19.75Z" fill="black"/>
<path d="M21.6686 19.75H20.5898V20.8324H21.6686V19.75Z" fill="#9B9DAA"/>
<path d="M22.7472 19.75H21.6685V20.8324H22.7472V19.75Z" fill="#6A6C7B"/>
<path d="M23.8258 19.75H22.7471V20.8324H23.8258V19.75Z" fill="#6A6C7B"/>
<path d="M24.9045 19.75H23.8257V20.8324H24.9045V19.75Z" fill="#FA7322"/>
<path d="M25.9836 19.75H24.9048V20.8324H25.9836V19.75Z" fill="#FA7322"/>
<path d="M27.0622 19.75H25.9834V20.8324H27.0622V19.75Z" fill="#FA7322"/>
<path d="M28.1408 19.75H27.062V20.8324H28.1408V19.75Z" fill="#FA7322"/>
<path d="M29.2194 19.75H28.1406V20.8324H29.2194V19.75Z" fill="#FA7322"/>
<path d="M30.2985 19.75H29.2197V20.8324H30.2985V19.75Z" fill="#FA7322"/>
<path d="M31.3771 19.75H30.2983V20.8324H31.3771V19.75Z" fill="#FA7322"/>
<path d="M32.4557 19.75H31.377V20.8324H32.4557V19.75Z" fill="#FA7322"/>
<path d="M33.5343 3.51465H32.4556V4.59701H33.5343V3.51465Z" fill="#45262F"/>
<path d="M33.5343 4.59668H32.4556V5.67904H33.5343V4.59668Z" fill="#964035"/>
<path d="M33.5343 5.67969H32.4556V6.76205H33.5343V5.67969Z" fill="#AF6B6B"/>
<path d="M33.5343 6.76172H32.4556V7.84408H33.5343V6.76172Z" fill="#AF6B6B"/>
<path d="M33.5343 7.84375H32.4556V8.92611H33.5343V7.84375Z" fill="#964035"/>
<path d="M33.5343 8.92676H32.4556V10.0091H33.5343V8.92676Z" fill="#964035"/>
<path d="M33.5343 10.0088H32.4556V11.0912H33.5343V10.0088Z" fill="#45262F"/>
<path d="M33.5343 11.0908H32.4556V12.1732H33.5343V11.0908Z" fill="#964035"/>
<path d="M33.5343 12.1738H32.4556V13.2562H33.5343V12.1738Z" fill="#964035"/>
<path d="M33.5343 13.2559H32.4556V14.3382H33.5343V13.2559Z" fill="#964035"/>
<path d="M33.5343 14.3379H32.4556V15.4203H33.5343V14.3379Z" fill="#964035"/>
<path d="M33.5343 15.4199H32.4556V16.5023H33.5343V15.4199Z" fill="#77312B"/>
<path d="M33.5343 16.5029H32.4556V17.5853H33.5343V16.5029Z" fill="#77312B"/>
<path d="M33.5343 17.585H32.4556V18.6673H33.5343V17.585Z" fill="#45262F"/>
<path d="M33.5343 18.667H32.4556V19.7494H33.5343V18.667Z" fill="#F9AF3C"/>
<path d="M33.5343 19.75H32.4556V20.8324H33.5343V19.75Z" fill="#FA7322"/>
<path d="M34.6134 19.75H33.5347V20.8324H34.6134V19.75Z" fill="#FA7322"/>
<path d="M35.692 19.75H34.6133V20.8324H35.692V19.75Z" fill="#FA7322"/>
<path d="M36.7707 19.75H35.6919V20.8324H36.7707V19.75Z" fill="#FA7322"/>
<path d="M7.64517 20.832H6.56641V21.9144H7.64517V20.832Z" fill="#F9AF3C"/>
<path d="M8.72379 20.832H7.64502V21.9144H8.72379V20.832Z" fill="#45262F"/>
<path d="M9.8024 20.832H8.72363V21.9144H9.8024V20.832Z" fill="#45262F"/>
<path d="M10.8815 20.832H9.80273V21.9144H10.8815V20.832Z" fill="#45262F"/>
<path d="M11.9601 20.832H10.8813V21.9144H11.9601V20.832Z" fill="#45262F"/>
<path d="M13.0387 20.832H11.96V21.9144H13.0387V20.832Z" fill="#45262F"/>
<path d="M14.1173 20.832H13.0386V21.9144H14.1173V20.832Z" fill="#45262F"/>
<path d="M15.1964 20.832H14.1177V21.9144H15.1964V20.832Z" fill="#45262F"/>
<path d="M16.2751 20.832H15.1963V21.9144H16.2751V20.832Z" fill="#45262F"/>
<path d="M17.3537 20.832H16.2749V21.9144H17.3537V20.832Z" fill="#9B9DAA"/>
<path d="M18.4323 20.832H17.3535V21.9144H18.4323V20.832Z" fill="#9B9DAA"/>
<path d="M19.5114 20.832H18.4326V21.9144H19.5114V20.832Z" fill="#9B9DAA"/>
<path d="M20.5895 20.832H19.5107V21.9144H20.5895V20.832Z" fill="#F8F8F9"/>
<path d="M21.6686 20.832H20.5898V21.9144H21.6686V20.832Z" fill="#9B9DAA"/>
<path d="M22.7472 20.832H21.6685V21.9144H22.7472V20.832Z" fill="#6A6C7B"/>
<path d="M23.8258 20.832H22.7471V21.9144H23.8258V20.832Z" fill="#6A6C7B"/>
<path d="M24.9045 20.832H23.8257V21.9144H24.9045V20.832Z" fill="#45262F"/>
<path d="M25.9836 20.832H24.9048V21.9144H25.9836V20.832Z" fill="#45262F"/>
<path d="M27.0622 20.832H25.9834V21.9144H27.0622V20.832Z" fill="#45262F"/>
<path d="M28.1408 20.832H27.062V21.9144H28.1408V20.832Z" fill="#45262F"/>
<path d="M29.2194 20.832H28.1406V21.9144H29.2194V20.832Z" fill="#45262F"/>
<path d="M30.2985 20.832H29.2197V21.9144H30.2985V20.832Z" fill="#45262F"/>
<path d="M31.3771 20.832H30.2983V21.9144H31.3771V20.832Z" fill="#45262F"/>
<path d="M32.4557 20.832H31.377V21.9144H32.4557V20.832Z" fill="#45262F"/>
<path d="M33.5343 20.832H32.4556V21.9144H33.5343V20.832Z" fill="#F9AF3C"/>
<path d="M7.64517 24.0791H6.56641V25.1615H7.64517V24.0791Z" fill="#F9AF3C"/>
<path d="M8.72379 24.0791H7.64502V25.1615H8.72379V24.0791Z" fill="#45262F"/>
<path d="M9.8024 24.0791H8.72363V25.1615H9.8024V24.0791Z" fill="#77312B"/>
<path d="M10.8815 24.0791H9.80273V25.1615H10.8815V24.0791Z" fill="#77312B"/>
<path d="M11.9601 24.0791H10.8813V25.1615H11.9601V24.0791Z" fill="#77312B"/>
<path d="M13.0387 24.0791H11.96V25.1615H13.0387V24.0791Z" fill="#77312B"/>
<path d="M14.1173 24.0791H13.0386V25.1615H14.1173V24.0791Z" fill="#45262F"/>
<path d="M15.1964 24.0791H14.1177V25.1615H15.1964V24.0791Z" fill="#77312B"/>
<path d="M16.2751 24.0791H15.1963V25.1615H16.2751V24.0791Z" fill="#77312B"/>
<path d="M17.3537 24.0791H16.2749V25.1615H17.3537V24.0791Z" fill="#77312B"/>
<path d="M18.4323 24.0791H17.3535V25.1615H18.4323V24.0791Z" fill="#964035"/>
<path d="M19.5114 24.0791H18.4326V25.1615H19.5114V24.0791Z" fill="#964035"/>
<path d="M20.5895 24.0791H19.5107V25.1615H20.5895V24.0791Z" fill="#964035"/>
<path d="M21.6686 24.0791H20.5898V25.1615H21.6686V24.0791Z" fill="#964035"/>
<path d="M22.7472 24.0791H21.6685V25.1615H22.7472V24.0791Z" fill="#77312B"/>
<path d="M23.8258 24.0791H22.7471V25.1615H23.8258V24.0791Z" fill="#77312B"/>
<path d="M24.9045 24.0791H23.8257V25.1615H24.9045V24.0791Z" fill="#77312B"/>
<path d="M25.9836 24.0791H24.9048V25.1615H25.9836V24.0791Z" fill="#77312B"/>
<path d="M27.0622 24.0791H25.9834V25.1615H27.0622V24.0791Z" fill="#45262F"/>
<path d="M28.1408 24.0791H27.062V25.1615H28.1408V24.0791Z" fill="#77312B"/>
<path d="M29.2194 24.0791H28.1406V25.1615H29.2194V24.0791Z" fill="#77312B"/>
<path d="M30.2985 24.0791H29.2197V25.1615H30.2985V24.0791Z" fill="#77312B"/>
<path d="M31.3771 24.0791H30.2983V25.1615H31.3771V24.0791Z" fill="#964035"/>
<path d="M32.4557 24.0791H31.377V25.1615H32.4557V24.0791Z" fill="#45262F"/>
<path d="M33.5343 24.0791H32.4556V25.1615H33.5343V24.0791Z" fill="#F9AF3C"/>
<path d="M7.64517 25.1611H6.56641V26.2435H7.64517V25.1611Z" fill="#F9AF3C"/>
<path d="M8.72379 25.1611H7.64502V26.2435H8.72379V25.1611Z" fill="#77312B"/>
<path d="M9.8024 25.1611H8.72363V26.2435H9.8024V25.1611Z" fill="#77312B"/>
<path d="M10.8815 25.1611H9.80273V26.2435H10.8815V25.1611Z" fill="#77312B"/>
<path d="M11.9601 25.1611H10.8813V26.2435H11.9601V25.1611Z" fill="#77312B"/>
<path d="M13.0387 25.1611H11.96V26.2435H13.0387V25.1611Z" fill="#77312B"/>
<path d="M14.1173 25.1611H13.0386V26.2435H14.1173V25.1611Z" fill="#45262F"/>
<path d="M15.1964 25.1611H14.1177V26.2435H15.1964V25.1611Z" fill="#77312B"/>
<path d="M16.2751 25.1611H15.1963V26.2435H16.2751V25.1611Z" fill="#77312B"/>
<path d="M17.3537 25.1611H16.2749V26.2435H17.3537V25.1611Z" fill="#77312B"/>
<path d="M18.4323 25.1611H17.3535V26.2435H18.4323V25.1611Z" fill="#77312B"/>
<path d="M19.5114 25.1611H18.4326V26.2435H19.5114V25.1611Z" fill="#77312B"/>
<path d="M20.5895 25.1611H19.5107V26.2435H20.5895V25.1611Z" fill="#77312B"/>
<path d="M21.6686 25.1611H20.5898V26.2435H21.6686V25.1611Z" fill="#77312B"/>
<path d="M22.7472 25.1611H21.6685V26.2435H22.7472V25.1611Z" fill="#77312B"/>
<path d="M23.8258 25.1611H22.7471V26.2435H23.8258V25.1611Z" fill="#77312B"/>
<path d="M24.9045 25.1611H23.8257V26.2435H24.9045V25.1611Z" fill="#77312B"/>
<path d="M25.9836 25.1611H24.9048V26.2435H25.9836V25.1611Z" fill="#77312B"/>
<path d="M27.0622 25.1611H25.9834V26.2435H27.0622V25.1611Z" fill="#77312B"/>
<path d="M28.1408 25.1611H27.062V26.2435H28.1408V25.1611Z" fill="#77312B"/>
<path d="M29.2194 25.1611H28.1406V26.2435H29.2194V25.1611Z" fill="#77312B"/>
<path d="M30.2985 25.1611H29.2197V26.2435H30.2985V25.1611Z" fill="#77312B"/>
<path d="M31.3771 25.1611H30.2983V26.2435H31.3771V25.1611Z" fill="#77312B"/>
<path d="M32.4557 25.1611H31.377V26.2435H32.4557V25.1611Z" fill="#45262F"/>
<path d="M33.5343 25.1611H32.4556V26.2435H33.5343V25.1611Z" fill="#F9AF3C"/>
<path d="M7.64517 26.2432H6.56641V27.3255H7.64517V26.2432Z" fill="#F9AF3C"/>
<path d="M8.72379 26.2432H7.64502V27.3255H8.72379V26.2432Z" fill="#45262F"/>
<path d="M9.8024 26.2432H8.72363V27.3255H9.8024V26.2432Z" fill="#77312B"/>
<path d="M10.8815 26.2432H9.80273V27.3255H10.8815V26.2432Z" fill="#77312B"/>
<path d="M11.9601 26.2432H10.8813V27.3255H11.9601V26.2432Z" fill="#77312B"/>
<path d="M13.0387 26.2432H11.96V27.3255H13.0387V26.2432Z" fill="#77312B"/>
<path d="M14.1173 26.2432H13.0386V27.3255H14.1173V26.2432Z" fill="#77312B"/>
<path d="M15.1964 26.2432H14.1177V27.3255H15.1964V26.2432Z" fill="#77312B"/>
<path d="M16.2751 26.2432H15.1963V27.3255H16.2751V26.2432Z" fill="#77312B"/>
<path d="M17.3537 26.2432H16.2749V27.3255H17.3537V26.2432Z" fill="#77312B"/>
<path d="M18.4323 26.2432H17.3535V27.3255H18.4323V26.2432Z" fill="#77312B"/>
<path d="M19.5114 26.2432H18.4326V27.3255H19.5114V26.2432Z" fill="#77312B"/>
<path d="M20.5895 26.2432H19.5107V27.3255H20.5895V26.2432Z" fill="#77312B"/>
<path d="M21.6686 26.2432H20.5898V27.3255H21.6686V26.2432Z" fill="#77312B"/>
<path d="M22.7472 26.2432H21.6685V27.3255H22.7472V26.2432Z" fill="#77312B"/>
<path d="M23.8258 26.2432H22.7471V27.3255H23.8258V26.2432Z" fill="#77312B"/>
<path d="M24.9045 26.2432H23.8257V27.3255H24.9045V26.2432Z" fill="#77312B"/>
<path d="M25.9836 26.2432H24.9048V27.3255H25.9836V26.2432Z" fill="#77312B"/>
<path d="M27.0622 26.2432H25.9834V27.3255H27.0622V26.2432Z" fill="#45262F"/>
<path d="M28.1408 26.2432H27.062V27.3255H28.1408V26.2432Z" fill="#77312B"/>
<path d="M29.2194 26.2432H28.1406V27.3255H29.2194V26.2432Z" fill="#77312B"/>
<path d="M30.2985 26.2432H29.2197V27.3255H30.2985V26.2432Z" fill="#77312B"/>
<path d="M31.3771 26.2432H30.2983V27.3255H31.3771V26.2432Z" fill="#77312B"/>
<path d="M32.4557 26.2432H31.377V27.3255H32.4557V26.2432Z" fill="#77312B"/>
<path d="M33.5343 26.2432H32.4556V27.3255H33.5343V26.2432Z" fill="#F9AF3C"/>
<path d="M7.64517 27.3262H6.56641V28.4085H7.64517V27.3262Z" fill="#F9AF3C"/>
<path d="M8.72379 27.3262H7.64502V28.4085H8.72379V27.3262Z" fill="#45262F"/>
<path d="M9.8024 27.3262H8.72363V28.4085H9.8024V27.3262Z" fill="#77312B"/>
<path d="M10.8815 27.3262H9.80273V28.4085H10.8815V27.3262Z" fill="#77312B"/>
<path d="M11.9601 27.3262H10.8813V28.4085H11.9601V27.3262Z" fill="#77312B"/>
<path d="M13.0387 27.3262H11.96V28.4085H13.0387V27.3262Z" fill="#77312B"/>
<path d="M14.1173 27.3262H13.0386V28.4085H14.1173V27.3262Z" fill="#45262F"/>
<path d="M15.1964 27.3262H14.1177V28.4085H15.1964V27.3262Z" fill="#77312B"/>
<path d="M16.2751 27.3262H15.1963V28.4085H16.2751V27.3262Z" fill="#77312B"/>
<path d="M17.3537 27.3262H16.2749V28.4085H17.3537V27.3262Z" fill="#77312B"/>
<path d="M18.4323 27.3262H17.3535V28.4085H18.4323V27.3262Z" fill="#77312B"/>
<path d="M19.5114 27.3262H18.4326V28.4085H19.5114V27.3262Z" fill="#77312B"/>
<path d="M20.5895 27.3262H19.5107V28.4085H20.5895V27.3262Z" fill="#77312B"/>
<path d="M21.6686 27.3262H20.5898V28.4085H21.6686V27.3262Z" fill="#77312B"/>
<path d="M22.7472 27.3262H21.6685V28.4085H22.7472V27.3262Z" fill="#77312B"/>
<path d="M23.8258 27.3262H22.7471V28.4085H23.8258V27.3262Z" fill="#77312B"/>
<path d="M24.9045 27.3262H23.8257V28.4085H24.9045V27.3262Z" fill="#77312B"/>
<path d="M25.9836 27.3262H24.9048V28.4085H25.9836V27.3262Z" fill="#77312B"/>
<path d="M27.0622 27.3262H25.9834V28.4085H27.0622V27.3262Z" fill="#45262F"/>
<path d="M28.1408 27.3262H27.062V28.4085H28.1408V27.3262Z" fill="#77312B"/>
<path d="M29.2194 27.3262H28.1406V28.4085H29.2194V27.3262Z" fill="#77312B"/>
<path d="M30.2985 27.3262H29.2197V28.4085H30.2985V27.3262Z" fill="#77312B"/>
<path d="M31.3771 27.3262H30.2983V28.4085H31.3771V27.3262Z" fill="#77312B"/>
<path d="M32.4557 27.3262H31.377V28.4085H32.4557V27.3262Z" fill="#45262F"/>
<path d="M33.5343 27.3262H32.4556V28.4085H33.5343V27.3262Z" fill="#F9AF3C"/>
<path d="M8.72379 28.4082H7.64502V29.4906H8.72379V28.4082Z" fill="#F9AF3C"/>
<path d="M7.64517 28.4082H6.56641V29.4906H7.64517V28.4082Z" fill="#F9AF3C"/>
<path d="M6.56656 20.832H5.48779V21.9144H6.56656V20.832Z" fill="#F9AF3C"/>
<path d="M6.56656 24.0791H5.48779V25.1615H6.56656V24.0791Z" fill="#F9AF3C"/>
<path d="M6.56656 25.1611H5.48779V26.2435H6.56656V25.1611Z" fill="#F9AF3C"/>
<path d="M6.56656 26.2432H5.48779V27.3255H6.56656V26.2432Z" fill="#F9AF3C"/>
<path d="M6.56656 27.3262H5.48779V28.4085H6.56656V27.3262Z" fill="#F9AF3C"/>
<path d="M6.56656 28.4082H5.48779V29.4906H6.56656V28.4082Z" fill="#F9AF3C"/>
<path d="M9.8024 28.4082H8.72363V29.4906H9.8024V28.4082Z" fill="#F9AF3C"/>
<path d="M10.8815 28.4082H9.80273V29.4906H10.8815V28.4082Z" fill="#F9AF3C"/>
<path d="M11.9601 28.4082H10.8813V29.4906H11.9601V28.4082Z" fill="#F9AF3C"/>
<path d="M13.0387 28.4082H11.96V29.4906H13.0387V28.4082Z" fill="#F9AF3C"/>
<path d="M14.1173 28.4082H13.0386V29.4906H14.1173V28.4082Z" fill="#F9AF3C"/>
<path d="M15.1964 28.4082H14.1177V29.4906H15.1964V28.4082Z" fill="#F9AF3C"/>
<path d="M16.2751 28.4082H15.1963V29.4906H16.2751V28.4082Z" fill="#F9AF3C"/>
<path d="M17.3537 28.4082H16.2749V29.4906H17.3537V28.4082Z" fill="#F9AF3C"/>
<path d="M18.4323 28.4082H17.3535V29.4906H18.4323V28.4082Z" fill="#F9AF3C"/>
<path d="M19.5114 28.4082H18.4326V29.4906H19.5114V28.4082Z" fill="#F9AF3C"/>
<path d="M20.5895 28.4082H19.5107V29.4906H20.5895V28.4082Z" fill="#F9AF3C"/>
<path d="M21.6686 28.4082H20.5898V29.4906H21.6686V28.4082Z" fill="#F9AF3C"/>
<path d="M22.7472 28.4082H21.6685V29.4906H22.7472V28.4082Z" fill="#F9AF3C"/>
<path d="M23.8258 28.4082H22.7471V29.4906H23.8258V28.4082Z" fill="#F9AF3C"/>
<path d="M24.9045 28.4082H23.8257V29.4906H24.9045V28.4082Z" fill="#F9AF3C"/>
<path d="M25.9836 28.4082H24.9048V29.4906H25.9836V28.4082Z" fill="#F9AF3C"/>
<path d="M27.0622 28.4082H25.9834V29.4906H27.0622V28.4082Z" fill="#F9AF3C"/>
<path d="M28.1408 28.4082H27.062V29.4906H28.1408V28.4082Z" fill="#F9AF3C"/>
<path d="M29.2194 28.4082H28.1406V29.4906H29.2194V28.4082Z" fill="#F9AF3C"/>
<path d="M30.2985 28.4082H29.2197V29.4906H30.2985V28.4082Z" fill="#F9AF3C"/>
<path d="M31.3771 28.4082H30.2983V29.4906H31.3771V28.4082Z" fill="#F9AF3C"/>
<path d="M32.4557 28.4082H31.377V29.4906H32.4557V28.4082Z" fill="#F9AF3C"/>
<path d="M33.5343 28.4082H32.4556V29.4906H33.5343V28.4082Z" fill="#F9AF3C"/>
<path d="M34.6134 20.832H33.5347V21.9144H34.6134V20.832Z" fill="#F9AF3C"/>
<path d="M34.6134 24.0791H33.5347V25.1615H34.6134V24.0791Z" fill="#F9AF3C"/>
<path d="M7.64517 22.9971H6.56641V24.0794H7.64517V22.9971Z" fill="#F9AF3C"/>
<path d="M8.72379 22.9971H7.64502V24.0794H8.72379V22.9971Z" fill="#45262F"/>
<path d="M9.8024 22.9971H8.72363V24.0794H9.8024V22.9971Z" fill="#964035"/>
<path d="M10.8815 22.9971H9.80273V24.0794H10.8815V22.9971Z" fill="#964035"/>
<path d="M11.9601 22.9971H10.8813V24.0794H11.9601V22.9971Z" fill="#77312B"/>
<path d="M13.0387 22.9971H11.96V24.0794H13.0387V22.9971Z" fill="#77312B"/>
<path d="M14.1173 22.9971H13.0386V24.0794H14.1173V22.9971Z" fill="#45262F"/>
<path d="M15.1964 22.9971H14.1177V24.0794H15.1964V22.9971Z" fill="#77312B"/>
<path d="M16.2751 22.9971H15.1963V24.0794H16.2751V22.9971Z" fill="#964035"/>
<path d="M17.3537 22.9971H16.2749V24.0794H17.3537V22.9971Z" fill="#964035"/>
<path d="M18.4323 22.9971H17.3535V24.0794H18.4323V22.9971Z" fill="#9B9DAA"/>
<path d="M19.5114 22.9971H18.4326V24.0794H19.5114V22.9971Z" fill="#9B9DAA"/>
<path d="M20.5895 22.9971H19.5107V24.0794H20.5895V22.9971Z" fill="#6A6C7B"/>
<path d="M21.6686 22.9971H20.5898V24.0794H21.6686V22.9971Z" fill="#6A6C7B"/>
<path d="M22.7472 22.9971H21.6685V24.0794H22.7472V22.9971Z" fill="#6A6C7B"/>
<path d="M23.8258 22.9971H22.7471V24.0794H23.8258V22.9971Z" fill="#964035"/>
<path d="M24.9045 22.9971H23.8257V24.0794H24.9045V22.9971Z" fill="#77312B"/>
<path d="M25.9836 22.9971H24.9048V24.0794H25.9836V22.9971Z" fill="#77312B"/>
<path d="M27.0622 22.9971H25.9834V24.0794H27.0622V22.9971Z" fill="#45262F"/>
<path d="M28.1408 22.9971H27.062V24.0794H28.1408V22.9971Z" fill="#77312B"/>
<path d="M29.2194 22.9971H28.1406V24.0794H29.2194V22.9971Z" fill="#964035"/>
<path d="M30.2985 22.9971H29.2197V24.0794H30.2985V22.9971Z" fill="#964035"/>
<path d="M31.3771 22.9971H30.2983V24.0794H31.3771V22.9971Z" fill="#964035"/>
<path d="M32.4557 22.9971H31.377V24.0794H32.4557V22.9971Z" fill="#45262F"/>
<path d="M33.5343 22.9971H32.4556V24.0794H33.5343V22.9971Z" fill="#F9AF3C"/>
<path d="M6.56656 22.9971H5.48779V24.0794H6.56656V22.9971Z" fill="#F9AF3C"/>
<path d="M34.6134 22.9971H33.5347V24.0794H34.6134V22.9971Z" fill="#F9AF3C"/>
<path d="M7.64517 21.9141H6.56641V22.9964H7.64517V21.9141Z" fill="#F9AF3C"/>
<path d="M8.72379 21.9141H7.64502V22.9964H8.72379V21.9141Z" fill="#45262F"/>
<path d="M9.8024 21.9141H8.72363V22.9964H9.8024V21.9141Z" fill="#964035"/>
<path d="M10.8815 21.9141H9.80273V22.9964H10.8815V21.9141Z" fill="#964035"/>
<path d="M11.9601 21.9141H10.8813V22.9964H11.9601V21.9141Z" fill="#964035"/>
<path d="M13.0387 21.9141H11.96V22.9964H13.0387V21.9141Z" fill="#964035"/>
<path d="M14.1173 21.9141H13.0386V22.9964H14.1173V21.9141Z" fill="#45262F"/>
<path d="M15.1964 21.9141H14.1177V22.9964H15.1964V21.9141Z" fill="#964035"/>
<path d="M16.2751 21.9141H15.1963V22.9964H16.2751V21.9141Z" fill="#964035"/>
<path d="M17.3537 21.9141H16.2749V22.9964H17.3537V21.9141Z" fill="#9B9DAA"/>
<path d="M18.4323 21.9141H17.3535V22.9964H18.4323V21.9141Z" fill="#9B9DAA"/>
<path d="M19.5114 21.9141H18.4326V22.9964H19.5114V21.9141Z" fill="#9B9DAA"/>
<path d="M20.5895 21.9141H19.5107V22.9964H20.5895V21.9141Z" fill="#9B9DAA"/>
<path d="M21.6686 21.9141H20.5898V22.9964H21.6686V21.9141Z" fill="#9B9DAA"/>
<path d="M22.7472 21.9141H21.6685V22.9964H22.7472V21.9141Z" fill="#6A6C7B"/>
<path d="M23.8258 21.9141H22.7471V22.9964H23.8258V21.9141Z" fill="#6A6C7B"/>
<path d="M24.9045 21.9141H23.8257V22.9964H24.9045V21.9141Z" fill="#964035"/>
<path d="M25.9836 21.9141H24.9048V22.9964H25.9836V21.9141Z" fill="#964035"/>
<path d="M27.0622 21.9141H25.9834V22.9964H27.0622V21.9141Z" fill="#45262F"/>
<path d="M28.1408 21.9141H27.062V22.9964H28.1408V21.9141Z" fill="#964035"/>
<path d="M29.2194 21.9141H28.1406V22.9964H29.2194V21.9141Z" fill="#964035"/>
<path d="M30.2985 21.9141H29.2197V22.9964H30.2985V21.9141Z" fill="#964035"/>
<path d="M31.3771 21.9141H30.2983V22.9964H31.3771V21.9141Z" fill="#964035"/>
<path d="M32.4557 21.9141H31.377V22.9964H32.4557V21.9141Z" fill="#45262F"/>
<path d="M33.5343 21.9141H32.4556V22.9964H33.5343V21.9141Z" fill="#F9AF3C"/>
<path d="M6.56656 21.9141H5.48779V22.9964H6.56656V21.9141Z" fill="#F9AF3C"/>
<path d="M34.6134 21.9141H33.5347V22.9964H34.6134V21.9141Z" fill="#F9AF3C"/>
<path d="M34.6134 25.1611H33.5347V26.2435H34.6134V25.1611Z" fill="#F9AF3C"/>
<path d="M34.6134 26.2432H33.5347V27.3255H34.6134V26.2432Z" fill="#F9AF3C"/>
<path d="M34.6134 27.3262H33.5347V28.4085H34.6134V27.3262Z" fill="#F9AF3C"/>
<path d="M34.6134 28.4082H33.5347V29.4906H34.6134V28.4082Z" fill="#F9AF3C"/>
<path d="M8.72379 29.4902H7.64502V30.5726H8.72379V29.4902Z" fill="#F9AF3C"/>
<path d="M7.64517 29.4902H6.56641V30.5726H7.64517V29.4902Z" fill="#F9AF3C"/>
<path d="M6.56656 29.4902H5.48779V30.5726H6.56656V29.4902Z" fill="#F9AF3C"/>
<path d="M9.8024 29.4902H8.72363V30.5726H9.8024V29.4902Z" fill="#F9AF3C"/>
<path d="M10.8815 29.4902H9.80273V30.5726H10.8815V29.4902Z" fill="#F9AF3C"/>
<path d="M11.9601 29.4902H10.8813V30.5726H11.9601V29.4902Z" fill="#F9AF3C"/>
<path d="M13.0387 29.4902H11.96V30.5726H13.0387V29.4902Z" fill="#F9AF3C"/>
<path d="M14.1173 29.4902H13.0386V30.5726H14.1173V29.4902Z" fill="#F9AF3C"/>
<path d="M15.1964 29.4902H14.1177V30.5726H15.1964V29.4902Z" fill="#F9AF3C"/>
<path d="M16.2751 29.4902H15.1963V30.5726H16.2751V29.4902Z" fill="#F9AF3C"/>
<path d="M17.3537 29.4902H16.2749V30.5726H17.3537V29.4902Z" fill="#F9AF3C"/>
<path d="M18.4323 29.4902H17.3535V30.5726H18.4323V29.4902Z" fill="#F9AF3C"/>
<path d="M19.5114 29.4902H18.4326V30.5726H19.5114V29.4902Z" fill="#F9AF3C"/>
<path d="M20.5895 29.4902H19.5107V30.5726H20.5895V29.4902Z" fill="#F9AF3C"/>
<path d="M21.6686 29.4902H20.5898V30.5726H21.6686V29.4902Z" fill="#F9AF3C"/>
<path d="M22.7472 29.4902H21.6685V30.5726H22.7472V29.4902Z" fill="#F9AF3C"/>
<path d="M23.8258 29.4902H22.7471V30.5726H23.8258V29.4902Z" fill="#F9AF3C"/>
<path d="M24.9045 29.4902H23.8257V30.5726H24.9045V29.4902Z" fill="#F9AF3C"/>
<path d="M25.9836 29.4902H24.9048V30.5726H25.9836V29.4902Z" fill="#F9AF3C"/>
<path d="M27.0622 29.4902H25.9834V30.5726H27.0622V29.4902Z" fill="#F9AF3C"/>
<path d="M28.1408 29.4902H27.062V30.5726H28.1408V29.4902Z" fill="#F9AF3C"/>
<path d="M29.2194 29.4902H28.1406V30.5726H29.2194V29.4902Z" fill="#F9AF3C"/>
<path d="M30.2985 29.4902H29.2197V30.5726H30.2985V29.4902Z" fill="#F9AF3C"/>
<path d="M31.3771 29.4902H30.2983V30.5726H31.3771V29.4902Z" fill="#F9AF3C"/>
<path d="M32.4557 29.4902H31.377V30.5726H32.4557V29.4902Z" fill="#F9AF3C"/>
<path d="M33.5343 29.4902H32.4556V30.5726H33.5343V29.4902Z" fill="#F9AF3C"/>
<path d="M34.6134 29.4902H33.5347V30.5726H34.6134V29.4902Z" fill="#F9AF3C"/>
<path d="M8.72379 30.5723H7.64502V31.6546H8.72379V30.5723Z" fill="#BD4B2F"/>
<path d="M7.64517 30.5723H6.56641V31.6546H7.64517V30.5723Z" fill="#BD4B2F"/>
<path d="M6.56656 30.5723H5.48779V31.6546H6.56656V30.5723Z" fill="#BD4B2F"/>
<path d="M9.8024 30.5723H8.72363V31.6546H9.8024V30.5723Z" fill="#BD4B2F"/>
<path d="M10.8815 30.5723H9.80273V31.6546H10.8815V30.5723Z" fill="#BD4B2F"/>
<path d="M11.9601 30.5723H10.8813V31.6546H11.9601V30.5723Z" fill="#BD4B2F"/>
<path d="M13.0387 30.5723H11.96V31.6546H13.0387V30.5723Z" fill="#BD4B2F"/>
<path d="M14.1173 30.5723H13.0386V31.6546H14.1173V30.5723Z" fill="#BD4B2F"/>
<path d="M15.1964 30.5723H14.1177V31.6546H15.1964V30.5723Z" fill="#BD4B2F"/>
<path d="M16.2751 30.5723H15.1963V31.6546H16.2751V30.5723Z" fill="#BD4B2F"/>
<path d="M17.3537 30.5723H16.2749V31.6546H17.3537V30.5723Z" fill="#BD4B2F"/>
<path d="M18.4323 30.5723H17.3535V31.6546H18.4323V30.5723Z" fill="#BD4B2F"/>
<path d="M19.5114 30.5723H18.4326V31.6546H19.5114V30.5723Z" fill="#BD4B2F"/>
<path d="M20.5895 30.5723H19.5107V31.6546H20.5895V30.5723Z" fill="#BD4B2F"/>
<path d="M21.6686 30.5723H20.5898V31.6546H21.6686V30.5723Z" fill="#BD4B2F"/>
<path d="M22.7472 30.5723H21.6685V31.6546H22.7472V30.5723Z" fill="#BD4B2F"/>
<path d="M23.8258 30.5723H22.7471V31.6546H23.8258V30.5723Z" fill="#BD4B2F"/>
<path d="M24.9045 30.5723H23.8257V31.6546H24.9045V30.5723Z" fill="#BD4B2F"/>
<path d="M25.9836 30.5723H24.9048V31.6546H25.9836V30.5723Z" fill="#BD4B2F"/>
<path d="M27.0622 30.5723H25.9834V31.6546H27.0622V30.5723Z" fill="#BD4B2F"/>
<path d="M28.1408 30.5723H27.062V31.6546H28.1408V30.5723Z" fill="#BD4B2F"/>
<path d="M29.2194 30.5723H28.1406V31.6546H29.2194V30.5723Z" fill="#BD4B2F"/>
<path d="M30.2985 30.5723H29.2197V31.6546H30.2985V30.5723Z" fill="#BD4B2F"/>
<path d="M31.3771 30.5723H30.2983V31.6546H31.3771V30.5723Z" fill="#BD4B2F"/>
<path d="M32.4557 30.5723H31.377V31.6546H32.4557V30.5723Z" fill="#BD4B2F"/>
<path d="M33.5343 30.5723H32.4556V31.6546H33.5343V30.5723Z" fill="#BD4B2F"/>
<path d="M34.6134 30.5723H33.5347V31.6546H34.6134V30.5723Z" fill="#BD4B2F"/>
</svg>
