<svg width="40" height="33" viewBox="0 0 40 33" fill="none" xmlns="http://www.w3.org/2000/svg">
<path d="M9.8024 1.54688H8.72363V2.62924H9.8024V1.54688Z" fill="#62B3FE"/>
<path d="M10.8815 1.54688H9.80273V2.62924H10.8815V1.54688Z" fill="#62B3FE"/>
<path d="M11.9601 1.54688H10.8813V2.62924H11.9601V1.54688Z" fill="#62B3FE"/>
<path d="M13.0387 1.54688H11.96V2.62924H13.0387V1.54688Z" fill="#62B3FE"/>
<path d="M28.1408 1.54688H27.062V2.62924H28.1408V1.54688Z" fill="#62B3FE"/>
<path d="M29.2194 1.54688H28.1406V2.62924H29.2194V1.54688Z" fill="#62B3FE"/>
<path d="M30.2985 1.54688H29.2197V2.62924H30.2985V1.54688Z" fill="#62B3FE"/>
<path d="M31.3771 1.54688H30.2983V2.62924H31.3771V1.54688Z" fill="#62B3FE"/>
<path d="M8.72379 2.62891H7.64502V3.71127H8.72379V2.62891Z" fill="#29564E"/>
<path d="M9.8024 2.62891H8.72363V3.71127H9.8024V2.62891Z" fill="#69C9FF"/>
<path d="M10.8815 2.62891H9.80273V3.71127H10.8815V2.62891Z" fill="#62B3FE"/>
<path d="M11.9601 2.62891H10.8813V3.71127H11.9601V2.62891Z" fill="#62B3FE"/>
<path d="M13.0387 2.62891H11.96V3.71127H13.0387V2.62891Z" fill="#69C9FF"/>
<path d="M14.1173 2.62891H13.0386V3.71127H14.1173V2.62891Z" fill="#29564E"/>
<path d="M15.1964 2.62891H14.1177V3.71127H15.1964V2.62891Z" fill="#29564E"/>
<path d="M16.2751 2.62891H15.1963V3.71127H16.2751V2.62891Z" fill="#29564E"/>
<path d="M17.3537 2.62891H16.2749V3.71127H17.3537V2.62891Z" fill="#29564E"/>
<path d="M18.4323 2.62891H17.3535V3.71127H18.4323V2.62891Z" fill="#29564E"/>
<path d="M19.5114 2.62891H18.4326V3.71127H19.5114V2.62891Z" fill="#29564E"/>
<path d="M20.5895 2.62891H19.5107V3.71127H20.5895V2.62891Z" fill="#29564E"/>
<path d="M21.6686 2.62891H20.5898V3.71127H21.6686V2.62891Z" fill="#29564E"/>
<path d="M22.7472 2.62891H21.6685V3.71127H22.7472V2.62891Z" fill="#29564E"/>
<path d="M23.8258 2.62891H22.7471V3.71127H23.8258V2.62891Z" fill="#29564E"/>
<path d="M24.9045 2.62891H23.8257V3.71127H24.9045V2.62891Z" fill="#29564E"/>
<path d="M25.9836 2.62891H24.9048V3.71127H25.9836V2.62891Z" fill="#29564E"/>
<path d="M27.0622 2.62891H25.9834V3.71127H27.0622V2.62891Z" fill="#29564E"/>
<path d="M28.1408 2.62891H27.062V3.71127H28.1408V2.62891Z" fill="#69C9FF"/>
<path d="M29.2194 2.62891H28.1406V3.71127H29.2194V2.62891Z" fill="#62B3FE"/>
<path d="M30.2985 2.62891H29.2197V3.71127H30.2985V2.62891Z" fill="#62B3FE"/>
<path d="M31.3771 2.62891H30.2983V3.71127H31.3771V2.62891Z" fill="#69C9FF"/>
<path d="M32.4557 2.62891H31.377V3.71127H32.4557V2.62891Z" fill="#29564E"/>
<path d="M6.56656 3.71094H5.48779V4.7933H6.56656V3.71094Z" fill="#29564E"/>
<path d="M8.72379 3.71094H7.64502V4.7933H8.72379V3.71094Z" fill="#29564E"/>
<path d="M9.8024 3.71094H8.72363V4.7933H9.8024V3.71094Z" fill="#69C9FF"/>
<path d="M10.8815 3.71094H9.80273V4.7933H10.8815V3.71094Z" fill="#69C9FF"/>
<path d="M11.9601 3.71094H10.8813V4.7933H11.9601V3.71094Z" fill="#62B3FE"/>
<path d="M13.0387 3.71094H11.96V4.7933H13.0387V3.71094Z" fill="#69C9FF"/>
<path d="M14.1173 3.71094H13.0386V4.7933H14.1173V3.71094Z" fill="#29564E"/>
<path d="M15.1964 3.71094H14.1177V4.7933H15.1964V3.71094Z" fill="#71BCAA"/>
<path d="M16.2751 3.71094H15.1963V4.7933H16.2751V3.71094Z" fill="#71BCAA"/>
<path d="M17.3537 3.71094H16.2749V4.7933H17.3537V3.71094Z" fill="#4EA691"/>
<path d="M18.4323 3.71094H17.3535V4.7933H18.4323V3.71094Z" fill="#4EA691"/>
<path d="M19.5114 3.71094H18.4326V4.7933H19.5114V3.71094Z" fill="#4EA691"/>
<path d="M20.5895 3.71094H19.5107V4.7933H20.5895V3.71094Z" fill="#4EA691"/>
<path d="M21.6686 3.71094H20.5898V4.7933H21.6686V3.71094Z" fill="#4EA691"/>
<path d="M22.7472 3.71094H21.6685V4.7933H22.7472V3.71094Z" fill="#4EA691"/>
<path d="M23.8258 3.71094H22.7471V4.7933H23.8258V3.71094Z" fill="#4EA691"/>
<path d="M24.9045 3.71094H23.8257V4.7933H24.9045V3.71094Z" fill="#4EA691"/>
<path d="M25.9836 3.71094H24.9048V4.7933H25.9836V3.71094Z" fill="#4EA691"/>
<path d="M27.0622 3.71094H25.9834V4.7933H27.0622V3.71094Z" fill="#29564E"/>
<path d="M28.1408 3.71094H27.062V4.7933H28.1408V3.71094Z" fill="#69C9FF"/>
<path d="M29.2194 3.71094H28.1406V4.7933H29.2194V3.71094Z" fill="#69C9FF"/>
<path d="M30.2985 3.71094H29.2197V4.7933H30.2985V3.71094Z" fill="#62B3FE"/>
<path d="M31.3771 3.71094H30.2983V4.7933H31.3771V3.71094Z" fill="#69C9FF"/>
<path d="M32.4557 3.71094H31.377V4.7933H32.4557V3.71094Z" fill="#29564E"/>
<path d="M34.6134 3.71094H33.5347V4.7933H34.6134V3.71094Z" fill="#29564E"/>
<path d="M6.56656 4.79395H5.48779V5.87631H6.56656V4.79395Z" fill="#29564E"/>
<path d="M8.72379 4.79395H7.64502V5.87631H8.72379V4.79395Z" fill="#29564E"/>
<path d="M9.8024 4.79395H8.72363V5.87631H9.8024V4.79395Z" fill="#D8F6FF"/>
<path d="M10.8815 4.79395H9.80273V5.87631H10.8815V4.79395Z" fill="#69C9FF"/>
<path d="M11.9601 4.79395H10.8813V5.87631H11.9601V4.79395Z" fill="#69C9FF"/>
<path d="M13.0387 4.79395H11.96V5.87631H13.0387V4.79395Z" fill="#69C9FF"/>
<path d="M14.1173 4.79395H13.0386V5.87631H14.1173V4.79395Z" fill="#29564E"/>
<path d="M15.1964 4.79395H14.1177V5.87631H15.1964V4.79395Z" fill="#4EA691"/>
<path d="M16.2751 4.79395H15.1963V5.87631H16.2751V4.79395Z" fill="#4EA691"/>
<path d="M17.3537 4.79395H16.2749V5.87631H17.3537V4.79395Z" fill="#4EA691"/>
<path d="M18.4323 4.79395H17.3535V5.87631H18.4323V4.79395Z" fill="#4EA691"/>
<path d="M19.5114 4.79395H18.4326V5.87631H19.5114V4.79395Z" fill="#4EA691"/>
<path d="M20.5895 4.79395H19.5107V5.87631H20.5895V4.79395Z" fill="#71BCAA"/>
<path d="M21.6686 4.79395H20.5898V5.87631H21.6686V4.79395Z" fill="#71BCAA"/>
<path d="M22.7472 4.79395H21.6685V5.87631H22.7472V4.79395Z" fill="#71BCAA"/>
<path d="M23.8258 4.79395H22.7471V5.87631H23.8258V4.79395Z" fill="#71BCAA"/>
<path d="M24.9045 4.79395H23.8257V5.87631H24.9045V4.79395Z" fill="#71BCAA"/>
<path d="M25.9836 4.79395H24.9048V5.87631H25.9836V4.79395Z" fill="#71BCAA"/>
<path d="M27.0622 4.79395H25.9834V5.87631H27.0622V4.79395Z" fill="#29564E"/>
<path d="M28.1408 4.79395H27.062V5.87631H28.1408V4.79395Z" fill="#D8F6FF"/>
<path d="M29.2194 4.79395H28.1406V5.87631H29.2194V4.79395Z" fill="#69C9FF"/>
<path d="M30.2985 4.79395H29.2197V5.87631H30.2985V4.79395Z" fill="#69C9FF"/>
<path d="M31.3771 4.79395H30.2983V5.87631H31.3771V4.79395Z" fill="#69C9FF"/>
<path d="M32.4557 4.79395H31.377V5.87631H32.4557V4.79395Z" fill="#29564E"/>
<path d="M34.6134 4.79395H33.5347V5.87631H34.6134V4.79395Z" fill="#29564E"/>
<path d="M6.56656 5.87598H5.48779V6.95834H6.56656V5.87598Z" fill="#29564E"/>
<path d="M8.72379 5.87598H7.64502V6.95834H8.72379V5.87598Z" fill="#29564E"/>
<path d="M9.8024 5.87598H8.72363V6.95834H9.8024V5.87598Z" fill="#D8F6FF"/>
<path d="M10.8815 5.87598H9.80273V6.95834H10.8815V5.87598Z" fill="#69C9FF"/>
<path d="M11.9601 5.87598H10.8813V6.95834H11.9601V5.87598Z" fill="#D8F6FF"/>
<path d="M13.0387 5.87598H11.96V6.95834H13.0387V5.87598Z" fill="#69C9FF"/>
<path d="M14.1173 5.87598H13.0386V6.95834H14.1173V5.87598Z" fill="#29564E"/>
<path d="M15.1964 5.87598H14.1177V6.95834H15.1964V5.87598Z" fill="#4EA691"/>
<path d="M16.2751 5.87598H15.1963V6.95834H16.2751V5.87598Z" fill="#4EA691"/>
<path d="M17.3537 5.87598H16.2749V6.95834H17.3537V5.87598Z" fill="#4EA691"/>
<path d="M18.4323 5.87598H17.3535V6.95834H18.4323V5.87598Z" fill="#4EA691"/>
<path d="M19.5114 5.87598H18.4326V6.95834H19.5114V5.87598Z" fill="#4EA691"/>
<path d="M20.5895 5.87598H19.5107V6.95834H20.5895V5.87598Z" fill="#4EA691"/>
<path d="M21.6686 5.87598H20.5898V6.95834H21.6686V5.87598Z" fill="#4EA691"/>
<path d="M22.7472 5.87598H21.6685V6.95834H22.7472V5.87598Z" fill="#4EA691"/>
<path d="M23.8258 5.87598H22.7471V6.95834H23.8258V5.87598Z" fill="#71BCAA"/>
<path d="M24.9045 5.87598H23.8257V6.95834H24.9045V5.87598Z" fill="#71BCAA"/>
<path d="M25.9836 5.87598H24.9048V6.95834H25.9836V5.87598Z" fill="#71BCAA"/>
<path d="M27.0622 5.87598H25.9834V6.95834H27.0622V5.87598Z" fill="#29564E"/>
<path d="M28.1408 5.87598H27.062V6.95834H28.1408V5.87598Z" fill="#D8F6FF"/>
<path d="M29.2194 5.87598H28.1406V6.95834H29.2194V5.87598Z" fill="#69C9FF"/>
<path d="M30.2985 5.87598H29.2197V6.95834H30.2985V5.87598Z" fill="#D8F6FF"/>
<path d="M31.3771 5.87598H30.2983V6.95834H31.3771V5.87598Z" fill="#69C9FF"/>
<path d="M32.4557 5.87598H31.377V6.95834H32.4557V5.87598Z" fill="#29564E"/>
<path d="M34.6134 5.87598H33.5347V6.95834H34.6134V5.87598Z" fill="#29564E"/>
<path d="M6.56656 6.95801H5.48779V8.04037H6.56656V6.95801Z" fill="#29564E"/>
<path d="M8.72379 6.95801H7.64502V8.04037H8.72379V6.95801Z" fill="#29564E"/>
<path d="M9.8024 6.95801H8.72363V8.04037H9.8024V6.95801Z" fill="#D8F6FF"/>
<path d="M10.8815 6.95801H9.80273V8.04037H10.8815V6.95801Z" fill="#D8F6FF"/>
<path d="M11.9601 6.95801H10.8813V8.04037H11.9601V6.95801Z" fill="#D8F6FF"/>
<path d="M13.0387 6.95801H11.96V8.04037H13.0387V6.95801Z" fill="#D8F6FF"/>
<path d="M14.1173 6.95801H13.0386V8.04037H14.1173V6.95801Z" fill="#29564E"/>
<path d="M15.1964 6.95801H14.1177V8.04037H15.1964V6.95801Z" fill="#71BCAA"/>
<path d="M16.2751 6.95801H15.1963V8.04037H16.2751V6.95801Z" fill="#71BCAA"/>
<path d="M17.3537 6.95801H16.2749V8.04037H17.3537V6.95801Z" fill="#71BCAA"/>
<path d="M18.4323 6.95801H17.3535V8.04037H18.4323V6.95801Z" fill="#71BCAA"/>
<path d="M19.5114 6.95801H18.4326V8.04037H19.5114V6.95801Z" fill="#4EA691"/>
<path d="M20.5895 6.95801H19.5107V8.04037H20.5895V6.95801Z" fill="#4EA691"/>
<path d="M21.6686 6.95801H20.5898V8.04037H21.6686V6.95801Z" fill="#4EA691"/>
<path d="M22.7472 6.95801H21.6685V8.04037H22.7472V6.95801Z" fill="#4EA691"/>
<path d="M23.8258 6.95801H22.7471V8.04037H23.8258V6.95801Z" fill="#4EA691"/>
<path d="M24.9045 6.95801H23.8257V8.04037H24.9045V6.95801Z" fill="#4EA691"/>
<path d="M25.9836 6.95801H24.9048V8.04037H25.9836V6.95801Z" fill="#4EA691"/>
<path d="M27.0622 6.95801H25.9834V8.04037H27.0622V6.95801Z" fill="#29564E"/>
<path d="M28.1408 6.95801H27.062V8.04037H28.1408V6.95801Z" fill="#D8F6FF"/>
<path d="M29.2194 6.95801H28.1406V8.04037H29.2194V6.95801Z" fill="#D8F6FF"/>
<path d="M30.2985 6.95801H29.2197V8.04037H30.2985V6.95801Z" fill="#D8F6FF"/>
<path d="M31.3771 6.95801H30.2983V8.04037H31.3771V6.95801Z" fill="#D8F6FF"/>
<path d="M32.4557 6.95801H31.377V8.04037H32.4557V6.95801Z" fill="#29564E"/>
<path d="M34.6134 6.95801H33.5347V8.04037H34.6134V6.95801Z" fill="#29564E"/>
<path d="M5.48746 8.04102H4.40869V9.12338H5.48746V8.04102Z" fill="#D8F6FF"/>
<path d="M6.56656 8.04102H5.48779V9.12338H6.56656V8.04102Z" fill="#29564E"/>
<path d="M8.72379 8.04102H7.64502V9.12338H8.72379V8.04102Z" fill="#29564E"/>
<path d="M9.8024 8.04102H8.72363V9.12338H9.8024V8.04102Z" fill="#D8F6FF"/>
<path d="M10.8815 8.04102H9.80273V9.12338H10.8815V8.04102Z" fill="#D8F6FF"/>
<path d="M11.9601 8.04102H10.8813V9.12338H11.9601V8.04102Z" fill="#D8F6FF"/>
<path d="M13.0387 8.04102H11.96V9.12338H13.0387V8.04102Z" fill="#D8F6FF"/>
<path d="M14.1173 8.04102H13.0386V9.12338H14.1173V8.04102Z" fill="#29564E"/>
<path d="M15.1964 8.04102H14.1177V9.12338H15.1964V8.04102Z" fill="#71BCAA"/>
<path d="M16.2751 8.04102H15.1963V9.12338H16.2751V8.04102Z" fill="#71BCAA"/>
<path d="M17.3537 8.04102H16.2749V9.12338H17.3537V8.04102Z" fill="#71BCAA"/>
<path d="M18.4323 8.04102H17.3535V9.12338H18.4323V8.04102Z" fill="#71BCAA"/>
<path d="M19.5114 8.04102H18.4326V9.12338H19.5114V8.04102Z" fill="#71BCAA"/>
<path d="M20.5895 8.04102H19.5107V9.12338H20.5895V8.04102Z" fill="#71BCAA"/>
<path d="M21.6686 8.04102H20.5898V9.12338H21.6686V8.04102Z" fill="#71BCAA"/>
<path d="M22.7472 8.04102H21.6685V9.12338H22.7472V8.04102Z" fill="#4EA691"/>
<path d="M23.8258 8.04102H22.7471V9.12338H23.8258V8.04102Z" fill="#4EA691"/>
<path d="M24.9045 8.04102H23.8257V9.12338H24.9045V8.04102Z" fill="#4EA691"/>
<path d="M25.9836 8.04102H24.9048V9.12338H25.9836V8.04102Z" fill="#4EA691"/>
<path d="M27.0622 8.04102H25.9834V9.12338H27.0622V8.04102Z" fill="#29564E"/>
<path d="M28.1408 8.04102H27.062V9.12338H28.1408V8.04102Z" fill="#D8F6FF"/>
<path d="M29.2194 8.04102H28.1406V9.12338H29.2194V8.04102Z" fill="#D8F6FF"/>
<path d="M30.2985 8.04102H29.2197V9.12338H30.2985V8.04102Z" fill="#D8F6FF"/>
<path d="M31.3771 8.04102H30.2983V9.12338H31.3771V8.04102Z" fill="#D8F6FF"/>
<path d="M32.4557 8.04102H31.377V9.12338H32.4557V8.04102Z" fill="#29564E"/>
<path d="M34.6134 8.04102H33.5347V9.12338H34.6134V8.04102Z" fill="#29564E"/>
<path d="M35.692 8.04102H34.6133V9.12338H35.692V8.04102Z" fill="#D8F6FF"/>
<path d="M5.48746 9.12305H4.40869V10.2054H5.48746V9.12305Z" fill="#D8F6FF"/>
<path d="M6.56656 9.12305H5.48779V10.2054H6.56656V9.12305Z" fill="#29564E"/>
<path d="M8.72379 9.12305H7.64502V10.2054H8.72379V9.12305Z" fill="#29564E"/>
<path d="M9.8024 9.12305H8.72363V10.2054H9.8024V9.12305Z" fill="#D8F6FF"/>
<path d="M10.8815 9.12305H9.80273V10.2054H10.8815V9.12305Z" fill="#D8F6FF"/>
<path d="M11.9601 9.12305H10.8813V10.2054H11.9601V9.12305Z" fill="#D8F6FF"/>
<path d="M13.0387 9.12305H11.96V10.2054H13.0387V9.12305Z" fill="#D8F6FF"/>
<path d="M14.1173 9.12305H13.0386V10.2054H14.1173V9.12305Z" fill="#29564E"/>
<path d="M15.1964 9.12305H14.1177V10.2054H15.1964V9.12305Z" fill="#29564E"/>
<path d="M16.2751 9.12305H15.1963V10.2054H16.2751V9.12305Z" fill="#29564E"/>
<path d="M17.3537 9.12305H16.2749V10.2054H17.3537V9.12305Z" fill="#29564E"/>
<path d="M18.4323 9.12305H17.3535V10.2054H18.4323V9.12305Z" fill="#29564E"/>
<path d="M19.5114 9.12305H18.4326V10.2054H19.5114V9.12305Z" fill="#29564E"/>
<path d="M20.5895 9.12305H19.5107V10.2054H20.5895V9.12305Z" fill="#29564E"/>
<path d="M21.6686 9.12305H20.5898V10.2054H21.6686V9.12305Z" fill="#29564E"/>
<path d="M22.7472 9.12305H21.6685V10.2054H22.7472V9.12305Z" fill="#29564E"/>
<path d="M23.8258 9.12305H22.7471V10.2054H23.8258V9.12305Z" fill="#29564E"/>
<path d="M24.9045 9.12305H23.8257V10.2054H24.9045V9.12305Z" fill="#29564E"/>
<path d="M25.9836 9.12305H24.9048V10.2054H25.9836V9.12305Z" fill="#29564E"/>
<path d="M27.0622 9.12305H25.9834V10.2054H27.0622V9.12305Z" fill="#29564E"/>
<path d="M28.1408 9.12305H27.062V10.2054H28.1408V9.12305Z" fill="#D8F6FF"/>
<path d="M29.2194 9.12305H28.1406V10.2054H29.2194V9.12305Z" fill="#D8F6FF"/>
<path d="M30.2985 9.12305H29.2197V10.2054H30.2985V9.12305Z" fill="#D8F6FF"/>
<path d="M31.3771 9.12305H30.2983V10.2054H31.3771V9.12305Z" fill="#D8F6FF"/>
<path d="M32.4557 9.12305H31.377V10.2054H32.4557V9.12305Z" fill="#29564E"/>
<path d="M34.6134 9.12305H33.5347V10.2054H34.6134V9.12305Z" fill="#29564E"/>
<path d="M35.692 9.12305H34.6133V10.2054H35.692V9.12305Z" fill="#D8F6FF"/>
<path d="M5.48746 10.2051H4.40869V11.2874H5.48746V10.2051Z" fill="#D8F6FF"/>
<path d="M6.56656 10.2051H5.48779V11.2874H6.56656V10.2051Z" fill="#29564E"/>
<path d="M8.72379 10.2051H7.64502V11.2874H8.72379V10.2051Z" fill="#29564E"/>
<path d="M9.8024 10.2051H8.72363V11.2874H9.8024V10.2051Z" fill="#D8F6FF"/>
<path d="M10.8815 10.2051H9.80273V11.2874H10.8815V10.2051Z" fill="#D8F6FF"/>
<path d="M11.9601 10.2051H10.8813V11.2874H11.9601V10.2051Z" fill="#D8F6FF"/>
<path d="M13.0387 10.2051H11.96V11.2874H13.0387V10.2051Z" fill="#D8F6FF"/>
<path d="M14.1173 10.2051H13.0386V11.2874H14.1173V10.2051Z" fill="#29564E"/>
<path d="M15.1964 10.2051H14.1177V11.2874H15.1964V10.2051Z" fill="#71BCAA"/>
<path d="M16.2751 10.2051H15.1963V11.2874H16.2751V10.2051Z" fill="#71BCAA"/>
<path d="M17.3537 10.2051H16.2749V11.2874H17.3537V10.2051Z" fill="#71BCAA"/>
<path d="M18.4323 10.2051H17.3535V11.2874H18.4323V10.2051Z" fill="#4EA691"/>
<path d="M19.5114 10.2051H18.4326V11.2874H19.5114V10.2051Z" fill="#4EA691"/>
<path d="M20.5895 10.2051H19.5107V11.2874H20.5895V10.2051Z" fill="#4EA691"/>
<path d="M21.6686 10.2051H20.5898V11.2874H21.6686V10.2051Z" fill="#4EA691"/>
<path d="M22.7472 10.2051H21.6685V11.2874H22.7472V10.2051Z" fill="#4EA691"/>
<path d="M23.8258 10.2051H22.7471V11.2874H23.8258V10.2051Z" fill="#4EA691"/>
<path d="M24.9045 10.2051H23.8257V11.2874H24.9045V10.2051Z" fill="#4EA691"/>
<path d="M25.9836 10.2051H24.9048V11.2874H25.9836V10.2051Z" fill="#4EA691"/>
<path d="M27.0622 10.2051H25.9834V11.2874H27.0622V10.2051Z" fill="#29564E"/>
<path d="M28.1408 10.2051H27.062V11.2874H28.1408V10.2051Z" fill="#D8F6FF"/>
<path d="M29.2194 10.2051H28.1406V11.2874H29.2194V10.2051Z" fill="#D8F6FF"/>
<path d="M30.2985 10.2051H29.2197V11.2874H30.2985V10.2051Z" fill="#D8F6FF"/>
<path d="M31.3771 10.2051H30.2983V11.2874H31.3771V10.2051Z" fill="#D8F6FF"/>
<path d="M32.4557 10.2051H31.377V11.2874H32.4557V10.2051Z" fill="#29564E"/>
<path d="M34.6134 10.2051H33.5347V11.2874H34.6134V10.2051Z" fill="#29564E"/>
<path d="M35.692 10.2051H34.6133V11.2874H35.692V10.2051Z" fill="#D8F6FF"/>
<path d="M5.48746 11.2881H4.40869V12.3704H5.48746V11.2881Z" fill="#D8F6FF"/>
<path d="M6.56656 11.2881H5.48779V12.3704H6.56656V11.2881Z" fill="#29564E"/>
<path d="M8.72379 11.2881H7.64502V12.3704H8.72379V11.2881Z" fill="#29564E"/>
<path d="M9.8024 11.2881H8.72363V12.3704H9.8024V11.2881Z" fill="#69C9FF"/>
<path d="M10.8815 11.2881H9.80273V12.3704H10.8815V11.2881Z" fill="#D8F6FF"/>
<path d="M11.9601 11.2881H10.8813V12.3704H11.9601V11.2881Z" fill="#69C9FF"/>
<path d="M13.0387 11.2881H11.96V12.3704H13.0387V11.2881Z" fill="#D8F6FF"/>
<path d="M14.1173 11.2881H13.0386V12.3704H14.1173V11.2881Z" fill="#29564E"/>
<path d="M15.1964 11.2881H14.1177V12.3704H15.1964V11.2881Z" fill="#4EA691"/>
<path d="M16.2751 11.2881H15.1963V12.3704H16.2751V11.2881Z" fill="#4EA691"/>
<path d="M17.3537 11.2881H16.2749V12.3704H17.3537V11.2881Z" fill="#4EA691"/>
<path d="M18.4323 11.2881H17.3535V12.3704H18.4323V11.2881Z" fill="#4EA691"/>
<path d="M19.5114 11.2881H18.4326V12.3704H19.5114V11.2881Z" fill="#F8F8F9"/>
<path d="M20.5895 11.2881H19.5107V12.3704H20.5895V11.2881Z" fill="#F8F8F9"/>
<path d="M21.6686 11.2881H20.5898V12.3704H21.6686V11.2881Z" fill="#F8F8F9"/>
<path d="M22.7472 11.2881H21.6685V12.3704H22.7472V11.2881Z" fill="#4EA691"/>
<path d="M23.8258 11.2881H22.7471V12.3704H23.8258V11.2881Z" fill="#4EA691"/>
<path d="M24.9045 11.2881H23.8257V12.3704H24.9045V11.2881Z" fill="#4EA691"/>
<path d="M25.9836 11.2881H24.9048V12.3704H25.9836V11.2881Z" fill="#4EA691"/>
<path d="M27.0622 11.2881H25.9834V12.3704H27.0622V11.2881Z" fill="#29564E"/>
<path d="M28.1408 11.2881H27.062V12.3704H28.1408V11.2881Z" fill="#69C9FF"/>
<path d="M29.2194 11.2881H28.1406V12.3704H29.2194V11.2881Z" fill="#D8F6FF"/>
<path d="M30.2985 11.2881H29.2197V12.3704H30.2985V11.2881Z" fill="#69C9FF"/>
<path d="M31.3771 11.2881H30.2983V12.3704H31.3771V11.2881Z" fill="#D8F6FF"/>
<path d="M32.4557 11.2881H31.377V12.3704H32.4557V11.2881Z" fill="#29564E"/>
<path d="M34.6134 11.2881H33.5347V12.3704H34.6134V11.2881Z" fill="#29564E"/>
<path d="M35.692 11.2881H34.6133V12.3704H35.692V11.2881Z" fill="#D8F6FF"/>
<path d="M5.48746 12.3701H4.40869V13.4525H5.48746V12.3701Z" fill="#D8F6FF"/>
<path d="M6.56656 12.3701H5.48779V13.4525H6.56656V12.3701Z" fill="#29564E"/>
<path d="M8.72379 12.3701H7.64502V13.4525H8.72379V12.3701Z" fill="#29564E"/>
<path d="M9.8024 12.3701H8.72363V13.4525H9.8024V12.3701Z" fill="#69C9FF"/>
<path d="M10.8815 12.3701H9.80273V13.4525H10.8815V12.3701Z" fill="#69C9FF"/>
<path d="M11.9601 12.3701H10.8813V13.4525H11.9601V12.3701Z" fill="#69C9FF"/>
<path d="M13.0387 12.3701H11.96V13.4525H13.0387V12.3701Z" fill="#D8F6FF"/>
<path d="M14.1173 12.3701H13.0386V13.4525H14.1173V12.3701Z" fill="#29564E"/>
<path d="M15.1964 12.3701H14.1177V13.4525H15.1964V12.3701Z" fill="#4EA691"/>
<path d="M16.2751 12.3701H15.1963V13.4525H16.2751V12.3701Z" fill="#4EA691"/>
<path d="M17.3537 12.3701H16.2749V13.4525H17.3537V12.3701Z" fill="#4EA691"/>
<path d="M18.4323 12.3701H17.3535V13.4525H18.4323V12.3701Z" fill="#F8F8F9"/>
<path d="M19.5114 12.3701H18.4326V13.4525H19.5114V12.3701Z" fill="#3E8480"/>
<path d="M20.5895 12.3701H19.5107V13.4525H20.5895V12.3701Z" fill="#3E8480"/>
<path d="M21.6686 12.3701H20.5898V13.4525H21.6686V12.3701Z" fill="#3E8480"/>
<path d="M22.7472 12.3701H21.6685V13.4525H22.7472V12.3701Z" fill="#F8F8F9"/>
<path d="M23.8258 12.3701H22.7471V13.4525H23.8258V12.3701Z" fill="#4EA691"/>
<path d="M24.9045 12.3701H23.8257V13.4525H24.9045V12.3701Z" fill="#4EA691"/>
<path d="M25.9836 12.3701H24.9048V13.4525H25.9836V12.3701Z" fill="#4EA691"/>
<path d="M27.0622 12.3701H25.9834V13.4525H27.0622V12.3701Z" fill="#29564E"/>
<path d="M28.1408 12.3701H27.062V13.4525H28.1408V12.3701Z" fill="#69C9FF"/>
<path d="M29.2194 12.3701H28.1406V13.4525H29.2194V12.3701Z" fill="#69C9FF"/>
<path d="M30.2985 12.3701H29.2197V13.4525H30.2985V12.3701Z" fill="#69C9FF"/>
<path d="M31.3771 12.3701H30.2983V13.4525H31.3771V12.3701Z" fill="#D8F6FF"/>
<path d="M32.4557 12.3701H31.377V13.4525H32.4557V12.3701Z" fill="#29564E"/>
<path d="M34.6134 12.3701H33.5347V13.4525H34.6134V12.3701Z" fill="#29564E"/>
<path d="M35.692 12.3701H34.6133V13.4525H35.692V12.3701Z" fill="#D8F6FF"/>
<path d="M5.48746 13.4521H4.40869V14.5345H5.48746V13.4521Z" fill="#D8F6FF"/>
<path d="M6.56656 13.4521H5.48779V14.5345H6.56656V13.4521Z" fill="#29564E"/>
<path d="M8.72379 13.4521H7.64502V14.5345H8.72379V13.4521Z" fill="#29564E"/>
<path d="M9.8024 13.4521H8.72363V14.5345H9.8024V13.4521Z" fill="#69C9FF"/>
<path d="M10.8815 13.4521H9.80273V14.5345H10.8815V13.4521Z" fill="#69C9FF"/>
<path d="M11.9601 13.4521H10.8813V14.5345H11.9601V13.4521Z" fill="#69C9FF"/>
<path d="M13.0387 13.4521H11.96V14.5345H13.0387V13.4521Z" fill="#69C9FF"/>
<path d="M14.1173 13.4521H13.0386V14.5345H14.1173V13.4521Z" fill="#29564E"/>
<path d="M15.1964 13.4521H14.1177V14.5345H15.1964V13.4521Z" fill="#4EA691"/>
<path d="M16.2751 13.4521H15.1963V14.5345H16.2751V13.4521Z" fill="#3E8480"/>
<path d="M17.3537 13.4521H16.2749V14.5345H17.3537V13.4521Z" fill="#9B9DAA"/>
<path d="M18.4323 13.4521H17.3535V14.5345H18.4323V13.4521Z" fill="#F8F8F9"/>
<path d="M19.5114 13.4521H18.4326V14.5345H19.5114V13.4521Z" fill="#9B9DAA"/>
<path d="M20.5895 13.4521H19.5107V14.5345H20.5895V13.4521Z" fill="#9B9DAA"/>
<path d="M21.6686 13.4521H20.5898V14.5345H21.6686V13.4521Z" fill="#9B9DAA"/>
<path d="M22.7472 13.4521H21.6685V14.5345H22.7472V13.4521Z" fill="#F8F8F9"/>
<path d="M23.8258 13.4521H22.7471V14.5345H23.8258V13.4521Z" fill="#9B9DAA"/>
<path d="M24.9045 13.4521H23.8257V14.5345H24.9045V13.4521Z" fill="#4EA691"/>
<path d="M25.9836 13.4521H24.9048V14.5345H25.9836V13.4521Z" fill="#3E8480"/>
<path d="M27.0622 13.4521H25.9834V14.5345H27.0622V13.4521Z" fill="#29564E"/>
<path d="M28.1408 13.4521H27.062V14.5345H28.1408V13.4521Z" fill="#69C9FF"/>
<path d="M29.2194 13.4521H28.1406V14.5345H29.2194V13.4521Z" fill="#69C9FF"/>
<path d="M30.2985 13.4521H29.2197V14.5345H30.2985V13.4521Z" fill="#69C9FF"/>
<path d="M31.3771 13.4521H30.2983V14.5345H31.3771V13.4521Z" fill="#69C9FF"/>
<path d="M32.4557 13.4521H31.377V14.5345H32.4557V13.4521Z" fill="#29564E"/>
<path d="M34.6134 13.4521H33.5347V14.5345H34.6134V13.4521Z" fill="#29564E"/>
<path d="M35.692 13.4521H34.6133V14.5345H35.692V13.4521Z" fill="#D8F6FF"/>
<path d="M5.48746 14.5342H4.40869V15.6165H5.48746V14.5342Z" fill="#D8F6FF"/>
<path d="M6.56656 14.5342H5.48779V15.6165H6.56656V14.5342Z" fill="#29564E"/>
<path d="M8.72379 14.5342H7.64502V15.6165H8.72379V14.5342Z" fill="#29564E"/>
<path d="M9.8024 14.5342H8.72363V15.6165H9.8024V14.5342Z" fill="#69C9FF"/>
<path d="M10.8815 14.5342H9.80273V15.6165H10.8815V14.5342Z" fill="#69C9FF"/>
<path d="M11.9601 14.5342H10.8813V15.6165H11.9601V14.5342Z" fill="#62B3FE"/>
<path d="M13.0387 14.5342H11.96V15.6165H13.0387V14.5342Z" fill="#69C9FF"/>
<path d="M14.1173 14.5342H13.0386V15.6165H14.1173V14.5342Z" fill="#29564E"/>
<path d="M15.1964 14.5342H14.1177V15.6165H15.1964V14.5342Z" fill="#3E8480"/>
<path d="M16.2751 14.5342H15.1963V15.6165H16.2751V14.5342Z" fill="#3E8480"/>
<path d="M17.3537 14.5342H16.2749V15.6165H17.3537V14.5342Z" fill="#9B9DAA"/>
<path d="M18.4323 14.5342H17.3535V15.6165H18.4323V14.5342Z" fill="black"/>
<path d="M19.5114 14.5342H18.4326V15.6165H19.5114V14.5342Z" fill="#9B9DAA"/>
<path d="M20.5895 14.5342H19.5107V15.6165H20.5895V14.5342Z" fill="#9B9DAA"/>
<path d="M21.6686 14.5342H20.5898V15.6165H21.6686V14.5342Z" fill="#9B9DAA"/>
<path d="M22.7472 14.5342H21.6685V15.6165H22.7472V14.5342Z" fill="black"/>
<path d="M23.8258 14.5342H22.7471V15.6165H23.8258V14.5342Z" fill="#9B9DAA"/>
<path d="M24.9045 14.5342H23.8257V15.6165H24.9045V14.5342Z" fill="#3E8480"/>
<path d="M25.9836 14.5342H24.9048V15.6165H25.9836V14.5342Z" fill="#3E8480"/>
<path d="M27.0622 14.5342H25.9834V15.6165H27.0622V14.5342Z" fill="#29564E"/>
<path d="M28.1408 14.5342H27.062V15.6165H28.1408V14.5342Z" fill="#69C9FF"/>
<path d="M29.2194 14.5342H28.1406V15.6165H29.2194V14.5342Z" fill="#62B3FE"/>
<path d="M30.2985 14.5342H29.2197V15.6165H30.2985V14.5342Z" fill="#69C9FF"/>
<path d="M31.3771 14.5342H30.2983V15.6165H31.3771V14.5342Z" fill="#69C9FF"/>
<path d="M32.4557 14.5342H31.377V15.6165H32.4557V14.5342Z" fill="#29564E"/>
<path d="M34.6134 14.5342H33.5347V15.6165H34.6134V14.5342Z" fill="#29564E"/>
<path d="M35.692 14.5342H34.6133V15.6165H35.692V14.5342Z" fill="#D8F6FF"/>
<path d="M5.48746 15.6172H4.40869V16.6995H5.48746V15.6172Z" fill="#D8F6FF"/>
<path d="M4.40885 8.04102H3.33008V9.12338H4.40885V8.04102Z" fill="#D8F6FF"/>
<path d="M4.40885 9.12305H3.33008V10.2054H4.40885V9.12305Z" fill="#D8F6FF"/>
<path d="M4.40885 10.2051H3.33008V11.2874H4.40885V10.2051Z" fill="#D8F6FF"/>
<path d="M4.40885 11.2881H3.33008V12.3704H4.40885V11.2881Z" fill="#D8F6FF"/>
<path d="M4.40885 12.3701H3.33008V13.4525H4.40885V12.3701Z" fill="#D8F6FF"/>
<path d="M4.40885 13.4521H3.33008V14.5345H4.40885V13.4521Z" fill="#D8F6FF"/>
<path d="M4.40885 14.5342H3.33008V15.6165H4.40885V14.5342Z" fill="#D8F6FF"/>
<path d="M4.40885 15.6172H3.33008V16.6995H4.40885V15.6172Z" fill="#D8F6FF"/>
<path d="M6.56656 15.6172H5.48779V16.6995H6.56656V15.6172Z" fill="#29564E"/>
<path d="M8.72379 15.6172H7.64502V16.6995H8.72379V15.6172Z" fill="#29564E"/>
<path d="M9.8024 15.6172H8.72363V16.6995H9.8024V15.6172Z" fill="#69C9FF"/>
<path d="M10.8815 15.6172H9.80273V16.6995H10.8815V15.6172Z" fill="#62B3FE"/>
<path d="M11.9601 15.6172H10.8813V16.6995H11.9601V15.6172Z" fill="#62B3FE"/>
<path d="M13.0387 15.6172H11.96V16.6995H13.0387V15.6172Z" fill="#69C9FF"/>
<path d="M14.1173 15.6172H13.0386V16.6995H14.1173V15.6172Z" fill="#29564E"/>
<path d="M15.1964 15.6172H14.1177V16.6995H15.1964V15.6172Z" fill="#3E8480"/>
<path d="M16.2751 15.6172H15.1963V16.6995H16.2751V15.6172Z" fill="#3E8480"/>
<path d="M17.3537 15.6172H16.2749V16.6995H17.3537V15.6172Z" fill="#F8F8F9"/>
<path d="M18.4323 15.6172H17.3535V16.6995H18.4323V15.6172Z" fill="#F8F8F9"/>
<path d="M19.5114 15.6172H18.4326V16.6995H19.5114V15.6172Z" fill="#F8F8F9"/>
<path d="M20.5895 15.6172H19.5107V16.6995H20.5895V15.6172Z" fill="#F8F8F9"/>
<path d="M21.6686 15.6172H20.5898V16.6995H21.6686V15.6172Z" fill="#F8F8F9"/>
<path d="M22.7472 15.6172H21.6685V16.6995H22.7472V15.6172Z" fill="#9B9DAA"/>
<path d="M23.8258 15.6172H22.7471V16.6995H23.8258V15.6172Z" fill="#9B9DAA"/>
<path d="M24.9045 15.6172H23.8257V16.6995H24.9045V15.6172Z" fill="#3E8480"/>
<path d="M25.9836 15.6172H24.9048V16.6995H25.9836V15.6172Z" fill="#3E8480"/>
<path d="M27.0622 15.6172H25.9834V16.6995H27.0622V15.6172Z" fill="#29564E"/>
<path d="M28.1408 15.6172H27.062V16.6995H28.1408V15.6172Z" fill="#69C9FF"/>
<path d="M29.2194 15.6172H28.1406V16.6995H29.2194V15.6172Z" fill="#62B3FE"/>
<path d="M30.2985 15.6172H29.2197V16.6995H30.2985V15.6172Z" fill="#62B3FE"/>
<path d="M31.3771 15.6172H30.2983V16.6995H31.3771V15.6172Z" fill="#69C9FF"/>
<path d="M32.4557 15.6172H31.377V16.6995H32.4557V15.6172Z" fill="#29564E"/>
<path d="M34.6134 15.6172H33.5347V16.6995H34.6134V15.6172Z" fill="#29564E"/>
<path d="M35.692 15.6172H34.6133V16.6995H35.692V15.6172Z" fill="#D8F6FF"/>
<path d="M36.7707 8.04102H35.6919V9.12338H36.7707V8.04102Z" fill="#D8F6FF"/>
<path d="M36.7707 9.12305H35.6919V10.2054H36.7707V9.12305Z" fill="#D8F6FF"/>
<path d="M36.7707 10.2051H35.6919V11.2874H36.7707V10.2051Z" fill="#D8F6FF"/>
<path d="M36.7707 11.2881H35.6919V12.3704H36.7707V11.2881Z" fill="#D8F6FF"/>
<path d="M36.7707 12.3701H35.6919V13.4525H36.7707V12.3701Z" fill="#D8F6FF"/>
<path d="M36.7707 13.4521H35.6919V14.5345H36.7707V13.4521Z" fill="#D8F6FF"/>
<path d="M36.7707 14.5342H35.6919V15.6165H36.7707V14.5342Z" fill="#D8F6FF"/>
<path d="M36.7707 15.6172H35.6919V16.6995H36.7707V15.6172Z" fill="#D8F6FF"/>
<path d="M4.40885 16.6992H3.33008V17.7816H4.40885V16.6992Z" fill="#D8F6FF"/>
<path d="M5.48746 16.6992H4.40869V17.7816H5.48746V16.6992Z" fill="#D8F6FF"/>
<path d="M6.56656 16.6992H5.48779V17.7816H6.56656V16.6992Z" fill="#29564E"/>
<path d="M8.72379 16.6992H7.64502V17.7816H8.72379V16.6992Z" fill="#29564E"/>
<path d="M9.8024 16.6992H8.72363V17.7816H9.8024V16.6992Z" fill="#62B3FE"/>
<path d="M10.8815 16.6992H9.80273V17.7816H10.8815V16.6992Z" fill="#62B3FE"/>
<path d="M11.9601 16.6992H10.8813V17.7816H11.9601V16.6992Z" fill="#62B3FE"/>
<path d="M13.0387 16.6992H11.96V17.7816H13.0387V16.6992Z" fill="#62B3FE"/>
<path d="M14.1173 16.6992H13.0386V17.7816H14.1173V16.6992Z" fill="#29564E"/>
<path d="M15.1964 16.6992H14.1177V17.7816H15.1964V16.6992Z" fill="#29564E"/>
<path d="M16.2751 16.6992H15.1963V17.7816H16.2751V16.6992Z" fill="#29564E"/>
<path d="M17.3537 16.6992H16.2749V17.7816H17.3537V16.6992Z" fill="#9B9DAA"/>
<path d="M18.4323 16.6992H17.3535V17.7816H18.4323V16.6992Z" fill="#9B9DAA"/>
<path d="M19.5114 16.6992H18.4326V17.7816H19.5114V16.6992Z" fill="#9B9DAA"/>
<path d="M20.5895 16.6992H19.5107V17.7816H20.5895V16.6992Z" fill="#9B9DAA"/>
<path d="M21.6686 16.6992H20.5898V17.7816H21.6686V16.6992Z" fill="#9B9DAA"/>
<path d="M22.7472 16.6992H21.6685V17.7816H22.7472V16.6992Z" fill="#9B9DAA"/>
<path d="M23.8258 16.6992H22.7471V17.7816H23.8258V16.6992Z" fill="#6A6C7B"/>
<path d="M24.9045 16.6992H23.8257V17.7816H24.9045V16.6992Z" fill="#29564E"/>
<path d="M25.9836 16.6992H24.9048V17.7816H25.9836V16.6992Z" fill="#29564E"/>
<path d="M27.0622 16.6992H25.9834V17.7816H27.0622V16.6992Z" fill="#29564E"/>
<path d="M28.1408 16.6992H27.062V17.7816H28.1408V16.6992Z" fill="#62B3FE"/>
<path d="M29.2194 16.6992H28.1406V17.7816H29.2194V16.6992Z" fill="#62B3FE"/>
<path d="M30.2985 16.6992H29.2197V17.7816H30.2985V16.6992Z" fill="#62B3FE"/>
<path d="M31.3771 16.6992H30.2983V17.7816H31.3771V16.6992Z" fill="#62B3FE"/>
<path d="M32.4557 16.6992H31.377V17.7816H32.4557V16.6992Z" fill="#29564E"/>
<path d="M34.6134 16.6992H33.5347V17.7816H34.6134V16.6992Z" fill="#29564E"/>
<path d="M35.692 16.6992H34.6133V17.7816H35.692V16.6992Z" fill="#D8F6FF"/>
<path d="M36.7707 16.6992H35.6919V17.7816H36.7707V16.6992Z" fill="#D8F6FF"/>
<path d="M4.40885 17.7812H3.33008V18.8636H4.40885V17.7812Z" fill="#D8F6FF"/>
<path d="M5.48746 17.7812H4.40869V18.8636H5.48746V17.7812Z" fill="#D8F6FF"/>
<path d="M6.56656 17.7812H5.48779V18.8636H6.56656V17.7812Z" fill="#D8F6FF"/>
<path d="M8.72379 17.7812H7.64502V18.8636H8.72379V17.7812Z" fill="#D8F6FF"/>
<path d="M9.8024 17.7812H8.72363V18.8636H9.8024V17.7812Z" fill="#D8F6FF"/>
<path d="M10.8815 17.7812H9.80273V18.8636H10.8815V17.7812Z" fill="#D8F6FF"/>
<path d="M11.9601 17.7812H10.8813V18.8636H11.9601V17.7812Z" fill="#D8F6FF"/>
<path d="M13.0387 17.7812H11.96V18.8636H13.0387V17.7812Z" fill="#D8F6FF"/>
<path d="M14.1173 17.7812H13.0386V18.8636H14.1173V17.7812Z" fill="#D8F6FF"/>
<path d="M15.1964 17.7812H14.1177V18.8636H15.1964V17.7812Z" fill="#D8F6FF"/>
<path d="M16.2751 17.7812H15.1963V18.8636H16.2751V17.7812Z" fill="#D8F6FF"/>
<path d="M17.3537 17.7812H16.2749V18.8636H17.3537V17.7812Z" fill="#9B9DAA"/>
<path d="M18.4323 17.7812H17.3535V18.8636H18.4323V17.7812Z" fill="#9B9DAA"/>
<path d="M19.5114 17.7812H18.4326V18.8636H19.5114V17.7812Z" fill="#9B9DAA"/>
<path d="M20.5895 17.7812H19.5107V18.8636H20.5895V17.7812Z" fill="black"/>
<path d="M21.6686 17.7812H20.5898V18.8636H21.6686V17.7812Z" fill="#9B9DAA"/>
<path d="M22.7472 17.7812H21.6685V18.8636H22.7472V17.7812Z" fill="#9B9DAA"/>
<path d="M23.8258 17.7812H22.7471V18.8636H23.8258V17.7812Z" fill="#6A6C7B"/>
<path d="M24.9045 17.7812H23.8257V18.8636H24.9045V17.7812Z" fill="#D8F6FF"/>
<path d="M25.9836 17.7812H24.9048V18.8636H25.9836V17.7812Z" fill="#D8F6FF"/>
<path d="M27.0622 17.7812H25.9834V18.8636H27.0622V17.7812Z" fill="#D8F6FF"/>
<path d="M28.1408 17.7812H27.062V18.8636H28.1408V17.7812Z" fill="#D8F6FF"/>
<path d="M29.2194 17.7812H28.1406V18.8636H29.2194V17.7812Z" fill="#D8F6FF"/>
<path d="M30.2985 17.7812H29.2197V18.8636H30.2985V17.7812Z" fill="#D8F6FF"/>
<path d="M31.3771 17.7812H30.2983V18.8636H31.3771V17.7812Z" fill="#D8F6FF"/>
<path d="M32.4557 17.7812H31.377V18.8636H32.4557V17.7812Z" fill="#D8F6FF"/>
<path d="M34.6134 17.7812H33.5347V18.8636H34.6134V17.7812Z" fill="#D8F6FF"/>
<path d="M35.692 17.7812H34.6133V18.8636H35.692V17.7812Z" fill="#D8F6FF"/>
<path d="M36.7707 17.7812H35.6919V18.8636H36.7707V17.7812Z" fill="#D8F6FF"/>
<path d="M4.40885 18.8643H3.33008V19.9466H4.40885V18.8643Z" fill="#69C9FF"/>
<path d="M5.48746 18.8643H4.40869V19.9466H5.48746V18.8643Z" fill="#69C9FF"/>
<path d="M6.56656 18.8643H5.48779V19.9466H6.56656V18.8643Z" fill="#69C9FF"/>
<path d="M7.64517 2.62891H6.56641V3.71127H7.64517V2.62891Z" fill="#29564E"/>
<path d="M7.64517 3.71094H6.56641V4.7933H7.64517V3.71094Z" fill="#71BCAA"/>
<path d="M7.64517 4.79395H6.56641V5.87631H7.64517V4.79395Z" fill="#4EA691"/>
<path d="M7.64517 5.87598H6.56641V6.95834H7.64517V5.87598Z" fill="#4EA691"/>
<path d="M7.64517 6.95801H6.56641V8.04037H7.64517V6.95801Z" fill="#71BCAA"/>
<path d="M7.64517 8.04102H6.56641V9.12338H7.64517V8.04102Z" fill="#71BCAA"/>
<path d="M7.64517 9.12305H6.56641V10.2054H7.64517V9.12305Z" fill="#29564E"/>
<path d="M7.64517 10.2051H6.56641V11.2874H7.64517V10.2051Z" fill="#71BCAA"/>
<path d="M7.64517 11.2881H6.56641V12.3704H7.64517V11.2881Z" fill="#4EA691"/>
<path d="M7.64517 12.3701H6.56641V13.4525H7.64517V12.3701Z" fill="#4EA691"/>
<path d="M7.64517 13.4521H6.56641V14.5345H7.64517V13.4521Z" fill="#4EA691"/>
<path d="M7.64517 14.5342H6.56641V15.6165H7.64517V14.5342Z" fill="#3E8480"/>
<path d="M7.64517 15.6172H6.56641V16.6995H7.64517V15.6172Z" fill="#3E8480"/>
<path d="M7.64517 16.6992H6.56641V17.7816H7.64517V16.6992Z" fill="#29564E"/>
<path d="M7.64517 17.7812H6.56641V18.8636H7.64517V17.7812Z" fill="#D8F6FF"/>
<path d="M7.64517 18.8643H6.56641V19.9466H7.64517V18.8643Z" fill="#69C9FF"/>
<path d="M8.72379 18.8643H7.64502V19.9466H8.72379V18.8643Z" fill="#69C9FF"/>
<path d="M9.8024 18.8643H8.72363V19.9466H9.8024V18.8643Z" fill="#69C9FF"/>
<path d="M10.8815 18.8643H9.80273V19.9466H10.8815V18.8643Z" fill="#69C9FF"/>
<path d="M11.9601 18.8643H10.8813V19.9466H11.9601V18.8643Z" fill="#69C9FF"/>
<path d="M13.0387 18.8643H11.96V19.9466H13.0387V18.8643Z" fill="#69C9FF"/>
<path d="M14.1173 18.8643H13.0386V19.9466H14.1173V18.8643Z" fill="#69C9FF"/>
<path d="M15.1964 18.8643H14.1177V19.9466H15.1964V18.8643Z" fill="#69C9FF"/>
<path d="M16.2751 18.8643H15.1963V19.9466H16.2751V18.8643Z" fill="#69C9FF"/>
<path d="M17.3537 18.8643H16.2749V19.9466H17.3537V18.8643Z" fill="#9B9DAA"/>
<path d="M18.4323 18.8643H17.3535V19.9466H18.4323V18.8643Z" fill="#9B9DAA"/>
<path d="M19.5114 18.8643H18.4326V19.9466H19.5114V18.8643Z" fill="#9B9DAA"/>
<path d="M20.5895 18.8643H19.5107V19.9466H20.5895V18.8643Z" fill="black"/>
<path d="M21.6686 18.8643H20.5898V19.9466H21.6686V18.8643Z" fill="#9B9DAA"/>
<path d="M22.7472 18.8643H21.6685V19.9466H22.7472V18.8643Z" fill="#6A6C7B"/>
<path d="M23.8258 18.8643H22.7471V19.9466H23.8258V18.8643Z" fill="#6A6C7B"/>
<path d="M24.9045 18.8643H23.8257V19.9466H24.9045V18.8643Z" fill="#69C9FF"/>
<path d="M25.9836 18.8643H24.9048V19.9466H25.9836V18.8643Z" fill="#69C9FF"/>
<path d="M27.0622 18.8643H25.9834V19.9466H27.0622V18.8643Z" fill="#69C9FF"/>
<path d="M28.1408 18.8643H27.062V19.9466H28.1408V18.8643Z" fill="#69C9FF"/>
<path d="M29.2194 18.8643H28.1406V19.9466H29.2194V18.8643Z" fill="#69C9FF"/>
<path d="M30.2985 18.8643H29.2197V19.9466H30.2985V18.8643Z" fill="#69C9FF"/>
<path d="M31.3771 18.8643H30.2983V19.9466H31.3771V18.8643Z" fill="#69C9FF"/>
<path d="M32.4557 18.8643H31.377V19.9466H32.4557V18.8643Z" fill="#69C9FF"/>
<path d="M33.5343 2.62891H32.4556V3.71127H33.5343V2.62891Z" fill="#29564E"/>
<path d="M33.5343 3.71094H32.4556V4.7933H33.5343V3.71094Z" fill="#4EA691"/>
<path d="M33.5343 4.79395H32.4556V5.87631H33.5343V4.79395Z" fill="#71BCAA"/>
<path d="M33.5343 5.87598H32.4556V6.95834H33.5343V5.87598Z" fill="#71BCAA"/>
<path d="M33.5343 6.95801H32.4556V8.04037H33.5343V6.95801Z" fill="#4EA691"/>
<path d="M33.5343 8.04102H32.4556V9.12338H33.5343V8.04102Z" fill="#4EA691"/>
<path d="M33.5343 9.12305H32.4556V10.2054H33.5343V9.12305Z" fill="#29564E"/>
<path d="M33.5343 10.2051H32.4556V11.2874H33.5343V10.2051Z" fill="#4EA691"/>
<path d="M33.5343 11.2881H32.4556V12.3704H33.5343V11.2881Z" fill="#4EA691"/>
<path d="M33.5343 12.3701H32.4556V13.4525H33.5343V12.3701Z" fill="#4EA691"/>
<path d="M33.5343 13.4521H32.4556V14.5345H33.5343V13.4521Z" fill="#4EA691"/>
<path d="M33.5343 14.5342H32.4556V15.6165H33.5343V14.5342Z" fill="#3E8480"/>
<path d="M33.5343 15.6172H32.4556V16.6995H33.5343V15.6172Z" fill="#3E8480"/>
<path d="M33.5343 16.6992H32.4556V17.7816H33.5343V16.6992Z" fill="#29564E"/>
<path d="M33.5343 17.7812H32.4556V18.8636H33.5343V17.7812Z" fill="#D8F6FF"/>
<path d="M33.5343 18.8643H32.4556V19.9466H33.5343V18.8643Z" fill="#69C9FF"/>
<path d="M34.6134 18.8643H33.5347V19.9466H34.6134V18.8643Z" fill="#69C9FF"/>
<path d="M35.692 18.8643H34.6133V19.9466H35.692V18.8643Z" fill="#69C9FF"/>
<path d="M36.7707 18.8643H35.6919V19.9466H36.7707V18.8643Z" fill="#69C9FF"/>
<path d="M7.64517 19.9463H6.56641V21.0287H7.64517V19.9463Z" fill="#D8F6FF"/>
<path d="M8.72379 19.9463H7.64502V21.0287H8.72379V19.9463Z" fill="#29564E"/>
<path d="M9.8024 19.9463H8.72363V21.0287H9.8024V19.9463Z" fill="#29564E"/>
<path d="M10.8815 19.9463H9.80273V21.0287H10.8815V19.9463Z" fill="#29564E"/>
<path d="M11.9601 19.9463H10.8813V21.0287H11.9601V19.9463Z" fill="#29564E"/>
<path d="M13.0387 19.9463H11.96V21.0287H13.0387V19.9463Z" fill="#29564E"/>
<path d="M14.1173 19.9463H13.0386V21.0287H14.1173V19.9463Z" fill="#29564E"/>
<path d="M15.1964 19.9463H14.1177V21.0287H15.1964V19.9463Z" fill="#29564E"/>
<path d="M16.2751 19.9463H15.1963V21.0287H16.2751V19.9463Z" fill="#29564E"/>
<path d="M17.3537 19.9463H16.2749V21.0287H17.3537V19.9463Z" fill="#9B9DAA"/>
<path d="M18.4323 19.9463H17.3535V21.0287H18.4323V19.9463Z" fill="#9B9DAA"/>
<path d="M19.5114 19.9463H18.4326V21.0287H19.5114V19.9463Z" fill="#9B9DAA"/>
<path d="M20.5895 19.9463H19.5107V21.0287H20.5895V19.9463Z" fill="#F8F8F9"/>
<path d="M21.6686 19.9463H20.5898V21.0287H21.6686V19.9463Z" fill="#9B9DAA"/>
<path d="M22.7472 19.9463H21.6685V21.0287H22.7472V19.9463Z" fill="#6A6C7B"/>
<path d="M23.8258 19.9463H22.7471V21.0287H23.8258V19.9463Z" fill="#6A6C7B"/>
<path d="M24.9045 19.9463H23.8257V21.0287H24.9045V19.9463Z" fill="#29564E"/>
<path d="M25.9836 19.9463H24.9048V21.0287H25.9836V19.9463Z" fill="#29564E"/>
<path d="M27.0622 19.9463H25.9834V21.0287H27.0622V19.9463Z" fill="#29564E"/>
<path d="M28.1408 19.9463H27.062V21.0287H28.1408V19.9463Z" fill="#29564E"/>
<path d="M29.2194 19.9463H28.1406V21.0287H29.2194V19.9463Z" fill="#29564E"/>
<path d="M30.2985 19.9463H29.2197V21.0287H30.2985V19.9463Z" fill="#29564E"/>
<path d="M31.3771 19.9463H30.2983V21.0287H31.3771V19.9463Z" fill="#29564E"/>
<path d="M32.4557 19.9463H31.377V21.0287H32.4557V19.9463Z" fill="#29564E"/>
<path d="M33.5343 19.9463H32.4556V21.0287H33.5343V19.9463Z" fill="#D8F6FF"/>
<path d="M7.64517 23.1934H6.56641V24.2757H7.64517V23.1934Z" fill="#D8F6FF"/>
<path d="M8.72379 23.1934H7.64502V24.2757H8.72379V23.1934Z" fill="#29564E"/>
<path d="M9.8024 23.1934H8.72363V24.2757H9.8024V23.1934Z" fill="#3E8480"/>
<path d="M10.8815 23.1934H9.80273V24.2757H10.8815V23.1934Z" fill="#3E8480"/>
<path d="M11.9601 23.1934H10.8813V24.2757H11.9601V23.1934Z" fill="#3E8480"/>
<path d="M13.0387 23.1934H11.96V24.2757H13.0387V23.1934Z" fill="#3E8480"/>
<path d="M14.1173 23.1934H13.0386V24.2757H14.1173V23.1934Z" fill="#29564E"/>
<path d="M15.1964 23.1934H14.1177V24.2757H15.1964V23.1934Z" fill="#3E8480"/>
<path d="M16.2751 23.1934H15.1963V24.2757H16.2751V23.1934Z" fill="#3E8480"/>
<path d="M17.3537 23.1934H16.2749V24.2757H17.3537V23.1934Z" fill="#3E8480"/>
<path d="M18.4323 23.1934H17.3535V24.2757H18.4323V23.1934Z" fill="#4EA691"/>
<path d="M19.5114 23.1934H18.4326V24.2757H19.5114V23.1934Z" fill="#4EA691"/>
<path d="M20.5895 23.1934H19.5107V24.2757H20.5895V23.1934Z" fill="#4EA691"/>
<path d="M21.6686 23.1934H20.5898V24.2757H21.6686V23.1934Z" fill="#4EA691"/>
<path d="M22.7472 23.1934H21.6685V24.2757H22.7472V23.1934Z" fill="#3E8480"/>
<path d="M23.8258 23.1934H22.7471V24.2757H23.8258V23.1934Z" fill="#3E8480"/>
<path d="M24.9045 23.1934H23.8257V24.2757H24.9045V23.1934Z" fill="#3E8480"/>
<path d="M25.9836 23.1934H24.9048V24.2757H25.9836V23.1934Z" fill="#3E8480"/>
<path d="M27.0622 23.1934H25.9834V24.2757H27.0622V23.1934Z" fill="#29564E"/>
<path d="M28.1408 23.1934H27.062V24.2757H28.1408V23.1934Z" fill="#3E8480"/>
<path d="M29.2194 23.1934H28.1406V24.2757H29.2194V23.1934Z" fill="#3E8480"/>
<path d="M30.2985 23.1934H29.2197V24.2757H30.2985V23.1934Z" fill="#3E8480"/>
<path d="M31.3771 23.1934H30.2983V24.2757H31.3771V23.1934Z" fill="#4EA691"/>
<path d="M32.4557 23.1934H31.377V24.2757H32.4557V23.1934Z" fill="#29564E"/>
<path d="M33.5343 23.1934H32.4556V24.2757H33.5343V23.1934Z" fill="#D8F6FF"/>
<path d="M7.64517 24.2754H6.56641V25.3578H7.64517V24.2754Z" fill="#D8F6FF"/>
<path d="M8.72379 24.2754H7.64502V25.3578H8.72379V24.2754Z" fill="#3E8480"/>
<path d="M9.8024 24.2754H8.72363V25.3578H9.8024V24.2754Z" fill="#3E8480"/>
<path d="M10.8815 24.2754H9.80273V25.3578H10.8815V24.2754Z" fill="#3E8480"/>
<path d="M11.9601 24.2754H10.8813V25.3578H11.9601V24.2754Z" fill="#3E8480"/>
<path d="M13.0387 24.2754H11.96V25.3578H13.0387V24.2754Z" fill="#3E8480"/>
<path d="M14.1173 24.2754H13.0386V25.3578H14.1173V24.2754Z" fill="#29564E"/>
<path d="M15.1964 24.2754H14.1177V25.3578H15.1964V24.2754Z" fill="#3E8480"/>
<path d="M16.2751 24.2754H15.1963V25.3578H16.2751V24.2754Z" fill="#3E8480"/>
<path d="M17.3537 24.2754H16.2749V25.3578H17.3537V24.2754Z" fill="#3E8480"/>
<path d="M18.4323 24.2754H17.3535V25.3578H18.4323V24.2754Z" fill="#3E8480"/>
<path d="M19.5114 24.2754H18.4326V25.3578H19.5114V24.2754Z" fill="#3E8480"/>
<path d="M20.5895 24.2754H19.5107V25.3578H20.5895V24.2754Z" fill="#3E8480"/>
<path d="M21.6686 24.2754H20.5898V25.3578H21.6686V24.2754Z" fill="#3E8480"/>
<path d="M22.7472 24.2754H21.6685V25.3578H22.7472V24.2754Z" fill="#3E8480"/>
<path d="M23.8258 24.2754H22.7471V25.3578H23.8258V24.2754Z" fill="#3E8480"/>
<path d="M24.9045 24.2754H23.8257V25.3578H24.9045V24.2754Z" fill="#3E8480"/>
<path d="M25.9836 24.2754H24.9048V25.3578H25.9836V24.2754Z" fill="#3E8480"/>
<path d="M27.0622 24.2754H25.9834V25.3578H27.0622V24.2754Z" fill="#3E8480"/>
<path d="M28.1408 24.2754H27.062V25.3578H28.1408V24.2754Z" fill="#3E8480"/>
<path d="M29.2194 24.2754H28.1406V25.3578H29.2194V24.2754Z" fill="#3E8480"/>
<path d="M30.2985 24.2754H29.2197V25.3578H30.2985V24.2754Z" fill="#3E8480"/>
<path d="M31.3771 24.2754H30.2983V25.3578H31.3771V24.2754Z" fill="#3E8480"/>
<path d="M32.4557 24.2754H31.377V25.3578H32.4557V24.2754Z" fill="#29564E"/>
<path d="M33.5343 24.2754H32.4556V25.3578H33.5343V24.2754Z" fill="#D8F6FF"/>
<path d="M7.64517 25.3574H6.56641V26.4398H7.64517V25.3574Z" fill="#D8F6FF"/>
<path d="M8.72379 25.3574H7.64502V26.4398H8.72379V25.3574Z" fill="#29564E"/>
<path d="M9.8024 25.3574H8.72363V26.4398H9.8024V25.3574Z" fill="#3E8480"/>
<path d="M10.8815 25.3574H9.80273V26.4398H10.8815V25.3574Z" fill="#3E8480"/>
<path d="M11.9601 25.3574H10.8813V26.4398H11.9601V25.3574Z" fill="#3E8480"/>
<path d="M13.0387 25.3574H11.96V26.4398H13.0387V25.3574Z" fill="#3E8480"/>
<path d="M14.1173 25.3574H13.0386V26.4398H14.1173V25.3574Z" fill="#3E8480"/>
<path d="M15.1964 25.3574H14.1177V26.4398H15.1964V25.3574Z" fill="#3E8480"/>
<path d="M16.2751 25.3574H15.1963V26.4398H16.2751V25.3574Z" fill="#3E8480"/>
<path d="M17.3537 25.3574H16.2749V26.4398H17.3537V25.3574Z" fill="#3E8480"/>
<path d="M18.4323 25.3574H17.3535V26.4398H18.4323V25.3574Z" fill="#3E8480"/>
<path d="M19.5114 25.3574H18.4326V26.4398H19.5114V25.3574Z" fill="#3E8480"/>
<path d="M20.5895 25.3574H19.5107V26.4398H20.5895V25.3574Z" fill="#3E8480"/>
<path d="M21.6686 25.3574H20.5898V26.4398H21.6686V25.3574Z" fill="#3E8480"/>
<path d="M22.7472 25.3574H21.6685V26.4398H22.7472V25.3574Z" fill="#3E8480"/>
<path d="M23.8258 25.3574H22.7471V26.4398H23.8258V25.3574Z" fill="#3E8480"/>
<path d="M24.9045 25.3574H23.8257V26.4398H24.9045V25.3574Z" fill="#3E8480"/>
<path d="M25.9836 25.3574H24.9048V26.4398H25.9836V25.3574Z" fill="#3E8480"/>
<path d="M27.0622 25.3574H25.9834V26.4398H27.0622V25.3574Z" fill="#29564E"/>
<path d="M28.1408 25.3574H27.062V26.4398H28.1408V25.3574Z" fill="#3E8480"/>
<path d="M29.2194 25.3574H28.1406V26.4398H29.2194V25.3574Z" fill="#3E8480"/>
<path d="M30.2985 25.3574H29.2197V26.4398H30.2985V25.3574Z" fill="#3E8480"/>
<path d="M31.3771 25.3574H30.2983V26.4398H31.3771V25.3574Z" fill="#3E8480"/>
<path d="M32.4557 25.3574H31.377V26.4398H32.4557V25.3574Z" fill="#3E8480"/>
<path d="M33.5343 25.3574H32.4556V26.4398H33.5343V25.3574Z" fill="#D8F6FF"/>
<path d="M7.64517 26.4404H6.56641V27.5228H7.64517V26.4404Z" fill="#D8F6FF"/>
<path d="M8.72379 26.4404H7.64502V27.5228H8.72379V26.4404Z" fill="#29564E"/>
<path d="M9.8024 26.4404H8.72363V27.5228H9.8024V26.4404Z" fill="#3E8480"/>
<path d="M10.8815 26.4404H9.80273V27.5228H10.8815V26.4404Z" fill="#3E8480"/>
<path d="M11.9601 26.4404H10.8813V27.5228H11.9601V26.4404Z" fill="#3E8480"/>
<path d="M13.0387 26.4404H11.96V27.5228H13.0387V26.4404Z" fill="#3E8480"/>
<path d="M14.1173 26.4404H13.0386V27.5228H14.1173V26.4404Z" fill="#29564E"/>
<path d="M15.1964 26.4404H14.1177V27.5228H15.1964V26.4404Z" fill="#3E8480"/>
<path d="M16.2751 26.4404H15.1963V27.5228H16.2751V26.4404Z" fill="#3E8480"/>
<path d="M17.3537 26.4404H16.2749V27.5228H17.3537V26.4404Z" fill="#3E8480"/>
<path d="M18.4323 26.4404H17.3535V27.5228H18.4323V26.4404Z" fill="#3E8480"/>
<path d="M19.5114 26.4404H18.4326V27.5228H19.5114V26.4404Z" fill="#3E8480"/>
<path d="M20.5895 26.4404H19.5107V27.5228H20.5895V26.4404Z" fill="#3E8480"/>
<path d="M21.6686 26.4404H20.5898V27.5228H21.6686V26.4404Z" fill="#3E8480"/>
<path d="M22.7472 26.4404H21.6685V27.5228H22.7472V26.4404Z" fill="#3E8480"/>
<path d="M23.8258 26.4404H22.7471V27.5228H23.8258V26.4404Z" fill="#3E8480"/>
<path d="M24.9045 26.4404H23.8257V27.5228H24.9045V26.4404Z" fill="#3E8480"/>
<path d="M25.9836 26.4404H24.9048V27.5228H25.9836V26.4404Z" fill="#3E8480"/>
<path d="M27.0622 26.4404H25.9834V27.5228H27.0622V26.4404Z" fill="#29564E"/>
<path d="M28.1408 26.4404H27.062V27.5228H28.1408V26.4404Z" fill="#3E8480"/>
<path d="M29.2194 26.4404H28.1406V27.5228H29.2194V26.4404Z" fill="#3E8480"/>
<path d="M30.2985 26.4404H29.2197V27.5228H30.2985V26.4404Z" fill="#3E8480"/>
<path d="M31.3771 26.4404H30.2983V27.5228H31.3771V26.4404Z" fill="#3E8480"/>
<path d="M32.4557 26.4404H31.377V27.5228H32.4557V26.4404Z" fill="#29564E"/>
<path d="M33.5343 26.4404H32.4556V27.5228H33.5343V26.4404Z" fill="#D8F6FF"/>
<path d="M8.72379 27.5225H7.64502V28.6048H8.72379V27.5225Z" fill="#D8F6FF"/>
<path d="M7.64517 27.5225H6.56641V28.6048H7.64517V27.5225Z" fill="#D8F6FF"/>
<path d="M6.56656 19.9463H5.48779V21.0287H6.56656V19.9463Z" fill="#D8F6FF"/>
<path d="M6.56656 23.1934H5.48779V24.2757H6.56656V23.1934Z" fill="#D8F6FF"/>
<path d="M6.56656 24.2754H5.48779V25.3578H6.56656V24.2754Z" fill="#D8F6FF"/>
<path d="M6.56656 25.3574H5.48779V26.4398H6.56656V25.3574Z" fill="#D8F6FF"/>
<path d="M6.56656 26.4404H5.48779V27.5228H6.56656V26.4404Z" fill="#D8F6FF"/>
<path d="M6.56656 27.5225H5.48779V28.6048H6.56656V27.5225Z" fill="#D8F6FF"/>
<path d="M9.8024 27.5225H8.72363V28.6048H9.8024V27.5225Z" fill="#D8F6FF"/>
<path d="M10.8815 27.5225H9.80273V28.6048H10.8815V27.5225Z" fill="#D8F6FF"/>
<path d="M11.9601 27.5225H10.8813V28.6048H11.9601V27.5225Z" fill="#D8F6FF"/>
<path d="M13.0387 27.5225H11.96V28.6048H13.0387V27.5225Z" fill="#D8F6FF"/>
<path d="M14.1173 27.5225H13.0386V28.6048H14.1173V27.5225Z" fill="#D8F6FF"/>
<path d="M15.1964 27.5225H14.1177V28.6048H15.1964V27.5225Z" fill="#D8F6FF"/>
<path d="M16.2751 27.5225H15.1963V28.6048H16.2751V27.5225Z" fill="#D8F6FF"/>
<path d="M17.3537 27.5225H16.2749V28.6048H17.3537V27.5225Z" fill="#D8F6FF"/>
<path d="M18.4323 27.5225H17.3535V28.6048H18.4323V27.5225Z" fill="#D8F6FF"/>
<path d="M19.5114 27.5225H18.4326V28.6048H19.5114V27.5225Z" fill="#D8F6FF"/>
<path d="M20.5895 27.5225H19.5107V28.6048H20.5895V27.5225Z" fill="#D8F6FF"/>
<path d="M21.6686 27.5225H20.5898V28.6048H21.6686V27.5225Z" fill="#D8F6FF"/>
<path d="M22.7472 27.5225H21.6685V28.6048H22.7472V27.5225Z" fill="#D8F6FF"/>
<path d="M23.8258 27.5225H22.7471V28.6048H23.8258V27.5225Z" fill="#D8F6FF"/>
<path d="M24.9045 27.5225H23.8257V28.6048H24.9045V27.5225Z" fill="#D8F6FF"/>
<path d="M25.9836 27.5225H24.9048V28.6048H25.9836V27.5225Z" fill="#D8F6FF"/>
<path d="M27.0622 27.5225H25.9834V28.6048H27.0622V27.5225Z" fill="#D8F6FF"/>
<path d="M28.1408 27.5225H27.062V28.6048H28.1408V27.5225Z" fill="#D8F6FF"/>
<path d="M29.2194 27.5225H28.1406V28.6048H29.2194V27.5225Z" fill="#D8F6FF"/>
<path d="M30.2985 27.5225H29.2197V28.6048H30.2985V27.5225Z" fill="#D8F6FF"/>
<path d="M31.3771 27.5225H30.2983V28.6048H31.3771V27.5225Z" fill="#D8F6FF"/>
<path d="M32.4557 27.5225H31.377V28.6048H32.4557V27.5225Z" fill="#D8F6FF"/>
<path d="M33.5343 27.5225H32.4556V28.6048H33.5343V27.5225Z" fill="#D8F6FF"/>
<path d="M34.6134 19.9463H33.5347V21.0287H34.6134V19.9463Z" fill="#D8F6FF"/>
<path d="M34.6134 23.1934H33.5347V24.2757H34.6134V23.1934Z" fill="#D8F6FF"/>
<path d="M7.64517 22.1113H6.56641V23.1937H7.64517V22.1113Z" fill="#D8F6FF"/>
<path d="M8.72379 22.1113H7.64502V23.1937H8.72379V22.1113Z" fill="#29564E"/>
<path d="M9.8024 22.1113H8.72363V23.1937H9.8024V22.1113Z" fill="#4EA691"/>
<path d="M10.8815 22.1113H9.80273V23.1937H10.8815V22.1113Z" fill="#4EA691"/>
<path d="M11.9601 22.1113H10.8813V23.1937H11.9601V22.1113Z" fill="#3E8480"/>
<path d="M13.0387 22.1113H11.96V23.1937H13.0387V22.1113Z" fill="#3E8480"/>
<path d="M14.1173 22.1113H13.0386V23.1937H14.1173V22.1113Z" fill="#29564E"/>
<path d="M15.1964 22.1113H14.1177V23.1937H15.1964V22.1113Z" fill="#3E8480"/>
<path d="M16.2751 22.1113H15.1963V23.1937H16.2751V22.1113Z" fill="#4EA691"/>
<path d="M17.3537 22.1113H16.2749V23.1937H17.3537V22.1113Z" fill="#4EA691"/>
<path d="M18.4323 22.1113H17.3535V23.1937H18.4323V22.1113Z" fill="#9B9DAA"/>
<path d="M19.5114 22.1113H18.4326V23.1937H19.5114V22.1113Z" fill="#9B9DAA"/>
<path d="M20.5895 22.1113H19.5107V23.1937H20.5895V22.1113Z" fill="#6A6C7B"/>
<path d="M21.6686 22.1113H20.5898V23.1937H21.6686V22.1113Z" fill="#6A6C7B"/>
<path d="M22.7472 22.1113H21.6685V23.1937H22.7472V22.1113Z" fill="#6A6C7B"/>
<path d="M23.8258 22.1113H22.7471V23.1937H23.8258V22.1113Z" fill="#4EA691"/>
<path d="M24.9045 22.1113H23.8257V23.1937H24.9045V22.1113Z" fill="#3E8480"/>
<path d="M25.9836 22.1113H24.9048V23.1937H25.9836V22.1113Z" fill="#3E8480"/>
<path d="M27.0622 22.1113H25.9834V23.1937H27.0622V22.1113Z" fill="#29564E"/>
<path d="M28.1408 22.1113H27.062V23.1937H28.1408V22.1113Z" fill="#3E8480"/>
<path d="M29.2194 22.1113H28.1406V23.1937H29.2194V22.1113Z" fill="#4EA691"/>
<path d="M30.2985 22.1113H29.2197V23.1937H30.2985V22.1113Z" fill="#4EA691"/>
<path d="M31.3771 22.1113H30.2983V23.1937H31.3771V22.1113Z" fill="#4EA691"/>
<path d="M32.4557 22.1113H31.377V23.1937H32.4557V22.1113Z" fill="#29564E"/>
<path d="M33.5343 22.1113H32.4556V23.1937H33.5343V22.1113Z" fill="#D8F6FF"/>
<path d="M6.56656 22.1113H5.48779V23.1937H6.56656V22.1113Z" fill="#D8F6FF"/>
<path d="M34.6134 22.1113H33.5347V23.1937H34.6134V22.1113Z" fill="#D8F6FF"/>
<path d="M7.64517 21.0283H6.56641V22.1107H7.64517V21.0283Z" fill="#D8F6FF"/>
<path d="M8.72379 21.0283H7.64502V22.1107H8.72379V21.0283Z" fill="#29564E"/>
<path d="M9.8024 21.0283H8.72363V22.1107H9.8024V21.0283Z" fill="#4EA691"/>
<path d="M10.8815 21.0283H9.80273V22.1107H10.8815V21.0283Z" fill="#4EA691"/>
<path d="M11.9601 21.0283H10.8813V22.1107H11.9601V21.0283Z" fill="#4EA691"/>
<path d="M13.0387 21.0283H11.96V22.1107H13.0387V21.0283Z" fill="#4EA691"/>
<path d="M14.1173 21.0283H13.0386V22.1107H14.1173V21.0283Z" fill="#29564E"/>
<path d="M15.1964 21.0283H14.1177V22.1107H15.1964V21.0283Z" fill="#4EA691"/>
<path d="M16.2751 21.0283H15.1963V22.1107H16.2751V21.0283Z" fill="#4EA691"/>
<path d="M17.3537 21.0283H16.2749V22.1107H17.3537V21.0283Z" fill="#9B9DAA"/>
<path d="M18.4323 21.0283H17.3535V22.1107H18.4323V21.0283Z" fill="#9B9DAA"/>
<path d="M19.5114 21.0283H18.4326V22.1107H19.5114V21.0283Z" fill="#9B9DAA"/>
<path d="M20.5895 21.0283H19.5107V22.1107H20.5895V21.0283Z" fill="#9B9DAA"/>
<path d="M21.6686 21.0283H20.5898V22.1107H21.6686V21.0283Z" fill="#9B9DAA"/>
<path d="M22.7472 21.0283H21.6685V22.1107H22.7472V21.0283Z" fill="#6A6C7B"/>
<path d="M23.8258 21.0283H22.7471V22.1107H23.8258V21.0283Z" fill="#6A6C7B"/>
<path d="M24.9045 21.0283H23.8257V22.1107H24.9045V21.0283Z" fill="#4EA691"/>
<path d="M25.9836 21.0283H24.9048V22.1107H25.9836V21.0283Z" fill="#4EA691"/>
<path d="M27.0622 21.0283H25.9834V22.1107H27.0622V21.0283Z" fill="#29564E"/>
<path d="M28.1408 21.0283H27.062V22.1107H28.1408V21.0283Z" fill="#4EA691"/>
<path d="M29.2194 21.0283H28.1406V22.1107H29.2194V21.0283Z" fill="#4EA691"/>
<path d="M30.2985 21.0283H29.2197V22.1107H30.2985V21.0283Z" fill="#4EA691"/>
<path d="M31.3771 21.0283H30.2983V22.1107H31.3771V21.0283Z" fill="#4EA691"/>
<path d="M32.4557 21.0283H31.377V22.1107H32.4557V21.0283Z" fill="#29564E"/>
<path d="M33.5343 21.0283H32.4556V22.1107H33.5343V21.0283Z" fill="#D8F6FF"/>
<path d="M6.56656 21.0283H5.48779V22.1107H6.56656V21.0283Z" fill="#D8F6FF"/>
<path d="M34.6134 21.0283H33.5347V22.1107H34.6134V21.0283Z" fill="#D8F6FF"/>
<path d="M34.6134 24.2754H33.5347V25.3578H34.6134V24.2754Z" fill="#D8F6FF"/>
<path d="M34.6134 25.3574H33.5347V26.4398H34.6134V25.3574Z" fill="#D8F6FF"/>
<path d="M34.6134 26.4404H33.5347V27.5228H34.6134V26.4404Z" fill="#D8F6FF"/>
<path d="M34.6134 27.5225H33.5347V28.6048H34.6134V27.5225Z" fill="#D8F6FF"/>
<path d="M8.72379 28.6045H7.64502V29.6869H8.72379V28.6045Z" fill="#D8F6FF"/>
<path d="M7.64517 28.6045H6.56641V29.6869H7.64517V28.6045Z" fill="#D8F6FF"/>
<path d="M6.56656 28.6045H5.48779V29.6869H6.56656V28.6045Z" fill="#D8F6FF"/>
<path d="M9.8024 28.6045H8.72363V29.6869H9.8024V28.6045Z" fill="#D8F6FF"/>
<path d="M10.8815 28.6045H9.80273V29.6869H10.8815V28.6045Z" fill="#D8F6FF"/>
<path d="M11.9601 28.6045H10.8813V29.6869H11.9601V28.6045Z" fill="#D8F6FF"/>
<path d="M13.0387 28.6045H11.96V29.6869H13.0387V28.6045Z" fill="#D8F6FF"/>
<path d="M14.1173 28.6045H13.0386V29.6869H14.1173V28.6045Z" fill="#D8F6FF"/>
<path d="M15.1964 28.6045H14.1177V29.6869H15.1964V28.6045Z" fill="#D8F6FF"/>
<path d="M16.2751 28.6045H15.1963V29.6869H16.2751V28.6045Z" fill="#D8F6FF"/>
<path d="M17.3537 28.6045H16.2749V29.6869H17.3537V28.6045Z" fill="#D8F6FF"/>
<path d="M18.4323 28.6045H17.3535V29.6869H18.4323V28.6045Z" fill="#D8F6FF"/>
<path d="M19.5114 28.6045H18.4326V29.6869H19.5114V28.6045Z" fill="#D8F6FF"/>
<path d="M20.5895 28.6045H19.5107V29.6869H20.5895V28.6045Z" fill="#D8F6FF"/>
<path d="M21.6686 28.6045H20.5898V29.6869H21.6686V28.6045Z" fill="#D8F6FF"/>
<path d="M22.7472 28.6045H21.6685V29.6869H22.7472V28.6045Z" fill="#D8F6FF"/>
<path d="M23.8258 28.6045H22.7471V29.6869H23.8258V28.6045Z" fill="#D8F6FF"/>
<path d="M24.9045 28.6045H23.8257V29.6869H24.9045V28.6045Z" fill="#D8F6FF"/>
<path d="M25.9836 28.6045H24.9048V29.6869H25.9836V28.6045Z" fill="#D8F6FF"/>
<path d="M27.0622 28.6045H25.9834V29.6869H27.0622V28.6045Z" fill="#D8F6FF"/>
<path d="M28.1408 28.6045H27.062V29.6869H28.1408V28.6045Z" fill="#D8F6FF"/>
<path d="M29.2194 28.6045H28.1406V29.6869H29.2194V28.6045Z" fill="#D8F6FF"/>
<path d="M30.2985 28.6045H29.2197V29.6869H30.2985V28.6045Z" fill="#D8F6FF"/>
<path d="M31.3771 28.6045H30.2983V29.6869H31.3771V28.6045Z" fill="#D8F6FF"/>
<path d="M32.4557 28.6045H31.377V29.6869H32.4557V28.6045Z" fill="#D8F6FF"/>
<path d="M33.5343 28.6045H32.4556V29.6869H33.5343V28.6045Z" fill="#D8F6FF"/>
<path d="M34.6134 28.6045H33.5347V29.6869H34.6134V28.6045Z" fill="#D8F6FF"/>
<path d="M8.72379 29.6865H7.64502V30.7689H8.72379V29.6865Z" fill="#2F81BD"/>
<path d="M7.64517 29.6865H6.56641V30.7689H7.64517V29.6865Z" fill="#2F81BD"/>
<path d="M6.56656 29.6865H5.48779V30.7689H6.56656V29.6865Z" fill="#2F81BD"/>
<path d="M9.8024 29.6865H8.72363V30.7689H9.8024V29.6865Z" fill="#2F81BD"/>
<path d="M10.8815 29.6865H9.80273V30.7689H10.8815V29.6865Z" fill="#2F81BD"/>
<path d="M11.9601 29.6865H10.8813V30.7689H11.9601V29.6865Z" fill="#2F81BD"/>
<path d="M13.0387 29.6865H11.96V30.7689H13.0387V29.6865Z" fill="#2F81BD"/>
<path d="M14.1173 29.6865H13.0386V30.7689H14.1173V29.6865Z" fill="#2F81BD"/>
<path d="M15.1964 29.6865H14.1177V30.7689H15.1964V29.6865Z" fill="#2F81BD"/>
<path d="M16.2751 29.6865H15.1963V30.7689H16.2751V29.6865Z" fill="#2F81BD"/>
<path d="M17.3537 29.6865H16.2749V30.7689H17.3537V29.6865Z" fill="#2F81BD"/>
<path d="M18.4323 29.6865H17.3535V30.7689H18.4323V29.6865Z" fill="#2F81BD"/>
<path d="M19.5114 29.6865H18.4326V30.7689H19.5114V29.6865Z" fill="#2F81BD"/>
<path d="M20.5895 29.6865H19.5107V30.7689H20.5895V29.6865Z" fill="#2F81BD"/>
<path d="M21.6686 29.6865H20.5898V30.7689H21.6686V29.6865Z" fill="#2F81BD"/>
<path d="M22.7472 29.6865H21.6685V30.7689H22.7472V29.6865Z" fill="#2F81BD"/>
<path d="M23.8258 29.6865H22.7471V30.7689H23.8258V29.6865Z" fill="#2F81BD"/>
<path d="M24.9045 29.6865H23.8257V30.7689H24.9045V29.6865Z" fill="#2F81BD"/>
<path d="M25.9836 29.6865H24.9048V30.7689H25.9836V29.6865Z" fill="#2F81BD"/>
<path d="M27.0622 29.6865H25.9834V30.7689H27.0622V29.6865Z" fill="#2F81BD"/>
<path d="M28.1408 29.6865H27.062V30.7689H28.1408V29.6865Z" fill="#2F81BD"/>
<path d="M29.2194 29.6865H28.1406V30.7689H29.2194V29.6865Z" fill="#2F81BD"/>
<path d="M30.2985 29.6865H29.2197V30.7689H30.2985V29.6865Z" fill="#2F81BD"/>
<path d="M31.3771 29.6865H30.2983V30.7689H31.3771V29.6865Z" fill="#2F81BD"/>
<path d="M32.4557 29.6865H31.377V30.7689H32.4557V29.6865Z" fill="#2F81BD"/>
<path d="M33.5343 29.6865H32.4556V30.7689H33.5343V29.6865Z" fill="#2F81BD"/>
<path d="M34.6134 29.6865H33.5347V30.7689H34.6134V29.6865Z" fill="#2F81BD"/>
</svg>
