<svg width="39" height="33" viewBox="0 0 39 33" fill="none" xmlns="http://www.w3.org/2000/svg">
<path d="M4.51568 4.51758H3.50342V5.52984H4.51568V4.51758Z" fill="#1E0505"/>
<path d="M3.50396 5.5293H2.4917V6.54156H3.50396V5.5293Z" fill="#1E0505"/>
<path d="M3.50396 6.54199H2.4917V7.55425H3.50396V6.54199Z" fill="#1E0505"/>
<path d="M3.50396 7.55469H2.4917V8.56695H3.50396V7.55469Z" fill="#1E0505"/>
<path d="M3.50396 8.56641H2.4917V9.57867H3.50396V8.56641Z" fill="#1E0505"/>
<path d="M3.50396 9.5791H2.4917V10.5914H3.50396V9.5791Z" fill="#1E0505"/>
<path d="M3.50396 10.5908H2.4917V11.6031H3.50396V10.5908Z" fill="#1E0505"/>
<path d="M3.50396 11.6035H2.4917V12.6158H3.50396V11.6035Z" fill="#1E0505"/>
<path d="M3.50396 12.6152H2.4917V13.6275H3.50396V12.6152Z" fill="#1E0505"/>
<path d="M3.50396 13.6279H2.4917V14.6402H3.50396V13.6279Z" fill="#1E0505"/>
<path d="M3.50396 14.6396H2.4917V15.6519H3.50396V14.6396Z" fill="#1E0505"/>
<path d="M4.51568 15.6523H3.50342V16.6646H4.51568V15.6523Z" fill="#1E0505"/>
<path d="M5.52838 15.6523H4.51611V16.6646H5.52838V15.6523Z" fill="#1E0505"/>
<path d="M6.54058 15.6523H5.52832V16.6646H6.54058V15.6523Z" fill="#1E0505"/>
<path d="M7.55279 15.6523H6.54053V16.6646H7.55279V15.6523Z" fill="#1E0505"/>
<path d="M7.55279 15.6523H6.54053V16.6646H7.55279V15.6523Z" fill="#1E0505"/>
<path d="M7.55279 16.665H6.54053V17.6773H7.55279V16.665Z" fill="#1E0505"/>
<path d="M7.55279 17.6768H6.54053V18.689H7.55279V17.6768Z" fill="#1E0505"/>
<path d="M7.55279 18.6895H6.54053V19.7017H7.55279V18.6895Z" fill="#1E0505"/>
<path d="M7.55279 19.7012H6.54053V20.7134H7.55279V19.7012Z" fill="#1E0505"/>
<path d="M7.55279 20.7139H6.54053V21.7261H7.55279V20.7139Z" fill="#1E0505"/>
<path d="M7.55279 21.7256H6.54053V22.7378H7.55279V21.7256Z" fill="#1E0505"/>
<path d="M7.55279 22.7383H6.54053V23.7505H7.55279V22.7383Z" fill="#1E0505"/>
<path d="M7.55279 23.75H6.54053V24.7623H7.55279V23.75Z" fill="#1E0505"/>
<path d="M7.55279 24.7627H6.54053V25.775H7.55279V24.7627Z" fill="#1E0505"/>
<path d="M7.55279 25.7744H6.54053V26.7867H7.55279V25.7744Z" fill="#1E0505"/>
<path d="M8.565 16.665H7.55273V17.6773H8.565V16.665Z" fill="#F67A1B"/>
<path d="M8.565 17.6768H7.55273V18.689H8.565V17.6768Z" fill="#F67A1B"/>
<path d="M8.565 18.6895H7.55273V19.7017H8.565V18.6895Z" fill="#F67A1B"/>
<path d="M8.565 19.7012H7.55273V20.7134H8.565V19.7012Z" fill="#A41208"/>
<path d="M8.565 20.7139H7.55273V21.7261H8.565V20.7139Z" fill="#A41208"/>
<path d="M8.565 21.7256H7.55273V22.7378H8.565V21.7256Z" fill="#A41208"/>
<path d="M8.565 22.7383H7.55273V23.7505H8.565V22.7383Z" fill="#A41208"/>
<path d="M8.565 23.75H7.55273V24.7623H8.565V23.75Z" fill="#A41208"/>
<path d="M8.565 24.7627H7.55273V25.775H8.565V24.7627Z" fill="#A41208"/>
<path d="M8.565 25.7744H7.55273V26.7867H8.565V25.7744Z" fill="#A41208"/>
<path d="M9.5772 16.665H8.56494V17.6773H9.5772V16.665Z" fill="#F67A1B"/>
<path d="M9.5772 17.6768H8.56494V18.689H9.5772V17.6768Z" fill="#F67A1B"/>
<path d="M9.5772 18.6895H8.56494V19.7017H9.5772V18.6895Z" fill="#F67A1B"/>
<path d="M9.5772 19.7012H8.56494V20.7134H9.5772V19.7012Z" fill="#F67A1B"/>
<path d="M9.5772 20.7139H8.56494V21.7261H9.5772V20.7139Z" fill="#F67A1B"/>
<path d="M9.5772 21.7256H8.56494V22.7378H9.5772V21.7256Z" fill="#C23E00"/>
<path d="M9.5772 22.7383H8.56494V23.7505H9.5772V22.7383Z" fill="#C23E00"/>
<path d="M9.5772 23.75H8.56494V24.7623H9.5772V23.75Z" fill="#A41208"/>
<path d="M9.5772 24.7627H8.56494V25.775H9.5772V24.7627Z" fill="#A41208"/>
<path d="M9.5772 25.7744H8.56494V26.7867H9.5772V25.7744Z" fill="#A41208"/>
<path d="M10.5894 16.665H9.57715V17.6773H10.5894V16.665Z" fill="#636363"/>
<path d="M10.5894 17.6768H9.57715V18.689H10.5894V17.6768Z" fill="#636363"/>
<path d="M10.5894 18.6895H9.57715V19.7017H10.5894V18.6895Z" fill="#636363"/>
<path d="M10.5894 19.7012H9.57715V20.7134H10.5894V19.7012Z" fill="#C23E00"/>
<path d="M10.5894 20.7139H9.57715V21.7261H10.5894V20.7139Z" fill="#C23E00"/>
<path d="M10.5894 21.7256H9.57715V22.7378H10.5894V21.7256Z" fill="#C23E00"/>
<path d="M10.5894 22.7383H9.57715V23.7505H10.5894V22.7383Z" fill="#C23E00"/>
<path d="M10.5894 23.75H9.57715V24.7623H10.5894V23.75Z" fill="#C23E00"/>
<path d="M10.5894 24.7627H9.57715V25.775H10.5894V24.7627Z" fill="#660B09"/>
<path d="M10.5894 25.7744H9.57715V26.7867H10.5894V25.7744Z" fill="#660B09"/>
<path d="M11.6016 16.665H10.5894V17.6773H11.6016V16.665Z" fill="#595959"/>
<path d="M11.6016 17.6768H10.5894V18.689H11.6016V17.6768Z" fill="#595959"/>
<path d="M11.6016 18.6895H10.5894V19.7017H11.6016V18.6895Z" fill="#636363"/>
<path d="M11.6016 19.7012H10.5894V20.7134H11.6016V19.7012Z" fill="#636363"/>
<path d="M11.6016 20.7139H10.5894V21.7261H11.6016V20.7139Z" fill="#636363"/>
<path d="M11.6016 21.7256H10.5894V22.7378H11.6016V21.7256Z" fill="#C23E00"/>
<path d="M11.6016 22.7383H10.5894V23.7505H11.6016V22.7383Z" fill="#C23E00"/>
<path d="M11.6016 23.75H10.5894V24.7623H11.6016V23.75Z" fill="#C23E00"/>
<path d="M11.6016 24.7627H10.5894V25.775H11.6016V24.7627Z" fill="#C23E00"/>
<path d="M11.6016 25.7744H10.5894V26.7867H11.6016V25.7744Z" fill="#660B09"/>
<path d="M12.6143 16.665H11.6021V17.6773H12.6143V16.665Z" fill="#595959"/>
<path d="M12.6143 17.6768H11.6021V18.689H12.6143V17.6768Z" fill="#595959"/>
<path d="M12.6143 18.6895H11.6021V19.7017H12.6143V18.6895Z" fill="#595959"/>
<path d="M12.6143 19.7012H11.6021V20.7134H12.6143V19.7012Z" fill="#595959"/>
<path d="M12.6143 20.7139H11.6021V21.7261H12.6143V20.7139Z" fill="#595959"/>
<path d="M12.6143 21.7256H11.6021V22.7378H12.6143V21.7256Z" fill="#636363"/>
<path d="M12.6143 22.7383H11.6021V23.7505H12.6143V22.7383Z" fill="#636363"/>
<path d="M12.6143 23.75H11.6021V24.7623H12.6143V23.75Z" fill="#636363"/>
<path d="M12.6143 24.7627H11.6021V25.775H12.6143V24.7627Z" fill="#C23E00"/>
<path d="M12.6143 25.7744H11.6021V26.7867H12.6143V25.7744Z" fill="#660B09"/>
<path d="M7.55279 26.7871H6.54053V27.7994H7.55279V26.7871Z" fill="#1E0505"/>
<path d="M8.565 15.6523H7.55273V16.6646H8.565V15.6523Z" fill="#1E0505"/>
<path d="M9.5772 15.6523H8.56494V16.6646H9.5772V15.6523Z" fill="#1E0505"/>
<path d="M10.5894 15.6523H9.57715V16.6646H10.5894V15.6523Z" fill="#1E0505"/>
<path d="M11.6016 15.6523H10.5894V16.6646H11.6016V15.6523Z" fill="#1E0505"/>
<path d="M12.6143 15.6523H11.6021V16.6646H12.6143V15.6523Z" fill="#1E0505"/>
<path d="M3.50396 15.6523H2.4917V16.6646H3.50396V15.6523Z" fill="#1E0505"/>
<path d="M3.50396 16.665H2.4917V17.6773H3.50396V16.665Z" fill="#1E0505"/>
<path d="M3.50396 17.6768H2.4917V18.689H3.50396V17.6768Z" fill="#1E0505"/>
<path d="M3.50396 18.6895H2.4917V19.7017H3.50396V18.6895Z" fill="#1E0505"/>
<path d="M3.50396 19.7012H2.4917V20.7134H3.50396V19.7012Z" fill="#1E0505"/>
<path d="M3.50396 20.7139H2.4917V21.7261H3.50396V20.7139Z" fill="#1E0505"/>
<path d="M3.50396 21.7256H2.4917V22.7378H3.50396V21.7256Z" fill="#1E0505"/>
<path d="M3.50396 22.7383H2.4917V23.7505H3.50396V22.7383Z" fill="#1E0505"/>
<path d="M3.50396 23.75H2.4917V24.7623H3.50396V23.75Z" fill="#1E0505"/>
<path d="M3.50396 24.7627H2.4917V25.775H3.50396V24.7627Z" fill="#1E0505"/>
<path d="M3.50396 25.7744H2.4917V26.7867H3.50396V25.7744Z" fill="#1E0505"/>
<path d="M3.50396 26.7871H2.4917V27.7994H3.50396V26.7871Z" fill="#1E0505"/>
<path d="M3.50396 27.7998H2.4917V28.8121H3.50396V27.7998Z" fill="#1E0505"/>
<path d="M3.50396 28.8115H2.4917V29.8238H3.50396V28.8115Z" fill="#1E0505"/>
<path d="M3.50396 29.8242H2.4917V30.8365H3.50396V29.8242Z" fill="#1E0505"/>
<path d="M4.51568 29.8242H3.50342V30.8365H4.51568V29.8242Z" fill="#1E0505"/>
<path d="M5.52838 29.8242H4.51611V30.8365H5.52838V29.8242Z" fill="#1E0505"/>
<path d="M6.54058 29.8242H5.52832V30.8365H6.54058V29.8242Z" fill="#1E0505"/>
<path d="M7.55279 29.8242H6.54053V30.8365H7.55279V29.8242Z" fill="#1E0505"/>
<path d="M8.565 29.8242H7.55273V30.8365H8.565V29.8242Z" fill="#1E0505"/>
<path d="M9.5772 29.8242H8.56494V30.8365H9.5772V29.8242Z" fill="#1E0505"/>
<path d="M10.5894 29.8242H9.57715V30.8365H10.5894V29.8242Z" fill="#1E0505"/>
<path d="M11.6016 29.8242H10.5894V30.8365H11.6016V29.8242Z" fill="#1E0505"/>
<path d="M12.6143 29.8242H11.6021V30.8365H12.6143V29.8242Z" fill="#1E0505"/>
<path d="M13.6265 29.8242H12.6143V30.8365H13.6265V29.8242Z" fill="#1E0505"/>
<path d="M14.6387 29.8242H13.6265V30.8365H14.6387V29.8242Z" fill="#1E0505"/>
<path d="M15.6509 29.8242H14.6387V30.8365H15.6509V29.8242Z" fill="#1E0505"/>
<path d="M16.6631 29.8242H15.6509V30.8365H16.6631V29.8242Z" fill="#1E0505"/>
<path d="M17.6753 29.8242H16.6631V30.8365H17.6753V29.8242Z" fill="#1E0505"/>
<path d="M18.6876 29.8242H17.6753V30.8365H18.6876V29.8242Z" fill="#1E0505"/>
<path d="M19.6998 29.8242H18.6875V30.8365H19.6998V29.8242Z" fill="#1E0505"/>
<path d="M5.52838 4.51758H4.51611V5.52984H5.52838V4.51758Z" fill="#1E0505"/>
<path d="M6.54058 4.51758H5.52832V5.52984H6.54058V4.51758Z" fill="#1E0505"/>
<path d="M4.51568 5.5293H3.50342V6.54156H4.51568V5.5293Z" fill="#423E3E"/>
<path d="M5.52838 5.5293H4.51611V6.54156H5.52838V5.5293Z" fill="#595959"/>
<path d="M6.54058 5.5293H5.52832V6.54156H6.54058V5.5293Z" fill="#636363"/>
<path d="M4.51568 6.54199H3.50342V7.55425H4.51568V6.54199Z" fill="#423E3E"/>
<path d="M5.52838 6.54199H4.51611V7.55425H5.52838V6.54199Z" fill="#595959"/>
<path d="M6.54058 6.54199H5.52832V7.55425H6.54058V6.54199Z" fill="#636363"/>
<path d="M4.51568 7.55469H3.50342V8.56695H4.51568V7.55469Z" fill="#423E3E"/>
<path d="M5.52838 7.55469H4.51611V8.56695H5.52838V7.55469Z" fill="#595959"/>
<path d="M6.54058 7.55469H5.52832V8.56695H6.54058V7.55469Z" fill="#636363"/>
<path d="M4.51568 8.56641H3.50342V9.57867H4.51568V8.56641Z" fill="#423E3E"/>
<path d="M5.52838 8.56641H4.51611V9.57867H5.52838V8.56641Z" fill="#595959"/>
<path d="M6.54058 8.56641H5.52832V9.57867H6.54058V8.56641Z" fill="#636363"/>
<path d="M4.51568 9.5791H3.50342V10.5914H4.51568V9.5791Z" fill="#423E3E"/>
<path d="M5.52838 9.5791H4.51611V10.5914H5.52838V9.5791Z" fill="#595959"/>
<path d="M6.54058 9.5791H5.52832V10.5914H6.54058V9.5791Z" fill="#636363"/>
<path d="M4.51568 10.5908H3.50342V11.6031H4.51568V10.5908Z" fill="#423E3E"/>
<path d="M5.52838 10.5908H4.51611V11.6031H5.52838V10.5908Z" fill="#595959"/>
<path d="M6.54058 10.5908H5.52832V11.6031H6.54058V10.5908Z" fill="#636363"/>
<path d="M7.55279 10.5908H6.54053V11.6031H7.55279V10.5908Z" fill="#636363"/>
<path d="M7.55279 9.5791H6.54053V10.5914H7.55279V9.5791Z" fill="#636363"/>
<path d="M8.565 10.5908H7.55273V11.6031H8.565V10.5908Z" fill="#636363"/>
<path d="M7.55279 11.6035H6.54053V12.6158H7.55279V11.6035Z" fill="#595959"/>
<path d="M8.565 11.6035H7.55273V12.6158H8.565V11.6035Z" fill="#636363"/>
<path d="M9.5772 11.6035H8.56494V12.6158H9.5772V11.6035Z" fill="#636363"/>
<path d="M4.51568 11.6035H3.50342V12.6158H4.51568V11.6035Z" fill="#423E3E"/>
<path d="M4.51568 16.665H3.50342V17.6773H4.51568V16.665Z" fill="#423E3E"/>
<path d="M4.51568 17.6768H3.50342V18.689H4.51568V17.6768Z" fill="#423E3E"/>
<path d="M4.51568 18.6895H3.50342V19.7017H4.51568V18.6895Z" fill="#423E3E"/>
<path d="M4.51568 19.7012H3.50342V20.7134H4.51568V19.7012Z" fill="#423E3E"/>
<path d="M4.51568 20.7139H3.50342V21.7261H4.51568V20.7139Z" fill="#595959"/>
<path d="M4.51568 21.7256H3.50342V22.7378H4.51568V21.7256Z" fill="#423E3E"/>
<path d="M4.51568 22.7383H3.50342V23.7505H4.51568V22.7383Z" fill="#423E3E"/>
<path d="M4.51568 23.75H3.50342V24.7623H4.51568V23.75Z" fill="#423E3E"/>
<path d="M4.51568 24.7627H3.50342V25.775H4.51568V24.7627Z" fill="#595959"/>
<path d="M4.51568 25.7744H3.50342V26.7867H4.51568V25.7744Z" fill="#423E3E"/>
<path d="M4.51568 26.7871H3.50342V27.7994H4.51568V26.7871Z" fill="#423E3E"/>
<path d="M4.51568 27.7998H3.50342V28.8121H4.51568V27.7998Z" fill="#423E3E"/>
<path d="M4.51568 28.8115H3.50342V29.8238H4.51568V28.8115Z" fill="#595959"/>
<path d="M5.52838 16.665H4.51611V17.6773H5.52838V16.665Z" fill="#595959"/>
<path d="M5.52838 17.6768H4.51611V18.689H5.52838V17.6768Z" fill="#595959"/>
<path d="M5.52838 18.6895H4.51611V19.7017H5.52838V18.6895Z" fill="#595959"/>
<path d="M5.52838 19.7012H4.51611V20.7134H5.52838V19.7012Z" fill="#595959"/>
<path d="M5.52838 20.7139H4.51611V21.7261H5.52838V20.7139Z" fill="#595959"/>
<path d="M5.52838 21.7256H4.51611V22.7378H5.52838V21.7256Z" fill="#595959"/>
<path d="M5.52838 22.7383H4.51611V23.7505H5.52838V22.7383Z" fill="#595959"/>
<path d="M5.52838 23.75H4.51611V24.7623H5.52838V23.75Z" fill="#595959"/>
<path d="M5.52838 24.7627H4.51611V25.775H5.52838V24.7627Z" fill="#595959"/>
<path d="M5.52838 25.7744H4.51611V26.7867H5.52838V25.7744Z" fill="#595959"/>
<path d="M5.52838 26.7871H4.51611V27.7994H5.52838V26.7871Z" fill="#595959"/>
<path d="M5.52838 27.7998H4.51611V28.8121H5.52838V27.7998Z" fill="#423E3E"/>
<path d="M5.52838 28.8115H4.51611V29.8238H5.52838V28.8115Z" fill="#423E3E"/>
<path d="M6.54058 16.665H5.52832V17.6773H6.54058V16.665Z" fill="#636363"/>
<path d="M6.54058 17.6768H5.52832V18.689H6.54058V17.6768Z" fill="#595959"/>
<path d="M6.54058 18.6895H5.52832V19.7017H6.54058V18.6895Z" fill="#636363"/>
<path d="M6.54058 19.7012H5.52832V20.7134H6.54058V19.7012Z" fill="#595959"/>
<path d="M6.54058 20.7139H5.52832V21.7261H6.54058V20.7139Z" fill="#636363"/>
<path d="M6.54058 21.7256H5.52832V22.7378H6.54058V21.7256Z" fill="#636363"/>
<path d="M6.54058 22.7383H5.52832V23.7505H6.54058V22.7383Z" fill="#595959"/>
<path d="M6.54058 23.75H5.52832V24.7623H6.54058V23.75Z" fill="#595959"/>
<path d="M6.54058 24.7627H5.52832V25.775H6.54058V24.7627Z" fill="#636363"/>
<path d="M6.54058 25.7744H5.52832V26.7867H6.54058V25.7744Z" fill="#636363"/>
<path d="M6.54058 26.7871H5.52832V27.7994H6.54058V26.7871Z" fill="#636363"/>
<path d="M6.54058 27.7998H5.52832V28.8121H6.54058V27.7998Z" fill="#595959"/>
<path d="M6.54058 28.8115H5.52832V29.8238H6.54058V28.8115Z" fill="#423E3E"/>
<path d="M7.55279 28.8115H6.54053V29.8238H7.55279V28.8115Z" fill="#595959"/>
<path d="M8.565 28.8115H7.55273V29.8238H8.565V28.8115Z" fill="#423E3E"/>
<path d="M9.5772 28.8115H8.56494V29.8238H9.5772V28.8115Z" fill="#595959"/>
<path d="M10.5894 28.8115H9.57715V29.8238H10.5894V28.8115Z" fill="#595959"/>
<path d="M11.6016 28.8115H10.5894V29.8238H11.6016V28.8115Z" fill="#595959"/>
<path d="M12.6143 28.8115H11.6021V29.8238H12.6143V28.8115Z" fill="#595959"/>
<path d="M13.6265 28.8115H12.6143V29.8238H13.6265V28.8115Z" fill="#423E3E"/>
<path d="M14.6387 28.8115H13.6265V29.8238H14.6387V28.8115Z" fill="#595959"/>
<path d="M15.6509 28.8115H14.6387V29.8238H15.6509V28.8115Z" fill="#423E3E"/>
<path d="M16.6631 28.8115H15.6509V29.8238H16.6631V28.8115Z" fill="#423E3E"/>
<path d="M17.6753 28.8115H16.6631V29.8238H17.6753V28.8115Z" fill="#595959"/>
<path d="M18.6876 28.8115H17.6753V29.8238H18.6876V28.8115Z" fill="#423E3E"/>
<path d="M19.6998 28.8115H18.6875V29.8238H19.6998V28.8115Z" fill="#595959"/>
<path d="M20.712 28.8115H19.6997V29.8238H20.712V28.8115Z" fill="#423E3E"/>
<path d="M7.55279 27.7998H6.54053V28.8121H7.55279V27.7998Z" fill="#636363"/>
<path d="M8.565 27.7998H7.55273V28.8121H8.565V27.7998Z" fill="#636363"/>
<path d="M9.5772 27.7998H8.56494V28.8121H9.5772V27.7998Z" fill="#636363"/>
<path d="M10.5894 27.7998H9.57715V28.8121H10.5894V27.7998Z" fill="#636363"/>
<path d="M11.6016 27.7998H10.5894V28.8121H11.6016V27.7998Z" fill="#595959"/>
<path d="M12.6143 27.7998H11.6021V28.8121H12.6143V27.7998Z" fill="#595959"/>
<path d="M13.6265 27.7998H12.6143V28.8121H13.6265V27.7998Z" fill="#636363"/>
<path d="M14.6387 27.7998H13.6265V28.8121H14.6387V27.7998Z" fill="#595959"/>
<path d="M15.6509 27.7998H14.6387V28.8121H15.6509V27.7998Z" fill="#636363"/>
<path d="M16.6631 27.7998H15.6509V28.8121H16.6631V27.7998Z" fill="#636363"/>
<path d="M17.6753 27.7998H16.6631V28.8121H17.6753V27.7998Z" fill="#636363"/>
<path d="M18.6876 27.7998H17.6753V28.8121H18.6876V27.7998Z" fill="#595959"/>
<path d="M19.6998 27.7998H18.6875V28.8121H19.6998V27.7998Z" fill="#636363"/>
<path d="M20.712 27.7998H19.6997V28.8121H20.712V27.7998Z" fill="#636363"/>
<path d="M5.52838 11.6035H4.51611V12.6158H5.52838V11.6035Z" fill="#423E3E"/>
<path d="M6.54058 11.6035H5.52832V12.6158H6.54058V11.6035Z" fill="#595959"/>
<path d="M4.51568 12.6152H3.50342V13.6275H4.51568V12.6152Z" fill="#423E3E"/>
<path d="M5.52838 12.6152H4.51611V13.6275H5.52838V12.6152Z" fill="#423E3E"/>
<path d="M6.54058 12.6152H5.52832V13.6275H6.54058V12.6152Z" fill="#595959"/>
<path d="M4.51568 13.6279H3.50342V14.6402H4.51568V13.6279Z" fill="#423E3E"/>
<path d="M5.52838 13.6279H4.51611V14.6402H5.52838V13.6279Z" fill="#423E3E"/>
<path d="M6.54058 13.6279H5.52832V14.6402H6.54058V13.6279Z" fill="#595959"/>
<path d="M7.55279 12.6152H6.54053V13.6275H7.55279V12.6152Z" fill="#595959"/>
<path d="M8.565 12.6152H7.55273V13.6275H8.565V12.6152Z" fill="#595959"/>
<path d="M9.5772 12.6152H8.56494V13.6275H9.5772V12.6152Z" fill="#636363"/>
<path d="M10.5894 12.6152H9.57715V13.6275H10.5894V12.6152Z" fill="#636363"/>
<path d="M10.5894 11.6035H9.57715V12.6158H10.5894V11.6035Z" fill="#423E3E"/>
<path d="M10.5894 13.6279H9.57715V14.6402H10.5894V13.6279Z" fill="#595959"/>
<path d="M7.55279 13.6279H6.54053V14.6402H7.55279V13.6279Z" fill="#423E3E"/>
<path d="M8.565 13.6279H7.55273V14.6402H8.565V13.6279Z" fill="#595959"/>
<path d="M9.5772 13.6279H8.56494V14.6402H9.5772V13.6279Z" fill="#595959"/>
<path d="M10.5894 14.6396H9.57715V15.6519H10.5894V14.6396Z" fill="#423E3E"/>
<path d="M11.6016 12.6152H10.5894V13.6275H11.6016V12.6152Z" fill="#636363"/>
<path d="M11.6016 13.6279H10.5894V14.6402H11.6016V13.6279Z" fill="#636363"/>
<path d="M11.6016 14.6396H10.5894V15.6519H11.6016V14.6396Z" fill="#423E3E"/>
<path d="M7.55279 14.6396H6.54053V15.6519H7.55279V14.6396Z" fill="#423E3E"/>
<path d="M8.565 14.6396H7.55273V15.6519H8.565V14.6396Z" fill="#423E3E"/>
<path d="M9.5772 14.6396H8.56494V15.6519H9.5772V14.6396Z" fill="#595959"/>
<path d="M4.51568 14.6396H3.50342V15.6519H4.51568V14.6396Z" fill="#423E3E"/>
<path d="M5.52838 14.6396H4.51611V15.6519H5.52838V14.6396Z" fill="#423E3E"/>
<path d="M6.54058 14.6396H5.52832V15.6519H6.54058V14.6396Z" fill="#423E3E"/>
<path d="M7.55279 5.5293H6.54053V6.54156H7.55279V5.5293Z" fill="#1E0505"/>
<path d="M7.55279 6.54199H6.54053V7.55425H7.55279V6.54199Z" fill="#1E0505"/>
<path d="M7.55279 7.55469H6.54053V8.56695H7.55279V7.55469Z" fill="#1E0505"/>
<path d="M7.55279 8.56641H6.54053V9.57867H7.55279V8.56641Z" fill="#1E0505"/>
<path d="M8.565 9.5791H7.55273V10.5914H8.565V9.5791Z" fill="#1E0505"/>
<path d="M9.5772 9.5791H8.56494V10.5914H9.5772V9.5791Z" fill="#A41208"/>
<path d="M9.5772 10.5908H8.56494V11.6031H9.5772V10.5908Z" fill="#1E0505"/>
<path d="M10.5894 10.5908H9.57715V11.6031H10.5894V10.5908Z" fill="#1E0505"/>
<path d="M10.5894 11.6035H9.57715V12.6158H10.5894V11.6035Z" fill="#1E0505"/>
<path d="M11.6016 11.6035H10.5894V12.6158H11.6016V11.6035Z" fill="#1E0505"/>
<path d="M12.6143 11.6035H11.6021V12.6158H12.6143V11.6035Z" fill="#1E0505"/>
<path d="M12.6143 11.6035H11.6021V12.6158H12.6143V11.6035Z" fill="#1E0505"/>
<path d="M12.6143 12.6152H11.6021V13.6275H12.6143V12.6152Z" fill="#1E0505"/>
<path d="M12.6143 13.6279H11.6021V14.6402H12.6143V13.6279Z" fill="#1E0505"/>
<path d="M12.6143 14.6396H11.6021V15.6519H12.6143V14.6396Z" fill="#1E0505"/>
<path d="M7.55279 4.51758H6.54053V5.52984H7.55279V4.51758Z" fill="#1E0505"/>
<path d="M8.565 5.5293H7.55273V6.54156H8.565V5.5293Z" fill="#660B09"/>
<path d="M8.565 6.54199H7.55273V7.55425H8.565V6.54199Z" fill="#A41208"/>
<path d="M8.565 7.55469H7.55273V8.56695H8.565V7.55469Z" fill="#A41208"/>
<path d="M8.565 8.56641H7.55273V9.57867H8.565V8.56641Z" fill="#A41208"/>
<path d="M8.565 4.51758H7.55273V5.52984H8.565V4.51758Z" fill="#660B09"/>
<path d="M9.5772 5.5293H8.56494V6.54156H9.5772V5.5293Z" fill="#F67A1B"/>
<path d="M9.5772 6.54199H8.56494V7.55425H9.5772V6.54199Z" fill="#F67A1B"/>
<path d="M9.5772 7.55469H8.56494V8.56695H9.5772V7.55469Z" fill="#F67A1B"/>
<path d="M9.5772 8.56641H8.56494V9.57867H9.5772V8.56641Z" fill="#A41208"/>
<path d="M9.5772 4.51758H8.56494V5.52984H9.5772V4.51758Z" fill="#660B09"/>
<path d="M10.5894 5.5293H9.57715V6.54156H10.5894V5.5293Z" fill="#636363"/>
<path d="M10.5894 6.54199H9.57715V7.55425H10.5894V6.54199Z" fill="#636363"/>
<path d="M10.5894 7.55469H9.57715V8.56695H10.5894V7.55469Z" fill="#F67A1B"/>
<path d="M10.5894 8.56641H9.57715V9.57867H10.5894V8.56641Z" fill="#F67A1B"/>
<path d="M10.5894 9.5791H9.57715V10.5914H10.5894V9.5791Z" fill="#A41208"/>
<path d="M10.5894 4.51758H9.57715V5.52984H10.5894V4.51758Z" fill="#595959"/>
<path d="M11.6016 5.5293H10.5894V6.54156H11.6016V5.5293Z" fill="#595959"/>
<path d="M11.6016 6.54199H10.5894V7.55425H11.6016V6.54199Z" fill="#595959"/>
<path d="M11.6016 7.55469H10.5894V8.56695H11.6016V7.55469Z" fill="#636363"/>
<path d="M11.6016 8.56641H10.5894V9.57867H11.6016V8.56641Z" fill="#F67A1B"/>
<path d="M11.6016 9.5791H10.5894V10.5914H11.6016V9.5791Z" fill="#F67A1B"/>
<path d="M11.6016 10.5908H10.5894V11.6031H11.6016V10.5908Z" fill="#660B09"/>
<path d="M11.6016 4.51758H10.5894V5.52984H11.6016V4.51758Z" fill="#423E3E"/>
<path d="M9.5772 3.50488H8.56494V4.51714H9.5772V3.50488Z" fill="#660B09"/>
<path d="M10.5894 3.50488H9.57715V4.51714H10.5894V3.50488Z" fill="#595959"/>
<path d="M11.6016 3.50488H10.5894V4.51714H11.6016V3.50488Z" fill="#423E3E"/>
<path d="M12.6143 5.5293H11.6021V6.54156H12.6143V5.5293Z" fill="#423E3E"/>
<path d="M12.6143 6.54199H11.6021V7.55425H12.6143V6.54199Z" fill="#423E3E"/>
<path d="M12.6143 7.55469H11.6021V8.56695H12.6143V7.55469Z" fill="#423E3E"/>
<path d="M12.6143 8.56641H11.6021V9.57867H12.6143V8.56641Z" fill="#595959"/>
<path d="M12.6143 9.5791H11.6021V10.5914H12.6143V9.5791Z" fill="#595959"/>
<path d="M12.6143 10.5908H11.6021V11.6031H12.6143V10.5908Z" fill="#660B09"/>
<path d="M12.6143 4.51758H11.6021V5.52984H12.6143V4.51758Z" fill="#660B09"/>
<path d="M12.6143 3.50488H11.6021V4.51714H12.6143V3.50488Z" fill="#660B09"/>
<path d="M13.6265 5.5293H12.6143V6.54156H13.6265V5.5293Z" fill="#A41208"/>
<path d="M13.6265 6.54199H12.6143V7.55425H13.6265V6.54199Z" fill="#A41208"/>
<path d="M13.6265 7.55469H12.6143V8.56695H13.6265V7.55469Z" fill="#A41208"/>
<path d="M13.6265 8.56641H12.6143V9.57867H13.6265V8.56641Z" fill="#423E3E"/>
<path d="M13.6265 9.5791H12.6143V10.5914H13.6265V9.5791Z" fill="#423E3E"/>
<path d="M13.6265 10.5908H12.6143V11.6031H13.6265V10.5908Z" fill="#423E3E"/>
<path d="M13.6265 4.51758H12.6143V5.52984H13.6265V4.51758Z" fill="#F67A1B"/>
<path d="M13.6265 3.50488H12.6143V4.51714H13.6265V3.50488Z" fill="#F67A1B"/>
<path d="M14.6387 5.5293H13.6265V6.54156H14.6387V5.5293Z" fill="#F67A1B"/>
<path d="M14.6387 6.54199H13.6265V7.55425H14.6387V6.54199Z" fill="#F67A1B"/>
<path d="M14.6387 7.55469H13.6265V8.56695H14.6387V7.55469Z" fill="#A41208"/>
<path d="M14.6387 8.56641H13.6265V9.57867H14.6387V8.56641Z" fill="#A41208"/>
<path d="M14.6387 9.5791H13.6265V10.5914H14.6387V9.5791Z" fill="#423E3E"/>
<path d="M14.6387 10.5908H13.6265V11.6031H14.6387V10.5908Z" fill="#423E3E"/>
<path d="M14.6387 4.51758H13.6265V5.52984H14.6387V4.51758Z" fill="#F67A1B"/>
<path d="M14.6387 3.50488H13.6265V4.51714H14.6387V3.50488Z" fill="#660B09"/>
<path d="M15.6509 5.5293H14.6387V6.54156H15.6509V5.5293Z" fill="#660B09"/>
<path d="M15.6509 6.54199H14.6387V7.55425H15.6509V6.54199Z" fill="#660B09"/>
<path d="M15.6509 7.55469H14.6387V8.56695H15.6509V7.55469Z" fill="#660B09"/>
<path d="M15.6509 8.56641H14.6387V9.57867H15.6509V8.56641Z" fill="#A41208"/>
<path d="M15.6509 9.5791H14.6387V10.5914H15.6509V9.5791Z" fill="#660B09"/>
<path d="M15.6509 10.5908H14.6387V11.6031H15.6509V10.5908Z" fill="#660B09"/>
<path d="M15.6509 4.51758H14.6387V5.52984H15.6509V4.51758Z" fill="#660B09"/>
<path d="M15.6509 3.50488H14.6387V4.51714H15.6509V3.50488Z" fill="#660B09"/>
<path d="M16.6631 5.5293H15.6509V6.54156H16.6631V5.5293Z" fill="#660B09"/>
<path d="M16.6631 6.54199H15.6509V7.55425H16.6631V6.54199Z" fill="#660B09"/>
<path d="M16.6631 7.55469H15.6509V8.56695H16.6631V7.55469Z" fill="#660B09"/>
<path d="M16.6631 8.56641H15.6509V9.57867H16.6631V8.56641Z" fill="#660B09"/>
<path d="M16.6631 9.5791H15.6509V10.5914H16.6631V9.5791Z" fill="#660B09"/>
<path d="M16.6631 10.5908H15.6509V11.6031H16.6631V10.5908Z" fill="#660B09"/>
<path d="M16.6631 4.51758H15.6509V5.52984H16.6631V4.51758Z" fill="#423E3E"/>
<path d="M16.6631 3.50488H15.6509V4.51714H16.6631V3.50488Z" fill="#423E3E"/>
<path d="M17.6753 5.5293H16.6631V6.54156H17.6753V5.5293Z" fill="#423E3E"/>
<path d="M17.6753 6.54199H16.6631V7.55425H17.6753V6.54199Z" fill="#423E3E"/>
<path d="M17.6753 7.55469H16.6631V8.56695H17.6753V7.55469Z" fill="#423E3E"/>
<path d="M17.6753 8.56641H16.6631V9.57867H17.6753V8.56641Z" fill="#423E3E"/>
<path d="M17.6753 9.5791H16.6631V10.5914H17.6753V9.5791Z" fill="#595959"/>
<path d="M17.6753 10.5908H16.6631V11.6031H17.6753V10.5908Z" fill="#595959"/>
<path d="M17.6753 4.51758H16.6631V5.52984H17.6753V4.51758Z" fill="#595959"/>
<path d="M17.6753 3.50488H16.6631V4.51714H17.6753V3.50488Z" fill="#595959"/>
<path d="M18.6876 5.5293H17.6753V6.54156H18.6876V5.5293Z" fill="#595959"/>
<path d="M18.6876 6.54199H17.6753V7.55425H18.6876V6.54199Z" fill="#595959"/>
<path d="M18.6876 7.55469H17.6753V8.56695H18.6876V7.55469Z" fill="#595959"/>
<path d="M18.6876 8.56641H17.6753V9.57867H18.6876V8.56641Z" fill="#423E3E"/>
<path d="M18.6876 9.5791H17.6753V10.5914H18.6876V9.5791Z" fill="#595959"/>
<path d="M18.6876 10.5908H17.6753V11.6031H18.6876V10.5908Z" fill="#595959"/>
<path d="M18.6876 4.51758H17.6753V5.52984H18.6876V4.51758Z" fill="#636363"/>
<path d="M18.6876 3.50488H17.6753V4.51714H18.6876V3.50488Z" fill="#636363"/>
<path d="M19.6998 5.5293H18.6875V6.54156H19.6998V5.5293Z" fill="#636363"/>
<path d="M19.6998 6.54199H18.6875V7.55425H19.6998V6.54199Z" fill="#636363"/>
<path d="M19.6998 7.55469H18.6875V8.56695H19.6998V7.55469Z" fill="#595959"/>
<path d="M19.6998 8.56641H18.6875V9.57867H19.6998V8.56641Z" fill="#595959"/>
<path d="M19.6998 9.5791H18.6875V10.5914H19.6998V9.5791Z" fill="#595959"/>
<path d="M19.6998 10.5908H18.6875V11.6031H19.6998V10.5908Z" fill="#595959"/>
<path d="M19.6998 4.51758H18.6875V5.52984H19.6998V4.51758Z" fill="#636363"/>
<path d="M19.6998 3.50488H18.6875V4.51714H19.6998V3.50488Z" fill="#595959"/>
<path d="M20.712 5.5293H19.6997V6.54156H20.712V5.5293Z" fill="#595959"/>
<path d="M20.712 6.54199H19.6997V7.55425H20.712V6.54199Z" fill="#636363"/>
<path d="M20.712 7.55469H19.6997V8.56695H20.712V7.55469Z" fill="#636363"/>
<path d="M20.712 8.56641H19.6997V9.57867H20.712V8.56641Z" fill="#636363"/>
<path d="M20.712 9.5791H19.6997V10.5914H20.712V9.5791Z" fill="#595959"/>
<path d="M20.712 10.5908H19.6997V11.6031H20.712V10.5908Z" fill="#595959"/>
<path d="M20.712 4.51758H19.6997V5.52984H20.712V4.51758Z" fill="#595959"/>
<path d="M20.712 3.50488H19.6997V4.51714H20.712V3.50488Z" fill="#595959"/>
<path d="M13.6265 11.6035H12.6143V12.6158H13.6265V11.6035Z" fill="#423E3E"/>
<path d="M14.6387 11.6035H13.6265V12.6158H14.6387V11.6035Z" fill="#423E3E"/>
<path d="M15.6509 11.6035H14.6387V12.6158H15.6509V11.6035Z" fill="#595959"/>
<path d="M16.6631 11.6035H15.6509V12.6158H16.6631V11.6035Z" fill="#595959"/>
<path d="M17.6753 11.6035H16.6631V12.6158H17.6753V11.6035Z" fill="#595959"/>
<path d="M18.6876 11.6035H17.6753V12.6158H18.6876V11.6035Z" fill="#595959"/>
<path d="M19.6998 11.6035H18.6875V12.6158H19.6998V11.6035Z" fill="#595959"/>
<path d="M20.712 11.6035H19.6997V12.6158H20.712V11.6035Z" fill="#595959"/>
<path d="M13.6265 12.6152H12.6143V13.6275H13.6265V12.6152Z" fill="#595959"/>
<path d="M14.6387 12.6152H13.6265V13.6275H14.6387V12.6152Z" fill="#595959"/>
<path d="M15.6509 12.6152H14.6387V13.6275H15.6509V12.6152Z" fill="#595959"/>
<path d="M16.6631 12.6152H15.6509V13.6275H16.6631V12.6152Z" fill="#595959"/>
<path d="M17.6753 12.6152H16.6631V13.6275H17.6753V12.6152Z" fill="#595959"/>
<path d="M18.6876 12.6152H17.6753V13.6275H18.6876V12.6152Z" fill="#595959"/>
<path d="M19.6998 12.6152H18.6875V13.6275H19.6998V12.6152Z" fill="#595959"/>
<path d="M20.712 12.6152H19.6997V13.6275H20.712V12.6152Z" fill="#595959"/>
<path d="M13.6265 13.6279H12.6143V14.6402H13.6265V13.6279Z" fill="#595959"/>
<path d="M14.6387 13.6279H13.6265V14.6402H14.6387V13.6279Z" fill="#595959"/>
<path d="M15.6509 13.6279H14.6387V14.6402H15.6509V13.6279Z" fill="#595959"/>
<path d="M16.6631 13.6279H15.6509V14.6402H16.6631V13.6279Z" fill="#595959"/>
<path d="M17.6753 13.6279H16.6631V14.6402H17.6753V13.6279Z" fill="#595959"/>
<path d="M18.6876 13.6279H17.6753V14.6402H18.6876V13.6279Z" fill="#595959"/>
<path d="M19.6998 13.6279H18.6875V14.6402H19.6998V13.6279Z" fill="#595959"/>
<path d="M20.712 13.6279H19.6997V14.6402H20.712V13.6279Z" fill="#595959"/>
<path d="M13.6265 14.6396H12.6143V15.6519H13.6265V14.6396Z" fill="#595959"/>
<path d="M14.6387 14.6396H13.6265V15.6519H14.6387V14.6396Z" fill="#595959"/>
<path d="M15.6509 14.6396H14.6387V15.6519H15.6509V14.6396Z" fill="#595959"/>
<path d="M16.6631 14.6396H15.6509V15.6519H16.6631V14.6396Z" fill="#595959"/>
<path d="M17.6753 14.6396H16.6631V15.6519H17.6753V14.6396Z" fill="#595959"/>
<path d="M18.6876 14.6396H17.6753V15.6519H18.6876V14.6396Z" fill="#595959"/>
<path d="M19.6998 14.6396H18.6875V15.6519H19.6998V14.6396Z" fill="#595959"/>
<path d="M20.712 14.6396H19.6997V15.6519H20.712V14.6396Z" fill="#595959"/>
<path d="M13.6265 15.6523H12.6143V16.6646H13.6265V15.6523Z" fill="#595959"/>
<path d="M14.6387 15.6523H13.6265V16.6646H14.6387V15.6523Z" fill="#595959"/>
<path d="M15.6509 15.6523H14.6387V16.6646H15.6509V15.6523Z" fill="#595959"/>
<path d="M16.6631 15.6523H15.6509V16.6646H16.6631V15.6523Z" fill="#595959"/>
<path d="M17.6753 15.6523H16.6631V16.6646H17.6753V15.6523Z" fill="#595959"/>
<path d="M18.6876 15.6523H17.6753V16.6646H18.6876V15.6523Z" fill="#595959"/>
<path d="M19.6998 15.6523H18.6875V16.6646H19.6998V15.6523Z" fill="#595959"/>
<path d="M20.712 15.6523H19.6997V16.6646H20.712V15.6523Z" fill="#595959"/>
<path d="M17.6753 16.665H16.6631V17.6773H17.6753V16.665Z" fill="#595959"/>
<path d="M18.6876 16.665H17.6753V17.6773H18.6876V16.665Z" fill="#595959"/>
<path d="M19.6998 16.665H18.6875V17.6773H19.6998V16.665Z" fill="#595959"/>
<path d="M20.712 16.665H19.6997V17.6773H20.712V16.665Z" fill="#595959"/>
<path d="M17.6753 17.6768H16.6631V18.689H17.6753V17.6768Z" fill="#595959"/>
<path d="M18.6876 17.6768H17.6753V18.689H18.6876V17.6768Z" fill="#595959"/>
<path d="M19.6998 17.6768H18.6875V18.689H19.6998V17.6768Z" fill="#595959"/>
<path d="M20.712 17.6768H19.6997V18.689H20.712V17.6768Z" fill="#595959"/>
<path d="M17.6753 18.6895H16.6631V19.7017H17.6753V18.6895Z" fill="#595959"/>
<path d="M18.6876 18.6895H17.6753V19.7017H18.6876V18.6895Z" fill="#595959"/>
<path d="M19.6998 18.6895H18.6875V19.7017H19.6998V18.6895Z" fill="#595959"/>
<path d="M20.712 18.6895H19.6997V19.7017H20.712V18.6895Z" fill="#595959"/>
<path d="M17.6753 19.7012H16.6631V20.7134H17.6753V19.7012Z" fill="#595959"/>
<path d="M18.6876 19.7012H17.6753V20.7134H18.6876V19.7012Z" fill="#595959"/>
<path d="M19.6998 19.7012H18.6875V20.7134H19.6998V19.7012Z" fill="#595959"/>
<path d="M20.712 19.7012H19.6997V20.7134H20.712V19.7012Z" fill="#595959"/>
<path d="M8.565 2.49316H7.55273V3.50543H8.565V2.49316Z" fill="#1E0505"/>
<path d="M8.565 3.50488H7.55273V4.51714H8.565V3.50488Z" fill="#1E0505"/>
<path d="M9.5772 2.49316H8.56494V3.50543H9.5772V2.49316Z" fill="#1E0505"/>
<path d="M10.5894 2.49316H9.57715V3.50543H10.5894V2.49316Z" fill="#1E0505"/>
<path d="M11.6016 2.49316H10.5894V3.50543H11.6016V2.49316Z" fill="#1E0505"/>
<path d="M12.6143 1.48047H11.6021V2.49273H12.6143V1.48047Z" fill="#1E0505"/>
<path d="M13.6265 1.48047H12.6143V2.49273H13.6265V1.48047Z" fill="#1E0505"/>
<path d="M14.6387 1.48047H13.6265V2.49273H14.6387V1.48047Z" fill="#1E0505"/>
<path d="M25.7735 1.48047H24.7612V2.49273H25.7735V1.48047Z" fill="#1E0505"/>
<path d="M26.7857 1.48047H25.7734V2.49273H26.7857V1.48047Z" fill="#1E0505"/>
<path d="M27.7979 1.48047H26.7856V2.49273H27.7979V1.48047Z" fill="#1E0505"/>
<path d="M12.6143 2.49316H11.6021V3.50543H12.6143V2.49316Z" fill="#660B09"/>
<path d="M13.6265 2.49316H12.6143V3.50543H13.6265V2.49316Z" fill="#F67A1B"/>
<path d="M14.6387 2.49316H13.6265V3.50543H14.6387V2.49316Z" fill="#660B09"/>
<path d="M15.6509 2.49316H14.6387V3.50543H15.6509V2.49316Z" fill="#1E0505"/>
<path d="M16.6631 2.49316H15.6509V3.50543H16.6631V2.49316Z" fill="#1E0505"/>
<path d="M17.6753 2.49316H16.6631V3.50543H17.6753V2.49316Z" fill="#1E0505"/>
<path d="M18.6876 2.49316H17.6753V3.50543H18.6876V2.49316Z" fill="#1E0505"/>
<path d="M19.6998 2.49316H18.6875V3.50543H19.6998V2.49316Z" fill="#1E0505"/>
<path d="M20.712 2.49316H19.6997V3.50543H20.712V2.49316Z" fill="#1E0505"/>
<path d="M19.6997 30.8369H20.7119V29.8247H19.6997V30.8369Z" fill="#1E0505"/>
<path d="M8.565 26.7871H7.55273V27.7994H8.565V26.7871Z" fill="#1E0505"/>
<path d="M9.5772 26.7871H8.56494V27.7994H9.5772V26.7871Z" fill="#1E0505"/>
<path d="M10.5894 26.7871H9.57715V27.7994H10.5894V26.7871Z" fill="#1E0505"/>
<path d="M11.6016 26.7871H10.5894V27.7994H11.6016V26.7871Z" fill="#1E0505"/>
<path d="M12.6143 26.7871H11.6021V27.7994H12.6143V26.7871Z" fill="#1E0505"/>
<path d="M13.6265 26.7871H12.6143V27.7994H13.6265V26.7871Z" fill="#1E0505"/>
<path d="M14.6387 26.7871H13.6265V27.7994H14.6387V26.7871Z" fill="#1E0505"/>
<path d="M15.6509 26.7871H14.6387V27.7994H15.6509V26.7871Z" fill="#1E0505"/>
<path d="M16.6631 26.7871H15.6509V27.7994H16.6631V26.7871Z" fill="#1E0505"/>
<path d="M16.6631 25.7744H15.6509V26.7867H16.6631V25.7744Z" fill="#1E0505"/>
<path d="M16.6631 24.7627H15.6509V25.775H16.6631V24.7627Z" fill="#1E0505"/>
<path d="M16.6631 23.75H15.6509V24.7623H16.6631V23.75Z" fill="#1E0505"/>
<path d="M16.6631 22.7383H15.6509V23.7505H16.6631V22.7383Z" fill="#1E0505"/>
<path d="M16.6631 21.7256H15.6509V22.7378H16.6631V21.7256Z" fill="#1E0505"/>
<path d="M16.6631 20.7139H15.6509V21.7261H16.6631V20.7139Z" fill="#1E0505"/>
<path d="M17.6753 26.7871H16.6631V27.7994H17.6753V26.7871Z" fill="#1E0505"/>
<path d="M18.6876 26.7871H17.6753V27.7994H18.6876V26.7871Z" fill="#1E0505"/>
<path d="M19.6998 26.7871H18.6875V27.7994H19.6998V26.7871Z" fill="#1E0505"/>
<path d="M19.6997 27.8008H20.7119V26.7885H19.6997V27.8008Z" fill="#1E0505"/>
<path d="M19.6997 3.50586H20.7119V2.4936H19.6997V3.50586Z" fill="#1E0505"/>
<path d="M18.6874 3.50586H19.6997V2.4936H18.6874V3.50586Z" fill="#1E0505"/>
<path d="M12.6142 18.6904H13.6265V17.6782H12.6142V18.6904Z" fill="#595959"/>
<path d="M12.6142 19.7021H13.6265V18.6899H12.6142V19.7021Z" fill="#423E3E"/>
<path d="M12.6142 20.7148H13.6265V19.7026H12.6142V20.7148Z" fill="#423E3E"/>
<path d="M12.6142 21.7266H13.6265V20.7143H12.6142V21.7266Z" fill="#595959"/>
<path d="M12.6142 22.7393H13.6265V21.727H12.6142V22.7393Z" fill="#595959"/>
<path d="M12.6142 23.752H13.6265V22.7397H12.6142V23.752Z" fill="#595959"/>
<path d="M12.6142 24.7637H13.6265V23.7514H12.6142V24.7637Z" fill="#595959"/>
<path d="M12.6142 25.7764H13.6265V24.7641H12.6142V25.7764Z" fill="#380909"/>
<path d="M12.6142 26.7881H13.6265V25.7758H12.6142V26.7881Z" fill="#380909"/>
<path d="M13.6264 18.6904H14.6387V17.6782H13.6264V18.6904Z" fill="#423E3E"/>
<path d="M13.6264 19.7021H14.6387V18.6899H13.6264V19.7021Z" fill="#595959"/>
<path d="M13.6264 20.7148H14.6387V19.7026H13.6264V20.7148Z" fill="#423E3E"/>
<path d="M13.6264 21.7266H14.6387V20.7143H13.6264V21.7266Z" fill="#423E3E"/>
<path d="M13.6264 22.7393H14.6387V21.727H13.6264V22.7393Z" fill="#595959"/>
<path d="M13.6264 23.752H14.6387V22.7397H13.6264V23.752Z" fill="#423E3E"/>
<path d="M13.6264 24.7637H14.6387V23.7514H13.6264V24.7637Z" fill="#595959"/>
<path d="M13.6264 25.7764H14.6387V24.7641H13.6264V25.7764Z" fill="#595959"/>
<path d="M13.6264 26.7881H14.6387V25.7758H13.6264V26.7881Z" fill="#380909"/>
<path d="M14.6386 18.6904H15.6509V17.6782H14.6386V18.6904Z" fill="#595959"/>
<path d="M12.6142 17.6777H13.6265V16.6655H12.6142V17.6777Z" fill="#423E3E"/>
<path d="M13.6264 17.6777H14.6387V16.6655H13.6264V17.6777Z" fill="#423E3E"/>
<path d="M14.6386 17.6777H15.6509V16.6655H14.6386V17.6777Z" fill="#423E3E"/>
<path d="M14.6386 19.7021H15.6509V18.6899H14.6386V19.7021Z" fill="#423E3E"/>
<path d="M15.6508 20.7148H16.6631V19.7026H15.6508V20.7148Z" fill="#423E3E"/>
<path d="M14.6386 19.7021H15.6509V18.6899H14.6386V19.7021Z" fill="#423E3E"/>
<path d="M15.6508 18.6904H16.6631V17.6782H15.6508V18.6904Z" fill="#423E3E"/>
<path d="M15.6508 17.6777H16.6631V16.6655H15.6508V17.6777Z" fill="#423E3E"/>
<path d="M15.6508 19.7021H16.6631V18.6899H15.6508V19.7021Z" fill="#423E3E"/>
<path d="M15.6508 19.7021H16.6631V18.6899H15.6508V19.7021Z" fill="#595959"/>
<path d="M14.6386 20.7148H15.6509V19.7026H14.6386V20.7148Z" fill="#423E3E"/>
<path d="M14.6386 21.7266H15.6509V20.7143H14.6386V21.7266Z" fill="#595959"/>
<path d="M14.6386 22.7393H15.6509V21.727H14.6386V22.7393Z" fill="#423E3E"/>
<path d="M14.6386 23.752H15.6509V22.7397H14.6386V23.752Z" fill="#423E3E"/>
<path d="M14.6386 24.7637H15.6509V23.7514H14.6386V24.7637Z" fill="#423E3E"/>
<path d="M14.6386 25.7764H15.6509V24.7641H14.6386V25.7764Z" fill="#423E3E"/>
<path d="M14.6386 26.7881H15.6509V25.7758H14.6386V26.7881Z" fill="#380909"/>
<path d="M19.6997 30.8369H20.7119V29.8247H19.6997V30.8369Z" fill="#1E0505"/>
<path d="M19.6997 29.8252H20.7119V28.8129H19.6997V29.8252Z" fill="#595959"/>
<path d="M18.6874 29.8252H19.6997V28.8129H18.6874V29.8252Z" fill="#423E3E"/>
<path d="M19.6997 28.8125H20.7119V27.8002H19.6997V28.8125Z" fill="#636363"/>
<path d="M18.6874 28.8125H19.6997V27.8002H18.6874V28.8125Z" fill="#636363"/>
<path d="M19.6997 3.50586H20.7119V2.4936H19.6997V3.50586Z" fill="#1E0505"/>
<path d="M18.6874 3.50586H19.6997V2.4936H18.6874V3.50586Z" fill="#1E0505"/>
<path d="M19.6998 29.8242H18.6875V30.8365H19.6998V29.8242Z" fill="#1E0505"/>
<path d="M19.6997 27.8008H20.7119V26.7885H19.6997V27.8008Z" fill="#1E0505"/>
<path d="M19.6998 26.7871H18.6875V27.7994H19.6998V26.7871Z" fill="#1E0505"/>
<path d="M17.6753 25.7744H16.6631V26.7867H17.6753V25.7744Z" fill="#595959"/>
<path d="M18.6876 25.7744H17.6753V26.7867H18.6876V25.7744Z" fill="#595959"/>
<path d="M19.6998 25.7744H18.6875V26.7867H19.6998V25.7744Z" fill="#423E3E"/>
<path d="M19.6997 26.7881H20.7119V25.7758H19.6997V26.7881Z" fill="#423E3E"/>
<path d="M19.6997 26.7881H20.7119V25.7758H19.6997V26.7881Z" fill="#423E3E"/>
<path d="M19.6998 25.7744H18.6875V26.7867H19.6998V25.7744Z" fill="#423E3E"/>
<path d="M17.6753 24.7627H16.6631V25.775H17.6753V24.7627Z" fill="#595959"/>
<path d="M18.6876 24.7627H17.6753V25.775H18.6876V24.7627Z" fill="#423E3E"/>
<path d="M19.6998 24.7627H18.6875V25.775H19.6998V24.7627Z" fill="#423E3E"/>
<path d="M19.6997 25.7764H20.7119V24.7641H19.6997V25.7764Z" fill="#423E3E"/>
<path d="M19.6997 25.7764H20.7119V24.7641H19.6997V25.7764Z" fill="#423E3E"/>
<path d="M19.6998 24.7627H18.6875V25.775H19.6998V24.7627Z" fill="#423E3E"/>
<path d="M17.6753 23.75H16.6631V24.7623H17.6753V23.75Z" fill="#595959"/>
<path d="M18.6876 23.75H17.6753V24.7623H18.6876V23.75Z" fill="#423E3E"/>
<path d="M19.6998 23.75H18.6875V24.7623H19.6998V23.75Z" fill="#423E3E"/>
<path d="M19.6997 24.7637H20.7119V23.7514H19.6997V24.7637Z" fill="#423E3E"/>
<path d="M19.6997 24.7637H20.7119V23.7514H19.6997V24.7637Z" fill="#423E3E"/>
<path d="M19.6998 23.75H18.6875V24.7623H19.6998V23.75Z" fill="#423E3E"/>
<path d="M17.6753 22.7383H16.6631V23.7505H17.6753V22.7383Z" fill="#595959"/>
<path d="M18.6876 22.7383H17.6753V23.7505H18.6876V22.7383Z" fill="#423E3E"/>
<path d="M19.6998 22.7383H18.6875V23.7505H19.6998V22.7383Z" fill="#423E3E"/>
<path d="M19.6997 23.752H20.7119V22.7397H19.6997V23.752Z" fill="#423E3E"/>
<path d="M19.6997 23.752H20.7119V22.7397H19.6997V23.752Z" fill="#636363"/>
<path d="M19.6998 22.7383H18.6875V23.7505H19.6998V22.7383Z" fill="#636363"/>
<path d="M17.6753 21.7256H16.6631V22.7378H17.6753V21.7256Z" fill="#595959"/>
<path d="M18.6876 21.7256H17.6753V22.7378H18.6876V21.7256Z" fill="#423E3E"/>
<path d="M19.6998 21.7256H18.6875V22.7378H19.6998V21.7256Z" fill="#423E3E"/>
<path d="M19.6997 22.7393H20.7119V21.727H19.6997V22.7393Z" fill="#423E3E"/>
<path d="M19.6997 22.7393H20.7119V21.727H19.6997V22.7393Z" fill="#636363"/>
<path d="M19.6998 21.7256H18.6875V22.7378H19.6998V21.7256Z" fill="#636363"/>
<path d="M17.6753 20.7139H16.6631V21.7261H17.6753V20.7139Z" fill="#595959"/>
<path d="M18.6876 20.7139H17.6753V21.7261H18.6876V20.7139Z" fill="#423E3E"/>
<path d="M19.6998 20.7139H18.6875V21.7261H19.6998V20.7139Z" fill="#423E3E"/>
<path d="M19.6997 21.7266H20.7119V20.7143H19.6997V21.7266Z" fill="#423E3E"/>
<path d="M19.6997 21.7266H20.7119V20.7143H19.6997V21.7266Z" fill="#636363"/>
<path d="M19.6998 20.7139H18.6875V21.7261H19.6998V20.7139Z" fill="#636363"/>
<path d="M19.6998 2.49316H18.6875V3.50543H19.6998V2.49316Z" fill="#1E0505"/>
<path d="M20.712 2.49316H19.6997V3.50543H20.712V2.49316Z" fill="#1E0505"/>
<path d="M34.8837 5.53125H35.896V4.51899H34.8837V5.53125Z" fill="#1E0505"/>
<path d="M35.8959 6.54297H36.9082V5.53071H35.8959V6.54297Z" fill="#1E0505"/>
<path d="M35.8959 7.55566H36.9082V6.5434H35.8959V7.55566Z" fill="#1E0505"/>
<path d="M35.8959 8.56738H36.9082V7.55512H35.8959V8.56738Z" fill="#1E0505"/>
<path d="M35.8959 9.58008H36.9082V8.56782H35.8959V9.58008Z" fill="#1E0505"/>
<path d="M35.8959 10.5918H36.9082V9.57954H35.8959V10.5918Z" fill="#1E0505"/>
<path d="M35.8959 11.6045H36.9082V10.5922H35.8959V11.6045Z" fill="#1E0505"/>
<path d="M35.8959 12.6162H36.9082V11.6039H35.8959V12.6162Z" fill="#1E0505"/>
<path d="M35.8959 13.6289H36.9082V12.6166H35.8959V13.6289Z" fill="#1E0505"/>
<path d="M35.8959 14.6406H36.9082V13.6284H35.8959V14.6406Z" fill="#1E0505"/>
<path d="M35.8959 15.6533H36.9082V14.6411H35.8959V15.6533Z" fill="#1E0505"/>
<path d="M34.8837 16.666H35.896V15.6538H34.8837V16.666Z" fill="#1E0505"/>
<path d="M33.8715 16.666H34.8838V15.6538H33.8715V16.666Z" fill="#1E0505"/>
<path d="M32.8593 16.666H33.8716V15.6538H32.8593V16.666Z" fill="#1E0505"/>
<path d="M31.8471 16.666H32.8594V15.6538H31.8471V16.666Z" fill="#1E0505"/>
<path d="M31.8471 16.666H32.8594V15.6538H31.8471V16.666Z" fill="#1E0505"/>
<path d="M31.8471 17.6777H32.8594V16.6655H31.8471V17.6777Z" fill="#1E0505"/>
<path d="M31.8471 18.6904H32.8594V17.6782H31.8471V18.6904Z" fill="#1E0505"/>
<path d="M31.8471 19.7021H32.8594V18.6899H31.8471V19.7021Z" fill="#1E0505"/>
<path d="M31.8471 20.7148H32.8594V19.7026H31.8471V20.7148Z" fill="#1E0505"/>
<path d="M31.8471 21.7266H32.8594V20.7143H31.8471V21.7266Z" fill="#1E0505"/>
<path d="M31.8471 22.7393H32.8594V21.727H31.8471V22.7393Z" fill="#1E0505"/>
<path d="M31.8471 23.752H32.8594V22.7397H31.8471V23.752Z" fill="#1E0505"/>
<path d="M31.8471 24.7637H32.8594V23.7514H31.8471V24.7637Z" fill="#1E0505"/>
<path d="M31.8471 25.7764H32.8594V24.7641H31.8471V25.7764Z" fill="#1E0505"/>
<path d="M31.8471 26.7881H32.8594V25.7758H31.8471V26.7881Z" fill="#1E0505"/>
<path d="M30.8349 17.6777H31.8472V16.6655H30.8349V17.6777Z" fill="#F67A1B"/>
<path d="M30.8349 18.6904H31.8472V17.6782H30.8349V18.6904Z" fill="#F67A1B"/>
<path d="M30.8349 19.7021H31.8472V18.6899H30.8349V19.7021Z" fill="#F67A1B"/>
<path d="M30.8349 20.7148H31.8472V19.7026H30.8349V20.7148Z" fill="#A41208"/>
<path d="M30.8349 21.7266H31.8472V20.7143H30.8349V21.7266Z" fill="#A41208"/>
<path d="M30.8349 22.7393H31.8472V21.727H30.8349V22.7393Z" fill="#A41208"/>
<path d="M30.8349 23.752H31.8472V22.7397H30.8349V23.752Z" fill="#A41208"/>
<path d="M30.8349 24.7637H31.8472V23.7514H30.8349V24.7637Z" fill="#A41208"/>
<path d="M30.8349 25.7764H31.8472V24.7641H30.8349V25.7764Z" fill="#A41208"/>
<path d="M30.8349 26.7881H31.8472V25.7758H30.8349V26.7881Z" fill="#A41208"/>
<path d="M29.8227 17.6777H30.835V16.6655H29.8227V17.6777Z" fill="#F67A1B"/>
<path d="M29.8227 18.6904H30.835V17.6782H29.8227V18.6904Z" fill="#F67A1B"/>
<path d="M29.8227 19.7021H30.835V18.6899H29.8227V19.7021Z" fill="#F67A1B"/>
<path d="M29.8227 20.7148H30.835V19.7026H29.8227V20.7148Z" fill="#F67A1B"/>
<path d="M29.8227 21.7266H30.835V20.7143H29.8227V21.7266Z" fill="#F67A1B"/>
<path d="M29.8227 22.7393H30.835V21.727H29.8227V22.7393Z" fill="#C23E00"/>
<path d="M29.8227 23.752H30.835V22.7397H29.8227V23.752Z" fill="#C23E00"/>
<path d="M29.8227 24.7637H30.835V23.7514H29.8227V24.7637Z" fill="#A41208"/>
<path d="M29.8227 25.7764H30.835V24.7641H29.8227V25.7764Z" fill="#A41208"/>
<path d="M29.8227 26.7881H30.835V25.7758H29.8227V26.7881Z" fill="#A41208"/>
<path d="M28.8105 17.6777H29.8228V16.6655H28.8105V17.6777Z" fill="#636363"/>
<path d="M28.8105 18.6904H29.8228V17.6782H28.8105V18.6904Z" fill="#636363"/>
<path d="M28.8105 19.7021H29.8228V18.6899H28.8105V19.7021Z" fill="#636363"/>
<path d="M28.8105 20.7148H29.8228V19.7026H28.8105V20.7148Z" fill="#C23E00"/>
<path d="M28.8105 21.7266H29.8228V20.7143H28.8105V21.7266Z" fill="#C23E00"/>
<path d="M28.8105 22.7393H29.8228V21.727H28.8105V22.7393Z" fill="#C23E00"/>
<path d="M28.8105 23.752H29.8228V22.7397H28.8105V23.752Z" fill="#C23E00"/>
<path d="M28.8105 24.7637H29.8228V23.7514H28.8105V24.7637Z" fill="#C23E00"/>
<path d="M28.8105 25.7764H29.8228V24.7641H28.8105V25.7764Z" fill="#660B09"/>
<path d="M28.8105 26.7881H29.8228V25.7758H28.8105V26.7881Z" fill="#660B09"/>
<path d="M27.7978 17.6777H28.8101V16.6655H27.7978V17.6777Z" fill="#595959"/>
<path d="M27.7978 18.6904H28.8101V17.6782H27.7978V18.6904Z" fill="#595959"/>
<path d="M27.7978 19.7021H28.8101V18.6899H27.7978V19.7021Z" fill="#636363"/>
<path d="M27.7978 20.7148H28.8101V19.7026H27.7978V20.7148Z" fill="#636363"/>
<path d="M27.7978 21.7266H28.8101V20.7143H27.7978V21.7266Z" fill="#636363"/>
<path d="M27.7978 22.7393H28.8101V21.727H27.7978V22.7393Z" fill="#C23E00"/>
<path d="M27.7978 23.752H28.8101V22.7397H27.7978V23.752Z" fill="#C23E00"/>
<path d="M27.7978 24.7637H28.8101V23.7514H27.7978V24.7637Z" fill="#C23E00"/>
<path d="M27.7978 25.7764H28.8101V24.7641H27.7978V25.7764Z" fill="#C23E00"/>
<path d="M27.7978 26.7881H28.8101V25.7758H27.7978V26.7881Z" fill="#660B09"/>
<path d="M26.7856 17.6777H27.7979V16.6655H26.7856V17.6777Z" fill="#595959"/>
<path d="M26.7856 18.6904H27.7979V17.6782H26.7856V18.6904Z" fill="#595959"/>
<path d="M26.7856 19.7021H27.7979V18.6899H26.7856V19.7021Z" fill="#595959"/>
<path d="M26.7856 20.7148H27.7979V19.7026H26.7856V20.7148Z" fill="#595959"/>
<path d="M26.7856 21.7266H27.7979V20.7143H26.7856V21.7266Z" fill="#595959"/>
<path d="M26.7856 22.7393H27.7979V21.727H26.7856V22.7393Z" fill="#636363"/>
<path d="M26.7856 23.752H27.7979V22.7397H26.7856V23.752Z" fill="#636363"/>
<path d="M26.7856 24.7637H27.7979V23.7514H26.7856V24.7637Z" fill="#636363"/>
<path d="M26.7856 25.7764H27.7979V24.7641H26.7856V25.7764Z" fill="#C23E00"/>
<path d="M26.7856 26.7881H27.7979V25.7758H26.7856V26.7881Z" fill="#660B09"/>
<path d="M31.8471 27.8008H32.8594V26.7885H31.8471V27.8008Z" fill="#1E0505"/>
<path d="M30.8349 16.666H31.8472V15.6538H30.8349V16.666Z" fill="#1E0505"/>
<path d="M29.8227 16.666H30.835V15.6538H29.8227V16.666Z" fill="#1E0505"/>
<path d="M28.8105 16.666H29.8228V15.6538H28.8105V16.666Z" fill="#1E0505"/>
<path d="M27.7978 16.666H28.8101V15.6538H27.7978V16.666Z" fill="#1E0505"/>
<path d="M26.7856 16.666H27.7979V15.6538H26.7856V16.666Z" fill="#1E0505"/>
<path d="M35.8959 16.666H36.9082V15.6538H35.8959V16.666Z" fill="#1E0505"/>
<path d="M35.8959 17.6777H36.9082V16.6655H35.8959V17.6777Z" fill="#1E0505"/>
<path d="M35.8959 18.6904H36.9082V17.6782H35.8959V18.6904Z" fill="#1E0505"/>
<path d="M35.8959 19.7021H36.9082V18.6899H35.8959V19.7021Z" fill="#1E0505"/>
<path d="M35.8959 20.7148H36.9082V19.7026H35.8959V20.7148Z" fill="#1E0505"/>
<path d="M35.8959 21.7266H36.9082V20.7143H35.8959V21.7266Z" fill="#1E0505"/>
<path d="M35.8959 22.7393H36.9082V21.727H35.8959V22.7393Z" fill="#1E0505"/>
<path d="M35.8959 23.752H36.9082V22.7397H35.8959V23.752Z" fill="#1E0505"/>
<path d="M35.8959 24.7637H36.9082V23.7514H35.8959V24.7637Z" fill="#1E0505"/>
<path d="M35.8959 25.7764H36.9082V24.7641H35.8959V25.7764Z" fill="#1E0505"/>
<path d="M35.8959 26.7881H36.9082V25.7758H35.8959V26.7881Z" fill="#1E0505"/>
<path d="M35.8959 27.8008H36.9082V26.7885H35.8959V27.8008Z" fill="#1E0505"/>
<path d="M35.8959 28.8125H36.9082V27.8002H35.8959V28.8125Z" fill="#1E0505"/>
<path d="M35.8959 29.8252H36.9082V28.8129H35.8959V29.8252Z" fill="#1E0505"/>
<path d="M35.8959 30.8369H36.9082V29.8247H35.8959V30.8369Z" fill="#1E0505"/>
<path d="M34.8837 30.8369H35.896V29.8247H34.8837V30.8369Z" fill="#1E0505"/>
<path d="M33.8715 30.8369H34.8838V29.8247H33.8715V30.8369Z" fill="#1E0505"/>
<path d="M32.8593 30.8369H33.8716V29.8247H32.8593V30.8369Z" fill="#1E0505"/>
<path d="M31.8471 30.8369H32.8594V29.8247H31.8471V30.8369Z" fill="#1E0505"/>
<path d="M30.8349 30.8369H31.8472V29.8247H30.8349V30.8369Z" fill="#1E0505"/>
<path d="M29.8227 30.8369H30.835V29.8247H29.8227V30.8369Z" fill="#1E0505"/>
<path d="M28.8105 30.8369H29.8228V29.8247H28.8105V30.8369Z" fill="#1E0505"/>
<path d="M27.7978 30.8369H28.8101V29.8247H27.7978V30.8369Z" fill="#1E0505"/>
<path d="M26.7856 30.8369H27.7979V29.8247H26.7856V30.8369Z" fill="#1E0505"/>
<path d="M25.7734 30.8369H26.7856V29.8247H25.7734V30.8369Z" fill="#1E0505"/>
<path d="M24.7612 30.8369H25.7734V29.8247H24.7612V30.8369Z" fill="#1E0505"/>
<path d="M23.749 30.8369H24.7612V29.8247H23.749V30.8369Z" fill="#1E0505"/>
<path d="M22.7368 30.8369H23.749V29.8247H22.7368V30.8369Z" fill="#1E0505"/>
<path d="M21.7246 30.8369H22.7368V29.8247H21.7246V30.8369Z" fill="#1E0505"/>
<path d="M20.7123 30.8369H21.7246V29.8247H20.7123V30.8369Z" fill="#1E0505"/>
<path d="M19.6997 30.8369H20.7119V29.8247H19.6997V30.8369Z" fill="#1E0505"/>
<path d="M33.8715 5.53125H34.8838V4.51899H33.8715V5.53125Z" fill="#1E0505"/>
<path d="M32.8593 5.53125H33.8716V4.51899H32.8593V5.53125Z" fill="#1E0505"/>
<path d="M34.8837 6.54297H35.896V5.53071H34.8837V6.54297Z" fill="#423E3E"/>
<path d="M33.8715 6.54297H34.8838V5.53071H33.8715V6.54297Z" fill="#595959"/>
<path d="M32.8593 6.54297H33.8716V5.53071H32.8593V6.54297Z" fill="#636363"/>
<path d="M34.8837 7.55566H35.896V6.5434H34.8837V7.55566Z" fill="#423E3E"/>
<path d="M33.8715 7.55566H34.8838V6.5434H33.8715V7.55566Z" fill="#595959"/>
<path d="M32.8593 7.55566H33.8716V6.5434H32.8593V7.55566Z" fill="#636363"/>
<path d="M34.8837 8.56738H35.896V7.55512H34.8837V8.56738Z" fill="#423E3E"/>
<path d="M33.8715 8.56738H34.8838V7.55512H33.8715V8.56738Z" fill="#595959"/>
<path d="M32.8593 8.56738H33.8716V7.55512H32.8593V8.56738Z" fill="#636363"/>
<path d="M34.8837 9.58008H35.896V8.56782H34.8837V9.58008Z" fill="#423E3E"/>
<path d="M33.8715 9.58008H34.8838V8.56782H33.8715V9.58008Z" fill="#595959"/>
<path d="M32.8593 9.58008H33.8716V8.56782H32.8593V9.58008Z" fill="#636363"/>
<path d="M34.8837 10.5918H35.896V9.57954H34.8837V10.5918Z" fill="#423E3E"/>
<path d="M33.8715 10.5918H34.8838V9.57954H33.8715V10.5918Z" fill="#595959"/>
<path d="M32.8593 10.5918H33.8716V9.57954H32.8593V10.5918Z" fill="#636363"/>
<path d="M34.8837 11.6045H35.896V10.5922H34.8837V11.6045Z" fill="#423E3E"/>
<path d="M33.8715 11.6045H34.8838V10.5922H33.8715V11.6045Z" fill="#595959"/>
<path d="M32.8593 11.6045H33.8716V10.5922H32.8593V11.6045Z" fill="#636363"/>
<path d="M31.8471 11.6045H32.8594V10.5922H31.8471V11.6045Z" fill="#636363"/>
<path d="M31.8471 10.5918H32.8594V9.57954H31.8471V10.5918Z" fill="#636363"/>
<path d="M30.8349 11.6045H31.8472V10.5922H30.8349V11.6045Z" fill="#636363"/>
<path d="M31.8471 12.6162H32.8594V11.6039H31.8471V12.6162Z" fill="#595959"/>
<path d="M30.8349 12.6162H31.8472V11.6039H30.8349V12.6162Z" fill="#636363"/>
<path d="M29.8227 12.6162H30.835V11.6039H29.8227V12.6162Z" fill="#636363"/>
<path d="M34.8837 12.6162H35.896V11.6039H34.8837V12.6162Z" fill="#423E3E"/>
<path d="M34.8837 17.6777H35.896V16.6655H34.8837V17.6777Z" fill="#423E3E"/>
<path d="M34.8837 18.6904H35.896V17.6782H34.8837V18.6904Z" fill="#423E3E"/>
<path d="M34.8837 19.7021H35.896V18.6899H34.8837V19.7021Z" fill="#423E3E"/>
<path d="M34.8837 20.7148H35.896V19.7026H34.8837V20.7148Z" fill="#423E3E"/>
<path d="M34.8837 21.7266H35.896V20.7143H34.8837V21.7266Z" fill="#595959"/>
<path d="M34.8837 22.7393H35.896V21.727H34.8837V22.7393Z" fill="#423E3E"/>
<path d="M34.8837 23.752H35.896V22.7397H34.8837V23.752Z" fill="#423E3E"/>
<path d="M34.8837 24.7637H35.896V23.7514H34.8837V24.7637Z" fill="#423E3E"/>
<path d="M34.8837 25.7764H35.896V24.7641H34.8837V25.7764Z" fill="#595959"/>
<path d="M34.8837 26.7881H35.896V25.7758H34.8837V26.7881Z" fill="#423E3E"/>
<path d="M34.8837 27.8008H35.896V26.7885H34.8837V27.8008Z" fill="#423E3E"/>
<path d="M34.8837 28.8125H35.896V27.8002H34.8837V28.8125Z" fill="#423E3E"/>
<path d="M34.8837 29.8252H35.896V28.8129H34.8837V29.8252Z" fill="#595959"/>
<path d="M33.8715 17.6777H34.8838V16.6655H33.8715V17.6777Z" fill="#595959"/>
<path d="M33.8715 18.6904H34.8838V17.6782H33.8715V18.6904Z" fill="#595959"/>
<path d="M33.8715 19.7021H34.8838V18.6899H33.8715V19.7021Z" fill="#595959"/>
<path d="M33.8715 20.7148H34.8838V19.7026H33.8715V20.7148Z" fill="#595959"/>
<path d="M33.8715 21.7266H34.8838V20.7143H33.8715V21.7266Z" fill="#595959"/>
<path d="M33.8715 22.7393H34.8838V21.727H33.8715V22.7393Z" fill="#595959"/>
<path d="M33.8715 23.752H34.8838V22.7397H33.8715V23.752Z" fill="#595959"/>
<path d="M33.8715 24.7637H34.8838V23.7514H33.8715V24.7637Z" fill="#595959"/>
<path d="M33.8715 25.7764H34.8838V24.7641H33.8715V25.7764Z" fill="#595959"/>
<path d="M33.8715 26.7881H34.8838V25.7758H33.8715V26.7881Z" fill="#595959"/>
<path d="M33.8715 27.8008H34.8838V26.7885H33.8715V27.8008Z" fill="#595959"/>
<path d="M33.8715 28.8125H34.8838V27.8002H33.8715V28.8125Z" fill="#423E3E"/>
<path d="M33.8715 29.8252H34.8838V28.8129H33.8715V29.8252Z" fill="#423E3E"/>
<path d="M32.8593 17.6777H33.8716V16.6655H32.8593V17.6777Z" fill="#636363"/>
<path d="M32.8593 18.6904H33.8716V17.6782H32.8593V18.6904Z" fill="#595959"/>
<path d="M32.8593 19.7021H33.8716V18.6899H32.8593V19.7021Z" fill="#636363"/>
<path d="M32.8593 20.7148H33.8716V19.7026H32.8593V20.7148Z" fill="#595959"/>
<path d="M32.8593 21.7266H33.8716V20.7143H32.8593V21.7266Z" fill="#636363"/>
<path d="M32.8593 22.7393H33.8716V21.727H32.8593V22.7393Z" fill="#636363"/>
<path d="M32.8593 23.752H33.8716V22.7397H32.8593V23.752Z" fill="#595959"/>
<path d="M32.8593 24.7637H33.8716V23.7514H32.8593V24.7637Z" fill="#595959"/>
<path d="M32.8593 25.7764H33.8716V24.7641H32.8593V25.7764Z" fill="#636363"/>
<path d="M32.8593 26.7881H33.8716V25.7758H32.8593V26.7881Z" fill="#636363"/>
<path d="M32.8593 27.8008H33.8716V26.7885H32.8593V27.8008Z" fill="#636363"/>
<path d="M32.8593 28.8125H33.8716V27.8002H32.8593V28.8125Z" fill="#595959"/>
<path d="M32.8593 29.8252H33.8716V28.8129H32.8593V29.8252Z" fill="#423E3E"/>
<path d="M31.8471 29.8252H32.8594V28.8129H31.8471V29.8252Z" fill="#595959"/>
<path d="M30.8349 29.8252H31.8472V28.8129H30.8349V29.8252Z" fill="#423E3E"/>
<path d="M29.8227 29.8252H30.835V28.8129H29.8227V29.8252Z" fill="#595959"/>
<path d="M28.8105 29.8252H29.8228V28.8129H28.8105V29.8252Z" fill="#595959"/>
<path d="M27.7978 29.8252H28.8101V28.8129H27.7978V29.8252Z" fill="#595959"/>
<path d="M26.7856 29.8252H27.7979V28.8129H26.7856V29.8252Z" fill="#595959"/>
<path d="M25.7734 29.8252H26.7856V28.8129H25.7734V29.8252Z" fill="#423E3E"/>
<path d="M24.7612 29.8252H25.7734V28.8129H24.7612V29.8252Z" fill="#595959"/>
<path d="M23.749 29.8252H24.7612V28.8129H23.749V29.8252Z" fill="#423E3E"/>
<path d="M22.7368 29.8252H23.749V28.8129H22.7368V29.8252Z" fill="#423E3E"/>
<path d="M21.7246 29.8252H22.7368V28.8129H21.7246V29.8252Z" fill="#595959"/>
<path d="M20.7123 29.8252H21.7246V28.8129H20.7123V29.8252Z" fill="#423E3E"/>
<path d="M19.6997 29.8252H20.7119V28.8129H19.6997V29.8252Z" fill="#595959"/>
<path d="M18.6874 29.8252H19.6997V28.8129H18.6874V29.8252Z" fill="#423E3E"/>
<path d="M31.8471 28.8125H32.8594V27.8002H31.8471V28.8125Z" fill="#636363"/>
<path d="M30.8349 28.8125H31.8472V27.8002H30.8349V28.8125Z" fill="#636363"/>
<path d="M29.8227 28.8125H30.835V27.8002H29.8227V28.8125Z" fill="#636363"/>
<path d="M28.8105 28.8125H29.8228V27.8002H28.8105V28.8125Z" fill="#636363"/>
<path d="M27.7978 28.8125H28.8101V27.8002H27.7978V28.8125Z" fill="#595959"/>
<path d="M26.7856 28.8125H27.7979V27.8002H26.7856V28.8125Z" fill="#595959"/>
<path d="M25.7734 28.8125H26.7856V27.8002H25.7734V28.8125Z" fill="#636363"/>
<path d="M24.7612 28.8125H25.7734V27.8002H24.7612V28.8125Z" fill="#595959"/>
<path d="M23.749 28.8125H24.7612V27.8002H23.749V28.8125Z" fill="#636363"/>
<path d="M22.7368 28.8125H23.749V27.8002H22.7368V28.8125Z" fill="#636363"/>
<path d="M21.7246 28.8125H22.7368V27.8002H21.7246V28.8125Z" fill="#636363"/>
<path d="M20.7123 28.8125H21.7246V27.8002H20.7123V28.8125Z" fill="#595959"/>
<path d="M19.6997 28.8125H20.7119V27.8002H19.6997V28.8125Z" fill="#636363"/>
<path d="M18.6874 28.8125H19.6997V27.8002H18.6874V28.8125Z" fill="#636363"/>
<path d="M33.8715 12.6162H34.8838V11.6039H33.8715V12.6162Z" fill="#423E3E"/>
<path d="M32.8593 12.6162H33.8716V11.6039H32.8593V12.6162Z" fill="#595959"/>
<path d="M34.8837 13.6289H35.896V12.6166H34.8837V13.6289Z" fill="#423E3E"/>
<path d="M33.8715 13.6289H34.8838V12.6166H33.8715V13.6289Z" fill="#423E3E"/>
<path d="M32.8593 13.6289H33.8716V12.6166H32.8593V13.6289Z" fill="#595959"/>
<path d="M34.8837 14.6406H35.896V13.6284H34.8837V14.6406Z" fill="#423E3E"/>
<path d="M33.8715 14.6406H34.8838V13.6284H33.8715V14.6406Z" fill="#423E3E"/>
<path d="M32.8593 14.6406H33.8716V13.6284H32.8593V14.6406Z" fill="#595959"/>
<path d="M31.8471 13.6289H32.8594V12.6166H31.8471V13.6289Z" fill="#595959"/>
<path d="M30.8349 13.6289H31.8472V12.6166H30.8349V13.6289Z" fill="#595959"/>
<path d="M29.8227 13.6289H30.835V12.6166H29.8227V13.6289Z" fill="#636363"/>
<path d="M28.8105 13.6289H29.8228V12.6166H28.8105V13.6289Z" fill="#636363"/>
<path d="M28.8105 12.6162H29.8228V11.6039H28.8105V12.6162Z" fill="#423E3E"/>
<path d="M28.8105 14.6406H29.8228V13.6284H28.8105V14.6406Z" fill="#595959"/>
<path d="M31.8471 14.6406H32.8594V13.6284H31.8471V14.6406Z" fill="#423E3E"/>
<path d="M30.8349 14.6406H31.8472V13.6284H30.8349V14.6406Z" fill="#595959"/>
<path d="M29.8227 14.6406H30.835V13.6284H29.8227V14.6406Z" fill="#595959"/>
<path d="M28.8105 15.6533H29.8228V14.6411H28.8105V15.6533Z" fill="#423E3E"/>
<path d="M27.7978 13.6289H28.8101V12.6166H27.7978V13.6289Z" fill="#636363"/>
<path d="M27.7978 14.6406H28.8101V13.6284H27.7978V14.6406Z" fill="#636363"/>
<path d="M27.7978 15.6533H28.8101V14.6411H27.7978V15.6533Z" fill="#423E3E"/>
<path d="M31.8471 15.6533H32.8594V14.6411H31.8471V15.6533Z" fill="#423E3E"/>
<path d="M30.8349 15.6533H31.8472V14.6411H30.8349V15.6533Z" fill="#423E3E"/>
<path d="M29.8227 15.6533H30.835V14.6411H29.8227V15.6533Z" fill="#595959"/>
<path d="M34.8837 15.6533H35.896V14.6411H34.8837V15.6533Z" fill="#423E3E"/>
<path d="M33.8715 15.6533H34.8838V14.6411H33.8715V15.6533Z" fill="#423E3E"/>
<path d="M32.8593 15.6533H33.8716V14.6411H32.8593V15.6533Z" fill="#423E3E"/>
<path d="M31.8471 6.54297H32.8594V5.53071H31.8471V6.54297Z" fill="#1E0505"/>
<path d="M31.8471 7.55566H32.8594V6.5434H31.8471V7.55566Z" fill="#1E0505"/>
<path d="M31.8471 8.56738H32.8594V7.55512H31.8471V8.56738Z" fill="#1E0505"/>
<path d="M31.8471 9.58008H32.8594V8.56782H31.8471V9.58008Z" fill="#1E0505"/>
<path d="M30.8349 10.5918H31.8472V9.57954H30.8349V10.5918Z" fill="#1E0505"/>
<path d="M29.8227 10.5918H30.835V9.57954H29.8227V10.5918Z" fill="#A41208"/>
<path d="M29.8227 11.6045H30.835V10.5922H29.8227V11.6045Z" fill="#1E0505"/>
<path d="M28.8105 11.6045H29.8228V10.5922H28.8105V11.6045Z" fill="#1E0505"/>
<path d="M28.8105 12.6162H29.8228V11.6039H28.8105V12.6162Z" fill="#1E0505"/>
<path d="M27.7978 12.6162H28.8101V11.6039H27.7978V12.6162Z" fill="#1E0505"/>
<path d="M26.7856 12.6162H27.7979V11.6039H26.7856V12.6162Z" fill="#1E0505"/>
<path d="M26.7856 12.6162H27.7979V11.6039H26.7856V12.6162Z" fill="#1E0505"/>
<path d="M26.7856 13.6289H27.7979V12.6166H26.7856V13.6289Z" fill="#1E0505"/>
<path d="M26.7856 14.6406H27.7979V13.6284H26.7856V14.6406Z" fill="#1E0505"/>
<path d="M26.7856 15.6533H27.7979V14.6411H26.7856V15.6533Z" fill="#1E0505"/>
<path d="M31.8471 5.53125H32.8594V4.51899H31.8471V5.53125Z" fill="#1E0505"/>
<path d="M30.8349 6.54297H31.8472V5.53071H30.8349V6.54297Z" fill="#660B09"/>
<path d="M30.8349 7.55566H31.8472V6.5434H30.8349V7.55566Z" fill="#A41208"/>
<path d="M30.8349 8.56738H31.8472V7.55512H30.8349V8.56738Z" fill="#A41208"/>
<path d="M30.8349 9.58008H31.8472V8.56782H30.8349V9.58008Z" fill="#A41208"/>
<path d="M30.8349 5.53125H31.8472V4.51899H30.8349V5.53125Z" fill="#660B09"/>
<path d="M29.8227 6.54297H30.835V5.53071H29.8227V6.54297Z" fill="#F67A1B"/>
<path d="M29.8227 7.55566H30.835V6.5434H29.8227V7.55566Z" fill="#F67A1B"/>
<path d="M29.8227 8.56738H30.835V7.55512H29.8227V8.56738Z" fill="#F67A1B"/>
<path d="M29.8227 9.58008H30.835V8.56782H29.8227V9.58008Z" fill="#A41208"/>
<path d="M29.8227 5.53125H30.835V4.51899H29.8227V5.53125Z" fill="#660B09"/>
<path d="M28.8105 6.54297H29.8228V5.53071H28.8105V6.54297Z" fill="#636363"/>
<path d="M28.8105 7.55566H29.8228V6.5434H28.8105V7.55566Z" fill="#636363"/>
<path d="M28.8105 8.56738H29.8228V7.55512H28.8105V8.56738Z" fill="#F67A1B"/>
<path d="M28.8105 9.58008H29.8228V8.56782H28.8105V9.58008Z" fill="#F67A1B"/>
<path d="M28.8105 10.5918H29.8228V9.57954H28.8105V10.5918Z" fill="#A41208"/>
<path d="M28.8105 5.53125H29.8228V4.51899H28.8105V5.53125Z" fill="#595959"/>
<path d="M27.7978 6.54297H28.8101V5.53071H27.7978V6.54297Z" fill="#595959"/>
<path d="M27.7978 7.55566H28.8101V6.5434H27.7978V7.55566Z" fill="#595959"/>
<path d="M27.7978 8.56738H28.8101V7.55512H27.7978V8.56738Z" fill="#636363"/>
<path d="M27.7978 9.58008H28.8101V8.56782H27.7978V9.58008Z" fill="#F67A1B"/>
<path d="M27.7978 10.5918H28.8101V9.57954H27.7978V10.5918Z" fill="#F67A1B"/>
<path d="M27.7978 11.6045H28.8101V10.5922H27.7978V11.6045Z" fill="#660B09"/>
<path d="M27.7978 5.53125H28.8101V4.51899H27.7978V5.53125Z" fill="#423E3E"/>
<path d="M29.8227 4.51855H30.835V3.50629H29.8227V4.51855Z" fill="#660B09"/>
<path d="M28.8105 4.51855H29.8228V3.50629H28.8105V4.51855Z" fill="#595959"/>
<path d="M27.7978 4.51855H28.8101V3.50629H27.7978V4.51855Z" fill="#423E3E"/>
<path d="M26.7856 6.54297H27.7979V5.53071H26.7856V6.54297Z" fill="#423E3E"/>
<path d="M26.7856 7.55566H27.7979V6.5434H26.7856V7.55566Z" fill="#423E3E"/>
<path d="M26.7856 8.56738H27.7979V7.55512H26.7856V8.56738Z" fill="#423E3E"/>
<path d="M26.7856 9.58008H27.7979V8.56782H26.7856V9.58008Z" fill="#595959"/>
<path d="M26.7856 10.5918H27.7979V9.57954H26.7856V10.5918Z" fill="#595959"/>
<path d="M26.7856 11.6045H27.7979V10.5922H26.7856V11.6045Z" fill="#660B09"/>
<path d="M26.7856 5.53125H27.7979V4.51899H26.7856V5.53125Z" fill="#660B09"/>
<path d="M26.7856 4.51855H27.7979V3.50629H26.7856V4.51855Z" fill="#660B09"/>
<path d="M25.7734 6.54297H26.7856V5.53071H25.7734V6.54297Z" fill="#A41208"/>
<path d="M25.7734 7.55566H26.7856V6.5434H25.7734V7.55566Z" fill="#A41208"/>
<path d="M25.7734 8.56738H26.7856V7.55512H25.7734V8.56738Z" fill="#A41208"/>
<path d="M25.7734 9.58008H26.7856V8.56782H25.7734V9.58008Z" fill="#423E3E"/>
<path d="M25.7734 10.5918H26.7856V9.57954H25.7734V10.5918Z" fill="#423E3E"/>
<path d="M25.7734 11.6045H26.7856V10.5922H25.7734V11.6045Z" fill="#423E3E"/>
<path d="M25.7734 5.53125H26.7856V4.51899H25.7734V5.53125Z" fill="#F67A1B"/>
<path d="M25.7734 4.51855H26.7856V3.50629H25.7734V4.51855Z" fill="#F67A1B"/>
<path d="M24.7612 6.54297H25.7734V5.53071H24.7612V6.54297Z" fill="#F67A1B"/>
<path d="M24.7612 7.55566H25.7734V6.5434H24.7612V7.55566Z" fill="#F67A1B"/>
<path d="M24.7612 8.56738H25.7734V7.55512H24.7612V8.56738Z" fill="#A41208"/>
<path d="M24.7612 9.58008H25.7734V8.56782H24.7612V9.58008Z" fill="#A41208"/>
<path d="M24.7612 10.5918H25.7734V9.57954H24.7612V10.5918Z" fill="#423E3E"/>
<path d="M24.7612 11.6045H25.7734V10.5922H24.7612V11.6045Z" fill="#423E3E"/>
<path d="M24.7612 5.53125H25.7734V4.51899H24.7612V5.53125Z" fill="#F67A1B"/>
<path d="M24.7612 4.51855H25.7734V3.50629H24.7612V4.51855Z" fill="#660B09"/>
<path d="M23.749 6.54297H24.7612V5.53071H23.749V6.54297Z" fill="#660B09"/>
<path d="M23.749 7.55566H24.7612V6.5434H23.749V7.55566Z" fill="#660B09"/>
<path d="M23.749 8.56738H24.7612V7.55512H23.749V8.56738Z" fill="#660B09"/>
<path d="M23.749 9.58008H24.7612V8.56782H23.749V9.58008Z" fill="#A41208"/>
<path d="M23.749 10.5918H24.7612V9.57954H23.749V10.5918Z" fill="#660B09"/>
<path d="M23.749 11.6045H24.7612V10.5922H23.749V11.6045Z" fill="#660B09"/>
<path d="M23.749 5.53125H24.7612V4.51899H23.749V5.53125Z" fill="#660B09"/>
<path d="M23.749 4.51855H24.7612V3.50629H23.749V4.51855Z" fill="#660B09"/>
<path d="M22.7368 6.54297H23.749V5.53071H22.7368V6.54297Z" fill="#660B09"/>
<path d="M22.7368 7.55566H23.749V6.5434H22.7368V7.55566Z" fill="#660B09"/>
<path d="M22.7368 8.56738H23.749V7.55512H22.7368V8.56738Z" fill="#660B09"/>
<path d="M22.7368 9.58008H23.749V8.56782H22.7368V9.58008Z" fill="#660B09"/>
<path d="M22.7368 10.5918H23.749V9.57954H22.7368V10.5918Z" fill="#660B09"/>
<path d="M22.7368 11.6045H23.749V10.5922H22.7368V11.6045Z" fill="#660B09"/>
<path d="M22.7368 5.53125H23.749V4.51899H22.7368V5.53125Z" fill="#423E3E"/>
<path d="M22.7368 4.51855H23.749V3.50629H22.7368V4.51855Z" fill="#423E3E"/>
<path d="M21.7246 6.54297H22.7368V5.53071H21.7246V6.54297Z" fill="#423E3E"/>
<path d="M21.7246 7.55566H22.7368V6.5434H21.7246V7.55566Z" fill="#423E3E"/>
<path d="M21.7246 8.56738H22.7368V7.55512H21.7246V8.56738Z" fill="#423E3E"/>
<path d="M21.7246 9.58008H22.7368V8.56782H21.7246V9.58008Z" fill="#423E3E"/>
<path d="M21.7246 10.5918H22.7368V9.57954H21.7246V10.5918Z" fill="#595959"/>
<path d="M21.7246 11.6045H22.7368V10.5922H21.7246V11.6045Z" fill="#595959"/>
<path d="M21.7246 5.53125H22.7368V4.51899H21.7246V5.53125Z" fill="#595959"/>
<path d="M21.7246 4.51855H22.7368V3.50629H21.7246V4.51855Z" fill="#595959"/>
<path d="M20.7123 6.54297H21.7246V5.53071H20.7123V6.54297Z" fill="#595959"/>
<path d="M20.7123 7.55566H21.7246V6.5434H20.7123V7.55566Z" fill="#595959"/>
<path d="M20.7123 8.56738H21.7246V7.55512H20.7123V8.56738Z" fill="#595959"/>
<path d="M20.7123 9.58008H21.7246V8.56782H20.7123V9.58008Z" fill="#423E3E"/>
<path d="M20.7123 10.5918H21.7246V9.57954H20.7123V10.5918Z" fill="#595959"/>
<path d="M20.7123 11.6045H21.7246V10.5922H20.7123V11.6045Z" fill="#595959"/>
<path d="M20.7123 5.53125H21.7246V4.51899H20.7123V5.53125Z" fill="#636363"/>
<path d="M20.7123 4.51855H21.7246V3.50629H20.7123V4.51855Z" fill="#636363"/>
<path d="M19.6997 6.54297H20.7119V5.53071H19.6997V6.54297Z" fill="#636363"/>
<path d="M19.6997 7.55566H20.7119V6.5434H19.6997V7.55566Z" fill="#636363"/>
<path d="M19.6997 8.56738H20.7119V7.55512H19.6997V8.56738Z" fill="#595959"/>
<path d="M19.6997 9.58008H20.7119V8.56782H19.6997V9.58008Z" fill="#595959"/>
<path d="M19.6997 10.5918H20.7119V9.57954H19.6997V10.5918Z" fill="#595959"/>
<path d="M19.6997 11.6045H20.7119V10.5922H19.6997V11.6045Z" fill="#595959"/>
<path d="M19.6997 5.53125H20.7119V4.51899H19.6997V5.53125Z" fill="#636363"/>
<path d="M19.6997 4.51855H20.7119V3.50629H19.6997V4.51855Z" fill="#595959"/>
<path d="M18.6874 6.54297H19.6997V5.53071H18.6874V6.54297Z" fill="#595959"/>
<path d="M18.6874 7.55566H19.6997V6.5434H18.6874V7.55566Z" fill="#636363"/>
<path d="M18.6874 8.56738H19.6997V7.55512H18.6874V8.56738Z" fill="#636363"/>
<path d="M18.6874 9.58008H19.6997V8.56782H18.6874V9.58008Z" fill="#636363"/>
<path d="M18.6874 10.5918H19.6997V9.57954H18.6874V10.5918Z" fill="#595959"/>
<path d="M18.6874 11.6045H19.6997V10.5922H18.6874V11.6045Z" fill="#595959"/>
<path d="M18.6874 5.53125H19.6997V4.51899H18.6874V5.53125Z" fill="#595959"/>
<path d="M18.6874 4.51855H19.6997V3.50629H18.6874V4.51855Z" fill="#595959"/>
<path d="M25.7734 12.6162H26.7856V11.6039H25.7734V12.6162Z" fill="#423E3E"/>
<path d="M24.7612 12.6162H25.7734V11.6039H24.7612V12.6162Z" fill="#423E3E"/>
<path d="M23.749 12.6162H24.7612V11.6039H23.749V12.6162Z" fill="#595959"/>
<path d="M22.7368 12.6162H23.749V11.6039H22.7368V12.6162Z" fill="#595959"/>
<path d="M21.7246 12.6162H22.7368V11.6039H21.7246V12.6162Z" fill="#595959"/>
<path d="M20.7123 12.6162H21.7246V11.6039H20.7123V12.6162Z" fill="#595959"/>
<path d="M19.6997 12.6162H20.7119V11.6039H19.6997V12.6162Z" fill="#595959"/>
<path d="M18.6874 12.6162H19.6997V11.6039H18.6874V12.6162Z" fill="#595959"/>
<path d="M25.7734 13.6289H26.7856V12.6166H25.7734V13.6289Z" fill="#595959"/>
<path d="M24.7612 13.6289H25.7734V12.6166H24.7612V13.6289Z" fill="#595959"/>
<path d="M23.749 13.6289H24.7612V12.6166H23.749V13.6289Z" fill="#595959"/>
<path d="M22.7368 13.6289H23.749V12.6166H22.7368V13.6289Z" fill="#595959"/>
<path d="M21.7246 13.6289H22.7368V12.6166H21.7246V13.6289Z" fill="#595959"/>
<path d="M20.7123 13.6289H21.7246V12.6166H20.7123V13.6289Z" fill="#595959"/>
<path d="M19.6997 13.6289H20.7119V12.6166H19.6997V13.6289Z" fill="#595959"/>
<path d="M18.6874 13.6289H19.6997V12.6166H18.6874V13.6289Z" fill="#595959"/>
<path d="M25.7734 14.6406H26.7856V13.6284H25.7734V14.6406Z" fill="#595959"/>
<path d="M24.7612 14.6406H25.7734V13.6284H24.7612V14.6406Z" fill="#595959"/>
<path d="M23.749 14.6406H24.7612V13.6284H23.749V14.6406Z" fill="#595959"/>
<path d="M22.7368 14.6406H23.749V13.6284H22.7368V14.6406Z" fill="#595959"/>
<path d="M21.7246 14.6406H22.7368V13.6284H21.7246V14.6406Z" fill="#595959"/>
<path d="M20.7123 14.6406H21.7246V13.6284H20.7123V14.6406Z" fill="#595959"/>
<path d="M19.6997 14.6406H20.7119V13.6284H19.6997V14.6406Z" fill="#595959"/>
<path d="M18.6874 14.6406H19.6997V13.6284H18.6874V14.6406Z" fill="#595959"/>
<path d="M25.7734 15.6533H26.7856V14.6411H25.7734V15.6533Z" fill="#595959"/>
<path d="M24.7612 15.6533H25.7734V14.6411H24.7612V15.6533Z" fill="#595959"/>
<path d="M23.749 15.6533H24.7612V14.6411H23.749V15.6533Z" fill="#595959"/>
<path d="M22.7368 15.6533H23.749V14.6411H22.7368V15.6533Z" fill="#595959"/>
<path d="M21.7246 15.6533H22.7368V14.6411H21.7246V15.6533Z" fill="#595959"/>
<path d="M20.7123 15.6533H21.7246V14.6411H20.7123V15.6533Z" fill="#595959"/>
<path d="M19.6997 15.6533H20.7119V14.6411H19.6997V15.6533Z" fill="#595959"/>
<path d="M18.6874 15.6533H19.6997V14.6411H18.6874V15.6533Z" fill="#595959"/>
<path d="M25.7734 16.666H26.7856V15.6538H25.7734V16.666Z" fill="#595959"/>
<path d="M24.7612 16.666H25.7734V15.6538H24.7612V16.666Z" fill="#595959"/>
<path d="M23.749 16.666H24.7612V15.6538H23.749V16.666Z" fill="#595959"/>
<path d="M22.7368 16.666H23.749V15.6538H22.7368V16.666Z" fill="#595959"/>
<path d="M21.7246 16.666H22.7368V15.6538H21.7246V16.666Z" fill="#595959"/>
<path d="M20.7123 16.666H21.7246V15.6538H20.7123V16.666Z" fill="#595959"/>
<path d="M19.6997 16.666H20.7119V15.6538H19.6997V16.666Z" fill="#595959"/>
<path d="M18.6874 16.666H19.6997V15.6538H18.6874V16.666Z" fill="#595959"/>
<path d="M21.7246 17.6777H22.7368V16.6655H21.7246V17.6777Z" fill="#595959"/>
<path d="M20.7123 17.6777H21.7246V16.6655H20.7123V17.6777Z" fill="#595959"/>
<path d="M19.6997 17.6777H20.7119V16.6655H19.6997V17.6777Z" fill="#595959"/>
<path d="M18.6874 17.6777H19.6997V16.6655H18.6874V17.6777Z" fill="#595959"/>
<path d="M21.7246 18.6904H22.7368V17.6782H21.7246V18.6904Z" fill="#595959"/>
<path d="M20.7123 18.6904H21.7246V17.6782H20.7123V18.6904Z" fill="#595959"/>
<path d="M19.6997 18.6904H20.7119V17.6782H19.6997V18.6904Z" fill="#595959"/>
<path d="M18.6874 18.6904H19.6997V17.6782H18.6874V18.6904Z" fill="#595959"/>
<path d="M21.7246 19.7021H22.7368V18.6899H21.7246V19.7021Z" fill="#595959"/>
<path d="M20.7123 19.7021H21.7246V18.6899H20.7123V19.7021Z" fill="#595959"/>
<path d="M19.6997 19.7021H20.7119V18.6899H19.6997V19.7021Z" fill="#595959"/>
<path d="M18.6874 19.7021H19.6997V18.6899H18.6874V19.7021Z" fill="#595959"/>
<path d="M21.7246 20.7148H22.7368V19.7026H21.7246V20.7148Z" fill="#595959"/>
<path d="M20.7123 20.7148H21.7246V19.7026H20.7123V20.7148Z" fill="#595959"/>
<path d="M19.6997 20.7148H20.7119V19.7026H19.6997V20.7148Z" fill="#595959"/>
<path d="M18.6874 20.7148H19.6997V19.7026H18.6874V20.7148Z" fill="#595959"/>
<path d="M30.8349 3.50586H31.8472V2.4936H30.8349V3.50586Z" fill="#1E0505"/>
<path d="M30.8349 4.51855H31.8472V3.50629H30.8349V4.51855Z" fill="#1E0505"/>
<path d="M29.8227 3.50586H30.835V2.4936H29.8227V3.50586Z" fill="#1E0505"/>
<path d="M28.8105 3.50586H29.8228V2.4936H28.8105V3.50586Z" fill="#1E0505"/>
<path d="M27.7978 3.50586H28.8101V2.4936H27.7978V3.50586Z" fill="#1E0505"/>
<path d="M26.7856 3.50586H27.7979V2.4936H26.7856V3.50586Z" fill="#660B09"/>
<path d="M25.7734 3.50586H26.7856V2.4936H25.7734V3.50586Z" fill="#F67A1B"/>
<path d="M24.7612 3.50586H25.7734V2.4936H24.7612V3.50586Z" fill="#660B09"/>
<path d="M23.749 3.50586H24.7612V2.4936H23.749V3.50586Z" fill="#1E0505"/>
<path d="M22.7368 3.50586H23.749V2.4936H22.7368V3.50586Z" fill="#1E0505"/>
<path d="M21.7246 3.50586H22.7368V2.4936H21.7246V3.50586Z" fill="#1E0505"/>
<path d="M20.7123 3.50586H21.7246V2.4936H20.7123V3.50586Z" fill="#1E0505"/>
<path d="M19.6997 3.50586H20.7119V2.4936H19.6997V3.50586Z" fill="#1E0505"/>
<path d="M18.6874 3.50586H19.6997V2.4936H18.6874V3.50586Z" fill="#1E0505"/>
<path d="M19.6998 29.8242H18.6875V30.8365H19.6998V29.8242Z" fill="#1E0505"/>
<path d="M30.8349 27.8008H31.8472V26.7885H30.8349V27.8008Z" fill="#1E0505"/>
<path d="M29.8227 27.8008H30.835V26.7885H29.8227V27.8008Z" fill="#1E0505"/>
<path d="M28.8105 27.8008H29.8228V26.7885H28.8105V27.8008Z" fill="#1E0505"/>
<path d="M27.7978 27.8008H28.8101V26.7885H27.7978V27.8008Z" fill="#1E0505"/>
<path d="M26.7856 27.8008H27.7979V26.7885H26.7856V27.8008Z" fill="#1E0505"/>
<path d="M25.7734 27.8008H26.7856V26.7885H25.7734V27.8008Z" fill="#1E0505"/>
<path d="M24.7612 27.8008H25.7734V26.7885H24.7612V27.8008Z" fill="#1E0505"/>
<path d="M23.749 27.8008H24.7612V26.7885H23.749V27.8008Z" fill="#1E0505"/>
<path d="M22.7368 27.8008H23.749V26.7885H22.7368V27.8008Z" fill="#1E0505"/>
<path d="M22.7368 26.7881H23.749V25.7758H22.7368V26.7881Z" fill="#1E0505"/>
<path d="M22.7368 25.7764H23.749V24.7641H22.7368V25.7764Z" fill="#1E0505"/>
<path d="M22.7368 24.7637H23.749V23.7514H22.7368V24.7637Z" fill="#1E0505"/>
<path d="M22.7368 23.752H23.749V22.7397H22.7368V23.752Z" fill="#1E0505"/>
<path d="M22.7368 22.7393H23.749V21.727H22.7368V22.7393Z" fill="#1E0505"/>
<path d="M22.7368 21.7266H23.749V20.7143H22.7368V21.7266Z" fill="#1E0505"/>
<path d="M21.7246 27.8008H22.7368V26.7885H21.7246V27.8008Z" fill="#1E0505"/>
<path d="M20.7123 27.8008H21.7246V26.7885H20.7123V27.8008Z" fill="#1E0505"/>
<path d="M19.6997 27.8008H20.7119V26.7885H19.6997V27.8008Z" fill="#1E0505"/>
<path d="M19.6998 26.7871H18.6875V27.7994H19.6998V26.7871Z" fill="#1E0505"/>
<path d="M19.6998 2.49316H18.6875V3.50543H19.6998V2.49316Z" fill="#1E0505"/>
<path d="M20.712 2.49316H19.6997V3.50543H20.712V2.49316Z" fill="#1E0505"/>
<path d="M26.7857 17.6768H25.7734V18.689H26.7857V17.6768Z" fill="#595959"/>
<path d="M26.7857 18.6895H25.7734V19.7017H26.7857V18.6895Z" fill="#423E3E"/>
<path d="M26.7857 19.7012H25.7734V20.7134H26.7857V19.7012Z" fill="#423E3E"/>
<path d="M26.7857 20.7139H25.7734V21.7261H26.7857V20.7139Z" fill="#595959"/>
<path d="M26.7857 21.7256H25.7734V22.7378H26.7857V21.7256Z" fill="#595959"/>
<path d="M26.7857 22.7383H25.7734V23.7505H26.7857V22.7383Z" fill="#595959"/>
<path d="M26.7857 23.75H25.7734V24.7623H26.7857V23.75Z" fill="#595959"/>
<path d="M26.7857 24.7627H25.7734V25.775H26.7857V24.7627Z" fill="#380909"/>
<path d="M26.7857 25.7744H25.7734V26.7867H26.7857V25.7744Z" fill="#380909"/>
<path d="M25.7735 17.6768H24.7612V18.689H25.7735V17.6768Z" fill="#423E3E"/>
<path d="M25.7735 18.6895H24.7612V19.7017H25.7735V18.6895Z" fill="#595959"/>
<path d="M25.7735 19.7012H24.7612V20.7134H25.7735V19.7012Z" fill="#423E3E"/>
<path d="M25.7735 20.7139H24.7612V21.7261H25.7735V20.7139Z" fill="#423E3E"/>
<path d="M25.7735 21.7256H24.7612V22.7378H25.7735V21.7256Z" fill="#595959"/>
<path d="M25.7735 22.7383H24.7612V23.7505H25.7735V22.7383Z" fill="#423E3E"/>
<path d="M25.7735 23.75H24.7612V24.7623H25.7735V23.75Z" fill="#595959"/>
<path d="M25.7735 24.7627H24.7612V25.775H25.7735V24.7627Z" fill="#595959"/>
<path d="M25.7735 25.7744H24.7612V26.7867H25.7735V25.7744Z" fill="#380909"/>
<path d="M24.7613 17.6768H23.749V18.689H24.7613V17.6768Z" fill="#595959"/>
<path d="M26.7857 16.665H25.7734V17.6773H26.7857V16.665Z" fill="#423E3E"/>
<path d="M25.7735 16.665H24.7612V17.6773H25.7735V16.665Z" fill="#423E3E"/>
<path d="M24.7613 16.665H23.749V17.6773H24.7613V16.665Z" fill="#423E3E"/>
<path d="M24.7613 18.6895H23.749V19.7017H24.7613V18.6895Z" fill="#423E3E"/>
<path d="M23.7491 19.7012H22.7368V20.7134H23.7491V19.7012Z" fill="#423E3E"/>
<path d="M24.7613 18.6895H23.749V19.7017H24.7613V18.6895Z" fill="#423E3E"/>
<path d="M23.7491 17.6768H22.7368V18.689H23.7491V17.6768Z" fill="#423E3E"/>
<path d="M23.7491 16.665H22.7368V17.6773H23.7491V16.665Z" fill="#423E3E"/>
<path d="M23.7491 18.6895H22.7368V19.7017H23.7491V18.6895Z" fill="#423E3E"/>
<path d="M23.7491 18.6895H22.7368V19.7017H23.7491V18.6895Z" fill="#595959"/>
<path d="M24.7613 19.7012H23.749V20.7134H24.7613V19.7012Z" fill="#423E3E"/>
<path d="M24.7613 20.7139H23.749V21.7261H24.7613V20.7139Z" fill="#595959"/>
<path d="M24.7613 21.7256H23.749V22.7378H24.7613V21.7256Z" fill="#423E3E"/>
<path d="M24.7613 22.7383H23.749V23.7505H24.7613V22.7383Z" fill="#423E3E"/>
<path d="M24.7613 23.75H23.749V24.7623H24.7613V23.75Z" fill="#423E3E"/>
<path d="M24.7613 24.7627H23.749V25.775H24.7613V24.7627Z" fill="#423E3E"/>
<path d="M24.7613 25.7744H23.749V26.7867H24.7613V25.7744Z" fill="#380909"/>
<path d="M19.6998 29.8242H18.6875V30.8365H19.6998V29.8242Z" fill="#1E0505"/>
<path d="M19.6998 28.8115H18.6875V29.8238H19.6998V28.8115Z" fill="#595959"/>
<path d="M20.712 28.8115H19.6997V29.8238H20.712V28.8115Z" fill="#423E3E"/>
<path d="M19.6998 27.7998H18.6875V28.8121H19.6998V27.7998Z" fill="#636363"/>
<path d="M20.712 27.7998H19.6997V28.8121H20.712V27.7998Z" fill="#636363"/>
<path d="M19.6998 2.49316H18.6875V3.50543H19.6998V2.49316Z" fill="#1E0505"/>
<path d="M20.712 2.49316H19.6997V3.50543H20.712V2.49316Z" fill="#1E0505"/>
<path d="M19.6997 30.8369H20.7119V29.8247H19.6997V30.8369Z" fill="#1E0505"/>
<path d="M19.6998 26.7871H18.6875V27.7994H19.6998V26.7871Z" fill="#1E0505"/>
<path d="M19.6997 27.8008H20.7119V26.7885H19.6997V27.8008Z" fill="#1E0505"/>
<path d="M21.7246 26.7881H22.7368V25.7758H21.7246V26.7881Z" fill="#595959"/>
<path d="M20.7123 26.7881H21.7246V25.7758H20.7123V26.7881Z" fill="#595959"/>
<path d="M19.6997 26.7881H20.7119V25.7758H19.6997V26.7881Z" fill="#423E3E"/>
<path d="M19.6998 25.7744H18.6875V26.7867H19.6998V25.7744Z" fill="#423E3E"/>
<path d="M19.6998 25.7744H18.6875V26.7867H19.6998V25.7744Z" fill="#423E3E"/>
<path d="M19.6997 26.7881H20.7119V25.7758H19.6997V26.7881Z" fill="#423E3E"/>
<path d="M21.7246 25.7764H22.7368V24.7641H21.7246V25.7764Z" fill="#595959"/>
<path d="M20.7123 25.7764H21.7246V24.7641H20.7123V25.7764Z" fill="#423E3E"/>
<path d="M19.6997 25.7764H20.7119V24.7641H19.6997V25.7764Z" fill="#423E3E"/>
<path d="M19.6998 24.7627H18.6875V25.775H19.6998V24.7627Z" fill="#423E3E"/>
<path d="M19.6998 24.7627H18.6875V25.775H19.6998V24.7627Z" fill="#423E3E"/>
<path d="M19.6997 25.7764H20.7119V24.7641H19.6997V25.7764Z" fill="#423E3E"/>
<path d="M21.7246 24.7637H22.7368V23.7514H21.7246V24.7637Z" fill="#595959"/>
<path d="M20.7123 24.7637H21.7246V23.7514H20.7123V24.7637Z" fill="#423E3E"/>
<path d="M19.6997 24.7637H20.7119V23.7514H19.6997V24.7637Z" fill="#423E3E"/>
<path d="M19.6998 23.75H18.6875V24.7623H19.6998V23.75Z" fill="#423E3E"/>
<path d="M19.6998 23.75H18.6875V24.7623H19.6998V23.75Z" fill="#423E3E"/>
<path d="M19.6997 24.7637H20.7119V23.7514H19.6997V24.7637Z" fill="#423E3E"/>
<path d="M21.7246 23.752H22.7368V22.7397H21.7246V23.752Z" fill="#595959"/>
<path d="M20.7123 23.752H21.7246V22.7397H20.7123V23.752Z" fill="#423E3E"/>
<path d="M19.6997 23.752H20.7119V22.7397H19.6997V23.752Z" fill="#423E3E"/>
<path d="M19.6998 22.7383H18.6875V23.7505H19.6998V22.7383Z" fill="#423E3E"/>
<path d="M19.6998 22.7383H18.6875V23.7505H19.6998V22.7383Z" fill="#636363"/>
<path d="M19.6997 23.752H20.7119V22.7397H19.6997V23.752Z" fill="#636363"/>
<path d="M21.7246 22.7393H22.7368V21.727H21.7246V22.7393Z" fill="#595959"/>
<path d="M20.7123 22.7393H21.7246V21.727H20.7123V22.7393Z" fill="#423E3E"/>
<path d="M19.6997 22.7393H20.7119V21.727H19.6997V22.7393Z" fill="#423E3E"/>
<path d="M19.6998 21.7256H18.6875V22.7378H19.6998V21.7256Z" fill="#423E3E"/>
<path d="M19.6998 21.7256H18.6875V22.7378H19.6998V21.7256Z" fill="#636363"/>
<path d="M19.6997 22.7393H20.7119V21.727H19.6997V22.7393Z" fill="#636363"/>
<path d="M21.7246 21.7266H22.7368V20.7143H21.7246V21.7266Z" fill="#595959"/>
<path d="M20.7123 21.7266H21.7246V20.7143H20.7123V21.7266Z" fill="#423E3E"/>
<path d="M19.6997 21.7266H20.7119V20.7143H19.6997V21.7266Z" fill="#423E3E"/>
<path d="M19.6998 20.7139H18.6875V21.7261H19.6998V20.7139Z" fill="#423E3E"/>
<path d="M19.6998 20.7139H18.6875V21.7261H19.6998V20.7139Z" fill="#636363"/>
<path d="M19.6997 21.7266H20.7119V20.7143H19.6997V21.7266Z" fill="#636363"/>
<path d="M19.6997 3.50586H20.7119V2.4936H19.6997V3.50586Z" fill="#1E0505"/>
<path d="M18.6874 3.50586H19.6997V2.4936H18.6874V3.50586Z" fill="#1E0505"/>
<path d="M26.7856 17.002H25.2109V18.5766H26.7856V17.002Z" fill="#1E0505"/>
<path d="M26.7856 15.4277H25.2109V17.0024H26.7856V15.4277Z" fill="#1E0505"/>
<path d="M26.7856 13.8525H25.2109V15.4272H26.7856V13.8525Z" fill="#1E0505"/>
<path d="M26.7856 12.2783H25.2109V13.8529H26.7856V12.2783Z" fill="#1E0505"/>
<path d="M25.2113 17.002H23.6367V18.5766H25.2113V17.002Z" fill="#1E0505"/>
<path d="M25.2113 15.4277H23.6367V17.0024H25.2113V15.4277Z" fill="#540202"/>
<path d="M25.2113 13.8525H23.6367V15.4272H25.2113V13.8525Z" fill="#540202"/>
<path d="M25.2113 12.2783H23.6367V13.8529H25.2113V12.2783Z" fill="#540202"/>
<path d="M25.2113 10.7031H23.6367V12.2778H25.2113V10.7031Z" fill="#1E0505"/>
<path d="M23.6366 20.1514H22.062V21.726H23.6366V20.1514Z" fill="#1E0505"/>
<path d="M23.6366 18.5771H22.062V20.1518H23.6366V18.5771Z" fill="#540202"/>
<path d="M23.6366 17.002H22.062V18.5766H23.6366V17.002Z" fill="#540202"/>
<path d="M23.6366 15.4277H22.062V17.0024H23.6366V15.4277Z" fill="#680202"/>
<path d="M23.6366 13.8525H22.062V15.4272H23.6366V13.8525Z" fill="#680202"/>
<path d="M23.6366 12.2783H22.062V13.8529H23.6366V12.2783Z" fill="#680202"/>
<path d="M23.6366 10.7031H22.062V12.2778H23.6366V10.7031Z" fill="#540202"/>
<path d="M23.6366 9.12891H22.062V10.7035H23.6366V9.12891Z" fill="#1E0505"/>
<path d="M22.0619 20.1514H20.4873V21.726H22.0619V20.1514Z" fill="#1E0505"/>
<path d="M22.0619 18.5771H20.4873V20.1518H22.0619V18.5771Z" fill="#540202"/>
<path d="M22.0619 17.002H20.4873V18.5766H22.0619V17.002Z" fill="#680202"/>
<path d="M22.0619 15.4277H20.4873V17.0024H22.0619V15.4277Z" fill="#860000"/>
<path d="M22.0619 13.8525H20.4873V15.4272H22.0619V13.8525Z" fill="#860000"/>
<path d="M22.0619 12.2783H20.4873V13.8529H22.0619V12.2783Z" fill="#860000"/>
<path d="M22.0619 10.7031H20.4873V12.2778H22.0619V10.7031Z" fill="#540202"/>
<path d="M22.0619 9.12891H20.4873V10.7035H22.0619V9.12891Z" fill="#1E0505"/>
<path d="M20.4882 20.1514H18.9136V21.726H20.4882V20.1514Z" fill="#1E0505"/>
<path d="M20.4882 18.5771H18.9136V20.1518H20.4882V18.5771Z" fill="#540202"/>
<path d="M20.4872 17.002H18.9126V18.5766H20.4872V17.002Z" fill="#860000"/>
<path d="M20.4872 15.4277H18.9126V17.0024H20.4872V15.4277Z" fill="#1E0505"/>
<path d="M20.4872 13.8525H18.9126V15.4272H20.4872V13.8525Z" fill="#1E0505"/>
<path d="M20.4872 12.2783H18.9126V13.8529H20.4872V12.2783Z" fill="#860000"/>
<path d="M20.4872 10.7031H18.9126V12.2778H20.4872V10.7031Z" fill="#540202"/>
<path d="M20.4872 9.12891H18.9126V10.7035H20.4872V9.12891Z" fill="#1E0505"/>
<path d="M18.9125 20.1514H17.3379V21.726H18.9125V20.1514Z" fill="#1E0505"/>
<path d="M18.9125 18.5771H17.3379V20.1518H18.9125V18.5771Z" fill="#540202"/>
<path d="M18.9125 17.002H17.3379V18.5766H18.9125V17.002Z" fill="#860000"/>
<path d="M18.9125 15.4277H17.3379V17.0024H18.9125V15.4277Z" fill="#860000"/>
<path d="M18.9125 13.8525H17.3379V15.4272H18.9125V13.8525Z" fill="#860000"/>
<path d="M18.9125 12.2783H17.3379V13.8529H18.9125V12.2783Z" fill="#A30F0F"/>
<path d="M18.9125 10.7031H17.3379V12.2778H18.9125V10.7031Z" fill="#540202"/>
<path d="M18.9125 9.12891H17.3379V10.7035H18.9125V9.12891Z" fill="#1E0505"/>
<path d="M17.3378 20.1514H15.7632V21.726H17.3378V20.1514Z" fill="#1E0505"/>
<path d="M17.3378 18.5771H15.7632V20.1518H17.3378V18.5771Z" fill="#540202"/>
<path d="M17.3378 17.002H15.7632V18.5766H17.3378V17.002Z" fill="#540202"/>
<path d="M17.3378 15.4277H15.7632V17.0024H17.3378V15.4277Z" fill="#A30F0F"/>
<path d="M17.3378 13.8525H15.7632V15.4272H17.3378V13.8525Z" fill="#A30F0F"/>
<path d="M17.3378 12.2783H15.7632V13.8529H17.3378V12.2783Z" fill="#A30F0F"/>
<path d="M17.3378 10.7031H15.7632V12.2778H17.3378V10.7031Z" fill="#540202"/>
<path d="M17.3378 9.12891H15.7632V10.7035H17.3378V9.12891Z" fill="#1E0505"/>
<path d="M15.7636 17.002H14.189V18.5766H15.7636V17.002Z" fill="#1E0505"/>
<path d="M15.7636 15.4277H14.189V17.0024H15.7636V15.4277Z" fill="#540202"/>
<path d="M15.7636 13.8525H14.189V15.4272H15.7636V13.8525Z" fill="#540202"/>
<path d="M15.7636 12.2783H14.189V13.8529H15.7636V12.2783Z" fill="#540202"/>
<path d="M15.7636 10.7031H14.189V12.2778H15.7636V10.7031Z" fill="#1E0505"/>
<path d="M14.1889 17.002H12.6143V18.5766H14.1889V17.002Z" fill="#1E0505"/>
<path d="M14.1889 15.4277H12.6143V17.0024H14.1889V15.4277Z" fill="#1E0505"/>
<path d="M14.1889 13.8525H12.6143V15.4272H14.1889V13.8525Z" fill="#1E0505"/>
<path d="M14.1889 12.2783H12.6143V13.8529H14.1889V12.2783Z" fill="#1E0505"/>
</svg>
