<svg width="39" height="34" viewBox="0 0 39 34" fill="none" xmlns="http://www.w3.org/2000/svg">
<path d="M7.65107 3.10449H6.41895V4.17722H7.65107V3.10449Z" fill="#94BF37"/>
<path d="M8.88202 3.10449H7.6499V4.17722H8.88202V3.10449Z" fill="#94BF37"/>
<path d="M10.114 3.10449H8.88184V4.17722H10.114V3.10449Z" fill="#94BF37"/>
<path d="M11.3449 3.10449H10.1128V4.17722H11.3449V3.10449Z" fill="#94BF37"/>
<path d="M6.41865 4.17676H5.18652V5.24948H6.41865V4.17676Z" fill="#140A33"/>
<path d="M6.41865 3.10449H5.18652V4.17722H6.41865V3.10449Z" fill="#140A33"/>
<path d="M7.65107 2.03223H6.41895V3.10495H7.65107V2.03223Z" fill="#140A33"/>
<path d="M8.88202 2.03223H7.6499V3.10495H8.88202V2.03223Z" fill="#140A33"/>
<path d="M10.114 2.03223H8.88184V3.10495H10.114V2.03223Z" fill="#140A33"/>
<path d="M11.3449 2.03223H10.1128V3.10495H11.3449V2.03223Z" fill="#140A33"/>
<path d="M12.5773 3.10449H11.3452V4.17722H12.5773V3.10449Z" fill="#140A33"/>
<path d="M7.65107 4.17676H6.41895V5.24948H7.65107V4.17676Z" fill="#B8CE5B"/>
<path d="M8.88202 4.17676H7.6499V5.24948H8.88202V4.17676Z" fill="#94BF37"/>
<path d="M10.114 4.17676H8.88184V5.24948H10.114V4.17676Z" fill="#94BF37"/>
<path d="M11.3449 4.17676H10.1128V5.24948H11.3449V4.17676Z" fill="#B8CE5B"/>
<path d="M12.5773 4.17676H11.3452V5.24948H12.5773V4.17676Z" fill="#140A33"/>
<path d="M13.8083 4.17676H12.5762V5.24948H13.8083V4.17676Z" fill="#140A33"/>
<path d="M15.0402 4.17676H13.8081V5.24948H15.0402V4.17676Z" fill="#140A33"/>
<path d="M16.2712 4.17676H15.0391V5.24948H16.2712V4.17676Z" fill="#140A33"/>
<path d="M17.5036 4.17676H16.2715V5.24948H17.5036V4.17676Z" fill="#140A33"/>
<path d="M18.7346 4.17676H17.5024V5.24948H18.7346V4.17676Z" fill="#140A33"/>
<path d="M19.9665 4.17676H18.7344V5.24948H19.9665V4.17676Z" fill="#140A33"/>
<path d="M21.1975 4.17676H19.9653V5.24948H21.1975V4.17676Z" fill="#140A33"/>
<path d="M22.4299 4.17676H21.1978V5.24948H22.4299V4.17676Z" fill="#140A33"/>
<path d="M23.6603 4.17676H22.4282V5.24948H23.6603V4.17676Z" fill="#140A33"/>
<path d="M24.8928 4.17676H23.6606V5.24948H24.8928V4.17676Z" fill="#140A33"/>
<path d="M26.1237 4.17676H24.8916V5.24948H26.1237V4.17676Z" fill="#140A33"/>
<path d="M3.95576 5.24902H2.72363V6.32175H3.95576V5.24902Z" fill="#140A33"/>
<path d="M6.41865 5.24902H5.18652V6.32175H6.41865V5.24902Z" fill="#140A33"/>
<path d="M7.65107 5.24902H6.41895V6.32175H7.65107V5.24902Z" fill="#B8CE5B"/>
<path d="M8.88202 5.24902H7.6499V6.32175H8.88202V5.24902Z" fill="#B8CE5B"/>
<path d="M10.114 5.24902H8.88184V6.32175H10.114V5.24902Z" fill="#B8CE5B"/>
<path d="M11.3449 5.24902H10.1128V6.32175H11.3449V5.24902Z" fill="#B8CE5B"/>
<path d="M12.5773 5.24902H11.3452V6.32175H12.5773V5.24902Z" fill="#140A33"/>
<path d="M13.8083 5.24902H12.5762V6.32175H13.8083V5.24902Z" fill="#9364BC"/>
<path d="M15.0402 5.24902H13.8081V6.32175H15.0402V5.24902Z" fill="#9364BC"/>
<path d="M16.2712 5.24902H15.0391V6.32175H16.2712V5.24902Z" fill="#6B3E9B"/>
<path d="M17.5036 5.24902H16.2715V6.32175H17.5036V5.24902Z" fill="#6B3E9B"/>
<path d="M18.7346 5.24902H17.5024V6.32175H18.7346V5.24902Z" fill="#6B3E9B"/>
<path d="M19.9665 5.24902H18.7344V6.32175H19.9665V5.24902Z" fill="#6B3E9B"/>
<path d="M21.1975 5.24902H19.9653V6.32175H21.1975V5.24902Z" fill="#6B3E9B"/>
<path d="M22.4299 5.24902H21.1978V6.32175H22.4299V5.24902Z" fill="#6B3E9B"/>
<path d="M23.6603 5.24902H22.4282V6.32175H23.6603V5.24902Z" fill="#6B3E9B"/>
<path d="M24.8928 5.24902H23.6606V6.32175H24.8928V5.24902Z" fill="#6B3E9B"/>
<path d="M26.1237 5.24902H24.8916V6.32175H26.1237V5.24902Z" fill="#6B3E9B"/>
<path d="M35.9768 5.24902H34.7446V6.32175H35.9768V5.24902Z" fill="#140A33"/>
<path d="M3.95576 6.32129H2.72363V7.39402H3.95576V6.32129Z" fill="#140A33"/>
<path d="M6.41865 6.32129H5.18652V7.39402H6.41865V6.32129Z" fill="#140A33"/>
<path d="M7.65107 6.32129H6.41895V7.39402H7.65107V6.32129Z" fill="#E3E193"/>
<path d="M8.88202 6.32129H7.6499V7.39402H8.88202V6.32129Z" fill="#B8CE5B"/>
<path d="M10.114 6.32129H8.88184V7.39402H10.114V6.32129Z" fill="#B8CE5B"/>
<path d="M11.3449 6.32129H10.1128V7.39402H11.3449V6.32129Z" fill="#B8CE5B"/>
<path d="M12.5773 6.32129H11.3452V7.39402H12.5773V6.32129Z" fill="#140A33"/>
<path d="M13.8083 6.32129H12.5762V7.39402H13.8083V6.32129Z" fill="#6B3E9B"/>
<path d="M15.0402 6.32129H13.8081V7.39402H15.0402V6.32129Z" fill="#6B3E9B"/>
<path d="M16.2712 6.32129H15.0391V7.39402H16.2712V6.32129Z" fill="#6B3E9B"/>
<path d="M17.5036 6.32129H16.2715V7.39402H17.5036V6.32129Z" fill="#6B3E9B"/>
<path d="M18.7346 6.32129H17.5024V7.39402H18.7346V6.32129Z" fill="#6B3E9B"/>
<path d="M19.9665 6.32129H18.7344V7.39402H19.9665V6.32129Z" fill="#9364BC"/>
<path d="M21.1975 6.32129H19.9653V7.39402H21.1975V6.32129Z" fill="#9364BC"/>
<path d="M22.4299 6.32129H21.1978V7.39402H22.4299V6.32129Z" fill="#9364BC"/>
<path d="M23.6603 6.32129H22.4282V7.39402H23.6603V6.32129Z" fill="#9364BC"/>
<path d="M24.8928 6.32129H23.6606V7.39402H24.8928V6.32129Z" fill="#9364BC"/>
<path d="M26.1237 6.32129H24.8916V7.39402H26.1237V6.32129Z" fill="#9364BC"/>
<path d="M35.9768 6.32129H34.7446V7.39402H35.9768V6.32129Z" fill="#140A33"/>
<path d="M3.95576 7.39355H2.72363V8.46628H3.95576V7.39355Z" fill="#140A33"/>
<path d="M6.41865 7.39355H5.18652V8.46628H6.41865V7.39355Z" fill="#140A33"/>
<path d="M7.65107 7.39355H6.41895V8.46628H7.65107V7.39355Z" fill="#E3E193"/>
<path d="M8.88202 7.39355H7.6499V8.46628H8.88202V7.39355Z" fill="#B8CE5B"/>
<path d="M10.114 7.39355H8.88184V8.46628H10.114V7.39355Z" fill="#E3E193"/>
<path d="M11.3449 7.39355H10.1128V8.46628H11.3449V7.39355Z" fill="#B8CE5B"/>
<path d="M12.5773 7.39355H11.3452V8.46628H12.5773V7.39355Z" fill="#140A33"/>
<path d="M13.8083 7.39355H12.5762V8.46628H13.8083V7.39355Z" fill="#6B3E9B"/>
<path d="M15.0402 7.39355H13.8081V8.46628H15.0402V7.39355Z" fill="#6B3E9B"/>
<path d="M16.2712 7.39355H15.0391V8.46628H16.2712V7.39355Z" fill="#6B3E9B"/>
<path d="M17.5036 7.39355H16.2715V8.46628H17.5036V7.39355Z" fill="#6B3E9B"/>
<path d="M18.7346 7.39355H17.5024V8.46628H18.7346V7.39355Z" fill="#6B3E9B"/>
<path d="M19.9665 7.39355H18.7344V8.46628H19.9665V7.39355Z" fill="#6B3E9B"/>
<path d="M21.1975 7.39355H19.9653V8.46628H21.1975V7.39355Z" fill="#6B3E9B"/>
<path d="M22.4299 7.39355H21.1978V8.46628H22.4299V7.39355Z" fill="#6B3E9B"/>
<path d="M23.6603 7.39355H22.4282V8.46628H23.6603V7.39355Z" fill="#9364BC"/>
<path d="M24.8928 7.39355H23.6606V8.46628H24.8928V7.39355Z" fill="#9364BC"/>
<path d="M26.1237 7.39355H24.8916V8.46628H26.1237V7.39355Z" fill="#9364BC"/>
<path d="M35.9768 7.39355H34.7446V8.46628H35.9768V7.39355Z" fill="#140A33"/>
<path d="M3.95576 8.46582H2.72363V9.53855H3.95576V8.46582Z" fill="#140A33"/>
<path d="M6.41865 8.46582H5.18652V9.53855H6.41865V8.46582Z" fill="#140A33"/>
<path d="M7.65107 8.46582H6.41895V9.53855H7.65107V8.46582Z" fill="#E3E193"/>
<path d="M8.88202 8.46582H7.6499V9.53855H8.88202V8.46582Z" fill="#E3E193"/>
<path d="M10.114 8.46582H8.88184V9.53855H10.114V8.46582Z" fill="#E3E193"/>
<path d="M11.3449 8.46582H10.1128V9.53855H11.3449V8.46582Z" fill="#E3E193"/>
<path d="M12.5773 8.46582H11.3452V9.53855H12.5773V8.46582Z" fill="#140A33"/>
<path d="M13.8083 8.46582H12.5762V9.53855H13.8083V8.46582Z" fill="#9364BC"/>
<path d="M15.0402 8.46582H13.8081V9.53855H15.0402V8.46582Z" fill="#9364BC"/>
<path d="M16.2712 8.46582H15.0391V9.53855H16.2712V8.46582Z" fill="#9364BC"/>
<path d="M17.5036 8.46582H16.2715V9.53855H17.5036V8.46582Z" fill="#9364BC"/>
<path d="M18.7346 8.46582H17.5024V9.53855H18.7346V8.46582Z" fill="#6B3E9B"/>
<path d="M19.9665 8.46582H18.7344V9.53855H19.9665V8.46582Z" fill="#6B3E9B"/>
<path d="M21.1975 8.46582H19.9653V9.53855H21.1975V8.46582Z" fill="#6B3E9B"/>
<path d="M22.4299 8.46582H21.1978V9.53855H22.4299V8.46582Z" fill="#6B3E9B"/>
<path d="M23.6603 8.46582H22.4282V9.53855H23.6603V8.46582Z" fill="#6B3E9B"/>
<path d="M24.8928 8.46582H23.6606V9.53855H24.8928V8.46582Z" fill="#6B3E9B"/>
<path d="M26.1237 8.46582H24.8916V9.53855H26.1237V8.46582Z" fill="#6B3E9B"/>
<path d="M35.9768 8.46582H34.7446V9.53855H35.9768V8.46582Z" fill="#140A33"/>
<path d="M3.95576 9.53809H2.72363V10.6108H3.95576V9.53809Z" fill="#140A33"/>
<path d="M6.41865 9.53809H5.18652V10.6108H6.41865V9.53809Z" fill="#140A33"/>
<path d="M7.65107 9.53809H6.41895V10.6108H7.65107V9.53809Z" fill="#E3E193"/>
<path d="M8.88202 9.53809H7.6499V10.6108H8.88202V9.53809Z" fill="#E3E193"/>
<path d="M10.114 9.53809H8.88184V10.6108H10.114V9.53809Z" fill="#E3E193"/>
<path d="M11.3449 9.53809H10.1128V10.6108H11.3449V9.53809Z" fill="#E3E193"/>
<path d="M12.5773 9.53809H11.3452V10.6108H12.5773V9.53809Z" fill="#140A33"/>
<path d="M13.8083 9.53809H12.5762V10.6108H13.8083V9.53809Z" fill="#9364BC"/>
<path d="M15.0402 9.53809H13.8081V10.6108H15.0402V9.53809Z" fill="#9364BC"/>
<path d="M16.2712 9.53809H15.0391V10.6108H16.2712V9.53809Z" fill="#9364BC"/>
<path d="M17.5036 9.53809H16.2715V10.6108H17.5036V9.53809Z" fill="#9364BC"/>
<path d="M18.7346 9.53809H17.5024V10.6108H18.7346V9.53809Z" fill="#9364BC"/>
<path d="M19.9665 9.53809H18.7344V10.6108H19.9665V9.53809Z" fill="#9364BC"/>
<path d="M21.1975 9.53809H19.9653V10.6108H21.1975V9.53809Z" fill="#9364BC"/>
<path d="M22.4299 9.53809H21.1978V10.6108H22.4299V9.53809Z" fill="#6B3E9B"/>
<path d="M23.6603 9.53809H22.4282V10.6108H23.6603V9.53809Z" fill="#6B3E9B"/>
<path d="M24.8928 9.53809H23.6606V10.6108H24.8928V9.53809Z" fill="#6B3E9B"/>
<path d="M26.1237 9.53809H24.8916V10.6108H26.1237V9.53809Z" fill="#6B3E9B"/>
<path d="M35.9768 9.53809H34.7446V10.6108H35.9768V9.53809Z" fill="#140A33"/>
<path d="M3.95576 10.6104H2.72363V11.6831H3.95576V10.6104Z" fill="#140A33"/>
<path d="M6.41865 10.6104H5.18652V11.6831H6.41865V10.6104Z" fill="#140A33"/>
<path d="M7.65107 10.6104H6.41895V11.6831H7.65107V10.6104Z" fill="#E3E193"/>
<path d="M8.88202 10.6104H7.6499V11.6831H8.88202V10.6104Z" fill="#E3E193"/>
<path d="M10.114 10.6104H8.88184V11.6831H10.114V10.6104Z" fill="#E3E193"/>
<path d="M11.3449 10.6104H10.1128V11.6831H11.3449V10.6104Z" fill="#E3E193"/>
<path d="M12.5773 10.6104H11.3452V11.6831H12.5773V10.6104Z" fill="#140A33"/>
<path d="M13.8083 10.6104H12.5762V11.6831H13.8083V10.6104Z" fill="#140A33"/>
<path d="M15.0402 10.6104H13.8081V11.6831H15.0402V10.6104Z" fill="#140A33"/>
<path d="M16.2712 10.6104H15.0391V11.6831H16.2712V10.6104Z" fill="#140A33"/>
<path d="M17.5036 10.6104H16.2715V11.6831H17.5036V10.6104Z" fill="#140A33"/>
<path d="M18.7346 10.6104H17.5024V11.6831H18.7346V10.6104Z" fill="#140A33"/>
<path d="M19.9665 10.6104H18.7344V11.6831H19.9665V10.6104Z" fill="#140A33"/>
<path d="M21.1975 10.6104H19.9653V11.6831H21.1975V10.6104Z" fill="#140A33"/>
<path d="M22.4299 10.6104H21.1978V11.6831H22.4299V10.6104Z" fill="#140A33"/>
<path d="M23.6603 10.6104H22.4282V11.6831H23.6603V10.6104Z" fill="#140A33"/>
<path d="M24.8928 10.6104H23.6606V11.6831H24.8928V10.6104Z" fill="#140A33"/>
<path d="M26.1237 10.6104H24.8916V11.6831H26.1237V10.6104Z" fill="#140A33"/>
<path d="M35.9768 10.6104H34.7446V11.6831H35.9768V10.6104Z" fill="#140A33"/>
<path d="M3.95576 11.6826H2.72363V12.7553H3.95576V11.6826Z" fill="#140A33"/>
<path d="M6.41865 11.6826H5.18652V12.7553H6.41865V11.6826Z" fill="#140A33"/>
<path d="M7.65107 11.6826H6.41895V12.7553H7.65107V11.6826Z" fill="#E3E193"/>
<path d="M8.88202 11.6826H7.6499V12.7553H8.88202V11.6826Z" fill="#E3E193"/>
<path d="M10.114 11.6826H8.88184V12.7553H10.114V11.6826Z" fill="#E3E193"/>
<path d="M11.3449 11.6826H10.1128V12.7553H11.3449V11.6826Z" fill="#E3E193"/>
<path d="M12.5773 11.6826H11.3452V12.7553H12.5773V11.6826Z" fill="#140A33"/>
<path d="M13.8083 11.6826H12.5762V12.7553H13.8083V11.6826Z" fill="#9364BC"/>
<path d="M15.0402 11.6826H13.8081V12.7553H15.0402V11.6826Z" fill="#9364BC"/>
<path d="M16.2712 11.6826H15.0391V12.7553H16.2712V11.6826Z" fill="#9364BC"/>
<path d="M17.5036 11.6826H16.2715V12.7553H17.5036V11.6826Z" fill="#6B3E9B"/>
<path d="M18.7346 11.6826H17.5024V12.7553H18.7346V11.6826Z" fill="#6B3E9B"/>
<path d="M19.9665 11.6826H18.7344V12.7553H19.9665V11.6826Z" fill="#6B3E9B"/>
<path d="M21.1975 11.6826H19.9653V12.7553H21.1975V11.6826Z" fill="#6B3E9B"/>
<path d="M22.4299 11.6826H21.1978V12.7553H22.4299V11.6826Z" fill="#6B3E9B"/>
<path d="M23.6603 11.6826H22.4282V12.7553H23.6603V11.6826Z" fill="#6B3E9B"/>
<path d="M24.8928 11.6826H23.6606V12.7553H24.8928V11.6826Z" fill="#6B3E9B"/>
<path d="M26.1237 11.6826H24.8916V12.7553H26.1237V11.6826Z" fill="#6B3E9B"/>
<path d="M35.9768 11.6826H34.7446V12.7553H35.9768V11.6826Z" fill="#140A33"/>
<path d="M3.95576 12.7549H2.72363V13.8276H3.95576V12.7549Z" fill="#140A33"/>
<path d="M6.41865 12.7549H5.18652V13.8276H6.41865V12.7549Z" fill="#140A33"/>
<path d="M7.65107 12.7549H6.41895V13.8276H7.65107V12.7549Z" fill="#B8CE5B"/>
<path d="M8.88202 12.7549H7.6499V13.8276H8.88202V12.7549Z" fill="#E3E193"/>
<path d="M10.114 12.7549H8.88184V13.8276H10.114V12.7549Z" fill="#B8CE5B"/>
<path d="M11.3449 12.7549H10.1128V13.8276H11.3449V12.7549Z" fill="#E3E193"/>
<path d="M12.5773 12.7549H11.3452V13.8276H12.5773V12.7549Z" fill="#140A33"/>
<path d="M13.8083 12.7549H12.5762V13.8276H13.8083V12.7549Z" fill="#6B3E9B"/>
<path d="M15.0402 12.7549H13.8081V13.8276H15.0402V12.7549Z" fill="#6B3E9B"/>
<path d="M16.2712 12.7549H15.0391V13.8276H16.2712V12.7549Z" fill="#6B3E9B"/>
<path d="M17.5036 12.7549H16.2715V13.8276H17.5036V12.7549Z" fill="#6B3E9B"/>
<path d="M18.7346 12.7549H17.5024V13.8276H18.7346V12.7549Z" fill="#F8F8F9"/>
<path d="M19.9665 12.7549H18.7344V13.8276H19.9665V12.7549Z" fill="#F8F8F9"/>
<path d="M21.1975 12.7549H19.9653V13.8276H21.1975V12.7549Z" fill="#F8F8F9"/>
<path d="M22.4299 12.7549H21.1978V13.8276H22.4299V12.7549Z" fill="#6B3E9B"/>
<path d="M23.6603 12.7549H22.4282V13.8276H23.6603V12.7549Z" fill="#6B3E9B"/>
<path d="M24.8928 12.7549H23.6606V13.8276H24.8928V12.7549Z" fill="#6B3E9B"/>
<path d="M26.1237 12.7549H24.8916V13.8276H26.1237V12.7549Z" fill="#6B3E9B"/>
<path d="M35.9768 12.7549H34.7446V13.8276H35.9768V12.7549Z" fill="#140A33"/>
<path d="M3.95576 13.8271H2.72363V14.8999H3.95576V13.8271Z" fill="#140A33"/>
<path d="M6.41865 13.8271H5.18652V14.8999H6.41865V13.8271Z" fill="#140A33"/>
<path d="M7.65107 13.8271H6.41895V14.8999H7.65107V13.8271Z" fill="#B8CE5B"/>
<path d="M8.88202 13.8271H7.6499V14.8999H8.88202V13.8271Z" fill="#B8CE5B"/>
<path d="M10.114 13.8271H8.88184V14.8999H10.114V13.8271Z" fill="#B8CE5B"/>
<path d="M11.3449 13.8271H10.1128V14.8999H11.3449V13.8271Z" fill="#E3E193"/>
<path d="M12.5773 13.8271H11.3452V14.8999H12.5773V13.8271Z" fill="#140A33"/>
<path d="M13.8083 13.8271H12.5762V14.8999H13.8083V13.8271Z" fill="#6B3E9B"/>
<path d="M15.0402 13.8271H13.8081V14.8999H15.0402V13.8271Z" fill="#6B3E9B"/>
<path d="M16.2712 13.8271H15.0391V14.8999H16.2712V13.8271Z" fill="#6B3E9B"/>
<path d="M17.5036 13.8271H16.2715V14.8999H17.5036V13.8271Z" fill="#F8F8F9"/>
<path d="M18.7346 13.8271H17.5024V14.8999H18.7346V13.8271Z" fill="#421D72"/>
<path d="M19.9665 13.8271H18.7344V14.8999H19.9665V13.8271Z" fill="#421D72"/>
<path d="M21.1975 13.8271H19.9653V14.8999H21.1975V13.8271Z" fill="#421D72"/>
<path d="M22.4299 13.8271H21.1978V14.8999H22.4299V13.8271Z" fill="#F8F8F9"/>
<path d="M23.6603 13.8271H22.4282V14.8999H23.6603V13.8271Z" fill="#6B3E9B"/>
<path d="M24.8928 13.8271H23.6606V14.8999H24.8928V13.8271Z" fill="#6B3E9B"/>
<path d="M26.1237 13.8271H24.8916V14.8999H26.1237V13.8271Z" fill="#6B3E9B"/>
<path d="M35.9768 13.8271H34.7446V14.8999H35.9768V13.8271Z" fill="#140A33"/>
<path d="M3.95576 14.8984H2.72363V15.9712H3.95576V14.8984Z" fill="#140A33"/>
<path d="M6.41865 14.8984H5.18652V15.9712H6.41865V14.8984Z" fill="#140A33"/>
<path d="M7.65107 14.8984H6.41895V15.9712H7.65107V14.8984Z" fill="#B8CE5B"/>
<path d="M8.88202 14.8984H7.6499V15.9712H8.88202V14.8984Z" fill="#B8CE5B"/>
<path d="M10.114 14.8984H8.88184V15.9712H10.114V14.8984Z" fill="#B8CE5B"/>
<path d="M11.3449 14.8984H10.1128V15.9712H11.3449V14.8984Z" fill="#B8CE5B"/>
<path d="M12.5773 14.8984H11.3452V15.9712H12.5773V14.8984Z" fill="#140A33"/>
<path d="M13.8083 14.8984H12.5762V15.9712H13.8083V14.8984Z" fill="#6B3E9B"/>
<path d="M15.0402 14.8984H13.8081V15.9712H15.0402V14.8984Z" fill="#421D72"/>
<path d="M16.2712 14.8984H15.0391V15.9712H16.2712V14.8984Z" fill="#9B9DAA"/>
<path d="M17.5036 14.8984H16.2715V15.9712H17.5036V14.8984Z" fill="#F8F8F9"/>
<path d="M18.7346 14.8984H17.5024V15.9712H18.7346V14.8984Z" fill="#9B9DAA"/>
<path d="M19.9665 14.8984H18.7344V15.9712H19.9665V14.8984Z" fill="#9B9DAA"/>
<path d="M21.1975 14.8984H19.9653V15.9712H21.1975V14.8984Z" fill="#9B9DAA"/>
<path d="M22.4299 14.8984H21.1978V15.9712H22.4299V14.8984Z" fill="#F8F8F9"/>
<path d="M23.6603 14.8984H22.4282V15.9712H23.6603V14.8984Z" fill="#9B9DAA"/>
<path d="M24.8928 14.8984H23.6606V15.9712H24.8928V14.8984Z" fill="#6B3E9B"/>
<path d="M26.1237 14.8984H24.8916V15.9712H26.1237V14.8984Z" fill="#421D72"/>
<path d="M35.9768 14.8984H34.7446V15.9712H35.9768V14.8984Z" fill="#140A33"/>
<path d="M3.95576 15.9717H2.72363V17.0444H3.95576V15.9717Z" fill="#140A33"/>
<path d="M6.41865 15.9717H5.18652V17.0444H6.41865V15.9717Z" fill="#140A33"/>
<path d="M7.65107 15.9717H6.41895V17.0444H7.65107V15.9717Z" fill="#B8CE5B"/>
<path d="M8.88202 15.9717H7.6499V17.0444H8.88202V15.9717Z" fill="#B8CE5B"/>
<path d="M10.114 15.9717H8.88184V17.0444H10.114V15.9717Z" fill="#94BF37"/>
<path d="M11.3449 15.9717H10.1128V17.0444H11.3449V15.9717Z" fill="#B8CE5B"/>
<path d="M12.5773 15.9717H11.3452V17.0444H12.5773V15.9717Z" fill="#140A33"/>
<path d="M13.8083 15.9717H12.5762V17.0444H13.8083V15.9717Z" fill="#421D72"/>
<path d="M15.0402 15.9717H13.8081V17.0444H15.0402V15.9717Z" fill="#421D72"/>
<path d="M16.2712 15.9717H15.0391V17.0444H16.2712V15.9717Z" fill="#9B9DAA"/>
<path d="M17.5036 15.9717H16.2715V17.0444H17.5036V15.9717Z" fill="black"/>
<path d="M18.7346 15.9717H17.5024V17.0444H18.7346V15.9717Z" fill="#9B9DAA"/>
<path d="M19.9665 15.9717H18.7344V17.0444H19.9665V15.9717Z" fill="#9B9DAA"/>
<path d="M21.1975 15.9717H19.9653V17.0444H21.1975V15.9717Z" fill="#9B9DAA"/>
<path d="M22.4299 15.9717H21.1978V17.0444H22.4299V15.9717Z" fill="black"/>
<path d="M23.6603 15.9717H22.4282V17.0444H23.6603V15.9717Z" fill="#9B9DAA"/>
<path d="M24.8928 15.9717H23.6606V17.0444H24.8928V15.9717Z" fill="#421D72"/>
<path d="M26.1237 15.9717H24.8916V17.0444H26.1237V15.9717Z" fill="#421D72"/>
<path d="M35.9768 15.9717H34.7446V17.0444H35.9768V15.9717Z" fill="#140A33"/>
<path d="M3.95576 17.043H2.72363V18.1157H3.95576V17.043Z" fill="#140A33"/>
<path d="M6.41865 17.043H5.18652V18.1157H6.41865V17.043Z" fill="#140A33"/>
<path d="M7.65107 17.043H6.41895V18.1157H7.65107V17.043Z" fill="#B8CE5B"/>
<path d="M8.88202 17.043H7.6499V18.1157H8.88202V17.043Z" fill="#94BF37"/>
<path d="M10.114 17.043H8.88184V18.1157H10.114V17.043Z" fill="#94BF37"/>
<path d="M11.3449 17.043H10.1128V18.1157H11.3449V17.043Z" fill="#B8CE5B"/>
<path d="M12.5773 17.043H11.3452V18.1157H12.5773V17.043Z" fill="#140A33"/>
<path d="M28.5866 3.10449H27.3545V4.17722H28.5866V3.10449Z" fill="#94BF37"/>
<path d="M29.819 3.10449H28.5869V4.17722H29.819V3.10449Z" fill="#94BF37"/>
<path d="M31.0495 3.10449H29.8174V4.17722H31.0495V3.10449Z" fill="#94BF37"/>
<path d="M32.2819 3.10449H31.0498V4.17722H32.2819V3.10449Z" fill="#94BF37"/>
<path d="M27.3557 4.17676H26.1235V5.24948H27.3557V4.17676Z" fill="#140A33"/>
<path d="M27.3557 3.10449H26.1235V4.17722H27.3557V3.10449Z" fill="#140A33"/>
<path d="M28.5866 2.03223H27.3545V3.10495H28.5866V2.03223Z" fill="#140A33"/>
<path d="M29.819 2.03223H28.5869V3.10495H29.819V2.03223Z" fill="#140A33"/>
<path d="M31.0495 2.03223H29.8174V3.10495H31.0495V2.03223Z" fill="#140A33"/>
<path d="M32.2819 2.03223H31.0498V3.10495H32.2819V2.03223Z" fill="#140A33"/>
<path d="M33.5129 3.10449H32.2808V4.17722H33.5129V3.10449Z" fill="#140A33"/>
<path d="M28.5866 4.17676H27.3545V5.24948H28.5866V4.17676Z" fill="#B8CE5B"/>
<path d="M29.819 4.17676H28.5869V5.24948H29.819V4.17676Z" fill="#94BF37"/>
<path d="M31.0495 4.17676H29.8174V5.24948H31.0495V4.17676Z" fill="#94BF37"/>
<path d="M32.2819 4.17676H31.0498V5.24948H32.2819V4.17676Z" fill="#B8CE5B"/>
<path d="M33.5129 4.17676H32.2808V5.24948H33.5129V4.17676Z" fill="#140A33"/>
<path d="M27.3557 5.24902H26.1235V6.32175H27.3557V5.24902Z" fill="#140A33"/>
<path d="M28.5866 5.24902H27.3545V6.32175H28.5866V5.24902Z" fill="#B8CE5B"/>
<path d="M29.819 5.24902H28.5869V6.32175H29.819V5.24902Z" fill="#B8CE5B"/>
<path d="M31.0495 5.24902H29.8174V6.32175H31.0495V5.24902Z" fill="#B8CE5B"/>
<path d="M32.2819 5.24902H31.0498V6.32175H32.2819V5.24902Z" fill="#B8CE5B"/>
<path d="M33.5129 5.24902H32.2808V6.32175H33.5129V5.24902Z" fill="#140A33"/>
<path d="M27.3557 6.32129H26.1235V7.39402H27.3557V6.32129Z" fill="#140A33"/>
<path d="M28.5866 6.32129H27.3545V7.39402H28.5866V6.32129Z" fill="#E3E193"/>
<path d="M29.819 6.32129H28.5869V7.39402H29.819V6.32129Z" fill="#B8CE5B"/>
<path d="M31.0495 6.32129H29.8174V7.39402H31.0495V6.32129Z" fill="#B8CE5B"/>
<path d="M32.2819 6.32129H31.0498V7.39402H32.2819V6.32129Z" fill="#B8CE5B"/>
<path d="M33.5129 6.32129H32.2808V7.39402H33.5129V6.32129Z" fill="#140A33"/>
<path d="M27.3557 7.39355H26.1235V8.46628H27.3557V7.39355Z" fill="#140A33"/>
<path d="M28.5866 7.39355H27.3545V8.46628H28.5866V7.39355Z" fill="#E3E193"/>
<path d="M29.819 7.39355H28.5869V8.46628H29.819V7.39355Z" fill="#B8CE5B"/>
<path d="M31.0495 7.39355H29.8174V8.46628H31.0495V7.39355Z" fill="#E3E193"/>
<path d="M32.2819 7.39355H31.0498V8.46628H32.2819V7.39355Z" fill="#B8CE5B"/>
<path d="M33.5129 7.39355H32.2808V8.46628H33.5129V7.39355Z" fill="#140A33"/>
<path d="M27.3557 8.46582H26.1235V9.53855H27.3557V8.46582Z" fill="#140A33"/>
<path d="M28.5866 8.46582H27.3545V9.53855H28.5866V8.46582Z" fill="#E3E193"/>
<path d="M29.819 8.46582H28.5869V9.53855H29.819V8.46582Z" fill="#E3E193"/>
<path d="M31.0495 8.46582H29.8174V9.53855H31.0495V8.46582Z" fill="#E3E193"/>
<path d="M32.2819 8.46582H31.0498V9.53855H32.2819V8.46582Z" fill="#E3E193"/>
<path d="M33.5129 8.46582H32.2808V9.53855H33.5129V8.46582Z" fill="#140A33"/>
<path d="M27.3557 9.53809H26.1235V10.6108H27.3557V9.53809Z" fill="#140A33"/>
<path d="M28.5866 9.53809H27.3545V10.6108H28.5866V9.53809Z" fill="#E3E193"/>
<path d="M29.819 9.53809H28.5869V10.6108H29.819V9.53809Z" fill="#E3E193"/>
<path d="M31.0495 9.53809H29.8174V10.6108H31.0495V9.53809Z" fill="#E3E193"/>
<path d="M32.2819 9.53809H31.0498V10.6108H32.2819V9.53809Z" fill="#E3E193"/>
<path d="M33.5129 9.53809H32.2808V10.6108H33.5129V9.53809Z" fill="#140A33"/>
<path d="M27.3557 10.6104H26.1235V11.6831H27.3557V10.6104Z" fill="#140A33"/>
<path d="M28.5866 10.6104H27.3545V11.6831H28.5866V10.6104Z" fill="#E3E193"/>
<path d="M29.819 10.6104H28.5869V11.6831H29.819V10.6104Z" fill="#E3E193"/>
<path d="M31.0495 10.6104H29.8174V11.6831H31.0495V10.6104Z" fill="#E3E193"/>
<path d="M32.2819 10.6104H31.0498V11.6831H32.2819V10.6104Z" fill="#E3E193"/>
<path d="M33.5129 10.6104H32.2808V11.6831H33.5129V10.6104Z" fill="#140A33"/>
<path d="M27.3557 11.6826H26.1235V12.7553H27.3557V11.6826Z" fill="#140A33"/>
<path d="M28.5866 11.6826H27.3545V12.7553H28.5866V11.6826Z" fill="#E3E193"/>
<path d="M29.819 11.6826H28.5869V12.7553H29.819V11.6826Z" fill="#E3E193"/>
<path d="M31.0495 11.6826H29.8174V12.7553H31.0495V11.6826Z" fill="#E3E193"/>
<path d="M32.2819 11.6826H31.0498V12.7553H32.2819V11.6826Z" fill="#E3E193"/>
<path d="M33.5129 11.6826H32.2808V12.7553H33.5129V11.6826Z" fill="#140A33"/>
<path d="M27.3557 12.7549H26.1235V13.8276H27.3557V12.7549Z" fill="#140A33"/>
<path d="M28.5866 12.7549H27.3545V13.8276H28.5866V12.7549Z" fill="#B8CE5B"/>
<path d="M29.819 12.7549H28.5869V13.8276H29.819V12.7549Z" fill="#E3E193"/>
<path d="M31.0495 12.7549H29.8174V13.8276H31.0495V12.7549Z" fill="#B8CE5B"/>
<path d="M32.2819 12.7549H31.0498V13.8276H32.2819V12.7549Z" fill="#E3E193"/>
<path d="M33.5129 12.7549H32.2808V13.8276H33.5129V12.7549Z" fill="#140A33"/>
<path d="M27.3557 13.8271H26.1235V14.8999H27.3557V13.8271Z" fill="#140A33"/>
<path d="M28.5866 13.8271H27.3545V14.8999H28.5866V13.8271Z" fill="#B8CE5B"/>
<path d="M29.819 13.8271H28.5869V14.8999H29.819V13.8271Z" fill="#B8CE5B"/>
<path d="M31.0495 13.8271H29.8174V14.8999H31.0495V13.8271Z" fill="#B8CE5B"/>
<path d="M32.2819 13.8271H31.0498V14.8999H32.2819V13.8271Z" fill="#E3E193"/>
<path d="M33.5129 13.8271H32.2808V14.8999H33.5129V13.8271Z" fill="#140A33"/>
<path d="M27.3557 14.8984H26.1235V15.9712H27.3557V14.8984Z" fill="#140A33"/>
<path d="M28.5866 14.8984H27.3545V15.9712H28.5866V14.8984Z" fill="#B8CE5B"/>
<path d="M29.819 14.8984H28.5869V15.9712H29.819V14.8984Z" fill="#B8CE5B"/>
<path d="M31.0495 14.8984H29.8174V15.9712H31.0495V14.8984Z" fill="#B8CE5B"/>
<path d="M32.2819 14.8984H31.0498V15.9712H32.2819V14.8984Z" fill="#B8CE5B"/>
<path d="M33.5129 14.8984H32.2808V15.9712H33.5129V14.8984Z" fill="#140A33"/>
<path d="M27.3557 15.9717H26.1235V17.0444H27.3557V15.9717Z" fill="#140A33"/>
<path d="M28.5866 15.9717H27.3545V17.0444H28.5866V15.9717Z" fill="#B8CE5B"/>
<path d="M29.819 15.9717H28.5869V17.0444H29.819V15.9717Z" fill="#B8CE5B"/>
<path d="M31.0495 15.9717H29.8174V17.0444H31.0495V15.9717Z" fill="#94BF37"/>
<path d="M32.2819 15.9717H31.0498V17.0444H32.2819V15.9717Z" fill="#B8CE5B"/>
<path d="M33.5129 15.9717H32.2808V17.0444H33.5129V15.9717Z" fill="#140A33"/>
<path d="M27.3557 17.043H26.1235V18.1157H27.3557V17.043Z" fill="#140A33"/>
<path d="M28.5866 17.043H27.3545V18.1157H28.5866V17.043Z" fill="#B8CE5B"/>
<path d="M29.819 17.043H28.5869V18.1157H29.819V17.043Z" fill="#94BF37"/>
<path d="M31.0495 17.043H29.8174V18.1157H31.0495V17.043Z" fill="#94BF37"/>
<path d="M32.2819 17.043H31.0498V18.1157H32.2819V17.043Z" fill="#B8CE5B"/>
<path d="M33.5129 17.043H32.2808V18.1157H33.5129V17.043Z" fill="#140A33"/>
<path d="M13.8083 17.043H12.5762V18.1157H13.8083V17.043Z" fill="#421D72"/>
<path d="M15.0402 17.043H13.8081V18.1157H15.0402V17.043Z" fill="#421D72"/>
<path d="M16.2712 17.043H15.0391V18.1157H16.2712V17.043Z" fill="#F8F8F9"/>
<path d="M17.5036 17.043H16.2715V18.1157H17.5036V17.043Z" fill="#F8F8F9"/>
<path d="M18.7346 17.043H17.5024V18.1157H18.7346V17.043Z" fill="#F8F8F9"/>
<path d="M19.9665 17.043H18.7344V18.1157H19.9665V17.043Z" fill="#F8F8F9"/>
<path d="M21.1975 17.043H19.9653V18.1157H21.1975V17.043Z" fill="#F8F8F9"/>
<path d="M22.4299 17.043H21.1978V18.1157H22.4299V17.043Z" fill="#9B9DAA"/>
<path d="M23.6603 17.043H22.4282V18.1157H23.6603V17.043Z" fill="#9B9DAA"/>
<path d="M24.8928 17.043H23.6606V18.1157H24.8928V17.043Z" fill="#421D72"/>
<path d="M26.1237 17.043H24.8916V18.1157H26.1237V17.043Z" fill="#421D72"/>
<path d="M35.9768 17.043H34.7446V18.1157H35.9768V17.043Z" fill="#140A33"/>
<path d="M16.2712 18.1162H15.0391V19.1889H16.2712V18.1162Z" fill="#9B9DAA"/>
<path d="M17.5036 18.1162H16.2715V19.1889H17.5036V18.1162Z" fill="#9B9DAA"/>
<path d="M18.7346 18.1162H17.5024V19.1889H18.7346V18.1162Z" fill="#9B9DAA"/>
<path d="M19.9665 18.1162H18.7344V19.1889H19.9665V18.1162Z" fill="#9B9DAA"/>
<path d="M21.1975 18.1162H19.9653V19.1889H21.1975V18.1162Z" fill="#9B9DAA"/>
<path d="M22.4299 18.1162H21.1978V19.1889H22.4299V18.1162Z" fill="#9B9DAA"/>
<path d="M23.6603 18.1162H22.4282V19.1889H23.6603V18.1162Z" fill="#6A6C7B"/>
<path d="M24.8928 18.1162H23.6606V19.1889H24.8928V18.1162Z" fill="#140A33"/>
<path d="M26.1237 18.1162H24.8916V19.1889H26.1237V18.1162Z" fill="#140A33"/>
<path d="M27.3557 18.1162H26.1235V19.1889H27.3557V18.1162Z" fill="#140A33"/>
<path d="M28.5866 18.1162H27.3545V19.1889H28.5866V18.1162Z" fill="#140A33"/>
<path d="M29.819 18.1162H28.5869V19.1889H29.819V18.1162Z" fill="#140A33"/>
<path d="M31.0495 18.1162H29.8174V19.1889H31.0495V18.1162Z" fill="#140A33"/>
<path d="M32.2819 18.1162H31.0498V19.1889H32.2819V18.1162Z" fill="#140A33"/>
<path d="M33.5129 18.1162H32.2808V19.1889H33.5129V18.1162Z" fill="#140A33"/>
<path d="M35.9768 18.1162H34.7446V19.1889H35.9768V18.1162Z" fill="#140A33"/>
<path d="M16.2712 19.1875H15.0391V20.2602H16.2712V19.1875Z" fill="#9B9DAA"/>
<path d="M17.5036 19.1875H16.2715V20.2602H17.5036V19.1875Z" fill="#9B9DAA"/>
<path d="M18.7346 19.1875H17.5024V20.2602H18.7346V19.1875Z" fill="#9B9DAA"/>
<path d="M19.9665 19.1875H18.7344V20.2602H19.9665V19.1875Z" fill="black"/>
<path d="M21.1975 19.1875H19.9653V20.2602H21.1975V19.1875Z" fill="#9B9DAA"/>
<path d="M22.4299 19.1875H21.1978V20.2602H22.4299V19.1875Z" fill="#9B9DAA"/>
<path d="M23.6603 19.1875H22.4282V20.2602H23.6603V19.1875Z" fill="#6A6C7B"/>
<path d="M24.8928 19.1875H23.6606V20.2602H24.8928V19.1875Z" fill="#9364BC"/>
<path d="M26.1237 19.1875H24.8916V20.2602H26.1237V19.1875Z" fill="#9364BC"/>
<path d="M27.3557 19.1875H26.1235V20.2602H27.3557V19.1875Z" fill="#9364BC"/>
<path d="M28.5866 19.1875H27.3545V20.2602H28.5866V19.1875Z" fill="#9364BC"/>
<path d="M29.819 19.1875H28.5869V20.2602H29.819V19.1875Z" fill="#9364BC"/>
<path d="M31.0495 19.1875H29.8174V20.2602H31.0495V19.1875Z" fill="#9364BC"/>
<path d="M32.2819 19.1875H31.0498V20.2602H32.2819V19.1875Z" fill="#9364BC"/>
<path d="M33.5129 19.1875H32.2808V20.2602H33.5129V19.1875Z" fill="#9364BC"/>
<path d="M35.9768 19.1875H34.7446V20.2602H35.9768V19.1875Z" fill="#140A33"/>
<path d="M5.18769 4.17676H3.95557V5.24948H5.18769V4.17676Z" fill="#140A33"/>
<path d="M5.18769 5.24902H3.95557V6.32175H5.18769V5.24902Z" fill="#9364BC"/>
<path d="M5.18769 6.32129H3.95557V7.39402H5.18769V6.32129Z" fill="#6B3E9B"/>
<path d="M5.18769 7.39355H3.95557V8.46628H5.18769V7.39355Z" fill="#6B3E9B"/>
<path d="M5.18769 8.46582H3.95557V9.53855H5.18769V8.46582Z" fill="#9364BC"/>
<path d="M5.18769 9.53809H3.95557V10.6108H5.18769V9.53809Z" fill="#9364BC"/>
<path d="M5.18769 10.6104H3.95557V11.6831H5.18769V10.6104Z" fill="#140A33"/>
<path d="M5.18769 11.6826H3.95557V12.7553H5.18769V11.6826Z" fill="#9364BC"/>
<path d="M5.18769 12.7549H3.95557V13.8276H5.18769V12.7549Z" fill="#6B3E9B"/>
<path d="M5.18769 13.8271H3.95557V14.8999H5.18769V13.8271Z" fill="#6B3E9B"/>
<path d="M5.18769 14.8984H3.95557V15.9712H5.18769V14.8984Z" fill="#6B3E9B"/>
<path d="M5.18769 15.9717H3.95557V17.0444H5.18769V15.9717Z" fill="#421D72"/>
<path d="M5.18769 17.043H3.95557V18.1157H5.18769V17.043Z" fill="#421D72"/>
<path d="M16.2712 20.2607H15.0391V21.3335H16.2712V20.2607Z" fill="#9B9DAA"/>
<path d="M17.5036 20.2607H16.2715V21.3335H17.5036V20.2607Z" fill="#9B9DAA"/>
<path d="M18.7346 20.2607H17.5024V21.3335H18.7346V20.2607Z" fill="#9B9DAA"/>
<path d="M19.9665 20.2607H18.7344V21.3335H19.9665V20.2607Z" fill="black"/>
<path d="M21.1975 20.2607H19.9653V21.3335H21.1975V20.2607Z" fill="#9B9DAA"/>
<path d="M22.4299 20.2607H21.1978V21.3335H22.4299V20.2607Z" fill="#6A6C7B"/>
<path d="M23.6603 20.2607H22.4282V21.3335H23.6603V20.2607Z" fill="#6A6C7B"/>
<path d="M24.8928 20.2607H23.6606V21.3335H24.8928V20.2607Z" fill="#6B3E9B"/>
<path d="M26.1237 20.2607H24.8916V21.3335H26.1237V20.2607Z" fill="#6B3E9B"/>
<path d="M27.3557 20.2607H26.1235V21.3335H27.3557V20.2607Z" fill="#6B3E9B"/>
<path d="M28.5866 20.2607H27.3545V21.3335H28.5866V20.2607Z" fill="#6B3E9B"/>
<path d="M29.819 20.2607H28.5869V21.3335H29.819V20.2607Z" fill="#6B3E9B"/>
<path d="M31.0495 20.2607H29.8174V21.3335H31.0495V20.2607Z" fill="#6B3E9B"/>
<path d="M32.2819 20.2607H31.0498V21.3335H32.2819V20.2607Z" fill="#6B3E9B"/>
<path d="M33.5129 20.2607H32.2808V21.3335H33.5129V20.2607Z" fill="#6B3E9B"/>
<path d="M34.7448 4.17676H33.5127V5.24948H34.7448V4.17676Z" fill="#140A33"/>
<path d="M34.7448 5.24902H33.5127V6.32175H34.7448V5.24902Z" fill="#6B3E9B"/>
<path d="M34.7448 6.32129H33.5127V7.39402H34.7448V6.32129Z" fill="#9364BC"/>
<path d="M34.7448 7.39355H33.5127V8.46628H34.7448V7.39355Z" fill="#9364BC"/>
<path d="M34.7448 8.46582H33.5127V9.53855H34.7448V8.46582Z" fill="#6B3E9B"/>
<path d="M34.7448 9.53809H33.5127V10.6108H34.7448V9.53809Z" fill="#6B3E9B"/>
<path d="M34.7448 10.6104H33.5127V11.6831H34.7448V10.6104Z" fill="#140A33"/>
<path d="M34.7448 11.6826H33.5127V12.7553H34.7448V11.6826Z" fill="#6B3E9B"/>
<path d="M34.7448 12.7549H33.5127V13.8276H34.7448V12.7549Z" fill="#6B3E9B"/>
<path d="M34.7448 13.8271H33.5127V14.8999H34.7448V13.8271Z" fill="#6B3E9B"/>
<path d="M34.7448 14.8984H33.5127V15.9712H34.7448V14.8984Z" fill="#6B3E9B"/>
<path d="M34.7448 15.9717H33.5127V17.0444H34.7448V15.9717Z" fill="#6B3E9B"/>
<path d="M34.7448 17.043H33.5127V18.1157H34.7448V17.043Z" fill="#421D72"/>
<path d="M34.7448 18.1162H33.5127V19.1889H34.7448V18.1162Z" fill="#140A33"/>
<path d="M34.7448 19.1875H33.5127V20.2602H34.7448V19.1875Z" fill="#9364BC"/>
<path d="M34.7448 20.2607H33.5127V21.3335H34.7448V20.2607Z" fill="#6B3E9B"/>
<path d="M35.9768 20.2607H34.7446V21.3335H35.9768V20.2607Z" fill="#140A33"/>
<path d="M16.2712 21.332H15.0391V22.4048H16.2712V21.332Z" fill="#9B9DAA"/>
<path d="M17.5036 21.332H16.2715V22.4048H17.5036V21.332Z" fill="#9B9DAA"/>
<path d="M18.7346 21.332H17.5024V22.4048H18.7346V21.332Z" fill="#9B9DAA"/>
<path d="M19.9665 21.332H18.7344V22.4048H19.9665V21.332Z" fill="#F8F8F9"/>
<path d="M21.1975 21.332H19.9653V22.4048H21.1975V21.332Z" fill="#9B9DAA"/>
<path d="M22.4299 21.332H21.1978V22.4048H22.4299V21.332Z" fill="#6A6C7B"/>
<path d="M23.6603 21.332H22.4282V22.4048H23.6603V21.332Z" fill="#6A6C7B"/>
<path d="M24.8928 21.332H23.6606V22.4048H24.8928V21.332Z" fill="#140A33"/>
<path d="M26.1237 21.332H24.8916V22.4048H26.1237V21.332Z" fill="#140A33"/>
<path d="M27.3557 21.332H26.1235V22.4048H27.3557V21.332Z" fill="#140A33"/>
<path d="M28.5866 21.332H27.3545V22.4048H28.5866V21.332Z" fill="#140A33"/>
<path d="M29.819 21.332H28.5869V22.4048H29.819V21.332Z" fill="#140A33"/>
<path d="M31.0495 21.332H29.8174V22.4048H31.0495V21.332Z" fill="#140A33"/>
<path d="M32.2819 21.332H31.0498V22.4048H32.2819V21.332Z" fill="#140A33"/>
<path d="M33.5129 21.332H32.2808V22.4048H33.5129V21.332Z" fill="#140A33"/>
<path d="M34.7448 21.332H33.5127V22.4048H34.7448V21.332Z" fill="#140A33"/>
<path d="M16.2712 24.5498H15.0391V25.6225H16.2712V24.5498Z" fill="#421D72"/>
<path d="M17.5036 24.5498H16.2715V25.6225H17.5036V24.5498Z" fill="#6B3E9B"/>
<path d="M18.7346 24.5498H17.5024V25.6225H18.7346V24.5498Z" fill="#6B3E9B"/>
<path d="M19.9665 24.5498H18.7344V25.6225H19.9665V24.5498Z" fill="#6B3E9B"/>
<path d="M21.1975 24.5498H19.9653V25.6225H21.1975V24.5498Z" fill="#6B3E9B"/>
<path d="M22.4299 24.5498H21.1978V25.6225H22.4299V24.5498Z" fill="#421D72"/>
<path d="M23.6603 24.5498H22.4282V25.6225H23.6603V24.5498Z" fill="#421D72"/>
<path d="M24.8928 24.5498H23.6606V25.6225H24.8928V24.5498Z" fill="#421D72"/>
<path d="M26.1237 24.5498H24.8916V25.6225H26.1237V24.5498Z" fill="#421D72"/>
<path d="M27.3557 24.5498H26.1235V25.6225H27.3557V24.5498Z" fill="#140A33"/>
<path d="M28.5866 24.5498H27.3545V25.6225H28.5866V24.5498Z" fill="#421D72"/>
<path d="M29.819 24.5498H28.5869V25.6225H29.819V24.5498Z" fill="#421D72"/>
<path d="M31.0495 24.5498H29.8174V25.6225H31.0495V24.5498Z" fill="#421D72"/>
<path d="M32.2819 24.5498H31.0498V25.6225H32.2819V24.5498Z" fill="#6B3E9B"/>
<path d="M33.5129 24.5498H32.2808V25.6225H33.5129V24.5498Z" fill="#421D72"/>
<path d="M34.7448 24.5498H33.5127V25.6225H34.7448V24.5498Z" fill="#421D72"/>
<path d="M16.2712 25.6211H15.0391V26.6938H16.2712V25.6211Z" fill="#140A33"/>
<path d="M17.5036 25.6211H16.2715V26.6938H17.5036V25.6211Z" fill="#140A33"/>
<path d="M18.7346 25.6211H17.5024V26.6938H18.7346V25.6211Z" fill="#140A33"/>
<path d="M19.9665 25.6211H18.7344V26.6938H19.9665V25.6211Z" fill="#140A33"/>
<path d="M21.1975 25.6211H19.9653V26.6938H21.1975V25.6211Z" fill="#140A33"/>
<path d="M22.4299 25.6211H21.1978V26.6938H22.4299V25.6211Z" fill="#140A33"/>
<path d="M23.6603 25.6211H22.4282V26.6938H23.6603V25.6211Z" fill="#140A33"/>
<path d="M24.8928 25.6211H23.6606V26.6938H24.8928V25.6211Z" fill="#140A33"/>
<path d="M26.1237 25.6211H24.8916V26.6938H26.1237V25.6211Z" fill="#140A33"/>
<path d="M28.5866 25.6211H27.3545V26.6938H28.5866V25.6211Z" fill="#140A33"/>
<path d="M29.819 25.6211H28.5869V26.6938H29.819V25.6211Z" fill="#140A33"/>
<path d="M31.0495 25.6211H29.8174V26.6938H31.0495V25.6211Z" fill="#140A33"/>
<path d="M32.2819 25.6211H31.0498V26.6938H32.2819V25.6211Z" fill="#421D72"/>
<path d="M33.5129 25.6211H32.2808V26.6938H33.5129V25.6211Z" fill="#6B3E9B"/>
<path d="M34.7448 25.6211H33.5127V26.6938H34.7448V25.6211Z" fill="#421D72"/>
<path d="M31.0495 26.6934H29.8174V27.7661H31.0495V26.6934Z" fill="#140A33"/>
<path d="M32.2819 26.6934H31.0498V27.7661H32.2819V26.6934Z" fill="#421D72"/>
<path d="M33.5129 26.6934H32.2808V27.7661H33.5129V26.6934Z" fill="#6B3E9B"/>
<path d="M34.7448 26.6934H33.5127V27.7661H34.7448V26.6934Z" fill="#421D72"/>
<path d="M29.819 27.7656H28.5869V28.8384H29.819V27.7656Z" fill="#140A33"/>
<path d="M31.0495 27.7656H29.8174V28.8384H31.0495V27.7656Z" fill="#421D72"/>
<path d="M32.2819 27.7656H31.0498V28.8384H32.2819V27.7656Z" fill="#421D72"/>
<path d="M33.5129 27.7656H32.2808V28.8384H33.5129V27.7656Z" fill="#6B3E9B"/>
<path d="M34.7448 27.7656H33.5127V28.8384H34.7448V27.7656Z" fill="#421D72"/>
<path d="M29.819 28.8379H28.5869V29.9106H29.819V28.8379Z" fill="#140A33"/>
<path d="M31.0495 28.8379H29.8174V29.9106H31.0495V28.8379Z" fill="#421D72"/>
<path d="M32.2819 28.8379H31.0498V29.9106H32.2819V28.8379Z" fill="#421D72"/>
<path d="M33.5129 28.8379H32.2808V29.9106H33.5129V28.8379Z" fill="#421D72"/>
<path d="M34.7448 28.8379H33.5127V29.9106H34.7448V28.8379Z" fill="#421D72"/>
<path d="M35.9768 21.332H34.7446V22.4048H35.9768V21.332Z" fill="#140A33"/>
<path d="M35.9768 24.5498H34.7446V25.6225H35.9768V24.5498Z" fill="#140A33"/>
<path d="M16.2712 23.4766H15.0391V24.5493H16.2712V23.4766Z" fill="#6B3E9B"/>
<path d="M17.5036 23.4766H16.2715V24.5493H17.5036V23.4766Z" fill="#9B9DAA"/>
<path d="M18.7346 23.4766H17.5024V24.5493H18.7346V23.4766Z" fill="#9B9DAA"/>
<path d="M19.9665 23.4766H18.7344V24.5493H19.9665V23.4766Z" fill="#6A6C7B"/>
<path d="M21.1975 23.4766H19.9653V24.5493H21.1975V23.4766Z" fill="#6A6C7B"/>
<path d="M22.4299 23.4766H21.1978V24.5493H22.4299V23.4766Z" fill="#6A6C7B"/>
<path d="M23.6603 23.4766H22.4282V24.5493H23.6603V23.4766Z" fill="#6B3E9B"/>
<path d="M24.8928 23.4766H23.6606V24.5493H24.8928V23.4766Z" fill="#421D72"/>
<path d="M26.1237 23.4766H24.8916V24.5493H26.1237V23.4766Z" fill="#421D72"/>
<path d="M27.3557 23.4766H26.1235V24.5493H27.3557V23.4766Z" fill="#6B3E9B"/>
<path d="M28.5866 23.4766H27.3545V24.5493H28.5866V23.4766Z" fill="#6B3E9B"/>
<path d="M29.819 23.4766H28.5869V24.5493H29.819V23.4766Z" fill="#6B3E9B"/>
<path d="M31.0495 23.4766H29.8174V24.5493H31.0495V23.4766Z" fill="#6B3E9B"/>
<path d="M32.2819 23.4766H31.0498V24.5493H32.2819V23.4766Z" fill="#6B3E9B"/>
<path d="M33.5129 23.4766H32.2808V24.5493H33.5129V23.4766Z" fill="#6B3E9B"/>
<path d="M34.7448 23.4766H33.5127V24.5493H34.7448V23.4766Z" fill="#421D72"/>
<path d="M35.9768 23.4766H34.7446V24.5493H35.9768V23.4766Z" fill="#140A33"/>
<path d="M16.2712 22.4053H15.0391V23.478H16.2712V22.4053Z" fill="#9B9DAA"/>
<path d="M17.5036 22.4053H16.2715V23.478H17.5036V22.4053Z" fill="#9B9DAA"/>
<path d="M18.7346 22.4053H17.5024V23.478H18.7346V22.4053Z" fill="#9B9DAA"/>
<path d="M19.9665 22.4053H18.7344V23.478H19.9665V22.4053Z" fill="#9B9DAA"/>
<path d="M21.1975 22.4053H19.9653V23.478H21.1975V22.4053Z" fill="#9B9DAA"/>
<path d="M22.4299 22.4053H21.1978V23.478H22.4299V22.4053Z" fill="#6A6C7B"/>
<path d="M23.6603 22.4053H22.4282V23.478H23.6603V22.4053Z" fill="#6A6C7B"/>
<path d="M24.8928 22.4053H23.6606V23.478H24.8928V22.4053Z" fill="#6B3E9B"/>
<path d="M26.1237 22.4053H24.8916V23.478H26.1237V22.4053Z" fill="#6B3E9B"/>
<path d="M27.3557 22.4053H26.1235V23.478H27.3557V22.4053Z" fill="#6B3E9B"/>
<path d="M28.5866 22.4053H27.3545V23.478H28.5866V22.4053Z" fill="#6B3E9B"/>
<path d="M29.819 22.4053H28.5869V23.478H29.819V22.4053Z" fill="#6B3E9B"/>
<path d="M31.0495 22.4053H29.8174V23.478H31.0495V22.4053Z" fill="#6B3E9B"/>
<path d="M32.2819 22.4053H31.0498V23.478H32.2819V22.4053Z" fill="#6B3E9B"/>
<path d="M33.5129 22.4053H32.2808V23.478H33.5129V22.4053Z" fill="#6B3E9B"/>
<path d="M34.7448 22.4053H33.5127V23.478H34.7448V22.4053Z" fill="#421D72"/>
<path d="M35.9768 22.4053H34.7446V23.478H35.9768V22.4053Z" fill="#140A33"/>
<path d="M35.9768 25.6211H34.7446V26.6938H35.9768V25.6211Z" fill="#140A33"/>
<path d="M35.9768 26.6934H34.7446V27.7661H35.9768V26.6934Z" fill="#140A33"/>
<path d="M35.9768 27.7656H34.7446V28.8384H35.9768V27.7656Z" fill="#140A33"/>
<path d="M35.9768 28.8379H34.7446V29.9106H35.9768V28.8379Z" fill="#140A33"/>
<path d="M29.819 29.9111H28.5869V30.9839H29.819V29.9111Z" fill="#140A33"/>
<path d="M31.0495 29.9111H29.8174V30.9839H31.0495V29.9111Z" fill="#421D72"/>
<path d="M32.2819 29.9111H31.0498V30.9839H32.2819V29.9111Z" fill="#421D72"/>
<path d="M33.5129 29.9111H32.2808V30.9839H33.5129V29.9111Z" fill="#421D72"/>
<path d="M34.7448 29.9111H33.5127V30.9839H34.7448V29.9111Z" fill="#421D72"/>
<path d="M35.9768 29.9111H34.7446V30.9839H35.9768V29.9111Z" fill="#140A33"/>
<path d="M31.0495 30.9824H29.8174V32.0551H31.0495V30.9824Z" fill="#140A33"/>
<path d="M32.2819 30.9824H31.0498V32.0551H32.2819V30.9824Z" fill="#140A33"/>
<path d="M33.5129 30.9824H32.2808V32.0551H33.5129V30.9824Z" fill="#140A33"/>
<path d="M34.7448 30.9824H33.5127V32.0551H34.7448V30.9824Z" fill="#140A33"/>
<path d="M13.8069 19.1875H15.0391V18.1148H13.8069V19.1875Z" fill="#140A33"/>
<path d="M12.576 19.1875H13.8081V18.1148H12.576V19.1875Z" fill="#140A33"/>
<path d="M11.344 19.1875H12.5762V18.1148H11.344V19.1875Z" fill="#140A33"/>
<path d="M10.1131 19.1875H11.3452V18.1148H10.1131V19.1875Z" fill="#140A33"/>
<path d="M8.88067 19.1875H10.1128V18.1148H8.88067V19.1875Z" fill="#140A33"/>
<path d="M7.64971 19.1875H8.88184V18.1148H7.64971V19.1875Z" fill="#140A33"/>
<path d="M6.41778 19.1875H7.6499V18.1148H6.41778V19.1875Z" fill="#140A33"/>
<path d="M5.18682 19.1875H6.41895V18.1148H5.18682V19.1875Z" fill="#140A33"/>
<path d="M2.72344 19.1875H3.95557V18.1148H2.72344V19.1875Z" fill="#140A33"/>
<path d="M13.8069 20.2607H15.0391V19.188H13.8069V20.2607Z" fill="#9364BC"/>
<path d="M12.576 20.2607H13.8081V19.188H12.576V20.2607Z" fill="#9364BC"/>
<path d="M11.344 20.2607H12.5762V19.188H11.344V20.2607Z" fill="#9364BC"/>
<path d="M10.1131 20.2607H11.3452V19.188H10.1131V20.2607Z" fill="#9364BC"/>
<path d="M8.88067 20.2607H10.1128V19.188H8.88067V20.2607Z" fill="#9364BC"/>
<path d="M7.64971 20.2607H8.88184V19.188H7.64971V20.2607Z" fill="#9364BC"/>
<path d="M6.41778 20.2607H7.6499V19.188H6.41778V20.2607Z" fill="#9364BC"/>
<path d="M5.18682 20.2607H6.41895V19.188H5.18682V20.2607Z" fill="#9364BC"/>
<path d="M2.72344 20.2607H3.95557V19.188H2.72344V20.2607Z" fill="#140A33"/>
<path d="M13.8069 21.332H15.0391V20.2593H13.8069V21.332Z" fill="#6B3E9B"/>
<path d="M12.576 21.332H13.8081V20.2593H12.576V21.332Z" fill="#6B3E9B"/>
<path d="M11.344 21.332H12.5762V20.2593H11.344V21.332Z" fill="#6B3E9B"/>
<path d="M10.1131 21.332H11.3452V20.2593H10.1131V21.332Z" fill="#6B3E9B"/>
<path d="M8.88067 21.332H10.1128V20.2593H8.88067V21.332Z" fill="#6B3E9B"/>
<path d="M7.64971 21.332H8.88184V20.2593H7.64971V21.332Z" fill="#6B3E9B"/>
<path d="M6.41778 21.332H7.6499V20.2593H6.41778V21.332Z" fill="#6B3E9B"/>
<path d="M5.18682 21.332H6.41895V20.2593H5.18682V21.332Z" fill="#6B3E9B"/>
<path d="M3.9544 19.1875H5.18652V18.1148H3.9544V19.1875Z" fill="#140A33"/>
<path d="M3.9544 20.2607H5.18652V19.188H3.9544V20.2607Z" fill="#9364BC"/>
<path d="M3.9544 21.332H5.18652V20.2593H3.9544V21.332Z" fill="#6B3E9B"/>
<path d="M2.72344 21.332H3.95557V20.2593H2.72344V21.332Z" fill="#140A33"/>
<path d="M13.8069 22.4053H15.0391V21.3325H13.8069V22.4053Z" fill="#140A33"/>
<path d="M12.576 22.4053H13.8081V21.3325H12.576V22.4053Z" fill="#140A33"/>
<path d="M11.344 22.4053H12.5762V21.3325H11.344V22.4053Z" fill="#140A33"/>
<path d="M10.1131 22.4053H11.3452V21.3325H10.1131V22.4053Z" fill="#140A33"/>
<path d="M8.88067 22.4053H10.1128V21.3325H8.88067V22.4053Z" fill="#140A33"/>
<path d="M7.64971 22.4053H8.88184V21.3325H7.64971V22.4053Z" fill="#140A33"/>
<path d="M6.41778 22.4053H7.6499V21.3325H6.41778V22.4053Z" fill="#140A33"/>
<path d="M5.18682 22.4053H6.41895V21.3325H5.18682V22.4053Z" fill="#140A33"/>
<path d="M3.9544 22.4053H5.18652V21.3325H3.9544V22.4053Z" fill="#140A33"/>
<path d="M13.8069 25.6211H15.0391V24.5484H13.8069V25.6211Z" fill="#421D72"/>
<path d="M12.576 25.6211H13.8081V24.5484H12.576V25.6211Z" fill="#421D72"/>
<path d="M11.344 25.6211H12.5762V24.5484H11.344V25.6211Z" fill="#140A33"/>
<path d="M10.1131 25.6211H11.3452V24.5484H10.1131V25.6211Z" fill="#421D72"/>
<path d="M8.88067 25.6211H10.1128V24.5484H8.88067V25.6211Z" fill="#421D72"/>
<path d="M7.64971 25.6211H8.88184V24.5484H7.64971V25.6211Z" fill="#421D72"/>
<path d="M6.41778 25.6211H7.6499V24.5484H6.41778V25.6211Z" fill="#6B3E9B"/>
<path d="M5.18682 25.6211H6.41895V24.5484H5.18682V25.6211Z" fill="#421D72"/>
<path d="M3.9544 25.6211H5.18652V24.5484H3.9544V25.6211Z" fill="#421D72"/>
<path d="M13.8069 26.6934H15.0391V25.6206H13.8069V26.6934Z" fill="#140A33"/>
<path d="M12.576 26.6934H13.8081V25.6206H12.576V26.6934Z" fill="#140A33"/>
<path d="M10.1131 26.6934H11.3452V25.6206H10.1131V26.6934Z" fill="#140A33"/>
<path d="M8.88067 26.6934H10.1128V25.6206H8.88067V26.6934Z" fill="#140A33"/>
<path d="M7.64971 26.6934H8.88184V25.6206H7.64971V26.6934Z" fill="#140A33"/>
<path d="M6.41778 26.6934H7.6499V25.6206H6.41778V26.6934Z" fill="#421D72"/>
<path d="M5.18682 26.6934H6.41895V25.6206H5.18682V26.6934Z" fill="#6B3E9B"/>
<path d="M3.9544 26.6934H5.18652V25.6206H3.9544V26.6934Z" fill="#421D72"/>
<path d="M7.64971 27.7656H8.88184V26.6929H7.64971V27.7656Z" fill="#140A33"/>
<path d="M6.41778 27.7656H7.6499V26.6929H6.41778V27.7656Z" fill="#421D72"/>
<path d="M5.18682 27.7656H6.41895V26.6929H5.18682V27.7656Z" fill="#6B3E9B"/>
<path d="M3.9544 27.7656H5.18652V26.6929H3.9544V27.7656Z" fill="#421D72"/>
<path d="M8.88067 28.8379H10.1128V27.7652H8.88067V28.8379Z" fill="#140A33"/>
<path d="M7.64971 28.8379H8.88184V27.7652H7.64971V28.8379Z" fill="#421D72"/>
<path d="M6.41778 28.8379H7.6499V27.7652H6.41778V28.8379Z" fill="#421D72"/>
<path d="M5.18682 28.8379H6.41895V27.7652H5.18682V28.8379Z" fill="#6B3E9B"/>
<path d="M3.9544 28.8379H5.18652V27.7652H3.9544V28.8379Z" fill="#421D72"/>
<path d="M8.88067 29.9111H10.1128V28.8384H8.88067V29.9111Z" fill="#140A33"/>
<path d="M7.64971 29.9111H8.88184V28.8384H7.64971V29.9111Z" fill="#421D72"/>
<path d="M6.41778 29.9111H7.6499V28.8384H6.41778V29.9111Z" fill="#421D72"/>
<path d="M5.18682 29.9111H6.41895V28.8384H5.18682V29.9111Z" fill="#421D72"/>
<path d="M3.9544 29.9111H5.18652V28.8384H3.9544V29.9111Z" fill="#421D72"/>
<path d="M2.72344 22.4053H3.95557V21.3325H2.72344V22.4053Z" fill="#140A33"/>
<path d="M2.72344 25.6211H3.95557V24.5484H2.72344V25.6211Z" fill="#140A33"/>
<path d="M13.8069 24.5498H15.0391V23.4771H13.8069V24.5498Z" fill="#421D72"/>
<path d="M12.576 24.5498H13.8081V23.4771H12.576V24.5498Z" fill="#421D72"/>
<path d="M11.344 24.5498H12.5762V23.4771H11.344V24.5498Z" fill="#6B3E9B"/>
<path d="M10.1131 24.5498H11.3452V23.4771H10.1131V24.5498Z" fill="#6B3E9B"/>
<path d="M8.88067 24.5498H10.1128V23.4771H8.88067V24.5498Z" fill="#6B3E9B"/>
<path d="M7.64971 24.5498H8.88184V23.4771H7.64971V24.5498Z" fill="#6B3E9B"/>
<path d="M6.41778 24.5498H7.6499V23.4771H6.41778V24.5498Z" fill="#6B3E9B"/>
<path d="M5.18682 24.5498H6.41895V23.4771H5.18682V24.5498Z" fill="#6B3E9B"/>
<path d="M3.9544 24.5498H5.18652V23.4771H3.9544V24.5498Z" fill="#421D72"/>
<path d="M2.72344 24.5498H3.95557V23.4771H2.72344V24.5498Z" fill="#140A33"/>
<path d="M13.8069 23.4766H15.0391V22.4038H13.8069V23.4766Z" fill="#6B3E9B"/>
<path d="M12.576 23.4766H13.8081V22.4038H12.576V23.4766Z" fill="#6B3E9B"/>
<path d="M11.344 23.4766H12.5762V22.4038H11.344V23.4766Z" fill="#6B3E9B"/>
<path d="M10.1131 23.4766H11.3452V22.4038H10.1131V23.4766Z" fill="#6B3E9B"/>
<path d="M8.88067 23.4766H10.1128V22.4038H8.88067V23.4766Z" fill="#6B3E9B"/>
<path d="M7.64971 23.4766H8.88184V22.4038H7.64971V23.4766Z" fill="#6B3E9B"/>
<path d="M6.41778 23.4766H7.6499V22.4038H6.41778V23.4766Z" fill="#6B3E9B"/>
<path d="M5.18682 23.4766H6.41895V22.4038H5.18682V23.4766Z" fill="#6B3E9B"/>
<path d="M3.9544 23.4766H5.18652V22.4038H3.9544V23.4766Z" fill="#421D72"/>
<path d="M2.72344 23.4766H3.95557V22.4038H2.72344V23.4766Z" fill="#140A33"/>
<path d="M2.72344 26.6934H3.95557V25.6206H2.72344V26.6934Z" fill="#140A33"/>
<path d="M2.72344 27.7656H3.95557V26.6929H2.72344V27.7656Z" fill="#140A33"/>
<path d="M2.72344 28.8379H3.95557V27.7652H2.72344V28.8379Z" fill="#140A33"/>
<path d="M2.72344 29.9111H3.95557V28.8384H2.72344V29.9111Z" fill="#140A33"/>
<path d="M8.88067 30.9824H10.1128V29.9097H8.88067V30.9824Z" fill="#140A33"/>
<path d="M7.64971 30.9824H8.88184V29.9097H7.64971V30.9824Z" fill="#421D72"/>
<path d="M6.41778 30.9824H7.6499V29.9097H6.41778V30.9824Z" fill="#421D72"/>
<path d="M5.18682 30.9824H6.41895V29.9097H5.18682V30.9824Z" fill="#421D72"/>
<path d="M3.9544 30.9824H5.18652V29.9097H3.9544V30.9824Z" fill="#421D72"/>
<path d="M2.72344 30.9824H3.95557V29.9097H2.72344V30.9824Z" fill="#140A33"/>
<path d="M7.64971 32.0557H8.88184V30.9829H7.64971V32.0557Z" fill="#140A33"/>
<path d="M6.41778 32.0557H7.6499V30.9829H6.41778V32.0557Z" fill="#140A33"/>
<path d="M5.18682 32.0557H6.41895V30.9829H5.18682V32.0557Z" fill="#140A33"/>
<path d="M3.9544 32.0557H5.18652V30.9829H3.9544V32.0557Z" fill="#140A33"/>
</svg>
