<svg width="42" height="42" viewBox="0 0 42 42" fill="none" xmlns="http://www.w3.org/2000/svg">
<rect width="42" height="42" rx="21" fill="white"/>
<path fill-rule="evenodd" clip-rule="evenodd" d="M33.9568 21.3102C33.9568 20.3423 33.8699 19.4116 33.7086 18.5182H20.8528V23.7983H28.199C27.8825 25.5045 26.9208 26.9502 25.4752 27.9181V31.343H29.8866C32.4677 28.9666 33.9568 25.4673 33.9568 21.3102Z" fill="#4285F4"/>
<path fill-rule="evenodd" clip-rule="evenodd" d="M20.8529 34.6499C24.5384 34.6499 27.6283 33.4276 29.8867 31.3429L25.4753 27.918C24.253 28.737 22.6895 29.221 20.8529 29.221C17.2977 29.221 14.2885 26.8198 13.2151 23.5934H8.65479V27.13C10.9008 31.5911 15.517 34.6499 20.8529 34.6499Z" fill="#34A853"/>
<path fill-rule="evenodd" clip-rule="evenodd" d="M13.2151 23.5935C12.9421 22.7745 12.787 21.8996 12.787 21C12.787 20.1003 12.9421 19.2255 13.2151 18.4065V14.8699H8.65474C7.73027 16.7126 7.20288 18.7973 7.20288 21C7.20288 23.2026 7.73027 25.2873 8.65474 27.1301L13.2151 23.5935Z" fill="#FBBC05"/>
<path fill-rule="evenodd" clip-rule="evenodd" d="M20.8529 12.779C22.857 12.779 24.6563 13.4677 26.0709 14.8202L29.986 10.9052C27.6221 8.70257 24.5322 7.34998 20.8529 7.34998C15.517 7.34998 10.9008 10.4088 8.65479 14.8699L13.2151 18.4065C14.2885 15.1801 17.2977 12.779 20.8529 12.779Z" fill="#EA4335"/>
</svg>
