<svg width="18" height="20" viewBox="0 0 18 20" fill="none" xmlns="http://www.w3.org/2000/svg">
<path fill-rule="evenodd" clip-rule="evenodd" d="M4 5.00001C4 2.23858 6.23858 0 9.00001 0C11.7614 0 14 2.23858 14 5.00001V6.00001C14 6.5523 13.5523 7.00001 13 7.00001C12.4477 7.00001 12 6.5523 12 6.00001V5.00001C12 3.34315 10.6569 2 9.00001 2C7.34315 2 6 3.34315 6 5.00001V6.00001C6 6.5523 5.55229 7.00001 5 7.00001C4.44772 7.00001 4 6.5523 4 6.00001V5.00001Z" fill="#AFB0A4"/>
<path fill-rule="evenodd" clip-rule="evenodd" d="M0.878681 5.87868C0 6.75736 0 8.17158 0 11V12C0 15.7713 0 17.6569 1.17158 18.8285C2.34315 20 4.22877 20 8.00002 20H10C13.7713 20 15.6569 20 16.8285 18.8285C18 17.6569 18 15.7713 18 12V11C18 8.17158 18 6.75736 17.1214 5.87868C16.2427 5 14.8285 5 12 5H6.00001C3.17158 5 1.75736 5 0.878681 5.87868ZM9.00002 13C9.5523 13 10 12.5523 10 12C10 11.4477 9.5523 11 9.00002 11C8.44773 11 8.00002 11.4477 8.00002 12C8.00002 12.5523 8.44773 13 9.00002 13ZM12 12C12 13.3062 11.1652 14.4175 10 14.8293V17H8.00002V14.8293C6.83482 14.4175 6.00001 13.3062 6.00001 12C6.00001 10.3432 7.34316 9.00001 9.00002 9.00001C10.6569 9.00001 12 10.3432 12 12Z" fill="#AFB0A4"/>
</svg>
