<svg width="30" height="31" viewBox="0 0 30 31" fill="none" xmlns="http://www.w3.org/2000/svg">
<g id="_&#195;&#131;&#226;&#128;&#152;&#195;&#131;&#194;&#171;&#195;&#131;&#194;&#174;&#195;&#131;&#194;&#169;_1" clip-path="url(#clip0_1202_92836)">
<path id="Vector" d="M11.2497 15.8593H9.37524V17.7337H11.2497V15.8593Z" fill="white"/>
<path id="Vector_2" d="M13.1242 13.9849H11.2498V15.8593H13.1242V13.9849Z" fill="white"/>
<path id="Vector_3" d="M15 12.1091H13.1255V13.9835H15V12.1091Z" fill="white"/>
<path id="Vector_4" d="M9.37522 17.735H7.50073V19.6095H9.37522V17.735Z" fill="white"/>
<path id="Vector_5" d="M16.8745 10.2347H15V12.1091H16.8745V10.2347Z" fill="white"/>
<path id="Vector_6" d="M24.3752 2.73438H22.5007V4.60878H24.3752V2.73438Z" fill="white"/>
<path id="Vector_7" d="M20.6247 6.48456H18.7502V8.35896H20.6247V6.48456Z" fill="white"/>
<path id="Vector_8" d="M18.7502 8.36035H16.8757V10.2348H18.7502V8.36035Z" fill="white"/>
<path id="Vector_9" d="M22.4992 4.61017H20.6248V6.48457H22.4992V4.61017Z" fill="white"/>
<path id="Vector_10" d="M11.2497 27.1098H9.37524V28.9842H11.2497V27.1098Z" fill="black"/>
<path id="Vector_11" d="M3.749 19.6095H1.87451V21.4839H3.749V19.6095Z" fill="black"/>
<path id="Vector_12" d="M9.37522 21.4839H7.50073V23.3583H9.37522V21.4839Z" fill="black"/>
<path id="Vector_13" d="M7.5006 25.2341H5.62476V27.1098V28.9842H7.5006V27.1098H9.37509V25.2341H7.5006Z" fill="black"/>
<path id="Vector_14" d="M15 21.4839H13.1255V23.3583H15V21.4839Z" fill="black"/>
<path id="Vector_15" d="M9.37524 23.3596V25.234H11.2497V27.1098H13.1256V23.3596H11.2497H9.37524Z" fill="black"/>
<path id="Vector_16" d="M22.4992 13.9849H20.6248V15.8593H22.4992V13.9849Z" fill="black"/>
<path id="Vector_17" d="M22.4992 2.73438H20.6248V4.60878H22.4992V2.73438Z" fill="black"/>
<path id="Vector_18" d="M26.2511 2.73439H28.1256V4.61016V6.48456V8.36033H30.0001V0.859985H22.5007V2.73439H24.3752H26.2511Z" fill="black"/>
<path id="Vector_19" d="M28.1255 8.36035H26.251V10.2348H28.1255V8.36035Z" fill="black"/>
<path id="Vector_20" d="M20.6247 4.61017H18.7502V6.48457H20.6247V4.61017Z" fill="black"/>
<path id="Vector_21" d="M18.7502 17.735H16.8757V19.6095H18.7502V17.735Z" fill="black"/>
<path id="Vector_22" d="M16.8745 19.6095H15V21.4839H16.8745V19.6095Z" fill="black"/>
<path id="Vector_23" d="M24.3752 12.1091H22.5007V13.9835H24.3752V12.1091Z" fill="black"/>
<path id="Vector_24" d="M26.2497 10.2347H24.3752V12.1091H26.2497V10.2347Z" fill="black"/>
<path id="Vector_25" d="M20.6247 15.8593H18.7502V17.7337H20.6247V15.8593Z" fill="black"/>
<path id="Vector_26" d="M18.7502 6.48456H16.8757V8.35896H18.7502V6.48456Z" fill="black"/>
<path id="Vector_27" d="M9.37522 15.8593H7.50073V17.7337H9.37522V15.8593Z" fill="black"/>
<path id="Vector_28" d="M11.2497 13.9849H9.37524V15.8593H11.2497V13.9849Z" fill="black"/>
<path id="Vector_29" d="M5.62485 30.86V28.9843H3.75036H1.87451V30.86H5.62485Z" fill="black"/>
<path id="Vector_30" d="M5.62473 21.4839H7.50058V19.6095V17.735H3.75024V19.6095H5.62473V21.4839Z" fill="black"/>
<path id="Vector_31" d="M1.87449 25.2341H0V28.9842H1.87449V27.1098V25.2341Z" fill="black"/>
<path id="Vector_32" d="M5.62485 25.2341V23.3597V21.4839H3.75036V23.3597H1.87451V25.2341H3.75036H5.62485Z" fill="black"/>
<path id="Vector_33" d="M13.1242 12.1091H11.2498V13.9835H13.1242V12.1091Z" fill="black"/>
<path id="Vector_34" d="M16.8745 8.36035H15V10.2348H16.8745V8.36035Z" fill="black"/>
<path id="Vector_35" d="M15 10.2347H13.1255V12.1091H15V10.2347Z" fill="black"/>
<path id="Vector_36" d="M7.49925 21.4839H5.62476V23.3583H7.49925V21.4839Z" fill="#FFE077"/>
<path id="Vector_37" d="M5.62473 19.6095H3.75024V21.4839H5.62473V19.6095Z" fill="#FFE077"/>
<path id="Vector_38" d="M3.749 25.2341H1.87451V27.1085H3.749V25.2341Z" fill="#FFE077"/>
<path id="Vector_39" d="M5.62473 25.2341H3.75024V27.1085H5.62473V25.2341Z" fill="#FFA507"/>
<path id="Vector_40" d="M7.49925 23.3596H5.62476V25.234H7.49925V23.3596Z" fill="#FFA507"/>
<path id="Vector_41" d="M3.749 27.1098H1.87451V28.9842H3.749V27.1098Z" fill="#FFA507"/>
<path id="Vector_42" d="M9.37522 23.3596H7.50073V25.234H9.37522V23.3596Z" fill="#EEA47D"/>
<path id="Vector_43" d="M5.62473 27.1098H3.75024V28.9842H5.62473V27.1098Z" fill="#EEA47D"/>
<path id="Vector_44" d="M11.2497 25.2341H9.37524V27.1085H11.2497V25.2341Z" fill="#EEA47D"/>
<path id="Vector_45" d="M22.4992 12.1091H20.6248V13.9835H22.4992V12.1091Z" fill="#9EC1C3"/>
<path id="Vector_46" d="M20.6247 13.9849H18.7502V15.8593H20.6247V13.9849Z" fill="#9EC1C3"/>
<path id="Vector_47" d="M24.3752 10.2347H22.5007V12.1091H24.3752V10.2347Z" fill="#9EC1C3"/>
<path id="Vector_48" d="M26.2497 8.36035H24.3752V10.2348H26.2497V8.36035Z" fill="#9EC1C3"/>
<path id="Vector_49" d="M28.1255 6.48456H26.251V8.35896H28.1255V6.48456Z" fill="#9EC1C3"/>
<path id="Vector_50" d="M18.7502 15.8593H16.8757V17.7337H18.7502V15.8593Z" fill="#9EC1C3"/>
<path id="Vector_51" d="M13.1242 21.4839H11.2498V23.3583H13.1242V21.4839Z" fill="#9EC1C3"/>
<path id="Vector_52" d="M15 19.6095H13.1255V21.4839H15V19.6095Z" fill="#9EC1C3"/>
<path id="Vector_53" d="M16.8745 17.735H15V19.6095H16.8745V17.735Z" fill="#9EC1C3"/>
<path id="Vector_54" d="M18.7502 13.9849H16.8757V15.8593H18.7502V13.9849Z" fill="#B7EAED"/>
<path id="Vector_55" d="M16.8745 15.8593H15V17.7337H16.8745V15.8593Z" fill="#B7EAED"/>
<path id="Vector_56" d="M15 17.735H13.1255V19.6095H15V17.735Z" fill="#B7EAED"/>
<path id="Vector_57" d="M11.2497 21.4839H9.37524V23.3583H11.2497V21.4839Z" fill="#B7EAED"/>
<path id="Vector_58" d="M13.1242 19.6095H11.2498V21.4839H13.1242V19.6095Z" fill="#B7EAED"/>
<path id="Vector_59" d="M26.2497 6.48456H24.3752V8.35896H26.2497V6.48456Z" fill="#B7EAED"/>
<path id="Vector_60" d="M20.6247 12.1091H18.7502V13.9835H20.6247V12.1091Z" fill="#B7EAED"/>
<path id="Vector_61" d="M24.3752 8.36035H22.5007V10.2348H24.3752V8.36035Z" fill="#B7EAED"/>
<path id="Vector_62" d="M28.1255 4.61017H26.251V6.48457H28.1255V4.61017Z" fill="#B7EAED"/>
<path id="Vector_63" d="M22.4992 10.2347H20.6248V12.1091H22.4992V10.2347Z" fill="#B7EAED"/>
<path id="Vector_64" d="M22.4992 8.36035H20.6248V10.2348H22.4992V8.36035Z" fill="#CEF3F5"/>
<path id="Vector_65" d="M28.1255 2.73438H26.251V4.60878H28.1255V2.73438Z" fill="#CEF3F5"/>
<path id="Vector_66" d="M26.2497 4.61017H24.3752V6.48457H26.2497V4.61017Z" fill="#CEF3F5"/>
<path id="Vector_67" d="M20.6247 10.2347H18.7502V12.1091H20.6247V10.2347Z" fill="#CEF3F5"/>
<path id="Vector_68" d="M24.3752 6.48456H22.5007V8.35896H24.3752V6.48456Z" fill="#CEF3F5"/>
<path id="Vector_69" d="M15 15.8593H13.1255V17.7337H15V15.8593Z" fill="#CEF3F5"/>
<path id="Vector_70" d="M16.8745 13.9849H15V15.8593H16.8745V13.9849Z" fill="#CEF3F5"/>
<path id="Vector_71" d="M11.2497 19.6095H9.37524V21.4839H11.2497V19.6095Z" fill="#CEF3F5"/>
<path id="Vector_72" d="M13.1242 17.735H11.2498V19.6095H13.1242V17.735Z" fill="#CEF3F5"/>
<path id="Vector_73" d="M18.7502 12.1091H16.8757V13.9835H18.7502V12.1091Z" fill="#CEF3F5"/>
<path id="Vector_74" d="M24.3752 4.61017H22.5007V6.48457H24.3752V4.61017Z" fill="#F4FFF1"/>
<path id="Vector_75" d="M9.37522 19.6095H7.50073V21.4839H9.37522V19.6095Z" fill="#F4FFF1"/>
<path id="Vector_76" d="M18.7502 10.2347H16.8757V12.1091H18.7502V10.2347Z" fill="#F4FFF1"/>
<path id="Vector_77" d="M20.6247 8.36035H18.7502V10.2348H20.6247V8.36035Z" fill="#F4FFF1"/>
<path id="Vector_78" d="M11.2497 17.735H9.37524V19.6095H11.2497V17.735Z" fill="#F4FFF1"/>
<path id="Vector_79" d="M26.2497 2.73438H24.3752V4.60878H26.2497V2.73438Z" fill="#F4FFF1"/>
<path id="Vector_80" d="M16.8745 12.1091H15V13.9835H16.8745V12.1091Z" fill="#F4FFF1"/>
<path id="Vector_81" d="M15 13.9849H13.1255V15.8593H15V13.9849Z" fill="#F4FFF1"/>
<path id="Vector_82" d="M22.4992 6.48456H20.6248V8.35896H22.4992V6.48456Z" fill="#F4FFF1"/>
<path id="Vector_83" d="M13.1242 15.8593H11.2498V17.7337H13.1242V15.8593Z" fill="#F4FFF1"/>
</g>
<defs>
<clipPath id="clip0_1202_92836">
<rect width="30" height="30" fill="white" transform="translate(0 0.859985)"/>
</clipPath>
</defs>
</svg>
