<svg width="30" height="31" viewBox="0 0 30 31" fill="none" xmlns="http://www.w3.org/2000/svg">
<g id="_&#195;&#131;&#226;&#128;&#152;&#195;&#131;&#194;&#171;&#195;&#131;&#194;&#174;&#195;&#131;&#194;&#169;_1" clip-path="url(#clip0_1202_92921)">
<path id="Vector" d="M24.3752 6.20453H22.5007V8.07893H24.3752V6.20453Z" fill="white"/>
<path id="Vector_2" d="M7.49925 6.20453H5.62476V8.07893H7.49925V6.20453Z" fill="white"/>
<path id="Vector_3" d="M22.5006 4.33014H18.7502V6.20454H22.5006V4.33014Z" fill="white"/>
<path id="Vector_4" d="M26.2511 2.45435H22.5007V4.32875H26.2511V2.45435Z" fill="white"/>
<path id="Vector_5" d="M13.1242 8.08032H11.2498V11.8305H13.1242V8.08032Z" fill="white"/>
<path id="Vector_6" d="M18.7502 8.08032H16.8757V11.8305H18.7502V8.08032Z" fill="white"/>
<path id="Vector_7" d="M13.1242 13.7049H11.2498V15.5793H13.1242V13.7049Z" fill="white"/>
<path id="Vector_8" d="M28.1255 4.33014H26.251V6.20454H28.1255V4.33014Z" fill="white"/>
<path id="Vector_9" d="M18.7502 13.7049H16.8757V15.5793H18.7502V13.7049Z" fill="white"/>
<path id="Vector_10" d="M3.749 4.33014H1.87451V6.20454H3.749V4.33014Z" fill="white"/>
<path id="Vector_11" d="M7.50058 2.45435H3.75024V4.32875H7.50058V2.45435Z" fill="white"/>
<path id="Vector_12" d="M11.2511 4.33014H7.50073V6.20454H11.2511V4.33014Z" fill="white"/>
<path id="Vector_13" d="M7.50058 0.579956H3.75024V2.45436H7.50058V0.579956Z" fill="black"/>
<path id="Vector_14" d="M28.1255 2.45435H26.251V4.32875H28.1255V2.45435Z" fill="black"/>
<path id="Vector_15" d="M26.2511 0.579956H22.5007V2.45436H26.2511V0.579956Z" fill="black"/>
<path id="Vector_16" d="M22.5006 2.45435H18.7502V4.32875H22.5006V2.45435Z" fill="black"/>
<path id="Vector_17" d="M20.6249 28.7042H9.37524V30.5786H20.6249V28.7042Z" fill="black"/>
<path id="Vector_18" d="M22.5007 17.4551V26.8298H24.3752V13.7049H22.5007V17.4551Z" fill="black"/>
<path id="Vector_19" d="M26.2497 11.8291H24.3752V13.7035H26.2497V11.8291Z" fill="black"/>
<path id="Vector_20" d="M22.4992 26.8298H20.6248V28.7042H22.4992V26.8298Z" fill="black"/>
<path id="Vector_21" d="M28.1255 9.95471H26.251V11.8291H28.1255V9.95471Z" fill="black"/>
<path id="Vector_22" d="M28.1255 6.20454V8.08031V9.95471H30V4.33014H28.1255V6.20454Z" fill="black"/>
<path id="Vector_23" d="M7.5006 13.7049H5.62476V26.8298H7.5006V17.4551V13.7049Z" fill="black"/>
<path id="Vector_24" d="M3.749 2.45435H1.87451V4.32875H3.749V2.45435Z" fill="black"/>
<path id="Vector_25" d="M11.2511 2.45435H7.50073V4.32875H11.2511V2.45435Z" fill="black"/>
<path id="Vector_26" d="M1.87449 6.20454V4.33014H0V9.95471H1.87449V8.08031V6.20454Z" fill="black"/>
<path id="Vector_27" d="M5.62473 11.8291H3.75024V13.7035H5.62473V11.8291Z" fill="black"/>
<path id="Vector_28" d="M18.7504 4.33014H11.2498V6.20454H18.7504V4.33014Z" fill="black"/>
<path id="Vector_29" d="M3.749 9.95471H1.87451V11.8291H3.749V9.95471Z" fill="black"/>
<path id="Vector_30" d="M9.37522 26.8298H7.50073V28.7042H9.37522V26.8298Z" fill="black"/>
<path id="Vector_31" d="M26.2497 9.95471H24.3752V11.8291H26.2497V9.95471Z" fill="#39556B"/>
<path id="Vector_32" d="M28.1255 8.08032H26.251V9.95473H28.1255V8.08032Z" fill="#39556B"/>
<path id="Vector_33" d="M9.37522 24.954H11.2497V23.0796H9.37522V21.2038H11.2497V19.3294H9.37522V17.455H7.50073V26.8298H9.37522V24.954Z" fill="#39556B"/>
<path id="Vector_34" d="M20.6247 17.455V19.3294H18.7502V21.2038H20.6247V23.0796H18.7502V24.954H20.6247V26.8298H22.5006V17.455H20.6247Z" fill="#39556B"/>
<path id="Vector_35" d="M18.7504 26.8298V24.954H16.8759V26.8298H13.1256V24.954H11.2497V26.8298H9.37524V28.7042H20.6249V26.8298H18.7504Z" fill="#39556B"/>
<path id="Vector_36" d="M24.3752 11.8291H22.5007V13.7035H24.3752V11.8291Z" fill="#39556B"/>
<path id="Vector_37" d="M3.749 8.08032H1.87451V9.95473H3.749V8.08032Z" fill="#39556B"/>
<path id="Vector_38" d="M5.62473 9.95471H3.75024V11.8291H5.62473V9.95471Z" fill="#39556B"/>
<path id="Vector_39" d="M7.49925 11.8291H5.62476V13.7035H7.49925V11.8291Z" fill="#39556B"/>
<path id="Vector_40" d="M13.1242 21.2039H11.2498V23.0783H13.1242V21.2039Z" fill="#39556B"/>
<path id="Vector_41" d="M18.7502 21.2039H16.8757V23.0783H18.7502V21.2039Z" fill="#39556B"/>
<path id="Vector_42" d="M11.2497 24.954H9.37524V26.8284H11.2497V24.954Z" fill="#898FB3"/>
<path id="Vector_43" d="M20.6247 24.954H18.7502V26.8284H20.6247V24.954Z" fill="#898FB3"/>
<path id="Vector_44" d="M26.2509 4.33014H22.5006V6.20454H24.3751V8.07895H22.5006V6.20454H7.50056V8.07895H5.62607V6.20454H7.50056V4.33014H3.75022V6.20454H1.87573V8.07895H3.75022V9.95336H5.62471V11.8278H7.4992V13.7022H9.37369V17.4523H11.2482V19.3267H13.1227V23.0769H11.2482V24.9513H13.1227V26.8257H16.873V24.9513H18.7475V23.0769H16.873V19.3267H18.7475V17.4523H20.622V13.7022H22.4965V11.8278H24.371V9.95336H26.2455V8.07895H28.12V6.20454H26.2455V4.33014H26.2509ZM13.1254 15.5793H11.2509V13.7049H13.1254V15.5793ZM13.1254 11.8291H11.2509V8.07895H13.1254V11.8291ZM18.7502 15.5793H16.8757V13.7049H18.7502V15.5793ZM18.7502 11.8291H16.8757V8.07895H18.7502V11.8291Z" fill="#898FB3"/>
<path id="Vector_45" d="M22.4992 13.7049H20.6248V17.4551H22.4992V13.7049Z" fill="#ABB6C4"/>
<path id="Vector_46" d="M20.6247 17.455H18.7502V19.3294H20.6247V17.455Z" fill="#ABB6C4"/>
<path id="Vector_47" d="M18.7502 19.3295H16.8757V21.2039H18.7502V19.3295Z" fill="#ABB6C4"/>
<path id="Vector_48" d="M13.1242 19.3295H11.2498V21.2039H13.1242V19.3295Z" fill="#ABB6C4"/>
<path id="Vector_49" d="M9.37522 13.7049H7.50073V17.4551H9.37522V13.7049Z" fill="#ABB6C4"/>
<path id="Vector_50" d="M11.2497 17.455H9.37524V19.3294H11.2497V17.455Z" fill="#ABB6C4"/>
<path id="Vector_51" d="M11.2497 21.2039H9.37524V23.0783H11.2497V21.2039Z" fill="#ABB6C4"/>
<path id="Vector_52" d="M20.6247 21.2039H18.7502V23.0783H20.6247V21.2039Z" fill="#ABB6C4"/>
</g>
<defs>
<clipPath id="clip0_1202_92921">
<rect width="30" height="30" fill="white" transform="translate(0 0.579956)"/>
</clipPath>
</defs>
</svg>
