<svg width="30" height="31" viewBox="0 0 30 31" fill="none" xmlns="http://www.w3.org/2000/svg">
<g id="_&#195;&#131;&#226;&#128;&#152;&#195;&#131;&#194;&#171;&#195;&#131;&#194;&#174;&#195;&#131;&#194;&#169;_1" clip-path="url(#clip0_1202_92976)">
<path id="Vector" d="M21.428 15.3V13.4255H19.2858V11.5496H17.1421V7.80066H12.8562V11.5496H10.714V13.4255H8.57178V15.3H19.2858H21.428Z" fill="#A8E5F0"/>
<path id="Vector_2" d="M21.4281 15.3V17.1758H23.5703V20.9248H21.4281V17.1758H19.2859V15.3H8.57183H4.28589V20.9248V22.8007H6.42808V24.6752H8.57183H21.4281H23.5703V22.8007H25.714V20.9248V15.3H21.4281Z" fill="#F24C30"/>
<path id="Vector_3" d="M23.5704 24.6752H21.4282V26.551H25.7142V24.6752H23.5704Z" fill="#AC141D"/>
<path id="Vector_4" d="M21.428 26.551H8.57178V28.4255H21.428V26.551Z" fill="#AC141D"/>
<path id="Vector_5" d="M8.57183 24.6752H6.42808H4.28589V26.551H8.57183V24.6752Z" fill="#AC141D"/>
<path id="Vector_6" d="M25.7141 20.9248V22.8007V24.6751H27.8563V20.9248H25.7141Z" fill="#AC141D"/>
<path id="Vector_7" d="M4.28583 22.8007V20.9248H2.14209V24.6751H4.28583V22.8007Z" fill="#AC141D"/>
<path id="Vector_8" d="M19.286 4.05035H10.7141V5.92484H19.286V4.05035Z" fill="#683128"/>
<path id="Vector_9" d="M19.286 2.1745H10.7141V4.04899H19.286V2.1745Z" fill="#935950"/>
<path id="Vector_10" d="M23.5704 17.1758H21.4282V20.9262H23.5704V17.1758Z" fill="white"/>
<path id="Vector_11" d="M21.4281 15.3H19.2859V17.1745H21.4281V15.3Z" fill="white"/>
<path id="Vector_12" d="M4.28428 24.6752H2.14209V26.5497H4.28428V24.6752Z" fill="black"/>
<path id="Vector_13" d="M8.57183 26.551H4.28589V28.4255H8.57183V26.551Z" fill="black"/>
<path id="Vector_14" d="M2.14219 15.3H0V24.6752H2.14219V20.9248V15.3Z" fill="black"/>
<path id="Vector_15" d="M25.7142 26.551H21.4282V28.4255H25.7142V26.551Z" fill="black"/>
<path id="Vector_16" d="M21.428 28.4255H8.57178V30.3H21.428V28.4255Z" fill="black"/>
<path id="Vector_17" d="M6.42808 11.5496H4.28589V13.4241H6.42808V11.5496Z" fill="black"/>
<path id="Vector_18" d="M23.5704 9.67517H21.4282V11.5497H23.5704V9.67517Z" fill="black"/>
<path id="Vector_19" d="M27.8563 13.4255H25.7141V15.3H27.8563V13.4255Z" fill="black"/>
<path id="Vector_20" d="M4.28428 13.4255H2.14209V15.3H4.28428V13.4255Z" fill="black"/>
<path id="Vector_21" d="M8.57041 9.67517H6.42822V11.5497H8.57041V9.67517Z" fill="black"/>
<path id="Vector_22" d="M10.714 5.92484V4.05035V2.1745H8.57178V9.67518H10.714V5.92484Z" fill="black"/>
<path id="Vector_23" d="M19.2859 5.92484V9.67518H21.4281V2.1745H19.2859V4.05035V5.92484Z" fill="black"/>
<path id="Vector_24" d="M25.7125 11.5496H23.5703V13.4241H25.7125V11.5496Z" fill="black"/>
<path id="Vector_25" d="M19.286 0.299988H10.7141V2.17448H19.286V0.299988Z" fill="black"/>
<path id="Vector_26" d="M27.8563 24.6752H25.7141V26.5497H27.8563V24.6752Z" fill="black"/>
<path id="Vector_27" d="M27.8562 20.9248V24.6752H29.9999V15.3H27.8562V20.9248Z" fill="black"/>
<path id="Vector_28" d="M8.57183 15.3V13.4255H10.714V11.5496H12.8562V7.80065H17.1421V11.5496H19.2859V13.4255H21.4281V15.3H25.714V13.4255H23.5703V11.5496H21.4281V9.67514H19.2859V5.9248H10.714V9.67514H8.57183V11.5496H6.42808V13.4255H4.28589V15.3H8.57183Z" fill="#62D2D6"/>
<path id="Vector_29" d="M4.28428 15.3H2.14209V20.9248H4.28428V15.3Z" fill="#C40808"/>
<path id="Vector_30" d="M21.428 24.6752H8.57178V26.5497H21.428V24.6752Z" fill="#C40808"/>
<path id="Vector_31" d="M25.7125 22.8007H23.5703V24.6752H25.7125V22.8007Z" fill="#C40808"/>
<path id="Vector_32" d="M6.42808 22.8007H4.28589V24.6752H6.42808V22.8007Z" fill="#C40808"/>
<path id="Vector_33" d="M27.8563 15.3H25.7141V20.9248H27.8563V15.3Z" fill="#C40808"/>
</g>
<defs>
<clipPath id="clip0_1202_92976">
<rect width="30" height="30" fill="white" transform="translate(0 0.299988)"/>
</clipPath>
</defs>
</svg>
