<svg width="30" height="31" viewBox="0 0 30 31" fill="none" xmlns="http://www.w3.org/2000/svg">
<g id="_&#195;&#131;&#226;&#128;&#152;&#195;&#131;&#194;&#171;&#195;&#131;&#194;&#174;&#195;&#131;&#194;&#169;_1" clip-path="url(#clip0_1202_93011)">
<path id="Vector" d="M21.428 15.02V13.1455H19.2858V11.2697H17.1421V7.52069H12.8562V11.2697H10.714V13.1455H8.57178V15.02H19.2858H21.428Z" fill="#A8E5F0"/>
<path id="Vector_2" d="M19.286 3.77039H10.7141V5.64488H19.286V3.77039Z" fill="#000001"/>
<path id="Vector_3" d="M19.286 1.89453H10.7141V3.76902H19.286V1.89453Z" fill="#261918"/>
<path id="Vector_4" d="M23.5704 16.8959H21.4282V20.6462H23.5704V16.8959Z" fill="white"/>
<path id="Vector_5" d="M21.4281 15.02H19.2859V16.8945H21.4281V15.02Z" fill="white"/>
<path id="Vector_6" d="M21.428 28.1455H8.57178V30.02H21.428V28.1455Z" fill="black"/>
<path id="Vector_7" d="M4.28428 24.3952H2.14209V26.2697H4.28428V24.3952Z" fill="black"/>
<path id="Vector_8" d="M25.7142 26.2711H21.4282V28.1455H25.7142V26.2711Z" fill="black"/>
<path id="Vector_9" d="M27.8563 24.3952H25.7141V26.2697H27.8563V24.3952Z" fill="black"/>
<path id="Vector_10" d="M8.57183 26.2711H4.28589V28.1455H8.57183V26.2711Z" fill="black"/>
<path id="Vector_11" d="M27.8562 20.6448V24.3952H29.9999V15.02H27.8562V20.6448Z" fill="black"/>
<path id="Vector_12" d="M25.7125 11.2697H23.5703V13.1441H25.7125V11.2697Z" fill="black"/>
<path id="Vector_13" d="M23.5704 9.3952H21.4282V11.2697H23.5704V9.3952Z" fill="black"/>
<path id="Vector_14" d="M19.286 0.0200195H10.7141V1.89451H19.286V0.0200195Z" fill="black"/>
<path id="Vector_15" d="M27.8563 13.1455H25.7141V15.02H27.8563V13.1455Z" fill="black"/>
<path id="Vector_16" d="M19.2859 5.64487V9.39521H21.4281V1.89453H19.2859V3.77038V5.64487Z" fill="black"/>
<path id="Vector_17" d="M10.714 5.64487V3.77038V1.89453H8.57178V9.39521H10.714V5.64487Z" fill="black"/>
<path id="Vector_18" d="M2.14219 15.02H0V24.3952H2.14219V20.6448V15.02Z" fill="black"/>
<path id="Vector_19" d="M4.28428 13.1455H2.14209V15.02H4.28428V13.1455Z" fill="black"/>
<path id="Vector_20" d="M6.42808 11.2697H4.28589V13.1441H6.42808V11.2697Z" fill="black"/>
<path id="Vector_21" d="M8.57041 9.3952H6.42822V11.2697H8.57041V9.3952Z" fill="black"/>
<path id="Vector_22" d="M8.57183 15.02V13.1455H10.714V11.2697H12.8562V7.52069H17.1421V11.2697H19.2859V13.1455H21.4281V15.02H25.714V13.1455H23.5703V11.2697H21.4281V9.39518H19.2859V5.64484H10.714V9.39518H8.57183V11.2697H6.42808V13.1455H4.28589V15.02H8.57183Z" fill="#62D2D6"/>
<path id="Vector_23" d="M21.428 24.3952H8.57178V26.2697H21.428V24.3952Z" fill="#0096D5"/>
<path id="Vector_24" d="M27.8563 15.02H25.7141V20.6448H27.8563V15.02Z" fill="#0096D5"/>
<path id="Vector_25" d="M6.42808 22.5207H4.28589V24.3952H6.42808V22.5207Z" fill="#0096D5"/>
<path id="Vector_26" d="M4.28428 15.02H2.14209V20.6448H4.28428V15.02Z" fill="#0096D5"/>
<path id="Vector_27" d="M25.7125 22.5207H23.5703V24.3952H25.7125V22.5207Z" fill="#0096D5"/>
<path id="Vector_28" d="M21.4281 15.02V16.8959H23.5703V20.6448H21.4281V16.8959H19.2859V15.02H8.57183H4.28589V20.6448V22.5207H6.42808V24.3952H8.57183H21.4281H23.5703V22.5207H25.714V20.6448V15.02H21.4281Z" fill="#0096D5"/>
<path id="Vector_29" d="M23.5704 24.3952H21.4282V26.2711H25.7142V24.3952H23.5704Z" fill="#1A5672"/>
<path id="Vector_30" d="M25.7141 20.6448V22.5207V24.3952H27.8563V20.6448H25.7141Z" fill="#1A5672"/>
<path id="Vector_31" d="M21.428 26.2711H8.57178V28.1455H21.428V26.2711Z" fill="#1A5672"/>
<path id="Vector_32" d="M8.57183 24.3952H6.42808H4.28589V26.2711H8.57183V24.3952Z" fill="#1A5672"/>
<path id="Vector_33" d="M4.28583 22.5207V20.6448H2.14209V24.3952H4.28583V22.5207Z" fill="#1A5672"/>
</g>
<defs>
<clipPath id="clip0_1202_93011">
<rect width="30" height="30" fill="white" transform="translate(0 0.0200195)"/>
</clipPath>
</defs>
</svg>
