<svg width="36" height="36" viewBox="0 0 36 36" fill="none" xmlns="http://www.w3.org/2000/svg">
<g style="mix-blend-mode:multiply">
<rect x="2" y="2" width="32" height="32" rx="16" fill="#F4EBFF"/>
<g clip-path="url(#clip0_5450_399447)">
<path d="M11.334 18L17.7621 21.2141C17.8496 21.2578 17.8933 21.2797 17.9392 21.2883C17.9798 21.2959 18.0215 21.2959 18.0621 21.2883C18.108 21.2797 18.1517 21.2578 18.2392 21.2141L24.6673 18M11.334 21.3333L17.7621 24.5474C17.8496 24.5911 17.8933 24.613 17.9392 24.6216C17.9798 24.6292 18.0215 24.6292 18.0621 24.6216C18.108 24.613 18.1517 24.5911 18.2392 24.5474L24.6673 21.3333M11.334 14.6667L17.7621 11.4526C17.8496 11.4089 17.8933 11.387 17.9392 11.3784C17.9798 11.3708 18.0215 11.3708 18.0621 11.3784C18.108 11.387 18.1517 11.4089 18.2392 11.4526L24.6673 14.6667L18.2392 17.8807C18.1517 17.9245 18.108 17.9463 18.0621 17.9549C18.0215 17.9626 17.9798 17.9626 17.9392 17.9549C17.8933 17.9463 17.8496 17.9245 17.7621 17.8807L11.334 14.6667Z" stroke="#7F56D9" stroke-width="1.33333" stroke-linecap="round" stroke-linejoin="round"/>
</g>
<rect x="2" y="2" width="32" height="32" rx="16" stroke="#F9F5FF" stroke-width="4"/>
</g>
<defs>
<clipPath id="clip0_5450_399447">
<rect width="16" height="16" fill="white" transform="translate(10 10)"/>
</clipPath>
</defs>
</svg>
