<svg width="255" height="183" viewBox="0 0 255 183" fill="none" xmlns="http://www.w3.org/2000/svg">
<path d="M29.5086 174.852H22.25V182.1H29.5086V174.852Z" fill="#440108"/>
<path d="M36.7674 174.852H29.5088V182.1H36.7674V174.852Z" fill="#440108"/>
<path d="M44.0262 174.852H36.7676V182.1H44.0262V174.852Z" fill="#440108"/>
<path d="M51.2845 174.852H44.0259V182.1H51.2845V174.852Z" fill="#440108"/>
<path d="M58.5433 174.852H51.2847V182.1H58.5433V174.852Z" fill="#440108"/>
<path d="M65.8021 174.852H58.5435V182.1H65.8021V174.852Z" fill="#440108"/>
<path d="M73.0599 174.852H65.8013V182.1H73.0599V174.852Z" fill="#440108"/>
<path d="M80.3187 174.852H73.0601V182.1H80.3187V174.852Z" fill="#440108"/>
<path d="M87.577 174.852H80.3184V182.1H87.577V174.852Z" fill="#440108"/>
<path d="M94.8363 174.852H87.5776V182.1H94.8363V174.852Z" fill="#440108"/>
<path d="M102.095 174.852H94.8359V182.1H102.095V174.852Z" fill="#440108"/>
<path d="M109.353 174.852H102.095V182.1H109.353V174.852Z" fill="#440108"/>
<path d="M116.612 174.852H109.354V182.1H116.612V174.852Z" fill="#440108"/>
<path d="M123.87 174.852H116.612V182.1H123.87V174.852Z" fill="#440108"/>
<path d="M131.129 174.852H123.871V182.1H131.129V174.852Z" fill="#440108"/>
<path d="M138.388 174.852H131.129V182.1H138.388V174.852Z" fill="#440108"/>
<path d="M145.647 174.852H138.388V182.1H145.647V174.852Z" fill="#440108"/>
<path d="M152.905 174.852H145.646V182.1H152.905V174.852Z" fill="#440108"/>
<path d="M160.164 174.852H152.905V182.1H160.164V174.852Z" fill="#440108"/>
<path d="M167.423 174.852H160.164V182.1H167.423V174.852Z" fill="#440108"/>
<path d="M174.681 174.852H167.423V182.1H174.681V174.852Z" fill="#440108"/>
<path d="M181.94 174.852H174.682V182.1H181.94V174.852Z" fill="#440108"/>
<path d="M189.199 174.852H181.94V182.1H189.199V174.852Z" fill="#440108"/>
<path d="M196.457 174.852H189.199V182.1H196.457V174.852Z" fill="#440108"/>
<path d="M203.715 174.852H196.457V182.1H203.715V174.852Z" fill="#440108"/>
<path d="M210.974 174.852H203.715V182.1H210.974V174.852Z" fill="#440108"/>
<path d="M218.233 174.852H210.974V182.1H218.233V174.852Z" fill="#440108"/>
<path d="M225.491 174.852H218.232V182.1H225.491V174.852Z" fill="#440108"/>
<path d="M232.75 174.852H225.491V182.1H232.75V174.852Z" fill="#440108"/>
<path d="M29.5086 167.604H22.25V174.851H29.5086V167.604Z" fill="#843800"/>
<path d="M22.2503 167.604H14.9917V174.851H22.2503V167.604Z" fill="#440108"/>
<path d="M36.7674 167.604H29.5088V174.851H36.7674V167.604Z" fill="#843800"/>
<path d="M44.0262 167.604H36.7676V174.851H44.0262V167.604Z" fill="#843800"/>
<path d="M51.2845 167.604H44.0259V174.851H51.2845V167.604Z" fill="#843800"/>
<path d="M58.5433 167.604H51.2847V174.851H58.5433V167.604Z" fill="#843800"/>
<path d="M65.8021 167.604H58.5435V174.851H65.8021V167.604Z" fill="#843800"/>
<path d="M73.0599 167.604H65.8013V174.851H73.0599V167.604Z" fill="#843800"/>
<path d="M80.3187 167.604H73.0601V174.851H80.3187V167.604Z" fill="#440108"/>
<path d="M87.577 167.604H80.3184V174.851H87.577V167.604Z" fill="#843800"/>
<path d="M94.8363 167.604H87.5776V174.851H94.8363V167.604Z" fill="#843800"/>
<path d="M102.095 167.604H94.8359V174.851H102.095V167.604Z" fill="#843800"/>
<path d="M109.353 167.604H102.095V174.851H109.353V167.604Z" fill="#843800"/>
<path d="M116.612 167.604H109.354V174.851H116.612V167.604Z" fill="#843800"/>
<path d="M123.87 167.604H116.612V174.851H123.87V167.604Z" fill="#843800"/>
<path d="M131.129 167.604H123.871V174.851H131.129V167.604Z" fill="#843800"/>
<path d="M138.388 167.604H131.129V174.851H138.388V167.604Z" fill="#843800"/>
<path d="M145.647 167.604H138.388V174.851H145.647V167.604Z" fill="#843800"/>
<path d="M152.905 167.604H145.646V174.851H152.905V167.604Z" fill="#843800"/>
<path d="M160.164 167.604H152.905V174.851H160.164V167.604Z" fill="#843800"/>
<path d="M167.423 167.604H160.164V174.851H167.423V167.604Z" fill="#843800"/>
<path d="M174.681 167.604H167.423V174.851H174.681V167.604Z" fill="#843800"/>
<path d="M181.94 167.604H174.682V174.851H181.94V167.604Z" fill="#440108"/>
<path d="M189.199 167.604H181.94V174.851H189.199V167.604Z" fill="#843800"/>
<path d="M196.457 167.604H189.199V174.851H196.457V167.604Z" fill="#843800"/>
<path d="M203.715 167.604H196.457V174.851H203.715V167.604Z" fill="#843800"/>
<path d="M210.974 167.604H203.715V174.851H210.974V167.604Z" fill="#843800"/>
<path d="M218.233 167.604H210.974V174.851H218.233V167.604Z" fill="#843800"/>
<path d="M225.491 167.604H218.232V174.851H225.491V167.604Z" fill="#843800"/>
<path d="M232.75 167.604H225.491V174.851H232.75V167.604Z" fill="#843800"/>
<path d="M240.009 167.604H232.75V174.851H240.009V167.604Z" fill="#440108"/>
<path d="M29.5086 160.355H22.25V167.603H29.5086V160.355Z" fill="#994500"/>
<path d="M22.2503 160.355H14.9917V167.603H22.2503V160.355Z" fill="#440108"/>
<path d="M36.7674 160.355H29.5088V167.603H36.7674V160.355Z" fill="#843800"/>
<path d="M44.0262 160.355H36.7676V167.603H44.0262V160.355Z" fill="#843800"/>
<path d="M51.2845 160.355H44.0259V167.603H51.2845V160.355Z" fill="#994500"/>
<path d="M58.5433 160.355H51.2847V167.603H58.5433V160.355Z" fill="#994500"/>
<path d="M65.8021 160.355H58.5435V167.603H65.8021V160.355Z" fill="#994500"/>
<path d="M73.0599 160.355H65.8013V167.603H73.0599V160.355Z" fill="#994500"/>
<path d="M80.3187 160.355H73.0601V167.603H80.3187V160.355Z" fill="#440108"/>
<path d="M87.577 160.355H80.3184V167.603H87.577V160.355Z" fill="#994500"/>
<path d="M94.8363 160.355H87.5776V167.603H94.8363V160.355Z" fill="#994500"/>
<path d="M102.095 160.355H94.8359V167.603H102.095V160.355Z" fill="#843800"/>
<path d="M109.353 160.355H102.095V167.603H109.353V160.355Z" fill="#843800"/>
<path d="M116.612 160.355H109.354V167.603H116.612V160.355Z" fill="#994500"/>
<path d="M123.87 160.355H116.612V167.603H123.87V160.355Z" fill="#994500"/>
<path d="M131.129 160.355H123.871V167.603H131.129V160.355Z" fill="#843800"/>
<path d="M138.388 160.355H131.129V167.603H138.388V160.355Z" fill="#843800"/>
<path d="M145.647 160.355H138.388V167.603H145.647V160.355Z" fill="#994500"/>
<path d="M152.905 160.355H145.646V167.603H152.905V160.355Z" fill="#994500"/>
<path d="M160.164 160.355H152.905V167.603H160.164V160.355Z" fill="#994500"/>
<path d="M167.423 160.355H160.164V167.603H167.423V160.355Z" fill="#843800"/>
<path d="M174.681 160.355H167.423V167.603H174.681V160.355Z" fill="#843800"/>
<path d="M181.94 160.355H174.682V167.603H181.94V160.355Z" fill="#440108"/>
<path d="M189.199 160.355H181.94V167.603H189.199V160.355Z" fill="#994500"/>
<path d="M196.457 160.355H189.199V167.603H196.457V160.355Z" fill="#994500"/>
<path d="M203.715 160.355H196.457V167.603H203.715V160.355Z" fill="#843800"/>
<path d="M210.974 160.355H203.715V167.603H210.974V160.355Z" fill="#843800"/>
<path d="M218.233 160.355H210.974V167.603H218.233V160.355Z" fill="#994500"/>
<path d="M225.491 160.355H218.232V167.603H225.491V160.355Z" fill="#994500"/>
<path d="M232.75 160.355H225.491V167.603H232.75V160.355Z" fill="#994500"/>
<path d="M240.009 160.355H232.75V167.603H240.009V160.355Z" fill="#440108"/>
<path d="M29.5086 153.107H22.25V160.355H29.5086V153.107Z" fill="#994500"/>
<path d="M22.2503 153.107H14.9917V160.355H22.2503V153.107Z" fill="#440108"/>
<path d="M36.7674 153.107H29.5088V160.355H36.7674V153.107Z" fill="#994500"/>
<path d="M44.0262 153.107H36.7676V160.355H44.0262V153.107Z" fill="#994500"/>
<path d="M51.2845 153.107H44.0259V160.355H51.2845V153.107Z" fill="#994500"/>
<path d="M58.5433 153.107H51.2847V160.355H58.5433V153.107Z" fill="#994500"/>
<path d="M65.8021 153.107H58.5435V160.355H65.8021V153.107Z" fill="#994500"/>
<path d="M73.0599 153.107H65.8013V160.355H73.0599V153.107Z" fill="#994500"/>
<path d="M80.3187 153.107H73.0601V160.355H80.3187V153.107Z" fill="#440108"/>
<path d="M87.577 153.107H80.3184V160.355H87.577V153.107Z" fill="#843800"/>
<path d="M94.8363 153.107H87.5776V160.355H94.8363V153.107Z" fill="#843800"/>
<path d="M102.095 153.107H94.8359V160.355H102.095V153.107Z" fill="#843800"/>
<path d="M109.353 153.107H102.095V160.355H109.353V153.107Z" fill="#994500"/>
<path d="M116.612 153.107H109.354V160.355H116.612V153.107Z" fill="#994500"/>
<path d="M123.87 153.107H116.612V160.355H123.87V153.107Z" fill="#994500"/>
<path d="M131.129 153.107H123.871V160.355H131.129V153.107Z" fill="#994500"/>
<path d="M138.388 153.107H131.129V160.355H138.388V153.107Z" fill="#994500"/>
<path d="M145.647 153.107H138.388V160.355H145.647V153.107Z" fill="#994500"/>
<path d="M152.905 153.107H145.646V160.355H152.905V153.107Z" fill="#994500"/>
<path d="M160.164 153.107H152.905V160.355H160.164V153.107Z" fill="#843800"/>
<path d="M167.423 153.107H160.164V160.355H167.423V153.107Z" fill="#843800"/>
<path d="M174.681 153.107H167.423V160.355H174.681V153.107Z" fill="#994500"/>
<path d="M181.94 153.107H174.682V160.355H181.94V153.107Z" fill="#440108"/>
<path d="M189.199 153.107H181.94V160.355H189.199V153.107Z" fill="#994500"/>
<path d="M196.457 153.107H189.199V160.355H196.457V153.107Z" fill="#994500"/>
<path d="M203.715 153.107H196.457V160.355H203.715V153.107Z" fill="#994500"/>
<path d="M210.974 153.107H203.715V160.355H210.974V153.107Z" fill="#843800"/>
<path d="M218.233 153.107H210.974V160.355H218.233V153.107Z" fill="#843800"/>
<path d="M225.491 153.107H218.232V160.355H225.491V153.107Z" fill="#994500"/>
<path d="M232.75 153.107H225.491V160.355H232.75V153.107Z" fill="#994500"/>
<path d="M240.009 153.107H232.75V160.355H240.009V153.107Z" fill="#440108"/>
<path d="M29.5086 145.86H22.25V153.108H29.5086V145.86Z" fill="#994500"/>
<path d="M22.2503 145.86H14.9917V153.108H22.2503V145.86Z" fill="#440108"/>
<path d="M36.7674 145.86H29.5088V153.108H36.7674V145.86Z" fill="#994500"/>
<path d="M44.0262 145.86H36.7676V153.108H44.0262V145.86Z" fill="#843800"/>
<path d="M51.2845 145.86H44.0259V153.108H51.2845V145.86Z" fill="#843800"/>
<path d="M58.5433 145.86H51.2847V153.108H58.5433V145.86Z" fill="#843800"/>
<path d="M65.8021 145.86H58.5435V153.108H65.8021V145.86Z" fill="#994500"/>
<path d="M73.0599 145.86H65.8013V153.108H73.0599V145.86Z" fill="#994500"/>
<path d="M80.3187 145.86H73.0601V153.108H80.3187V145.86Z" fill="#440108"/>
<path d="M87.577 145.86H80.3184V153.108H87.577V145.86Z" fill="#994500"/>
<path d="M94.8363 145.86H87.5776V153.108H94.8363V145.86Z" fill="#994500"/>
<path d="M102.095 145.86H94.8359V153.108H102.095V145.86Z" fill="#994500"/>
<path d="M109.353 145.86H102.095V153.108H109.353V145.86Z" fill="#994500"/>
<path d="M116.612 145.86H109.354V153.108H116.612V145.86Z" fill="#6A6C7B"/>
<path d="M123.87 145.86H116.612V153.108H123.87V145.86Z" fill="#6A6C7B"/>
<path d="M131.129 145.86H123.871V153.108H131.129V145.86Z" fill="#6A6C7B"/>
<path d="M138.388 145.86H131.129V153.108H138.388V145.86Z" fill="#6A6C7B"/>
<path d="M145.647 145.86H138.388V153.108H145.647V145.86Z" fill="#6A6C7B"/>
<path d="M152.905 145.86H145.646V153.108H152.905V145.86Z" fill="#994500"/>
<path d="M160.164 145.86H152.905V153.108H160.164V145.86Z" fill="#994500"/>
<path d="M167.423 145.86H160.164V153.108H167.423V145.86Z" fill="#994500"/>
<path d="M174.681 145.86H167.423V153.108H174.681V145.86Z" fill="#994500"/>
<path d="M181.94 145.86H174.682V153.108H181.94V145.86Z" fill="#440108"/>
<path d="M189.199 145.86H181.94V153.108H189.199V145.86Z" fill="#994500"/>
<path d="M196.457 145.86H189.199V153.108H196.457V145.86Z" fill="#994500"/>
<path d="M203.715 145.86H196.457V153.108H203.715V145.86Z" fill="#994500"/>
<path d="M210.974 145.86H203.715V153.108H210.974V145.86Z" fill="#994500"/>
<path d="M218.233 145.86H210.974V153.108H218.233V145.86Z" fill="#994500"/>
<path d="M225.491 145.86H218.232V153.108H225.491V145.86Z" fill="#994500"/>
<path d="M232.75 145.86H225.491V153.108H232.75V145.86Z" fill="#994500"/>
<path d="M240.009 145.86H232.75V153.108H240.009V145.86Z" fill="#440108"/>
<path d="M29.5086 138.611H22.25V145.859H29.5086V138.611Z" fill="#843800"/>
<path d="M22.2503 138.611H14.9917V145.859H22.2503V138.611Z" fill="#440108"/>
<path d="M36.7674 138.611H29.5088V145.859H36.7674V138.611Z" fill="#843800"/>
<path d="M44.0262 138.611H36.7676V145.859H44.0262V138.611Z" fill="#843800"/>
<path d="M51.2845 138.611H44.0259V145.859H51.2845V138.611Z" fill="#843800"/>
<path d="M58.5433 138.611H51.2847V145.859H58.5433V138.611Z" fill="#994500"/>
<path d="M65.8021 138.611H58.5435V145.859H65.8021V138.611Z" fill="#994500"/>
<path d="M73.0599 138.611H65.8013V145.859H73.0599V138.611Z" fill="#843800"/>
<path d="M80.3187 138.611H73.0601V145.859H80.3187V138.611Z" fill="#440108"/>
<path d="M87.577 138.611H80.3184V145.859H87.577V138.611Z" fill="#843800"/>
<path d="M94.8363 138.611H87.5776V145.859H94.8363V138.611Z" fill="#843800"/>
<path d="M102.095 138.611H94.8359V145.859H102.095V138.611Z" fill="#994500"/>
<path d="M109.353 138.611H102.095V145.859H109.353V138.611Z" fill="#6A6C7B"/>
<path d="M116.612 138.611H109.354V145.859H116.612V138.611Z" fill="#9B9DAA"/>
<path d="M123.87 138.611H116.612V145.859H123.87V138.611Z" fill="#9B9DAA"/>
<path d="M131.129 138.611H123.871V145.859H131.129V138.611Z" fill="#9B9DAA"/>
<path d="M138.388 138.611H131.129V145.859H138.388V138.611Z" fill="#9B9DAA"/>
<path d="M145.647 138.611H138.388V145.859H145.647V138.611Z" fill="#9B9DAA"/>
<path d="M152.905 138.611H145.646V145.859H152.905V138.611Z" fill="#6A6C7B"/>
<path d="M160.164 138.611H152.905V145.859H160.164V138.611Z" fill="#994500"/>
<path d="M167.423 138.611H160.164V145.859H167.423V138.611Z" fill="#843800"/>
<path d="M174.681 138.611H167.423V145.859H174.681V138.611Z" fill="#843800"/>
<path d="M181.94 138.611H174.682V145.859H181.94V138.611Z" fill="#440108"/>
<path d="M189.199 138.611H181.94V145.859H189.199V138.611Z" fill="#843800"/>
<path d="M196.457 138.611H189.199V145.859H196.457V138.611Z" fill="#843800"/>
<path d="M203.715 138.611H196.457V145.859H203.715V138.611Z" fill="#994500"/>
<path d="M210.974 138.611H203.715V145.859H210.974V138.611Z" fill="#994500"/>
<path d="M218.233 138.611H210.974V145.859H218.233V138.611Z" fill="#994500"/>
<path d="M225.491 138.611H218.232V145.859H225.491V138.611Z" fill="#843800"/>
<path d="M232.75 138.611H225.491V145.859H232.75V138.611Z" fill="#843800"/>
<path d="M240.009 138.611H232.75V145.859H240.009V138.611Z" fill="#440108"/>
<path d="M29.5086 131.364H22.25V138.612H29.5086V131.364Z" fill="#994500"/>
<path d="M22.2503 131.364H14.9917V138.612H22.2503V131.364Z" fill="#440108"/>
<path d="M36.7674 131.364H29.5088V138.612H36.7674V131.364Z" fill="#994500"/>
<path d="M44.0262 131.364H36.7676V138.612H44.0262V131.364Z" fill="#994500"/>
<path d="M51.2845 131.364H44.0259V138.612H51.2845V131.364Z" fill="#994500"/>
<path d="M58.5433 131.364H51.2847V138.612H58.5433V131.364Z" fill="#994500"/>
<path d="M65.8021 131.364H58.5435V138.612H65.8021V131.364Z" fill="#994500"/>
<path d="M73.0599 131.364H65.8013V138.612H73.0599V131.364Z" fill="#994500"/>
<path d="M80.3187 131.364H73.0601V138.612H80.3187V131.364Z" fill="#440108"/>
<path d="M87.577 131.364H80.3184V138.612H87.577V131.364Z" fill="#994500"/>
<path d="M94.8363 131.364H87.5776V138.612H94.8363V131.364Z" fill="#994500"/>
<path d="M102.095 131.364H94.8359V138.612H102.095V131.364Z" fill="#994500"/>
<path d="M109.353 131.364H102.095V138.612H109.353V131.364Z" fill="#6A6C7B"/>
<path d="M116.612 131.364H109.354V138.612H116.612V131.364Z" fill="#9B9DAA"/>
<path d="M123.87 131.364H116.612V138.612H123.87V131.364Z" fill="#9B9DAA"/>
<path d="M131.129 131.364H123.871V138.612H131.129V131.364Z" fill="#9B9DAA"/>
<path d="M138.388 131.364H131.129V138.612H138.388V131.364Z" fill="#9B9DAA"/>
<path d="M145.647 131.364H138.388V138.612H145.647V131.364Z" fill="#9B9DAA"/>
<path d="M152.905 131.364H145.646V138.612H152.905V131.364Z" fill="#6A6C7B"/>
<path d="M160.164 131.364H152.905V138.612H160.164V131.364Z" fill="#994500"/>
<path d="M167.423 131.364H160.164V138.612H167.423V131.364Z" fill="#994500"/>
<path d="M174.681 131.364H167.423V138.612H174.681V131.364Z" fill="#994500"/>
<path d="M181.94 131.364H174.682V138.612H181.94V131.364Z" fill="#440108"/>
<path d="M189.199 131.364H181.94V138.612H189.199V131.364Z" fill="#994500"/>
<path d="M196.457 131.364H189.199V138.612H196.457V131.364Z" fill="#994500"/>
<path d="M203.715 131.364H196.457V138.612H203.715V131.364Z" fill="#994500"/>
<path d="M210.974 131.364H203.715V138.612H210.974V131.364Z" fill="#994500"/>
<path d="M218.233 131.364H210.974V138.612H218.233V131.364Z" fill="#994500"/>
<path d="M225.491 131.364H218.232V138.612H225.491V131.364Z" fill="#994500"/>
<path d="M232.75 131.364H225.491V138.612H232.75V131.364Z" fill="#994500"/>
<path d="M240.009 131.364H232.75V138.612H240.009V131.364Z" fill="#440108"/>
<path d="M29.5086 124.116H22.25V131.364H29.5086V124.116Z" fill="#440108"/>
<path d="M22.2503 124.116H14.9917V131.364H22.2503V124.116Z" fill="#440108"/>
<path d="M36.7674 124.116H29.5088V131.364H36.7674V124.116Z" fill="#440108"/>
<path d="M44.0262 124.116H36.7676V131.364H44.0262V124.116Z" fill="#440108"/>
<path d="M51.2845 124.116H44.0259V131.364H51.2845V124.116Z" fill="#440108"/>
<path d="M58.5433 124.116H51.2847V131.364H58.5433V124.116Z" fill="#440108"/>
<path d="M65.8021 124.116H58.5435V131.364H65.8021V124.116Z" fill="#440108"/>
<path d="M73.0599 124.116H65.8013V131.364H73.0599V124.116Z" fill="#440108"/>
<path d="M80.3187 124.116H73.0601V131.364H80.3187V124.116Z" fill="#440108"/>
<path d="M87.577 124.116H80.3184V131.364H87.577V124.116Z" fill="#440108"/>
<path d="M94.8363 124.116H87.5776V131.364H94.8363V124.116Z" fill="#440108"/>
<path d="M102.095 124.116H94.8359V131.364H102.095V124.116Z" fill="#440108"/>
<path d="M109.353 124.116H102.095V131.364H109.353V124.116Z" fill="#6A6C7B"/>
<path d="M116.612 124.116H109.354V131.364H116.612V124.116Z" fill="#9B9DAA"/>
<path d="M123.87 124.116H116.612V131.364H123.87V124.116Z" fill="#9B9DAA"/>
<path d="M131.129 124.116H123.871V131.364H131.129V124.116Z" fill="black"/>
<path d="M138.388 124.116H131.129V131.364H138.388V124.116Z" fill="#9B9DAA"/>
<path d="M145.647 124.116H138.388V131.364H145.647V124.116Z" fill="#9B9DAA"/>
<path d="M152.905 124.116H145.646V131.364H152.905V124.116Z" fill="#6A6C7B"/>
<path d="M160.164 124.116H152.905V131.364H160.164V124.116Z" fill="#440108"/>
<path d="M167.423 124.116H160.164V131.364H167.423V124.116Z" fill="#440108"/>
<path d="M174.681 124.116H167.423V131.364H174.681V124.116Z" fill="#440108"/>
<path d="M181.94 124.116H174.682V131.364H181.94V124.116Z" fill="#440108"/>
<path d="M189.199 124.116H181.94V131.364H189.199V124.116Z" fill="#440108"/>
<path d="M196.457 124.116H189.199V131.364H196.457V124.116Z" fill="#440108"/>
<path d="M203.715 124.116H196.457V131.364H203.715V124.116Z" fill="#440108"/>
<path d="M210.974 124.116H203.715V131.364H210.974V124.116Z" fill="#440108"/>
<path d="M218.233 124.116H210.974V131.364H218.233V124.116Z" fill="#440108"/>
<path d="M225.491 124.116H218.232V131.364H225.491V124.116Z" fill="#440108"/>
<path d="M232.75 124.116H225.491V131.364H232.75V124.116Z" fill="#440108"/>
<path d="M240.009 124.116H232.75V131.364H240.009V124.116Z" fill="#440108"/>
<path d="M29.5086 116.868H22.25V124.116H29.5086V116.868Z" fill="#440108"/>
<path d="M22.2503 116.868H14.9917V124.116H22.2503V116.868Z" fill="#440108"/>
<path d="M36.7674 116.868H29.5088V124.116H36.7674V116.868Z" fill="#440108"/>
<path d="M44.0262 116.868H36.7676V124.116H44.0262V116.868Z" fill="#440108"/>
<path d="M51.2845 116.868H44.0259V124.116H51.2845V116.868Z" fill="#EE8600"/>
<path d="M58.5433 116.868H51.2847V124.116H58.5433V116.868Z" fill="#EE8600"/>
<path d="M65.8021 116.868H58.5435V124.116H65.8021V116.868Z" fill="#EE8600"/>
<path d="M73.0599 116.868H65.8013V124.116H73.0599V116.868Z" fill="#EE8600"/>
<path d="M80.3187 116.868H73.0601V124.116H80.3187V116.868Z" fill="#440108"/>
<path d="M87.577 116.868H80.3184V124.116H87.577V116.868Z" fill="#440108"/>
<path d="M94.8363 116.868H87.5776V124.116H94.8363V116.868Z" fill="#440108"/>
<path d="M102.095 116.868H94.8359V124.116H102.095V116.868Z" fill="#440108"/>
<path d="M109.353 116.868H102.095V124.116H109.353V116.868Z" fill="#9B9DAA"/>
<path d="M116.612 116.868H109.354V124.116H116.612V116.868Z" fill="#9B9DAA"/>
<path d="M123.87 116.868H116.612V124.116H123.87V116.868Z" fill="#9B9DAA"/>
<path d="M131.129 116.868H123.871V124.116H131.129V116.868Z" fill="black"/>
<path d="M138.388 116.868H131.129V124.116H138.388V116.868Z" fill="#9B9DAA"/>
<path d="M145.647 116.868H138.388V124.116H145.647V116.868Z" fill="#9B9DAA"/>
<path d="M152.905 116.868H145.646V124.116H152.905V116.868Z" fill="#9B9DAA"/>
<path d="M160.164 116.868H152.905V124.116H160.164V116.868Z" fill="#440108"/>
<path d="M167.423 116.868H160.164V124.116H167.423V116.868Z" fill="#440108"/>
<path d="M174.681 116.868H167.423V124.116H174.681V116.868Z" fill="#440108"/>
<path d="M181.94 116.868H174.682V124.116H181.94V116.868Z" fill="#440108"/>
<path d="M189.199 116.868H181.94V124.116H189.199V116.868Z" fill="#EE8600"/>
<path d="M196.457 116.868H189.199V124.116H196.457V116.868Z" fill="#EE8600"/>
<path d="M203.715 116.868H196.457V124.116H203.715V116.868Z" fill="#EE8600"/>
<path d="M210.974 116.868H203.715V124.116H210.974V116.868Z" fill="#EE8600"/>
<path d="M218.233 116.868H210.974V124.116H218.233V116.868Z" fill="#440108"/>
<path d="M225.491 116.868H218.232V124.116H225.491V116.868Z" fill="#440108"/>
<path d="M232.75 116.868H225.491V124.116H232.75V116.868Z" fill="#440108"/>
<path d="M240.009 116.868H232.75V124.116H240.009V116.868Z" fill="#440108"/>
<path d="M29.5086 109.62H22.25V116.868H29.5086V109.62Z" fill="#B25900"/>
<path d="M22.2503 109.62H14.9917V116.868H22.2503V109.62Z" fill="#B25900"/>
<path d="M36.7674 109.62H29.5088V116.868H36.7674V109.62Z" fill="#B25900"/>
<path d="M44.0262 109.62H36.7676V116.868H44.0262V109.62Z" fill="#B25900"/>
<path d="M51.2845 109.62H44.0259V116.868H51.2845V109.62Z" fill="#EE8600"/>
<path d="M58.5433 109.62H51.2847V116.868H58.5433V109.62Z" fill="#EE8600"/>
<path d="M65.8021 109.62H58.5435V116.868H65.8021V109.62Z" fill="#EE8600"/>
<path d="M73.0599 109.62H65.8013V116.868H73.0599V109.62Z" fill="#EE8600"/>
<path d="M80.3187 109.62H73.0601V116.868H80.3187V109.62Z" fill="#B25900"/>
<path d="M87.577 109.62H80.3184V116.868H87.577V109.62Z" fill="#B25900"/>
<path d="M94.8363 109.62H87.5776V116.868H94.8363V109.62Z" fill="#B25900"/>
<path d="M102.095 109.62H94.8359V116.868H102.095V109.62Z" fill="#B25900"/>
<path d="M109.353 109.62H102.095V116.868H109.353V109.62Z" fill="#9B9DAA"/>
<path d="M116.612 109.62H109.354V116.868H116.612V109.62Z" fill="#9B9DAA"/>
<path d="M123.87 109.62H116.612V116.868H123.87V109.62Z" fill="black"/>
<path d="M131.129 109.62H123.871V116.868H131.129V109.62Z" fill="black"/>
<path d="M138.388 109.62H131.129V116.868H138.388V109.62Z" fill="black"/>
<path d="M145.647 109.62H138.388V116.868H145.647V109.62Z" fill="#9B9DAA"/>
<path d="M152.905 109.62H145.646V116.868H152.905V109.62Z" fill="#9B9DAA"/>
<path d="M160.164 109.62H152.905V116.868H160.164V109.62Z" fill="#B25900"/>
<path d="M167.423 109.62H160.164V116.868H167.423V109.62Z" fill="#B25900"/>
<path d="M174.681 109.62H167.423V116.868H174.681V109.62Z" fill="#B25900"/>
<path d="M181.94 109.62H174.682V116.868H181.94V109.62Z" fill="#B25900"/>
<path d="M189.199 109.62H181.94V116.868H189.199V109.62Z" fill="#EE8600"/>
<path d="M196.457 109.62H189.199V116.868H196.457V109.62Z" fill="#EE8600"/>
<path d="M203.715 109.62H196.457V116.868H203.715V109.62Z" fill="#EE8600"/>
<path d="M210.974 109.62H203.715V116.868H210.974V109.62Z" fill="#EE8600"/>
<path d="M218.233 109.62H210.974V116.868H218.233V109.62Z" fill="#B25900"/>
<path d="M225.491 109.62H218.232V116.868H225.491V109.62Z" fill="#B25900"/>
<path d="M232.75 109.62H225.491V116.868H232.75V109.62Z" fill="#B25900"/>
<path d="M240.009 109.62H232.75V116.868H240.009V109.62Z" fill="#B25900"/>
<path d="M29.5086 102.372H22.25V109.62H29.5086V102.372Z" fill="#EE8600"/>
<path d="M22.2503 102.372H14.9917V109.62H22.2503V102.372Z" fill="#EE8600"/>
<path d="M36.7674 102.372H29.5088V109.62H36.7674V102.372Z" fill="#EE8600"/>
<path d="M44.0262 102.372H36.7676V109.62H44.0262V102.372Z" fill="#B25900"/>
<path d="M51.2845 102.372H44.0259V109.62H51.2845V102.372Z" fill="#EE8600"/>
<path d="M58.5433 102.372H51.2847V109.62H58.5433V102.372Z" fill="#EE8600"/>
<path d="M65.8021 102.372H58.5435V109.62H65.8021V102.372Z" fill="#EE8600"/>
<path d="M73.0599 102.372H65.8013V109.62H73.0599V102.372Z" fill="#EE8600"/>
<path d="M80.3187 102.372H73.0601V109.62H80.3187V102.372Z" fill="#B25900"/>
<path d="M87.577 102.372H80.3184V109.62H87.577V102.372Z" fill="#EE8600"/>
<path d="M94.8363 102.372H87.5776V109.62H94.8363V102.372Z" fill="#EE8600"/>
<path d="M102.095 102.372H94.8359V109.62H102.095V102.372Z" fill="#EE8600"/>
<path d="M109.353 102.372H102.095V109.62H109.353V102.372Z" fill="#B6B9C6"/>
<path d="M116.612 102.372H109.354V109.62H116.612V102.372Z" fill="#9B9DAA"/>
<path d="M123.87 102.372H116.612V109.62H123.87V102.372Z" fill="#9B9DAA"/>
<path d="M131.129 102.372H123.871V109.62H131.129V102.372Z" fill="#9B9DAA"/>
<path d="M138.388 102.372H131.129V109.62H138.388V102.372Z" fill="#9B9DAA"/>
<path d="M145.647 102.372H138.388V109.62H145.647V102.372Z" fill="#9B9DAA"/>
<path d="M152.905 102.372H145.646V109.62H152.905V102.372Z" fill="#9B9DAA"/>
<path d="M160.164 102.372H152.905V109.62H160.164V102.372Z" fill="#EE8600"/>
<path d="M167.423 102.372H160.164V109.62H167.423V102.372Z" fill="#EE8600"/>
<path d="M174.681 102.372H167.423V109.62H174.681V102.372Z" fill="#EE8600"/>
<path d="M181.94 102.372H174.682V109.62H181.94V102.372Z" fill="#B25900"/>
<path d="M189.199 102.372H181.94V109.62H189.199V102.372Z" fill="#EE8600"/>
<path d="M196.457 102.372H189.199V109.62H196.457V102.372Z" fill="#EE8600"/>
<path d="M203.715 102.372H196.457V109.62H203.715V102.372Z" fill="#EE8600"/>
<path d="M210.974 102.372H203.715V109.62H210.974V102.372Z" fill="#EE8600"/>
<path d="M218.233 102.372H210.974V109.62H218.233V102.372Z" fill="#B25900"/>
<path d="M225.491 102.372H218.232V109.62H225.491V102.372Z" fill="#EE8600"/>
<path d="M232.75 102.372H225.491V109.62H232.75V102.372Z" fill="#EE8600"/>
<path d="M240.009 102.372H232.75V109.62H240.009V102.372Z" fill="#EE8600"/>
<path d="M29.5086 95.1235H22.25V102.371H29.5086V95.1235Z" fill="#EE8600"/>
<path d="M22.2503 95.1235H14.9917V102.371H22.2503V95.1235Z" fill="#ED9E00"/>
<path d="M36.7674 95.1235H29.5088V102.371H36.7674V95.1235Z" fill="#EE8600"/>
<path d="M44.0262 95.1235H36.7676V102.371H44.0262V95.1235Z" fill="#B25900"/>
<path d="M51.2845 95.1235H44.0259V102.371H51.2845V95.1235Z" fill="#EE8600"/>
<path d="M58.5433 95.1235H51.2847V102.371H58.5433V95.1235Z" fill="#F9AF3C"/>
<path d="M65.8021 95.1235H58.5435V102.371H65.8021V95.1235Z" fill="#EE8600"/>
<path d="M73.0599 95.1235H65.8013V102.371H73.0599V95.1235Z" fill="#F9AF3C"/>
<path d="M80.3187 95.1235H73.0601V102.371H80.3187V95.1235Z" fill="#B25900"/>
<path d="M87.577 95.1235H80.3184V102.371H87.577V95.1235Z" fill="#ED9E00"/>
<path d="M94.8363 95.1235H87.5776V102.371H94.8363V95.1235Z" fill="#ED9E00"/>
<path d="M102.095 95.1235H94.8359V102.371H102.095V95.1235Z" fill="#EE8600"/>
<path d="M109.353 95.1235H102.095V102.371H109.353V95.1235Z" fill="#B6B9C6"/>
<path d="M116.612 95.1235H109.354V102.371H116.612V95.1235Z" fill="#B6B9C6"/>
<path d="M123.87 95.1235H116.612V102.371H123.87V95.1235Z" fill="#B6B9C6"/>
<path d="M131.129 95.1235H123.871V102.371H131.129V95.1235Z" fill="#B6B9C6"/>
<path d="M138.388 95.1235H131.129V102.371H138.388V95.1235Z" fill="#9B9DAA"/>
<path d="M145.647 95.1235H138.388V102.371H145.647V95.1235Z" fill="#9B9DAA"/>
<path d="M152.905 95.1235H145.646V102.371H152.905V95.1235Z" fill="#9B9DAA"/>
<path d="M160.164 95.1235H152.905V102.371H160.164V95.1235Z" fill="#EE8600"/>
<path d="M167.423 95.1235H160.164V102.371H167.423V95.1235Z" fill="#ED9E00"/>
<path d="M174.681 95.1235H167.423V102.371H174.681V95.1235Z" fill="#ED9E00"/>
<path d="M181.94 95.1235H174.682V102.371H181.94V95.1235Z" fill="#B25900"/>
<path d="M189.199 95.1235H181.94V102.371H189.199V95.1235Z" fill="#EE8600"/>
<path d="M196.457 95.1235H189.199V102.371H196.457V95.1235Z" fill="#F9AF3C"/>
<path d="M203.715 95.1235H196.457V102.371H203.715V95.1235Z" fill="#EE8600"/>
<path d="M210.974 95.1235H203.715V102.371H210.974V95.1235Z" fill="#F9AF3C"/>
<path d="M218.233 95.1235H210.974V102.371H218.233V95.1235Z" fill="#B25900"/>
<path d="M225.491 95.1235H218.232V102.371H225.491V95.1235Z" fill="#EE8600"/>
<path d="M232.75 95.1235H225.491V102.371H232.75V95.1235Z" fill="#EE8600"/>
<path d="M240.009 95.1235H232.75V102.371H240.009V95.1235Z" fill="#ED9E00"/>
<path d="M29.5086 87.876H22.25V95.1239H29.5086V87.876Z" fill="#ED9E00"/>
<path d="M22.2503 87.876H14.9917V95.1239H22.2503V87.876Z" fill="#ED9E00"/>
<path d="M36.7674 87.876H29.5088V95.1239H36.7674V87.876Z" fill="#EE8600"/>
<path d="M44.0262 87.876H36.7676V95.1239H44.0262V87.876Z" fill="#B25900"/>
<path d="M51.2845 87.876H44.0259V95.1239H51.2845V87.876Z" fill="#EE8600"/>
<path d="M58.5433 87.876H51.2847V95.1239H58.5433V87.876Z" fill="#F9AF3C"/>
<path d="M65.8021 87.876H58.5435V95.1239H65.8021V87.876Z" fill="#F9AF3C"/>
<path d="M73.0599 87.876H65.8013V95.1239H73.0599V87.876Z" fill="#F9AF3C"/>
<path d="M80.3187 87.876H73.0601V95.1239H80.3187V87.876Z" fill="#B25900"/>
<path d="M87.577 87.876H80.3184V95.1239H87.577V87.876Z" fill="#ED9E00"/>
<path d="M94.8363 87.876H87.5776V95.1239H94.8363V87.876Z" fill="#EE8600"/>
<path d="M102.095 87.876H94.8359V95.1239H102.095V87.876Z" fill="#EE8600"/>
<path d="M109.353 87.876H102.095V95.1239H109.353V87.876Z" fill="#EE8600"/>
<path d="M116.612 87.876H109.354V95.1239H116.612V87.876Z" fill="#F0F4FF"/>
<path d="M123.87 87.876H116.612V95.1239H123.87V87.876Z" fill="#EE8600"/>
<path d="M131.129 87.876H123.871V95.1239H131.129V87.876Z" fill="#EE8600"/>
<path d="M138.388 87.876H131.129V95.1239H138.388V87.876Z" fill="#EE8600"/>
<path d="M145.647 87.876H138.388V95.1239H145.647V87.876Z" fill="#F0F4FF"/>
<path d="M152.905 87.876H145.646V95.1239H152.905V87.876Z" fill="#EE8600"/>
<path d="M160.164 87.876H152.905V95.1239H160.164V87.876Z" fill="#EE8600"/>
<path d="M167.423 87.876H160.164V95.1239H167.423V87.876Z" fill="#EE8600"/>
<path d="M174.681 87.876H167.423V95.1239H174.681V87.876Z" fill="#ED9E00"/>
<path d="M181.94 87.876H174.682V95.1239H181.94V87.876Z" fill="#B25900"/>
<path d="M189.199 87.876H181.94V95.1239H189.199V87.876Z" fill="#EE8600"/>
<path d="M196.457 87.876H189.199V95.1239H196.457V87.876Z" fill="#F9AF3C"/>
<path d="M203.715 87.876H196.457V95.1239H203.715V87.876Z" fill="#F9AF3C"/>
<path d="M210.974 87.876H203.715V95.1239H210.974V87.876Z" fill="#F9AF3C"/>
<path d="M218.233 87.876H210.974V95.1239H218.233V87.876Z" fill="#B25900"/>
<path d="M225.491 87.876H218.232V95.1239H225.491V87.876Z" fill="#EE8600"/>
<path d="M232.75 87.876H225.491V95.1239H232.75V87.876Z" fill="#ED9E00"/>
<path d="M240.009 87.876H232.75V95.1239H240.009V87.876Z" fill="#ED9E00"/>
<path d="M29.5086 80.6279H22.25V87.8759H29.5086V80.6279Z" fill="#ED9E00"/>
<path d="M22.2503 80.6279H14.9917V87.8759H22.2503V80.6279Z" fill="#ED9E00"/>
<path d="M36.7674 80.6279H29.5088V87.8759H36.7674V80.6279Z" fill="#ED9E00"/>
<path d="M44.0262 80.6279H36.7676V87.8759H44.0262V80.6279Z" fill="#B25900"/>
<path d="M51.2845 80.6279H44.0259V87.8759H51.2845V80.6279Z" fill="#F9AF3C"/>
<path d="M58.5433 80.6279H51.2847V87.8759H58.5433V80.6279Z" fill="#F9AF3C"/>
<path d="M65.8021 80.6279H58.5435V87.8759H65.8021V80.6279Z" fill="#F9AF3C"/>
<path d="M73.0599 80.6279H65.8013V87.8759H73.0599V80.6279Z" fill="#FEE762"/>
<path d="M80.3187 80.6279H73.0601V87.8759H80.3187V80.6279Z" fill="#B25900"/>
<path d="M87.577 80.6279H80.3184V87.8759H87.577V80.6279Z" fill="#ED9E00"/>
<path d="M94.8363 80.6279H87.5776V87.8759H94.8363V80.6279Z" fill="#ED9E00"/>
<path d="M102.095 80.6279H94.8359V87.8759H102.095V80.6279Z" fill="#ED9E00"/>
<path d="M109.353 80.6279H102.095V87.8759H109.353V80.6279Z" fill="#ED9E00"/>
<path d="M116.612 80.6279H109.354V87.8759H116.612V80.6279Z" fill="#F0F4FF"/>
<path d="M123.87 80.6279H116.612V87.8759H123.87V80.6279Z" fill="#ED9E00"/>
<path d="M131.129 80.6279H123.871V87.8759H131.129V80.6279Z" fill="#ED9E00"/>
<path d="M138.388 80.6279H131.129V87.8759H138.388V80.6279Z" fill="#ED9E00"/>
<path d="M145.647 80.6279H138.388V87.8759H145.647V80.6279Z" fill="#F0F4FF"/>
<path d="M152.905 80.6279H145.646V87.8759H152.905V80.6279Z" fill="#ED9E00"/>
<path d="M160.164 80.6279H152.905V87.8759H160.164V80.6279Z" fill="#ED9E00"/>
<path d="M167.423 80.6279H160.164V87.8759H167.423V80.6279Z" fill="#ED9E00"/>
<path d="M174.681 80.6279H167.423V87.8759H174.681V80.6279Z" fill="#ED9E00"/>
<path d="M181.94 80.6279H174.682V87.8759H181.94V80.6279Z" fill="#B25900"/>
<path d="M189.199 80.6279H181.94V87.8759H189.199V80.6279Z" fill="#F9AF3C"/>
<path d="M196.457 80.6279H189.199V87.8759H196.457V80.6279Z" fill="#F9AF3C"/>
<path d="M203.715 80.6279H196.457V87.8759H203.715V80.6279Z" fill="#F9AF3C"/>
<path d="M210.974 80.6279H203.715V87.8759H210.974V80.6279Z" fill="#FEE762"/>
<path d="M218.233 80.6279H210.974V87.8759H218.233V80.6279Z" fill="#B25900"/>
<path d="M225.491 80.6279H218.232V87.8759H225.491V80.6279Z" fill="#ED9E00"/>
<path d="M232.75 80.6279H225.491V87.8759H232.75V80.6279Z" fill="#ED9E00"/>
<path d="M240.009 80.6279H232.75V87.8759H240.009V80.6279Z" fill="#ED9E00"/>
<path d="M29.5086 73.3799H22.25V80.6278H29.5086V73.3799Z" fill="#ED9E00"/>
<path d="M22.2503 73.3799H14.9917V80.6278H22.2503V73.3799Z" fill="#ED9E00"/>
<path d="M36.7674 73.3799H29.5088V80.6278H36.7674V73.3799Z" fill="#ED9E00"/>
<path d="M44.0262 73.3799H36.7676V80.6278H44.0262V73.3799Z" fill="#B25900"/>
<path d="M51.2845 73.3799H44.0259V80.6278H51.2845V73.3799Z" fill="#F9AF3C"/>
<path d="M58.5433 73.3799H51.2847V80.6278H58.5433V73.3799Z" fill="#FEE762"/>
<path d="M65.8021 73.3799H58.5435V80.6278H65.8021V73.3799Z" fill="#F9AF3C"/>
<path d="M73.0599 73.3799H65.8013V80.6278H73.0599V73.3799Z" fill="#FEE762"/>
<path d="M80.3187 73.3799H73.0601V80.6278H80.3187V73.3799Z" fill="#B25900"/>
<path d="M87.577 73.3799H80.3184V80.6278H87.577V73.3799Z" fill="#ED9E00"/>
<path d="M94.8363 73.3799H87.5776V80.6278H94.8363V73.3799Z" fill="#ED9E00"/>
<path d="M102.095 73.3799H94.8359V80.6278H102.095V73.3799Z" fill="#ED9E00"/>
<path d="M109.353 73.3799H102.095V80.6278H109.353V73.3799Z" fill="#ED9E00"/>
<path d="M116.612 73.3799H109.354V80.6278H116.612V73.3799Z" fill="#ED9E00"/>
<path d="M123.87 73.3799H116.612V80.6278H123.87V73.3799Z" fill="#F0F4FF"/>
<path d="M131.129 73.3799H123.871V80.6278H131.129V73.3799Z" fill="#F0F4FF"/>
<path d="M138.388 73.3799H131.129V80.6278H138.388V73.3799Z" fill="#F0F4FF"/>
<path d="M145.647 73.3799H138.388V80.6278H145.647V73.3799Z" fill="#ED9E00"/>
<path d="M152.905 73.3799H145.646V80.6278H152.905V73.3799Z" fill="#ED9E00"/>
<path d="M160.164 73.3799H152.905V80.6278H160.164V73.3799Z" fill="#ED9E00"/>
<path d="M167.423 73.3799H160.164V80.6278H167.423V73.3799Z" fill="#ED9E00"/>
<path d="M174.681 73.3799H167.423V80.6278H174.681V73.3799Z" fill="#ED9E00"/>
<path d="M181.94 73.3799H174.682V80.6278H181.94V73.3799Z" fill="#B25900"/>
<path d="M189.199 73.3799H181.94V80.6278H189.199V73.3799Z" fill="#F9AF3C"/>
<path d="M196.457 73.3799H189.199V80.6278H196.457V73.3799Z" fill="#FEE762"/>
<path d="M203.715 73.3799H196.457V80.6278H203.715V73.3799Z" fill="#F9AF3C"/>
<path d="M210.974 73.3799H203.715V80.6278H210.974V73.3799Z" fill="#FEE762"/>
<path d="M218.233 73.3799H210.974V80.6278H218.233V73.3799Z" fill="#B25900"/>
<path d="M225.491 73.3799H218.232V80.6278H225.491V73.3799Z" fill="#ED9E00"/>
<path d="M232.75 73.3799H225.491V80.6278H232.75V73.3799Z" fill="#ED9E00"/>
<path d="M240.009 73.3799H232.75V80.6278H240.009V73.3799Z" fill="#ED9E00"/>
<path d="M29.5086 66.1318H22.25V73.3798H29.5086V66.1318Z" fill="#B25900"/>
<path d="M22.2503 66.1318H14.9917V73.3798H22.2503V66.1318Z" fill="#B25900"/>
<path d="M36.7674 66.1318H29.5088V73.3798H36.7674V66.1318Z" fill="#B25900"/>
<path d="M44.0262 66.1318H36.7676V73.3798H44.0262V66.1318Z" fill="#B25900"/>
<path d="M51.2845 66.1318H44.0259V73.3798H51.2845V66.1318Z" fill="#FEE762"/>
<path d="M58.5433 66.1318H51.2847V73.3798H58.5433V66.1318Z" fill="#FEE762"/>
<path d="M65.8021 66.1318H58.5435V73.3798H65.8021V66.1318Z" fill="#FEE762"/>
<path d="M73.0599 66.1318H65.8013V73.3798H73.0599V66.1318Z" fill="#FEE762"/>
<path d="M80.3187 66.1318H73.0601V73.3798H80.3187V66.1318Z" fill="#B25900"/>
<path d="M87.577 66.1318H80.3184V73.3798H87.577V66.1318Z" fill="#B25900"/>
<path d="M94.8363 66.1318H87.5776V73.3798H94.8363V66.1318Z" fill="#B25900"/>
<path d="M102.095 66.1318H94.8359V73.3798H102.095V66.1318Z" fill="#B25900"/>
<path d="M109.353 66.1318H102.095V73.3798H109.353V66.1318Z" fill="#B25900"/>
<path d="M116.612 66.1318H109.354V73.3798H116.612V66.1318Z" fill="#B25900"/>
<path d="M123.87 66.1318H116.612V73.3798H123.87V66.1318Z" fill="#B25900"/>
<path d="M131.129 66.1318H123.871V73.3798H131.129V66.1318Z" fill="#B25900"/>
<path d="M138.388 66.1318H131.129V73.3798H138.388V66.1318Z" fill="#B25900"/>
<path d="M145.647 66.1318H138.388V73.3798H145.647V66.1318Z" fill="#B25900"/>
<path d="M152.905 66.1318H145.646V73.3798H152.905V66.1318Z" fill="#B25900"/>
<path d="M160.164 66.1318H152.905V73.3798H160.164V66.1318Z" fill="#B25900"/>
<path d="M167.423 66.1318H160.164V73.3798H167.423V66.1318Z" fill="#B25900"/>
<path d="M174.681 66.1318H167.423V73.3798H174.681V66.1318Z" fill="#B25900"/>
<path d="M181.94 66.1318H174.682V73.3798H181.94V66.1318Z" fill="#B25900"/>
<path d="M189.199 66.1318H181.94V73.3798H189.199V66.1318Z" fill="#FEE762"/>
<path d="M196.457 66.1318H189.199V73.3798H196.457V66.1318Z" fill="#FEE762"/>
<path d="M203.715 66.1318H196.457V73.3798H203.715V66.1318Z" fill="#FEE762"/>
<path d="M210.974 66.1318H203.715V73.3798H210.974V66.1318Z" fill="#FEE762"/>
<path d="M218.233 66.1318H210.974V73.3798H218.233V66.1318Z" fill="#B25900"/>
<path d="M225.491 66.1318H218.232V73.3798H225.491V66.1318Z" fill="#B25900"/>
<path d="M232.75 66.1318H225.491V73.3798H232.75V66.1318Z" fill="#B25900"/>
<path d="M240.009 66.1318H232.75V73.3798H240.009V66.1318Z" fill="#B25900"/>
<path d="M29.5086 58.8843H22.25V66.1322H29.5086V58.8843Z" fill="#ED9E00"/>
<path d="M22.2503 58.8843H14.9917V66.1322H22.2503V58.8843Z" fill="#ED9E00"/>
<path d="M36.7674 58.8843H29.5088V66.1322H36.7674V58.8843Z" fill="#ED9E00"/>
<path d="M44.0262 58.8843H36.7676V66.1322H44.0262V58.8843Z" fill="#B25900"/>
<path d="M51.2845 58.8843H44.0259V66.1322H51.2845V58.8843Z" fill="#FEE762"/>
<path d="M58.5433 58.8843H51.2847V66.1322H58.5433V58.8843Z" fill="#FEE762"/>
<path d="M65.8021 58.8843H58.5435V66.1322H65.8021V58.8843Z" fill="#FEE762"/>
<path d="M73.0599 58.8843H65.8013V66.1322H73.0599V58.8843Z" fill="#FEE762"/>
<path d="M80.3187 58.8843H73.0601V66.1322H80.3187V58.8843Z" fill="#B25900"/>
<path d="M87.577 58.8843H80.3184V66.1322H87.577V58.8843Z" fill="#ED9E00"/>
<path d="M94.8363 58.8843H87.5776V66.1322H94.8363V58.8843Z" fill="#ED9E00"/>
<path d="M102.095 58.8843H94.8359V66.1322H102.095V58.8843Z" fill="#ED9E00"/>
<path d="M109.353 58.8843H102.095V66.1322H109.353V58.8843Z" fill="#ED9E00"/>
<path d="M116.612 58.8843H109.354V66.1322H116.612V58.8843Z" fill="#ED9E00"/>
<path d="M123.87 58.8843H116.612V66.1322H123.87V58.8843Z" fill="#ED9E00"/>
<path d="M131.129 58.8843H123.871V66.1322H131.129V58.8843Z" fill="#ED9E00"/>
<path d="M138.388 58.8843H131.129V66.1322H138.388V58.8843Z" fill="#ED9E00"/>
<path d="M145.647 58.8843H138.388V66.1322H145.647V58.8843Z" fill="#ED9E00"/>
<path d="M152.905 58.8843H145.646V66.1322H152.905V58.8843Z" fill="#ED9E00"/>
<path d="M160.164 58.8843H152.905V66.1322H160.164V58.8843Z" fill="#ED9E00"/>
<path d="M167.423 58.8843H160.164V66.1322H167.423V58.8843Z" fill="#ED9E00"/>
<path d="M174.681 58.8843H167.423V66.1322H174.681V58.8843Z" fill="#ED9E00"/>
<path d="M181.94 58.8843H174.682V66.1322H181.94V58.8843Z" fill="#B25900"/>
<path d="M189.199 58.8843H181.94V66.1322H189.199V58.8843Z" fill="#FEE762"/>
<path d="M196.457 58.8843H189.199V66.1322H196.457V58.8843Z" fill="#FEE762"/>
<path d="M203.715 58.8843H196.457V66.1322H203.715V58.8843Z" fill="#FEE762"/>
<path d="M210.974 58.8843H203.715V66.1322H210.974V58.8843Z" fill="#FEE762"/>
<path d="M218.233 58.8843H210.974V66.1322H218.233V58.8843Z" fill="#B25900"/>
<path d="M225.491 58.8843H218.232V66.1322H225.491V58.8843Z" fill="#ED9E00"/>
<path d="M232.75 58.8843H225.491V66.1322H232.75V58.8843Z" fill="#ED9E00"/>
<path d="M240.009 58.8843H232.75V66.1322H240.009V58.8843Z" fill="#ED9E00"/>
<path d="M29.5086 51.6357H22.25V58.8837H29.5086V51.6357Z" fill="#FFD281"/>
<path d="M22.2503 51.6357H14.9917V58.8837H22.2503V51.6357Z" fill="#FFD281"/>
<path d="M36.7674 51.6357H29.5088V58.8837H36.7674V51.6357Z" fill="#FFD281"/>
<path d="M44.0262 51.6357H36.7676V58.8837H44.0262V51.6357Z" fill="#B25900"/>
<path d="M51.2845 51.6357H44.0259V58.8837H51.2845V51.6357Z" fill="#FEE762"/>
<path d="M58.5433 51.6357H51.2847V58.8837H58.5433V51.6357Z" fill="#FEE762"/>
<path d="M65.8021 51.6357H58.5435V58.8837H65.8021V51.6357Z" fill="#FEE762"/>
<path d="M73.0599 51.6357H65.8013V58.8837H73.0599V51.6357Z" fill="#FEE762"/>
<path d="M80.3187 51.6357H73.0601V58.8837H80.3187V51.6357Z" fill="#B25900"/>
<path d="M87.577 51.6357H80.3184V58.8837H87.577V51.6357Z" fill="#FFD281"/>
<path d="M94.8363 51.6357H87.5776V58.8837H94.8363V51.6357Z" fill="#FFD281"/>
<path d="M102.095 51.6357H94.8359V58.8837H102.095V51.6357Z" fill="#FFD281"/>
<path d="M109.353 51.6357H102.095V58.8837H109.353V51.6357Z" fill="#ED9E00"/>
<path d="M116.612 51.6357H109.354V58.8837H116.612V51.6357Z" fill="#ED9E00"/>
<path d="M123.87 51.6357H116.612V58.8837H123.87V51.6357Z" fill="#ED9E00"/>
<path d="M131.129 51.6357H123.871V58.8837H131.129V51.6357Z" fill="#ED9E00"/>
<path d="M138.388 51.6357H131.129V58.8837H138.388V51.6357Z" fill="#ED9E00"/>
<path d="M145.647 51.6357H138.388V58.8837H145.647V51.6357Z" fill="#ED9E00"/>
<path d="M152.905 51.6357H145.646V58.8837H152.905V51.6357Z" fill="#ED9E00"/>
<path d="M160.164 51.6357H152.905V58.8837H160.164V51.6357Z" fill="#ED9E00"/>
<path d="M167.423 51.6357H160.164V58.8837H167.423V51.6357Z" fill="#ED9E00"/>
<path d="M174.681 51.6357H167.423V58.8837H174.681V51.6357Z" fill="#ED9E00"/>
<path d="M181.94 51.6357H174.682V58.8837H181.94V51.6357Z" fill="#B25900"/>
<path d="M189.199 51.6357H181.94V58.8837H189.199V51.6357Z" fill="#FEE762"/>
<path d="M196.457 51.6357H189.199V58.8837H196.457V51.6357Z" fill="#FEE762"/>
<path d="M203.715 51.6357H196.457V58.8837H203.715V51.6357Z" fill="#FEE762"/>
<path d="M210.974 51.6357H203.715V58.8837H210.974V51.6357Z" fill="#FEE762"/>
<path d="M218.233 51.6357H210.974V58.8837H218.233V51.6357Z" fill="#B25900"/>
<path d="M225.491 51.6357H218.232V58.8837H225.491V51.6357Z" fill="#ED9E00"/>
<path d="M232.75 51.6357H225.491V58.8837H232.75V51.6357Z" fill="#ED9E00"/>
<path d="M240.009 51.6357H232.75V58.8837H240.009V51.6357Z" fill="#FFD281"/>
<path d="M29.5086 44.3882H22.25V51.6361H29.5086V44.3882Z" fill="#FFD281"/>
<path d="M22.2503 44.3882H14.9917V51.6361H22.2503V44.3882Z" fill="#FFD281"/>
<path d="M36.7674 44.3882H29.5088V51.6361H36.7674V44.3882Z" fill="#FFD281"/>
<path d="M44.0262 44.3882H36.7676V51.6361H44.0262V44.3882Z" fill="#B25900"/>
<path d="M51.2845 44.3882H44.0259V51.6361H51.2845V44.3882Z" fill="#FEE762"/>
<path d="M58.5433 44.3882H51.2847V51.6361H58.5433V44.3882Z" fill="#FEE762"/>
<path d="M65.8021 44.3882H58.5435V51.6361H65.8021V44.3882Z" fill="#FEE762"/>
<path d="M73.0599 44.3882H65.8013V51.6361H73.0599V44.3882Z" fill="#FEE762"/>
<path d="M80.3187 44.3882H73.0601V51.6361H80.3187V44.3882Z" fill="#B25900"/>
<path d="M87.577 44.3882H80.3184V51.6361H87.577V44.3882Z" fill="#FFD281"/>
<path d="M94.8363 44.3882H87.5776V51.6361H94.8363V44.3882Z" fill="#FFD281"/>
<path d="M102.095 44.3882H94.8359V51.6361H102.095V44.3882Z" fill="#FFD281"/>
<path d="M109.353 44.3882H102.095V51.6361H109.353V44.3882Z" fill="#FFD281"/>
<path d="M116.612 44.3882H109.354V51.6361H116.612V44.3882Z" fill="#FFD281"/>
<path d="M123.87 44.3882H116.612V51.6361H123.87V44.3882Z" fill="#FFD281"/>
<path d="M131.129 44.3882H123.871V51.6361H131.129V44.3882Z" fill="#FFD281"/>
<path d="M138.388 44.3882H131.129V51.6361H138.388V44.3882Z" fill="#ED9E00"/>
<path d="M145.647 44.3882H138.388V51.6361H145.647V44.3882Z" fill="#ED9E00"/>
<path d="M152.905 44.3882H145.646V51.6361H152.905V44.3882Z" fill="#ED9E00"/>
<path d="M160.164 44.3882H152.905V51.6361H160.164V44.3882Z" fill="#ED9E00"/>
<path d="M167.423 44.3882H160.164V51.6361H167.423V44.3882Z" fill="#ED9E00"/>
<path d="M174.681 44.3882H167.423V51.6361H174.681V44.3882Z" fill="#ED9E00"/>
<path d="M181.94 44.3882H174.682V51.6361H181.94V44.3882Z" fill="#B25900"/>
<path d="M189.199 44.3882H181.94V51.6361H189.199V44.3882Z" fill="#FEE762"/>
<path d="M196.457 44.3882H189.199V51.6361H196.457V44.3882Z" fill="#FEE762"/>
<path d="M203.715 44.3882H196.457V51.6361H203.715V44.3882Z" fill="#FEE762"/>
<path d="M210.974 44.3882H203.715V51.6361H210.974V44.3882Z" fill="#FEE762"/>
<path d="M218.233 44.3882H210.974V51.6361H218.233V44.3882Z" fill="#B25900"/>
<path d="M225.491 44.3882H218.232V51.6361H225.491V44.3882Z" fill="#ED9E00"/>
<path d="M232.75 44.3882H225.491V51.6361H232.75V44.3882Z" fill="#FFD281"/>
<path d="M240.009 44.3882H232.75V51.6361H240.009V44.3882Z" fill="#FFD281"/>
<path d="M29.5086 37.1401H22.25V44.3881H29.5086V37.1401Z" fill="#440108"/>
<path d="M22.2503 37.1401H14.9917V44.3881H22.2503V37.1401Z" fill="#440108"/>
<path d="M36.7674 37.1401H29.5088V44.3881H36.7674V37.1401Z" fill="#440108"/>
<path d="M44.0262 37.1401H36.7676V44.3881H44.0262V37.1401Z" fill="#440108"/>
<path d="M51.2845 37.1401H44.0259V44.3881H51.2845V37.1401Z" fill="#FEE762"/>
<path d="M58.5433 37.1401H51.2847V44.3881H58.5433V37.1401Z" fill="#F9AF3C"/>
<path d="M65.8021 37.1401H58.5435V44.3881H65.8021V37.1401Z" fill="#FEE762"/>
<path d="M73.0599 37.1401H65.8013V44.3881H73.0599V37.1401Z" fill="#F9AF3C"/>
<path d="M80.3187 37.1401H73.0601V44.3881H80.3187V37.1401Z" fill="#440108"/>
<path d="M87.577 37.1401H80.3184V44.3881H87.577V37.1401Z" fill="#440108"/>
<path d="M94.8363 37.1401H87.5776V44.3881H94.8363V37.1401Z" fill="#440108"/>
<path d="M102.095 37.1401H94.8359V44.3881H102.095V37.1401Z" fill="#440108"/>
<path d="M109.353 37.1401H102.095V44.3881H109.353V37.1401Z" fill="#440108"/>
<path d="M116.612 37.1401H109.354V44.3881H116.612V37.1401Z" fill="#440108"/>
<path d="M123.87 37.1401H116.612V44.3881H123.87V37.1401Z" fill="#440108"/>
<path d="M131.129 37.1401H123.871V44.3881H131.129V37.1401Z" fill="#440108"/>
<path d="M138.388 37.1401H131.129V44.3881H138.388V37.1401Z" fill="#440108"/>
<path d="M145.647 37.1401H138.388V44.3881H145.647V37.1401Z" fill="#440108"/>
<path d="M152.905 37.1401H145.646V44.3881H152.905V37.1401Z" fill="#440108"/>
<path d="M160.164 37.1401H152.905V44.3881H160.164V37.1401Z" fill="#440108"/>
<path d="M167.423 37.1401H160.164V44.3881H167.423V37.1401Z" fill="#440108"/>
<path d="M174.681 37.1401H167.423V44.3881H174.681V37.1401Z" fill="#440108"/>
<path d="M181.94 37.1401H174.682V44.3881H181.94V37.1401Z" fill="#440108"/>
<path d="M189.199 37.1401H181.94V44.3881H189.199V37.1401Z" fill="#FEE762"/>
<path d="M196.457 37.1401H189.199V44.3881H196.457V37.1401Z" fill="#F9AF3C"/>
<path d="M203.715 37.1401H196.457V44.3881H203.715V37.1401Z" fill="#FEE762"/>
<path d="M210.974 37.1401H203.715V44.3881H210.974V37.1401Z" fill="#F9AF3C"/>
<path d="M218.233 37.1401H210.974V44.3881H218.233V37.1401Z" fill="#440108"/>
<path d="M225.491 37.1401H218.232V44.3881H225.491V37.1401Z" fill="#440108"/>
<path d="M232.75 37.1401H225.491V44.3881H232.75V37.1401Z" fill="#440108"/>
<path d="M240.009 37.1401H232.75V44.3881H240.009V37.1401Z" fill="#440108"/>
<path d="M29.5086 29.8921H22.25V37.14H29.5086V29.8921Z" fill="#FFD281"/>
<path d="M22.2503 29.8921H14.9917V37.14H22.2503V29.8921Z" fill="#FFD281"/>
<path d="M36.7674 29.8921H29.5088V37.14H36.7674V29.8921Z" fill="#FFD281"/>
<path d="M44.0262 29.8921H36.7676V37.14H44.0262V29.8921Z" fill="#B25900"/>
<path d="M51.2845 29.8921H44.0259V37.14H51.2845V29.8921Z" fill="#FEE762"/>
<path d="M58.5433 29.8921H51.2847V37.14H58.5433V29.8921Z" fill="#F9AF3C"/>
<path d="M65.8021 29.8921H58.5435V37.14H65.8021V29.8921Z" fill="#F9AF3C"/>
<path d="M73.0599 29.8921H65.8013V37.14H73.0599V29.8921Z" fill="#F9AF3C"/>
<path d="M80.3187 29.8921H73.0601V37.14H80.3187V29.8921Z" fill="#B25900"/>
<path d="M87.577 29.8921H80.3184V37.14H87.577V29.8921Z" fill="#FFD281"/>
<path d="M94.8363 29.8921H87.5776V37.14H94.8363V29.8921Z" fill="#FFD281"/>
<path d="M102.095 29.8921H94.8359V37.14H102.095V29.8921Z" fill="#FFD281"/>
<path d="M109.353 29.8921H102.095V37.14H109.353V29.8921Z" fill="#FFD281"/>
<path d="M116.612 29.8921H109.354V37.14H116.612V29.8921Z" fill="#FFD281"/>
<path d="M123.87 29.8921H116.612V37.14H123.87V29.8921Z" fill="#FFD281"/>
<path d="M131.129 29.8921H123.871V37.14H131.129V29.8921Z" fill="#FFD281"/>
<path d="M138.388 29.8921H131.129V37.14H138.388V29.8921Z" fill="#FFD281"/>
<path d="M145.647 29.8921H138.388V37.14H145.647V29.8921Z" fill="#FFD281"/>
<path d="M152.905 29.8921H145.646V37.14H152.905V29.8921Z" fill="#FFD281"/>
<path d="M160.164 29.8921H152.905V37.14H160.164V29.8921Z" fill="#ED9E00"/>
<path d="M167.423 29.8921H160.164V37.14H167.423V29.8921Z" fill="#ED9E00"/>
<path d="M174.681 29.8921H167.423V37.14H174.681V29.8921Z" fill="#ED9E00"/>
<path d="M181.94 29.8921H174.682V37.14H181.94V29.8921Z" fill="#B25900"/>
<path d="M189.199 29.8921H181.94V37.14H189.199V29.8921Z" fill="#FEE762"/>
<path d="M196.457 29.8921H189.199V37.14H196.457V29.8921Z" fill="#F9AF3C"/>
<path d="M203.715 29.8921H196.457V37.14H203.715V29.8921Z" fill="#F9AF3C"/>
<path d="M210.974 29.8921H203.715V37.14H210.974V29.8921Z" fill="#F9AF3C"/>
<path d="M218.233 29.8921H210.974V37.14H218.233V29.8921Z" fill="#B25900"/>
<path d="M225.491 29.8921H218.232V37.14H225.491V29.8921Z" fill="#FFD281"/>
<path d="M232.75 29.8921H225.491V37.14H232.75V29.8921Z" fill="#FFD281"/>
<path d="M240.009 29.8921H232.75V37.14H240.009V29.8921Z" fill="#FFD281"/>
<path d="M29.5086 22.644H22.25V29.892H29.5086V22.644Z" fill="#ED9E00"/>
<path d="M36.7674 22.644H29.5088V29.892H36.7674V22.644Z" fill="#ED9E00"/>
<path d="M44.0262 22.644H36.7676V29.892H44.0262V22.644Z" fill="#B25900"/>
<path d="M51.2845 22.644H44.0259V29.892H51.2845V22.644Z" fill="#F9AF3C"/>
<path d="M58.5433 22.644H51.2847V29.892H58.5433V22.644Z" fill="#F9AF3C"/>
<path d="M65.8021 22.644H58.5435V29.892H65.8021V22.644Z" fill="#EE8600"/>
<path d="M73.0599 22.644H65.8013V29.892H73.0599V22.644Z" fill="#F9AF3C"/>
<path d="M80.3187 22.644H73.0601V29.892H80.3187V22.644Z" fill="#B25900"/>
<path d="M87.577 22.644H80.3184V29.892H87.577V22.644Z" fill="#ED9E00"/>
<path d="M94.8363 22.644H87.5776V29.892H94.8363V22.644Z" fill="#ED9E00"/>
<path d="M102.095 22.644H94.8359V29.892H102.095V22.644Z" fill="#ED9E00"/>
<path d="M109.353 22.644H102.095V29.892H109.353V22.644Z" fill="#ED9E00"/>
<path d="M116.612 22.644H109.354V29.892H116.612V22.644Z" fill="#ED9E00"/>
<path d="M123.87 22.644H116.612V29.892H123.87V22.644Z" fill="#ED9E00"/>
<path d="M131.129 22.644H123.871V29.892H131.129V22.644Z" fill="#ED9E00"/>
<path d="M138.388 22.644H131.129V29.892H138.388V22.644Z" fill="#ED9E00"/>
<path d="M145.647 22.644H138.388V29.892H145.647V22.644Z" fill="#ED9E00"/>
<path d="M152.905 22.644H145.646V29.892H152.905V22.644Z" fill="#ED9E00"/>
<path d="M160.164 22.644H152.905V29.892H160.164V22.644Z" fill="#ED9E00"/>
<path d="M167.423 22.644H160.164V29.892H167.423V22.644Z" fill="#ED9E00"/>
<path d="M174.681 22.644H167.423V29.892H174.681V22.644Z" fill="#ED9E00"/>
<path d="M181.94 22.644H174.682V29.892H181.94V22.644Z" fill="#B25900"/>
<path d="M189.199 22.644H181.94V29.892H189.199V22.644Z" fill="#F9AF3C"/>
<path d="M196.457 22.644H189.199V29.892H196.457V22.644Z" fill="#F9AF3C"/>
<path d="M203.715 22.644H196.457V29.892H203.715V22.644Z" fill="#EE8600"/>
<path d="M210.974 22.644H203.715V29.892H210.974V22.644Z" fill="#F9AF3C"/>
<path d="M218.233 22.644H210.974V29.892H218.233V22.644Z" fill="#B25900"/>
<path d="M225.491 22.644H218.232V29.892H225.491V22.644Z" fill="#ED9E00"/>
<path d="M232.75 22.644H225.491V29.892H232.75V22.644Z" fill="#ED9E00"/>
<path d="M44.0262 15.3965H36.7676V22.6444H44.0262V15.3965Z" fill="#B25900"/>
<path d="M51.2845 15.3965H44.0259V22.6444H51.2845V15.3965Z" fill="#F9AF3C"/>
<path d="M58.5433 15.3965H51.2847V22.6444H58.5433V15.3965Z" fill="#EE8600"/>
<path d="M65.8021 15.3965H58.5435V22.6444H65.8021V15.3965Z" fill="#EE8600"/>
<path d="M73.0599 15.3965H65.8013V22.6444H73.0599V15.3965Z" fill="#F9AF3C"/>
<path d="M80.3187 15.3965H73.0601V22.6444H80.3187V15.3965Z" fill="#B25900"/>
<path d="M87.577 15.3965H80.3184V22.6444H87.577V15.3965Z" fill="#ED9E00"/>
<path d="M94.8363 15.3965H87.5776V22.6444H94.8363V15.3965Z" fill="#ED9E00"/>
<path d="M102.095 15.3965H94.8359V22.6444H102.095V15.3965Z" fill="#ED9E00"/>
<path d="M109.353 15.3965H102.095V22.6444H109.353V15.3965Z" fill="#ED9E00"/>
<path d="M116.612 15.3965H109.354V22.6444H116.612V15.3965Z" fill="#ED9E00"/>
<path d="M123.87 15.3965H116.612V22.6444H123.87V15.3965Z" fill="#ED9E00"/>
<path d="M131.129 15.3965H123.871V22.6444H131.129V15.3965Z" fill="#ED9E00"/>
<path d="M138.388 15.3965H131.129V22.6444H138.388V15.3965Z" fill="#ED9E00"/>
<path d="M145.647 15.3965H138.388V22.6444H145.647V15.3965Z" fill="#ED9E00"/>
<path d="M152.905 15.3965H145.646V22.6444H152.905V15.3965Z" fill="#ED9E00"/>
<path d="M160.164 15.3965H152.905V22.6444H160.164V15.3965Z" fill="#ED9E00"/>
<path d="M167.423 15.3965H160.164V22.6444H167.423V15.3965Z" fill="#ED9E00"/>
<path d="M174.681 15.3965H167.423V22.6444H174.681V15.3965Z" fill="#ED9E00"/>
<path d="M181.94 15.3965H174.682V22.6444H181.94V15.3965Z" fill="#B25900"/>
<path d="M189.199 15.3965H181.94V22.6444H189.199V15.3965Z" fill="#F9AF3C"/>
<path d="M196.457 15.3965H189.199V22.6444H196.457V15.3965Z" fill="#EE8600"/>
<path d="M203.715 15.3965H196.457V22.6444H203.715V15.3965Z" fill="#EE8600"/>
<path d="M210.974 15.3965H203.715V22.6444H210.974V15.3965Z" fill="#F9AF3C"/>
<path d="M218.233 15.3965H210.974V22.6444H218.233V15.3965Z" fill="#B25900"/>
<path d="M14.991 102.372H7.73242V109.62H14.991V102.372Z" fill="#EE8600"/>
<path d="M7.73275 102.372H0.474121V109.62H7.73275V102.372Z" fill="#440108"/>
<path d="M14.991 109.62H7.73242V116.868H14.991V109.62Z" fill="#B25900"/>
<path d="M7.73275 109.62H0.474121V116.868H7.73275V109.62Z" fill="#440108"/>
<path d="M14.991 116.868H7.73242V124.116H14.991V116.868Z" fill="#440108"/>
<path d="M7.73275 116.868H0.474121V124.116H7.73275V116.868Z" fill="#440108"/>
<path d="M14.991 95.1235H7.73242V102.371H14.991V95.1235Z" fill="#440108"/>
<path d="M14.991 87.876H7.73242V95.1239H14.991V87.876Z" fill="#440108"/>
<path d="M14.991 80.6279H7.73242V87.8759H14.991V80.6279Z" fill="#440108"/>
<path d="M14.991 73.3799H7.73242V80.6278H14.991V73.3799Z" fill="#440108"/>
<path d="M14.991 66.1318H7.73242V73.3798H14.991V66.1318Z" fill="#440108"/>
<path d="M14.991 58.8843H7.73242V66.1322H14.991V58.8843Z" fill="#440108"/>
<path d="M14.991 51.6357H7.73242V58.8837H14.991V51.6357Z" fill="#440108"/>
<path d="M14.991 44.3882H7.73242V51.6361H14.991V44.3882Z" fill="#440108"/>
<path d="M14.991 37.1401H7.73242V44.3881H14.991V37.1401Z" fill="#440108"/>
<path d="M22.2503 22.644H14.9917V29.892H22.2503V22.644Z" fill="#440108"/>
<path d="M29.5086 15.3965H22.25V22.6444H29.5086V15.3965Z" fill="#440108"/>
<path d="M36.7674 15.3965H29.5088V22.6444H36.7674V15.3965Z" fill="#440108"/>
<path d="M44.0262 8.14795H36.7676V15.3959H44.0262V8.14795Z" fill="#440108"/>
<path d="M51.2845 8.14795H44.0259V15.3959H51.2845V8.14795Z" fill="#EE8600"/>
<path d="M14.991 29.8921H7.73242V37.14H14.991V29.8921Z" fill="#440108"/>
<path d="M58.5433 8.14795H51.2847V15.3959H58.5433V8.14795Z" fill="#EE8600"/>
<path d="M65.8021 8.14795H58.5435V15.3959H65.8021V8.14795Z" fill="#EE8600"/>
<path d="M73.0599 8.14795H65.8013V15.3959H73.0599V8.14795Z" fill="#EE8600"/>
<path d="M80.3187 8.14795H73.0601V15.3959H80.3187V8.14795Z" fill="#440108"/>
<path d="M87.577 8.14795H80.3184V15.3959H87.577V8.14795Z" fill="#440108"/>
<path d="M94.8363 8.14795H87.5776V15.3959H94.8363V8.14795Z" fill="#440108"/>
<path d="M102.095 8.14795H94.8359V15.3959H102.095V8.14795Z" fill="#440108"/>
<path d="M109.353 8.14795H102.095V15.3959H109.353V8.14795Z" fill="#440108"/>
<path d="M116.612 8.14795H109.354V15.3959H116.612V8.14795Z" fill="#440108"/>
<path d="M123.87 8.14795H116.612V15.3959H123.87V8.14795Z" fill="#440108"/>
<path d="M131.129 8.14795H123.871V15.3959H131.129V8.14795Z" fill="#440108"/>
<path d="M138.388 8.14795H131.129V15.3959H138.388V8.14795Z" fill="#440108"/>
<path d="M145.647 8.14795H138.388V15.3959H145.647V8.14795Z" fill="#440108"/>
<path d="M152.905 8.14795H145.646V15.3959H152.905V8.14795Z" fill="#440108"/>
<path d="M160.164 8.14795H152.905V15.3959H160.164V8.14795Z" fill="#440108"/>
<path d="M167.423 8.14795H160.164V15.3959H167.423V8.14795Z" fill="#440108"/>
<path d="M174.681 8.14795H167.423V15.3959H174.681V8.14795Z" fill="#440108"/>
<path d="M181.94 8.14795H174.682V15.3959H181.94V8.14795Z" fill="#440108"/>
<path d="M189.199 8.14795H181.94V15.3959H189.199V8.14795Z" fill="#EE8600"/>
<path d="M196.457 8.14795H189.199V15.3959H196.457V8.14795Z" fill="#EE8600"/>
<path d="M203.715 8.14795H196.457V15.3959H203.715V8.14795Z" fill="#EE8600"/>
<path d="M247.267 102.372H240.009V109.62H247.267V102.372Z" fill="#EE8600"/>
<path d="M254.526 102.372H247.268V109.62H254.526V102.372Z" fill="#440108"/>
<path d="M247.267 109.62H240.009V116.868H247.267V109.62Z" fill="#B25900"/>
<path d="M254.526 109.62H247.268V116.868H254.526V109.62Z" fill="#440108"/>
<path d="M247.267 116.868H240.009V124.116H247.267V116.868Z" fill="#440108"/>
<path d="M254.526 116.868H247.268V124.116H254.526V116.868Z" fill="#440108"/>
<path d="M247.267 95.1235H240.009V102.371H247.267V95.1235Z" fill="#440108"/>
<path d="M247.267 87.876H240.009V95.1239H247.267V87.876Z" fill="#440108"/>
<path d="M247.267 80.6279H240.009V87.8759H247.267V80.6279Z" fill="#440108"/>
<path d="M247.267 73.3799H240.009V80.6278H247.267V73.3799Z" fill="#440108"/>
<path d="M247.267 66.1318H240.009V73.3798H247.267V66.1318Z" fill="#440108"/>
<path d="M247.267 58.8843H240.009V66.1322H247.267V58.8843Z" fill="#440108"/>
<path d="M247.267 51.6357H240.009V58.8837H247.267V51.6357Z" fill="#440108"/>
<path d="M247.267 44.3882H240.009V51.6361H247.267V44.3882Z" fill="#440108"/>
<path d="M247.267 37.1401H240.009V44.3881H247.267V37.1401Z" fill="#440108"/>
<path d="M240.009 22.644H232.75V29.892H240.009V22.644Z" fill="#440108"/>
<path d="M225.491 15.3965H218.232V22.6444H225.491V15.3965Z" fill="#440108"/>
<path d="M232.75 15.3965H225.491V22.6444H232.75V15.3965Z" fill="#440108"/>
<path d="M210.974 8.14795H203.715V15.3959H210.974V8.14795Z" fill="#EE8600"/>
<path d="M51.2845 0.900391H44.0259V8.14834H51.2845V0.900391Z" fill="#440108"/>
<path d="M58.5433 0.900391H51.2847V8.14834H58.5433V0.900391Z" fill="#440108"/>
<path d="M65.8021 0.900391H58.5435V8.14834H65.8021V0.900391Z" fill="#440108"/>
<path d="M73.0599 0.900391H65.8013V8.14834H73.0599V0.900391Z" fill="#440108"/>
<path d="M189.199 0.900391H181.94V8.14834H189.199V0.900391Z" fill="#440108"/>
<path d="M196.457 0.900391H189.199V8.14834H196.457V0.900391Z" fill="#440108"/>
<path d="M203.715 0.900391H196.457V8.14834H203.715V0.900391Z" fill="#440108"/>
<path d="M210.974 0.900391H203.715V8.14834H210.974V0.900391Z" fill="#440108"/>
<path d="M218.233 8.14795H210.974V15.3959H218.233V8.14795Z" fill="#440108"/>
<path d="M247.267 29.8921H240.009V37.14H247.267V29.8921Z" fill="#440108"/>
</svg>
