<svg width="233" height="203" viewBox="0 0 233 203" fill="none" xmlns="http://www.w3.org/2000/svg">
<path d="M45.3925 0.116211H37.9072V7.62642H45.3925V0.116211Z" fill="#FA7322"/>
<path d="M52.8778 0.116211H45.3926V7.62642H52.8778V0.116211Z" fill="#FA7322"/>
<path d="M60.3627 0.116211H52.8774V7.62642H60.3627V0.116211Z" fill="#FA7322"/>
<path d="M67.8485 0.116211H60.3633V7.62642H67.8485V0.116211Z" fill="#FA7322"/>
<path d="M172.637 0.116211H165.151V7.62642H172.637V0.116211Z" fill="#FA7322"/>
<path d="M180.122 0.116211H172.637V7.62642H180.122V0.116211Z" fill="#FA7322"/>
<path d="M187.607 0.116211H180.122V7.62642H187.607V0.116211Z" fill="#FA7322"/>
<path d="M195.091 0.116211H187.606V7.62642H195.091V0.116211Z" fill="#FA7322"/>
<path d="M37.9081 7.62646H30.4229V15.1367H37.9081V7.62646Z" fill="#45262F"/>
<path d="M45.3925 7.62646H37.9072V15.1367H45.3925V7.62646Z" fill="#F9AF3C"/>
<path d="M52.8778 7.62646H45.3926V15.1367H52.8778V7.62646Z" fill="#FA7322"/>
<path d="M60.3627 7.62646H52.8774V15.1367H60.3627V7.62646Z" fill="#FA7322"/>
<path d="M67.8485 7.62646H60.3633V15.1367H67.8485V7.62646Z" fill="#F9AF3C"/>
<path d="M75.3324 7.62646H67.8472V15.1367H75.3324V7.62646Z" fill="#45262F"/>
<path d="M82.8178 7.62646H75.3325V15.1367H82.8178V7.62646Z" fill="#45262F"/>
<path d="M90.3031 7.62646H82.8179V15.1367H90.3031V7.62646Z" fill="#45262F"/>
<path d="M97.7875 7.62646H90.3022V15.1367H97.7875V7.62646Z" fill="#45262F"/>
<path d="M105.272 7.62646H97.7871V15.1367H105.272V7.62646Z" fill="#45262F"/>
<path d="M112.758 7.62646H105.273V15.1367H112.758V7.62646Z" fill="#45262F"/>
<path d="M120.242 7.62646H112.756V15.1367H120.242V7.62646Z" fill="#45262F"/>
<path d="M127.727 7.62646H120.242V15.1367H127.727V7.62646Z" fill="#45262F"/>
<path d="M135.212 7.62646H127.727V15.1367H135.212V7.62646Z" fill="#45262F"/>
<path d="M142.697 7.62646H135.211V15.1367H142.697V7.62646Z" fill="#45262F"/>
<path d="M150.182 7.62646H142.696V15.1367H150.182V7.62646Z" fill="#45262F"/>
<path d="M157.667 7.62646H150.182V15.1367H157.667V7.62646Z" fill="#45262F"/>
<path d="M165.152 7.62646H157.667V15.1367H165.152V7.62646Z" fill="#45262F"/>
<path d="M172.637 7.62646H165.151V15.1367H172.637V7.62646Z" fill="#F9AF3C"/>
<path d="M180.122 7.62646H172.637V15.1367H180.122V7.62646Z" fill="#FA7322"/>
<path d="M187.607 7.62646H180.122V15.1367H187.607V7.62646Z" fill="#FA7322"/>
<path d="M195.091 7.62646H187.606V15.1367H195.091V7.62646Z" fill="#F9AF3C"/>
<path d="M202.577 7.62646H195.092V15.1367H202.577V7.62646Z" fill="#45262F"/>
<path d="M22.9379 15.1357H15.4526V22.6459H22.9379V15.1357Z" fill="#45262F"/>
<path d="M37.9081 15.1357H30.4229V22.6459H37.9081V15.1357Z" fill="#45262F"/>
<path d="M45.3925 15.1357H37.9072V22.6459H45.3925V15.1357Z" fill="#F9AF3C"/>
<path d="M52.8778 15.1357H45.3926V22.6459H52.8778V15.1357Z" fill="#F9AF3C"/>
<path d="M60.3627 15.1357H52.8774V22.6459H60.3627V15.1357Z" fill="#FA7322"/>
<path d="M67.8485 15.1357H60.3633V22.6459H67.8485V15.1357Z" fill="#F9AF3C"/>
<path d="M75.3324 15.1357H67.8472V22.6459H75.3324V15.1357Z" fill="#45262F"/>
<path d="M82.8178 15.1357H75.3325V22.6459H82.8178V15.1357Z" fill="#AF6B6B"/>
<path d="M90.3031 15.1357H82.8179V22.6459H90.3031V15.1357Z" fill="#AF6B6B"/>
<path d="M97.7875 15.1357H90.3022V22.6459H97.7875V15.1357Z" fill="#964035"/>
<path d="M105.272 15.1357H97.7871V22.6459H105.272V15.1357Z" fill="#964035"/>
<path d="M112.758 15.1357H105.273V22.6459H112.758V15.1357Z" fill="#964035"/>
<path d="M120.242 15.1357H112.756V22.6459H120.242V15.1357Z" fill="#964035"/>
<path d="M127.727 15.1357H120.242V22.6459H127.727V15.1357Z" fill="#964035"/>
<path d="M135.212 15.1357H127.727V22.6459H135.212V15.1357Z" fill="#964035"/>
<path d="M142.697 15.1357H135.211V22.6459H142.697V15.1357Z" fill="#964035"/>
<path d="M150.182 15.1357H142.696V22.6459H150.182V15.1357Z" fill="#964035"/>
<path d="M157.667 15.1357H150.182V22.6459H157.667V15.1357Z" fill="#964035"/>
<path d="M165.152 15.1357H157.667V22.6459H165.152V15.1357Z" fill="#45262F"/>
<path d="M172.637 15.1357H165.151V22.6459H172.637V15.1357Z" fill="#F9AF3C"/>
<path d="M180.122 15.1357H172.637V22.6459H180.122V15.1357Z" fill="#F9AF3C"/>
<path d="M187.607 15.1357H180.122V22.6459H187.607V15.1357Z" fill="#FA7322"/>
<path d="M195.091 15.1357H187.606V22.6459H195.091V15.1357Z" fill="#F9AF3C"/>
<path d="M202.577 15.1357H195.092V22.6459H202.577V15.1357Z" fill="#45262F"/>
<path d="M217.546 15.1357H210.061V22.6459H217.546V15.1357Z" fill="#45262F"/>
<path d="M22.9379 22.646H15.4526V30.1562H22.9379V22.646Z" fill="#45262F"/>
<path d="M37.9081 22.646H30.4229V30.1562H37.9081V22.646Z" fill="#45262F"/>
<path d="M45.3925 22.646H37.9072V30.1562H45.3925V22.646Z" fill="#FEE762"/>
<path d="M52.8778 22.646H45.3926V30.1562H52.8778V22.646Z" fill="#F9AF3C"/>
<path d="M60.3627 22.646H52.8774V30.1562H60.3627V22.646Z" fill="#F9AF3C"/>
<path d="M67.8485 22.646H60.3633V30.1562H67.8485V22.646Z" fill="#F9AF3C"/>
<path d="M75.3324 22.646H67.8472V30.1562H75.3324V22.646Z" fill="#45262F"/>
<path d="M82.8178 22.646H75.3325V30.1562H82.8178V22.646Z" fill="#964035"/>
<path d="M90.3031 22.646H82.8179V30.1562H90.3031V22.646Z" fill="#964035"/>
<path d="M97.7875 22.646H90.3022V30.1562H97.7875V22.646Z" fill="#964035"/>
<path d="M105.272 22.646H97.7871V30.1562H105.272V22.646Z" fill="#964035"/>
<path d="M112.758 22.646H105.273V30.1562H112.758V22.646Z" fill="#964035"/>
<path d="M120.242 22.646H112.756V30.1562H120.242V22.646Z" fill="#AF6B6B"/>
<path d="M127.727 22.646H120.242V30.1562H127.727V22.646Z" fill="#AF6B6B"/>
<path d="M135.212 22.646H127.727V30.1562H135.212V22.646Z" fill="#AF6B6B"/>
<path d="M142.697 22.646H135.211V30.1562H142.697V22.646Z" fill="#AF6B6B"/>
<path d="M150.182 22.646H142.696V30.1562H150.182V22.646Z" fill="#AF6B6B"/>
<path d="M157.667 22.646H150.182V30.1562H157.667V22.646Z" fill="#AF6B6B"/>
<path d="M165.152 22.646H157.667V30.1562H165.152V22.646Z" fill="#45262F"/>
<path d="M172.637 22.646H165.151V30.1562H172.637V22.646Z" fill="#FEE762"/>
<path d="M180.122 22.646H172.637V30.1562H180.122V22.646Z" fill="#F9AF3C"/>
<path d="M187.607 22.646H180.122V30.1562H187.607V22.646Z" fill="#F9AF3C"/>
<path d="M195.091 22.646H187.606V30.1562H195.091V22.646Z" fill="#F9AF3C"/>
<path d="M202.577 22.646H195.092V30.1562H202.577V22.646Z" fill="#45262F"/>
<path d="M217.546 22.646H210.061V30.1562H217.546V22.646Z" fill="#45262F"/>
<path d="M22.9379 30.1558H15.4526V37.666H22.9379V30.1558Z" fill="#45262F"/>
<path d="M37.9081 30.1558H30.4229V37.666H37.9081V30.1558Z" fill="#45262F"/>
<path d="M45.3925 30.1558H37.9072V37.666H45.3925V30.1558Z" fill="#FEE762"/>
<path d="M52.8778 30.1558H45.3926V37.666H52.8778V30.1558Z" fill="#F9AF3C"/>
<path d="M60.3627 30.1558H52.8774V37.666H60.3627V30.1558Z" fill="#FEE762"/>
<path d="M67.8485 30.1558H60.3633V37.666H67.8485V30.1558Z" fill="#F9AF3C"/>
<path d="M75.3324 30.1558H67.8472V37.666H75.3324V30.1558Z" fill="#45262F"/>
<path d="M82.8178 30.1558H75.3325V37.666H82.8178V30.1558Z" fill="#964035"/>
<path d="M90.3031 30.1558H82.8179V37.666H90.3031V30.1558Z" fill="#964035"/>
<path d="M97.7875 30.1558H90.3022V37.666H97.7875V30.1558Z" fill="#964035"/>
<path d="M105.272 30.1558H97.7871V37.666H105.272V30.1558Z" fill="#964035"/>
<path d="M112.758 30.1558H105.273V37.666H112.758V30.1558Z" fill="#964035"/>
<path d="M120.242 30.1558H112.756V37.666H120.242V30.1558Z" fill="#964035"/>
<path d="M127.727 30.1558H120.242V37.666H127.727V30.1558Z" fill="#964035"/>
<path d="M135.212 30.1558H127.727V37.666H135.212V30.1558Z" fill="#964035"/>
<path d="M142.697 30.1558H135.211V37.666H142.697V30.1558Z" fill="#AF6B6B"/>
<path d="M150.182 30.1558H142.696V37.666H150.182V30.1558Z" fill="#AF6B6B"/>
<path d="M157.667 30.1558H150.182V37.666H157.667V30.1558Z" fill="#AF6B6B"/>
<path d="M165.152 30.1558H157.667V37.666H165.152V30.1558Z" fill="#45262F"/>
<path d="M172.637 30.1558H165.151V37.666H172.637V30.1558Z" fill="#FEE762"/>
<path d="M180.122 30.1558H172.637V37.666H180.122V30.1558Z" fill="#F9AF3C"/>
<path d="M187.607 30.1558H180.122V37.666H187.607V30.1558Z" fill="#FEE762"/>
<path d="M195.091 30.1558H187.606V37.666H195.091V30.1558Z" fill="#F9AF3C"/>
<path d="M202.577 30.1558H195.092V37.666H202.577V30.1558Z" fill="#45262F"/>
<path d="M217.546 30.1558H210.061V37.666H217.546V30.1558Z" fill="#45262F"/>
<path d="M22.9379 37.6655H15.4526V45.1757H22.9379V37.6655Z" fill="#45262F"/>
<path d="M37.9081 37.6655H30.4229V45.1757H37.9081V37.6655Z" fill="#45262F"/>
<path d="M45.3925 37.6655H37.9072V45.1757H45.3925V37.6655Z" fill="#FEE762"/>
<path d="M52.8778 37.6655H45.3926V45.1757H52.8778V37.6655Z" fill="#FEE762"/>
<path d="M60.3627 37.6655H52.8774V45.1757H60.3627V37.6655Z" fill="#FEE762"/>
<path d="M67.8485 37.6655H60.3633V45.1757H67.8485V37.6655Z" fill="#FEE762"/>
<path d="M75.3324 37.6655H67.8472V45.1757H75.3324V37.6655Z" fill="#45262F"/>
<path d="M82.8178 37.6655H75.3325V45.1757H82.8178V37.6655Z" fill="#AF6B6B"/>
<path d="M90.3031 37.6655H82.8179V45.1757H90.3031V37.6655Z" fill="#AF6B6B"/>
<path d="M97.7875 37.6655H90.3022V45.1757H97.7875V37.6655Z" fill="#AF6B6B"/>
<path d="M105.272 37.6655H97.7871V45.1757H105.272V37.6655Z" fill="#AF6B6B"/>
<path d="M112.758 37.6655H105.273V45.1757H112.758V37.6655Z" fill="#964035"/>
<path d="M120.242 37.6655H112.756V45.1757H120.242V37.6655Z" fill="#964035"/>
<path d="M127.727 37.6655H120.242V45.1757H127.727V37.6655Z" fill="#964035"/>
<path d="M135.212 37.6655H127.727V45.1757H135.212V37.6655Z" fill="#964035"/>
<path d="M142.697 37.6655H135.211V45.1757H142.697V37.6655Z" fill="#964035"/>
<path d="M150.182 37.6655H142.696V45.1757H150.182V37.6655Z" fill="#964035"/>
<path d="M157.667 37.6655H150.182V45.1757H157.667V37.6655Z" fill="#964035"/>
<path d="M165.152 37.6655H157.667V45.1757H165.152V37.6655Z" fill="#45262F"/>
<path d="M172.637 37.6655H165.151V45.1757H172.637V37.6655Z" fill="#FEE762"/>
<path d="M180.122 37.6655H172.637V45.1757H180.122V37.6655Z" fill="#FEE762"/>
<path d="M187.607 37.6655H180.122V45.1757H187.607V37.6655Z" fill="#FEE762"/>
<path d="M195.091 37.6655H187.606V45.1757H195.091V37.6655Z" fill="#FEE762"/>
<path d="M202.577 37.6655H195.092V45.1757H202.577V37.6655Z" fill="#45262F"/>
<path d="M217.546 37.6655H210.061V45.1757H217.546V37.6655Z" fill="#45262F"/>
<path d="M15.453 45.1753H7.96777V52.6855H15.453V45.1753Z" fill="#F9AF3C"/>
<path d="M22.9379 45.1753H15.4526V52.6855H22.9379V45.1753Z" fill="#45262F"/>
<path d="M37.9081 45.1753H30.4229V52.6855H37.9081V45.1753Z" fill="#45262F"/>
<path d="M45.3925 45.1753H37.9072V52.6855H45.3925V45.1753Z" fill="#FEE762"/>
<path d="M52.8778 45.1753H45.3926V52.6855H52.8778V45.1753Z" fill="#FEE762"/>
<path d="M60.3627 45.1753H52.8774V52.6855H60.3627V45.1753Z" fill="#FEE762"/>
<path d="M67.8485 45.1753H60.3633V52.6855H67.8485V45.1753Z" fill="#FEE762"/>
<path d="M75.3324 45.1753H67.8472V52.6855H75.3324V45.1753Z" fill="#45262F"/>
<path d="M82.8178 45.1753H75.3325V52.6855H82.8178V45.1753Z" fill="#AF6B6B"/>
<path d="M90.3031 45.1753H82.8179V52.6855H90.3031V45.1753Z" fill="#AF6B6B"/>
<path d="M97.7875 45.1753H90.3022V52.6855H97.7875V45.1753Z" fill="#AF6B6B"/>
<path d="M105.272 45.1753H97.7871V52.6855H105.272V45.1753Z" fill="#AF6B6B"/>
<path d="M112.758 45.1753H105.273V52.6855H112.758V45.1753Z" fill="#AF6B6B"/>
<path d="M120.242 45.1753H112.756V52.6855H120.242V45.1753Z" fill="#AF6B6B"/>
<path d="M127.727 45.1753H120.242V52.6855H127.727V45.1753Z" fill="#AF6B6B"/>
<path d="M135.212 45.1753H127.727V52.6855H135.212V45.1753Z" fill="#964035"/>
<path d="M142.697 45.1753H135.211V52.6855H142.697V45.1753Z" fill="#964035"/>
<path d="M150.182 45.1753H142.696V52.6855H150.182V45.1753Z" fill="#964035"/>
<path d="M157.667 45.1753H150.182V52.6855H157.667V45.1753Z" fill="#964035"/>
<path d="M165.152 45.1753H157.667V52.6855H165.152V45.1753Z" fill="#45262F"/>
<path d="M172.637 45.1753H165.151V52.6855H172.637V45.1753Z" fill="#FEE762"/>
<path d="M180.122 45.1753H172.637V52.6855H180.122V45.1753Z" fill="#FEE762"/>
<path d="M187.607 45.1753H180.122V52.6855H187.607V45.1753Z" fill="#FEE762"/>
<path d="M195.091 45.1753H187.606V52.6855H195.091V45.1753Z" fill="#FEE762"/>
<path d="M202.577 45.1753H195.092V52.6855H202.577V45.1753Z" fill="#45262F"/>
<path d="M217.546 45.1753H210.061V52.6855H217.546V45.1753Z" fill="#45262F"/>
<path d="M225.032 45.1753H217.546V52.6855H225.032V45.1753Z" fill="#F9AF3C"/>
<path d="M15.453 52.6855H7.96777V60.1958H15.453V52.6855Z" fill="#F9AF3C"/>
<path d="M22.9379 52.6855H15.4526V60.1958H22.9379V52.6855Z" fill="#45262F"/>
<path d="M37.9081 52.6855H30.4229V60.1958H37.9081V52.6855Z" fill="#45262F"/>
<path d="M45.3925 52.6855H37.9072V60.1958H45.3925V52.6855Z" fill="#FEE762"/>
<path d="M52.8778 52.6855H45.3926V60.1958H52.8778V52.6855Z" fill="#FEE762"/>
<path d="M60.3627 52.6855H52.8774V60.1958H60.3627V52.6855Z" fill="#FEE762"/>
<path d="M67.8485 52.6855H60.3633V60.1958H67.8485V52.6855Z" fill="#FEE762"/>
<path d="M75.3324 52.6855H67.8472V60.1958H75.3324V52.6855Z" fill="#45262F"/>
<path d="M82.8178 52.6855H75.3325V60.1958H82.8178V52.6855Z" fill="#45262F"/>
<path d="M90.3031 52.6855H82.8179V60.1958H90.3031V52.6855Z" fill="#45262F"/>
<path d="M97.7875 52.6855H90.3022V60.1958H97.7875V52.6855Z" fill="#45262F"/>
<path d="M105.272 52.6855H97.7871V60.1958H105.272V52.6855Z" fill="#45262F"/>
<path d="M112.758 52.6855H105.273V60.1958H112.758V52.6855Z" fill="#45262F"/>
<path d="M120.242 52.6855H112.756V60.1958H120.242V52.6855Z" fill="#45262F"/>
<path d="M127.727 52.6855H120.242V60.1958H127.727V52.6855Z" fill="#45262F"/>
<path d="M135.212 52.6855H127.727V60.1958H135.212V52.6855Z" fill="#45262F"/>
<path d="M142.697 52.6855H135.211V60.1958H142.697V52.6855Z" fill="#45262F"/>
<path d="M150.182 52.6855H142.696V60.1958H150.182V52.6855Z" fill="#45262F"/>
<path d="M157.667 52.6855H150.182V60.1958H157.667V52.6855Z" fill="#45262F"/>
<path d="M165.152 52.6855H157.667V60.1958H165.152V52.6855Z" fill="#45262F"/>
<path d="M172.637 52.6855H165.151V60.1958H172.637V52.6855Z" fill="#FEE762"/>
<path d="M180.122 52.6855H172.637V60.1958H180.122V52.6855Z" fill="#FEE762"/>
<path d="M187.607 52.6855H180.122V60.1958H187.607V52.6855Z" fill="#FEE762"/>
<path d="M195.091 52.6855H187.606V60.1958H195.091V52.6855Z" fill="#FEE762"/>
<path d="M202.577 52.6855H195.092V60.1958H202.577V52.6855Z" fill="#45262F"/>
<path d="M217.546 52.6855H210.061V60.1958H217.546V52.6855Z" fill="#45262F"/>
<path d="M225.032 52.6855H217.546V60.1958H225.032V52.6855Z" fill="#F9AF3C"/>
<path d="M15.453 60.1958H7.96777V67.706H15.453V60.1958Z" fill="#F9AF3C"/>
<path d="M22.9379 60.1958H15.4526V67.706H22.9379V60.1958Z" fill="#45262F"/>
<path d="M37.9081 60.1958H30.4229V67.706H37.9081V60.1958Z" fill="#45262F"/>
<path d="M45.3925 60.1958H37.9072V67.706H45.3925V60.1958Z" fill="#FEE762"/>
<path d="M52.8778 60.1958H45.3926V67.706H52.8778V60.1958Z" fill="#FEE762"/>
<path d="M60.3627 60.1958H52.8774V67.706H60.3627V60.1958Z" fill="#FEE762"/>
<path d="M67.8485 60.1958H60.3633V67.706H67.8485V60.1958Z" fill="#FEE762"/>
<path d="M75.3324 60.1958H67.8472V67.706H75.3324V60.1958Z" fill="#45262F"/>
<path d="M82.8178 60.1958H75.3325V67.706H82.8178V60.1958Z" fill="#AF6B6B"/>
<path d="M90.3031 60.1958H82.8179V67.706H90.3031V60.1958Z" fill="#AF6B6B"/>
<path d="M97.7875 60.1958H90.3022V67.706H97.7875V60.1958Z" fill="#AF6B6B"/>
<path d="M105.272 60.1958H97.7871V67.706H105.272V60.1958Z" fill="#964035"/>
<path d="M112.758 60.1958H105.273V67.706H112.758V60.1958Z" fill="#964035"/>
<path d="M120.242 60.1958H112.756V67.706H120.242V60.1958Z" fill="#964035"/>
<path d="M127.727 60.1958H120.242V67.706H127.727V60.1958Z" fill="#964035"/>
<path d="M135.212 60.1958H127.727V67.706H135.212V60.1958Z" fill="#964035"/>
<path d="M142.697 60.1958H135.211V67.706H142.697V60.1958Z" fill="#964035"/>
<path d="M150.182 60.1958H142.696V67.706H150.182V60.1958Z" fill="#964035"/>
<path d="M157.667 60.1958H150.182V67.706H157.667V60.1958Z" fill="#964035"/>
<path d="M165.152 60.1958H157.667V67.706H165.152V60.1958Z" fill="#45262F"/>
<path d="M172.637 60.1958H165.151V67.706H172.637V60.1958Z" fill="#FEE762"/>
<path d="M180.122 60.1958H172.637V67.706H180.122V60.1958Z" fill="#FEE762"/>
<path d="M187.607 60.1958H180.122V67.706H187.607V60.1958Z" fill="#FEE762"/>
<path d="M195.091 60.1958H187.606V67.706H195.091V60.1958Z" fill="#FEE762"/>
<path d="M202.577 60.1958H195.092V67.706H202.577V60.1958Z" fill="#45262F"/>
<path d="M217.546 60.1958H210.061V67.706H217.546V60.1958Z" fill="#45262F"/>
<path d="M225.032 60.1958H217.546V67.706H225.032V60.1958Z" fill="#F9AF3C"/>
<path d="M15.453 67.7056H7.96777V75.2158H15.453V67.7056Z" fill="#F9AF3C"/>
<path d="M22.9379 67.7056H15.4526V75.2158H22.9379V67.7056Z" fill="#45262F"/>
<path d="M37.9081 67.7056H30.4229V75.2158H37.9081V67.7056Z" fill="#45262F"/>
<path d="M45.3925 67.7056H37.9072V75.2158H45.3925V67.7056Z" fill="#F9AF3C"/>
<path d="M52.8778 67.7056H45.3926V75.2158H52.8778V67.7056Z" fill="#FEE762"/>
<path d="M60.3627 67.7056H52.8774V75.2158H60.3627V67.7056Z" fill="#F9AF3C"/>
<path d="M67.8485 67.7056H60.3633V75.2158H67.8485V67.7056Z" fill="#FEE762"/>
<path d="M75.3324 67.7056H67.8472V75.2158H75.3324V67.7056Z" fill="#45262F"/>
<path d="M82.8178 67.7056H75.3325V75.2158H82.8178V67.7056Z" fill="#964035"/>
<path d="M90.3031 67.7056H82.8179V75.2158H90.3031V67.7056Z" fill="#964035"/>
<path d="M97.7875 67.7056H90.3022V75.2158H97.7875V67.7056Z" fill="#964035"/>
<path d="M105.272 67.7056H97.7871V75.2158H105.272V67.7056Z" fill="#964035"/>
<path d="M112.758 67.7056H105.273V75.2158H112.758V67.7056Z" fill="#F8F8F9"/>
<path d="M120.242 67.7056H112.756V75.2158H120.242V67.7056Z" fill="#F8F8F9"/>
<path d="M127.727 67.7056H120.242V75.2158H127.727V67.7056Z" fill="#F8F8F9"/>
<path d="M135.212 67.7056H127.727V75.2158H135.212V67.7056Z" fill="#964035"/>
<path d="M142.697 67.7056H135.211V75.2158H142.697V67.7056Z" fill="#964035"/>
<path d="M150.182 67.7056H142.696V75.2158H150.182V67.7056Z" fill="#964035"/>
<path d="M157.667 67.7056H150.182V75.2158H157.667V67.7056Z" fill="#964035"/>
<path d="M165.152 67.7056H157.667V75.2158H165.152V67.7056Z" fill="#45262F"/>
<path d="M172.637 67.7056H165.151V75.2158H172.637V67.7056Z" fill="#F9AF3C"/>
<path d="M180.122 67.7056H172.637V75.2158H180.122V67.7056Z" fill="#FEE762"/>
<path d="M187.607 67.7056H180.122V75.2158H187.607V67.7056Z" fill="#F9AF3C"/>
<path d="M195.091 67.7056H187.606V75.2158H195.091V67.7056Z" fill="#FEE762"/>
<path d="M202.577 67.7056H195.092V75.2158H202.577V67.7056Z" fill="#45262F"/>
<path d="M217.546 67.7056H210.061V75.2158H217.546V67.7056Z" fill="#45262F"/>
<path d="M225.032 67.7056H217.546V75.2158H225.032V67.7056Z" fill="#F9AF3C"/>
<path d="M15.453 75.2153H7.96777V82.7255H15.453V75.2153Z" fill="#F9AF3C"/>
<path d="M22.9379 75.2153H15.4526V82.7255H22.9379V75.2153Z" fill="#45262F"/>
<path d="M37.9081 75.2153H30.4229V82.7255H37.9081V75.2153Z" fill="#45262F"/>
<path d="M45.3925 75.2153H37.9072V82.7255H45.3925V75.2153Z" fill="#F9AF3C"/>
<path d="M52.8778 75.2153H45.3926V82.7255H52.8778V75.2153Z" fill="#F9AF3C"/>
<path d="M60.3627 75.2153H52.8774V82.7255H60.3627V75.2153Z" fill="#F9AF3C"/>
<path d="M67.8485 75.2153H60.3633V82.7255H67.8485V75.2153Z" fill="#FEE762"/>
<path d="M75.3324 75.2153H67.8472V82.7255H75.3324V75.2153Z" fill="#45262F"/>
<path d="M82.8178 75.2153H75.3325V82.7255H82.8178V75.2153Z" fill="#964035"/>
<path d="M90.3031 75.2153H82.8179V82.7255H90.3031V75.2153Z" fill="#964035"/>
<path d="M97.7875 75.2153H90.3022V82.7255H97.7875V75.2153Z" fill="#964035"/>
<path d="M105.272 75.2153H97.7871V82.7255H105.272V75.2153Z" fill="#F8F8F9"/>
<path d="M112.758 75.2153H105.273V82.7255H112.758V75.2153Z" fill="#77312B"/>
<path d="M120.242 75.2153H112.756V82.7255H120.242V75.2153Z" fill="#77312B"/>
<path d="M127.727 75.2153H120.242V82.7255H127.727V75.2153Z" fill="#77312B"/>
<path d="M135.212 75.2153H127.727V82.7255H135.212V75.2153Z" fill="#F8F8F9"/>
<path d="M142.697 75.2153H135.211V82.7255H142.697V75.2153Z" fill="#964035"/>
<path d="M150.182 75.2153H142.696V82.7255H150.182V75.2153Z" fill="#964035"/>
<path d="M157.667 75.2153H150.182V82.7255H157.667V75.2153Z" fill="#964035"/>
<path d="M165.152 75.2153H157.667V82.7255H165.152V75.2153Z" fill="#45262F"/>
<path d="M172.637 75.2153H165.151V82.7255H172.637V75.2153Z" fill="#F9AF3C"/>
<path d="M180.122 75.2153H172.637V82.7255H180.122V75.2153Z" fill="#F9AF3C"/>
<path d="M187.607 75.2153H180.122V82.7255H187.607V75.2153Z" fill="#F9AF3C"/>
<path d="M195.091 75.2153H187.606V82.7255H195.091V75.2153Z" fill="#FEE762"/>
<path d="M202.577 75.2153H195.092V82.7255H202.577V75.2153Z" fill="#45262F"/>
<path d="M217.546 75.2153H210.061V82.7255H217.546V75.2153Z" fill="#45262F"/>
<path d="M225.032 75.2153H217.546V82.7255H225.032V75.2153Z" fill="#F9AF3C"/>
<path d="M15.453 82.7251H7.96777V90.2353H15.453V82.7251Z" fill="#F9AF3C"/>
<path d="M22.9379 82.7251H15.4526V90.2353H22.9379V82.7251Z" fill="#45262F"/>
<path d="M37.9081 82.7251H30.4229V90.2353H37.9081V82.7251Z" fill="#45262F"/>
<path d="M45.3925 82.7251H37.9072V90.2353H45.3925V82.7251Z" fill="#F9AF3C"/>
<path d="M52.8778 82.7251H45.3926V90.2353H52.8778V82.7251Z" fill="#F9AF3C"/>
<path d="M60.3627 82.7251H52.8774V90.2353H60.3627V82.7251Z" fill="#F9AF3C"/>
<path d="M67.8485 82.7251H60.3633V90.2353H67.8485V82.7251Z" fill="#F9AF3C"/>
<path d="M75.3324 82.7251H67.8472V90.2353H75.3324V82.7251Z" fill="#45262F"/>
<path d="M82.8178 82.7251H75.3325V90.2353H82.8178V82.7251Z" fill="#964035"/>
<path d="M90.3031 82.7251H82.8179V90.2353H90.3031V82.7251Z" fill="#77312B"/>
<path d="M97.7875 82.7251H90.3022V90.2353H97.7875V82.7251Z" fill="#9B9DAA"/>
<path d="M105.272 82.7251H97.7871V90.2353H105.272V82.7251Z" fill="#F8F8F9"/>
<path d="M112.758 82.7251H105.273V90.2353H112.758V82.7251Z" fill="#9B9DAA"/>
<path d="M120.242 82.7251H112.756V90.2353H120.242V82.7251Z" fill="#9B9DAA"/>
<path d="M127.727 82.7251H120.242V90.2353H127.727V82.7251Z" fill="#9B9DAA"/>
<path d="M135.212 82.7251H127.727V90.2353H135.212V82.7251Z" fill="#F8F8F9"/>
<path d="M142.697 82.7251H135.211V90.2353H142.697V82.7251Z" fill="#9B9DAA"/>
<path d="M150.182 82.7251H142.696V90.2353H150.182V82.7251Z" fill="#964035"/>
<path d="M157.667 82.7251H150.182V90.2353H157.667V82.7251Z" fill="#77312B"/>
<path d="M165.152 82.7251H157.667V90.2353H165.152V82.7251Z" fill="#45262F"/>
<path d="M172.637 82.7251H165.151V90.2353H172.637V82.7251Z" fill="#F9AF3C"/>
<path d="M180.122 82.7251H172.637V90.2353H180.122V82.7251Z" fill="#F9AF3C"/>
<path d="M187.607 82.7251H180.122V90.2353H187.607V82.7251Z" fill="#F9AF3C"/>
<path d="M195.091 82.7251H187.606V90.2353H195.091V82.7251Z" fill="#F9AF3C"/>
<path d="M202.577 82.7251H195.092V90.2353H202.577V82.7251Z" fill="#45262F"/>
<path d="M217.546 82.7251H210.061V90.2353H217.546V82.7251Z" fill="#45262F"/>
<path d="M225.032 82.7251H217.546V90.2353H225.032V82.7251Z" fill="#F9AF3C"/>
<path d="M15.453 90.2349H7.96777V97.7451H15.453V90.2349Z" fill="#F9AF3C"/>
<path d="M22.9379 90.2349H15.4526V97.7451H22.9379V90.2349Z" fill="#45262F"/>
<path d="M37.9081 90.2349H30.4229V97.7451H37.9081V90.2349Z" fill="#45262F"/>
<path d="M45.3925 90.2349H37.9072V97.7451H45.3925V90.2349Z" fill="#F9AF3C"/>
<path d="M52.8778 90.2349H45.3926V97.7451H52.8778V90.2349Z" fill="#F9AF3C"/>
<path d="M60.3627 90.2349H52.8774V97.7451H60.3627V90.2349Z" fill="#FA7322"/>
<path d="M67.8485 90.2349H60.3633V97.7451H67.8485V90.2349Z" fill="#F9AF3C"/>
<path d="M75.3324 90.2349H67.8472V97.7451H75.3324V90.2349Z" fill="#45262F"/>
<path d="M82.8178 90.2349H75.3325V97.7451H82.8178V90.2349Z" fill="#77312B"/>
<path d="M90.3031 90.2349H82.8179V97.7451H90.3031V90.2349Z" fill="#77312B"/>
<path d="M97.7875 90.2349H90.3022V97.7451H97.7875V90.2349Z" fill="#9B9DAA"/>
<path d="M105.272 90.2349H97.7871V97.7451H105.272V90.2349Z" fill="black"/>
<path d="M112.758 90.2349H105.273V97.7451H112.758V90.2349Z" fill="#9B9DAA"/>
<path d="M120.242 90.2349H112.756V97.7451H120.242V90.2349Z" fill="#9B9DAA"/>
<path d="M127.727 90.2349H120.242V97.7451H127.727V90.2349Z" fill="#9B9DAA"/>
<path d="M135.212 90.2349H127.727V97.7451H135.212V90.2349Z" fill="black"/>
<path d="M142.697 90.2349H135.211V97.7451H142.697V90.2349Z" fill="#9B9DAA"/>
<path d="M150.182 90.2349H142.696V97.7451H150.182V90.2349Z" fill="#77312B"/>
<path d="M157.667 90.2349H150.182V97.7451H157.667V90.2349Z" fill="#77312B"/>
<path d="M165.152 90.2349H157.667V97.7451H165.152V90.2349Z" fill="#45262F"/>
<path d="M172.637 90.2349H165.151V97.7451H172.637V90.2349Z" fill="#F9AF3C"/>
<path d="M180.122 90.2349H172.637V97.7451H180.122V90.2349Z" fill="#FA7322"/>
<path d="M187.607 90.2349H180.122V97.7451H187.607V90.2349Z" fill="#F9AF3C"/>
<path d="M195.091 90.2349H187.606V97.7451H195.091V90.2349Z" fill="#F9AF3C"/>
<path d="M202.577 90.2349H195.092V97.7451H202.577V90.2349Z" fill="#45262F"/>
<path d="M217.546 90.2349H210.061V97.7451H217.546V90.2349Z" fill="#45262F"/>
<path d="M225.032 90.2349H217.546V97.7451H225.032V90.2349Z" fill="#F9AF3C"/>
<path d="M15.453 97.7451H7.96777V105.255H15.453V97.7451Z" fill="#F9AF3C"/>
<path d="M7.96817 45.1753H0.48291V52.6855H7.96817V45.1753Z" fill="#F9AF3C"/>
<path d="M7.96817 52.6855H0.48291V60.1958H7.96817V52.6855Z" fill="#F9AF3C"/>
<path d="M7.96817 60.1958H0.48291V67.706H7.96817V60.1958Z" fill="#F9AF3C"/>
<path d="M7.96817 67.7056H0.48291V75.2158H7.96817V67.7056Z" fill="#F9AF3C"/>
<path d="M7.96817 75.2153H0.48291V82.7255H7.96817V75.2153Z" fill="#F9AF3C"/>
<path d="M7.96817 82.7251H0.48291V90.2353H7.96817V82.7251Z" fill="#F9AF3C"/>
<path d="M7.96817 90.2349H0.48291V97.7451H7.96817V90.2349Z" fill="#F9AF3C"/>
<path d="M7.96817 97.7451H0.48291V105.255H7.96817V97.7451Z" fill="#F9AF3C"/>
<path d="M22.9379 97.7451H15.4526V105.255H22.9379V97.7451Z" fill="#45262F"/>
<path d="M37.9081 97.7451H30.4229V105.255H37.9081V97.7451Z" fill="#45262F"/>
<path d="M45.3925 97.7451H37.9072V105.255H45.3925V97.7451Z" fill="#F9AF3C"/>
<path d="M52.8778 97.7451H45.3926V105.255H52.8778V97.7451Z" fill="#FA7322"/>
<path d="M60.3627 97.7451H52.8774V105.255H60.3627V97.7451Z" fill="#FA7322"/>
<path d="M67.8485 97.7451H60.3633V105.255H67.8485V97.7451Z" fill="#F9AF3C"/>
<path d="M75.3324 97.7451H67.8472V105.255H75.3324V97.7451Z" fill="#45262F"/>
<path d="M82.8178 97.7451H75.3325V105.255H82.8178V97.7451Z" fill="#77312B"/>
<path d="M90.3031 97.7451H82.8179V105.255H90.3031V97.7451Z" fill="#77312B"/>
<path d="M97.7875 97.7451H90.3022V105.255H97.7875V97.7451Z" fill="#F8F8F9"/>
<path d="M105.272 97.7451H97.7871V105.255H105.272V97.7451Z" fill="#F8F8F9"/>
<path d="M112.758 97.7451H105.273V105.255H112.758V97.7451Z" fill="#F8F8F9"/>
<path d="M120.242 97.7451H112.756V105.255H120.242V97.7451Z" fill="#F8F8F9"/>
<path d="M127.727 97.7451H120.242V105.255H127.727V97.7451Z" fill="#F8F8F9"/>
<path d="M135.212 97.7451H127.727V105.255H135.212V97.7451Z" fill="#9B9DAA"/>
<path d="M142.697 97.7451H135.211V105.255H142.697V97.7451Z" fill="#9B9DAA"/>
<path d="M150.182 97.7451H142.696V105.255H150.182V97.7451Z" fill="#77312B"/>
<path d="M157.667 97.7451H150.182V105.255H157.667V97.7451Z" fill="#77312B"/>
<path d="M165.152 97.7451H157.667V105.255H165.152V97.7451Z" fill="#45262F"/>
<path d="M172.637 97.7451H165.151V105.255H172.637V97.7451Z" fill="#F9AF3C"/>
<path d="M180.122 97.7451H172.637V105.255H180.122V97.7451Z" fill="#FA7322"/>
<path d="M187.607 97.7451H180.122V105.255H187.607V97.7451Z" fill="#FA7322"/>
<path d="M195.091 97.7451H187.606V105.255H195.091V97.7451Z" fill="#F9AF3C"/>
<path d="M202.577 97.7451H195.092V105.255H202.577V97.7451Z" fill="#45262F"/>
<path d="M217.546 97.7451H210.061V105.255H217.546V97.7451Z" fill="#45262F"/>
<path d="M225.032 97.7451H217.546V105.255H225.032V97.7451Z" fill="#F9AF3C"/>
<path d="M232.517 45.1753H225.032V52.6855H232.517V45.1753Z" fill="#F9AF3C"/>
<path d="M232.517 52.6855H225.032V60.1958H232.517V52.6855Z" fill="#F9AF3C"/>
<path d="M232.517 60.1958H225.032V67.706H232.517V60.1958Z" fill="#F9AF3C"/>
<path d="M232.517 67.7056H225.032V75.2158H232.517V67.7056Z" fill="#F9AF3C"/>
<path d="M232.517 75.2153H225.032V82.7255H232.517V75.2153Z" fill="#F9AF3C"/>
<path d="M232.517 82.7251H225.032V90.2353H232.517V82.7251Z" fill="#F9AF3C"/>
<path d="M232.517 90.2349H225.032V97.7451H232.517V90.2349Z" fill="#F9AF3C"/>
<path d="M232.517 97.7451H225.032V105.255H232.517V97.7451Z" fill="#F9AF3C"/>
<path d="M7.96817 105.255H0.48291V112.765H7.96817V105.255Z" fill="#F9AF3C"/>
<path d="M15.453 105.255H7.96777V112.765H15.453V105.255Z" fill="#F9AF3C"/>
<path d="M22.9379 105.255H15.4526V112.765H22.9379V105.255Z" fill="#45262F"/>
<path d="M37.9081 105.255H30.4229V112.765H37.9081V105.255Z" fill="#45262F"/>
<path d="M45.3925 105.255H37.9072V112.765H45.3925V105.255Z" fill="#FA7322"/>
<path d="M52.8778 105.255H45.3926V112.765H52.8778V105.255Z" fill="#FA7322"/>
<path d="M60.3627 105.255H52.8774V112.765H60.3627V105.255Z" fill="#FA7322"/>
<path d="M67.8485 105.255H60.3633V112.765H67.8485V105.255Z" fill="#FA7322"/>
<path d="M75.3324 105.255H67.8472V112.765H75.3324V105.255Z" fill="#45262F"/>
<path d="M82.8178 105.255H75.3325V112.765H82.8178V105.255Z" fill="#45262F"/>
<path d="M90.3031 105.255H82.8179V112.765H90.3031V105.255Z" fill="#45262F"/>
<path d="M97.7875 105.255H90.3022V112.765H97.7875V105.255Z" fill="#9B9DAA"/>
<path d="M105.272 105.255H97.7871V112.765H105.272V105.255Z" fill="#9B9DAA"/>
<path d="M112.758 105.255H105.273V112.765H112.758V105.255Z" fill="#9B9DAA"/>
<path d="M120.242 105.255H112.756V112.765H120.242V105.255Z" fill="#9B9DAA"/>
<path d="M127.727 105.255H120.242V112.765H127.727V105.255Z" fill="#9B9DAA"/>
<path d="M135.212 105.255H127.727V112.765H135.212V105.255Z" fill="#9B9DAA"/>
<path d="M142.697 105.255H135.211V112.765H142.697V105.255Z" fill="#6A6C7B"/>
<path d="M150.182 105.255H142.696V112.765H150.182V105.255Z" fill="#45262F"/>
<path d="M157.667 105.255H150.182V112.765H157.667V105.255Z" fill="#45262F"/>
<path d="M165.152 105.255H157.667V112.765H165.152V105.255Z" fill="#45262F"/>
<path d="M172.637 105.255H165.151V112.765H172.637V105.255Z" fill="#FA7322"/>
<path d="M180.122 105.255H172.637V112.765H180.122V105.255Z" fill="#FA7322"/>
<path d="M187.607 105.255H180.122V112.765H187.607V105.255Z" fill="#FA7322"/>
<path d="M195.091 105.255H187.606V112.765H195.091V105.255Z" fill="#FA7322"/>
<path d="M202.577 105.255H195.092V112.765H202.577V105.255Z" fill="#45262F"/>
<path d="M217.546 105.255H210.061V112.765H217.546V105.255Z" fill="#45262F"/>
<path d="M225.032 105.255H217.546V112.765H225.032V105.255Z" fill="#F9AF3C"/>
<path d="M232.517 105.255H225.032V112.765H232.517V105.255Z" fill="#F9AF3C"/>
<path d="M7.96817 112.765H0.48291V120.275H7.96817V112.765Z" fill="#F9AF3C"/>
<path d="M15.453 112.765H7.96777V120.275H15.453V112.765Z" fill="#F9AF3C"/>
<path d="M22.9379 112.765H15.4526V120.275H22.9379V112.765Z" fill="#F9AF3C"/>
<path d="M37.9081 112.765H30.4229V120.275H37.9081V112.765Z" fill="#F9AF3C"/>
<path d="M45.3925 112.765H37.9072V120.275H45.3925V112.765Z" fill="#F9AF3C"/>
<path d="M52.8778 112.765H45.3926V120.275H52.8778V112.765Z" fill="#F9AF3C"/>
<path d="M60.3627 112.765H52.8774V120.275H60.3627V112.765Z" fill="#F9AF3C"/>
<path d="M67.8485 112.765H60.3633V120.275H67.8485V112.765Z" fill="#F9AF3C"/>
<path d="M75.3324 112.765H67.8472V120.275H75.3324V112.765Z" fill="#F9AF3C"/>
<path d="M82.8178 112.765H75.3325V120.275H82.8178V112.765Z" fill="#F9AF3C"/>
<path d="M90.3031 112.765H82.8179V120.275H90.3031V112.765Z" fill="#F9AF3C"/>
<path d="M97.7875 112.765H90.3022V120.275H97.7875V112.765Z" fill="#9B9DAA"/>
<path d="M105.272 112.765H97.7871V120.275H105.272V112.765Z" fill="#9B9DAA"/>
<path d="M112.758 112.765H105.273V120.275H112.758V112.765Z" fill="#9B9DAA"/>
<path d="M120.242 112.765H112.756V120.275H120.242V112.765Z" fill="black"/>
<path d="M127.727 112.765H120.242V120.275H127.727V112.765Z" fill="#9B9DAA"/>
<path d="M135.212 112.765H127.727V120.275H135.212V112.765Z" fill="#9B9DAA"/>
<path d="M142.697 112.765H135.211V120.275H142.697V112.765Z" fill="#6A6C7B"/>
<path d="M150.182 112.765H142.696V120.275H150.182V112.765Z" fill="#F9AF3C"/>
<path d="M157.667 112.765H150.182V120.275H157.667V112.765Z" fill="#F9AF3C"/>
<path d="M165.152 112.765H157.667V120.275H165.152V112.765Z" fill="#F9AF3C"/>
<path d="M172.637 112.765H165.151V120.275H172.637V112.765Z" fill="#F9AF3C"/>
<path d="M180.122 112.765H172.637V120.275H180.122V112.765Z" fill="#F9AF3C"/>
<path d="M187.607 112.765H180.122V120.275H187.607V112.765Z" fill="#F9AF3C"/>
<path d="M195.091 112.765H187.606V120.275H195.091V112.765Z" fill="#F9AF3C"/>
<path d="M202.577 112.765H195.092V120.275H202.577V112.765Z" fill="#F9AF3C"/>
<path d="M217.546 112.765H210.061V120.275H217.546V112.765Z" fill="#F9AF3C"/>
<path d="M225.032 112.765H217.546V120.275H225.032V112.765Z" fill="#F9AF3C"/>
<path d="M232.517 112.765H225.032V120.275H232.517V112.765Z" fill="#F9AF3C"/>
<path d="M7.96817 120.275H0.48291V127.785H7.96817V120.275Z" fill="#FA7322"/>
<path d="M15.453 120.275H7.96777V127.785H15.453V120.275Z" fill="#FA7322"/>
<path d="M22.9379 120.275H15.4526V127.785H22.9379V120.275Z" fill="#FA7322"/>
<path d="M30.4228 7.62646H22.9375V15.1367H30.4228V7.62646Z" fill="#45262F"/>
<path d="M30.4228 15.1357H22.9375V22.6459H30.4228V15.1357Z" fill="#AF6B6B"/>
<path d="M30.4228 22.646H22.9375V30.1562H30.4228V22.646Z" fill="#964035"/>
<path d="M30.4228 30.1558H22.9375V37.666H30.4228V30.1558Z" fill="#964035"/>
<path d="M30.4228 37.6655H22.9375V45.1757H30.4228V37.6655Z" fill="#AF6B6B"/>
<path d="M30.4228 45.1753H22.9375V52.6855H30.4228V45.1753Z" fill="#AF6B6B"/>
<path d="M30.4228 52.6855H22.9375V60.1958H30.4228V52.6855Z" fill="#45262F"/>
<path d="M30.4228 60.1958H22.9375V67.706H30.4228V60.1958Z" fill="#AF6B6B"/>
<path d="M30.4228 67.7056H22.9375V75.2158H30.4228V67.7056Z" fill="#964035"/>
<path d="M30.4228 75.2153H22.9375V82.7255H30.4228V75.2153Z" fill="#964035"/>
<path d="M30.4228 82.7251H22.9375V90.2353H30.4228V82.7251Z" fill="#964035"/>
<path d="M30.4228 90.2349H22.9375V97.7451H30.4228V90.2349Z" fill="#77312B"/>
<path d="M30.4228 97.7451H22.9375V105.255H30.4228V97.7451Z" fill="#77312B"/>
<path d="M30.4228 105.255H22.9375V112.765H30.4228V105.255Z" fill="#45262F"/>
<path d="M30.4228 112.765H22.9375V120.275H30.4228V112.765Z" fill="#F9AF3C"/>
<path d="M30.4228 120.275H22.9375V127.785H30.4228V120.275Z" fill="#FA7322"/>
<path d="M37.9081 120.275H30.4229V127.785H37.9081V120.275Z" fill="#FA7322"/>
<path d="M45.3925 120.275H37.9072V127.785H45.3925V120.275Z" fill="#FA7322"/>
<path d="M52.8778 120.275H45.3926V127.785H52.8778V120.275Z" fill="#FA7322"/>
<path d="M60.3627 120.275H52.8774V127.785H60.3627V120.275Z" fill="#FA7322"/>
<path d="M67.8485 120.275H60.3633V127.785H67.8485V120.275Z" fill="#FA7322"/>
<path d="M75.3324 120.275H67.8472V127.785H75.3324V120.275Z" fill="#FA7322"/>
<path d="M82.8178 120.275H75.3325V127.785H82.8178V120.275Z" fill="#FA7322"/>
<path d="M90.3031 120.275H82.8179V127.785H90.3031V120.275Z" fill="#FA7322"/>
<path d="M97.7875 120.275H90.3022V127.785H97.7875V120.275Z" fill="#9B9DAA"/>
<path d="M105.272 120.275H97.7871V127.785H105.272V120.275Z" fill="#9B9DAA"/>
<path d="M112.758 120.275H105.273V127.785H112.758V120.275Z" fill="#9B9DAA"/>
<path d="M120.242 120.275H112.756V127.785H120.242V120.275Z" fill="black"/>
<path d="M127.727 120.275H120.242V127.785H127.727V120.275Z" fill="#9B9DAA"/>
<path d="M135.212 120.275H127.727V127.785H135.212V120.275Z" fill="#6A6C7B"/>
<path d="M142.697 120.275H135.211V127.785H142.697V120.275Z" fill="#6A6C7B"/>
<path d="M150.182 120.275H142.696V127.785H150.182V120.275Z" fill="#FA7322"/>
<path d="M157.667 120.275H150.182V127.785H157.667V120.275Z" fill="#FA7322"/>
<path d="M165.152 120.275H157.667V127.785H165.152V120.275Z" fill="#FA7322"/>
<path d="M172.637 120.275H165.151V127.785H172.637V120.275Z" fill="#FA7322"/>
<path d="M180.122 120.275H172.637V127.785H180.122V120.275Z" fill="#FA7322"/>
<path d="M187.607 120.275H180.122V127.785H187.607V120.275Z" fill="#FA7322"/>
<path d="M195.091 120.275H187.606V127.785H195.091V120.275Z" fill="#FA7322"/>
<path d="M202.577 120.275H195.092V127.785H202.577V120.275Z" fill="#FA7322"/>
<path d="M210.062 7.62646H202.577V15.1367H210.062V7.62646Z" fill="#45262F"/>
<path d="M210.062 15.1357H202.577V22.6459H210.062V15.1357Z" fill="#964035"/>
<path d="M210.062 22.646H202.577V30.1562H210.062V22.646Z" fill="#AF6B6B"/>
<path d="M210.062 30.1558H202.577V37.666H210.062V30.1558Z" fill="#AF6B6B"/>
<path d="M210.062 37.6655H202.577V45.1757H210.062V37.6655Z" fill="#964035"/>
<path d="M210.062 45.1753H202.577V52.6855H210.062V45.1753Z" fill="#964035"/>
<path d="M210.062 52.6855H202.577V60.1958H210.062V52.6855Z" fill="#45262F"/>
<path d="M210.062 60.1958H202.577V67.706H210.062V60.1958Z" fill="#964035"/>
<path d="M210.062 67.7056H202.577V75.2158H210.062V67.7056Z" fill="#964035"/>
<path d="M210.062 75.2153H202.577V82.7255H210.062V75.2153Z" fill="#964035"/>
<path d="M210.062 82.7251H202.577V90.2353H210.062V82.7251Z" fill="#964035"/>
<path d="M210.062 90.2349H202.577V97.7451H210.062V90.2349Z" fill="#77312B"/>
<path d="M210.062 97.7451H202.577V105.255H210.062V97.7451Z" fill="#77312B"/>
<path d="M210.062 105.255H202.577V112.765H210.062V105.255Z" fill="#45262F"/>
<path d="M210.062 112.765H202.577V120.275H210.062V112.765Z" fill="#F9AF3C"/>
<path d="M210.062 120.275H202.577V127.785H210.062V120.275Z" fill="#FA7322"/>
<path d="M217.546 120.275H210.061V127.785H217.546V120.275Z" fill="#FA7322"/>
<path d="M225.032 120.275H217.546V127.785H225.032V120.275Z" fill="#FA7322"/>
<path d="M232.517 120.275H225.032V127.785H232.517V120.275Z" fill="#FA7322"/>
<path d="M30.4228 127.785H22.9375V135.295H30.4228V127.785Z" fill="#F9AF3C"/>
<path d="M37.9081 127.785H30.4229V135.295H37.9081V127.785Z" fill="#45262F"/>
<path d="M45.3925 127.785H37.9072V135.295H45.3925V127.785Z" fill="#45262F"/>
<path d="M52.8778 127.785H45.3926V135.295H52.8778V127.785Z" fill="#45262F"/>
<path d="M60.3627 127.785H52.8774V135.295H60.3627V127.785Z" fill="#45262F"/>
<path d="M67.8485 127.785H60.3633V135.295H67.8485V127.785Z" fill="#45262F"/>
<path d="M75.3324 127.785H67.8472V135.295H75.3324V127.785Z" fill="#45262F"/>
<path d="M82.8178 127.785H75.3325V135.295H82.8178V127.785Z" fill="#45262F"/>
<path d="M90.3031 127.785H82.8179V135.295H90.3031V127.785Z" fill="#45262F"/>
<path d="M97.7875 127.785H90.3022V135.295H97.7875V127.785Z" fill="#9B9DAA"/>
<path d="M105.272 127.785H97.7871V135.295H105.272V127.785Z" fill="#9B9DAA"/>
<path d="M112.758 127.785H105.273V135.295H112.758V127.785Z" fill="#9B9DAA"/>
<path d="M120.242 127.785H112.756V135.295H120.242V127.785Z" fill="#F8F8F9"/>
<path d="M127.727 127.785H120.242V135.295H127.727V127.785Z" fill="#9B9DAA"/>
<path d="M135.212 127.785H127.727V135.295H135.212V127.785Z" fill="#6A6C7B"/>
<path d="M142.697 127.785H135.211V135.295H142.697V127.785Z" fill="#6A6C7B"/>
<path d="M150.182 127.785H142.696V135.295H150.182V127.785Z" fill="#45262F"/>
<path d="M157.667 127.785H150.182V135.295H157.667V127.785Z" fill="#45262F"/>
<path d="M165.152 127.785H157.667V135.295H165.152V127.785Z" fill="#45262F"/>
<path d="M172.637 127.785H165.151V135.295H172.637V127.785Z" fill="#45262F"/>
<path d="M180.122 127.785H172.637V135.295H180.122V127.785Z" fill="#45262F"/>
<path d="M187.607 127.785H180.122V135.295H187.607V127.785Z" fill="#45262F"/>
<path d="M195.091 127.785H187.606V135.295H195.091V127.785Z" fill="#45262F"/>
<path d="M202.577 127.785H195.092V135.295H202.577V127.785Z" fill="#45262F"/>
<path d="M210.062 127.785H202.577V135.295H210.062V127.785Z" fill="#F9AF3C"/>
<path d="M30.4228 150.314H22.9375V157.825H30.4228V150.314Z" fill="#F9AF3C"/>
<path d="M37.9081 150.314H30.4229V157.825H37.9081V150.314Z" fill="#45262F"/>
<path d="M45.3925 150.314H37.9072V157.825H45.3925V150.314Z" fill="#77312B"/>
<path d="M52.8778 150.314H45.3926V157.825H52.8778V150.314Z" fill="#77312B"/>
<path d="M60.3627 150.314H52.8774V157.825H60.3627V150.314Z" fill="#77312B"/>
<path d="M67.8485 150.314H60.3633V157.825H67.8485V150.314Z" fill="#77312B"/>
<path d="M75.3324 150.314H67.8472V157.825H75.3324V150.314Z" fill="#45262F"/>
<path d="M82.8178 150.314H75.3325V157.825H82.8178V150.314Z" fill="#77312B"/>
<path d="M90.3031 150.314H82.8179V157.825H90.3031V150.314Z" fill="#77312B"/>
<path d="M97.7875 150.314H90.3022V157.825H97.7875V150.314Z" fill="#77312B"/>
<path d="M105.272 150.314H97.7871V157.825H105.272V150.314Z" fill="#964035"/>
<path d="M112.758 150.314H105.273V157.825H112.758V150.314Z" fill="#964035"/>
<path d="M120.242 150.314H112.756V157.825H120.242V150.314Z" fill="#964035"/>
<path d="M127.727 150.314H120.242V157.825H127.727V150.314Z" fill="#964035"/>
<path d="M135.212 150.314H127.727V157.825H135.212V150.314Z" fill="#77312B"/>
<path d="M142.697 150.314H135.211V157.825H142.697V150.314Z" fill="#77312B"/>
<path d="M150.182 150.314H142.696V157.825H150.182V150.314Z" fill="#77312B"/>
<path d="M157.667 150.314H150.182V157.825H157.667V150.314Z" fill="#77312B"/>
<path d="M165.152 150.314H157.667V157.825H165.152V150.314Z" fill="#45262F"/>
<path d="M172.637 150.314H165.151V157.825H172.637V150.314Z" fill="#77312B"/>
<path d="M180.122 150.314H172.637V157.825H180.122V150.314Z" fill="#77312B"/>
<path d="M187.607 150.314H180.122V157.825H187.607V150.314Z" fill="#77312B"/>
<path d="M195.091 150.314H187.606V157.825H195.091V150.314Z" fill="#964035"/>
<path d="M202.577 150.314H195.092V157.825H202.577V150.314Z" fill="#45262F"/>
<path d="M210.062 150.314H202.577V157.825H210.062V150.314Z" fill="#F9AF3C"/>
<path d="M30.4228 157.823H22.9375V165.333H30.4228V157.823Z" fill="#F9AF3C"/>
<path d="M37.9081 157.823H30.4229V165.333H37.9081V157.823Z" fill="#77312B"/>
<path d="M45.3925 157.823H37.9072V165.333H45.3925V157.823Z" fill="#77312B"/>
<path d="M52.8778 157.823H45.3926V165.333H52.8778V157.823Z" fill="#77312B"/>
<path d="M60.3627 157.823H52.8774V165.333H60.3627V157.823Z" fill="#77312B"/>
<path d="M67.8485 157.823H60.3633V165.333H67.8485V157.823Z" fill="#77312B"/>
<path d="M75.3324 157.823H67.8472V165.333H75.3324V157.823Z" fill="#45262F"/>
<path d="M82.8178 157.823H75.3325V165.333H82.8178V157.823Z" fill="#77312B"/>
<path d="M90.3031 157.823H82.8179V165.333H90.3031V157.823Z" fill="#77312B"/>
<path d="M97.7875 157.823H90.3022V165.333H97.7875V157.823Z" fill="#77312B"/>
<path d="M105.272 157.823H97.7871V165.333H105.272V157.823Z" fill="#77312B"/>
<path d="M112.758 157.823H105.273V165.333H112.758V157.823Z" fill="#77312B"/>
<path d="M120.242 157.823H112.756V165.333H120.242V157.823Z" fill="#77312B"/>
<path d="M127.727 157.823H120.242V165.333H127.727V157.823Z" fill="#77312B"/>
<path d="M135.212 157.823H127.727V165.333H135.212V157.823Z" fill="#77312B"/>
<path d="M142.697 157.823H135.211V165.333H142.697V157.823Z" fill="#77312B"/>
<path d="M150.182 157.823H142.696V165.333H150.182V157.823Z" fill="#77312B"/>
<path d="M157.667 157.823H150.182V165.333H157.667V157.823Z" fill="#77312B"/>
<path d="M165.152 157.823H157.667V165.333H165.152V157.823Z" fill="#77312B"/>
<path d="M172.637 157.823H165.151V165.333H172.637V157.823Z" fill="#77312B"/>
<path d="M180.122 157.823H172.637V165.333H180.122V157.823Z" fill="#77312B"/>
<path d="M187.607 157.823H180.122V165.333H187.607V157.823Z" fill="#77312B"/>
<path d="M195.091 157.823H187.606V165.333H195.091V157.823Z" fill="#77312B"/>
<path d="M202.577 157.823H195.092V165.333H202.577V157.823Z" fill="#45262F"/>
<path d="M210.062 157.823H202.577V165.333H210.062V157.823Z" fill="#F9AF3C"/>
<path d="M30.4228 165.334H22.9375V172.844H30.4228V165.334Z" fill="#F9AF3C"/>
<path d="M37.9081 165.334H30.4229V172.844H37.9081V165.334Z" fill="#45262F"/>
<path d="M45.3925 165.334H37.9072V172.844H45.3925V165.334Z" fill="#77312B"/>
<path d="M52.8778 165.334H45.3926V172.844H52.8778V165.334Z" fill="#77312B"/>
<path d="M60.3627 165.334H52.8774V172.844H60.3627V165.334Z" fill="#77312B"/>
<path d="M67.8485 165.334H60.3633V172.844H67.8485V165.334Z" fill="#77312B"/>
<path d="M75.3324 165.334H67.8472V172.844H75.3324V165.334Z" fill="#77312B"/>
<path d="M82.8178 165.334H75.3325V172.844H82.8178V165.334Z" fill="#77312B"/>
<path d="M90.3031 165.334H82.8179V172.844H90.3031V165.334Z" fill="#77312B"/>
<path d="M97.7875 165.334H90.3022V172.844H97.7875V165.334Z" fill="#77312B"/>
<path d="M105.272 165.334H97.7871V172.844H105.272V165.334Z" fill="#77312B"/>
<path d="M112.758 165.334H105.273V172.844H112.758V165.334Z" fill="#77312B"/>
<path d="M120.242 165.334H112.756V172.844H120.242V165.334Z" fill="#77312B"/>
<path d="M127.727 165.334H120.242V172.844H127.727V165.334Z" fill="#77312B"/>
<path d="M135.212 165.334H127.727V172.844H135.212V165.334Z" fill="#77312B"/>
<path d="M142.697 165.334H135.211V172.844H142.697V165.334Z" fill="#77312B"/>
<path d="M150.182 165.334H142.696V172.844H150.182V165.334Z" fill="#77312B"/>
<path d="M157.667 165.334H150.182V172.844H157.667V165.334Z" fill="#77312B"/>
<path d="M165.152 165.334H157.667V172.844H165.152V165.334Z" fill="#45262F"/>
<path d="M172.637 165.334H165.151V172.844H172.637V165.334Z" fill="#77312B"/>
<path d="M180.122 165.334H172.637V172.844H180.122V165.334Z" fill="#77312B"/>
<path d="M187.607 165.334H180.122V172.844H187.607V165.334Z" fill="#77312B"/>
<path d="M195.091 165.334H187.606V172.844H195.091V165.334Z" fill="#77312B"/>
<path d="M202.577 165.334H195.092V172.844H202.577V165.334Z" fill="#77312B"/>
<path d="M210.062 165.334H202.577V172.844H210.062V165.334Z" fill="#F9AF3C"/>
<path d="M30.4228 172.844H22.9375V180.354H30.4228V172.844Z" fill="#F9AF3C"/>
<path d="M37.9081 172.844H30.4229V180.354H37.9081V172.844Z" fill="#45262F"/>
<path d="M45.3925 172.844H37.9072V180.354H45.3925V172.844Z" fill="#77312B"/>
<path d="M52.8778 172.844H45.3926V180.354H52.8778V172.844Z" fill="#77312B"/>
<path d="M60.3627 172.844H52.8774V180.354H60.3627V172.844Z" fill="#77312B"/>
<path d="M67.8485 172.844H60.3633V180.354H67.8485V172.844Z" fill="#77312B"/>
<path d="M75.3324 172.844H67.8472V180.354H75.3324V172.844Z" fill="#45262F"/>
<path d="M82.8178 172.844H75.3325V180.354H82.8178V172.844Z" fill="#77312B"/>
<path d="M90.3031 172.844H82.8179V180.354H90.3031V172.844Z" fill="#77312B"/>
<path d="M97.7875 172.844H90.3022V180.354H97.7875V172.844Z" fill="#77312B"/>
<path d="M105.272 172.844H97.7871V180.354H105.272V172.844Z" fill="#77312B"/>
<path d="M112.758 172.844H105.273V180.354H112.758V172.844Z" fill="#77312B"/>
<path d="M120.242 172.844H112.756V180.354H120.242V172.844Z" fill="#77312B"/>
<path d="M127.727 172.844H120.242V180.354H127.727V172.844Z" fill="#77312B"/>
<path d="M135.212 172.844H127.727V180.354H135.212V172.844Z" fill="#77312B"/>
<path d="M142.697 172.844H135.211V180.354H142.697V172.844Z" fill="#77312B"/>
<path d="M150.182 172.844H142.696V180.354H150.182V172.844Z" fill="#77312B"/>
<path d="M157.667 172.844H150.182V180.354H157.667V172.844Z" fill="#77312B"/>
<path d="M165.152 172.844H157.667V180.354H165.152V172.844Z" fill="#45262F"/>
<path d="M172.637 172.844H165.151V180.354H172.637V172.844Z" fill="#77312B"/>
<path d="M180.122 172.844H172.637V180.354H180.122V172.844Z" fill="#77312B"/>
<path d="M187.607 172.844H180.122V180.354H187.607V172.844Z" fill="#77312B"/>
<path d="M195.091 172.844H187.606V180.354H195.091V172.844Z" fill="#77312B"/>
<path d="M202.577 172.844H195.092V180.354H202.577V172.844Z" fill="#45262F"/>
<path d="M210.062 172.844H202.577V180.354H210.062V172.844Z" fill="#F9AF3C"/>
<path d="M37.9081 180.354H30.4229V187.864H37.9081V180.354Z" fill="#F9AF3C"/>
<path d="M30.4228 180.354H22.9375V187.864H30.4228V180.354Z" fill="#F9AF3C"/>
<path d="M22.9379 127.785H15.4526V135.295H22.9379V127.785Z" fill="#F9AF3C"/>
<path d="M22.9379 150.314H15.4526V157.825H22.9379V150.314Z" fill="#F9AF3C"/>
<path d="M22.9379 157.823H15.4526V165.333H22.9379V157.823Z" fill="#F9AF3C"/>
<path d="M22.9379 165.334H15.4526V172.844H22.9379V165.334Z" fill="#F9AF3C"/>
<path d="M22.9379 172.844H15.4526V180.354H22.9379V172.844Z" fill="#F9AF3C"/>
<path d="M22.9379 180.354H15.4526V187.864H22.9379V180.354Z" fill="#F9AF3C"/>
<path d="M45.3925 180.354H37.9072V187.864H45.3925V180.354Z" fill="#F9AF3C"/>
<path d="M52.8778 180.354H45.3926V187.864H52.8778V180.354Z" fill="#F9AF3C"/>
<path d="M60.3627 180.354H52.8774V187.864H60.3627V180.354Z" fill="#F9AF3C"/>
<path d="M67.8485 180.354H60.3633V187.864H67.8485V180.354Z" fill="#F9AF3C"/>
<path d="M75.3324 180.354H67.8472V187.864H75.3324V180.354Z" fill="#F9AF3C"/>
<path d="M82.8178 180.354H75.3325V187.864H82.8178V180.354Z" fill="#F9AF3C"/>
<path d="M90.3031 180.354H82.8179V187.864H90.3031V180.354Z" fill="#F9AF3C"/>
<path d="M97.7875 180.354H90.3022V187.864H97.7875V180.354Z" fill="#F9AF3C"/>
<path d="M105.272 180.354H97.7871V187.864H105.272V180.354Z" fill="#F9AF3C"/>
<path d="M112.758 180.354H105.273V187.864H112.758V180.354Z" fill="#F9AF3C"/>
<path d="M120.242 180.354H112.756V187.864H120.242V180.354Z" fill="#F9AF3C"/>
<path d="M127.727 180.354H120.242V187.864H127.727V180.354Z" fill="#F9AF3C"/>
<path d="M135.212 180.354H127.727V187.864H135.212V180.354Z" fill="#F9AF3C"/>
<path d="M142.697 180.354H135.211V187.864H142.697V180.354Z" fill="#F9AF3C"/>
<path d="M150.182 180.354H142.696V187.864H150.182V180.354Z" fill="#F9AF3C"/>
<path d="M157.667 180.354H150.182V187.864H157.667V180.354Z" fill="#F9AF3C"/>
<path d="M165.152 180.354H157.667V187.864H165.152V180.354Z" fill="#F9AF3C"/>
<path d="M172.637 180.354H165.151V187.864H172.637V180.354Z" fill="#F9AF3C"/>
<path d="M180.122 180.354H172.637V187.864H180.122V180.354Z" fill="#F9AF3C"/>
<path d="M187.607 180.354H180.122V187.864H187.607V180.354Z" fill="#F9AF3C"/>
<path d="M195.091 180.354H187.606V187.864H195.091V180.354Z" fill="#F9AF3C"/>
<path d="M202.577 180.354H195.092V187.864H202.577V180.354Z" fill="#F9AF3C"/>
<path d="M210.062 180.354H202.577V187.864H210.062V180.354Z" fill="#F9AF3C"/>
<path d="M217.546 127.785H210.061V135.295H217.546V127.785Z" fill="#F9AF3C"/>
<path d="M217.546 150.314H210.061V157.825H217.546V150.314Z" fill="#F9AF3C"/>
<path d="M30.4228 142.804H22.9375V150.314H30.4228V142.804Z" fill="#F9AF3C"/>
<path d="M37.9081 142.804H30.4229V150.314H37.9081V142.804Z" fill="#45262F"/>
<path d="M45.3925 142.804H37.9072V150.314H45.3925V142.804Z" fill="#964035"/>
<path d="M52.8778 142.804H45.3926V150.314H52.8778V142.804Z" fill="#964035"/>
<path d="M60.3627 142.804H52.8774V150.314H60.3627V142.804Z" fill="#77312B"/>
<path d="M67.8485 142.804H60.3633V150.314H67.8485V142.804Z" fill="#77312B"/>
<path d="M75.3324 142.804H67.8472V150.314H75.3324V142.804Z" fill="#45262F"/>
<path d="M82.8178 142.804H75.3325V150.314H82.8178V142.804Z" fill="#77312B"/>
<path d="M90.3031 142.804H82.8179V150.314H90.3031V142.804Z" fill="#964035"/>
<path d="M97.7875 142.804H90.3022V150.314H97.7875V142.804Z" fill="#964035"/>
<path d="M105.272 142.804H97.7871V150.314H105.272V142.804Z" fill="#9B9DAA"/>
<path d="M112.758 142.804H105.273V150.314H112.758V142.804Z" fill="#9B9DAA"/>
<path d="M120.242 142.804H112.756V150.314H120.242V142.804Z" fill="#6A6C7B"/>
<path d="M127.727 142.804H120.242V150.314H127.727V142.804Z" fill="#6A6C7B"/>
<path d="M135.212 142.804H127.727V150.314H135.212V142.804Z" fill="#6A6C7B"/>
<path d="M142.697 142.804H135.211V150.314H142.697V142.804Z" fill="#964035"/>
<path d="M150.182 142.804H142.696V150.314H150.182V142.804Z" fill="#77312B"/>
<path d="M157.667 142.804H150.182V150.314H157.667V142.804Z" fill="#77312B"/>
<path d="M165.152 142.804H157.667V150.314H165.152V142.804Z" fill="#45262F"/>
<path d="M172.637 142.804H165.151V150.314H172.637V142.804Z" fill="#77312B"/>
<path d="M180.122 142.804H172.637V150.314H180.122V142.804Z" fill="#964035"/>
<path d="M187.607 142.804H180.122V150.314H187.607V142.804Z" fill="#964035"/>
<path d="M195.091 142.804H187.606V150.314H195.091V142.804Z" fill="#964035"/>
<path d="M202.577 142.804H195.092V150.314H202.577V142.804Z" fill="#45262F"/>
<path d="M210.062 142.804H202.577V150.314H210.062V142.804Z" fill="#F9AF3C"/>
<path d="M22.9379 142.804H15.4526V150.314H22.9379V142.804Z" fill="#F9AF3C"/>
<path d="M217.546 142.804H210.061V150.314H217.546V142.804Z" fill="#F9AF3C"/>
<path d="M30.4228 135.293H22.9375V142.804H30.4228V135.293Z" fill="#F9AF3C"/>
<path d="M37.9081 135.293H30.4229V142.804H37.9081V135.293Z" fill="#45262F"/>
<path d="M45.3925 135.293H37.9072V142.804H45.3925V135.293Z" fill="#964035"/>
<path d="M52.8778 135.293H45.3926V142.804H52.8778V135.293Z" fill="#964035"/>
<path d="M60.3627 135.293H52.8774V142.804H60.3627V135.293Z" fill="#964035"/>
<path d="M67.8485 135.293H60.3633V142.804H67.8485V135.293Z" fill="#964035"/>
<path d="M75.3324 135.293H67.8472V142.804H75.3324V135.293Z" fill="#45262F"/>
<path d="M82.8178 135.293H75.3325V142.804H82.8178V135.293Z" fill="#964035"/>
<path d="M90.3031 135.293H82.8179V142.804H90.3031V135.293Z" fill="#964035"/>
<path d="M97.7875 135.293H90.3022V142.804H97.7875V135.293Z" fill="#9B9DAA"/>
<path d="M105.272 135.293H97.7871V142.804H105.272V135.293Z" fill="#9B9DAA"/>
<path d="M112.758 135.293H105.273V142.804H112.758V135.293Z" fill="#9B9DAA"/>
<path d="M120.242 135.293H112.756V142.804H120.242V135.293Z" fill="#9B9DAA"/>
<path d="M127.727 135.293H120.242V142.804H127.727V135.293Z" fill="#9B9DAA"/>
<path d="M135.212 135.293H127.727V142.804H135.212V135.293Z" fill="#6A6C7B"/>
<path d="M142.697 135.293H135.211V142.804H142.697V135.293Z" fill="#6A6C7B"/>
<path d="M150.182 135.293H142.696V142.804H150.182V135.293Z" fill="#964035"/>
<path d="M157.667 135.293H150.182V142.804H157.667V135.293Z" fill="#964035"/>
<path d="M165.152 135.293H157.667V142.804H165.152V135.293Z" fill="#45262F"/>
<path d="M172.637 135.293H165.151V142.804H172.637V135.293Z" fill="#964035"/>
<path d="M180.122 135.293H172.637V142.804H180.122V135.293Z" fill="#964035"/>
<path d="M187.607 135.293H180.122V142.804H187.607V135.293Z" fill="#964035"/>
<path d="M195.091 135.293H187.606V142.804H195.091V135.293Z" fill="#964035"/>
<path d="M202.577 135.293H195.092V142.804H202.577V135.293Z" fill="#45262F"/>
<path d="M210.062 135.293H202.577V142.804H210.062V135.293Z" fill="#F9AF3C"/>
<path d="M22.9379 135.293H15.4526V142.804H22.9379V135.293Z" fill="#F9AF3C"/>
<path d="M217.546 135.293H210.061V142.804H217.546V135.293Z" fill="#F9AF3C"/>
<path d="M217.546 157.823H210.061V165.333H217.546V157.823Z" fill="#F9AF3C"/>
<path d="M217.546 165.334H210.061V172.844H217.546V165.334Z" fill="#F9AF3C"/>
<path d="M217.546 172.844H210.061V180.354H217.546V172.844Z" fill="#F9AF3C"/>
<path d="M217.546 180.354H210.061V187.864H217.546V180.354Z" fill="#F9AF3C"/>
<path d="M37.9081 187.863H30.4229V195.373H37.9081V187.863Z" fill="#F9AF3C"/>
<path d="M30.4228 187.863H22.9375V195.373H30.4228V187.863Z" fill="#F9AF3C"/>
<path d="M22.9379 187.863H15.4526V195.373H22.9379V187.863Z" fill="#F9AF3C"/>
<path d="M45.3925 187.863H37.9072V195.373H45.3925V187.863Z" fill="#F9AF3C"/>
<path d="M52.8778 187.863H45.3926V195.373H52.8778V187.863Z" fill="#F9AF3C"/>
<path d="M60.3627 187.863H52.8774V195.373H60.3627V187.863Z" fill="#F9AF3C"/>
<path d="M67.8485 187.863H60.3633V195.373H67.8485V187.863Z" fill="#F9AF3C"/>
<path d="M75.3324 187.863H67.8472V195.373H75.3324V187.863Z" fill="#F9AF3C"/>
<path d="M82.8178 187.863H75.3325V195.373H82.8178V187.863Z" fill="#F9AF3C"/>
<path d="M90.3031 187.863H82.8179V195.373H90.3031V187.863Z" fill="#F9AF3C"/>
<path d="M97.7875 187.863H90.3022V195.373H97.7875V187.863Z" fill="#F9AF3C"/>
<path d="M105.272 187.863H97.7871V195.373H105.272V187.863Z" fill="#F9AF3C"/>
<path d="M112.758 187.863H105.273V195.373H112.758V187.863Z" fill="#F9AF3C"/>
<path d="M120.242 187.863H112.756V195.373H120.242V187.863Z" fill="#F9AF3C"/>
<path d="M127.727 187.863H120.242V195.373H127.727V187.863Z" fill="#F9AF3C"/>
<path d="M135.212 187.863H127.727V195.373H135.212V187.863Z" fill="#F9AF3C"/>
<path d="M142.697 187.863H135.211V195.373H142.697V187.863Z" fill="#F9AF3C"/>
<path d="M150.182 187.863H142.696V195.373H150.182V187.863Z" fill="#F9AF3C"/>
<path d="M157.667 187.863H150.182V195.373H157.667V187.863Z" fill="#F9AF3C"/>
<path d="M165.152 187.863H157.667V195.373H165.152V187.863Z" fill="#F9AF3C"/>
<path d="M172.637 187.863H165.151V195.373H172.637V187.863Z" fill="#F9AF3C"/>
<path d="M180.122 187.863H172.637V195.373H180.122V187.863Z" fill="#F9AF3C"/>
<path d="M187.607 187.863H180.122V195.373H187.607V187.863Z" fill="#F9AF3C"/>
<path d="M195.091 187.863H187.606V195.373H195.091V187.863Z" fill="#F9AF3C"/>
<path d="M202.577 187.863H195.092V195.373H202.577V187.863Z" fill="#F9AF3C"/>
<path d="M210.062 187.863H202.577V195.373H210.062V187.863Z" fill="#F9AF3C"/>
<path d="M217.546 187.863H210.061V195.373H217.546V187.863Z" fill="#F9AF3C"/>
<path d="M37.9081 195.373H30.4229V202.883H37.9081V195.373Z" fill="#BD4B2F"/>
<path d="M30.4228 195.373H22.9375V202.883H30.4228V195.373Z" fill="#BD4B2F"/>
<path d="M22.9379 195.373H15.4526V202.883H22.9379V195.373Z" fill="#BD4B2F"/>
<path d="M45.3925 195.373H37.9072V202.883H45.3925V195.373Z" fill="#BD4B2F"/>
<path d="M52.8778 195.373H45.3926V202.883H52.8778V195.373Z" fill="#BD4B2F"/>
<path d="M60.3627 195.373H52.8774V202.883H60.3627V195.373Z" fill="#BD4B2F"/>
<path d="M67.8485 195.373H60.3633V202.883H67.8485V195.373Z" fill="#BD4B2F"/>
<path d="M75.3324 195.373H67.8472V202.883H75.3324V195.373Z" fill="#BD4B2F"/>
<path d="M82.8178 195.373H75.3325V202.883H82.8178V195.373Z" fill="#BD4B2F"/>
<path d="M90.3031 195.373H82.8179V202.883H90.3031V195.373Z" fill="#BD4B2F"/>
<path d="M97.7875 195.373H90.3022V202.883H97.7875V195.373Z" fill="#BD4B2F"/>
<path d="M105.272 195.373H97.7871V202.883H105.272V195.373Z" fill="#BD4B2F"/>
<path d="M112.758 195.373H105.273V202.883H112.758V195.373Z" fill="#BD4B2F"/>
<path d="M120.242 195.373H112.756V202.883H120.242V195.373Z" fill="#BD4B2F"/>
<path d="M127.727 195.373H120.242V202.883H127.727V195.373Z" fill="#BD4B2F"/>
<path d="M135.212 195.373H127.727V202.883H135.212V195.373Z" fill="#BD4B2F"/>
<path d="M142.697 195.373H135.211V202.883H142.697V195.373Z" fill="#BD4B2F"/>
<path d="M150.182 195.373H142.696V202.883H150.182V195.373Z" fill="#BD4B2F"/>
<path d="M157.667 195.373H150.182V202.883H157.667V195.373Z" fill="#BD4B2F"/>
<path d="M165.152 195.373H157.667V202.883H165.152V195.373Z" fill="#BD4B2F"/>
<path d="M172.637 195.373H165.151V202.883H172.637V195.373Z" fill="#BD4B2F"/>
<path d="M180.122 195.373H172.637V202.883H180.122V195.373Z" fill="#BD4B2F"/>
<path d="M187.607 195.373H180.122V202.883H187.607V195.373Z" fill="#BD4B2F"/>
<path d="M195.091 195.373H187.606V202.883H195.091V195.373Z" fill="#BD4B2F"/>
<path d="M202.577 195.373H195.092V202.883H202.577V195.373Z" fill="#BD4B2F"/>
<path d="M210.062 195.373H202.577V202.883H210.062V195.373Z" fill="#BD4B2F"/>
<path d="M217.546 195.373H210.061V202.883H217.546V195.373Z" fill="#BD4B2F"/>
</svg>
