<svg width="235" height="205" viewBox="0 0 235 205" fill="none" xmlns="http://www.w3.org/2000/svg">
<path d="M45.8729 0.375977H38.333V7.941H45.8729V0.375977Z" fill="#98A2B3"/>
<path d="M53.4139 0.375977H45.874V7.941H53.4139V0.375977Z" fill="#98A2B3"/>
<path d="M60.9525 0.375977H53.4126V7.941H60.9525V0.375977Z" fill="#98A2B3"/>
<path d="M68.4935 0.375977H60.9536V7.941H68.4935V0.375977Z" fill="#98A2B3"/>
<path d="M174.048 0.375977H166.508V7.941H174.048V0.375977Z" fill="#98A2B3"/>
<path d="M181.586 0.375977H174.046V7.941H181.586V0.375977Z" fill="#98A2B3"/>
<path d="M189.127 0.375977H181.587V7.941H189.127V0.375977Z" fill="#98A2B3"/>
<path d="M196.665 0.375977H189.125V7.941H196.665V0.375977Z" fill="#98A2B3"/>
<path d="M38.3348 7.94092H30.7949V15.5059H38.3348V7.94092Z" fill="#45262F"/>
<path d="M45.8729 7.94092H38.333V15.5059H45.8729V7.94092Z" fill="#E4E7EC"/>
<path d="M53.4139 7.94092H45.874V15.5059H53.4139V7.94092Z" fill="#98A2B3"/>
<path d="M60.9525 7.94092H53.4126V15.5059H60.9525V7.94092Z" fill="#98A2B3"/>
<path d="M68.4935 7.94092H60.9536V15.5059H68.4935V7.94092Z" fill="#E4E7EC"/>
<path d="M76.0316 7.94092H68.4917V15.5059H76.0316V7.94092Z" fill="#45262F"/>
<path d="M83.5716 7.94092H76.0317V15.5059H83.5716V7.94092Z" fill="#45262F"/>
<path d="M91.1112 7.94092H83.5713V15.5059H91.1112V7.94092Z" fill="#45262F"/>
<path d="M98.6507 7.94092H91.1108V15.5059H98.6507V7.94092Z" fill="#45262F"/>
<path d="M106.19 7.94092H98.6504V15.5059H106.19V7.94092Z" fill="#45262F"/>
<path d="M113.73 7.94092H106.19V15.5059H113.73V7.94092Z" fill="#45262F"/>
<path d="M121.269 7.94092H113.729V15.5059H121.269V7.94092Z" fill="#45262F"/>
<path d="M128.81 7.94092H121.27V15.5059H128.81V7.94092Z" fill="#45262F"/>
<path d="M136.349 7.94092H128.809V15.5059H136.349V7.94092Z" fill="#45262F"/>
<path d="M143.889 7.94092H136.349V15.5059H143.889V7.94092Z" fill="#45262F"/>
<path d="M151.428 7.94092H143.888V15.5059H151.428V7.94092Z" fill="#45262F"/>
<path d="M158.969 7.94092H151.429V15.5059H158.969V7.94092Z" fill="#45262F"/>
<path d="M166.508 7.94092H158.968V15.5059H166.508V7.94092Z" fill="#45262F"/>
<path d="M174.048 7.94092H166.508V15.5059H174.048V7.94092Z" fill="#D0D5DD"/>
<path d="M181.586 7.94092H174.046V15.5059H181.586V7.94092Z" fill="#98A2B3"/>
<path d="M189.127 7.94092H181.587V15.5059H189.127V7.94092Z" fill="#98A2B3"/>
<path d="M196.665 7.94092H189.125V15.5059H196.665V7.94092Z" fill="#D0D5DD"/>
<path d="M204.205 7.94092H196.666V15.5059H204.205V7.94092Z" fill="#45262F"/>
<path d="M23.2552 15.5049H15.7153V23.0699H23.2552V15.5049Z" fill="#45262F"/>
<path d="M38.3348 15.5049H30.7949V23.0699H38.3348V15.5049Z" fill="#45262F"/>
<path d="M45.8729 15.5049H38.333V23.0699H45.8729V15.5049Z" fill="#E4E7EC"/>
<path d="M53.4139 15.5049H45.874V23.0699H53.4139V15.5049Z" fill="#E4E7EC"/>
<path d="M60.9525 15.5049H53.4126V23.0699H60.9525V15.5049Z" fill="#98A2B3"/>
<path d="M68.4935 15.5049H60.9536V23.0699H68.4935V15.5049Z" fill="#E4E7EC"/>
<path d="M76.0316 15.5049H68.4917V23.0699H76.0316V15.5049Z" fill="#45262F"/>
<path d="M83.5716 15.5049H76.0317V23.0699H83.5716V15.5049Z" fill="#AF6B6B"/>
<path d="M91.1112 15.5049H83.5713V23.0699H91.1112V15.5049Z" fill="#AF6B6B"/>
<path d="M98.6507 15.5049H91.1108V23.0699H98.6507V15.5049Z" fill="#964035"/>
<path d="M106.19 15.5049H98.6504V23.0699H106.19V15.5049Z" fill="#964035"/>
<path d="M113.73 15.5049H106.19V23.0699H113.73V15.5049Z" fill="#964035"/>
<path d="M121.269 15.5049H113.729V23.0699H121.269V15.5049Z" fill="#964035"/>
<path d="M128.81 15.5049H121.27V23.0699H128.81V15.5049Z" fill="#964035"/>
<path d="M136.349 15.5049H128.809V23.0699H136.349V15.5049Z" fill="#964035"/>
<path d="M143.889 15.5049H136.349V23.0699H143.889V15.5049Z" fill="#964035"/>
<path d="M151.428 15.5049H143.888V23.0699H151.428V15.5049Z" fill="#964035"/>
<path d="M158.969 15.5049H151.429V23.0699H158.969V15.5049Z" fill="#964035"/>
<path d="M166.508 15.5049H158.968V23.0699H166.508V15.5049Z" fill="#45262F"/>
<path d="M174.048 15.5049H166.508V23.0699H174.048V15.5049Z" fill="#D0D5DD"/>
<path d="M181.586 15.5049H174.046V23.0699H181.586V15.5049Z" fill="#D0D5DD"/>
<path d="M189.127 15.5049H181.587V23.0699H189.127V15.5049Z" fill="#98A2B3"/>
<path d="M196.665 15.5049H189.125V23.0699H196.665V15.5049Z" fill="#D0D5DD"/>
<path d="M204.205 15.5049H196.666V23.0699H204.205V15.5049Z" fill="#45262F"/>
<path d="M219.285 15.5049H211.745V23.0699H219.285V15.5049Z" fill="#45262F"/>
<path d="M23.2552 23.0703H15.7153V30.6353H23.2552V23.0703Z" fill="#45262F"/>
<path d="M38.3348 23.0703H30.7949V30.6353H38.3348V23.0703Z" fill="#45262F"/>
<path d="M45.8729 23.0703H38.333V30.6353H45.8729V23.0703Z" fill="#F9FAFB"/>
<path d="M53.4139 23.0703H45.874V30.6353H53.4139V23.0703Z" fill="#E4E7EC"/>
<path d="M60.9525 23.0703H53.4126V30.6353H60.9525V23.0703Z" fill="#E4E7EC"/>
<path d="M68.4935 23.0703H60.9536V30.6353H68.4935V23.0703Z" fill="#E4E7EC"/>
<path d="M76.0316 23.0703H68.4917V30.6353H76.0316V23.0703Z" fill="#45262F"/>
<path d="M83.5716 23.0703H76.0317V30.6353H83.5716V23.0703Z" fill="#964035"/>
<path d="M91.1112 23.0703H83.5713V30.6353H91.1112V23.0703Z" fill="#964035"/>
<path d="M98.6507 23.0703H91.1108V30.6353H98.6507V23.0703Z" fill="#964035"/>
<path d="M106.19 23.0703H98.6504V30.6353H106.19V23.0703Z" fill="#964035"/>
<path d="M113.73 23.0703H106.19V30.6353H113.73V23.0703Z" fill="#964035"/>
<path d="M121.269 23.0703H113.729V30.6353H121.269V23.0703Z" fill="#AF6B6B"/>
<path d="M128.81 23.0703H121.27V30.6353H128.81V23.0703Z" fill="#AF6B6B"/>
<path d="M136.349 23.0703H128.809V30.6353H136.349V23.0703Z" fill="#AF6B6B"/>
<path d="M143.889 23.0703H136.349V30.6353H143.889V23.0703Z" fill="#AF6B6B"/>
<path d="M151.428 23.0703H143.888V30.6353H151.428V23.0703Z" fill="#AF6B6B"/>
<path d="M158.969 23.0703H151.429V30.6353H158.969V23.0703Z" fill="#AF6B6B"/>
<path d="M166.508 23.0703H158.968V30.6353H166.508V23.0703Z" fill="#45262F"/>
<path d="M174.048 23.0703H166.508V30.6353H174.048V23.0703Z" fill="#F9FAFB"/>
<path d="M181.586 23.0703H174.046V30.6353H181.586V23.0703Z" fill="#D0D5DD"/>
<path d="M189.127 23.0703H181.587V30.6353H189.127V23.0703Z" fill="#D0D5DD"/>
<path d="M196.665 23.0703H189.125V30.6353H196.665V23.0703Z" fill="#D0D5DD"/>
<path d="M204.205 23.0703H196.666V30.6353H204.205V23.0703Z" fill="#45262F"/>
<path d="M219.285 23.0703H211.745V30.6353H219.285V23.0703Z" fill="#45262F"/>
<path d="M23.2552 30.6353H15.7153V38.2003H23.2552V30.6353Z" fill="#45262F"/>
<path d="M38.3348 30.6353H30.7949V38.2003H38.3348V30.6353Z" fill="#45262F"/>
<path d="M45.8729 30.6353H38.333V38.2003H45.8729V30.6353Z" fill="#F9FAFB"/>
<path d="M53.4139 30.6353H45.874V38.2003H53.4139V30.6353Z" fill="#E4E7EC"/>
<path d="M60.9525 30.6353H53.4126V38.2003H60.9525V30.6353Z" fill="#F9FAFB"/>
<path d="M68.4935 30.6353H60.9536V38.2003H68.4935V30.6353Z" fill="#E4E7EC"/>
<path d="M76.0316 30.6353H68.4917V38.2003H76.0316V30.6353Z" fill="#45262F"/>
<path d="M83.5716 30.6353H76.0317V38.2003H83.5716V30.6353Z" fill="#964035"/>
<path d="M91.1112 30.6353H83.5713V38.2003H91.1112V30.6353Z" fill="#964035"/>
<path d="M98.6507 30.6353H91.1108V38.2003H98.6507V30.6353Z" fill="#964035"/>
<path d="M106.19 30.6353H98.6504V38.2003H106.19V30.6353Z" fill="#964035"/>
<path d="M113.73 30.6353H106.19V38.2003H113.73V30.6353Z" fill="#964035"/>
<path d="M121.269 30.6353H113.729V38.2003H121.269V30.6353Z" fill="#964035"/>
<path d="M128.81 30.6353H121.27V38.2003H128.81V30.6353Z" fill="#964035"/>
<path d="M136.349 30.6353H128.809V38.2003H136.349V30.6353Z" fill="#964035"/>
<path d="M143.889 30.6353H136.349V38.2003H143.889V30.6353Z" fill="#AF6B6B"/>
<path d="M151.428 30.6353H143.888V38.2003H151.428V30.6353Z" fill="#AF6B6B"/>
<path d="M158.969 30.6353H151.429V38.2003H158.969V30.6353Z" fill="#AF6B6B"/>
<path d="M166.508 30.6353H158.968V38.2003H166.508V30.6353Z" fill="#45262F"/>
<path d="M174.048 30.6353H166.508V38.2003H174.048V30.6353Z" fill="#F9FAFB"/>
<path d="M181.586 30.6353H174.046V38.2003H181.586V30.6353Z" fill="#D0D5DD"/>
<path d="M189.127 30.6353H181.587V38.2003H189.127V30.6353Z" fill="#F9FAFB"/>
<path d="M196.665 30.6353H189.125V38.2003H196.665V30.6353Z" fill="#D0D5DD"/>
<path d="M204.205 30.6353H196.666V38.2003H204.205V30.6353Z" fill="#45262F"/>
<path d="M219.285 30.6353H211.745V38.2003H219.285V30.6353Z" fill="#45262F"/>
<path d="M23.2552 38.1987H15.7153V45.7638H23.2552V38.1987Z" fill="#45262F"/>
<path d="M38.3348 38.1987H30.7949V45.7638H38.3348V38.1987Z" fill="#45262F"/>
<path d="M45.8729 38.1987H38.333V45.7638H45.8729V38.1987Z" fill="#F9FAFB"/>
<path d="M53.4139 38.1987H45.874V45.7638H53.4139V38.1987Z" fill="#F9FAFB"/>
<path d="M60.9525 38.1987H53.4126V45.7638H60.9525V38.1987Z" fill="#F9FAFB"/>
<path d="M68.4935 38.1987H60.9536V45.7638H68.4935V38.1987Z" fill="#F9FAFB"/>
<path d="M76.0316 38.1987H68.4917V45.7638H76.0316V38.1987Z" fill="#45262F"/>
<path d="M83.5716 38.1987H76.0317V45.7638H83.5716V38.1987Z" fill="#AF6B6B"/>
<path d="M91.1112 38.1987H83.5713V45.7638H91.1112V38.1987Z" fill="#AF6B6B"/>
<path d="M98.6507 38.1987H91.1108V45.7638H98.6507V38.1987Z" fill="#AF6B6B"/>
<path d="M106.19 38.1987H98.6504V45.7638H106.19V38.1987Z" fill="#AF6B6B"/>
<path d="M113.73 38.1987H106.19V45.7638H113.73V38.1987Z" fill="#964035"/>
<path d="M121.269 38.1987H113.729V45.7638H121.269V38.1987Z" fill="#964035"/>
<path d="M128.81 38.1987H121.27V45.7638H128.81V38.1987Z" fill="#964035"/>
<path d="M136.349 38.1987H128.809V45.7638H136.349V38.1987Z" fill="#964035"/>
<path d="M143.889 38.1987H136.349V45.7638H143.889V38.1987Z" fill="#964035"/>
<path d="M151.428 38.1987H143.888V45.7638H151.428V38.1987Z" fill="#964035"/>
<path d="M158.969 38.1987H151.429V45.7638H158.969V38.1987Z" fill="#964035"/>
<path d="M166.508 38.1987H158.968V45.7638H166.508V38.1987Z" fill="#45262F"/>
<path d="M174.048 38.1987H166.508V45.7638H174.048V38.1987Z" fill="#F9FAFB"/>
<path d="M181.586 38.1987H174.046V45.7638H181.586V38.1987Z" fill="#F9FAFB"/>
<path d="M189.127 38.1987H181.587V45.7638H189.127V38.1987Z" fill="#F9FAFB"/>
<path d="M196.665 38.1987H189.125V45.7638H196.665V38.1987Z" fill="#F9FAFB"/>
<path d="M204.205 38.1987H196.666V45.7638H204.205V38.1987Z" fill="#45262F"/>
<path d="M219.285 38.1987H211.745V45.7638H219.285V38.1987Z" fill="#45262F"/>
<path d="M15.7157 45.7637H8.17578V53.3287H15.7157V45.7637Z" fill="#F9AF3C"/>
<path d="M23.2552 45.7637H15.7153V53.3287H23.2552V45.7637Z" fill="#45262F"/>
<path d="M38.3348 45.7637H30.7949V53.3287H38.3348V45.7637Z" fill="#45262F"/>
<path d="M45.8729 45.7637H38.333V53.3287H45.8729V45.7637Z" fill="#F9FAFB"/>
<path d="M53.4139 45.7637H45.874V53.3287H53.4139V45.7637Z" fill="#F9FAFB"/>
<path d="M60.9525 45.7637H53.4126V53.3287H60.9525V45.7637Z" fill="#F9FAFB"/>
<path d="M68.4935 45.7637H60.9536V53.3287H68.4935V45.7637Z" fill="#F9FAFB"/>
<path d="M76.0316 45.7637H68.4917V53.3287H76.0316V45.7637Z" fill="#45262F"/>
<path d="M83.5716 45.7637H76.0317V53.3287H83.5716V45.7637Z" fill="#AF6B6B"/>
<path d="M91.1112 45.7637H83.5713V53.3287H91.1112V45.7637Z" fill="#AF6B6B"/>
<path d="M98.6507 45.7637H91.1108V53.3287H98.6507V45.7637Z" fill="#AF6B6B"/>
<path d="M106.19 45.7637H98.6504V53.3287H106.19V45.7637Z" fill="#AF6B6B"/>
<path d="M113.73 45.7637H106.19V53.3287H113.73V45.7637Z" fill="#AF6B6B"/>
<path d="M121.269 45.7637H113.729V53.3287H121.269V45.7637Z" fill="#AF6B6B"/>
<path d="M128.81 45.7637H121.27V53.3287H128.81V45.7637Z" fill="#AF6B6B"/>
<path d="M136.349 45.7637H128.809V53.3287H136.349V45.7637Z" fill="#964035"/>
<path d="M143.889 45.7637H136.349V53.3287H143.889V45.7637Z" fill="#964035"/>
<path d="M151.428 45.7637H143.888V53.3287H151.428V45.7637Z" fill="#964035"/>
<path d="M158.969 45.7637H151.429V53.3287H158.969V45.7637Z" fill="#964035"/>
<path d="M166.508 45.7637H158.968V53.3287H166.508V45.7637Z" fill="#45262F"/>
<path d="M174.048 45.7637H166.508V53.3287H174.048V45.7637Z" fill="#F9FAFB"/>
<path d="M181.586 45.7637H174.046V53.3287H181.586V45.7637Z" fill="#F9FAFB"/>
<path d="M189.127 45.7637H181.587V53.3287H189.127V45.7637Z" fill="#F9FAFB"/>
<path d="M196.665 45.7637H189.125V53.3287H196.665V45.7637Z" fill="#F9FAFB"/>
<path d="M204.205 45.7637H196.666V53.3287H204.205V45.7637Z" fill="#45262F"/>
<path d="M219.285 45.7637H211.745V53.3287H219.285V45.7637Z" fill="#45262F"/>
<path d="M226.824 45.7637H219.284V53.3287H226.824V45.7637Z" fill="#F9AF3C"/>
<path d="M15.7157 53.3291H8.17578V60.8941H15.7157V53.3291Z" fill="#F9AF3C"/>
<path d="M23.2552 53.3291H15.7153V60.8941H23.2552V53.3291Z" fill="#45262F"/>
<path d="M38.3348 53.3291H30.7949V60.8941H38.3348V53.3291Z" fill="#45262F"/>
<path d="M45.8729 53.3291H38.333V60.8941H45.8729V53.3291Z" fill="#F9FAFB"/>
<path d="M53.4139 53.3291H45.874V60.8941H53.4139V53.3291Z" fill="#F9FAFB"/>
<path d="M60.9525 53.3291H53.4126V60.8941H60.9525V53.3291Z" fill="#F9FAFB"/>
<path d="M68.4935 53.3291H60.9536V60.8941H68.4935V53.3291Z" fill="#F9FAFB"/>
<path d="M76.0316 53.3291H68.4917V60.8941H76.0316V53.3291Z" fill="#45262F"/>
<path d="M83.5716 53.3291H76.0317V60.8941H83.5716V53.3291Z" fill="#45262F"/>
<path d="M91.1112 53.3291H83.5713V60.8941H91.1112V53.3291Z" fill="#45262F"/>
<path d="M98.6507 53.3291H91.1108V60.8941H98.6507V53.3291Z" fill="#45262F"/>
<path d="M106.19 53.3291H98.6504V60.8941H106.19V53.3291Z" fill="#45262F"/>
<path d="M113.73 53.3291H106.19V60.8941H113.73V53.3291Z" fill="#45262F"/>
<path d="M121.269 53.3291H113.729V60.8941H121.269V53.3291Z" fill="#45262F"/>
<path d="M128.81 53.3291H121.27V60.8941H128.81V53.3291Z" fill="#45262F"/>
<path d="M136.349 53.3291H128.809V60.8941H136.349V53.3291Z" fill="#45262F"/>
<path d="M143.889 53.3291H136.349V60.8941H143.889V53.3291Z" fill="#45262F"/>
<path d="M151.428 53.3291H143.888V60.8941H151.428V53.3291Z" fill="#45262F"/>
<path d="M158.969 53.3291H151.429V60.8941H158.969V53.3291Z" fill="#45262F"/>
<path d="M166.508 53.3291H158.968V60.8941H166.508V53.3291Z" fill="#45262F"/>
<path d="M174.048 53.3291H166.508V60.8941H174.048V53.3291Z" fill="#F9FAFB"/>
<path d="M181.586 53.3291H174.046V60.8941H181.586V53.3291Z" fill="#F9FAFB"/>
<path d="M189.127 53.3291H181.587V60.8941H189.127V53.3291Z" fill="#F9FAFB"/>
<path d="M196.665 53.3291H189.125V60.8941H196.665V53.3291Z" fill="#F9FAFB"/>
<path d="M204.205 53.3291H196.666V60.8941H204.205V53.3291Z" fill="#45262F"/>
<path d="M219.285 53.3291H211.745V60.8941H219.285V53.3291Z" fill="#45262F"/>
<path d="M226.824 53.3291H219.284V60.8941H226.824V53.3291Z" fill="#F9AF3C"/>
<path d="M15.7157 60.8945H8.17578V68.4596H15.7157V60.8945Z" fill="#F9AF3C"/>
<path d="M23.2552 60.8945H15.7153V68.4596H23.2552V60.8945Z" fill="#45262F"/>
<path d="M38.3348 60.8945H30.7949V68.4596H38.3348V60.8945Z" fill="#45262F"/>
<path d="M45.8729 60.8945H38.333V68.4596H45.8729V60.8945Z" fill="#F9FAFB"/>
<path d="M53.4139 60.8945H45.874V68.4596H53.4139V60.8945Z" fill="#F9FAFB"/>
<path d="M60.9525 60.8945H53.4126V68.4596H60.9525V60.8945Z" fill="#F9FAFB"/>
<path d="M68.4935 60.8945H60.9536V68.4596H68.4935V60.8945Z" fill="#F9FAFB"/>
<path d="M76.0316 60.8945H68.4917V68.4596H76.0316V60.8945Z" fill="#45262F"/>
<path d="M83.5716 60.8945H76.0317V68.4596H83.5716V60.8945Z" fill="#AF6B6B"/>
<path d="M91.1112 60.8945H83.5713V68.4596H91.1112V60.8945Z" fill="#AF6B6B"/>
<path d="M98.6507 60.8945H91.1108V68.4596H98.6507V60.8945Z" fill="#AF6B6B"/>
<path d="M106.19 60.8945H98.6504V68.4596H106.19V60.8945Z" fill="#964035"/>
<path d="M113.73 60.8945H106.19V68.4596H113.73V60.8945Z" fill="#964035"/>
<path d="M121.269 60.8945H113.729V68.4596H121.269V60.8945Z" fill="#964035"/>
<path d="M128.81 60.8945H121.27V68.4596H128.81V60.8945Z" fill="#964035"/>
<path d="M136.349 60.8945H128.809V68.4596H136.349V60.8945Z" fill="#964035"/>
<path d="M143.889 60.8945H136.349V68.4596H143.889V60.8945Z" fill="#964035"/>
<path d="M151.428 60.8945H143.888V68.4596H151.428V60.8945Z" fill="#964035"/>
<path d="M158.969 60.8945H151.429V68.4596H158.969V60.8945Z" fill="#964035"/>
<path d="M166.508 60.8945H158.968V68.4596H166.508V60.8945Z" fill="#45262F"/>
<path d="M174.048 60.8945H166.508V68.4596H174.048V60.8945Z" fill="#F9FAFB"/>
<path d="M181.586 60.8945H174.046V68.4596H181.586V60.8945Z" fill="#F9FAFB"/>
<path d="M189.127 60.8945H181.587V68.4596H189.127V60.8945Z" fill="#F9FAFB"/>
<path d="M196.665 60.8945H189.125V68.4596H196.665V60.8945Z" fill="#F9FAFB"/>
<path d="M204.205 60.8945H196.666V68.4596H204.205V60.8945Z" fill="#45262F"/>
<path d="M219.285 60.8945H211.745V68.4596H219.285V60.8945Z" fill="#45262F"/>
<path d="M226.824 60.8945H219.284V68.4596H226.824V60.8945Z" fill="#F9AF3C"/>
<path d="M15.7157 68.458H8.17578V76.023H15.7157V68.458Z" fill="#F9AF3C"/>
<path d="M23.2552 68.458H15.7153V76.023H23.2552V68.458Z" fill="#45262F"/>
<path d="M38.3348 68.458H30.7949V76.023H38.3348V68.458Z" fill="#45262F"/>
<path d="M45.8729 68.458H38.333V76.023H45.8729V68.458Z" fill="#E4E7EC"/>
<path d="M53.4139 68.458H45.874V76.023H53.4139V68.458Z" fill="#F9FAFB"/>
<path d="M60.9525 68.458H53.4126V76.023H60.9525V68.458Z" fill="#E4E7EC"/>
<path d="M68.4935 68.458H60.9536V76.023H68.4935V68.458Z" fill="#F9FAFB"/>
<path d="M76.0316 68.458H68.4917V76.023H76.0316V68.458Z" fill="#45262F"/>
<path d="M83.5716 68.458H76.0317V76.023H83.5716V68.458Z" fill="#964035"/>
<path d="M91.1112 68.458H83.5713V76.023H91.1112V68.458Z" fill="#964035"/>
<path d="M98.6507 68.458H91.1108V76.023H98.6507V68.458Z" fill="#964035"/>
<path d="M106.19 68.458H98.6504V76.023H106.19V68.458Z" fill="#964035"/>
<path d="M113.73 68.458H106.19V76.023H113.73V68.458Z" fill="#F8F8F9"/>
<path d="M121.269 68.458H113.729V76.023H121.269V68.458Z" fill="#F8F8F9"/>
<path d="M128.81 68.458H121.27V76.023H128.81V68.458Z" fill="#F8F8F9"/>
<path d="M136.349 68.458H128.809V76.023H136.349V68.458Z" fill="#964035"/>
<path d="M143.889 68.458H136.349V76.023H143.889V68.458Z" fill="#964035"/>
<path d="M151.428 68.458H143.888V76.023H151.428V68.458Z" fill="#964035"/>
<path d="M158.969 68.458H151.429V76.023H158.969V68.458Z" fill="#964035"/>
<path d="M166.508 68.458H158.968V76.023H166.508V68.458Z" fill="#45262F"/>
<path d="M174.048 68.458H166.508V76.023H174.048V68.458Z" fill="#D0D5DD"/>
<path d="M181.586 68.458H174.046V76.023H181.586V68.458Z" fill="#F9FAFB"/>
<path d="M189.127 68.458H181.587V76.023H189.127V68.458Z" fill="#D0D5DD"/>
<path d="M196.665 68.458H189.125V76.023H196.665V68.458Z" fill="#F9FAFB"/>
<path d="M204.205 68.458H196.666V76.023H204.205V68.458Z" fill="#45262F"/>
<path d="M219.285 68.458H211.745V76.023H219.285V68.458Z" fill="#45262F"/>
<path d="M226.824 68.458H219.284V76.023H226.824V68.458Z" fill="#F9AF3C"/>
<path d="M15.7157 76.0234H8.17578V83.5885H15.7157V76.0234Z" fill="#F9AF3C"/>
<path d="M23.2552 76.0234H15.7153V83.5885H23.2552V76.0234Z" fill="#45262F"/>
<path d="M38.3348 76.0234H30.7949V83.5885H38.3348V76.0234Z" fill="#45262F"/>
<path d="M45.8729 76.0234H38.333V83.5885H45.8729V76.0234Z" fill="#E4E7EC"/>
<path d="M53.4139 76.0234H45.874V83.5885H53.4139V76.0234Z" fill="#E4E7EC"/>
<path d="M60.9525 76.0234H53.4126V83.5885H60.9525V76.0234Z" fill="#E4E7EC"/>
<path d="M68.4935 76.0234H60.9536V83.5885H68.4935V76.0234Z" fill="#F9FAFB"/>
<path d="M76.0316 76.0234H68.4917V83.5885H76.0316V76.0234Z" fill="#45262F"/>
<path d="M83.5716 76.0234H76.0317V83.5885H83.5716V76.0234Z" fill="#964035"/>
<path d="M91.1112 76.0234H83.5713V83.5885H91.1112V76.0234Z" fill="#964035"/>
<path d="M98.6507 76.0234H91.1108V83.5885H98.6507V76.0234Z" fill="#964035"/>
<path d="M106.19 76.0234H98.6504V83.5885H106.19V76.0234Z" fill="#F8F8F9"/>
<path d="M113.73 76.0234H106.19V83.5885H113.73V76.0234Z" fill="#77312B"/>
<path d="M121.269 76.0234H113.729V83.5885H121.269V76.0234Z" fill="#77312B"/>
<path d="M128.81 76.0234H121.27V83.5885H128.81V76.0234Z" fill="#77312B"/>
<path d="M136.349 76.0234H128.809V83.5885H136.349V76.0234Z" fill="#F8F8F9"/>
<path d="M143.889 76.0234H136.349V83.5885H143.889V76.0234Z" fill="#964035"/>
<path d="M151.428 76.0234H143.888V83.5885H151.428V76.0234Z" fill="#964035"/>
<path d="M158.969 76.0234H151.429V83.5885H158.969V76.0234Z" fill="#964035"/>
<path d="M166.508 76.0234H158.968V83.5885H166.508V76.0234Z" fill="#45262F"/>
<path d="M174.048 76.0234H166.508V83.5885H174.048V76.0234Z" fill="#D0D5DD"/>
<path d="M181.586 76.0234H174.046V83.5885H181.586V76.0234Z" fill="#D0D5DD"/>
<path d="M189.127 76.0234H181.587V83.5885H189.127V76.0234Z" fill="#D0D5DD"/>
<path d="M196.665 76.0234H189.125V83.5885H196.665V76.0234Z" fill="#F9FAFB"/>
<path d="M204.205 76.0234H196.666V83.5885H204.205V76.0234Z" fill="#45262F"/>
<path d="M219.285 76.0234H211.745V83.5885H219.285V76.0234Z" fill="#45262F"/>
<path d="M226.824 76.0234H219.284V83.5885H226.824V76.0234Z" fill="#F9AF3C"/>
<path d="M15.7157 83.5879H8.17578V91.1529H15.7157V83.5879Z" fill="#F9AF3C"/>
<path d="M23.2552 83.5879H15.7153V91.1529H23.2552V83.5879Z" fill="#45262F"/>
<path d="M38.3348 83.5879H30.7949V91.1529H38.3348V83.5879Z" fill="#45262F"/>
<path d="M45.8729 83.5879H38.333V91.1529H45.8729V83.5879Z" fill="#E4E7EC"/>
<path d="M53.4139 83.5879H45.874V91.1529H53.4139V83.5879Z" fill="#E4E7EC"/>
<path d="M60.9525 83.5879H53.4126V91.1529H60.9525V83.5879Z" fill="#E4E7EC"/>
<path d="M68.4935 83.5879H60.9536V91.1529H68.4935V83.5879Z" fill="#E4E7EC"/>
<path d="M76.0316 83.5879H68.4917V91.1529H76.0316V83.5879Z" fill="#45262F"/>
<path d="M83.5716 83.5879H76.0317V91.1529H83.5716V83.5879Z" fill="#964035"/>
<path d="M91.1112 83.5879H83.5713V91.1529H91.1112V83.5879Z" fill="#77312B"/>
<path d="M98.6507 83.5879H91.1108V91.1529H98.6507V83.5879Z" fill="#9B9DAA"/>
<path d="M106.19 83.5879H98.6504V91.1529H106.19V83.5879Z" fill="#F8F8F9"/>
<path d="M113.73 83.5879H106.19V91.1529H113.73V83.5879Z" fill="#9B9DAA"/>
<path d="M121.269 83.5879H113.729V91.1529H121.269V83.5879Z" fill="#9B9DAA"/>
<path d="M128.81 83.5879H121.27V91.1529H128.81V83.5879Z" fill="#9B9DAA"/>
<path d="M136.349 83.5879H128.809V91.1529H136.349V83.5879Z" fill="#F8F8F9"/>
<path d="M143.889 83.5879H136.349V91.1529H143.889V83.5879Z" fill="#9B9DAA"/>
<path d="M151.428 83.5879H143.888V91.1529H151.428V83.5879Z" fill="#964035"/>
<path d="M158.969 83.5879H151.429V91.1529H158.969V83.5879Z" fill="#77312B"/>
<path d="M166.508 83.5879H158.968V91.1529H166.508V83.5879Z" fill="#45262F"/>
<path d="M174.048 83.5879H166.508V91.1529H174.048V83.5879Z" fill="#D0D5DD"/>
<path d="M181.586 83.5879H174.046V91.1529H181.586V83.5879Z" fill="#D0D5DD"/>
<path d="M189.127 83.5879H181.587V91.1529H189.127V83.5879Z" fill="#D0D5DD"/>
<path d="M196.665 83.5879H189.125V91.1529H196.665V83.5879Z" fill="#D0D5DD"/>
<path d="M204.205 83.5879H196.666V91.1529H204.205V83.5879Z" fill="#45262F"/>
<path d="M219.285 83.5879H211.745V91.1529H219.285V83.5879Z" fill="#45262F"/>
<path d="M226.824 83.5879H219.284V91.1529H226.824V83.5879Z" fill="#F9AF3C"/>
<path d="M15.7157 91.1519H8.17578V98.7169H15.7157V91.1519Z" fill="#F9AF3C"/>
<path d="M23.2552 91.1519H15.7153V98.7169H23.2552V91.1519Z" fill="#45262F"/>
<path d="M38.3348 91.1519H30.7949V98.7169H38.3348V91.1519Z" fill="#45262F"/>
<path d="M45.8729 91.1519H38.333V98.7169H45.8729V91.1519Z" fill="#E4E7EC"/>
<path d="M53.4139 91.1519H45.874V98.7169H53.4139V91.1519Z" fill="#E4E7EC"/>
<path d="M60.9525 91.1519H53.4126V98.7169H60.9525V91.1519Z" fill="#98A2B3"/>
<path d="M68.4935 91.1519H60.9536V98.7169H68.4935V91.1519Z" fill="#E4E7EC"/>
<path d="M76.0316 91.1519H68.4917V98.7169H76.0316V91.1519Z" fill="#45262F"/>
<path d="M83.5716 91.1519H76.0317V98.7169H83.5716V91.1519Z" fill="#77312B"/>
<path d="M91.1112 91.1519H83.5713V98.7169H91.1112V91.1519Z" fill="#77312B"/>
<path d="M98.6507 91.1519H91.1108V98.7169H98.6507V91.1519Z" fill="#9B9DAA"/>
<path d="M106.19 91.1519H98.6504V98.7169H106.19V91.1519Z" fill="black"/>
<path d="M113.73 91.1519H106.19V98.7169H113.73V91.1519Z" fill="#9B9DAA"/>
<path d="M121.269 91.1519H113.729V98.7169H121.269V91.1519Z" fill="#9B9DAA"/>
<path d="M128.81 91.1519H121.27V98.7169H128.81V91.1519Z" fill="#9B9DAA"/>
<path d="M136.349 91.1519H128.809V98.7169H136.349V91.1519Z" fill="black"/>
<path d="M143.889 91.1519H136.349V98.7169H143.889V91.1519Z" fill="#9B9DAA"/>
<path d="M151.428 91.1519H143.888V98.7169H151.428V91.1519Z" fill="#77312B"/>
<path d="M158.969 91.1519H151.429V98.7169H158.969V91.1519Z" fill="#77312B"/>
<path d="M166.508 91.1519H158.968V98.7169H166.508V91.1519Z" fill="#45262F"/>
<path d="M174.048 91.1519H166.508V98.7169H174.048V91.1519Z" fill="#D0D5DD"/>
<path d="M181.586 91.1519H174.046V98.7169H181.586V91.1519Z" fill="#98A2B3"/>
<path d="M189.127 91.1519H181.587V98.7169H189.127V91.1519Z" fill="#D0D5DD"/>
<path d="M196.665 91.1519H189.125V98.7169H196.665V91.1519Z" fill="#D0D5DD"/>
<path d="M204.205 91.1519H196.666V98.7169H204.205V91.1519Z" fill="#45262F"/>
<path d="M219.285 91.1519H211.745V98.7169H219.285V91.1519Z" fill="#45262F"/>
<path d="M226.824 91.1519H219.284V98.7169H226.824V91.1519Z" fill="#F9AF3C"/>
<path d="M15.7157 98.7173H8.17578V106.282H15.7157V98.7173Z" fill="#F9AF3C"/>
<path d="M8.17612 45.7637H0.63623V53.3287H8.17612V45.7637Z" fill="#F9AF3C"/>
<path d="M8.17612 53.3291H0.63623V60.8941H8.17612V53.3291Z" fill="#F9AF3C"/>
<path d="M8.17612 60.8945H0.63623V68.4596H8.17612V60.8945Z" fill="#F9AF3C"/>
<path d="M8.17612 68.458H0.63623V76.023H8.17612V68.458Z" fill="#F9AF3C"/>
<path d="M8.17612 76.0234H0.63623V83.5885H8.17612V76.0234Z" fill="#F9AF3C"/>
<path d="M8.17612 83.5879H0.63623V91.1529H8.17612V83.5879Z" fill="#F9AF3C"/>
<path d="M8.17612 91.1519H0.63623V98.7169H8.17612V91.1519Z" fill="#F9AF3C"/>
<path d="M8.17612 98.7173H0.63623V106.282H8.17612V98.7173Z" fill="#F9AF3C"/>
<path d="M23.2552 98.7173H15.7153V106.282H23.2552V98.7173Z" fill="#45262F"/>
<path d="M38.3348 98.7173H30.7949V106.282H38.3348V98.7173Z" fill="#45262F"/>
<path d="M45.8729 98.7173H38.333V106.282H45.8729V98.7173Z" fill="#E4E7EC"/>
<path d="M53.4139 98.7173H45.874V106.282H53.4139V98.7173Z" fill="#98A2B3"/>
<path d="M60.9525 98.7173H53.4126V106.282H60.9525V98.7173Z" fill="#98A2B3"/>
<path d="M68.4935 98.7173H60.9536V106.282H68.4935V98.7173Z" fill="#E4E7EC"/>
<path d="M76.0316 98.7173H68.4917V106.282H76.0316V98.7173Z" fill="#45262F"/>
<path d="M83.5716 98.7173H76.0317V106.282H83.5716V98.7173Z" fill="#77312B"/>
<path d="M91.1112 98.7173H83.5713V106.282H91.1112V98.7173Z" fill="#77312B"/>
<path d="M98.6507 98.7173H91.1108V106.282H98.6507V98.7173Z" fill="#F8F8F9"/>
<path d="M106.19 98.7173H98.6504V106.282H106.19V98.7173Z" fill="#F8F8F9"/>
<path d="M113.73 98.7173H106.19V106.282H113.73V98.7173Z" fill="#F8F8F9"/>
<path d="M121.269 98.7173H113.729V106.282H121.269V98.7173Z" fill="#F8F8F9"/>
<path d="M128.81 98.7173H121.27V106.282H128.81V98.7173Z" fill="#F8F8F9"/>
<path d="M136.349 98.7173H128.809V106.282H136.349V98.7173Z" fill="#9B9DAA"/>
<path d="M143.889 98.7173H136.349V106.282H143.889V98.7173Z" fill="#9B9DAA"/>
<path d="M151.428 98.7173H143.888V106.282H151.428V98.7173Z" fill="#77312B"/>
<path d="M158.969 98.7173H151.429V106.282H158.969V98.7173Z" fill="#77312B"/>
<path d="M166.508 98.7173H158.968V106.282H166.508V98.7173Z" fill="#45262F"/>
<path d="M174.048 98.7173H166.508V106.282H174.048V98.7173Z" fill="#D0D5DD"/>
<path d="M181.586 98.7173H174.046V106.282H181.586V98.7173Z" fill="#98A2B3"/>
<path d="M189.127 98.7173H181.587V106.282H189.127V98.7173Z" fill="#98A2B3"/>
<path d="M196.665 98.7173H189.125V106.282H196.665V98.7173Z" fill="#D0D5DD"/>
<path d="M204.205 98.7173H196.666V106.282H204.205V98.7173Z" fill="#45262F"/>
<path d="M219.285 98.7173H211.745V106.282H219.285V98.7173Z" fill="#45262F"/>
<path d="M226.824 98.7173H219.284V106.282H226.824V98.7173Z" fill="#F9AF3C"/>
<path d="M234.364 45.7637H226.824V53.3287H234.364V45.7637Z" fill="#F9AF3C"/>
<path d="M234.364 53.3291H226.824V60.8941H234.364V53.3291Z" fill="#F9AF3C"/>
<path d="M234.364 60.8945H226.824V68.4596H234.364V60.8945Z" fill="#F9AF3C"/>
<path d="M234.364 68.458H226.824V76.023H234.364V68.458Z" fill="#F9AF3C"/>
<path d="M234.364 76.0234H226.824V83.5885H234.364V76.0234Z" fill="#F9AF3C"/>
<path d="M234.364 83.5879H226.824V91.1529H234.364V83.5879Z" fill="#F9AF3C"/>
<path d="M234.364 91.1519H226.824V98.7169H234.364V91.1519Z" fill="#F9AF3C"/>
<path d="M234.364 98.7173H226.824V106.282H234.364V98.7173Z" fill="#F9AF3C"/>
<path d="M8.17612 106.282H0.63623V113.847H8.17612V106.282Z" fill="#F9AF3C"/>
<path d="M15.7157 106.282H8.17578V113.847H15.7157V106.282Z" fill="#F9AF3C"/>
<path d="M23.2552 106.282H15.7153V113.847H23.2552V106.282Z" fill="#45262F"/>
<path d="M38.3348 106.282H30.7949V113.847H38.3348V106.282Z" fill="#45262F"/>
<path d="M45.8729 106.282H38.333V113.847H45.8729V106.282Z" fill="#98A2B3"/>
<path d="M53.4139 106.282H45.874V113.847H53.4139V106.282Z" fill="#98A2B3"/>
<path d="M60.9525 106.282H53.4126V113.847H60.9525V106.282Z" fill="#98A2B3"/>
<path d="M68.4935 106.282H60.9536V113.847H68.4935V106.282Z" fill="#98A2B3"/>
<path d="M76.0316 106.282H68.4917V113.847H76.0316V106.282Z" fill="#45262F"/>
<path d="M83.5716 106.282H76.0317V113.847H83.5716V106.282Z" fill="#45262F"/>
<path d="M91.1112 106.282H83.5713V113.847H91.1112V106.282Z" fill="#45262F"/>
<path d="M98.6507 106.282H91.1108V113.847H98.6507V106.282Z" fill="#9B9DAA"/>
<path d="M106.19 106.282H98.6504V113.847H106.19V106.282Z" fill="#9B9DAA"/>
<path d="M113.73 106.282H106.19V113.847H113.73V106.282Z" fill="#9B9DAA"/>
<path d="M121.269 106.282H113.729V113.847H121.269V106.282Z" fill="#9B9DAA"/>
<path d="M128.81 106.282H121.27V113.847H128.81V106.282Z" fill="#9B9DAA"/>
<path d="M136.349 106.282H128.809V113.847H136.349V106.282Z" fill="#9B9DAA"/>
<path d="M143.889 106.282H136.349V113.847H143.889V106.282Z" fill="#6A6C7B"/>
<path d="M151.428 106.282H143.888V113.847H151.428V106.282Z" fill="#45262F"/>
<path d="M158.969 106.282H151.429V113.847H158.969V106.282Z" fill="#45262F"/>
<path d="M166.508 106.282H158.968V113.847H166.508V106.282Z" fill="#45262F"/>
<path d="M174.048 106.282H166.508V113.847H174.048V106.282Z" fill="#98A2B3"/>
<path d="M181.586 106.282H174.046V113.847H181.586V106.282Z" fill="#98A2B3"/>
<path d="M189.127 106.282H181.587V113.847H189.127V106.282Z" fill="#98A2B3"/>
<path d="M196.665 106.282H189.125V113.847H196.665V106.282Z" fill="#98A2B3"/>
<path d="M204.205 106.282H196.666V113.847H204.205V106.282Z" fill="#45262F"/>
<path d="M219.285 106.282H211.745V113.847H219.285V106.282Z" fill="#45262F"/>
<path d="M226.824 106.282H219.284V113.847H226.824V106.282Z" fill="#F9AF3C"/>
<path d="M234.364 106.282H226.824V113.847H234.364V106.282Z" fill="#F9AF3C"/>
<path d="M8.17612 113.846H0.63623V121.411H8.17612V113.846Z" fill="#F9AF3C"/>
<path d="M15.7157 113.846H8.17578V121.411H15.7157V113.846Z" fill="#F9AF3C"/>
<path d="M23.2552 113.846H15.7153V121.411H23.2552V113.846Z" fill="#F9AF3C"/>
<path d="M38.3348 113.846H30.7949V121.411H38.3348V113.846Z" fill="#F9AF3C"/>
<path d="M45.8729 113.846H38.333V121.411H45.8729V113.846Z" fill="#F9AF3C"/>
<path d="M53.4139 113.846H45.874V121.411H53.4139V113.846Z" fill="#F9AF3C"/>
<path d="M60.9525 113.846H53.4126V121.411H60.9525V113.846Z" fill="#F9AF3C"/>
<path d="M68.4935 113.846H60.9536V121.411H68.4935V113.846Z" fill="#F9AF3C"/>
<path d="M76.0316 113.846H68.4917V121.411H76.0316V113.846Z" fill="#F9AF3C"/>
<path d="M83.5716 113.846H76.0317V121.411H83.5716V113.846Z" fill="#F9AF3C"/>
<path d="M91.1112 113.846H83.5713V121.411H91.1112V113.846Z" fill="#F9AF3C"/>
<path d="M98.6507 113.846H91.1108V121.411H98.6507V113.846Z" fill="#9B9DAA"/>
<path d="M106.19 113.846H98.6504V121.411H106.19V113.846Z" fill="#9B9DAA"/>
<path d="M113.73 113.846H106.19V121.411H113.73V113.846Z" fill="#9B9DAA"/>
<path d="M121.269 113.846H113.729V121.411H121.269V113.846Z" fill="black"/>
<path d="M128.81 113.846H121.27V121.411H128.81V113.846Z" fill="#9B9DAA"/>
<path d="M136.349 113.846H128.809V121.411H136.349V113.846Z" fill="#9B9DAA"/>
<path d="M143.889 113.846H136.349V121.411H143.889V113.846Z" fill="#6A6C7B"/>
<path d="M151.428 113.846H143.888V121.411H151.428V113.846Z" fill="#F9AF3C"/>
<path d="M158.969 113.846H151.429V121.411H158.969V113.846Z" fill="#F9AF3C"/>
<path d="M166.508 113.846H158.968V121.411H166.508V113.846Z" fill="#F9AF3C"/>
<path d="M174.048 113.846H166.508V121.411H174.048V113.846Z" fill="#F9AF3C"/>
<path d="M181.586 113.846H174.046V121.411H181.586V113.846Z" fill="#F9AF3C"/>
<path d="M189.127 113.846H181.587V121.411H189.127V113.846Z" fill="#F9AF3C"/>
<path d="M196.665 113.846H189.125V121.411H196.665V113.846Z" fill="#F9AF3C"/>
<path d="M204.205 113.846H196.666V121.411H204.205V113.846Z" fill="#F9AF3C"/>
<path d="M219.285 113.846H211.745V121.411H219.285V113.846Z" fill="#F9AF3C"/>
<path d="M226.824 113.846H219.284V121.411H226.824V113.846Z" fill="#F9AF3C"/>
<path d="M234.364 113.846H226.824V121.411H234.364V113.846Z" fill="#F9AF3C"/>
<path d="M8.17612 121.412H0.63623V128.977H8.17612V121.412Z" fill="#FA7322"/>
<path d="M15.7157 121.412H8.17578V128.977H15.7157V121.412Z" fill="#FA7322"/>
<path d="M23.2552 121.412H15.7153V128.977H23.2552V121.412Z" fill="#FA7322"/>
<path d="M30.7948 7.94092H23.2549V15.5059H30.7948V7.94092Z" fill="#45262F"/>
<path d="M30.7948 15.5049H23.2549V23.0699H30.7948V15.5049Z" fill="#AF6B6B"/>
<path d="M30.7948 23.0703H23.2549V30.6353H30.7948V23.0703Z" fill="#964035"/>
<path d="M30.7948 30.6353H23.2549V38.2003H30.7948V30.6353Z" fill="#964035"/>
<path d="M30.7948 38.1987H23.2549V45.7638H30.7948V38.1987Z" fill="#AF6B6B"/>
<path d="M30.7948 45.7637H23.2549V53.3287H30.7948V45.7637Z" fill="#AF6B6B"/>
<path d="M30.7948 53.3291H23.2549V60.8941H30.7948V53.3291Z" fill="#45262F"/>
<path d="M30.7948 60.8945H23.2549V68.4596H30.7948V60.8945Z" fill="#AF6B6B"/>
<path d="M30.7948 68.458H23.2549V76.023H30.7948V68.458Z" fill="#964035"/>
<path d="M30.7948 76.0234H23.2549V83.5885H30.7948V76.0234Z" fill="#964035"/>
<path d="M30.7948 83.5879H23.2549V91.1529H30.7948V83.5879Z" fill="#964035"/>
<path d="M30.7948 91.1519H23.2549V98.7169H30.7948V91.1519Z" fill="#77312B"/>
<path d="M30.7948 98.7173H23.2549V106.282H30.7948V98.7173Z" fill="#77312B"/>
<path d="M30.7948 106.282H23.2549V113.847H30.7948V106.282Z" fill="#45262F"/>
<path d="M30.7948 113.846H23.2549V121.411H30.7948V113.846Z" fill="#F9AF3C"/>
<path d="M30.7948 121.412H23.2549V128.977H30.7948V121.412Z" fill="#FA7322"/>
<path d="M38.3348 121.412H30.7949V128.977H38.3348V121.412Z" fill="#FA7322"/>
<path d="M45.8729 121.412H38.333V128.977H45.8729V121.412Z" fill="#FA7322"/>
<path d="M53.4139 121.412H45.874V128.977H53.4139V121.412Z" fill="#FA7322"/>
<path d="M60.9525 121.412H53.4126V128.977H60.9525V121.412Z" fill="#FA7322"/>
<path d="M68.4935 121.412H60.9536V128.977H68.4935V121.412Z" fill="#FA7322"/>
<path d="M76.0316 121.412H68.4917V128.977H76.0316V121.412Z" fill="#FA7322"/>
<path d="M83.5716 121.412H76.0317V128.977H83.5716V121.412Z" fill="#FA7322"/>
<path d="M91.1112 121.412H83.5713V128.977H91.1112V121.412Z" fill="#FA7322"/>
<path d="M98.6507 121.412H91.1108V128.977H98.6507V121.412Z" fill="#9B9DAA"/>
<path d="M106.19 121.412H98.6504V128.977H106.19V121.412Z" fill="#9B9DAA"/>
<path d="M113.73 121.412H106.19V128.977H113.73V121.412Z" fill="#9B9DAA"/>
<path d="M121.269 121.412H113.729V128.977H121.269V121.412Z" fill="black"/>
<path d="M128.81 121.412H121.27V128.977H128.81V121.412Z" fill="#9B9DAA"/>
<path d="M136.349 121.412H128.809V128.977H136.349V121.412Z" fill="#6A6C7B"/>
<path d="M143.889 121.412H136.349V128.977H143.889V121.412Z" fill="#6A6C7B"/>
<path d="M151.428 121.412H143.888V128.977H151.428V121.412Z" fill="#FA7322"/>
<path d="M158.969 121.412H151.429V128.977H158.969V121.412Z" fill="#FA7322"/>
<path d="M166.508 121.412H158.968V128.977H166.508V121.412Z" fill="#FA7322"/>
<path d="M174.048 121.412H166.508V128.977H174.048V121.412Z" fill="#FA7322"/>
<path d="M181.586 121.412H174.046V128.977H181.586V121.412Z" fill="#FA7322"/>
<path d="M189.127 121.412H181.587V128.977H189.127V121.412Z" fill="#FA7322"/>
<path d="M196.665 121.412H189.125V128.977H196.665V121.412Z" fill="#FA7322"/>
<path d="M204.205 121.412H196.666V128.977H204.205V121.412Z" fill="#FA7322"/>
<path d="M211.744 7.94092H204.205V15.5059H211.744V7.94092Z" fill="#45262F"/>
<path d="M211.744 15.5049H204.205V23.0699H211.744V15.5049Z" fill="#964035"/>
<path d="M211.744 23.0703H204.205V30.6353H211.744V23.0703Z" fill="#AF6B6B"/>
<path d="M211.744 30.6353H204.205V38.2003H211.744V30.6353Z" fill="#AF6B6B"/>
<path d="M211.744 38.1987H204.205V45.7638H211.744V38.1987Z" fill="#964035"/>
<path d="M211.744 45.7637H204.205V53.3287H211.744V45.7637Z" fill="#964035"/>
<path d="M211.744 53.3291H204.205V60.8941H211.744V53.3291Z" fill="#45262F"/>
<path d="M211.744 60.8945H204.205V68.4596H211.744V60.8945Z" fill="#964035"/>
<path d="M211.744 68.458H204.205V76.023H211.744V68.458Z" fill="#964035"/>
<path d="M211.744 76.0234H204.205V83.5885H211.744V76.0234Z" fill="#964035"/>
<path d="M211.744 83.5879H204.205V91.1529H211.744V83.5879Z" fill="#964035"/>
<path d="M211.744 91.1519H204.205V98.7169H211.744V91.1519Z" fill="#77312B"/>
<path d="M211.744 98.7173H204.205V106.282H211.744V98.7173Z" fill="#77312B"/>
<path d="M211.744 106.282H204.205V113.847H211.744V106.282Z" fill="#45262F"/>
<path d="M211.744 113.846H204.205V121.411H211.744V113.846Z" fill="#F9AF3C"/>
<path d="M211.744 121.412H204.205V128.977H211.744V121.412Z" fill="#FA7322"/>
<path d="M219.285 121.412H211.745V128.977H219.285V121.412Z" fill="#FA7322"/>
<path d="M226.824 121.412H219.284V128.977H226.824V121.412Z" fill="#FA7322"/>
<path d="M234.364 121.412H226.824V128.977H234.364V121.412Z" fill="#FA7322"/>
<path d="M30.7948 128.976H23.2549V136.541H30.7948V128.976Z" fill="#F9AF3C"/>
<path d="M38.3348 128.976H30.7949V136.541H38.3348V128.976Z" fill="#45262F"/>
<path d="M45.8729 128.976H38.333V136.541H45.8729V128.976Z" fill="#45262F"/>
<path d="M53.4139 128.976H45.874V136.541H53.4139V128.976Z" fill="#45262F"/>
<path d="M60.9525 128.976H53.4126V136.541H60.9525V128.976Z" fill="#45262F"/>
<path d="M68.4935 128.976H60.9536V136.541H68.4935V128.976Z" fill="#45262F"/>
<path d="M76.0316 128.976H68.4917V136.541H76.0316V128.976Z" fill="#45262F"/>
<path d="M83.5716 128.976H76.0317V136.541H83.5716V128.976Z" fill="#45262F"/>
<path d="M91.1112 128.976H83.5713V136.541H91.1112V128.976Z" fill="#45262F"/>
<path d="M98.6507 128.976H91.1108V136.541H98.6507V128.976Z" fill="#9B9DAA"/>
<path d="M106.19 128.976H98.6504V136.541H106.19V128.976Z" fill="#9B9DAA"/>
<path d="M113.73 128.976H106.19V136.541H113.73V128.976Z" fill="#9B9DAA"/>
<path d="M121.269 128.976H113.729V136.541H121.269V128.976Z" fill="#F8F8F9"/>
<path d="M128.81 128.976H121.27V136.541H128.81V128.976Z" fill="#9B9DAA"/>
<path d="M136.349 128.976H128.809V136.541H136.349V128.976Z" fill="#6A6C7B"/>
<path d="M143.889 128.976H136.349V136.541H143.889V128.976Z" fill="#6A6C7B"/>
<path d="M151.428 128.976H143.888V136.541H151.428V128.976Z" fill="#45262F"/>
<path d="M158.969 128.976H151.429V136.541H158.969V128.976Z" fill="#45262F"/>
<path d="M166.508 128.976H158.968V136.541H166.508V128.976Z" fill="#45262F"/>
<path d="M174.048 128.976H166.508V136.541H174.048V128.976Z" fill="#45262F"/>
<path d="M181.586 128.976H174.046V136.541H181.586V128.976Z" fill="#45262F"/>
<path d="M189.127 128.976H181.587V136.541H189.127V128.976Z" fill="#45262F"/>
<path d="M196.665 128.976H189.125V136.541H196.665V128.976Z" fill="#45262F"/>
<path d="M204.205 128.976H196.666V136.541H204.205V128.976Z" fill="#45262F"/>
<path d="M211.744 128.976H204.205V136.541H211.744V128.976Z" fill="#F9AF3C"/>
<path d="M30.7948 151.67H23.2549V159.235H30.7948V151.67Z" fill="#F9AF3C"/>
<path d="M38.3348 151.67H30.7949V159.235H38.3348V151.67Z" fill="#45262F"/>
<path d="M45.8729 151.67H38.333V159.235H45.8729V151.67Z" fill="#77312B"/>
<path d="M53.4139 151.67H45.874V159.235H53.4139V151.67Z" fill="#77312B"/>
<path d="M60.9525 151.67H53.4126V159.235H60.9525V151.67Z" fill="#77312B"/>
<path d="M68.4935 151.67H60.9536V159.235H68.4935V151.67Z" fill="#77312B"/>
<path d="M76.0316 151.67H68.4917V159.235H76.0316V151.67Z" fill="#45262F"/>
<path d="M83.5716 151.67H76.0317V159.235H83.5716V151.67Z" fill="#77312B"/>
<path d="M91.1112 151.67H83.5713V159.235H91.1112V151.67Z" fill="#77312B"/>
<path d="M98.6507 151.67H91.1108V159.235H98.6507V151.67Z" fill="#77312B"/>
<path d="M106.19 151.67H98.6504V159.235H106.19V151.67Z" fill="#964035"/>
<path d="M113.73 151.67H106.19V159.235H113.73V151.67Z" fill="#964035"/>
<path d="M121.269 151.67H113.729V159.235H121.269V151.67Z" fill="#964035"/>
<path d="M128.81 151.67H121.27V159.235H128.81V151.67Z" fill="#964035"/>
<path d="M136.349 151.67H128.809V159.235H136.349V151.67Z" fill="#77312B"/>
<path d="M143.889 151.67H136.349V159.235H143.889V151.67Z" fill="#77312B"/>
<path d="M151.428 151.67H143.888V159.235H151.428V151.67Z" fill="#77312B"/>
<path d="M158.969 151.67H151.429V159.235H158.969V151.67Z" fill="#77312B"/>
<path d="M166.508 151.67H158.968V159.235H166.508V151.67Z" fill="#45262F"/>
<path d="M174.048 151.67H166.508V159.235H174.048V151.67Z" fill="#77312B"/>
<path d="M181.586 151.67H174.046V159.235H181.586V151.67Z" fill="#77312B"/>
<path d="M189.127 151.67H181.587V159.235H189.127V151.67Z" fill="#77312B"/>
<path d="M196.665 151.67H189.125V159.235H196.665V151.67Z" fill="#964035"/>
<path d="M204.205 151.67H196.666V159.235H204.205V151.67Z" fill="#45262F"/>
<path d="M211.744 151.67H204.205V159.235H211.744V151.67Z" fill="#F9AF3C"/>
<path d="M30.7948 159.234H23.2549V166.799H30.7948V159.234Z" fill="#F9AF3C"/>
<path d="M38.3348 159.234H30.7949V166.799H38.3348V159.234Z" fill="#77312B"/>
<path d="M45.8729 159.234H38.333V166.799H45.8729V159.234Z" fill="#77312B"/>
<path d="M53.4139 159.234H45.874V166.799H53.4139V159.234Z" fill="#77312B"/>
<path d="M60.9525 159.234H53.4126V166.799H60.9525V159.234Z" fill="#77312B"/>
<path d="M68.4935 159.234H60.9536V166.799H68.4935V159.234Z" fill="#77312B"/>
<path d="M76.0316 159.234H68.4917V166.799H76.0316V159.234Z" fill="#45262F"/>
<path d="M83.5716 159.234H76.0317V166.799H83.5716V159.234Z" fill="#77312B"/>
<path d="M91.1112 159.234H83.5713V166.799H91.1112V159.234Z" fill="#77312B"/>
<path d="M98.6507 159.234H91.1108V166.799H98.6507V159.234Z" fill="#77312B"/>
<path d="M106.19 159.234H98.6504V166.799H106.19V159.234Z" fill="#77312B"/>
<path d="M113.73 159.234H106.19V166.799H113.73V159.234Z" fill="#77312B"/>
<path d="M121.269 159.234H113.729V166.799H121.269V159.234Z" fill="#77312B"/>
<path d="M128.81 159.234H121.27V166.799H128.81V159.234Z" fill="#77312B"/>
<path d="M136.349 159.234H128.809V166.799H136.349V159.234Z" fill="#77312B"/>
<path d="M143.889 159.234H136.349V166.799H143.889V159.234Z" fill="#77312B"/>
<path d="M151.428 159.234H143.888V166.799H151.428V159.234Z" fill="#77312B"/>
<path d="M158.969 159.234H151.429V166.799H158.969V159.234Z" fill="#77312B"/>
<path d="M166.508 159.234H158.968V166.799H166.508V159.234Z" fill="#77312B"/>
<path d="M174.048 159.234H166.508V166.799H174.048V159.234Z" fill="#77312B"/>
<path d="M181.586 159.234H174.046V166.799H181.586V159.234Z" fill="#77312B"/>
<path d="M189.127 159.234H181.587V166.799H189.127V159.234Z" fill="#77312B"/>
<path d="M196.665 159.234H189.125V166.799H196.665V159.234Z" fill="#77312B"/>
<path d="M204.205 159.234H196.666V166.799H204.205V159.234Z" fill="#45262F"/>
<path d="M211.744 159.234H204.205V166.799H211.744V159.234Z" fill="#F9AF3C"/>
<path d="M30.7948 166.8H23.2549V174.365H30.7948V166.8Z" fill="#F9AF3C"/>
<path d="M38.3348 166.8H30.7949V174.365H38.3348V166.8Z" fill="#45262F"/>
<path d="M45.8729 166.8H38.333V174.365H45.8729V166.8Z" fill="#77312B"/>
<path d="M53.4139 166.8H45.874V174.365H53.4139V166.8Z" fill="#77312B"/>
<path d="M60.9525 166.8H53.4126V174.365H60.9525V166.8Z" fill="#77312B"/>
<path d="M68.4935 166.8H60.9536V174.365H68.4935V166.8Z" fill="#77312B"/>
<path d="M76.0316 166.8H68.4917V174.365H76.0316V166.8Z" fill="#77312B"/>
<path d="M83.5716 166.8H76.0317V174.365H83.5716V166.8Z" fill="#77312B"/>
<path d="M91.1112 166.8H83.5713V174.365H91.1112V166.8Z" fill="#77312B"/>
<path d="M98.6507 166.8H91.1108V174.365H98.6507V166.8Z" fill="#77312B"/>
<path d="M106.19 166.8H98.6504V174.365H106.19V166.8Z" fill="#77312B"/>
<path d="M113.73 166.8H106.19V174.365H113.73V166.8Z" fill="#77312B"/>
<path d="M121.269 166.8H113.729V174.365H121.269V166.8Z" fill="#77312B"/>
<path d="M128.81 166.8H121.27V174.365H128.81V166.8Z" fill="#77312B"/>
<path d="M136.349 166.8H128.809V174.365H136.349V166.8Z" fill="#77312B"/>
<path d="M143.889 166.8H136.349V174.365H143.889V166.8Z" fill="#77312B"/>
<path d="M151.428 166.8H143.888V174.365H151.428V166.8Z" fill="#77312B"/>
<path d="M158.969 166.8H151.429V174.365H158.969V166.8Z" fill="#77312B"/>
<path d="M166.508 166.8H158.968V174.365H166.508V166.8Z" fill="#45262F"/>
<path d="M174.048 166.8H166.508V174.365H174.048V166.8Z" fill="#77312B"/>
<path d="M181.586 166.8H174.046V174.365H181.586V166.8Z" fill="#77312B"/>
<path d="M189.127 166.8H181.587V174.365H189.127V166.8Z" fill="#77312B"/>
<path d="M196.665 166.8H189.125V174.365H196.665V166.8Z" fill="#77312B"/>
<path d="M204.205 166.8H196.666V174.365H204.205V166.8Z" fill="#77312B"/>
<path d="M211.744 166.8H204.205V174.365H211.744V166.8Z" fill="#F9AF3C"/>
<path d="M30.7948 174.365H23.2549V181.93H30.7948V174.365Z" fill="#F9AF3C"/>
<path d="M38.3348 174.365H30.7949V181.93H38.3348V174.365Z" fill="#45262F"/>
<path d="M45.8729 174.365H38.333V181.93H45.8729V174.365Z" fill="#77312B"/>
<path d="M53.4139 174.365H45.874V181.93H53.4139V174.365Z" fill="#77312B"/>
<path d="M60.9525 174.365H53.4126V181.93H60.9525V174.365Z" fill="#77312B"/>
<path d="M68.4935 174.365H60.9536V181.93H68.4935V174.365Z" fill="#77312B"/>
<path d="M76.0316 174.365H68.4917V181.93H76.0316V174.365Z" fill="#45262F"/>
<path d="M83.5716 174.365H76.0317V181.93H83.5716V174.365Z" fill="#77312B"/>
<path d="M91.1112 174.365H83.5713V181.93H91.1112V174.365Z" fill="#77312B"/>
<path d="M98.6507 174.365H91.1108V181.93H98.6507V174.365Z" fill="#77312B"/>
<path d="M106.19 174.365H98.6504V181.93H106.19V174.365Z" fill="#77312B"/>
<path d="M113.73 174.365H106.19V181.93H113.73V174.365Z" fill="#77312B"/>
<path d="M121.269 174.365H113.729V181.93H121.269V174.365Z" fill="#77312B"/>
<path d="M128.81 174.365H121.27V181.93H128.81V174.365Z" fill="#77312B"/>
<path d="M136.349 174.365H128.809V181.93H136.349V174.365Z" fill="#77312B"/>
<path d="M143.889 174.365H136.349V181.93H143.889V174.365Z" fill="#77312B"/>
<path d="M151.428 174.365H143.888V181.93H151.428V174.365Z" fill="#77312B"/>
<path d="M158.969 174.365H151.429V181.93H158.969V174.365Z" fill="#77312B"/>
<path d="M166.508 174.365H158.968V181.93H166.508V174.365Z" fill="#45262F"/>
<path d="M174.048 174.365H166.508V181.93H174.048V174.365Z" fill="#77312B"/>
<path d="M181.586 174.365H174.046V181.93H181.586V174.365Z" fill="#77312B"/>
<path d="M189.127 174.365H181.587V181.93H189.127V174.365Z" fill="#77312B"/>
<path d="M196.665 174.365H189.125V181.93H196.665V174.365Z" fill="#77312B"/>
<path d="M204.205 174.365H196.666V181.93H204.205V174.365Z" fill="#45262F"/>
<path d="M211.744 174.365H204.205V181.93H211.744V174.365Z" fill="#F9AF3C"/>
<path d="M38.3348 181.929H30.7949V189.494H38.3348V181.929Z" fill="#F9AF3C"/>
<path d="M30.7948 181.929H23.2549V189.494H30.7948V181.929Z" fill="#F9AF3C"/>
<path d="M23.2552 128.976H15.7153V136.541H23.2552V128.976Z" fill="#F9AF3C"/>
<path d="M23.2552 151.67H15.7153V159.235H23.2552V151.67Z" fill="#F9AF3C"/>
<path d="M23.2552 159.234H15.7153V166.799H23.2552V159.234Z" fill="#F9AF3C"/>
<path d="M23.2552 166.8H15.7153V174.365H23.2552V166.8Z" fill="#F9AF3C"/>
<path d="M23.2552 174.365H15.7153V181.93H23.2552V174.365Z" fill="#F9AF3C"/>
<path d="M23.2552 181.929H15.7153V189.494H23.2552V181.929Z" fill="#F9AF3C"/>
<path d="M45.8729 181.929H38.333V189.494H45.8729V181.929Z" fill="#F9AF3C"/>
<path d="M53.4139 181.929H45.874V189.494H53.4139V181.929Z" fill="#F9AF3C"/>
<path d="M60.9525 181.929H53.4126V189.494H60.9525V181.929Z" fill="#F9AF3C"/>
<path d="M68.4935 181.929H60.9536V189.494H68.4935V181.929Z" fill="#F9AF3C"/>
<path d="M76.0316 181.929H68.4917V189.494H76.0316V181.929Z" fill="#F9AF3C"/>
<path d="M83.5716 181.929H76.0317V189.494H83.5716V181.929Z" fill="#F9AF3C"/>
<path d="M91.1112 181.929H83.5713V189.494H91.1112V181.929Z" fill="#F9AF3C"/>
<path d="M98.6507 181.929H91.1108V189.494H98.6507V181.929Z" fill="#F9AF3C"/>
<path d="M106.19 181.929H98.6504V189.494H106.19V181.929Z" fill="#F9AF3C"/>
<path d="M113.73 181.929H106.19V189.494H113.73V181.929Z" fill="#F9AF3C"/>
<path d="M121.269 181.929H113.729V189.494H121.269V181.929Z" fill="#F9AF3C"/>
<path d="M128.81 181.929H121.27V189.494H128.81V181.929Z" fill="#F9AF3C"/>
<path d="M136.349 181.929H128.809V189.494H136.349V181.929Z" fill="#F9AF3C"/>
<path d="M143.889 181.929H136.349V189.494H143.889V181.929Z" fill="#F9AF3C"/>
<path d="M151.428 181.929H143.888V189.494H151.428V181.929Z" fill="#F9AF3C"/>
<path d="M158.969 181.929H151.429V189.494H158.969V181.929Z" fill="#F9AF3C"/>
<path d="M166.508 181.929H158.968V189.494H166.508V181.929Z" fill="#F9AF3C"/>
<path d="M174.048 181.929H166.508V189.494H174.048V181.929Z" fill="#F9AF3C"/>
<path d="M181.586 181.929H174.046V189.494H181.586V181.929Z" fill="#F9AF3C"/>
<path d="M189.127 181.929H181.587V189.494H189.127V181.929Z" fill="#F9AF3C"/>
<path d="M196.665 181.929H189.125V189.494H196.665V181.929Z" fill="#F9AF3C"/>
<path d="M204.205 181.929H196.666V189.494H204.205V181.929Z" fill="#F9AF3C"/>
<path d="M211.744 181.929H204.205V189.494H211.744V181.929Z" fill="#F9AF3C"/>
<path d="M219.285 128.976H211.745V136.541H219.285V128.976Z" fill="#F9AF3C"/>
<path d="M219.285 151.67H211.745V159.235H219.285V151.67Z" fill="#F9AF3C"/>
<path d="M30.7948 144.105H23.2549V151.67H30.7948V144.105Z" fill="#F9AF3C"/>
<path d="M38.3348 144.105H30.7949V151.67H38.3348V144.105Z" fill="#45262F"/>
<path d="M45.8729 144.105H38.333V151.67H45.8729V144.105Z" fill="#964035"/>
<path d="M53.4139 144.105H45.874V151.67H53.4139V144.105Z" fill="#964035"/>
<path d="M60.9525 144.105H53.4126V151.67H60.9525V144.105Z" fill="#77312B"/>
<path d="M68.4935 144.105H60.9536V151.67H68.4935V144.105Z" fill="#77312B"/>
<path d="M76.0316 144.105H68.4917V151.67H76.0316V144.105Z" fill="#45262F"/>
<path d="M83.5716 144.105H76.0317V151.67H83.5716V144.105Z" fill="#77312B"/>
<path d="M91.1112 144.105H83.5713V151.67H91.1112V144.105Z" fill="#964035"/>
<path d="M98.6507 144.105H91.1108V151.67H98.6507V144.105Z" fill="#964035"/>
<path d="M106.19 144.105H98.6504V151.67H106.19V144.105Z" fill="#9B9DAA"/>
<path d="M113.73 144.105H106.19V151.67H113.73V144.105Z" fill="#9B9DAA"/>
<path d="M121.269 144.105H113.729V151.67H121.269V144.105Z" fill="#6A6C7B"/>
<path d="M128.81 144.105H121.27V151.67H128.81V144.105Z" fill="#6A6C7B"/>
<path d="M136.349 144.105H128.809V151.67H136.349V144.105Z" fill="#6A6C7B"/>
<path d="M143.889 144.105H136.349V151.67H143.889V144.105Z" fill="#964035"/>
<path d="M151.428 144.105H143.888V151.67H151.428V144.105Z" fill="#77312B"/>
<path d="M158.969 144.105H151.429V151.67H158.969V144.105Z" fill="#77312B"/>
<path d="M166.508 144.105H158.968V151.67H166.508V144.105Z" fill="#45262F"/>
<path d="M174.048 144.105H166.508V151.67H174.048V144.105Z" fill="#77312B"/>
<path d="M181.586 144.105H174.046V151.67H181.586V144.105Z" fill="#964035"/>
<path d="M189.127 144.105H181.587V151.67H189.127V144.105Z" fill="#964035"/>
<path d="M196.665 144.105H189.125V151.67H196.665V144.105Z" fill="#964035"/>
<path d="M204.205 144.105H196.666V151.67H204.205V144.105Z" fill="#45262F"/>
<path d="M211.744 144.105H204.205V151.67H211.744V144.105Z" fill="#F9AF3C"/>
<path d="M23.2552 144.105H15.7153V151.67H23.2552V144.105Z" fill="#F9AF3C"/>
<path d="M219.285 144.105H211.745V151.67H219.285V144.105Z" fill="#F9AF3C"/>
<path d="M30.7948 136.54H23.2549V144.105H30.7948V136.54Z" fill="#F9AF3C"/>
<path d="M38.3348 136.54H30.7949V144.105H38.3348V136.54Z" fill="#45262F"/>
<path d="M45.8729 136.54H38.333V144.105H45.8729V136.54Z" fill="#964035"/>
<path d="M53.4139 136.54H45.874V144.105H53.4139V136.54Z" fill="#964035"/>
<path d="M60.9525 136.54H53.4126V144.105H60.9525V136.54Z" fill="#964035"/>
<path d="M68.4935 136.54H60.9536V144.105H68.4935V136.54Z" fill="#964035"/>
<path d="M76.0316 136.54H68.4917V144.105H76.0316V136.54Z" fill="#45262F"/>
<path d="M83.5716 136.54H76.0317V144.105H83.5716V136.54Z" fill="#964035"/>
<path d="M91.1112 136.54H83.5713V144.105H91.1112V136.54Z" fill="#964035"/>
<path d="M98.6507 136.54H91.1108V144.105H98.6507V136.54Z" fill="#9B9DAA"/>
<path d="M106.19 136.54H98.6504V144.105H106.19V136.54Z" fill="#9B9DAA"/>
<path d="M113.73 136.54H106.19V144.105H113.73V136.54Z" fill="#9B9DAA"/>
<path d="M121.269 136.54H113.729V144.105H121.269V136.54Z" fill="#9B9DAA"/>
<path d="M128.81 136.54H121.27V144.105H128.81V136.54Z" fill="#9B9DAA"/>
<path d="M136.349 136.54H128.809V144.105H136.349V136.54Z" fill="#6A6C7B"/>
<path d="M143.889 136.54H136.349V144.105H143.889V136.54Z" fill="#6A6C7B"/>
<path d="M151.428 136.54H143.888V144.105H151.428V136.54Z" fill="#964035"/>
<path d="M158.969 136.54H151.429V144.105H158.969V136.54Z" fill="#964035"/>
<path d="M166.508 136.54H158.968V144.105H166.508V136.54Z" fill="#45262F"/>
<path d="M174.048 136.54H166.508V144.105H174.048V136.54Z" fill="#964035"/>
<path d="M181.586 136.54H174.046V144.105H181.586V136.54Z" fill="#964035"/>
<path d="M189.127 136.54H181.587V144.105H189.127V136.54Z" fill="#964035"/>
<path d="M196.665 136.54H189.125V144.105H196.665V136.54Z" fill="#964035"/>
<path d="M204.205 136.54H196.666V144.105H204.205V136.54Z" fill="#45262F"/>
<path d="M211.744 136.54H204.205V144.105H211.744V136.54Z" fill="#F9AF3C"/>
<path d="M23.2552 136.54H15.7153V144.105H23.2552V136.54Z" fill="#F9AF3C"/>
<path d="M219.285 136.54H211.745V144.105H219.285V136.54Z" fill="#F9AF3C"/>
<path d="M219.285 159.234H211.745V166.799H219.285V159.234Z" fill="#F9AF3C"/>
<path d="M219.285 166.8H211.745V174.365H219.285V166.8Z" fill="#F9AF3C"/>
<path d="M219.285 174.365H211.745V181.93H219.285V174.365Z" fill="#F9AF3C"/>
<path d="M219.285 181.929H211.745V189.494H219.285V181.929Z" fill="#F9AF3C"/>
<path d="M38.3348 189.493H30.7949V197.058H38.3348V189.493Z" fill="#F9AF3C"/>
<path d="M30.7948 189.493H23.2549V197.058H30.7948V189.493Z" fill="#F9AF3C"/>
<path d="M23.2552 189.493H15.7153V197.058H23.2552V189.493Z" fill="#F9AF3C"/>
<path d="M45.8729 189.493H38.333V197.058H45.8729V189.493Z" fill="#F9AF3C"/>
<path d="M53.4139 189.493H45.874V197.058H53.4139V189.493Z" fill="#F9AF3C"/>
<path d="M60.9525 189.493H53.4126V197.058H60.9525V189.493Z" fill="#F9AF3C"/>
<path d="M68.4935 189.493H60.9536V197.058H68.4935V189.493Z" fill="#F9AF3C"/>
<path d="M76.0316 189.493H68.4917V197.058H76.0316V189.493Z" fill="#F9AF3C"/>
<path d="M83.5716 189.493H76.0317V197.058H83.5716V189.493Z" fill="#F9AF3C"/>
<path d="M91.1112 189.493H83.5713V197.058H91.1112V189.493Z" fill="#F9AF3C"/>
<path d="M98.6507 189.493H91.1108V197.058H98.6507V189.493Z" fill="#F9AF3C"/>
<path d="M106.19 189.493H98.6504V197.058H106.19V189.493Z" fill="#F9AF3C"/>
<path d="M113.73 189.493H106.19V197.058H113.73V189.493Z" fill="#F9AF3C"/>
<path d="M121.269 189.493H113.729V197.058H121.269V189.493Z" fill="#F9AF3C"/>
<path d="M128.81 189.493H121.27V197.058H128.81V189.493Z" fill="#F9AF3C"/>
<path d="M136.349 189.493H128.809V197.058H136.349V189.493Z" fill="#F9AF3C"/>
<path d="M143.889 189.493H136.349V197.058H143.889V189.493Z" fill="#F9AF3C"/>
<path d="M151.428 189.493H143.888V197.058H151.428V189.493Z" fill="#F9AF3C"/>
<path d="M158.969 189.493H151.429V197.058H158.969V189.493Z" fill="#F9AF3C"/>
<path d="M166.508 189.493H158.968V197.058H166.508V189.493Z" fill="#F9AF3C"/>
<path d="M174.048 189.493H166.508V197.058H174.048V189.493Z" fill="#F9AF3C"/>
<path d="M181.586 189.493H174.046V197.058H181.586V189.493Z" fill="#F9AF3C"/>
<path d="M189.127 189.493H181.587V197.058H189.127V189.493Z" fill="#F9AF3C"/>
<path d="M196.665 189.493H189.125V197.058H196.665V189.493Z" fill="#F9AF3C"/>
<path d="M204.205 189.493H196.666V197.058H204.205V189.493Z" fill="#F9AF3C"/>
<path d="M211.744 189.493H204.205V197.058H211.744V189.493Z" fill="#F9AF3C"/>
<path d="M219.285 189.493H211.745V197.058H219.285V189.493Z" fill="#F9AF3C"/>
<path d="M38.3348 197.059H30.7949V204.624H38.3348V197.059Z" fill="#BD4B2F"/>
<path d="M30.7948 197.059H23.2549V204.624H30.7948V197.059Z" fill="#BD4B2F"/>
<path d="M23.2552 197.059H15.7153V204.624H23.2552V197.059Z" fill="#BD4B2F"/>
<path d="M45.8729 197.059H38.333V204.624H45.8729V197.059Z" fill="#BD4B2F"/>
<path d="M53.4139 197.059H45.874V204.624H53.4139V197.059Z" fill="#BD4B2F"/>
<path d="M60.9525 197.059H53.4126V204.624H60.9525V197.059Z" fill="#BD4B2F"/>
<path d="M68.4935 197.059H60.9536V204.624H68.4935V197.059Z" fill="#BD4B2F"/>
<path d="M76.0316 197.059H68.4917V204.624H76.0316V197.059Z" fill="#BD4B2F"/>
<path d="M83.5716 197.059H76.0317V204.624H83.5716V197.059Z" fill="#BD4B2F"/>
<path d="M91.1112 197.059H83.5713V204.624H91.1112V197.059Z" fill="#BD4B2F"/>
<path d="M98.6507 197.059H91.1108V204.624H98.6507V197.059Z" fill="#BD4B2F"/>
<path d="M106.19 197.059H98.6504V204.624H106.19V197.059Z" fill="#BD4B2F"/>
<path d="M113.73 197.059H106.19V204.624H113.73V197.059Z" fill="#BD4B2F"/>
<path d="M121.269 197.059H113.729V204.624H121.269V197.059Z" fill="#BD4B2F"/>
<path d="M128.81 197.059H121.27V204.624H128.81V197.059Z" fill="#BD4B2F"/>
<path d="M136.349 197.059H128.809V204.624H136.349V197.059Z" fill="#BD4B2F"/>
<path d="M143.889 197.059H136.349V204.624H143.889V197.059Z" fill="#BD4B2F"/>
<path d="M151.428 197.059H143.888V204.624H151.428V197.059Z" fill="#BD4B2F"/>
<path d="M158.969 197.059H151.429V204.624H158.969V197.059Z" fill="#BD4B2F"/>
<path d="M166.508 197.059H158.968V204.624H166.508V197.059Z" fill="#BD4B2F"/>
<path d="M174.048 197.059H166.508V204.624H174.048V197.059Z" fill="#BD4B2F"/>
<path d="M181.586 197.059H174.046V204.624H181.586V197.059Z" fill="#BD4B2F"/>
<path d="M189.127 197.059H181.587V204.624H189.127V197.059Z" fill="#BD4B2F"/>
<path d="M196.665 197.059H189.125V204.624H196.665V197.059Z" fill="#BD4B2F"/>
<path d="M204.205 197.059H196.666V204.624H204.205V197.059Z" fill="#BD4B2F"/>
<path d="M211.744 197.059H204.205V204.624H211.744V197.059Z" fill="#BD4B2F"/>
<path d="M219.285 197.059H211.745V204.624H219.285V197.059Z" fill="#BD4B2F"/>
</svg>
