<svg width="248" height="207" viewBox="0 0 248 207" fill="none" xmlns="http://www.w3.org/2000/svg">
<g clip-path="url(#clip0_792_14642)">
<path d="M28.6128 184.743H21.5378V191.808H28.6128V184.743Z" fill="#440108"/>
<path d="M35.6878 184.743H28.6128V191.808H35.6878V184.743Z" fill="#440108"/>
<path d="M42.7627 184.743H35.6877V191.808H42.7627V184.743Z" fill="#440108"/>
<path d="M49.8377 184.743H42.7627V191.808H49.8377V184.743Z" fill="#440108"/>
<path d="M56.9124 184.743H49.8374V191.808H56.9124V184.743Z" fill="#440108"/>
<path d="M63.9881 184.743H56.9131V191.808H63.9881V184.743Z" fill="#440108"/>
<path d="M71.0623 184.743H63.9873V191.808H71.0623V184.743Z" fill="#440108"/>
<path d="M78.1373 184.743H71.0623V191.808H78.1373V184.743Z" fill="#440108"/>
<path d="M85.212 184.743H78.137V191.808H85.212V184.743Z" fill="#440108"/>
<path d="M92.2869 184.743H85.2119V191.808H92.2869V184.743Z" fill="#440108"/>
<path d="M99.3626 184.743H92.2876V191.808H99.3626V184.743Z" fill="#440108"/>
<path d="M106.438 184.743H99.3625V191.808H106.438V184.743Z" fill="#440108"/>
<path d="M113.512 184.743H106.438V191.808H113.512V184.743Z" fill="#440108"/>
<path d="M120.587 184.743H113.512V191.808H120.587V184.743Z" fill="#440108"/>
<path d="M127.662 184.743H120.587V191.808H127.662V184.743Z" fill="#440108"/>
<path d="M134.738 184.743H127.663V191.808H134.738V184.743Z" fill="#440108"/>
<path d="M141.813 184.743H134.738V191.808H141.813V184.743Z" fill="#440108"/>
<path d="M148.887 184.743H141.812V191.808H148.887V184.743Z" fill="#440108"/>
<path d="M155.962 184.743H148.887V191.808H155.962V184.743Z" fill="#440108"/>
<path d="M163.037 184.743H155.962V191.808H163.037V184.743Z" fill="#440108"/>
<path d="M170.113 184.743H163.038V191.808H170.113V184.743Z" fill="#440108"/>
<path d="M177.188 184.743H170.113V191.808H177.188V184.743Z" fill="#440108"/>
<path d="M184.263 184.743H177.188V191.808H184.263V184.743Z" fill="#440108"/>
<path d="M191.338 184.743H184.263V191.808H191.338V184.743Z" fill="#440108"/>
<path d="M198.412 184.743H191.337V191.808H198.412V184.743Z" fill="#440108"/>
<path d="M205.488 184.743H198.413V191.808H205.488V184.743Z" fill="#440108"/>
<path d="M212.562 184.743H205.487V191.808H212.562V184.743Z" fill="#440108"/>
<path d="M219.637 184.743H212.562V191.808H219.637V184.743Z" fill="#440108"/>
<path d="M226.712 184.743H219.637V191.808H226.712V184.743Z" fill="#440108"/>
<path d="M28.6128 177.678H21.5378V184.743H28.6128V177.678Z" fill="#843800"/>
<path d="M21.5372 177.678H14.4622V184.743H21.5372V177.678Z" fill="#440108"/>
<path d="M35.6878 177.678H28.6128V184.743H35.6878V177.678Z" fill="#843800"/>
<path d="M42.7627 177.678H35.6877V184.743H42.7627V177.678Z" fill="#843800"/>
<path d="M49.8377 177.678H42.7627V184.743H49.8377V177.678Z" fill="#843800"/>
<path d="M56.9124 177.678H49.8374V184.743H56.9124V177.678Z" fill="#843800"/>
<path d="M63.9881 177.678H56.9131V184.743H63.9881V177.678Z" fill="#843800"/>
<path d="M71.0623 177.678H63.9873V184.743H71.0623V177.678Z" fill="#843800"/>
<path d="M78.1373 177.678H71.0623V184.743H78.1373V177.678Z" fill="#440108"/>
<path d="M85.212 177.678H78.137V184.743H85.212V177.678Z" fill="#843800"/>
<path d="M92.2869 177.678H85.2119V184.743H92.2869V177.678Z" fill="#843800"/>
<path d="M99.3626 177.678H92.2876V184.743H99.3626V177.678Z" fill="#843800"/>
<path d="M106.438 177.678H99.3625V184.743H106.438V177.678Z" fill="#843800"/>
<path d="M113.512 177.678H106.438V184.743H113.512V177.678Z" fill="#843800"/>
<path d="M120.587 177.678H113.512V184.743H120.587V177.678Z" fill="#843800"/>
<path d="M127.662 177.678H120.587V184.743H127.662V177.678Z" fill="#843800"/>
<path d="M134.738 177.678H127.663V184.743H134.738V177.678Z" fill="#843800"/>
<path d="M141.813 177.678H134.738V184.743H141.813V177.678Z" fill="#843800"/>
<path d="M148.887 177.678H141.812V184.743H148.887V177.678Z" fill="#843800"/>
<path d="M155.962 177.678H148.887V184.743H155.962V177.678Z" fill="#843800"/>
<path d="M163.037 177.678H155.962V184.743H163.037V177.678Z" fill="#843800"/>
<path d="M170.113 177.678H163.038V184.743H170.113V177.678Z" fill="#843800"/>
<path d="M177.188 177.678H170.113V184.743H177.188V177.678Z" fill="#440108"/>
<path d="M184.263 177.678H177.188V184.743H184.263V177.678Z" fill="#843800"/>
<path d="M191.338 177.678H184.263V184.743H191.338V177.678Z" fill="#843800"/>
<path d="M198.412 177.678H191.337V184.743H198.412V177.678Z" fill="#843800"/>
<path d="M205.488 177.678H198.413V184.743H205.488V177.678Z" fill="#843800"/>
<path d="M212.562 177.678H205.487V184.743H212.562V177.678Z" fill="#843800"/>
<path d="M219.637 177.678H212.562V184.743H219.637V177.678Z" fill="#843800"/>
<path d="M226.712 177.678H219.637V184.743H226.712V177.678Z" fill="#843800"/>
<path d="M233.787 177.678H226.712V184.743H233.787V177.678Z" fill="#440108"/>
<path d="M28.6128 170.614H21.5378V177.678H28.6128V170.614Z" fill="#994500"/>
<path d="M21.5372 170.614H14.4622V177.678H21.5372V170.614Z" fill="#440108"/>
<path d="M35.6878 170.614H28.6128V177.678H35.6878V170.614Z" fill="#843800"/>
<path d="M42.7627 170.614H35.6877V177.678H42.7627V170.614Z" fill="#843800"/>
<path d="M49.8377 170.614H42.7627V177.678H49.8377V170.614Z" fill="#994500"/>
<path d="M56.9124 170.614H49.8374V177.678H56.9124V170.614Z" fill="#994500"/>
<path d="M63.9881 170.614H56.9131V177.678H63.9881V170.614Z" fill="#994500"/>
<path d="M71.0623 170.614H63.9873V177.678H71.0623V170.614Z" fill="#994500"/>
<path d="M78.1373 170.614H71.0623V177.678H78.1373V170.614Z" fill="#440108"/>
<path d="M85.212 170.614H78.137V177.678H85.212V170.614Z" fill="#994500"/>
<path d="M92.2869 170.614H85.2119V177.678H92.2869V170.614Z" fill="#994500"/>
<path d="M99.3626 170.614H92.2876V177.678H99.3626V170.614Z" fill="#843800"/>
<path d="M106.438 170.614H99.3625V177.678H106.438V170.614Z" fill="#843800"/>
<path d="M113.512 170.614H106.438V177.678H113.512V170.614Z" fill="#994500"/>
<path d="M120.587 170.614H113.512V177.678H120.587V170.614Z" fill="#994500"/>
<path d="M127.662 170.614H120.587V177.678H127.662V170.614Z" fill="#843800"/>
<path d="M134.738 170.614H127.663V177.678H134.738V170.614Z" fill="#843800"/>
<path d="M141.813 170.614H134.738V177.678H141.813V170.614Z" fill="#994500"/>
<path d="M148.887 170.614H141.812V177.678H148.887V170.614Z" fill="#994500"/>
<path d="M155.962 170.614H148.887V177.678H155.962V170.614Z" fill="#994500"/>
<path d="M163.037 170.614H155.962V177.678H163.037V170.614Z" fill="#843800"/>
<path d="M170.113 170.614H163.038V177.678H170.113V170.614Z" fill="#843800"/>
<path d="M177.188 170.614H170.113V177.678H177.188V170.614Z" fill="#440108"/>
<path d="M184.263 170.614H177.188V177.678H184.263V170.614Z" fill="#994500"/>
<path d="M191.338 170.614H184.263V177.678H191.338V170.614Z" fill="#994500"/>
<path d="M198.412 170.614H191.337V177.678H198.412V170.614Z" fill="#843800"/>
<path d="M205.488 170.614H198.413V177.678H205.488V170.614Z" fill="#843800"/>
<path d="M212.562 170.614H205.487V177.678H212.562V170.614Z" fill="#994500"/>
<path d="M219.637 170.614H212.562V177.678H219.637V170.614Z" fill="#994500"/>
<path d="M226.712 170.614H219.637V177.678H226.712V170.614Z" fill="#994500"/>
<path d="M233.787 170.614H226.712V177.678H233.787V170.614Z" fill="#440108"/>
<path d="M28.6128 163.549H21.5378V170.613H28.6128V163.549Z" fill="#994500"/>
<path d="M21.5372 163.549H14.4622V170.613H21.5372V163.549Z" fill="#440108"/>
<path d="M35.6878 163.549H28.6128V170.613H35.6878V163.549Z" fill="#994500"/>
<path d="M42.7627 163.549H35.6877V170.613H42.7627V163.549Z" fill="#994500"/>
<path d="M49.8377 163.549H42.7627V170.613H49.8377V163.549Z" fill="#994500"/>
<path d="M56.9124 163.549H49.8374V170.613H56.9124V163.549Z" fill="#994500"/>
<path d="M63.9881 163.549H56.9131V170.613H63.9881V163.549Z" fill="#994500"/>
<path d="M71.0623 163.549H63.9873V170.613H71.0623V163.549Z" fill="#994500"/>
<path d="M78.1373 163.549H71.0623V170.613H78.1373V163.549Z" fill="#440108"/>
<path d="M85.212 163.549H78.137V170.613H85.212V163.549Z" fill="#843800"/>
<path d="M92.2869 163.549H85.2119V170.613H92.2869V163.549Z" fill="#843800"/>
<path d="M99.3626 163.549H92.2876V170.613H99.3626V163.549Z" fill="#843800"/>
<path d="M106.438 163.549H99.3625V170.613H106.438V163.549Z" fill="#994500"/>
<path d="M113.512 163.549H106.438V170.613H113.512V163.549Z" fill="#994500"/>
<path d="M120.587 163.549H113.512V170.613H120.587V163.549Z" fill="#994500"/>
<path d="M127.662 163.549H120.587V170.613H127.662V163.549Z" fill="#994500"/>
<path d="M134.738 163.549H127.663V170.613H134.738V163.549Z" fill="#994500"/>
<path d="M141.813 163.549H134.738V170.613H141.813V163.549Z" fill="#994500"/>
<path d="M148.887 163.549H141.812V170.613H148.887V163.549Z" fill="#994500"/>
<path d="M155.962 163.549H148.887V170.613H155.962V163.549Z" fill="#843800"/>
<path d="M163.037 163.549H155.962V170.613H163.037V163.549Z" fill="#843800"/>
<path d="M170.113 163.549H163.038V170.613H170.113V163.549Z" fill="#994500"/>
<path d="M177.188 163.549H170.113V170.613H177.188V163.549Z" fill="#440108"/>
<path d="M184.263 163.549H177.188V170.613H184.263V163.549Z" fill="#994500"/>
<path d="M191.338 163.549H184.263V170.613H191.338V163.549Z" fill="#994500"/>
<path d="M198.412 163.549H191.337V170.613H198.412V163.549Z" fill="#994500"/>
<path d="M205.488 163.549H198.413V170.613H205.488V163.549Z" fill="#843800"/>
<path d="M212.562 163.549H205.487V170.613H212.562V163.549Z" fill="#843800"/>
<path d="M219.637 163.549H212.562V170.613H219.637V163.549Z" fill="#994500"/>
<path d="M226.712 163.549H219.637V170.613H226.712V163.549Z" fill="#994500"/>
<path d="M233.787 163.549H226.712V170.613H233.787V163.549Z" fill="#440108"/>
<path d="M28.6128 156.484H21.5378V163.549H28.6128V156.484Z" fill="#994500"/>
<path d="M21.5372 156.484H14.4622V163.549H21.5372V156.484Z" fill="#440108"/>
<path d="M35.6878 156.484H28.6128V163.549H35.6878V156.484Z" fill="#994500"/>
<path d="M42.7627 156.484H35.6877V163.549H42.7627V156.484Z" fill="#843800"/>
<path d="M49.8377 156.484H42.7627V163.549H49.8377V156.484Z" fill="#843800"/>
<path d="M56.9124 156.484H49.8374V163.549H56.9124V156.484Z" fill="#843800"/>
<path d="M63.9881 156.484H56.9131V163.549H63.9881V156.484Z" fill="#994500"/>
<path d="M71.0623 156.484H63.9873V163.549H71.0623V156.484Z" fill="#994500"/>
<path d="M78.1373 156.484H71.0623V163.549H78.1373V156.484Z" fill="#440108"/>
<path d="M85.212 156.484H78.137V163.549H85.212V156.484Z" fill="#994500"/>
<path d="M92.2869 156.484H85.2119V163.549H92.2869V156.484Z" fill="#994500"/>
<path d="M99.3626 156.484H92.2876V163.549H99.3626V156.484Z" fill="#994500"/>
<path d="M106.438 156.484H99.3625V163.549H106.438V156.484Z" fill="#994500"/>
<path d="M113.512 156.484H106.438V163.549H113.512V156.484Z" fill="#6A6C7B"/>
<path d="M120.587 156.484H113.512V163.549H120.587V156.484Z" fill="#6A6C7B"/>
<path d="M127.662 156.484H120.587V163.549H127.662V156.484Z" fill="#6A6C7B"/>
<path d="M134.738 156.484H127.663V163.549H134.738V156.484Z" fill="#6A6C7B"/>
<path d="M141.813 156.484H134.738V163.549H141.813V156.484Z" fill="#6A6C7B"/>
<path d="M148.887 156.484H141.812V163.549H148.887V156.484Z" fill="#994500"/>
<path d="M155.962 156.484H148.887V163.549H155.962V156.484Z" fill="#994500"/>
<path d="M163.037 156.484H155.962V163.549H163.037V156.484Z" fill="#994500"/>
<path d="M170.113 156.484H163.038V163.549H170.113V156.484Z" fill="#994500"/>
<path d="M177.188 156.484H170.113V163.549H177.188V156.484Z" fill="#440108"/>
<path d="M184.263 156.484H177.188V163.549H184.263V156.484Z" fill="#994500"/>
<path d="M191.338 156.484H184.263V163.549H191.338V156.484Z" fill="#994500"/>
<path d="M198.412 156.484H191.337V163.549H198.412V156.484Z" fill="#994500"/>
<path d="M205.488 156.484H198.413V163.549H205.488V156.484Z" fill="#994500"/>
<path d="M212.562 156.484H205.487V163.549H212.562V156.484Z" fill="#994500"/>
<path d="M219.637 156.484H212.562V163.549H219.637V156.484Z" fill="#994500"/>
<path d="M226.712 156.484H219.637V163.549H226.712V156.484Z" fill="#994500"/>
<path d="M233.787 156.484H226.712V163.549H233.787V156.484Z" fill="#440108"/>
<path d="M28.6128 149.42H21.5378V156.485H28.6128V149.42Z" fill="#843800"/>
<path d="M21.5372 149.42H14.4622V156.485H21.5372V149.42Z" fill="#440108"/>
<path d="M35.6878 149.42H28.6128V156.485H35.6878V149.42Z" fill="#843800"/>
<path d="M42.7627 149.42H35.6877V156.485H42.7627V149.42Z" fill="#843800"/>
<path d="M49.8377 149.42H42.7627V156.485H49.8377V149.42Z" fill="#843800"/>
<path d="M56.9124 149.42H49.8374V156.485H56.9124V149.42Z" fill="#994500"/>
<path d="M63.9881 149.42H56.9131V156.485H63.9881V149.42Z" fill="#994500"/>
<path d="M71.0623 149.42H63.9873V156.485H71.0623V149.42Z" fill="#843800"/>
<path d="M78.1373 149.42H71.0623V156.485H78.1373V149.42Z" fill="#440108"/>
<path d="M85.212 149.42H78.137V156.485H85.212V149.42Z" fill="#843800"/>
<path d="M92.2869 149.42H85.2119V156.485H92.2869V149.42Z" fill="#843800"/>
<path d="M99.3626 149.42H92.2876V156.485H99.3626V149.42Z" fill="#994500"/>
<path d="M106.438 149.42H99.3625V156.485H106.438V149.42Z" fill="#6A6C7B"/>
<path d="M113.512 149.42H106.438V156.485H113.512V149.42Z" fill="#9B9DAA"/>
<path d="M120.587 149.42H113.512V156.485H120.587V149.42Z" fill="#9B9DAA"/>
<path d="M127.662 149.42H120.587V156.485H127.662V149.42Z" fill="#9B9DAA"/>
<path d="M134.738 149.42H127.663V156.485H134.738V149.42Z" fill="#9B9DAA"/>
<path d="M141.813 149.42H134.738V156.485H141.813V149.42Z" fill="#9B9DAA"/>
<path d="M148.887 149.42H141.812V156.485H148.887V149.42Z" fill="#6A6C7B"/>
<path d="M155.962 149.42H148.887V156.485H155.962V149.42Z" fill="#994500"/>
<path d="M163.037 149.42H155.962V156.485H163.037V149.42Z" fill="#843800"/>
<path d="M170.113 149.42H163.038V156.485H170.113V149.42Z" fill="#843800"/>
<path d="M177.188 149.42H170.113V156.485H177.188V149.42Z" fill="#440108"/>
<path d="M184.263 149.42H177.188V156.485H184.263V149.42Z" fill="#843800"/>
<path d="M191.338 149.42H184.263V156.485H191.338V149.42Z" fill="#843800"/>
<path d="M198.412 149.42H191.337V156.485H198.412V149.42Z" fill="#994500"/>
<path d="M205.488 149.42H198.413V156.485H205.488V149.42Z" fill="#994500"/>
<path d="M212.562 149.42H205.487V156.485H212.562V149.42Z" fill="#994500"/>
<path d="M219.637 149.42H212.562V156.485H219.637V149.42Z" fill="#843800"/>
<path d="M226.712 149.42H219.637V156.485H226.712V149.42Z" fill="#843800"/>
<path d="M233.787 149.42H226.712V156.485H233.787V149.42Z" fill="#440108"/>
<path d="M28.6128 142.355H21.5378V149.42H28.6128V142.355Z" fill="#994500"/>
<path d="M21.5372 142.355H14.4622V149.42H21.5372V142.355Z" fill="#440108"/>
<path d="M35.6878 142.355H28.6128V149.42H35.6878V142.355Z" fill="#994500"/>
<path d="M42.7627 142.355H35.6877V149.42H42.7627V142.355Z" fill="#994500"/>
<path d="M49.8377 142.355H42.7627V149.42H49.8377V142.355Z" fill="#994500"/>
<path d="M56.9124 142.355H49.8374V149.42H56.9124V142.355Z" fill="#994500"/>
<path d="M63.9881 142.355H56.9131V149.42H63.9881V142.355Z" fill="#994500"/>
<path d="M71.0623 142.355H63.9873V149.42H71.0623V142.355Z" fill="#994500"/>
<path d="M78.1373 142.355H71.0623V149.42H78.1373V142.355Z" fill="#440108"/>
<path d="M85.212 142.355H78.137V149.42H85.212V142.355Z" fill="#994500"/>
<path d="M92.2869 142.355H85.2119V149.42H92.2869V142.355Z" fill="#994500"/>
<path d="M99.3626 142.355H92.2876V149.42H99.3626V142.355Z" fill="#994500"/>
<path d="M106.438 142.355H99.3625V149.42H106.438V142.355Z" fill="#6A6C7B"/>
<path d="M113.512 142.355H106.438V149.42H113.512V142.355Z" fill="#9B9DAA"/>
<path d="M120.587 142.355H113.512V149.42H120.587V142.355Z" fill="#9B9DAA"/>
<path d="M127.662 142.355H120.587V149.42H127.662V142.355Z" fill="#9B9DAA"/>
<path d="M134.738 142.355H127.663V149.42H134.738V142.355Z" fill="#9B9DAA"/>
<path d="M141.813 142.355H134.738V149.42H141.813V142.355Z" fill="#9B9DAA"/>
<path d="M148.887 142.355H141.812V149.42H148.887V142.355Z" fill="#6A6C7B"/>
<path d="M155.962 142.355H148.887V149.42H155.962V142.355Z" fill="#994500"/>
<path d="M163.037 142.355H155.962V149.42H163.037V142.355Z" fill="#994500"/>
<path d="M170.113 142.355H163.038V149.42H170.113V142.355Z" fill="#994500"/>
<path d="M177.188 142.355H170.113V149.42H177.188V142.355Z" fill="#440108"/>
<path d="M184.263 142.355H177.188V149.42H184.263V142.355Z" fill="#994500"/>
<path d="M191.338 142.355H184.263V149.42H191.338V142.355Z" fill="#994500"/>
<path d="M198.412 142.355H191.337V149.42H198.412V142.355Z" fill="#994500"/>
<path d="M205.488 142.355H198.413V149.42H205.488V142.355Z" fill="#994500"/>
<path d="M212.562 142.355H205.487V149.42H212.562V142.355Z" fill="#994500"/>
<path d="M219.637 142.355H212.562V149.42H219.637V142.355Z" fill="#994500"/>
<path d="M226.712 142.355H219.637V149.42H226.712V142.355Z" fill="#994500"/>
<path d="M233.787 142.355H226.712V149.42H233.787V142.355Z" fill="#440108"/>
<path d="M28.6128 135.291H21.5378V142.355H28.6128V135.291Z" fill="#440108"/>
<path d="M21.5372 135.291H14.4622V142.355H21.5372V135.291Z" fill="#440108"/>
<path d="M35.6878 135.291H28.6128V142.355H35.6878V135.291Z" fill="#440108"/>
<path d="M42.7627 135.291H35.6877V142.355H42.7627V135.291Z" fill="#440108"/>
<path d="M49.8377 135.291H42.7627V142.355H49.8377V135.291Z" fill="#440108"/>
<path d="M56.9124 135.291H49.8374V142.355H56.9124V135.291Z" fill="#440108"/>
<path d="M63.9881 135.291H56.9131V142.355H63.9881V135.291Z" fill="#440108"/>
<path d="M71.0623 135.291H63.9873V142.355H71.0623V135.291Z" fill="#440108"/>
<path d="M78.1373 135.291H71.0623V142.355H78.1373V135.291Z" fill="#440108"/>
<path d="M85.212 135.291H78.137V142.355H85.212V135.291Z" fill="#440108"/>
<path d="M92.2869 135.291H85.2119V142.355H92.2869V135.291Z" fill="#440108"/>
<path d="M99.3626 135.291H92.2876V142.355H99.3626V135.291Z" fill="#440108"/>
<path d="M106.438 135.291H99.3625V142.355H106.438V135.291Z" fill="#6A6C7B"/>
<path d="M113.512 135.291H106.438V142.355H113.512V135.291Z" fill="#9B9DAA"/>
<path d="M120.587 135.291H113.512V142.355H120.587V135.291Z" fill="#9B9DAA"/>
<path d="M127.662 135.291H120.587V142.355H127.662V135.291Z" fill="black"/>
<path d="M134.738 135.291H127.663V142.355H134.738V135.291Z" fill="#9B9DAA"/>
<path d="M141.813 135.291H134.738V142.355H141.813V135.291Z" fill="#9B9DAA"/>
<path d="M148.887 135.291H141.812V142.355H148.887V135.291Z" fill="#6A6C7B"/>
<path d="M155.962 135.291H148.887V142.355H155.962V135.291Z" fill="#440108"/>
<path d="M163.037 135.291H155.962V142.355H163.037V135.291Z" fill="#440108"/>
<path d="M170.113 135.291H163.038V142.355H170.113V135.291Z" fill="#440108"/>
<path d="M177.188 135.291H170.113V142.355H177.188V135.291Z" fill="#440108"/>
<path d="M184.263 135.291H177.188V142.355H184.263V135.291Z" fill="#440108"/>
<path d="M191.338 135.291H184.263V142.355H191.338V135.291Z" fill="#440108"/>
<path d="M198.412 135.291H191.337V142.355H198.412V135.291Z" fill="#440108"/>
<path d="M205.488 135.291H198.413V142.355H205.488V135.291Z" fill="#440108"/>
<path d="M212.562 135.291H205.487V142.355H212.562V135.291Z" fill="#440108"/>
<path d="M219.637 135.291H212.562V142.355H219.637V135.291Z" fill="#440108"/>
<path d="M226.712 135.291H219.637V142.355H226.712V135.291Z" fill="#440108"/>
<path d="M233.787 135.291H226.712V142.355H233.787V135.291Z" fill="#440108"/>
<path d="M28.6128 128.226H21.5378V135.291H28.6128V128.226Z" fill="#440108"/>
<path d="M21.5372 128.226H14.4622V135.291H21.5372V128.226Z" fill="#440108"/>
<path d="M35.6878 128.226H28.6128V135.291H35.6878V128.226Z" fill="#440108"/>
<path d="M42.7627 128.226H35.6877V135.291H42.7627V128.226Z" fill="#440108"/>
<path d="M49.8377 128.226H42.7627V135.291H49.8377V128.226Z" fill="#EE8600"/>
<path d="M56.9124 128.226H49.8374V135.291H56.9124V128.226Z" fill="#EE8600"/>
<path d="M63.9881 128.226H56.9131V135.291H63.9881V128.226Z" fill="#EE8600"/>
<path d="M71.0623 128.226H63.9873V135.291H71.0623V128.226Z" fill="#EE8600"/>
<path d="M78.1373 128.226H71.0623V135.291H78.1373V128.226Z" fill="#440108"/>
<path d="M85.212 128.226H78.137V135.291H85.212V128.226Z" fill="#440108"/>
<path d="M92.2869 128.226H85.2119V135.291H92.2869V128.226Z" fill="#440108"/>
<path d="M99.3626 128.226H92.2876V135.291H99.3626V128.226Z" fill="#440108"/>
<path d="M106.438 128.226H99.3625V135.291H106.438V128.226Z" fill="#9B9DAA"/>
<path d="M113.512 128.226H106.438V135.291H113.512V128.226Z" fill="#9B9DAA"/>
<path d="M120.587 128.226H113.512V135.291H120.587V128.226Z" fill="#9B9DAA"/>
<path d="M127.662 128.226H120.587V135.291H127.662V128.226Z" fill="black"/>
<path d="M134.738 128.226H127.663V135.291H134.738V128.226Z" fill="#9B9DAA"/>
<path d="M141.813 128.226H134.738V135.291H141.813V128.226Z" fill="#9B9DAA"/>
<path d="M148.887 128.226H141.812V135.291H148.887V128.226Z" fill="#9B9DAA"/>
<path d="M155.962 128.226H148.887V135.291H155.962V128.226Z" fill="#440108"/>
<path d="M163.037 128.226H155.962V135.291H163.037V128.226Z" fill="#440108"/>
<path d="M170.113 128.226H163.038V135.291H170.113V128.226Z" fill="#440108"/>
<path d="M177.188 128.226H170.113V135.291H177.188V128.226Z" fill="#440108"/>
<path d="M184.263 128.226H177.188V135.291H184.263V128.226Z" fill="#EE8600"/>
<path d="M191.338 128.226H184.263V135.291H191.338V128.226Z" fill="#EE8600"/>
<path d="M198.412 128.226H191.337V135.291H198.412V128.226Z" fill="#EE8600"/>
<path d="M205.488 128.226H198.413V135.291H205.488V128.226Z" fill="#EE8600"/>
<path d="M212.562 128.226H205.487V135.291H212.562V128.226Z" fill="#440108"/>
<path d="M219.637 128.226H212.562V135.291H219.637V128.226Z" fill="#440108"/>
<path d="M226.712 128.226H219.637V135.291H226.712V128.226Z" fill="#440108"/>
<path d="M233.787 128.226H226.712V135.291H233.787V128.226Z" fill="#440108"/>
<path d="M28.6128 121.161H21.5378V128.226H28.6128V121.161Z" fill="#B25900"/>
<path d="M21.5372 121.161H14.4622V128.226H21.5372V121.161Z" fill="#B25900"/>
<path d="M35.6878 121.161H28.6128V128.226H35.6878V121.161Z" fill="#B25900"/>
<path d="M42.7627 121.161H35.6877V128.226H42.7627V121.161Z" fill="#B25900"/>
<path d="M49.8377 121.161H42.7627V128.226H49.8377V121.161Z" fill="#EE8600"/>
<path d="M56.9124 121.161H49.8374V128.226H56.9124V121.161Z" fill="#EE8600"/>
<path d="M63.9881 121.161H56.9131V128.226H63.9881V121.161Z" fill="#EE8600"/>
<path d="M71.0623 121.161H63.9873V128.226H71.0623V121.161Z" fill="#EE8600"/>
<path d="M78.1373 121.161H71.0623V128.226H78.1373V121.161Z" fill="#B25900"/>
<path d="M85.212 121.161H78.137V128.226H85.212V121.161Z" fill="#B25900"/>
<path d="M92.2869 121.161H85.2119V128.226H92.2869V121.161Z" fill="#B25900"/>
<path d="M99.3626 121.161H92.2876V128.226H99.3626V121.161Z" fill="#B25900"/>
<path d="M106.438 121.161H99.3625V128.226H106.438V121.161Z" fill="#9B9DAA"/>
<path d="M113.512 121.161H106.438V128.226H113.512V121.161Z" fill="#9B9DAA"/>
<path d="M120.587 121.161H113.512V128.226H120.587V121.161Z" fill="black"/>
<path d="M127.662 121.161H120.587V128.226H127.662V121.161Z" fill="black"/>
<path d="M134.738 121.161H127.663V128.226H134.738V121.161Z" fill="black"/>
<path d="M141.813 121.161H134.738V128.226H141.813V121.161Z" fill="#9B9DAA"/>
<path d="M148.887 121.161H141.812V128.226H148.887V121.161Z" fill="#9B9DAA"/>
<path d="M155.962 121.161H148.887V128.226H155.962V121.161Z" fill="#B25900"/>
<path d="M163.037 121.161H155.962V128.226H163.037V121.161Z" fill="#B25900"/>
<path d="M170.113 121.161H163.038V128.226H170.113V121.161Z" fill="#B25900"/>
<path d="M177.188 121.161H170.113V128.226H177.188V121.161Z" fill="#B25900"/>
<path d="M184.263 121.161H177.188V128.226H184.263V121.161Z" fill="#EE8600"/>
<path d="M191.338 121.161H184.263V128.226H191.338V121.161Z" fill="#EE8600"/>
<path d="M198.412 121.161H191.337V128.226H198.412V121.161Z" fill="#EE8600"/>
<path d="M205.488 121.161H198.413V128.226H205.488V121.161Z" fill="#EE8600"/>
<path d="M212.562 121.161H205.487V128.226H212.562V121.161Z" fill="#B25900"/>
<path d="M219.637 121.161H212.562V128.226H219.637V121.161Z" fill="#B25900"/>
<path d="M226.712 121.161H219.637V128.226H226.712V121.161Z" fill="#B25900"/>
<path d="M233.787 121.161H226.712V128.226H233.787V121.161Z" fill="#B25900"/>
<path d="M28.6128 114.097H21.5378V121.161H28.6128V114.097Z" fill="#EE8600"/>
<path d="M21.5372 114.097H14.4622V121.161H21.5372V114.097Z" fill="#EE8600"/>
<path d="M35.6878 114.097H28.6128V121.161H35.6878V114.097Z" fill="#EE8600"/>
<path d="M42.7627 114.097H35.6877V121.161H42.7627V114.097Z" fill="#B25900"/>
<path d="M49.8377 114.097H42.7627V121.161H49.8377V114.097Z" fill="#EE8600"/>
<path d="M56.9124 114.097H49.8374V121.161H56.9124V114.097Z" fill="#EE8600"/>
<path d="M63.9881 114.097H56.9131V121.161H63.9881V114.097Z" fill="#EE8600"/>
<path d="M71.0623 114.097H63.9873V121.161H71.0623V114.097Z" fill="#EE8600"/>
<path d="M78.1373 114.097H71.0623V121.161H78.1373V114.097Z" fill="#B25900"/>
<path d="M85.212 114.097H78.137V121.161H85.212V114.097Z" fill="#EE8600"/>
<path d="M92.2869 114.097H85.2119V121.161H92.2869V114.097Z" fill="#EE8600"/>
<path d="M99.3626 114.097H92.2876V121.161H99.3626V114.097Z" fill="#EE8600"/>
<path d="M106.438 114.097H99.3625V121.161H106.438V114.097Z" fill="#B6B9C6"/>
<path d="M113.512 114.097H106.438V121.161H113.512V114.097Z" fill="#9B9DAA"/>
<path d="M120.587 114.097H113.512V121.161H120.587V114.097Z" fill="#9B9DAA"/>
<path d="M127.662 114.097H120.587V121.161H127.662V114.097Z" fill="#9B9DAA"/>
<path d="M134.738 114.097H127.663V121.161H134.738V114.097Z" fill="#9B9DAA"/>
<path d="M141.813 114.097H134.738V121.161H141.813V114.097Z" fill="#9B9DAA"/>
<path d="M148.887 114.097H141.812V121.161H148.887V114.097Z" fill="#9B9DAA"/>
<path d="M155.962 114.097H148.887V121.161H155.962V114.097Z" fill="#EE8600"/>
<path d="M163.037 114.097H155.962V121.161H163.037V114.097Z" fill="#EE8600"/>
<path d="M170.113 114.097H163.038V121.161H170.113V114.097Z" fill="#EE8600"/>
<path d="M177.188 114.097H170.113V121.161H177.188V114.097Z" fill="#B25900"/>
<path d="M184.263 114.097H177.188V121.161H184.263V114.097Z" fill="#EE8600"/>
<path d="M191.338 114.097H184.263V121.161H191.338V114.097Z" fill="#EE8600"/>
<path d="M198.412 114.097H191.337V121.161H198.412V114.097Z" fill="#EE8600"/>
<path d="M205.488 114.097H198.413V121.161H205.488V114.097Z" fill="#EE8600"/>
<path d="M212.562 114.097H205.487V121.161H212.562V114.097Z" fill="#B25900"/>
<path d="M219.637 114.097H212.562V121.161H219.637V114.097Z" fill="#EE8600"/>
<path d="M226.712 114.097H219.637V121.161H226.712V114.097Z" fill="#EE8600"/>
<path d="M233.787 114.097H226.712V121.161H233.787V114.097Z" fill="#EE8600"/>
<path d="M28.6128 107.032H21.5378V114.097H28.6128V107.032Z" fill="#EE8600"/>
<path d="M21.5372 107.032H14.4622V114.097H21.5372V107.032Z" fill="#ED9E00"/>
<path d="M35.6878 107.032H28.6128V114.097H35.6878V107.032Z" fill="#EE8600"/>
<path d="M42.7627 107.032H35.6877V114.097H42.7627V107.032Z" fill="#B25900"/>
<path d="M49.8377 107.032H42.7627V114.097H49.8377V107.032Z" fill="#EE8600"/>
<path d="M56.9124 107.032H49.8374V114.097H56.9124V107.032Z" fill="#F9AF3C"/>
<path d="M63.9881 107.032H56.9131V114.097H63.9881V107.032Z" fill="#EE8600"/>
<path d="M71.0623 107.032H63.9873V114.097H71.0623V107.032Z" fill="#F9AF3C"/>
<path d="M78.1373 107.032H71.0623V114.097H78.1373V107.032Z" fill="#B25900"/>
<path d="M85.212 107.032H78.137V114.097H85.212V107.032Z" fill="#ED9E00"/>
<path d="M92.2869 107.032H85.2119V114.097H92.2869V107.032Z" fill="#ED9E00"/>
<path d="M99.3626 107.032H92.2876V114.097H99.3626V107.032Z" fill="#EE8600"/>
<path d="M106.438 107.032H99.3625V114.097H106.438V107.032Z" fill="#B6B9C6"/>
<path d="M113.512 107.032H106.438V114.097H113.512V107.032Z" fill="#B6B9C6"/>
<path d="M120.587 107.032H113.512V114.097H120.587V107.032Z" fill="#B6B9C6"/>
<path d="M127.662 107.032H120.587V114.097H127.662V107.032Z" fill="#B6B9C6"/>
<path d="M134.738 107.032H127.663V114.097H134.738V107.032Z" fill="#9B9DAA"/>
<path d="M141.813 107.032H134.738V114.097H141.813V107.032Z" fill="#9B9DAA"/>
<path d="M148.887 107.032H141.812V114.097H148.887V107.032Z" fill="#9B9DAA"/>
<path d="M155.962 107.032H148.887V114.097H155.962V107.032Z" fill="#EE8600"/>
<path d="M163.037 107.032H155.962V114.097H163.037V107.032Z" fill="#ED9E00"/>
<path d="M170.113 107.032H163.038V114.097H170.113V107.032Z" fill="#ED9E00"/>
<path d="M177.188 107.032H170.113V114.097H177.188V107.032Z" fill="#B25900"/>
<path d="M184.263 107.032H177.188V114.097H184.263V107.032Z" fill="#EE8600"/>
<path d="M191.338 107.032H184.263V114.097H191.338V107.032Z" fill="#F9AF3C"/>
<path d="M198.412 107.032H191.337V114.097H198.412V107.032Z" fill="#EE8600"/>
<path d="M205.488 107.032H198.413V114.097H205.488V107.032Z" fill="#F9AF3C"/>
<path d="M212.562 107.032H205.487V114.097H212.562V107.032Z" fill="#B25900"/>
<path d="M219.637 107.032H212.562V114.097H219.637V107.032Z" fill="#EE8600"/>
<path d="M226.712 107.032H219.637V114.097H226.712V107.032Z" fill="#EE8600"/>
<path d="M233.787 107.032H226.712V114.097H233.787V107.032Z" fill="#ED9E00"/>
<path d="M28.6128 99.9678H21.5378V107.032H28.6128V99.9678Z" fill="#ED9E00"/>
<path d="M21.5372 99.9678H14.4622V107.032H21.5372V99.9678Z" fill="#ED9E00"/>
<path d="M35.6878 99.9678H28.6128V107.032H35.6878V99.9678Z" fill="#EE8600"/>
<path d="M42.7627 99.9678H35.6877V107.032H42.7627V99.9678Z" fill="#B25900"/>
<path d="M49.8377 99.9678H42.7627V107.032H49.8377V99.9678Z" fill="#EE8600"/>
<path d="M56.9124 99.9678H49.8374V107.032H56.9124V99.9678Z" fill="#F9AF3C"/>
<path d="M63.9881 99.9678H56.9131V107.032H63.9881V99.9678Z" fill="#F9AF3C"/>
<path d="M71.0623 99.9678H63.9873V107.032H71.0623V99.9678Z" fill="#F9AF3C"/>
<path d="M78.1373 99.9678H71.0623V107.032H78.1373V99.9678Z" fill="#B25900"/>
<path d="M85.212 99.9678H78.137V107.032H85.212V99.9678Z" fill="#ED9E00"/>
<path d="M92.2869 99.9678H85.2119V107.032H92.2869V99.9678Z" fill="#EE8600"/>
<path d="M99.3626 99.9678H92.2876V107.032H99.3626V99.9678Z" fill="#EE8600"/>
<path d="M106.438 99.9678H99.3625V107.032H106.438V99.9678Z" fill="#EE8600"/>
<path d="M113.512 99.9678H106.438V107.032H113.512V99.9678Z" fill="#F0F4FF"/>
<path d="M120.587 99.9678H113.512V107.032H120.587V99.9678Z" fill="#EE8600"/>
<path d="M127.662 99.9678H120.587V107.032H127.662V99.9678Z" fill="#EE8600"/>
<path d="M134.738 99.9678H127.663V107.032H134.738V99.9678Z" fill="#EE8600"/>
<path d="M141.813 99.9678H134.738V107.032H141.813V99.9678Z" fill="#F0F4FF"/>
<path d="M148.887 99.9678H141.812V107.032H148.887V99.9678Z" fill="#EE8600"/>
<path d="M155.962 99.9678H148.887V107.032H155.962V99.9678Z" fill="#EE8600"/>
<path d="M163.037 99.9678H155.962V107.032H163.037V99.9678Z" fill="#EE8600"/>
<path d="M170.113 99.9678H163.038V107.032H170.113V99.9678Z" fill="#ED9E00"/>
<path d="M177.188 99.9678H170.113V107.032H177.188V99.9678Z" fill="#B25900"/>
<path d="M184.263 99.9678H177.188V107.032H184.263V99.9678Z" fill="#EE8600"/>
<path d="M191.338 99.9678H184.263V107.032H191.338V99.9678Z" fill="#F9AF3C"/>
<path d="M198.412 99.9678H191.337V107.032H198.412V99.9678Z" fill="#F9AF3C"/>
<path d="M205.488 99.9678H198.413V107.032H205.488V99.9678Z" fill="#F9AF3C"/>
<path d="M212.562 99.9678H205.487V107.032H212.562V99.9678Z" fill="#B25900"/>
<path d="M219.637 99.9678H212.562V107.032H219.637V99.9678Z" fill="#EE8600"/>
<path d="M226.712 99.9678H219.637V107.032H226.712V99.9678Z" fill="#ED9E00"/>
<path d="M233.787 99.9678H226.712V107.032H233.787V99.9678Z" fill="#ED9E00"/>
<path d="M28.6128 92.9028H21.5378V99.9674H28.6128V92.9028Z" fill="#ED9E00"/>
<path d="M21.5372 92.9028H14.4622V99.9674H21.5372V92.9028Z" fill="#ED9E00"/>
<path d="M35.6878 92.9028H28.6128V99.9674H35.6878V92.9028Z" fill="#ED9E00"/>
<path d="M42.7627 92.9028H35.6877V99.9674H42.7627V92.9028Z" fill="#B25900"/>
<path d="M49.8377 92.9028H42.7627V99.9674H49.8377V92.9028Z" fill="#F9AF3C"/>
<path d="M56.9124 92.9028H49.8374V99.9674H56.9124V92.9028Z" fill="#F9AF3C"/>
<path d="M63.9881 92.9028H56.9131V99.9674H63.9881V92.9028Z" fill="#F9AF3C"/>
<path d="M71.0623 92.9028H63.9873V99.9674H71.0623V92.9028Z" fill="#FEE762"/>
<path d="M78.1373 92.9028H71.0623V99.9674H78.1373V92.9028Z" fill="#B25900"/>
<path d="M85.212 92.9028H78.137V99.9674H85.212V92.9028Z" fill="#ED9E00"/>
<path d="M92.2869 92.9028H85.2119V99.9674H92.2869V92.9028Z" fill="#ED9E00"/>
<path d="M99.3626 92.9028H92.2876V99.9674H99.3626V92.9028Z" fill="#ED9E00"/>
<path d="M106.438 92.9028H99.3625V99.9674H106.438V92.9028Z" fill="#ED9E00"/>
<path d="M113.512 92.9028H106.438V99.9674H113.512V92.9028Z" fill="#F0F4FF"/>
<path d="M120.587 92.9028H113.512V99.9674H120.587V92.9028Z" fill="#ED9E00"/>
<path d="M127.662 92.9028H120.587V99.9674H127.662V92.9028Z" fill="#ED9E00"/>
<path d="M134.738 92.9028H127.663V99.9674H134.738V92.9028Z" fill="#ED9E00"/>
<path d="M141.813 92.9028H134.738V99.9674H141.813V92.9028Z" fill="#F0F4FF"/>
<path d="M148.887 92.9028H141.812V99.9674H148.887V92.9028Z" fill="#ED9E00"/>
<path d="M155.962 92.9028H148.887V99.9674H155.962V92.9028Z" fill="#ED9E00"/>
<path d="M163.037 92.9028H155.962V99.9674H163.037V92.9028Z" fill="#ED9E00"/>
<path d="M170.113 92.9028H163.038V99.9674H170.113V92.9028Z" fill="#ED9E00"/>
<path d="M177.188 92.9028H170.113V99.9674H177.188V92.9028Z" fill="#B25900"/>
<path d="M184.263 92.9028H177.188V99.9674H184.263V92.9028Z" fill="#F9AF3C"/>
<path d="M191.338 92.9028H184.263V99.9674H191.338V92.9028Z" fill="#F9AF3C"/>
<path d="M198.412 92.9028H191.337V99.9674H198.412V92.9028Z" fill="#F9AF3C"/>
<path d="M205.488 92.9028H198.413V99.9674H205.488V92.9028Z" fill="#FEE762"/>
<path d="M212.562 92.9028H205.487V99.9674H212.562V92.9028Z" fill="#B25900"/>
<path d="M219.637 92.9028H212.562V99.9674H219.637V92.9028Z" fill="#ED9E00"/>
<path d="M226.712 92.9028H219.637V99.9674H226.712V92.9028Z" fill="#ED9E00"/>
<path d="M233.787 92.9028H226.712V99.9674H233.787V92.9028Z" fill="#ED9E00"/>
<path d="M28.6128 85.8384H21.5378V92.903H28.6128V85.8384Z" fill="#ED9E00"/>
<path d="M21.5372 85.8384H14.4622V92.903H21.5372V85.8384Z" fill="#ED9E00"/>
<path d="M35.6878 85.8384H28.6128V92.903H35.6878V85.8384Z" fill="#ED9E00"/>
<path d="M42.7627 85.8384H35.6877V92.903H42.7627V85.8384Z" fill="#B25900"/>
<path d="M49.8377 85.8384H42.7627V92.903H49.8377V85.8384Z" fill="#F9AF3C"/>
<path d="M56.9124 85.8384H49.8374V92.903H56.9124V85.8384Z" fill="#FEE762"/>
<path d="M63.9881 85.8384H56.9131V92.903H63.9881V85.8384Z" fill="#F9AF3C"/>
<path d="M71.0623 85.8384H63.9873V92.903H71.0623V85.8384Z" fill="#FEE762"/>
<path d="M78.1373 85.8384H71.0623V92.903H78.1373V85.8384Z" fill="#B25900"/>
<path d="M85.212 85.8384H78.137V92.903H85.212V85.8384Z" fill="#ED9E00"/>
<path d="M92.2869 85.8384H85.2119V92.903H92.2869V85.8384Z" fill="#ED9E00"/>
<path d="M99.3626 85.8384H92.2876V92.903H99.3626V85.8384Z" fill="#ED9E00"/>
<path d="M106.438 85.8384H99.3625V92.903H106.438V85.8384Z" fill="#ED9E00"/>
<path d="M113.512 85.8384H106.438V92.903H113.512V85.8384Z" fill="#ED9E00"/>
<path d="M120.587 85.8384H113.512V92.903H120.587V85.8384Z" fill="#F0F4FF"/>
<path d="M127.662 85.8384H120.587V92.903H127.662V85.8384Z" fill="#F0F4FF"/>
<path d="M134.738 85.8384H127.663V92.903H134.738V85.8384Z" fill="#F0F4FF"/>
<path d="M141.813 85.8384H134.738V92.903H141.813V85.8384Z" fill="#ED9E00"/>
<path d="M148.887 85.8384H141.812V92.903H148.887V85.8384Z" fill="#ED9E00"/>
<path d="M155.962 85.8384H148.887V92.903H155.962V85.8384Z" fill="#ED9E00"/>
<path d="M163.037 85.8384H155.962V92.903H163.037V85.8384Z" fill="#ED9E00"/>
<path d="M170.113 85.8384H163.038V92.903H170.113V85.8384Z" fill="#ED9E00"/>
<path d="M177.188 85.8384H170.113V92.903H177.188V85.8384Z" fill="#B25900"/>
<path d="M184.263 85.8384H177.188V92.903H184.263V85.8384Z" fill="#F9AF3C"/>
<path d="M191.338 85.8384H184.263V92.903H191.338V85.8384Z" fill="#FEE762"/>
<path d="M198.412 85.8384H191.337V92.903H198.412V85.8384Z" fill="#F9AF3C"/>
<path d="M205.488 85.8384H198.413V92.903H205.488V85.8384Z" fill="#FEE762"/>
<path d="M212.562 85.8384H205.487V92.903H212.562V85.8384Z" fill="#B25900"/>
<path d="M219.637 85.8384H212.562V92.903H219.637V85.8384Z" fill="#ED9E00"/>
<path d="M226.712 85.8384H219.637V92.903H226.712V85.8384Z" fill="#ED9E00"/>
<path d="M233.787 85.8384H226.712V92.903H233.787V85.8384Z" fill="#ED9E00"/>
<path d="M28.6128 78.7734H21.5378V85.838H28.6128V78.7734Z" fill="#B25900"/>
<path d="M21.5372 78.7734H14.4622V85.838H21.5372V78.7734Z" fill="#B25900"/>
<path d="M35.6878 78.7734H28.6128V85.838H35.6878V78.7734Z" fill="#B25900"/>
<path d="M42.7627 78.7734H35.6877V85.838H42.7627V78.7734Z" fill="#B25900"/>
<path d="M49.8377 78.7734H42.7627V85.838H49.8377V78.7734Z" fill="#FEE762"/>
<path d="M56.9124 78.7734H49.8374V85.838H56.9124V78.7734Z" fill="#FEE762"/>
<path d="M63.9881 78.7734H56.9131V85.838H63.9881V78.7734Z" fill="#FEE762"/>
<path d="M71.0623 78.7734H63.9873V85.838H71.0623V78.7734Z" fill="#FEE762"/>
<path d="M78.1373 78.7734H71.0623V85.838H78.1373V78.7734Z" fill="#B25900"/>
<path d="M85.212 78.7734H78.137V85.838H85.212V78.7734Z" fill="#B25900"/>
<path d="M92.2869 78.7734H85.2119V85.838H92.2869V78.7734Z" fill="#B25900"/>
<path d="M99.3626 78.7734H92.2876V85.838H99.3626V78.7734Z" fill="#B25900"/>
<path d="M106.438 78.7734H99.3625V85.838H106.438V78.7734Z" fill="#B25900"/>
<path d="M113.512 78.7734H106.438V85.838H113.512V78.7734Z" fill="#B25900"/>
<path d="M120.587 78.7734H113.512V85.838H120.587V78.7734Z" fill="#B25900"/>
<path d="M127.662 78.7734H120.587V85.838H127.662V78.7734Z" fill="#B25900"/>
<path d="M134.738 78.7734H127.663V85.838H134.738V78.7734Z" fill="#B25900"/>
<path d="M141.813 78.7734H134.738V85.838H141.813V78.7734Z" fill="#B25900"/>
<path d="M148.887 78.7734H141.812V85.838H148.887V78.7734Z" fill="#B25900"/>
<path d="M155.962 78.7734H148.887V85.838H155.962V78.7734Z" fill="#B25900"/>
<path d="M163.037 78.7734H155.962V85.838H163.037V78.7734Z" fill="#B25900"/>
<path d="M170.113 78.7734H163.038V85.838H170.113V78.7734Z" fill="#B25900"/>
<path d="M177.188 78.7734H170.113V85.838H177.188V78.7734Z" fill="#B25900"/>
<path d="M184.263 78.7734H177.188V85.838H184.263V78.7734Z" fill="#FEE762"/>
<path d="M191.338 78.7734H184.263V85.838H191.338V78.7734Z" fill="#FEE762"/>
<path d="M198.412 78.7734H191.337V85.838H198.412V78.7734Z" fill="#FEE762"/>
<path d="M205.488 78.7734H198.413V85.838H205.488V78.7734Z" fill="#FEE762"/>
<path d="M212.562 78.7734H205.487V85.838H212.562V78.7734Z" fill="#B25900"/>
<path d="M219.637 78.7734H212.562V85.838H219.637V78.7734Z" fill="#B25900"/>
<path d="M226.712 78.7734H219.637V85.838H226.712V78.7734Z" fill="#B25900"/>
<path d="M233.787 78.7734H226.712V85.838H233.787V78.7734Z" fill="#B25900"/>
<path d="M28.6128 71.709H21.5378V78.7736H28.6128V71.709Z" fill="#ED9E00"/>
<path d="M21.5372 71.709H14.4622V78.7736H21.5372V71.709Z" fill="#ED9E00"/>
<path d="M35.6878 71.709H28.6128V78.7736H35.6878V71.709Z" fill="#ED9E00"/>
<path d="M42.7627 71.709H35.6877V78.7736H42.7627V71.709Z" fill="#B25900"/>
<path d="M49.8377 71.709H42.7627V78.7736H49.8377V71.709Z" fill="#FEE762"/>
<path d="M56.9124 71.709H49.8374V78.7736H56.9124V71.709Z" fill="#FEE762"/>
<path d="M63.9881 71.709H56.9131V78.7736H63.9881V71.709Z" fill="#FEE762"/>
<path d="M71.0623 71.709H63.9873V78.7736H71.0623V71.709Z" fill="#FEE762"/>
<path d="M78.1373 71.709H71.0623V78.7736H78.1373V71.709Z" fill="#B25900"/>
<path d="M85.212 71.709H78.137V78.7736H85.212V71.709Z" fill="#ED9E00"/>
<path d="M92.2869 71.709H85.2119V78.7736H92.2869V71.709Z" fill="#ED9E00"/>
<path d="M99.3626 71.709H92.2876V78.7736H99.3626V71.709Z" fill="#ED9E00"/>
<path d="M106.438 71.709H99.3625V78.7736H106.438V71.709Z" fill="#ED9E00"/>
<path d="M113.512 71.709H106.438V78.7736H113.512V71.709Z" fill="#ED9E00"/>
<path d="M120.587 71.709H113.512V78.7736H120.587V71.709Z" fill="#ED9E00"/>
<path d="M127.662 71.709H120.587V78.7736H127.662V71.709Z" fill="#ED9E00"/>
<path d="M134.738 71.709H127.663V78.7736H134.738V71.709Z" fill="#ED9E00"/>
<path d="M141.813 71.709H134.738V78.7736H141.813V71.709Z" fill="#ED9E00"/>
<path d="M148.887 71.709H141.812V78.7736H148.887V71.709Z" fill="#ED9E00"/>
<path d="M155.962 71.709H148.887V78.7736H155.962V71.709Z" fill="#ED9E00"/>
<path d="M163.037 71.709H155.962V78.7736H163.037V71.709Z" fill="#ED9E00"/>
<path d="M170.113 71.709H163.038V78.7736H170.113V71.709Z" fill="#ED9E00"/>
<path d="M177.188 71.709H170.113V78.7736H177.188V71.709Z" fill="#B25900"/>
<path d="M184.263 71.709H177.188V78.7736H184.263V71.709Z" fill="#FEE762"/>
<path d="M191.338 71.709H184.263V78.7736H191.338V71.709Z" fill="#FEE762"/>
<path d="M198.412 71.709H191.337V78.7736H198.412V71.709Z" fill="#FEE762"/>
<path d="M205.488 71.709H198.413V78.7736H205.488V71.709Z" fill="#FEE762"/>
<path d="M212.562 71.709H205.487V78.7736H212.562V71.709Z" fill="#B25900"/>
<path d="M219.637 71.709H212.562V78.7736H219.637V71.709Z" fill="#ED9E00"/>
<path d="M226.712 71.709H219.637V78.7736H226.712V71.709Z" fill="#ED9E00"/>
<path d="M233.787 71.709H226.712V78.7736H233.787V71.709Z" fill="#ED9E00"/>
<path d="M28.6128 64.6445H21.5378V71.7091H28.6128V64.6445Z" fill="#FFD281"/>
<path d="M21.5372 64.6445H14.4622V71.7091H21.5372V64.6445Z" fill="#FFD281"/>
<path d="M35.6878 64.6445H28.6128V71.7091H35.6878V64.6445Z" fill="#FFD281"/>
<path d="M42.7627 64.6445H35.6877V71.7091H42.7627V64.6445Z" fill="#B25900"/>
<path d="M49.8377 64.6445H42.7627V71.7091H49.8377V64.6445Z" fill="#FEE762"/>
<path d="M56.9124 64.6445H49.8374V71.7091H56.9124V64.6445Z" fill="#FEE762"/>
<path d="M63.9881 64.6445H56.9131V71.7091H63.9881V64.6445Z" fill="#FEE762"/>
<path d="M71.0623 64.6445H63.9873V71.7091H71.0623V64.6445Z" fill="#FEE762"/>
<path d="M78.1373 64.6445H71.0623V71.7091H78.1373V64.6445Z" fill="#B25900"/>
<path d="M85.212 64.6445H78.137V71.7091H85.212V64.6445Z" fill="#FFD281"/>
<path d="M92.2869 64.6445H85.2119V71.7091H92.2869V64.6445Z" fill="#FFD281"/>
<path d="M99.3626 64.6445H92.2876V71.7091H99.3626V64.6445Z" fill="#FFD281"/>
<path d="M106.438 64.6445H99.3625V71.7091H106.438V64.6445Z" fill="#ED9E00"/>
<path d="M113.512 64.6445H106.438V71.7091H113.512V64.6445Z" fill="#ED9E00"/>
<path d="M120.587 64.6445H113.512V71.7091H120.587V64.6445Z" fill="#ED9E00"/>
<path d="M127.662 64.6445H120.587V71.7091H127.662V64.6445Z" fill="#ED9E00"/>
<path d="M134.738 64.6445H127.663V71.7091H134.738V64.6445Z" fill="#ED9E00"/>
<path d="M141.813 64.6445H134.738V71.7091H141.813V64.6445Z" fill="#ED9E00"/>
<path d="M148.887 64.6445H141.812V71.7091H148.887V64.6445Z" fill="#ED9E00"/>
<path d="M155.962 64.6445H148.887V71.7091H155.962V64.6445Z" fill="#ED9E00"/>
<path d="M163.037 64.6445H155.962V71.7091H163.037V64.6445Z" fill="#ED9E00"/>
<path d="M170.113 64.6445H163.038V71.7091H170.113V64.6445Z" fill="#ED9E00"/>
<path d="M177.188 64.6445H170.113V71.7091H177.188V64.6445Z" fill="#B25900"/>
<path d="M184.263 64.6445H177.188V71.7091H184.263V64.6445Z" fill="#FEE762"/>
<path d="M191.338 64.6445H184.263V71.7091H191.338V64.6445Z" fill="#FEE762"/>
<path d="M198.412 64.6445H191.337V71.7091H198.412V64.6445Z" fill="#FEE762"/>
<path d="M205.488 64.6445H198.413V71.7091H205.488V64.6445Z" fill="#FEE762"/>
<path d="M212.562 64.6445H205.487V71.7091H212.562V64.6445Z" fill="#B25900"/>
<path d="M219.637 64.6445H212.562V71.7091H219.637V64.6445Z" fill="#ED9E00"/>
<path d="M226.712 64.6445H219.637V71.7091H226.712V64.6445Z" fill="#ED9E00"/>
<path d="M233.787 64.6445H226.712V71.7091H233.787V64.6445Z" fill="#FFD281"/>
<path d="M28.6128 57.5801H21.5378V64.6447H28.6128V57.5801Z" fill="#FFD281"/>
<path d="M21.5372 57.5801H14.4622V64.6447H21.5372V57.5801Z" fill="#FFD281"/>
<path d="M35.6878 57.5801H28.6128V64.6447H35.6878V57.5801Z" fill="#FFD281"/>
<path d="M42.7627 57.5801H35.6877V64.6447H42.7627V57.5801Z" fill="#B25900"/>
<path d="M49.8377 57.5801H42.7627V64.6447H49.8377V57.5801Z" fill="#FEE762"/>
<path d="M56.9124 57.5801H49.8374V64.6447H56.9124V57.5801Z" fill="#FEE762"/>
<path d="M63.9881 57.5801H56.9131V64.6447H63.9881V57.5801Z" fill="#FEE762"/>
<path d="M71.0623 57.5801H63.9873V64.6447H71.0623V57.5801Z" fill="#FEE762"/>
<path d="M78.1373 57.5801H71.0623V64.6447H78.1373V57.5801Z" fill="#B25900"/>
<path d="M85.212 57.5801H78.137V64.6447H85.212V57.5801Z" fill="#FFD281"/>
<path d="M92.2869 57.5801H85.2119V64.6447H92.2869V57.5801Z" fill="#FFD281"/>
<path d="M99.3626 57.5801H92.2876V64.6447H99.3626V57.5801Z" fill="#FFD281"/>
<path d="M106.438 57.5801H99.3625V64.6447H106.438V57.5801Z" fill="#FFD281"/>
<path d="M113.512 57.5801H106.438V64.6447H113.512V57.5801Z" fill="#FFD281"/>
<path d="M120.587 57.5801H113.512V64.6447H120.587V57.5801Z" fill="#FFD281"/>
<path d="M127.662 57.5801H120.587V64.6447H127.662V57.5801Z" fill="#FFD281"/>
<path d="M134.738 57.5801H127.663V64.6447H134.738V57.5801Z" fill="#ED9E00"/>
<path d="M141.813 57.5801H134.738V64.6447H141.813V57.5801Z" fill="#ED9E00"/>
<path d="M148.887 57.5801H141.812V64.6447H148.887V57.5801Z" fill="#ED9E00"/>
<path d="M155.962 57.5801H148.887V64.6447H155.962V57.5801Z" fill="#ED9E00"/>
<path d="M163.037 57.5801H155.962V64.6447H163.037V57.5801Z" fill="#ED9E00"/>
<path d="M170.113 57.5801H163.038V64.6447H170.113V57.5801Z" fill="#ED9E00"/>
<path d="M177.188 57.5801H170.113V64.6447H177.188V57.5801Z" fill="#B25900"/>
<path d="M184.263 57.5801H177.188V64.6447H184.263V57.5801Z" fill="#FEE762"/>
<path d="M191.338 57.5801H184.263V64.6447H191.338V57.5801Z" fill="#FEE762"/>
<path d="M198.412 57.5801H191.337V64.6447H198.412V57.5801Z" fill="#FEE762"/>
<path d="M205.488 57.5801H198.413V64.6447H205.488V57.5801Z" fill="#FEE762"/>
<path d="M212.562 57.5801H205.487V64.6447H212.562V57.5801Z" fill="#B25900"/>
<path d="M219.637 57.5801H212.562V64.6447H219.637V57.5801Z" fill="#ED9E00"/>
<path d="M226.712 57.5801H219.637V64.6447H226.712V57.5801Z" fill="#FFD281"/>
<path d="M233.787 57.5801H226.712V64.6447H233.787V57.5801Z" fill="#FFD281"/>
<path d="M28.6128 50.5151H21.5378V57.5797H28.6128V50.5151Z" fill="#440108"/>
<path d="M21.5372 50.5151H14.4622V57.5797H21.5372V50.5151Z" fill="#440108"/>
<path d="M35.6878 50.5151H28.6128V57.5797H35.6878V50.5151Z" fill="#440108"/>
<path d="M42.7627 50.5151H35.6877V57.5797H42.7627V50.5151Z" fill="#440108"/>
<path d="M49.8377 50.5151H42.7627V57.5797H49.8377V50.5151Z" fill="#FEE762"/>
<path d="M56.9124 50.5151H49.8374V57.5797H56.9124V50.5151Z" fill="#F9AF3C"/>
<path d="M63.9881 50.5151H56.9131V57.5797H63.9881V50.5151Z" fill="#FEE762"/>
<path d="M71.0623 50.5151H63.9873V57.5797H71.0623V50.5151Z" fill="#F9AF3C"/>
<path d="M78.1373 50.5151H71.0623V57.5797H78.1373V50.5151Z" fill="#440108"/>
<path d="M85.212 50.5151H78.137V57.5797H85.212V50.5151Z" fill="#440108"/>
<path d="M92.2869 50.5151H85.2119V57.5797H92.2869V50.5151Z" fill="#440108"/>
<path d="M99.3626 50.5151H92.2876V57.5797H99.3626V50.5151Z" fill="#440108"/>
<path d="M106.438 50.5151H99.3625V57.5797H106.438V50.5151Z" fill="#440108"/>
<path d="M113.512 50.5151H106.438V57.5797H113.512V50.5151Z" fill="#440108"/>
<path d="M120.587 50.5151H113.512V57.5797H120.587V50.5151Z" fill="#440108"/>
<path d="M127.662 50.5151H120.587V57.5797H127.662V50.5151Z" fill="#440108"/>
<path d="M134.738 50.5151H127.663V57.5797H134.738V50.5151Z" fill="#440108"/>
<path d="M141.813 50.5151H134.738V57.5797H141.813V50.5151Z" fill="#440108"/>
<path d="M148.887 50.5151H141.812V57.5797H148.887V50.5151Z" fill="#440108"/>
<path d="M155.962 50.5151H148.887V57.5797H155.962V50.5151Z" fill="#440108"/>
<path d="M163.037 50.5151H155.962V57.5797H163.037V50.5151Z" fill="#440108"/>
<path d="M170.113 50.5151H163.038V57.5797H170.113V50.5151Z" fill="#440108"/>
<path d="M177.188 50.5151H170.113V57.5797H177.188V50.5151Z" fill="#440108"/>
<path d="M184.263 50.5151H177.188V57.5797H184.263V50.5151Z" fill="#FEE762"/>
<path d="M191.338 50.5151H184.263V57.5797H191.338V50.5151Z" fill="#F9AF3C"/>
<path d="M198.412 50.5151H191.337V57.5797H198.412V50.5151Z" fill="#FEE762"/>
<path d="M205.488 50.5151H198.413V57.5797H205.488V50.5151Z" fill="#F9AF3C"/>
<path d="M212.562 50.5151H205.487V57.5797H212.562V50.5151Z" fill="#440108"/>
<path d="M219.637 50.5151H212.562V57.5797H219.637V50.5151Z" fill="#440108"/>
<path d="M226.712 50.5151H219.637V57.5797H226.712V50.5151Z" fill="#440108"/>
<path d="M233.787 50.5151H226.712V57.5797H233.787V50.5151Z" fill="#440108"/>
<path d="M28.6128 43.4507H21.5378V50.5153H28.6128V43.4507Z" fill="#FFD281"/>
<path d="M21.5372 43.4507H14.4622V50.5153H21.5372V43.4507Z" fill="#FFD281"/>
<path d="M35.6878 43.4507H28.6128V50.5153H35.6878V43.4507Z" fill="#FFD281"/>
<path d="M42.7627 43.4507H35.6877V50.5153H42.7627V43.4507Z" fill="#B25900"/>
<path d="M49.8377 43.4507H42.7627V50.5153H49.8377V43.4507Z" fill="#FEE762"/>
<path d="M56.9124 43.4507H49.8374V50.5153H56.9124V43.4507Z" fill="#F9AF3C"/>
<path d="M63.9881 43.4507H56.9131V50.5153H63.9881V43.4507Z" fill="#F9AF3C"/>
<path d="M71.0623 43.4507H63.9873V50.5153H71.0623V43.4507Z" fill="#F9AF3C"/>
<path d="M78.1373 43.4507H71.0623V50.5153H78.1373V43.4507Z" fill="#B25900"/>
<path d="M85.212 43.4507H78.137V50.5153H85.212V43.4507Z" fill="#FFD281"/>
<path d="M92.2869 43.4507H85.2119V50.5153H92.2869V43.4507Z" fill="#FFD281"/>
<path d="M99.3626 43.4507H92.2876V50.5153H99.3626V43.4507Z" fill="#FFD281"/>
<path d="M106.438 43.4507H99.3625V50.5153H106.438V43.4507Z" fill="#FFD281"/>
<path d="M113.512 43.4507H106.438V50.5153H113.512V43.4507Z" fill="#FFD281"/>
<path d="M120.587 43.4507H113.512V50.5153H120.587V43.4507Z" fill="#FFD281"/>
<path d="M127.662 43.4507H120.587V50.5153H127.662V43.4507Z" fill="#FFD281"/>
<path d="M134.738 43.4507H127.663V50.5153H134.738V43.4507Z" fill="#FFD281"/>
<path d="M141.813 43.4507H134.738V50.5153H141.813V43.4507Z" fill="#FFD281"/>
<path d="M148.887 43.4507H141.812V50.5153H148.887V43.4507Z" fill="#FFD281"/>
<path d="M155.962 43.4507H148.887V50.5153H155.962V43.4507Z" fill="#ED9E00"/>
<path d="M163.037 43.4507H155.962V50.5153H163.037V43.4507Z" fill="#ED9E00"/>
<path d="M170.113 43.4507H163.038V50.5153H170.113V43.4507Z" fill="#ED9E00"/>
<path d="M177.188 43.4507H170.113V50.5153H177.188V43.4507Z" fill="#B25900"/>
<path d="M184.263 43.4507H177.188V50.5153H184.263V43.4507Z" fill="#FEE762"/>
<path d="M191.338 43.4507H184.263V50.5153H191.338V43.4507Z" fill="#F9AF3C"/>
<path d="M198.412 43.4507H191.337V50.5153H198.412V43.4507Z" fill="#F9AF3C"/>
<path d="M205.488 43.4507H198.413V50.5153H205.488V43.4507Z" fill="#F9AF3C"/>
<path d="M212.562 43.4507H205.487V50.5153H212.562V43.4507Z" fill="#B25900"/>
<path d="M219.637 43.4507H212.562V50.5153H219.637V43.4507Z" fill="#FFD281"/>
<path d="M226.712 43.4507H219.637V50.5153H226.712V43.4507Z" fill="#FFD281"/>
<path d="M233.787 43.4507H226.712V50.5153H233.787V43.4507Z" fill="#FFD281"/>
<path d="M28.6128 36.3857H21.5378V43.4503H28.6128V36.3857Z" fill="#ED9E00"/>
<path d="M35.6878 36.3857H28.6128V43.4503H35.6878V36.3857Z" fill="#ED9E00"/>
<path d="M42.7627 36.3857H35.6877V43.4503H42.7627V36.3857Z" fill="#B25900"/>
<path d="M49.8377 36.3857H42.7627V43.4503H49.8377V36.3857Z" fill="#F9AF3C"/>
<path d="M56.9124 36.3857H49.8374V43.4503H56.9124V36.3857Z" fill="#F9AF3C"/>
<path d="M63.9881 36.3857H56.9131V43.4503H63.9881V36.3857Z" fill="#EE8600"/>
<path d="M71.0623 36.3857H63.9873V43.4503H71.0623V36.3857Z" fill="#F9AF3C"/>
<path d="M78.1373 36.3857H71.0623V43.4503H78.1373V36.3857Z" fill="#B25900"/>
<path d="M85.212 36.3857H78.137V43.4503H85.212V36.3857Z" fill="#ED9E00"/>
<path d="M92.2869 36.3857H85.2119V43.4503H92.2869V36.3857Z" fill="#ED9E00"/>
<path d="M99.3626 36.3857H92.2876V43.4503H99.3626V36.3857Z" fill="#ED9E00"/>
<path d="M106.438 36.3857H99.3625V43.4503H106.438V36.3857Z" fill="#ED9E00"/>
<path d="M113.512 36.3857H106.438V43.4503H113.512V36.3857Z" fill="#ED9E00"/>
<path d="M120.587 36.3857H113.512V43.4503H120.587V36.3857Z" fill="#ED9E00"/>
<path d="M127.662 36.3857H120.587V43.4503H127.662V36.3857Z" fill="#ED9E00"/>
<path d="M134.738 36.3857H127.663V43.4503H134.738V36.3857Z" fill="#ED9E00"/>
<path d="M141.813 36.3857H134.738V43.4503H141.813V36.3857Z" fill="#ED9E00"/>
<path d="M148.887 36.3857H141.812V43.4503H148.887V36.3857Z" fill="#ED9E00"/>
<path d="M155.962 36.3857H148.887V43.4503H155.962V36.3857Z" fill="#ED9E00"/>
<path d="M163.037 36.3857H155.962V43.4503H163.037V36.3857Z" fill="#ED9E00"/>
<path d="M170.113 36.3857H163.038V43.4503H170.113V36.3857Z" fill="#ED9E00"/>
<path d="M177.188 36.3857H170.113V43.4503H177.188V36.3857Z" fill="#B25900"/>
<path d="M184.263 36.3857H177.188V43.4503H184.263V36.3857Z" fill="#F9AF3C"/>
<path d="M191.338 36.3857H184.263V43.4503H191.338V36.3857Z" fill="#F9AF3C"/>
<path d="M198.412 36.3857H191.337V43.4503H198.412V36.3857Z" fill="#EE8600"/>
<path d="M205.488 36.3857H198.413V43.4503H205.488V36.3857Z" fill="#F9AF3C"/>
<path d="M212.562 36.3857H205.487V43.4503H212.562V36.3857Z" fill="#B25900"/>
<path d="M219.637 36.3857H212.562V43.4503H219.637V36.3857Z" fill="#ED9E00"/>
<path d="M226.712 36.3857H219.637V43.4503H226.712V36.3857Z" fill="#ED9E00"/>
<path d="M42.7627 29.3218H35.6877V36.3864H42.7627V29.3218Z" fill="#B25900"/>
<path d="M49.8377 29.3218H42.7627V36.3864H49.8377V29.3218Z" fill="#F9AF3C"/>
<path d="M56.9124 29.3218H49.8374V36.3864H56.9124V29.3218Z" fill="#EE8600"/>
<path d="M63.9881 29.3218H56.9131V36.3864H63.9881V29.3218Z" fill="#EE8600"/>
<path d="M71.0623 29.3218H63.9873V36.3864H71.0623V29.3218Z" fill="#F9AF3C"/>
<path d="M78.1373 29.3218H71.0623V36.3864H78.1373V29.3218Z" fill="#B25900"/>
<path d="M85.212 29.3218H78.137V36.3864H85.212V29.3218Z" fill="#ED9E00"/>
<path d="M92.2869 29.3218H85.2119V36.3864H92.2869V29.3218Z" fill="#ED9E00"/>
<path d="M99.3626 29.3218H92.2876V36.3864H99.3626V29.3218Z" fill="#ED9E00"/>
<path d="M106.438 29.3218H99.3625V36.3864H106.438V29.3218Z" fill="#ED9E00"/>
<path d="M113.512 29.3218H106.438V36.3864H113.512V29.3218Z" fill="#ED9E00"/>
<path d="M120.587 29.3218H113.512V36.3864H120.587V29.3218Z" fill="#ED9E00"/>
<path d="M127.662 29.3218H120.587V36.3864H127.662V29.3218Z" fill="#ED9E00"/>
<path d="M134.738 29.3218H127.663V36.3864H134.738V29.3218Z" fill="#ED9E00"/>
<path d="M141.813 29.3218H134.738V36.3864H141.813V29.3218Z" fill="#ED9E00"/>
<path d="M148.887 29.3218H141.812V36.3864H148.887V29.3218Z" fill="#ED9E00"/>
<path d="M155.962 29.3218H148.887V36.3864H155.962V29.3218Z" fill="#ED9E00"/>
<path d="M163.037 29.3218H155.962V36.3864H163.037V29.3218Z" fill="#ED9E00"/>
<path d="M170.113 29.3218H163.038V36.3864H170.113V29.3218Z" fill="#ED9E00"/>
<path d="M177.188 29.3218H170.113V36.3864H177.188V29.3218Z" fill="#B25900"/>
<path d="M184.263 29.3218H177.188V36.3864H184.263V29.3218Z" fill="#F9AF3C"/>
<path d="M191.338 29.3218H184.263V36.3864H191.338V29.3218Z" fill="#EE8600"/>
<path d="M198.412 29.3218H191.337V36.3864H198.412V29.3218Z" fill="#EE8600"/>
<path d="M205.488 29.3218H198.413V36.3864H205.488V29.3218Z" fill="#F9AF3C"/>
<path d="M212.562 29.3218H205.487V36.3864H212.562V29.3218Z" fill="#B25900"/>
<path d="M14.4625 114.097H7.38745V121.161H14.4625V114.097Z" fill="#EE8600"/>
<path d="M7.3875 114.097H0.3125V121.161H7.3875V114.097Z" fill="#440108"/>
<path d="M14.4625 121.161H7.38745V128.226H14.4625V121.161Z" fill="#B25900"/>
<path d="M7.3875 121.161H0.3125V128.226H7.3875V121.161Z" fill="#440108"/>
<path d="M14.4625 128.226H7.38745V135.291H14.4625V128.226Z" fill="#440108"/>
<path d="M7.3875 128.226H0.3125V135.291H7.3875V128.226Z" fill="#440108"/>
<path d="M14.4625 107.032H7.38745V114.097H14.4625V107.032Z" fill="#440108"/>
<path d="M14.4625 99.9678H7.38745V107.032H14.4625V99.9678Z" fill="#440108"/>
<path d="M14.4625 92.9028H7.38745V99.9674H14.4625V92.9028Z" fill="#440108"/>
<path d="M14.4625 85.8384H7.38745V92.903H14.4625V85.8384Z" fill="#440108"/>
<path d="M14.4625 78.7734H7.38745V85.838H14.4625V78.7734Z" fill="#440108"/>
<path d="M14.4625 71.709H7.38745V78.7736H14.4625V71.709Z" fill="#440108"/>
<path d="M14.4625 64.6445H7.38745V71.7091H14.4625V64.6445Z" fill="#440108"/>
<path d="M14.4625 57.5801H7.38745V64.6447H14.4625V57.5801Z" fill="#440108"/>
<path d="M14.4625 50.5151H7.38745V57.5797H14.4625V50.5151Z" fill="#440108"/>
<path d="M21.5372 36.3857H14.4622V43.4503H21.5372V36.3857Z" fill="#440108"/>
<path d="M28.6128 29.3218H21.5378V36.3864H28.6128V29.3218Z" fill="#440108"/>
<path d="M35.6878 29.3218H28.6128V36.3864H35.6878V29.3218Z" fill="#440108"/>
<path d="M42.7627 22.2568H35.6877V29.3214H42.7627V22.2568Z" fill="#440108"/>
<path d="M49.8377 22.2568H42.7627V29.3214H49.8377V22.2568Z" fill="#EE8600"/>
<path d="M14.4625 43.4507H7.38745V50.5153H14.4625V43.4507Z" fill="#440108"/>
<path d="M56.9124 22.2568H49.8374V29.3214H56.9124V22.2568Z" fill="#EE8600"/>
<path d="M63.9881 22.2568H56.9131V29.3214H63.9881V22.2568Z" fill="#EE8600"/>
<path d="M71.0623 22.2568H63.9873V29.3214H71.0623V22.2568Z" fill="#EE8600"/>
<path d="M78.1373 22.2568H71.0623V29.3214H78.1373V22.2568Z" fill="#440108"/>
<path d="M85.212 22.2568H78.137V29.3214H85.212V22.2568Z" fill="#440108"/>
<path d="M92.2869 22.2568H85.2119V29.3214H92.2869V22.2568Z" fill="#440108"/>
<path d="M99.3626 22.2568H92.2876V29.3214H99.3626V22.2568Z" fill="#440108"/>
<path d="M106.438 22.2568H99.3625V29.3214H106.438V22.2568Z" fill="#440108"/>
<path d="M113.512 22.2568H106.438V29.3214H113.512V22.2568Z" fill="#440108"/>
<path d="M120.587 22.2568H113.512V29.3214H120.587V22.2568Z" fill="#440108"/>
<path d="M127.662 22.2568H120.587V29.3214H127.662V22.2568Z" fill="#440108"/>
<path d="M134.738 22.2568H127.663V29.3214H134.738V22.2568Z" fill="#440108"/>
<path d="M141.813 22.2568H134.738V29.3214H141.813V22.2568Z" fill="#440108"/>
<path d="M148.887 22.2568H141.812V29.3214H148.887V22.2568Z" fill="#440108"/>
<path d="M155.962 22.2568H148.887V29.3214H155.962V22.2568Z" fill="#440108"/>
<path d="M163.037 22.2568H155.962V29.3214H163.037V22.2568Z" fill="#440108"/>
<path d="M170.113 22.2568H163.038V29.3214H170.113V22.2568Z" fill="#440108"/>
<path d="M177.188 22.2568H170.113V29.3214H177.188V22.2568Z" fill="#440108"/>
<path d="M184.263 22.2568H177.188V29.3214H184.263V22.2568Z" fill="#EE8600"/>
<path d="M191.338 22.2568H184.263V29.3214H191.338V22.2568Z" fill="#EE8600"/>
<path d="M198.412 22.2568H191.337V29.3214H198.412V22.2568Z" fill="#EE8600"/>
<path d="M240.863 114.097H233.788V121.161H240.863V114.097Z" fill="#EE8600"/>
<path d="M247.938 114.097H240.863V121.161H247.938V114.097Z" fill="#440108"/>
<path d="M240.863 121.161H233.788V128.226H240.863V121.161Z" fill="#B25900"/>
<path d="M247.938 121.161H240.863V128.226H247.938V121.161Z" fill="#440108"/>
<path d="M240.863 128.226H233.788V135.291H240.863V128.226Z" fill="#440108"/>
<path d="M247.938 128.226H240.863V135.291H247.938V128.226Z" fill="#440108"/>
<path d="M240.863 107.032H233.788V114.097H240.863V107.032Z" fill="#440108"/>
<path d="M240.863 99.9678H233.788V107.032H240.863V99.9678Z" fill="#440108"/>
<path d="M240.863 92.9028H233.788V99.9674H240.863V92.9028Z" fill="#440108"/>
<path d="M240.863 85.8384H233.788V92.903H240.863V85.8384Z" fill="#440108"/>
<path d="M240.863 78.7734H233.788V85.838H240.863V78.7734Z" fill="#440108"/>
<path d="M240.863 71.709H233.788V78.7736H240.863V71.709Z" fill="#440108"/>
<path d="M240.863 64.6445H233.788V71.7091H240.863V64.6445Z" fill="#440108"/>
<path d="M240.863 57.5801H233.788V64.6447H240.863V57.5801Z" fill="#440108"/>
<path d="M240.863 50.5151H233.788V57.5797H240.863V50.5151Z" fill="#440108"/>
<path d="M233.787 36.3857H226.712V43.4503H233.787V36.3857Z" fill="#440108"/>
<path d="M219.637 29.3218H212.562V36.3864H219.637V29.3218Z" fill="#440108"/>
<path d="M226.712 29.3218H219.637V36.3864H226.712V29.3218Z" fill="#440108"/>
<path d="M205.488 22.2568H198.413V29.3214H205.488V22.2568Z" fill="#EE8600"/>
<path d="M49.8377 15.1924H42.7627V22.257H49.8377V15.1924Z" fill="#440108"/>
<path d="M56.9124 15.1924H49.8374V22.257H56.9124V15.1924Z" fill="#440108"/>
<path d="M63.9881 15.1924H56.9131V22.257H63.9881V15.1924Z" fill="#440108"/>
<path d="M71.0623 15.1924H63.9873V22.257H71.0623V15.1924Z" fill="#440108"/>
<path d="M184.263 15.1924H177.188V22.257H184.263V15.1924Z" fill="#440108"/>
<path d="M191.338 15.1924H184.263V22.257H191.338V15.1924Z" fill="#440108"/>
<path d="M198.412 15.1924H191.337V22.257H198.412V15.1924Z" fill="#440108"/>
<path d="M205.488 15.1924H198.413V22.257H205.488V15.1924Z" fill="#440108"/>
<path d="M212.562 22.2568H205.487V29.3214H212.562V22.2568Z" fill="#440108"/>
<path d="M240.863 43.4507H233.788V50.5153H240.863V43.4507Z" fill="#440108"/>
</g>
<defs>
<clipPath id="clip0_792_14642">
<rect width="247.625" height="206.354" fill="white" transform="translate(0.3125 0.322754)"/>
</clipPath>
</defs>
</svg>
