<svg width="227" height="199" viewBox="0 0 227 199" fill="none" xmlns="http://www.w3.org/2000/svg">
<path d="M44.0659 0.681152H36.77V8.00137H44.0659V0.681152Z" fill="#FA7322"/>
<path d="M51.3623 0.681152H44.0664V8.00137H51.3623V0.681152Z" fill="#FA7322"/>
<path d="M58.6582 0.681152H51.3623V8.00137H58.6582V0.681152Z" fill="#FA7322"/>
<path d="M65.9541 0.681152H58.6582V8.00137H65.9541V0.681152Z" fill="#FA7322"/>
<path d="M168.092 0.681152H160.796V8.00137H168.092V0.681152Z" fill="#FA7322"/>
<path d="M175.387 0.681152H168.091V8.00137H175.387V0.681152Z" fill="#FA7322"/>
<path d="M182.684 0.681152H175.388V8.00137H182.684V0.681152Z" fill="#FA7322"/>
<path d="M189.979 0.681152H182.683V8.00137H189.979V0.681152Z" fill="#FA7322"/>
<path d="M36.772 8.00146H29.4761V15.3217H36.772V8.00146Z" fill="#29564E"/>
<path d="M44.0659 8.00146H36.77V15.3217H44.0659V8.00146Z" fill="#F9AF3C"/>
<path d="M51.3623 8.00146H44.0664V15.3217H51.3623V8.00146Z" fill="#FA7322"/>
<path d="M58.6582 8.00146H51.3623V15.3217H58.6582V8.00146Z" fill="#FA7322"/>
<path d="M65.9541 8.00146H58.6582V15.3217H65.9541V8.00146Z" fill="#F9AF3C"/>
<path d="M73.249 8.00146H65.9531V15.3217H73.249V8.00146Z" fill="#29564E"/>
<path d="M80.5454 8.00146H73.2495V15.3217H80.5454V8.00146Z" fill="#29564E"/>
<path d="M87.8403 8.00146H80.5444V15.3217H87.8403V8.00146Z" fill="#29564E"/>
<path d="M95.1362 8.00146H87.8403V15.3217H95.1362V8.00146Z" fill="#29564E"/>
<path d="M102.432 8.00146H95.1362V15.3217H102.432V8.00146Z" fill="#29564E"/>
<path d="M109.728 8.00146H102.432V15.3217H109.728V8.00146Z" fill="#29564E"/>
<path d="M117.022 8.00146H109.726V15.3217H117.022V8.00146Z" fill="#29564E"/>
<path d="M124.318 8.00146H117.022V15.3217H124.318V8.00146Z" fill="#29564E"/>
<path d="M131.613 8.00146H124.317V15.3217H131.613V8.00146Z" fill="#29564E"/>
<path d="M138.909 8.00146H131.613V15.3217H138.909V8.00146Z" fill="#29564E"/>
<path d="M146.205 8.00146H138.909V15.3217H146.205V8.00146Z" fill="#29564E"/>
<path d="M153.5 8.00146H146.205V15.3217H153.5V8.00146Z" fill="#29564E"/>
<path d="M160.796 8.00146H153.5V15.3217H160.796V8.00146Z" fill="#29564E"/>
<path d="M168.092 8.00146H160.796V15.3217H168.092V8.00146Z" fill="#F9AF3C"/>
<path d="M175.387 8.00146H168.091V15.3217H175.387V8.00146Z" fill="#FA7322"/>
<path d="M182.684 8.00146H175.388V15.3217H182.684V8.00146Z" fill="#FA7322"/>
<path d="M189.979 8.00146H182.683V15.3217H189.979V8.00146Z" fill="#F9AF3C"/>
<path d="M197.274 8.00146H189.979V15.3217H197.274V8.00146Z" fill="#29564E"/>
<path d="M22.1797 15.3208H14.8838V22.641H22.1797V15.3208Z" fill="#29564E"/>
<path d="M36.772 15.3208H29.4761V22.641H36.772V15.3208Z" fill="#29564E"/>
<path d="M44.0659 15.3208H36.77V22.641H44.0659V15.3208Z" fill="#F9AF3C"/>
<path d="M51.3623 15.3208H44.0664V22.641H51.3623V15.3208Z" fill="#F9AF3C"/>
<path d="M58.6582 15.3208H51.3623V22.641H58.6582V15.3208Z" fill="#FA7322"/>
<path d="M65.9541 15.3208H58.6582V22.641H65.9541V15.3208Z" fill="#F9AF3C"/>
<path d="M73.249 15.3208H65.9531V22.641H73.249V15.3208Z" fill="#29564E"/>
<path d="M80.5454 15.3208H73.2495V22.641H80.5454V15.3208Z" fill="#71BCAA"/>
<path d="M87.8403 15.3208H80.5444V22.641H87.8403V15.3208Z" fill="#71BCAA"/>
<path d="M95.1362 15.3208H87.8403V22.641H95.1362V15.3208Z" fill="#4EA691"/>
<path d="M102.432 15.3208H95.1362V22.641H102.432V15.3208Z" fill="#4EA691"/>
<path d="M109.728 15.3208H102.432V22.641H109.728V15.3208Z" fill="#4EA691"/>
<path d="M117.022 15.3208H109.726V22.641H117.022V15.3208Z" fill="#4EA691"/>
<path d="M124.318 15.3208H117.022V22.641H124.318V15.3208Z" fill="#4EA691"/>
<path d="M131.613 15.3208H124.317V22.641H131.613V15.3208Z" fill="#4EA691"/>
<path d="M138.909 15.3208H131.613V22.641H138.909V15.3208Z" fill="#4EA691"/>
<path d="M146.205 15.3208H138.909V22.641H146.205V15.3208Z" fill="#4EA691"/>
<path d="M153.5 15.3208H146.205V22.641H153.5V15.3208Z" fill="#4EA691"/>
<path d="M160.796 15.3208H153.5V22.641H160.796V15.3208Z" fill="#29564E"/>
<path d="M168.092 15.3208H160.796V22.641H168.092V15.3208Z" fill="#F9AF3C"/>
<path d="M175.387 15.3208H168.091V22.641H175.387V15.3208Z" fill="#F9AF3C"/>
<path d="M182.684 15.3208H175.388V22.641H182.684V15.3208Z" fill="#FA7322"/>
<path d="M189.979 15.3208H182.683V22.641H189.979V15.3208Z" fill="#F9AF3C"/>
<path d="M197.274 15.3208H189.979V22.641H197.274V15.3208Z" fill="#29564E"/>
<path d="M211.866 15.3208H204.57V22.641H211.866V15.3208Z" fill="#29564E"/>
<path d="M22.1797 22.6411H14.8838V29.9613H22.1797V22.6411Z" fill="#29564E"/>
<path d="M36.772 22.6411H29.4761V29.9613H36.772V22.6411Z" fill="#29564E"/>
<path d="M44.0659 22.6411H36.77V29.9613H44.0659V22.6411Z" fill="#FEE762"/>
<path d="M51.3623 22.6411H44.0664V29.9613H51.3623V22.6411Z" fill="#F9AF3C"/>
<path d="M58.6582 22.6411H51.3623V29.9613H58.6582V22.6411Z" fill="#F9AF3C"/>
<path d="M65.9541 22.6411H58.6582V29.9613H65.9541V22.6411Z" fill="#F9AF3C"/>
<path d="M73.249 22.6411H65.9531V29.9613H73.249V22.6411Z" fill="#29564E"/>
<path d="M80.5454 22.6411H73.2495V29.9613H80.5454V22.6411Z" fill="#4EA691"/>
<path d="M87.8403 22.6411H80.5444V29.9613H87.8403V22.6411Z" fill="#4EA691"/>
<path d="M95.1362 22.6411H87.8403V29.9613H95.1362V22.6411Z" fill="#4EA691"/>
<path d="M102.432 22.6411H95.1362V29.9613H102.432V22.6411Z" fill="#4EA691"/>
<path d="M109.728 22.6411H102.432V29.9613H109.728V22.6411Z" fill="#4EA691"/>
<path d="M117.022 22.6411H109.726V29.9613H117.022V22.6411Z" fill="#71BCAA"/>
<path d="M124.318 22.6411H117.022V29.9613H124.318V22.6411Z" fill="#71BCAA"/>
<path d="M131.613 22.6411H124.317V29.9613H131.613V22.6411Z" fill="#71BCAA"/>
<path d="M138.909 22.6411H131.613V29.9613H138.909V22.6411Z" fill="#71BCAA"/>
<path d="M146.205 22.6411H138.909V29.9613H146.205V22.6411Z" fill="#71BCAA"/>
<path d="M153.5 22.6411H146.205V29.9613H153.5V22.6411Z" fill="#71BCAA"/>
<path d="M160.796 22.6411H153.5V29.9613H160.796V22.6411Z" fill="#29564E"/>
<path d="M168.092 22.6411H160.796V29.9613H168.092V22.6411Z" fill="#FEE762"/>
<path d="M175.387 22.6411H168.091V29.9613H175.387V22.6411Z" fill="#F9AF3C"/>
<path d="M182.684 22.6411H175.388V29.9613H182.684V22.6411Z" fill="#F9AF3C"/>
<path d="M189.979 22.6411H182.683V29.9613H189.979V22.6411Z" fill="#F9AF3C"/>
<path d="M197.274 22.6411H189.979V29.9613H197.274V22.6411Z" fill="#29564E"/>
<path d="M211.866 22.6411H204.57V29.9613H211.866V22.6411Z" fill="#29564E"/>
<path d="M22.1797 29.9609H14.8838V37.2812H22.1797V29.9609Z" fill="#29564E"/>
<path d="M36.772 29.9609H29.4761V37.2812H36.772V29.9609Z" fill="#29564E"/>
<path d="M44.0659 29.9609H36.77V37.2812H44.0659V29.9609Z" fill="#FEE762"/>
<path d="M51.3623 29.9609H44.0664V37.2812H51.3623V29.9609Z" fill="#F9AF3C"/>
<path d="M58.6582 29.9609H51.3623V37.2812H58.6582V29.9609Z" fill="#FEE762"/>
<path d="M65.9541 29.9609H58.6582V37.2812H65.9541V29.9609Z" fill="#F9AF3C"/>
<path d="M73.249 29.9609H65.9531V37.2812H73.249V29.9609Z" fill="#29564E"/>
<path d="M80.5454 29.9609H73.2495V37.2812H80.5454V29.9609Z" fill="#4EA691"/>
<path d="M87.8403 29.9609H80.5444V37.2812H87.8403V29.9609Z" fill="#4EA691"/>
<path d="M95.1362 29.9609H87.8403V37.2812H95.1362V29.9609Z" fill="#4EA691"/>
<path d="M102.432 29.9609H95.1362V37.2812H102.432V29.9609Z" fill="#4EA691"/>
<path d="M109.728 29.9609H102.432V37.2812H109.728V29.9609Z" fill="#4EA691"/>
<path d="M117.022 29.9609H109.726V37.2812H117.022V29.9609Z" fill="#4EA691"/>
<path d="M124.318 29.9609H117.022V37.2812H124.318V29.9609Z" fill="#4EA691"/>
<path d="M131.613 29.9609H124.317V37.2812H131.613V29.9609Z" fill="#4EA691"/>
<path d="M138.909 29.9609H131.613V37.2812H138.909V29.9609Z" fill="#71BCAA"/>
<path d="M146.205 29.9609H138.909V37.2812H146.205V29.9609Z" fill="#71BCAA"/>
<path d="M153.5 29.9609H146.205V37.2812H153.5V29.9609Z" fill="#71BCAA"/>
<path d="M160.796 29.9609H153.5V37.2812H160.796V29.9609Z" fill="#29564E"/>
<path d="M168.092 29.9609H160.796V37.2812H168.092V29.9609Z" fill="#FEE762"/>
<path d="M175.387 29.9609H168.091V37.2812H175.387V29.9609Z" fill="#F9AF3C"/>
<path d="M182.684 29.9609H175.388V37.2812H182.684V29.9609Z" fill="#FEE762"/>
<path d="M189.979 29.9609H182.683V37.2812H189.979V29.9609Z" fill="#F9AF3C"/>
<path d="M197.274 29.9609H189.979V37.2812H197.274V29.9609Z" fill="#29564E"/>
<path d="M211.866 29.9609H204.57V37.2812H211.866V29.9609Z" fill="#29564E"/>
<path d="M22.1797 37.2803H14.8838V44.6005H22.1797V37.2803Z" fill="#29564E"/>
<path d="M36.772 37.2803H29.4761V44.6005H36.772V37.2803Z" fill="#29564E"/>
<path d="M44.0659 37.2803H36.77V44.6005H44.0659V37.2803Z" fill="#FEE762"/>
<path d="M51.3623 37.2803H44.0664V44.6005H51.3623V37.2803Z" fill="#FEE762"/>
<path d="M58.6582 37.2803H51.3623V44.6005H58.6582V37.2803Z" fill="#FEE762"/>
<path d="M65.9541 37.2803H58.6582V44.6005H65.9541V37.2803Z" fill="#FEE762"/>
<path d="M73.249 37.2803H65.9531V44.6005H73.249V37.2803Z" fill="#29564E"/>
<path d="M80.5454 37.2803H73.2495V44.6005H80.5454V37.2803Z" fill="#71BCAA"/>
<path d="M87.8403 37.2803H80.5444V44.6005H87.8403V37.2803Z" fill="#71BCAA"/>
<path d="M95.1362 37.2803H87.8403V44.6005H95.1362V37.2803Z" fill="#71BCAA"/>
<path d="M102.432 37.2803H95.1362V44.6005H102.432V37.2803Z" fill="#71BCAA"/>
<path d="M109.728 37.2803H102.432V44.6005H109.728V37.2803Z" fill="#4EA691"/>
<path d="M117.022 37.2803H109.726V44.6005H117.022V37.2803Z" fill="#4EA691"/>
<path d="M124.318 37.2803H117.022V44.6005H124.318V37.2803Z" fill="#4EA691"/>
<path d="M131.613 37.2803H124.317V44.6005H131.613V37.2803Z" fill="#4EA691"/>
<path d="M138.909 37.2803H131.613V44.6005H138.909V37.2803Z" fill="#4EA691"/>
<path d="M146.205 37.2803H138.909V44.6005H146.205V37.2803Z" fill="#4EA691"/>
<path d="M153.5 37.2803H146.205V44.6005H153.5V37.2803Z" fill="#4EA691"/>
<path d="M160.796 37.2803H153.5V44.6005H160.796V37.2803Z" fill="#29564E"/>
<path d="M168.092 37.2803H160.796V44.6005H168.092V37.2803Z" fill="#FEE762"/>
<path d="M175.387 37.2803H168.091V44.6005H175.387V37.2803Z" fill="#FEE762"/>
<path d="M182.684 37.2803H175.388V44.6005H182.684V37.2803Z" fill="#FEE762"/>
<path d="M189.979 37.2803H182.683V44.6005H189.979V37.2803Z" fill="#FEE762"/>
<path d="M197.274 37.2803H189.979V44.6005H197.274V37.2803Z" fill="#29564E"/>
<path d="M211.866 37.2803H204.57V44.6005H211.866V37.2803Z" fill="#29564E"/>
<path d="M14.8848 44.6006H7.58887V51.9208H14.8848V44.6006Z" fill="#F9AF3C"/>
<path d="M22.1797 44.6006H14.8838V51.9208H22.1797V44.6006Z" fill="#29564E"/>
<path d="M36.772 44.6006H29.4761V51.9208H36.772V44.6006Z" fill="#29564E"/>
<path d="M44.0659 44.6006H36.77V51.9208H44.0659V44.6006Z" fill="#FEE762"/>
<path d="M51.3623 44.6006H44.0664V51.9208H51.3623V44.6006Z" fill="#FEE762"/>
<path d="M58.6582 44.6006H51.3623V51.9208H58.6582V44.6006Z" fill="#FEE762"/>
<path d="M65.9541 44.6006H58.6582V51.9208H65.9541V44.6006Z" fill="#FEE762"/>
<path d="M73.249 44.6006H65.9531V51.9208H73.249V44.6006Z" fill="#29564E"/>
<path d="M80.5454 44.6006H73.2495V51.9208H80.5454V44.6006Z" fill="#71BCAA"/>
<path d="M87.8403 44.6006H80.5444V51.9208H87.8403V44.6006Z" fill="#71BCAA"/>
<path d="M95.1362 44.6006H87.8403V51.9208H95.1362V44.6006Z" fill="#71BCAA"/>
<path d="M102.432 44.6006H95.1362V51.9208H102.432V44.6006Z" fill="#71BCAA"/>
<path d="M109.728 44.6006H102.432V51.9208H109.728V44.6006Z" fill="#71BCAA"/>
<path d="M117.022 44.6006H109.726V51.9208H117.022V44.6006Z" fill="#71BCAA"/>
<path d="M124.318 44.6006H117.022V51.9208H124.318V44.6006Z" fill="#71BCAA"/>
<path d="M131.613 44.6006H124.317V51.9208H131.613V44.6006Z" fill="#4EA691"/>
<path d="M138.909 44.6006H131.613V51.9208H138.909V44.6006Z" fill="#4EA691"/>
<path d="M146.205 44.6006H138.909V51.9208H146.205V44.6006Z" fill="#4EA691"/>
<path d="M153.5 44.6006H146.205V51.9208H153.5V44.6006Z" fill="#4EA691"/>
<path d="M160.796 44.6006H153.5V51.9208H160.796V44.6006Z" fill="#29564E"/>
<path d="M168.092 44.6006H160.796V51.9208H168.092V44.6006Z" fill="#FEE762"/>
<path d="M175.387 44.6006H168.091V51.9208H175.387V44.6006Z" fill="#FEE762"/>
<path d="M182.684 44.6006H175.388V51.9208H182.684V44.6006Z" fill="#FEE762"/>
<path d="M189.979 44.6006H182.683V51.9208H189.979V44.6006Z" fill="#FEE762"/>
<path d="M197.274 44.6006H189.979V51.9208H197.274V44.6006Z" fill="#29564E"/>
<path d="M211.866 44.6006H204.57V51.9208H211.866V44.6006Z" fill="#29564E"/>
<path d="M219.161 44.6006H211.865V51.9208H219.161V44.6006Z" fill="#F9AF3C"/>
<path d="M14.8848 51.9209H7.58887V59.2411H14.8848V51.9209Z" fill="#F9AF3C"/>
<path d="M22.1797 51.9209H14.8838V59.2411H22.1797V51.9209Z" fill="#29564E"/>
<path d="M36.772 51.9209H29.4761V59.2411H36.772V51.9209Z" fill="#29564E"/>
<path d="M44.0659 51.9209H36.77V59.2411H44.0659V51.9209Z" fill="#FEE762"/>
<path d="M51.3623 51.9209H44.0664V59.2411H51.3623V51.9209Z" fill="#FEE762"/>
<path d="M58.6582 51.9209H51.3623V59.2411H58.6582V51.9209Z" fill="#FEE762"/>
<path d="M65.9541 51.9209H58.6582V59.2411H65.9541V51.9209Z" fill="#FEE762"/>
<path d="M73.249 51.9209H65.9531V59.2411H73.249V51.9209Z" fill="#29564E"/>
<path d="M80.5454 51.9209H73.2495V59.2411H80.5454V51.9209Z" fill="#29564E"/>
<path d="M87.8403 51.9209H80.5444V59.2411H87.8403V51.9209Z" fill="#29564E"/>
<path d="M95.1362 51.9209H87.8403V59.2411H95.1362V51.9209Z" fill="#29564E"/>
<path d="M102.432 51.9209H95.1362V59.2411H102.432V51.9209Z" fill="#29564E"/>
<path d="M109.728 51.9209H102.432V59.2411H109.728V51.9209Z" fill="#29564E"/>
<path d="M117.022 51.9209H109.726V59.2411H117.022V51.9209Z" fill="#29564E"/>
<path d="M124.318 51.9209H117.022V59.2411H124.318V51.9209Z" fill="#29564E"/>
<path d="M131.613 51.9209H124.317V59.2411H131.613V51.9209Z" fill="#29564E"/>
<path d="M138.909 51.9209H131.613V59.2411H138.909V51.9209Z" fill="#29564E"/>
<path d="M146.205 51.9209H138.909V59.2411H146.205V51.9209Z" fill="#29564E"/>
<path d="M153.5 51.9209H146.205V59.2411H153.5V51.9209Z" fill="#29564E"/>
<path d="M160.796 51.9209H153.5V59.2411H160.796V51.9209Z" fill="#29564E"/>
<path d="M168.092 51.9209H160.796V59.2411H168.092V51.9209Z" fill="#FEE762"/>
<path d="M175.387 51.9209H168.091V59.2411H175.387V51.9209Z" fill="#FEE762"/>
<path d="M182.684 51.9209H175.388V59.2411H182.684V51.9209Z" fill="#FEE762"/>
<path d="M189.979 51.9209H182.683V59.2411H189.979V51.9209Z" fill="#FEE762"/>
<path d="M197.274 51.9209H189.979V59.2411H197.274V51.9209Z" fill="#29564E"/>
<path d="M211.866 51.9209H204.57V59.2411H211.866V51.9209Z" fill="#29564E"/>
<path d="M219.161 51.9209H211.865V59.2411H219.161V51.9209Z" fill="#F9AF3C"/>
<path d="M14.8848 59.2412H7.58887V66.5614H14.8848V59.2412Z" fill="#F9AF3C"/>
<path d="M22.1797 59.2412H14.8838V66.5614H22.1797V59.2412Z" fill="#29564E"/>
<path d="M36.772 59.2412H29.4761V66.5614H36.772V59.2412Z" fill="#29564E"/>
<path d="M44.0659 59.2412H36.77V66.5614H44.0659V59.2412Z" fill="#FEE762"/>
<path d="M51.3623 59.2412H44.0664V66.5614H51.3623V59.2412Z" fill="#FEE762"/>
<path d="M58.6582 59.2412H51.3623V66.5614H58.6582V59.2412Z" fill="#FEE762"/>
<path d="M65.9541 59.2412H58.6582V66.5614H65.9541V59.2412Z" fill="#FEE762"/>
<path d="M73.249 59.2412H65.9531V66.5614H73.249V59.2412Z" fill="#29564E"/>
<path d="M80.5454 59.2412H73.2495V66.5614H80.5454V59.2412Z" fill="#71BCAA"/>
<path d="M87.8403 59.2412H80.5444V66.5614H87.8403V59.2412Z" fill="#71BCAA"/>
<path d="M95.1362 59.2412H87.8403V66.5614H95.1362V59.2412Z" fill="#71BCAA"/>
<path d="M102.432 59.2412H95.1362V66.5614H102.432V59.2412Z" fill="#4EA691"/>
<path d="M109.728 59.2412H102.432V66.5614H109.728V59.2412Z" fill="#4EA691"/>
<path d="M117.022 59.2412H109.726V66.5614H117.022V59.2412Z" fill="#4EA691"/>
<path d="M124.318 59.2412H117.022V66.5614H124.318V59.2412Z" fill="#4EA691"/>
<path d="M131.613 59.2412H124.317V66.5614H131.613V59.2412Z" fill="#4EA691"/>
<path d="M138.909 59.2412H131.613V66.5614H138.909V59.2412Z" fill="#4EA691"/>
<path d="M146.205 59.2412H138.909V66.5614H146.205V59.2412Z" fill="#4EA691"/>
<path d="M153.5 59.2412H146.205V66.5614H153.5V59.2412Z" fill="#4EA691"/>
<path d="M160.796 59.2412H153.5V66.5614H160.796V59.2412Z" fill="#29564E"/>
<path d="M168.092 59.2412H160.796V66.5614H168.092V59.2412Z" fill="#FEE762"/>
<path d="M175.387 59.2412H168.091V66.5614H175.387V59.2412Z" fill="#FEE762"/>
<path d="M182.684 59.2412H175.388V66.5614H182.684V59.2412Z" fill="#FEE762"/>
<path d="M189.979 59.2412H182.683V66.5614H189.979V59.2412Z" fill="#FEE762"/>
<path d="M197.274 59.2412H189.979V66.5614H197.274V59.2412Z" fill="#29564E"/>
<path d="M211.866 59.2412H204.57V66.5614H211.866V59.2412Z" fill="#29564E"/>
<path d="M219.161 59.2412H211.865V66.5614H219.161V59.2412Z" fill="#F9AF3C"/>
<path d="M14.8848 66.5605H7.58887V73.8808H14.8848V66.5605Z" fill="#F9AF3C"/>
<path d="M22.1797 66.5605H14.8838V73.8808H22.1797V66.5605Z" fill="#29564E"/>
<path d="M36.772 66.5605H29.4761V73.8808H36.772V66.5605Z" fill="#29564E"/>
<path d="M44.0659 66.5605H36.77V73.8808H44.0659V66.5605Z" fill="#F9AF3C"/>
<path d="M51.3623 66.5605H44.0664V73.8808H51.3623V66.5605Z" fill="#FEE762"/>
<path d="M58.6582 66.5605H51.3623V73.8808H58.6582V66.5605Z" fill="#F9AF3C"/>
<path d="M65.9541 66.5605H58.6582V73.8808H65.9541V66.5605Z" fill="#FEE762"/>
<path d="M73.249 66.5605H65.9531V73.8808H73.249V66.5605Z" fill="#29564E"/>
<path d="M80.5454 66.5605H73.2495V73.8808H80.5454V66.5605Z" fill="#4EA691"/>
<path d="M87.8403 66.5605H80.5444V73.8808H87.8403V66.5605Z" fill="#4EA691"/>
<path d="M95.1362 66.5605H87.8403V73.8808H95.1362V66.5605Z" fill="#4EA691"/>
<path d="M102.432 66.5605H95.1362V73.8808H102.432V66.5605Z" fill="#4EA691"/>
<path d="M109.728 66.5605H102.432V73.8808H109.728V66.5605Z" fill="#F8F8F9"/>
<path d="M117.022 66.5605H109.726V73.8808H117.022V66.5605Z" fill="#F8F8F9"/>
<path d="M124.318 66.5605H117.022V73.8808H124.318V66.5605Z" fill="#F8F8F9"/>
<path d="M131.613 66.5605H124.317V73.8808H131.613V66.5605Z" fill="#4EA691"/>
<path d="M138.909 66.5605H131.613V73.8808H138.909V66.5605Z" fill="#4EA691"/>
<path d="M146.205 66.5605H138.909V73.8808H146.205V66.5605Z" fill="#4EA691"/>
<path d="M153.5 66.5605H146.205V73.8808H153.5V66.5605Z" fill="#4EA691"/>
<path d="M160.796 66.5605H153.5V73.8808H160.796V66.5605Z" fill="#29564E"/>
<path d="M168.092 66.5605H160.796V73.8808H168.092V66.5605Z" fill="#F9AF3C"/>
<path d="M175.387 66.5605H168.091V73.8808H175.387V66.5605Z" fill="#FEE762"/>
<path d="M182.684 66.5605H175.388V73.8808H182.684V66.5605Z" fill="#F9AF3C"/>
<path d="M189.979 66.5605H182.683V73.8808H189.979V66.5605Z" fill="#FEE762"/>
<path d="M197.274 66.5605H189.979V73.8808H197.274V66.5605Z" fill="#29564E"/>
<path d="M211.866 66.5605H204.57V73.8808H211.866V66.5605Z" fill="#29564E"/>
<path d="M219.161 66.5605H211.865V73.8808H219.161V66.5605Z" fill="#F9AF3C"/>
<path d="M14.8848 73.8809H7.58887V81.2011H14.8848V73.8809Z" fill="#F9AF3C"/>
<path d="M22.1797 73.8809H14.8838V81.2011H22.1797V73.8809Z" fill="#29564E"/>
<path d="M36.772 73.8809H29.4761V81.2011H36.772V73.8809Z" fill="#29564E"/>
<path d="M44.0659 73.8809H36.77V81.2011H44.0659V73.8809Z" fill="#F9AF3C"/>
<path d="M51.3623 73.8809H44.0664V81.2011H51.3623V73.8809Z" fill="#F9AF3C"/>
<path d="M58.6582 73.8809H51.3623V81.2011H58.6582V73.8809Z" fill="#F9AF3C"/>
<path d="M65.9541 73.8809H58.6582V81.2011H65.9541V73.8809Z" fill="#FEE762"/>
<path d="M73.249 73.8809H65.9531V81.2011H73.249V73.8809Z" fill="#29564E"/>
<path d="M80.5454 73.8809H73.2495V81.2011H80.5454V73.8809Z" fill="#4EA691"/>
<path d="M87.8403 73.8809H80.5444V81.2011H87.8403V73.8809Z" fill="#4EA691"/>
<path d="M95.1362 73.8809H87.8403V81.2011H95.1362V73.8809Z" fill="#4EA691"/>
<path d="M102.432 73.8809H95.1362V81.2011H102.432V73.8809Z" fill="#F8F8F9"/>
<path d="M109.728 73.8809H102.432V81.2011H109.728V73.8809Z" fill="#3E8480"/>
<path d="M117.022 73.8809H109.726V81.2011H117.022V73.8809Z" fill="#3E8480"/>
<path d="M124.318 73.8809H117.022V81.2011H124.318V73.8809Z" fill="#3E8480"/>
<path d="M131.613 73.8809H124.317V81.2011H131.613V73.8809Z" fill="#F8F8F9"/>
<path d="M138.909 73.8809H131.613V81.2011H138.909V73.8809Z" fill="#4EA691"/>
<path d="M146.205 73.8809H138.909V81.2011H146.205V73.8809Z" fill="#4EA691"/>
<path d="M153.5 73.8809H146.205V81.2011H153.5V73.8809Z" fill="#4EA691"/>
<path d="M160.796 73.8809H153.5V81.2011H160.796V73.8809Z" fill="#29564E"/>
<path d="M168.092 73.8809H160.796V81.2011H168.092V73.8809Z" fill="#F9AF3C"/>
<path d="M175.387 73.8809H168.091V81.2011H175.387V73.8809Z" fill="#F9AF3C"/>
<path d="M182.684 73.8809H175.388V81.2011H182.684V73.8809Z" fill="#F9AF3C"/>
<path d="M189.979 73.8809H182.683V81.2011H189.979V73.8809Z" fill="#FEE762"/>
<path d="M197.274 73.8809H189.979V81.2011H197.274V73.8809Z" fill="#29564E"/>
<path d="M211.866 73.8809H204.57V81.2011H211.866V73.8809Z" fill="#29564E"/>
<path d="M219.161 73.8809H211.865V81.2011H219.161V73.8809Z" fill="#F9AF3C"/>
<path d="M14.8848 81.2007H7.58887V88.5209H14.8848V81.2007Z" fill="#F9AF3C"/>
<path d="M22.1797 81.2007H14.8838V88.5209H22.1797V81.2007Z" fill="#29564E"/>
<path d="M36.772 81.2007H29.4761V88.5209H36.772V81.2007Z" fill="#29564E"/>
<path d="M44.0659 81.2007H36.77V88.5209H44.0659V81.2007Z" fill="#F9AF3C"/>
<path d="M51.3623 81.2007H44.0664V88.5209H51.3623V81.2007Z" fill="#F9AF3C"/>
<path d="M58.6582 81.2007H51.3623V88.5209H58.6582V81.2007Z" fill="#F9AF3C"/>
<path d="M65.9541 81.2007H58.6582V88.5209H65.9541V81.2007Z" fill="#F9AF3C"/>
<path d="M73.249 81.2007H65.9531V88.5209H73.249V81.2007Z" fill="#29564E"/>
<path d="M80.5454 81.2007H73.2495V88.5209H80.5454V81.2007Z" fill="#4EA691"/>
<path d="M87.8403 81.2007H80.5444V88.5209H87.8403V81.2007Z" fill="#3E8480"/>
<path d="M95.1362 81.2007H87.8403V88.5209H95.1362V81.2007Z" fill="#9B9DAA"/>
<path d="M102.432 81.2007H95.1362V88.5209H102.432V81.2007Z" fill="#F8F8F9"/>
<path d="M109.728 81.2007H102.432V88.5209H109.728V81.2007Z" fill="#9B9DAA"/>
<path d="M117.022 81.2007H109.726V88.5209H117.022V81.2007Z" fill="#9B9DAA"/>
<path d="M124.318 81.2007H117.022V88.5209H124.318V81.2007Z" fill="#9B9DAA"/>
<path d="M131.613 81.2007H124.317V88.5209H131.613V81.2007Z" fill="#F8F8F9"/>
<path d="M138.909 81.2007H131.613V88.5209H138.909V81.2007Z" fill="#9B9DAA"/>
<path d="M146.205 81.2007H138.909V88.5209H146.205V81.2007Z" fill="#4EA691"/>
<path d="M153.5 81.2007H146.205V88.5209H153.5V81.2007Z" fill="#3E8480"/>
<path d="M160.796 81.2007H153.5V88.5209H160.796V81.2007Z" fill="#29564E"/>
<path d="M168.092 81.2007H160.796V88.5209H168.092V81.2007Z" fill="#F9AF3C"/>
<path d="M175.387 81.2007H168.091V88.5209H175.387V81.2007Z" fill="#F9AF3C"/>
<path d="M182.684 81.2007H175.388V88.5209H182.684V81.2007Z" fill="#F9AF3C"/>
<path d="M189.979 81.2007H182.683V88.5209H189.979V81.2007Z" fill="#F9AF3C"/>
<path d="M197.274 81.2007H189.979V88.5209H197.274V81.2007Z" fill="#29564E"/>
<path d="M211.866 81.2007H204.57V88.5209H211.866V81.2007Z" fill="#29564E"/>
<path d="M219.161 81.2007H211.865V88.5209H219.161V81.2007Z" fill="#F9AF3C"/>
<path d="M14.8848 88.52H7.58887V95.8402H14.8848V88.52Z" fill="#F9AF3C"/>
<path d="M22.1797 88.52H14.8838V95.8402H22.1797V88.52Z" fill="#29564E"/>
<path d="M36.772 88.52H29.4761V95.8402H36.772V88.52Z" fill="#29564E"/>
<path d="M44.0659 88.52H36.77V95.8402H44.0659V88.52Z" fill="#F9AF3C"/>
<path d="M51.3623 88.52H44.0664V95.8402H51.3623V88.52Z" fill="#F9AF3C"/>
<path d="M58.6582 88.52H51.3623V95.8402H58.6582V88.52Z" fill="#FA7322"/>
<path d="M65.9541 88.52H58.6582V95.8402H65.9541V88.52Z" fill="#F9AF3C"/>
<path d="M73.249 88.52H65.9531V95.8402H73.249V88.52Z" fill="#29564E"/>
<path d="M80.5454 88.52H73.2495V95.8402H80.5454V88.52Z" fill="#3E8480"/>
<path d="M87.8403 88.52H80.5444V95.8402H87.8403V88.52Z" fill="#3E8480"/>
<path d="M95.1362 88.52H87.8403V95.8402H95.1362V88.52Z" fill="#9B9DAA"/>
<path d="M102.432 88.52H95.1362V95.8402H102.432V88.52Z" fill="black"/>
<path d="M109.728 88.52H102.432V95.8402H109.728V88.52Z" fill="#9B9DAA"/>
<path d="M117.022 88.52H109.726V95.8402H117.022V88.52Z" fill="#9B9DAA"/>
<path d="M124.318 88.52H117.022V95.8402H124.318V88.52Z" fill="#9B9DAA"/>
<path d="M131.613 88.52H124.317V95.8402H131.613V88.52Z" fill="black"/>
<path d="M138.909 88.52H131.613V95.8402H138.909V88.52Z" fill="#9B9DAA"/>
<path d="M146.205 88.52H138.909V95.8402H146.205V88.52Z" fill="#3E8480"/>
<path d="M153.5 88.52H146.205V95.8402H153.5V88.52Z" fill="#3E8480"/>
<path d="M160.796 88.52H153.5V95.8402H160.796V88.52Z" fill="#29564E"/>
<path d="M168.092 88.52H160.796V95.8402H168.092V88.52Z" fill="#F9AF3C"/>
<path d="M175.387 88.52H168.091V95.8402H175.387V88.52Z" fill="#FA7322"/>
<path d="M182.684 88.52H175.388V95.8402H182.684V88.52Z" fill="#F9AF3C"/>
<path d="M189.979 88.52H182.683V95.8402H189.979V88.52Z" fill="#F9AF3C"/>
<path d="M197.274 88.52H189.979V95.8402H197.274V88.52Z" fill="#29564E"/>
<path d="M211.866 88.52H204.57V95.8402H211.866V88.52Z" fill="#29564E"/>
<path d="M219.161 88.52H211.865V95.8402H219.161V88.52Z" fill="#F9AF3C"/>
<path d="M14.8848 95.8403H7.58887V103.161H14.8848V95.8403Z" fill="#F9AF3C"/>
<path d="M7.58887 44.6006H0.292969V51.9208H7.58887V44.6006Z" fill="#F9AF3C"/>
<path d="M7.58887 51.9209H0.292969V59.2411H7.58887V51.9209Z" fill="#F9AF3C"/>
<path d="M7.58887 59.2412H0.292969V66.5614H7.58887V59.2412Z" fill="#F9AF3C"/>
<path d="M7.58887 66.5605H0.292969V73.8808H7.58887V66.5605Z" fill="#F9AF3C"/>
<path d="M7.58887 73.8809H0.292969V81.2011H7.58887V73.8809Z" fill="#F9AF3C"/>
<path d="M7.58887 81.2007H0.292969V88.5209H7.58887V81.2007Z" fill="#F9AF3C"/>
<path d="M7.58887 88.52H0.292969V95.8402H7.58887V88.52Z" fill="#F9AF3C"/>
<path d="M7.58887 95.8403H0.292969V103.161H7.58887V95.8403Z" fill="#F9AF3C"/>
<path d="M22.1797 95.8403H14.8838V103.161H22.1797V95.8403Z" fill="#29564E"/>
<path d="M36.772 95.8403H29.4761V103.161H36.772V95.8403Z" fill="#29564E"/>
<path d="M44.0659 95.8403H36.77V103.161H44.0659V95.8403Z" fill="#F9AF3C"/>
<path d="M51.3623 95.8403H44.0664V103.161H51.3623V95.8403Z" fill="#FA7322"/>
<path d="M58.6582 95.8403H51.3623V103.161H58.6582V95.8403Z" fill="#FA7322"/>
<path d="M65.9541 95.8403H58.6582V103.161H65.9541V95.8403Z" fill="#F9AF3C"/>
<path d="M73.249 95.8403H65.9531V103.161H73.249V95.8403Z" fill="#29564E"/>
<path d="M80.5454 95.8403H73.2495V103.161H80.5454V95.8403Z" fill="#3E8480"/>
<path d="M87.8403 95.8403H80.5444V103.161H87.8403V95.8403Z" fill="#3E8480"/>
<path d="M95.1362 95.8403H87.8403V103.161H95.1362V95.8403Z" fill="#F8F8F9"/>
<path d="M102.432 95.8403H95.1362V103.161H102.432V95.8403Z" fill="#F8F8F9"/>
<path d="M109.728 95.8403H102.432V103.161H109.728V95.8403Z" fill="#F8F8F9"/>
<path d="M117.022 95.8403H109.726V103.161H117.022V95.8403Z" fill="#F8F8F9"/>
<path d="M124.318 95.8403H117.022V103.161H124.318V95.8403Z" fill="#F8F8F9"/>
<path d="M131.613 95.8403H124.317V103.161H131.613V95.8403Z" fill="#9B9DAA"/>
<path d="M138.909 95.8403H131.613V103.161H138.909V95.8403Z" fill="#9B9DAA"/>
<path d="M146.205 95.8403H138.909V103.161H146.205V95.8403Z" fill="#3E8480"/>
<path d="M153.5 95.8403H146.205V103.161H153.5V95.8403Z" fill="#3E8480"/>
<path d="M160.796 95.8403H153.5V103.161H160.796V95.8403Z" fill="#29564E"/>
<path d="M168.092 95.8403H160.796V103.161H168.092V95.8403Z" fill="#F9AF3C"/>
<path d="M175.387 95.8403H168.091V103.161H175.387V95.8403Z" fill="#FA7322"/>
<path d="M182.684 95.8403H175.388V103.161H182.684V95.8403Z" fill="#FA7322"/>
<path d="M189.979 95.8403H182.683V103.161H189.979V95.8403Z" fill="#F9AF3C"/>
<path d="M197.274 95.8403H189.979V103.161H197.274V95.8403Z" fill="#29564E"/>
<path d="M211.866 95.8403H204.57V103.161H211.866V95.8403Z" fill="#29564E"/>
<path d="M219.161 95.8403H211.865V103.161H219.161V95.8403Z" fill="#F9AF3C"/>
<path d="M226.457 44.6006H219.161V51.9208H226.457V44.6006Z" fill="#F9AF3C"/>
<path d="M226.457 51.9209H219.161V59.2411H226.457V51.9209Z" fill="#F9AF3C"/>
<path d="M226.457 59.2412H219.161V66.5614H226.457V59.2412Z" fill="#F9AF3C"/>
<path d="M226.457 66.5605H219.161V73.8808H226.457V66.5605Z" fill="#F9AF3C"/>
<path d="M226.457 73.8809H219.161V81.2011H226.457V73.8809Z" fill="#F9AF3C"/>
<path d="M226.457 81.2007H219.161V88.5209H226.457V81.2007Z" fill="#F9AF3C"/>
<path d="M226.457 88.52H219.161V95.8402H226.457V88.52Z" fill="#F9AF3C"/>
<path d="M226.457 95.8403H219.161V103.161H226.457V95.8403Z" fill="#F9AF3C"/>
<path d="M7.58887 103.161H0.292969V110.481H7.58887V103.161Z" fill="#F9AF3C"/>
<path d="M14.8848 103.161H7.58887V110.481H14.8848V103.161Z" fill="#F9AF3C"/>
<path d="M22.1797 103.161H14.8838V110.481H22.1797V103.161Z" fill="#29564E"/>
<path d="M36.772 103.161H29.4761V110.481H36.772V103.161Z" fill="#29564E"/>
<path d="M44.0659 103.161H36.77V110.481H44.0659V103.161Z" fill="#FA7322"/>
<path d="M51.3623 103.161H44.0664V110.481H51.3623V103.161Z" fill="#FA7322"/>
<path d="M58.6582 103.161H51.3623V110.481H58.6582V103.161Z" fill="#FA7322"/>
<path d="M65.9541 103.161H58.6582V110.481H65.9541V103.161Z" fill="#FA7322"/>
<path d="M73.249 103.161H65.9531V110.481H73.249V103.161Z" fill="#29564E"/>
<path d="M80.5454 103.161H73.2495V110.481H80.5454V103.161Z" fill="#29564E"/>
<path d="M87.8403 103.161H80.5444V110.481H87.8403V103.161Z" fill="#29564E"/>
<path d="M95.1362 103.161H87.8403V110.481H95.1362V103.161Z" fill="#9B9DAA"/>
<path d="M102.432 103.161H95.1362V110.481H102.432V103.161Z" fill="#9B9DAA"/>
<path d="M109.728 103.161H102.432V110.481H109.728V103.161Z" fill="#9B9DAA"/>
<path d="M117.022 103.161H109.726V110.481H117.022V103.161Z" fill="#9B9DAA"/>
<path d="M124.318 103.161H117.022V110.481H124.318V103.161Z" fill="#9B9DAA"/>
<path d="M131.613 103.161H124.317V110.481H131.613V103.161Z" fill="#9B9DAA"/>
<path d="M138.909 103.161H131.613V110.481H138.909V103.161Z" fill="#6A6C7B"/>
<path d="M146.205 103.161H138.909V110.481H146.205V103.161Z" fill="#29564E"/>
<path d="M153.5 103.161H146.205V110.481H153.5V103.161Z" fill="#29564E"/>
<path d="M160.796 103.161H153.5V110.481H160.796V103.161Z" fill="#29564E"/>
<path d="M168.092 103.161H160.796V110.481H168.092V103.161Z" fill="#FA7322"/>
<path d="M175.387 103.161H168.091V110.481H175.387V103.161Z" fill="#FA7322"/>
<path d="M182.684 103.161H175.388V110.481H182.684V103.161Z" fill="#FA7322"/>
<path d="M189.979 103.161H182.683V110.481H189.979V103.161Z" fill="#FA7322"/>
<path d="M197.274 103.161H189.979V110.481H197.274V103.161Z" fill="#29564E"/>
<path d="M211.866 103.161H204.57V110.481H211.866V103.161Z" fill="#29564E"/>
<path d="M219.161 103.161H211.865V110.481H219.161V103.161Z" fill="#F9AF3C"/>
<path d="M226.457 103.161H219.161V110.481H226.457V103.161Z" fill="#F9AF3C"/>
<path d="M7.58887 110.48H0.292969V117.8H7.58887V110.48Z" fill="#F9AF3C"/>
<path d="M14.8848 110.48H7.58887V117.8H14.8848V110.48Z" fill="#F9AF3C"/>
<path d="M22.1797 110.48H14.8838V117.8H22.1797V110.48Z" fill="#F9AF3C"/>
<path d="M36.772 110.48H29.4761V117.8H36.772V110.48Z" fill="#F9AF3C"/>
<path d="M44.0659 110.48H36.77V117.8H44.0659V110.48Z" fill="#F9AF3C"/>
<path d="M51.3623 110.48H44.0664V117.8H51.3623V110.48Z" fill="#F9AF3C"/>
<path d="M58.6582 110.48H51.3623V117.8H58.6582V110.48Z" fill="#F9AF3C"/>
<path d="M65.9541 110.48H58.6582V117.8H65.9541V110.48Z" fill="#F9AF3C"/>
<path d="M73.249 110.48H65.9531V117.8H73.249V110.48Z" fill="#F9AF3C"/>
<path d="M80.5454 110.48H73.2495V117.8H80.5454V110.48Z" fill="#F9AF3C"/>
<path d="M87.8403 110.48H80.5444V117.8H87.8403V110.48Z" fill="#F9AF3C"/>
<path d="M95.1362 110.48H87.8403V117.8H95.1362V110.48Z" fill="#9B9DAA"/>
<path d="M102.432 110.48H95.1362V117.8H102.432V110.48Z" fill="#9B9DAA"/>
<path d="M109.728 110.48H102.432V117.8H109.728V110.48Z" fill="#9B9DAA"/>
<path d="M117.022 110.48H109.726V117.8H117.022V110.48Z" fill="black"/>
<path d="M124.318 110.48H117.022V117.8H124.318V110.48Z" fill="#9B9DAA"/>
<path d="M131.613 110.48H124.317V117.8H131.613V110.48Z" fill="#9B9DAA"/>
<path d="M138.909 110.48H131.613V117.8H138.909V110.48Z" fill="#6A6C7B"/>
<path d="M146.205 110.48H138.909V117.8H146.205V110.48Z" fill="#F9AF3C"/>
<path d="M153.5 110.48H146.205V117.8H153.5V110.48Z" fill="#F9AF3C"/>
<path d="M160.796 110.48H153.5V117.8H160.796V110.48Z" fill="#F9AF3C"/>
<path d="M168.092 110.48H160.796V117.8H168.092V110.48Z" fill="#F9AF3C"/>
<path d="M175.387 110.48H168.091V117.8H175.387V110.48Z" fill="#F9AF3C"/>
<path d="M182.684 110.48H175.388V117.8H182.684V110.48Z" fill="#F9AF3C"/>
<path d="M189.979 110.48H182.683V117.8H189.979V110.48Z" fill="#F9AF3C"/>
<path d="M197.274 110.48H189.979V117.8H197.274V110.48Z" fill="#F9AF3C"/>
<path d="M211.866 110.48H204.57V117.8H211.866V110.48Z" fill="#F9AF3C"/>
<path d="M219.161 110.48H211.865V117.8H219.161V110.48Z" fill="#F9AF3C"/>
<path d="M226.457 110.48H219.161V117.8H226.457V110.48Z" fill="#F9AF3C"/>
<path d="M7.58887 117.8H0.292969V125.121H7.58887V117.8Z" fill="#FA7322"/>
<path d="M14.8848 117.8H7.58887V125.121H14.8848V117.8Z" fill="#FA7322"/>
<path d="M22.1797 117.8H14.8838V125.121H22.1797V117.8Z" fill="#FA7322"/>
<path d="M29.4751 8.00146H22.1792V15.3217H29.4751V8.00146Z" fill="#29564E"/>
<path d="M29.4751 15.3208H22.1792V22.641H29.4751V15.3208Z" fill="#71BCAA"/>
<path d="M29.4751 22.6411H22.1792V29.9613H29.4751V22.6411Z" fill="#4EA691"/>
<path d="M29.4751 29.9609H22.1792V37.2812H29.4751V29.9609Z" fill="#4EA691"/>
<path d="M29.4751 37.2803H22.1792V44.6005H29.4751V37.2803Z" fill="#71BCAA"/>
<path d="M29.4751 44.6006H22.1792V51.9208H29.4751V44.6006Z" fill="#71BCAA"/>
<path d="M29.4751 51.9209H22.1792V59.2411H29.4751V51.9209Z" fill="#29564E"/>
<path d="M29.4751 59.2412H22.1792V66.5614H29.4751V59.2412Z" fill="#71BCAA"/>
<path d="M29.4751 66.5605H22.1792V73.8808H29.4751V66.5605Z" fill="#4EA691"/>
<path d="M29.4751 73.8809H22.1792V81.2011H29.4751V73.8809Z" fill="#4EA691"/>
<path d="M29.4751 81.2007H22.1792V88.5209H29.4751V81.2007Z" fill="#4EA691"/>
<path d="M29.4751 88.52H22.1792V95.8402H29.4751V88.52Z" fill="#3E8480"/>
<path d="M29.4751 95.8403H22.1792V103.161H29.4751V95.8403Z" fill="#3E8480"/>
<path d="M29.4751 103.161H22.1792V110.481H29.4751V103.161Z" fill="#29564E"/>
<path d="M29.4751 110.48H22.1792V117.8H29.4751V110.48Z" fill="#F9AF3C"/>
<path d="M29.4751 117.8H22.1792V125.121H29.4751V117.8Z" fill="#FA7322"/>
<path d="M36.772 117.8H29.4761V125.121H36.772V117.8Z" fill="#FA7322"/>
<path d="M44.0659 117.8H36.77V125.121H44.0659V117.8Z" fill="#FA7322"/>
<path d="M51.3623 117.8H44.0664V125.121H51.3623V117.8Z" fill="#FA7322"/>
<path d="M58.6582 117.8H51.3623V125.121H58.6582V117.8Z" fill="#FA7322"/>
<path d="M65.9541 117.8H58.6582V125.121H65.9541V117.8Z" fill="#FA7322"/>
<path d="M73.249 117.8H65.9531V125.121H73.249V117.8Z" fill="#FA7322"/>
<path d="M80.5454 117.8H73.2495V125.121H80.5454V117.8Z" fill="#FA7322"/>
<path d="M87.8403 117.8H80.5444V125.121H87.8403V117.8Z" fill="#FA7322"/>
<path d="M95.1362 117.8H87.8403V125.121H95.1362V117.8Z" fill="#9B9DAA"/>
<path d="M102.432 117.8H95.1362V125.121H102.432V117.8Z" fill="#9B9DAA"/>
<path d="M109.728 117.8H102.432V125.121H109.728V117.8Z" fill="#9B9DAA"/>
<path d="M117.022 117.8H109.726V125.121H117.022V117.8Z" fill="black"/>
<path d="M124.318 117.8H117.022V125.121H124.318V117.8Z" fill="#9B9DAA"/>
<path d="M131.613 117.8H124.317V125.121H131.613V117.8Z" fill="#6A6C7B"/>
<path d="M138.909 117.8H131.613V125.121H138.909V117.8Z" fill="#6A6C7B"/>
<path d="M146.205 117.8H138.909V125.121H146.205V117.8Z" fill="#FA7322"/>
<path d="M153.5 117.8H146.205V125.121H153.5V117.8Z" fill="#FA7322"/>
<path d="M160.796 117.8H153.5V125.121H160.796V117.8Z" fill="#FA7322"/>
<path d="M168.092 117.8H160.796V125.121H168.092V117.8Z" fill="#FA7322"/>
<path d="M175.387 117.8H168.091V125.121H175.387V117.8Z" fill="#FA7322"/>
<path d="M182.684 117.8H175.388V125.121H182.684V117.8Z" fill="#FA7322"/>
<path d="M189.979 117.8H182.683V125.121H189.979V117.8Z" fill="#FA7322"/>
<path d="M197.274 117.8H189.979V125.121H197.274V117.8Z" fill="#FA7322"/>
<path d="M204.57 8.00146H197.274V15.3217H204.57V8.00146Z" fill="#29564E"/>
<path d="M204.57 15.3208H197.274V22.641H204.57V15.3208Z" fill="#4EA691"/>
<path d="M204.57 22.6411H197.274V29.9613H204.57V22.6411Z" fill="#71BCAA"/>
<path d="M204.57 29.9609H197.274V37.2812H204.57V29.9609Z" fill="#71BCAA"/>
<path d="M204.57 37.2803H197.274V44.6005H204.57V37.2803Z" fill="#4EA691"/>
<path d="M204.57 44.6006H197.274V51.9208H204.57V44.6006Z" fill="#4EA691"/>
<path d="M204.57 51.9209H197.274V59.2411H204.57V51.9209Z" fill="#29564E"/>
<path d="M204.57 59.2412H197.274V66.5614H204.57V59.2412Z" fill="#4EA691"/>
<path d="M204.57 66.5605H197.274V73.8808H204.57V66.5605Z" fill="#4EA691"/>
<path d="M204.57 73.8809H197.274V81.2011H204.57V73.8809Z" fill="#4EA691"/>
<path d="M204.57 81.2007H197.274V88.5209H204.57V81.2007Z" fill="#4EA691"/>
<path d="M204.57 88.52H197.274V95.8402H204.57V88.52Z" fill="#3E8480"/>
<path d="M204.57 95.8403H197.274V103.161H204.57V95.8403Z" fill="#3E8480"/>
<path d="M204.57 103.161H197.274V110.481H204.57V103.161Z" fill="#29564E"/>
<path d="M204.57 110.48H197.274V117.8H204.57V110.48Z" fill="#F9AF3C"/>
<path d="M204.57 117.8H197.274V125.121H204.57V117.8Z" fill="#FA7322"/>
<path d="M211.866 117.8H204.57V125.121H211.866V117.8Z" fill="#FA7322"/>
<path d="M219.161 117.8H211.865V125.121H219.161V117.8Z" fill="#FA7322"/>
<path d="M226.457 117.8H219.161V125.121H226.457V117.8Z" fill="#FA7322"/>
<path d="M29.4751 125.12H22.1792V132.44H29.4751V125.12Z" fill="#F9AF3C"/>
<path d="M36.772 125.12H29.4761V132.44H36.772V125.12Z" fill="#29564E"/>
<path d="M44.0659 125.12H36.77V132.44H44.0659V125.12Z" fill="#29564E"/>
<path d="M51.3623 125.12H44.0664V132.44H51.3623V125.12Z" fill="#29564E"/>
<path d="M58.6582 125.12H51.3623V132.44H58.6582V125.12Z" fill="#29564E"/>
<path d="M65.9541 125.12H58.6582V132.44H65.9541V125.12Z" fill="#29564E"/>
<path d="M73.249 125.12H65.9531V132.44H73.249V125.12Z" fill="#29564E"/>
<path d="M80.5454 125.12H73.2495V132.44H80.5454V125.12Z" fill="#29564E"/>
<path d="M87.8403 125.12H80.5444V132.44H87.8403V125.12Z" fill="#29564E"/>
<path d="M95.1362 125.12H87.8403V132.44H95.1362V125.12Z" fill="#9B9DAA"/>
<path d="M102.432 125.12H95.1362V132.44H102.432V125.12Z" fill="#9B9DAA"/>
<path d="M109.728 125.12H102.432V132.44H109.728V125.12Z" fill="#9B9DAA"/>
<path d="M117.022 125.12H109.726V132.44H117.022V125.12Z" fill="#F8F8F9"/>
<path d="M124.318 125.12H117.022V132.44H124.318V125.12Z" fill="#9B9DAA"/>
<path d="M131.613 125.12H124.317V132.44H131.613V125.12Z" fill="#6A6C7B"/>
<path d="M138.909 125.12H131.613V132.44H138.909V125.12Z" fill="#6A6C7B"/>
<path d="M146.205 125.12H138.909V132.44H146.205V125.12Z" fill="#29564E"/>
<path d="M153.5 125.12H146.205V132.44H153.5V125.12Z" fill="#29564E"/>
<path d="M160.796 125.12H153.5V132.44H160.796V125.12Z" fill="#29564E"/>
<path d="M168.092 125.12H160.796V132.44H168.092V125.12Z" fill="#29564E"/>
<path d="M175.387 125.12H168.091V132.44H175.387V125.12Z" fill="#29564E"/>
<path d="M182.684 125.12H175.388V132.44H182.684V125.12Z" fill="#29564E"/>
<path d="M189.979 125.12H182.683V132.44H189.979V125.12Z" fill="#29564E"/>
<path d="M197.274 125.12H189.979V132.44H197.274V125.12Z" fill="#29564E"/>
<path d="M204.57 125.12H197.274V132.44H204.57V125.12Z" fill="#F9AF3C"/>
<path d="M29.4751 147.08H22.1792V154.4H29.4751V147.08Z" fill="#F9AF3C"/>
<path d="M36.772 147.08H29.4761V154.4H36.772V147.08Z" fill="#29564E"/>
<path d="M44.0659 147.08H36.77V154.4H44.0659V147.08Z" fill="#3E8480"/>
<path d="M51.3623 147.08H44.0664V154.4H51.3623V147.08Z" fill="#3E8480"/>
<path d="M58.6582 147.08H51.3623V154.4H58.6582V147.08Z" fill="#3E8480"/>
<path d="M65.9541 147.08H58.6582V154.4H65.9541V147.08Z" fill="#3E8480"/>
<path d="M73.249 147.08H65.9531V154.4H73.249V147.08Z" fill="#29564E"/>
<path d="M80.5454 147.08H73.2495V154.4H80.5454V147.08Z" fill="#3E8480"/>
<path d="M87.8403 147.08H80.5444V154.4H87.8403V147.08Z" fill="#3E8480"/>
<path d="M95.1362 147.08H87.8403V154.4H95.1362V147.08Z" fill="#3E8480"/>
<path d="M102.432 147.08H95.1362V154.4H102.432V147.08Z" fill="#4EA691"/>
<path d="M109.728 147.08H102.432V154.4H109.728V147.08Z" fill="#4EA691"/>
<path d="M117.022 147.08H109.726V154.4H117.022V147.08Z" fill="#4EA691"/>
<path d="M124.318 147.08H117.022V154.4H124.318V147.08Z" fill="#4EA691"/>
<path d="M131.613 147.08H124.317V154.4H131.613V147.08Z" fill="#3E8480"/>
<path d="M138.909 147.08H131.613V154.4H138.909V147.08Z" fill="#3E8480"/>
<path d="M146.205 147.08H138.909V154.4H146.205V147.08Z" fill="#3E8480"/>
<path d="M153.5 147.08H146.205V154.4H153.5V147.08Z" fill="#3E8480"/>
<path d="M160.796 147.08H153.5V154.4H160.796V147.08Z" fill="#29564E"/>
<path d="M168.092 147.08H160.796V154.4H168.092V147.08Z" fill="#3E8480"/>
<path d="M175.387 147.08H168.091V154.4H175.387V147.08Z" fill="#3E8480"/>
<path d="M182.684 147.08H175.388V154.4H182.684V147.08Z" fill="#3E8480"/>
<path d="M189.979 147.08H182.683V154.4H189.979V147.08Z" fill="#4EA691"/>
<path d="M197.274 147.08H189.979V154.4H197.274V147.08Z" fill="#29564E"/>
<path d="M204.57 147.08H197.274V154.4H204.57V147.08Z" fill="#F9AF3C"/>
<path d="M29.4751 154.399H22.1792V161.719H29.4751V154.399Z" fill="#F9AF3C"/>
<path d="M36.772 154.399H29.4761V161.719H36.772V154.399Z" fill="#3E8480"/>
<path d="M44.0659 154.399H36.77V161.719H44.0659V154.399Z" fill="#3E8480"/>
<path d="M51.3623 154.399H44.0664V161.719H51.3623V154.399Z" fill="#3E8480"/>
<path d="M58.6582 154.399H51.3623V161.719H58.6582V154.399Z" fill="#3E8480"/>
<path d="M65.9541 154.399H58.6582V161.719H65.9541V154.399Z" fill="#3E8480"/>
<path d="M73.249 154.399H65.9531V161.719H73.249V154.399Z" fill="#29564E"/>
<path d="M80.5454 154.399H73.2495V161.719H80.5454V154.399Z" fill="#3E8480"/>
<path d="M87.8403 154.399H80.5444V161.719H87.8403V154.399Z" fill="#3E8480"/>
<path d="M95.1362 154.399H87.8403V161.719H95.1362V154.399Z" fill="#3E8480"/>
<path d="M102.432 154.399H95.1362V161.719H102.432V154.399Z" fill="#3E8480"/>
<path d="M109.728 154.399H102.432V161.719H109.728V154.399Z" fill="#3E8480"/>
<path d="M117.022 154.399H109.726V161.719H117.022V154.399Z" fill="#3E8480"/>
<path d="M124.318 154.399H117.022V161.719H124.318V154.399Z" fill="#3E8480"/>
<path d="M131.613 154.399H124.317V161.719H131.613V154.399Z" fill="#3E8480"/>
<path d="M138.909 154.399H131.613V161.719H138.909V154.399Z" fill="#3E8480"/>
<path d="M146.205 154.399H138.909V161.719H146.205V154.399Z" fill="#3E8480"/>
<path d="M153.5 154.399H146.205V161.719H153.5V154.399Z" fill="#3E8480"/>
<path d="M160.796 154.399H153.5V161.719H160.796V154.399Z" fill="#3E8480"/>
<path d="M168.092 154.399H160.796V161.719H168.092V154.399Z" fill="#3E8480"/>
<path d="M175.387 154.399H168.091V161.719H175.387V154.399Z" fill="#3E8480"/>
<path d="M182.684 154.399H175.388V161.719H182.684V154.399Z" fill="#3E8480"/>
<path d="M189.979 154.399H182.683V161.719H189.979V154.399Z" fill="#3E8480"/>
<path d="M197.274 154.399H189.979V161.719H197.274V154.399Z" fill="#29564E"/>
<path d="M204.57 154.399H197.274V161.719H204.57V154.399Z" fill="#F9AF3C"/>
<path d="M29.4751 161.72H22.1792V169.04H29.4751V161.72Z" fill="#F9AF3C"/>
<path d="M36.772 161.72H29.4761V169.04H36.772V161.72Z" fill="#29564E"/>
<path d="M44.0659 161.72H36.77V169.04H44.0659V161.72Z" fill="#3E8480"/>
<path d="M51.3623 161.72H44.0664V169.04H51.3623V161.72Z" fill="#3E8480"/>
<path d="M58.6582 161.72H51.3623V169.04H58.6582V161.72Z" fill="#3E8480"/>
<path d="M65.9541 161.72H58.6582V169.04H65.9541V161.72Z" fill="#3E8480"/>
<path d="M73.249 161.72H65.9531V169.04H73.249V161.72Z" fill="#3E8480"/>
<path d="M80.5454 161.72H73.2495V169.04H80.5454V161.72Z" fill="#3E8480"/>
<path d="M87.8403 161.72H80.5444V169.04H87.8403V161.72Z" fill="#3E8480"/>
<path d="M95.1362 161.72H87.8403V169.04H95.1362V161.72Z" fill="#3E8480"/>
<path d="M102.432 161.72H95.1362V169.04H102.432V161.72Z" fill="#3E8480"/>
<path d="M109.728 161.72H102.432V169.04H109.728V161.72Z" fill="#3E8480"/>
<path d="M117.022 161.72H109.726V169.04H117.022V161.72Z" fill="#3E8480"/>
<path d="M124.318 161.72H117.022V169.04H124.318V161.72Z" fill="#3E8480"/>
<path d="M131.613 161.72H124.317V169.04H131.613V161.72Z" fill="#3E8480"/>
<path d="M138.909 161.72H131.613V169.04H138.909V161.72Z" fill="#3E8480"/>
<path d="M146.205 161.72H138.909V169.04H146.205V161.72Z" fill="#3E8480"/>
<path d="M153.5 161.72H146.205V169.04H153.5V161.72Z" fill="#3E8480"/>
<path d="M160.796 161.72H153.5V169.04H160.796V161.72Z" fill="#29564E"/>
<path d="M168.092 161.72H160.796V169.04H168.092V161.72Z" fill="#3E8480"/>
<path d="M175.387 161.72H168.091V169.04H175.387V161.72Z" fill="#3E8480"/>
<path d="M182.684 161.72H175.388V169.04H182.684V161.72Z" fill="#3E8480"/>
<path d="M189.979 161.72H182.683V169.04H189.979V161.72Z" fill="#3E8480"/>
<path d="M197.274 161.72H189.979V169.04H197.274V161.72Z" fill="#3E8480"/>
<path d="M204.57 161.72H197.274V169.04H204.57V161.72Z" fill="#F9AF3C"/>
<path d="M29.4751 169.04H22.1792V176.36H29.4751V169.04Z" fill="#F9AF3C"/>
<path d="M36.772 169.04H29.4761V176.36H36.772V169.04Z" fill="#29564E"/>
<path d="M44.0659 169.04H36.77V176.36H44.0659V169.04Z" fill="#3E8480"/>
<path d="M51.3623 169.04H44.0664V176.36H51.3623V169.04Z" fill="#3E8480"/>
<path d="M58.6582 169.04H51.3623V176.36H58.6582V169.04Z" fill="#3E8480"/>
<path d="M65.9541 169.04H58.6582V176.36H65.9541V169.04Z" fill="#3E8480"/>
<path d="M73.249 169.04H65.9531V176.36H73.249V169.04Z" fill="#29564E"/>
<path d="M80.5454 169.04H73.2495V176.36H80.5454V169.04Z" fill="#3E8480"/>
<path d="M87.8403 169.04H80.5444V176.36H87.8403V169.04Z" fill="#3E8480"/>
<path d="M95.1362 169.04H87.8403V176.36H95.1362V169.04Z" fill="#3E8480"/>
<path d="M102.432 169.04H95.1362V176.36H102.432V169.04Z" fill="#3E8480"/>
<path d="M109.728 169.04H102.432V176.36H109.728V169.04Z" fill="#3E8480"/>
<path d="M117.022 169.04H109.726V176.36H117.022V169.04Z" fill="#3E8480"/>
<path d="M124.318 169.04H117.022V176.36H124.318V169.04Z" fill="#3E8480"/>
<path d="M131.613 169.04H124.317V176.36H131.613V169.04Z" fill="#3E8480"/>
<path d="M138.909 169.04H131.613V176.36H138.909V169.04Z" fill="#3E8480"/>
<path d="M146.205 169.04H138.909V176.36H146.205V169.04Z" fill="#3E8480"/>
<path d="M153.5 169.04H146.205V176.36H153.5V169.04Z" fill="#3E8480"/>
<path d="M160.796 169.04H153.5V176.36H160.796V169.04Z" fill="#29564E"/>
<path d="M168.092 169.04H160.796V176.36H168.092V169.04Z" fill="#3E8480"/>
<path d="M175.387 169.04H168.091V176.36H175.387V169.04Z" fill="#3E8480"/>
<path d="M182.684 169.04H175.388V176.36H182.684V169.04Z" fill="#3E8480"/>
<path d="M189.979 169.04H182.683V176.36H189.979V169.04Z" fill="#3E8480"/>
<path d="M197.274 169.04H189.979V176.36H197.274V169.04Z" fill="#29564E"/>
<path d="M204.57 169.04H197.274V176.36H204.57V169.04Z" fill="#F9AF3C"/>
<path d="M36.772 176.359H29.4761V183.68H36.772V176.359Z" fill="#F9AF3C"/>
<path d="M29.4751 176.359H22.1792V183.68H29.4751V176.359Z" fill="#F9AF3C"/>
<path d="M22.1797 125.12H14.8838V132.44H22.1797V125.12Z" fill="#F9AF3C"/>
<path d="M22.1797 147.08H14.8838V154.4H22.1797V147.08Z" fill="#F9AF3C"/>
<path d="M22.1797 154.399H14.8838V161.719H22.1797V154.399Z" fill="#F9AF3C"/>
<path d="M22.1797 161.72H14.8838V169.04H22.1797V161.72Z" fill="#F9AF3C"/>
<path d="M22.1797 169.04H14.8838V176.36H22.1797V169.04Z" fill="#F9AF3C"/>
<path d="M22.1797 176.359H14.8838V183.68H22.1797V176.359Z" fill="#F9AF3C"/>
<path d="M44.0659 176.359H36.77V183.68H44.0659V176.359Z" fill="#F9AF3C"/>
<path d="M51.3623 176.359H44.0664V183.68H51.3623V176.359Z" fill="#F9AF3C"/>
<path d="M58.6582 176.359H51.3623V183.68H58.6582V176.359Z" fill="#F9AF3C"/>
<path d="M65.9541 176.359H58.6582V183.68H65.9541V176.359Z" fill="#F9AF3C"/>
<path d="M73.249 176.359H65.9531V183.68H73.249V176.359Z" fill="#F9AF3C"/>
<path d="M80.5454 176.359H73.2495V183.68H80.5454V176.359Z" fill="#F9AF3C"/>
<path d="M87.8403 176.359H80.5444V183.68H87.8403V176.359Z" fill="#F9AF3C"/>
<path d="M95.1362 176.359H87.8403V183.68H95.1362V176.359Z" fill="#F9AF3C"/>
<path d="M102.432 176.359H95.1362V183.68H102.432V176.359Z" fill="#F9AF3C"/>
<path d="M109.728 176.359H102.432V183.68H109.728V176.359Z" fill="#F9AF3C"/>
<path d="M117.022 176.359H109.726V183.68H117.022V176.359Z" fill="#F9AF3C"/>
<path d="M124.318 176.359H117.022V183.68H124.318V176.359Z" fill="#F9AF3C"/>
<path d="M131.613 176.359H124.317V183.68H131.613V176.359Z" fill="#F9AF3C"/>
<path d="M138.909 176.359H131.613V183.68H138.909V176.359Z" fill="#F9AF3C"/>
<path d="M146.205 176.359H138.909V183.68H146.205V176.359Z" fill="#F9AF3C"/>
<path d="M153.5 176.359H146.205V183.68H153.5V176.359Z" fill="#F9AF3C"/>
<path d="M160.796 176.359H153.5V183.68H160.796V176.359Z" fill="#F9AF3C"/>
<path d="M168.092 176.359H160.796V183.68H168.092V176.359Z" fill="#F9AF3C"/>
<path d="M175.387 176.359H168.091V183.68H175.387V176.359Z" fill="#F9AF3C"/>
<path d="M182.684 176.359H175.388V183.68H182.684V176.359Z" fill="#F9AF3C"/>
<path d="M189.979 176.359H182.683V183.68H189.979V176.359Z" fill="#F9AF3C"/>
<path d="M197.274 176.359H189.979V183.68H197.274V176.359Z" fill="#F9AF3C"/>
<path d="M204.57 176.359H197.274V183.68H204.57V176.359Z" fill="#F9AF3C"/>
<path d="M211.866 125.12H204.57V132.44H211.866V125.12Z" fill="#F9AF3C"/>
<path d="M211.866 147.08H204.57V154.4H211.866V147.08Z" fill="#F9AF3C"/>
<path d="M29.4751 139.759H22.1792V147.079H29.4751V139.759Z" fill="#F9AF3C"/>
<path d="M36.772 139.759H29.4761V147.079H36.772V139.759Z" fill="#29564E"/>
<path d="M44.0659 139.759H36.77V147.079H44.0659V139.759Z" fill="#4EA691"/>
<path d="M51.3623 139.759H44.0664V147.079H51.3623V139.759Z" fill="#4EA691"/>
<path d="M58.6582 139.759H51.3623V147.079H58.6582V139.759Z" fill="#3E8480"/>
<path d="M65.9541 139.759H58.6582V147.079H65.9541V139.759Z" fill="#3E8480"/>
<path d="M73.249 139.759H65.9531V147.079H73.249V139.759Z" fill="#29564E"/>
<path d="M80.5454 139.759H73.2495V147.079H80.5454V139.759Z" fill="#3E8480"/>
<path d="M87.8403 139.759H80.5444V147.079H87.8403V139.759Z" fill="#4EA691"/>
<path d="M95.1362 139.759H87.8403V147.079H95.1362V139.759Z" fill="#4EA691"/>
<path d="M102.432 139.759H95.1362V147.079H102.432V139.759Z" fill="#9B9DAA"/>
<path d="M109.728 139.759H102.432V147.079H109.728V139.759Z" fill="#9B9DAA"/>
<path d="M117.022 139.759H109.726V147.079H117.022V139.759Z" fill="#6A6C7B"/>
<path d="M124.318 139.759H117.022V147.079H124.318V139.759Z" fill="#6A6C7B"/>
<path d="M131.613 139.759H124.317V147.079H131.613V139.759Z" fill="#6A6C7B"/>
<path d="M138.909 139.759H131.613V147.079H138.909V139.759Z" fill="#4EA691"/>
<path d="M146.205 139.759H138.909V147.079H146.205V139.759Z" fill="#3E8480"/>
<path d="M153.5 139.759H146.205V147.079H153.5V139.759Z" fill="#3E8480"/>
<path d="M160.796 139.759H153.5V147.079H160.796V139.759Z" fill="#29564E"/>
<path d="M168.092 139.759H160.796V147.079H168.092V139.759Z" fill="#3E8480"/>
<path d="M175.387 139.759H168.091V147.079H175.387V139.759Z" fill="#4EA691"/>
<path d="M182.684 139.759H175.388V147.079H182.684V139.759Z" fill="#4EA691"/>
<path d="M189.979 139.759H182.683V147.079H189.979V139.759Z" fill="#4EA691"/>
<path d="M197.274 139.759H189.979V147.079H197.274V139.759Z" fill="#29564E"/>
<path d="M204.57 139.759H197.274V147.079H204.57V139.759Z" fill="#F9AF3C"/>
<path d="M22.1797 139.759H14.8838V147.079H22.1797V139.759Z" fill="#F9AF3C"/>
<path d="M211.866 139.759H204.57V147.079H211.866V139.759Z" fill="#F9AF3C"/>
<path d="M29.4751 132.439H22.1792V139.759H29.4751V132.439Z" fill="#F9AF3C"/>
<path d="M36.772 132.439H29.4761V139.759H36.772V132.439Z" fill="#29564E"/>
<path d="M44.0659 132.439H36.77V139.759H44.0659V132.439Z" fill="#4EA691"/>
<path d="M51.3623 132.439H44.0664V139.759H51.3623V132.439Z" fill="#4EA691"/>
<path d="M58.6582 132.439H51.3623V139.759H58.6582V132.439Z" fill="#4EA691"/>
<path d="M65.9541 132.439H58.6582V139.759H65.9541V132.439Z" fill="#4EA691"/>
<path d="M73.249 132.439H65.9531V139.759H73.249V132.439Z" fill="#29564E"/>
<path d="M80.5454 132.439H73.2495V139.759H80.5454V132.439Z" fill="#4EA691"/>
<path d="M87.8403 132.439H80.5444V139.759H87.8403V132.439Z" fill="#4EA691"/>
<path d="M95.1362 132.439H87.8403V139.759H95.1362V132.439Z" fill="#9B9DAA"/>
<path d="M102.432 132.439H95.1362V139.759H102.432V132.439Z" fill="#9B9DAA"/>
<path d="M109.728 132.439H102.432V139.759H109.728V132.439Z" fill="#9B9DAA"/>
<path d="M117.022 132.439H109.726V139.759H117.022V132.439Z" fill="#9B9DAA"/>
<path d="M124.318 132.439H117.022V139.759H124.318V132.439Z" fill="#9B9DAA"/>
<path d="M131.613 132.439H124.317V139.759H131.613V132.439Z" fill="#6A6C7B"/>
<path d="M138.909 132.439H131.613V139.759H138.909V132.439Z" fill="#6A6C7B"/>
<path d="M146.205 132.439H138.909V139.759H146.205V132.439Z" fill="#4EA691"/>
<path d="M153.5 132.439H146.205V139.759H153.5V132.439Z" fill="#4EA691"/>
<path d="M160.796 132.439H153.5V139.759H160.796V132.439Z" fill="#29564E"/>
<path d="M168.092 132.439H160.796V139.759H168.092V132.439Z" fill="#4EA691"/>
<path d="M175.387 132.439H168.091V139.759H175.387V132.439Z" fill="#4EA691"/>
<path d="M182.684 132.439H175.388V139.759H182.684V132.439Z" fill="#4EA691"/>
<path d="M189.979 132.439H182.683V139.759H189.979V132.439Z" fill="#4EA691"/>
<path d="M197.274 132.439H189.979V139.759H197.274V132.439Z" fill="#29564E"/>
<path d="M204.57 132.439H197.274V139.759H204.57V132.439Z" fill="#F9AF3C"/>
<path d="M22.1797 132.439H14.8838V139.759H22.1797V132.439Z" fill="#F9AF3C"/>
<path d="M211.866 132.439H204.57V139.759H211.866V132.439Z" fill="#F9AF3C"/>
<path d="M211.866 154.399H204.57V161.719H211.866V154.399Z" fill="#F9AF3C"/>
<path d="M211.866 161.72H204.57V169.04H211.866V161.72Z" fill="#F9AF3C"/>
<path d="M211.866 169.04H204.57V176.36H211.866V169.04Z" fill="#F9AF3C"/>
<path d="M211.866 176.359H204.57V183.68H211.866V176.359Z" fill="#F9AF3C"/>
<path d="M36.772 183.679H29.4761V190.999H36.772V183.679Z" fill="#F9AF3C"/>
<path d="M29.4751 183.679H22.1792V190.999H29.4751V183.679Z" fill="#F9AF3C"/>
<path d="M22.1797 183.679H14.8838V190.999H22.1797V183.679Z" fill="#F9AF3C"/>
<path d="M44.0659 183.679H36.77V190.999H44.0659V183.679Z" fill="#F9AF3C"/>
<path d="M51.3623 183.679H44.0664V190.999H51.3623V183.679Z" fill="#F9AF3C"/>
<path d="M58.6582 183.679H51.3623V190.999H58.6582V183.679Z" fill="#F9AF3C"/>
<path d="M65.9541 183.679H58.6582V190.999H65.9541V183.679Z" fill="#F9AF3C"/>
<path d="M73.249 183.679H65.9531V190.999H73.249V183.679Z" fill="#F9AF3C"/>
<path d="M80.5454 183.679H73.2495V190.999H80.5454V183.679Z" fill="#F9AF3C"/>
<path d="M87.8403 183.679H80.5444V190.999H87.8403V183.679Z" fill="#F9AF3C"/>
<path d="M95.1362 183.679H87.8403V190.999H95.1362V183.679Z" fill="#F9AF3C"/>
<path d="M102.432 183.679H95.1362V190.999H102.432V183.679Z" fill="#F9AF3C"/>
<path d="M109.728 183.679H102.432V190.999H109.728V183.679Z" fill="#F9AF3C"/>
<path d="M117.022 183.679H109.726V190.999H117.022V183.679Z" fill="#F9AF3C"/>
<path d="M124.318 183.679H117.022V190.999H124.318V183.679Z" fill="#F9AF3C"/>
<path d="M131.613 183.679H124.317V190.999H131.613V183.679Z" fill="#F9AF3C"/>
<path d="M138.909 183.679H131.613V190.999H138.909V183.679Z" fill="#F9AF3C"/>
<path d="M146.205 183.679H138.909V190.999H146.205V183.679Z" fill="#F9AF3C"/>
<path d="M153.5 183.679H146.205V190.999H153.5V183.679Z" fill="#F9AF3C"/>
<path d="M160.796 183.679H153.5V190.999H160.796V183.679Z" fill="#F9AF3C"/>
<path d="M168.092 183.679H160.796V190.999H168.092V183.679Z" fill="#F9AF3C"/>
<path d="M175.387 183.679H168.091V190.999H175.387V183.679Z" fill="#F9AF3C"/>
<path d="M182.684 183.679H175.388V190.999H182.684V183.679Z" fill="#F9AF3C"/>
<path d="M189.979 183.679H182.683V190.999H189.979V183.679Z" fill="#F9AF3C"/>
<path d="M197.274 183.679H189.979V190.999H197.274V183.679Z" fill="#F9AF3C"/>
<path d="M204.57 183.679H197.274V190.999H204.57V183.679Z" fill="#F9AF3C"/>
<path d="M211.866 183.679H204.57V190.999H211.866V183.679Z" fill="#F9AF3C"/>
<path d="M36.772 190.999H29.4761V198.319H36.772V190.999Z" fill="#BD4B2F"/>
<path d="M29.4751 190.999H22.1792V198.319H29.4751V190.999Z" fill="#BD4B2F"/>
<path d="M22.1797 190.999H14.8838V198.319H22.1797V190.999Z" fill="#BD4B2F"/>
<path d="M44.0659 190.999H36.77V198.319H44.0659V190.999Z" fill="#BD4B2F"/>
<path d="M51.3623 190.999H44.0664V198.319H51.3623V190.999Z" fill="#BD4B2F"/>
<path d="M58.6582 190.999H51.3623V198.319H58.6582V190.999Z" fill="#BD4B2F"/>
<path d="M65.9541 190.999H58.6582V198.319H65.9541V190.999Z" fill="#BD4B2F"/>
<path d="M73.249 190.999H65.9531V198.319H73.249V190.999Z" fill="#BD4B2F"/>
<path d="M80.5454 190.999H73.2495V198.319H80.5454V190.999Z" fill="#BD4B2F"/>
<path d="M87.8403 190.999H80.5444V198.319H87.8403V190.999Z" fill="#BD4B2F"/>
<path d="M95.1362 190.999H87.8403V198.319H95.1362V190.999Z" fill="#BD4B2F"/>
<path d="M102.432 190.999H95.1362V198.319H102.432V190.999Z" fill="#BD4B2F"/>
<path d="M109.728 190.999H102.432V198.319H109.728V190.999Z" fill="#BD4B2F"/>
<path d="M117.022 190.999H109.726V198.319H117.022V190.999Z" fill="#BD4B2F"/>
<path d="M124.318 190.999H117.022V198.319H124.318V190.999Z" fill="#BD4B2F"/>
<path d="M131.613 190.999H124.317V198.319H131.613V190.999Z" fill="#BD4B2F"/>
<path d="M138.909 190.999H131.613V198.319H138.909V190.999Z" fill="#BD4B2F"/>
<path d="M146.205 190.999H138.909V198.319H146.205V190.999Z" fill="#BD4B2F"/>
<path d="M153.5 190.999H146.205V198.319H153.5V190.999Z" fill="#BD4B2F"/>
<path d="M160.796 190.999H153.5V198.319H160.796V190.999Z" fill="#BD4B2F"/>
<path d="M168.092 190.999H160.796V198.319H168.092V190.999Z" fill="#BD4B2F"/>
<path d="M175.387 190.999H168.091V198.319H175.387V190.999Z" fill="#BD4B2F"/>
<path d="M182.684 190.999H175.388V198.319H182.684V190.999Z" fill="#BD4B2F"/>
<path d="M189.979 190.999H182.683V198.319H189.979V190.999Z" fill="#BD4B2F"/>
<path d="M197.274 190.999H189.979V198.319H197.274V190.999Z" fill="#BD4B2F"/>
<path d="M204.57 190.999H197.274V198.319H204.57V190.999Z" fill="#BD4B2F"/>
<path d="M211.866 190.999H204.57V198.319H211.866V190.999Z" fill="#BD4B2F"/>
</svg>
