<svg width="227" height="199" viewBox="0 0 227 199" fill="none" xmlns="http://www.w3.org/2000/svg">
<path d="M44.5659 0.681152H37.27V8.00137H44.5659V0.681152Z" fill="#FA7322"/>
<path d="M51.8625 0.681152H44.5667V8.00137H51.8625V0.681152Z" fill="#FA7322"/>
<path d="M59.1582 0.681152H51.8623V8.00137H59.1582V0.681152Z" fill="#FA7322"/>
<path d="M66.4541 0.681152H59.1582V8.00137H66.4541V0.681152Z" fill="#FA7322"/>
<path d="M168.592 0.681152H161.296V8.00137H168.592V0.681152Z" fill="#FA7322"/>
<path d="M175.887 0.681152H168.591V8.00137H175.887V0.681152Z" fill="#FA7322"/>
<path d="M183.184 0.681152H175.888V8.00137H183.184V0.681152Z" fill="#FA7322"/>
<path d="M190.479 0.681152H183.183V8.00137H190.479V0.681152Z" fill="#FA7322"/>
<path d="M37.2717 8.00146H29.9758V15.3217H37.2717V8.00146Z" fill="#45262F"/>
<path d="M44.5659 8.00146H37.27V15.3217H44.5659V8.00146Z" fill="#F9AF3C"/>
<path d="M51.8625 8.00146H44.5667V15.3217H51.8625V8.00146Z" fill="#FA7322"/>
<path d="M59.1582 8.00146H51.8623V15.3217H59.1582V8.00146Z" fill="#FA7322"/>
<path d="M66.4541 8.00146H59.1582V15.3217H66.4541V8.00146Z" fill="#F9AF3C"/>
<path d="M73.749 8.00146H66.4531V15.3217H73.749V8.00146Z" fill="#45262F"/>
<path d="M81.0454 8.00146H73.7495V15.3217H81.0454V8.00146Z" fill="#45262F"/>
<path d="M88.3403 8.00146H81.0444V15.3217H88.3403V8.00146Z" fill="#45262F"/>
<path d="M95.6362 8.00146H88.3403V15.3217H95.6362V8.00146Z" fill="#45262F"/>
<path d="M102.932 8.00146H95.636V15.3217H102.932V8.00146Z" fill="#45262F"/>
<path d="M110.228 8.00146H102.932V15.3217H110.228V8.00146Z" fill="#45262F"/>
<path d="M117.522 8.00146H110.226V15.3217H117.522V8.00146Z" fill="#45262F"/>
<path d="M124.818 8.00146H117.522V15.3217H124.818V8.00146Z" fill="#45262F"/>
<path d="M132.113 8.00146H124.817V15.3217H132.113V8.00146Z" fill="#45262F"/>
<path d="M139.409 8.00146H132.113V15.3217H139.409V8.00146Z" fill="#45262F"/>
<path d="M146.705 8.00146H139.409V15.3217H146.705V8.00146Z" fill="#45262F"/>
<path d="M154 8.00146H146.705V15.3217H154V8.00146Z" fill="#45262F"/>
<path d="M161.296 8.00146H154V15.3217H161.296V8.00146Z" fill="#45262F"/>
<path d="M168.592 8.00146H161.296V15.3217H168.592V8.00146Z" fill="#F9AF3C"/>
<path d="M175.887 8.00146H168.591V15.3217H175.887V8.00146Z" fill="#FA7322"/>
<path d="M183.184 8.00146H175.888V15.3217H183.184V8.00146Z" fill="#FA7322"/>
<path d="M190.479 8.00146H183.183V15.3217H190.479V8.00146Z" fill="#F9AF3C"/>
<path d="M197.774 8.00146H190.478V15.3217H197.774V8.00146Z" fill="#45262F"/>
<path d="M22.6794 15.3208H15.3835V22.641H22.6794V15.3208Z" fill="#45262F"/>
<path d="M37.2717 15.3208H29.9758V22.641H37.2717V15.3208Z" fill="#45262F"/>
<path d="M44.5659 15.3208H37.27V22.641H44.5659V15.3208Z" fill="#F9AF3C"/>
<path d="M51.8625 15.3208H44.5667V22.641H51.8625V15.3208Z" fill="#F9AF3C"/>
<path d="M59.1582 15.3208H51.8623V22.641H59.1582V15.3208Z" fill="#FA7322"/>
<path d="M66.4541 15.3208H59.1582V22.641H66.4541V15.3208Z" fill="#F9AF3C"/>
<path d="M73.749 15.3208H66.4531V22.641H73.749V15.3208Z" fill="#45262F"/>
<path d="M81.0454 15.3208H73.7495V22.641H81.0454V15.3208Z" fill="#AF6B6B"/>
<path d="M88.3403 15.3208H81.0444V22.641H88.3403V15.3208Z" fill="#AF6B6B"/>
<path d="M95.6362 15.3208H88.3403V22.641H95.6362V15.3208Z" fill="#964035"/>
<path d="M102.932 15.3208H95.636V22.641H102.932V15.3208Z" fill="#964035"/>
<path d="M110.228 15.3208H102.932V22.641H110.228V15.3208Z" fill="#964035"/>
<path d="M117.522 15.3208H110.226V22.641H117.522V15.3208Z" fill="#964035"/>
<path d="M124.818 15.3208H117.522V22.641H124.818V15.3208Z" fill="#964035"/>
<path d="M132.113 15.3208H124.817V22.641H132.113V15.3208Z" fill="#964035"/>
<path d="M139.409 15.3208H132.113V22.641H139.409V15.3208Z" fill="#964035"/>
<path d="M146.705 15.3208H139.409V22.641H146.705V15.3208Z" fill="#964035"/>
<path d="M154 15.3208H146.705V22.641H154V15.3208Z" fill="#964035"/>
<path d="M161.296 15.3208H154V22.641H161.296V15.3208Z" fill="#45262F"/>
<path d="M168.592 15.3208H161.296V22.641H168.592V15.3208Z" fill="#F9AF3C"/>
<path d="M175.887 15.3208H168.591V22.641H175.887V15.3208Z" fill="#F9AF3C"/>
<path d="M183.184 15.3208H175.888V22.641H183.184V15.3208Z" fill="#FA7322"/>
<path d="M190.479 15.3208H183.183V22.641H190.479V15.3208Z" fill="#F9AF3C"/>
<path d="M197.774 15.3208H190.478V22.641H197.774V15.3208Z" fill="#45262F"/>
<path d="M212.366 15.3208H205.07V22.641H212.366V15.3208Z" fill="#45262F"/>
<path d="M22.6794 22.6411H15.3835V29.9613H22.6794V22.6411Z" fill="#45262F"/>
<path d="M37.2717 22.6411H29.9758V29.9613H37.2717V22.6411Z" fill="#45262F"/>
<path d="M44.5659 22.6411H37.27V29.9613H44.5659V22.6411Z" fill="#FEE762"/>
<path d="M51.8625 22.6411H44.5667V29.9613H51.8625V22.6411Z" fill="#F9AF3C"/>
<path d="M59.1582 22.6411H51.8623V29.9613H59.1582V22.6411Z" fill="#F9AF3C"/>
<path d="M66.4541 22.6411H59.1582V29.9613H66.4541V22.6411Z" fill="#F9AF3C"/>
<path d="M73.749 22.6411H66.4531V29.9613H73.749V22.6411Z" fill="#45262F"/>
<path d="M81.0454 22.6411H73.7495V29.9613H81.0454V22.6411Z" fill="#964035"/>
<path d="M88.3403 22.6411H81.0444V29.9613H88.3403V22.6411Z" fill="#964035"/>
<path d="M95.6362 22.6411H88.3403V29.9613H95.6362V22.6411Z" fill="#964035"/>
<path d="M102.932 22.6411H95.636V29.9613H102.932V22.6411Z" fill="#964035"/>
<path d="M110.228 22.6411H102.932V29.9613H110.228V22.6411Z" fill="#964035"/>
<path d="M117.522 22.6411H110.226V29.9613H117.522V22.6411Z" fill="#AF6B6B"/>
<path d="M124.818 22.6411H117.522V29.9613H124.818V22.6411Z" fill="#AF6B6B"/>
<path d="M132.113 22.6411H124.817V29.9613H132.113V22.6411Z" fill="#AF6B6B"/>
<path d="M139.409 22.6411H132.113V29.9613H139.409V22.6411Z" fill="#AF6B6B"/>
<path d="M146.705 22.6411H139.409V29.9613H146.705V22.6411Z" fill="#AF6B6B"/>
<path d="M154 22.6411H146.705V29.9613H154V22.6411Z" fill="#AF6B6B"/>
<path d="M161.296 22.6411H154V29.9613H161.296V22.6411Z" fill="#45262F"/>
<path d="M168.592 22.6411H161.296V29.9613H168.592V22.6411Z" fill="#FEE762"/>
<path d="M175.887 22.6411H168.591V29.9613H175.887V22.6411Z" fill="#F9AF3C"/>
<path d="M183.184 22.6411H175.888V29.9613H183.184V22.6411Z" fill="#F9AF3C"/>
<path d="M190.479 22.6411H183.183V29.9613H190.479V22.6411Z" fill="#F9AF3C"/>
<path d="M197.774 22.6411H190.478V29.9613H197.774V22.6411Z" fill="#45262F"/>
<path d="M212.366 22.6411H205.07V29.9613H212.366V22.6411Z" fill="#45262F"/>
<path d="M22.6794 29.9609H15.3835V37.2812H22.6794V29.9609Z" fill="#45262F"/>
<path d="M37.2717 29.9609H29.9758V37.2812H37.2717V29.9609Z" fill="#45262F"/>
<path d="M44.5659 29.9609H37.27V37.2812H44.5659V29.9609Z" fill="#FEE762"/>
<path d="M51.8625 29.9609H44.5667V37.2812H51.8625V29.9609Z" fill="#F9AF3C"/>
<path d="M59.1582 29.9609H51.8623V37.2812H59.1582V29.9609Z" fill="#FEE762"/>
<path d="M66.4541 29.9609H59.1582V37.2812H66.4541V29.9609Z" fill="#F9AF3C"/>
<path d="M73.749 29.9609H66.4531V37.2812H73.749V29.9609Z" fill="#45262F"/>
<path d="M81.0454 29.9609H73.7495V37.2812H81.0454V29.9609Z" fill="#964035"/>
<path d="M88.3403 29.9609H81.0444V37.2812H88.3403V29.9609Z" fill="#964035"/>
<path d="M95.6362 29.9609H88.3403V37.2812H95.6362V29.9609Z" fill="#964035"/>
<path d="M102.932 29.9609H95.636V37.2812H102.932V29.9609Z" fill="#964035"/>
<path d="M110.228 29.9609H102.932V37.2812H110.228V29.9609Z" fill="#964035"/>
<path d="M117.522 29.9609H110.226V37.2812H117.522V29.9609Z" fill="#964035"/>
<path d="M124.818 29.9609H117.522V37.2812H124.818V29.9609Z" fill="#964035"/>
<path d="M132.113 29.9609H124.817V37.2812H132.113V29.9609Z" fill="#964035"/>
<path d="M139.409 29.9609H132.113V37.2812H139.409V29.9609Z" fill="#AF6B6B"/>
<path d="M146.705 29.9609H139.409V37.2812H146.705V29.9609Z" fill="#AF6B6B"/>
<path d="M154 29.9609H146.705V37.2812H154V29.9609Z" fill="#AF6B6B"/>
<path d="M161.296 29.9609H154V37.2812H161.296V29.9609Z" fill="#45262F"/>
<path d="M168.592 29.9609H161.296V37.2812H168.592V29.9609Z" fill="#FEE762"/>
<path d="M175.887 29.9609H168.591V37.2812H175.887V29.9609Z" fill="#F9AF3C"/>
<path d="M183.184 29.9609H175.888V37.2812H183.184V29.9609Z" fill="#FEE762"/>
<path d="M190.479 29.9609H183.183V37.2812H190.479V29.9609Z" fill="#F9AF3C"/>
<path d="M197.774 29.9609H190.478V37.2812H197.774V29.9609Z" fill="#45262F"/>
<path d="M212.366 29.9609H205.07V37.2812H212.366V29.9609Z" fill="#45262F"/>
<path d="M22.6794 37.2803H15.3835V44.6005H22.6794V37.2803Z" fill="#45262F"/>
<path d="M37.2717 37.2803H29.9758V44.6005H37.2717V37.2803Z" fill="#45262F"/>
<path d="M44.5659 37.2803H37.27V44.6005H44.5659V37.2803Z" fill="#FEE762"/>
<path d="M51.8625 37.2803H44.5667V44.6005H51.8625V37.2803Z" fill="#FEE762"/>
<path d="M59.1582 37.2803H51.8623V44.6005H59.1582V37.2803Z" fill="#FEE762"/>
<path d="M66.4541 37.2803H59.1582V44.6005H66.4541V37.2803Z" fill="#FEE762"/>
<path d="M73.749 37.2803H66.4531V44.6005H73.749V37.2803Z" fill="#45262F"/>
<path d="M81.0454 37.2803H73.7495V44.6005H81.0454V37.2803Z" fill="#AF6B6B"/>
<path d="M88.3403 37.2803H81.0444V44.6005H88.3403V37.2803Z" fill="#AF6B6B"/>
<path d="M95.6362 37.2803H88.3403V44.6005H95.6362V37.2803Z" fill="#AF6B6B"/>
<path d="M102.932 37.2803H95.636V44.6005H102.932V37.2803Z" fill="#AF6B6B"/>
<path d="M110.228 37.2803H102.932V44.6005H110.228V37.2803Z" fill="#964035"/>
<path d="M117.522 37.2803H110.226V44.6005H117.522V37.2803Z" fill="#964035"/>
<path d="M124.818 37.2803H117.522V44.6005H124.818V37.2803Z" fill="#964035"/>
<path d="M132.113 37.2803H124.817V44.6005H132.113V37.2803Z" fill="#964035"/>
<path d="M139.409 37.2803H132.113V44.6005H139.409V37.2803Z" fill="#964035"/>
<path d="M146.705 37.2803H139.409V44.6005H146.705V37.2803Z" fill="#964035"/>
<path d="M154 37.2803H146.705V44.6005H154V37.2803Z" fill="#964035"/>
<path d="M161.296 37.2803H154V44.6005H161.296V37.2803Z" fill="#45262F"/>
<path d="M168.592 37.2803H161.296V44.6005H168.592V37.2803Z" fill="#FEE762"/>
<path d="M175.887 37.2803H168.591V44.6005H175.887V37.2803Z" fill="#FEE762"/>
<path d="M183.184 37.2803H175.888V44.6005H183.184V37.2803Z" fill="#FEE762"/>
<path d="M190.479 37.2803H183.183V44.6005H190.479V37.2803Z" fill="#FEE762"/>
<path d="M197.774 37.2803H190.478V44.6005H197.774V37.2803Z" fill="#45262F"/>
<path d="M212.366 37.2803H205.07V44.6005H212.366V37.2803Z" fill="#45262F"/>
<path d="M15.3845 44.6006H8.08862V51.9208H15.3845V44.6006Z" fill="#F9AF3C"/>
<path d="M22.6794 44.6006H15.3835V51.9208H22.6794V44.6006Z" fill="#45262F"/>
<path d="M37.2717 44.6006H29.9758V51.9208H37.2717V44.6006Z" fill="#45262F"/>
<path d="M44.5659 44.6006H37.27V51.9208H44.5659V44.6006Z" fill="#FEE762"/>
<path d="M51.8625 44.6006H44.5667V51.9208H51.8625V44.6006Z" fill="#FEE762"/>
<path d="M59.1582 44.6006H51.8623V51.9208H59.1582V44.6006Z" fill="#FEE762"/>
<path d="M66.4541 44.6006H59.1582V51.9208H66.4541V44.6006Z" fill="#FEE762"/>
<path d="M73.749 44.6006H66.4531V51.9208H73.749V44.6006Z" fill="#45262F"/>
<path d="M81.0454 44.6006H73.7495V51.9208H81.0454V44.6006Z" fill="#AF6B6B"/>
<path d="M88.3403 44.6006H81.0444V51.9208H88.3403V44.6006Z" fill="#AF6B6B"/>
<path d="M95.6362 44.6006H88.3403V51.9208H95.6362V44.6006Z" fill="#AF6B6B"/>
<path d="M102.932 44.6006H95.636V51.9208H102.932V44.6006Z" fill="#AF6B6B"/>
<path d="M110.228 44.6006H102.932V51.9208H110.228V44.6006Z" fill="#AF6B6B"/>
<path d="M117.522 44.6006H110.226V51.9208H117.522V44.6006Z" fill="#AF6B6B"/>
<path d="M124.818 44.6006H117.522V51.9208H124.818V44.6006Z" fill="#AF6B6B"/>
<path d="M132.113 44.6006H124.817V51.9208H132.113V44.6006Z" fill="#964035"/>
<path d="M139.409 44.6006H132.113V51.9208H139.409V44.6006Z" fill="#964035"/>
<path d="M146.705 44.6006H139.409V51.9208H146.705V44.6006Z" fill="#964035"/>
<path d="M154 44.6006H146.705V51.9208H154V44.6006Z" fill="#964035"/>
<path d="M161.296 44.6006H154V51.9208H161.296V44.6006Z" fill="#45262F"/>
<path d="M168.592 44.6006H161.296V51.9208H168.592V44.6006Z" fill="#FEE762"/>
<path d="M175.887 44.6006H168.591V51.9208H175.887V44.6006Z" fill="#FEE762"/>
<path d="M183.184 44.6006H175.888V51.9208H183.184V44.6006Z" fill="#FEE762"/>
<path d="M190.479 44.6006H183.183V51.9208H190.479V44.6006Z" fill="#FEE762"/>
<path d="M197.774 44.6006H190.478V51.9208H197.774V44.6006Z" fill="#45262F"/>
<path d="M212.366 44.6006H205.07V51.9208H212.366V44.6006Z" fill="#45262F"/>
<path d="M219.661 44.6006H212.365V51.9208H219.661V44.6006Z" fill="#F9AF3C"/>
<path d="M15.3845 51.9209H8.08862V59.2411H15.3845V51.9209Z" fill="#F9AF3C"/>
<path d="M22.6794 51.9209H15.3835V59.2411H22.6794V51.9209Z" fill="#45262F"/>
<path d="M37.2717 51.9209H29.9758V59.2411H37.2717V51.9209Z" fill="#45262F"/>
<path d="M44.5659 51.9209H37.27V59.2411H44.5659V51.9209Z" fill="#FEE762"/>
<path d="M51.8625 51.9209H44.5667V59.2411H51.8625V51.9209Z" fill="#FEE762"/>
<path d="M59.1582 51.9209H51.8623V59.2411H59.1582V51.9209Z" fill="#FEE762"/>
<path d="M66.4541 51.9209H59.1582V59.2411H66.4541V51.9209Z" fill="#FEE762"/>
<path d="M73.749 51.9209H66.4531V59.2411H73.749V51.9209Z" fill="#45262F"/>
<path d="M81.0454 51.9209H73.7495V59.2411H81.0454V51.9209Z" fill="#45262F"/>
<path d="M88.3403 51.9209H81.0444V59.2411H88.3403V51.9209Z" fill="#45262F"/>
<path d="M95.6362 51.9209H88.3403V59.2411H95.6362V51.9209Z" fill="#45262F"/>
<path d="M102.932 51.9209H95.636V59.2411H102.932V51.9209Z" fill="#45262F"/>
<path d="M110.228 51.9209H102.932V59.2411H110.228V51.9209Z" fill="#45262F"/>
<path d="M117.522 51.9209H110.226V59.2411H117.522V51.9209Z" fill="#45262F"/>
<path d="M124.818 51.9209H117.522V59.2411H124.818V51.9209Z" fill="#45262F"/>
<path d="M132.113 51.9209H124.817V59.2411H132.113V51.9209Z" fill="#45262F"/>
<path d="M139.409 51.9209H132.113V59.2411H139.409V51.9209Z" fill="#45262F"/>
<path d="M146.705 51.9209H139.409V59.2411H146.705V51.9209Z" fill="#45262F"/>
<path d="M154 51.9209H146.705V59.2411H154V51.9209Z" fill="#45262F"/>
<path d="M161.296 51.9209H154V59.2411H161.296V51.9209Z" fill="#45262F"/>
<path d="M168.592 51.9209H161.296V59.2411H168.592V51.9209Z" fill="#FEE762"/>
<path d="M175.887 51.9209H168.591V59.2411H175.887V51.9209Z" fill="#FEE762"/>
<path d="M183.184 51.9209H175.888V59.2411H183.184V51.9209Z" fill="#FEE762"/>
<path d="M190.479 51.9209H183.183V59.2411H190.479V51.9209Z" fill="#FEE762"/>
<path d="M197.774 51.9209H190.478V59.2411H197.774V51.9209Z" fill="#45262F"/>
<path d="M212.366 51.9209H205.07V59.2411H212.366V51.9209Z" fill="#45262F"/>
<path d="M219.661 51.9209H212.365V59.2411H219.661V51.9209Z" fill="#F9AF3C"/>
<path d="M15.3845 59.2412H8.08862V66.5614H15.3845V59.2412Z" fill="#F9AF3C"/>
<path d="M22.6794 59.2412H15.3835V66.5614H22.6794V59.2412Z" fill="#45262F"/>
<path d="M37.2717 59.2412H29.9758V66.5614H37.2717V59.2412Z" fill="#45262F"/>
<path d="M44.5659 59.2412H37.27V66.5614H44.5659V59.2412Z" fill="#FEE762"/>
<path d="M51.8625 59.2412H44.5667V66.5614H51.8625V59.2412Z" fill="#FEE762"/>
<path d="M59.1582 59.2412H51.8623V66.5614H59.1582V59.2412Z" fill="#FEE762"/>
<path d="M66.4541 59.2412H59.1582V66.5614H66.4541V59.2412Z" fill="#FEE762"/>
<path d="M73.749 59.2412H66.4531V66.5614H73.749V59.2412Z" fill="#45262F"/>
<path d="M81.0454 59.2412H73.7495V66.5614H81.0454V59.2412Z" fill="#AF6B6B"/>
<path d="M88.3403 59.2412H81.0444V66.5614H88.3403V59.2412Z" fill="#AF6B6B"/>
<path d="M95.6362 59.2412H88.3403V66.5614H95.6362V59.2412Z" fill="#AF6B6B"/>
<path d="M102.932 59.2412H95.636V66.5614H102.932V59.2412Z" fill="#964035"/>
<path d="M110.228 59.2412H102.932V66.5614H110.228V59.2412Z" fill="#964035"/>
<path d="M117.522 59.2412H110.226V66.5614H117.522V59.2412Z" fill="#964035"/>
<path d="M124.818 59.2412H117.522V66.5614H124.818V59.2412Z" fill="#964035"/>
<path d="M132.113 59.2412H124.817V66.5614H132.113V59.2412Z" fill="#964035"/>
<path d="M139.409 59.2412H132.113V66.5614H139.409V59.2412Z" fill="#964035"/>
<path d="M146.705 59.2412H139.409V66.5614H146.705V59.2412Z" fill="#964035"/>
<path d="M154 59.2412H146.705V66.5614H154V59.2412Z" fill="#964035"/>
<path d="M161.296 59.2412H154V66.5614H161.296V59.2412Z" fill="#45262F"/>
<path d="M168.592 59.2412H161.296V66.5614H168.592V59.2412Z" fill="#FEE762"/>
<path d="M175.887 59.2412H168.591V66.5614H175.887V59.2412Z" fill="#FEE762"/>
<path d="M183.184 59.2412H175.888V66.5614H183.184V59.2412Z" fill="#FEE762"/>
<path d="M190.479 59.2412H183.183V66.5614H190.479V59.2412Z" fill="#FEE762"/>
<path d="M197.774 59.2412H190.478V66.5614H197.774V59.2412Z" fill="#45262F"/>
<path d="M212.366 59.2412H205.07V66.5614H212.366V59.2412Z" fill="#45262F"/>
<path d="M219.661 59.2412H212.365V66.5614H219.661V59.2412Z" fill="#F9AF3C"/>
<path d="M15.3845 66.5605H8.08862V73.8808H15.3845V66.5605Z" fill="#F9AF3C"/>
<path d="M22.6794 66.5605H15.3835V73.8808H22.6794V66.5605Z" fill="#45262F"/>
<path d="M37.2717 66.5605H29.9758V73.8808H37.2717V66.5605Z" fill="#45262F"/>
<path d="M44.5659 66.5605H37.27V73.8808H44.5659V66.5605Z" fill="#F9AF3C"/>
<path d="M51.8625 66.5605H44.5667V73.8808H51.8625V66.5605Z" fill="#FEE762"/>
<path d="M59.1582 66.5605H51.8623V73.8808H59.1582V66.5605Z" fill="#F9AF3C"/>
<path d="M66.4541 66.5605H59.1582V73.8808H66.4541V66.5605Z" fill="#FEE762"/>
<path d="M73.749 66.5605H66.4531V73.8808H73.749V66.5605Z" fill="#45262F"/>
<path d="M81.0454 66.5605H73.7495V73.8808H81.0454V66.5605Z" fill="#964035"/>
<path d="M88.3403 66.5605H81.0444V73.8808H88.3403V66.5605Z" fill="#964035"/>
<path d="M95.6362 66.5605H88.3403V73.8808H95.6362V66.5605Z" fill="#964035"/>
<path d="M102.932 66.5605H95.636V73.8808H102.932V66.5605Z" fill="#964035"/>
<path d="M110.228 66.5605H102.932V73.8808H110.228V66.5605Z" fill="#F8F8F9"/>
<path d="M117.522 66.5605H110.226V73.8808H117.522V66.5605Z" fill="#F8F8F9"/>
<path d="M124.818 66.5605H117.522V73.8808H124.818V66.5605Z" fill="#F8F8F9"/>
<path d="M132.113 66.5605H124.817V73.8808H132.113V66.5605Z" fill="#964035"/>
<path d="M139.409 66.5605H132.113V73.8808H139.409V66.5605Z" fill="#964035"/>
<path d="M146.705 66.5605H139.409V73.8808H146.705V66.5605Z" fill="#964035"/>
<path d="M154 66.5605H146.705V73.8808H154V66.5605Z" fill="#964035"/>
<path d="M161.296 66.5605H154V73.8808H161.296V66.5605Z" fill="#45262F"/>
<path d="M168.592 66.5605H161.296V73.8808H168.592V66.5605Z" fill="#F9AF3C"/>
<path d="M175.887 66.5605H168.591V73.8808H175.887V66.5605Z" fill="#FEE762"/>
<path d="M183.184 66.5605H175.888V73.8808H183.184V66.5605Z" fill="#F9AF3C"/>
<path d="M190.479 66.5605H183.183V73.8808H190.479V66.5605Z" fill="#FEE762"/>
<path d="M197.774 66.5605H190.478V73.8808H197.774V66.5605Z" fill="#45262F"/>
<path d="M212.366 66.5605H205.07V73.8808H212.366V66.5605Z" fill="#45262F"/>
<path d="M219.661 66.5605H212.365V73.8808H219.661V66.5605Z" fill="#F9AF3C"/>
<path d="M15.3845 73.8809H8.08862V81.2011H15.3845V73.8809Z" fill="#F9AF3C"/>
<path d="M22.6794 73.8809H15.3835V81.2011H22.6794V73.8809Z" fill="#45262F"/>
<path d="M37.2717 73.8809H29.9758V81.2011H37.2717V73.8809Z" fill="#45262F"/>
<path d="M44.5659 73.8809H37.27V81.2011H44.5659V73.8809Z" fill="#F9AF3C"/>
<path d="M51.8625 73.8809H44.5667V81.2011H51.8625V73.8809Z" fill="#F9AF3C"/>
<path d="M59.1582 73.8809H51.8623V81.2011H59.1582V73.8809Z" fill="#F9AF3C"/>
<path d="M66.4541 73.8809H59.1582V81.2011H66.4541V73.8809Z" fill="#FEE762"/>
<path d="M73.749 73.8809H66.4531V81.2011H73.749V73.8809Z" fill="#45262F"/>
<path d="M81.0454 73.8809H73.7495V81.2011H81.0454V73.8809Z" fill="#964035"/>
<path d="M88.3403 73.8809H81.0444V81.2011H88.3403V73.8809Z" fill="#964035"/>
<path d="M95.6362 73.8809H88.3403V81.2011H95.6362V73.8809Z" fill="#964035"/>
<path d="M102.932 73.8809H95.636V81.2011H102.932V73.8809Z" fill="#F8F8F9"/>
<path d="M110.228 73.8809H102.932V81.2011H110.228V73.8809Z" fill="#77312B"/>
<path d="M117.522 73.8809H110.226V81.2011H117.522V73.8809Z" fill="#77312B"/>
<path d="M124.818 73.8809H117.522V81.2011H124.818V73.8809Z" fill="#77312B"/>
<path d="M132.113 73.8809H124.817V81.2011H132.113V73.8809Z" fill="#F8F8F9"/>
<path d="M139.409 73.8809H132.113V81.2011H139.409V73.8809Z" fill="#964035"/>
<path d="M146.705 73.8809H139.409V81.2011H146.705V73.8809Z" fill="#964035"/>
<path d="M154 73.8809H146.705V81.2011H154V73.8809Z" fill="#964035"/>
<path d="M161.296 73.8809H154V81.2011H161.296V73.8809Z" fill="#45262F"/>
<path d="M168.592 73.8809H161.296V81.2011H168.592V73.8809Z" fill="#F9AF3C"/>
<path d="M175.887 73.8809H168.591V81.2011H175.887V73.8809Z" fill="#F9AF3C"/>
<path d="M183.184 73.8809H175.888V81.2011H183.184V73.8809Z" fill="#F9AF3C"/>
<path d="M190.479 73.8809H183.183V81.2011H190.479V73.8809Z" fill="#FEE762"/>
<path d="M197.774 73.8809H190.478V81.2011H197.774V73.8809Z" fill="#45262F"/>
<path d="M212.366 73.8809H205.07V81.2011H212.366V73.8809Z" fill="#45262F"/>
<path d="M219.661 73.8809H212.365V81.2011H219.661V73.8809Z" fill="#F9AF3C"/>
<path d="M15.3845 81.2007H8.08862V88.5209H15.3845V81.2007Z" fill="#F9AF3C"/>
<path d="M22.6794 81.2007H15.3835V88.5209H22.6794V81.2007Z" fill="#45262F"/>
<path d="M37.2717 81.2007H29.9758V88.5209H37.2717V81.2007Z" fill="#45262F"/>
<path d="M44.5659 81.2007H37.27V88.5209H44.5659V81.2007Z" fill="#F9AF3C"/>
<path d="M51.8625 81.2007H44.5667V88.5209H51.8625V81.2007Z" fill="#F9AF3C"/>
<path d="M59.1582 81.2007H51.8623V88.5209H59.1582V81.2007Z" fill="#F9AF3C"/>
<path d="M66.4541 81.2007H59.1582V88.5209H66.4541V81.2007Z" fill="#F9AF3C"/>
<path d="M73.749 81.2007H66.4531V88.5209H73.749V81.2007Z" fill="#45262F"/>
<path d="M81.0454 81.2007H73.7495V88.5209H81.0454V81.2007Z" fill="#964035"/>
<path d="M88.3403 81.2007H81.0444V88.5209H88.3403V81.2007Z" fill="#77312B"/>
<path d="M95.6362 81.2007H88.3403V88.5209H95.6362V81.2007Z" fill="#9B9DAA"/>
<path d="M102.932 81.2007H95.636V88.5209H102.932V81.2007Z" fill="#F8F8F9"/>
<path d="M110.228 81.2007H102.932V88.5209H110.228V81.2007Z" fill="#9B9DAA"/>
<path d="M117.522 81.2007H110.226V88.5209H117.522V81.2007Z" fill="#9B9DAA"/>
<path d="M124.818 81.2007H117.522V88.5209H124.818V81.2007Z" fill="#9B9DAA"/>
<path d="M132.113 81.2007H124.817V88.5209H132.113V81.2007Z" fill="#F8F8F9"/>
<path d="M139.409 81.2007H132.113V88.5209H139.409V81.2007Z" fill="#9B9DAA"/>
<path d="M146.705 81.2007H139.409V88.5209H146.705V81.2007Z" fill="#964035"/>
<path d="M154 81.2007H146.705V88.5209H154V81.2007Z" fill="#77312B"/>
<path d="M161.296 81.2007H154V88.5209H161.296V81.2007Z" fill="#45262F"/>
<path d="M168.592 81.2007H161.296V88.5209H168.592V81.2007Z" fill="#F9AF3C"/>
<path d="M175.887 81.2007H168.591V88.5209H175.887V81.2007Z" fill="#F9AF3C"/>
<path d="M183.184 81.2007H175.888V88.5209H183.184V81.2007Z" fill="#F9AF3C"/>
<path d="M190.479 81.2007H183.183V88.5209H190.479V81.2007Z" fill="#F9AF3C"/>
<path d="M197.774 81.2007H190.478V88.5209H197.774V81.2007Z" fill="#45262F"/>
<path d="M212.366 81.2007H205.07V88.5209H212.366V81.2007Z" fill="#45262F"/>
<path d="M219.661 81.2007H212.365V88.5209H219.661V81.2007Z" fill="#F9AF3C"/>
<path d="M15.3845 88.52H8.08862V95.8402H15.3845V88.52Z" fill="#F9AF3C"/>
<path d="M22.6794 88.52H15.3835V95.8402H22.6794V88.52Z" fill="#45262F"/>
<path d="M37.2717 88.52H29.9758V95.8402H37.2717V88.52Z" fill="#45262F"/>
<path d="M44.5659 88.52H37.27V95.8402H44.5659V88.52Z" fill="#F9AF3C"/>
<path d="M51.8625 88.52H44.5667V95.8402H51.8625V88.52Z" fill="#F9AF3C"/>
<path d="M59.1582 88.52H51.8623V95.8402H59.1582V88.52Z" fill="#FA7322"/>
<path d="M66.4541 88.52H59.1582V95.8402H66.4541V88.52Z" fill="#F9AF3C"/>
<path d="M73.749 88.52H66.4531V95.8402H73.749V88.52Z" fill="#45262F"/>
<path d="M81.0454 88.52H73.7495V95.8402H81.0454V88.52Z" fill="#77312B"/>
<path d="M88.3403 88.52H81.0444V95.8402H88.3403V88.52Z" fill="#77312B"/>
<path d="M95.6362 88.52H88.3403V95.8402H95.6362V88.52Z" fill="#9B9DAA"/>
<path d="M102.932 88.52H95.636V95.8402H102.932V88.52Z" fill="black"/>
<path d="M110.228 88.52H102.932V95.8402H110.228V88.52Z" fill="#9B9DAA"/>
<path d="M117.522 88.52H110.226V95.8402H117.522V88.52Z" fill="#9B9DAA"/>
<path d="M124.818 88.52H117.522V95.8402H124.818V88.52Z" fill="#9B9DAA"/>
<path d="M132.113 88.52H124.817V95.8402H132.113V88.52Z" fill="black"/>
<path d="M139.409 88.52H132.113V95.8402H139.409V88.52Z" fill="#9B9DAA"/>
<path d="M146.705 88.52H139.409V95.8402H146.705V88.52Z" fill="#77312B"/>
<path d="M154 88.52H146.705V95.8402H154V88.52Z" fill="#77312B"/>
<path d="M161.296 88.52H154V95.8402H161.296V88.52Z" fill="#45262F"/>
<path d="M168.592 88.52H161.296V95.8402H168.592V88.52Z" fill="#F9AF3C"/>
<path d="M175.887 88.52H168.591V95.8402H175.887V88.52Z" fill="#FA7322"/>
<path d="M183.184 88.52H175.888V95.8402H183.184V88.52Z" fill="#F9AF3C"/>
<path d="M190.479 88.52H183.183V95.8402H190.479V88.52Z" fill="#F9AF3C"/>
<path d="M197.774 88.52H190.478V95.8402H197.774V88.52Z" fill="#45262F"/>
<path d="M212.366 88.52H205.07V95.8402H212.366V88.52Z" fill="#45262F"/>
<path d="M219.661 88.52H212.365V95.8402H219.661V88.52Z" fill="#F9AF3C"/>
<path d="M15.3845 95.8403H8.08862V103.161H15.3845V95.8403Z" fill="#F9AF3C"/>
<path d="M8.08887 44.6006H0.792969V51.9208H8.08887V44.6006Z" fill="#F9AF3C"/>
<path d="M8.08887 51.9209H0.792969V59.2411H8.08887V51.9209Z" fill="#F9AF3C"/>
<path d="M8.08887 59.2412H0.792969V66.5614H8.08887V59.2412Z" fill="#F9AF3C"/>
<path d="M8.08887 66.5605H0.792969V73.8808H8.08887V66.5605Z" fill="#F9AF3C"/>
<path d="M8.08887 73.8809H0.792969V81.2011H8.08887V73.8809Z" fill="#F9AF3C"/>
<path d="M8.08887 81.2007H0.792969V88.5209H8.08887V81.2007Z" fill="#F9AF3C"/>
<path d="M8.08887 88.52H0.792969V95.8402H8.08887V88.52Z" fill="#F9AF3C"/>
<path d="M8.08887 95.8403H0.792969V103.161H8.08887V95.8403Z" fill="#F9AF3C"/>
<path d="M22.6794 95.8403H15.3835V103.161H22.6794V95.8403Z" fill="#45262F"/>
<path d="M37.2717 95.8403H29.9758V103.161H37.2717V95.8403Z" fill="#45262F"/>
<path d="M44.5659 95.8403H37.27V103.161H44.5659V95.8403Z" fill="#F9AF3C"/>
<path d="M51.8625 95.8403H44.5667V103.161H51.8625V95.8403Z" fill="#FA7322"/>
<path d="M59.1582 95.8403H51.8623V103.161H59.1582V95.8403Z" fill="#FA7322"/>
<path d="M66.4541 95.8403H59.1582V103.161H66.4541V95.8403Z" fill="#F9AF3C"/>
<path d="M73.749 95.8403H66.4531V103.161H73.749V95.8403Z" fill="#45262F"/>
<path d="M81.0454 95.8403H73.7495V103.161H81.0454V95.8403Z" fill="#77312B"/>
<path d="M88.3403 95.8403H81.0444V103.161H88.3403V95.8403Z" fill="#77312B"/>
<path d="M95.6362 95.8403H88.3403V103.161H95.6362V95.8403Z" fill="#F8F8F9"/>
<path d="M102.932 95.8403H95.636V103.161H102.932V95.8403Z" fill="#F8F8F9"/>
<path d="M110.228 95.8403H102.932V103.161H110.228V95.8403Z" fill="#F8F8F9"/>
<path d="M117.522 95.8403H110.226V103.161H117.522V95.8403Z" fill="#F8F8F9"/>
<path d="M124.818 95.8403H117.522V103.161H124.818V95.8403Z" fill="#F8F8F9"/>
<path d="M132.113 95.8403H124.817V103.161H132.113V95.8403Z" fill="#9B9DAA"/>
<path d="M139.409 95.8403H132.113V103.161H139.409V95.8403Z" fill="#9B9DAA"/>
<path d="M146.705 95.8403H139.409V103.161H146.705V95.8403Z" fill="#77312B"/>
<path d="M154 95.8403H146.705V103.161H154V95.8403Z" fill="#77312B"/>
<path d="M161.296 95.8403H154V103.161H161.296V95.8403Z" fill="#45262F"/>
<path d="M168.592 95.8403H161.296V103.161H168.592V95.8403Z" fill="#F9AF3C"/>
<path d="M175.887 95.8403H168.591V103.161H175.887V95.8403Z" fill="#FA7322"/>
<path d="M183.184 95.8403H175.888V103.161H183.184V95.8403Z" fill="#FA7322"/>
<path d="M190.479 95.8403H183.183V103.161H190.479V95.8403Z" fill="#F9AF3C"/>
<path d="M197.774 95.8403H190.478V103.161H197.774V95.8403Z" fill="#45262F"/>
<path d="M212.366 95.8403H205.07V103.161H212.366V95.8403Z" fill="#45262F"/>
<path d="M219.661 95.8403H212.365V103.161H219.661V95.8403Z" fill="#F9AF3C"/>
<path d="M226.957 44.6006H219.661V51.9208H226.957V44.6006Z" fill="#F9AF3C"/>
<path d="M226.957 51.9209H219.661V59.2411H226.957V51.9209Z" fill="#F9AF3C"/>
<path d="M226.957 59.2412H219.661V66.5614H226.957V59.2412Z" fill="#F9AF3C"/>
<path d="M226.957 66.5605H219.661V73.8808H226.957V66.5605Z" fill="#F9AF3C"/>
<path d="M226.957 73.8809H219.661V81.2011H226.957V73.8809Z" fill="#F9AF3C"/>
<path d="M226.957 81.2007H219.661V88.5209H226.957V81.2007Z" fill="#F9AF3C"/>
<path d="M226.957 88.52H219.661V95.8402H226.957V88.52Z" fill="#F9AF3C"/>
<path d="M226.957 95.8403H219.661V103.161H226.957V95.8403Z" fill="#F9AF3C"/>
<path d="M8.08887 103.161H0.792969V110.481H8.08887V103.161Z" fill="#F9AF3C"/>
<path d="M15.3845 103.161H8.08862V110.481H15.3845V103.161Z" fill="#F9AF3C"/>
<path d="M22.6794 103.161H15.3835V110.481H22.6794V103.161Z" fill="#45262F"/>
<path d="M37.2717 103.161H29.9758V110.481H37.2717V103.161Z" fill="#45262F"/>
<path d="M44.5659 103.161H37.27V110.481H44.5659V103.161Z" fill="#FA7322"/>
<path d="M51.8625 103.161H44.5667V110.481H51.8625V103.161Z" fill="#FA7322"/>
<path d="M59.1582 103.161H51.8623V110.481H59.1582V103.161Z" fill="#FA7322"/>
<path d="M66.4541 103.161H59.1582V110.481H66.4541V103.161Z" fill="#FA7322"/>
<path d="M73.749 103.161H66.4531V110.481H73.749V103.161Z" fill="#45262F"/>
<path d="M81.0454 103.161H73.7495V110.481H81.0454V103.161Z" fill="#45262F"/>
<path d="M88.3403 103.161H81.0444V110.481H88.3403V103.161Z" fill="#45262F"/>
<path d="M95.6362 103.161H88.3403V110.481H95.6362V103.161Z" fill="#9B9DAA"/>
<path d="M102.932 103.161H95.636V110.481H102.932V103.161Z" fill="#9B9DAA"/>
<path d="M110.228 103.161H102.932V110.481H110.228V103.161Z" fill="#9B9DAA"/>
<path d="M117.522 103.161H110.226V110.481H117.522V103.161Z" fill="#9B9DAA"/>
<path d="M124.818 103.161H117.522V110.481H124.818V103.161Z" fill="#9B9DAA"/>
<path d="M132.113 103.161H124.817V110.481H132.113V103.161Z" fill="#9B9DAA"/>
<path d="M139.409 103.161H132.113V110.481H139.409V103.161Z" fill="#6A6C7B"/>
<path d="M146.705 103.161H139.409V110.481H146.705V103.161Z" fill="#45262F"/>
<path d="M154 103.161H146.705V110.481H154V103.161Z" fill="#45262F"/>
<path d="M161.296 103.161H154V110.481H161.296V103.161Z" fill="#45262F"/>
<path d="M168.592 103.161H161.296V110.481H168.592V103.161Z" fill="#FA7322"/>
<path d="M175.887 103.161H168.591V110.481H175.887V103.161Z" fill="#FA7322"/>
<path d="M183.184 103.161H175.888V110.481H183.184V103.161Z" fill="#FA7322"/>
<path d="M190.479 103.161H183.183V110.481H190.479V103.161Z" fill="#FA7322"/>
<path d="M197.774 103.161H190.478V110.481H197.774V103.161Z" fill="#45262F"/>
<path d="M212.366 103.161H205.07V110.481H212.366V103.161Z" fill="#45262F"/>
<path d="M219.661 103.161H212.365V110.481H219.661V103.161Z" fill="#F9AF3C"/>
<path d="M226.957 103.161H219.661V110.481H226.957V103.161Z" fill="#F9AF3C"/>
<path d="M8.08887 110.48H0.792969V117.8H8.08887V110.48Z" fill="#F9AF3C"/>
<path d="M15.3845 110.48H8.08862V117.8H15.3845V110.48Z" fill="#F9AF3C"/>
<path d="M22.6794 110.48H15.3835V117.8H22.6794V110.48Z" fill="#F9AF3C"/>
<path d="M37.2717 110.48H29.9758V117.8H37.2717V110.48Z" fill="#F9AF3C"/>
<path d="M44.5659 110.48H37.27V117.8H44.5659V110.48Z" fill="#F9AF3C"/>
<path d="M51.8625 110.48H44.5667V117.8H51.8625V110.48Z" fill="#F9AF3C"/>
<path d="M59.1582 110.48H51.8623V117.8H59.1582V110.48Z" fill="#F9AF3C"/>
<path d="M66.4541 110.48H59.1582V117.8H66.4541V110.48Z" fill="#F9AF3C"/>
<path d="M73.749 110.48H66.4531V117.8H73.749V110.48Z" fill="#F9AF3C"/>
<path d="M81.0454 110.48H73.7495V117.8H81.0454V110.48Z" fill="#F9AF3C"/>
<path d="M88.3403 110.48H81.0444V117.8H88.3403V110.48Z" fill="#F9AF3C"/>
<path d="M95.6362 110.48H88.3403V117.8H95.6362V110.48Z" fill="#9B9DAA"/>
<path d="M102.932 110.48H95.636V117.8H102.932V110.48Z" fill="#9B9DAA"/>
<path d="M110.228 110.48H102.932V117.8H110.228V110.48Z" fill="#9B9DAA"/>
<path d="M117.522 110.48H110.226V117.8H117.522V110.48Z" fill="black"/>
<path d="M124.818 110.48H117.522V117.8H124.818V110.48Z" fill="#9B9DAA"/>
<path d="M132.113 110.48H124.817V117.8H132.113V110.48Z" fill="#9B9DAA"/>
<path d="M139.409 110.48H132.113V117.8H139.409V110.48Z" fill="#6A6C7B"/>
<path d="M146.705 110.48H139.409V117.8H146.705V110.48Z" fill="#F9AF3C"/>
<path d="M154 110.48H146.705V117.8H154V110.48Z" fill="#F9AF3C"/>
<path d="M161.296 110.48H154V117.8H161.296V110.48Z" fill="#F9AF3C"/>
<path d="M168.592 110.48H161.296V117.8H168.592V110.48Z" fill="#F9AF3C"/>
<path d="M175.887 110.48H168.591V117.8H175.887V110.48Z" fill="#F9AF3C"/>
<path d="M183.184 110.48H175.888V117.8H183.184V110.48Z" fill="#F9AF3C"/>
<path d="M190.479 110.48H183.183V117.8H190.479V110.48Z" fill="#F9AF3C"/>
<path d="M197.774 110.48H190.478V117.8H197.774V110.48Z" fill="#F9AF3C"/>
<path d="M212.366 110.48H205.07V117.8H212.366V110.48Z" fill="#F9AF3C"/>
<path d="M219.661 110.48H212.365V117.8H219.661V110.48Z" fill="#F9AF3C"/>
<path d="M226.957 110.48H219.661V117.8H226.957V110.48Z" fill="#F9AF3C"/>
<path d="M8.08887 117.8H0.792969V125.121H8.08887V117.8Z" fill="#FA7322"/>
<path d="M15.3845 117.8H8.08862V125.121H15.3845V117.8Z" fill="#FA7322"/>
<path d="M22.6794 117.8H15.3835V125.121H22.6794V117.8Z" fill="#FA7322"/>
<path d="M29.9753 8.00146H22.6794V15.3217H29.9753V8.00146Z" fill="#45262F"/>
<path d="M29.9753 15.3208H22.6794V22.641H29.9753V15.3208Z" fill="#AF6B6B"/>
<path d="M29.9753 22.6411H22.6794V29.9613H29.9753V22.6411Z" fill="#964035"/>
<path d="M29.9753 29.9609H22.6794V37.2812H29.9753V29.9609Z" fill="#964035"/>
<path d="M29.9753 37.2803H22.6794V44.6005H29.9753V37.2803Z" fill="#AF6B6B"/>
<path d="M29.9753 44.6006H22.6794V51.9208H29.9753V44.6006Z" fill="#AF6B6B"/>
<path d="M29.9753 51.9209H22.6794V59.2411H29.9753V51.9209Z" fill="#45262F"/>
<path d="M29.9753 59.2412H22.6794V66.5614H29.9753V59.2412Z" fill="#AF6B6B"/>
<path d="M29.9753 66.5605H22.6794V73.8808H29.9753V66.5605Z" fill="#964035"/>
<path d="M29.9753 73.8809H22.6794V81.2011H29.9753V73.8809Z" fill="#964035"/>
<path d="M29.9753 81.2007H22.6794V88.5209H29.9753V81.2007Z" fill="#964035"/>
<path d="M29.9753 88.52H22.6794V95.8402H29.9753V88.52Z" fill="#77312B"/>
<path d="M29.9753 95.8403H22.6794V103.161H29.9753V95.8403Z" fill="#77312B"/>
<path d="M29.9753 103.161H22.6794V110.481H29.9753V103.161Z" fill="#45262F"/>
<path d="M29.9753 110.48H22.6794V117.8H29.9753V110.48Z" fill="#F9AF3C"/>
<path d="M29.9753 117.8H22.6794V125.121H29.9753V117.8Z" fill="#FA7322"/>
<path d="M37.2717 117.8H29.9758V125.121H37.2717V117.8Z" fill="#FA7322"/>
<path d="M44.5659 117.8H37.27V125.121H44.5659V117.8Z" fill="#FA7322"/>
<path d="M51.8625 117.8H44.5667V125.121H51.8625V117.8Z" fill="#FA7322"/>
<path d="M59.1582 117.8H51.8623V125.121H59.1582V117.8Z" fill="#FA7322"/>
<path d="M66.4541 117.8H59.1582V125.121H66.4541V117.8Z" fill="#FA7322"/>
<path d="M73.749 117.8H66.4531V125.121H73.749V117.8Z" fill="#FA7322"/>
<path d="M81.0454 117.8H73.7495V125.121H81.0454V117.8Z" fill="#FA7322"/>
<path d="M88.3403 117.8H81.0444V125.121H88.3403V117.8Z" fill="#FA7322"/>
<path d="M95.6362 117.8H88.3403V125.121H95.6362V117.8Z" fill="#9B9DAA"/>
<path d="M102.932 117.8H95.636V125.121H102.932V117.8Z" fill="#9B9DAA"/>
<path d="M110.228 117.8H102.932V125.121H110.228V117.8Z" fill="#9B9DAA"/>
<path d="M117.522 117.8H110.226V125.121H117.522V117.8Z" fill="black"/>
<path d="M124.818 117.8H117.522V125.121H124.818V117.8Z" fill="#9B9DAA"/>
<path d="M132.113 117.8H124.817V125.121H132.113V117.8Z" fill="#6A6C7B"/>
<path d="M139.409 117.8H132.113V125.121H139.409V117.8Z" fill="#6A6C7B"/>
<path d="M146.705 117.8H139.409V125.121H146.705V117.8Z" fill="#FA7322"/>
<path d="M154 117.8H146.705V125.121H154V117.8Z" fill="#FA7322"/>
<path d="M161.296 117.8H154V125.121H161.296V117.8Z" fill="#FA7322"/>
<path d="M168.592 117.8H161.296V125.121H168.592V117.8Z" fill="#FA7322"/>
<path d="M175.887 117.8H168.591V125.121H175.887V117.8Z" fill="#FA7322"/>
<path d="M183.184 117.8H175.888V125.121H183.184V117.8Z" fill="#FA7322"/>
<path d="M190.479 117.8H183.183V125.121H190.479V117.8Z" fill="#FA7322"/>
<path d="M197.774 117.8H190.478V125.121H197.774V117.8Z" fill="#FA7322"/>
<path d="M205.07 8.00146H197.774V15.3217H205.07V8.00146Z" fill="#45262F"/>
<path d="M205.07 15.3208H197.774V22.641H205.07V15.3208Z" fill="#964035"/>
<path d="M205.07 22.6411H197.774V29.9613H205.07V22.6411Z" fill="#AF6B6B"/>
<path d="M205.07 29.9609H197.774V37.2812H205.07V29.9609Z" fill="#AF6B6B"/>
<path d="M205.07 37.2803H197.774V44.6005H205.07V37.2803Z" fill="#964035"/>
<path d="M205.07 44.6006H197.774V51.9208H205.07V44.6006Z" fill="#964035"/>
<path d="M205.07 51.9209H197.774V59.2411H205.07V51.9209Z" fill="#45262F"/>
<path d="M205.07 59.2412H197.774V66.5614H205.07V59.2412Z" fill="#964035"/>
<path d="M205.07 66.5605H197.774V73.8808H205.07V66.5605Z" fill="#964035"/>
<path d="M205.07 73.8809H197.774V81.2011H205.07V73.8809Z" fill="#964035"/>
<path d="M205.07 81.2007H197.774V88.5209H205.07V81.2007Z" fill="#964035"/>
<path d="M205.07 88.52H197.774V95.8402H205.07V88.52Z" fill="#77312B"/>
<path d="M205.07 95.8403H197.774V103.161H205.07V95.8403Z" fill="#77312B"/>
<path d="M205.07 103.161H197.774V110.481H205.07V103.161Z" fill="#45262F"/>
<path d="M205.07 110.48H197.774V117.8H205.07V110.48Z" fill="#F9AF3C"/>
<path d="M205.07 117.8H197.774V125.121H205.07V117.8Z" fill="#FA7322"/>
<path d="M212.366 117.8H205.07V125.121H212.366V117.8Z" fill="#FA7322"/>
<path d="M219.661 117.8H212.365V125.121H219.661V117.8Z" fill="#FA7322"/>
<path d="M226.957 117.8H219.661V125.121H226.957V117.8Z" fill="#FA7322"/>
<path d="M29.9753 125.12H22.6794V132.44H29.9753V125.12Z" fill="#F9AF3C"/>
<path d="M37.2717 125.12H29.9758V132.44H37.2717V125.12Z" fill="#45262F"/>
<path d="M44.5659 125.12H37.27V132.44H44.5659V125.12Z" fill="#45262F"/>
<path d="M51.8625 125.12H44.5667V132.44H51.8625V125.12Z" fill="#45262F"/>
<path d="M59.1582 125.12H51.8623V132.44H59.1582V125.12Z" fill="#45262F"/>
<path d="M66.4541 125.12H59.1582V132.44H66.4541V125.12Z" fill="#45262F"/>
<path d="M73.749 125.12H66.4531V132.44H73.749V125.12Z" fill="#45262F"/>
<path d="M81.0454 125.12H73.7495V132.44H81.0454V125.12Z" fill="#45262F"/>
<path d="M88.3403 125.12H81.0444V132.44H88.3403V125.12Z" fill="#45262F"/>
<path d="M95.6362 125.12H88.3403V132.44H95.6362V125.12Z" fill="#9B9DAA"/>
<path d="M102.932 125.12H95.636V132.44H102.932V125.12Z" fill="#9B9DAA"/>
<path d="M110.228 125.12H102.932V132.44H110.228V125.12Z" fill="#9B9DAA"/>
<path d="M117.522 125.12H110.226V132.44H117.522V125.12Z" fill="#F8F8F9"/>
<path d="M124.818 125.12H117.522V132.44H124.818V125.12Z" fill="#9B9DAA"/>
<path d="M132.113 125.12H124.817V132.44H132.113V125.12Z" fill="#6A6C7B"/>
<path d="M139.409 125.12H132.113V132.44H139.409V125.12Z" fill="#6A6C7B"/>
<path d="M146.705 125.12H139.409V132.44H146.705V125.12Z" fill="#45262F"/>
<path d="M154 125.12H146.705V132.44H154V125.12Z" fill="#45262F"/>
<path d="M161.296 125.12H154V132.44H161.296V125.12Z" fill="#45262F"/>
<path d="M168.592 125.12H161.296V132.44H168.592V125.12Z" fill="#45262F"/>
<path d="M175.887 125.12H168.591V132.44H175.887V125.12Z" fill="#45262F"/>
<path d="M183.184 125.12H175.888V132.44H183.184V125.12Z" fill="#45262F"/>
<path d="M190.479 125.12H183.183V132.44H190.479V125.12Z" fill="#45262F"/>
<path d="M197.774 125.12H190.478V132.44H197.774V125.12Z" fill="#45262F"/>
<path d="M205.07 125.12H197.774V132.44H205.07V125.12Z" fill="#F9AF3C"/>
<path d="M29.9753 147.08H22.6794V154.4H29.9753V147.08Z" fill="#F9AF3C"/>
<path d="M37.2717 147.08H29.9758V154.4H37.2717V147.08Z" fill="#45262F"/>
<path d="M44.5659 147.08H37.27V154.4H44.5659V147.08Z" fill="#77312B"/>
<path d="M51.8625 147.08H44.5667V154.4H51.8625V147.08Z" fill="#77312B"/>
<path d="M59.1582 147.08H51.8623V154.4H59.1582V147.08Z" fill="#77312B"/>
<path d="M66.4541 147.08H59.1582V154.4H66.4541V147.08Z" fill="#77312B"/>
<path d="M73.749 147.08H66.4531V154.4H73.749V147.08Z" fill="#45262F"/>
<path d="M81.0454 147.08H73.7495V154.4H81.0454V147.08Z" fill="#77312B"/>
<path d="M88.3403 147.08H81.0444V154.4H88.3403V147.08Z" fill="#77312B"/>
<path d="M95.6362 147.08H88.3403V154.4H95.6362V147.08Z" fill="#77312B"/>
<path d="M102.932 147.08H95.636V154.4H102.932V147.08Z" fill="#964035"/>
<path d="M110.228 147.08H102.932V154.4H110.228V147.08Z" fill="#964035"/>
<path d="M117.522 147.08H110.226V154.4H117.522V147.08Z" fill="#964035"/>
<path d="M124.818 147.08H117.522V154.4H124.818V147.08Z" fill="#964035"/>
<path d="M132.113 147.08H124.817V154.4H132.113V147.08Z" fill="#77312B"/>
<path d="M139.409 147.08H132.113V154.4H139.409V147.08Z" fill="#77312B"/>
<path d="M146.705 147.08H139.409V154.4H146.705V147.08Z" fill="#77312B"/>
<path d="M154 147.08H146.705V154.4H154V147.08Z" fill="#77312B"/>
<path d="M161.296 147.08H154V154.4H161.296V147.08Z" fill="#45262F"/>
<path d="M168.592 147.08H161.296V154.4H168.592V147.08Z" fill="#77312B"/>
<path d="M175.887 147.08H168.591V154.4H175.887V147.08Z" fill="#77312B"/>
<path d="M183.184 147.08H175.888V154.4H183.184V147.08Z" fill="#77312B"/>
<path d="M190.479 147.08H183.183V154.4H190.479V147.08Z" fill="#964035"/>
<path d="M197.774 147.08H190.478V154.4H197.774V147.08Z" fill="#45262F"/>
<path d="M205.07 147.08H197.774V154.4H205.07V147.08Z" fill="#F9AF3C"/>
<path d="M29.9753 154.399H22.6794V161.719H29.9753V154.399Z" fill="#F9AF3C"/>
<path d="M37.2717 154.399H29.9758V161.719H37.2717V154.399Z" fill="#77312B"/>
<path d="M44.5659 154.399H37.27V161.719H44.5659V154.399Z" fill="#77312B"/>
<path d="M51.8625 154.399H44.5667V161.719H51.8625V154.399Z" fill="#77312B"/>
<path d="M59.1582 154.399H51.8623V161.719H59.1582V154.399Z" fill="#77312B"/>
<path d="M66.4541 154.399H59.1582V161.719H66.4541V154.399Z" fill="#77312B"/>
<path d="M73.749 154.399H66.4531V161.719H73.749V154.399Z" fill="#45262F"/>
<path d="M81.0454 154.399H73.7495V161.719H81.0454V154.399Z" fill="#77312B"/>
<path d="M88.3403 154.399H81.0444V161.719H88.3403V154.399Z" fill="#77312B"/>
<path d="M95.6362 154.399H88.3403V161.719H95.6362V154.399Z" fill="#77312B"/>
<path d="M102.932 154.399H95.636V161.719H102.932V154.399Z" fill="#77312B"/>
<path d="M110.228 154.399H102.932V161.719H110.228V154.399Z" fill="#77312B"/>
<path d="M117.522 154.399H110.226V161.719H117.522V154.399Z" fill="#77312B"/>
<path d="M124.818 154.399H117.522V161.719H124.818V154.399Z" fill="#77312B"/>
<path d="M132.113 154.399H124.817V161.719H132.113V154.399Z" fill="#77312B"/>
<path d="M139.409 154.399H132.113V161.719H139.409V154.399Z" fill="#77312B"/>
<path d="M146.705 154.399H139.409V161.719H146.705V154.399Z" fill="#77312B"/>
<path d="M154 154.399H146.705V161.719H154V154.399Z" fill="#77312B"/>
<path d="M161.296 154.399H154V161.719H161.296V154.399Z" fill="#77312B"/>
<path d="M168.592 154.399H161.296V161.719H168.592V154.399Z" fill="#77312B"/>
<path d="M175.887 154.399H168.591V161.719H175.887V154.399Z" fill="#77312B"/>
<path d="M183.184 154.399H175.888V161.719H183.184V154.399Z" fill="#77312B"/>
<path d="M190.479 154.399H183.183V161.719H190.479V154.399Z" fill="#77312B"/>
<path d="M197.774 154.399H190.478V161.719H197.774V154.399Z" fill="#45262F"/>
<path d="M205.07 154.399H197.774V161.719H205.07V154.399Z" fill="#F9AF3C"/>
<path d="M29.9753 161.72H22.6794V169.04H29.9753V161.72Z" fill="#F9AF3C"/>
<path d="M37.2717 161.72H29.9758V169.04H37.2717V161.72Z" fill="#45262F"/>
<path d="M44.5659 161.72H37.27V169.04H44.5659V161.72Z" fill="#77312B"/>
<path d="M51.8625 161.72H44.5667V169.04H51.8625V161.72Z" fill="#77312B"/>
<path d="M59.1582 161.72H51.8623V169.04H59.1582V161.72Z" fill="#77312B"/>
<path d="M66.4541 161.72H59.1582V169.04H66.4541V161.72Z" fill="#77312B"/>
<path d="M73.749 161.72H66.4531V169.04H73.749V161.72Z" fill="#77312B"/>
<path d="M81.0454 161.72H73.7495V169.04H81.0454V161.72Z" fill="#77312B"/>
<path d="M88.3403 161.72H81.0444V169.04H88.3403V161.72Z" fill="#77312B"/>
<path d="M95.6362 161.72H88.3403V169.04H95.6362V161.72Z" fill="#77312B"/>
<path d="M102.932 161.72H95.636V169.04H102.932V161.72Z" fill="#77312B"/>
<path d="M110.228 161.72H102.932V169.04H110.228V161.72Z" fill="#77312B"/>
<path d="M117.522 161.72H110.226V169.04H117.522V161.72Z" fill="#77312B"/>
<path d="M124.818 161.72H117.522V169.04H124.818V161.72Z" fill="#77312B"/>
<path d="M132.113 161.72H124.817V169.04H132.113V161.72Z" fill="#77312B"/>
<path d="M139.409 161.72H132.113V169.04H139.409V161.72Z" fill="#77312B"/>
<path d="M146.705 161.72H139.409V169.04H146.705V161.72Z" fill="#77312B"/>
<path d="M154 161.72H146.705V169.04H154V161.72Z" fill="#77312B"/>
<path d="M161.296 161.72H154V169.04H161.296V161.72Z" fill="#45262F"/>
<path d="M168.592 161.72H161.296V169.04H168.592V161.72Z" fill="#77312B"/>
<path d="M175.887 161.72H168.591V169.04H175.887V161.72Z" fill="#77312B"/>
<path d="M183.184 161.72H175.888V169.04H183.184V161.72Z" fill="#77312B"/>
<path d="M190.479 161.72H183.183V169.04H190.479V161.72Z" fill="#77312B"/>
<path d="M197.774 161.72H190.478V169.04H197.774V161.72Z" fill="#77312B"/>
<path d="M205.07 161.72H197.774V169.04H205.07V161.72Z" fill="#F9AF3C"/>
<path d="M29.9753 169.04H22.6794V176.36H29.9753V169.04Z" fill="#F9AF3C"/>
<path d="M37.2717 169.04H29.9758V176.36H37.2717V169.04Z" fill="#45262F"/>
<path d="M44.5659 169.04H37.27V176.36H44.5659V169.04Z" fill="#77312B"/>
<path d="M51.8625 169.04H44.5667V176.36H51.8625V169.04Z" fill="#77312B"/>
<path d="M59.1582 169.04H51.8623V176.36H59.1582V169.04Z" fill="#77312B"/>
<path d="M66.4541 169.04H59.1582V176.36H66.4541V169.04Z" fill="#77312B"/>
<path d="M73.749 169.04H66.4531V176.36H73.749V169.04Z" fill="#45262F"/>
<path d="M81.0454 169.04H73.7495V176.36H81.0454V169.04Z" fill="#77312B"/>
<path d="M88.3403 169.04H81.0444V176.36H88.3403V169.04Z" fill="#77312B"/>
<path d="M95.6362 169.04H88.3403V176.36H95.6362V169.04Z" fill="#77312B"/>
<path d="M102.932 169.04H95.636V176.36H102.932V169.04Z" fill="#77312B"/>
<path d="M110.228 169.04H102.932V176.36H110.228V169.04Z" fill="#77312B"/>
<path d="M117.522 169.04H110.226V176.36H117.522V169.04Z" fill="#77312B"/>
<path d="M124.818 169.04H117.522V176.36H124.818V169.04Z" fill="#77312B"/>
<path d="M132.113 169.04H124.817V176.36H132.113V169.04Z" fill="#77312B"/>
<path d="M139.409 169.04H132.113V176.36H139.409V169.04Z" fill="#77312B"/>
<path d="M146.705 169.04H139.409V176.36H146.705V169.04Z" fill="#77312B"/>
<path d="M154 169.04H146.705V176.36H154V169.04Z" fill="#77312B"/>
<path d="M161.296 169.04H154V176.36H161.296V169.04Z" fill="#45262F"/>
<path d="M168.592 169.04H161.296V176.36H168.592V169.04Z" fill="#77312B"/>
<path d="M175.887 169.04H168.591V176.36H175.887V169.04Z" fill="#77312B"/>
<path d="M183.184 169.04H175.888V176.36H183.184V169.04Z" fill="#77312B"/>
<path d="M190.479 169.04H183.183V176.36H190.479V169.04Z" fill="#77312B"/>
<path d="M197.774 169.04H190.478V176.36H197.774V169.04Z" fill="#45262F"/>
<path d="M205.07 169.04H197.774V176.36H205.07V169.04Z" fill="#F9AF3C"/>
<path d="M37.2717 176.359H29.9758V183.68H37.2717V176.359Z" fill="#F9AF3C"/>
<path d="M29.9753 176.359H22.6794V183.68H29.9753V176.359Z" fill="#F9AF3C"/>
<path d="M22.6794 125.12H15.3835V132.44H22.6794V125.12Z" fill="#F9AF3C"/>
<path d="M22.6794 147.08H15.3835V154.4H22.6794V147.08Z" fill="#F9AF3C"/>
<path d="M22.6794 154.399H15.3835V161.719H22.6794V154.399Z" fill="#F9AF3C"/>
<path d="M22.6794 161.72H15.3835V169.04H22.6794V161.72Z" fill="#F9AF3C"/>
<path d="M22.6794 169.04H15.3835V176.36H22.6794V169.04Z" fill="#F9AF3C"/>
<path d="M22.6794 176.359H15.3835V183.68H22.6794V176.359Z" fill="#F9AF3C"/>
<path d="M44.5659 176.359H37.27V183.68H44.5659V176.359Z" fill="#F9AF3C"/>
<path d="M51.8625 176.359H44.5667V183.68H51.8625V176.359Z" fill="#F9AF3C"/>
<path d="M59.1582 176.359H51.8623V183.68H59.1582V176.359Z" fill="#F9AF3C"/>
<path d="M66.4541 176.359H59.1582V183.68H66.4541V176.359Z" fill="#F9AF3C"/>
<path d="M73.749 176.359H66.4531V183.68H73.749V176.359Z" fill="#F9AF3C"/>
<path d="M81.0454 176.359H73.7495V183.68H81.0454V176.359Z" fill="#F9AF3C"/>
<path d="M88.3403 176.359H81.0444V183.68H88.3403V176.359Z" fill="#F9AF3C"/>
<path d="M95.6362 176.359H88.3403V183.68H95.6362V176.359Z" fill="#F9AF3C"/>
<path d="M102.932 176.359H95.636V183.68H102.932V176.359Z" fill="#F9AF3C"/>
<path d="M110.228 176.359H102.932V183.68H110.228V176.359Z" fill="#F9AF3C"/>
<path d="M117.522 176.359H110.226V183.68H117.522V176.359Z" fill="#F9AF3C"/>
<path d="M124.818 176.359H117.522V183.68H124.818V176.359Z" fill="#F9AF3C"/>
<path d="M132.113 176.359H124.817V183.68H132.113V176.359Z" fill="#F9AF3C"/>
<path d="M139.409 176.359H132.113V183.68H139.409V176.359Z" fill="#F9AF3C"/>
<path d="M146.705 176.359H139.409V183.68H146.705V176.359Z" fill="#F9AF3C"/>
<path d="M154 176.359H146.705V183.68H154V176.359Z" fill="#F9AF3C"/>
<path d="M161.296 176.359H154V183.68H161.296V176.359Z" fill="#F9AF3C"/>
<path d="M168.592 176.359H161.296V183.68H168.592V176.359Z" fill="#F9AF3C"/>
<path d="M175.887 176.359H168.591V183.68H175.887V176.359Z" fill="#F9AF3C"/>
<path d="M183.184 176.359H175.888V183.68H183.184V176.359Z" fill="#F9AF3C"/>
<path d="M190.479 176.359H183.183V183.68H190.479V176.359Z" fill="#F9AF3C"/>
<path d="M197.774 176.359H190.478V183.68H197.774V176.359Z" fill="#F9AF3C"/>
<path d="M205.07 176.359H197.774V183.68H205.07V176.359Z" fill="#F9AF3C"/>
<path d="M212.366 125.12H205.07V132.44H212.366V125.12Z" fill="#F9AF3C"/>
<path d="M212.366 147.08H205.07V154.4H212.366V147.08Z" fill="#F9AF3C"/>
<path d="M29.9753 139.759H22.6794V147.079H29.9753V139.759Z" fill="#F9AF3C"/>
<path d="M37.2717 139.759H29.9758V147.079H37.2717V139.759Z" fill="#45262F"/>
<path d="M44.5659 139.759H37.27V147.079H44.5659V139.759Z" fill="#964035"/>
<path d="M51.8625 139.759H44.5667V147.079H51.8625V139.759Z" fill="#964035"/>
<path d="M59.1582 139.759H51.8623V147.079H59.1582V139.759Z" fill="#77312B"/>
<path d="M66.4541 139.759H59.1582V147.079H66.4541V139.759Z" fill="#77312B"/>
<path d="M73.749 139.759H66.4531V147.079H73.749V139.759Z" fill="#45262F"/>
<path d="M81.0454 139.759H73.7495V147.079H81.0454V139.759Z" fill="#77312B"/>
<path d="M88.3403 139.759H81.0444V147.079H88.3403V139.759Z" fill="#964035"/>
<path d="M95.6362 139.759H88.3403V147.079H95.6362V139.759Z" fill="#964035"/>
<path d="M102.932 139.759H95.636V147.079H102.932V139.759Z" fill="#9B9DAA"/>
<path d="M110.228 139.759H102.932V147.079H110.228V139.759Z" fill="#9B9DAA"/>
<path d="M117.522 139.759H110.226V147.079H117.522V139.759Z" fill="#6A6C7B"/>
<path d="M124.818 139.759H117.522V147.079H124.818V139.759Z" fill="#6A6C7B"/>
<path d="M132.113 139.759H124.817V147.079H132.113V139.759Z" fill="#6A6C7B"/>
<path d="M139.409 139.759H132.113V147.079H139.409V139.759Z" fill="#964035"/>
<path d="M146.705 139.759H139.409V147.079H146.705V139.759Z" fill="#77312B"/>
<path d="M154 139.759H146.705V147.079H154V139.759Z" fill="#77312B"/>
<path d="M161.296 139.759H154V147.079H161.296V139.759Z" fill="#45262F"/>
<path d="M168.592 139.759H161.296V147.079H168.592V139.759Z" fill="#77312B"/>
<path d="M175.887 139.759H168.591V147.079H175.887V139.759Z" fill="#964035"/>
<path d="M183.184 139.759H175.888V147.079H183.184V139.759Z" fill="#964035"/>
<path d="M190.479 139.759H183.183V147.079H190.479V139.759Z" fill="#964035"/>
<path d="M197.774 139.759H190.478V147.079H197.774V139.759Z" fill="#45262F"/>
<path d="M205.07 139.759H197.774V147.079H205.07V139.759Z" fill="#F9AF3C"/>
<path d="M22.6794 139.759H15.3835V147.079H22.6794V139.759Z" fill="#F9AF3C"/>
<path d="M212.366 139.759H205.07V147.079H212.366V139.759Z" fill="#F9AF3C"/>
<path d="M29.9753 132.439H22.6794V139.759H29.9753V132.439Z" fill="#F9AF3C"/>
<path d="M37.2717 132.439H29.9758V139.759H37.2717V132.439Z" fill="#45262F"/>
<path d="M44.5659 132.439H37.27V139.759H44.5659V132.439Z" fill="#964035"/>
<path d="M51.8625 132.439H44.5667V139.759H51.8625V132.439Z" fill="#964035"/>
<path d="M59.1582 132.439H51.8623V139.759H59.1582V132.439Z" fill="#964035"/>
<path d="M66.4541 132.439H59.1582V139.759H66.4541V132.439Z" fill="#964035"/>
<path d="M73.749 132.439H66.4531V139.759H73.749V132.439Z" fill="#45262F"/>
<path d="M81.0454 132.439H73.7495V139.759H81.0454V132.439Z" fill="#964035"/>
<path d="M88.3403 132.439H81.0444V139.759H88.3403V132.439Z" fill="#964035"/>
<path d="M95.6362 132.439H88.3403V139.759H95.6362V132.439Z" fill="#9B9DAA"/>
<path d="M102.932 132.439H95.636V139.759H102.932V132.439Z" fill="#9B9DAA"/>
<path d="M110.228 132.439H102.932V139.759H110.228V132.439Z" fill="#9B9DAA"/>
<path d="M117.522 132.439H110.226V139.759H117.522V132.439Z" fill="#9B9DAA"/>
<path d="M124.818 132.439H117.522V139.759H124.818V132.439Z" fill="#9B9DAA"/>
<path d="M132.113 132.439H124.817V139.759H132.113V132.439Z" fill="#6A6C7B"/>
<path d="M139.409 132.439H132.113V139.759H139.409V132.439Z" fill="#6A6C7B"/>
<path d="M146.705 132.439H139.409V139.759H146.705V132.439Z" fill="#964035"/>
<path d="M154 132.439H146.705V139.759H154V132.439Z" fill="#964035"/>
<path d="M161.296 132.439H154V139.759H161.296V132.439Z" fill="#45262F"/>
<path d="M168.592 132.439H161.296V139.759H168.592V132.439Z" fill="#964035"/>
<path d="M175.887 132.439H168.591V139.759H175.887V132.439Z" fill="#964035"/>
<path d="M183.184 132.439H175.888V139.759H183.184V132.439Z" fill="#964035"/>
<path d="M190.479 132.439H183.183V139.759H190.479V132.439Z" fill="#964035"/>
<path d="M197.774 132.439H190.478V139.759H197.774V132.439Z" fill="#45262F"/>
<path d="M205.07 132.439H197.774V139.759H205.07V132.439Z" fill="#F9AF3C"/>
<path d="M22.6794 132.439H15.3835V139.759H22.6794V132.439Z" fill="#F9AF3C"/>
<path d="M212.366 132.439H205.07V139.759H212.366V132.439Z" fill="#F9AF3C"/>
<path d="M212.366 154.399H205.07V161.719H212.366V154.399Z" fill="#F9AF3C"/>
<path d="M212.366 161.72H205.07V169.04H212.366V161.72Z" fill="#F9AF3C"/>
<path d="M212.366 169.04H205.07V176.36H212.366V169.04Z" fill="#F9AF3C"/>
<path d="M212.366 176.359H205.07V183.68H212.366V176.359Z" fill="#F9AF3C"/>
<path d="M37.2717 183.679H29.9758V190.999H37.2717V183.679Z" fill="#F9AF3C"/>
<path d="M29.9753 183.679H22.6794V190.999H29.9753V183.679Z" fill="#F9AF3C"/>
<path d="M22.6794 183.679H15.3835V190.999H22.6794V183.679Z" fill="#F9AF3C"/>
<path d="M44.5659 183.679H37.27V190.999H44.5659V183.679Z" fill="#F9AF3C"/>
<path d="M51.8625 183.679H44.5667V190.999H51.8625V183.679Z" fill="#F9AF3C"/>
<path d="M59.1582 183.679H51.8623V190.999H59.1582V183.679Z" fill="#F9AF3C"/>
<path d="M66.4541 183.679H59.1582V190.999H66.4541V183.679Z" fill="#F9AF3C"/>
<path d="M73.749 183.679H66.4531V190.999H73.749V183.679Z" fill="#F9AF3C"/>
<path d="M81.0454 183.679H73.7495V190.999H81.0454V183.679Z" fill="#F9AF3C"/>
<path d="M88.3403 183.679H81.0444V190.999H88.3403V183.679Z" fill="#F9AF3C"/>
<path d="M95.6362 183.679H88.3403V190.999H95.6362V183.679Z" fill="#F9AF3C"/>
<path d="M102.932 183.679H95.636V190.999H102.932V183.679Z" fill="#F9AF3C"/>
<path d="M110.228 183.679H102.932V190.999H110.228V183.679Z" fill="#F9AF3C"/>
<path d="M117.522 183.679H110.226V190.999H117.522V183.679Z" fill="#F9AF3C"/>
<path d="M124.818 183.679H117.522V190.999H124.818V183.679Z" fill="#F9AF3C"/>
<path d="M132.113 183.679H124.817V190.999H132.113V183.679Z" fill="#F9AF3C"/>
<path d="M139.409 183.679H132.113V190.999H139.409V183.679Z" fill="#F9AF3C"/>
<path d="M146.705 183.679H139.409V190.999H146.705V183.679Z" fill="#F9AF3C"/>
<path d="M154 183.679H146.705V190.999H154V183.679Z" fill="#F9AF3C"/>
<path d="M161.296 183.679H154V190.999H161.296V183.679Z" fill="#F9AF3C"/>
<path d="M168.592 183.679H161.296V190.999H168.592V183.679Z" fill="#F9AF3C"/>
<path d="M175.887 183.679H168.591V190.999H175.887V183.679Z" fill="#F9AF3C"/>
<path d="M183.184 183.679H175.888V190.999H183.184V183.679Z" fill="#F9AF3C"/>
<path d="M190.479 183.679H183.183V190.999H190.479V183.679Z" fill="#F9AF3C"/>
<path d="M197.774 183.679H190.478V190.999H197.774V183.679Z" fill="#F9AF3C"/>
<path d="M205.07 183.679H197.774V190.999H205.07V183.679Z" fill="#F9AF3C"/>
<path d="M212.366 183.679H205.07V190.999H212.366V183.679Z" fill="#F9AF3C"/>
<path d="M37.2717 190.999H29.9758V198.319H37.2717V190.999Z" fill="#BD4B2F"/>
<path d="M29.9753 190.999H22.6794V198.319H29.9753V190.999Z" fill="#BD4B2F"/>
<path d="M22.6794 190.999H15.3835V198.319H22.6794V190.999Z" fill="#BD4B2F"/>
<path d="M44.5659 190.999H37.27V198.319H44.5659V190.999Z" fill="#BD4B2F"/>
<path d="M51.8625 190.999H44.5667V198.319H51.8625V190.999Z" fill="#BD4B2F"/>
<path d="M59.1582 190.999H51.8623V198.319H59.1582V190.999Z" fill="#BD4B2F"/>
<path d="M66.4541 190.999H59.1582V198.319H66.4541V190.999Z" fill="#BD4B2F"/>
<path d="M73.749 190.999H66.4531V198.319H73.749V190.999Z" fill="#BD4B2F"/>
<path d="M81.0454 190.999H73.7495V198.319H81.0454V190.999Z" fill="#BD4B2F"/>
<path d="M88.3403 190.999H81.0444V198.319H88.3403V190.999Z" fill="#BD4B2F"/>
<path d="M95.6362 190.999H88.3403V198.319H95.6362V190.999Z" fill="#BD4B2F"/>
<path d="M102.932 190.999H95.636V198.319H102.932V190.999Z" fill="#BD4B2F"/>
<path d="M110.228 190.999H102.932V198.319H110.228V190.999Z" fill="#BD4B2F"/>
<path d="M117.522 190.999H110.226V198.319H117.522V190.999Z" fill="#BD4B2F"/>
<path d="M124.818 190.999H117.522V198.319H124.818V190.999Z" fill="#BD4B2F"/>
<path d="M132.113 190.999H124.817V198.319H132.113V190.999Z" fill="#BD4B2F"/>
<path d="M139.409 190.999H132.113V198.319H139.409V190.999Z" fill="#BD4B2F"/>
<path d="M146.705 190.999H139.409V198.319H146.705V190.999Z" fill="#BD4B2F"/>
<path d="M154 190.999H146.705V198.319H154V190.999Z" fill="#BD4B2F"/>
<path d="M161.296 190.999H154V198.319H161.296V190.999Z" fill="#BD4B2F"/>
<path d="M168.592 190.999H161.296V198.319H168.592V190.999Z" fill="#BD4B2F"/>
<path d="M175.887 190.999H168.591V198.319H175.887V190.999Z" fill="#BD4B2F"/>
<path d="M183.184 190.999H175.888V198.319H183.184V190.999Z" fill="#BD4B2F"/>
<path d="M190.479 190.999H183.183V198.319H190.479V190.999Z" fill="#BD4B2F"/>
<path d="M197.774 190.999H190.478V198.319H197.774V190.999Z" fill="#BD4B2F"/>
<path d="M205.07 190.999H197.774V198.319H205.07V190.999Z" fill="#BD4B2F"/>
<path d="M212.366 190.999H205.07V198.319H212.366V190.999Z" fill="#BD4B2F"/>
</svg>
