<svg width="237" height="195" viewBox="0 0 237 195" fill="none" xmlns="http://www.w3.org/2000/svg">
<g clip-path="url(#clip0_792_25312)">
<path d="M236.159 185.295H227.417V194.074H236.159V185.295Z" fill="#F9ED19"/>
<path d="M236.159 176.516H227.417V185.295H236.159V176.516Z" fill="#F9ED19"/>
<path d="M236.159 167.73H227.417V176.509H236.159V167.73Z" fill="#F9ED19"/>
<path d="M236.159 106.279H227.417V115.058H236.159V106.279Z" fill="#F9ED19"/>
<path d="M236.159 97.5H227.417V106.279H236.159V97.5Z" fill="#F9ED19"/>
<path d="M236.159 88.7212H227.417V97.5H236.159V88.7212Z" fill="#FFF9C5"/>
<path d="M227.416 185.295H218.673V194.074H227.416V185.295Z" fill="#F9ED19"/>
<path d="M227.416 176.516H218.673V185.295H227.416V176.516Z" fill="#F4921E"/>
<path d="M227.416 167.73H218.673V176.509H227.416V167.73Z" fill="#F4921E"/>
<path d="M227.416 158.958H218.673V167.737H227.416V158.958Z" fill="#664929"/>
<path d="M227.416 150.18H218.673V158.959H227.416V150.18Z" fill="#7A572D"/>
<path d="M227.416 141.394H218.673V150.173H227.416V141.394Z" fill="#664929"/>
<path d="M227.416 132.615H218.673V141.394H227.416V132.615Z" fill="#493017"/>
<path d="M227.416 123.843H218.673V132.622H227.416V123.843Z" fill="#7A572D"/>
<path d="M227.416 115.058H218.673V123.836H227.416V115.058Z" fill="#664929"/>
<path d="M227.416 106.279H218.673V115.058H227.416V106.279Z" fill="#F4921E"/>
<path d="M227.416 97.5H218.673V106.279H227.416V97.5Z" fill="#F4921E"/>
<path d="M227.416 88.7212H218.673V97.5H227.416V88.7212Z" fill="#F9ED19"/>
<path d="M227.416 79.9424H218.673V88.7212H227.416V79.9424Z" fill="#D3771C"/>
<path d="M227.416 71.1636H218.673V79.9424H227.416V71.1636Z" fill="#F9ED19"/>
<path d="M227.416 62.3848H218.673V71.1636H227.416V62.3848Z" fill="#F9ED19"/>
<path d="M227.416 53.606H218.673V62.3848H227.416V53.606Z" fill="#FFF9C5"/>
<path d="M218.673 185.295H209.93V194.074H218.673V185.295Z" fill="#F9ED19"/>
<path d="M218.673 176.516H209.93V185.295H218.673V176.516Z" fill="#F4921E"/>
<path d="M218.673 167.73H209.93V176.509H218.673V167.73Z" fill="#35210F"/>
<path d="M218.673 158.958H209.93V167.737H218.673V158.958Z" fill="#664929"/>
<path d="M218.673 150.18H209.93V158.959H218.673V150.18Z" fill="#664929"/>
<path d="M218.673 141.394H209.93V150.173H218.673V141.394Z" fill="#7A572D"/>
<path d="M218.673 132.615H209.93V141.394H218.673V132.615Z" fill="#493017"/>
<path d="M218.673 123.843H209.93V132.622H218.673V123.843Z" fill="#7A572D"/>
<path d="M218.673 115.058H209.93V123.836H218.673V115.058Z" fill="#7A572D"/>
<path d="M218.673 106.279H209.93V115.058H218.673V106.279Z" fill="#664929"/>
<path d="M218.673 97.5H209.93V106.279H218.673V97.5Z" fill="#493017"/>
<path d="M218.673 88.7212H209.93V97.5H218.673V88.7212Z" fill="#F4921E"/>
<path d="M218.673 79.9424H209.93V88.7212H218.673V79.9424Z" fill="#D3771C"/>
<path d="M218.673 71.1636H209.93V79.9424H218.673V71.1636Z" fill="#F4921E"/>
<path d="M218.673 62.3848H209.93V71.1636H218.673V62.3848Z" fill="#F4921E"/>
<path d="M218.673 53.606H209.93V62.3848H218.673V53.606Z" fill="#F4921E"/>
<path d="M218.673 44.8203H209.93V53.5991H218.673V44.8203Z" fill="#F9ED19"/>
<path d="M218.673 36.0415H209.93V44.8203H218.673V36.0415Z" fill="#F9ED19"/>
<path d="M218.673 27.2695H209.93V36.0484H218.673V27.2695Z" fill="#FFF9C5"/>
<path d="M209.931 132.615H201.188V141.394H209.931V132.615Z" fill="#493017"/>
<path d="M209.931 123.843H201.188V132.622H209.931V123.843Z" fill="#7A572D"/>
<path d="M209.931 115.058H201.188V123.836H209.931V115.058Z" fill="#7A572D"/>
<path d="M209.931 106.279H201.188V115.058H209.931V106.279Z" fill="#664929"/>
<path d="M209.931 97.5H201.188V106.279H209.931V97.5Z" fill="#493017"/>
<path d="M209.931 88.7212H201.188V97.5H209.931V88.7212Z" fill="#7A572D"/>
<path d="M209.931 79.9424H201.188V88.7212H209.931V79.9424Z" fill="#7A572D"/>
<path d="M209.931 71.1636H201.188V79.9424H209.931V71.1636Z" fill="#7A572D"/>
<path d="M209.931 62.3848H201.188V71.1636H209.931V62.3848Z" fill="#7A572D"/>
<path d="M209.931 53.606H201.188V62.3848H209.931V53.606Z" fill="#493017"/>
<path d="M209.931 44.8203H201.188V53.5991H209.931V44.8203Z" fill="#F4921E"/>
<path d="M209.931 36.0415H201.188V44.8203H209.931V36.0415Z" fill="#F4921E"/>
<path d="M209.931 27.2695H201.188V36.0484H209.931V27.2695Z" fill="#F4921E"/>
<path d="M209.931 18.4839H201.188V27.2627H209.931V18.4839Z" fill="#FFF9C5"/>
<path d="M209.931 141.394H201.188V150.173H209.931V141.394Z" fill="#664929"/>
<path d="M209.931 150.18H201.188V158.959H209.931V150.18Z" fill="#7A572D"/>
<path d="M209.931 158.958H201.188V167.737H209.931V158.958Z" fill="#664929"/>
<path d="M209.931 167.73H201.188V176.509H209.931V167.73Z" fill="#35210F"/>
<path d="M209.931 176.516H201.188V185.295H209.931V176.516Z" fill="#563D23"/>
<path d="M209.931 185.295H201.188V194.074H209.931V185.295Z" fill="#F4921E"/>
<path d="M201.188 132.615H192.445V141.394H201.188V132.615Z" fill="#493017"/>
<path d="M201.188 123.843H192.445V132.622H201.188V123.843Z" fill="#7A572D"/>
<path d="M201.188 115.058H192.445V123.836H201.188V115.058Z" fill="#7A572D"/>
<path d="M201.188 106.279H192.445V115.058H201.188V106.279Z" fill="#664929"/>
<path d="M201.188 97.5H192.445V106.279H201.188V97.5Z" fill="#493017"/>
<path d="M201.188 88.7212H192.445V97.5H201.188V88.7212Z" fill="#7A572D"/>
<path d="M201.188 79.9424H192.445V88.7212H201.188V79.9424Z" fill="#7A572D"/>
<path d="M201.188 71.1636H192.445V79.9424H201.188V71.1636Z" fill="#7A572D"/>
<path d="M201.188 62.3848H192.445V71.1636H201.188V62.3848Z" fill="#7A572D"/>
<path d="M201.188 53.606H192.445V62.3848H201.188V53.606Z" fill="#493017"/>
<path d="M201.188 44.8203H192.445V53.5991H201.188V44.8203Z" fill="#7A572D"/>
<path d="M201.188 36.0415H192.445V44.8203H201.188V36.0415Z" fill="#8E683F"/>
<path d="M201.188 27.2695H192.445V36.0484H201.188V27.2695Z" fill="#5B3D22"/>
<path d="M201.188 18.4839H192.445V27.2627H201.188V18.4839Z" fill="#F4921E"/>
<path d="M201.188 9.70508H192.445V18.4839H201.188V9.70508Z" fill="#FFF9C5"/>
<path d="M201.188 185.295H192.445V194.074H201.188V185.295Z" fill="#563D23"/>
<path d="M192.445 185.295H183.702V194.074H192.445V185.295Z" fill="#563D23"/>
<path d="M201.188 176.516H192.445V185.295H201.188V176.516Z" fill="#563D23"/>
<path d="M192.445 176.516H183.702V185.295H192.445V176.516Z" fill="#563D23"/>
<path d="M201.188 167.73H192.445V176.509H201.188V167.73Z" fill="#35210F"/>
<path d="M192.445 167.73H183.702V176.509H192.445V167.73Z" fill="#35210F"/>
<path d="M201.188 158.958H192.445V167.737H201.188V158.958Z" fill="#664929"/>
<path d="M192.445 158.958H183.702V167.737H192.445V158.958Z" fill="#664929"/>
<path d="M201.188 150.18H192.445V158.959H201.188V150.18Z" fill="#664929"/>
<path d="M192.445 150.18H183.702V158.959H192.445V150.18Z" fill="#7A572D"/>
<path d="M201.188 141.394H192.445V150.173H201.188V141.394Z" fill="#7A572D"/>
<path d="M192.445 141.394H183.702V150.173H192.445V141.394Z" fill="#664929"/>
<path d="M192.445 132.615H183.702V141.394H192.445V132.615Z" fill="#493017"/>
<path d="M192.445 123.843H183.702V132.622H192.445V123.843Z" fill="#7A572D"/>
<path d="M192.445 115.058H183.702V123.836H192.445V115.058Z" fill="#7A572D"/>
<path d="M192.445 106.279H183.702V115.058H192.445V106.279Z" fill="#664929"/>
<path d="M192.445 97.5H183.702V106.279H192.445V97.5Z" fill="#493017"/>
<path d="M192.445 88.7212H183.702V97.5H192.445V88.7212Z" fill="#7A572D"/>
<path d="M192.445 79.9424H183.702V88.7212H192.445V79.9424Z" fill="#7A572D"/>
<path d="M192.445 71.1636H183.702V79.9424H192.445V71.1636Z" fill="#7A572D"/>
<path d="M192.445 62.3848H183.702V71.1636H192.445V62.3848Z" fill="#7A572D"/>
<path d="M192.445 53.606H183.702V62.3848H192.445V53.606Z" fill="#493017"/>
<path d="M192.445 44.8203H183.702V53.5991H192.445V44.8203Z" fill="#8E683F"/>
<path d="M192.445 36.0415H183.702V44.8203H192.445V36.0415Z" fill="#7A572D"/>
<path d="M192.445 27.2695H183.702V36.0484H192.445V27.2695Z" fill="#5B3D22"/>
<path d="M192.445 18.4839H183.702V27.2627H192.445V18.4839Z" fill="#8E683F"/>
<path d="M192.445 9.70508H183.702V18.4839H192.445V9.70508Z" fill="#F4921E"/>
<path d="M183.703 185.295H174.96V194.074H183.703V185.295Z" fill="#563D23"/>
<path d="M183.703 176.516H174.96V185.295H183.703V176.516Z" fill="#563D23"/>
<path d="M183.703 167.73H174.96V176.509H183.703V167.73Z" fill="#35210F"/>
<path d="M183.703 158.958H174.96V167.737H183.703V158.958Z" fill="#664929"/>
<path d="M183.703 150.18H174.96V158.959H183.703V150.18Z" fill="#664929"/>
<path d="M183.703 141.394H174.96V150.173H183.703V141.394Z" fill="#7A572D"/>
<path d="M183.703 132.615H174.96V141.394H183.703V132.615Z" fill="#493017"/>
<path d="M183.703 123.843H174.96V132.622H183.703V123.843Z" fill="#7A572D"/>
<path d="M183.703 115.058H174.96V123.836H183.703V115.058Z" fill="#7A572D"/>
<path d="M183.703 106.279H174.96V115.058H183.703V106.279Z" fill="#664929"/>
<path d="M183.703 97.5H174.96V106.279H183.703V97.5Z" fill="#493017"/>
<path d="M183.703 88.7212H174.96V97.5H183.703V88.7212Z" fill="#7A572D"/>
<path d="M183.703 79.9424H174.96V88.7212H183.703V79.9424Z" fill="#7A572D"/>
<path d="M183.703 71.1636H174.96V79.9424H183.703V71.1636Z" fill="#7A572D"/>
<path d="M183.703 62.3848H174.96V71.1636H183.703V62.3848Z" fill="#7A572D"/>
<path d="M183.703 53.606H174.96V62.3848H183.703V53.606Z" fill="#493017"/>
<path d="M183.703 44.8203H174.96V53.5991H183.703V44.8203Z" fill="#7A572D"/>
<path d="M183.703 36.0415H174.96V44.8203H183.703V36.0415Z" fill="#8E683F"/>
<path d="M183.703 27.2695H174.96V36.0484H183.703V27.2695Z" fill="#5B3D22"/>
<path d="M183.703 18.4839H174.96V27.2627H183.703V18.4839Z" fill="#8E683F"/>
<path d="M183.703 9.70508H174.96V18.4839H183.703V9.70508Z" fill="#8E683F"/>
<path d="M174.953 185.295H166.21V194.074H174.953V185.295Z" fill="#563D23"/>
<path d="M174.953 176.516H166.21V185.295H174.953V176.516Z" fill="#563D23"/>
<path d="M174.953 167.73H166.21V176.509H174.953V167.73Z" fill="#35210F"/>
<path d="M174.953 158.958H166.21V167.737H174.953V158.958Z" fill="#664929"/>
<path d="M174.953 150.18H166.21V158.959H174.953V150.18Z" fill="#7A572D"/>
<path d="M174.953 141.394H166.21V150.173H174.953V141.394Z" fill="#664929"/>
<path d="M174.953 132.615H166.21V141.394H174.953V132.615Z" fill="#493017"/>
<path d="M174.953 123.843H166.21V132.622H174.953V123.843Z" fill="#7A572D"/>
<path d="M174.953 115.058H166.21V123.836H174.953V115.058Z" fill="#7A572D"/>
<path d="M174.953 106.279H166.21V115.058H174.953V106.279Z" fill="#664929"/>
<path d="M174.953 97.5H166.21V106.279H174.953V97.5Z" fill="#493017"/>
<path d="M174.953 88.7212H166.21V97.5H174.953V88.7212Z" fill="#7A572D"/>
<path d="M174.953 79.9424H166.21V88.7212H174.953V79.9424Z" fill="#7A572D"/>
<path d="M174.953 71.1636H166.21V79.9424H174.953V71.1636Z" fill="#7A572D"/>
<path d="M174.953 62.3848H166.21V71.1636H174.953V62.3848Z" fill="#7A572D"/>
<path d="M174.953 53.606H166.21V62.3848H174.953V53.606Z" fill="#493017"/>
<path d="M174.953 44.8203H166.21V53.5991H174.953V44.8203Z" fill="#8E683F"/>
<path d="M174.953 36.0415H166.21V44.8203H174.953V36.0415Z" fill="#7A572D"/>
<path d="M174.953 27.2695H166.21V36.0484H174.953V27.2695Z" fill="#5B3D22"/>
<path d="M174.953 18.4839H166.21V27.2627H174.953V18.4839Z" fill="#8E683F"/>
<path d="M174.953 9.70508H166.21V18.4839H174.953V9.70508Z" fill="#8E683F"/>
<path d="M174.953 0.92627H166.21V9.70509H174.953V0.92627Z" fill="#5B3D22"/>
<path d="M166.21 185.295H157.467V194.074H166.21V185.295Z" fill="#563D23"/>
<path d="M166.21 176.516H157.467V185.295H166.21V176.516Z" fill="#563D23"/>
<path d="M166.21 167.73H157.467V176.509H166.21V167.73Z" fill="#35210F"/>
<path d="M166.21 158.958H157.467V167.737H166.21V158.958Z" fill="#664929"/>
<path d="M166.21 150.18H157.467V158.959H166.21V150.18Z" fill="#664929"/>
<path d="M166.21 141.394H157.467V150.173H166.21V141.394Z" fill="#7A572D"/>
<path d="M166.21 132.615H157.467V141.394H166.21V132.615Z" fill="#493017"/>
<path d="M166.21 123.843H157.467V132.622H166.21V123.843Z" fill="#7A572D"/>
<path d="M166.21 115.058H157.467V123.836H166.21V115.058Z" fill="#7A572D"/>
<path d="M166.21 106.279H157.467V115.058H166.21V106.279Z" fill="#664929"/>
<path d="M166.21 97.5H157.467V106.279H166.21V97.5Z" fill="#493017"/>
<path d="M166.21 88.7212H157.467V97.5H166.21V88.7212Z" fill="#7A572D"/>
<path d="M166.21 79.9424H157.467V88.7212H166.21V79.9424Z" fill="#7A572D"/>
<path d="M166.21 71.1636H157.467V79.9424H166.21V71.1636Z" fill="#7A572D"/>
<path d="M166.21 62.3848H157.467V71.1636H166.21V62.3848Z" fill="#7A572D"/>
<path d="M166.21 53.606H157.467V62.3848H166.21V53.606Z" fill="#493017"/>
<path d="M166.21 44.8203H157.467V53.5991H166.21V44.8203Z" fill="#7A572D"/>
<path d="M166.21 36.0415H157.467V44.8203H166.21V36.0415Z" fill="#8E683F"/>
<path d="M166.21 27.2695H157.467V36.0484H166.21V27.2695Z" fill="#5B3D22"/>
<path d="M166.21 18.4839H157.467V27.2627H166.21V18.4839Z" fill="#8E683F"/>
<path d="M166.21 9.70508H157.467V18.4839H166.21V9.70508Z" fill="#8E683F"/>
<path d="M166.21 0.92627H157.467V9.70509H166.21V0.92627Z" fill="#5B3D22"/>
<path d="M157.474 185.295H148.731V194.074H157.474V185.295Z" fill="#563D23"/>
<path d="M157.474 176.516H148.731V185.295H157.474V176.516Z" fill="#563D23"/>
<path d="M157.474 167.73H148.731V176.509H157.474V167.73Z" fill="#35210F"/>
<path d="M157.474 158.958H148.731V167.737H157.474V158.958Z" fill="#664929"/>
<path d="M157.474 150.18H148.731V158.959H157.474V150.18Z" fill="#7A572D"/>
<path d="M157.474 141.394H148.731V150.173H157.474V141.394Z" fill="#664929"/>
<path d="M157.474 132.615H148.731V141.394H157.474V132.615Z" fill="#493017"/>
<path d="M157.474 123.843H148.731V132.622H157.474V123.843Z" fill="#7A572D"/>
<path d="M157.474 115.058H148.731V123.836H157.474V115.058Z" fill="#7A572D"/>
<path d="M157.474 106.279H148.731V115.058H157.474V106.279Z" fill="#664929"/>
<path d="M157.474 97.5H148.731V106.279H157.474V97.5Z" fill="#493017"/>
<path d="M157.474 88.7212H148.731V97.5H157.474V88.7212Z" fill="#664929"/>
<path d="M157.474 79.9424H148.731V88.7212H157.474V79.9424Z" fill="#664929"/>
<path d="M157.474 71.1636H148.731V79.9424H157.474V71.1636Z" fill="#664929"/>
<path d="M157.474 62.3848H148.731V71.1636H157.474V62.3848Z" fill="#7A572D"/>
<path d="M157.474 53.606H148.731V62.3848H157.474V53.606Z" fill="#493017"/>
<path d="M157.474 44.8203H148.731V53.5991H157.474V44.8203Z" fill="#8E683F"/>
<path d="M157.474 36.0415H148.731V44.8203H157.474V36.0415Z" fill="#7A572D"/>
<path d="M157.474 27.2695H148.731V36.0484H157.474V27.2695Z" fill="#5B3D22"/>
<path d="M157.474 18.4839H148.731V27.2627H157.474V18.4839Z" fill="#8E683F"/>
<path d="M157.474 9.70508H148.731V18.4839H157.474V9.70508Z" fill="#8E683F"/>
<path d="M157.474 0.92627H148.731V9.70509H157.474V0.92627Z" fill="#5B3D22"/>
<path d="M148.724 185.295H139.981V194.074H148.724V185.295Z" fill="#563D23"/>
<path d="M148.724 176.516H139.981V185.295H148.724V176.516Z" fill="#563D23"/>
<path d="M148.724 167.73H139.981V176.509H148.724V167.73Z" fill="#35210F"/>
<path d="M148.724 158.958H139.981V167.737H148.724V158.958Z" fill="#664929"/>
<path d="M148.724 150.18H139.981V158.959H148.724V150.18Z" fill="#664929"/>
<path d="M148.724 141.394H139.981V150.173H148.724V141.394Z" fill="#7A572D"/>
<path d="M148.724 132.615H139.981V141.394H148.724V132.615Z" fill="#493017"/>
<path d="M148.724 123.843H139.981V132.622H148.724V123.843Z" fill="#7A572D"/>
<path d="M148.724 115.058H139.981V123.836H148.724V115.058Z" fill="#7A572D"/>
<path d="M148.724 106.279H139.981V115.058H148.724V106.279Z" fill="#664929"/>
<path d="M148.724 97.5H139.981V106.279H148.724V97.5Z" fill="#493017"/>
<path d="M148.724 88.7212H139.981V97.5H148.724V88.7212Z" fill="#F4921E"/>
<path d="M148.724 79.9424H139.981V88.7212H148.724V79.9424Z" fill="#F4921E"/>
<path d="M148.724 71.1636H139.981V79.9424H148.724V71.1636Z" fill="#F4921E"/>
<path d="M148.724 62.3848H139.981V71.1636H148.724V62.3848Z" fill="#664929"/>
<path d="M148.724 53.606H139.981V62.3848H148.724V53.606Z" fill="#493017"/>
<path d="M148.724 44.8203H139.981V53.5991H148.724V44.8203Z" fill="#7A572D"/>
<path d="M148.724 36.0415H139.981V44.8203H148.724V36.0415Z" fill="#8E683F"/>
<path d="M148.724 27.2695H139.981V36.0484H148.724V27.2695Z" fill="#5B3D22"/>
<path d="M148.724 18.4839H139.981V27.2627H148.724V18.4839Z" fill="#8E683F"/>
<path d="M148.724 9.70508H139.981V18.4839H148.724V9.70508Z" fill="#8E683F"/>
<path d="M148.724 0.92627H139.981V9.70509H148.724V0.92627Z" fill="#5B3D22"/>
<path d="M139.981 185.295H131.239V194.074H139.981V185.295Z" fill="#563D23"/>
<path d="M139.981 176.516H131.239V185.295H139.981V176.516Z" fill="#563D23"/>
<path d="M139.981 167.73H131.239V176.509H139.981V167.73Z" fill="#35210F"/>
<path d="M139.981 158.958H131.239V167.737H139.981V158.958Z" fill="#664929"/>
<path d="M139.981 150.18H131.239V158.959H139.981V150.18Z" fill="#7A572D"/>
<path d="M139.981 141.394H131.239V150.173H139.981V141.394Z" fill="#664929"/>
<path d="M139.981 132.615H131.239V141.394H139.981V132.615Z" fill="#493017"/>
<path d="M139.981 123.843H131.239V132.622H139.981V123.843Z" fill="#7A572D"/>
<path d="M139.981 115.058H131.239V123.836H139.981V115.058Z" fill="#664929"/>
<path d="M139.981 106.279H131.239V115.058H139.981V106.279Z" fill="#F4921E"/>
<path d="M139.981 97.5H131.239V106.279H139.981V97.5Z" fill="#F4921E"/>
<path d="M139.981 88.7212H131.239V97.5H139.981V88.7212Z" fill="#F7BE1C"/>
<path d="M139.981 79.9424H131.239V88.7212H139.981V79.9424Z" fill="#F7BE1C"/>
<path d="M139.981 71.1636H131.239V79.9424H139.981V71.1636Z" fill="#F7BE1C"/>
<path d="M139.981 62.3848H131.239V71.1636H139.981V62.3848Z" fill="#F4921E"/>
<path d="M139.981 53.606H131.239V62.3848H139.981V53.606Z" fill="#382311"/>
<path d="M139.981 44.8203H131.239V53.5991H139.981V44.8203Z" fill="#8E683F"/>
<path d="M139.981 36.0415H131.239V44.8203H139.981V36.0415Z" fill="#7A572D"/>
<path d="M139.981 27.2695H131.239V36.0484H139.981V27.2695Z" fill="#5B3D22"/>
<path d="M139.981 18.4839H131.239V27.2627H139.981V18.4839Z" fill="#8E683F"/>
<path d="M139.981 9.70508H131.239V18.4839H139.981V9.70508Z" fill="#8E683F"/>
<path d="M139.981 0.92627H131.239V9.70509H139.981V0.92627Z" fill="#5B3D22"/>
<path d="M131.239 185.295H122.496V194.074H131.239V185.295Z" fill="#563D23"/>
<path d="M131.239 176.516H122.496V185.295H131.239V176.516Z" fill="#563D23"/>
<path d="M131.239 167.73H122.496V176.509H131.239V167.73Z" fill="#35210F"/>
<path d="M131.239 158.958H122.496V167.737H131.239V158.958Z" fill="#664929"/>
<path d="M131.239 150.18H122.496V158.959H131.239V150.18Z" fill="#664929"/>
<path d="M131.239 141.394H122.496V150.173H131.239V141.394Z" fill="#7A572D"/>
<path d="M131.239 132.615H122.496V141.394H131.239V132.615Z" fill="#493017"/>
<path d="M131.239 123.843H122.496V132.622H131.239V123.843Z" fill="#7A572D"/>
<path d="M131.239 115.058H122.496V123.836H131.239V115.058Z" fill="#664929"/>
<path d="M131.239 106.279H122.496V115.058H131.239V106.279Z" fill="#F4921E"/>
<path d="M131.239 97.5H122.496V106.279H131.239V97.5Z" fill="#F7BE1C"/>
<path d="M131.239 88.7212H122.496V97.5H131.239V88.7212Z" fill="#F9ED19"/>
<path d="M131.239 79.9424H122.496V88.7212H131.239V79.9424Z" fill="#F9ED19"/>
<path d="M131.239 71.1636H122.496V79.9424H131.239V71.1636Z" fill="#F9ED19"/>
<path d="M131.239 62.3848H122.496V71.1636H131.239V62.3848Z" fill="#F4921E"/>
<path d="M131.239 53.606H122.496V62.3848H131.239V53.606Z" fill="#382311"/>
<path d="M131.239 44.8203H122.496V53.5991H131.239V44.8203Z" fill="#7A572D"/>
<path d="M131.239 36.0415H122.496V44.8203H131.239V36.0415Z" fill="#8E683F"/>
<path d="M131.239 27.2695H122.496V36.0484H131.239V27.2695Z" fill="#5B3D22"/>
<path d="M131.239 18.4839H122.496V27.2627H131.239V18.4839Z" fill="#8E683F"/>
<path d="M131.239 9.70508H122.496V18.4839H131.239V9.70508Z" fill="#8E683F"/>
<path d="M131.239 0.92627H122.496V9.70509H131.239V0.92627Z" fill="#5B3D22"/>
<path d="M122.496 185.295H113.753V194.074H122.496V185.295Z" fill="#563D23"/>
<path d="M122.496 176.516H113.753V185.295H122.496V176.516Z" fill="#563D23"/>
<path d="M122.496 167.73H113.753V176.509H122.496V167.73Z" fill="#35210F"/>
<path d="M122.496 158.958H113.753V167.737H122.496V158.958Z" fill="#664929"/>
<path d="M122.496 150.18H113.753V158.959H122.496V150.18Z" fill="#7A572D"/>
<path d="M122.496 141.394H113.753V150.173H122.496V141.394Z" fill="#664929"/>
<path d="M122.496 132.615H113.753V141.394H122.496V132.615Z" fill="#493017"/>
<path d="M122.496 123.843H113.753V132.622H122.496V123.843Z" fill="#7A572D"/>
<path d="M122.496 115.058H113.753V123.836H122.496V115.058Z" fill="#664929"/>
<path d="M122.496 106.279H113.753V115.058H122.496V106.279Z" fill="#F4921E"/>
<path d="M122.496 97.5H113.753V106.279H122.496V97.5Z" fill="#F9ED19"/>
<path d="M122.496 88.7212H113.753V97.5H122.496V88.7212Z" fill="#544D43"/>
<path d="M122.496 79.9424H113.753V88.7212H122.496V79.9424Z" fill="#544D43"/>
<path d="M122.496 71.1636H113.753V79.9424H122.496V71.1636Z" fill="#F9ED19"/>
<path d="M122.496 62.3848H113.753V71.1636H122.496V62.3848Z" fill="#F4921E"/>
<path d="M122.496 53.606H113.753V62.3848H122.496V53.606Z" fill="#382311"/>
<path d="M122.496 44.8203H113.753V53.5991H122.496V44.8203Z" fill="#8E683F"/>
<path d="M122.496 36.0415H113.753V44.8203H122.496V36.0415Z" fill="#7A572D"/>
<path d="M122.496 27.2695H113.753V36.0484H122.496V27.2695Z" fill="#5B3D22"/>
<path d="M122.496 18.4839H113.753V27.2627H122.496V18.4839Z" fill="#8E683F"/>
<path d="M122.496 9.70508H113.753V18.4839H122.496V9.70508Z" fill="#8E683F"/>
<path d="M122.496 0.92627H113.753V9.70509H122.496V0.92627Z" fill="#5B3D22"/>
<path d="M113.753 185.295H105.01V194.074H113.753V185.295Z" fill="#563D23"/>
<path d="M113.753 176.516H105.01V185.295H113.753V176.516Z" fill="#563D23"/>
<path d="M113.753 167.73H105.01V176.509H113.753V167.73Z" fill="#35210F"/>
<path d="M113.753 158.958H105.01V167.737H113.753V158.958Z" fill="#664929"/>
<path d="M113.753 150.18H105.01V158.959H113.753V150.18Z" fill="#664929"/>
<path d="M113.753 141.394H105.01V150.173H113.753V141.394Z" fill="#7A572D"/>
<path d="M113.753 132.615H105.01V141.394H113.753V132.615Z" fill="#493017"/>
<path d="M113.753 123.843H105.01V132.622H113.753V123.843Z" fill="#7A572D"/>
<path d="M113.753 115.058H105.01V123.836H113.753V115.058Z" fill="#664929"/>
<path d="M113.753 106.279H105.01V115.058H113.753V106.279Z" fill="#F4921E"/>
<path d="M113.753 97.5H105.01V106.279H113.753V97.5Z" fill="#F9ED19"/>
<path d="M113.753 88.7212H105.01V97.5H113.753V88.7212Z" fill="#F9ED19"/>
<path d="M113.753 79.9424H105.01V88.7212H113.753V79.9424Z" fill="#F9ED19"/>
<path d="M113.753 71.1636H105.01V79.9424H113.753V71.1636Z" fill="#FFF9C5"/>
<path d="M113.753 62.3848H105.01V71.1636H113.753V62.3848Z" fill="#F4921E"/>
<path d="M113.753 53.606H105.01V62.3848H113.753V53.606Z" fill="#382311"/>
<path d="M113.753 44.8203H105.01V53.5991H113.753V44.8203Z" fill="#7A572D"/>
<path d="M113.753 36.0415H105.01V44.8203H113.753V36.0415Z" fill="#8E683F"/>
<path d="M113.753 27.2695H105.01V36.0484H113.753V27.2695Z" fill="#5B3D22"/>
<path d="M113.753 18.4839H105.01V27.2627H113.753V18.4839Z" fill="#8E683F"/>
<path d="M113.753 9.70508H105.01V18.4839H113.753V9.70508Z" fill="#8E683F"/>
<path d="M113.753 0.92627H105.01V9.70509H113.753V0.92627Z" fill="#5B3D22"/>
<path d="M105.01 185.295H96.2671V194.074H105.01V185.295Z" fill="#563D23"/>
<path d="M105.01 176.516H96.2671V185.295H105.01V176.516Z" fill="#563D23"/>
<path d="M105.01 167.73H96.2671V176.509H105.01V167.73Z" fill="#35210F"/>
<path d="M105.01 158.958H96.2671V167.737H105.01V158.958Z" fill="#664929"/>
<path d="M105.01 150.18H96.2671V158.959H105.01V150.18Z" fill="#7A572D"/>
<path d="M105.01 141.394H96.2671V150.173H105.01V141.394Z" fill="#664929"/>
<path d="M105.01 132.615H96.2671V141.394H105.01V132.615Z" fill="#493017"/>
<path d="M105.01 123.843H96.2671V132.622H105.01V123.843Z" fill="#7A572D"/>
<path d="M105.01 115.058H96.2671V123.836H105.01V115.058Z" fill="#664929"/>
<path d="M105.01 106.279H96.2671V115.058H105.01V106.279Z" fill="#F4921E"/>
<path d="M105.01 97.5H96.2671V106.279H105.01V97.5Z" fill="#F4921E"/>
<path d="M105.01 88.7212H96.2671V97.5H105.01V88.7212Z" fill="#FFF9C5"/>
<path d="M105.01 79.9424H96.2671V88.7212H105.01V79.9424Z" fill="#FFF9C5"/>
<path d="M105.01 71.1636H96.2671V79.9424H105.01V71.1636Z" fill="#FFF9C5"/>
<path d="M105.01 62.3848H96.2671V71.1636H105.01V62.3848Z" fill="#F4921E"/>
<path d="M105.01 53.606H96.2671V62.3848H105.01V53.606Z" fill="#382311"/>
<path d="M105.01 44.8203H96.2671V53.5991H105.01V44.8203Z" fill="#8E683F"/>
<path d="M105.01 36.0415H96.2671V44.8203H105.01V36.0415Z" fill="#7A572D"/>
<path d="M105.01 27.2695H96.2671V36.0484H105.01V27.2695Z" fill="#5B3D22"/>
<path d="M105.01 18.4839H96.2671V27.2627H105.01V18.4839Z" fill="#8E683F"/>
<path d="M105.01 9.70508H96.2671V18.4839H105.01V9.70508Z" fill="#8E683F"/>
<path d="M105.01 0.92627H96.2671V9.70509H105.01V0.92627Z" fill="#5B3D22"/>
<path d="M96.2672 185.295H87.5244V194.074H96.2672V185.295Z" fill="#563D23"/>
<path d="M96.2672 176.516H87.5244V185.295H96.2672V176.516Z" fill="#563D23"/>
<path d="M96.2672 167.73H87.5244V176.509H96.2672V167.73Z" fill="#35210F"/>
<path d="M96.2672 158.958H87.5244V167.737H96.2672V158.958Z" fill="#664929"/>
<path d="M96.2672 150.18H87.5244V158.959H96.2672V150.18Z" fill="#664929"/>
<path d="M96.2672 141.394H87.5244V150.173H96.2672V141.394Z" fill="#7A572D"/>
<path d="M96.2672 132.615H87.5244V141.394H96.2672V132.615Z" fill="#493017"/>
<path d="M96.2672 123.843H87.5244V132.622H96.2672V123.843Z" fill="#7A572D"/>
<path d="M96.2672 115.058H87.5244V123.836H96.2672V115.058Z" fill="#7A572D"/>
<path d="M96.2672 106.279H87.5244V115.058H96.2672V106.279Z" fill="#664929"/>
<path d="M96.2672 97.5H87.5244V106.279H96.2672V97.5Z" fill="#493017"/>
<path d="M96.2672 88.7212H87.5244V97.5H96.2672V88.7212Z" fill="#F4921E"/>
<path d="M96.2672 79.9424H87.5244V88.7212H96.2672V79.9424Z" fill="#F4921E"/>
<path d="M96.2672 71.1636H87.5244V79.9424H96.2672V71.1636Z" fill="#F4921E"/>
<path d="M96.2672 62.3848H87.5244V71.1636H96.2672V62.3848Z" fill="#664929"/>
<path d="M96.2672 53.606H87.5244V62.3848H96.2672V53.606Z" fill="#493017"/>
<path d="M96.2672 44.8203H87.5244V53.5991H96.2672V44.8203Z" fill="#7A572D"/>
<path d="M96.2672 36.0415H87.5244V44.8203H96.2672V36.0415Z" fill="#8E683F"/>
<path d="M96.2672 27.2695H87.5244V36.0484H96.2672V27.2695Z" fill="#5B3D22"/>
<path d="M96.2672 18.4839H87.5244V27.2627H96.2672V18.4839Z" fill="#8E683F"/>
<path d="M96.2672 9.70508H87.5244V18.4839H96.2672V9.70508Z" fill="#8E683F"/>
<path d="M96.2672 0.92627H87.5244V9.70509H96.2672V0.92627Z" fill="#5B3D22"/>
<path d="M87.5245 185.295H78.7817V194.074H87.5245V185.295Z" fill="#563D23"/>
<path d="M87.5245 176.516H78.7817V185.295H87.5245V176.516Z" fill="#563D23"/>
<path d="M87.5245 167.73H78.7817V176.509H87.5245V167.73Z" fill="#35210F"/>
<path d="M87.5245 158.958H78.7817V167.737H87.5245V158.958Z" fill="#664929"/>
<path d="M87.5245 150.18H78.7817V158.959H87.5245V150.18Z" fill="#7A572D"/>
<path d="M87.5245 141.394H78.7817V150.173H87.5245V141.394Z" fill="#664929"/>
<path d="M87.5245 132.615H78.7817V141.394H87.5245V132.615Z" fill="#493017"/>
<path d="M87.5245 123.843H78.7817V132.622H87.5245V123.843Z" fill="#7A572D"/>
<path d="M87.5245 115.058H78.7817V123.836H87.5245V115.058Z" fill="#7A572D"/>
<path d="M87.5245 106.279H78.7817V115.058H87.5245V106.279Z" fill="#664929"/>
<path d="M87.5245 97.5H78.7817V106.279H87.5245V97.5Z" fill="#493017"/>
<path d="M87.5245 88.7212H78.7817V97.5H87.5245V88.7212Z" fill="#664929"/>
<path d="M87.5245 79.9424H78.7817V88.7212H87.5245V79.9424Z" fill="#664929"/>
<path d="M87.5245 71.1636H78.7817V79.9424H87.5245V71.1636Z" fill="#664929"/>
<path d="M87.5245 62.3848H78.7817V71.1636H87.5245V62.3848Z" fill="#7A572D"/>
<path d="M87.5245 53.606H78.7817V62.3848H87.5245V53.606Z" fill="#493017"/>
<path d="M87.5245 44.8203H78.7817V53.5991H87.5245V44.8203Z" fill="#8E683F"/>
<path d="M87.5245 36.0415H78.7817V44.8203H87.5245V36.0415Z" fill="#7A572D"/>
<path d="M87.5245 27.2695H78.7817V36.0484H87.5245V27.2695Z" fill="#5B3D22"/>
<path d="M87.5245 18.4839H78.7817V27.2627H87.5245V18.4839Z" fill="#8E683F"/>
<path d="M87.5245 9.70508H78.7817V18.4839H87.5245V9.70508Z" fill="#8E683F"/>
<path d="M87.5245 0.92627H78.7817V9.70509H87.5245V0.92627Z" fill="#5B3D22"/>
<path d="M78.7755 185.295H70.0327V194.074H78.7755V185.295Z" fill="#563D23"/>
<path d="M78.7755 176.516H70.0327V185.295H78.7755V176.516Z" fill="#563D23"/>
<path d="M78.7755 167.73H70.0327V176.509H78.7755V167.73Z" fill="#35210F"/>
<path d="M78.7755 158.958H70.0327V167.737H78.7755V158.958Z" fill="#664929"/>
<path d="M78.7755 150.18H70.0327V158.959H78.7755V150.18Z" fill="#664929"/>
<path d="M78.7755 141.394H70.0327V150.173H78.7755V141.394Z" fill="#7A572D"/>
<path d="M78.7755 132.615H70.0327V141.394H78.7755V132.615Z" fill="#493017"/>
<path d="M78.7755 123.843H70.0327V132.622H78.7755V123.843Z" fill="#7A572D"/>
<path d="M78.7755 115.058H70.0327V123.836H78.7755V115.058Z" fill="#7A572D"/>
<path d="M78.7755 106.279H70.0327V115.058H78.7755V106.279Z" fill="#664929"/>
<path d="M78.7755 97.5H70.0327V106.279H78.7755V97.5Z" fill="#493017"/>
<path d="M78.7755 88.7212H70.0327V97.5H78.7755V88.7212Z" fill="#7A572D"/>
<path d="M78.7755 79.9424H70.0327V88.7212H78.7755V79.9424Z" fill="#7A572D"/>
<path d="M78.7755 71.1636H70.0327V79.9424H78.7755V71.1636Z" fill="#7A572D"/>
<path d="M78.7755 62.3848H70.0327V71.1636H78.7755V62.3848Z" fill="#7A572D"/>
<path d="M78.7755 53.606H70.0327V62.3848H78.7755V53.606Z" fill="#493017"/>
<path d="M78.7755 44.8203H70.0327V53.5991H78.7755V44.8203Z" fill="#7A572D"/>
<path d="M78.7755 36.0415H70.0327V44.8203H78.7755V36.0415Z" fill="#8E683F"/>
<path d="M78.7755 27.2695H70.0327V36.0484H78.7755V27.2695Z" fill="#5B3D22"/>
<path d="M78.7755 18.4839H70.0327V27.2627H78.7755V18.4839Z" fill="#8E683F"/>
<path d="M78.7755 9.70508H70.0327V18.4839H78.7755V9.70508Z" fill="#8E683F"/>
<path d="M78.7755 0.92627H70.0327V9.70509H78.7755V0.92627Z" fill="#5B3D22"/>
<path d="M70.0392 185.295H61.2964V194.074H70.0392V185.295Z" fill="#563D23"/>
<path d="M70.0392 176.516H61.2964V185.295H70.0392V176.516Z" fill="#563D23"/>
<path d="M70.0392 167.73H61.2964V176.509H70.0392V167.73Z" fill="#35210F"/>
<path d="M70.0392 158.958H61.2964V167.737H70.0392V158.958Z" fill="#664929"/>
<path d="M70.0392 150.18H61.2964V158.959H70.0392V150.18Z" fill="#7A572D"/>
<path d="M70.0392 141.394H61.2964V150.173H70.0392V141.394Z" fill="#664929"/>
<path d="M70.0392 132.615H61.2964V141.394H70.0392V132.615Z" fill="#493017"/>
<path d="M70.0392 123.843H61.2964V132.622H70.0392V123.843Z" fill="#7A572D"/>
<path d="M70.0392 115.058H61.2964V123.836H70.0392V115.058Z" fill="#7A572D"/>
<path d="M70.0392 106.279H61.2964V115.058H70.0392V106.279Z" fill="#664929"/>
<path d="M70.0392 97.5H61.2964V106.279H70.0392V97.5Z" fill="#493017"/>
<path d="M70.0392 88.7212H61.2964V97.5H70.0392V88.7212Z" fill="#7A572D"/>
<path d="M70.0392 79.9424H61.2964V88.7212H70.0392V79.9424Z" fill="#7A572D"/>
<path d="M70.0392 71.1636H61.2964V79.9424H70.0392V71.1636Z" fill="#7A572D"/>
<path d="M70.0392 62.3848H61.2964V71.1636H70.0392V62.3848Z" fill="#7A572D"/>
<path d="M70.0392 53.606H61.2964V62.3848H70.0392V53.606Z" fill="#493017"/>
<path d="M70.0392 44.8203H61.2964V53.5991H70.0392V44.8203Z" fill="#8E683F"/>
<path d="M70.0392 36.0415H61.2964V44.8203H70.0392V36.0415Z" fill="#7A572D"/>
<path d="M70.0392 27.2695H61.2964V36.0484H70.0392V27.2695Z" fill="#5B3D22"/>
<path d="M70.0392 18.4839H61.2964V27.2627H70.0392V18.4839Z" fill="#8E683F"/>
<path d="M70.0392 9.70508H61.2964V18.4839H70.0392V9.70508Z" fill="#8E683F"/>
<path d="M70.0392 0.92627H61.2964V9.70509H70.0392V0.92627Z" fill="#5B3D22"/>
<path d="M61.2958 185.295H52.553V194.074H61.2958V185.295Z" fill="#563D23"/>
<path d="M61.2958 176.516H52.553V185.295H61.2958V176.516Z" fill="#563D23"/>
<path d="M61.2958 167.73H52.553V176.509H61.2958V167.73Z" fill="#35210F"/>
<path d="M61.2958 158.958H52.553V167.737H61.2958V158.958Z" fill="#664929"/>
<path d="M61.2958 150.18H52.553V158.959H61.2958V150.18Z" fill="#664929"/>
<path d="M61.2958 141.394H52.553V150.173H61.2958V141.394Z" fill="#7A572D"/>
<path d="M61.2958 132.615H52.553V141.394H61.2958V132.615Z" fill="#493017"/>
<path d="M61.2958 123.843H52.553V132.622H61.2958V123.843Z" fill="#7A572D"/>
<path d="M61.2958 115.058H52.553V123.836H61.2958V115.058Z" fill="#7A572D"/>
<path d="M61.2958 106.279H52.553V115.058H61.2958V106.279Z" fill="#664929"/>
<path d="M61.2958 97.5H52.553V106.279H61.2958V97.5Z" fill="#493017"/>
<path d="M61.2958 88.7212H52.553V97.5H61.2958V88.7212Z" fill="#7A572D"/>
<path d="M61.2958 79.9424H52.553V88.7212H61.2958V79.9424Z" fill="#7A572D"/>
<path d="M61.2958 71.1636H52.553V79.9424H61.2958V71.1636Z" fill="#7A572D"/>
<path d="M61.2958 62.3848H52.553V71.1636H61.2958V62.3848Z" fill="#7A572D"/>
<path d="M61.2958 53.606H52.553V62.3848H61.2958V53.606Z" fill="#493017"/>
<path d="M61.2958 44.8203H52.553V53.5991H61.2958V44.8203Z" fill="#7A572D"/>
<path d="M61.2958 36.0415H52.553V44.8203H61.2958V36.0415Z" fill="#8E683F"/>
<path d="M61.2958 27.2695H52.553V36.0484H61.2958V27.2695Z" fill="#5B3D22"/>
<path d="M61.2958 18.4839H52.553V27.2627H61.2958V18.4839Z" fill="#8E683F"/>
<path d="M61.2958 9.70508H52.553V18.4839H61.2958V9.70508Z" fill="#8E683F"/>
<path d="M52.5468 185.295H43.804V194.074H52.5468V185.295Z" fill="#563D23"/>
<path d="M52.5468 176.516H43.804V185.295H52.5468V176.516Z" fill="#563D23"/>
<path d="M52.5468 167.73H43.804V176.509H52.5468V167.73Z" fill="#35210F"/>
<path d="M52.5468 158.958H43.804V167.737H52.5468V158.958Z" fill="#664929"/>
<path d="M52.5468 150.18H43.804V158.959H52.5468V150.18Z" fill="#7A572D"/>
<path d="M52.5468 141.394H43.804V150.173H52.5468V141.394Z" fill="#664929"/>
<path d="M52.5468 132.615H43.804V141.394H52.5468V132.615Z" fill="#493017"/>
<path d="M52.5468 123.843H43.804V132.622H52.5468V123.843Z" fill="#7A572D"/>
<path d="M52.5468 115.058H43.804V123.836H52.5468V115.058Z" fill="#7A572D"/>
<path d="M52.5468 106.279H43.804V115.058H52.5468V106.279Z" fill="#664929"/>
<path d="M52.5468 97.5H43.804V106.279H52.5468V97.5Z" fill="#493017"/>
<path d="M52.5468 88.7212H43.804V97.5H52.5468V88.7212Z" fill="#7A572D"/>
<path d="M52.5468 79.9424H43.804V88.7212H52.5468V79.9424Z" fill="#7A572D"/>
<path d="M52.5468 71.1636H43.804V79.9424H52.5468V71.1636Z" fill="#7A572D"/>
<path d="M52.5468 62.3848H43.804V71.1636H52.5468V62.3848Z" fill="#7A572D"/>
<path d="M52.5468 53.606H43.804V62.3848H52.5468V53.606Z" fill="#493017"/>
<path d="M52.5468 44.8203H43.804V53.5991H52.5468V44.8203Z" fill="#8E683F"/>
<path d="M52.5468 36.0415H43.804V44.8203H52.5468V36.0415Z" fill="#7A572D"/>
<path d="M52.5468 27.2695H43.804V36.0484H52.5468V27.2695Z" fill="#5B3D22"/>
<path d="M52.5468 18.4839H43.804V27.2627H52.5468V18.4839Z" fill="#8E683F"/>
<path d="M52.5468 9.70508H43.804V18.4839H52.5468V9.70508Z" fill="#F4921E"/>
<path d="M43.8041 185.295H35.0613V194.074H43.8041V185.295Z" fill="#563D23"/>
<path d="M43.8041 176.516H35.0613V185.295H43.8041V176.516Z" fill="#563D23"/>
<path d="M43.8041 167.73H35.0613V176.509H43.8041V167.73Z" fill="#35210F"/>
<path d="M43.8041 158.958H35.0613V167.737H43.8041V158.958Z" fill="#664929"/>
<path d="M43.8041 150.18H35.0613V158.959H43.8041V150.18Z" fill="#664929"/>
<path d="M43.8041 141.394H35.0613V150.173H43.8041V141.394Z" fill="#7A572D"/>
<path d="M43.8041 132.615H35.0613V141.394H43.8041V132.615Z" fill="#493017"/>
<path d="M43.8041 123.843H35.0613V132.622H43.8041V123.843Z" fill="#7A572D"/>
<path d="M43.8041 115.058H35.0613V123.836H43.8041V115.058Z" fill="#7A572D"/>
<path d="M43.8041 106.279H35.0613V115.058H43.8041V106.279Z" fill="#664929"/>
<path d="M43.8041 97.5H35.0613V106.279H43.8041V97.5Z" fill="#493017"/>
<path d="M43.8041 88.7212H35.0613V97.5H43.8041V88.7212Z" fill="#7A572D"/>
<path d="M43.8041 79.9424H35.0613V88.7212H43.8041V79.9424Z" fill="#7A572D"/>
<path d="M43.8041 71.1636H35.0613V79.9424H43.8041V71.1636Z" fill="#7A572D"/>
<path d="M43.8041 62.3848H35.0613V71.1636H43.8041V62.3848Z" fill="#7A572D"/>
<path d="M43.8041 53.606H35.0613V62.3848H43.8041V53.606Z" fill="#493017"/>
<path d="M43.8041 44.8203H35.0613V53.5991H43.8041V44.8203Z" fill="#7A572D"/>
<path d="M43.8041 36.0415H35.0613V44.8203H43.8041V36.0415Z" fill="#8E683F"/>
<path d="M43.8041 27.2695H35.0613V36.0484H43.8041V27.2695Z" fill="#5B3D22"/>
<path d="M43.8041 18.4839H35.0613V27.2627H43.8041V18.4839Z" fill="#F4921E"/>
<path d="M43.8041 9.70508H35.0613V18.4839H43.8041V9.70508Z" fill="#FFF9C5"/>
<path d="M35.068 185.295H26.3252V194.074H35.068V185.295Z" fill="#F4921E"/>
<path d="M35.068 176.516H26.3252V185.295H35.068V176.516Z" fill="#563D23"/>
<path d="M35.068 167.73H26.3252V176.509H35.068V167.73Z" fill="#35210F"/>
<path d="M35.068 158.958H26.3252V167.737H35.068V158.958Z" fill="#664929"/>
<path d="M35.068 150.18H26.3252V158.959H35.068V150.18Z" fill="#7A572D"/>
<path d="M35.068 141.394H26.3252V150.173H35.068V141.394Z" fill="#664929"/>
<path d="M35.068 132.615H26.3252V141.394H35.068V132.615Z" fill="#493017"/>
<path d="M35.068 123.843H26.3252V132.622H35.068V123.843Z" fill="#7A572D"/>
<path d="M35.068 115.058H26.3252V123.836H35.068V115.058Z" fill="#7A572D"/>
<path d="M35.068 106.279H26.3252V115.058H35.068V106.279Z" fill="#664929"/>
<path d="M35.068 97.5H26.3252V106.279H35.068V97.5Z" fill="#493017"/>
<path d="M35.068 88.7212H26.3252V97.5H35.068V88.7212Z" fill="#7A572D"/>
<path d="M35.068 79.9424H26.3252V88.7212H35.068V79.9424Z" fill="#7A572D"/>
<path d="M35.068 71.1636H26.3252V79.9424H35.068V71.1636Z" fill="#7A572D"/>
<path d="M35.068 62.3848H26.3252V71.1636H35.068V62.3848Z" fill="#7A572D"/>
<path d="M35.068 53.606H26.3252V62.3848H35.068V53.606Z" fill="#493017"/>
<path d="M35.068 44.8203H26.3252V53.5991H35.068V44.8203Z" fill="#F4921E"/>
<path d="M35.068 36.0415H26.3252V44.8203H35.068V36.0415Z" fill="#F4921E"/>
<path d="M35.068 27.2695H26.3252V36.0484H35.068V27.2695Z" fill="#F4921E"/>
<path d="M35.068 18.4839H26.3252V27.2627H35.068V18.4839Z" fill="#FFF9C5"/>
<path d="M26.3247 185.295H17.5752V194.074H26.3247V185.295Z" fill="#F9ED19"/>
<path d="M26.3247 176.516H17.5752V185.295H26.3247V176.516Z" fill="#F4921E"/>
<path d="M26.3247 167.73H17.5752V176.509H26.3247V167.73Z" fill="#35210F"/>
<path d="M26.3247 158.958H17.5752V167.737H26.3247V158.958Z" fill="#664929"/>
<path d="M26.3247 150.18H17.5752V158.959H26.3247V150.18Z" fill="#664929"/>
<path d="M26.3247 141.394H17.5752V150.173H26.3247V141.394Z" fill="#7A572D"/>
<path d="M26.3247 132.615H17.5752V141.394H26.3247V132.615Z" fill="#493017"/>
<path d="M26.3247 123.843H17.5752V132.622H26.3247V123.843Z" fill="#7A572D"/>
<path d="M26.3247 115.058H17.5752V123.836H26.3247V115.058Z" fill="#7A572D"/>
<path d="M26.3247 106.279H17.5752V115.058H26.3247V106.279Z" fill="#664929"/>
<path d="M26.3247 97.5H17.5752V106.279H26.3247V97.5Z" fill="#493017"/>
<path d="M26.3247 88.7212H17.5752V97.5H26.3247V88.7212Z" fill="#F4921E"/>
<path d="M26.3247 79.9424H17.5752V88.7212H26.3247V79.9424Z" fill="#D3771C"/>
<path d="M26.3247 71.1636H17.5752V79.9424H26.3247V71.1636Z" fill="#F4921E"/>
<path d="M26.3247 62.3848H17.5752V71.1636H26.3247V62.3848Z" fill="#F4921E"/>
<path d="M26.3247 53.606H17.5752V62.3848H26.3247V53.606Z" fill="#F4921E"/>
<path d="M26.3247 44.8203H17.5752V53.5991H26.3247V44.8203Z" fill="#F9ED19"/>
<path d="M26.3247 36.0415H17.5752V44.8203H26.3247V36.0415Z" fill="#F9ED19"/>
<path d="M26.3247 27.2695H17.5752V36.0484H26.3247V27.2695Z" fill="#FFF9C5"/>
<path d="M17.5753 185.295H8.83252V194.074H17.5753V185.295Z" fill="#F9ED19"/>
<path d="M17.5753 176.516H8.83252V185.295H17.5753V176.516Z" fill="#F4921E"/>
<path d="M17.5753 167.73H8.83252V176.509H17.5753V167.73Z" fill="#F4921E"/>
<path d="M17.5753 158.958H8.83252V167.737H17.5753V158.958Z" fill="#664929"/>
<path d="M17.5753 150.18H8.83252V158.959H17.5753V150.18Z" fill="#7A572D"/>
<path d="M17.5753 141.394H8.83252V150.173H17.5753V141.394Z" fill="#664929"/>
<path d="M17.5753 132.615H8.83252V141.394H17.5753V132.615Z" fill="#493017"/>
<path d="M17.5753 123.843H8.83252V132.622H17.5753V123.843Z" fill="#7A572D"/>
<path d="M17.5753 115.058H8.83252V123.836H17.5753V115.058Z" fill="#664929"/>
<path d="M17.5753 106.279H8.83252V115.058H17.5753V106.279Z" fill="#F4921E"/>
<path d="M17.5753 97.5H8.83252V106.279H17.5753V97.5Z" fill="#F4921E"/>
<path d="M17.5753 88.7212H8.83252V97.5H17.5753V88.7212Z" fill="#F9ED19"/>
<path d="M17.5753 79.9424H8.83252V88.7212H17.5753V79.9424Z" fill="#D3771C"/>
<path d="M17.5753 71.1636H8.83252V79.9424H17.5753V71.1636Z" fill="#F9ED19"/>
<path d="M17.5753 62.3848H8.83252V71.1636H17.5753V62.3848Z" fill="#F9ED19"/>
<path d="M17.5753 53.606H8.83252V62.3848H17.5753V53.606Z" fill="#FFF9C5"/>
<path d="M8.83265 185.295H0.0898438V194.074H8.83265V185.295Z" fill="#F9ED19"/>
<path d="M8.83265 176.516H0.0898438V185.295H8.83265V176.516Z" fill="#F9ED19"/>
<path d="M8.83265 167.73H0.0898438V176.509H8.83265V167.73Z" fill="#F9ED19"/>
<path d="M8.83265 106.279H0.0898438V115.058H8.83265V106.279Z" fill="#F9ED19"/>
<path d="M8.83265 97.5H0.0898438V106.279H8.83265V97.5Z" fill="#F9ED19"/>
<path d="M8.83265 88.7212H0.0898438V97.5H8.83265V88.7212Z" fill="#FFF9C5"/>
</g>
<defs>
<clipPath id="clip0_792_25312">
<rect width="236.069" height="193.148" fill="white" transform="translate(0.090332 0.92627)"/>
</clipPath>
</defs>
</svg>
