<svg width="263" height="243" viewBox="0 0 263 243" fill="none" xmlns="http://www.w3.org/2000/svg">
<path d="M262.5 0.5H0.5V242.5H262.5V0.5Z" fill="#B57A4A"/>
<path d="M223.654 26.4985H38.3398V216.52H223.654V26.4985Z" fill="#FFCE00"/>
<path d="M63.2595 197.663H44.8975V216.681H63.2595V197.663Z" fill="#F6B210"/>
<path d="M206.819 26.4985V45.5168H188.469V64.535H170.113V83.5532H151.757V102.571H133.401V121.583H115.045V140.602H96.6893V159.62H78.3334V178.638H59.9775V197.663V216.681H78.3334H96.6893H115.045H133.401H151.757H170.113H188.469H206.819H225.181V197.663V178.638V159.62V140.602V121.583V102.571V83.5532V64.535V45.5168V26.4985H206.819Z" fill="#F6B210"/>
<path d="M46.189 30.3628H28.5747V47.9899H46.189V30.3628Z" fill="#B57A4A"/>
<path d="M46.189 17.2368H28.5747V47.9899H46.189V17.2368Z" fill="#B57A4A"/>
<path d="M62.5732 14.9922H44.959V32.6131H62.5732V14.9922Z" fill="#B57A4A"/>
<path d="M233.023 16.1177H215.409V46.8523H233.023V16.1177Z" fill="#B57A4A"/>
<path d="M216.633 13.8608H199.013V31.4817H216.633V13.8608Z" fill="#B57A4A"/>
<path d="M46.3931 193.873H28.7788V224.613H46.3931V193.873Z" fill="#B57A4A"/>
<path d="M62.7835 209.249H45.1631V226.87H62.7835V209.249Z" fill="#B57A4A"/>
<path d="M233.228 195.004H215.613V225.738H233.228V195.004Z" fill="#B57A4A"/>
<path d="M216.837 210.368H199.217V228.001H216.837V210.368Z" fill="#B57A4A"/>
<path d="M78.2964 94.6885V77.1665H95.8488V94.7194L78.2964 94.6885ZM113.426 164.999V129.862H131.003V112.278H148.549V77.1665H95.8488V59.5518H166.133V77.1665H183.71V112.309H166.133V129.893H148.549V165.03L113.426 164.999ZM113.426 200.142V182.589H148.549V200.142H113.426Z" fill="#9D6B40"/>
</svg>
