<svg width="245" height="207" viewBox="0 0 245 207" fill="none" xmlns="http://www.w3.org/2000/svg">
<g filter="url(#filter0_d_792_22734)">
<path d="M240.91 190.184H232.167V198.962H240.91V190.184Z" fill="#F9ED19"/>
<path d="M240.91 181.405H232.167V190.184H240.91V181.405Z" fill="#F9ED19"/>
<path d="M240.91 172.619H232.167V181.398H240.91V172.619Z" fill="#F9ED19"/>
<path d="M240.91 111.167H232.167V119.946H240.91V111.167Z" fill="#F9ED19"/>
<path d="M240.91 102.389H232.167V111.167H240.91V102.389Z" fill="#F9ED19"/>
<path d="M240.91 93.6099H232.167V102.389H240.91V93.6099Z" fill="#FFF9C5"/>
<path d="M232.167 190.184H223.424V198.962H232.167V190.184Z" fill="#F9ED19"/>
<path d="M232.167 181.405H223.424V190.184H232.167V181.405Z" fill="#F4921E"/>
<path d="M232.167 172.619H223.424V181.398H232.167V172.619Z" fill="#F4921E"/>
<path d="M232.167 163.847H223.424V172.626H232.167V163.847Z" fill="#3E8480"/>
<path d="M232.167 155.068H223.424V163.847H232.167V155.068Z" fill="#4EA691"/>
<path d="M232.167 146.283H223.424V155.062H232.167V146.283Z" fill="#3E8480"/>
<path d="M232.167 137.504H223.424V146.283H232.167V137.504Z" fill="#29564E"/>
<path d="M232.167 128.732H223.424V137.511H232.167V128.732Z" fill="#4EA691"/>
<path d="M232.167 119.947H223.424V128.726H232.167V119.947Z" fill="#3E8480"/>
<path d="M232.167 111.167H223.424V119.946H232.167V111.167Z" fill="#F4921E"/>
<path d="M232.167 102.389H223.424V111.167H232.167V102.389Z" fill="#F4921E"/>
<path d="M232.167 93.6099H223.424V102.389H232.167V93.6099Z" fill="#F9ED19"/>
<path d="M232.167 84.8311H223.424V93.6099H232.167V84.8311Z" fill="#D3771C"/>
<path d="M232.167 76.0522H223.424V84.8311H232.167V76.0522Z" fill="#F9ED19"/>
<path d="M232.167 67.2734H223.424V76.0523H232.167V67.2734Z" fill="#F9ED19"/>
<path d="M232.167 58.4946H223.424V67.2734H232.167V58.4946Z" fill="#FFF9C5"/>
<path d="M223.423 190.184H214.681V198.962H223.423V190.184Z" fill="#F9ED19"/>
<path d="M223.423 181.405H214.681V190.184H223.423V181.405Z" fill="#F4921E"/>
<path d="M223.423 172.619H214.681V181.398H223.423V172.619Z" fill="#29564E"/>
<path d="M223.423 163.847H214.681V172.626H223.423V163.847Z" fill="#3E8480"/>
<path d="M223.423 155.068H214.681V163.847H223.423V155.068Z" fill="#3E8480"/>
<path d="M223.423 146.283H214.681V155.062H223.423V146.283Z" fill="#4EA691"/>
<path d="M223.423 137.504H214.681V146.283H223.423V137.504Z" fill="#29564E"/>
<path d="M223.423 128.732H214.681V137.511H223.423V128.732Z" fill="#4EA691"/>
<path d="M223.423 119.947H214.681V128.726H223.423V119.947Z" fill="#4EA691"/>
<path d="M223.423 111.167H214.681V119.946H223.423V111.167Z" fill="#3E8480"/>
<path d="M223.423 102.389H214.681V111.167H223.423V102.389Z" fill="#29564E"/>
<path d="M223.423 93.6099H214.681V102.389H223.423V93.6099Z" fill="#F4921E"/>
<path d="M223.423 84.8311H214.681V93.6099H223.423V84.8311Z" fill="#D3771C"/>
<path d="M223.423 76.0522H214.681V84.8311H223.423V76.0522Z" fill="#F4921E"/>
<path d="M223.423 67.2734H214.681V76.0523H223.423V67.2734Z" fill="#F4921E"/>
<path d="M223.423 58.4946H214.681V67.2734H223.423V58.4946Z" fill="#F4921E"/>
<path d="M223.423 49.709H214.681V58.4878H223.423V49.709Z" fill="#F9ED19"/>
<path d="M223.423 40.9302H214.681V49.709H223.423V40.9302Z" fill="#F9ED19"/>
<path d="M223.423 32.1582H214.681V40.937H223.423V32.1582Z" fill="#FFF9C5"/>
<path d="M214.681 137.504H205.938V146.283H214.681V137.504Z" fill="#29564E"/>
<path d="M214.681 128.732H205.938V137.511H214.681V128.732Z" fill="#4EA691"/>
<path d="M214.681 119.947H205.938V128.726H214.681V119.947Z" fill="#4EA691"/>
<path d="M214.681 111.167H205.938V119.946H214.681V111.167Z" fill="#3E8480"/>
<path d="M214.681 102.389H205.938V111.167H214.681V102.389Z" fill="#29564E"/>
<path d="M214.681 93.6099H205.938V102.389H214.681V93.6099Z" fill="#4EA691"/>
<path d="M214.681 84.8311H205.938V93.6099H214.681V84.8311Z" fill="#4EA691"/>
<path d="M214.681 76.0522H205.938V84.8311H214.681V76.0522Z" fill="#4EA691"/>
<path d="M214.681 67.2734H205.938V76.0523H214.681V67.2734Z" fill="#4EA691"/>
<path d="M214.681 58.4946H205.938V67.2734H214.681V58.4946Z" fill="#29564E"/>
<path d="M214.681 49.709H205.938V58.4878H214.681V49.709Z" fill="#F4921E"/>
<path d="M214.681 40.9302H205.938V49.709H214.681V40.9302Z" fill="#F4921E"/>
<path d="M214.681 32.1582H205.938V40.937H214.681V32.1582Z" fill="#F4921E"/>
<path d="M214.681 23.373H205.938V32.1519H214.681V23.373Z" fill="#FFF9C5"/>
<path d="M214.681 146.283H205.938V155.062H214.681V146.283Z" fill="#3E8480"/>
<path d="M214.681 155.068H205.938V163.847H214.681V155.068Z" fill="#4EA691"/>
<path d="M214.681 163.847H205.938V172.626H214.681V163.847Z" fill="#3E8480"/>
<path d="M214.681 172.619H205.938V181.398H214.681V172.619Z" fill="#29564E"/>
<path d="M214.681 181.405H205.938V190.184H214.681V181.405Z" fill="#3E8480"/>
<path d="M214.681 190.184H205.938V198.962H214.681V190.184Z" fill="#F4921E"/>
<path d="M205.938 137.504H197.196V146.283H205.938V137.504Z" fill="#29564E"/>
<path d="M205.938 128.732H197.196V137.511H205.938V128.732Z" fill="#4EA691"/>
<path d="M205.938 119.947H197.196V128.726H205.938V119.947Z" fill="#4EA691"/>
<path d="M205.938 111.167H197.196V119.946H205.938V111.167Z" fill="#3E8480"/>
<path d="M205.938 102.389H197.196V111.167H205.938V102.389Z" fill="#29564E"/>
<path d="M205.938 93.6099H197.196V102.389H205.938V93.6099Z" fill="#4EA691"/>
<path d="M205.938 84.8311H197.196V93.6099H205.938V84.8311Z" fill="#4EA691"/>
<path d="M205.938 76.0522H197.196V84.8311H205.938V76.0522Z" fill="#4EA691"/>
<path d="M205.938 67.2734H197.196V76.0523H205.938V67.2734Z" fill="#4EA691"/>
<path d="M205.938 58.4946H197.196V67.2734H205.938V58.4946Z" fill="#29564E"/>
<path d="M205.938 49.709H197.196V58.4878H205.938V49.709Z" fill="#4EA691"/>
<path d="M205.938 40.9302H197.196V49.709H205.938V40.9302Z" fill="#71BCAA"/>
<path d="M205.938 32.1582H197.196V40.937H205.938V32.1582Z" fill="#29564E"/>
<path d="M205.938 23.373H197.196V32.1519H205.938V23.373Z" fill="#F4921E"/>
<path d="M205.938 14.5938H197.196V23.3726H205.938V14.5938Z" fill="#FFF9C5"/>
<path d="M205.938 190.184H197.196V198.962H205.938V190.184Z" fill="#3E8480"/>
<path d="M197.196 190.184H188.453V198.962H197.196V190.184Z" fill="#3E8480"/>
<path d="M205.938 181.405H197.196V190.184H205.938V181.405Z" fill="#3E8480"/>
<path d="M197.196 181.405H188.453V190.184H197.196V181.405Z" fill="#3E8480"/>
<path d="M205.938 172.619H197.196V181.398H205.938V172.619Z" fill="#29564E"/>
<path d="M197.196 172.619H188.453V181.398H197.196V172.619Z" fill="#29564E"/>
<path d="M205.938 163.847H197.196V172.626H205.938V163.847Z" fill="#3E8480"/>
<path d="M197.196 163.847H188.453V172.626H197.196V163.847Z" fill="#3E8480"/>
<path d="M205.938 155.068H197.196V163.847H205.938V155.068Z" fill="#3E8480"/>
<path d="M197.196 155.068H188.453V163.847H197.196V155.068Z" fill="#4EA691"/>
<path d="M205.938 146.283H197.196V155.062H205.938V146.283Z" fill="#4EA691"/>
<path d="M197.196 146.283H188.453V155.062H197.196V146.283Z" fill="#3E8480"/>
<path d="M197.196 137.504H188.453V146.283H197.196V137.504Z" fill="#29564E"/>
<path d="M197.196 128.732H188.453V137.511H197.196V128.732Z" fill="#4EA691"/>
<path d="M197.196 119.947H188.453V128.726H197.196V119.947Z" fill="#4EA691"/>
<path d="M197.196 111.167H188.453V119.946H197.196V111.167Z" fill="#3E8480"/>
<path d="M197.196 102.389H188.453V111.167H197.196V102.389Z" fill="#29564E"/>
<path d="M197.196 93.6099H188.453V102.389H197.196V93.6099Z" fill="#4EA691"/>
<path d="M197.196 84.8311H188.453V93.6099H197.196V84.8311Z" fill="#4EA691"/>
<path d="M197.196 76.0522H188.453V84.8311H197.196V76.0522Z" fill="#4EA691"/>
<path d="M197.196 67.2734H188.453V76.0523H197.196V67.2734Z" fill="#4EA691"/>
<path d="M197.196 58.4946H188.453V67.2734H197.196V58.4946Z" fill="#29564E"/>
<path d="M197.196 49.709H188.453V58.4878H197.196V49.709Z" fill="#71BCAA"/>
<path d="M197.196 40.9302H188.453V49.709H197.196V40.9302Z" fill="#4EA691"/>
<path d="M197.196 32.1582H188.453V40.937H197.196V32.1582Z" fill="#29564E"/>
<path d="M197.196 23.373H188.453V32.1519H197.196V23.373Z" fill="#71BCAA"/>
<path d="M197.196 14.5938H188.453V23.3726H197.196V14.5938Z" fill="#F4921E"/>
<path d="M188.453 190.184H179.71V198.962H188.453V190.184Z" fill="#3E8480"/>
<path d="M188.453 181.405H179.71V190.184H188.453V181.405Z" fill="#3E8480"/>
<path d="M188.453 172.619H179.71V181.398H188.453V172.619Z" fill="#29564E"/>
<path d="M188.453 163.847H179.71V172.626H188.453V163.847Z" fill="#3E8480"/>
<path d="M188.453 155.068H179.71V163.847H188.453V155.068Z" fill="#3E8480"/>
<path d="M188.453 146.283H179.71V155.062H188.453V146.283Z" fill="#4EA691"/>
<path d="M188.453 137.504H179.71V146.283H188.453V137.504Z" fill="#29564E"/>
<path d="M188.453 128.732H179.71V137.511H188.453V128.732Z" fill="#4EA691"/>
<path d="M188.453 119.947H179.71V128.726H188.453V119.947Z" fill="#4EA691"/>
<path d="M188.453 111.167H179.71V119.946H188.453V111.167Z" fill="#3E8480"/>
<path d="M188.453 102.389H179.71V111.167H188.453V102.389Z" fill="#29564E"/>
<path d="M188.453 93.6099H179.71V102.389H188.453V93.6099Z" fill="#4EA691"/>
<path d="M188.453 84.8311H179.71V93.6099H188.453V84.8311Z" fill="#4EA691"/>
<path d="M188.453 76.0522H179.71V84.8311H188.453V76.0522Z" fill="#4EA691"/>
<path d="M188.453 67.2734H179.71V76.0523H188.453V67.2734Z" fill="#4EA691"/>
<path d="M188.453 58.4946H179.71V67.2734H188.453V58.4946Z" fill="#29564E"/>
<path d="M188.453 49.709H179.71V58.4878H188.453V49.709Z" fill="#4EA691"/>
<path d="M188.453 40.9302H179.71V49.709H188.453V40.9302Z" fill="#71BCAA"/>
<path d="M188.453 32.1582H179.71V40.937H188.453V32.1582Z" fill="#29564E"/>
<path d="M188.453 23.373H179.71V32.1519H188.453V23.373Z" fill="#71BCAA"/>
<path d="M188.453 14.5938H179.71V23.3726H188.453V14.5938Z" fill="#71BCAA"/>
<path d="M179.703 190.184H170.96V198.962H179.703V190.184Z" fill="#3E8480"/>
<path d="M179.703 181.405H170.96V190.184H179.703V181.405Z" fill="#3E8480"/>
<path d="M179.703 172.619H170.96V181.398H179.703V172.619Z" fill="#29564E"/>
<path d="M179.703 163.847H170.96V172.626H179.703V163.847Z" fill="#3E8480"/>
<path d="M179.703 155.068H170.96V163.847H179.703V155.068Z" fill="#4EA691"/>
<path d="M179.703 146.283H170.96V155.062H179.703V146.283Z" fill="#3E8480"/>
<path d="M179.703 137.504H170.96V146.283H179.703V137.504Z" fill="#29564E"/>
<path d="M179.703 128.732H170.96V137.511H179.703V128.732Z" fill="#4EA691"/>
<path d="M179.703 119.947H170.96V128.726H179.703V119.947Z" fill="#4EA691"/>
<path d="M179.703 111.167H170.96V119.946H179.703V111.167Z" fill="#3E8480"/>
<path d="M179.703 102.389H170.96V111.167H179.703V102.389Z" fill="#29564E"/>
<path d="M179.703 93.6099H170.96V102.389H179.703V93.6099Z" fill="#4EA691"/>
<path d="M179.703 84.8311H170.96V93.6099H179.703V84.8311Z" fill="#4EA691"/>
<path d="M179.703 76.0522H170.96V84.8311H179.703V76.0522Z" fill="#4EA691"/>
<path d="M179.703 67.2734H170.96V76.0523H179.703V67.2734Z" fill="#4EA691"/>
<path d="M179.703 58.4946H170.96V67.2734H179.703V58.4946Z" fill="#29564E"/>
<path d="M179.703 49.709H170.96V58.4878H179.703V49.709Z" fill="#71BCAA"/>
<path d="M179.703 40.9302H170.96V49.709H179.703V40.9302Z" fill="#4EA691"/>
<path d="M179.703 32.1582H170.96V40.937H179.703V32.1582Z" fill="#29564E"/>
<path d="M179.703 23.373H170.96V32.1519H179.703V23.373Z" fill="#71BCAA"/>
<path d="M179.703 14.5938H170.96V23.3726H179.703V14.5938Z" fill="#71BCAA"/>
<path d="M179.703 5.81494H170.96V14.5938H179.703V5.81494Z" fill="#29564E"/>
<path d="M170.96 190.184H162.218V198.962H170.96V190.184Z" fill="#3E8480"/>
<path d="M170.96 181.405H162.218V190.184H170.96V181.405Z" fill="#3E8480"/>
<path d="M170.96 172.619H162.218V181.398H170.96V172.619Z" fill="#29564E"/>
<path d="M170.96 163.847H162.218V172.626H170.96V163.847Z" fill="#3E8480"/>
<path d="M170.96 155.068H162.218V163.847H170.96V155.068Z" fill="#3E8480"/>
<path d="M170.96 146.283H162.218V155.062H170.96V146.283Z" fill="#4EA691"/>
<path d="M170.96 137.504H162.218V146.283H170.96V137.504Z" fill="#29564E"/>
<path d="M170.96 128.732H162.218V137.511H170.96V128.732Z" fill="#4EA691"/>
<path d="M170.96 119.947H162.218V128.726H170.96V119.947Z" fill="#4EA691"/>
<path d="M170.96 111.167H162.218V119.946H170.96V111.167Z" fill="#3E8480"/>
<path d="M170.96 102.389H162.218V111.167H170.96V102.389Z" fill="#29564E"/>
<path d="M170.96 93.6099H162.218V102.389H170.96V93.6099Z" fill="#4EA691"/>
<path d="M170.96 84.8311H162.218V93.6099H170.96V84.8311Z" fill="#4EA691"/>
<path d="M170.96 76.0522H162.218V84.8311H170.96V76.0522Z" fill="#4EA691"/>
<path d="M170.96 67.2734H162.218V76.0523H170.96V67.2734Z" fill="#4EA691"/>
<path d="M170.96 58.4946H162.218V67.2734H170.96V58.4946Z" fill="#29564E"/>
<path d="M170.96 49.709H162.218V58.4878H170.96V49.709Z" fill="#4EA691"/>
<path d="M170.96 40.9302H162.218V49.709H170.96V40.9302Z" fill="#71BCAA"/>
<path d="M170.96 32.1582H162.218V40.937H170.96V32.1582Z" fill="#29564E"/>
<path d="M170.96 23.373H162.218V32.1519H170.96V23.373Z" fill="#71BCAA"/>
<path d="M170.96 14.5938H162.218V23.3726H170.96V14.5938Z" fill="#71BCAA"/>
<path d="M170.96 5.81494H162.218V14.5938H170.96V5.81494Z" fill="#29564E"/>
<path d="M162.224 190.184H153.481V198.962H162.224V190.184Z" fill="#3E8480"/>
<path d="M162.224 181.405H153.481V190.184H162.224V181.405Z" fill="#3E8480"/>
<path d="M162.224 172.619H153.481V181.398H162.224V172.619Z" fill="#29564E"/>
<path d="M162.224 163.847H153.481V172.626H162.224V163.847Z" fill="#3E8480"/>
<path d="M162.224 155.068H153.481V163.847H162.224V155.068Z" fill="#4EA691"/>
<path d="M162.224 146.283H153.481V155.062H162.224V146.283Z" fill="#3E8480"/>
<path d="M162.224 137.504H153.481V146.283H162.224V137.504Z" fill="#29564E"/>
<path d="M162.224 128.732H153.481V137.511H162.224V128.732Z" fill="#4EA691"/>
<path d="M162.224 119.947H153.481V128.726H162.224V119.947Z" fill="#4EA691"/>
<path d="M162.224 111.167H153.481V119.946H162.224V111.167Z" fill="#3E8480"/>
<path d="M162.224 102.389H153.481V111.167H162.224V102.389Z" fill="#29564E"/>
<path d="M162.224 93.6099H153.481V102.389H162.224V93.6099Z" fill="#3E8480"/>
<path d="M162.224 84.8311H153.481V93.6099H162.224V84.8311Z" fill="#3E8480"/>
<path d="M162.224 76.0522H153.481V84.8311H162.224V76.0522Z" fill="#3E8480"/>
<path d="M162.224 67.2734H153.481V76.0523H162.224V67.2734Z" fill="#4EA691"/>
<path d="M162.224 58.4946H153.481V67.2734H162.224V58.4946Z" fill="#29564E"/>
<path d="M162.224 49.709H153.481V58.4878H162.224V49.709Z" fill="#71BCAA"/>
<path d="M162.224 40.9302H153.481V49.709H162.224V40.9302Z" fill="#4EA691"/>
<path d="M162.224 32.1582H153.481V40.937H162.224V32.1582Z" fill="#29564E"/>
<path d="M162.224 23.373H153.481V32.1519H162.224V23.373Z" fill="#71BCAA"/>
<path d="M162.224 14.5938H153.481V23.3726H162.224V14.5938Z" fill="#71BCAA"/>
<path d="M162.224 5.81494H153.481V14.5938H162.224V5.81494Z" fill="#29564E"/>
<path d="M153.475 190.184H144.732V198.962H153.475V190.184Z" fill="#3E8480"/>
<path d="M153.475 181.405H144.732V190.184H153.475V181.405Z" fill="#3E8480"/>
<path d="M153.475 172.619H144.732V181.398H153.475V172.619Z" fill="#29564E"/>
<path d="M153.475 163.847H144.732V172.626H153.475V163.847Z" fill="#3E8480"/>
<path d="M153.475 155.068H144.732V163.847H153.475V155.068Z" fill="#3E8480"/>
<path d="M153.475 146.283H144.732V155.062H153.475V146.283Z" fill="#4EA691"/>
<path d="M153.475 137.504H144.732V146.283H153.475V137.504Z" fill="#29564E"/>
<path d="M153.475 128.732H144.732V137.511H153.475V128.732Z" fill="#4EA691"/>
<path d="M153.475 119.947H144.732V128.726H153.475V119.947Z" fill="#4EA691"/>
<path d="M153.475 111.167H144.732V119.946H153.475V111.167Z" fill="#3E8480"/>
<path d="M153.475 102.389H144.732V111.167H153.475V102.389Z" fill="#29564E"/>
<path d="M153.475 93.6099H144.732V102.389H153.475V93.6099Z" fill="#F4921E"/>
<path d="M153.475 84.8311H144.732V93.6099H153.475V84.8311Z" fill="#F4921E"/>
<path d="M153.475 76.0522H144.732V84.8311H153.475V76.0522Z" fill="#F4921E"/>
<path d="M153.475 67.2734H144.732V76.0523H153.475V67.2734Z" fill="#3E8480"/>
<path d="M153.475 58.4946H144.732V67.2734H153.475V58.4946Z" fill="#29564E"/>
<path d="M153.475 49.709H144.732V58.4878H153.475V49.709Z" fill="#4EA691"/>
<path d="M153.475 40.9302H144.732V49.709H153.475V40.9302Z" fill="#71BCAA"/>
<path d="M153.475 32.1582H144.732V40.937H153.475V32.1582Z" fill="#29564E"/>
<path d="M153.475 23.373H144.732V32.1519H153.475V23.373Z" fill="#71BCAA"/>
<path d="M153.475 14.5938H144.732V23.3726H153.475V14.5938Z" fill="#71BCAA"/>
<path d="M153.475 5.81494H144.732V14.5938H153.475V5.81494Z" fill="#29564E"/>
<path d="M144.732 190.184H135.989V198.962H144.732V190.184Z" fill="#3E8480"/>
<path d="M144.732 181.405H135.989V190.184H144.732V181.405Z" fill="#3E8480"/>
<path d="M144.732 172.619H135.989V181.398H144.732V172.619Z" fill="#29564E"/>
<path d="M144.732 163.847H135.989V172.626H144.732V163.847Z" fill="#3E8480"/>
<path d="M144.732 155.068H135.989V163.847H144.732V155.068Z" fill="#4EA691"/>
<path d="M144.732 146.283H135.989V155.062H144.732V146.283Z" fill="#3E8480"/>
<path d="M144.732 137.504H135.989V146.283H144.732V137.504Z" fill="#29564E"/>
<path d="M144.732 128.732H135.989V137.511H144.732V128.732Z" fill="#4EA691"/>
<path d="M144.732 119.947H135.989V128.726H144.732V119.947Z" fill="#3E8480"/>
<path d="M144.732 111.167H135.989V119.946H144.732V111.167Z" fill="#F4921E"/>
<path d="M144.732 102.389H135.989V111.167H144.732V102.389Z" fill="#F4921E"/>
<path d="M144.732 93.6099H135.989V102.389H144.732V93.6099Z" fill="#F7BE1C"/>
<path d="M144.732 84.8311H135.989V93.6099H144.732V84.8311Z" fill="#F7BE1C"/>
<path d="M144.732 76.0522H135.989V84.8311H144.732V76.0522Z" fill="#F7BE1C"/>
<path d="M144.732 67.2734H135.989V76.0523H144.732V67.2734Z" fill="#F4921E"/>
<path d="M144.732 58.4946H135.989V67.2734H144.732V58.4946Z" fill="#29564E"/>
<path d="M144.732 49.709H135.989V58.4878H144.732V49.709Z" fill="#71BCAA"/>
<path d="M144.732 40.9302H135.989V49.709H144.732V40.9302Z" fill="#4EA691"/>
<path d="M144.732 32.1582H135.989V40.937H144.732V32.1582Z" fill="#29564E"/>
<path d="M144.732 23.373H135.989V32.1519H144.732V23.373Z" fill="#71BCAA"/>
<path d="M144.732 14.5938H135.989V23.3726H144.732V14.5938Z" fill="#71BCAA"/>
<path d="M144.732 5.81494H135.989V14.5938H144.732V5.81494Z" fill="#29564E"/>
<path d="M135.989 190.184H127.246V198.962H135.989V190.184Z" fill="#3E8480"/>
<path d="M135.989 181.405H127.246V190.184H135.989V181.405Z" fill="#3E8480"/>
<path d="M135.989 172.619H127.246V181.398H135.989V172.619Z" fill="#29564E"/>
<path d="M135.989 163.847H127.246V172.626H135.989V163.847Z" fill="#3E8480"/>
<path d="M135.989 155.068H127.246V163.847H135.989V155.068Z" fill="#3E8480"/>
<path d="M135.989 146.283H127.246V155.062H135.989V146.283Z" fill="#4EA691"/>
<path d="M135.989 137.504H127.246V146.283H135.989V137.504Z" fill="#29564E"/>
<path d="M135.989 128.732H127.246V137.511H135.989V128.732Z" fill="#4EA691"/>
<path d="M135.989 119.947H127.246V128.726H135.989V119.947Z" fill="#3E8480"/>
<path d="M135.989 111.167H127.246V119.946H135.989V111.167Z" fill="#F4921E"/>
<path d="M135.989 102.389H127.246V111.167H135.989V102.389Z" fill="#F7BE1C"/>
<path d="M135.989 93.6099H127.246V102.389H135.989V93.6099Z" fill="#F9ED19"/>
<path d="M135.989 84.8311H127.246V93.6099H135.989V84.8311Z" fill="#F9ED19"/>
<path d="M135.989 76.0522H127.246V84.8311H135.989V76.0522Z" fill="#F9ED19"/>
<path d="M135.989 67.2734H127.246V76.0523H135.989V67.2734Z" fill="#F4921E"/>
<path d="M135.989 58.4946H127.246V67.2734H135.989V58.4946Z" fill="#29564E"/>
<path d="M135.989 49.709H127.246V58.4878H135.989V49.709Z" fill="#4EA691"/>
<path d="M135.989 40.9302H127.246V49.709H135.989V40.9302Z" fill="#71BCAA"/>
<path d="M135.989 32.1582H127.246V40.937H135.989V32.1582Z" fill="#29564E"/>
<path d="M135.989 23.373H127.246V32.1519H135.989V23.373Z" fill="#71BCAA"/>
<path d="M135.989 14.5938H127.246V23.3726H135.989V14.5938Z" fill="#71BCAA"/>
<path d="M135.989 5.81494H127.246V14.5938H135.989V5.81494Z" fill="#29564E"/>
<path d="M127.246 190.184H118.504V198.962H127.246V190.184Z" fill="#3E8480"/>
<path d="M127.246 181.405H118.504V190.184H127.246V181.405Z" fill="#3E8480"/>
<path d="M127.246 172.619H118.504V181.398H127.246V172.619Z" fill="#29564E"/>
<path d="M127.246 163.847H118.504V172.626H127.246V163.847Z" fill="#3E8480"/>
<path d="M127.246 155.068H118.504V163.847H127.246V155.068Z" fill="#4EA691"/>
<path d="M127.246 146.283H118.504V155.062H127.246V146.283Z" fill="#3E8480"/>
<path d="M127.246 137.504H118.504V146.283H127.246V137.504Z" fill="#29564E"/>
<path d="M127.246 128.732H118.504V137.511H127.246V128.732Z" fill="#4EA691"/>
<path d="M127.246 119.947H118.504V128.726H127.246V119.947Z" fill="#3E8480"/>
<path d="M127.246 111.167H118.504V119.946H127.246V111.167Z" fill="#F4921E"/>
<path d="M127.246 102.389H118.504V111.167H127.246V102.389Z" fill="#F9ED19"/>
<path d="M127.246 93.6099H118.504V102.389H127.246V93.6099Z" fill="#544D43"/>
<path d="M127.246 84.8311H118.504V93.6099H127.246V84.8311Z" fill="#544D43"/>
<path d="M127.246 76.0522H118.504V84.8311H127.246V76.0522Z" fill="#F9ED19"/>
<path d="M127.246 67.2734H118.504V76.0523H127.246V67.2734Z" fill="#F4921E"/>
<path d="M127.246 58.4946H118.504V67.2734H127.246V58.4946Z" fill="#29564E"/>
<path d="M127.246 49.709H118.504V58.4878H127.246V49.709Z" fill="#71BCAA"/>
<path d="M127.246 40.9302H118.504V49.709H127.246V40.9302Z" fill="#4EA691"/>
<path d="M127.246 32.1582H118.504V40.937H127.246V32.1582Z" fill="#29564E"/>
<path d="M127.246 23.373H118.504V32.1519H127.246V23.373Z" fill="#71BCAA"/>
<path d="M127.246 14.5938H118.504V23.3726H127.246V14.5938Z" fill="#71BCAA"/>
<path d="M127.246 5.81494H118.504V14.5938H127.246V5.81494Z" fill="#29564E"/>
<path d="M118.504 190.184H109.761V198.962H118.504V190.184Z" fill="#3E8480"/>
<path d="M118.504 181.405H109.761V190.184H118.504V181.405Z" fill="#3E8480"/>
<path d="M118.504 172.619H109.761V181.398H118.504V172.619Z" fill="#29564E"/>
<path d="M118.504 163.847H109.761V172.626H118.504V163.847Z" fill="#3E8480"/>
<path d="M118.504 155.068H109.761V163.847H118.504V155.068Z" fill="#3E8480"/>
<path d="M118.504 146.283H109.761V155.062H118.504V146.283Z" fill="#4EA691"/>
<path d="M118.504 137.504H109.761V146.283H118.504V137.504Z" fill="#29564E"/>
<path d="M118.504 128.732H109.761V137.511H118.504V128.732Z" fill="#4EA691"/>
<path d="M118.504 119.947H109.761V128.726H118.504V119.947Z" fill="#3E8480"/>
<path d="M118.504 111.167H109.761V119.946H118.504V111.167Z" fill="#F4921E"/>
<path d="M118.504 102.389H109.761V111.167H118.504V102.389Z" fill="#F9ED19"/>
<path d="M118.504 93.6099H109.761V102.389H118.504V93.6099Z" fill="#F9ED19"/>
<path d="M118.504 84.8311H109.761V93.6099H118.504V84.8311Z" fill="#F9ED19"/>
<path d="M118.504 76.0522H109.761V84.8311H118.504V76.0522Z" fill="#FFF9C5"/>
<path d="M118.504 67.2734H109.761V76.0523H118.504V67.2734Z" fill="#F4921E"/>
<path d="M118.504 58.4946H109.761V67.2734H118.504V58.4946Z" fill="#29564E"/>
<path d="M118.504 49.709H109.761V58.4878H118.504V49.709Z" fill="#4EA691"/>
<path d="M118.504 40.9302H109.761V49.709H118.504V40.9302Z" fill="#71BCAA"/>
<path d="M118.504 32.1582H109.761V40.937H118.504V32.1582Z" fill="#29564E"/>
<path d="M118.504 23.373H109.761V32.1519H118.504V23.373Z" fill="#71BCAA"/>
<path d="M118.504 14.5938H109.761V23.3726H118.504V14.5938Z" fill="#71BCAA"/>
<path d="M118.504 5.81494H109.761V14.5938H118.504V5.81494Z" fill="#29564E"/>
<path d="M109.76 190.184H101.018V198.962H109.76V190.184Z" fill="#3E8480"/>
<path d="M109.76 181.405H101.018V190.184H109.76V181.405Z" fill="#3E8480"/>
<path d="M109.76 172.619H101.018V181.398H109.76V172.619Z" fill="#29564E"/>
<path d="M109.76 163.847H101.018V172.626H109.76V163.847Z" fill="#3E8480"/>
<path d="M109.76 155.068H101.018V163.847H109.76V155.068Z" fill="#4EA691"/>
<path d="M109.76 146.283H101.018V155.062H109.76V146.283Z" fill="#3E8480"/>
<path d="M109.76 137.504H101.018V146.283H109.76V137.504Z" fill="#29564E"/>
<path d="M109.76 128.732H101.018V137.511H109.76V128.732Z" fill="#4EA691"/>
<path d="M109.76 119.947H101.018V128.726H109.76V119.947Z" fill="#3E8480"/>
<path d="M109.76 111.167H101.018V119.946H109.76V111.167Z" fill="#F4921E"/>
<path d="M109.76 102.389H101.018V111.167H109.76V102.389Z" fill="#F4921E"/>
<path d="M109.76 93.6099H101.018V102.389H109.76V93.6099Z" fill="#FFF9C5"/>
<path d="M109.76 84.8311H101.018V93.6099H109.76V84.8311Z" fill="#FFF9C5"/>
<path d="M109.76 76.0522H101.018V84.8311H109.76V76.0522Z" fill="#FFF9C5"/>
<path d="M109.76 67.2734H101.018V76.0523H109.76V67.2734Z" fill="#F4921E"/>
<path d="M109.76 58.4946H101.018V67.2734H109.76V58.4946Z" fill="#29564E"/>
<path d="M109.76 49.709H101.018V58.4878H109.76V49.709Z" fill="#71BCAA"/>
<path d="M109.76 40.9302H101.018V49.709H109.76V40.9302Z" fill="#4EA691"/>
<path d="M109.76 32.1582H101.018V40.937H109.76V32.1582Z" fill="#29564E"/>
<path d="M109.76 23.373H101.018V32.1519H109.76V23.373Z" fill="#71BCAA"/>
<path d="M109.76 14.5938H101.018V23.3726H109.76V14.5938Z" fill="#71BCAA"/>
<path d="M109.76 5.81494H101.018V14.5938H109.76V5.81494Z" fill="#29564E"/>
<path d="M101.018 190.184H92.2749V198.962H101.018V190.184Z" fill="#3E8480"/>
<path d="M101.018 181.405H92.2749V190.184H101.018V181.405Z" fill="#3E8480"/>
<path d="M101.018 172.619H92.2749V181.398H101.018V172.619Z" fill="#29564E"/>
<path d="M101.018 163.847H92.2749V172.626H101.018V163.847Z" fill="#3E8480"/>
<path d="M101.018 155.068H92.2749V163.847H101.018V155.068Z" fill="#3E8480"/>
<path d="M101.018 146.283H92.2749V155.062H101.018V146.283Z" fill="#4EA691"/>
<path d="M101.018 137.504H92.2749V146.283H101.018V137.504Z" fill="#29564E"/>
<path d="M101.018 128.732H92.2749V137.511H101.018V128.732Z" fill="#4EA691"/>
<path d="M101.018 119.947H92.2749V128.726H101.018V119.947Z" fill="#4EA691"/>
<path d="M101.018 111.167H92.2749V119.946H101.018V111.167Z" fill="#3E8480"/>
<path d="M101.018 102.389H92.2749V111.167H101.018V102.389Z" fill="#29564E"/>
<path d="M101.018 93.6099H92.2749V102.389H101.018V93.6099Z" fill="#F4921E"/>
<path d="M101.018 84.8311H92.2749V93.6099H101.018V84.8311Z" fill="#F4921E"/>
<path d="M101.018 76.0522H92.2749V84.8311H101.018V76.0522Z" fill="#F4921E"/>
<path d="M101.018 67.2734H92.2749V76.0523H101.018V67.2734Z" fill="#3E8480"/>
<path d="M101.018 58.4946H92.2749V67.2734H101.018V58.4946Z" fill="#29564E"/>
<path d="M101.018 49.709H92.2749V58.4878H101.018V49.709Z" fill="#4EA691"/>
<path d="M101.018 40.9302H92.2749V49.709H101.018V40.9302Z" fill="#71BCAA"/>
<path d="M101.018 32.1582H92.2749V40.937H101.018V32.1582Z" fill="#29564E"/>
<path d="M101.018 23.373H92.2749V32.1519H101.018V23.373Z" fill="#71BCAA"/>
<path d="M101.018 14.5938H92.2749V23.3726H101.018V14.5938Z" fill="#71BCAA"/>
<path d="M101.018 5.81494H92.2749V14.5938H101.018V5.81494Z" fill="#29564E"/>
<path d="M92.275 190.184H83.5322V198.962H92.275V190.184Z" fill="#3E8480"/>
<path d="M92.275 181.405H83.5322V190.184H92.275V181.405Z" fill="#3E8480"/>
<path d="M92.275 172.619H83.5322V181.398H92.275V172.619Z" fill="#29564E"/>
<path d="M92.275 163.847H83.5322V172.626H92.275V163.847Z" fill="#3E8480"/>
<path d="M92.275 155.068H83.5322V163.847H92.275V155.068Z" fill="#4EA691"/>
<path d="M92.275 146.283H83.5322V155.062H92.275V146.283Z" fill="#3E8480"/>
<path d="M92.275 137.504H83.5322V146.283H92.275V137.504Z" fill="#29564E"/>
<path d="M92.275 128.732H83.5322V137.511H92.275V128.732Z" fill="#4EA691"/>
<path d="M92.275 119.947H83.5322V128.726H92.275V119.947Z" fill="#4EA691"/>
<path d="M92.275 111.167H83.5322V119.946H92.275V111.167Z" fill="#3E8480"/>
<path d="M92.275 102.389H83.5322V111.167H92.275V102.389Z" fill="#29564E"/>
<path d="M92.275 93.6099H83.5322V102.389H92.275V93.6099Z" fill="#3E8480"/>
<path d="M92.275 84.8311H83.5322V93.6099H92.275V84.8311Z" fill="#3E8480"/>
<path d="M92.275 76.0522H83.5322V84.8311H92.275V76.0522Z" fill="#3E8480"/>
<path d="M92.275 67.2734H83.5322V76.0523H92.275V67.2734Z" fill="#4EA691"/>
<path d="M92.275 58.4946H83.5322V67.2734H92.275V58.4946Z" fill="#29564E"/>
<path d="M92.275 49.709H83.5322V58.4878H92.275V49.709Z" fill="#71BCAA"/>
<path d="M92.275 40.9302H83.5322V49.709H92.275V40.9302Z" fill="#4EA691"/>
<path d="M92.275 32.1582H83.5322V40.937H92.275V32.1582Z" fill="#29564E"/>
<path d="M92.275 23.373H83.5322V32.1519H92.275V23.373Z" fill="#71BCAA"/>
<path d="M92.275 14.5938H83.5322V23.3726H92.275V14.5938Z" fill="#71BCAA"/>
<path d="M92.275 5.81494H83.5322V14.5938H92.275V5.81494Z" fill="#29564E"/>
<path d="M83.526 190.184H74.7832V198.962H83.526V190.184Z" fill="#3E8480"/>
<path d="M83.526 181.405H74.7832V190.184H83.526V181.405Z" fill="#3E8480"/>
<path d="M83.526 172.619H74.7832V181.398H83.526V172.619Z" fill="#29564E"/>
<path d="M83.526 163.847H74.7832V172.626H83.526V163.847Z" fill="#3E8480"/>
<path d="M83.526 155.068H74.7832V163.847H83.526V155.068Z" fill="#3E8480"/>
<path d="M83.526 146.283H74.7832V155.062H83.526V146.283Z" fill="#4EA691"/>
<path d="M83.526 137.504H74.7832V146.283H83.526V137.504Z" fill="#29564E"/>
<path d="M83.526 128.732H74.7832V137.511H83.526V128.732Z" fill="#4EA691"/>
<path d="M83.526 119.947H74.7832V128.726H83.526V119.947Z" fill="#4EA691"/>
<path d="M83.526 111.167H74.7832V119.946H83.526V111.167Z" fill="#3E8480"/>
<path d="M83.526 102.389H74.7832V111.167H83.526V102.389Z" fill="#29564E"/>
<path d="M83.526 93.6099H74.7832V102.389H83.526V93.6099Z" fill="#4EA691"/>
<path d="M83.526 84.8311H74.7832V93.6099H83.526V84.8311Z" fill="#4EA691"/>
<path d="M83.526 76.0522H74.7832V84.8311H83.526V76.0522Z" fill="#4EA691"/>
<path d="M83.526 67.2734H74.7832V76.0523H83.526V67.2734Z" fill="#4EA691"/>
<path d="M83.526 58.4946H74.7832V67.2734H83.526V58.4946Z" fill="#29564E"/>
<path d="M83.526 49.709H74.7832V58.4878H83.526V49.709Z" fill="#4EA691"/>
<path d="M83.526 40.9302H74.7832V49.709H83.526V40.9302Z" fill="#71BCAA"/>
<path d="M83.526 32.1582H74.7832V40.937H83.526V32.1582Z" fill="#29564E"/>
<path d="M83.526 23.373H74.7832V32.1519H83.526V23.373Z" fill="#71BCAA"/>
<path d="M83.526 14.5938H74.7832V23.3726H83.526V14.5938Z" fill="#71BCAA"/>
<path d="M83.526 5.81494H74.7832V14.5938H83.526V5.81494Z" fill="#29564E"/>
<path d="M74.7897 190.184H66.0469V198.962H74.7897V190.184Z" fill="#3E8480"/>
<path d="M74.7897 181.405H66.0469V190.184H74.7897V181.405Z" fill="#3E8480"/>
<path d="M74.7897 172.619H66.0469V181.398H74.7897V172.619Z" fill="#29564E"/>
<path d="M74.7897 163.847H66.0469V172.626H74.7897V163.847Z" fill="#3E8480"/>
<path d="M74.7897 155.068H66.0469V163.847H74.7897V155.068Z" fill="#4EA691"/>
<path d="M74.7897 146.283H66.0469V155.062H74.7897V146.283Z" fill="#3E8480"/>
<path d="M74.7897 137.504H66.0469V146.283H74.7897V137.504Z" fill="#29564E"/>
<path d="M74.7897 128.732H66.0469V137.511H74.7897V128.732Z" fill="#4EA691"/>
<path d="M74.7897 119.947H66.0469V128.726H74.7897V119.947Z" fill="#4EA691"/>
<path d="M74.7897 111.167H66.0469V119.946H74.7897V111.167Z" fill="#3E8480"/>
<path d="M74.7897 102.389H66.0469V111.167H74.7897V102.389Z" fill="#29564E"/>
<path d="M74.7897 93.6099H66.0469V102.389H74.7897V93.6099Z" fill="#4EA691"/>
<path d="M74.7897 84.8311H66.0469V93.6099H74.7897V84.8311Z" fill="#4EA691"/>
<path d="M74.7897 76.0522H66.0469V84.8311H74.7897V76.0522Z" fill="#4EA691"/>
<path d="M74.7897 67.2734H66.0469V76.0523H74.7897V67.2734Z" fill="#4EA691"/>
<path d="M74.7897 58.4946H66.0469V67.2734H74.7897V58.4946Z" fill="#29564E"/>
<path d="M74.7897 49.709H66.0469V58.4878H74.7897V49.709Z" fill="#71BCAA"/>
<path d="M74.7897 40.9302H66.0469V49.709H74.7897V40.9302Z" fill="#4EA691"/>
<path d="M74.7897 32.1582H66.0469V40.937H74.7897V32.1582Z" fill="#29564E"/>
<path d="M74.7897 23.373H66.0469V32.1519H74.7897V23.373Z" fill="#71BCAA"/>
<path d="M74.7897 14.5938H66.0469V23.3726H74.7897V14.5938Z" fill="#71BCAA"/>
<path d="M74.7897 5.81494H66.0469V14.5938H74.7897V5.81494Z" fill="#29564E"/>
<path d="M66.047 190.184H57.3042V198.962H66.047V190.184Z" fill="#3E8480"/>
<path d="M66.047 181.405H57.3042V190.184H66.047V181.405Z" fill="#3E8480"/>
<path d="M66.047 172.619H57.3042V181.398H66.047V172.619Z" fill="#29564E"/>
<path d="M66.047 163.847H57.3042V172.626H66.047V163.847Z" fill="#3E8480"/>
<path d="M66.047 155.068H57.3042V163.847H66.047V155.068Z" fill="#3E8480"/>
<path d="M66.047 146.283H57.3042V155.062H66.047V146.283Z" fill="#4EA691"/>
<path d="M66.047 137.504H57.3042V146.283H66.047V137.504Z" fill="#29564E"/>
<path d="M66.047 128.732H57.3042V137.511H66.047V128.732Z" fill="#4EA691"/>
<path d="M66.047 119.947H57.3042V128.726H66.047V119.947Z" fill="#4EA691"/>
<path d="M66.047 111.167H57.3042V119.946H66.047V111.167Z" fill="#3E8480"/>
<path d="M66.047 102.389H57.3042V111.167H66.047V102.389Z" fill="#29564E"/>
<path d="M66.047 93.6099H57.3042V102.389H66.047V93.6099Z" fill="#4EA691"/>
<path d="M66.047 84.8311H57.3042V93.6099H66.047V84.8311Z" fill="#4EA691"/>
<path d="M66.047 76.0522H57.3042V84.8311H66.047V76.0522Z" fill="#4EA691"/>
<path d="M66.047 67.2734H57.3042V76.0523H66.047V67.2734Z" fill="#4EA691"/>
<path d="M66.047 58.4946H57.3042V67.2734H66.047V58.4946Z" fill="#29564E"/>
<path d="M66.047 49.709H57.3042V58.4878H66.047V49.709Z" fill="#4EA691"/>
<path d="M66.047 40.9302H57.3042V49.709H66.047V40.9302Z" fill="#71BCAA"/>
<path d="M66.047 32.1582H57.3042V40.937H66.047V32.1582Z" fill="#29564E"/>
<path d="M66.047 23.373H57.3042V32.1519H66.047V23.373Z" fill="#71BCAA"/>
<path d="M66.047 14.5938H57.3042V23.3726H66.047V14.5938Z" fill="#71BCAA"/>
<path d="M57.2973 190.184H48.5544V198.962H57.2973V190.184Z" fill="#3E8480"/>
<path d="M57.2973 181.405H48.5544V190.184H57.2973V181.405Z" fill="#3E8480"/>
<path d="M57.2973 172.619H48.5544V181.398H57.2973V172.619Z" fill="#29564E"/>
<path d="M57.2973 163.847H48.5544V172.626H57.2973V163.847Z" fill="#3E8480"/>
<path d="M57.2973 155.068H48.5544V163.847H57.2973V155.068Z" fill="#4EA691"/>
<path d="M57.2973 146.283H48.5544V155.062H57.2973V146.283Z" fill="#3E8480"/>
<path d="M57.2973 137.504H48.5544V146.283H57.2973V137.504Z" fill="#29564E"/>
<path d="M57.2973 128.732H48.5544V137.511H57.2973V128.732Z" fill="#4EA691"/>
<path d="M57.2973 119.947H48.5544V128.726H57.2973V119.947Z" fill="#4EA691"/>
<path d="M57.2973 111.167H48.5544V119.946H57.2973V111.167Z" fill="#3E8480"/>
<path d="M57.2973 102.389H48.5544V111.167H57.2973V102.389Z" fill="#29564E"/>
<path d="M57.2973 93.6099H48.5544V102.389H57.2973V93.6099Z" fill="#4EA691"/>
<path d="M57.2973 84.8311H48.5544V93.6099H57.2973V84.8311Z" fill="#4EA691"/>
<path d="M57.2973 76.0522H48.5544V84.8311H57.2973V76.0522Z" fill="#4EA691"/>
<path d="M57.2973 67.2734H48.5544V76.0523H57.2973V67.2734Z" fill="#4EA691"/>
<path d="M57.2973 58.4946H48.5544V67.2734H57.2973V58.4946Z" fill="#29564E"/>
<path d="M57.2973 49.709H48.5544V58.4878H57.2973V49.709Z" fill="#71BCAA"/>
<path d="M57.2973 40.9302H48.5544V49.709H57.2973V40.9302Z" fill="#4EA691"/>
<path d="M57.2973 32.1582H48.5544V40.937H57.2973V32.1582Z" fill="#29564E"/>
<path d="M57.2973 23.373H48.5544V32.1519H57.2973V23.373Z" fill="#71BCAA"/>
<path d="M57.2973 14.5938H48.5544V23.3726H57.2973V14.5938Z" fill="#F4921E"/>
<path d="M48.5546 190.184H39.8118V198.962H48.5546V190.184Z" fill="#3E8480"/>
<path d="M48.5546 181.405H39.8118V190.184H48.5546V181.405Z" fill="#3E8480"/>
<path d="M48.5546 172.619H39.8118V181.398H48.5546V172.619Z" fill="#29564E"/>
<path d="M48.5546 163.847H39.8118V172.626H48.5546V163.847Z" fill="#3E8480"/>
<path d="M48.5546 155.068H39.8118V163.847H48.5546V155.068Z" fill="#3E8480"/>
<path d="M48.5546 146.283H39.8118V155.062H48.5546V146.283Z" fill="#4EA691"/>
<path d="M48.5546 137.504H39.8118V146.283H48.5546V137.504Z" fill="#29564E"/>
<path d="M48.5546 128.732H39.8118V137.511H48.5546V128.732Z" fill="#4EA691"/>
<path d="M48.5546 119.947H39.8118V128.726H48.5546V119.947Z" fill="#4EA691"/>
<path d="M48.5546 111.167H39.8118V119.946H48.5546V111.167Z" fill="#3E8480"/>
<path d="M48.5546 102.389H39.8118V111.167H48.5546V102.389Z" fill="#29564E"/>
<path d="M48.5546 93.6099H39.8118V102.389H48.5546V93.6099Z" fill="#4EA691"/>
<path d="M48.5546 84.8311H39.8118V93.6099H48.5546V84.8311Z" fill="#4EA691"/>
<path d="M48.5546 76.0522H39.8118V84.8311H48.5546V76.0522Z" fill="#4EA691"/>
<path d="M48.5546 67.2734H39.8118V76.0523H48.5546V67.2734Z" fill="#4EA691"/>
<path d="M48.5546 58.4946H39.8118V67.2734H48.5546V58.4946Z" fill="#29564E"/>
<path d="M48.5546 49.709H39.8118V58.4878H48.5546V49.709Z" fill="#4EA691"/>
<path d="M48.5546 40.9302H39.8118V49.709H48.5546V40.9302Z" fill="#71BCAA"/>
<path d="M48.5546 32.1582H39.8118V40.937H48.5546V32.1582Z" fill="#29564E"/>
<path d="M48.5546 23.373H39.8118V32.1519H48.5546V23.373Z" fill="#F4921E"/>
<path d="M48.5546 14.5938H39.8118V23.3726H48.5546V14.5938Z" fill="#FFF9C5"/>
<path d="M39.8182 190.184H31.0754V198.962H39.8182V190.184Z" fill="#F4921E"/>
<path d="M39.8182 181.405H31.0754V190.184H39.8182V181.405Z" fill="#3E8480"/>
<path d="M39.8182 172.619H31.0754V181.398H39.8182V172.619Z" fill="#29564E"/>
<path d="M39.8182 163.847H31.0754V172.626H39.8182V163.847Z" fill="#3E8480"/>
<path d="M39.8182 155.068H31.0754V163.847H39.8182V155.068Z" fill="#4EA691"/>
<path d="M39.8182 146.283H31.0754V155.062H39.8182V146.283Z" fill="#3E8480"/>
<path d="M39.8182 137.504H31.0754V146.283H39.8182V137.504Z" fill="#29564E"/>
<path d="M39.8182 128.732H31.0754V137.511H39.8182V128.732Z" fill="#4EA691"/>
<path d="M39.8182 119.947H31.0754V128.726H39.8182V119.947Z" fill="#4EA691"/>
<path d="M39.8182 111.167H31.0754V119.946H39.8182V111.167Z" fill="#3E8480"/>
<path d="M39.8182 102.389H31.0754V111.167H39.8182V102.389Z" fill="#29564E"/>
<path d="M39.8182 93.6099H31.0754V102.389H39.8182V93.6099Z" fill="#4EA691"/>
<path d="M39.8182 84.8311H31.0754V93.6099H39.8182V84.8311Z" fill="#4EA691"/>
<path d="M39.8182 76.0522H31.0754V84.8311H39.8182V76.0522Z" fill="#4EA691"/>
<path d="M39.8182 67.2734H31.0754V76.0523H39.8182V67.2734Z" fill="#4EA691"/>
<path d="M39.8182 58.4946H31.0754V67.2734H39.8182V58.4946Z" fill="#29564E"/>
<path d="M39.8182 49.709H31.0754V58.4878H39.8182V49.709Z" fill="#F4921E"/>
<path d="M39.8182 40.9302H31.0754V49.709H39.8182V40.9302Z" fill="#F4921E"/>
<path d="M39.8182 32.1582H31.0754V40.937H39.8182V32.1582Z" fill="#F4921E"/>
<path d="M39.8182 23.373H31.0754V32.1519H39.8182V23.373Z" fill="#FFF9C5"/>
<path d="M31.0752 190.184H22.3257V198.962H31.0752V190.184Z" fill="#F9ED19"/>
<path d="M31.0752 181.405H22.3257V190.184H31.0752V181.405Z" fill="#F4921E"/>
<path d="M31.0752 172.619H22.3257V181.398H31.0752V172.619Z" fill="#29564E"/>
<path d="M31.0752 163.847H22.3257V172.626H31.0752V163.847Z" fill="#3E8480"/>
<path d="M31.0752 155.068H22.3257V163.847H31.0752V155.068Z" fill="#3E8480"/>
<path d="M31.0752 146.283H22.3257V155.062H31.0752V146.283Z" fill="#4EA691"/>
<path d="M31.0752 137.504H22.3257V146.283H31.0752V137.504Z" fill="#29564E"/>
<path d="M31.0752 128.732H22.3257V137.511H31.0752V128.732Z" fill="#4EA691"/>
<path d="M31.0752 119.947H22.3257V128.726H31.0752V119.947Z" fill="#4EA691"/>
<path d="M31.0752 111.167H22.3257V119.946H31.0752V111.167Z" fill="#3E8480"/>
<path d="M31.0752 102.389H22.3257V111.167H31.0752V102.389Z" fill="#29564E"/>
<path d="M31.0752 93.6099H22.3257V102.389H31.0752V93.6099Z" fill="#F4921E"/>
<path d="M31.0752 84.8311H22.3257V93.6099H31.0752V84.8311Z" fill="#D3771C"/>
<path d="M31.0752 76.0522H22.3257V84.8311H31.0752V76.0522Z" fill="#F4921E"/>
<path d="M31.0752 67.2734H22.3257V76.0523H31.0752V67.2734Z" fill="#F4921E"/>
<path d="M31.0752 58.4946H22.3257V67.2734H31.0752V58.4946Z" fill="#F4921E"/>
<path d="M31.0752 49.709H22.3257V58.4878H31.0752V49.709Z" fill="#F9ED19"/>
<path d="M31.0752 40.9302H22.3257V49.709H31.0752V40.9302Z" fill="#F9ED19"/>
<path d="M31.0752 32.1582H22.3257V40.937H31.0752V32.1582Z" fill="#FFF9C5"/>
<path d="M22.3258 190.184H13.583V198.962H22.3258V190.184Z" fill="#F9ED19"/>
<path d="M22.3258 181.405H13.583V190.184H22.3258V181.405Z" fill="#F4921E"/>
<path d="M22.3258 172.619H13.583V181.398H22.3258V172.619Z" fill="#F4921E"/>
<path d="M22.3258 163.847H13.583V172.626H22.3258V163.847Z" fill="#3E8480"/>
<path d="M22.3258 155.068H13.583V163.847H22.3258V155.068Z" fill="#4EA691"/>
<path d="M22.3258 146.283H13.583V155.062H22.3258V146.283Z" fill="#3E8480"/>
<path d="M22.3258 137.504H13.583V146.283H22.3258V137.504Z" fill="#29564E"/>
<path d="M22.3258 128.732H13.583V137.511H22.3258V128.732Z" fill="#4EA691"/>
<path d="M22.3258 119.947H13.583V128.726H22.3258V119.947Z" fill="#3E8480"/>
<path d="M22.3258 111.167H13.583V119.946H22.3258V111.167Z" fill="#F4921E"/>
<path d="M22.3258 102.389H13.583V111.167H22.3258V102.389Z" fill="#F4921E"/>
<path d="M22.3258 93.6099H13.583V102.389H22.3258V93.6099Z" fill="#F9ED19"/>
<path d="M22.3258 84.8311H13.583V93.6099H22.3258V84.8311Z" fill="#D3771C"/>
<path d="M22.3258 76.0522H13.583V84.8311H22.3258V76.0522Z" fill="#F9ED19"/>
<path d="M22.3258 67.2734H13.583V76.0523H22.3258V67.2734Z" fill="#F9ED19"/>
<path d="M22.3258 58.4946H13.583V67.2734H22.3258V58.4946Z" fill="#FFF9C5"/>
<path d="M13.5831 190.184H4.84033V198.962H13.5831V190.184Z" fill="#F9ED19"/>
<path d="M13.5831 181.405H4.84033V190.184H13.5831V181.405Z" fill="#F9ED19"/>
<path d="M13.5831 172.619H4.84033V181.398H13.5831V172.619Z" fill="#F9ED19"/>
<path d="M13.5831 111.167H4.84033V119.946H13.5831V111.167Z" fill="#F9ED19"/>
<path d="M13.5831 102.389H4.84033V111.167H13.5831V102.389Z" fill="#F9ED19"/>
<path d="M13.5831 93.6099H4.84033V102.389H13.5831V93.6099Z" fill="#FFF9C5"/>
<path d="M77.398 0.0371094H70.0488V7.41076H77.398V0.0371094Z" fill="#98A2B3"/>
<path d="M84.7461 0.0371094H77.397V7.41076H84.7461V0.0371094Z" fill="#98A2B3"/>
<path d="M92.096 0.0371094H84.7468V7.41076H92.096V0.0371094Z" fill="#98A2B3"/>
<path d="M99.4431 0.0371094H92.094V7.41076H99.4431V0.0371094Z" fill="#98A2B3"/>
<path d="M77.398 7.41064H70.0488V14.7843H77.398V7.41064Z" fill="#D0D5DD"/>
<path d="M84.7461 7.41064H77.397V14.7843H84.7461V7.41064Z" fill="#98A2B3"/>
<path d="M92.096 7.41064H84.7468V14.7843H92.096V7.41064Z" fill="#98A2B3"/>
<path d="M99.4431 7.41064H92.094V14.7843H99.4431V7.41064Z" fill="#D0D5DD"/>
<path d="M77.398 14.7842H70.0488V22.1578H77.398V14.7842Z" fill="#D0D5DD"/>
<path d="M84.7461 14.7842H77.397V22.1578H84.7461V14.7842Z" fill="#D0D5DD"/>
<path d="M92.096 14.7842H84.7468V22.1578H92.096V14.7842Z" fill="#98A2B3"/>
<path d="M99.4431 14.7842H92.094V22.1578H99.4431V14.7842Z" fill="#D0D5DD"/>
<path d="M77.398 22.1577H70.0488V29.5314H77.398V22.1577Z" fill="#F9FAFB"/>
<path d="M84.7461 22.1577H77.397V29.5314H84.7461V22.1577Z" fill="#D0D5DD"/>
<path d="M92.096 22.1577H84.7468V29.5314H92.096V22.1577Z" fill="#D0D5DD"/>
<path d="M99.4431 22.1577H92.094V29.5314H99.4431V22.1577Z" fill="#D0D5DD"/>
<path d="M77.398 29.5312H70.0488V36.9049H77.398V29.5312Z" fill="#F9FAFB"/>
<path d="M84.7461 29.5312H77.397V36.9049H84.7461V29.5312Z" fill="#D0D5DD"/>
<path d="M92.096 29.5312H84.7468V36.9049H92.096V29.5312Z" fill="#F9FAFB"/>
<path d="M99.4431 29.5312H92.094V36.9049H99.4431V29.5312Z" fill="#D0D5DD"/>
<path d="M77.398 36.9048H70.0488V44.2784H77.398V36.9048Z" fill="#F9FAFB"/>
<path d="M84.7461 36.9048H77.397V44.2784H84.7461V36.9048Z" fill="#F9FAFB"/>
<path d="M92.096 36.9048H84.7468V44.2784H92.096V36.9048Z" fill="#F9FAFB"/>
<path d="M99.4431 36.9048H92.094V44.2784H99.4431V36.9048Z" fill="#F9FAFB"/>
<path d="M77.398 44.2783H70.0488V51.652H77.398V44.2783Z" fill="#F9FAFB"/>
<path d="M84.7461 44.2783H77.397V51.652H84.7461V44.2783Z" fill="#F9FAFB"/>
<path d="M92.096 44.2783H84.7468V51.652H92.096V44.2783Z" fill="#F9FAFB"/>
<path d="M99.4431 44.2783H92.094V51.652H99.4431V44.2783Z" fill="#F9FAFB"/>
<path d="M77.398 51.6519H70.0488V59.0255H77.398V51.6519Z" fill="#F9FAFB"/>
<path d="M84.7461 51.6519H77.397V59.0255H84.7461V51.6519Z" fill="#F9FAFB"/>
<path d="M92.096 51.6519H84.7468V59.0255H92.096V51.6519Z" fill="#F9FAFB"/>
<path d="M99.4431 51.6519H92.094V59.0255H99.4431V51.6519Z" fill="#F9FAFB"/>
<path d="M77.398 59.0254H70.0488V66.399H77.398V59.0254Z" fill="#F9FAFB"/>
<path d="M84.7461 59.0254H77.397V66.399H84.7461V59.0254Z" fill="#F9FAFB"/>
<path d="M92.096 59.0254H84.7468V66.399H92.096V59.0254Z" fill="#F9FAFB"/>
<path d="M99.4431 59.0254H92.094V66.399H99.4431V59.0254Z" fill="#F9FAFB"/>
<path d="M77.398 66.3989H70.0488V73.7726H77.398V66.3989Z" fill="#D0D5DD"/>
<path d="M84.7461 66.3989H77.397V73.7726H84.7461V66.3989Z" fill="#F9FAFB"/>
<path d="M92.096 66.3989H84.7468V73.7726H92.096V66.3989Z" fill="#D0D5DD"/>
<path d="M99.4431 66.3989H92.094V73.7726H99.4431V66.3989Z" fill="#F9FAFB"/>
<path d="M77.398 73.7725H70.0488V81.1461H77.398V73.7725Z" fill="#D0D5DD"/>
<path d="M84.7461 73.7725H77.397V81.1461H84.7461V73.7725Z" fill="#D0D5DD"/>
<path d="M92.096 73.7725H84.7468V81.1461H92.096V73.7725Z" fill="#D0D5DD"/>
<path d="M99.4431 73.7725H92.094V81.1461H99.4431V73.7725Z" fill="#F9FAFB"/>
<path d="M77.398 81.146H70.0488V88.5196H77.398V81.146Z" fill="#D0D5DD"/>
<path d="M84.7461 81.146H77.397V88.5196H84.7461V81.146Z" fill="#D0D5DD"/>
<path d="M92.096 81.146H84.7468V88.5196H92.096V81.146Z" fill="#D0D5DD"/>
<path d="M99.4431 81.146H92.094V88.5196H99.4431V81.146Z" fill="#D0D5DD"/>
<path d="M77.398 88.5195H70.0488V95.8932H77.398V88.5195Z" fill="#D0D5DD"/>
<path d="M84.7461 88.5195H77.397V95.8932H84.7461V88.5195Z" fill="#98A2B3"/>
<path d="M92.096 88.5195H84.7468V95.8932H92.096V88.5195Z" fill="#D0D5DD"/>
<path d="M99.4431 88.5195H92.094V95.8932H99.4431V88.5195Z" fill="#D0D5DD"/>
<path d="M77.398 95.8931H70.0488V103.267H77.398V95.8931Z" fill="#D0D5DD"/>
<path d="M84.7461 95.8931H77.397V103.267H84.7461V95.8931Z" fill="#98A2B3"/>
<path d="M92.096 95.8931H84.7468V103.267H92.096V95.8931Z" fill="#98A2B3"/>
<path d="M99.4431 95.8931H92.094V103.267H99.4431V95.8931Z" fill="#D0D5DD"/>
<path d="M77.398 103.267H70.0488V110.64H77.398V103.267Z" fill="#98A2B3"/>
<path d="M84.7461 103.267H77.397V110.64H84.7461V103.267Z" fill="#98A2B3"/>
<path d="M92.096 103.267H84.7468V110.64H92.096V103.267Z" fill="#98A2B3"/>
<path d="M99.4431 103.267H92.094V110.64H99.4431V103.267Z" fill="#98A2B3"/>
<path d="M153.336 0.0371094H145.987V7.41076H153.336V0.0371094Z" fill="#98A2B3"/>
<path d="M160.684 0.0371094H153.335V7.41076H160.684V0.0371094Z" fill="#98A2B3"/>
<path d="M168.034 0.0371094H160.685V7.41076H168.034V0.0371094Z" fill="#98A2B3"/>
<path d="M175.381 0.0371094H168.032V7.41076H175.381V0.0371094Z" fill="#98A2B3"/>
<path d="M153.336 7.41064H145.987V14.7843H153.336V7.41064Z" fill="#D0D5DD"/>
<path d="M160.684 7.41064H153.335V14.7843H160.684V7.41064Z" fill="#98A2B3"/>
<path d="M168.034 7.41064H160.685V14.7843H168.034V7.41064Z" fill="#98A2B3"/>
<path d="M175.381 7.41064H168.032V14.7843H175.381V7.41064Z" fill="#D0D5DD"/>
<path d="M153.336 14.7842H145.987V22.1578H153.336V14.7842Z" fill="#D0D5DD"/>
<path d="M160.684 14.7842H153.335V22.1578H160.684V14.7842Z" fill="#D0D5DD"/>
<path d="M168.034 14.7842H160.685V22.1578H168.034V14.7842Z" fill="#98A2B3"/>
<path d="M175.381 14.7842H168.032V22.1578H175.381V14.7842Z" fill="#D0D5DD"/>
<path d="M153.336 22.1577H145.987V29.5314H153.336V22.1577Z" fill="#F9FAFB"/>
<path d="M160.684 22.1577H153.335V29.5314H160.684V22.1577Z" fill="#D0D5DD"/>
<path d="M168.034 22.1577H160.685V29.5314H168.034V22.1577Z" fill="#D0D5DD"/>
<path d="M175.381 22.1577H168.032V29.5314H175.381V22.1577Z" fill="#D0D5DD"/>
<path d="M153.336 29.5312H145.987V36.9049H153.336V29.5312Z" fill="#F9FAFB"/>
<path d="M160.684 29.5312H153.335V36.9049H160.684V29.5312Z" fill="#D0D5DD"/>
<path d="M168.034 29.5312H160.685V36.9049H168.034V29.5312Z" fill="#F9FAFB"/>
<path d="M175.381 29.5312H168.032V36.9049H175.381V29.5312Z" fill="#D0D5DD"/>
<path d="M153.336 36.9048H145.987V44.2784H153.336V36.9048Z" fill="#F9FAFB"/>
<path d="M160.684 36.9048H153.335V44.2784H160.684V36.9048Z" fill="#F9FAFB"/>
<path d="M168.034 36.9048H160.685V44.2784H168.034V36.9048Z" fill="#F9FAFB"/>
<path d="M175.381 36.9048H168.032V44.2784H175.381V36.9048Z" fill="#F9FAFB"/>
<path d="M153.336 44.2783H145.987V51.652H153.336V44.2783Z" fill="#F9FAFB"/>
<path d="M160.684 44.2783H153.335V51.652H160.684V44.2783Z" fill="#F9FAFB"/>
<path d="M168.034 44.2783H160.685V51.652H168.034V44.2783Z" fill="#F9FAFB"/>
<path d="M175.381 44.2783H168.032V51.652H175.381V44.2783Z" fill="#F9FAFB"/>
<path d="M153.336 51.6519H145.987V59.0255H153.336V51.6519Z" fill="#F9FAFB"/>
<path d="M160.684 51.6519H153.335V59.0255H160.684V51.6519Z" fill="#F9FAFB"/>
<path d="M168.034 51.6519H160.685V59.0255H168.034V51.6519Z" fill="#F9FAFB"/>
<path d="M175.381 51.6519H168.032V59.0255H175.381V51.6519Z" fill="#F9FAFB"/>
<path d="M153.336 59.0254H145.987V66.399H153.336V59.0254Z" fill="#F9FAFB"/>
<path d="M160.684 59.0254H153.335V66.399H160.684V59.0254Z" fill="#F9FAFB"/>
<path d="M168.034 59.0254H160.685V66.399H168.034V59.0254Z" fill="#F9FAFB"/>
<path d="M175.381 59.0254H168.032V66.399H175.381V59.0254Z" fill="#F9FAFB"/>
<path d="M153.336 66.3989H145.987V73.7726H153.336V66.3989Z" fill="#D0D5DD"/>
<path d="M160.684 66.3989H153.335V73.7726H160.684V66.3989Z" fill="#F9FAFB"/>
<path d="M168.034 66.3989H160.685V73.7726H168.034V66.3989Z" fill="#D0D5DD"/>
<path d="M175.381 66.3989H168.032V73.7726H175.381V66.3989Z" fill="#F9FAFB"/>
<path d="M153.336 73.7725H145.987V81.1461H153.336V73.7725Z" fill="#D0D5DD"/>
<path d="M160.684 73.7725H153.335V81.1461H160.684V73.7725Z" fill="#D0D5DD"/>
<path d="M168.034 73.7725H160.685V81.1461H168.034V73.7725Z" fill="#D0D5DD"/>
<path d="M175.381 73.7725H168.032V81.1461H175.381V73.7725Z" fill="#F9FAFB"/>
<path d="M153.336 81.146H145.987V88.5196H153.336V81.146Z" fill="#D0D5DD"/>
<path d="M160.684 81.146H153.335V88.5196H160.684V81.146Z" fill="#D0D5DD"/>
<path d="M168.034 81.146H160.685V88.5196H168.034V81.146Z" fill="#D0D5DD"/>
<path d="M175.381 81.146H168.032V88.5196H175.381V81.146Z" fill="#D0D5DD"/>
<path d="M153.336 88.5195H145.987V95.8932H153.336V88.5195Z" fill="#D0D5DD"/>
<path d="M160.684 88.5195H153.335V95.8932H160.684V88.5195Z" fill="#98A2B3"/>
<path d="M168.034 88.5195H160.685V95.8932H168.034V88.5195Z" fill="#D0D5DD"/>
<path d="M175.381 88.5195H168.032V95.8932H175.381V88.5195Z" fill="#D0D5DD"/>
<path d="M153.336 95.8931H145.987V103.267H153.336V95.8931Z" fill="#D0D5DD"/>
<path d="M160.684 95.8931H153.335V103.267H160.684V95.8931Z" fill="#98A2B3"/>
<path d="M168.034 95.8931H160.685V103.267H168.034V95.8931Z" fill="#98A2B3"/>
<path d="M175.381 95.8931H168.032V103.267H175.381V95.8931Z" fill="#D0D5DD"/>
<path d="M153.336 103.267H145.987V110.64H153.336V103.267Z" fill="#98A2B3"/>
<path d="M160.684 103.267H153.335V110.64H160.684V103.267Z" fill="#98A2B3"/>
<path d="M168.034 103.267H160.685V110.64H168.034V103.267Z" fill="#98A2B3"/>
<path d="M175.381 103.267H168.032V110.64H175.381V103.267Z" fill="#98A2B3"/>
</g>
<defs>
<filter id="filter0_d_792_22734" x="0.840332" y="0.0371094" width="244.069" height="206.925" filterUnits="userSpaceOnUse" color-interpolation-filters="sRGB">
<feFlood flood-opacity="0" result="BackgroundImageFix"/>
<feColorMatrix in="SourceAlpha" type="matrix" values="0 0 0 0 0 0 0 0 0 0 0 0 0 0 0 0 0 0 127 0" result="hardAlpha"/>
<feOffset dy="4"/>
<feGaussianBlur stdDeviation="2"/>
<feComposite in2="hardAlpha" operator="out"/>
<feColorMatrix type="matrix" values="0 0 0 0 0 0 0 0 0 0 0 0 0 0 0 0 0 0 0.25 0"/>
<feBlend mode="normal" in2="BackgroundImageFix" result="effect1_dropShadow_792_22734"/>
<feBlend mode="normal" in="SourceGraphic" in2="effect1_dropShadow_792_22734" result="shape"/>
</filter>
</defs>
</svg>
