<svg width="29" height="48" viewBox="0 0 29 48" fill="none" xmlns="http://www.w3.org/2000/svg">
<path d="M2.33105 45.4053V2.56409H7.0912L26.7268 22.1997V25.7698L7.0912 45.4053H2.33105Z" fill="#F5A927"/>
<rect x="0.255859" y="0.453369" width="4.70931" height="4.70931" fill="#754138"/>
<rect x="4.96484" y="0.453369" width="4.70931" height="4.70931" fill="#754138"/>
<rect x="0.255859" y="5.16266" width="4.70931" height="4.70931" fill="#754138"/>
<rect x="0.255859" y="9.87195" width="4.70931" height="4.70931" fill="#754138"/>
<rect x="0.255859" y="14.5814" width="4.70931" height="4.70931" fill="#754138"/>
<rect x="0.255859" y="19.2907" width="4.70931" height="4.70931" fill="#754138"/>
<rect x="0.255859" y="24" width="4.70931" height="4.70931" fill="#754138"/>
<rect x="0.255859" y="28.7092" width="4.70931" height="4.70931" fill="#754138"/>
<rect x="0.255859" y="33.4186" width="4.70931" height="4.70931" fill="#754138"/>
<rect x="0.255859" y="38.1279" width="4.70931" height="4.70931" fill="#754138"/>
<rect x="9.67432" y="5.16266" width="4.70931" height="4.70931" fill="#754138"/>
<rect x="14.3833" y="9.87195" width="4.70931" height="4.70931" fill="#754138"/>
<rect x="19.0933" y="14.5814" width="4.70931" height="4.70931" fill="#754138"/>
<rect x="23.8027" y="19.2907" width="4.70931" height="4.70931" fill="#754138"/>
<rect x="23.8027" y="24" width="4.70931" height="4.70931" fill="#754138"/>
<rect x="19.0933" y="28.7092" width="4.70931" height="4.70931" fill="#754138"/>
<rect x="14.3833" y="33.4186" width="4.70931" height="4.70931" fill="#754138"/>
<rect x="9.67432" y="38.1279" width="4.70931" height="4.70931" fill="#754138"/>
<rect x="4.96484" y="42.8373" width="4.70931" height="4.70931" fill="#754138"/>
<rect x="0.255859" y="42.8373" width="4.70931" height="4.70931" fill="#754138"/>
</svg>
