<svg width="29" height="48" viewBox="0 0 29 48" fill="none" xmlns="http://www.w3.org/2000/svg">
<path d="M26.1807 2.14122L26.1807 44.9825L21.4205 44.9825L1.78495 25.3469L1.78495 21.7768L21.4205 2.14122L26.1807 2.14122Z" fill="#F5A927"/>
<rect x="28.2559" y="47.0932" width="4.70931" height="4.70931" transform="rotate(-180 28.2559 47.0932)" fill="#754138"/>
<rect x="23.5469" y="47.0932" width="4.70931" height="4.70931" transform="rotate(-180 23.5469 47.0932)" fill="#754138"/>
<rect x="28.2559" y="42.3839" width="4.70931" height="4.70931" transform="rotate(-180 28.2559 42.3839)" fill="#754138"/>
<rect x="28.2559" y="37.6746" width="4.70931" height="4.70931" transform="rotate(-180 28.2559 37.6746)" fill="#754138"/>
<rect x="28.2559" y="32.9651" width="4.70931" height="4.70931" transform="rotate(-180 28.2559 32.9651)" fill="#754138"/>
<rect x="28.2559" y="28.2559" width="4.70931" height="4.70931" transform="rotate(-180 28.2559 28.2559)" fill="#754138"/>
<rect x="28.2559" y="23.5466" width="4.70931" height="4.70931" transform="rotate(-180 28.2559 23.5466)" fill="#754138"/>
<rect x="28.2559" y="18.8373" width="4.70931" height="4.70931" transform="rotate(-180 28.2559 18.8373)" fill="#754138"/>
<rect x="28.2559" y="14.128" width="4.70931" height="4.70931" transform="rotate(-180 28.2559 14.128)" fill="#754138"/>
<rect x="28.2559" y="9.4187" width="4.70931" height="4.70931" transform="rotate(-180 28.2559 9.4187)" fill="#754138"/>
<rect x="18.8369" y="42.3839" width="4.70931" height="4.70931" transform="rotate(-180 18.8369 42.3839)" fill="#754138"/>
<rect x="14.1279" y="37.6746" width="4.70931" height="4.70931" transform="rotate(-180 14.1279 37.6746)" fill="#754138"/>
<rect x="9.41895" y="32.9651" width="4.70931" height="4.70931" transform="rotate(-180 9.41895 32.9651)" fill="#754138"/>
<rect x="4.70898" y="28.2559" width="4.70931" height="4.70931" transform="rotate(-180 4.70898 28.2559)" fill="#754138"/>
<rect x="4.70898" y="23.5466" width="4.70931" height="4.70931" transform="rotate(-180 4.70898 23.5466)" fill="#754138"/>
<rect x="9.41895" y="18.8373" width="4.70931" height="4.70931" transform="rotate(-180 9.41895 18.8373)" fill="#754138"/>
<rect x="14.1279" y="14.128" width="4.70931" height="4.70931" transform="rotate(-180 14.1279 14.128)" fill="#754138"/>
<rect x="18.8369" y="9.4187" width="4.70931" height="4.70931" transform="rotate(-180 18.8369 9.4187)" fill="#754138"/>
<rect x="23.5469" y="4.70929" width="4.70931" height="4.70931" transform="rotate(-180 23.5469 4.70929)" fill="#754138"/>
<rect x="28.2559" y="4.70929" width="4.70931" height="4.70931" transform="rotate(-180 28.2559 4.70929)" fill="#754138"/>
</svg>
