<svg width="29" height="48" viewBox="0 0 29 48" fill="none" xmlns="http://www.w3.org/2000/svg">
<path d="M26.1807 2.59465L26.1807 45.4359L21.4205 45.4359L1.78495 25.8003L1.78495 22.2302L21.4205 2.59465L26.1807 2.59465Z" fill="white"/>
<rect x="28.2559" y="47.5466" width="4.70931" height="4.70931" transform="rotate(-180 28.2559 47.5466)" fill="#754138"/>
<rect x="23.5469" y="47.5466" width="4.70931" height="4.70931" transform="rotate(-180 23.5469 47.5466)" fill="#754138"/>
<rect x="28.2559" y="42.8373" width="4.70931" height="4.70931" transform="rotate(-180 28.2559 42.8373)" fill="#754138"/>
<rect x="28.2559" y="38.1281" width="4.70931" height="4.70931" transform="rotate(-180 28.2559 38.1281)" fill="#754138"/>
<rect x="28.2559" y="33.4186" width="4.70931" height="4.70931" transform="rotate(-180 28.2559 33.4186)" fill="#754138"/>
<rect x="28.2559" y="28.7093" width="4.70931" height="4.70931" transform="rotate(-180 28.2559 28.7093)" fill="#754138"/>
<rect x="28.2559" y="24" width="4.70931" height="4.70931" transform="rotate(-180 28.2559 24)" fill="#754138"/>
<rect x="28.2559" y="19.2908" width="4.70931" height="4.70931" transform="rotate(-180 28.2559 19.2908)" fill="#754138"/>
<rect x="28.2559" y="14.5814" width="4.70931" height="4.70931" transform="rotate(-180 28.2559 14.5814)" fill="#754138"/>
<rect x="28.2559" y="9.87213" width="4.70931" height="4.70931" transform="rotate(-180 28.2559 9.87213)" fill="#754138"/>
<rect x="18.8374" y="42.8373" width="4.70931" height="4.70931" transform="rotate(-180 18.8374 42.8373)" fill="#754138"/>
<rect x="14.1284" y="38.1281" width="4.70931" height="4.70931" transform="rotate(-180 14.1284 38.1281)" fill="#754138"/>
<rect x="9.41846" y="33.4186" width="4.70931" height="4.70931" transform="rotate(-180 9.41846 33.4186)" fill="#754138"/>
<rect x="4.70898" y="28.7093" width="4.70931" height="4.70931" transform="rotate(-180 4.70898 28.7093)" fill="#754138"/>
<rect x="4.70898" y="24" width="4.70931" height="4.70931" transform="rotate(-180 4.70898 24)" fill="#754138"/>
<rect x="9.41846" y="19.2908" width="4.70931" height="4.70931" transform="rotate(-180 9.41846 19.2908)" fill="#754138"/>
<rect x="14.1284" y="14.5814" width="4.70931" height="4.70931" transform="rotate(-180 14.1284 14.5814)" fill="#754138"/>
<rect x="18.8374" y="9.87213" width="4.70931" height="4.70931" transform="rotate(-180 18.8374 9.87213)" fill="#754138"/>
<rect x="23.5469" y="5.16272" width="4.70931" height="4.70931" transform="rotate(-180 23.5469 5.16272)" fill="#754138"/>
<rect x="28.2559" y="5.16272" width="4.70931" height="4.70931" transform="rotate(-180 28.2559 5.16272)" fill="#754138"/>
</svg>
