<svg width="265" height="94" viewBox="0 0 265 94" fill="none" xmlns="http://www.w3.org/2000/svg">
<path d="M11.7464 0H5.87305V5.87331H11.7464V0Z" fill="#754138"/>
<path d="M17.6175 0H11.7441V5.87331H17.6175V0Z" fill="#754138"/>
<path d="M252.502 0H246.628V5.87331H252.502V0Z" fill="#754138"/>
<path d="M258.372 0H252.499V5.87331H258.372V0Z" fill="#754138"/>
<path d="M5.87332 5.87332H0V11.7466H5.87332V5.87332Z" fill="#754138"/>
<path d="M11.7464 5.87332H5.87305V11.7466H11.7464V5.87332Z" fill="#B47444"/>
<path d="M17.6175 5.87332H11.7441V11.7466H17.6175V5.87332Z" fill="#E3B783"/>
<path d="M23.4905 5.87332H17.6172V11.7466H23.4905V5.87332Z" fill="#754138"/>
<path d="M246.628 5.87332H240.755V11.7466H246.628V5.87332Z" fill="#754138"/>
<path d="M252.502 5.87332H246.628V11.7466H252.502V5.87332Z" fill="#E3B783"/>
<path d="M258.372 5.87332H252.499V11.7466H258.372V5.87332Z" fill="#B47444"/>
<path d="M264.245 5.87332H258.372V11.7466H264.245V5.87332Z" fill="#754138"/>
<path d="M5.87332 11.7439H0V17.6173H5.87332V11.7439Z" fill="#754138"/>
<path d="M11.7464 11.7439H5.87305V17.6173H11.7464V11.7439Z" fill="#B47444"/>
<path d="M17.6175 11.7439H11.7441V17.6173H17.6175V11.7439Z" fill="#E3B783"/>
<path d="M23.4905 11.7439H17.6172V17.6173H23.4905V11.7439Z" fill="#B47444"/>
<path d="M29.3611 11.7439H23.4878V17.6173H29.3611V11.7439Z" fill="#754138"/>
<path d="M35.2346 11.7439H29.3613V17.6173H35.2346V11.7439Z" fill="#754138"/>
<path d="M41.1052 11.7439H35.2319V17.6173H41.1052V11.7439Z" fill="#B47444"/>
<path d="M46.9783 11.7439H41.105V17.6173H46.9783V11.7439Z" fill="#754138"/>
<path d="M52.8489 11.7439H46.9756V17.6173H52.8489V11.7439Z" fill="#B47444"/>
<path d="M58.7224 11.7439H52.8491V17.6173H58.7224V11.7439Z" fill="#B47444"/>
<path d="M64.593 11.7439H58.7197V17.6173H64.593V11.7439Z" fill="#B47444"/>
<path d="M70.4661 11.7439H64.5928V17.6173H70.4661V11.7439Z" fill="#B47444"/>
<path d="M76.3372 11.7439H70.4639V17.6173H76.3372V11.7439Z" fill="#B47444"/>
<path d="M82.2102 11.7439H76.3369V17.6173H82.2102V11.7439Z" fill="#B47444"/>
<path d="M88.0833 11.7439H82.21V17.6173H88.0833V11.7439Z" fill="#B47444"/>
<path d="M93.9544 11.7439H88.0811V17.6173H93.9544V11.7439Z" fill="#B47444"/>
<path d="M99.8274 11.7439H93.9541V17.6173H99.8274V11.7439Z" fill="#B47444"/>
<path d="M105.698 11.7439H99.8247V17.6173H105.698V11.7439Z" fill="#B47444"/>
<path d="M111.572 11.7439H105.698V17.6173H111.572V11.7439Z" fill="#B47444"/>
<path d="M117.442 11.7439H111.569V17.6173H117.442V11.7439Z" fill="#B47444"/>
<path d="M123.315 11.7439H117.442V17.6173H123.315V11.7439Z" fill="#B47444"/>
<path d="M129.186 11.7439H123.312V17.6173H129.186V11.7439Z" fill="#B47444"/>
<path d="M135.059 11.7439H129.186V17.6173H135.059V11.7439Z" fill="#B47444"/>
<path d="M140.93 11.7439H135.057V17.6173H140.93V11.7439Z" fill="#B47444"/>
<path d="M146.803 11.7439H140.93V17.6173H146.803V11.7439Z" fill="#B47444"/>
<path d="M152.674 11.7439H146.801V17.6173H152.674V11.7439Z" fill="#B47444"/>
<path d="M158.547 11.7439H152.674V17.6173H158.547V11.7439Z" fill="#B47444"/>
<path d="M164.418 11.7439H158.544V17.6173H164.418V11.7439Z" fill="#B47444"/>
<path d="M170.291 11.7439H164.418V17.6173H170.291V11.7439Z" fill="#B47444"/>
<path d="M176.164 11.7439H170.291V17.6173H176.164V11.7439Z" fill="#B47444"/>
<path d="M182.035 11.7439H176.162V17.6173H182.035V11.7439Z" fill="#B47444"/>
<path d="M187.908 11.7439H182.035V17.6173H187.908V11.7439Z" fill="#B47444"/>
<path d="M193.779 11.7439H187.906V17.6173H193.779V11.7439Z" fill="#B47444"/>
<path d="M199.652 11.7439H193.779V17.6173H199.652V11.7439Z" fill="#B47444"/>
<path d="M205.523 11.7439H199.649V17.6173H205.523V11.7439Z" fill="#B47444"/>
<path d="M211.396 11.7439H205.523V17.6173H211.396V11.7439Z" fill="#B47444"/>
<path d="M217.267 11.7439H211.394V17.6173H217.267V11.7439Z" fill="#B47444"/>
<path d="M223.14 11.7439H217.267V17.6173H223.14V11.7439Z" fill="#754138"/>
<path d="M229.011 11.7439H223.138V17.6173H229.011V11.7439Z" fill="#B47444"/>
<path d="M234.884 11.7439H229.011V17.6173H234.884V11.7439Z" fill="#754138"/>
<path d="M240.755 11.7439H234.881V17.6173H240.755V11.7439Z" fill="#754138"/>
<path d="M246.628 11.7439H240.755V17.6173H246.628V11.7439Z" fill="#B47444"/>
<path d="M252.502 11.7439H246.628V17.6173H252.502V11.7439Z" fill="#E3B783"/>
<path d="M258.372 11.7439H252.499V17.6173H258.372V11.7439Z" fill="#B47444"/>
<path d="M264.245 11.7439H258.372V17.6173H264.245V11.7439Z" fill="#754138"/>
<path d="M5.87332 17.6172H0V23.4906H5.87332V17.6172Z" fill="#754138"/>
<path d="M11.7464 17.6172H5.87305V23.4906H11.7464V17.6172Z" fill="#B47444"/>
<path d="M17.6175 17.6172H11.7441V23.4906H17.6175V17.6172Z" fill="#E3B783"/>
<path d="M23.4905 17.6172H17.6172V23.4906H23.4905V17.6172Z" fill="#B47444"/>
<path d="M29.3611 17.6172H23.4878V23.4906H29.3611V17.6172Z" fill="#E3B783"/>
<path d="M35.2346 17.6172H29.3613V23.4906H35.2346V17.6172Z" fill="#B47444"/>
<path d="M41.1052 17.6172H35.2319V23.4906H41.1052V17.6172Z" fill="#E3B783"/>
<path d="M46.9783 17.6172H41.105V23.4906H46.9783V17.6172Z" fill="#E3B783"/>
<path d="M52.8489 17.6172H46.9756V23.4906H52.8489V17.6172Z" fill="#E3B783"/>
<path d="M58.7224 17.6172H52.8491V23.4906H58.7224V17.6172Z" fill="#E3B783"/>
<path d="M64.593 17.6172H58.7197V23.4906H64.593V17.6172Z" fill="#E3B783"/>
<path d="M70.4661 17.6172H64.5928V23.4906H70.4661V17.6172Z" fill="#E3B783"/>
<path d="M76.3372 17.6172H70.4639V23.4906H76.3372V17.6172Z" fill="#E3B783"/>
<path d="M82.2102 17.6172H76.3369V23.4906H82.2102V17.6172Z" fill="#E3B783"/>
<path d="M88.0833 17.6172H82.21V23.4906H88.0833V17.6172Z" fill="#E3B783"/>
<path d="M93.9544 17.6172H88.0811V23.4906H93.9544V17.6172Z" fill="#E3B783"/>
<path d="M99.8274 17.6172H93.9541V23.4906H99.8274V17.6172Z" fill="#E3B783"/>
<path d="M105.698 17.6172H99.8247V23.4906H105.698V17.6172Z" fill="#E3B783"/>
<path d="M111.572 17.6172H105.698V23.4906H111.572V17.6172Z" fill="#E3B783"/>
<path d="M117.442 17.6172H111.569V23.4906H117.442V17.6172Z" fill="#E3B783"/>
<path d="M123.315 17.6172H117.442V23.4906H123.315V17.6172Z" fill="#E3B783"/>
<path d="M129.186 17.6172H123.312V23.4906H129.186V17.6172Z" fill="#E3B783"/>
<path d="M135.059 17.6172H129.186V23.4906H135.059V17.6172Z" fill="#E3B783"/>
<path d="M140.93 17.6172H135.057V23.4906H140.93V17.6172Z" fill="#E3B783"/>
<path d="M146.803 17.6172H140.93V23.4906H146.803V17.6172Z" fill="#E3B783"/>
<path d="M152.674 17.6172H146.801V23.4906H152.674V17.6172Z" fill="#E3B783"/>
<path d="M158.547 17.6172H152.674V23.4906H158.547V17.6172Z" fill="#E3B783"/>
<path d="M164.418 17.6172H158.544V23.4906H164.418V17.6172Z" fill="#E3B783"/>
<path d="M170.291 17.6172H164.418V23.4906H170.291V17.6172Z" fill="#E3B783"/>
<path d="M176.164 17.6172H170.291V23.4906H176.164V17.6172Z" fill="#E3B783"/>
<path d="M182.035 17.6172H176.162V23.4906H182.035V17.6172Z" fill="#E3B783"/>
<path d="M187.908 17.6172H182.035V23.4906H187.908V17.6172Z" fill="#E3B783"/>
<path d="M193.779 17.6172H187.906V23.4906H193.779V17.6172Z" fill="#E3B783"/>
<path d="M199.652 17.6172H193.779V23.4906H199.652V17.6172Z" fill="#E3B783"/>
<path d="M205.523 17.6172H199.649V23.4906H205.523V17.6172Z" fill="#E3B783"/>
<path d="M211.396 17.6172H205.523V23.4906H211.396V17.6172Z" fill="#E3B783"/>
<path d="M217.267 17.6172H211.394V23.4906H217.267V17.6172Z" fill="#E3B783"/>
<path d="M223.14 17.6172H217.267V23.4906H223.14V17.6172Z" fill="#E3B783"/>
<path d="M229.011 17.6172H223.138V23.4906H229.011V17.6172Z" fill="#E3B783"/>
<path d="M234.884 17.6172H229.011V23.4906H234.884V17.6172Z" fill="#B47444"/>
<path d="M240.755 17.6172H234.881V23.4906H240.755V17.6172Z" fill="#E3B783"/>
<path d="M246.628 17.6172H240.755V23.4906H246.628V17.6172Z" fill="#B47444"/>
<path d="M252.502 17.6172H246.628V23.4906H252.502V17.6172Z" fill="#E3B783"/>
<path d="M258.372 17.6172H252.499V23.4906H258.372V17.6172Z" fill="#B47444"/>
<path d="M264.245 17.6172H258.372V23.4906H264.245V17.6172Z" fill="#754138"/>
<path d="M5.87332 23.4879H0V29.3612H5.87332V23.4879Z" fill="#754138"/>
<path d="M11.7464 23.4879H5.87305V29.3612H11.7464V23.4879Z" fill="#B47444"/>
<path d="M17.6175 23.4879H11.7441V29.3612H17.6175V23.4879Z" fill="#E3B783"/>
<path d="M23.4905 23.4879H17.6172V29.3612H23.4905V23.4879Z" fill="#B47444"/>
<path d="M29.3611 23.4879H23.4878V29.3612H29.3611V23.4879Z" fill="#B47444"/>
<path d="M35.2346 23.4879H29.3613V29.3612H35.2346V23.4879Z" fill="#E3B783"/>
<path d="M41.1052 23.4879H35.2319V29.3612H41.1052V23.4879Z" fill="#E3B783"/>
<path d="M46.9783 23.4879H41.105V29.3612H46.9783V23.4879Z" fill="#E3B783"/>
<path d="M52.8489 23.4879H46.9756V29.3612H52.8489V23.4879Z" fill="#E3B783"/>
<path d="M58.7224 23.4879H52.8491V29.3612H58.7224V23.4879Z" fill="#E3B783"/>
<path d="M64.593 23.4879H58.7197V29.3612H64.593V23.4879Z" fill="#E3B783"/>
<path d="M70.4661 23.4879H64.5928V29.3612H70.4661V23.4879Z" fill="#E3B783"/>
<path d="M76.3372 23.4879H70.4639V29.3612H76.3372V23.4879Z" fill="#E3B783"/>
<path d="M82.2102 23.4879H76.3369V29.3612H82.2102V23.4879Z" fill="#E3B783"/>
<path d="M88.0833 23.4879H82.21V29.3612H88.0833V23.4879Z" fill="#E3B783"/>
<path d="M93.9544 23.4879H88.0811V29.3612H93.9544V23.4879Z" fill="#E3B783"/>
<path d="M99.8274 23.4879H93.9541V29.3612H99.8274V23.4879Z" fill="#E3B783"/>
<path d="M105.698 23.4879H99.8247V29.3612H105.698V23.4879Z" fill="#E3B783"/>
<path d="M111.572 23.4879H105.698V29.3612H111.572V23.4879Z" fill="#E3B783"/>
<path d="M117.442 23.4879H111.569V29.3612H117.442V23.4879Z" fill="#E3B783"/>
<path d="M123.315 23.4879H117.442V29.3612H123.315V23.4879Z" fill="#E3B783"/>
<path d="M129.186 23.4879H123.312V29.3612H129.186V23.4879Z" fill="#E3B783"/>
<path d="M135.059 23.4879H129.186V29.3612H135.059V23.4879Z" fill="#E3B783"/>
<path d="M140.93 23.4879H135.057V29.3612H140.93V23.4879Z" fill="#E3B783"/>
<path d="M146.803 23.4879H140.93V29.3612H146.803V23.4879Z" fill="#E3B783"/>
<path d="M152.674 23.4879H146.801V29.3612H152.674V23.4879Z" fill="#E3B783"/>
<path d="M158.547 23.4879H152.674V29.3612H158.547V23.4879Z" fill="#E3B783"/>
<path d="M164.418 23.4879H158.544V29.3612H164.418V23.4879Z" fill="#E3B783"/>
<path d="M170.291 23.4879H164.418V29.3612H170.291V23.4879Z" fill="#E3B783"/>
<path d="M176.164 23.4879H170.291V29.3612H176.164V23.4879Z" fill="#E3B783"/>
<path d="M182.035 23.4879H176.162V29.3612H182.035V23.4879Z" fill="#E3B783"/>
<path d="M187.908 23.4879H182.035V29.3612H187.908V23.4879Z" fill="#E3B783"/>
<path d="M193.779 23.4879H187.906V29.3612H193.779V23.4879Z" fill="#E3B783"/>
<path d="M199.652 23.4879H193.779V29.3612H199.652V23.4879Z" fill="#E3B783"/>
<path d="M205.523 23.4879H199.649V29.3612H205.523V23.4879Z" fill="#E3B783"/>
<path d="M211.396 23.4879H205.523V29.3612H211.396V23.4879Z" fill="#E3B783"/>
<path d="M217.267 23.4879H211.394V29.3612H217.267V23.4879Z" fill="#E3B783"/>
<path d="M223.14 23.4879H217.267V29.3612H223.14V23.4879Z" fill="#E3B783"/>
<path d="M229.011 23.4879H223.138V29.3612H229.011V23.4879Z" fill="#E3B783"/>
<path d="M234.884 23.4879H229.011V29.3612H234.884V23.4879Z" fill="#E3B783"/>
<path d="M240.755 23.4879H234.881V29.3612H240.755V23.4879Z" fill="#B47444"/>
<path d="M246.628 23.4879H240.755V29.3612H246.628V23.4879Z" fill="#B47444"/>
<path d="M252.502 23.4879H246.628V29.3612H252.502V23.4879Z" fill="#E3B783"/>
<path d="M258.372 23.4879H252.499V29.3612H258.372V23.4879Z" fill="#B47444"/>
<path d="M264.245 23.4879H258.372V29.3612H264.245V23.4879Z" fill="#754138"/>
<path d="M5.87332 29.3612H0V35.2345H5.87332V29.3612Z" fill="#754138"/>
<path d="M11.7464 29.3612H5.87305V35.2345H11.7464V29.3612Z" fill="#B47444"/>
<path d="M17.6175 29.3612H11.7441V35.2345H17.6175V29.3612Z" fill="#E3B783"/>
<path d="M23.4905 29.3612H17.6172V35.2345H23.4905V29.3612Z" fill="#B47444"/>
<path d="M29.3611 29.3612H23.4878V35.2345H29.3611V29.3612Z" fill="#E3B783"/>
<path d="M35.2346 29.3612H29.3613V35.2345H35.2346V29.3612Z" fill="#B47444"/>
<path d="M41.1052 29.3612H35.2319V35.2345H41.1052V29.3612Z" fill="#E3B783"/>
<path d="M46.9783 29.3612H41.105V35.2345H46.9783V29.3612Z" fill="#E3B783"/>
<path d="M52.8489 29.3612H46.9756V35.2345H52.8489V29.3612Z" fill="#E3B783"/>
<path d="M58.7224 29.3612H52.8491V35.2345H58.7224V29.3612Z" fill="#E3B783"/>
<path d="M64.593 29.3612H58.7197V35.2345H64.593V29.3612Z" fill="#E3B783"/>
<path d="M70.4661 29.3612H64.5928V35.2345H70.4661V29.3612Z" fill="#E3B783"/>
<path d="M76.3372 29.3612H70.4639V35.2345H76.3372V29.3612Z" fill="#E3B783"/>
<path d="M82.2102 29.3612H76.3369V35.2345H82.2102V29.3612Z" fill="#E3B783"/>
<path d="M88.0833 29.3612H82.21V35.2345H88.0833V29.3612Z" fill="#E3B783"/>
<path d="M93.9544 29.3612H88.0811V35.2345H93.9544V29.3612Z" fill="#E3B783"/>
<path d="M99.8274 29.3612H93.9541V35.2345H99.8274V29.3612Z" fill="#E3B783"/>
<path d="M105.698 29.3612H99.8247V35.2345H105.698V29.3612Z" fill="#E3B783"/>
<path d="M111.572 29.3612H105.698V35.2345H111.572V29.3612Z" fill="#E3B783"/>
<path d="M117.442 29.3612H111.569V35.2345H117.442V29.3612Z" fill="#E3B783"/>
<path d="M123.315 29.3612H117.442V35.2345H123.315V29.3612Z" fill="#E3B783"/>
<path d="M129.186 29.3612H123.312V35.2345H129.186V29.3612Z" fill="#E3B783"/>
<path d="M135.059 29.3612H129.186V35.2345H135.059V29.3612Z" fill="#E3B783"/>
<path d="M140.93 29.3612H135.057V35.2345H140.93V29.3612Z" fill="#E3B783"/>
<path d="M146.803 29.3612H140.93V35.2345H146.803V29.3612Z" fill="#E3B783"/>
<path d="M152.674 29.3612H146.801V35.2345H152.674V29.3612Z" fill="#E3B783"/>
<path d="M158.547 29.3612H152.674V35.2345H158.547V29.3612Z" fill="#E3B783"/>
<path d="M164.418 29.3612H158.544V35.2345H164.418V29.3612Z" fill="#E3B783"/>
<path d="M170.291 29.3612H164.418V35.2345H170.291V29.3612Z" fill="#E3B783"/>
<path d="M176.164 29.3612H170.291V35.2345H176.164V29.3612Z" fill="#E3B783"/>
<path d="M182.035 29.3612H176.162V35.2345H182.035V29.3612Z" fill="#E3B783"/>
<path d="M187.908 29.3612H182.035V35.2345H187.908V29.3612Z" fill="#E3B783"/>
<path d="M193.779 29.3612H187.906V35.2345H193.779V29.3612Z" fill="#E3B783"/>
<path d="M199.652 29.3612H193.779V35.2345H199.652V29.3612Z" fill="#E3B783"/>
<path d="M205.523 29.3612H199.649V35.2345H205.523V29.3612Z" fill="#E3B783"/>
<path d="M211.396 29.3612H205.523V35.2345H211.396V29.3612Z" fill="#E3B783"/>
<path d="M217.267 29.3612H211.394V35.2345H217.267V29.3612Z" fill="#E3B783"/>
<path d="M223.14 29.3612H217.267V35.2345H223.14V29.3612Z" fill="#E3B783"/>
<path d="M229.011 29.3612H223.138V35.2345H229.011V29.3612Z" fill="#E3B783"/>
<path d="M234.884 29.3612H229.011V35.2345H234.884V29.3612Z" fill="#B47444"/>
<path d="M240.755 29.3612H234.881V35.2345H240.755V29.3612Z" fill="#E3B783"/>
<path d="M246.628 29.3612H240.755V35.2345H246.628V29.3612Z" fill="#B47444"/>
<path d="M252.502 29.3612H246.628V35.2345H252.502V29.3612Z" fill="#E3B783"/>
<path d="M258.372 29.3612H252.499V35.2345H258.372V29.3612Z" fill="#B47444"/>
<path d="M264.245 29.3612H258.372V35.2345H264.245V29.3612Z" fill="#754138"/>
<path d="M5.87332 35.2318H0V41.1051H5.87332V35.2318Z" fill="#754138"/>
<path d="M11.7464 35.2318H5.87305V41.1051H11.7464V35.2318Z" fill="#B47444"/>
<path d="M17.6175 35.2318H11.7441V41.1051H17.6175V35.2318Z" fill="#E3B783"/>
<path d="M23.4905 35.2318H17.6172V41.1051H23.4905V35.2318Z" fill="#B47444"/>
<path d="M29.3611 35.2318H23.4878V41.1051H29.3611V35.2318Z" fill="#B47444"/>
<path d="M35.2346 35.2318H29.3613V41.1051H35.2346V35.2318Z" fill="#E3B783"/>
<path d="M41.1052 35.2318H35.2319V41.1051H41.1052V35.2318Z" fill="#E3B783"/>
<path d="M46.9783 35.2318H41.105V41.1051H46.9783V35.2318Z" fill="#E3B783"/>
<path d="M52.8489 35.2318H46.9756V41.1051H52.8489V35.2318Z" fill="#E3B783"/>
<path d="M58.7224 35.2318H52.8491V41.1051H58.7224V35.2318Z" fill="#E3B783"/>
<path d="M64.593 35.2318H58.7197V41.1051H64.593V35.2318Z" fill="#E3B783"/>
<path d="M70.4661 35.2318H64.5928V41.1051H70.4661V35.2318Z" fill="#E3B783"/>
<path d="M76.3372 35.2318H70.4639V41.1051H76.3372V35.2318Z" fill="#E3B783"/>
<path d="M82.2102 35.2318H76.3369V41.1051H82.2102V35.2318Z" fill="#E3B783"/>
<path d="M88.0833 35.2318H82.21V41.1051H88.0833V35.2318Z" fill="#E3B783"/>
<path d="M93.9544 35.2318H88.0811V41.1051H93.9544V35.2318Z" fill="#E3B783"/>
<path d="M99.8274 35.2318H93.9541V41.1051H99.8274V35.2318Z" fill="#E3B783"/>
<path d="M105.698 35.2318H99.8247V41.1051H105.698V35.2318Z" fill="#E3B783"/>
<path d="M111.572 35.2318H105.698V41.1051H111.572V35.2318Z" fill="#E3B783"/>
<path d="M117.442 35.2318H111.569V41.1051H117.442V35.2318Z" fill="#E3B783"/>
<path d="M123.315 35.2318H117.442V41.1051H123.315V35.2318Z" fill="#E3B783"/>
<path d="M129.186 35.2318H123.312V41.1051H129.186V35.2318Z" fill="#E3B783"/>
<path d="M135.059 35.2318H129.186V41.1051H135.059V35.2318Z" fill="#E3B783"/>
<path d="M140.93 35.2318H135.057V41.1051H140.93V35.2318Z" fill="#E3B783"/>
<path d="M146.803 35.2318H140.93V41.1051H146.803V35.2318Z" fill="#E3B783"/>
<path d="M152.674 35.2318H146.801V41.1051H152.674V35.2318Z" fill="#E3B783"/>
<path d="M158.547 35.2318H152.674V41.1051H158.547V35.2318Z" fill="#E3B783"/>
<path d="M164.418 35.2318H158.544V41.1051H164.418V35.2318Z" fill="#E3B783"/>
<path d="M170.291 35.2318H164.418V41.1051H170.291V35.2318Z" fill="#E3B783"/>
<path d="M176.164 35.2318H170.291V41.1051H176.164V35.2318Z" fill="#E3B783"/>
<path d="M182.035 35.2318H176.162V41.1051H182.035V35.2318Z" fill="#E3B783"/>
<path d="M187.908 35.2318H182.035V41.1051H187.908V35.2318Z" fill="#E3B783"/>
<path d="M193.779 35.2318H187.906V41.1051H193.779V35.2318Z" fill="#E3B783"/>
<path d="M199.652 35.2318H193.779V41.1051H199.652V35.2318Z" fill="#E3B783"/>
<path d="M205.523 35.2318H199.649V41.1051H205.523V35.2318Z" fill="#E3B783"/>
<path d="M211.396 35.2318H205.523V41.1051H211.396V35.2318Z" fill="#E3B783"/>
<path d="M217.267 35.2318H211.394V41.1051H217.267V35.2318Z" fill="#E3B783"/>
<path d="M223.14 35.2318H217.267V41.1051H223.14V35.2318Z" fill="#E3B783"/>
<path d="M229.011 35.2318H223.138V41.1051H229.011V35.2318Z" fill="#E3B783"/>
<path d="M234.884 35.2318H229.011V41.1051H234.884V35.2318Z" fill="#E3B783"/>
<path d="M240.755 35.2318H234.881V41.1051H240.755V35.2318Z" fill="#B47444"/>
<path d="M246.628 35.2318H240.755V41.1051H246.628V35.2318Z" fill="#B47444"/>
<path d="M252.502 35.2318H246.628V41.1051H252.502V35.2318Z" fill="#E3B783"/>
<path d="M258.372 35.2318H252.499V41.1051H258.372V35.2318Z" fill="#B47444"/>
<path d="M264.245 35.2318H258.372V41.1051H264.245V35.2318Z" fill="#754138"/>
<path d="M5.87332 41.1051H0V46.9784H5.87332V41.1051Z" fill="#754138"/>
<path d="M11.7464 41.1051H5.87305V46.9784H11.7464V41.1051Z" fill="#B47444"/>
<path d="M17.6175 41.1051H11.7441V46.9784H17.6175V41.1051Z" fill="#E3B783"/>
<path d="M23.4905 41.1051H17.6172V46.9784H23.4905V41.1051Z" fill="#B47444"/>
<path d="M29.3611 41.1051H23.4878V46.9784H29.3611V41.1051Z" fill="#E3B783"/>
<path d="M35.2346 41.1051H29.3613V46.9784H35.2346V41.1051Z" fill="#B47444"/>
<path d="M41.1052 41.1051H35.2319V46.9784H41.1052V41.1051Z" fill="#E3B783"/>
<path d="M46.9783 41.1051H41.105V46.9784H46.9783V41.1051Z" fill="#E3B783"/>
<path d="M52.8489 41.1051H46.9756V46.9784H52.8489V41.1051Z" fill="#E3B783"/>
<path d="M58.7224 41.1051H52.8491V46.9784H58.7224V41.1051Z" fill="#E3B783"/>
<path d="M64.593 41.1051H58.7197V46.9784H64.593V41.1051Z" fill="#E3B783"/>
<path d="M70.4661 41.1051H64.5928V46.9784H70.4661V41.1051Z" fill="#E3B783"/>
<path d="M76.3372 41.1051H70.4639V46.9784H76.3372V41.1051Z" fill="#E3B783"/>
<path d="M82.2102 41.1051H76.3369V46.9784H82.2102V41.1051Z" fill="#E3B783"/>
<path d="M88.0833 41.1051H82.21V46.9784H88.0833V41.1051Z" fill="#E3B783"/>
<path d="M93.9544 41.1051H88.0811V46.9784H93.9544V41.1051Z" fill="#E3B783"/>
<path d="M99.8274 41.1051H93.9541V46.9784H99.8274V41.1051Z" fill="#E3B783"/>
<path d="M105.698 41.1051H99.8247V46.9784H105.698V41.1051Z" fill="#E3B783"/>
<path d="M111.572 41.1051H105.698V46.9784H111.572V41.1051Z" fill="#E3B783"/>
<path d="M117.442 41.1051H111.569V46.9784H117.442V41.1051Z" fill="#E3B783"/>
<path d="M123.315 41.1051H117.442V46.9784H123.315V41.1051Z" fill="#E3B783"/>
<path d="M129.186 41.1051H123.312V46.9784H129.186V41.1051Z" fill="#E3B783"/>
<path d="M135.059 41.1051H129.186V46.9784H135.059V41.1051Z" fill="#E3B783"/>
<path d="M140.93 41.1051H135.057V46.9784H140.93V41.1051Z" fill="#E3B783"/>
<path d="M146.803 41.1051H140.93V46.9784H146.803V41.1051Z" fill="#E3B783"/>
<path d="M152.674 41.1051H146.801V46.9784H152.674V41.1051Z" fill="#E3B783"/>
<path d="M158.547 41.1051H152.674V46.9784H158.547V41.1051Z" fill="#E3B783"/>
<path d="M164.418 41.1051H158.544V46.9784H164.418V41.1051Z" fill="#E3B783"/>
<path d="M170.291 41.1051H164.418V46.9784H170.291V41.1051Z" fill="#E3B783"/>
<path d="M176.164 41.1051H170.291V46.9784H176.164V41.1051Z" fill="#E3B783"/>
<path d="M182.035 41.1051H176.162V46.9784H182.035V41.1051Z" fill="#E3B783"/>
<path d="M187.908 41.1051H182.035V46.9784H187.908V41.1051Z" fill="#E3B783"/>
<path d="M193.779 41.1051H187.906V46.9784H193.779V41.1051Z" fill="#E3B783"/>
<path d="M199.652 41.1051H193.779V46.9784H199.652V41.1051Z" fill="#E3B783"/>
<path d="M205.523 41.1051H199.649V46.9784H205.523V41.1051Z" fill="#E3B783"/>
<path d="M211.396 41.1051H205.523V46.9784H211.396V41.1051Z" fill="#E3B783"/>
<path d="M217.267 41.1051H211.394V46.9784H217.267V41.1051Z" fill="#E3B783"/>
<path d="M223.14 41.1051H217.267V46.9784H223.14V41.1051Z" fill="#E3B783"/>
<path d="M229.011 41.1051H223.138V46.9784H229.011V41.1051Z" fill="#E3B783"/>
<path d="M234.884 41.1051H229.011V46.9784H234.884V41.1051Z" fill="#B47444"/>
<path d="M240.755 41.1051H234.881V46.9784H240.755V41.1051Z" fill="#E3B783"/>
<path d="M246.628 41.1051H240.755V46.9784H246.628V41.1051Z" fill="#B47444"/>
<path d="M252.502 41.1051H246.628V46.9784H252.502V41.1051Z" fill="#E3B783"/>
<path d="M258.372 41.1051H252.499V46.9784H258.372V41.1051Z" fill="#B47444"/>
<path d="M264.245 41.1051H258.372V46.9784H264.245V41.1051Z" fill="#754138"/>
<path d="M5.87332 46.9757H0V52.8491H5.87332V46.9757Z" fill="#754138"/>
<path d="M11.7464 46.9757H5.87305V52.8491H11.7464V46.9757Z" fill="#B47444"/>
<path d="M17.6175 46.9757H11.7441V52.8491H17.6175V46.9757Z" fill="#E3B783"/>
<path d="M23.4905 46.9757H17.6172V52.8491H23.4905V46.9757Z" fill="#B47444"/>
<path d="M29.3611 46.9757H23.4878V52.8491H29.3611V46.9757Z" fill="#B47444"/>
<path d="M35.2346 46.9757H29.3613V52.8491H35.2346V46.9757Z" fill="#E3B783"/>
<path d="M41.1052 46.9757H35.2319V52.8491H41.1052V46.9757Z" fill="#E3B783"/>
<path d="M46.9783 46.9757H41.105V52.8491H46.9783V46.9757Z" fill="#E3B783"/>
<path d="M52.8489 46.9757H46.9756V52.8491H52.8489V46.9757Z" fill="#E3B783"/>
<path d="M58.7224 46.9757H52.8491V52.8491H58.7224V46.9757Z" fill="#E3B783"/>
<path d="M64.593 46.9757H58.7197V52.8491H64.593V46.9757Z" fill="#E3B783"/>
<path d="M70.4661 46.9757H64.5928V52.8491H70.4661V46.9757Z" fill="#E3B783"/>
<path d="M76.3372 46.9757H70.4639V52.8491H76.3372V46.9757Z" fill="#E3B783"/>
<path d="M82.2102 46.9757H76.3369V52.8491H82.2102V46.9757Z" fill="#E3B783"/>
<path d="M88.0833 46.9757H82.21V52.8491H88.0833V46.9757Z" fill="#E3B783"/>
<path d="M93.9544 46.9757H88.0811V52.8491H93.9544V46.9757Z" fill="#E3B783"/>
<path d="M99.8274 46.9757H93.9541V52.8491H99.8274V46.9757Z" fill="#E3B783"/>
<path d="M105.698 46.9757H99.8247V52.8491H105.698V46.9757Z" fill="#E3B783"/>
<path d="M111.572 46.9757H105.698V52.8491H111.572V46.9757Z" fill="#E3B783"/>
<path d="M117.442 46.9757H111.569V52.8491H117.442V46.9757Z" fill="#E3B783"/>
<path d="M123.315 46.9757H117.442V52.8491H123.315V46.9757Z" fill="#E3B783"/>
<path d="M129.186 46.9757H123.312V52.8491H129.186V46.9757Z" fill="#E3B783"/>
<path d="M135.059 46.9757H129.186V52.8491H135.059V46.9757Z" fill="#E3B783"/>
<path d="M140.93 46.9757H135.057V52.8491H140.93V46.9757Z" fill="#E3B783"/>
<path d="M146.803 46.9757H140.93V52.8491H146.803V46.9757Z" fill="#E3B783"/>
<path d="M152.674 46.9757H146.801V52.8491H152.674V46.9757Z" fill="#E3B783"/>
<path d="M158.547 46.9757H152.674V52.8491H158.547V46.9757Z" fill="#E3B783"/>
<path d="M164.418 46.9757H158.544V52.8491H164.418V46.9757Z" fill="#E3B783"/>
<path d="M170.291 46.9757H164.418V52.8491H170.291V46.9757Z" fill="#E3B783"/>
<path d="M176.164 46.9757H170.291V52.8491H176.164V46.9757Z" fill="#E3B783"/>
<path d="M182.035 46.9757H176.162V52.8491H182.035V46.9757Z" fill="#E3B783"/>
<path d="M187.908 46.9757H182.035V52.8491H187.908V46.9757Z" fill="#E3B783"/>
<path d="M193.779 46.9757H187.906V52.8491H193.779V46.9757Z" fill="#E3B783"/>
<path d="M199.652 46.9757H193.779V52.8491H199.652V46.9757Z" fill="#E3B783"/>
<path d="M205.523 46.9757H199.649V52.8491H205.523V46.9757Z" fill="#E3B783"/>
<path d="M211.396 46.9757H205.523V52.8491H211.396V46.9757Z" fill="#E3B783"/>
<path d="M217.267 46.9757H211.394V52.8491H217.267V46.9757Z" fill="#E3B783"/>
<path d="M223.14 46.9757H217.267V52.8491H223.14V46.9757Z" fill="#E3B783"/>
<path d="M229.011 46.9757H223.138V52.8491H229.011V46.9757Z" fill="#E3B783"/>
<path d="M234.884 46.9757H229.011V52.8491H234.884V46.9757Z" fill="#E3B783"/>
<path d="M240.755 46.9757H234.881V52.8491H240.755V46.9757Z" fill="#B47444"/>
<path d="M246.628 46.9757H240.755V52.8491H246.628V46.9757Z" fill="#B47444"/>
<path d="M252.502 46.9757H246.628V52.8491H252.502V46.9757Z" fill="#E3B783"/>
<path d="M258.372 46.9757H252.499V52.8491H258.372V46.9757Z" fill="#B47444"/>
<path d="M264.245 46.9757H258.372V52.8491H264.245V46.9757Z" fill="#754138"/>
<path d="M5.87332 52.8491H0V58.7224H5.87332V52.8491Z" fill="#754138"/>
<path d="M11.7464 52.8491H5.87305V58.7224H11.7464V52.8491Z" fill="#B47444"/>
<path d="M17.6175 52.8491H11.7441V58.7224H17.6175V52.8491Z" fill="#E3B783"/>
<path d="M23.4905 52.8491H17.6172V58.7224H23.4905V52.8491Z" fill="#B47444"/>
<path d="M29.3611 52.8491H23.4878V58.7224H29.3611V52.8491Z" fill="#E3B783"/>
<path d="M35.2346 52.8491H29.3613V58.7224H35.2346V52.8491Z" fill="#B47444"/>
<path d="M41.1052 52.8491H35.2319V58.7224H41.1052V52.8491Z" fill="#E3B783"/>
<path d="M46.9783 52.8491H41.105V58.7224H46.9783V52.8491Z" fill="#E3B783"/>
<path d="M52.8489 52.8491H46.9756V58.7224H52.8489V52.8491Z" fill="#E3B783"/>
<path d="M58.7224 52.8491H52.8491V58.7224H58.7224V52.8491Z" fill="#E3B783"/>
<path d="M64.593 52.8491H58.7197V58.7224H64.593V52.8491Z" fill="#E3B783"/>
<path d="M70.4661 52.8491H64.5928V58.7224H70.4661V52.8491Z" fill="#E3B783"/>
<path d="M76.3372 52.8491H70.4639V58.7224H76.3372V52.8491Z" fill="#E3B783"/>
<path d="M82.2102 52.8491H76.3369V58.7224H82.2102V52.8491Z" fill="#E3B783"/>
<path d="M88.0833 52.8491H82.21V58.7224H88.0833V52.8491Z" fill="#E3B783"/>
<path d="M93.9544 52.8491H88.0811V58.7224H93.9544V52.8491Z" fill="#E3B783"/>
<path d="M99.8274 52.8491H93.9541V58.7224H99.8274V52.8491Z" fill="#E3B783"/>
<path d="M105.698 52.8491H99.8247V58.7224H105.698V52.8491Z" fill="#E3B783"/>
<path d="M111.572 52.8491H105.698V58.7224H111.572V52.8491Z" fill="#E3B783"/>
<path d="M117.442 52.8491H111.569V58.7224H117.442V52.8491Z" fill="#E3B783"/>
<path d="M123.315 52.8491H117.442V58.7224H123.315V52.8491Z" fill="#E3B783"/>
<path d="M129.186 52.8491H123.312V58.7224H129.186V52.8491Z" fill="#E3B783"/>
<path d="M135.059 52.8491H129.186V58.7224H135.059V52.8491Z" fill="#E3B783"/>
<path d="M140.93 52.8491H135.057V58.7224H140.93V52.8491Z" fill="#E3B783"/>
<path d="M146.803 52.8491H140.93V58.7224H146.803V52.8491Z" fill="#E3B783"/>
<path d="M152.674 52.8491H146.801V58.7224H152.674V52.8491Z" fill="#E3B783"/>
<path d="M158.547 52.8491H152.674V58.7224H158.547V52.8491Z" fill="#E3B783"/>
<path d="M164.418 52.8491H158.544V58.7224H164.418V52.8491Z" fill="#E3B783"/>
<path d="M170.291 52.8491H164.418V58.7224H170.291V52.8491Z" fill="#E3B783"/>
<path d="M176.164 52.8491H170.291V58.7224H176.164V52.8491Z" fill="#E3B783"/>
<path d="M182.035 52.8491H176.162V58.7224H182.035V52.8491Z" fill="#E3B783"/>
<path d="M187.908 52.8491H182.035V58.7224H187.908V52.8491Z" fill="#E3B783"/>
<path d="M193.779 52.8491H187.906V58.7224H193.779V52.8491Z" fill="#E3B783"/>
<path d="M199.652 52.8491H193.779V58.7224H199.652V52.8491Z" fill="#E3B783"/>
<path d="M205.523 52.8491H199.649V58.7224H205.523V52.8491Z" fill="#E3B783"/>
<path d="M211.396 52.8491H205.523V58.7224H211.396V52.8491Z" fill="#E3B783"/>
<path d="M217.267 52.8491H211.394V58.7224H217.267V52.8491Z" fill="#E3B783"/>
<path d="M223.14 52.8491H217.267V58.7224H223.14V52.8491Z" fill="#E3B783"/>
<path d="M229.011 52.8491H223.138V58.7224H229.011V52.8491Z" fill="#E3B783"/>
<path d="M234.884 52.8491H229.011V58.7224H234.884V52.8491Z" fill="#B47444"/>
<path d="M240.755 52.8491H234.881V58.7224H240.755V52.8491Z" fill="#E3B783"/>
<path d="M246.628 52.8491H240.755V58.7224H246.628V52.8491Z" fill="#B47444"/>
<path d="M252.502 52.8491H246.628V58.7224H252.502V52.8491Z" fill="#E3B783"/>
<path d="M258.372 52.8491H252.499V58.7224H258.372V52.8491Z" fill="#B47444"/>
<path d="M264.245 52.8491H258.372V58.7224H264.245V52.8491Z" fill="#754138"/>
<path d="M5.87332 58.7197H0V64.593H5.87332V58.7197Z" fill="#754138"/>
<path d="M11.7464 58.7197H5.87305V64.593H11.7464V58.7197Z" fill="#B47444"/>
<path d="M17.6175 58.7197H11.7441V64.593H17.6175V58.7197Z" fill="#E3B783"/>
<path d="M23.4905 58.7197H17.6172V64.593H23.4905V58.7197Z" fill="#B47444"/>
<path d="M29.3611 58.7197H23.4878V64.593H29.3611V58.7197Z" fill="#B47444"/>
<path d="M35.2346 58.7197H29.3613V64.593H35.2346V58.7197Z" fill="#E3B783"/>
<path d="M41.1052 58.7197H35.2319V64.593H41.1052V58.7197Z" fill="#E3B783"/>
<path d="M46.9783 58.7197H41.105V64.593H46.9783V58.7197Z" fill="#E3B783"/>
<path d="M52.8489 58.7197H46.9756V64.593H52.8489V58.7197Z" fill="#E3B783"/>
<path d="M58.7224 58.7197H52.8491V64.593H58.7224V58.7197Z" fill="#E3B783"/>
<path d="M64.593 58.7197H58.7197V64.593H64.593V58.7197Z" fill="#E3B783"/>
<path d="M70.4661 58.7197H64.5928V64.593H70.4661V58.7197Z" fill="#E3B783"/>
<path d="M76.3372 58.7197H70.4639V64.593H76.3372V58.7197Z" fill="#E3B783"/>
<path d="M82.2102 58.7197H76.3369V64.593H82.2102V58.7197Z" fill="#E3B783"/>
<path d="M88.0833 58.7197H82.21V64.593H88.0833V58.7197Z" fill="#E3B783"/>
<path d="M93.9544 58.7197H88.0811V64.593H93.9544V58.7197Z" fill="#E3B783"/>
<path d="M99.8274 58.7197H93.9541V64.593H99.8274V58.7197Z" fill="#E3B783"/>
<path d="M105.698 58.7197H99.8247V64.593H105.698V58.7197Z" fill="#E3B783"/>
<path d="M111.572 58.7197H105.698V64.593H111.572V58.7197Z" fill="#E3B783"/>
<path d="M117.442 58.7197H111.569V64.593H117.442V58.7197Z" fill="#E3B783"/>
<path d="M123.315 58.7197H117.442V64.593H123.315V58.7197Z" fill="#E3B783"/>
<path d="M129.186 58.7197H123.312V64.593H129.186V58.7197Z" fill="#E3B783"/>
<path d="M135.059 58.7197H129.186V64.593H135.059V58.7197Z" fill="#E3B783"/>
<path d="M140.93 58.7197H135.057V64.593H140.93V58.7197Z" fill="#E3B783"/>
<path d="M146.803 58.7197H140.93V64.593H146.803V58.7197Z" fill="#E3B783"/>
<path d="M152.674 58.7197H146.801V64.593H152.674V58.7197Z" fill="#E3B783"/>
<path d="M158.547 58.7197H152.674V64.593H158.547V58.7197Z" fill="#E3B783"/>
<path d="M164.418 58.7197H158.544V64.593H164.418V58.7197Z" fill="#E3B783"/>
<path d="M170.291 58.7197H164.418V64.593H170.291V58.7197Z" fill="#E3B783"/>
<path d="M176.164 58.7197H170.291V64.593H176.164V58.7197Z" fill="#E3B783"/>
<path d="M182.035 58.7197H176.162V64.593H182.035V58.7197Z" fill="#E3B783"/>
<path d="M187.908 58.7197H182.035V64.593H187.908V58.7197Z" fill="#E3B783"/>
<path d="M193.779 58.7197H187.906V64.593H193.779V58.7197Z" fill="#E3B783"/>
<path d="M199.652 58.7197H193.779V64.593H199.652V58.7197Z" fill="#E3B783"/>
<path d="M205.523 58.7197H199.649V64.593H205.523V58.7197Z" fill="#E3B783"/>
<path d="M211.396 58.7197H205.523V64.593H211.396V58.7197Z" fill="#E3B783"/>
<path d="M217.267 58.7197H211.394V64.593H217.267V58.7197Z" fill="#E3B783"/>
<path d="M223.14 58.7197H217.267V64.593H223.14V58.7197Z" fill="#E3B783"/>
<path d="M229.011 58.7197H223.138V64.593H229.011V58.7197Z" fill="#E3B783"/>
<path d="M234.884 58.7197H229.011V64.593H234.884V58.7197Z" fill="#E3B783"/>
<path d="M240.755 58.7197H234.881V64.593H240.755V58.7197Z" fill="#B47444"/>
<path d="M246.628 58.7197H240.755V64.593H246.628V58.7197Z" fill="#B47444"/>
<path d="M252.502 58.7197H246.628V64.593H252.502V58.7197Z" fill="#E3B783"/>
<path d="M258.372 58.7197H252.499V64.593H258.372V58.7197Z" fill="#B47444"/>
<path d="M264.245 58.7197H258.372V64.593H264.245V58.7197Z" fill="#754138"/>
<path d="M5.87332 64.593H0V70.4663H5.87332V64.593Z" fill="#754138"/>
<path d="M11.7464 64.593H5.87305V70.4663H11.7464V64.593Z" fill="#B47444"/>
<path d="M17.6175 64.593H11.7441V70.4663H17.6175V64.593Z" fill="#E3B783"/>
<path d="M23.4905 64.593H17.6172V70.4663H23.4905V64.593Z" fill="#B47444"/>
<path d="M29.3611 64.593H23.4878V70.4663H29.3611V64.593Z" fill="#E3B783"/>
<path d="M35.2346 64.593H29.3613V70.4663H35.2346V64.593Z" fill="#B47444"/>
<path d="M41.1052 64.593H35.2319V70.4663H41.1052V64.593Z" fill="#E3B783"/>
<path d="M46.9783 64.593H41.105V70.4663H46.9783V64.593Z" fill="#E3B783"/>
<path d="M52.8489 64.593H46.9756V70.4663H52.8489V64.593Z" fill="#E3B783"/>
<path d="M58.7224 64.593H52.8491V70.4663H58.7224V64.593Z" fill="#E3B783"/>
<path d="M64.593 64.593H58.7197V70.4663H64.593V64.593Z" fill="#E3B783"/>
<path d="M70.4661 64.593H64.5928V70.4663H70.4661V64.593Z" fill="#E3B783"/>
<path d="M76.3372 64.593H70.4639V70.4663H76.3372V64.593Z" fill="#E3B783"/>
<path d="M82.2102 64.593H76.3369V70.4663H82.2102V64.593Z" fill="#E3B783"/>
<path d="M88.0833 64.593H82.21V70.4663H88.0833V64.593Z" fill="#E3B783"/>
<path d="M93.9544 64.593H88.0811V70.4663H93.9544V64.593Z" fill="#E3B783"/>
<path d="M99.8274 64.593H93.9541V70.4663H99.8274V64.593Z" fill="#E3B783"/>
<path d="M105.698 64.593H99.8247V70.4663H105.698V64.593Z" fill="#E3B783"/>
<path d="M111.572 64.593H105.698V70.4663H111.572V64.593Z" fill="#E3B783"/>
<path d="M117.442 64.593H111.569V70.4663H117.442V64.593Z" fill="#E3B783"/>
<path d="M123.315 64.593H117.442V70.4663H123.315V64.593Z" fill="#E3B783"/>
<path d="M129.186 64.593H123.312V70.4663H129.186V64.593Z" fill="#E3B783"/>
<path d="M135.059 64.593H129.186V70.4663H135.059V64.593Z" fill="#E3B783"/>
<path d="M140.93 64.593H135.057V70.4663H140.93V64.593Z" fill="#E3B783"/>
<path d="M146.803 64.593H140.93V70.4663H146.803V64.593Z" fill="#E3B783"/>
<path d="M152.674 64.593H146.801V70.4663H152.674V64.593Z" fill="#E3B783"/>
<path d="M158.547 64.593H152.674V70.4663H158.547V64.593Z" fill="#E3B783"/>
<path d="M164.418 64.593H158.544V70.4663H164.418V64.593Z" fill="#E3B783"/>
<path d="M170.291 64.593H164.418V70.4663H170.291V64.593Z" fill="#E3B783"/>
<path d="M176.164 64.593H170.291V70.4663H176.164V64.593Z" fill="#E3B783"/>
<path d="M182.035 64.593H176.162V70.4663H182.035V64.593Z" fill="#E3B783"/>
<path d="M187.908 64.593H182.035V70.4663H187.908V64.593Z" fill="#E3B783"/>
<path d="M193.779 64.593H187.906V70.4663H193.779V64.593Z" fill="#E3B783"/>
<path d="M199.652 64.593H193.779V70.4663H199.652V64.593Z" fill="#E3B783"/>
<path d="M205.523 64.593H199.649V70.4663H205.523V64.593Z" fill="#E3B783"/>
<path d="M211.396 64.593H205.523V70.4663H211.396V64.593Z" fill="#E3B783"/>
<path d="M217.267 64.593H211.394V70.4663H217.267V64.593Z" fill="#E3B783"/>
<path d="M223.14 64.593H217.267V70.4663H223.14V64.593Z" fill="#E3B783"/>
<path d="M229.011 64.593H223.138V70.4663H229.011V64.593Z" fill="#E3B783"/>
<path d="M234.884 64.593H229.011V70.4663H234.884V64.593Z" fill="#B47444"/>
<path d="M240.755 64.593H234.881V70.4663H240.755V64.593Z" fill="#E3B783"/>
<path d="M246.628 64.593H240.755V70.4663H246.628V64.593Z" fill="#B47444"/>
<path d="M252.502 64.593H246.628V70.4663H252.502V64.593Z" fill="#E3B783"/>
<path d="M258.372 64.593H252.499V70.4663H258.372V64.593Z" fill="#B47444"/>
<path d="M264.245 64.593H258.372V70.4663H264.245V64.593Z" fill="#754138"/>
<path d="M5.87332 70.4636H0V76.3369H5.87332V70.4636Z" fill="#754138"/>
<path d="M11.7464 70.4636H5.87305V76.3369H11.7464V70.4636Z" fill="#B47444"/>
<path d="M17.6175 70.4636H11.7441V76.3369H17.6175V70.4636Z" fill="#E3B783"/>
<path d="M23.4905 70.4636H17.6172V76.3369H23.4905V70.4636Z" fill="#B47444"/>
<path d="M29.3611 70.4636H23.4878V76.3369H29.3611V70.4636Z" fill="#754138"/>
<path d="M35.2346 70.4636H29.3613V76.3369H35.2346V70.4636Z" fill="#754138"/>
<path d="M41.1052 70.4636H35.2319V76.3369H41.1052V70.4636Z" fill="#B47444"/>
<path d="M46.9783 70.4636H41.105V76.3369H46.9783V70.4636Z" fill="#754138"/>
<path d="M52.8489 70.4636H46.9756V76.3369H52.8489V70.4636Z" fill="#B47444"/>
<path d="M58.7224 70.4636H52.8491V76.3369H58.7224V70.4636Z" fill="#B47444"/>
<path d="M64.593 70.4636H58.7197V76.3369H64.593V70.4636Z" fill="#B47444"/>
<path d="M70.4661 70.4636H64.5928V76.3369H70.4661V70.4636Z" fill="#B47444"/>
<path d="M76.3372 70.4636H70.4639V76.3369H76.3372V70.4636Z" fill="#B47444"/>
<path d="M82.2102 70.4636H76.3369V76.3369H82.2102V70.4636Z" fill="#B47444"/>
<path d="M88.0833 70.4636H82.21V76.3369H88.0833V70.4636Z" fill="#B47444"/>
<path d="M93.9544 70.4636H88.0811V76.3369H93.9544V70.4636Z" fill="#B47444"/>
<path d="M99.8274 70.4636H93.9541V76.3369H99.8274V70.4636Z" fill="#B47444"/>
<path d="M105.698 70.4636H99.8247V76.3369H105.698V70.4636Z" fill="#B47444"/>
<path d="M111.572 70.4636H105.698V76.3369H111.572V70.4636Z" fill="#B47444"/>
<path d="M117.442 70.4636H111.569V76.3369H117.442V70.4636Z" fill="#B47444"/>
<path d="M123.315 70.4636H117.442V76.3369H123.315V70.4636Z" fill="#B47444"/>
<path d="M129.186 70.4636H123.312V76.3369H129.186V70.4636Z" fill="#B47444"/>
<path d="M135.059 70.4636H129.186V76.3369H135.059V70.4636Z" fill="#B47444"/>
<path d="M140.93 70.4636H135.057V76.3369H140.93V70.4636Z" fill="#B47444"/>
<path d="M146.803 70.4636H140.93V76.3369H146.803V70.4636Z" fill="#B47444"/>
<path d="M152.674 70.4636H146.801V76.3369H152.674V70.4636Z" fill="#B47444"/>
<path d="M158.547 70.4636H152.674V76.3369H158.547V70.4636Z" fill="#B47444"/>
<path d="M164.418 70.4636H158.544V76.3369H164.418V70.4636Z" fill="#B47444"/>
<path d="M170.291 70.4636H164.418V76.3369H170.291V70.4636Z" fill="#B47444"/>
<path d="M176.164 70.4636H170.291V76.3369H176.164V70.4636Z" fill="#B47444"/>
<path d="M182.035 70.4636H176.162V76.3369H182.035V70.4636Z" fill="#B47444"/>
<path d="M187.908 70.4636H182.035V76.3369H187.908V70.4636Z" fill="#B47444"/>
<path d="M193.779 70.4636H187.906V76.3369H193.779V70.4636Z" fill="#B47444"/>
<path d="M199.652 70.4636H193.779V76.3369H199.652V70.4636Z" fill="#B47444"/>
<path d="M205.523 70.4636H199.649V76.3369H205.523V70.4636Z" fill="#B47444"/>
<path d="M211.396 70.4636H205.523V76.3369H211.396V70.4636Z" fill="#B47444"/>
<path d="M217.267 70.4636H211.394V76.3369H217.267V70.4636Z" fill="#B47444"/>
<path d="M223.14 70.4636H217.267V76.3369H223.14V70.4636Z" fill="#754138"/>
<path d="M229.011 70.4636H223.138V76.3369H229.011V70.4636Z" fill="#B47444"/>
<path d="M234.884 70.4636H229.011V76.3369H234.884V70.4636Z" fill="#754138"/>
<path d="M240.755 70.4636H234.881V76.3369H240.755V70.4636Z" fill="#754138"/>
<path d="M246.628 70.4636H240.755V76.3369H246.628V70.4636Z" fill="#B47444"/>
<path d="M252.502 70.4636H246.628V76.3369H252.502V70.4636Z" fill="#E3B783"/>
<path d="M258.372 70.4636H252.499V76.3369H258.372V70.4636Z" fill="#B47444"/>
<path d="M264.245 70.4636H258.372V76.3369H264.245V70.4636Z" fill="#754138"/>
<path d="M5.87332 76.3369H0V82.2102H5.87332V76.3369Z" fill="#754138"/>
<path d="M11.7464 76.3369H5.87305V82.2102H11.7464V76.3369Z" fill="#754138"/>
<path d="M17.6175 76.3369H11.7441V82.2102H17.6175V76.3369Z" fill="#754138"/>
<path d="M23.4905 76.3369H17.6172V82.2102H23.4905V76.3369Z" fill="#B47444"/>
<path d="M246.628 76.3369H240.755V82.2102H246.628V76.3369Z" fill="#B47444"/>
<path d="M252.502 76.3369H246.628V82.2102H252.502V76.3369Z" fill="#754138"/>
<path d="M258.372 76.3369H252.499V82.2102H258.372V76.3369Z" fill="#754138"/>
<path d="M264.245 76.3369H258.372V82.2102H264.245V76.3369Z" fill="#754138"/>
<path d="M5.87332 82.2102H0V88.0836H5.87332V82.2102Z" fill="#754138"/>
<path d="M11.7464 82.2102H5.87305V88.0836H11.7464V82.2102Z" fill="#B47444"/>
<path d="M17.6175 82.2102H11.7441V88.0836H17.6175V82.2102Z" fill="#B47444"/>
<path d="M23.4905 82.2102H17.6172V88.0836H23.4905V82.2102Z" fill="#754138"/>
<path d="M246.628 82.2102H240.755V88.0836H246.628V82.2102Z" fill="#754138"/>
<path d="M252.502 82.2102H246.628V88.0836H252.502V82.2102Z" fill="#B47444"/>
<path d="M258.372 82.2102H252.499V88.0836H258.372V82.2102Z" fill="#B47444"/>
<path d="M264.245 82.2102H258.372V88.0836H264.245V82.2102Z" fill="#754138"/>
<path d="M11.7464 88.0809H5.87305V93.9542H11.7464V88.0809Z" fill="#754138"/>
<path d="M17.6175 88.0809H11.7441V93.9542H17.6175V88.0809Z" fill="#754138"/>
<path d="M252.502 88.0809H246.628V93.9542H252.502V88.0809Z" fill="#754138"/>
<path d="M258.372 88.0809H252.499V93.9542H258.372V88.0809Z" fill="#754138"/>
</svg>
