<svg width="158" height="57" viewBox="0 0 158 57" fill="none" xmlns="http://www.w3.org/2000/svg">
<g clip-path="url(#clip0_1203_122257)">
<path d="M83.3891 13.1533H74.6108V39.46H83.3891V13.1533Z" fill="#F24C30"/>
<path d="M39.501 17.5399H30.7227V26.3099H39.501V17.5399Z" fill="#F24C30"/>
<path d="M17.5536 13.1533H13.166V17.5367H17.5536V13.1533Z" fill="#F24C30"/>
<path d="M43.8885 17.5399V26.3067H39.5009V30.6932H30.7226V43.8466H26.3319V17.5399H17.5567V21.9233H13.166V17.5399H8.77844V21.9233H4.3877V35.0766H8.77844V39.4632H13.166V43.8466H17.5567V48.23H140.444V43.8466H144.831V39.4632H149.222V35.0766H153.609V21.9233H149.222V17.5399H144.831V13.1533H131.665V17.5399H118.499V26.3067H131.665V30.6932H118.499V39.4632H131.665V43.8466H114.112V13.1533H109.721V17.5399H96.5552V26.3067H105.333V30.6932H109.721V39.4632H105.333V43.8466H92.1676V39.4632H105.333V30.6932H96.5552V26.3067H92.1676V17.5399H96.5552V13.1533H87.7768V39.4632H83.3893V43.8466H74.611V39.4632H70.2202V13.1533H61.4451V17.5399H65.8327V43.8466H61.4451V30.6932H52.6668V43.8466H48.2761V17.5399H52.6668V13.1533H39.5009V17.5399H43.8885Z" fill="#F24C30"/>
<path d="M61.4448 17.5399H52.6665V26.3099H61.4448V17.5399Z" fill="#F24C30"/>
<path d="M17.5536 17.5399H13.166V21.9233H17.5536V17.5399Z" fill="white"/>
<path d="M17.5566 17.54H26.3318V13.1534V8.77002H17.5566V13.1534V17.54Z" fill="white"/>
<path d="M105.333 39.4633H92.1675V43.8466H105.333V39.4633Z" fill="#F24C30"/>
<path d="M109.721 30.6932H105.333V39.4632H109.721V30.6932Z" fill="#F24C30"/>
<path d="M109.721 13.1533H96.5552V17.5367H109.721V13.1533Z" fill="#F24C30"/>
<path d="M131.665 43.8466V39.4632H118.499V30.6932H131.665V26.3067H118.499V17.5399H131.665V13.1533H114.112V43.8466H131.665Z" fill="#F24C30"/>
<path d="M43.8885 17.5399H39.501V26.3099H43.8885V17.5399Z" fill="#F24C30"/>
<path d="M52.6666 26.3067V17.5399H48.2759V43.8466H52.6666V30.6933H61.4449V43.8466H65.8325V17.5399H61.4449V26.3067H52.6666Z" fill="#F24C30"/>
<path d="M74.6078 13.1533H70.2202V39.46H74.6078V13.1533Z" fill="#F24C30"/>
<path d="M61.4448 13.1533H52.6665V17.5367H61.4448V13.1533Z" fill="#F24C30"/>
<path d="M96.555 17.5399H92.1675V26.3099H96.555V17.5399Z" fill="#F24C30"/>
<path d="M105.333 26.3068H96.5552V30.6902H105.333V26.3068Z" fill="#F24C30"/>
<path d="M87.7767 13.1533H83.3892V39.46H87.7767V13.1533Z" fill="#F24C30"/>
<path d="M83.3891 39.4633H74.6108V43.8466H83.3891V39.4633Z" fill="#F24C30"/>
<path d="M17.5566 48.23H8.77832V52.6134H17.5566V48.23Z" fill="black"/>
<path d="M149.222 48.23H140.443V52.6134H149.222V48.23Z" fill="black"/>
<path d="M153.609 39.4633H149.222V48.2332H153.609V39.4633Z" fill="black"/>
<path d="M8.77526 39.4633H4.3877V48.2332H8.77526V39.4633Z" fill="black"/>
<path d="M4.38756 21.9233V17.5399H0V39.4632H4.38756V35.0767V21.9233Z" fill="black"/>
<path d="M153.609 35.0767V39.4632H158V17.5399H153.609V21.9233V35.0767Z" fill="black"/>
<path d="M26.3315 43.8466H30.7223V30.6932H39.5006V26.3067H30.7223V17.5399H39.5006V13.1533H26.3315V17.5399V43.8466Z" fill="#F24C30"/>
<path d="M8.77526 8.77002H4.3877V17.54H8.77526V8.77002Z" fill="black"/>
<path d="M149.222 4.38342H140.443V8.76682H149.222V4.38342Z" fill="black"/>
<path d="M153.609 8.77002H149.222V17.54H153.609V8.77002Z" fill="black"/>
<path d="M140.443 0H17.5566V4.38339H140.443V0Z" fill="black"/>
<path d="M17.5566 4.38342H8.77832V8.76682H17.5566V4.38342Z" fill="black"/>
<path d="M140.443 52.6166H17.5566V57H140.443V52.6166Z" fill="black"/>
<path d="M8.77526 17.5399H4.3877V21.9233H8.77526V17.5399Z" fill="#FF7172"/>
<path d="M13.1659 17.54V13.1534H17.5566V8.77002H8.77832V17.54H13.1659Z" fill="#FF7172"/>
<path d="M153.609 17.5399H149.222V21.9233H153.609V17.5399Z" fill="#FF7172"/>
<path d="M17.5566 8.76999H26.3318V13.1534H39.5008H52.6667H61.445H70.2201H74.6109H83.3892H87.7767H96.5551H109.721H114.112H131.665H144.831V17.54H149.222V8.76999H140.443V4.38342H17.5566V8.76999Z" fill="#FF7172"/>
<path d="M153.609 35.0767H149.222V39.4601H153.609V35.0767Z" fill="#C40808"/>
<path d="M8.77526 35.0767H4.3877V39.4601H8.77526V35.0767Z" fill="#C40808"/>
<path d="M17.5566 43.8466H13.1659V39.4633H8.77832V48.23H17.5566V43.8466Z" fill="#C40808"/>
<path d="M144.831 39.4633V43.8466H140.443V48.23H149.222V39.4633H144.831Z" fill="#C40808"/>
<path d="M140.443 48.23H17.5566V52.6134H140.443V48.23Z" fill="#C40808"/>
<path d="M49.2178 33.24C49.3138 33.624 49.3618 34.104 49.3618 34.68C49.3618 35.232 49.3138 35.712 49.2178 36.12H47.7778C47.8738 36.504 47.9218 36.984 47.9218 37.56C47.9218 38.112 47.8738 38.592 47.7778 39H40.5778C40.4818 38.592 40.4338 38.112 40.4338 37.56C40.4338 36.984 40.4818 36.504 40.5778 36.12H39.1378C39.0418 35.712 38.9938 35.232 38.9938 34.68C38.9938 34.104 39.0418 33.624 39.1378 33.24H37.6978C37.6018 32.832 37.5538 32.352 37.5538 31.8C37.5538 31.224 37.6018 30.744 37.6978 30.36C37.6018 29.952 37.5538 29.472 37.5538 28.92C37.5538 28.344 37.6018 27.864 37.6978 27.48C37.6018 27.072 37.5538 26.592 37.5538 26.04C37.5538 25.464 37.6018 24.984 37.6978 24.6H39.1378C39.0418 24.192 38.9938 23.712 38.9938 23.16C38.9938 22.584 39.0418 22.104 39.1378 21.72H40.5778C40.4818 21.312 40.4338 20.832 40.4338 20.28C40.4338 19.704 40.4818 19.224 40.5778 18.84H47.7778C47.8738 19.224 47.9218 19.704 47.9218 20.28C47.9218 20.832 47.8738 21.312 47.7778 21.72H49.2178C49.3138 22.104 49.3618 22.584 49.3618 23.16C49.3618 23.712 49.3138 24.192 49.2178 24.6H46.3378C46.2418 24.192 46.1938 23.712 46.1938 23.16C46.1938 22.584 46.2418 22.104 46.3378 21.72H42.0178C42.1138 22.104 42.1618 22.584 42.1618 23.16C42.1618 23.712 42.1138 24.192 42.0178 24.6H40.5778C40.6738 24.984 40.7218 25.464 40.7218 26.04C40.7218 26.592 40.6738 27.072 40.5778 27.48C40.6738 27.864 40.7218 28.344 40.7218 28.92C40.7218 29.472 40.6738 29.952 40.5778 30.36C40.6738 30.744 40.7218 31.224 40.7218 31.8C40.7218 32.352 40.6738 32.832 40.5778 33.24H42.0178C42.1138 33.624 42.1618 34.104 42.1618 34.68C42.1618 35.232 42.1138 35.712 42.0178 36.12H46.3378C46.2418 35.712 46.1938 35.232 46.1938 34.68C46.1938 34.104 46.2418 33.624 46.3378 33.24H49.2178ZM63.6319 36.12C63.7279 36.504 63.7759 36.984 63.7759 37.56C63.7759 38.112 63.7279 38.592 63.6319 39H60.7519C60.6559 38.592 60.6079 38.112 60.6079 37.56C60.6079 36.984 60.6559 36.504 60.7519 36.12H59.3119C59.2159 35.712 59.1679 35.232 59.1679 34.68C59.1679 34.104 59.2159 33.624 59.3119 33.24H54.9919C55.0879 33.624 55.1359 34.104 55.1359 34.68C55.1359 35.232 55.0879 35.712 54.9919 36.12H59.3119C59.4079 36.504 59.4559 36.984 59.4559 37.56C59.4559 38.112 59.4079 38.592 59.3119 39H53.5519C53.4559 38.592 53.4079 38.112 53.4079 37.56C53.4079 36.984 53.4559 36.504 53.5519 36.12H52.1119C52.0159 35.712 51.9679 35.232 51.9679 34.68C51.9679 34.104 52.0159 33.624 52.1119 33.24H53.5519C53.4559 32.832 53.4079 32.352 53.4079 31.8C53.4079 31.224 53.4559 30.744 53.5519 30.36H59.3119C59.2159 29.952 59.1679 29.472 59.1679 28.92C59.1679 28.344 59.2159 27.864 59.3119 27.48H54.2719C54.1759 27.072 54.1279 26.592 54.1279 26.04C54.1279 25.464 54.1759 24.984 54.2719 24.6H60.7519C60.8479 24.984 60.8959 25.464 60.8959 26.04C60.8959 26.592 60.8479 27.072 60.7519 27.48H62.1919C62.2879 27.864 62.3359 28.344 62.3359 28.92C62.3359 29.472 62.2879 29.952 62.1919 30.36C62.2879 30.744 62.3359 31.224 62.3359 31.8C62.3359 32.352 62.2879 32.832 62.1919 33.24C62.2879 33.624 62.3359 34.104 62.3359 34.68C62.3359 35.232 62.2879 35.712 62.1919 36.12H63.6319ZM69.1899 26.04C69.1899 26.592 69.1419 27.072 69.0459 27.48H70.4859C70.5819 27.864 70.6299 28.344 70.6299 28.92C70.6299 29.472 70.5819 29.952 70.4859 30.36H69.4059C69.5019 30.744 69.5499 31.224 69.5499 31.8C69.5499 32.352 69.5019 32.832 69.4059 33.24C69.5019 33.624 69.5499 34.104 69.5499 34.68C69.5499 35.232 69.5019 35.712 69.4059 36.12C69.5019 36.504 69.5499 36.984 69.5499 37.56C69.5499 38.112 69.5019 38.592 69.4059 39H66.5259C66.4299 38.592 66.3819 38.112 66.3819 37.56C66.3819 36.984 66.4299 36.504 66.5259 36.12C66.4299 35.712 66.3819 35.232 66.3819 34.68C66.3819 34.104 66.4299 33.624 66.5259 33.24C66.4299 32.832 66.3819 32.352 66.3819 31.8C66.3819 31.224 66.4299 30.744 66.5259 30.36C66.4299 29.952 66.3819 29.472 66.3819 28.92C66.3819 28.344 66.4299 27.864 66.5259 27.48C66.4299 27.072 66.3819 26.592 66.3819 26.04C66.3819 25.464 66.4299 24.984 66.5259 24.6H69.0459C69.1419 24.984 69.1899 25.464 69.1899 26.04ZM78.0459 30.36C78.1419 30.744 78.1899 31.224 78.1899 31.8C78.1899 32.352 78.1419 32.832 78.0459 33.24C78.1419 33.624 78.1899 34.104 78.1899 34.68C78.1899 35.232 78.1419 35.712 78.0459 36.12C78.1419 36.504 78.1899 36.984 78.1899 37.56C78.1899 38.112 78.1419 38.592 78.0459 39H75.1659C75.0699 38.592 75.0219 38.112 75.0219 37.56C75.0219 36.984 75.0699 36.504 75.1659 36.12C75.0699 35.712 75.0219 35.232 75.0219 34.68C75.0219 34.104 75.0699 33.624 75.1659 33.24C75.0699 32.832 75.0219 32.352 75.0219 31.8C75.0219 31.224 75.0699 30.744 75.1659 30.36C75.0699 29.952 75.0219 29.472 75.0219 28.92C75.0219 28.344 75.0699 27.864 75.1659 27.48H70.4859C70.3899 27.072 70.3419 26.592 70.3419 26.04C70.3419 25.464 70.3899 24.984 70.4859 24.6H76.2459C76.3419 24.984 76.3899 25.464 76.3899 26.04C76.3899 26.592 76.3419 27.072 76.2459 27.48H78.0459C78.1419 27.864 78.1899 28.344 78.1899 28.92C78.1899 29.472 78.1419 29.952 78.0459 30.36ZM92.46 33.24C92.556 33.624 92.604 34.104 92.604 34.68C92.604 35.232 92.556 35.712 92.46 36.12H91.02C91.116 36.504 91.164 36.984 91.164 37.56C91.164 38.112 91.116 38.592 91.02 39H83.82C83.724 38.592 83.676 38.112 83.676 37.56C83.676 36.984 83.724 36.504 83.82 36.12H82.38C82.284 35.712 82.236 35.232 82.236 34.68C82.236 34.104 82.284 33.624 82.38 33.24H80.94C80.844 32.832 80.796 32.352 80.796 31.8C80.796 31.224 80.844 30.744 80.94 30.36H82.38C82.284 29.952 82.236 29.472 82.236 28.92C82.236 28.344 82.284 27.864 82.38 27.48H83.82C83.724 27.072 83.676 26.592 83.676 26.04C83.676 25.464 83.724 24.984 83.82 24.6H91.02C91.116 24.984 91.164 25.464 91.164 26.04C91.164 26.592 91.116 27.072 91.02 27.48H92.46C92.556 27.864 92.604 28.344 92.604 28.92C92.604 29.472 92.556 29.952 92.46 30.36H89.58C89.484 29.952 89.436 29.472 89.436 28.92C89.436 28.344 89.484 27.864 89.58 27.48H85.26C85.356 27.864 85.404 28.344 85.404 28.92C85.404 29.472 85.356 29.952 85.26 30.36H83.82C83.916 30.744 83.964 31.224 83.964 31.8C83.964 32.352 83.916 32.832 83.82 33.24H85.26C85.356 33.624 85.404 34.104 85.404 34.68C85.404 35.232 85.356 35.712 85.26 36.12H89.58C89.484 35.712 89.436 35.232 89.436 34.68C89.436 34.104 89.484 33.624 89.58 33.24H92.46ZM107.018 28.92C107.018 29.472 106.97 29.952 106.874 30.36C106.97 30.744 107.018 31.224 107.018 31.8C107.018 32.352 106.97 32.832 106.874 33.24H99.3141C99.4101 33.624 99.4581 34.104 99.4581 34.68C99.4581 35.232 99.4101 35.712 99.3141 36.12H105.434C105.53 36.504 105.578 36.984 105.578 37.56C105.578 38.112 105.53 38.592 105.434 39H98.2341C98.1381 38.592 98.0901 38.112 98.0901 37.56C98.0901 36.984 98.1381 36.504 98.2341 36.12H96.4341C96.3381 35.712 96.2901 35.232 96.2901 34.68C96.2901 34.104 96.3381 33.624 96.4341 33.24H95.3541C95.2581 32.832 95.2101 32.352 95.2101 31.8C95.2101 31.224 95.2581 30.744 95.3541 30.36H96.4341C96.3381 29.952 96.2901 29.472 96.2901 28.92C96.2901 28.344 96.3381 27.864 96.4341 27.48H98.2341C98.1381 27.072 98.0901 26.592 98.0901 26.04C98.0901 25.464 98.1381 24.984 98.2341 24.6H105.434C105.53 24.984 105.578 25.464 105.578 26.04C105.578 26.592 105.53 27.072 105.434 27.48H106.874C106.97 27.864 107.018 28.344 107.018 28.92ZM103.994 30.36C103.898 29.952 103.85 29.472 103.85 28.92C103.85 28.344 103.898 27.864 103.994 27.48H99.3141C99.4101 27.864 99.4581 28.344 99.4581 28.92C99.4581 29.472 99.4101 29.952 99.3141 30.36H103.994ZM119.848 36.12C119.944 36.504 119.992 36.984 119.992 37.56C119.992 38.112 119.944 38.592 119.848 39H111.208C111.112 38.592 111.064 38.112 111.064 37.56C111.064 36.984 111.112 36.504 111.208 36.12H114.088C113.992 35.712 113.944 35.232 113.944 34.68C113.944 34.104 113.992 33.624 114.088 33.24C113.992 32.832 113.944 32.352 113.944 31.8C113.944 31.224 113.992 30.744 114.088 30.36C113.992 29.952 113.944 29.472 113.944 28.92C113.944 28.344 113.992 27.864 114.088 27.48C113.992 27.072 113.944 26.592 113.944 26.04C113.944 25.464 113.992 24.984 114.088 24.6C113.992 24.192 113.944 23.712 113.944 23.16C113.944 22.584 113.992 22.104 114.088 21.72H111.928C111.832 21.312 111.784 20.832 111.784 20.28C111.784 19.704 111.832 19.224 111.928 18.84H116.968C117.064 19.224 117.112 19.704 117.112 20.28C117.112 20.832 117.064 21.312 116.968 21.72C117.064 22.104 117.112 22.584 117.112 23.16C117.112 23.712 117.064 24.192 116.968 24.6C117.064 24.984 117.112 25.464 117.112 26.04C117.112 26.592 117.064 27.072 116.968 27.48C117.064 27.864 117.112 28.344 117.112 28.92C117.112 29.472 117.064 29.952 116.968 30.36C117.064 30.744 117.112 31.224 117.112 31.8C117.112 32.352 117.064 32.832 116.968 33.24C117.064 33.624 117.112 34.104 117.112 34.68C117.112 35.232 117.064 35.712 116.968 36.12H119.848Z" fill="black"/>
</g>
<defs>
<clipPath id="clip0_1203_122257">
<rect width="158" height="57" fill="white"/>
</clipPath>
</defs>
</svg>
