<svg width="20" height="20" viewBox="0 0 20 20" fill="none" xmlns="http://www.w3.org/2000/svg">
<g clip-path="url(#clip0_1161_97564)">
<path d="M18.4333 9.26514H16.9153V10.7832H18.4333V9.26514Z" fill="#CE8900"/>
<path d="M16.9152 10.7832H15.3972V12.3012H16.9152V10.7832Z" fill="#CE8900"/>
<path d="M15.3972 12.3013H13.8792V13.8193H15.3972V12.3013Z" fill="#CE8900"/>
<path d="M13.8791 13.8192H12.3611V15.3372H13.8791V13.8192Z" fill="#CE8900"/>
<path d="M12.3611 15.3373H10.8472V16.8553H12.3611V15.3373Z" fill="#CE8900"/>
<path d="M10.8471 16.8552H9.3291V18.3733H10.8471V16.8552Z" fill="#CE8900"/>
<path d="M10.8471 1.67908H9.3291V3.19711H10.8471V1.67908Z" fill="#FFD066"/>
<path d="M9.32907 4.71509H7.81104V6.23312H9.32907V4.71509Z" fill="white"/>
<path d="M9.32907 3.19714H7.81104V4.71518H9.32907V3.19714Z" fill="#FFD066"/>
<path d="M7.81125 6.23315H6.29321V7.74711H7.81125V6.23315Z" fill="white"/>
<path d="M7.81125 4.71509H6.29321V6.23312H7.81125V4.71509Z" fill="#FFD066"/>
<path d="M13.879 7.74707V6.23312H12.361V4.71509H10.847H9.329V6.23312H7.81097V7.74707H6.29293V9.2651H4.7749V10.7831V12.3012H6.29293V13.8192H7.81097V15.3372H9.329H10.847V13.8192H12.361V12.3012H13.879V10.7831H15.397V9.2651V7.74707H13.879Z" fill="#F2B200"/>
<path d="M6.29293 7.74707H4.7749V9.2651H6.29293V7.74707Z" fill="white"/>
<path d="M6.29293 6.23315H4.7749V7.74711H6.29293V6.23315Z" fill="#FFD066"/>
<path d="M15.3972 7.74707V9.2651V10.7831H16.9152V9.2651V7.74707H15.3972Z" fill="#E5A300"/>
<path d="M15.3972 10.7832H13.8792V12.3012H15.3972V10.7832Z" fill="#E5A300"/>
<path d="M15.3972 6.23315H13.8792V7.74711H15.3972V6.23315Z" fill="#E5A300"/>
<path d="M13.8791 12.3013H12.3611V13.8193H13.8791V12.3013Z" fill="#E5A300"/>
<path d="M13.8791 4.71509H12.3611V6.23312H13.8791V4.71509Z" fill="#E5A300"/>
<path d="M12.3611 13.8192H10.8472V15.3372H12.3611V13.8192Z" fill="#E5A300"/>
<path d="M12.3611 3.19714H10.8472V4.71518H12.3611V3.19714Z" fill="#E5A300"/>
<path d="M7.81104 15.3373V16.8553H9.32907H10.8471V15.3373H9.32907H7.81104Z" fill="#E5A300"/>
<path d="M7.81125 13.8192H6.29321V15.3372H7.81125V13.8192Z" fill="#E5A300"/>
<path d="M6.29293 12.3013H4.7749V13.8193H6.29293V12.3013Z" fill="#E5A300"/>
<path d="M4.77511 10.7832H3.25708V12.3012H4.77511V10.7832Z" fill="#E5A300"/>
<path d="M10.8471 3.19714H9.3291V4.71518H10.8471V3.19714Z" fill="#FFB600"/>
<path d="M4.77511 9.26514H3.25708V10.7832H4.77511V9.26514Z" fill="#FFB600"/>
<path d="M4.77511 7.74707H3.25708V9.2651H4.77511V7.74707Z" fill="#FFD066"/>
<path d="M3.25705 9.26514H1.73901V10.7832H3.25705V9.26514Z" fill="#FFD066"/>
<path d="M19.9514 9.26514H18.4333V10.7832H19.9514V9.26514Z" fill="#1E0505"/>
<path d="M18.4333 10.7832H16.9153V12.3012H18.4333V10.7832Z" fill="#1E0505"/>
<path d="M18.4333 7.74707H16.9153V9.2651H18.4333V7.74707Z" fill="#1E0505"/>
<path d="M16.9152 12.3013H15.3972V13.8193H16.9152V12.3013Z" fill="#1E0505"/>
<path d="M16.9152 6.23315H15.3972V7.74711H16.9152V6.23315Z" fill="#1E0505"/>
<path d="M15.3972 13.8192H13.8792V15.3372H15.3972V13.8192Z" fill="#1E0505"/>
<path d="M15.3972 4.71509H13.8792V6.23312H15.3972V4.71509Z" fill="#1E0505"/>
<path d="M13.8791 15.3373H12.3611V16.8553H13.8791V15.3373Z" fill="#1E0505"/>
<path d="M13.8791 3.19714H12.3611V4.71518H13.8791V3.19714Z" fill="#1E0505"/>
<path d="M12.3611 16.8552H10.8472V18.3733H12.3611V16.8552Z" fill="#1E0505"/>
<path d="M12.3611 1.67908H10.8472V3.19711H12.3611V1.67908Z" fill="#1E0505"/>
<path d="M10.8471 18.3733H9.3291V19.8913H10.8471V18.3733Z" fill="#1E0505"/>
<path d="M10.8471 0.161011H9.3291V1.67904H10.8471V0.161011Z" fill="#1E0505"/>
<path d="M9.32907 16.8552H7.81104V18.3733H9.32907V16.8552Z" fill="#1E0505"/>
<path d="M9.32907 1.67908H7.81104V3.19711H9.32907V1.67908Z" fill="#1E0505"/>
<path d="M7.81125 15.3373H6.29321V16.8553H7.81125V15.3373Z" fill="#1E0505"/>
<path d="M7.81125 3.19714H6.29321V4.71518H7.81125V3.19714Z" fill="#1E0505"/>
<path d="M6.29293 13.8192H4.7749V15.3372H6.29293V13.8192Z" fill="#1E0505"/>
<path d="M6.29293 4.71509H4.7749V6.23312H6.29293V4.71509Z" fill="#1E0505"/>
<path d="M4.77511 12.3013H3.25708V13.8193H4.77511V12.3013Z" fill="#1E0505"/>
<path d="M4.77511 6.23315H3.25708V7.74711H4.77511V6.23315Z" fill="#1E0505"/>
<path d="M3.25705 10.7832H1.73901V12.3012H3.25705V10.7832Z" fill="#1E0505"/>
<path d="M3.25705 7.74707H1.73901V9.2651H3.25705V7.74707Z" fill="#1E0505"/>
<path d="M1.73898 9.26514H0.220947V10.7832H1.73898V9.26514Z" fill="#1E0505"/>
</g>
<defs>
<clipPath id="clip0_1161_97564">
<rect width="19.7303" height="19.7303" fill="white" transform="translate(0.220947 0.161011)"/>
</clipPath>
</defs>
</svg>
