<svg width="22" height="36" viewBox="0 0 22 36" fill="none" xmlns="http://www.w3.org/2000/svg">
<path d="M0 27.7714V21.6H1V19.5429H2V17.4857H3V14.4H4V13.3714H5V12.3429H6V8.22857H7V7.2H8V6.17143H9V5.14286H10V4.11429H14V0H17V1.02857H18V3.08571H19V6.17143H18V7.2H15V9.25714H14V10.2857H16V11.3143H17V12.3429H18V13.3714H19V14.4H20V16.4571H21V21.6H22V27.7714H21V29.8286H20V31.8857H19V32.9143H18V33.9429H16V34.9714H14V36H8V34.9714H6V33.9429H4V32.9143H3V31.8857H2V29.8286H1V27.7714H0Z" fill="#000082"/>
<path fill-rule="evenodd" clip-rule="evenodd" d="M1 22.6286V26.7429H2V28.8H3V30.8571H4V31.8857H5V32.9143H7V33.9429H9V34.9714H13V33.9429H15V32.9143H17V31.8857H18V30.8571H19V28.8H20V26.7429H21V22.6286H20V17.4857H19V15.4286H18V14.4H17V13.3714H16V12.3429H15V11.3143H13V10.2857H12V9.25714H13V7.2H14V6.17143H13V5.14286H11V6.17143H10V7.2H9V8.22857H8V9.25714H7V11.3143H8V12.3429H7V13.3714H6V14.4H5V15.4286H4V18.5143H3V20.5714H2V22.6286H1ZM9 13.3714H8V12.3429H9V13.3714ZM9 13.3714H10V15.4286H9V16.4571H8V14.4H9V13.3714ZM8 26.7429H7V25.7143H6V24.6857H5V22.6286H6V21.6H7V22.6286H9V21.6H8V20.5714H10V19.5429H11V18.5143H12V17.4857H13V15.4286H14V16.4571H15V17.4857H14V19.5429H15V20.5714H16V21.6H17V26.7429H14V25.7143H15V23.6571H13V24.6857H12V25.7143H11V26.7429H10V27.7714H13V26.7429H14V28.8H15V29.8286H13V30.8571H9V29.8286H7V28.8H6V27.7714H8V26.7429ZM15 19.5429H16V18.5143H15V19.5429ZM13 15.4286H12V14.4H13V15.4286Z" fill="white"/>
<path d="M15 4.11429V3.08571H16V2.05714H15V1.02857H16V2.05714H17V4.11429H15Z" fill="white"/>
<path d="M15 6.17143V5.14286H17V4.11429H18V5.14286H17V6.17143H15Z" fill="#4691FF"/>
<path d="M4 28.8V27.7714H6V28.8H7V29.8286H9V30.8571H13V29.8286H15V28.8H16V30.8571H15V31.8857H10V32.9143H9V31.8857H8V30.8571H7V29.8286H6V28.8H4Z" fill="#4691FF"/>
<path fill-rule="evenodd" clip-rule="evenodd" d="M11 7.2H10V8.22857H9V10.2857H8V11.3143H9V12.3429H10V13.3714H11V16.4571H10V17.4857H9V18.5143H8V17.4857H7V16.4571H6V15.4286H5V18.5143H6V19.5429H5V20.5714H4V22.6286H3V25.7143H4V23.6571H5V21.6H6V19.5429H7V20.5714H10V19.5429H11V18.5143H12V17.4857H13V15.4286H12V14.4H13V12.3429H12V11.3143H11V10.2857H10V9.25714H11V7.2ZM14 15.4286V16.4571H15V15.4286H16V17.4857H15V18.5143H17V19.5429H16V21.6H17V26.7429H16V27.7714H18V26.7429H19V25.7143H18V23.6571H19V22.6286H18V20.5714H19V19.5429H18V18.5143H17V15.4286H16V14.4H15V13.3714H14V14.4H15V15.4286H14Z" fill="#4691FF"/>
<path d="M13 15.4286H14V14.4H13V15.4286Z" fill="#4691FF"/>
<path d="M2 26.7429V22.6286H3V20.5714H4V18.5143H6V19.5429H7V20.5714H8V21.6H9V22.6286H7V21.6H6V22.6286H5V21.6H6V19.5429H5V20.5714H4V22.6286H3V25.7143H4V23.6571H5V25.7143H4V26.7429H5V27.7714H4V28.8H6V29.8286H7V30.8571H8V31.8857H9V32.9143H10V31.8857H15V30.8571H16V28.8H14V26.7429H16V27.7714H18V26.7429H19V25.7143H18V23.6571H19V22.6286H18V20.5714H19V22.6286H20V26.7429H19V28.8H18V30.8571H17V31.8857H15V32.9143H13V33.9429H9V32.9143H7V31.8857H5V30.8571H4V28.8H3V26.7429H2Z" fill="#4BFFFF"/>
<path d="M6 16.4571V14.4H7V13.3714H8V14.4H7V16.4571H8V17.4857H9V16.4571H10V15.4286H11V16.4571H10V17.4857H9V18.5143H8V17.4857H7V16.4571H6Z" fill="#4BFFFF"/>
<path d="M13 6.17143H11V9.25714H12V7.2H13V6.17143Z" fill="#4BFFFF"/>
<path d="M8 9.25714H9V10.2857H8V9.25714Z" fill="#4BFFFF"/>
<path d="M15 14.4H16V13.3714H15V14.4Z" fill="#4BFFFF"/>
<path d="M14 14.4V15.4286H15V14.4H14Z" fill="#4BFFFF"/>
<path d="M17 14.4H16V15.4286H17V14.4Z" fill="#4BFFFF"/>
<path d="M16 17.4857V15.4286H15V17.4857H16Z" fill="#4BFFFF"/>
<path d="M18 15.4286H17V18.5143H18V19.5429H19V17.4857H18V15.4286Z" fill="#4BFFFF"/>
<path d="M15 19.5429V20.5714H16V19.5429H15Z" fill="#4BFFFF"/>
<path d="M15 17.4857H14V19.5429H15V17.4857Z" fill="#4BFFFF"/>
<path d="M11 9.25714H10V10.2857H11V9.25714Z" fill="#4BFFFF"/>
<path d="M11 10.2857V11.3143H12V10.2857H11Z" fill="#4BFFFF"/>
<path d="M12 11.3143V12.3429H13V11.3143H12Z" fill="#4BFFFF"/>
<path d="M13 12.3429V14.4H14V13.3714H15V12.3429H13Z" fill="#4BFFFF"/>
<path d="M17 18.5143H16V19.5429H17V18.5143Z" fill="#4BFFFF"/>
<path d="M15 4.11429H17V5.14286H15V4.11429Z" fill="#4BFFFF"/>
<path d="M13 22.6286V23.6571H14V22.6286H13Z" fill="#4BFFFF"/>
<path d="M12 23.6571V24.6857H13V23.6571H12Z" fill="#4BFFFF"/>
<path d="M11 24.6857V25.7143H12V24.6857H11Z" fill="#4BFFFF"/>
<path d="M10 25.7143V26.7429H11V25.7143H10Z" fill="#4BFFFF"/>
<path d="M9 26.7429V27.7714H10V26.7429H9Z" fill="#4BFFFF"/>
</svg>
