<svg width="309" height="86" viewBox="0 0 309 86" fill="none" xmlns="http://www.w3.org/2000/svg">
<path d="M297.146 28.6616V34.397V40.1324V45.8678V51.6032V57.3386H303.073V51.6032V45.8678V40.1324V34.397V28.6616H297.146Z" fill="#865140"/>
<path d="M297.388 57.3385H291.46V63.0739H297.388V57.3385Z" fill="#865140"/>
<path d="M292.755 63.0739H286.828V68.8092H292.755V63.0739Z" fill="#865140"/>
<path d="M287.597 68.8093H281.669V74.5447H287.597V68.8093Z" fill="#865140"/>
<path d="M269.034 74H260.137H251.24H242.367H233.47H224.574H215.677H206.78H197.883H188.986H180.089H171.192H162.295H153.422H144.525H135.628H126.731H117.834H108.938H100.041H91.1437H82.2468H73.3498H64.4768H55.5799H46.683H37.7861H28.8892V81H37.7861H46.683H55.5799H64.4768H73.3498H82.2468H91.1437H100.041H108.938H117.834H126.731H135.628H144.525H153.422H162.295H171.192H180.089H188.986H197.883H206.78H215.677H224.574H233.47H242.367H251.24H260.137H269.034H277.931H286.828V74H277.931H269.034Z" fill="#865140"/>
<path d="M286.055 22.7795V17H280.122H195.465H189.533H183.6H177.668H171.751H165.819H159.887H153.954H148.022H142.089H136.157H130.224H124.292H118.36H112.443H106.511H100.578H94.6457H88.7133H82.7809H76.8484H70.916H64.9836H59.0511H53.1346H47.2022H41.2698H35.3373V22.7795H29.4049V28.5435H23.4725V34.323H17.54V40.1025V45.882V51.6615V57.441V63.2205H23.4725V69H29.4049H35.3373H41.2698H47.2022H53.1346H59.0511H64.9836H70.916H76.8484H82.7809H88.7133H94.6457H100.578H106.511H112.443H118.36H124.292H130.224H136.157H142.089H148.022H153.954H159.887H165.819H171.751H177.668H183.6H189.533H195.465H281.66V63.2205H286.055V57.441H291.987V51.6615V45.882V40.1025V34.323V28.5435V22.7795H286.055Z" fill="#FDCC91"/>
<path d="M177.769 11.4708H171.857H165.93H160.003V17.2062H165.93H171.857H177.769H183.696V11.4708H177.769Z" fill="#FFE3C2"/>
<path d="M130.367 11.4708H124.44H118.513H112.601H106.674H100.747H94.8196H88.8924H82.9652H77.038H71.1108H65.1836H59.2564H53.3451H47.4179H41.4907V17.2062H47.4179H53.3451H59.2564H65.1836H71.1108H77.038H82.9652H88.8924H94.8196H100.747H106.674H112.601H118.513H124.44H130.367H136.294H142.221V11.4708H136.294H130.367Z" fill="#FFE3C2"/>
<path d="M35.5629 17.2062H29.6357V22.9416H35.5629V17.2062Z" fill="#FFE3C2"/>
<path d="M29.6362 22.9417H23.709V28.6616H29.6362V22.9417Z" fill="#FFE3C2"/>
<path d="M23.7089 28.6616H17.7817V34.397H23.7089V28.6616Z" fill="#FFE3C2"/>
<path d="M291.987 22.9417V28.6616V34.397V40.1324V45.8678V51.6032V57.3386H297.914V51.6032V45.8678V40.1324V34.397V28.6616V22.9417H291.987Z" fill="#E0A967"/>
<path d="M291.724 57.3385H285.796V63.0739H291.724V57.3385Z" fill="#E0A967"/>
<path d="M291.46 17.2062H285.533V22.9416H291.46V17.2062Z" fill="#E0A967"/>
<path d="M287.597 63.0739H281.669V68.8092H287.597V63.0739Z" fill="#E0A967"/>
<path d="M285.533 11.4708H279.606V17.2062H285.533V11.4708Z" fill="#E0A967"/>
<path d="M264.469 69H255.869H247.268H238.691H230.091H221.491H212.89H204.29H195.69H187.089H178.489H169.889H161.289H152.711H144.111H135.511H126.911H118.31H109.71H101.11H92.5095H83.9093H75.309H66.7318H58.1316H49.5313H40.931H32.3307H23.7305V75H32.3307H40.931H49.5313H58.1316H66.7318H75.309H83.9093H92.5095H101.11H109.71H118.31H126.911H135.511H144.111H152.711H161.289H169.889H178.489H187.089H195.69H204.29H212.89H221.491H230.091H238.691H247.268H255.869H264.469H273.069H281.669V69H273.069H264.469Z" fill="#E0A967"/>
<path d="M23.7089 63.0739H17.7817V68.8092H23.7089V63.0739Z" fill="#E0A967"/>
<path d="M17.7812 57.3385H11.854V63.0739H17.7812V57.3385Z" fill="#E0A967"/>
<path d="M247.621 11H215.637H183.652V17H215.637H247.621H279.606V11H247.621Z" fill="#EFC490"/>
<path d="M148.148 11.4708H142.221V17.2062H148.148H154.075H160.002V11.4708H154.075H148.148Z" fill="#EFC490"/>
<path d="M29.6357 11.4708V17.2062H35.5629H41.4902V11.4708H35.5629H29.6357Z" fill="#EFC490"/>
<path d="M29.6362 17.2062H23.709V22.9416H29.6362V17.2062Z" fill="#EFC490"/>
<path d="M23.7089 22.9417H17.7817V28.6616H23.7089V22.9417Z" fill="#EFC490"/>
<path d="M11.854 34.397V40.1324V45.8678V51.6032V57.3386H17.7812V51.6032V45.8678V40.1324V34.397V28.6616H11.854V34.397Z" fill="#EFC490"/>
<path d="M276.935 5H268.074H259.212H250.351H241.513H232.652H223.791H214.929H206.068H197.207H188.345H179.484H170.623H161.761H152.924H144.063H135.201H126.34H117.479H108.617H99.756H90.8946H82.0333H73.172H64.3345H55.4732H46.6118H37.7505H28.8892V12H37.7505H46.6118H55.4732H64.3345H73.172H82.0333H90.8946H99.756H108.617H117.479H126.34H135.201H144.063H152.924H161.761H170.623H179.484H188.345H197.207H206.068H214.929H223.791H232.652H241.513H250.351H259.212H268.074H276.935H285.796V5H276.935Z" fill="#E3B783"/>
<path d="M29.6362 11.4708H23.709V17.2062H29.6362V11.4708Z" fill="#E3B783"/>
<path d="M23.7089 17.2062H17.7817V22.9416H23.7089V17.2062Z" fill="#E3B783"/>
<path d="M17.7812 22.9417H11.854V28.6616H17.7812V22.9417Z" fill="#E3B783"/>
<path d="M5.92676 34.397V40.1324V45.8678V51.6032V57.3386H11.854V51.6032V45.8678V40.1324V34.397V28.6616H5.92676V34.397Z" fill="#E3B783"/>
<path d="M29.6362 5.73539H35.5634H41.4906H47.4178H53.345H59.2563H65.1835H71.1107H77.0379H82.9651H88.8923H94.8195H100.747H106.674H112.601H118.512H124.44H130.367H136.294H142.221H148.148H154.076H160.003H165.93H171.857H177.769H183.696H189.623H279.617H285.544V11.4708H291.471V5.73539V0H285.544H279.617H189.623H183.696H177.769H171.857H165.93H160.003H154.076H148.148H142.221H136.294H130.367H124.44H118.512H112.601H106.674H100.747H94.8195H88.8923H82.9651H77.0379H71.1107H65.1835H59.2563H53.345H47.4178H41.4906H35.5634H29.6362H23.709V5.73539V11.4708H29.6362V5.73539Z" fill="#754138"/>
<path d="M23.7089 68.8093H17.7817V74.5447H23.7089V68.8093Z" fill="#754138"/>
<path d="M23.7089 11.4707H17.7817V17.2061H23.7089V11.4707Z" fill="#754138"/>
<path d="M17.7822 63.0739H11.855V68.8092H17.7822V63.0739Z" fill="#754138"/>
<path d="M17.7822 17.2062H11.855V22.9416H17.7822V17.2062Z" fill="#754138"/>
<path d="M5.92721 57.3384V51.6031V45.8677V40.1323V34.3969V28.6615H11.8544V22.9415H5.92721H0V28.6615V34.3969V40.1323V45.8677V51.6031V57.3384V63.0738H5.92721H11.8544V57.3384H5.92721Z" fill="#754138"/>
<path d="M297.146 22.9415V28.6615H303.073V34.3969V40.1323V45.8677V51.6031V57.3384H297.146V63.0738H303.073H309V57.3384V51.6031V45.8677V40.1323V34.3969V28.6615V22.9415H303.073H297.146Z" fill="#754138"/>
<path d="M297.914 63.0739H291.987V68.8092H297.914V63.0739Z" fill="#754138"/>
<path d="M297.388 17.2062H291.46V22.9416H297.388V17.2062Z" fill="#754138"/>
<path d="M292.755 68.8093H286.828V74.5447H292.755V68.8093Z" fill="#754138"/>
<path d="M291.46 11.4707H285.533V17.2061H291.46V11.4707Z" fill="#754138"/>
<path d="M286.576 80.2801H280.649H189.623H183.696H177.769H171.857H165.93H160.003H154.076H148.148H142.221H136.294H130.367H124.44H118.512H112.601H106.674H100.747H94.8195H88.8923H82.9651H77.0379H71.1107H65.1835H59.2563H53.345H47.4178H41.4906H35.5634H29.6362V74.5447H23.709V80.2801V86H29.6362H35.5634H41.4906H47.4178H53.345H59.2563H65.1835H71.1107H77.0379H82.9651H88.8923H94.8195H100.747H106.674H112.601H118.512H124.44H130.367H136.294H142.221H148.148H154.076H160.003H165.93H171.857H177.769H183.696H189.623H280.649H286.576H292.503V80.2801V74.5447H286.576V80.2801Z" fill="#754138"/>
<path d="M63.52 34.64C63.6053 34.9813 63.648 35.408 63.648 35.92C63.648 36.4107 63.6053 36.8373 63.52 37.2C63.6053 37.5413 63.648 37.968 63.648 38.48C63.648 38.9707 63.6053 39.3973 63.52 39.76C63.6053 40.1013 63.648 40.528 63.648 41.04C63.648 41.5307 63.6053 41.9573 63.52 42.32C63.6053 42.6613 63.648 43.088 63.648 43.6C63.648 44.0907 63.6053 44.5173 63.52 44.88C63.6053 45.2213 63.648 45.648 63.648 46.16C63.648 46.6507 63.6053 47.0773 63.52 47.44C63.6053 47.7813 63.648 48.208 63.648 48.72C63.648 49.2107 63.6053 49.6373 63.52 50H60.96C60.8747 49.6373 60.832 49.2107 60.832 48.72C60.832 48.208 60.8747 47.7813 60.96 47.44C60.8747 47.0773 60.832 46.6507 60.832 46.16C60.832 45.648 60.8747 45.2213 60.96 44.88C60.8747 44.5173 60.832 44.0907 60.832 43.6C60.832 43.088 60.8747 42.6613 60.96 42.32C60.8747 41.9573 60.832 41.5307 60.832 41.04C60.832 40.528 60.8747 40.1013 60.96 39.76C60.8747 39.3973 60.832 38.9707 60.832 38.48C60.832 37.968 60.8747 37.5413 60.96 37.2H60C60.0853 37.5413 60.128 37.968 60.128 38.48C60.128 38.9707 60.0853 39.3973 60 39.76C60.0853 40.1013 60.128 40.528 60.128 41.04C60.128 41.5307 60.0853 41.9573 60 42.32H59.36C59.4453 42.6613 59.488 43.088 59.488 43.6C59.488 44.0907 59.4453 44.5173 59.36 44.88C59.4453 45.2213 59.488 45.648 59.488 46.16C59.488 46.6507 59.4453 47.0773 59.36 47.44H57.44C57.3547 47.0773 57.312 46.6507 57.312 46.16C57.312 45.648 57.3547 45.2213 57.44 44.88C57.3547 44.5173 57.312 44.0907 57.312 43.6C57.312 43.088 57.3547 42.6613 57.44 42.32H56.8C56.7147 41.9573 56.672 41.5307 56.672 41.04C56.672 40.528 56.7147 40.1013 56.8 39.76C56.7147 39.3973 56.672 38.9707 56.672 38.48C56.672 37.968 56.7147 37.5413 56.8 37.2H55.84C55.9253 37.5413 55.968 37.968 55.968 38.48C55.968 38.9707 55.9253 39.3973 55.84 39.76C55.9253 40.1013 55.968 40.528 55.968 41.04C55.968 41.5307 55.9253 41.9573 55.84 42.32C55.9253 42.6613 55.968 43.088 55.968 43.6C55.968 44.0907 55.9253 44.5173 55.84 44.88C55.9253 45.2213 55.968 45.648 55.968 46.16C55.968 46.6507 55.9253 47.0773 55.84 47.44C55.9253 47.7813 55.968 48.208 55.968 48.72C55.968 49.2107 55.9253 49.6373 55.84 50H53.28C53.1947 49.6373 53.152 49.2107 53.152 48.72C53.152 48.208 53.1947 47.7813 53.28 47.44C53.1947 47.0773 53.152 46.6507 53.152 46.16C53.152 45.648 53.1947 45.2213 53.28 44.88C53.1947 44.5173 53.152 44.0907 53.152 43.6C53.152 43.088 53.1947 42.6613 53.28 42.32C53.1947 41.9573 53.152 41.5307 53.152 41.04C53.152 40.528 53.1947 40.1013 53.28 39.76C53.1947 39.3973 53.152 38.9707 53.152 38.48C53.152 37.968 53.1947 37.5413 53.28 37.2C53.1947 36.8373 53.152 36.4107 53.152 35.92C53.152 35.408 53.1947 34.9813 53.28 34.64C53.1947 34.2773 53.152 33.8507 53.152 33.36C53.152 32.848 53.1947 32.4213 53.28 32.08H56.48C56.5653 32.4213 56.608 32.848 56.608 33.36C56.608 33.8507 56.5653 34.2773 56.48 34.64H57.44C57.5253 34.9813 57.568 35.408 57.568 35.92C57.568 36.4107 57.5253 36.8373 57.44 37.2H57.92C58.0053 37.5413 58.048 37.968 58.048 38.48C58.048 38.9707 58.0053 39.3973 57.92 39.76H58.88C58.7947 39.3973 58.752 38.9707 58.752 38.48C58.752 37.968 58.7947 37.5413 58.88 37.2H59.36C59.2747 36.8373 59.232 36.4107 59.232 35.92C59.232 35.408 59.2747 34.9813 59.36 34.64H60.32C60.2347 34.2773 60.192 33.8507 60.192 33.36C60.192 32.848 60.2347 32.4213 60.32 32.08H63.52C63.6053 32.4213 63.648 32.848 63.648 33.36C63.648 33.8507 63.6053 34.2773 63.52 34.64ZM69.9325 34.64C69.8472 34.2773 69.8045 33.8507 69.8045 33.36C69.8045 32.848 69.8472 32.4213 69.9325 32.08H72.4925C72.5778 32.4213 72.6205 32.848 72.6205 33.36C72.6205 33.8507 72.5778 34.2773 72.4925 34.64H69.9325ZM75.0525 47.44C75.1378 47.7813 75.1805 48.208 75.1805 48.72C75.1805 49.2107 75.1378 49.6373 75.0525 50H67.3725C67.2872 49.6373 67.2445 49.2107 67.2445 48.72C67.2445 48.208 67.2872 47.7813 67.3725 47.44H69.9325C69.8472 47.0773 69.8045 46.6507 69.8045 46.16C69.8045 45.648 69.8472 45.2213 69.9325 44.88C69.8472 44.5173 69.8045 44.0907 69.8045 43.6C69.8045 43.088 69.8472 42.6613 69.9325 42.32C69.8472 41.9573 69.8045 41.5307 69.8045 41.04C69.8045 40.528 69.8472 40.1013 69.9325 39.76H68.0125C67.9272 39.3973 67.8845 38.9707 67.8845 38.48C67.8845 37.968 67.9272 37.5413 68.0125 37.2H72.4925C72.5778 37.5413 72.6205 37.968 72.6205 38.48C72.6205 38.9707 72.5778 39.3973 72.4925 39.76C72.5778 40.1013 72.6205 40.528 72.6205 41.04C72.6205 41.5307 72.5778 41.9573 72.4925 42.32C72.5778 42.6613 72.6205 43.088 72.6205 43.6C72.6205 44.0907 72.5778 44.5173 72.4925 44.88C72.5778 45.2213 72.6205 45.648 72.6205 46.16C72.6205 46.6507 72.5778 47.0773 72.4925 47.44H75.0525ZM81.273 38.48C81.273 38.9707 81.2303 39.3973 81.145 39.76H82.425C82.5103 40.1013 82.553 40.528 82.553 41.04C82.553 41.5307 82.5103 41.9573 82.425 42.32H81.465C81.5503 42.6613 81.593 43.088 81.593 43.6C81.593 44.0907 81.5503 44.5173 81.465 44.88C81.5503 45.2213 81.593 45.648 81.593 46.16C81.593 46.6507 81.5503 47.0773 81.465 47.44C81.5503 47.7813 81.593 48.208 81.593 48.72C81.593 49.2107 81.5503 49.6373 81.465 50H78.905C78.8197 49.6373 78.777 49.2107 78.777 48.72C78.777 48.208 78.8197 47.7813 78.905 47.44C78.8197 47.0773 78.777 46.6507 78.777 46.16C78.777 45.648 78.8197 45.2213 78.905 44.88C78.8197 44.5173 78.777 44.0907 78.777 43.6C78.777 43.088 78.8197 42.6613 78.905 42.32C78.8197 41.9573 78.777 41.5307 78.777 41.04C78.777 40.528 78.8197 40.1013 78.905 39.76C78.8197 39.3973 78.777 38.9707 78.777 38.48C78.777 37.968 78.8197 37.5413 78.905 37.2H81.145C81.2303 37.5413 81.273 37.968 81.273 38.48ZM89.145 42.32C89.2303 42.6613 89.273 43.088 89.273 43.6C89.273 44.0907 89.2303 44.5173 89.145 44.88C89.2303 45.2213 89.273 45.648 89.273 46.16C89.273 46.6507 89.2303 47.0773 89.145 47.44C89.2303 47.7813 89.273 48.208 89.273 48.72C89.273 49.2107 89.2303 49.6373 89.145 50H86.585C86.4997 49.6373 86.457 49.2107 86.457 48.72C86.457 48.208 86.4997 47.7813 86.585 47.44C86.4997 47.0773 86.457 46.6507 86.457 46.16C86.457 45.648 86.4997 45.2213 86.585 44.88C86.4997 44.5173 86.457 44.0907 86.457 43.6C86.457 43.088 86.4997 42.6613 86.585 42.32C86.4997 41.9573 86.457 41.5307 86.457 41.04C86.457 40.528 86.4997 40.1013 86.585 39.76H82.425C82.3397 39.3973 82.297 38.9707 82.297 38.48C82.297 37.968 82.3397 37.5413 82.425 37.2H87.545C87.6303 37.5413 87.673 37.968 87.673 38.48C87.673 38.9707 87.6303 39.3973 87.545 39.76H89.145C89.2303 40.1013 89.273 40.528 89.273 41.04C89.273 41.5307 89.2303 41.9573 89.145 42.32ZM100.678 47.44C100.763 47.7813 100.806 48.208 100.806 48.72C100.806 49.2107 100.763 49.6373 100.678 50H95.5575C95.4722 49.6373 95.4295 49.2107 95.4295 48.72C95.4295 48.208 95.4722 47.7813 95.5575 47.44H94.2775C94.1922 47.0773 94.1495 46.6507 94.1495 46.16C94.1495 45.648 94.1922 45.2213 94.2775 44.88C94.1922 44.5173 94.1495 44.0907 94.1495 43.6C94.1495 43.088 94.1922 42.6613 94.2775 42.32C94.1922 41.9573 94.1495 41.5307 94.1495 41.04C94.1495 40.528 94.1922 40.1013 94.2775 39.76H91.7175C91.6322 39.3973 91.5895 38.9707 91.5895 38.48C91.5895 37.968 91.6322 37.5413 91.7175 37.2H94.2775C94.1922 36.8373 94.1495 36.4107 94.1495 35.92C94.1495 35.408 94.1922 34.9813 94.2775 34.64C94.1922 34.2773 94.1495 33.8507 94.1495 33.36C94.1495 32.848 94.1922 32.4213 94.2775 32.08H96.8375C96.9228 32.4213 96.9655 32.848 96.9655 33.36C96.9655 33.8507 96.9228 34.2773 96.8375 34.64C96.9228 34.9813 96.9655 35.408 96.9655 35.92C96.9655 36.4107 96.9228 36.8373 96.8375 37.2H100.678C100.763 37.5413 100.806 37.968 100.806 38.48C100.806 38.9707 100.763 39.3973 100.678 39.76H96.8375C96.9228 40.1013 96.9655 40.528 96.9655 41.04C96.9655 41.5307 96.9228 41.9573 96.8375 42.32C96.9228 42.6613 96.9655 43.088 96.9655 43.6C96.9655 44.0907 96.9228 44.5173 96.8375 44.88C96.9228 45.2213 96.9655 45.648 96.9655 46.16C96.9655 46.6507 96.9228 47.0773 96.8375 47.44H100.678ZM127.711 38.48C127.711 38.9707 127.668 39.3973 127.583 39.76H126.303C126.388 40.1013 126.431 40.528 126.431 41.04C126.431 41.5307 126.388 41.9573 126.303 42.32H127.583C127.668 42.6613 127.711 43.088 127.711 43.6C127.711 44.0907 127.668 44.5173 127.583 44.88C127.668 45.2213 127.711 45.648 127.711 46.16C127.711 46.6507 127.668 47.0773 127.583 47.44H126.303C126.388 47.7813 126.431 48.208 126.431 48.72C126.431 49.2107 126.388 49.6373 126.303 50H117.343C117.257 49.6373 117.215 49.2107 117.215 48.72C117.215 48.208 117.257 47.7813 117.343 47.44C117.257 47.0773 117.215 46.6507 117.215 46.16C117.215 45.648 117.257 45.2213 117.343 44.88C117.257 44.5173 117.215 44.0907 117.215 43.6C117.215 43.088 117.257 42.6613 117.343 42.32C117.257 41.9573 117.215 41.5307 117.215 41.04C117.215 40.528 117.257 40.1013 117.343 39.76C117.257 39.3973 117.215 38.9707 117.215 38.48C117.215 37.968 117.257 37.5413 117.343 37.2C117.257 36.8373 117.215 36.4107 117.215 35.92C117.215 35.408 117.257 34.9813 117.343 34.64C117.257 34.2773 117.215 33.8507 117.215 33.36C117.215 32.848 117.257 32.4213 117.343 32.08H126.303C126.388 32.4213 126.431 32.848 126.431 33.36C126.431 33.8507 126.388 34.2773 126.303 34.64H127.583C127.668 34.9813 127.711 35.408 127.711 35.92C127.711 36.4107 127.668 36.8373 127.583 37.2C127.668 37.5413 127.711 37.968 127.711 38.48ZM125.023 39.76C124.937 39.3973 124.895 38.9707 124.895 38.48C124.895 37.968 124.937 37.5413 125.023 37.2C124.937 36.8373 124.895 36.4107 124.895 35.92C124.895 35.408 124.937 34.9813 125.023 34.64H119.903C119.988 34.9813 120.031 35.408 120.031 35.92C120.031 36.4107 119.988 36.8373 119.903 37.2C119.988 37.5413 120.031 37.968 120.031 38.48C120.031 38.9707 119.988 39.3973 119.903 39.76H125.023ZM125.023 44.88C124.937 44.5173 124.895 44.0907 124.895 43.6C124.895 43.088 124.937 42.6613 125.023 42.32H119.903C119.988 42.6613 120.031 43.088 120.031 43.6C120.031 44.0907 119.988 44.5173 119.903 44.88C119.988 45.2213 120.031 45.648 120.031 46.16C120.031 46.6507 119.988 47.0773 119.903 47.44H125.023C124.937 47.0773 124.895 46.6507 124.895 46.16C124.895 45.648 124.937 45.2213 125.023 44.88ZM140.395 39.76C140.48 40.1013 140.523 40.528 140.523 41.04C140.523 41.5307 140.48 41.9573 140.395 42.32H137.835C137.75 41.9573 137.707 41.5307 137.707 41.04C137.707 40.528 137.75 40.1013 137.835 39.76H135.595C135.68 40.1013 135.723 40.528 135.723 41.04C135.723 41.5307 135.68 41.9573 135.595 42.32H134.635C134.72 42.6613 134.763 43.088 134.763 43.6C134.763 44.0907 134.72 44.5173 134.635 44.88C134.72 45.2213 134.763 45.648 134.763 46.16C134.763 46.6507 134.72 47.0773 134.635 47.44H136.555C136.64 47.7813 136.683 48.208 136.683 48.72C136.683 49.2107 136.64 49.6373 136.555 50H130.155C130.07 49.6373 130.027 49.2107 130.027 48.72C130.027 48.208 130.07 47.7813 130.155 47.44H132.075C131.99 47.0773 131.947 46.6507 131.947 46.16C131.947 45.648 131.99 45.2213 132.075 44.88C131.99 44.5173 131.947 44.0907 131.947 43.6C131.947 43.088 131.99 42.6613 132.075 42.32C131.99 41.9573 131.947 41.5307 131.947 41.04C131.947 40.528 131.99 40.1013 132.075 39.76H130.155C130.07 39.3973 130.027 38.9707 130.027 38.48C130.027 37.968 130.07 37.5413 130.155 37.2H133.355C133.44 37.5413 133.483 37.968 133.483 38.48C133.483 38.9707 133.44 39.3973 133.355 39.76H134.635C134.55 39.3973 134.507 38.9707 134.507 38.48C134.507 37.968 134.55 37.5413 134.635 37.2H139.435C139.52 37.5413 139.563 37.968 139.563 38.48C139.563 38.9707 139.52 39.3973 139.435 39.76H140.395ZM153.208 47.44C153.293 47.7813 153.336 48.208 153.336 48.72C153.336 49.2107 153.293 49.6373 153.208 50H150.648C150.562 49.6373 150.52 49.2107 150.52 48.72C150.52 48.208 150.562 47.7813 150.648 47.44H149.368C149.282 47.0773 149.24 46.6507 149.24 46.16C149.24 45.648 149.282 45.2213 149.368 44.88H145.528C145.613 45.2213 145.656 45.648 145.656 46.16C145.656 46.6507 145.613 47.0773 145.528 47.44H149.368C149.453 47.7813 149.496 48.208 149.496 48.72C149.496 49.2107 149.453 49.6373 149.368 50H144.248C144.162 49.6373 144.12 49.2107 144.12 48.72C144.12 48.208 144.162 47.7813 144.248 47.44H142.968C142.882 47.0773 142.84 46.6507 142.84 46.16C142.84 45.648 142.882 45.2213 142.968 44.88H144.248C144.162 44.5173 144.12 44.0907 144.12 43.6C144.12 43.088 144.162 42.6613 144.248 42.32H149.368C149.282 41.9573 149.24 41.5307 149.24 41.04C149.24 40.528 149.282 40.1013 149.368 39.76H144.888C144.802 39.3973 144.76 38.9707 144.76 38.48C144.76 37.968 144.802 37.5413 144.888 37.2H150.648C150.733 37.5413 150.776 37.968 150.776 38.48C150.776 38.9707 150.733 39.3973 150.648 39.76H151.928C152.013 40.1013 152.056 40.528 152.056 41.04C152.056 41.5307 152.013 41.9573 151.928 42.32C152.013 42.6613 152.056 43.088 152.056 43.6C152.056 44.0907 152.013 44.5173 151.928 44.88C152.013 45.2213 152.056 45.648 152.056 46.16C152.056 46.6507 152.013 47.0773 151.928 47.44H153.208ZM166.148 38.48C166.148 38.9707 166.105 39.3973 166.02 39.76C166.105 40.1013 166.148 40.528 166.148 41.04C166.148 41.5307 166.105 41.9573 166.02 42.32H165.06C165.145 42.6613 165.188 43.088 165.188 43.6C165.188 44.0907 165.145 44.5173 165.06 44.88C165.145 45.2213 165.188 45.648 165.188 46.16C165.188 46.6507 165.145 47.0773 165.06 47.44H164.42C164.505 47.7813 164.548 48.208 164.548 48.72C164.548 49.2107 164.505 49.6373 164.42 50H162.5C162.415 49.6373 162.372 49.2107 162.372 48.72C162.372 48.208 162.415 47.7813 162.5 47.44H161.86C161.775 47.0773 161.732 46.6507 161.732 46.16C161.732 45.648 161.775 45.2213 161.86 44.88H159.94C160.025 45.2213 160.068 45.648 160.068 46.16C160.068 46.6507 160.025 47.0773 159.94 47.44H159.3C159.385 47.7813 159.428 48.208 159.428 48.72C159.428 49.2107 159.385 49.6373 159.3 50H157.38C157.295 49.6373 157.252 49.2107 157.252 48.72C157.252 48.208 157.295 47.7813 157.38 47.44H156.74C156.655 47.0773 156.612 46.6507 156.612 46.16C156.612 45.648 156.655 45.2213 156.74 44.88C156.655 44.5173 156.612 44.0907 156.612 43.6C156.612 43.088 156.655 42.6613 156.74 42.32H155.78C155.695 41.9573 155.652 41.5307 155.652 41.04C155.652 40.528 155.695 40.1013 155.78 39.76C155.695 39.3973 155.652 38.9707 155.652 38.48C155.652 37.968 155.695 37.5413 155.78 37.2H158.34C158.425 37.5413 158.468 37.968 158.468 38.48C158.468 38.9707 158.425 39.3973 158.34 39.76C158.425 40.1013 158.468 40.528 158.468 41.04C158.468 41.5307 158.425 41.9573 158.34 42.32C158.425 42.6613 158.468 43.088 158.468 43.6C158.468 44.0907 158.425 44.5173 158.34 44.88H159.3C159.215 44.5173 159.172 44.0907 159.172 43.6C159.172 43.088 159.215 42.6613 159.3 42.32H159.94C159.855 41.9573 159.812 41.5307 159.812 41.04C159.812 40.528 159.855 40.1013 159.94 39.76C159.855 39.3973 159.812 38.9707 159.812 38.48C159.812 37.968 159.855 37.5413 159.94 37.2H161.86C161.945 37.5413 161.988 37.968 161.988 38.48C161.988 38.9707 161.945 39.3973 161.86 39.76C161.945 40.1013 161.988 40.528 161.988 41.04C161.988 41.5307 161.945 41.9573 161.86 42.32H162.5C162.585 42.6613 162.628 43.088 162.628 43.6C162.628 44.0907 162.585 44.5173 162.5 44.88H163.46C163.375 44.5173 163.332 44.0907 163.332 43.6C163.332 43.088 163.375 42.6613 163.46 42.32C163.375 41.9573 163.332 41.5307 163.332 41.04C163.332 40.528 163.375 40.1013 163.46 39.76C163.375 39.3973 163.332 38.9707 163.332 38.48C163.332 37.968 163.375 37.5413 163.46 37.2H166.02C166.105 37.5413 166.148 37.968 166.148 38.48ZM177.553 47.44C177.638 47.7813 177.681 48.208 177.681 48.72C177.681 49.2107 177.638 49.6373 177.553 50H169.873C169.787 49.6373 169.745 49.2107 169.745 48.72C169.745 48.208 169.787 47.7813 169.873 47.44H172.433C172.347 47.0773 172.305 46.6507 172.305 46.16C172.305 45.648 172.347 45.2213 172.433 44.88C172.347 44.5173 172.305 44.0907 172.305 43.6C172.305 43.088 172.347 42.6613 172.433 42.32C172.347 41.9573 172.305 41.5307 172.305 41.04C172.305 40.528 172.347 40.1013 172.433 39.76C172.347 39.3973 172.305 38.9707 172.305 38.48C172.305 37.968 172.347 37.5413 172.433 37.2C172.347 36.8373 172.305 36.4107 172.305 35.92C172.305 35.408 172.347 34.9813 172.433 34.64H170.513C170.427 34.2773 170.385 33.8507 170.385 33.36C170.385 32.848 170.427 32.4213 170.513 32.08H174.993C175.078 32.4213 175.121 32.848 175.121 33.36C175.121 33.8507 175.078 34.2773 174.993 34.64C175.078 34.9813 175.121 35.408 175.121 35.92C175.121 36.4107 175.078 36.8373 174.993 37.2C175.078 37.5413 175.121 37.968 175.121 38.48C175.121 38.9707 175.078 39.3973 174.993 39.76C175.078 40.1013 175.121 40.528 175.121 41.04C175.121 41.5307 175.078 41.9573 174.993 42.32C175.078 42.6613 175.121 43.088 175.121 43.6C175.121 44.0907 175.078 44.5173 174.993 44.88C175.078 45.2213 175.121 45.648 175.121 46.16C175.121 46.6507 175.078 47.0773 174.993 47.44H177.553ZM191.773 41.04C191.773 41.5307 191.73 41.9573 191.645 42.32C191.73 42.6613 191.773 43.088 191.773 43.6C191.773 44.0907 191.73 44.5173 191.645 44.88H184.925C185.01 45.2213 185.053 45.648 185.053 46.16C185.053 46.6507 185.01 47.0773 184.925 47.44H190.365C190.45 47.7813 190.493 48.208 190.493 48.72C190.493 49.2107 190.45 49.6373 190.365 50H183.965C183.88 49.6373 183.837 49.2107 183.837 48.72C183.837 48.208 183.88 47.7813 183.965 47.44H182.365C182.28 47.0773 182.237 46.6507 182.237 46.16C182.237 45.648 182.28 45.2213 182.365 44.88H181.405C181.32 44.5173 181.277 44.0907 181.277 43.6C181.277 43.088 181.32 42.6613 181.405 42.32H182.365C182.28 41.9573 182.237 41.5307 182.237 41.04C182.237 40.528 182.28 40.1013 182.365 39.76H183.965C183.88 39.3973 183.837 38.9707 183.837 38.48C183.837 37.968 183.88 37.5413 183.965 37.2H190.365C190.45 37.5413 190.493 37.968 190.493 38.48C190.493 38.9707 190.45 39.3973 190.365 39.76H191.645C191.73 40.1013 191.773 40.528 191.773 41.04ZM189.085 42.32C189 41.9573 188.957 41.5307 188.957 41.04C188.957 40.528 189 40.1013 189.085 39.76H184.925C185.01 40.1013 185.053 40.528 185.053 41.04C185.053 41.5307 185.01 41.9573 184.925 42.32H189.085ZM204.458 39.76C204.543 40.1013 204.586 40.528 204.586 41.04C204.586 41.5307 204.543 41.9573 204.458 42.32H201.898C201.812 41.9573 201.77 41.5307 201.77 41.04C201.77 40.528 201.812 40.1013 201.898 39.76H199.658C199.743 40.1013 199.786 40.528 199.786 41.04C199.786 41.5307 199.743 41.9573 199.658 42.32H198.698C198.783 42.6613 198.826 43.088 198.826 43.6C198.826 44.0907 198.783 44.5173 198.698 44.88C198.783 45.2213 198.826 45.648 198.826 46.16C198.826 46.6507 198.783 47.0773 198.698 47.44H200.618C200.703 47.7813 200.746 48.208 200.746 48.72C200.746 49.2107 200.703 49.6373 200.618 50H194.218C194.132 49.6373 194.09 49.2107 194.09 48.72C194.09 48.208 194.132 47.7813 194.218 47.44H196.138C196.052 47.0773 196.01 46.6507 196.01 46.16C196.01 45.648 196.052 45.2213 196.138 44.88C196.052 44.5173 196.01 44.0907 196.01 43.6C196.01 43.088 196.052 42.6613 196.138 42.32C196.052 41.9573 196.01 41.5307 196.01 41.04C196.01 40.528 196.052 40.1013 196.138 39.76H194.218C194.132 39.3973 194.09 38.9707 194.09 38.48C194.09 37.968 194.132 37.5413 194.218 37.2H197.418C197.503 37.5413 197.546 37.968 197.546 38.48C197.546 38.9707 197.503 39.3973 197.418 39.76H198.698C198.612 39.3973 198.57 38.9707 198.57 38.48C198.57 37.968 198.612 37.5413 198.698 37.2H203.498C203.583 37.5413 203.626 37.968 203.626 38.48C203.626 38.9707 203.583 39.3973 203.498 39.76H204.458ZM230.083 34.64C230.168 34.9813 230.211 35.408 230.211 35.92C230.211 36.4107 230.168 36.8373 230.083 37.2C230.168 37.5413 230.211 37.968 230.211 38.48C230.211 38.9707 230.168 39.3973 230.083 39.76C230.168 40.1013 230.211 40.528 230.211 41.04C230.211 41.5307 230.168 41.9573 230.083 42.32C230.168 42.6613 230.211 43.088 230.211 43.6C230.211 44.0907 230.168 44.5173 230.083 44.88C230.168 45.2213 230.211 45.648 230.211 46.16C230.211 46.6507 230.168 47.0773 230.083 47.44C230.168 47.7813 230.211 48.208 230.211 48.72C230.211 49.2107 230.168 49.6373 230.083 50H227.523C227.437 49.6373 227.395 49.2107 227.395 48.72C227.395 48.208 227.437 47.7813 227.523 47.44H225.923C225.837 47.0773 225.795 46.6507 225.795 46.16C225.795 45.648 225.837 45.2213 225.923 44.88H224.963C224.877 44.5173 224.835 44.0907 224.835 43.6C224.835 43.088 224.877 42.6613 224.963 42.32H223.683C223.597 41.9573 223.555 41.5307 223.555 41.04C223.555 40.528 223.597 40.1013 223.683 39.76H222.403C222.488 40.1013 222.531 40.528 222.531 41.04C222.531 41.5307 222.488 41.9573 222.403 42.32C222.488 42.6613 222.531 43.088 222.531 43.6C222.531 44.0907 222.488 44.5173 222.403 44.88C222.488 45.2213 222.531 45.648 222.531 46.16C222.531 46.6507 222.488 47.0773 222.403 47.44C222.488 47.7813 222.531 48.208 222.531 48.72C222.531 49.2107 222.488 49.6373 222.403 50H219.843C219.757 49.6373 219.715 49.2107 219.715 48.72C219.715 48.208 219.757 47.7813 219.843 47.44C219.757 47.0773 219.715 46.6507 219.715 46.16C219.715 45.648 219.757 45.2213 219.843 44.88C219.757 44.5173 219.715 44.0907 219.715 43.6C219.715 43.088 219.757 42.6613 219.843 42.32C219.757 41.9573 219.715 41.5307 219.715 41.04C219.715 40.528 219.757 40.1013 219.843 39.76C219.757 39.3973 219.715 38.9707 219.715 38.48C219.715 37.968 219.757 37.5413 219.843 37.2C219.757 36.8373 219.715 36.4107 219.715 35.92C219.715 35.408 219.757 34.9813 219.843 34.64C219.757 34.2773 219.715 33.8507 219.715 33.36C219.715 32.848 219.757 32.4213 219.843 32.08H223.043C223.128 32.4213 223.171 32.848 223.171 33.36C223.171 33.8507 223.128 34.2773 223.043 34.64H224.003C224.088 34.9813 224.131 35.408 224.131 35.92C224.131 36.4107 224.088 36.8373 224.003 37.2H224.963C225.048 37.5413 225.091 37.968 225.091 38.48C225.091 38.9707 225.048 39.3973 224.963 39.76H226.243C226.328 40.1013 226.371 40.528 226.371 41.04C226.371 41.5307 226.328 41.9573 226.243 42.32H227.523C227.437 41.9573 227.395 41.5307 227.395 41.04C227.395 40.528 227.437 40.1013 227.523 39.76C227.437 39.3973 227.395 38.9707 227.395 38.48C227.395 37.968 227.437 37.5413 227.523 37.2C227.437 36.8373 227.395 36.4107 227.395 35.92C227.395 35.408 227.437 34.9813 227.523 34.64C227.437 34.2773 227.395 33.8507 227.395 33.36C227.395 32.848 227.437 32.4213 227.523 32.08H230.083C230.168 32.4213 230.211 32.848 230.211 33.36C230.211 33.8507 230.168 34.2773 230.083 34.64ZM241.615 39.76C241.7 40.1013 241.743 40.528 241.743 41.04C241.743 41.5307 241.7 41.9573 241.615 42.32H236.495C236.58 42.6613 236.623 43.088 236.623 43.6C236.623 44.0907 236.58 44.5173 236.495 44.88C236.58 45.2213 236.623 45.648 236.623 46.16C236.623 46.6507 236.58 47.0773 236.495 47.44C236.58 47.7813 236.623 48.208 236.623 48.72C236.623 49.2107 236.58 49.6373 236.495 50H233.935C233.85 49.6373 233.807 49.2107 233.807 48.72C233.807 48.208 233.85 47.7813 233.935 47.44C233.85 47.0773 233.807 46.6507 233.807 46.16C233.807 45.648 233.85 45.2213 233.935 44.88C233.85 44.5173 233.807 44.0907 233.807 43.6C233.807 43.088 233.85 42.6613 233.935 42.32C233.85 41.9573 233.807 41.5307 233.807 41.04C233.807 40.528 233.85 40.1013 233.935 39.76C233.85 39.3973 233.807 38.9707 233.807 38.48C233.807 37.968 233.85 37.5413 233.935 37.2C233.85 36.8373 233.807 36.4107 233.807 35.92C233.807 35.408 233.85 34.9813 233.935 34.64C233.85 34.2773 233.807 33.8507 233.807 33.36C233.807 32.848 233.85 32.4213 233.935 32.08H241.615C241.7 32.4213 241.743 32.848 241.743 33.36C241.743 33.8507 241.7 34.2773 241.615 34.64H236.495C236.58 34.9813 236.623 35.408 236.623 35.92C236.623 36.4107 236.58 36.8373 236.495 37.2C236.58 37.5413 236.623 37.968 236.623 38.48C236.623 38.9707 236.58 39.3973 236.495 39.76H241.615ZM255.836 33.36C255.836 33.8507 255.793 34.2773 255.708 34.64H251.868C251.953 34.9813 251.996 35.408 251.996 35.92C251.996 36.4107 251.953 36.8373 251.868 37.2C251.953 37.5413 251.996 37.968 251.996 38.48C251.996 38.9707 251.953 39.3973 251.868 39.76C251.953 40.1013 251.996 40.528 251.996 41.04C251.996 41.5307 251.953 41.9573 251.868 42.32C251.953 42.6613 251.996 43.088 251.996 43.6C251.996 44.0907 251.953 44.5173 251.868 44.88C251.953 45.2213 251.996 45.648 251.996 46.16C251.996 46.6507 251.953 47.0773 251.868 47.44C251.953 47.7813 251.996 48.208 251.996 48.72C251.996 49.2107 251.953 49.6373 251.868 50H249.308C249.222 49.6373 249.18 49.2107 249.18 48.72C249.18 48.208 249.222 47.7813 249.308 47.44C249.222 47.0773 249.18 46.6507 249.18 46.16C249.18 45.648 249.222 45.2213 249.308 44.88C249.222 44.5173 249.18 44.0907 249.18 43.6C249.18 43.088 249.222 42.6613 249.308 42.32C249.222 41.9573 249.18 41.5307 249.18 41.04C249.18 40.528 249.222 40.1013 249.308 39.76C249.222 39.3973 249.18 38.9707 249.18 38.48C249.18 37.968 249.222 37.5413 249.308 37.2C249.222 36.8373 249.18 36.4107 249.18 35.92C249.18 35.408 249.222 34.9813 249.308 34.64H245.468C245.382 34.2773 245.34 33.8507 245.34 33.36C245.34 32.848 245.382 32.4213 245.468 32.08H255.708C255.793 32.4213 255.836 32.848 255.836 33.36Z" fill="#1E0505"/>
</svg>
