<svg width="166" height="56" viewBox="0 0 166 56" fill="none" xmlns="http://www.w3.org/2000/svg">
<g clip-path="url(#clip0_1203_122213)">
<path d="M26.2094 17.2322V12.9226V8.61609H17.4751V12.9226V17.2322H26.2094Z" fill="white"/>
<path d="M17.4717 17.2322H13.1045V21.5387H17.4717V17.2322Z" fill="white"/>
<path d="M161.633 34.4613V38.7709H166V17.2322H161.633V21.5387V34.4613Z" fill="black"/>
<path d="M157.266 47.3839H148.528V51.6904H157.266V47.3839Z" fill="black"/>
<path d="M161.633 8.61609H157.266V17.2322H161.633V8.61609Z" fill="black"/>
<path d="M161.633 38.7709H157.266V47.387H161.633V38.7709Z" fill="black"/>
<path d="M157.266 4.30652H148.528V8.61301H157.266V4.30652Z" fill="black"/>
<path d="M69.8935 17.2322V21.5387H74.2639V12.9226H61.1592V17.2322H69.8935Z" fill="#7F9F10"/>
<path d="M83.0017 43.0774V30.1548H91.7392V43.0774H96.1064V12.9226H91.7392V25.8452H83.0017V12.9226H78.6313V43.0774H83.0017Z" fill="#7F9F10"/>
<path d="M74.2639 43.0774V34.4613H69.8935V38.7709H61.1592V43.0774H74.2639Z" fill="#7F9F10"/>
<path d="M69.8935 30.1548H65.5264V34.4613H69.8935V30.1548Z" fill="#7F9F10"/>
<path d="M122.315 43.0774V25.8452H126.686V21.5387H122.315V12.9226H117.948V43.0774H122.315Z" fill="#7F9F10"/>
<path d="M113.578 12.9226H109.211V43.0774H113.578V12.9226Z" fill="#7F9F10"/>
<path d="M30.5766 17.2322H26.2095V25.8483H30.5766V17.2322Z" fill="#7F9F10"/>
<path d="M39.3171 25.8452H30.5796V30.1517H39.3171V25.8452Z" fill="#7F9F10"/>
<path d="M61.1562 17.2322H56.7891V38.7709H61.1562V17.2322Z" fill="#7F9F10"/>
<path d="M8.73436 38.7709H4.36719V47.387H8.73436V38.7709Z" fill="black"/>
<path d="M17.4748 47.3839H8.7373V51.6904H17.4748V47.3839Z" fill="black"/>
<path d="M39.3142 38.7709H26.2095V43.0774H39.3142V38.7709Z" fill="#7F9F10"/>
<path d="M43.6843 12.9226H30.5796V17.2291H43.6843V12.9226Z" fill="#7F9F10"/>
<path d="M52.4189 12.9226H48.0518V43.0774H52.4189V12.9226Z" fill="#7F9F10"/>
<path d="M43.6846 30.1548H39.3174V38.7709H43.6846V30.1548Z" fill="#7F9F10"/>
<path d="M0 38.7709H4.36717V34.4613V21.5387V17.2322H0V38.7709Z" fill="black"/>
<path d="M8.73436 8.61609H4.36719V17.2322H8.73436V8.61609Z" fill="black"/>
<path d="M17.4748 4.30652H8.7373V8.61301H17.4748V4.30652Z" fill="black"/>
<path d="M148.528 0H17.4751V4.30649H148.528V0Z" fill="black"/>
<path d="M131.053 30.1548V34.4613H135.424V43.0774H139.791V12.9226H135.424V30.1548H131.053Z" fill="#7F9F10"/>
<path d="M131.053 25.8452H126.686V30.1517H131.053V25.8452Z" fill="#7F9F10"/>
<path d="M148.528 51.6935H17.4751V56H148.528V51.6935Z" fill="black"/>
<path d="M13.1045 17.2322V12.9226H17.4748V8.61609H8.7373V17.2322H13.1045Z" fill="#B0D838"/>
<path d="M8.73436 17.2322H4.36719V21.5387H8.73436V17.2322Z" fill="#B0D838"/>
<path d="M26.2094 8.61613V12.9226H30.5798H43.6845H48.0516H52.422H61.1595H74.2642H78.6313H83.0017H91.7392H96.1063H109.211H113.581H117.949H122.316H135.424H139.791H152.895V17.2322H157.266V8.61613H148.528V4.30652H17.4751V8.61613H26.2094Z" fill="#B0D838"/>
<path d="M161.633 17.2322H157.266V21.5387H161.633V17.2322Z" fill="#B0D838"/>
<path d="M17.4748 43.0774H13.1045V38.7709H8.7373V47.3839H17.4748V43.0774Z" fill="#486810"/>
<path d="M8.73436 34.4613H4.36719V38.7678H8.73436V34.4613Z" fill="#486810"/>
<path d="M152.895 38.7709V43.0774H148.528V47.3839H157.266V38.7709H152.895Z" fill="#486810"/>
<path d="M148.528 47.3839H17.4751V51.6904H148.528V47.3839Z" fill="#486810"/>
<path d="M161.633 34.4613H157.266V38.7678H161.633V34.4613Z" fill="#486810"/>
<path d="M8.73752 38.7709H13.1047V43.0774H17.475V47.3839H148.528V43.0774H152.895V38.7709H157.266V34.4613H161.633V21.5387H157.266V17.2322H152.895V12.9226H139.791V43.0774H135.423V34.4613H131.053V30.1548H126.686V25.8452H122.316V43.0774H117.948V12.9226H113.581V43.0774H109.211V12.9226H96.1063V43.0774H91.7391V30.1548H83.0016V43.0774H78.6313V12.9226H74.2641V21.5387H69.8938V17.2322H61.1594V38.7709H69.8938V34.4613H65.5266V30.1548H69.8938V34.4613H74.2641V43.0774H61.1594V38.7709H56.7891V17.2322H61.1594V12.9226H52.4219V43.0774H48.0516V12.9226H43.6844V17.2322H30.5797V25.8452H39.3172V30.1548H43.6844V38.7709H39.3172V43.0774H26.2094V38.7709H39.3172V30.1548H30.5797V25.8452H26.2094V17.2322H17.475V21.5387H13.1047V17.2322H8.73752V21.5387H4.36719V34.4613H8.73752V38.7709Z" fill="#7F9F10"/>
<path d="M30.5766 12.9226H26.2095V17.2291H30.5766V12.9226Z" fill="#7F9F10"/>
<path d="M17.4717 12.9226H13.1045V17.2291H17.4717V12.9226Z" fill="#7F9F10"/>
<path d="M91.739 12.9226H83.0015V25.8452H91.739V12.9226Z" fill="#7F9F10"/>
<path d="M126.686 21.5387V25.8452H131.053V30.1548H135.423V12.9226H122.315V21.5387H126.686Z" fill="#7F9F10"/>
<path d="M67.1319 20.72C67.2279 21.104 67.2759 21.584 67.2759 22.16C67.2759 22.712 67.2279 23.192 67.1319 23.6C67.2279 23.984 67.2759 24.464 67.2759 25.04C67.2759 25.592 67.2279 26.072 67.1319 26.48C67.2279 26.864 67.2759 27.344 67.2759 27.92C67.2759 28.472 67.2279 28.952 67.1319 29.36C67.2279 29.744 67.2759 30.224 67.2759 30.8C67.2759 31.352 67.2279 31.832 67.1319 32.24C67.2279 32.624 67.2759 33.104 67.2759 33.68C67.2759 34.232 67.2279 34.712 67.1319 35.12C67.2279 35.504 67.2759 35.984 67.2759 36.56C67.2759 37.112 67.2279 37.592 67.1319 38H64.2519C64.1559 37.592 64.1079 37.112 64.1079 36.56C64.1079 35.984 64.1559 35.504 64.2519 35.12C64.1559 34.712 64.1079 34.232 64.1079 33.68C64.1079 33.104 64.1559 32.624 64.2519 32.24C64.1559 31.832 64.1079 31.352 64.1079 30.8C64.1079 30.224 64.1559 29.744 64.2519 29.36C64.1559 28.952 64.1079 28.472 64.1079 27.92C64.1079 27.344 64.1559 26.864 64.2519 26.48C64.1559 26.072 64.1079 25.592 64.1079 25.04C64.1079 24.464 64.1559 23.984 64.2519 23.6H63.1719C63.2679 23.984 63.3159 24.464 63.3159 25.04C63.3159 25.592 63.2679 26.072 63.1719 26.48C63.2679 26.864 63.3159 27.344 63.3159 27.92C63.3159 28.472 63.2679 28.952 63.1719 29.36H62.4519C62.5479 29.744 62.5959 30.224 62.5959 30.8C62.5959 31.352 62.5479 31.832 62.4519 32.24C62.5479 32.624 62.5959 33.104 62.5959 33.68C62.5959 34.232 62.5479 34.712 62.4519 35.12H60.2919C60.1959 34.712 60.1479 34.232 60.1479 33.68C60.1479 33.104 60.1959 32.624 60.2919 32.24C60.1959 31.832 60.1479 31.352 60.1479 30.8C60.1479 30.224 60.1959 29.744 60.2919 29.36H59.5719C59.4759 28.952 59.4279 28.472 59.4279 27.92C59.4279 27.344 59.4759 26.864 59.5719 26.48C59.4759 26.072 59.4279 25.592 59.4279 25.04C59.4279 24.464 59.4759 23.984 59.5719 23.6H58.4919C58.5879 23.984 58.6359 24.464 58.6359 25.04C58.6359 25.592 58.5879 26.072 58.4919 26.48C58.5879 26.864 58.6359 27.344 58.6359 27.92C58.6359 28.472 58.5879 28.952 58.4919 29.36C58.5879 29.744 58.6359 30.224 58.6359 30.8C58.6359 31.352 58.5879 31.832 58.4919 32.24C58.5879 32.624 58.6359 33.104 58.6359 33.68C58.6359 34.232 58.5879 34.712 58.4919 35.12C58.5879 35.504 58.6359 35.984 58.6359 36.56C58.6359 37.112 58.5879 37.592 58.4919 38H55.6119C55.5159 37.592 55.4679 37.112 55.4679 36.56C55.4679 35.984 55.5159 35.504 55.6119 35.12C55.5159 34.712 55.4679 34.232 55.4679 33.68C55.4679 33.104 55.5159 32.624 55.6119 32.24C55.5159 31.832 55.4679 31.352 55.4679 30.8C55.4679 30.224 55.5159 29.744 55.6119 29.36C55.5159 28.952 55.4679 28.472 55.4679 27.92C55.4679 27.344 55.5159 26.864 55.6119 26.48C55.5159 26.072 55.4679 25.592 55.4679 25.04C55.4679 24.464 55.5159 23.984 55.6119 23.6C55.5159 23.192 55.4679 22.712 55.4679 22.16C55.4679 21.584 55.5159 21.104 55.6119 20.72C55.5159 20.312 55.4679 19.832 55.4679 19.28C55.4679 18.704 55.5159 18.224 55.6119 17.84H59.2119C59.3079 18.224 59.3559 18.704 59.3559 19.28C59.3559 19.832 59.3079 20.312 59.2119 20.72H60.2919C60.3879 21.104 60.4359 21.584 60.4359 22.16C60.4359 22.712 60.3879 23.192 60.2919 23.6H60.8319C60.9279 23.984 60.9759 24.464 60.9759 25.04C60.9759 25.592 60.9279 26.072 60.8319 26.48H61.9119C61.8159 26.072 61.7679 25.592 61.7679 25.04C61.7679 24.464 61.8159 23.984 61.9119 23.6H62.4519C62.3559 23.192 62.3079 22.712 62.3079 22.16C62.3079 21.584 62.3559 21.104 62.4519 20.72H63.5319C63.4359 20.312 63.3879 19.832 63.3879 19.28C63.3879 18.704 63.4359 18.224 63.5319 17.84H67.1319C67.2279 18.224 67.2759 18.704 67.2759 19.28C67.2759 19.832 67.2279 20.312 67.1319 20.72ZM74.3459 20.72C74.2499 20.312 74.2019 19.832 74.2019 19.28C74.2019 18.704 74.2499 18.224 74.3459 17.84H77.2259C77.3219 18.224 77.3699 18.704 77.3699 19.28C77.3699 19.832 77.3219 20.312 77.2259 20.72H74.3459ZM80.1059 35.12C80.2019 35.504 80.2499 35.984 80.2499 36.56C80.2499 37.112 80.2019 37.592 80.1059 38H71.4659C71.3699 37.592 71.3219 37.112 71.3219 36.56C71.3219 35.984 71.3699 35.504 71.4659 35.12H74.3459C74.2499 34.712 74.2019 34.232 74.2019 33.68C74.2019 33.104 74.2499 32.624 74.3459 32.24C74.2499 31.832 74.2019 31.352 74.2019 30.8C74.2019 30.224 74.2499 29.744 74.3459 29.36C74.2499 28.952 74.2019 28.472 74.2019 27.92C74.2019 27.344 74.2499 26.864 74.3459 26.48H72.1859C72.0899 26.072 72.0419 25.592 72.0419 25.04C72.0419 24.464 72.0899 23.984 72.1859 23.6H77.2259C77.3219 23.984 77.3699 24.464 77.3699 25.04C77.3699 25.592 77.3219 26.072 77.2259 26.48C77.3219 26.864 77.3699 27.344 77.3699 27.92C77.3699 28.472 77.3219 28.952 77.2259 29.36C77.3219 29.744 77.3699 30.224 77.3699 30.8C77.3699 31.352 77.3219 31.832 77.2259 32.24C77.3219 32.624 77.3699 33.104 77.3699 33.68C77.3699 34.232 77.3219 34.712 77.2259 35.12H80.1059ZM87.104 25.04C87.104 25.592 87.056 26.072 86.96 26.48H88.4C88.496 26.864 88.544 27.344 88.544 27.92C88.544 28.472 88.496 28.952 88.4 29.36H87.32C87.416 29.744 87.464 30.224 87.464 30.8C87.464 31.352 87.416 31.832 87.32 32.24C87.416 32.624 87.464 33.104 87.464 33.68C87.464 34.232 87.416 34.712 87.32 35.12C87.416 35.504 87.464 35.984 87.464 36.56C87.464 37.112 87.416 37.592 87.32 38H84.44C84.344 37.592 84.296 37.112 84.296 36.56C84.296 35.984 84.344 35.504 84.44 35.12C84.344 34.712 84.296 34.232 84.296 33.68C84.296 33.104 84.344 32.624 84.44 32.24C84.344 31.832 84.296 31.352 84.296 30.8C84.296 30.224 84.344 29.744 84.44 29.36C84.344 28.952 84.296 28.472 84.296 27.92C84.296 27.344 84.344 26.864 84.44 26.48C84.344 26.072 84.296 25.592 84.296 25.04C84.296 24.464 84.344 23.984 84.44 23.6H86.96C87.056 23.984 87.104 24.464 87.104 25.04ZM95.96 29.36C96.056 29.744 96.104 30.224 96.104 30.8C96.104 31.352 96.056 31.832 95.96 32.24C96.056 32.624 96.104 33.104 96.104 33.68C96.104 34.232 96.056 34.712 95.96 35.12C96.056 35.504 96.104 35.984 96.104 36.56C96.104 37.112 96.056 37.592 95.96 38H93.08C92.984 37.592 92.936 37.112 92.936 36.56C92.936 35.984 92.984 35.504 93.08 35.12C92.984 34.712 92.936 34.232 92.936 33.68C92.936 33.104 92.984 32.624 93.08 32.24C92.984 31.832 92.936 31.352 92.936 30.8C92.936 30.224 92.984 29.744 93.08 29.36C92.984 28.952 92.936 28.472 92.936 27.92C92.936 27.344 92.984 26.864 93.08 26.48H88.4C88.304 26.072 88.256 25.592 88.256 25.04C88.256 24.464 88.304 23.984 88.4 23.6H94.16C94.256 23.984 94.304 24.464 94.304 25.04C94.304 25.592 94.256 26.072 94.16 26.48H95.96C96.056 26.864 96.104 27.344 96.104 27.92C96.104 28.472 96.056 28.952 95.96 29.36ZM108.934 35.12C109.03 35.504 109.078 35.984 109.078 36.56C109.078 37.112 109.03 37.592 108.934 38H103.174C103.078 37.592 103.03 37.112 103.03 36.56C103.03 35.984 103.078 35.504 103.174 35.12H101.734C101.638 34.712 101.59 34.232 101.59 33.68C101.59 33.104 101.638 32.624 101.734 32.24C101.638 31.832 101.59 31.352 101.59 30.8C101.59 30.224 101.638 29.744 101.734 29.36C101.638 28.952 101.59 28.472 101.59 27.92C101.59 27.344 101.638 26.864 101.734 26.48H98.8541C98.7581 26.072 98.7101 25.592 98.7101 25.04C98.7101 24.464 98.7581 23.984 98.8541 23.6H101.734C101.638 23.192 101.59 22.712 101.59 22.16C101.59 21.584 101.638 21.104 101.734 20.72C101.638 20.312 101.59 19.832 101.59 19.28C101.59 18.704 101.638 18.224 101.734 17.84H104.614C104.71 18.224 104.758 18.704 104.758 19.28C104.758 19.832 104.71 20.312 104.614 20.72C104.71 21.104 104.758 21.584 104.758 22.16C104.758 22.712 104.71 23.192 104.614 23.6H108.934C109.03 23.984 109.078 24.464 109.078 25.04C109.078 25.592 109.03 26.072 108.934 26.48H104.614C104.71 26.864 104.758 27.344 104.758 27.92C104.758 28.472 104.71 28.952 104.614 29.36C104.71 29.744 104.758 30.224 104.758 30.8C104.758 31.352 104.71 31.832 104.614 32.24C104.71 32.624 104.758 33.104 104.758 33.68C104.758 34.232 104.71 34.712 104.614 35.12H108.934Z" fill="black"/>
</g>
<defs>
<clipPath id="clip0_1203_122213">
<rect width="166" height="56" fill="white"/>
</clipPath>
</defs>
</svg>
