<svg width="309" height="86" viewBox="0 0 309 86" fill="none" xmlns="http://www.w3.org/2000/svg">
<path d="M297.146 28.6616V34.397V40.1324V45.8678V51.6032V57.3386H303.073V51.6032V45.8678V40.1324V34.397V28.6616H297.146Z" fill="#865140"/>
<path d="M297.388 57.3385H291.46V63.0739H297.388V57.3385Z" fill="#865140"/>
<path d="M292.755 63.0739H286.828V68.8092H292.755V63.0739Z" fill="#865140"/>
<path d="M287.597 68.8093H281.669V74.5447H287.597V68.8093Z" fill="#865140"/>
<path d="M269.034 74H260.137H251.24H242.367H233.47H224.574H215.677H206.78H197.883H188.986H180.089H171.192H162.295H153.422H144.525H135.628H126.731H117.834H108.938H100.041H91.1437H82.2468H73.3498H64.4768H55.5799H46.683H37.7861H28.8892V81H37.7861H46.683H55.5799H64.4768H73.3498H82.2468H91.1437H100.041H108.938H117.834H126.731H135.628H144.525H153.422H162.295H171.192H180.089H188.986H197.883H206.78H215.677H224.574H233.47H242.367H251.24H260.137H269.034H277.931H286.828V74H277.931H269.034Z" fill="#865140"/>
<path d="M286.055 22.7795V17H280.122H195.465H189.533H183.6H177.668H171.751H165.819H159.887H153.954H148.022H142.089H136.157H130.224H124.292H118.36H112.443H106.511H100.578H94.6457H88.7133H82.7809H76.8484H70.916H64.9836H59.0511H53.1346H47.2022H41.2698H35.3373V22.7795H29.4049V28.5435H23.4725V34.323H17.54V40.1025V45.882V51.6615V57.441V63.2205H23.4725V69H29.4049H35.3373H41.2698H47.2022H53.1346H59.0511H64.9836H70.916H76.8484H82.7809H88.7133H94.6457H100.578H106.511H112.443H118.36H124.292H130.224H136.157H142.089H148.022H153.954H159.887H165.819H171.751H177.668H183.6H189.533H195.465H281.66V63.2205H286.055V57.441H291.987V51.6615V45.882V40.1025V34.323V28.5435V22.7795H286.055Z" fill="#FDCC91"/>
<path d="M177.769 11.4708H171.857H165.93H160.003V17.2062H165.93H171.857H177.769H183.696V11.4708H177.769Z" fill="#FFE3C2"/>
<path d="M130.367 11.4708H124.44H118.513H112.601H106.674H100.747H94.8196H88.8924H82.9652H77.038H71.1108H65.1836H59.2564H53.3451H47.4179H41.4907V17.2062H47.4179H53.3451H59.2564H65.1836H71.1108H77.038H82.9652H88.8924H94.8196H100.747H106.674H112.601H118.513H124.44H130.367H136.294H142.221V11.4708H136.294H130.367Z" fill="#FFE3C2"/>
<path d="M35.5629 17.2062H29.6357V22.9416H35.5629V17.2062Z" fill="#FFE3C2"/>
<path d="M29.6362 22.9417H23.709V28.6616H29.6362V22.9417Z" fill="#FFE3C2"/>
<path d="M23.7089 28.6616H17.7817V34.397H23.7089V28.6616Z" fill="#FFE3C2"/>
<path d="M291.987 22.9417V28.6616V34.397V40.1324V45.8678V51.6032V57.3386H297.914V51.6032V45.8678V40.1324V34.397V28.6616V22.9417H291.987Z" fill="#E0A967"/>
<path d="M291.724 57.3385H285.796V63.0739H291.724V57.3385Z" fill="#E0A967"/>
<path d="M291.46 17.2062H285.533V22.9416H291.46V17.2062Z" fill="#E0A967"/>
<path d="M287.597 63.0739H281.669V68.8092H287.597V63.0739Z" fill="#E0A967"/>
<path d="M285.533 11.4708H279.606V17.2062H285.533V11.4708Z" fill="#E0A967"/>
<path d="M264.469 69H255.869H247.268H238.691H230.091H221.491H212.89H204.29H195.69H187.089H178.489H169.889H161.289H152.711H144.111H135.511H126.911H118.31H109.71H101.11H92.5095H83.9093H75.309H66.7318H58.1316H49.5313H40.931H32.3307H23.7305V75H32.3307H40.931H49.5313H58.1316H66.7318H75.309H83.9093H92.5095H101.11H109.71H118.31H126.911H135.511H144.111H152.711H161.289H169.889H178.489H187.089H195.69H204.29H212.89H221.491H230.091H238.691H247.268H255.869H264.469H273.069H281.669V69H273.069H264.469Z" fill="#E0A967"/>
<path d="M23.7089 63.0739H17.7817V68.8092H23.7089V63.0739Z" fill="#E0A967"/>
<path d="M17.7812 57.3385H11.854V63.0739H17.7812V57.3385Z" fill="#E0A967"/>
<path d="M247.621 11H215.637H183.652V17H215.637H247.621H279.606V11H247.621Z" fill="#EFC490"/>
<path d="M148.148 11.4708H142.221V17.2062H148.148H154.075H160.002V11.4708H154.075H148.148Z" fill="#EFC490"/>
<path d="M29.6357 11.4708V17.2062H35.5629H41.4902V11.4708H35.5629H29.6357Z" fill="#EFC490"/>
<path d="M29.6362 17.2062H23.709V22.9416H29.6362V17.2062Z" fill="#EFC490"/>
<path d="M23.7089 22.9417H17.7817V28.6616H23.7089V22.9417Z" fill="#EFC490"/>
<path d="M11.854 34.397V40.1324V45.8678V51.6032V57.3386H17.7812V51.6032V45.8678V40.1324V34.397V28.6616H11.854V34.397Z" fill="#EFC490"/>
<path d="M276.935 5H268.074H259.212H250.351H241.513H232.652H223.791H214.929H206.068H197.207H188.345H179.484H170.623H161.761H152.924H144.063H135.201H126.34H117.479H108.617H99.756H90.8946H82.0333H73.172H64.3345H55.4732H46.6118H37.7505H28.8892V12H37.7505H46.6118H55.4732H64.3345H73.172H82.0333H90.8946H99.756H108.617H117.479H126.34H135.201H144.063H152.924H161.761H170.623H179.484H188.345H197.207H206.068H214.929H223.791H232.652H241.513H250.351H259.212H268.074H276.935H285.796V5H276.935Z" fill="#E3B783"/>
<path d="M29.6362 11.4708H23.709V17.2062H29.6362V11.4708Z" fill="#E3B783"/>
<path d="M23.7089 17.2062H17.7817V22.9416H23.7089V17.2062Z" fill="#E3B783"/>
<path d="M17.7812 22.9417H11.854V28.6616H17.7812V22.9417Z" fill="#E3B783"/>
<path d="M5.92676 34.397V40.1324V45.8678V51.6032V57.3386H11.854V51.6032V45.8678V40.1324V34.397V28.6616H5.92676V34.397Z" fill="#E3B783"/>
<path d="M29.6362 5.73539H35.5634H41.4906H47.4178H53.345H59.2563H65.1835H71.1107H77.0379H82.9651H88.8923H94.8195H100.747H106.674H112.601H118.512H124.44H130.367H136.294H142.221H148.148H154.076H160.003H165.93H171.857H177.769H183.696H189.623H279.617H285.544V11.4708H291.471V5.73539V0H285.544H279.617H189.623H183.696H177.769H171.857H165.93H160.003H154.076H148.148H142.221H136.294H130.367H124.44H118.512H112.601H106.674H100.747H94.8195H88.8923H82.9651H77.0379H71.1107H65.1835H59.2563H53.345H47.4178H41.4906H35.5634H29.6362H23.709V5.73539V11.4708H29.6362V5.73539Z" fill="#754138"/>
<path d="M23.7089 68.8093H17.7817V74.5447H23.7089V68.8093Z" fill="#754138"/>
<path d="M23.7089 11.4707H17.7817V17.2061H23.7089V11.4707Z" fill="#754138"/>
<path d="M17.7822 63.0739H11.855V68.8092H17.7822V63.0739Z" fill="#754138"/>
<path d="M17.7822 17.2062H11.855V22.9416H17.7822V17.2062Z" fill="#754138"/>
<path d="M5.92721 57.3384V51.6031V45.8677V40.1323V34.3969V28.6615H11.8544V22.9415H5.92721H0V28.6615V34.3969V40.1323V45.8677V51.6031V57.3384V63.0738H5.92721H11.8544V57.3384H5.92721Z" fill="#754138"/>
<path d="M297.146 22.9415V28.6615H303.073V34.3969V40.1323V45.8677V51.6031V57.3384H297.146V63.0738H303.073H309V57.3384V51.6031V45.8677V40.1323V34.3969V28.6615V22.9415H303.073H297.146Z" fill="#754138"/>
<path d="M297.914 63.0739H291.987V68.8092H297.914V63.0739Z" fill="#754138"/>
<path d="M297.388 17.2062H291.46V22.9416H297.388V17.2062Z" fill="#754138"/>
<path d="M292.755 68.8093H286.828V74.5447H292.755V68.8093Z" fill="#754138"/>
<path d="M291.46 11.4707H285.533V17.2061H291.46V11.4707Z" fill="#754138"/>
<path d="M286.576 80.2801H280.649H189.623H183.696H177.769H171.857H165.93H160.003H154.076H148.148H142.221H136.294H130.367H124.44H118.512H112.601H106.674H100.747H94.8195H88.8923H82.9651H77.0379H71.1107H65.1835H59.2563H53.345H47.4178H41.4906H35.5634H29.6362V74.5447H23.709V80.2801V86H29.6362H35.5634H41.4906H47.4178H53.345H59.2563H65.1835H71.1107H77.0379H82.9651H88.8923H94.8195H100.747H106.674H112.601H118.512H124.44H130.367H136.294H142.221H148.148H154.076H160.003H165.93H171.857H177.769H183.696H189.623H280.649H286.576H292.503V80.2801V74.5447H286.576V80.2801Z" fill="#754138"/>
</svg>
