<svg width="236" height="71" viewBox="0 0 236 71" fill="none" xmlns="http://www.w3.org/2000/svg">
<path d="M225.323 28.3974V33.1324V37.8674V42.6025V47.3375H230.533V42.6025V37.8674V33.1324V28.3974V23.6624H225.323V28.3974Z" fill="#0096C4"/>
<path d="M220.099 52.0724V56.8075H225.323V52.0724V47.3374H220.099V52.0724Z" fill="#0096C4"/>
<path d="M209.651 56.8076V61.5426H214.875H220.099V56.8076H214.875H209.651Z" fill="#0096C4"/>
<path d="M199.204 61.5426H193.98H188.757H183.533H178.309H173.099H167.875H162.652H157.428H152.204H146.98H141.757H136.533H131.309H126.085H120.875H115.652H110.428H105.204H99.9803H94.7565H89.5327H84.3089H79.0851H73.8614H68.6516H63.4278H58.204H52.9803H47.7565H42.5327H37.3089H32.0851H26.8613V66.2649H32.0851H37.3089H42.5327H47.7565H52.9803H58.204H63.4278H68.6516H73.8614H79.0851H84.3089H89.5327H94.7565H99.9803H105.204H110.428H115.652H120.875H126.085H131.309H136.533H141.757H146.98H152.204H157.428H162.652H167.875H173.099H178.309H183.533H188.757H193.98H199.204H204.428H209.652V61.5426H204.428H199.204Z" fill="#0096C4"/>
<path d="M32.0851 14.205H26.8613V18.9273H32.0851V14.205Z" fill="white"/>
<path d="M26.861 18.9274H21.6372V23.6624H26.861V18.9274Z" fill="white"/>
<path d="M214.875 14.205H209.651H204.427H199.204H193.98H188.756H183.532H178.308H173.099H167.875H162.651H157.427H152.204H146.98H141.756H136.532H131.308H126.085H120.875H115.651H110.427H105.204H99.9797H94.756H89.5322H84.3084H79.0846H73.8608H68.6511H63.4273H58.2035H52.9797H47.7559H42.5321H37.3083V18.9273H32.0846V23.6623H26.8608V28.3973H21.637V33.1323V37.8674H16.4272V42.6024V47.3374V52.0724V56.8075H21.637H26.8608H32.0846H37.3083H42.5321H47.7559H52.9797H58.2035H63.4273H68.6511H73.8608H79.0846H84.3084H89.5322H94.756H99.9797H105.204H110.427H115.651H120.875H126.085H131.308H136.532H141.756H146.98H152.204H157.427H162.651H167.875H173.099H178.308H183.532H188.756H193.98H199.204H204.427V52.0724H209.651V47.3374H214.875V42.6024H220.099V37.8674V33.1323V28.3973V23.6623V18.9273H214.875V14.205Z" fill="#1DCFFF"/>
<path d="M21.637 23.6624H16.4272V28.3974H21.637V23.6624Z" fill="white"/>
<path d="M220.099 9.46997H214.875V14.205V18.9273H220.099V23.6623V28.3973V33.1324V37.8674V42.6024H214.875V47.3374H209.651V52.0725H204.427V56.8075H199.204H193.98H188.756H183.532H178.308H173.099H167.875H162.651H157.427H152.204H146.98H141.756H136.532H131.308H126.085H120.875H115.651H110.427H105.204H99.9797H94.756H89.5322H84.3084H79.0846H73.8608H68.6511H63.4273H58.2035H52.9797H47.7559H42.5321H37.3083H32.0846H26.8608H21.637H16.4272V61.5425H21.637H26.8608H32.0846H37.3083H42.5321H47.7559H52.9797H58.2035H63.4273H68.6511H73.8608H79.0846H84.3084H89.5322H94.756H99.9797H105.204H110.427H115.651H120.875H126.085H131.308H136.532H141.756H146.98H152.204H157.427H162.651H167.875H173.099H178.308H183.532H188.756H193.98H199.204H204.427H209.651V56.8075H214.875H220.099V52.0725V47.3374H225.323V42.6024V37.8674V33.1324V28.3973V23.6623V18.9273V14.205H220.099V9.46997Z" fill="#1BBDEC"/>
<path d="M16.4279 52.0724H11.2041V56.8074H16.4279V52.0724Z" fill="#1BBDEC"/>
<path d="M209.652 9.46997H204.428H199.204V14.205H204.428H209.652H214.875V9.46997H209.652Z" fill="#31D8FF"/>
<path d="M32.0851 18.9274H26.8613V23.6624H32.0851V18.9274Z" fill="#31D8FF"/>
<path d="M26.8613 9.46997V14.205H32.0851V18.9273H37.3089V14.205V9.46997H32.0851H26.8613Z" fill="#31D8FF"/>
<path d="M26.861 23.6624H21.6372V28.3974H26.861V23.6624Z" fill="#31D8FF"/>
<path d="M21.637 18.9273H26.8608V14.205H21.637H16.4272V18.9273V23.6623H21.637V18.9273Z" fill="#31D8FF"/>
<path d="M16.4279 23.6624H11.2041V28.3974V33.1324V37.8674V42.6025V47.3375V52.0725H16.4279V47.3375V42.6025V37.8674H21.6376V33.1324V28.3974H16.4279V23.6624Z" fill="#31D8FF"/>
<path d="M199.204 4.73499H193.98H188.757H183.533H178.309H173.099H167.875H162.652H157.428H152.204H146.98H141.757H136.533H131.309H126.085H120.875H115.652H110.428H105.204H99.9803H94.7565H89.5327H84.3089H79.0851H73.8614H68.6516H63.4278H58.204H52.9803H47.7565H42.5327H37.3089H32.0851H26.8613V9.47001H32.0851H37.3089H42.5327H47.7565H52.9803H58.204H63.4278H68.6516H73.8614H79.0851H84.3089H89.5327H94.7565H99.9803H105.204H110.428H115.652H120.875H126.085H131.309H136.533H141.757H146.98H152.204H157.428H162.652H167.875H173.099H178.309H183.533H188.757H193.98H199.204H204.428H209.652V4.73499H204.428H199.204Z" fill="#64E2FF"/>
<path d="M26.861 9.46997H21.6372V14.205H26.861V9.46997Z" fill="#64E2FF"/>
<path d="M16.4279 18.9274H11.2041V23.6624H16.4279V18.9274Z" fill="#64E2FF"/>
<path d="M5.97998 42.6025V47.3375H11.2038V42.6025V37.8674H5.97998V42.6025Z" fill="#64E2FF"/>
<path d="M188.756 9.46997H183.533H178.309H173.099H167.875H162.652H157.428H152.204H146.98H141.756H136.533H131.323H131.309H126.099V14.205H131.309H131.323H136.533H141.756H146.98H152.204H157.428H162.652H167.875H173.099H178.309H183.533H188.756H193.98H199.204V9.46997H193.98H188.756Z" fill="#9FF1FF"/>
<path d="M120.875 9.46997H115.665V14.205H120.875H120.889H126.085V9.46997H120.889H120.875Z" fill="#9FF1FF"/>
<path d="M110.428 9.46997H105.218H99.9941V14.205H105.218H110.428H110.442H115.651V9.46997H110.442H110.428Z" fill="#9FF1FF"/>
<path d="M94.7558 9.46997H89.5461H84.3223H79.0985H73.8747H68.665H63.4412H58.2174H52.9936H47.7698H42.5461H37.3223V14.205H42.5461H47.7698H52.9936H58.2174H63.4412H68.665H73.8747H79.0985H84.3223H89.5461H94.7558H94.7699H99.9796V9.46997H94.7699H94.7558Z" fill="#9FF1FF"/>
<path d="M21.637 9.46997H16.4272V14.205H21.637V9.46997Z" fill="#9FF1FF"/>
<path d="M16.4279 14.205H11.2041V18.9273H16.4279V14.205Z" fill="#9FF1FF"/>
<path d="M5.97998 28.3974V33.1324V37.8674H11.2038V33.1324V28.3974V23.6624H5.97998V28.3974Z" fill="#9FF1FF"/>
<path d="M230.532 28.3974V33.1324V37.8674V42.6025V47.3375H235.756V42.6025V37.8674V33.1324V28.3974V23.6624H230.532V28.3974Z" fill="black"/>
<path d="M225.322 52.0724V56.8075H230.532V52.0724V47.3374H225.322V52.0724Z" fill="black"/>
<path d="M225.322 23.6624H230.532V18.9274V14.2051H225.322V18.9274V23.6624Z" fill="black"/>
<path d="M225.323 56.8076H220.099V61.5426H225.323V56.8076Z" fill="black"/>
<path d="M225.323 9.46997H220.099V14.205H225.323V9.46997Z" fill="black"/>
<path d="M209.651 61.5426V66.2649H214.875H220.098V61.5426H214.875H209.651Z" fill="black"/>
<path d="M214.875 9.47001H220.098V4.73499H214.875H209.651V9.47001H214.875Z" fill="black"/>
<path d="M199.203 66.265H193.979H188.756H183.532H178.308H173.098H167.874H162.651H157.427H152.203H146.979H141.756H136.532H131.308H126.084H120.874H115.651H110.427H105.203H99.9793H94.7555H89.5317H84.308H79.0842H73.8604H68.6506H63.4269H58.2031H52.9793H47.7555H42.5317H37.3079H32.0841H26.8604V71H32.0841H37.3079H42.5317H47.7555H52.9793H58.2031H63.4269H68.6506H73.8604H79.0842H84.308H89.5317H94.7555H99.9793H105.203H110.427H115.651H120.874H126.084H131.308H136.532H141.756H146.979H152.203H157.427H162.651H167.874H173.098H178.308H183.532H188.756H193.979H199.203H204.427H209.651V66.265H204.427H199.203Z" fill="black"/>
<path d="M37.3079 4.73503H42.5317H47.7555H52.9793H58.2031H63.4269H68.6506H73.8604H79.0842H84.308H89.5317H94.7555H99.9793H105.203H110.427H115.651H120.874H126.084H131.308H136.532H141.756H146.979H152.203H157.427H162.651H167.874H173.098H178.308H183.532H188.756H193.979H199.203H204.427H209.651V0H204.427H199.203H193.979H188.756H183.532H178.308H173.098H167.874H162.651H157.427H152.203H146.979H141.756H136.532H131.308H126.084H120.874H115.651H110.427H105.203H99.9793H94.7555H89.5317H84.308H79.0842H73.8604H68.6506H63.4269H58.2031H52.9793H47.7555H42.5317H37.3079H32.0841H26.8604V4.73503H32.0841H37.3079Z" fill="black"/>
<path d="M21.637 61.5426H16.4272V66.2649H21.637H26.8608V61.5426H21.637Z" fill="black"/>
<path d="M26.8608 9.47001V4.73499H21.637H16.4272V9.47001H21.637H26.8608Z" fill="black"/>
<path d="M16.4269 56.8076H11.2031V61.5426H16.4269V56.8076Z" fill="black"/>
<path d="M16.4269 9.46997H11.2031V14.205H16.4269V9.46997Z" fill="black"/>
<path d="M11.2038 47.3374H5.97998V52.0724V56.8075H11.2038V52.0724V47.3374Z" fill="black"/>
<path d="M11.2038 18.9274V14.2051H5.97998V18.9274V23.6624H11.2038V18.9274Z" fill="black"/>
<path d="M5.97965 37.8674V33.1324V28.3974V23.6624H0.755859V28.3974V33.1324V37.8674V42.6025V47.3375H5.97965V42.6025V37.8674Z" fill="black"/>
<path d="M57.2559 48V25.5H75.2559V30H79.7559V34.5H75.2559V39H66.2559V48H57.2559ZM66.2559 34.5H70.5759V30H66.2559V34.5ZM88.7559 48V25.5H97.7559V43.5H106.756V48H88.7559ZM115.756 48V30H120.256V25.5H133.756V30H138.256V48H129.256V39H124.756V48H115.756ZM124.756 34.5H129.256V30.18H124.756V34.5ZM156.256 48V34.5H151.756V30H147.256V25.5H156.256V30H165.256V25.5H174.256V30H169.756V34.5H165.256V48H156.256Z" fill="#1E0505"/>
</svg>
