<svg width="79" height="82" viewBox="0 0 79 82" fill="none" xmlns="http://www.w3.org/2000/svg">
<rect x="0.340088" y="0.84103" width="77.9899" height="80.161" rx="5.34406" fill="#293241"/>
<path d="M63.6305 56.3825H61.4194V58.5936H63.6305V56.3825Z" fill="#26A69A"/>
<path d="M61.4194 56.3825H59.2083V58.5936H61.4194V56.3825Z" fill="#26A69A"/>
<path d="M61.4194 54.1714H59.2083V56.3825H61.4194V54.1714Z" fill="#26A69A"/>
<path d="M61.4194 47.5447H59.2083V49.7558H61.4194V47.5447Z" fill="#BCAAA4"/>
<path d="M61.4194 45.3336H59.2083V47.5447H61.4194V45.3336Z" fill="#BCAAA4"/>
<path d="M61.4194 43.1292H59.2083V45.3403H61.4194V43.1292Z" fill="#BCAAA4"/>
<path d="M59.2083 56.3825H56.9972V58.5936H59.2083V56.3825Z" fill="#26A69A"/>
<path d="M59.2083 51.9603H56.9972V54.1714H59.2083V51.9603Z" fill="#26A69A"/>
<path d="M59.2083 49.7558H56.9972V51.9669H59.2083V49.7558Z" fill="#BCAAA4"/>
<path d="M59.2083 47.5447H56.9972V49.7558H59.2083V47.5447Z" fill="#BCAAA4"/>
<path d="M59.2083 45.3336H56.9972V47.5447H59.2083V45.3336Z" fill="#BCAAA4"/>
<path d="M59.2083 43.1292H56.9972V45.3403H59.2083V43.1292Z" fill="#8D807B"/>
<path d="M59.2083 40.9181H56.9972V43.1292H59.2083V40.9181Z" fill="#BCAAA4"/>
<path d="M57.0038 56.3825H54.7927V58.5936H57.0038V56.3825Z" fill="#26A69A"/>
<path d="M57.0038 49.7558H54.7927V51.9669H57.0038V49.7558Z" fill="#26A69A"/>
<path d="M57.0038 47.5447H54.7927V49.7558H57.0038V47.5447Z" fill="#8D807B"/>
<path d="M57.0038 45.3336H54.7927V47.5447H57.0038V45.3336Z" fill="#8D807B"/>
<path d="M57.0038 43.1292H54.7927V45.3403H57.0038V43.1292Z" fill="#8D807B"/>
<path d="M57.0038 40.9181H54.7927V43.1292H57.0038V40.9181Z" fill="#BCAAA4"/>
<path d="M57.0038 38.7136H54.7927V40.9247H57.0038V38.7136Z" fill="#29353B"/>
<path d="M57.0038 36.5026H54.7927V38.7137H57.0038V36.5026Z" fill="#29353B"/>
<path d="M57.0038 34.2981H54.7927V36.5092H57.0038V34.2981Z" fill="#37474F"/>
<path d="M57.0038 32.0871H54.7927V34.2982H57.0038V32.0871Z" fill="#37474F"/>
<path d="M57.0038 29.8759H54.7927V32.087H57.0038V29.8759Z" fill="#37474F"/>
<path d="M57.0038 27.6714H54.7927V29.8826H57.0038V27.6714Z" fill="#29353B"/>
<path d="M57.0038 25.4604H54.7927V27.6715H57.0038V25.4604Z" fill="#37474F"/>
<path d="M54.7926 56.3825H52.5815V58.5936H54.7926V56.3825Z" fill="#BCAAA4"/>
<path d="M54.7926 54.1714H52.5815V56.3825H54.7926V54.1714Z" fill="#BCAAA4"/>
<path d="M54.7926 51.9603H52.5815V54.1714H54.7926V51.9603Z" fill="#BCAAA4"/>
<path d="M54.7926 49.7558H52.5815V51.9669H54.7926V49.7558Z" fill="#BCAAA4"/>
<path d="M54.7926 47.5447H52.5815V49.7558H54.7926V47.5447Z" fill="#BCAAA4"/>
<path d="M54.7926 45.3336H52.5815V47.5447H54.7926V45.3336Z" fill="#BCAAA4"/>
<path d="M54.7926 43.1292H52.5815V45.3403H54.7926V43.1292Z" fill="#BCAAA4"/>
<path d="M54.7926 40.9181H52.5815V43.1292H54.7926V40.9181Z" fill="#BCAAA4"/>
<path d="M54.7926 38.7136H52.5815V40.9247H54.7926V38.7136Z" fill="#8D807B"/>
<path d="M54.7926 36.5026H52.5815V38.7137H54.7926V36.5026Z" fill="#37474F"/>
<path d="M54.7926 34.2981H52.5815V36.5092H54.7926V34.2981Z" fill="#29353B"/>
<path d="M54.7926 32.0871H52.5815V34.2982H54.7926V32.0871Z" fill="#37474F"/>
<path d="M54.7926 29.8759H52.5815V32.087H54.7926V29.8759Z" fill="#37474F"/>
<path d="M54.7926 27.6714H52.5815V29.8826H54.7926V27.6714Z" fill="#29353B"/>
<path d="M54.7926 25.4604H52.5815V27.6715H54.7926V25.4604Z" fill="#37474F"/>
<path d="M54.7926 23.2559H52.5815V25.467H54.7926V23.2559Z" fill="#37474F"/>
<path d="M52.5883 58.5869H50.3772V60.798H52.5883V58.5869Z" fill="#BCAAA4"/>
<path d="M52.5883 56.3825H50.3772V58.5936H52.5883V56.3825Z" fill="#BCAAA4"/>
<path d="M52.5883 54.1714H50.3772V56.3825H52.5883V54.1714Z" fill="#BCAAA4"/>
<path d="M52.5883 51.9603H50.3772V54.1714H52.5883V51.9603Z" fill="#BCAAA4"/>
<path d="M52.5883 49.7558H50.3772V51.9669H52.5883V49.7558Z" fill="#BCAAA4"/>
<path d="M52.5883 47.5447H50.3772V49.7558H52.5883V47.5447Z" fill="#BCAAA4"/>
<path d="M52.5883 45.3336H50.3772V47.5447H52.5883V45.3336Z" fill="#BCAAA4"/>
<path d="M52.5883 43.1292H50.3772V45.3403H52.5883V43.1292Z" fill="#BCAAA4"/>
<path d="M52.5883 40.9181H50.3772V43.1292H52.5883V40.9181Z" fill="#263238"/>
<path d="M52.5883 38.7136H50.3772V40.9247H52.5883V38.7136Z" fill="#8D807B"/>
<path d="M52.5883 36.5026H50.3772V38.7137H52.5883V36.5026Z" fill="#37474F"/>
<path d="M52.5883 34.2981H50.3772V36.5092H52.5883V34.2981Z" fill="#37474F"/>
<path d="M52.5883 32.0871H50.3772V34.2982H52.5883V32.0871Z" fill="#29353B"/>
<path d="M52.5883 29.8759H50.3772V32.087H52.5883V29.8759Z" fill="#37474F"/>
<path d="M52.5883 27.6714H50.3772V29.8826H52.5883V27.6714Z" fill="#37474F"/>
<path d="M52.5883 25.4604H50.3772V27.6715H52.5883V25.4604Z" fill="#29353B"/>
<path d="M52.5883 23.2559H50.3772V25.467H52.5883V23.2559Z" fill="#37474F"/>
<path d="M52.5883 21.0449H50.3772V23.256H52.5883V21.0449Z" fill="#37474F"/>
<path d="M50.3771 60.798H48.166V63.0091H50.3771V60.798Z" fill="#BCAAA4"/>
<path d="M50.3771 58.5869H48.166V60.798H50.3771V58.5869Z" fill="#BCAAA4"/>
<path d="M50.3771 56.3825H48.166V58.5936H50.3771V56.3825Z" fill="#BCAAA4"/>
<path d="M50.3771 54.1714H48.166V56.3825H50.3771V54.1714Z" fill="#BCAAA4"/>
<path d="M50.3771 51.9603H48.166V54.1714H50.3771V51.9603Z" fill="#BCAAA4"/>
<path d="M50.3771 49.7558H48.166V51.9669H50.3771V49.7558Z" fill="#BCAAA4"/>
<path d="M50.3771 47.5447H48.166V49.7558H50.3771V47.5447Z" fill="#8D807B"/>
<path d="M50.3771 45.3336H48.166V47.5447H50.3771V45.3336Z" fill="white"/>
<path d="M50.3771 43.1292H48.166V45.3403H50.3771V43.1292Z" fill="white"/>
<path d="M50.3771 40.9181H48.166V43.1292H50.3771V40.9181Z" fill="white"/>
<path d="M50.3771 38.7136H48.166V40.9247H50.3771V38.7136Z" fill="#263238"/>
<path d="M50.3771 36.5026H48.166V38.7137H50.3771V36.5026Z" fill="#37474F"/>
<path d="M50.3771 34.2981H48.166V36.5092H50.3771V34.2981Z" fill="#37474F"/>
<path d="M50.3771 32.0871H48.166V34.2982H50.3771V32.0871Z" fill="#37474F"/>
<path d="M50.3771 29.8759H48.166V32.087H50.3771V29.8759Z" fill="#29353B"/>
<path d="M50.3771 27.6714H48.166V29.8826H50.3771V27.6714Z" fill="#37474F"/>
<path d="M50.3771 25.4604H48.166V27.6715H50.3771V25.4604Z" fill="#37474F"/>
<path d="M50.3771 23.2559H48.166V25.467H50.3771V23.2559Z" fill="#29353B"/>
<path d="M50.3771 21.0449H48.166V23.256H50.3771V21.0449Z" fill="#37474F"/>
<path d="M50.3771 18.8337H48.166V21.0448H50.3771V18.8337Z" fill="#37474F"/>
<path d="M48.1661 69.6291H45.955V71.8402H48.1661V69.6291Z" fill="#BCAAA4"/>
<path d="M48.1661 60.798H45.955V63.0091H48.1661V60.798Z" fill="#BCAAA4"/>
<path d="M48.1661 58.5869H45.955V60.798H48.1661V58.5869Z" fill="#BCAAA4"/>
<path d="M48.1661 56.3825H45.955V58.5936H48.1661V56.3825Z" fill="#BCAAA4"/>
<path d="M48.1661 54.1714H45.955V56.3825H48.1661V54.1714Z" fill="#BCAAA4"/>
<path d="M48.1661 51.9603H45.955V54.1714H48.1661V51.9603Z" fill="#E91E63"/>
<path d="M48.1661 49.7558H45.955V51.9669H48.1661V49.7558Z" fill="#BCAAA4"/>
<path d="M48.1661 47.5447H45.955V49.7558H48.1661V47.5447Z" fill="#8D807B"/>
<path d="M48.1661 45.3336H45.955V47.5447H48.1661V45.3336Z" fill="white"/>
<path d="M48.1661 43.1292H45.955V45.3403H48.1661V43.1292Z" fill="#263238"/>
<path d="M48.1661 40.9181H45.955V43.1292H48.1661V40.9181Z" fill="#263238"/>
<path d="M48.1661 38.7136H45.955V40.9247H48.1661V38.7136Z" fill="#263238"/>
<path d="M48.1661 36.5026H45.955V38.7137H48.1661V36.5026Z" fill="#8D807B"/>
<path d="M48.1661 34.2981H45.955V36.5092H48.1661V34.2981Z" fill="#37474F"/>
<path d="M48.1661 32.0871H45.955V34.2982H48.1661V32.0871Z" fill="#37474F"/>
<path d="M48.1661 29.8759H45.955V32.087H48.1661V29.8759Z" fill="#37474F"/>
<path d="M48.1661 27.6714H45.955V29.8826H48.1661V27.6714Z" fill="#29353B"/>
<path d="M48.1661 25.4604H45.955V27.6715H48.1661V25.4604Z" fill="#37474F"/>
<path d="M48.1661 23.2559H45.955V25.467H48.1661V23.2559Z" fill="#37474F"/>
<path d="M48.1661 21.0449H45.955V23.256H48.1661V21.0449Z" fill="#29353B"/>
<path d="M48.1661 18.8337H45.955V21.0448H48.1661V18.8337Z" fill="#37474F"/>
<path d="M45.9616 69.6291H43.7505V71.8402H45.9616V69.6291Z" fill="#BCAAA4"/>
<path d="M45.9616 67.4179H43.7505V69.629H45.9616V67.4179Z" fill="#BCAAA4"/>
<path d="M45.9616 65.2135H43.7505V67.4247H45.9616V65.2135Z" fill="#BCAAA4"/>
<path d="M45.9616 63.0024H43.7505V65.2135H45.9616V63.0024Z" fill="#8D807B"/>
<path d="M45.9616 60.798H43.7505V63.0091H45.9616V60.798Z" fill="#BCAAA4"/>
<path d="M45.9616 58.5869H43.7505V60.798H45.9616V58.5869Z" fill="#BCAAA4"/>
<path d="M45.9616 56.3825H43.7505V58.5936H45.9616V56.3825Z" fill="#BCAAA4"/>
<path d="M45.9616 54.1714H43.7505V56.3825H45.9616V54.1714Z" fill="#E91E63"/>
<path d="M45.9616 51.9603H43.7505V54.1714H45.9616V51.9603Z" fill="#BCAAA4"/>
<path d="M45.9616 49.7558H43.7505V51.9669H45.9616V49.7558Z" fill="#BCAAA4"/>
<path d="M45.9616 47.5447H43.7505V49.7558H45.9616V47.5447Z" fill="#8D807B"/>
<path d="M45.9616 45.3336H43.7505V47.5447H45.9616V45.3336Z" fill="white"/>
<path d="M45.9616 43.1292H43.7505V45.3403H45.9616V43.1292Z" fill="white"/>
<path d="M45.9616 40.9181H43.7505V43.1292H45.9616V40.9181Z" fill="white"/>
<path d="M45.9616 38.7136H43.7505V40.9247H45.9616V38.7136Z" fill="#263238"/>
<path d="M45.9616 36.5026H43.7505V38.7137H45.9616V36.5026Z" fill="#BCAAA4"/>
<path d="M45.9616 34.2981H43.7505V36.5092H45.9616V34.2981Z" fill="#8D807B"/>
<path d="M45.9616 32.0871H43.7505V34.2982H45.9616V32.0871Z" fill="#37474F"/>
<path d="M45.9616 29.8759H43.7505V32.087H45.9616V29.8759Z" fill="#37474F"/>
<path d="M45.9616 27.6714H43.7505V29.8826H45.9616V27.6714Z" fill="#37474F"/>
<path d="M45.9616 25.4604H43.7505V27.6715H45.9616V25.4604Z" fill="#29353B"/>
<path d="M45.9616 23.2559H43.7505V25.467H45.9616V23.2559Z" fill="#37474F"/>
<path d="M45.9616 21.0449H43.7505V23.256H45.9616V21.0449Z" fill="#37474F"/>
<path d="M45.9616 18.8337H43.7505V21.0448H45.9616V18.8337Z" fill="#29353B"/>
<path d="M45.9616 16.6293H43.7505V18.8404H45.9616V16.6293Z" fill="#26A69A"/>
<path d="M45.9616 14.4182H43.7505V16.6293H45.9616V14.4182Z" fill="#37474F"/>
<path d="M43.7505 69.6291H41.5394V71.8402H43.7505V69.6291Z" fill="#BCAAA4"/>
<path d="M43.7505 67.4179H41.5394V69.629H43.7505V67.4179Z" fill="#BCAAA4"/>
<path d="M43.7505 65.2135H41.5394V67.4247H43.7505V65.2135Z" fill="#8D807B"/>
<path d="M43.7505 63.0024H41.5394V65.2135H43.7505V63.0024Z" fill="#8D807B"/>
<path d="M43.7505 60.798H41.5394V63.0091H43.7505V60.798Z" fill="#BCAAA4"/>
<path d="M43.7505 58.5869H41.5394V60.798H43.7505V58.5869Z" fill="#BCAAA4"/>
<path d="M43.7505 56.3825H41.5394V58.5936H43.7505V56.3825Z" fill="#ED4B82"/>
<path d="M43.7505 54.1714H41.5394V56.3825H43.7505V54.1714Z" fill="#E91E63"/>
<path d="M43.7505 51.9603H41.5394V54.1714H43.7505V51.9603Z" fill="#BCAAA4"/>
<path d="M43.7505 49.7558H41.5394V51.9669H43.7505V49.7558Z" fill="#6D4C41"/>
<path d="M43.7505 47.5447H41.5394V49.7558H43.7505V47.5447Z" fill="#BCAAA4"/>
<path d="M43.7505 45.3336H41.5394V47.5447H43.7505V45.3336Z" fill="#BCAAA4"/>
<path d="M43.7505 43.1292H41.5394V45.3403H43.7505V43.1292Z" fill="#BCAAA4"/>
<path d="M43.7505 40.9181H41.5394V43.1292H43.7505V40.9181Z" fill="#BCAAA4"/>
<path d="M43.7505 38.7136H41.5394V40.9247H43.7505V38.7136Z" fill="#BCAAA4"/>
<path d="M43.7505 36.5026H41.5394V38.7137H43.7505V36.5026Z" fill="#BCAAA4"/>
<path d="M43.7505 34.2981H41.5394V36.5092H43.7505V34.2981Z" fill="#BCAAA4"/>
<path d="M43.7505 32.0871H41.5394V34.2982H43.7505V32.0871Z" fill="#8D807B"/>
<path d="M43.7505 29.8759H41.5394V32.087H43.7505V29.8759Z" fill="#37474F"/>
<path d="M43.7505 27.6714H41.5394V29.8826H43.7505V27.6714Z" fill="#37474F"/>
<path d="M43.7505 25.4604H41.5394V27.6715H43.7505V25.4604Z" fill="#37474F"/>
<path d="M43.7505 23.2559H41.5394V25.467H43.7505V23.2559Z" fill="#29353B"/>
<path d="M43.7505 21.0449H41.5394V23.256H43.7505V21.0449Z" fill="#29353B"/>
<path d="M43.7505 18.8337H41.5394V21.0448H43.7505V18.8337Z" fill="#29353B"/>
<path d="M43.7505 16.6293H41.5394V18.8404H43.7505V16.6293Z" fill="#26A69A"/>
<path d="M43.7505 14.4182H41.5394V16.6293H43.7505V14.4182Z" fill="#37474F"/>
<path d="M43.7505 12.2071H41.5394V14.4182H43.7505V12.2071Z" fill="#29353B"/>
<path d="M41.5461 69.6291H39.335V71.8402H41.5461V69.6291Z" fill="#BCAAA4"/>
<path d="M41.5461 67.4179H39.335V69.629H41.5461V67.4179Z" fill="#8D807B"/>
<path d="M41.5461 65.2135H39.335V67.4247H41.5461V65.2135Z" fill="#8D807B"/>
<path d="M41.5461 63.0024H39.335V65.2135H41.5461V63.0024Z" fill="#8D807B"/>
<path d="M41.5461 60.798H39.335V63.0091H41.5461V60.798Z" fill="#BCAAA4"/>
<path d="M41.5461 58.5869H39.335V60.798H41.5461V58.5869Z" fill="#BCAAA4"/>
<path d="M41.5461 56.3825H39.335V58.5936H41.5461V56.3825Z" fill="#ED4B82"/>
<path d="M41.5461 54.1714H39.335V56.3825H41.5461V54.1714Z" fill="#E91E63"/>
<path d="M41.5461 51.9603H39.335V54.1714H41.5461V51.9603Z" fill="#BCAAA4"/>
<path d="M41.5461 49.7558H39.335V51.9669H41.5461V49.7558Z" fill="#6D4C41"/>
<path d="M41.5461 47.5447H39.335V49.7558H41.5461V47.5447Z" fill="#6D4C41"/>
<path d="M41.5461 45.3336H39.335V47.5447H41.5461V45.3336Z" fill="#6D4C41"/>
<path d="M41.5461 43.1292H39.335V45.3403H41.5461V43.1292Z" fill="#BCAAA4"/>
<path d="M41.5461 40.9181H39.335V43.1292H41.5461V40.9181Z" fill="#BCAAA4"/>
<path d="M41.5461 38.7136H39.335V40.9247H41.5461V38.7136Z" fill="#BCAAA4"/>
<path d="M41.5461 36.5026H39.335V38.7137H41.5461V36.5026Z" fill="#E91E63"/>
<path d="M41.5461 34.2981H39.335V36.5092H41.5461V34.2981Z" fill="#BCAAA4"/>
<path d="M41.5461 32.0871H39.335V34.2982H41.5461V32.0871Z" fill="#BCAAA4"/>
<path d="M41.5461 29.8759H39.335V32.087H41.5461V29.8759Z" fill="#8D807B"/>
<path d="M41.5461 27.6714H39.335V29.8826H41.5461V27.6714Z" fill="#37474F"/>
<path d="M41.5461 25.4604H39.335V27.6715H41.5461V25.4604Z" fill="#37474F"/>
<path d="M41.5461 23.2559H39.335V25.467H41.5461V23.2559Z" fill="#37474F"/>
<path d="M41.5461 21.0449H39.335V23.256H41.5461V21.0449Z" fill="#37474F"/>
<path d="M41.5461 18.8337H39.335V21.0448H41.5461V18.8337Z" fill="#29353B"/>
<path d="M41.5461 16.6293H39.335V18.8404H41.5461V16.6293Z" fill="#26A69A"/>
<path d="M41.5461 14.4182H39.335V16.6293H41.5461V14.4182Z" fill="#29353B"/>
<path d="M41.5461 12.2071H39.335V14.4182H41.5461V12.2071Z" fill="#37474F"/>
<path d="M41.5461 10.0027H39.335V12.2138H41.5461V10.0027Z" fill="#37474F"/>
<path d="M39.335 69.6291H37.1239V71.8402H39.335V69.6291Z" fill="#BCAAA4"/>
<path d="M39.335 67.4179H37.1239V69.629H39.335V67.4179Z" fill="#8D807B"/>
<path d="M39.335 65.2135H37.1239V67.4247H39.335V65.2135Z" fill="#8D807B"/>
<path d="M39.335 63.0024H37.1239V65.2135H39.335V63.0024Z" fill="#8D807B"/>
<path d="M39.335 60.798H37.1239V63.0091H39.335V60.798Z" fill="#BCAAA4"/>
<path d="M39.335 58.5869H37.1239V60.798H39.335V58.5869Z" fill="#BCAAA4"/>
<path d="M39.335 56.3825H37.1239V58.5936H39.335V56.3825Z" fill="#ED4B82"/>
<path d="M39.335 54.1714H37.1239V56.3825H39.335V54.1714Z" fill="#E91E63"/>
<path d="M39.335 51.9603H37.1239V54.1714H39.335V51.9603Z" fill="#BCAAA4"/>
<path d="M39.335 49.7558H37.1239V51.9669H39.335V49.7558Z" fill="#6D4C41"/>
<path d="M39.335 47.5447H37.1239V49.7558H39.335V47.5447Z" fill="#6D4C41"/>
<path d="M39.335 45.3336H37.1239V47.5447H39.335V45.3336Z" fill="#6D4C41"/>
<path d="M39.335 43.1292H37.1239V45.3403H39.335V43.1292Z" fill="#BCAAA4"/>
<path d="M39.335 40.9181H37.1239V43.1292H39.335V40.9181Z" fill="#BCAAA4"/>
<path d="M39.335 38.7136H37.1239V40.9247H39.335V38.7136Z" fill="#BCAAA4"/>
<path d="M39.335 36.5026H37.1239V38.7137H39.335V36.5026Z" fill="#E91E63"/>
<path d="M39.335 34.2981H37.1239V36.5092H39.335V34.2981Z" fill="#BCAAA4"/>
<path d="M39.335 32.0871H37.1239V34.2982H39.335V32.0871Z" fill="#BCAAA4"/>
<path d="M39.335 29.8759H37.1239V32.087H39.335V29.8759Z" fill="#8D807B"/>
<path d="M39.335 27.6714H37.1239V29.8826H39.335V27.6714Z" fill="#37474F"/>
<path d="M39.335 25.4604H37.1239V27.6715H39.335V25.4604Z" fill="#37474F"/>
<path d="M39.335 23.2559H37.1239V25.467H39.335V23.2559Z" fill="#37474F"/>
<path d="M39.335 21.0449H37.1239V23.256H39.335V21.0449Z" fill="#37474F"/>
<path d="M39.335 18.8337H37.1239V21.0448H39.335V18.8337Z" fill="#29353B"/>
<path d="M39.335 16.6293H37.1239V18.8404H39.335V16.6293Z" fill="#26A69A"/>
<path d="M39.335 14.4182H37.1239V16.6293H39.335V14.4182Z" fill="#29353B"/>
<path d="M39.335 12.2071H37.1239V14.4182H39.335V12.2071Z" fill="#37474F"/>
<path d="M39.335 10.0027H37.1239V12.2138H39.335V10.0027Z" fill="#37474F"/>
<path d="M37.1239 69.6291H34.9128V71.8402H37.1239V69.6291Z" fill="#BCAAA4"/>
<path d="M37.1239 67.4179H34.9128V69.629H37.1239V67.4179Z" fill="#BCAAA4"/>
<path d="M37.1239 65.2135H34.9128V67.4247H37.1239V65.2135Z" fill="#8D807B"/>
<path d="M37.1239 63.0024H34.9128V65.2135H37.1239V63.0024Z" fill="#8D807B"/>
<path d="M37.1239 60.798H34.9128V63.0091H37.1239V60.798Z" fill="#BCAAA4"/>
<path d="M37.1239 58.5869H34.9128V60.798H37.1239V58.5869Z" fill="#BCAAA4"/>
<path d="M37.1239 56.3825H34.9128V58.5936H37.1239V56.3825Z" fill="#ED4B82"/>
<path d="M37.1239 54.1714H34.9128V56.3825H37.1239V54.1714Z" fill="#E91E63"/>
<path d="M37.1239 51.9603H34.9128V54.1714H37.1239V51.9603Z" fill="#BCAAA4"/>
<path d="M37.1239 49.7558H34.9128V51.9669H37.1239V49.7558Z" fill="#6D4C41"/>
<path d="M37.1239 47.5447H34.9128V49.7558H37.1239V47.5447Z" fill="#BCAAA4"/>
<path d="M37.1239 45.3336H34.9128V47.5447H37.1239V45.3336Z" fill="#BCAAA4"/>
<path d="M37.1239 43.1292H34.9128V45.3403H37.1239V43.1292Z" fill="#BCAAA4"/>
<path d="M37.1239 40.9181H34.9128V43.1292H37.1239V40.9181Z" fill="#BCAAA4"/>
<path d="M37.1239 38.7136H34.9128V40.9247H37.1239V38.7136Z" fill="#BCAAA4"/>
<path d="M37.1239 36.5026H34.9128V38.7137H37.1239V36.5026Z" fill="#BCAAA4"/>
<path d="M37.1239 34.2981H34.9128V36.5092H37.1239V34.2981Z" fill="#BCAAA4"/>
<path d="M37.1239 32.0871H34.9128V34.2982H37.1239V32.0871Z" fill="#8D807B"/>
<path d="M37.1239 29.8759H34.9128V32.087H37.1239V29.8759Z" fill="#37474F"/>
<path d="M37.1239 27.6714H34.9128V29.8826H37.1239V27.6714Z" fill="#37474F"/>
<path d="M37.1239 25.4604H34.9128V27.6715H37.1239V25.4604Z" fill="#37474F"/>
<path d="M37.1239 23.2559H34.9128V25.467H37.1239V23.2559Z" fill="#29353B"/>
<path d="M37.1239 21.0449H34.9128V23.256H37.1239V21.0449Z" fill="#29353B"/>
<path d="M37.1239 18.8337H34.9128V21.0448H37.1239V18.8337Z" fill="#29353B"/>
<path d="M37.1239 16.6293H34.9128V18.8404H37.1239V16.6293Z" fill="#26A69A"/>
<path d="M37.1239 14.4182H34.9128V16.6293H37.1239V14.4182Z" fill="#37474F"/>
<path d="M37.1239 12.2071H34.9128V14.4182H37.1239V12.2071Z" fill="#29353B"/>
<path d="M34.9195 69.6291H32.7084V71.8402H34.9195V69.6291Z" fill="#BCAAA4"/>
<path d="M34.9195 67.4179H32.7084V69.629H34.9195V67.4179Z" fill="#BCAAA4"/>
<path d="M34.9195 65.2135H32.7084V67.4247H34.9195V65.2135Z" fill="#BCAAA4"/>
<path d="M34.9195 63.0024H32.7084V65.2135H34.9195V63.0024Z" fill="#8D807B"/>
<path d="M34.9195 60.798H32.7084V63.0091H34.9195V60.798Z" fill="#BCAAA4"/>
<path d="M34.9195 58.5869H32.7084V60.798H34.9195V58.5869Z" fill="#BCAAA4"/>
<path d="M34.9195 56.3825H32.7084V58.5936H34.9195V56.3825Z" fill="#BCAAA4"/>
<path d="M34.9195 54.1714H32.7084V56.3825H34.9195V54.1714Z" fill="#E91E63"/>
<path d="M34.9195 51.9603H32.7084V54.1714H34.9195V51.9603Z" fill="#BCAAA4"/>
<path d="M34.9195 49.7558H32.7084V51.9669H34.9195V49.7558Z" fill="#BCAAA4"/>
<path d="M34.9195 47.5447H32.7084V49.7558H34.9195V47.5447Z" fill="#8D807B"/>
<path d="M34.9195 45.3336H32.7084V47.5447H34.9195V45.3336Z" fill="white"/>
<path d="M34.9195 43.1292H32.7084V45.3403H34.9195V43.1292Z" fill="white"/>
<path d="M34.9195 40.9181H32.7084V43.1292H34.9195V40.9181Z" fill="white"/>
<path d="M34.9195 38.7136H32.7084V40.9247H34.9195V38.7136Z" fill="#263238"/>
<path d="M34.9195 36.5026H32.7084V38.7137H34.9195V36.5026Z" fill="#BCAAA4"/>
<path d="M34.9195 34.2981H32.7084V36.5092H34.9195V34.2981Z" fill="#8D807B"/>
<path d="M34.9195 32.0871H32.7084V34.2982H34.9195V32.0871Z" fill="#37474F"/>
<path d="M34.9195 29.8759H32.7084V32.087H34.9195V29.8759Z" fill="#37474F"/>
<path d="M34.9195 27.6714H32.7084V29.8826H34.9195V27.6714Z" fill="#37474F"/>
<path d="M34.9195 25.4604H32.7084V27.6715H34.9195V25.4604Z" fill="#29353B"/>
<path d="M34.9195 23.2559H32.7084V25.467H34.9195V23.2559Z" fill="#37474F"/>
<path d="M34.9195 21.0449H32.7084V23.256H34.9195V21.0449Z" fill="#37474F"/>
<path d="M34.9195 18.8337H32.7084V21.0448H34.9195V18.8337Z" fill="#29353B"/>
<path d="M34.9195 16.6293H32.7084V18.8404H34.9195V16.6293Z" fill="#26A69A"/>
<path d="M34.9195 14.4182H32.7084V16.6293H34.9195V14.4182Z" fill="#37474F"/>
<path d="M32.7084 69.6291H30.4973V71.8402H32.7084V69.6291Z" fill="#BCAAA4"/>
<path d="M32.7084 60.798H30.4973V63.0091H32.7084V60.798Z" fill="#BCAAA4"/>
<path d="M32.7084 58.5869H30.4973V60.798H32.7084V58.5869Z" fill="#BCAAA4"/>
<path d="M32.7084 56.3825H30.4973V58.5936H32.7084V56.3825Z" fill="#BCAAA4"/>
<path d="M32.7084 54.1714H30.4973V56.3825H32.7084V54.1714Z" fill="#BCAAA4"/>
<path d="M32.7084 51.9603H30.4973V54.1714H32.7084V51.9603Z" fill="#E91E63"/>
<path d="M32.7084 49.7558H30.4973V51.9669H32.7084V49.7558Z" fill="#BCAAA4"/>
<path d="M32.7084 47.5447H30.4973V49.7558H32.7084V47.5447Z" fill="#8D807B"/>
<path d="M32.7084 45.3336H30.4973V47.5447H32.7084V45.3336Z" fill="white"/>
<path d="M32.7084 43.1292H30.4973V45.3403H32.7084V43.1292Z" fill="#263238"/>
<path d="M32.7084 40.9181H30.4973V43.1292H32.7084V40.9181Z" fill="#263238"/>
<path d="M32.7084 38.7136H30.4973V40.9247H32.7084V38.7136Z" fill="#263238"/>
<path d="M32.7084 36.5026H30.4973V38.7137H32.7084V36.5026Z" fill="#8D807B"/>
<path d="M32.7084 34.2981H30.4973V36.5092H32.7084V34.2981Z" fill="#37474F"/>
<path d="M32.7084 32.0871H30.4973V34.2982H32.7084V32.0871Z" fill="#37474F"/>
<path d="M32.7084 29.8759H30.4973V32.087H32.7084V29.8759Z" fill="#37474F"/>
<path d="M32.7084 27.6714H30.4973V29.8826H32.7084V27.6714Z" fill="#29353B"/>
<path d="M32.7084 25.4604H30.4973V27.6715H32.7084V25.4604Z" fill="#37474F"/>
<path d="M32.7084 23.2559H30.4973V25.467H32.7084V23.2559Z" fill="#37474F"/>
<path d="M32.7084 21.0449H30.4973V23.256H32.7084V21.0449Z" fill="#29353B"/>
<path d="M32.7084 18.8337H30.4973V21.0448H32.7084V18.8337Z" fill="#37474F"/>
<path d="M30.504 60.798H28.2928V63.0091H30.504V60.798Z" fill="#BCAAA4"/>
<path d="M30.504 58.5869H28.2928V60.798H30.504V58.5869Z" fill="#BCAAA4"/>
<path d="M30.504 56.3825H28.2928V58.5936H30.504V56.3825Z" fill="#BCAAA4"/>
<path d="M30.504 54.1714H28.2928V56.3825H30.504V54.1714Z" fill="#BCAAA4"/>
<path d="M30.504 51.9603H28.2928V54.1714H30.504V51.9603Z" fill="#BCAAA4"/>
<path d="M30.504 49.7558H28.2928V51.9669H30.504V49.7558Z" fill="#BCAAA4"/>
<path d="M30.504 47.5447H28.2928V49.7558H30.504V47.5447Z" fill="#8D807B"/>
<path d="M30.504 45.3336H28.2928V47.5447H30.504V45.3336Z" fill="white"/>
<path d="M30.504 43.1292H28.2928V45.3403H30.504V43.1292Z" fill="white"/>
<path d="M30.504 40.9181H28.2928V43.1292H30.504V40.9181Z" fill="white"/>
<path d="M30.504 38.7136H28.2928V40.9247H30.504V38.7136Z" fill="#263238"/>
<path d="M30.504 36.5026H28.2928V38.7137H30.504V36.5026Z" fill="#37474F"/>
<path d="M30.504 34.2981H28.2928V36.5092H30.504V34.2981Z" fill="#37474F"/>
<path d="M30.504 32.0871H28.2928V34.2982H30.504V32.0871Z" fill="#37474F"/>
<path d="M30.504 29.8759H28.2928V32.087H30.504V29.8759Z" fill="#29353B"/>
<path d="M30.504 27.6714H28.2928V29.8826H30.504V27.6714Z" fill="#37474F"/>
<path d="M30.504 25.4604H28.2928V27.6715H30.504V25.4604Z" fill="#37474F"/>
<path d="M30.504 23.2559H28.2928V25.467H30.504V23.2559Z" fill="#29353B"/>
<path d="M30.504 21.0449H28.2928V23.256H30.504V21.0449Z" fill="#37474F"/>
<path d="M30.504 18.8337H28.2928V21.0448H30.504V18.8337Z" fill="#37474F"/>
<path d="M28.2929 58.5869H26.0818V60.798H28.2929V58.5869Z" fill="#BCAAA4"/>
<path d="M28.2929 56.3825H26.0818V58.5936H28.2929V56.3825Z" fill="#BCAAA4"/>
<path d="M28.2929 54.1714H26.0818V56.3825H28.2929V54.1714Z" fill="#BCAAA4"/>
<path d="M28.2929 51.9603H26.0818V54.1714H28.2929V51.9603Z" fill="#BCAAA4"/>
<path d="M28.2929 49.7558H26.0818V51.9669H28.2929V49.7558Z" fill="#BCAAA4"/>
<path d="M28.2929 47.5447H26.0818V49.7558H28.2929V47.5447Z" fill="#BCAAA4"/>
<path d="M28.2929 45.3336H26.0818V47.5447H28.2929V45.3336Z" fill="#BCAAA4"/>
<path d="M28.2929 43.1292H26.0818V45.3403H28.2929V43.1292Z" fill="#BCAAA4"/>
<path d="M28.2929 40.9181H26.0818V43.1292H28.2929V40.9181Z" fill="#263238"/>
<path d="M28.2929 38.7136H26.0818V40.9247H28.2929V38.7136Z" fill="#8D807B"/>
<path d="M28.2929 36.5026H26.0818V38.7137H28.2929V36.5026Z" fill="#37474F"/>
<path d="M28.2929 34.2981H26.0818V36.5092H28.2929V34.2981Z" fill="#37474F"/>
<path d="M28.2929 32.0871H26.0818V34.2982H28.2929V32.0871Z" fill="#29353B"/>
<path d="M28.2929 29.8759H26.0818V32.087H28.2929V29.8759Z" fill="#37474F"/>
<path d="M28.2929 27.6714H26.0818V29.8826H28.2929V27.6714Z" fill="#37474F"/>
<path d="M28.2929 25.4604H26.0818V27.6715H28.2929V25.4604Z" fill="#29353B"/>
<path d="M28.2929 23.2559H26.0818V25.467H28.2929V23.2559Z" fill="#37474F"/>
<path d="M28.2929 21.0449H26.0818V23.256H28.2929V21.0449Z" fill="#37474F"/>
<path d="M26.0884 56.3825H23.8773V58.5936H26.0884V56.3825Z" fill="#BCAAA4"/>
<path d="M26.0884 54.1714H23.8773V56.3825H26.0884V54.1714Z" fill="#BCAAA4"/>
<path d="M26.0884 51.9603H23.8773V54.1714H26.0884V51.9603Z" fill="#BCAAA4"/>
<path d="M26.0884 49.7558H23.8773V51.9669H26.0884V49.7558Z" fill="#BCAAA4"/>
<path d="M26.0884 47.5447H23.8773V49.7558H26.0884V47.5447Z" fill="#BCAAA4"/>
<path d="M26.0884 45.3336H23.8773V47.5447H26.0884V45.3336Z" fill="#BCAAA4"/>
<path d="M26.0884 43.1292H23.8773V45.3403H26.0884V43.1292Z" fill="#BCAAA4"/>
<path d="M26.0884 40.9181H23.8773V43.1292H26.0884V40.9181Z" fill="#BCAAA4"/>
<path d="M26.0884 38.7136H23.8773V40.9247H26.0884V38.7136Z" fill="#8D807B"/>
<path d="M26.0884 36.5026H23.8773V38.7137H26.0884V36.5026Z" fill="#37474F"/>
<path d="M26.0884 34.2981H23.8773V36.5092H26.0884V34.2981Z" fill="#29353B"/>
<path d="M26.0884 32.0871H23.8773V34.2982H26.0884V32.0871Z" fill="#37474F"/>
<path d="M26.0884 29.8759H23.8773V32.087H26.0884V29.8759Z" fill="#37474F"/>
<path d="M26.0884 27.6714H23.8773V29.8826H26.0884V27.6714Z" fill="#29353B"/>
<path d="M26.0884 25.4604H23.8773V27.6715H26.0884V25.4604Z" fill="#37474F"/>
<path d="M26.0884 23.2559H23.8773V25.467H26.0884V23.2559Z" fill="#37474F"/>
<path d="M23.8774 56.3825H21.6663V58.5936H23.8774V56.3825Z" fill="#26A69A"/>
<path d="M23.8774 49.7558H21.6663V51.9669H23.8774V49.7558Z" fill="#26A69A"/>
<path d="M23.8774 47.5447H21.6663V49.7558H23.8774V47.5447Z" fill="#8D807B"/>
<path d="M23.8774 45.3336H21.6663V47.5447H23.8774V45.3336Z" fill="#8D807B"/>
<path d="M23.8774 43.1292H21.6663V45.3403H23.8774V43.1292Z" fill="#8D807B"/>
<path d="M23.8774 40.9181H21.6663V43.1292H23.8774V40.9181Z" fill="#BCAAA4"/>
<path d="M23.8774 38.7136H21.6663V40.9247H23.8774V38.7136Z" fill="#29353B"/>
<path d="M23.8774 36.5026H21.6663V38.7137H23.8774V36.5026Z" fill="#29353B"/>
<path d="M23.8774 34.2981H21.6663V36.5092H23.8774V34.2981Z" fill="#37474F"/>
<path d="M23.8774 32.0871H21.6663V34.2982H23.8774V32.0871Z" fill="#37474F"/>
<path d="M23.8774 29.8759H21.6663V32.087H23.8774V29.8759Z" fill="#37474F"/>
<path d="M23.8774 27.6714H21.6663V29.8826H23.8774V27.6714Z" fill="#29353B"/>
<path d="M23.8774 25.4604H21.6663V27.6715H23.8774V25.4604Z" fill="#37474F"/>
<path d="M21.6662 56.3825H19.4551V58.5936H21.6662V56.3825Z" fill="#26A69A"/>
<path d="M21.6662 51.9603H19.4551V54.1714H21.6662V51.9603Z" fill="#26A69A"/>
<path d="M21.6662 49.7558H19.4551V51.9669H21.6662V49.7558Z" fill="#BCAAA4"/>
<path d="M21.6662 47.5447H19.4551V49.7558H21.6662V47.5447Z" fill="#BCAAA4"/>
<path d="M21.6662 45.3336H19.4551V47.5447H21.6662V45.3336Z" fill="#BCAAA4"/>
<path d="M21.6662 43.1292H19.4551V45.3403H21.6662V43.1292Z" fill="#8D807B"/>
<path d="M21.6662 40.9181H19.4551V43.1292H21.6662V40.9181Z" fill="#BCAAA4"/>
<path d="M19.4617 56.3825H17.2506V58.5936H19.4617V56.3825Z" fill="#26A69A"/>
<path d="M19.4617 54.1714H17.2506V56.3825H19.4617V54.1714Z" fill="#26A69A"/>
<path d="M19.4617 47.5447H17.2506V49.7558H19.4617V47.5447Z" fill="#BCAAA4"/>
<path d="M19.4617 45.3336H17.2506V47.5447H19.4617V45.3336Z" fill="#BCAAA4"/>
<path d="M19.4617 43.1292H17.2506V45.3403H19.4617V43.1292Z" fill="#BCAAA4"/>
<path d="M17.2507 56.3825H15.0396V58.5936H17.2507V56.3825Z" fill="#26A69A"/>
</svg>
