<svg width="78" height="81" viewBox="0 0 78 81" fill="none" xmlns="http://www.w3.org/2000/svg">
<rect y="0.523132" width="77.9899" height="80.161" rx="5.34406" fill="#DDF3C3"/>
<path d="M29.6964 14.5513H25.9725V18.2753H29.6964V14.5513Z" fill="#6B9332"/>
<path d="M33.4128 14.5513H29.6888V18.2753H33.4128V14.5513Z" fill="#6B9332"/>
<path d="M37.1368 14.5513H33.4128V18.2753H37.1368V14.5513Z" fill="#6B9332"/>
<path d="M40.8606 14.5513H37.1367V18.2753H40.8606V14.5513Z" fill="#6B9332"/>
<path d="M44.5769 14.5513H40.853V18.2753H44.5769V14.5513Z" fill="#6B9332"/>
<path d="M25.9726 18.2752H22.2487V21.9991H25.9726V18.2752Z" fill="#6B9332"/>
<path d="M29.6964 18.2752H25.9725V21.9991H29.6964V18.2752Z" fill="#6B9332"/>
<path d="M33.4128 18.2752H29.6888V21.9991H33.4128V18.2752Z" fill="#6B9332"/>
<path d="M37.1368 18.2752H33.4128V21.9991H37.1368V18.2752Z" fill="#6B9332"/>
<path d="M40.8606 18.2752H37.1367V21.9991H40.8606V18.2752Z" fill="#6B9332"/>
<path d="M44.5769 18.2752H40.853V21.9991H44.5769V18.2752Z" fill="#6B9332"/>
<path d="M25.9726 21.9992H22.2487V25.7231H25.9726V21.9992Z" fill="#5A7330"/>
<path d="M29.6964 21.9992H25.9725V25.7231H29.6964V21.9992Z" fill="#5A7330"/>
<path d="M33.4128 21.9992H29.6888V25.7231H33.4128V21.9992Z" fill="#5A7330"/>
<path d="M37.1368 21.9992H33.4128V25.7231H37.1368V21.9992Z" fill="#5A7330"/>
<path d="M40.8606 21.9992H37.1367V25.7231H40.8606V21.9992Z" fill="#5A7330"/>
<path d="M44.5769 21.9992H40.853V25.7231H44.5769V21.9992Z" fill="#5A7330"/>
<path d="M25.9726 25.7155H22.2487V29.4394H25.9726V25.7155Z" fill="#5A7330"/>
<path d="M29.6964 25.7155H25.9725V29.4394H29.6964V25.7155Z" fill="#5A7330"/>
<path d="M33.4128 25.7155H29.6888V29.4394H33.4128V25.7155Z" fill="#5A7330"/>
<path d="M37.1368 25.7155H33.4128V29.4394H37.1368V25.7155Z" fill="#5A7330"/>
<path d="M40.8606 25.7155H37.1367V29.4394H40.8606V25.7155Z" fill="#5A7330"/>
<path d="M44.5769 25.7155H40.853V29.4394H44.5769V25.7155Z" fill="#5A7330"/>
<path d="M14.8084 29.4395H11.0845V33.1634H14.8084V29.4395Z" fill="#9FCC4A"/>
<path d="M18.5323 29.4395H14.8083V33.1634H18.5323V29.4395Z" fill="#9FCC4A"/>
<path d="M22.2486 29.4395H18.5247V33.1634H22.2486V29.4395Z" fill="#6B9332"/>
<path d="M25.9726 29.4395H22.2487V33.1634H25.9726V29.4395Z" fill="#9FCC4A"/>
<path d="M29.6964 29.4395H25.9725V33.1634H29.6964V29.4395Z" fill="#6B9332"/>
<path d="M33.4128 29.4395H29.6888V33.1634H33.4128V29.4395Z" fill="#6B9332"/>
<path d="M37.1368 29.4395H33.4128V33.1634H37.1368V29.4395Z" fill="#6B9332"/>
<path d="M40.8606 29.4395H37.1367V33.1634H40.8606V29.4395Z" fill="#6B9332"/>
<path d="M44.5769 29.4395H40.853V33.1634H44.5769V29.4395Z" fill="#6B9332"/>
<path d="M25.9726 33.1633H22.2487V36.8872H25.9726V33.1633Z" fill="#030406"/>
<path d="M29.6964 33.1633H25.9725V36.8872H29.6964V33.1633Z" fill="#030406"/>
<path d="M33.4128 33.1633H29.6888V36.8872H33.4128V33.1633Z" fill="#7B4D44"/>
<path d="M37.1368 33.1633H33.4128V36.8872H37.1368V33.1633Z" fill="#030406"/>
<path d="M40.8606 33.1633H37.1367V36.8872H40.8606V33.1633Z" fill="#030406"/>
<path d="M44.5769 33.1633H40.853V36.8872H44.5769V33.1633Z" fill="#7B4D44"/>
<path d="M25.9726 36.8798H22.2487V40.6037H25.9726V36.8798Z" fill="#030406"/>
<path d="M29.6964 36.8798H25.9725V40.6037H29.6964V36.8798Z" fill="#A86A5B"/>
<path d="M33.4128 36.8798H29.6888V40.6037H33.4128V36.8798Z" fill="#030406"/>
<path d="M37.1368 36.8798H33.4128V40.6037H37.1368V36.8798Z" fill="#A86A5B"/>
<path d="M40.8606 36.8798H37.1367V40.6037H40.8606V36.8798Z" fill="#A86A5B"/>
<path d="M44.5769 36.8798H40.853V40.6037H44.5769V36.8798Z" fill="#A86A5B"/>
<path d="M25.9726 40.6037H22.2487V44.3276H25.9726V40.6037Z" fill="#7B4D44"/>
<path d="M29.6964 40.6037H25.9725V44.3276H29.6964V40.6037Z" fill="#A86A5B"/>
<path d="M33.4128 40.6037H29.6888V44.3276H33.4128V40.6037Z" fill="#A86A5B"/>
<path d="M37.1368 40.6037H33.4128V44.3276H37.1368V40.6037Z" fill="#030406"/>
<path d="M40.8606 40.6037H37.1367V44.3276H40.8606V40.6037Z" fill="#7B4D44"/>
<path d="M44.5769 40.6037H40.853V44.3276H44.5769V40.6037Z" fill="#A86A5B"/>
<path d="M25.9726 44.3275H22.2487V48.0514H25.9726V44.3275Z" fill="#7B4D44"/>
<path d="M29.6964 44.3275H25.9725V48.0514H29.6964V44.3275Z" fill="#A86A5B"/>
<path d="M33.4128 44.3275H29.6888V48.0514H33.4128V44.3275Z" fill="#A86A5B"/>
<path d="M37.1368 44.3275H33.4128V48.0514H37.1368V44.3275Z" fill="#030406"/>
<path d="M40.8606 44.3275H37.1367V48.0514H40.8606V44.3275Z" fill="#7B4D44"/>
<path d="M44.5769 44.3275H40.853V48.0514H44.5769V44.3275Z" fill="#A86A5B"/>
<path d="M29.6964 48.044H25.9725V51.7679H29.6964V48.044Z" fill="#A86A5B"/>
<path d="M33.4128 48.044H29.6888V51.7679H33.4128V48.044Z" fill="#A86A5B"/>
<path d="M37.1368 48.044H33.4128V51.7679H37.1368V48.044Z" fill="#A86A5B"/>
<path d="M40.8606 48.044H37.1367V51.7679H40.8606V48.044Z" fill="#A86A5B"/>
<path d="M44.5769 48.044H40.853V51.7679H44.5769V48.044Z" fill="#A86A5B"/>
<path d="M29.6964 51.7678H25.9725V55.4917H29.6964V51.7678Z" fill="#A86A5B"/>
<path d="M33.4128 51.7678H29.6888V55.4917H33.4128V51.7678Z" fill="#A86A5B"/>
<path d="M37.1368 51.7678H33.4128V55.4917H37.1368V51.7678Z" fill="#A86A5B"/>
<path d="M40.8606 51.7678H37.1367V55.4917H40.8606V51.7678Z" fill="white"/>
<path d="M44.5769 51.7678H40.853V55.4917H44.5769V51.7678Z" fill="white"/>
<path d="M33.4128 55.4918H29.6888V59.2157H33.4128V55.4918Z" fill="#A86A5B"/>
<path d="M37.1368 55.4918H33.4128V59.2157H37.1368V55.4918Z" fill="#A86A5B"/>
<path d="M40.8606 55.4918H37.1367V59.2157H40.8606V55.4918Z" fill="#A86A5B"/>
<path d="M44.5769 55.4918H40.853V59.2157H44.5769V55.4918Z" fill="white"/>
<path d="M37.1368 59.2082H33.4128V62.9321H37.1368V59.2082Z" fill="#A86A5B"/>
<path d="M40.8606 59.2082H37.1367V62.9321H40.8606V59.2082Z" fill="#A86A5B"/>
<path d="M44.5769 59.2082H40.853V62.9321H44.5769V59.2082Z" fill="#A86A5B"/>
<path d="M40.8606 62.932H37.1367V66.6559H40.8606V62.932Z" fill="#7B4D44"/>
<path d="M44.5769 62.932H40.853V66.6559H44.5769V62.932Z" fill="#7B4D44"/>
<path d="M63.1891 14.5514H59.4652V18.2753H63.1891V14.5514Z" fill="#6B9332"/>
<path d="M59.4651 14.5514H55.7412V18.2753H59.4651V14.5514Z" fill="#6B9332"/>
<path d="M55.7412 14.5514H52.0173V18.2753H55.7412V14.5514Z" fill="#6B9332"/>
<path d="M52.0248 14.5514H48.3009V18.2753H52.0248V14.5514Z" fill="#6B9332"/>
<path d="M48.3009 14.5513H44.577V18.2753H48.3009V14.5513Z" fill="#6B9332"/>
<path d="M66.9054 18.2753H63.1815V21.9992H66.9054V18.2753Z" fill="#6B9332"/>
<path d="M63.1891 18.2753H59.4652V21.9992H63.1891V18.2753Z" fill="#6B9332"/>
<path d="M59.4651 18.2753H55.7412V21.9992H59.4651V18.2753Z" fill="#6B9332"/>
<path d="M55.7412 18.2753H52.0173V21.9992H55.7412V18.2753Z" fill="#6B9332"/>
<path d="M52.0248 18.2753H48.3009V21.9992H52.0248V18.2753Z" fill="#6B9332"/>
<path d="M48.3009 18.2753H44.577V21.9992H48.3009V18.2753Z" fill="#6B9332"/>
<path d="M66.9054 21.9992H63.1815V25.7231H66.9054V21.9992Z" fill="#5A7330"/>
<path d="M63.1891 21.9992H59.4652V25.7231H63.1891V21.9992Z" fill="#5A7330"/>
<path d="M59.4651 21.9992H55.7412V25.7231H59.4651V21.9992Z" fill="#5A7330"/>
<path d="M55.7412 21.9992H52.0173V25.7231H55.7412V21.9992Z" fill="#5A7330"/>
<path d="M52.0248 21.9992H48.3009V25.7231H52.0248V21.9992Z" fill="#5A7330"/>
<path d="M48.3009 21.9992H44.577V25.7231H48.3009V21.9992Z" fill="#5A7330"/>
<path d="M66.9054 25.7156H63.1815V29.4395H66.9054V25.7156Z" fill="#5A7330"/>
<path d="M63.1891 25.7156H59.4652V29.4395H63.1891V25.7156Z" fill="#5A7330"/>
<path d="M59.4651 25.7156H55.7412V29.4395H59.4651V25.7156Z" fill="#5A7330"/>
<path d="M55.7412 25.7156H52.0173V29.4395H55.7412V25.7156Z" fill="#5A7330"/>
<path d="M52.0248 25.7156H48.3009V29.4395H52.0248V25.7156Z" fill="#5A7330"/>
<path d="M48.3009 25.7156H44.577V29.4395H48.3009V25.7156Z" fill="#5A7330"/>
<path d="M66.9054 29.4395H63.1815V33.1634H66.9054V29.4395Z" fill="#6B9332"/>
<path d="M63.1891 29.4395H59.4652V33.1634H63.1891V29.4395Z" fill="#6B9332"/>
<path d="M59.4651 29.4395H55.7412V33.1634H59.4651V29.4395Z" fill="#6B9332"/>
<path d="M55.7412 29.4395H52.0173V33.1634H55.7412V29.4395Z" fill="#6B9332"/>
<path d="M52.0248 29.4395H48.3009V33.1634H52.0248V29.4395Z" fill="#6B9332"/>
<path d="M48.3009 29.4395H44.577V33.1634H48.3009V29.4395Z" fill="#6B9332"/>
<path d="M66.9054 33.1634H63.1815V36.8873H66.9054V33.1634Z" fill="#030406"/>
<path d="M63.1891 33.1634H59.4652V36.8873H63.1891V33.1634Z" fill="#030406"/>
<path d="M59.4651 33.1634H55.7412V36.8873H59.4651V33.1634Z" fill="#7B4D44"/>
<path d="M55.7412 33.1634H52.0173V36.8873H55.7412V33.1634Z" fill="#030406"/>
<path d="M52.0248 33.1634H48.3009V36.8873H52.0248V33.1634Z" fill="#030406"/>
<path d="M48.3009 33.1634H44.577V36.8873H48.3009V33.1634Z" fill="#7B4D44"/>
<path d="M66.9054 36.8798H63.1815V40.6037H66.9054V36.8798Z" fill="#030406"/>
<path d="M63.1891 36.8798H59.4652V40.6037H63.1891V36.8798Z" fill="#A86A5B"/>
<path d="M59.4651 36.8798H55.7412V40.6037H59.4651V36.8798Z" fill="#030406"/>
<path d="M55.7412 36.8798H52.0173V40.6037H55.7412V36.8798Z" fill="#A86A5B"/>
<path d="M52.0248 36.8798H48.3009V40.6037H52.0248V36.8798Z" fill="#A86A5B"/>
<path d="M48.3009 36.8798H44.577V40.6037H48.3009V36.8798Z" fill="#A86A5B"/>
<path d="M66.9054 40.6037H63.1815V44.3276H66.9054V40.6037Z" fill="#7B4D44"/>
<path d="M63.1891 40.6037H59.4652V44.3276H63.1891V40.6037Z" fill="#A86A5B"/>
<path d="M59.4651 40.6037H55.7412V44.3276H59.4651V40.6037Z" fill="#A86A5B"/>
<path d="M55.7412 40.6037H52.0173V44.3276H55.7412V40.6037Z" fill="#030406"/>
<path d="M52.0248 40.6037H48.3009V44.3276H52.0248V40.6037Z" fill="#7B4D44"/>
<path d="M48.3009 40.6037H44.577V44.3276H48.3009V40.6037Z" fill="#A86A5B"/>
<path d="M66.9054 44.3276H63.1815V48.0515H66.9054V44.3276Z" fill="#7B4D44"/>
<path d="M66.9054 48.0289H63.1815V51.7528H66.9054V48.0289Z" fill="#FAEC00"/>
<path d="M63.1891 44.3276H59.4652V48.0515H63.1891V44.3276Z" fill="#A86A5B"/>
<path d="M59.4651 44.3276H55.7412V48.0515H59.4651V44.3276Z" fill="#A86A5B"/>
<path d="M55.7412 44.3276H52.0173V48.0515H55.7412V44.3276Z" fill="#030406"/>
<path d="M52.0248 44.3276H48.3009V48.0515H52.0248V44.3276Z" fill="#7B4D44"/>
<path d="M48.3009 44.3276H44.577V48.0515H48.3009V44.3276Z" fill="#A86A5B"/>
<path d="M63.1891 48.044H59.4652V51.7679H63.1891V48.044Z" fill="#A86A5B"/>
<path d="M59.4651 48.044H55.7412V51.7679H59.4651V48.044Z" fill="#A86A5B"/>
<path d="M55.7412 48.044H52.0173V51.7679H55.7412V48.044Z" fill="#A86A5B"/>
<path d="M52.0248 48.044H48.3009V51.7679H52.0248V48.044Z" fill="#A86A5B"/>
<path d="M48.3009 48.044H44.577V51.7679H48.3009V48.044Z" fill="#A86A5B"/>
<path d="M63.1891 51.7679H59.4652V55.4918H63.1891V51.7679Z" fill="#A86A5B"/>
<path d="M59.4651 51.7679H55.7412V55.4918H59.4651V51.7679Z" fill="#A86A5B"/>
<path d="M55.7412 51.7679H52.0173V55.4918H55.7412V51.7679Z" fill="#A86A5B"/>
<path d="M52.0248 51.7679H48.3009V55.4918H52.0248V51.7679Z" fill="white"/>
<path d="M48.3009 51.7679H44.577V55.4918H48.3009V51.7679Z" fill="white"/>
<path d="M59.4651 55.4918H55.7412V59.2157H59.4651V55.4918Z" fill="#A86A5B"/>
<path d="M55.7412 55.4918H52.0173V59.2157H55.7412V55.4918Z" fill="#A86A5B"/>
<path d="M52.0248 55.4918H48.3009V59.2157H52.0248V55.4918Z" fill="#A86A5B"/>
<path d="M48.3009 55.4918H44.577V59.2157H48.3009V55.4918Z" fill="white"/>
<path d="M55.7412 59.2082H52.0173V62.9321H55.7412V59.2082Z" fill="#A86A5B"/>
<path d="M52.0248 59.2082H48.3009V62.9321H52.0248V59.2082Z" fill="#A86A5B"/>
<path d="M48.3009 59.2082H44.577V62.9321H48.3009V59.2082Z" fill="#A86A5B"/>
<path d="M52.0248 62.9321H48.3009V66.656H52.0248V62.9321Z" fill="#7B4D44"/>
<path d="M48.3009 62.9321H44.577V66.656H48.3009V62.9321Z" fill="#7B4D44"/>
</svg>
