<svg width="79" height="81" viewBox="0 0 79 81" fill="none" xmlns="http://www.w3.org/2000/svg">
<rect x="0.340088" width="77.9899" height="80.161" rx="5.34406" fill="#4E5462"/>
<path d="M61.4194 52.2282H59.2083V54.4393H61.4194V52.2282Z" fill="white"/>
<path d="M61.4194 50.0171H59.2083V52.2282H61.4194V50.0171Z" fill="white"/>
<path d="M61.4194 47.8127H59.2083V50.0238H61.4194V47.8127Z" fill="white"/>
<path d="M61.4194 45.6016H59.2083V47.8127H61.4194V45.6016Z" fill="white"/>
<path d="M61.4194 43.3905H59.2083V45.6016H61.4194V43.3905Z" fill="white"/>
<path d="M61.4194 41.186H59.2083V43.3971H61.4194V41.186Z" fill="white"/>
<path d="M61.4194 38.975H59.2083V41.1861H61.4194V38.975Z" fill="white"/>
<path d="M61.4194 36.7705H59.2083V38.9816H61.4194V36.7705Z" fill="white"/>
<path d="M61.4194 34.5595H59.2083V36.7706H61.4194V34.5595Z" fill="white"/>
<path d="M61.4194 32.355H59.2083V34.5661H61.4194V32.355Z" fill="white"/>
<path d="M61.4194 30.1438H59.2083V32.355H61.4194V30.1438Z" fill="white"/>
<path d="M61.4194 27.9328H59.2083V30.1439H61.4194V27.9328Z" fill="white"/>
<path d="M61.4194 25.7283H59.2083V27.9394H61.4194V25.7283Z" fill="white"/>
<path d="M59.2149 54.4393H57.0038V56.6504H59.2149V54.4393Z" fill="white"/>
<path d="M59.2149 52.2282H57.0038V54.4393H59.2149V52.2282Z" fill="#ECEFF1"/>
<path d="M59.2149 50.0171H57.0038V52.2282H59.2149V50.0171Z" fill="#ECEFF1"/>
<path d="M59.2149 47.8127H57.0038V50.0238H59.2149V47.8127Z" fill="#ECEFF1"/>
<path d="M59.2149 45.6016H57.0038V47.8127H59.2149V45.6016Z" fill="white"/>
<path d="M59.2149 43.3905H57.0038V45.6016H59.2149V43.3905Z" fill="white"/>
<path d="M59.2149 41.186H57.0038V43.3971H59.2149V41.186Z" fill="white"/>
<path d="M59.2149 38.975H57.0038V41.1861H59.2149V38.975Z" fill="white"/>
<path d="M59.2149 36.7705H57.0038V38.9816H59.2149V36.7705Z" fill="white"/>
<path d="M59.2149 34.5595H57.0038V36.7706H59.2149V34.5595Z" fill="white"/>
<path d="M59.2149 32.355H57.0038V34.5661H59.2149V32.355Z" fill="white"/>
<path d="M59.2149 30.1438H57.0038V32.355H59.2149V30.1438Z" fill="white"/>
<path d="M59.2149 27.9328H57.0038V30.1439H59.2149V27.9328Z" fill="white"/>
<path d="M59.2149 25.7283H57.0038V27.9394H59.2149V25.7283Z" fill="white"/>
<path d="M59.2149 23.5173H57.0038V25.7284H59.2149V23.5173Z" fill="white"/>
<path d="M57.0037 56.6438H54.7926V58.8549H57.0037V56.6438Z" fill="white"/>
<path d="M57.0037 54.4393H54.7926V56.6504H57.0037V54.4393Z" fill="#ECEFF1"/>
<path d="M57.0037 52.2282H54.7926V54.4393H57.0037V52.2282Z" fill="white"/>
<path d="M57.0037 50.0171H54.7926V52.2282H57.0037V50.0171Z" fill="white"/>
<path d="M57.0037 47.8127H54.7926V50.0238H57.0037V47.8127Z" fill="white"/>
<path d="M57.0037 45.6016H54.7926V47.8127H57.0037V45.6016Z" fill="white"/>
<path d="M57.0037 43.3905H54.7926V45.6016H57.0037V43.3905Z" fill="white"/>
<path d="M57.0037 41.186H54.7926V43.3971H57.0037V41.186Z" fill="white"/>
<path d="M57.0037 38.975H54.7926V41.1861H57.0037V38.975Z" fill="white"/>
<path d="M57.0037 36.7705H54.7926V38.9816H57.0037V36.7705Z" fill="white"/>
<path d="M57.0037 34.5595H54.7926V36.7706H57.0037V34.5595Z" fill="white"/>
<path d="M57.0037 32.355H54.7926V34.5661H57.0037V32.355Z" fill="white"/>
<path d="M57.0037 30.1438H54.7926V32.355H57.0037V30.1438Z" fill="white"/>
<path d="M57.0037 27.9328H54.7926V30.1439H57.0037V27.9328Z" fill="white"/>
<path d="M57.0037 25.7283H54.7926V27.9394H57.0037V25.7283Z" fill="white"/>
<path d="M57.0037 23.5173H54.7926V25.7284H57.0037V23.5173Z" fill="white"/>
<path d="M57.0037 21.3128H54.7926V23.5239H57.0037V21.3128Z" fill="white"/>
<path d="M54.7994 58.8549H52.5883V61.066H54.7994V58.8549Z" fill="white"/>
<path d="M54.7994 56.6438H52.5883V58.8549H54.7994V56.6438Z" fill="white"/>
<path d="M54.7994 54.4393H52.5883V56.6504H54.7994V54.4393Z" fill="#ECEFF1"/>
<path d="M54.7994 52.2282H52.5883V54.4393H54.7994V52.2282Z" fill="#ECEFF1"/>
<path d="M54.7994 50.0171H52.5883V52.2282H54.7994V50.0171Z" fill="#BCAAA4"/>
<path d="M54.7994 47.8127H52.5883V50.0238H54.7994V47.8127Z" fill="#BCAAA4"/>
<path d="M54.7994 45.6016H52.5883V47.8127H54.7994V45.6016Z" fill="#BCAAA4"/>
<path d="M54.7994 43.3905H52.5883V45.6016H54.7994V43.3905Z" fill="#BCAAA4"/>
<path d="M54.7994 41.186H52.5883V43.3971H54.7994V41.186Z" fill="#BCAAA4"/>
<path d="M54.7994 38.975H52.5883V41.1861H54.7994V38.975Z" fill="#BCAAA4"/>
<path d="M54.7994 36.7705H52.5883V38.9816H54.7994V36.7705Z" fill="#BCAAA4"/>
<path d="M54.7994 34.5595H52.5883V36.7706H54.7994V34.5595Z" fill="#BCAAA4"/>
<path d="M54.7994 32.355H52.5883V34.5661H54.7994V32.355Z" fill="#BCAAA4"/>
<path d="M54.7994 30.1438H52.5883V32.355H54.7994V30.1438Z" fill="#8D807B"/>
<path d="M54.7994 27.9328H52.5883V30.1439H54.7994V27.9328Z" fill="#ECEFF1"/>
<path d="M54.7994 25.7283H52.5883V27.9394H54.7994V25.7283Z" fill="#ECEFF1"/>
<path d="M54.7994 23.5173H52.5883V25.7284H54.7994V23.5173Z" fill="white"/>
<path d="M54.7994 21.3128H52.5883V23.5239H54.7994V21.3128Z" fill="white"/>
<path d="M54.7994 19.1017H52.5883V21.3128H54.7994V19.1017Z" fill="#ECEFF1"/>
<path d="M52.5882 61.0593H50.3771V63.2704H52.5882V61.0593Z" fill="white"/>
<path d="M52.5882 58.8549H50.3771V61.066H52.5882V58.8549Z" fill="white"/>
<path d="M52.5882 56.6438H50.3771V58.8549H52.5882V56.6438Z" fill="white"/>
<path d="M52.5882 54.4393H50.3771V56.6504H52.5882V54.4393Z" fill="#ECEFF1"/>
<path d="M52.5882 52.2282H50.3771V54.4393H52.5882V52.2282Z" fill="#BCAAA4"/>
<path d="M52.5882 50.0171H50.3771V52.2282H52.5882V50.0171Z" fill="#BCAAA4"/>
<path d="M52.5882 47.8127H50.3771V50.0238H52.5882V47.8127Z" fill="#BCAAA4"/>
<path d="M52.5882 45.6016H50.3771V47.8127H52.5882V45.6016Z" fill="#BCAAA4"/>
<path d="M52.5882 43.3905H50.3771V45.6016H52.5882V43.3905Z" fill="#BCAAA4"/>
<path d="M52.5882 41.186H50.3771V43.3971H52.5882V41.186Z" fill="#BCAAA4"/>
<path d="M52.5882 38.975H50.3771V41.1861H52.5882V38.975Z" fill="#BCAAA4"/>
<path d="M52.5882 36.7705H50.3771V38.9816H52.5882V36.7705Z" fill="#BCAAA4"/>
<path d="M52.5882 34.5595H50.3771V36.7706H52.5882V34.5595Z" fill="#BCAAA4"/>
<path d="M52.5882 32.355H50.3771V34.5661H52.5882V32.355Z" fill="#BCAAA4"/>
<path d="M52.5882 30.1438H50.3771V32.355H52.5882V30.1438Z" fill="#BCAAA4"/>
<path d="M52.5882 27.9328H50.3771V30.1439H52.5882V27.9328Z" fill="#8D807B"/>
<path d="M52.5882 25.7283H50.3771V27.9394H52.5882V25.7283Z" fill="#ECEFF1"/>
<path d="M52.5882 23.5173H50.3771V25.7284H52.5882V23.5173Z" fill="#ECEFF1"/>
<path d="M52.5882 21.3128H50.3771V23.5239H52.5882V21.3128Z" fill="white"/>
<path d="M52.5882 19.1017H50.3771V21.3128H52.5882V19.1017Z" fill="#ECEFF1"/>
<path d="M52.5882 16.8906H50.3771V19.1017H52.5882V16.8906Z" fill="#263238"/>
<path d="M50.3771 63.2704H48.166V65.4815H50.3771V63.2704Z" fill="white"/>
<path d="M50.3771 61.0593H48.166V63.2704H50.3771V61.0593Z" fill="white"/>
<path d="M50.3771 58.8549H48.166V61.066H50.3771V58.8549Z" fill="white"/>
<path d="M50.3771 56.6438H48.166V58.8549H50.3771V56.6438Z" fill="white"/>
<path d="M50.3771 54.4393H48.166V56.6504H50.3771V54.4393Z" fill="#ECEFF1"/>
<path d="M50.3771 52.2282H48.166V54.4393H50.3771V52.2282Z" fill="#BCAAA4"/>
<path d="M50.3771 50.0171H48.166V52.2282H50.3771V50.0171Z" fill="#BCAAA4"/>
<path d="M50.3771 47.8127H48.166V50.0238H50.3771V47.8127Z" fill="#BCAAA4"/>
<path d="M50.3771 45.6016H48.166V47.8127H50.3771V45.6016Z" fill="#BCAAA4"/>
<path d="M50.3771 43.3905H48.166V45.6016H50.3771V43.3905Z" fill="#8D807B"/>
<path d="M50.3771 41.186H48.166V43.3971H50.3771V41.186Z" fill="#BCAAA4"/>
<path d="M50.3771 38.975H48.166V41.1861H50.3771V38.975Z" fill="white"/>
<path d="M50.3771 36.7705H48.166V38.9816H50.3771V36.7705Z" fill="white"/>
<path d="M50.3771 34.5595H48.166V36.7706H50.3771V34.5595Z" fill="white"/>
<path d="M50.3771 32.355H48.166V34.5661H50.3771V32.355Z" fill="#BCAAA4"/>
<path d="M50.3771 30.1438H48.166V32.355H50.3771V30.1438Z" fill="#263238"/>
<path d="M50.3771 27.9328H48.166V30.1439H50.3771V27.9328Z" fill="#8D807B"/>
<path d="M50.3771 25.7283H48.166V27.9394H50.3771V25.7283Z" fill="#ECEFF1"/>
<path d="M50.3771 23.5173H48.166V25.7284H50.3771V23.5173Z" fill="#ECEFF1"/>
<path d="M50.3771 21.3128H48.166V23.5239H50.3771V21.3128Z" fill="white"/>
<path d="M50.3771 19.1017H48.166V21.3128H50.3771V19.1017Z" fill="#ECEFF1"/>
<path d="M50.3771 16.8906H48.166V19.1017H50.3771V16.8906Z" fill="#263238"/>
<path d="M50.3771 14.6862H48.166V16.8973H50.3771V14.6862Z" fill="#515B60"/>
<path d="M48.1727 65.4748H45.9615V67.6859H48.1727V65.4748Z" fill="white"/>
<path d="M48.1727 63.2704H45.9615V65.4815H48.1727V63.2704Z" fill="white"/>
<path d="M48.1727 61.0593H45.9615V63.2704H48.1727V61.0593Z" fill="white"/>
<path d="M48.1727 58.8549H45.9615V61.066H48.1727V58.8549Z" fill="white"/>
<path d="M48.1727 56.6438H45.9615V58.8549H48.1727V56.6438Z" fill="white"/>
<path d="M48.1727 54.4393H45.9615V56.6504H48.1727V54.4393Z" fill="#ECEFF1"/>
<path d="M48.1727 52.2282H45.9615V54.4393H48.1727V52.2282Z" fill="#BCAAA4"/>
<path d="M48.1727 50.0171H45.9615V52.2282H48.1727V50.0171Z" fill="#BCAAA4"/>
<path d="M48.1727 47.8127H45.9615V50.0238H48.1727V47.8127Z" fill="#263238"/>
<path d="M48.1727 45.6016H45.9615V47.8127H48.1727V45.6016Z" fill="#BCAAA4"/>
<path d="M48.1727 43.3905H45.9615V45.6016H48.1727V43.3905Z" fill="#8D807B"/>
<path d="M48.1727 41.186H45.9615V43.3971H48.1727V41.186Z" fill="#BCAAA4"/>
<path d="M48.1727 38.975H45.9615V41.1861H48.1727V38.975Z" fill="white"/>
<path d="M48.1727 36.7705H45.9615V38.9816H48.1727V36.7705Z" fill="#263238"/>
<path d="M48.1727 34.5595H45.9615V36.7706H48.1727V34.5595Z" fill="#263238"/>
<path d="M48.1727 32.355H45.9615V34.5661H48.1727V32.355Z" fill="#BCAAA4"/>
<path d="M48.1727 30.1438H45.9615V32.355H48.1727V30.1438Z" fill="#263238"/>
<path d="M48.1727 27.9328H45.9615V30.1439H48.1727V27.9328Z" fill="#8D807B"/>
<path d="M48.1727 25.7283H45.9615V27.9394H48.1727V25.7283Z" fill="#ECEFF1"/>
<path d="M48.1727 23.5173H45.9615V25.7284H48.1727V23.5173Z" fill="#ECEFF1"/>
<path d="M48.1727 21.3128H45.9615V23.5239H48.1727V21.3128Z" fill="white"/>
<path d="M48.1727 19.1017H45.9615V21.3128H48.1727V19.1017Z" fill="#ECEFF1"/>
<path d="M48.1727 16.8906H45.9615V19.1017H48.1727V16.8906Z" fill="#263238"/>
<path d="M48.1727 14.6862H45.9615V16.8973H48.1727V14.6862Z" fill="#515B60"/>
<path d="M48.1727 12.4751H45.9615V14.6862H48.1727V12.4751Z" fill="white"/>
<path d="M45.9616 65.4748H43.7505V67.6859H45.9616V65.4748Z" fill="white"/>
<path d="M45.9616 63.2704H43.7505V65.4815H45.9616V63.2704Z" fill="white"/>
<path d="M45.9616 61.0593H43.7505V63.2704H45.9616V61.0593Z" fill="white"/>
<path d="M45.9616 58.8549H43.7505V61.066H45.9616V58.8549Z" fill="white"/>
<path d="M45.9616 56.6438H43.7505V58.8549H45.9616V56.6438Z" fill="white"/>
<path d="M45.9616 54.4393H43.7505V56.6504H45.9616V54.4393Z" fill="#ECEFF1"/>
<path d="M45.9616 52.2282H43.7505V54.4393H45.9616V52.2282Z" fill="#BCAAA4"/>
<path d="M45.9616 50.0171H43.7505V52.2282H45.9616V50.0171Z" fill="#BCAAA4"/>
<path d="M45.9616 47.8127H43.7505V50.0238H45.9616V47.8127Z" fill="#263238"/>
<path d="M45.9616 45.6016H43.7505V47.8127H45.9616V45.6016Z" fill="#263238"/>
<path d="M45.9616 43.3905H43.7505V45.6016H45.9616V43.3905Z" fill="#BCAAA4"/>
<path d="M45.9616 41.186H43.7505V43.3971H45.9616V41.186Z" fill="#8D807B"/>
<path d="M45.9616 38.975H43.7505V41.1861H45.9616V38.975Z" fill="white"/>
<path d="M45.9616 36.7705H43.7505V38.9816H45.9616V36.7705Z" fill="white"/>
<path d="M45.9616 34.5595H43.7505V36.7706H45.9616V34.5595Z" fill="white"/>
<path d="M45.9616 32.355H43.7505V34.5661H45.9616V32.355Z" fill="#BCAAA4"/>
<path d="M45.9616 30.1438H43.7505V32.355H45.9616V30.1438Z" fill="#263238"/>
<path d="M45.9616 27.9328H43.7505V30.1439H45.9616V27.9328Z" fill="#263238"/>
<path d="M45.9616 25.7283H43.7505V27.9394H45.9616V25.7283Z" fill="#ECEFF1"/>
<path d="M45.9616 23.5173H43.7505V25.7284H45.9616V23.5173Z" fill="#ECEFF1"/>
<path d="M45.9616 21.3128H43.7505V23.5239H45.9616V21.3128Z" fill="white"/>
<path d="M45.9616 19.1017H43.7505V21.3128H45.9616V19.1017Z" fill="#ECEFF1"/>
<path d="M45.9616 16.8906H43.7505V19.1017H45.9616V16.8906Z" fill="#263238"/>
<path d="M45.9616 14.6862H43.7505V16.8973H45.9616V14.6862Z" fill="#515B60"/>
<path d="M45.9616 12.4751H43.7505V14.6862H45.9616V12.4751Z" fill="white"/>
<path d="M43.7571 65.4748H41.546V67.6859H43.7571V65.4748Z" fill="white"/>
<path d="M43.7571 63.2704H41.546V65.4815H43.7571V63.2704Z" fill="white"/>
<path d="M43.7571 61.0593H41.546V63.2704H43.7571V61.0593Z" fill="#ECEFF1"/>
<path d="M43.7571 58.8549H41.546V61.066H43.7571V58.8549Z" fill="white"/>
<path d="M43.7571 56.6438H41.546V58.8549H43.7571V56.6438Z" fill="white"/>
<path d="M43.7571 54.4393H41.546V56.6504H43.7571V54.4393Z" fill="#ECEFF1"/>
<path d="M43.7571 52.2282H41.546V54.4393H43.7571V52.2282Z" fill="#BCAAA4"/>
<path d="M43.7571 50.0171H41.546V52.2282H43.7571V50.0171Z" fill="#8D807B"/>
<path d="M43.7571 47.8127H41.546V50.0238H43.7571V47.8127Z" fill="#263238"/>
<path d="M43.7571 45.6016H41.546V47.8127H43.7571V45.6016Z" fill="#263238"/>
<path d="M43.7571 43.3905H41.546V45.6016H43.7571V43.3905Z" fill="#6D4C41"/>
<path d="M43.7571 41.186H41.546V43.3971H43.7571V41.186Z" fill="#BCAAA4"/>
<path d="M43.7571 38.975H41.546V41.1861H43.7571V38.975Z" fill="#BCAAA4"/>
<path d="M43.7571 36.7705H41.546V38.9816H43.7571V36.7705Z" fill="#BCAAA4"/>
<path d="M43.7571 34.5595H41.546V36.7706H43.7571V34.5595Z" fill="#BCAAA4"/>
<path d="M43.7571 32.355H41.546V34.5661H43.7571V32.355Z" fill="#8D807B"/>
<path d="M43.7571 30.1438H41.546V32.355H43.7571V30.1438Z" fill="#BCAAA4"/>
<path d="M43.7571 27.9328H41.546V30.1439H43.7571V27.9328Z" fill="#8D807B"/>
<path d="M43.7571 25.7283H41.546V27.9394H43.7571V25.7283Z" fill="#ECEFF1"/>
<path d="M43.7571 23.5173H41.546V25.7284H43.7571V23.5173Z" fill="#ECEFF1"/>
<path d="M43.7571 21.3128H41.546V23.5239H43.7571V21.3128Z" fill="white"/>
<path d="M43.7571 19.1017H41.546V21.3128H43.7571V19.1017Z" fill="#ECEFF1"/>
<path d="M43.7571 16.8906H41.546V19.1017H43.7571V16.8906Z" fill="#263238"/>
<path d="M43.7571 14.6862H41.546V16.8973H43.7571V14.6862Z" fill="#515B60"/>
<path d="M43.7571 12.4751H41.546V14.6862H43.7571V12.4751Z" fill="white"/>
<path d="M41.5461 65.4748H39.335V67.6859H41.5461V65.4748Z" fill="white"/>
<path d="M41.5461 63.2704H39.335V65.4815H41.5461V63.2704Z" fill="#ECEFF1"/>
<path d="M41.5461 61.0593H39.335V63.2704H41.5461V61.0593Z" fill="white"/>
<path d="M41.5461 58.8549H39.335V61.066H41.5461V58.8549Z" fill="white"/>
<path d="M41.5461 56.6438H39.335V58.8549H41.5461V56.6438Z" fill="white"/>
<path d="M41.5461 54.4393H39.335V56.6504H41.5461V54.4393Z" fill="#ECEFF1"/>
<path d="M41.5461 52.2282H39.335V54.4393H41.5461V52.2282Z" fill="#BCAAA4"/>
<path d="M41.5461 50.0171H39.335V52.2282H41.5461V50.0171Z" fill="#8D807B"/>
<path d="M41.5461 47.8127H39.335V50.0238H41.5461V47.8127Z" fill="#263238"/>
<path d="M41.5461 45.6016H39.335V47.8127H41.5461V45.6016Z" fill="#6D4C41"/>
<path d="M41.5461 43.3905H39.335V45.6016H41.5461V43.3905Z" fill="#6D4C41"/>
<path d="M41.5461 41.186H39.335V43.3971H41.5461V41.186Z" fill="#6D4C41"/>
<path d="M41.5461 38.975H39.335V41.1861H41.5461V38.975Z" fill="#6D4C41"/>
<path d="M41.5461 36.7705H39.335V38.9816H41.5461V36.7705Z" fill="#8D807B"/>
<path d="M41.5461 34.5595H39.335V36.7706H41.5461V34.5595Z" fill="#BCAAA4"/>
<path d="M41.5461 32.355H39.335V34.5661H41.5461V32.355Z" fill="#BCAAA4"/>
<path d="M41.5461 30.1438H39.335V32.355H41.5461V30.1438Z" fill="#BCAAA4"/>
<path d="M41.5461 27.9328H39.335V30.1439H41.5461V27.9328Z" fill="#8D807B"/>
<path d="M41.5461 25.7283H39.335V27.9394H41.5461V25.7283Z" fill="#ECEFF1"/>
<path d="M41.5461 23.5173H39.335V25.7284H41.5461V23.5173Z" fill="#ECEFF1"/>
<path d="M41.5461 21.3128H39.335V23.5239H41.5461V21.3128Z" fill="white"/>
<path d="M41.5461 19.1017H39.335V21.3128H41.5461V19.1017Z" fill="#ECEFF1"/>
<path d="M41.5461 16.8906H39.335V19.1017H41.5461V16.8906Z" fill="#263238"/>
<path d="M41.5461 14.6862H39.335V16.8973H41.5461V14.6862Z" fill="#515B60"/>
<path d="M41.5461 12.4751H39.335V14.6862H41.5461V12.4751Z" fill="white"/>
<path d="M39.335 65.4748H37.1239V67.6859H39.335V65.4748Z" fill="white"/>
<path d="M39.335 63.2704H37.1239V65.4815H39.335V63.2704Z" fill="#ECEFF1"/>
<path d="M39.335 61.0593H37.1239V63.2704H39.335V61.0593Z" fill="white"/>
<path d="M39.335 58.8549H37.1239V61.066H39.335V58.8549Z" fill="white"/>
<path d="M39.335 56.6438H37.1239V58.8549H39.335V56.6438Z" fill="white"/>
<path d="M39.335 54.4393H37.1239V56.6504H39.335V54.4393Z" fill="#ECEFF1"/>
<path d="M39.335 52.2282H37.1239V54.4393H39.335V52.2282Z" fill="#BCAAA4"/>
<path d="M39.335 50.0171H37.1239V52.2282H39.335V50.0171Z" fill="#8D807B"/>
<path d="M39.335 47.8127H37.1239V50.0238H39.335V47.8127Z" fill="#263238"/>
<path d="M39.335 45.6016H37.1239V47.8127H39.335V45.6016Z" fill="#6D4C41"/>
<path d="M39.335 43.3905H37.1239V45.6016H39.335V43.3905Z" fill="#6D4C41"/>
<path d="M39.335 41.186H37.1239V43.3971H39.335V41.186Z" fill="#6D4C41"/>
<path d="M39.335 38.975H37.1239V41.1861H39.335V38.975Z" fill="#6D4C41"/>
<path d="M39.335 36.7705H37.1239V38.9816H39.335V36.7705Z" fill="#8D807B"/>
<path d="M39.335 34.5595H37.1239V36.7706H39.335V34.5595Z" fill="#BCAAA4"/>
<path d="M39.335 32.355H37.1239V34.5661H39.335V32.355Z" fill="#BCAAA4"/>
<path d="M39.335 30.1438H37.1239V32.355H39.335V30.1438Z" fill="#BCAAA4"/>
<path d="M39.335 27.9328H37.1239V30.1439H39.335V27.9328Z" fill="#8D807B"/>
<path d="M39.335 25.7283H37.1239V27.9394H39.335V25.7283Z" fill="#ECEFF1"/>
<path d="M39.335 23.5173H37.1239V25.7284H39.335V23.5173Z" fill="#ECEFF1"/>
<path d="M39.335 21.3128H37.1239V23.5239H39.335V21.3128Z" fill="white"/>
<path d="M39.335 19.1017H37.1239V21.3128H39.335V19.1017Z" fill="#ECEFF1"/>
<path d="M39.335 16.8906H37.1239V19.1017H39.335V16.8906Z" fill="#263238"/>
<path d="M39.335 14.6862H37.1239V16.8973H39.335V14.6862Z" fill="#515B60"/>
<path d="M39.335 12.4751H37.1239V14.6862H39.335V12.4751Z" fill="white"/>
<path d="M37.1305 65.4748H34.9194V67.6859H37.1305V65.4748Z" fill="white"/>
<path d="M37.1305 63.2704H34.9194V65.4815H37.1305V63.2704Z" fill="#ECEFF1"/>
<path d="M37.1305 61.0593H34.9194V63.2704H37.1305V61.0593Z" fill="white"/>
<path d="M37.1305 58.8549H34.9194V61.066H37.1305V58.8549Z" fill="white"/>
<path d="M37.1305 56.6438H34.9194V58.8549H37.1305V56.6438Z" fill="white"/>
<path d="M37.1305 54.4393H34.9194V56.6504H37.1305V54.4393Z" fill="#ECEFF1"/>
<path d="M37.1305 52.2282H34.9194V54.4393H37.1305V52.2282Z" fill="#BCAAA4"/>
<path d="M37.1305 50.0171H34.9194V52.2282H37.1305V50.0171Z" fill="#8D807B"/>
<path d="M37.1305 47.8127H34.9194V50.0238H37.1305V47.8127Z" fill="#263238"/>
<path d="M37.1305 45.6016H34.9194V47.8127H37.1305V45.6016Z" fill="#263238"/>
<path d="M37.1305 43.3905H34.9194V45.6016H37.1305V43.3905Z" fill="#6D4C41"/>
<path d="M37.1305 41.186H34.9194V43.3971H37.1305V41.186Z" fill="#BCAAA4"/>
<path d="M37.1305 38.975H34.9194V41.1861H37.1305V38.975Z" fill="#BCAAA4"/>
<path d="M37.1305 36.7705H34.9194V38.9816H37.1305V36.7705Z" fill="#BCAAA4"/>
<path d="M37.1305 34.5595H34.9194V36.7706H37.1305V34.5595Z" fill="#BCAAA4"/>
<path d="M37.1305 32.355H34.9194V34.5661H37.1305V32.355Z" fill="#8D807B"/>
<path d="M37.1305 30.1438H34.9194V32.355H37.1305V30.1438Z" fill="#BCAAA4"/>
<path d="M37.1305 27.9328H34.9194V30.1439H37.1305V27.9328Z" fill="#8D807B"/>
<path d="M37.1305 25.7283H34.9194V27.9394H37.1305V25.7283Z" fill="#ECEFF1"/>
<path d="M37.1305 23.5173H34.9194V25.7284H37.1305V23.5173Z" fill="#ECEFF1"/>
<path d="M37.1305 21.3128H34.9194V23.5239H37.1305V21.3128Z" fill="white"/>
<path d="M37.1305 19.1017H34.9194V21.3128H37.1305V19.1017Z" fill="#ECEFF1"/>
<path d="M37.1305 16.8906H34.9194V19.1017H37.1305V16.8906Z" fill="#263238"/>
<path d="M37.1305 14.6862H34.9194V16.8973H37.1305V14.6862Z" fill="#515B60"/>
<path d="M37.1305 12.4751H34.9194V14.6862H37.1305V12.4751Z" fill="white"/>
<path d="M34.9195 65.4748H32.7084V67.6859H34.9195V65.4748Z" fill="white"/>
<path d="M34.9195 63.2704H32.7084V65.4815H34.9195V63.2704Z" fill="#ECEFF1"/>
<path d="M34.9195 61.0593H32.7084V63.2704H34.9195V61.0593Z" fill="#ECEFF1"/>
<path d="M34.9195 58.8549H32.7084V61.066H34.9195V58.8549Z" fill="white"/>
<path d="M34.9195 56.6438H32.7084V58.8549H34.9195V56.6438Z" fill="white"/>
<path d="M34.9195 54.4393H32.7084V56.6504H34.9195V54.4393Z" fill="#ECEFF1"/>
<path d="M34.9195 52.2282H32.7084V54.4393H34.9195V52.2282Z" fill="#BCAAA4"/>
<path d="M34.9195 50.0171H32.7084V52.2282H34.9195V50.0171Z" fill="#BCAAA4"/>
<path d="M34.9195 47.8127H32.7084V50.0238H34.9195V47.8127Z" fill="#263238"/>
<path d="M34.9195 45.6016H32.7084V47.8127H34.9195V45.6016Z" fill="#263238"/>
<path d="M34.9195 43.3905H32.7084V45.6016H34.9195V43.3905Z" fill="#BCAAA4"/>
<path d="M34.9195 41.186H32.7084V43.3971H34.9195V41.186Z" fill="#8D807B"/>
<path d="M34.9195 38.975H32.7084V41.1861H34.9195V38.975Z" fill="white"/>
<path d="M34.9195 36.7705H32.7084V38.9816H34.9195V36.7705Z" fill="white"/>
<path d="M34.9195 34.5595H32.7084V36.7706H34.9195V34.5595Z" fill="white"/>
<path d="M34.9195 32.355H32.7084V34.5661H34.9195V32.355Z" fill="#BCAAA4"/>
<path d="M34.9195 30.1438H32.7084V32.355H34.9195V30.1438Z" fill="#263238"/>
<path d="M34.9195 27.9328H32.7084V30.1439H34.9195V27.9328Z" fill="#263238"/>
<path d="M34.9195 25.7283H32.7084V27.9394H34.9195V25.7283Z" fill="#ECEFF1"/>
<path d="M34.9195 23.5173H32.7084V25.7284H34.9195V23.5173Z" fill="#ECEFF1"/>
<path d="M34.9195 21.3128H32.7084V23.5239H34.9195V21.3128Z" fill="white"/>
<path d="M34.9195 19.1017H32.7084V21.3128H34.9195V19.1017Z" fill="#ECEFF1"/>
<path d="M34.9195 16.8906H32.7084V19.1017H34.9195V16.8906Z" fill="#263238"/>
<path d="M34.9195 14.6862H32.7084V16.8973H34.9195V14.6862Z" fill="#515B60"/>
<path d="M34.9195 12.4751H32.7084V14.6862H34.9195V12.4751Z" fill="white"/>
<path d="M32.715 65.4748H30.5039V67.6859H32.715V65.4748Z" fill="white"/>
<path d="M32.715 63.2704H30.5039V65.4815H32.715V63.2704Z" fill="white"/>
<path d="M32.715 61.0593H30.5039V63.2704H32.715V61.0593Z" fill="#ECEFF1"/>
<path d="M32.715 58.8549H30.5039V61.066H32.715V58.8549Z" fill="#ECEFF1"/>
<path d="M32.715 56.6438H30.5039V58.8549H32.715V56.6438Z" fill="white"/>
<path d="M32.715 54.4393H30.5039V56.6504H32.715V54.4393Z" fill="#ECEFF1"/>
<path d="M32.715 52.2282H30.5039V54.4393H32.715V52.2282Z" fill="#BCAAA4"/>
<path d="M32.715 50.0171H30.5039V52.2282H32.715V50.0171Z" fill="#BCAAA4"/>
<path d="M32.715 47.8127H30.5039V50.0238H32.715V47.8127Z" fill="#263238"/>
<path d="M32.715 45.6016H30.5039V47.8127H32.715V45.6016Z" fill="#BCAAA4"/>
<path d="M32.715 43.3905H30.5039V45.6016H32.715V43.3905Z" fill="#8D807B"/>
<path d="M32.715 41.186H30.5039V43.3971H32.715V41.186Z" fill="#BCAAA4"/>
<path d="M32.715 38.975H30.5039V41.1861H32.715V38.975Z" fill="white"/>
<path d="M32.715 36.7705H30.5039V38.9816H32.715V36.7705Z" fill="#263238"/>
<path d="M32.715 34.5595H30.5039V36.7706H32.715V34.5595Z" fill="#263238"/>
<path d="M32.715 32.355H30.5039V34.5661H32.715V32.355Z" fill="#BCAAA4"/>
<path d="M32.715 30.1438H30.5039V32.355H32.715V30.1438Z" fill="#263238"/>
<path d="M32.715 27.9328H30.5039V30.1439H32.715V27.9328Z" fill="#8D807B"/>
<path d="M32.715 25.7283H30.5039V27.9394H32.715V25.7283Z" fill="#ECEFF1"/>
<path d="M32.715 23.5173H30.5039V25.7284H32.715V23.5173Z" fill="#ECEFF1"/>
<path d="M32.715 21.3128H30.5039V23.5239H32.715V21.3128Z" fill="white"/>
<path d="M32.715 19.1017H30.5039V21.3128H32.715V19.1017Z" fill="#ECEFF1"/>
<path d="M32.715 16.8906H30.5039V19.1017H32.715V16.8906Z" fill="#263238"/>
<path d="M32.715 14.6862H30.5039V16.8973H32.715V14.6862Z" fill="#515B60"/>
<path d="M32.715 12.4751H30.5039V14.6862H32.715V12.4751Z" fill="white"/>
<path d="M30.504 63.2704H28.2928V65.4815H30.504V63.2704Z" fill="white"/>
<path d="M30.504 61.0593H28.2928V63.2704H30.504V61.0593Z" fill="white"/>
<path d="M30.504 58.8549H28.2928V61.066H30.504V58.8549Z" fill="#ECEFF1"/>
<path d="M30.504 56.6438H28.2928V58.8549H30.504V56.6438Z" fill="#ECEFF1"/>
<path d="M30.504 54.4393H28.2928V56.6504H30.504V54.4393Z" fill="#ECEFF1"/>
<path d="M30.504 52.2282H28.2928V54.4393H30.504V52.2282Z" fill="#BCAAA4"/>
<path d="M30.504 50.0171H28.2928V52.2282H30.504V50.0171Z" fill="#BCAAA4"/>
<path d="M30.504 47.8127H28.2928V50.0238H30.504V47.8127Z" fill="#BCAAA4"/>
<path d="M30.504 45.6016H28.2928V47.8127H30.504V45.6016Z" fill="#BCAAA4"/>
<path d="M30.504 43.3905H28.2928V45.6016H30.504V43.3905Z" fill="#8D807B"/>
<path d="M30.504 41.186H28.2928V43.3971H30.504V41.186Z" fill="#BCAAA4"/>
<path d="M30.504 38.975H28.2928V41.1861H30.504V38.975Z" fill="white"/>
<path d="M30.504 36.7705H28.2928V38.9816H30.504V36.7705Z" fill="white"/>
<path d="M30.504 34.5595H28.2928V36.7706H30.504V34.5595Z" fill="white"/>
<path d="M30.504 32.355H28.2928V34.5661H30.504V32.355Z" fill="#BCAAA4"/>
<path d="M30.504 30.1438H28.2928V32.355H30.504V30.1438Z" fill="#263238"/>
<path d="M30.504 27.9328H28.2928V30.1439H30.504V27.9328Z" fill="#8D807B"/>
<path d="M30.504 25.7283H28.2928V27.9394H30.504V25.7283Z" fill="#ECEFF1"/>
<path d="M30.504 23.5173H28.2928V25.7284H30.504V23.5173Z" fill="#ECEFF1"/>
<path d="M30.504 21.3128H28.2928V23.5239H30.504V21.3128Z" fill="white"/>
<path d="M30.504 19.1017H28.2928V21.3128H30.504V19.1017Z" fill="#ECEFF1"/>
<path d="M30.504 16.8906H28.2928V19.1017H30.504V16.8906Z" fill="#263238"/>
<path d="M30.504 14.6862H28.2928V16.8973H30.504V14.6862Z" fill="#515B60"/>
<path d="M28.2995 61.0593H26.0884V63.2704H28.2995V61.0593Z" fill="white"/>
<path d="M28.2995 58.8549H26.0884V61.066H28.2995V58.8549Z" fill="white"/>
<path d="M28.2995 56.6438H26.0884V58.8549H28.2995V56.6438Z" fill="#ECEFF1"/>
<path d="M28.2995 54.4393H26.0884V56.6504H28.2995V54.4393Z" fill="#ECEFF1"/>
<path d="M28.2995 52.2282H26.0884V54.4393H28.2995V52.2282Z" fill="#BCAAA4"/>
<path d="M28.2995 50.0171H26.0884V52.2282H28.2995V50.0171Z" fill="#BCAAA4"/>
<path d="M28.2995 47.8127H26.0884V50.0238H28.2995V47.8127Z" fill="#BCAAA4"/>
<path d="M28.2995 45.6016H26.0884V47.8127H28.2995V45.6016Z" fill="#BCAAA4"/>
<path d="M28.2995 43.3905H26.0884V45.6016H28.2995V43.3905Z" fill="#BCAAA4"/>
<path d="M28.2995 41.186H26.0884V43.3971H28.2995V41.186Z" fill="#BCAAA4"/>
<path d="M28.2995 38.975H26.0884V41.1861H28.2995V38.975Z" fill="#BCAAA4"/>
<path d="M28.2995 36.7705H26.0884V38.9816H28.2995V36.7705Z" fill="#BCAAA4"/>
<path d="M28.2995 34.5595H26.0884V36.7706H28.2995V34.5595Z" fill="#BCAAA4"/>
<path d="M28.2995 32.355H26.0884V34.5661H28.2995V32.355Z" fill="#BCAAA4"/>
<path d="M28.2995 30.1438H26.0884V32.355H28.2995V30.1438Z" fill="#BCAAA4"/>
<path d="M28.2995 27.9328H26.0884V30.1439H28.2995V27.9328Z" fill="#8D807B"/>
<path d="M28.2995 25.7283H26.0884V27.9394H28.2995V25.7283Z" fill="#ECEFF1"/>
<path d="M28.2995 23.5173H26.0884V25.7284H28.2995V23.5173Z" fill="white"/>
<path d="M28.2995 21.3128H26.0884V23.5239H28.2995V21.3128Z" fill="white"/>
<path d="M28.2995 19.1017H26.0884V21.3128H28.2995V19.1017Z" fill="#ECEFF1"/>
<path d="M28.2995 16.8906H26.0884V19.1017H28.2995V16.8906Z" fill="#263238"/>
<path d="M26.0884 58.8549H23.8773V61.066H26.0884V58.8549Z" fill="white"/>
<path d="M26.0884 56.6438H23.8773V58.8549H26.0884V56.6438Z" fill="white"/>
<path d="M26.0884 54.4393H23.8773V56.6504H26.0884V54.4393Z" fill="#ECEFF1"/>
<path d="M26.0884 52.2282H23.8773V54.4393H26.0884V52.2282Z" fill="#ECEFF1"/>
<path d="M26.0884 50.0171H23.8773V52.2282H26.0884V50.0171Z" fill="#BCAAA4"/>
<path d="M26.0884 47.8127H23.8773V50.0238H26.0884V47.8127Z" fill="#BCAAA4"/>
<path d="M26.0884 45.6016H23.8773V47.8127H26.0884V45.6016Z" fill="#BCAAA4"/>
<path d="M26.0884 43.3905H23.8773V45.6016H26.0884V43.3905Z" fill="#BCAAA4"/>
<path d="M26.0884 41.186H23.8773V43.3971H26.0884V41.186Z" fill="#BCAAA4"/>
<path d="M26.0884 38.975H23.8773V41.1861H26.0884V38.975Z" fill="#BCAAA4"/>
<path d="M26.0884 36.7705H23.8773V38.9816H26.0884V36.7705Z" fill="#BCAAA4"/>
<path d="M26.0884 34.5595H23.8773V36.7706H26.0884V34.5595Z" fill="#BCAAA4"/>
<path d="M26.0884 32.355H23.8773V34.5661H26.0884V32.355Z" fill="#BCAAA4"/>
<path d="M26.0884 30.1438H23.8773V32.355H26.0884V30.1438Z" fill="#8D807B"/>
<path d="M26.0884 27.9328H23.8773V30.1439H26.0884V27.9328Z" fill="#ECEFF1"/>
<path d="M26.0884 25.7283H23.8773V27.9394H26.0884V25.7283Z" fill="#ECEFF1"/>
<path d="M26.0884 23.5173H23.8773V25.7284H26.0884V23.5173Z" fill="white"/>
<path d="M26.0884 21.3128H23.8773V23.5239H26.0884V21.3128Z" fill="white"/>
<path d="M26.0884 19.1017H23.8773V21.3128H26.0884V19.1017Z" fill="#ECEFF1"/>
<path d="M23.8772 56.6438H21.6661V58.8549H23.8772V56.6438Z" fill="white"/>
<path d="M23.8772 54.4393H21.6661V56.6504H23.8772V54.4393Z" fill="white"/>
<path d="M23.8772 52.2282H21.6661V54.4393H23.8772V52.2282Z" fill="white"/>
<path d="M23.8772 50.0171H21.6661V52.2282H23.8772V50.0171Z" fill="white"/>
<path d="M23.8772 47.8127H21.6661V50.0238H23.8772V47.8127Z" fill="white"/>
<path d="M23.8772 45.6016H21.6661V47.8127H23.8772V45.6016Z" fill="white"/>
<path d="M23.8772 43.3905H21.6661V45.6016H23.8772V43.3905Z" fill="white"/>
<path d="M23.8772 41.186H21.6661V43.3971H23.8772V41.186Z" fill="white"/>
<path d="M23.8772 38.975H21.6661V41.1861H23.8772V38.975Z" fill="white"/>
<path d="M23.8772 36.7705H21.6661V38.9816H23.8772V36.7705Z" fill="white"/>
<path d="M23.8772 34.5595H21.6661V36.7706H23.8772V34.5595Z" fill="white"/>
<path d="M23.8772 32.355H21.6661V34.5661H23.8772V32.355Z" fill="white"/>
<path d="M23.8772 30.1438H21.6661V32.355H23.8772V30.1438Z" fill="#ECEFF1"/>
<path d="M23.8772 27.9328H21.6661V30.1439H23.8772V27.9328Z" fill="white"/>
<path d="M23.8772 25.7283H21.6661V27.9394H23.8772V25.7283Z" fill="white"/>
<path d="M23.8772 23.5173H21.6661V25.7284H23.8772V23.5173Z" fill="white"/>
<path d="M23.8772 21.3128H21.6661V23.5239H23.8772V21.3128Z" fill="white"/>
<path d="M21.6729 54.4393H19.4618V56.6504H21.6729V54.4393Z" fill="white"/>
<path d="M21.6729 52.2282H19.4618V54.4393H21.6729V52.2282Z" fill="white"/>
<path d="M21.6729 50.0171H19.4618V52.2282H21.6729V50.0171Z" fill="white"/>
<path d="M21.6729 47.8127H19.4618V50.0238H21.6729V47.8127Z" fill="white"/>
<path d="M21.6729 45.6016H19.4618V47.8127H21.6729V45.6016Z" fill="white"/>
<path d="M21.6729 43.3905H19.4618V45.6016H21.6729V43.3905Z" fill="white"/>
<path d="M21.6729 41.186H19.4618V43.3971H21.6729V41.186Z" fill="white"/>
<path d="M21.6729 38.975H19.4618V41.1861H21.6729V38.975Z" fill="white"/>
<path d="M21.6729 36.7705H19.4618V38.9816H21.6729V36.7705Z" fill="#ECEFF1"/>
<path d="M21.6729 34.5595H19.4618V36.7706H21.6729V34.5595Z" fill="#ECEFF1"/>
<path d="M21.6729 32.355H19.4618V34.5661H21.6729V32.355Z" fill="#ECEFF1"/>
<path d="M21.6729 30.1438H19.4618V32.355H21.6729V30.1438Z" fill="white"/>
<path d="M21.6729 27.9328H19.4618V30.1439H21.6729V27.9328Z" fill="white"/>
<path d="M21.6729 25.7283H19.4618V27.9394H21.6729V25.7283Z" fill="white"/>
<path d="M21.6729 23.5173H19.4618V25.7284H21.6729V23.5173Z" fill="white"/>
<path d="M19.4617 52.2282H17.2506V54.4393H19.4617V52.2282Z" fill="white"/>
<path d="M19.4617 50.0171H17.2506V52.2282H19.4617V50.0171Z" fill="white"/>
<path d="M19.4617 47.8127H17.2506V50.0238H19.4617V47.8127Z" fill="white"/>
<path d="M19.4617 45.6016H17.2506V47.8127H19.4617V45.6016Z" fill="white"/>
<path d="M19.4617 43.3905H17.2506V45.6016H19.4617V43.3905Z" fill="white"/>
<path d="M19.4617 41.186H17.2506V43.3971H19.4617V41.186Z" fill="white"/>
<path d="M19.4617 38.975H17.2506V41.1861H19.4617V38.975Z" fill="white"/>
<path d="M19.4617 36.7705H17.2506V38.9816H19.4617V36.7705Z" fill="white"/>
<path d="M19.4617 34.5595H17.2506V36.7706H19.4617V34.5595Z" fill="white"/>
<path d="M19.4617 32.355H17.2506V34.5661H19.4617V32.355Z" fill="white"/>
<path d="M19.4617 30.1438H17.2506V32.355H19.4617V30.1438Z" fill="white"/>
<path d="M19.4617 27.9328H17.2506V30.1439H19.4617V27.9328Z" fill="white"/>
<path d="M19.4617 25.7283H17.2506V27.9394H19.4617V25.7283Z" fill="white"/>
</svg>
