<svg width="78" height="81" viewBox="0 0 78 81" fill="none" xmlns="http://www.w3.org/2000/svg">
<rect width="77.9899" height="80.161" rx="5.34406" fill="#92B698"/>
<path d="M61.0793 45.6016H58.8682V47.8127H61.0793V45.6016Z" fill="#BCAAA4"/>
<path d="M61.0793 43.3905H58.8682V45.6016H61.0793V43.3905Z" fill="#BCAAA4"/>
<path d="M61.0793 41.1794H58.8682V43.3905H61.0793V41.1794Z" fill="#8D807B"/>
<path d="M61.0793 38.975H58.8682V41.1861H61.0793V38.975Z" fill="#FFE0B2"/>
<path d="M61.0793 36.7638H58.8682V38.9749H61.0793V36.7638Z" fill="#FFE0B2"/>
<path d="M61.0793 34.5595H58.8682V36.7706H61.0793V34.5595Z" fill="#FFE0B2"/>
<path d="M58.8748 47.806H56.6637V50.0171H58.8748V47.806Z" fill="#BCAAA4"/>
<path d="M58.8748 45.6016H56.6637V47.8127H58.8748V45.6016Z" fill="#BCAAA4"/>
<path d="M58.8748 43.3905H56.6637V45.6016H58.8748V43.3905Z" fill="#8D807B"/>
<path d="M58.8748 41.1794H56.6637V43.3905H58.8748V41.1794Z" fill="#FFE0B2"/>
<path d="M58.8748 38.975H56.6637V41.1861H58.8748V38.975Z" fill="#FFE0B2"/>
<path d="M58.8748 36.7638H56.6637V38.9749H58.8748V36.7638Z" fill="#FFE0B2"/>
<path d="M58.8748 34.5595H56.6637V36.7706H58.8748V34.5595Z" fill="#FFE0B2"/>
<path d="M58.8748 32.3483H56.6637V34.5594H58.8748V32.3483Z" fill="#FFE0B2"/>
<path d="M56.6637 65.4748H54.4526V67.6859H56.6637V65.4748Z" fill="#263238"/>
<path d="M56.6637 63.2637H54.4526V65.4748H56.6637V63.2637Z" fill="#263238"/>
<path d="M56.6637 61.0593H54.4526V63.2704H56.6637V61.0593Z" fill="#263238"/>
<path d="M56.6637 58.8482H54.4526V61.0593H56.6637V58.8482Z" fill="#263238"/>
<path d="M56.6637 56.6438H54.4526V58.8549H56.6637V56.6438Z" fill="#263238"/>
<path d="M56.6637 54.4327H54.4526V56.6438H56.6637V54.4327Z" fill="#263238"/>
<path d="M56.6637 52.2282H54.4526V54.4393H56.6637V52.2282Z" fill="#263238"/>
<path d="M56.6637 50.0171H54.4526V52.2282H56.6637V50.0171Z" fill="#263238"/>
<path d="M56.6637 47.806H54.4526V50.0171H56.6637V47.806Z" fill="#BCAAA4"/>
<path d="M56.6637 45.6016H54.4526V47.8127H56.6637V45.6016Z" fill="#8D807B"/>
<path d="M56.6637 43.3905H54.4526V45.6016H56.6637V43.3905Z" fill="#8D807B"/>
<path d="M56.6637 41.1794H54.4526V43.3905H56.6637V41.1794Z" fill="#FFE0B2"/>
<path d="M56.6637 38.975H54.4526V41.1861H56.6637V38.975Z" fill="#FFE0B2"/>
<path d="M56.6637 36.7638H54.4526V38.9749H56.6637V36.7638Z" fill="#FFA726"/>
<path d="M56.6637 34.5595H54.4526V36.7706H56.6637V34.5595Z" fill="#FFE0B2"/>
<path d="M56.6637 32.3483H54.4526V34.5594H56.6637V32.3483Z" fill="#FFE0B2"/>
<path d="M56.6637 30.1438H54.4526V32.355H56.6637V30.1438Z" fill="#515B60"/>
<path d="M56.6637 27.9328H54.4526V30.1439H56.6637V27.9328Z" fill="#263238"/>
<path d="M56.6637 25.7216H54.4526V27.9327H56.6637V25.7216Z" fill="#263238"/>
<path d="M56.6637 23.5173H54.4526V25.7284H56.6637V23.5173Z" fill="#263238"/>
<path d="M56.6637 21.3061H54.4526V23.5172H56.6637V21.3061Z" fill="#263238"/>
<path d="M54.4593 63.2637H52.2482V65.4748H54.4593V63.2637Z" fill="#515B60"/>
<path d="M54.4593 61.0593H52.2482V63.2704H54.4593V61.0593Z" fill="#515B60"/>
<path d="M54.4593 58.8482H52.2482V61.0593H54.4593V58.8482Z" fill="#515B60"/>
<path d="M54.4593 56.6438H52.2482V58.8549H54.4593V56.6438Z" fill="#515B60"/>
<path d="M54.4593 54.4327H52.2482V56.6438H54.4593V54.4327Z" fill="#515B60"/>
<path d="M54.4593 52.2282H52.2482V54.4393H54.4593V52.2282Z" fill="#BCAAA4"/>
<path d="M54.4593 50.0171H52.2482V52.2282H54.4593V50.0171Z" fill="#BCAAA4"/>
<path d="M54.4593 47.806H52.2482V50.0171H54.4593V47.806Z" fill="#BCAAA4"/>
<path d="M54.4593 45.6016H52.2482V47.8127H54.4593V45.6016Z" fill="#BCAAA4"/>
<path d="M54.4593 43.3905H52.2482V45.6016H54.4593V43.3905Z" fill="#8D807B"/>
<path d="M54.4593 41.1794H52.2482V43.3905H54.4593V41.1794Z" fill="#FFE0B2"/>
<path d="M54.4593 38.975H52.2482V41.1861H54.4593V38.975Z" fill="#FFE0B2"/>
<path d="M54.4593 36.7638H52.2482V38.9749H54.4593V36.7638Z" fill="#FFE0B2"/>
<path d="M54.4593 34.5595H52.2482V36.7706H54.4593V34.5595Z" fill="#FFE0B2"/>
<path d="M54.4593 32.3483H52.2482V34.5594H54.4593V32.3483Z" fill="#FFE0B2"/>
<path d="M54.4593 30.1438H52.2482V32.355H54.4593V30.1438Z" fill="#263238"/>
<path d="M54.4593 27.9328H52.2482V30.1439H54.4593V27.9328Z" fill="#515B60"/>
<path d="M54.4593 25.7216H52.2482V27.9327H54.4593V25.7216Z" fill="#263238"/>
<path d="M54.4593 23.5173H52.2482V25.7284H54.4593V23.5173Z" fill="#515B60"/>
<path d="M54.4593 21.3061H52.2482V23.5172H54.4593V21.3061Z" fill="#263238"/>
<path d="M54.4593 19.1017H52.2482V21.3128H54.4593V19.1017Z" fill="#263238"/>
<path d="M52.2482 61.0593H50.0371V63.2704H52.2482V61.0593Z" fill="#263238"/>
<path d="M52.2482 58.8482H50.0371V61.0593H52.2482V58.8482Z" fill="#263238"/>
<path d="M52.2482 56.6438H50.0371V58.8549H52.2482V56.6438Z" fill="#263238"/>
<path d="M52.2482 54.4327H50.0371V56.6438H52.2482V54.4327Z" fill="#BCAAA4"/>
<path d="M52.2482 52.2282H50.0371V54.4393H52.2482V52.2282Z" fill="#BCAAA4"/>
<path d="M52.2482 50.0171H50.0371V52.2282H52.2482V50.0171Z" fill="#FFCCBC"/>
<path d="M52.2482 47.806H50.0371V50.0171H52.2482V47.806Z" fill="#FFCCBC"/>
<path d="M52.2482 45.6016H50.0371V47.8127H52.2482V45.6016Z" fill="#BCAAA4"/>
<path d="M52.2482 43.3905H50.0371V45.6016H52.2482V43.3905Z" fill="#BCAAA4"/>
<path d="M52.2482 41.1794H50.0371V43.3905H52.2482V41.1794Z" fill="white"/>
<path d="M52.2482 38.975H50.0371V41.1861H52.2482V38.975Z" fill="#FFE0B2"/>
<path d="M52.2482 36.7638H50.0371V38.9749H52.2482V36.7638Z" fill="#FFE0B2"/>
<path d="M52.2482 34.5595H50.0371V36.7706H52.2482V34.5595Z" fill="#FFE0B2"/>
<path d="M52.2482 32.3483H50.0371V34.5594H52.2482V32.3483Z" fill="#8D807B"/>
<path d="M52.2482 30.1438H50.0371V32.355H52.2482V30.1438Z" fill="#263238"/>
<path d="M52.2482 27.9328H50.0371V30.1439H52.2482V27.9328Z" fill="#263238"/>
<path d="M52.2482 25.7216H50.0371V27.9327H52.2482V25.7216Z" fill="#515B60"/>
<path d="M52.2482 23.5173H50.0371V25.7284H52.2482V23.5173Z" fill="#263238"/>
<path d="M52.2482 21.3061H50.0371V23.5172H52.2482V21.3061Z" fill="#263238"/>
<path d="M52.2482 19.1017H50.0371V21.3128H52.2482V19.1017Z" fill="#263238"/>
<path d="M52.2482 16.8906H50.0371V19.1017H52.2482V16.8906Z" fill="#263238"/>
<path d="M50.0372 58.8482H47.826V61.0593H50.0372V58.8482Z" fill="#263238"/>
<path d="M50.0372 56.6438H47.826V58.8549H50.0372V56.6438Z" fill="#BCAAA4"/>
<path d="M50.0372 54.4327H47.826V56.6438H50.0372V54.4327Z" fill="#BCAAA4"/>
<path d="M50.0372 52.2282H47.826V54.4393H50.0372V52.2282Z" fill="#BCAAA4"/>
<path d="M50.0372 50.0171H47.826V52.2282H50.0372V50.0171Z" fill="#FFCCBC"/>
<path d="M50.0372 47.806H47.826V50.0171H50.0372V47.806Z" fill="#FFCCBC"/>
<path d="M50.0372 45.6016H47.826V47.8127H50.0372V45.6016Z" fill="#BCAAA4"/>
<path d="M50.0372 43.3905H47.826V45.6016H50.0372V43.3905Z" fill="#BCAAA4"/>
<path d="M50.0372 41.1794H47.826V43.3905H50.0372V41.1794Z" fill="white"/>
<path d="M50.0372 38.975H47.826V41.1861H50.0372V38.975Z" fill="#263238"/>
<path d="M50.0372 36.7638H47.826V38.9749H50.0372V36.7638Z" fill="#8D807B"/>
<path d="M50.0372 34.5595H47.826V36.7706H50.0372V34.5595Z" fill="#8D807B"/>
<path d="M50.0372 32.3483H47.826V34.5594H50.0372V32.3483Z" fill="#BCAAA4"/>
<path d="M50.0372 30.1438H47.826V32.355H50.0372V30.1438Z" fill="#8D807B"/>
<path d="M50.0372 27.9328H47.826V30.1439H50.0372V27.9328Z" fill="#263238"/>
<path d="M50.0372 25.7216H47.826V27.9327H50.0372V25.7216Z" fill="#263238"/>
<path d="M50.0372 23.5173H47.826V25.7284H50.0372V23.5173Z" fill="#263238"/>
<path d="M50.0372 21.3061H47.826V23.5172H50.0372V21.3061Z" fill="#263238"/>
<path d="M50.0372 19.1017H47.826V21.3128H50.0372V19.1017Z" fill="#515B60"/>
<path d="M50.0372 16.8906H47.826V19.1017H50.0372V16.8906Z" fill="#263238"/>
<path d="M50.0372 14.6795H47.826V16.8906H50.0372V14.6795Z" fill="#263238"/>
<path d="M47.8327 65.4748H45.6216V67.6859H47.8327V65.4748Z" fill="#BCAAA4"/>
<path d="M47.8327 56.6438H45.6216V58.8549H47.8327V56.6438Z" fill="#BCAAA4"/>
<path d="M47.8327 54.4327H45.6216V56.6438H47.8327V54.4327Z" fill="#BCAAA4"/>
<path d="M47.8327 52.2282H45.6216V54.4393H47.8327V52.2282Z" fill="#BCAAA4"/>
<path d="M47.8327 50.0171H45.6216V52.2282H47.8327V50.0171Z" fill="#BCAAA4"/>
<path d="M47.8327 47.806H45.6216V50.0171H47.8327V47.806Z" fill="#BCAAA4"/>
<path d="M47.8327 45.6016H45.6216V47.8127H47.8327V45.6016Z" fill="#BCAAA4"/>
<path d="M47.8327 43.3905H45.6216V45.6016H47.8327V43.3905Z" fill="#BCAAA4"/>
<path d="M47.8327 41.1794H45.6216V43.3905H47.8327V41.1794Z" fill="#263238"/>
<path d="M47.8327 38.975H45.6216V41.1861H47.8327V38.975Z" fill="#263238"/>
<path d="M47.8327 36.7638H45.6216V38.9749H47.8327V36.7638Z" fill="#BCAAA4"/>
<path d="M47.8327 34.5595H45.6216V36.7706H47.8327V34.5595Z" fill="#BCAAA4"/>
<path d="M47.8327 32.3483H45.6216V34.5594H47.8327V32.3483Z" fill="#BCAAA4"/>
<path d="M47.8327 30.1438H45.6216V32.355H47.8327V30.1438Z" fill="#BCAAA4"/>
<path d="M47.8327 27.9328H45.6216V30.1439H47.8327V27.9328Z" fill="#8D807B"/>
<path d="M47.8327 25.7216H45.6216V27.9327H47.8327V25.7216Z" fill="#515B60"/>
<path d="M47.8327 23.5173H45.6216V25.7284H47.8327V23.5173Z" fill="#263238"/>
<path d="M47.8327 21.3061H45.6216V23.5172H47.8327V21.3061Z" fill="#515B60"/>
<path d="M47.8327 19.1017H45.6216V21.3128H47.8327V19.1017Z" fill="#263238"/>
<path d="M47.8327 16.8906H45.6216V19.1017H47.8327V16.8906Z" fill="#515B60"/>
<path d="M47.8327 14.6795H45.6216V16.8906H47.8327V14.6795Z" fill="#263238"/>
<path d="M47.8327 12.4751H45.6216V14.6862H47.8327V12.4751Z" fill="#263238"/>
<path d="M45.6216 65.4748H43.4105V67.6859H45.6216V65.4748Z" fill="#BCAAA4"/>
<path d="M45.6216 63.2637H43.4105V65.4748H45.6216V63.2637Z" fill="#BCAAA4"/>
<path d="M45.6216 61.0593H43.4105V63.2704H45.6216V61.0593Z" fill="#BCAAA4"/>
<path d="M45.6216 58.8482H43.4105V61.0593H45.6216V58.8482Z" fill="#8D807B"/>
<path d="M45.6216 56.6438H43.4105V58.8549H45.6216V56.6438Z" fill="#BCAAA4"/>
<path d="M45.6216 54.4327H43.4105V56.6438H45.6216V54.4327Z" fill="#BCAAA4"/>
<path d="M45.6216 52.2282H43.4105V54.4393H45.6216V52.2282Z" fill="#BCAAA4"/>
<path d="M45.6216 50.0171H43.4105V52.2282H45.6216V50.0171Z" fill="#E91E63"/>
<path d="M45.6216 47.806H43.4105V50.0171H45.6216V47.806Z" fill="#BCAAA4"/>
<path d="M45.6216 45.6016H43.4105V47.8127H45.6216V45.6016Z" fill="#BCAAA4"/>
<path d="M45.6216 43.3905H43.4105V45.6016H45.6216V43.3905Z" fill="#BCAAA4"/>
<path d="M45.6216 41.1794H43.4105V43.3905H45.6216V41.1794Z" fill="white"/>
<path d="M45.6216 38.975H43.4105V41.1861H45.6216V38.975Z" fill="#8D807B"/>
<path d="M45.6216 36.7638H43.4105V38.9749H45.6216V36.7638Z" fill="#BCAAA4"/>
<path d="M45.6216 34.5595H43.4105V36.7706H45.6216V34.5595Z" fill="#BCAAA4"/>
<path d="M45.6216 32.3483H43.4105V34.5594H45.6216V32.3483Z" fill="#BCAAA4"/>
<path d="M45.6216 30.1438H43.4105V32.355H45.6216V30.1438Z" fill="#8D807B"/>
<path d="M45.6216 27.9328H43.4105V30.1439H45.6216V27.9328Z" fill="#263238"/>
<path d="M45.6216 25.7216H43.4105V27.9327H45.6216V25.7216Z" fill="#515B60"/>
<path d="M45.6216 23.5173H43.4105V25.7284H45.6216V23.5173Z" fill="#263238"/>
<path d="M45.6216 21.3061H43.4105V23.5172H45.6216V21.3061Z" fill="#263238"/>
<path d="M45.6216 19.1017H43.4105V21.3128H45.6216V19.1017Z" fill="#515B60"/>
<path d="M45.6216 16.8906H43.4105V19.1017H45.6216V16.8906Z" fill="#263238"/>
<path d="M45.6216 14.6795H43.4105V16.8906H45.6216V14.6795Z" fill="#515B60"/>
<path d="M45.6216 12.4751H43.4105V14.6862H45.6216V12.4751Z" fill="#263238"/>
<path d="M43.4172 65.4748H41.2061V67.6859H43.4172V65.4748Z" fill="#BCAAA4"/>
<path d="M43.4172 63.2637H41.2061V65.4748H43.4172V63.2637Z" fill="#BCAAA4"/>
<path d="M43.4172 61.0593H41.2061V63.2704H43.4172V61.0593Z" fill="#8D807B"/>
<path d="M43.4172 58.8482H41.2061V61.0593H43.4172V58.8482Z" fill="#8D807B"/>
<path d="M43.4172 56.6438H41.2061V58.8549H43.4172V56.6438Z" fill="#BCAAA4"/>
<path d="M43.4172 54.4327H41.2061V56.6438H43.4172V54.4327Z" fill="#BCAAA4"/>
<path d="M43.4172 52.2282H41.2061V54.4393H43.4172V52.2282Z" fill="#E91E63"/>
<path d="M43.4172 50.0171H41.2061V52.2282H43.4172V50.0171Z" fill="#E91E63"/>
<path d="M43.4172 47.806H41.2061V50.0171H43.4172V47.806Z" fill="#BCAAA4"/>
<path d="M43.4172 45.6016H41.2061V47.8127H43.4172V45.6016Z" fill="#6D4C41"/>
<path d="M43.4172 43.3905H41.2061V45.6016H43.4172V43.3905Z" fill="#BCAAA4"/>
<path d="M43.4172 41.1794H41.2061V43.3905H43.4172V41.1794Z" fill="#8D807B"/>
<path d="M43.4172 38.975H41.2061V41.1861H43.4172V38.975Z" fill="#BCAAA4"/>
<path d="M43.4172 36.7638H41.2061V38.9749H43.4172V36.7638Z" fill="#BCAAA4"/>
<path d="M43.4172 34.5595H41.2061V36.7706H43.4172V34.5595Z" fill="#BCAAA4"/>
<path d="M43.4172 32.3483H41.2061V34.5594H43.4172V32.3483Z" fill="#8D807B"/>
<path d="M43.4172 30.1438H41.2061V32.355H43.4172V30.1438Z" fill="#263238"/>
<path d="M43.4172 27.9328H41.2061V30.1439H43.4172V27.9328Z" fill="#263238"/>
<path d="M43.4172 25.7216H41.2061V27.9327H43.4172V25.7216Z" fill="#515B60"/>
<path d="M43.4172 23.5173H41.2061V25.7284H43.4172V23.5173Z" fill="#263238"/>
<path d="M43.4172 21.3061H41.2061V23.5172H43.4172V21.3061Z" fill="#263238"/>
<path d="M43.4172 19.1017H41.2061V21.3128H43.4172V19.1017Z" fill="#263238"/>
<path d="M43.4172 16.8906H41.2061V19.1017H43.4172V16.8906Z" fill="#515B60"/>
<path d="M43.4172 14.6795H41.2061V16.8906H43.4172V14.6795Z" fill="#263238"/>
<path d="M43.4172 12.4751H41.2061V14.6862H43.4172V12.4751Z" fill="#515B60"/>
<path d="M41.2061 65.4748H38.995V67.6859H41.2061V65.4748Z" fill="#BCAAA4"/>
<path d="M41.2061 63.2637H38.995V65.4748H41.2061V63.2637Z" fill="#8D807B"/>
<path d="M41.2061 61.0593H38.995V63.2704H41.2061V61.0593Z" fill="#8D807B"/>
<path d="M41.2061 58.8482H38.995V61.0593H41.2061V58.8482Z" fill="#8D807B"/>
<path d="M41.2061 56.6438H38.995V58.8549H41.2061V56.6438Z" fill="#BCAAA4"/>
<path d="M41.2061 54.4327H38.995V56.6438H41.2061V54.4327Z" fill="#E91E63"/>
<path d="M41.2061 52.2282H38.995V54.4393H41.2061V52.2282Z" fill="#263238"/>
<path d="M41.2061 50.0171H38.995V52.2282H41.2061V50.0171Z" fill="#E91E63"/>
<path d="M41.2061 47.806H38.995V50.0171H41.2061V47.806Z" fill="#BCAAA4"/>
<path d="M41.2061 45.6016H38.995V47.8127H41.2061V45.6016Z" fill="#6D4C41"/>
<path d="M41.2061 43.3905H38.995V45.6016H41.2061V43.3905Z" fill="#6D4C41"/>
<path d="M41.2061 41.1794H38.995V43.3905H41.2061V41.1794Z" fill="#BCAAA4"/>
<path d="M41.2061 38.975H38.995V41.1861H41.2061V38.975Z" fill="#BCAAA4"/>
<path d="M41.2061 36.7638H38.995V38.9749H41.2061V36.7638Z" fill="#BCAAA4"/>
<path d="M41.2061 34.5595H38.995V36.7706H41.2061V34.5595Z" fill="#8D807B"/>
<path d="M41.2061 32.3483H38.995V34.5594H41.2061V32.3483Z" fill="#263238"/>
<path d="M41.2061 30.1438H38.995V32.355H41.2061V30.1438Z" fill="#263238"/>
<path d="M41.2061 27.9328H38.995V30.1439H41.2061V27.9328Z" fill="#515B60"/>
<path d="M41.2061 25.7216H38.995V27.9327H41.2061V25.7216Z" fill="#263238"/>
<path d="M41.2061 23.5173H38.995V25.7284H41.2061V23.5173Z" fill="#263238"/>
<path d="M41.2061 21.3061H38.995V23.5172H41.2061V21.3061Z" fill="#263238"/>
<path d="M41.2061 19.1017H38.995V21.3128H41.2061V19.1017Z" fill="#263238"/>
<path d="M41.2061 16.8906H38.995V19.1017H41.2061V16.8906Z" fill="#515B60"/>
<path d="M41.2061 14.6795H38.995V16.8906H41.2061V14.6795Z" fill="#263238"/>
<path d="M41.2061 12.4751H38.995V14.6862H41.2061V12.4751Z" fill="#515B60"/>
<path d="M38.9949 65.4748H36.7838V67.6859H38.9949V65.4748Z" fill="#BCAAA4"/>
<path d="M38.9949 63.2637H36.7838V65.4748H38.9949V63.2637Z" fill="#8D807B"/>
<path d="M38.9949 61.0593H36.7838V63.2704H38.9949V61.0593Z" fill="#8D807B"/>
<path d="M38.9949 58.8482H36.7838V61.0593H38.9949V58.8482Z" fill="#8D807B"/>
<path d="M38.9949 56.6438H36.7838V58.8549H38.9949V56.6438Z" fill="#BCAAA4"/>
<path d="M38.9949 54.4327H36.7838V56.6438H38.9949V54.4327Z" fill="#E91E63"/>
<path d="M38.9949 52.2282H36.7838V54.4393H38.9949V52.2282Z" fill="#263238"/>
<path d="M38.9949 50.0171H36.7838V52.2282H38.9949V50.0171Z" fill="#E91E63"/>
<path d="M38.9949 47.806H36.7838V50.0171H38.9949V47.806Z" fill="#BCAAA4"/>
<path d="M38.9949 45.6016H36.7838V47.8127H38.9949V45.6016Z" fill="#6D4C41"/>
<path d="M38.9949 43.3905H36.7838V45.6016H38.9949V43.3905Z" fill="#6D4C41"/>
<path d="M38.9949 41.1794H36.7838V43.3905H38.9949V41.1794Z" fill="#BCAAA4"/>
<path d="M38.9949 38.975H36.7838V41.1861H38.9949V38.975Z" fill="#BCAAA4"/>
<path d="M38.9949 36.7638H36.7838V38.9749H38.9949V36.7638Z" fill="#8D807B"/>
<path d="M38.9949 34.5595H36.7838V36.7706H38.9949V34.5595Z" fill="#263238"/>
<path d="M38.9949 32.3483H36.7838V34.5594H38.9949V32.3483Z" fill="#263238"/>
<path d="M38.9949 30.1438H36.7838V32.355H38.9949V30.1438Z" fill="#515B60"/>
<path d="M38.9949 27.9328H36.7838V30.1439H38.9949V27.9328Z" fill="#263238"/>
<path d="M38.9949 25.7216H36.7838V27.9327H38.9949V25.7216Z" fill="#263238"/>
<path d="M38.9949 23.5173H36.7838V25.7284H38.9949V23.5173Z" fill="#263238"/>
<path d="M38.9949 21.3061H36.7838V23.5172H38.9949V21.3061Z" fill="#263238"/>
<path d="M38.9949 19.1017H36.7838V21.3128H38.9949V19.1017Z" fill="#263238"/>
<path d="M38.9949 16.8906H36.7838V19.1017H38.9949V16.8906Z" fill="#515B60"/>
<path d="M38.9949 14.6795H36.7838V16.8906H38.9949V14.6795Z" fill="#263238"/>
<path d="M38.9949 12.4751H36.7838V14.6862H38.9949V12.4751Z" fill="#515B60"/>
<path d="M36.7905 65.4748H34.5793V67.6859H36.7905V65.4748Z" fill="#BCAAA4"/>
<path d="M36.7905 63.2637H34.5793V65.4748H36.7905V63.2637Z" fill="#BCAAA4"/>
<path d="M36.7905 61.0593H34.5793V63.2704H36.7905V61.0593Z" fill="#8D807B"/>
<path d="M36.7905 58.8482H34.5793V61.0593H36.7905V58.8482Z" fill="#8D807B"/>
<path d="M36.7905 56.6438H34.5793V58.8549H36.7905V56.6438Z" fill="#BCAAA4"/>
<path d="M36.7905 54.4327H34.5793V56.6438H36.7905V54.4327Z" fill="#BCAAA4"/>
<path d="M36.7905 52.2282H34.5793V54.4393H36.7905V52.2282Z" fill="#E91E63"/>
<path d="M36.7905 50.0171H34.5793V52.2282H36.7905V50.0171Z" fill="#E91E63"/>
<path d="M36.7905 47.806H34.5793V50.0171H36.7905V47.806Z" fill="#BCAAA4"/>
<path d="M36.7905 45.6016H34.5793V47.8127H36.7905V45.6016Z" fill="#6D4C41"/>
<path d="M36.7905 43.3905H34.5793V45.6016H36.7905V43.3905Z" fill="#BCAAA4"/>
<path d="M36.7905 41.1794H34.5793V43.3905H36.7905V41.1794Z" fill="#8D807B"/>
<path d="M36.7905 38.975H34.5793V41.1861H36.7905V38.975Z" fill="#8D807B"/>
<path d="M36.7905 36.7638H34.5793V38.9749H36.7905V36.7638Z" fill="#8D807B"/>
<path d="M36.7905 34.5595H34.5793V36.7706H36.7905V34.5595Z" fill="#263238"/>
<path d="M36.7905 32.3483H34.5793V34.5594H36.7905V32.3483Z" fill="#515B60"/>
<path d="M36.7905 30.1438H34.5793V32.355H36.7905V30.1438Z" fill="#263238"/>
<path d="M36.7905 27.9328H34.5793V30.1439H36.7905V27.9328Z" fill="#263238"/>
<path d="M36.7905 25.7216H34.5793V27.9327H36.7905V25.7216Z" fill="#263238"/>
<path d="M36.7905 23.5173H34.5793V25.7284H36.7905V23.5173Z" fill="#263238"/>
<path d="M36.7905 21.3061H34.5793V23.5172H36.7905V21.3061Z" fill="#263238"/>
<path d="M36.7905 19.1017H34.5793V21.3128H36.7905V19.1017Z" fill="#515B60"/>
<path d="M36.7905 16.8906H34.5793V19.1017H36.7905V16.8906Z" fill="#263238"/>
<path d="M36.7905 14.6795H34.5793V16.8906H36.7905V14.6795Z" fill="#263238"/>
<path d="M36.7905 12.4751H34.5793V14.6862H36.7905V12.4751Z" fill="#263238"/>
<path d="M34.5794 65.4748H32.3683V67.6859H34.5794V65.4748Z" fill="#BCAAA4"/>
<path d="M34.5794 63.2637H32.3683V65.4748H34.5794V63.2637Z" fill="#BCAAA4"/>
<path d="M34.5794 61.0593H32.3683V63.2704H34.5794V61.0593Z" fill="#BCAAA4"/>
<path d="M34.5794 58.8482H32.3683V61.0593H34.5794V58.8482Z" fill="#8D807B"/>
<path d="M34.5794 56.6438H32.3683V58.8549H34.5794V56.6438Z" fill="#BCAAA4"/>
<path d="M34.5794 54.4327H32.3683V56.6438H34.5794V54.4327Z" fill="#BCAAA4"/>
<path d="M34.5794 52.2282H32.3683V54.4393H34.5794V52.2282Z" fill="#BCAAA4"/>
<path d="M34.5794 50.0171H32.3683V52.2282H34.5794V50.0171Z" fill="#E91E63"/>
<path d="M34.5794 47.806H32.3683V50.0171H34.5794V47.806Z" fill="#BCAAA4"/>
<path d="M34.5794 45.6016H32.3683V47.8127H34.5794V45.6016Z" fill="#BCAAA4"/>
<path d="M34.5794 43.3905H32.3683V45.6016H34.5794V43.3905Z" fill="#BCAAA4"/>
<path d="M34.5794 41.1794H32.3683V43.3905H34.5794V41.1794Z" fill="white"/>
<path d="M34.5794 38.975H32.3683V41.1861H34.5794V38.975Z" fill="#263238"/>
<path d="M34.5794 36.7638H32.3683V38.9749H34.5794V36.7638Z" fill="#8D807B"/>
<path d="M34.5794 34.5595H32.3683V36.7706H34.5794V34.5595Z" fill="#515B60"/>
<path d="M34.5794 32.3483H32.3683V34.5594H34.5794V32.3483Z" fill="#263238"/>
<path d="M34.5794 30.1438H32.3683V32.355H34.5794V30.1438Z" fill="#263238"/>
<path d="M34.5794 27.9328H32.3683V30.1439H34.5794V27.9328Z" fill="#263238"/>
<path d="M34.5794 25.7216H32.3683V27.9327H34.5794V25.7216Z" fill="#263238"/>
<path d="M34.5794 23.5173H32.3683V25.7284H34.5794V23.5173Z" fill="#263238"/>
<path d="M34.5794 21.3061H32.3683V23.5172H34.5794V21.3061Z" fill="#515B60"/>
<path d="M34.5794 19.1017H32.3683V21.3128H34.5794V19.1017Z" fill="#263238"/>
<path d="M34.5794 16.8906H32.3683V19.1017H34.5794V16.8906Z" fill="#263238"/>
<path d="M34.5794 14.6795H32.3683V16.8906H34.5794V14.6795Z" fill="#263238"/>
<path d="M34.5794 12.4751H32.3683V14.6862H34.5794V12.4751Z" fill="#263238"/>
<path d="M32.3749 65.4748H30.1638V67.6859H32.3749V65.4748Z" fill="#BCAAA4"/>
<path d="M32.3749 56.6438H30.1638V58.8549H32.3749V56.6438Z" fill="#BCAAA4"/>
<path d="M32.3749 54.4327H30.1638V56.6438H32.3749V54.4327Z" fill="#BCAAA4"/>
<path d="M32.3749 52.2282H30.1638V54.4393H32.3749V52.2282Z" fill="#BCAAA4"/>
<path d="M32.3749 50.0171H30.1638V52.2282H32.3749V50.0171Z" fill="#BCAAA4"/>
<path d="M32.3749 47.806H30.1638V50.0171H32.3749V47.806Z" fill="#BCAAA4"/>
<path d="M32.3749 45.6016H30.1638V47.8127H32.3749V45.6016Z" fill="#BCAAA4"/>
<path d="M32.3749 43.3905H30.1638V45.6016H32.3749V43.3905Z" fill="#BCAAA4"/>
<path d="M32.3749 41.1794H30.1638V43.3905H32.3749V41.1794Z" fill="#263238"/>
<path d="M32.3749 38.975H30.1638V41.1861H32.3749V38.975Z" fill="#263238"/>
<path d="M32.3749 36.7638H30.1638V38.9749H32.3749V36.7638Z" fill="#8D807B"/>
<path d="M32.3749 34.5595H30.1638V36.7706H32.3749V34.5595Z" fill="#515B60"/>
<path d="M32.3749 32.3483H30.1638V34.5594H32.3749V32.3483Z" fill="#263238"/>
<path d="M32.3749 30.1438H30.1638V32.355H32.3749V30.1438Z" fill="#263238"/>
<path d="M32.3749 27.9328H30.1638V30.1439H32.3749V27.9328Z" fill="#263238"/>
<path d="M32.3749 25.7216H30.1638V27.9327H32.3749V25.7216Z" fill="#263238"/>
<path d="M32.3749 23.5173H30.1638V25.7284H32.3749V23.5173Z" fill="#515B60"/>
<path d="M32.3749 21.3061H30.1638V23.5172H32.3749V21.3061Z" fill="#263238"/>
<path d="M32.3749 19.1017H30.1638V21.3128H32.3749V19.1017Z" fill="#263238"/>
<path d="M32.3749 16.8906H30.1638V19.1017H32.3749V16.8906Z" fill="#263238"/>
<path d="M32.3749 14.6795H30.1638V16.8906H32.3749V14.6795Z" fill="#263238"/>
<path d="M30.1639 58.8482H27.9528V61.0593H30.1639V58.8482Z" fill="#263238"/>
<path d="M30.1639 56.6438H27.9528V58.8549H30.1639V56.6438Z" fill="#BCAAA4"/>
<path d="M30.1639 54.4327H27.9528V56.6438H30.1639V54.4327Z" fill="#BCAAA4"/>
<path d="M30.1639 52.2282H27.9528V54.4393H30.1639V52.2282Z" fill="#BCAAA4"/>
<path d="M30.1639 50.0171H27.9528V52.2282H30.1639V50.0171Z" fill="#FFCCBC"/>
<path d="M30.1639 47.806H27.9528V50.0171H30.1639V47.806Z" fill="#FFCCBC"/>
<path d="M30.1639 45.6016H27.9528V47.8127H30.1639V45.6016Z" fill="#BCAAA4"/>
<path d="M30.1639 43.3905H27.9528V45.6016H30.1639V43.3905Z" fill="#BCAAA4"/>
<path d="M30.1639 41.1794H27.9528V43.3905H30.1639V41.1794Z" fill="white"/>
<path d="M30.1639 38.975H27.9528V41.1861H30.1639V38.975Z" fill="#263238"/>
<path d="M30.1639 36.7638H27.9528V38.9749H30.1639V36.7638Z" fill="#8D807B"/>
<path d="M30.1639 34.5595H27.9528V36.7706H30.1639V34.5595Z" fill="#515B60"/>
<path d="M30.1639 32.3483H27.9528V34.5594H30.1639V32.3483Z" fill="#263238"/>
<path d="M30.1639 30.1438H27.9528V32.355H30.1639V30.1438Z" fill="#263238"/>
<path d="M30.1639 27.9328H27.9528V30.1439H30.1639V27.9328Z" fill="#263238"/>
<path d="M30.1639 25.7216H27.9528V27.9327H30.1639V25.7216Z" fill="#515B60"/>
<path d="M30.1639 23.5173H27.9528V25.7284H30.1639V23.5173Z" fill="#263238"/>
<path d="M30.1639 21.3061H27.9528V23.5172H30.1639V21.3061Z" fill="#263238"/>
<path d="M30.1639 19.1017H27.9528V21.3128H30.1639V19.1017Z" fill="#263238"/>
<path d="M30.1639 16.8906H27.9528V19.1017H30.1639V16.8906Z" fill="#263238"/>
<path d="M27.9594 61.0593H25.7483V63.2704H27.9594V61.0593Z" fill="#263238"/>
<path d="M27.9594 58.8482H25.7483V61.0593H27.9594V58.8482Z" fill="#263238"/>
<path d="M27.9594 56.6438H25.7483V58.8549H27.9594V56.6438Z" fill="#263238"/>
<path d="M27.9594 54.4327H25.7483V56.6438H27.9594V54.4327Z" fill="#BCAAA4"/>
<path d="M27.9594 52.2282H25.7483V54.4393H27.9594V52.2282Z" fill="#BCAAA4"/>
<path d="M27.9594 50.0171H25.7483V52.2282H27.9594V50.0171Z" fill="#FFCCBC"/>
<path d="M27.9594 47.806H25.7483V50.0171H27.9594V47.806Z" fill="#FFCCBC"/>
<path d="M27.9594 45.6016H25.7483V47.8127H27.9594V45.6016Z" fill="#BCAAA4"/>
<path d="M27.9594 43.3905H25.7483V45.6016H27.9594V43.3905Z" fill="#BCAAA4"/>
<path d="M27.9594 41.1794H25.7483V43.3905H27.9594V41.1794Z" fill="white"/>
<path d="M27.9594 38.975H25.7483V41.1861H27.9594V38.975Z" fill="#263238"/>
<path d="M27.9594 36.7638H25.7483V38.9749H27.9594V36.7638Z" fill="#8D807B"/>
<path d="M27.9594 34.5595H25.7483V36.7706H27.9594V34.5595Z" fill="#515B60"/>
<path d="M27.9594 32.3483H25.7483V34.5594H27.9594V32.3483Z" fill="#263238"/>
<path d="M27.9594 30.1438H25.7483V32.355H27.9594V30.1438Z" fill="#263238"/>
<path d="M27.9594 27.9328H25.7483V30.1439H27.9594V27.9328Z" fill="#515B60"/>
<path d="M27.9594 25.7216H25.7483V27.9327H27.9594V25.7216Z" fill="#263238"/>
<path d="M27.9594 23.5173H25.7483V25.7284H27.9594V23.5173Z" fill="#263238"/>
<path d="M27.9594 21.3061H25.7483V23.5172H27.9594V21.3061Z" fill="#263238"/>
<path d="M27.9594 19.1017H25.7483V21.3128H27.9594V19.1017Z" fill="#263238"/>
<path d="M25.7483 63.2637H23.5372V65.4748H25.7483V63.2637Z" fill="#515B60"/>
<path d="M25.7483 61.0593H23.5372V63.2704H25.7483V61.0593Z" fill="#515B60"/>
<path d="M25.7483 58.8482H23.5372V61.0593H25.7483V58.8482Z" fill="#515B60"/>
<path d="M25.7483 56.6438H23.5372V58.8549H25.7483V56.6438Z" fill="#515B60"/>
<path d="M25.7483 54.4327H23.5372V56.6438H25.7483V54.4327Z" fill="#515B60"/>
<path d="M25.7483 52.2282H23.5372V54.4393H25.7483V52.2282Z" fill="#BCAAA4"/>
<path d="M25.7483 50.0171H23.5372V52.2282H25.7483V50.0171Z" fill="#BCAAA4"/>
<path d="M25.7483 47.806H23.5372V50.0171H25.7483V47.806Z" fill="#BCAAA4"/>
<path d="M25.7483 45.6016H23.5372V47.8127H25.7483V45.6016Z" fill="#BCAAA4"/>
<path d="M25.7483 43.3905H23.5372V45.6016H25.7483V43.3905Z" fill="#BCAAA4"/>
<path d="M25.7483 41.1794H23.5372V43.3905H25.7483V41.1794Z" fill="#263238"/>
<path d="M25.7483 38.975H23.5372V41.1861H25.7483V38.975Z" fill="#8D807B"/>
<path d="M25.7483 36.7638H23.5372V38.9749H25.7483V36.7638Z" fill="#8D807B"/>
<path d="M25.7483 34.5595H23.5372V36.7706H25.7483V34.5595Z" fill="#515B60"/>
<path d="M25.7483 32.3483H23.5372V34.5594H25.7483V32.3483Z" fill="#263238"/>
<path d="M25.7483 30.1438H23.5372V32.355H25.7483V30.1438Z" fill="#515B60"/>
<path d="M25.7483 27.9328H23.5372V30.1439H25.7483V27.9328Z" fill="#263238"/>
<path d="M25.7483 25.7216H23.5372V27.9327H25.7483V25.7216Z" fill="#263238"/>
<path d="M25.7483 23.5173H23.5372V25.7284H25.7483V23.5173Z" fill="#263238"/>
<path d="M25.7483 21.3061H23.5372V23.5172H25.7483V21.3061Z" fill="#263238"/>
<path d="M23.5372 65.4748H21.326V67.6859H23.5372V65.4748Z" fill="#515B60"/>
<path d="M23.5372 63.2637H21.326V65.4748H23.5372V63.2637Z" fill="#263238"/>
<path d="M23.5372 61.0593H21.326V63.2704H23.5372V61.0593Z" fill="#263238"/>
<path d="M23.5372 58.8482H21.326V61.0593H23.5372V58.8482Z" fill="#263238"/>
<path d="M23.5372 56.6438H21.326V58.8549H23.5372V56.6438Z" fill="#263238"/>
<path d="M23.5372 54.4327H21.326V56.6438H23.5372V54.4327Z" fill="#263238"/>
<path d="M23.5372 52.2282H21.326V54.4393H23.5372V52.2282Z" fill="#263238"/>
<path d="M23.5372 50.0171H21.326V52.2282H23.5372V50.0171Z" fill="#263238"/>
<path d="M23.5372 47.806H21.326V50.0171H23.5372V47.806Z" fill="#BCAAA4"/>
<path d="M23.5372 45.6016H21.326V47.8127H23.5372V45.6016Z" fill="#8D807B"/>
<path d="M23.5372 43.3905H21.326V45.6016H23.5372V43.3905Z" fill="#8D807B"/>
<path d="M23.5372 41.1794H21.326V43.3905H23.5372V41.1794Z" fill="#8D807B"/>
<path d="M23.5372 38.975H21.326V41.1861H23.5372V38.975Z" fill="#BCAAA4"/>
<path d="M23.5372 36.7638H21.326V38.9749H23.5372V36.7638Z" fill="#263238"/>
<path d="M23.5372 34.5595H21.326V36.7706H23.5372V34.5595Z" fill="#515B60"/>
<path d="M23.5372 32.3483H21.326V34.5594H23.5372V32.3483Z" fill="#515B60"/>
<path d="M23.5372 30.1438H21.326V32.355H23.5372V30.1438Z" fill="#263238"/>
<path d="M23.5372 27.9328H21.326V30.1439H23.5372V27.9328Z" fill="#263238"/>
<path d="M23.5372 25.7216H21.326V27.9327H23.5372V25.7216Z" fill="#263238"/>
<path d="M23.5372 23.5173H21.326V25.7284H23.5372V23.5173Z" fill="#263238"/>
<path d="M21.3328 47.806H19.1217V50.0171H21.3328V47.806Z" fill="#BCAAA4"/>
<path d="M21.3328 45.6016H19.1217V47.8127H21.3328V45.6016Z" fill="#BCAAA4"/>
<path d="M21.3328 43.3905H19.1217V45.6016H21.3328V43.3905Z" fill="#BCAAA4"/>
<path d="M21.3328 41.1794H19.1217V43.3905H21.3328V41.1794Z" fill="#8D807B"/>
<path d="M21.3328 38.975H19.1217V41.1861H21.3328V38.975Z" fill="#BCAAA4"/>
<path d="M19.1218 45.6016H16.9106V47.8127H19.1218V45.6016Z" fill="#BCAAA4"/>
<path d="M19.1218 43.3905H16.9106V45.6016H19.1218V43.3905Z" fill="#BCAAA4"/>
<path d="M19.1218 41.1794H16.9106V43.3905H19.1218V41.1794Z" fill="#BCAAA4"/>
</svg>
