<svg width="78" height="81" viewBox="0 0 78 81" fill="none" xmlns="http://www.w3.org/2000/svg">
<rect x="0.0100098" width="77.9899" height="80.161" rx="5.34406" fill="#C7BE95"/>
<path d="M74.3393 29.0383H72.1282V31.2494H74.3393V29.0383Z" fill="#26A69A"/>
<path d="M74.3393 26.8339H72.1282V29.045H74.3393V26.8339Z" fill="#26A69A"/>
<path d="M72.1348 31.2494H69.9237V33.4605H72.1348V31.2494Z" fill="#FFCC80"/>
<path d="M72.1348 29.0383H69.9237V31.2494H72.1348V29.0383Z" fill="#26A69A"/>
<path d="M72.1348 26.8339H69.9237V29.045H72.1348V26.8339Z" fill="#26A69A"/>
<path d="M69.9238 33.4539H67.7126V35.665H69.9238V33.4539Z" fill="#FFCC80"/>
<path d="M69.9238 31.2494H67.7126V33.4605H69.9238V31.2494Z" fill="#FFCC80"/>
<path d="M69.9238 29.0383H67.7126V31.2494H69.9238V29.0383Z" fill="#FFCC80"/>
<path d="M69.9238 26.8339H67.7126V29.045H69.9238V26.8339Z" fill="#26A69A"/>
<path d="M67.7193 33.4539H65.5082V35.665H67.7193V33.4539Z" fill="#FFCC80"/>
<path d="M67.7193 31.2494H65.5082V33.4605H67.7193V31.2494Z" fill="#FFCC80"/>
<path d="M67.7193 29.0383H65.5082V31.2494H67.7193V29.0383Z" fill="#26A69A"/>
<path d="M67.7193 26.8339H65.5082V29.045H67.7193V26.8339Z" fill="#26A69A"/>
<path d="M65.5082 33.4539H63.2971V35.665H65.5082V33.4539Z" fill="#FFCC80"/>
<path d="M65.5082 31.2494H63.2971V33.4605H65.5082V31.2494Z" fill="#26A69A"/>
<path d="M65.5082 29.0383H63.2971V31.2494H65.5082V29.0383Z" fill="#26A69A"/>
<path d="M65.5082 26.8339H63.2971V29.045H65.5082V26.8339Z" fill="#26A69A"/>
<path d="M63.297 33.4539H61.0859V35.665H63.297V33.4539Z" fill="#FFCC80"/>
<path d="M63.297 31.2494H61.0859V33.4605H63.297V31.2494Z" fill="#FFCC80"/>
<path d="M63.297 29.0383H61.0859V31.2494H63.297V29.0383Z" fill="#26A69A"/>
<path d="M63.297 26.8339H61.0859V29.045H63.297V26.8339Z" fill="#26A69A"/>
<path d="M61.0927 44.5027H58.8816V46.7138H61.0927V44.5027Z" fill="#FFAB91"/>
<path d="M61.0927 42.2916H58.8816V44.5027H61.0927V42.2916Z" fill="#FFAB91"/>
<path d="M61.0927 40.0805H58.8816V42.2916H61.0927V40.0805Z" fill="#FFAB91"/>
<path d="M61.0927 33.4539H58.8816V35.665H61.0927V33.4539Z" fill="#FFCC80"/>
<path d="M61.0927 31.2494H58.8816V33.4605H61.0927V31.2494Z" fill="#FFCC80"/>
<path d="M61.0927 29.0383H58.8816V31.2494H61.0927V29.0383Z" fill="#FFCC80"/>
<path d="M61.0927 26.8339H58.8816V29.045H61.0927V26.8339Z" fill="#26A69A"/>
<path d="M58.8815 46.7072H56.6704V48.9183H58.8815V46.7072Z" fill="#FFAB91"/>
<path d="M58.8815 44.5027H56.6704V46.7138H58.8815V44.5027Z" fill="#FFAB91"/>
<path d="M58.8815 42.2916H56.6704V44.5027H58.8815V42.2916Z" fill="#FFAB91"/>
<path d="M58.8815 40.0805H56.6704V42.2916H58.8815V40.0805Z" fill="#FF8A65"/>
<path d="M58.8815 37.8694H56.6704V40.0805H58.8815V37.8694Z" fill="#FFAB91"/>
<path d="M58.8815 33.4539H56.6704V35.665H58.8815V33.4539Z" fill="#FFCC80"/>
<path d="M58.8815 31.2494H56.6704V33.4605H58.8815V31.2494Z" fill="#FFCC80"/>
<path d="M58.8815 29.0383H56.6704V31.2494H58.8815V29.0383Z" fill="#26A69A"/>
<path d="M58.8815 26.8339H56.6704V29.045H58.8815V26.8339Z" fill="#26A69A"/>
<path d="M56.6705 46.7072H54.4594V48.9183H56.6705V46.7072Z" fill="#FFAB91"/>
<path d="M56.6705 44.5027H54.4594V46.7138H56.6705V44.5027Z" fill="#FF8A65"/>
<path d="M56.6705 42.2916H54.4594V44.5027H56.6705V42.2916Z" fill="#FF8A65"/>
<path d="M56.6705 40.0805H54.4594V42.2916H56.6705V40.0805Z" fill="#FF8A65"/>
<path d="M56.6705 37.8694H54.4594V40.0805H56.6705V37.8694Z" fill="#FFAB91"/>
<path d="M56.6705 35.665H54.4594V37.8761H56.6705V35.665Z" fill="#5D4037"/>
<path d="M56.6705 33.4539H54.4594V35.665H56.6705V33.4539Z" fill="#FFCC80"/>
<path d="M56.6705 31.2494H54.4594V33.4605H56.6705V31.2494Z" fill="#26A69A"/>
<path d="M56.6705 29.0383H54.4594V31.2494H56.6705V29.0383Z" fill="#26A69A"/>
<path d="M56.6705 26.8339H54.4594V29.045H56.6705V26.8339Z" fill="#26A69A"/>
<path d="M54.466 53.3337H52.2549V55.5448H54.466V53.3337Z" fill="#FFAB91"/>
<path d="M54.466 51.1227H52.2549V53.3338H54.466V51.1227Z" fill="#FFAB91"/>
<path d="M54.466 48.9182H52.2549V51.1293H54.466V48.9182Z" fill="#FFAB91"/>
<path d="M54.466 46.7072H52.2549V48.9183H54.466V46.7072Z" fill="#FFAB91"/>
<path d="M54.466 44.5027H52.2549V46.7138H54.466V44.5027Z" fill="#FFAB91"/>
<path d="M54.466 42.2916H52.2549V44.5027H54.466V42.2916Z" fill="#FFAB91"/>
<path d="M54.466 40.0805H52.2549V42.2916H54.466V40.0805Z" fill="#FFAB91"/>
<path d="M54.466 37.8694H52.2549V40.0805H54.466V37.8694Z" fill="#FFAB91"/>
<path d="M54.466 35.665H52.2549V37.8761H54.466V35.665Z" fill="#BF806D"/>
<path d="M54.466 33.4539H52.2549V35.665H54.466V33.4539Z" fill="#FFCC80"/>
<path d="M54.466 31.2494H52.2549V33.4605H54.466V31.2494Z" fill="#FFCC80"/>
<path d="M54.466 29.0383H52.2549V31.2494H54.466V29.0383Z" fill="#26A69A"/>
<path d="M54.466 26.8339H52.2549V29.045H54.466V26.8339Z" fill="#26A69A"/>
<path d="M54.466 24.6228H52.2549V26.8339H54.466V24.6228Z" fill="#BF9960"/>
<path d="M52.2549 55.5382H50.0438V57.7493H52.2549V55.5382Z" fill="#FFAB91"/>
<path d="M52.2549 53.3337H50.0438V55.5448H52.2549V53.3337Z" fill="#FFAB91"/>
<path d="M52.2549 51.1227H50.0438V53.3338H52.2549V51.1227Z" fill="#4E342E"/>
<path d="M52.2549 48.9182H50.0438V51.1293H52.2549V48.9182Z" fill="#FFAB91"/>
<path d="M52.2549 46.7072H50.0438V48.9183H52.2549V46.7072Z" fill="#FFAB91"/>
<path d="M52.2549 44.5027H50.0438V46.7138H52.2549V44.5027Z" fill="#FFAB91"/>
<path d="M52.2549 42.2916H50.0438V44.5027H52.2549V42.2916Z" fill="#FFAB91"/>
<path d="M52.2549 40.0805H50.0438V42.2916H52.2549V40.0805Z" fill="#FF8A65"/>
<path d="M52.2549 37.8694H50.0438V40.0805H52.2549V37.8694Z" fill="#4E342E"/>
<path d="M52.2549 35.665H50.0438V37.8761H52.2549V35.665Z" fill="#BF806D"/>
<path d="M52.2549 33.4539H50.0438V35.665H52.2549V33.4539Z" fill="#FFCC80"/>
<path d="M52.2549 31.2494H50.0438V33.4605H52.2549V31.2494Z" fill="#FFCC80"/>
<path d="M52.2549 29.0383H50.0438V31.2494H52.2549V29.0383Z" fill="#FFCC80"/>
<path d="M52.2549 26.8339H50.0438V29.045H52.2549V26.8339Z" fill="#26A69A"/>
<path d="M52.2549 24.6228H50.0438V26.8339H52.2549V24.6228Z" fill="#BF9960"/>
<path d="M52.2549 22.4184H50.0438V24.6295H52.2549V22.4184Z" fill="#FFCC80"/>
<path d="M50.0506 57.7493H47.8395V59.9605H50.0506V57.7493Z" fill="#FFAB91"/>
<path d="M50.0506 55.5382H47.8395V57.7493H50.0506V55.5382Z" fill="#FFAB91"/>
<path d="M50.0506 53.3337H47.8395V55.5448H50.0506V53.3337Z" fill="#FFAB91"/>
<path d="M50.0506 51.1227H47.8395V53.3338H50.0506V51.1227Z" fill="#4E342E"/>
<path d="M50.0506 48.9182H47.8395V51.1293H50.0506V48.9182Z" fill="#4E342E"/>
<path d="M50.0506 46.7072H47.8395V48.9183H50.0506V46.7072Z" fill="#FFAB91"/>
<path d="M50.0506 44.5027H47.8395V46.7138H50.0506V44.5027Z" fill="#FFAB91"/>
<path d="M50.0506 42.2916H47.8395V44.5027H50.0506V42.2916Z" fill="white"/>
<path d="M50.0506 40.0805H47.8395V42.2916H50.0506V40.0805Z" fill="white"/>
<path d="M50.0506 37.8694H47.8395V40.0805H50.0506V37.8694Z" fill="#4E342E"/>
<path d="M50.0506 35.665H47.8395V37.8761H50.0506V35.665Z" fill="#BF806D"/>
<path d="M50.0506 33.4539H47.8395V35.665H50.0506V33.4539Z" fill="#FFCC80"/>
<path d="M50.0506 31.2494H47.8395V33.4605H50.0506V31.2494Z" fill="#FFCC80"/>
<path d="M50.0506 29.0383H47.8395V31.2494H50.0506V29.0383Z" fill="#26A69A"/>
<path d="M50.0506 26.8339H47.8395V29.045H50.0506V26.8339Z" fill="#26A69A"/>
<path d="M50.0506 24.6228H47.8395V26.8339H50.0506V24.6228Z" fill="#BF9960"/>
<path d="M50.0506 22.4184H47.8395V24.6295H50.0506V22.4184Z" fill="#FFCC80"/>
<path d="M50.0506 20.2072H47.8395V22.4184H50.0506V20.2072Z" fill="#FFCC80"/>
<path d="M47.8395 66.5804H45.6284V68.7915H47.8395V66.5804Z" fill="#FFAB91"/>
<path d="M47.8395 57.7493H45.6284V59.9605H47.8395V57.7493Z" fill="#FFAB91"/>
<path d="M47.8395 55.5382H45.6284V57.7493H47.8395V55.5382Z" fill="#FFAB91"/>
<path d="M47.8395 53.3337H45.6284V55.5448H47.8395V53.3337Z" fill="#FFAB91"/>
<path d="M47.8395 51.1227H45.6284V53.3338H47.8395V51.1227Z" fill="#4E342E"/>
<path d="M47.8395 48.9182H45.6284V51.1293H47.8395V48.9182Z" fill="#4E342E"/>
<path d="M47.8395 46.7072H45.6284V48.9183H47.8395V46.7072Z" fill="#4E342E"/>
<path d="M47.8395 44.5027H45.6284V46.7138H47.8395V44.5027Z" fill="#FFAB91"/>
<path d="M47.8395 42.2916H45.6284V44.5027H47.8395V42.2916Z" fill="white"/>
<path d="M47.8395 40.0805H45.6284V42.2916H47.8395V40.0805Z" fill="#263238"/>
<path d="M47.8395 37.8694H45.6284V40.0805H47.8395V37.8694Z" fill="#4E342E"/>
<path d="M47.8395 35.665H45.6284V37.8761H47.8395V35.665Z" fill="#BF806D"/>
<path d="M47.8395 33.4539H45.6284V35.665H47.8395V33.4539Z" fill="#FFCC80"/>
<path d="M47.8395 31.2494H45.6284V33.4605H47.8395V31.2494Z" fill="#26A69A"/>
<path d="M47.8395 29.0383H45.6284V31.2494H47.8395V29.0383Z" fill="#26A69A"/>
<path d="M47.8395 26.8339H45.6284V29.045H47.8395V26.8339Z" fill="#26A69A"/>
<path d="M47.8395 24.6228H45.6284V26.8339H47.8395V24.6228Z" fill="#BF9960"/>
<path d="M47.8395 22.4184H45.6284V24.6295H47.8395V22.4184Z" fill="#FFCC80"/>
<path d="M47.8395 20.2072H45.6284V22.4184H47.8395V20.2072Z" fill="#FFCC80"/>
<path d="M47.8395 17.9962H45.6284V20.2073H47.8395V17.9962Z" fill="#FFCC80"/>
<path d="M45.6351 66.5804H43.424V68.7915H45.6351V66.5804Z" fill="#FFAB91"/>
<path d="M45.6351 64.3759H43.424V66.587H45.6351V64.3759Z" fill="#FFAB91"/>
<path d="M45.6351 62.1649H43.424V64.376H45.6351V62.1649Z" fill="#FFAB91"/>
<path d="M45.6351 59.9537H43.424V62.1648H45.6351V59.9537Z" fill="#FF8A65"/>
<path d="M45.6351 57.7493H43.424V59.9605H45.6351V57.7493Z" fill="#FFAB91"/>
<path d="M45.6351 55.5382H43.424V57.7493H45.6351V55.5382Z" fill="#FFAB91"/>
<path d="M45.6351 53.3337H43.424V55.5448H45.6351V53.3337Z" fill="#FFAB91"/>
<path d="M45.6351 51.1227H43.424V53.3338H45.6351V51.1227Z" fill="#4E342E"/>
<path d="M45.6351 48.9182H43.424V51.1293H45.6351V48.9182Z" fill="#4E342E"/>
<path d="M45.6351 46.7072H43.424V48.9183H45.6351V46.7072Z" fill="#4E342E"/>
<path d="M45.6351 44.5027H43.424V46.7138H45.6351V44.5027Z" fill="#FFAB91"/>
<path d="M45.6351 42.2916H43.424V44.5027H45.6351V42.2916Z" fill="white"/>
<path d="M45.6351 40.0805H43.424V42.2916H45.6351V40.0805Z" fill="white"/>
<path d="M45.6351 37.8694H43.424V40.0805H45.6351V37.8694Z" fill="#4E342E"/>
<path d="M45.6351 35.665H43.424V37.8761H45.6351V35.665Z" fill="#BF806D"/>
<path d="M45.6351 33.4539H43.424V35.665H45.6351V33.4539Z" fill="#FFCC80"/>
<path d="M45.6351 31.2494H43.424V33.4605H45.6351V31.2494Z" fill="#FFCC80"/>
<path d="M45.6351 29.0383H43.424V31.2494H45.6351V29.0383Z" fill="#26A69A"/>
<path d="M45.6351 26.8339H43.424V29.045H45.6351V26.8339Z" fill="#26A69A"/>
<path d="M45.6351 24.6228H43.424V26.8339H45.6351V24.6228Z" fill="#BF9960"/>
<path d="M45.6351 22.4184H43.424V24.6295H45.6351V22.4184Z" fill="#FFCC80"/>
<path d="M45.6351 20.2072H43.424V22.4184H45.6351V20.2072Z" fill="#FFCC80"/>
<path d="M45.6351 17.9962H43.424V20.2073H45.6351V17.9962Z" fill="#FFCC80"/>
<path d="M45.6351 15.7917H43.424V18.0028H45.6351V15.7917Z" fill="#FFCC80"/>
<path d="M43.4239 66.5804H41.2128V68.7915H43.4239V66.5804Z" fill="#FFAB91"/>
<path d="M43.4239 64.3759H41.2128V66.587H43.4239V64.3759Z" fill="#FFAB91"/>
<path d="M43.4239 62.1649H41.2128V64.376H43.4239V62.1649Z" fill="#FF8A65"/>
<path d="M43.4239 59.9537H41.2128V62.1648H43.4239V59.9537Z" fill="#FF8A65"/>
<path d="M43.4239 57.7493H41.2128V59.9605H43.4239V57.7493Z" fill="#FFAB91"/>
<path d="M43.4239 55.5382H41.2128V57.7493H43.4239V55.5382Z" fill="#FFAB91"/>
<path d="M43.4239 53.3337H41.2128V55.5448H43.4239V53.3337Z" fill="#FF8A65"/>
<path d="M43.4239 51.1227H41.2128V53.3338H43.4239V51.1227Z" fill="#4E342E"/>
<path d="M43.4239 48.9182H41.2128V51.1293H43.4239V48.9182Z" fill="#4E342E"/>
<path d="M43.4239 46.7072H41.2128V48.9183H43.4239V46.7072Z" fill="#FF8A65"/>
<path d="M43.4239 44.5027H41.2128V46.7138H43.4239V44.5027Z" fill="#FFAB91"/>
<path d="M43.4239 42.2916H41.2128V44.5027H43.4239V42.2916Z" fill="#FFAB91"/>
<path d="M43.4239 40.0805H41.2128V42.2916H43.4239V40.0805Z" fill="#FFAB91"/>
<path d="M43.4239 37.8694H41.2128V40.0805H43.4239V37.8694Z" fill="#FF8A65"/>
<path d="M43.4239 35.665H41.2128V37.8761H43.4239V35.665Z" fill="#463029"/>
<path d="M43.4239 33.4539H41.2128V35.665H43.4239V33.4539Z" fill="#FFCC80"/>
<path d="M43.4239 31.2494H41.2128V33.4605H43.4239V31.2494Z" fill="#FFCC80"/>
<path d="M43.4239 29.0383H41.2128V31.2494H43.4239V29.0383Z" fill="#FFCC80"/>
<path d="M43.4239 26.8339H41.2128V29.045H43.4239V26.8339Z" fill="#26A69A"/>
<path d="M43.4239 24.6228H41.2128V26.8339H43.4239V24.6228Z" fill="#BF9960"/>
<path d="M43.4239 22.4184H41.2128V24.6295H43.4239V22.4184Z" fill="#FFCC80"/>
<path d="M43.4239 20.2072H41.2128V22.4184H43.4239V20.2072Z" fill="#FFCC80"/>
<path d="M43.4239 17.9962H41.2128V20.2073H43.4239V17.9962Z" fill="#FFCC80"/>
<path d="M43.4239 15.7917H41.2128V18.0028H43.4239V15.7917Z" fill="#FFCC80"/>
<path d="M43.4239 13.5807H41.2128V15.7918H43.4239V13.5807Z" fill="#FFCC80"/>
<path d="M41.2128 66.5804H39.0017V68.7915H41.2128V66.5804Z" fill="#FFAB91"/>
<path d="M41.2128 64.3759H39.0017V66.587H41.2128V64.3759Z" fill="#FF8A65"/>
<path d="M41.2128 62.1649H39.0017V64.376H41.2128V62.1649Z" fill="#FF8A65"/>
<path d="M41.2128 59.9537H39.0017V62.1648H41.2128V59.9537Z" fill="#FF8A65"/>
<path d="M41.2128 57.7493H39.0017V59.9605H41.2128V57.7493Z" fill="#FFAB91"/>
<path d="M41.2128 55.5382H39.0017V57.7493H41.2128V55.5382Z" fill="#FFAB91"/>
<path d="M41.2128 53.3337H39.0017V55.5448H41.2128V53.3337Z" fill="#FF8A65"/>
<path d="M41.2128 51.1227H39.0017V53.3338H41.2128V51.1227Z" fill="#4E342E"/>
<path d="M41.2128 48.9182H39.0017V51.1293H41.2128V48.9182Z" fill="#4E342E"/>
<path d="M41.2128 46.7072H39.0017V48.9183H41.2128V46.7072Z" fill="#FF8A65"/>
<path d="M41.2128 44.5027H39.0017V46.7138H41.2128V44.5027Z" fill="#FF8A65"/>
<path d="M41.2128 42.2916H39.0017V44.5027H41.2128V42.2916Z" fill="#FF8A65"/>
<path d="M41.2128 40.0805H39.0017V42.2916H41.2128V40.0805Z" fill="#FF8A65"/>
<path d="M41.2128 37.8694H39.0017V40.0805H41.2128V37.8694Z" fill="#FFAB91"/>
<path d="M41.2128 35.665H39.0017V37.8761H41.2128V35.665Z" fill="#BF806D"/>
<path d="M41.2128 33.4539H39.0017V35.665H41.2128V33.4539Z" fill="#FFCC80"/>
<path d="M41.2128 31.2494H39.0017V33.4605H41.2128V31.2494Z" fill="#FFCC80"/>
<path d="M41.2128 29.0383H39.0017V31.2494H41.2128V29.0383Z" fill="#26A69A"/>
<path d="M41.2128 26.8339H39.0017V29.045H41.2128V26.8339Z" fill="#26A69A"/>
<path d="M41.2128 24.6228H39.0017V26.8339H41.2128V24.6228Z" fill="#BF9960"/>
<path d="M41.2128 22.4184H39.0017V24.6295H41.2128V22.4184Z" fill="#FFCC80"/>
<path d="M41.2128 20.2072H39.0017V22.4184H41.2128V20.2072Z" fill="#FFCC80"/>
<path d="M41.2128 17.9962H39.0017V20.2073H41.2128V17.9962Z" fill="#FFCC80"/>
<path d="M41.2128 15.7917H39.0017V18.0028H41.2128V15.7917Z" fill="#FFCC80"/>
<path d="M41.2128 13.5807H39.0017V15.7918H41.2128V13.5807Z" fill="#FFCC80"/>
<path d="M41.2128 11.3695H39.0017V13.5806H41.2128V11.3695Z" fill="#FFCC80"/>
<path d="M39.0083 66.5804H36.7972V68.7915H39.0083V66.5804Z" fill="#FFAB91"/>
<path d="M39.0083 64.3759H36.7972V66.587H39.0083V64.3759Z" fill="#FF8A65"/>
<path d="M39.0083 62.1649H36.7972V64.376H39.0083V62.1649Z" fill="#FF8A65"/>
<path d="M39.0083 59.9537H36.7972V62.1648H39.0083V59.9537Z" fill="#FF8A65"/>
<path d="M39.0083 57.7493H36.7972V59.9605H39.0083V57.7493Z" fill="#FFAB91"/>
<path d="M39.0083 55.5382H36.7972V57.7493H39.0083V55.5382Z" fill="#FFAB91"/>
<path d="M39.0083 53.3337H36.7972V55.5448H39.0083V53.3337Z" fill="#FF8A65"/>
<path d="M39.0083 51.1227H36.7972V53.3338H39.0083V51.1227Z" fill="#4E342E"/>
<path d="M39.0083 48.9182H36.7972V51.1293H39.0083V48.9182Z" fill="#4E342E"/>
<path d="M39.0083 46.7072H36.7972V48.9183H39.0083V46.7072Z" fill="#FF8A65"/>
<path d="M39.0083 44.5027H36.7972V46.7138H39.0083V44.5027Z" fill="#FF8A65"/>
<path d="M39.0083 42.2916H36.7972V44.5027H39.0083V42.2916Z" fill="#FF8A65"/>
<path d="M39.0083 40.0805H36.7972V42.2916H39.0083V40.0805Z" fill="#FF8A65"/>
<path d="M39.0083 37.8694H36.7972V40.0805H39.0083V37.8694Z" fill="#FFAB91"/>
<path d="M39.0083 35.665H36.7972V37.8761H39.0083V35.665Z" fill="#BF806D"/>
<path d="M39.0083 33.4539H36.7972V35.665H39.0083V33.4539Z" fill="#FFCC80"/>
<path d="M39.0083 31.2494H36.7972V33.4605H39.0083V31.2494Z" fill="#26A69A"/>
<path d="M39.0083 29.0383H36.7972V31.2494H39.0083V29.0383Z" fill="#26A69A"/>
<path d="M39.0083 26.8339H36.7972V29.045H39.0083V26.8339Z" fill="#26A69A"/>
<path d="M39.0083 24.6228H36.7972V26.8339H39.0083V24.6228Z" fill="#BF9960"/>
<path d="M39.0083 22.4184H36.7972V24.6295H39.0083V22.4184Z" fill="#FFCC80"/>
<path d="M39.0083 20.2072H36.7972V22.4184H39.0083V20.2072Z" fill="#FFCC80"/>
<path d="M39.0083 17.9962H36.7972V20.2073H39.0083V17.9962Z" fill="#FFCC80"/>
<path d="M39.0083 15.7917H36.7972V18.0028H39.0083V15.7917Z" fill="#FFCC80"/>
<path d="M39.0083 13.5807H36.7972V15.7918H39.0083V13.5807Z" fill="#FFCC80"/>
<path d="M39.0083 11.3695H36.7972V13.5806H39.0083V11.3695Z" fill="#FFCC80"/>
<path d="M36.7973 66.5804H34.5862V68.7915H36.7973V66.5804Z" fill="#FFAB91"/>
<path d="M36.7973 64.3759H34.5862V66.587H36.7973V64.3759Z" fill="#FFAB91"/>
<path d="M36.7973 62.1649H34.5862V64.376H36.7973V62.1649Z" fill="#FF8A65"/>
<path d="M36.7973 59.9537H34.5862V62.1648H36.7973V59.9537Z" fill="#FF8A65"/>
<path d="M36.7973 57.7493H34.5862V59.9605H36.7973V57.7493Z" fill="#FFAB91"/>
<path d="M36.7973 55.5382H34.5862V57.7493H36.7973V55.5382Z" fill="#FFAB91"/>
<path d="M36.7973 53.3337H34.5862V55.5448H36.7973V53.3337Z" fill="#FF8A65"/>
<path d="M36.7973 51.1227H34.5862V53.3338H36.7973V51.1227Z" fill="#4E342E"/>
<path d="M36.7973 48.9182H34.5862V51.1293H36.7973V48.9182Z" fill="#4E342E"/>
<path d="M36.7973 46.7072H34.5862V48.9183H36.7973V46.7072Z" fill="#FF8A65"/>
<path d="M36.7973 44.5027H34.5862V46.7138H36.7973V44.5027Z" fill="#FFAB91"/>
<path d="M36.7973 42.2916H34.5862V44.5027H36.7973V42.2916Z" fill="#FFAB91"/>
<path d="M36.7973 40.0805H34.5862V42.2916H36.7973V40.0805Z" fill="#FFAB91"/>
<path d="M36.7973 37.8694H34.5862V40.0805H36.7973V37.8694Z" fill="#FF8A65"/>
<path d="M36.7973 35.665H34.5862V37.8761H36.7973V35.665Z" fill="#463029"/>
<path d="M36.7973 33.4539H34.5862V35.665H36.7973V33.4539Z" fill="#FFCC80"/>
<path d="M36.7973 31.2494H34.5862V33.4605H36.7973V31.2494Z" fill="#FFCC80"/>
<path d="M36.7973 29.0383H34.5862V31.2494H36.7973V29.0383Z" fill="#26A69A"/>
<path d="M36.7973 26.8339H34.5862V29.045H36.7973V26.8339Z" fill="#26A69A"/>
<path d="M36.7973 24.6228H34.5862V26.8339H36.7973V24.6228Z" fill="#BF9960"/>
<path d="M36.7973 22.4184H34.5862V24.6295H36.7973V22.4184Z" fill="#FFCC80"/>
<path d="M36.7973 20.2072H34.5862V22.4184H36.7973V20.2072Z" fill="#FFCC80"/>
<path d="M36.7973 17.9962H34.5862V20.2073H36.7973V17.9962Z" fill="#FFCC80"/>
<path d="M36.7973 15.7917H34.5862V18.0028H36.7973V15.7917Z" fill="#FFCC80"/>
<path d="M36.7973 13.5807H34.5862V15.7918H36.7973V13.5807Z" fill="#FFCC80"/>
<path d="M34.5861 66.5804H32.375V68.7915H34.5861V66.5804Z" fill="#FFAB91"/>
<path d="M34.5861 64.3759H32.375V66.587H34.5861V64.3759Z" fill="#FFAB91"/>
<path d="M34.5861 62.1649H32.375V64.376H34.5861V62.1649Z" fill="#FFAB91"/>
<path d="M34.5861 59.9537H32.375V62.1648H34.5861V59.9537Z" fill="#FF8A65"/>
<path d="M34.5861 57.7493H32.375V59.9605H34.5861V57.7493Z" fill="#FFAB91"/>
<path d="M34.5861 55.5382H32.375V57.7493H34.5861V55.5382Z" fill="#FFAB91"/>
<path d="M34.5861 53.3337H32.375V55.5448H34.5861V53.3337Z" fill="#FFAB91"/>
<path d="M34.5861 51.1227H32.375V53.3338H34.5861V51.1227Z" fill="#4E342E"/>
<path d="M34.5861 48.9182H32.375V51.1293H34.5861V48.9182Z" fill="#4E342E"/>
<path d="M34.5861 46.7072H32.375V48.9183H34.5861V46.7072Z" fill="#4E342E"/>
<path d="M34.5861 44.5027H32.375V46.7138H34.5861V44.5027Z" fill="#FFAB91"/>
<path d="M34.5861 42.2916H32.375V44.5027H34.5861V42.2916Z" fill="white"/>
<path d="M34.5861 40.0805H32.375V42.2916H34.5861V40.0805Z" fill="white"/>
<path d="M34.5861 37.8694H32.375V40.0805H34.5861V37.8694Z" fill="#4E342E"/>
<path d="M34.5861 35.665H32.375V37.8761H34.5861V35.665Z" fill="#BF806D"/>
<path d="M34.5861 33.4539H32.375V35.665H34.5861V33.4539Z" fill="#FFCC80"/>
<path d="M34.5861 31.2494H32.375V33.4605H34.5861V31.2494Z" fill="#FFCC80"/>
<path d="M34.5861 29.0383H32.375V31.2494H34.5861V29.0383Z" fill="#FFCC80"/>
<path d="M34.5861 26.8339H32.375V29.045H34.5861V26.8339Z" fill="#26A69A"/>
<path d="M34.5861 24.6228H32.375V26.8339H34.5861V24.6228Z" fill="#BF9960"/>
<path d="M34.5861 22.4184H32.375V24.6295H34.5861V22.4184Z" fill="#FFCC80"/>
<path d="M34.5861 20.2072H32.375V22.4184H34.5861V20.2072Z" fill="#FFCC80"/>
<path d="M34.5861 17.9962H32.375V20.2073H34.5861V17.9962Z" fill="#FFCC80"/>
<path d="M34.5861 15.7917H32.375V18.0028H34.5861V15.7917Z" fill="#FFCC80"/>
<path d="M32.3818 66.5804H30.1707V68.7915H32.3818V66.5804Z" fill="#FFAB91"/>
<path d="M32.3818 57.7493H30.1707V59.9605H32.3818V57.7493Z" fill="#FFAB91"/>
<path d="M32.3818 55.5382H30.1707V57.7493H32.3818V55.5382Z" fill="#FFAB91"/>
<path d="M32.3818 53.3337H30.1707V55.5448H32.3818V53.3337Z" fill="#FFAB91"/>
<path d="M32.3818 51.1227H30.1707V53.3338H32.3818V51.1227Z" fill="#4E342E"/>
<path d="M32.3818 48.9182H30.1707V51.1293H32.3818V48.9182Z" fill="#4E342E"/>
<path d="M32.3818 46.7072H30.1707V48.9183H32.3818V46.7072Z" fill="#4E342E"/>
<path d="M32.3818 44.5027H30.1707V46.7138H32.3818V44.5027Z" fill="#FFAB91"/>
<path d="M32.3818 42.2916H30.1707V44.5027H32.3818V42.2916Z" fill="white"/>
<path d="M32.3818 40.0805H30.1707V42.2916H32.3818V40.0805Z" fill="#263238"/>
<path d="M32.3818 37.8694H30.1707V40.0805H32.3818V37.8694Z" fill="#4E342E"/>
<path d="M32.3818 35.665H30.1707V37.8761H32.3818V35.665Z" fill="#BF806D"/>
<path d="M32.3818 33.4539H30.1707V35.665H32.3818V33.4539Z" fill="#FFCC80"/>
<path d="M32.3818 31.2494H30.1707V33.4605H32.3818V31.2494Z" fill="#FFCC80"/>
<path d="M32.3818 29.0383H30.1707V31.2494H32.3818V29.0383Z" fill="#26A69A"/>
<path d="M32.3818 26.8339H30.1707V29.045H32.3818V26.8339Z" fill="#26A69A"/>
<path d="M32.3818 24.6228H30.1707V26.8339H32.3818V24.6228Z" fill="#BF9960"/>
<path d="M32.3818 22.4184H30.1707V24.6295H32.3818V22.4184Z" fill="#FFCC80"/>
<path d="M32.3818 20.2072H30.1707V22.4184H32.3818V20.2072Z" fill="#FFCC80"/>
<path d="M32.3818 17.9962H30.1707V20.2073H32.3818V17.9962Z" fill="#FFCC80"/>
<path d="M30.1706 57.7493H27.9595V59.9605H30.1706V57.7493Z" fill="#FFAB91"/>
<path d="M30.1706 55.5382H27.9595V57.7493H30.1706V55.5382Z" fill="#FFAB91"/>
<path d="M30.1706 53.3337H27.9595V55.5448H30.1706V53.3337Z" fill="#FFAB91"/>
<path d="M30.1706 51.1227H27.9595V53.3338H30.1706V51.1227Z" fill="#4E342E"/>
<path d="M30.1706 48.9182H27.9595V51.1293H30.1706V48.9182Z" fill="#4E342E"/>
<path d="M30.1706 46.7072H27.9595V48.9183H30.1706V46.7072Z" fill="#FFAB91"/>
<path d="M30.1706 44.5027H27.9595V46.7138H30.1706V44.5027Z" fill="#FFAB91"/>
<path d="M30.1706 42.2916H27.9595V44.5027H30.1706V42.2916Z" fill="white"/>
<path d="M30.1706 40.0805H27.9595V42.2916H30.1706V40.0805Z" fill="white"/>
<path d="M30.1706 37.8694H27.9595V40.0805H30.1706V37.8694Z" fill="#4E342E"/>
<path d="M30.1706 35.665H27.9595V37.8761H30.1706V35.665Z" fill="#BF806D"/>
<path d="M30.1706 33.4539H27.9595V35.665H30.1706V33.4539Z" fill="#FFCC80"/>
<path d="M30.1706 31.2494H27.9595V33.4605H30.1706V31.2494Z" fill="#26A69A"/>
<path d="M30.1706 29.0383H27.9595V31.2494H30.1706V29.0383Z" fill="#26A69A"/>
<path d="M30.1706 26.8339H27.9595V29.045H30.1706V26.8339Z" fill="#26A69A"/>
<path d="M30.1706 24.6228H27.9595V26.8339H30.1706V24.6228Z" fill="#BF9960"/>
<path d="M30.1706 22.4184H27.9595V24.6295H30.1706V22.4184Z" fill="#FFCC80"/>
<path d="M30.1706 20.2072H27.9595V22.4184H30.1706V20.2072Z" fill="#FFCC80"/>
<path d="M27.9662 55.5382H25.7551V57.7493H27.9662V55.5382Z" fill="#FFAB91"/>
<path d="M27.9662 53.3337H25.7551V55.5448H27.9662V53.3337Z" fill="#FFAB91"/>
<path d="M27.9662 51.1227H25.7551V53.3338H27.9662V51.1227Z" fill="#4E342E"/>
<path d="M27.9662 48.9182H25.7551V51.1293H27.9662V48.9182Z" fill="#FFAB91"/>
<path d="M27.9662 46.7072H25.7551V48.9183H27.9662V46.7072Z" fill="#FFAB91"/>
<path d="M27.9662 44.5027H25.7551V46.7138H27.9662V44.5027Z" fill="#FFAB91"/>
<path d="M27.9662 42.2916H25.7551V44.5027H27.9662V42.2916Z" fill="#FFAB91"/>
<path d="M27.9662 40.0805H25.7551V42.2916H27.9662V40.0805Z" fill="#FF8A65"/>
<path d="M27.9662 37.8694H25.7551V40.0805H27.9662V37.8694Z" fill="#4E342E"/>
<path d="M27.9662 35.665H25.7551V37.8761H27.9662V35.665Z" fill="#BF806D"/>
<path d="M27.9662 33.4539H25.7551V35.665H27.9662V33.4539Z" fill="#FFCC80"/>
<path d="M27.9662 31.2494H25.7551V33.4605H27.9662V31.2494Z" fill="#FFCC80"/>
<path d="M27.9662 29.0383H25.7551V31.2494H27.9662V29.0383Z" fill="#26A69A"/>
<path d="M27.9662 26.8339H25.7551V29.045H27.9662V26.8339Z" fill="#26A69A"/>
<path d="M27.9662 24.6228H25.7551V26.8339H27.9662V24.6228Z" fill="#BF9960"/>
<path d="M27.9662 22.4184H25.7551V24.6295H27.9662V22.4184Z" fill="#FFCC80"/>
<path d="M25.7551 53.3337H23.5439V55.5448H25.7551V53.3337Z" fill="#FFAB91"/>
<path d="M25.7551 51.1227H23.5439V53.3338H25.7551V51.1227Z" fill="#FFAB91"/>
<path d="M25.7551 48.9182H23.5439V51.1293H25.7551V48.9182Z" fill="#FFAB91"/>
<path d="M25.7551 46.7072H23.5439V48.9183H25.7551V46.7072Z" fill="#FFAB91"/>
<path d="M25.7551 44.5027H23.5439V46.7138H25.7551V44.5027Z" fill="#FFAB91"/>
<path d="M25.7551 42.2916H23.5439V44.5027H25.7551V42.2916Z" fill="#FFAB91"/>
<path d="M25.7551 40.0805H23.5439V42.2916H25.7551V40.0805Z" fill="#FFAB91"/>
<path d="M25.7551 37.8694H23.5439V40.0805H25.7551V37.8694Z" fill="#FFAB91"/>
<path d="M25.7551 35.665H23.5439V37.8761H25.7551V35.665Z" fill="#BF806D"/>
<path d="M25.7551 33.4539H23.5439V35.665H25.7551V33.4539Z" fill="#FFCC80"/>
<path d="M25.7551 31.2494H23.5439V33.4605H25.7551V31.2494Z" fill="#FFCC80"/>
<path d="M25.7551 29.0383H23.5439V31.2494H25.7551V29.0383Z" fill="#FFCC80"/>
<path d="M25.7551 26.8339H23.5439V29.045H25.7551V26.8339Z" fill="#26A69A"/>
<path d="M25.7551 24.6228H23.5439V26.8339H25.7551V24.6228Z" fill="#BF9960"/>
<path d="M23.5506 46.7072H21.3395V48.9183H23.5506V46.7072Z" fill="#FFAB91"/>
<path d="M23.5506 44.5027H21.3395V46.7138H23.5506V44.5027Z" fill="#FF8A65"/>
<path d="M23.5506 42.2916H21.3395V44.5027H23.5506V42.2916Z" fill="#FF8A65"/>
<path d="M23.5506 40.0805H21.3395V42.2916H23.5506V40.0805Z" fill="#FF8A65"/>
<path d="M23.5506 37.8694H21.3395V40.0805H23.5506V37.8694Z" fill="#FFAB91"/>
<path d="M23.5506 35.665H21.3395V37.8761H23.5506V35.665Z" fill="#5D4037"/>
<path d="M23.5506 33.4539H21.3395V35.665H23.5506V33.4539Z" fill="#FFCC80"/>
<path d="M23.5506 31.2494H21.3395V33.4605H23.5506V31.2494Z" fill="#FFCC80"/>
<path d="M23.5506 29.0383H21.3395V31.2494H23.5506V29.0383Z" fill="#26A69A"/>
<path d="M23.5506 26.8339H21.3395V29.045H23.5506V26.8339Z" fill="#26A69A"/>
<path d="M21.3395 46.7072H19.1284V48.9183H21.3395V46.7072Z" fill="#FFAB91"/>
<path d="M21.3395 44.5027H19.1284V46.7138H21.3395V44.5027Z" fill="#FFAB91"/>
<path d="M21.3395 42.2916H19.1284V44.5027H21.3395V42.2916Z" fill="#FFAB91"/>
<path d="M21.3395 40.0805H19.1284V42.2916H21.3395V40.0805Z" fill="#FF8A65"/>
<path d="M21.3395 37.8694H19.1284V40.0805H21.3395V37.8694Z" fill="#FFAB91"/>
<path d="M21.3395 33.4539H19.1284V35.665H21.3395V33.4539Z" fill="#FFCC80"/>
<path d="M21.3395 31.2494H19.1284V33.4605H21.3395V31.2494Z" fill="#26A69A"/>
<path d="M21.3395 29.0383H19.1284V31.2494H21.3395V29.0383Z" fill="#26A69A"/>
<path d="M21.3395 26.8339H19.1284V29.045H21.3395V26.8339Z" fill="#26A69A"/>
<path d="M19.1285 44.5027H16.9174V46.7138H19.1285V44.5027Z" fill="#FFAB91"/>
<path d="M19.1285 42.2916H16.9174V44.5027H19.1285V42.2916Z" fill="#FFAB91"/>
<path d="M19.1285 40.0805H16.9174V42.2916H19.1285V40.0805Z" fill="#FFAB91"/>
<path d="M19.1285 33.4539H16.9174V35.665H19.1285V33.4539Z" fill="#FFCC80"/>
<path d="M19.1285 31.2494H16.9174V33.4605H19.1285V31.2494Z" fill="#FFCC80"/>
<path d="M19.1285 29.0383H16.9174V31.2494H19.1285V29.0383Z" fill="#26A69A"/>
<path d="M19.1285 26.8339H16.9174V29.045H19.1285V26.8339Z" fill="#26A69A"/>
<path d="M16.924 33.4539H14.7129V35.665H16.924V33.4539Z" fill="#FFCC80"/>
<path d="M16.924 31.2494H14.7129V33.4605H16.924V31.2494Z" fill="#FFCC80"/>
<path d="M16.924 29.0383H14.7129V31.2494H16.924V29.0383Z" fill="#FFCC80"/>
<path d="M16.924 26.8339H14.7129V29.045H16.924V26.8339Z" fill="#26A69A"/>
<path d="M14.7129 33.4539H12.5018V35.665H14.7129V33.4539Z" fill="#FFCC80"/>
<path d="M14.7129 31.2494H12.5018V33.4605H14.7129V31.2494Z" fill="#FFCC80"/>
<path d="M14.7129 29.0383H12.5018V31.2494H14.7129V29.0383Z" fill="#26A69A"/>
<path d="M14.7129 26.8339H12.5018V29.045H14.7129V26.8339Z" fill="#26A69A"/>
<path d="M12.5085 33.4539H10.2974V35.665H12.5085V33.4539Z" fill="#FFCC80"/>
<path d="M12.5085 31.2494H10.2974V33.4605H12.5085V31.2494Z" fill="#26A69A"/>
<path d="M12.5085 29.0383H10.2974V31.2494H12.5085V29.0383Z" fill="#26A69A"/>
<path d="M12.5085 26.8339H10.2974V29.045H12.5085V26.8339Z" fill="#26A69A"/>
<path d="M10.2974 33.4539H8.0863V35.665H10.2974V33.4539Z" fill="#FFCC80"/>
<path d="M10.2974 31.2494H8.0863V33.4605H10.2974V31.2494Z" fill="#FFCC80"/>
<path d="M10.2974 29.0383H8.0863V31.2494H10.2974V29.0383Z" fill="#26A69A"/>
<path d="M10.2974 26.8339H8.0863V29.045H10.2974V26.8339Z" fill="#26A69A"/>
<path d="M8.08635 31.2494H5.87524V33.4605H8.08635V31.2494Z" fill="#FFCC80"/>
<path d="M8.08635 29.0383H5.87524V31.2494H8.08635V29.0383Z" fill="#FFCC80"/>
<path d="M8.08635 26.8339H5.87524V29.045H8.08635V26.8339Z" fill="#26A69A"/>
<path d="M5.88188 29.0383H3.67078V31.2494H5.88188V29.0383Z" fill="#26A69A"/>
<path d="M5.88188 26.8339H3.67078V29.045H5.88188V26.8339Z" fill="#26A69A"/>
</svg>
