<svg width="104" height="134" viewBox="0 0 104 134" fill="none" xmlns="http://www.w3.org/2000/svg">
<g clip-path="url(#clip0_203_10045)">
<path d="M25.9081 8.54534C25.9222 5.69216 25.9504 2.85318 25.9786 0C43.326 0 60.6735 0 78.0068 0C78.035 2.85318 78.0491 5.70636 78.0773 8.54534L78.1055 8.50275C77.6542 8.57373 77.1888 8.71568 76.7375 8.71568C60.2363 8.72987 43.7492 8.72987 27.2479 8.71568C26.7966 8.71568 26.3312 8.57373 25.8799 8.50275L25.9081 8.54534Z" fill="black"/>
<path d="M95.3685 72.6921C95.3685 68.9163 95.3685 65.1405 95.3685 61.2227C86.7229 61.2227 78.1338 61.2227 69.5306 61.2227C69.5306 58.1424 69.5306 55.1898 69.5306 52.2515L69.5024 52.2799C69.7986 52.3366 70.0807 52.4218 70.3769 52.4218C78.43 52.436 86.4832 52.4218 94.5363 52.4218C94.7902 52.4218 95.0441 52.3792 95.4249 52.3508C95.4249 51.8398 95.4249 51.3714 95.4249 50.903C95.4249 43.1525 95.4249 35.3879 95.4249 27.6375C95.4249 27.1123 95.4813 26.6013 95.5236 26.076L95.4813 26.1044C98.2879 26.1044 101.095 26.1044 103.986 26.1044C103.986 41.7614 103.986 57.2055 103.986 72.6496C101.08 72.6496 98.2033 72.6496 95.3261 72.6496L95.3685 72.6921Z" fill="black"/>
<path d="M8.44806 26.0902C8.47627 28.7021 8.53268 31.2998 8.54679 33.9116C8.56089 37.1197 8.54679 40.3419 8.54679 43.7203C9.08272 43.7203 9.54814 43.7203 9.99946 43.7203C14.8793 43.7203 19.7733 43.7203 24.6531 43.7203C25.1185 43.7203 25.598 43.7771 26.0635 43.8197L26.0353 43.7771C26.0353 46.6019 26.0353 49.4125 26.0353 52.3792C20.14 52.3792 14.4562 52.3792 8.80065 52.3792C8.68782 52.6205 8.57499 52.7341 8.57499 52.8335C8.5891 59.4483 8.6032 66.0773 8.6173 72.6922L8.64551 72.6496C5.79658 72.6496 2.96176 72.6496 0 72.6496C0 57.2907 0 41.8466 0 26.1044C2.80662 26.1044 5.65555 26.1044 8.49037 26.1044L8.44806 26.0902Z" fill="black"/>
<path d="M25.9788 116.498C25.9647 110.862 25.9506 105.241 25.9506 99.6057C25.9506 99.3502 26.0352 99.0947 26.0776 98.8392L26.0494 98.8676C27.5866 98.9385 29.138 99.0237 30.6753 99.0521C31.9165 99.0805 33.1717 99.0521 34.5397 99.0521C34.5397 101.99 34.5397 104.801 34.5397 107.782C37.4874 107.782 40.3222 107.782 43.2275 107.782C43.2275 110.763 43.2275 113.573 43.2275 116.455C37.431 116.455 31.6767 116.455 25.9365 116.455L25.9788 116.498Z" fill="black"/>
<path d="M77.9082 98.8392C77.9505 99.4354 78.0351 100.046 78.0351 100.642C78.0351 105.922 78.0069 111.217 77.9928 116.498L78.021 116.469C72.3937 116.483 66.7663 116.512 61.139 116.526C61.0262 116.526 60.8992 116.455 60.73 116.384C60.73 113.573 60.73 110.763 60.73 107.839C63.6071 107.839 66.3996 107.839 69.3332 107.839C69.3332 104.9 69.3332 102.09 69.3332 99.0663C70.7717 99.0663 72.0975 99.0947 73.4232 99.0663C74.9182 99.0237 76.4132 98.9385 77.9223 98.8818L77.9082 98.8392Z" fill="black"/>
<path d="M69.5306 52.2515C69.1921 52.3083 68.8677 52.4218 68.5293 52.4218C63.3109 52.436 58.0785 52.436 52.8601 52.4218C52.6063 52.4218 52.3665 52.3792 51.9998 52.3508C51.9998 49.4267 51.9998 46.5735 51.9998 43.7203L51.9575 43.7629C57.6977 43.7629 63.4238 43.7629 69.4883 43.7629C69.4883 46.6161 69.4883 49.4409 69.4883 52.2799C69.5024 52.2799 69.5306 52.2515 69.5306 52.2515Z" fill="black"/>
<path d="M8.61739 72.7064C10.8599 72.749 13.1023 72.7915 15.3448 72.8341C15.8949 72.8483 16.459 72.8341 17.0796 72.8341C17.136 73.2174 17.2206 73.5013 17.2206 73.7852C17.2347 78.9663 17.2347 84.1617 17.2206 89.3428C17.2206 89.7119 17.0655 90.0809 16.9808 90.45L16.9949 90.4358C14.2306 90.4358 11.4804 90.4358 8.6597 90.4358C8.60329 90.01 8.54688 89.7687 8.54688 89.5273C8.54688 84.2184 8.54688 78.8953 8.54688 73.5864C8.54688 73.2884 8.60329 72.9761 8.6315 72.678C8.6456 72.6638 8.61739 72.7064 8.61739 72.7064Z" fill="black"/>
<path d="M95.3405 72.6638C95.3687 75.886 95.4111 79.1083 95.4393 82.3163C95.4534 84.9282 95.4393 87.5258 95.4393 90.4358C92.5762 90.4358 89.7978 90.4358 87.0053 90.4358V90.45C86.9207 90.1661 86.7655 89.8822 86.7655 89.5983C86.7514 84.19 86.7655 78.7818 86.7655 73.3877C86.7655 73.2599 86.822 73.1322 86.9207 72.7063C89.685 72.7063 92.5339 72.7063 95.3546 72.7063C95.3687 72.6922 95.3405 72.6638 95.3405 72.6638Z" fill="black"/>
<path d="M25.8802 8.50275C25.8802 11.4553 25.8802 14.4078 25.8802 17.4313C23.0031 17.4313 20.2106 17.4313 17.3193 17.4313C17.3193 14.5924 17.3193 11.7818 17.3193 8.72987C18.1656 8.72987 18.9977 8.74406 19.8439 8.72987C21.8607 8.68728 23.8775 8.61631 25.8943 8.54533C25.9084 8.54533 25.8802 8.50275 25.8802 8.50275Z" fill="black"/>
<path d="M78.0776 8.54533C79.8406 8.60211 81.5894 8.70147 83.3524 8.71567C86.7514 8.74406 86.7514 8.72986 86.7514 12.2076C86.7514 13.8258 86.7373 15.4299 86.7232 17.0481C86.7232 17.1616 86.6385 17.2894 86.5821 17.4313C83.7755 17.4313 80.983 17.4313 78.1058 17.4313C78.1058 14.4078 78.1058 11.4695 78.1058 8.51694L78.0776 8.54533Z" fill="black"/>
<path d="M43.2414 26.3032C43.2414 29.199 43.2414 31.9954 43.2414 34.8911C40.3502 34.8911 37.5295 34.8911 34.6523 34.8911C34.6523 31.9954 34.6523 29.1848 34.6523 26.3032C37.5154 26.3032 40.3079 26.3032 43.2414 26.3032Z" fill="black"/>
<path d="M25.9507 116.469C25.9507 119.337 25.9507 122.218 25.9507 125.213C23.0454 125.213 20.2247 125.213 17.3193 125.213C17.3193 122.374 17.3193 119.564 17.3193 116.512C20.2247 116.512 23.1159 116.512 25.9931 116.512C25.979 116.498 25.9507 116.469 25.9507 116.469Z" fill="black"/>
<path d="M77.9932 116.498C80.8421 116.498 83.7051 116.498 86.6528 116.498C86.6528 119.436 86.6528 122.261 86.6528 125.185C83.8462 125.185 81.0254 125.185 78.0214 125.185C78.0214 122.261 78.0214 119.365 78.0214 116.455C78.0355 116.469 77.9932 116.498 77.9932 116.498Z" fill="black"/>
<path d="M26.0778 98.8392C24.9354 98.9102 23.7789 99.0237 22.6365 99.0521C20.8877 99.0947 19.1247 99.0663 17.2207 99.0663C17.2207 96.5254 17.2348 94.1549 17.2066 91.7843C17.2066 91.3301 17.0656 90.8758 16.9951 90.4358L16.981 90.45C19.9145 90.45 22.8481 90.45 26.0496 90.45C26.0496 93.2464 26.0496 96.057 26.0496 98.8676C26.0637 98.8676 26.0778 98.8392 26.0778 98.8392Z" fill="black"/>
<path d="M77.9223 98.8676C77.9223 96.0854 77.9223 93.3174 77.9223 90.45C81.0674 90.45 84.0432 90.45 87.005 90.45V90.4358C86.9204 90.8758 86.7652 91.3301 86.7652 91.7701C86.737 94.1407 86.7511 96.5254 86.7511 98.8392C83.7047 98.8392 80.7994 98.8392 77.894 98.8392C77.9081 98.8392 77.9223 98.8676 77.9223 98.8676Z" fill="black"/>
<path d="M8.49055 26.1186C8.49055 23.308 8.49055 20.4833 8.49055 17.5875C11.4382 17.5875 14.2166 17.5875 17.122 17.5875C17.122 20.4123 17.122 23.2371 17.122 26.0902C14.2025 26.0902 11.3254 26.0902 8.44824 26.0902L8.49055 26.1186Z" fill="black"/>
<path d="M95.5379 26.0902C92.6607 26.0902 89.7836 26.0902 86.8359 26.0902C86.8359 23.2797 86.8359 20.4691 86.8359 17.5875C89.6708 17.5875 92.4633 17.5875 95.4956 17.5875C95.4956 20.4265 95.4956 23.2797 95.4956 26.1186L95.5379 26.0902Z" fill="black"/>
<path d="M26.0634 43.8197C26.0634 40.9239 26.0634 38.0282 26.0634 35.0614C28.8559 35.0614 31.6484 35.0614 34.5114 35.0614C34.5114 37.9146 34.5114 40.7252 34.5114 43.7771C31.6907 43.7771 28.8559 43.7771 26.0352 43.7771L26.0634 43.8197Z" fill="black"/>
<path d="M52.0002 43.7203C49.1512 43.7203 46.3164 43.7203 43.397 43.7203C43.397 40.782 43.397 37.9714 43.397 35.0756C46.2318 35.0756 49.0243 35.0756 51.972 35.0756C51.972 37.9572 51.972 40.853 51.972 43.7629C51.9579 43.7629 52.0002 43.7203 52.0002 43.7203Z" fill="black"/>
<path d="M17.15 134C14.2587 134 11.4944 134 8.64551 134C8.64551 131.133 8.64551 128.294 8.64551 125.384C11.4803 125.384 14.2728 125.384 17.15 125.384C17.15 128.265 17.15 131.076 17.15 134Z" fill="black"/>
<path d="M95.3968 125.398C95.3968 128.308 95.3968 131.09 95.3968 133.957C92.5337 133.957 89.713 133.957 86.8218 133.957C86.8218 131.09 86.8218 128.279 86.8218 125.398C89.6989 125.398 92.4914 125.398 95.3968 125.398Z" fill="black"/>
</g>
<defs>
<clipPath id="clip0_203_10045">
<rect width="104" height="134" fill="white"/>
</clipPath>
</defs>
</svg>
