<svg width="152" height="47" viewBox="0 0 152 47" fill="none" xmlns="http://www.w3.org/2000/svg">
<rect x="1.44629" y="1" width="149.107" height="44.7491" rx="5.74991" fill="#0057FF" stroke="white" stroke-width="2"/>
<rect x="3.33789" y="39.2075" width="145.324" height="4.74991" fill="black" fill-opacity="0.24"/>
<rect x="3.33789" y="2.7915" width="145.324" height="4.74991" fill="white" fill-opacity="0.64"/>
<rect x="3.63377" y="3.18748" width="144.732" height="40.3742" rx="3.56243" stroke="#14192A" stroke-width="2.37495"/>
<path d="M38.9773 28.6655C38.9773 29.1282 38.937 29.5306 38.8565 29.8726C38.937 30.1944 38.9773 30.5968 38.9773 31.0796C38.9773 31.5423 38.937 31.9446 38.8565 32.2866H36.4425C36.362 31.9446 36.3218 31.5423 36.3218 31.0796C36.3218 30.5968 36.362 30.1944 36.4425 29.8726C36.362 29.5306 36.3218 29.1282 36.3218 28.6655C36.3218 28.1827 36.362 27.7804 36.4425 27.4585H31.6143C31.6948 27.7804 31.735 28.1827 31.735 28.6655C31.735 29.1282 31.6948 29.5306 31.6143 29.8726C31.6948 30.1944 31.735 30.5968 31.735 31.0796C31.735 31.5423 31.6948 31.9446 31.6143 32.2866H29.2003C29.1198 31.9446 29.0796 31.5423 29.0796 31.0796C29.0796 30.5968 29.1198 30.1944 29.2003 29.8726C29.1198 29.5306 29.0796 29.1282 29.0796 28.6655C29.0796 28.1827 29.1198 27.7804 29.2003 27.4585H30.1055C30.0251 27.1165 29.9848 26.7141 29.9848 26.2514C29.9848 25.7686 30.0251 25.3663 30.1055 25.0444C30.0251 24.7024 29.9848 24.3001 29.9848 23.8374C29.9848 23.3546 30.0251 22.9522 30.1055 22.6303H30.7091C30.6286 22.2883 30.5884 21.886 30.5884 21.4233C30.5884 20.9405 30.6286 20.5381 30.7091 20.2163H31.6143C31.5339 19.8743 31.4936 19.4719 31.4936 19.0092C31.4936 18.5264 31.5339 18.1241 31.6143 17.8022H32.2179C32.1374 17.4602 32.0972 17.0579 32.0972 16.5952C32.0972 16.1124 32.1374 15.71 32.2179 15.3881H35.839C35.9194 15.71 35.9597 16.1124 35.9597 16.5952C35.9597 17.0579 35.9194 17.4602 35.839 17.8022H36.4425C36.5229 18.1241 36.5632 18.5264 36.5632 19.0092C36.5632 19.4719 36.5229 19.8743 36.4425 20.2163H37.3478C37.4282 20.5381 37.4685 20.9405 37.4685 21.4233C37.4685 21.886 37.4282 22.2883 37.3478 22.6303H37.9513C38.0317 22.9522 38.072 23.3546 38.072 23.8374C38.072 24.3001 38.0317 24.7024 37.9513 25.0444C38.0317 25.3663 38.072 25.7686 38.072 26.2514C38.072 26.7141 38.0317 27.1165 37.9513 27.4585H38.8565C38.937 27.7804 38.9773 28.1827 38.9773 28.6655ZM35.5372 25.0444C35.4567 24.7024 35.4165 24.3001 35.4165 23.8374C35.4165 23.3546 35.4567 22.9522 35.5372 22.6303H34.9337C34.8532 22.2883 34.813 21.886 34.813 21.4233C34.813 20.9405 34.8532 20.5381 34.9337 20.2163H33.1231C33.2036 20.5381 33.2438 20.9405 33.2438 21.4233C33.2438 21.886 33.2036 22.2883 33.1231 22.6303H32.5196C32.6001 22.9522 32.6403 23.3546 32.6403 23.8374C32.6403 24.3001 32.6001 24.7024 32.5196 25.0444H35.5372ZM49.7316 29.8726C49.8121 30.1944 49.8524 30.5968 49.8524 31.0796C49.8524 31.5423 49.8121 31.9446 49.7316 32.2866H42.4894C42.409 31.9446 42.3687 31.5423 42.3687 31.0796C42.3687 30.5968 42.409 30.1944 42.4894 29.8726H44.9035C44.823 29.5306 44.7828 29.1282 44.7828 28.6655C44.7828 28.1827 44.823 27.7804 44.9035 27.4585C44.823 27.1165 44.7828 26.7141 44.7828 26.2514C44.7828 25.7686 44.823 25.3663 44.9035 25.0444C44.823 24.7024 44.7828 24.3001 44.7828 23.8374C44.7828 23.3546 44.823 22.9522 44.9035 22.6303C44.823 22.2883 44.7828 21.886 44.7828 21.4233C44.7828 20.9405 44.823 20.5381 44.9035 20.2163C44.823 19.8743 44.7828 19.4719 44.7828 19.0092C44.7828 18.5264 44.823 18.1241 44.9035 17.8022H43.093C43.0125 17.4602 42.9723 17.0579 42.9723 16.5952C42.9723 16.1124 43.0125 15.71 43.093 15.3881H47.3176C47.398 15.71 47.4383 16.1124 47.4383 16.5952C47.4383 17.0579 47.398 17.4602 47.3176 17.8022C47.398 18.1241 47.4383 18.5264 47.4383 19.0092C47.4383 19.4719 47.398 19.8743 47.3176 20.2163C47.398 20.5381 47.4383 20.9405 47.4383 21.4233C47.4383 21.886 47.398 22.2883 47.3176 22.6303C47.398 22.9522 47.4383 23.3546 47.4383 23.8374C47.4383 24.3001 47.398 24.7024 47.3176 25.0444C47.398 25.3663 47.4383 25.7686 47.4383 26.2514C47.4383 26.7141 47.398 27.1165 47.3176 27.4585C47.398 27.7804 47.4383 28.1827 47.4383 28.6655C47.4383 29.1282 47.398 29.5306 47.3176 29.8726H49.7316ZM61.8138 29.8726C61.8943 30.1944 61.9345 30.5968 61.9345 31.0796C61.9345 31.5423 61.8943 31.9446 61.8138 32.2866H54.5716C54.4911 31.9446 54.4509 31.5423 54.4509 31.0796C54.4509 30.5968 54.4911 30.1944 54.5716 29.8726H56.9856C56.9052 29.5306 56.8649 29.1282 56.8649 28.6655C56.8649 28.1827 56.9052 27.7804 56.9856 27.4585C56.9052 27.1165 56.8649 26.7141 56.8649 26.2514C56.8649 25.7686 56.9052 25.3663 56.9856 25.0444C56.9052 24.7024 56.8649 24.3001 56.8649 23.8374C56.8649 23.3546 56.9052 22.9522 56.9856 22.6303C56.9052 22.2883 56.8649 21.886 56.8649 21.4233C56.8649 20.9405 56.9052 20.5381 56.9856 20.2163C56.9052 19.8743 56.8649 19.4719 56.8649 19.0092C56.8649 18.5264 56.9052 18.1241 56.9856 17.8022H55.1751C55.0946 17.4602 55.0544 17.0579 55.0544 16.5952C55.0544 16.1124 55.0946 15.71 55.1751 15.3881H59.3997C59.4802 15.71 59.5204 16.1124 59.5204 16.5952C59.5204 17.0579 59.4802 17.4602 59.3997 17.8022C59.4802 18.1241 59.5204 18.5264 59.5204 19.0092C59.5204 19.4719 59.4802 19.8743 59.3997 20.2163C59.4802 20.5381 59.5204 20.9405 59.5204 21.4233C59.5204 21.886 59.4802 22.2883 59.3997 22.6303C59.4802 22.9522 59.5204 23.3546 59.5204 23.8374C59.5204 24.3001 59.4802 24.7024 59.3997 25.0444C59.4802 25.3663 59.5204 25.7686 59.5204 26.2514C59.5204 26.7141 59.4802 27.1165 59.3997 27.4585C59.4802 27.7804 59.5204 28.1827 59.5204 28.6655C59.5204 29.1282 59.4802 29.5306 59.3997 29.8726H61.8138ZM87.1851 22.6303C87.2656 22.9522 87.3058 23.3546 87.3058 23.8374C87.3058 24.3001 87.2656 24.7024 87.1851 25.0444C87.2656 25.3663 87.3058 25.7686 87.3058 26.2514C87.3058 26.7141 87.2656 27.1165 87.1851 27.4585C87.2656 27.7804 87.3058 28.1827 87.3058 28.6655C87.3058 29.1282 87.2656 29.5306 87.1851 29.8726H85.9781C86.0585 30.1944 86.0988 30.5968 86.0988 31.0796C86.0988 31.5423 86.0585 31.9446 85.9781 32.2866H79.9429C79.8624 31.9446 79.8222 31.5423 79.8222 31.0796C79.8222 30.5968 79.8624 30.1944 79.9429 29.8726H78.7358C78.6554 29.5306 78.6151 29.1282 78.6151 28.6655C78.6151 28.1827 78.6554 27.7804 78.7358 27.4585H77.5288C77.4483 27.1165 77.4081 26.7141 77.4081 26.2514C77.4081 25.7686 77.4483 25.3663 77.5288 25.0444C77.4483 24.7024 77.4081 24.3001 77.4081 23.8374C77.4081 23.3546 77.4483 22.9522 77.5288 22.6303C77.4483 22.2883 77.4081 21.886 77.4081 21.4233C77.4081 20.9405 77.4483 20.5381 77.5288 20.2163H78.7358C78.6554 19.8743 78.6151 19.4719 78.6151 19.0092C78.6151 18.5264 78.6554 18.1241 78.7358 17.8022H79.9429C79.8624 17.4602 79.8222 17.0579 79.8222 16.5952C79.8222 16.1124 79.8624 15.71 79.9429 15.3881H85.9781C86.0585 15.71 86.0988 16.1124 86.0988 16.5952C86.0988 17.0579 86.0585 17.4602 85.9781 17.8022H87.1851C87.2656 18.1241 87.3058 18.5264 87.3058 19.0092C87.3058 19.4719 87.2656 19.8743 87.1851 20.2163H84.771C84.6906 19.8743 84.6503 19.4719 84.6503 19.0092C84.6503 18.5264 84.6906 18.1241 84.771 17.8022H81.1499C81.2304 18.1241 81.2706 18.5264 81.2706 19.0092C81.2706 19.4719 81.2304 19.8743 81.1499 20.2163H79.9429C80.0234 20.5381 80.0636 20.9405 80.0636 21.4233C80.0636 21.886 80.0234 22.2883 79.9429 22.6303C80.0234 22.9522 80.0636 23.3546 80.0636 23.8374C80.0636 24.3001 80.0234 24.7024 79.9429 25.0444C80.0234 25.3663 80.0636 25.7686 80.0636 26.2514C80.0636 26.7141 80.0234 27.1165 79.9429 27.4585H81.1499C81.2304 27.7804 81.2706 28.1827 81.2706 28.6655C81.2706 29.1282 81.2304 29.5306 81.1499 29.8726H84.771C84.6906 29.5306 84.6503 29.1282 84.6503 28.6655C84.6503 28.1827 84.6906 27.7804 84.771 27.4585C84.6906 27.1165 84.6503 26.7141 84.6503 26.2514C84.6503 25.7686 84.6906 25.3663 84.771 25.0444H82.9605C82.88 24.7024 82.8398 24.3001 82.8398 23.8374C82.8398 23.3546 82.88 22.9522 82.9605 22.6303H87.1851ZM99.2672 29.8726C99.3477 30.1944 99.3879 30.5968 99.3879 31.0796C99.3879 31.5423 99.3477 31.9446 99.2672 32.2866H96.8532C96.7727 31.9446 96.7325 31.5423 96.7325 31.0796C96.7325 30.5968 96.7727 30.1944 96.8532 29.8726H95.6461C95.5657 29.5306 95.5254 29.1282 95.5254 28.6655C95.5254 28.1827 95.5657 27.7804 95.6461 27.4585H92.025C92.1055 27.7804 92.1457 28.1827 92.1457 28.6655C92.1457 29.1282 92.1055 29.5306 92.025 29.8726H95.6461C95.7266 30.1944 95.7668 30.5968 95.7668 31.0796C95.7668 31.5423 95.7266 31.9446 95.6461 32.2866H90.818C90.7375 31.9446 90.6973 31.5423 90.6973 31.0796C90.6973 30.5968 90.7375 30.1944 90.818 29.8726H89.611C89.5305 29.5306 89.4902 29.1282 89.4902 28.6655C89.4902 28.1827 89.5305 27.7804 89.611 27.4585H90.818C90.7375 27.1165 90.6973 26.7141 90.6973 26.2514C90.6973 25.7686 90.7375 25.3663 90.818 25.0444H95.6461C95.5657 24.7024 95.5254 24.3001 95.5254 23.8374C95.5254 23.3546 95.5657 22.9522 95.6461 22.6303H91.4215C91.341 22.2883 91.3008 21.886 91.3008 21.4233C91.3008 20.9405 91.341 20.5381 91.4215 20.2163H96.8532C96.9336 20.5381 96.9739 20.9405 96.9739 21.4233C96.9739 21.886 96.9336 22.2883 96.8532 22.6303H98.0602C98.1407 22.9522 98.1809 23.3546 98.1809 23.8374C98.1809 24.3001 98.1407 24.7024 98.0602 25.0444C98.1407 25.3663 98.1809 25.7686 98.1809 26.2514C98.1809 26.7141 98.1407 27.1165 98.0602 27.4585C98.1407 27.7804 98.1809 28.1827 98.1809 28.6655C98.1809 29.1282 98.1407 29.5306 98.0602 29.8726H99.2672ZM103.323 21.4233C103.323 21.886 103.282 22.2883 103.202 22.6303H104.107C104.188 22.9522 104.228 23.3546 104.228 23.8374C104.228 24.3001 104.188 24.7024 104.107 25.0444C104.188 25.3663 104.228 25.7686 104.228 26.2514C104.228 26.7141 104.188 27.1165 104.107 27.4585C104.188 27.7804 104.228 28.1827 104.228 28.6655C104.228 29.1282 104.188 29.5306 104.107 29.8726C104.188 30.1944 104.228 30.5968 104.228 31.0796C104.228 31.5423 104.188 31.9446 104.107 32.2866H101.693C101.613 31.9446 101.572 31.5423 101.572 31.0796C101.572 30.5968 101.613 30.1944 101.693 29.8726C101.613 29.5306 101.572 29.1282 101.572 28.6655C101.572 28.1827 101.613 27.7804 101.693 27.4585C101.613 27.1165 101.572 26.7141 101.572 26.2514C101.572 25.7686 101.613 25.3663 101.693 25.0444C101.613 24.7024 101.572 24.3001 101.572 23.8374C101.572 23.3546 101.613 22.9522 101.693 22.6303C101.613 22.2883 101.572 21.886 101.572 21.4233C101.572 20.9405 101.613 20.5381 101.693 20.2163H103.202C103.282 20.5381 103.323 20.9405 103.323 21.4233ZM106.642 21.4233C106.642 21.886 106.602 22.2883 106.521 22.6303H107.426C107.507 22.9522 107.547 23.3546 107.547 23.8374C107.547 24.3001 107.507 24.7024 107.426 25.0444C107.507 25.3663 107.547 25.7686 107.547 26.2514C107.547 26.7141 107.507 27.1165 107.426 27.4585C107.507 27.7804 107.547 28.1827 107.547 28.6655C107.547 29.1282 107.507 29.5306 107.426 29.8726C107.507 30.1944 107.547 30.5968 107.547 31.0796C107.547 31.5423 107.507 31.9446 107.426 32.2866H105.616C105.535 31.9446 105.495 31.5423 105.495 31.0796C105.495 30.5968 105.535 30.1944 105.616 29.8726C105.535 29.5306 105.495 29.1282 105.495 28.6655C105.495 28.1827 105.535 27.7804 105.616 27.4585C105.535 27.1165 105.495 26.7141 105.495 26.2514C105.495 25.7686 105.535 25.3663 105.616 25.0444C105.535 24.7024 105.495 24.3001 105.495 23.8374C105.495 23.3546 105.535 22.9522 105.616 22.6303H104.107C104.027 22.2883 103.986 21.886 103.986 21.4233C103.986 20.9405 104.027 20.5381 104.107 20.2163H106.521C106.602 20.5381 106.642 20.9405 106.642 21.4233ZM111.349 25.0444C111.43 25.3663 111.47 25.7686 111.47 26.2514C111.47 26.7141 111.43 27.1165 111.349 27.4585C111.43 27.7804 111.47 28.1827 111.47 28.6655C111.47 29.1282 111.43 29.5306 111.349 29.8726C111.43 30.1944 111.47 30.5968 111.47 31.0796C111.47 31.5423 111.43 31.9446 111.349 32.2866H108.935C108.855 31.9446 108.815 31.5423 108.815 31.0796C108.815 30.5968 108.855 30.1944 108.935 29.8726C108.855 29.5306 108.815 29.1282 108.815 28.6655C108.815 28.1827 108.855 27.7804 108.935 27.4585C108.855 27.1165 108.815 26.7141 108.815 26.2514C108.815 25.7686 108.855 25.3663 108.935 25.0444C108.855 24.7024 108.815 24.3001 108.815 23.8374C108.815 23.3546 108.855 22.9522 108.935 22.6303H107.426C107.346 22.2883 107.306 21.886 107.306 21.4233C107.306 20.9405 107.346 20.5381 107.426 20.2163H110.142C110.223 20.5381 110.263 20.9405 110.263 21.4233C110.263 21.886 110.223 22.2883 110.142 22.6303H111.349C111.43 22.9522 111.47 23.3546 111.47 23.8374C111.47 24.3001 111.43 24.7024 111.349 25.0444ZM123.552 23.8374C123.552 24.3001 123.512 24.7024 123.431 25.0444C123.512 25.3663 123.552 25.7686 123.552 26.2514C123.552 26.7141 123.512 27.1165 123.431 27.4585H117.095C117.175 27.7804 117.215 28.1827 117.215 28.6655C117.215 29.1282 117.175 29.5306 117.095 29.8726H122.224C122.305 30.1944 122.345 30.5968 122.345 31.0796C122.345 31.5423 122.305 31.9446 122.224 32.2866H116.189C116.109 31.9446 116.069 31.5423 116.069 31.0796C116.069 30.5968 116.109 30.1944 116.189 29.8726H114.68C114.6 29.5306 114.56 29.1282 114.56 28.6655C114.56 28.1827 114.6 27.7804 114.68 27.4585H113.775C113.695 27.1165 113.655 26.7141 113.655 26.2514C113.655 25.7686 113.695 25.3663 113.775 25.0444H114.68C114.6 24.7024 114.56 24.3001 114.56 23.8374C114.56 23.3546 114.6 22.9522 114.68 22.6303H116.189C116.109 22.2883 116.069 21.886 116.069 21.4233C116.069 20.9405 116.109 20.5381 116.189 20.2163H122.224C122.305 20.5381 122.345 20.9405 122.345 21.4233C122.345 21.886 122.305 22.2883 122.224 22.6303H123.431C123.512 22.9522 123.552 23.3546 123.552 23.8374ZM121.017 25.0444C120.937 24.7024 120.897 24.3001 120.897 23.8374C120.897 23.3546 120.937 22.9522 121.017 22.6303H117.095C117.175 22.9522 117.215 23.3546 117.215 23.8374C117.215 24.3001 117.175 24.7024 117.095 25.0444H121.017Z" fill="white"/>
</svg>
