<svg width="152" height="47" viewBox="0 0 152 47" fill="none" xmlns="http://www.w3.org/2000/svg">
<rect x="1" y="1" width="149.107" height="44.7491" rx="5.74991" fill="#0057FF" stroke="white" stroke-width="2"/>
<rect x="2.89185" y="39.2074" width="145.324" height="4.74991" fill="black" fill-opacity="0.24"/>
<rect x="2.89185" y="2.79163" width="145.324" height="4.74991" fill="white" fill-opacity="0.64"/>
<rect x="3.18748" y="3.18748" width="144.732" height="40.3742" rx="3.56243" stroke="#14192A" stroke-width="2.37495"/>
<path d="M33.4899 28.6654C33.4899 29.1281 33.4497 29.5304 33.3692 29.8724C33.4497 30.1943 33.4899 30.5967 33.4899 31.0795C33.4899 31.5422 33.4497 31.9445 33.3692 32.2865H30.9551C30.8746 31.9445 30.8344 31.5422 30.8344 31.0795C30.8344 30.5967 30.8746 30.1943 30.9551 29.8724C30.8746 29.5304 30.8344 29.1281 30.8344 28.6654C30.8344 28.1826 30.8746 27.7802 30.9551 27.4584H26.127C26.2074 27.7802 26.2477 28.1826 26.2477 28.6654C26.2477 29.1281 26.2074 29.5304 26.127 29.8724C26.2074 30.1943 26.2477 30.5967 26.2477 31.0795C26.2477 31.5422 26.2074 31.9445 26.127 32.2865H23.7129C23.6324 31.9445 23.5922 31.5422 23.5922 31.0795C23.5922 30.5967 23.6324 30.1943 23.7129 29.8724C23.6324 29.5304 23.5922 29.1281 23.5922 28.6654C23.5922 28.1826 23.6324 27.7802 23.7129 27.4584H24.6182C24.5377 27.1164 24.4975 26.714 24.4975 26.2513C24.4975 25.7685 24.5377 25.3662 24.6182 25.0443C24.5377 24.7023 24.4975 24.3 24.4975 23.8373C24.4975 23.3544 24.5377 22.9521 24.6182 22.6302H25.2217C25.1412 22.2882 25.101 21.8859 25.101 21.4232C25.101 20.9404 25.1412 20.538 25.2217 20.2162H26.127C26.0465 19.8742 26.0063 19.4718 26.0063 19.0091C26.0063 18.5263 26.0465 18.124 26.127 17.8021H26.7305C26.65 17.4601 26.6098 17.0577 26.6098 16.595C26.6098 16.1122 26.65 15.7099 26.7305 15.388H30.3516C30.4321 15.7099 30.4723 16.1122 30.4723 16.595C30.4723 17.0577 30.4321 17.4601 30.3516 17.8021H30.9551C31.0356 18.124 31.0758 18.5263 31.0758 19.0091C31.0758 19.4718 31.0356 19.8742 30.9551 20.2162H31.8604C31.9409 20.538 31.9811 20.9404 31.9811 21.4232C31.9811 21.8859 31.9409 22.2882 31.8604 22.6302H32.4639C32.5444 22.9521 32.5846 23.3544 32.5846 23.8373C32.5846 24.3 32.5444 24.7023 32.4639 25.0443C32.5444 25.3662 32.5846 25.7685 32.5846 26.2513C32.5846 26.714 32.5444 27.1164 32.4639 27.4584H33.3692C33.4497 27.7802 33.4899 28.1826 33.4899 28.6654ZM30.0498 25.0443C29.9694 24.7023 29.9291 24.3 29.9291 23.8373C29.9291 23.3544 29.9694 22.9521 30.0498 22.6302H29.4463C29.3659 22.2882 29.3256 21.8859 29.3256 21.4232C29.3256 20.9404 29.3659 20.538 29.4463 20.2162H27.6358C27.7162 20.538 27.7565 20.9404 27.7565 21.4232C27.7565 21.8859 27.7162 22.2882 27.6358 22.6302H27.0323C27.1127 22.9521 27.153 23.3544 27.153 23.8373C27.153 24.3 27.1127 24.7023 27.0323 25.0443H30.0498ZM44.2443 29.8724C44.3248 30.1943 44.365 30.5967 44.365 31.0795C44.365 31.5422 44.3248 31.9445 44.2443 32.2865H37.0021C36.9216 31.9445 36.8814 31.5422 36.8814 31.0795C36.8814 30.5967 36.9216 30.1943 37.0021 29.8724H39.4162C39.3357 29.5304 39.2954 29.1281 39.2954 28.6654C39.2954 28.1826 39.3357 27.7802 39.4162 27.4584C39.3357 27.1164 39.2954 26.714 39.2954 26.2513C39.2954 25.7685 39.3357 25.3662 39.4162 25.0443C39.3357 24.7023 39.2954 24.3 39.2954 23.8373C39.2954 23.3544 39.3357 22.9521 39.4162 22.6302C39.3357 22.2882 39.2954 21.8859 39.2954 21.4232C39.2954 20.9404 39.3357 20.538 39.4162 20.2162C39.3357 19.8742 39.2954 19.4718 39.2954 19.0091C39.2954 18.5263 39.3357 18.124 39.4162 17.8021H37.6056C37.5251 17.4601 37.4849 17.0577 37.4849 16.595C37.4849 16.1122 37.5251 15.7099 37.6056 15.388H41.8302C41.9107 15.7099 41.9509 16.1122 41.9509 16.595C41.9509 17.0577 41.9107 17.4601 41.8302 17.8021C41.9107 18.124 41.9509 18.5263 41.9509 19.0091C41.9509 19.4718 41.9107 19.8742 41.8302 20.2162C41.9107 20.538 41.9509 20.9404 41.9509 21.4232C41.9509 21.8859 41.9107 22.2882 41.8302 22.6302C41.9107 22.9521 41.9509 23.3544 41.9509 23.8373C41.9509 24.3 41.9107 24.7023 41.8302 25.0443C41.9107 25.3662 41.9509 25.7685 41.9509 26.2513C41.9509 26.714 41.9107 27.1164 41.8302 27.4584C41.9107 27.7802 41.9509 28.1826 41.9509 28.6654C41.9509 29.1281 41.9107 29.5304 41.8302 29.8724H44.2443ZM56.3264 29.8724C56.4069 30.1943 56.4471 30.5967 56.4471 31.0795C56.4471 31.5422 56.4069 31.9445 56.3264 32.2865H49.0842C49.0037 31.9445 48.9635 31.5422 48.9635 31.0795C48.9635 30.5967 49.0037 30.1943 49.0842 29.8724H51.4983C51.4178 29.5304 51.3776 29.1281 51.3776 28.6654C51.3776 28.1826 51.4178 27.7802 51.4983 27.4584C51.4178 27.1164 51.3776 26.714 51.3776 26.2513C51.3776 25.7685 51.4178 25.3662 51.4983 25.0443C51.4178 24.7023 51.3776 24.3 51.3776 23.8373C51.3776 23.3544 51.4178 22.9521 51.4983 22.6302C51.4178 22.2882 51.3776 21.8859 51.3776 21.4232C51.3776 20.9404 51.4178 20.538 51.4983 20.2162C51.4178 19.8742 51.3776 19.4718 51.3776 19.0091C51.3776 18.5263 51.4178 18.124 51.4983 17.8021H49.6877C49.6073 17.4601 49.567 17.0577 49.567 16.595C49.567 16.1122 49.6073 15.7099 49.6877 15.388H53.9124C53.9928 15.7099 54.0331 16.1122 54.0331 16.595C54.0331 17.0577 53.9928 17.4601 53.9124 17.8021C53.9928 18.124 54.0331 18.5263 54.0331 19.0091C54.0331 19.4718 53.9928 19.8742 53.9124 20.2162C53.9928 20.538 54.0331 20.9404 54.0331 21.4232C54.0331 21.8859 53.9928 22.2882 53.9124 22.6302C53.9928 22.9521 54.0331 23.3544 54.0331 23.8373C54.0331 24.3 53.9928 24.7023 53.9124 25.0443C53.9928 25.3662 54.0331 25.7685 54.0331 26.2513C54.0331 26.714 53.9928 27.1164 53.9124 27.4584C53.9928 27.7802 54.0331 28.1826 54.0331 28.6654C54.0331 29.1281 53.9928 29.5304 53.9124 29.8724H56.3264ZM81.6977 22.6302C81.7782 22.9521 81.8184 23.3544 81.8184 23.8373C81.8184 24.3 81.7782 24.7023 81.6977 25.0443C81.7782 25.3662 81.8184 25.7685 81.8184 26.2513C81.8184 26.714 81.7782 27.1164 81.6977 27.4584C81.7782 27.7802 81.8184 28.1826 81.8184 28.6654C81.8184 29.1281 81.7782 29.5304 81.6977 29.8724H80.4907C80.5712 30.1943 80.6114 30.5967 80.6114 31.0795C80.6114 31.5422 80.5712 31.9445 80.4907 32.2865H74.4555C74.3751 31.9445 74.3348 31.5422 74.3348 31.0795C74.3348 30.5967 74.3751 30.1943 74.4555 29.8724H73.2485C73.168 29.5304 73.1278 29.1281 73.1278 28.6654C73.1278 28.1826 73.168 27.7802 73.2485 27.4584H72.0415C71.961 27.1164 71.9208 26.714 71.9208 26.2513C71.9208 25.7685 71.961 25.3662 72.0415 25.0443C71.961 24.7023 71.9208 24.3 71.9208 23.8373C71.9208 23.3544 71.961 22.9521 72.0415 22.6302C71.961 22.2882 71.9208 21.8859 71.9208 21.4232C71.9208 20.9404 71.961 20.538 72.0415 20.2162H73.2485C73.168 19.8742 73.1278 19.4718 73.1278 19.0091C73.1278 18.5263 73.168 18.124 73.2485 17.8021H74.4555C74.3751 17.4601 74.3348 17.0577 74.3348 16.595C74.3348 16.1122 74.3751 15.7099 74.4555 15.388H80.4907C80.5712 15.7099 80.6114 16.1122 80.6114 16.595C80.6114 17.0577 80.5712 17.4601 80.4907 17.8021H81.6977C81.7782 18.124 81.8184 18.5263 81.8184 19.0091C81.8184 19.4718 81.7782 19.8742 81.6977 20.2162H79.2837C79.2032 19.8742 79.163 19.4718 79.163 19.0091C79.163 18.5263 79.2032 18.124 79.2837 17.8021H75.6626C75.743 18.124 75.7833 18.5263 75.7833 19.0091C75.7833 19.4718 75.743 19.8742 75.6626 20.2162H74.4555C74.536 20.538 74.5762 20.9404 74.5762 21.4232C74.5762 21.8859 74.536 22.2882 74.4555 22.6302C74.536 22.9521 74.5762 23.3544 74.5762 23.8373C74.5762 24.3 74.536 24.7023 74.4555 25.0443C74.536 25.3662 74.5762 25.7685 74.5762 26.2513C74.5762 26.714 74.536 27.1164 74.4555 27.4584H75.6626C75.743 27.7802 75.7833 28.1826 75.7833 28.6654C75.7833 29.1281 75.743 29.5304 75.6626 29.8724H79.2837C79.2032 29.5304 79.163 29.1281 79.163 28.6654C79.163 28.1826 79.2032 27.7802 79.2837 27.4584C79.2032 27.1164 79.163 26.714 79.163 26.2513C79.163 25.7685 79.2032 25.3662 79.2837 25.0443H77.4731C77.3926 24.7023 77.3524 24.3 77.3524 23.8373C77.3524 23.3544 77.3926 22.9521 77.4731 22.6302H81.6977ZM93.7799 29.8724C93.8603 30.1943 93.9006 30.5967 93.9006 31.0795C93.9006 31.5422 93.8603 31.9445 93.7799 32.2865H91.3658C91.2853 31.9445 91.2451 31.5422 91.2451 31.0795C91.2451 30.5967 91.2853 30.1943 91.3658 29.8724H90.1588C90.0783 29.5304 90.0381 29.1281 90.0381 28.6654C90.0381 28.1826 90.0783 27.7802 90.1588 27.4584H86.5377C86.6181 27.7802 86.6584 28.1826 86.6584 28.6654C86.6584 29.1281 86.6181 29.5304 86.5377 29.8724H90.1588C90.2392 30.1943 90.2795 30.5967 90.2795 31.0795C90.2795 31.5422 90.2392 31.9445 90.1588 32.2865H85.3306C85.2502 31.9445 85.2099 31.5422 85.2099 31.0795C85.2099 30.5967 85.2502 30.1943 85.3306 29.8724H84.1236C84.0431 29.5304 84.0029 29.1281 84.0029 28.6654C84.0029 28.1826 84.0431 27.7802 84.1236 27.4584H85.3306C85.2502 27.1164 85.2099 26.714 85.2099 26.2513C85.2099 25.7685 85.2502 25.3662 85.3306 25.0443H90.1588C90.0783 24.7023 90.0381 24.3 90.0381 23.8373C90.0381 23.3544 90.0783 22.9521 90.1588 22.6302H85.9341C85.8537 22.2882 85.8134 21.8859 85.8134 21.4232C85.8134 20.9404 85.8537 20.538 85.9341 20.2162H91.3658C91.4463 20.538 91.4865 20.9404 91.4865 21.4232C91.4865 21.8859 91.4463 22.2882 91.3658 22.6302H92.5728C92.6533 22.9521 92.6935 23.3544 92.6935 23.8373C92.6935 24.3 92.6533 24.7023 92.5728 25.0443C92.6533 25.3662 92.6935 25.7685 92.6935 26.2513C92.6935 26.714 92.6533 27.1164 92.5728 27.4584C92.6533 27.7802 92.6935 28.1826 92.6935 28.6654C92.6935 29.1281 92.6533 29.5304 92.5728 29.8724H93.7799ZM97.8352 21.4232C97.8352 21.8859 97.795 22.2882 97.7145 22.6302H98.6198C98.7003 22.9521 98.7405 23.3544 98.7405 23.8373C98.7405 24.3 98.7003 24.7023 98.6198 25.0443C98.7003 25.3662 98.7405 25.7685 98.7405 26.2513C98.7405 26.714 98.7003 27.1164 98.6198 27.4584C98.7003 27.7802 98.7405 28.1826 98.7405 28.6654C98.7405 29.1281 98.7003 29.5304 98.6198 29.8724C98.7003 30.1943 98.7405 30.5967 98.7405 31.0795C98.7405 31.5422 98.7003 31.9445 98.6198 32.2865H96.2057C96.1253 31.9445 96.085 31.5422 96.085 31.0795C96.085 30.5967 96.1253 30.1943 96.2057 29.8724C96.1253 29.5304 96.085 29.1281 96.085 28.6654C96.085 28.1826 96.1253 27.7802 96.2057 27.4584C96.1253 27.1164 96.085 26.714 96.085 26.2513C96.085 25.7685 96.1253 25.3662 96.2057 25.0443C96.1253 24.7023 96.085 24.3 96.085 23.8373C96.085 23.3544 96.1253 22.9521 96.2057 22.6302C96.1253 22.2882 96.085 21.8859 96.085 21.4232C96.085 20.9404 96.1253 20.538 96.2057 20.2162H97.7145C97.795 20.538 97.8352 20.9404 97.8352 21.4232ZM101.155 21.4232C101.155 21.8859 101.114 22.2882 101.034 22.6302H101.939C102.02 22.9521 102.06 23.3544 102.06 23.8373C102.06 24.3 102.02 24.7023 101.939 25.0443C102.02 25.3662 102.06 25.7685 102.06 26.2513C102.06 26.714 102.02 27.1164 101.939 27.4584C102.02 27.7802 102.06 28.1826 102.06 28.6654C102.06 29.1281 102.02 29.5304 101.939 29.8724C102.02 30.1943 102.06 30.5967 102.06 31.0795C102.06 31.5422 102.02 31.9445 101.939 32.2865H100.129C100.048 31.9445 100.008 31.5422 100.008 31.0795C100.008 30.5967 100.048 30.1943 100.129 29.8724C100.048 29.5304 100.008 29.1281 100.008 28.6654C100.008 28.1826 100.048 27.7802 100.129 27.4584C100.048 27.1164 100.008 26.714 100.008 26.2513C100.008 25.7685 100.048 25.3662 100.129 25.0443C100.048 24.7023 100.008 24.3 100.008 23.8373C100.008 23.3544 100.048 22.9521 100.129 22.6302H98.6198C98.5393 22.2882 98.4991 21.8859 98.4991 21.4232C98.4991 20.9404 98.5393 20.538 98.6198 20.2162H101.034C101.114 20.538 101.155 20.9404 101.155 21.4232ZM105.862 25.0443C105.942 25.3662 105.983 25.7685 105.983 26.2513C105.983 26.714 105.942 27.1164 105.862 27.4584C105.942 27.7802 105.983 28.1826 105.983 28.6654C105.983 29.1281 105.942 29.5304 105.862 29.8724C105.942 30.1943 105.983 30.5967 105.983 31.0795C105.983 31.5422 105.942 31.9445 105.862 32.2865H103.448C103.367 31.9445 103.327 31.5422 103.327 31.0795C103.327 30.5967 103.367 30.1943 103.448 29.8724C103.367 29.5304 103.327 29.1281 103.327 28.6654C103.327 28.1826 103.367 27.7802 103.448 27.4584C103.367 27.1164 103.327 26.714 103.327 26.2513C103.327 25.7685 103.367 25.3662 103.448 25.0443C103.367 24.7023 103.327 24.3 103.327 23.8373C103.327 23.3544 103.367 22.9521 103.448 22.6302H101.939C101.859 22.2882 101.818 21.8859 101.818 21.4232C101.818 20.9404 101.859 20.538 101.939 20.2162H104.655C104.735 20.538 104.776 20.9404 104.776 21.4232C104.776 21.8859 104.735 22.2882 104.655 22.6302H105.862C105.942 22.9521 105.983 23.3544 105.983 23.8373C105.983 24.3 105.942 24.7023 105.862 25.0443ZM118.065 23.8373C118.065 24.3 118.025 24.7023 117.944 25.0443C118.025 25.3662 118.065 25.7685 118.065 26.2513C118.065 26.714 118.025 27.1164 117.944 27.4584H111.607C111.688 27.7802 111.728 28.1826 111.728 28.6654C111.728 29.1281 111.688 29.5304 111.607 29.8724H116.737C116.818 30.1943 116.858 30.5967 116.858 31.0795C116.858 31.5422 116.818 31.9445 116.737 32.2865H110.702C110.621 31.9445 110.581 31.5422 110.581 31.0795C110.581 30.5967 110.621 30.1943 110.702 29.8724H109.193C109.113 29.5304 109.072 29.1281 109.072 28.6654C109.072 28.1826 109.113 27.7802 109.193 27.4584H108.288C108.207 27.1164 108.167 26.714 108.167 26.2513C108.167 25.7685 108.207 25.3662 108.288 25.0443H109.193C109.113 24.7023 109.072 24.3 109.072 23.8373C109.072 23.3544 109.113 22.9521 109.193 22.6302H110.702C110.621 22.2882 110.581 21.8859 110.581 21.4232C110.581 20.9404 110.621 20.538 110.702 20.2162H116.737C116.818 20.538 116.858 20.9404 116.858 21.4232C116.858 21.8859 116.818 22.2882 116.737 22.6302H117.944C118.025 22.9521 118.065 23.3544 118.065 23.8373ZM115.53 25.0443C115.45 24.7023 115.409 24.3 115.409 23.8373C115.409 23.3544 115.45 22.9521 115.53 22.6302H111.607C111.688 22.9521 111.728 23.3544 111.728 23.8373C111.728 24.3 111.688 24.7023 111.607 25.0443H115.53ZM129.543 28.6654C129.543 29.1281 129.503 29.5304 129.423 29.8724H128.216C128.296 30.1943 128.336 30.5967 128.336 31.0795C128.336 31.5422 128.296 31.9445 128.216 32.2865H121.577C121.497 31.9445 121.456 31.5422 121.456 31.0795C121.456 30.5967 121.497 30.1943 121.577 29.8724H127.009C126.928 29.5304 126.888 29.1281 126.888 28.6654C126.888 28.1826 126.928 27.7802 127.009 27.4584H122.181C122.1 27.1164 122.06 26.714 122.06 26.2513C122.06 25.7685 122.1 25.3662 122.181 25.0443H120.974C120.893 24.7023 120.853 24.3 120.853 23.8373C120.853 23.3544 120.893 22.9521 120.974 22.6302H122.181C122.1 22.2882 122.06 21.8859 122.06 21.4232C122.06 20.9404 122.1 20.538 122.181 20.2162H128.819C128.9 20.538 128.94 20.9404 128.94 21.4232C128.94 21.8859 128.9 22.2882 128.819 22.6302H123.388C123.468 22.9521 123.508 23.3544 123.508 23.8373C123.508 24.3 123.468 24.7023 123.388 25.0443H128.216C128.296 25.3662 128.336 25.7685 128.336 26.2513C128.336 26.714 128.296 27.1164 128.216 27.4584H129.423C129.503 27.7802 129.543 28.1826 129.543 28.6654Z" fill="white"/>
</svg>
