<svg width="152" height="48" viewBox="0 0 152 48" fill="none" xmlns="http://www.w3.org/2000/svg">
<rect x="1.39209" y="1.62866" width="149.107" height="44.7491" rx="5.74991" fill="#0057FF" stroke="white" stroke-width="2"/>
<rect x="3.28369" y="39.8362" width="145.324" height="4.74991" fill="black" fill-opacity="0.24"/>
<rect x="3.28369" y="3.42017" width="145.324" height="4.74991" fill="white" fill-opacity="0.64"/>
<rect x="3.57957" y="3.81614" width="144.732" height="40.3742" rx="3.56243" stroke="#14192A" stroke-width="2.37495"/>
<path d="M62.9666 23.259C63.0471 23.5809 63.0873 23.9832 63.0873 24.466C63.0873 24.9287 63.0471 25.3311 62.9666 25.6731C63.0471 25.9949 63.0873 26.3973 63.0873 26.8801C63.0873 27.3428 63.0471 27.7452 62.9666 28.0871H61.7596C61.8401 28.409 61.8803 28.8114 61.8803 29.2942C61.8803 29.7569 61.8401 30.1592 61.7596 30.5012H60.5525C60.633 30.8231 60.6733 31.2254 60.6733 31.7082C60.6733 32.1709 60.633 32.5733 60.5525 32.9153H53.3103C53.2299 32.5733 53.1896 32.1709 53.1896 31.7082C53.1896 31.2254 53.2299 30.8231 53.3103 30.5012C53.2299 30.1592 53.1896 29.7569 53.1896 29.2942C53.1896 28.8114 53.2299 28.409 53.3103 28.0871C53.2299 27.7452 53.1896 27.3428 53.1896 26.8801C53.1896 26.3973 53.2299 25.9949 53.3103 25.6731C53.2299 25.3311 53.1896 24.9287 53.1896 24.466C53.1896 23.9832 53.2299 23.5809 53.3103 23.259C53.2299 22.917 53.1896 22.5147 53.1896 22.052C53.1896 21.5692 53.2299 21.1668 53.3103 20.8449C53.2299 20.5029 53.1896 20.1006 53.1896 19.6379C53.1896 19.1551 53.2299 18.7527 53.3103 18.4309C53.2299 18.0889 53.1896 17.6865 53.1896 17.2238C53.1896 16.741 53.2299 16.3387 53.3103 16.0168H60.5525C60.633 16.3387 60.6733 16.741 60.6733 17.2238C60.6733 17.6865 60.633 18.0889 60.5525 18.4309H61.7596C61.8401 18.7527 61.8803 19.1551 61.8803 19.6379C61.8803 20.1006 61.8401 20.5029 61.7596 20.8449H62.9666C63.0471 21.1668 63.0873 21.5692 63.0873 22.052C63.0873 22.5147 63.0471 22.917 62.9666 23.259ZM60.5525 28.0871C60.4721 27.7452 60.4318 27.3428 60.4318 26.8801C60.4318 26.3973 60.4721 25.9949 60.5525 25.6731C60.4721 25.3311 60.4318 24.9287 60.4318 24.466C60.4318 23.9832 60.4721 23.5809 60.5525 23.259C60.4721 22.917 60.4318 22.5147 60.4318 22.052C60.4318 21.5692 60.4721 21.1668 60.5525 20.8449H59.3455C59.265 20.5029 59.2248 20.1006 59.2248 19.6379C59.2248 19.1551 59.265 18.7527 59.3455 18.4309H55.7244C55.8049 18.7527 55.8451 19.1551 55.8451 19.6379C55.8451 20.1006 55.8049 20.5029 55.7244 20.8449C55.8049 21.1668 55.8451 21.5692 55.8451 22.052C55.8451 22.5147 55.8049 22.917 55.7244 23.259C55.8049 23.5809 55.8451 23.9832 55.8451 24.466C55.8451 24.9287 55.8049 25.3311 55.7244 25.6731C55.8049 25.9949 55.8451 26.3973 55.8451 26.8801C55.8451 27.3428 55.8049 27.7452 55.7244 28.0871C55.8049 28.409 55.8451 28.8114 55.8451 29.2942C55.8451 29.7569 55.8049 30.1592 55.7244 30.5012H59.3455C59.265 30.1592 59.2248 29.7569 59.2248 29.2942C59.2248 28.8114 59.265 28.409 59.3455 28.0871H60.5525ZM75.1695 24.466C75.1695 24.9287 75.1292 25.3311 75.0488 25.6731C75.1292 25.9949 75.1695 26.3973 75.1695 26.8801C75.1695 27.3428 75.1292 27.7452 75.0488 28.0871H68.7118C68.7923 28.409 68.8325 28.8114 68.8325 29.2942C68.8325 29.7569 68.7923 30.1592 68.7118 30.5012H73.8417C73.9222 30.8231 73.9624 31.2254 73.9624 31.7082C73.9624 32.1709 73.9222 32.5733 73.8417 32.9153H67.8065C67.7261 32.5733 67.6858 32.1709 67.6858 31.7082C67.6858 31.2254 67.7261 30.8231 67.8065 30.5012H66.2978C66.2173 30.1592 66.177 29.7569 66.177 29.2942C66.177 28.8114 66.2173 28.409 66.2978 28.0871H65.3925C65.312 27.7452 65.2718 27.3428 65.2718 26.8801C65.2718 26.3973 65.312 25.9949 65.3925 25.6731H66.2978C66.2173 25.3311 66.177 24.9287 66.177 24.466C66.177 23.9832 66.2173 23.5809 66.2978 23.259H67.8065C67.7261 22.917 67.6858 22.5147 67.6858 22.052C67.6858 21.5692 67.7261 21.1668 67.8065 20.8449H73.8417C73.9222 21.1668 73.9624 21.5692 73.9624 22.052C73.9624 22.5147 73.9222 22.917 73.8417 23.259H75.0488C75.1292 23.5809 75.1695 23.9832 75.1695 24.466ZM72.6347 25.6731C72.5542 25.3311 72.514 24.9287 72.514 24.466C72.514 23.9832 72.5542 23.5809 72.6347 23.259H68.7118C68.7923 23.5809 68.8325 23.9832 68.8325 24.466C68.8325 24.9287 68.7923 25.3311 68.7118 25.6731H72.6347ZM79.1041 22.052C79.1041 22.5147 79.0639 22.917 78.9834 23.259H79.8887C79.9692 23.5809 80.0094 23.9832 80.0094 24.466C80.0094 24.9287 79.9692 25.3311 79.8887 25.6731C79.9692 25.9949 80.0094 26.3973 80.0094 26.8801C80.0094 27.3428 79.9692 27.7452 79.8887 28.0871C79.9692 28.409 80.0094 28.8114 80.0094 29.2942C80.0094 29.7569 79.9692 30.1592 79.8887 30.5012C79.9692 30.8231 80.0094 31.2254 80.0094 31.7082C80.0094 32.1709 79.9692 32.5733 79.8887 32.9153H77.4746C77.3941 32.5733 77.3539 32.1709 77.3539 31.7082C77.3539 31.2254 77.3941 30.8231 77.4746 30.5012C77.3941 30.1592 77.3539 29.7569 77.3539 29.2942C77.3539 28.8114 77.3941 28.409 77.4746 28.0871C77.3941 27.7452 77.3539 27.3428 77.3539 26.8801C77.3539 26.3973 77.3941 25.9949 77.4746 25.6731C77.3941 25.3311 77.3539 24.9287 77.3539 24.466C77.3539 23.9832 77.3941 23.5809 77.4746 23.259C77.3941 22.917 77.3539 22.5147 77.3539 22.052C77.3539 21.5692 77.3941 21.1668 77.4746 20.8449H78.9834C79.0639 21.1668 79.1041 21.5692 79.1041 22.052ZM82.4235 22.052C82.4235 22.5147 82.3832 22.917 82.3028 23.259H83.208C83.2885 23.5809 83.3287 23.9832 83.3287 24.466C83.3287 24.9287 83.2885 25.3311 83.208 25.6731C83.2885 25.9949 83.3287 26.3973 83.3287 26.8801C83.3287 27.3428 83.2885 27.7452 83.208 28.0871C83.2885 28.409 83.3287 28.8114 83.3287 29.2942C83.3287 29.7569 83.2885 30.1592 83.208 30.5012C83.2885 30.8231 83.3287 31.2254 83.3287 31.7082C83.3287 32.1709 83.2885 32.5733 83.208 32.9153H81.3975C81.317 32.5733 81.2768 32.1709 81.2768 31.7082C81.2768 31.2254 81.317 30.8231 81.3975 30.5012C81.317 30.1592 81.2768 29.7569 81.2768 29.2942C81.2768 28.8114 81.317 28.409 81.3975 28.0871C81.317 27.7452 81.2768 27.3428 81.2768 26.8801C81.2768 26.3973 81.317 25.9949 81.3975 25.6731C81.317 25.3311 81.2768 24.9287 81.2768 24.466C81.2768 23.9832 81.317 23.5809 81.3975 23.259H79.8887C79.8082 22.917 79.768 22.5147 79.768 22.052C79.768 21.5692 79.8082 21.1668 79.8887 20.8449H82.3028C82.3832 21.1668 82.4235 21.5692 82.4235 22.052ZM87.1309 25.6731C87.2114 25.9949 87.2516 26.3973 87.2516 26.8801C87.2516 27.3428 87.2114 27.7452 87.1309 28.0871C87.2114 28.409 87.2516 28.8114 87.2516 29.2942C87.2516 29.7569 87.2114 30.1592 87.1309 30.5012C87.2114 30.8231 87.2516 31.2254 87.2516 31.7082C87.2516 32.1709 87.2114 32.5733 87.1309 32.9153H84.7168C84.6364 32.5733 84.5961 32.1709 84.5961 31.7082C84.5961 31.2254 84.6364 30.8231 84.7168 30.5012C84.6364 30.1592 84.5961 29.7569 84.5961 29.2942C84.5961 28.8114 84.6364 28.409 84.7168 28.0871C84.6364 27.7452 84.5961 27.3428 84.5961 26.8801C84.5961 26.3973 84.6364 25.9949 84.7168 25.6731C84.6364 25.3311 84.5961 24.9287 84.5961 24.466C84.5961 23.9832 84.6364 23.5809 84.7168 23.259H83.208C83.1276 22.917 83.0873 22.5147 83.0873 22.052C83.0873 21.5692 83.1276 21.1668 83.208 20.8449H85.9239C86.0043 21.1668 86.0446 21.5692 86.0446 22.052C86.0446 22.5147 86.0043 22.917 85.9239 23.259H87.1309C87.2114 23.5809 87.2516 23.9832 87.2516 24.466C87.2516 24.9287 87.2114 25.3311 87.1309 25.6731ZM99.3337 26.8801C99.3337 27.3428 99.2935 27.7452 99.213 28.0871H98.3078C98.3882 28.409 98.4285 28.8114 98.4285 29.2942C98.4285 29.7569 98.3882 30.1592 98.3078 30.5012H96.799C96.8794 30.8231 96.9197 31.2254 96.9197 31.7082C96.9197 32.1709 96.8794 32.5733 96.799 32.9153H91.9708C91.8903 32.5733 91.8501 32.1709 91.8501 31.7082C91.8501 31.2254 91.8903 30.8231 91.9708 30.5012H90.462C90.3816 30.1592 90.3413 29.7569 90.3413 29.2942C90.3413 28.8114 90.3816 28.409 90.462 28.0871H89.5567C89.4763 27.7452 89.436 27.3428 89.436 26.8801C89.436 26.3973 89.4763 25.9949 89.5567 25.6731H90.462C90.3816 25.3311 90.3413 24.9287 90.3413 24.466C90.3413 23.9832 90.3816 23.5809 90.462 23.259H91.9708C91.8903 22.917 91.8501 22.5147 91.8501 22.052C91.8501 21.5692 91.8903 21.1668 91.9708 20.8449H96.799C96.8794 21.1668 96.9197 21.5692 96.9197 22.052C96.9197 22.5147 96.8794 22.917 96.799 23.259H98.3078C98.3882 23.5809 98.4285 23.9832 98.4285 24.466C98.4285 24.9287 98.3882 25.3311 98.3078 25.6731H99.213C99.2935 25.9949 99.3337 26.3973 99.3337 26.8801ZM96.799 28.0871C96.7185 27.7452 96.6783 27.3428 96.6783 26.8801C96.6783 26.3973 96.7185 25.9949 96.799 25.6731H95.8937C95.8132 25.3311 95.773 24.9287 95.773 24.466C95.773 23.9832 95.8132 23.5809 95.8937 23.259H92.8761C92.9566 23.5809 92.9968 23.9832 92.9968 24.466C92.9968 24.9287 92.9566 25.3311 92.8761 25.6731H91.9708C92.0513 25.9949 92.0915 26.3973 92.0915 26.8801C92.0915 27.3428 92.0513 27.7452 91.9708 28.0871H92.8761C92.9566 28.409 92.9968 28.8114 92.9968 29.2942C92.9968 29.7569 92.9566 30.1592 92.8761 30.5012H95.8937C95.8132 30.1592 95.773 29.7569 95.773 29.2942C95.773 28.8114 95.8132 28.409 95.8937 28.0871H96.799Z" fill="white"/>
</svg>
