<svg width="125" height="45" viewBox="0 0 125 45" fill="none" xmlns="http://www.w3.org/2000/svg">
<rect x="1.91064" y="1.87878" width="121.907" height="41.2424" rx="5.36027" fill="#4267B2" stroke="white" stroke-width="2"/>
<rect x="3.63721" y="37.0342" width="118.454" height="4.36027" fill="black" fill-opacity="0.24"/>
<rect x="3.63721" y="3.60547" width="118.454" height="4.36027" fill="white" fill-opacity="0.64"/>
<rect x="4.00071" y="3.96885" width="117.727" height="37.0623" rx="3.2702" stroke="#14192A" stroke-width="2.18013"/>
<path d="M40.2452 28.8927C40.317 29.1797 40.3528 29.5385 40.3528 29.969C40.3528 30.3817 40.317 30.7404 40.2452 31.0454H32.7107C32.6389 30.7404 32.603 30.3817 32.603 29.969C32.603 29.5385 32.6389 29.1797 32.7107 28.8927C32.6389 28.5877 32.603 28.2289 32.603 27.8163C32.603 27.3858 32.6389 27.027 32.7107 26.74C32.6389 26.435 32.603 26.0762 32.603 25.6636C32.603 25.233 32.6389 24.8743 32.7107 24.5872C32.6389 24.2823 32.603 23.9235 32.603 23.5109C32.603 23.0803 32.6389 22.7215 32.7107 22.4345C32.6389 22.1295 32.603 21.7707 32.603 21.3581C32.603 20.9276 32.6389 20.5688 32.7107 20.2818C32.6389 19.9768 32.603 19.618 32.603 19.2054C32.603 18.7749 32.6389 18.4161 32.7107 18.129C32.6389 17.8241 32.603 17.4653 32.603 17.0527C32.603 16.6221 32.6389 16.2633 32.7107 15.9763H34.8634C34.9351 16.2633 34.971 16.6221 34.971 17.0527C34.971 17.4653 34.9351 17.8241 34.8634 18.129C34.9351 18.4161 34.971 18.7749 34.971 19.2054C34.971 19.618 34.9351 19.9768 34.8634 20.2818C34.9351 20.5688 34.971 20.9276 34.971 21.3581C34.971 21.7707 34.9351 22.1295 34.8634 22.4345C34.9351 22.7215 34.971 23.0803 34.971 23.5109C34.971 23.9235 34.9351 24.2823 34.8634 24.5872C34.9351 24.8743 34.971 25.233 34.971 25.6636C34.971 26.0762 34.9351 26.435 34.8634 26.74C34.9351 27.027 34.971 27.3858 34.971 27.8163C34.971 28.2289 34.9351 28.5877 34.8634 28.8927H40.2452ZM51.0193 22.4345C51.0911 22.7215 51.127 23.0803 51.127 23.5109C51.127 23.9235 51.0911 24.2823 51.0193 24.5872C51.0911 24.8743 51.127 25.233 51.127 25.6636C51.127 26.0762 51.0911 26.435 51.0193 26.74H50.2121C50.2838 27.027 50.3197 27.3858 50.3197 27.8163C50.3197 28.2289 50.2838 28.5877 50.2121 28.8927H48.8666C48.9384 29.1797 48.9743 29.5385 48.9743 29.969C48.9743 30.3817 48.9384 30.7404 48.8666 31.0454H44.5612C44.4894 30.7404 44.4535 30.3817 44.4535 29.969C44.4535 29.5385 44.4894 29.1797 44.5612 28.8927H43.2157C43.144 28.5877 43.1081 28.2289 43.1081 27.8163C43.1081 27.3858 43.144 27.027 43.2157 26.74H42.4084C42.3367 26.435 42.3008 26.0762 42.3008 25.6636C42.3008 25.233 42.3367 24.8743 42.4084 24.5872C42.3367 24.2823 42.3008 23.9235 42.3008 23.5109C42.3008 23.0803 42.3367 22.7215 42.4084 22.4345C42.3367 22.1295 42.3008 21.7707 42.3008 21.3581C42.3008 20.9276 42.3367 20.5688 42.4084 20.2818H43.2157C43.144 19.9768 43.1081 19.618 43.1081 19.2054C43.1081 18.7749 43.144 18.4161 43.2157 18.129H44.5612C44.4894 17.8241 44.4535 17.4653 44.4535 17.0527C44.4535 16.6221 44.4894 16.2633 44.5612 15.9763H48.8666C48.9384 16.2633 48.9743 16.6221 48.9743 17.0527C48.9743 17.4653 48.9384 17.8241 48.8666 18.129H50.2121C50.2838 18.4161 50.3197 18.7749 50.3197 19.2054C50.3197 19.618 50.2838 19.9768 50.2121 20.2818H51.0193C51.0911 20.5688 51.127 20.9276 51.127 21.3581C51.127 21.7707 51.0911 22.1295 51.0193 22.4345ZM48.8666 26.74C48.7949 26.435 48.759 26.0762 48.759 25.6636C48.759 25.233 48.7949 24.8743 48.8666 24.5872C48.7949 24.2823 48.759 23.9235 48.759 23.5109C48.759 23.0803 48.7949 22.7215 48.8666 22.4345C48.7949 22.1295 48.759 21.7707 48.759 21.3581C48.759 20.9276 48.7949 20.5688 48.8666 20.2818H48.0593C47.9876 19.9768 47.9517 19.618 47.9517 19.2054C47.9517 18.7749 47.9876 18.4161 48.0593 18.129H45.3684C45.4402 18.4161 45.4761 18.7749 45.4761 19.2054C45.4761 19.618 45.4402 19.9768 45.3684 20.2818H44.5612C44.6329 20.5688 44.6688 20.9276 44.6688 21.3581C44.6688 21.7707 44.6329 22.1295 44.5612 22.4345C44.6329 22.7215 44.6688 23.0803 44.6688 23.5109C44.6688 23.9235 44.6329 24.2823 44.5612 24.5872C44.6329 24.8743 44.6688 25.233 44.6688 25.6636C44.6688 26.0762 44.6329 26.435 44.5612 26.74H45.3684C45.4402 27.027 45.4761 27.3858 45.4761 27.8163C45.4761 28.2289 45.4402 28.5877 45.3684 28.8927H48.0593C47.9876 28.5877 47.9517 28.2289 47.9517 27.8163C47.9517 27.3858 47.9876 27.027 48.0593 26.74H48.8666ZM61.7935 22.4345C61.8653 22.7215 61.9011 23.0803 61.9011 23.5109C61.9011 23.9235 61.8653 24.2823 61.7935 24.5872C61.8653 24.8743 61.9011 25.233 61.9011 25.6636C61.9011 26.0762 61.8653 26.435 61.7935 26.74C61.8653 27.027 61.9011 27.3858 61.9011 27.8163C61.9011 28.2289 61.8653 28.5877 61.7935 28.8927H60.7171C60.7889 29.1797 60.8248 29.5385 60.8248 29.969C60.8248 30.3817 60.7889 30.7404 60.7171 31.0454H55.3353C55.2636 30.7404 55.2277 30.3817 55.2277 29.969C55.2277 29.5385 55.2636 29.1797 55.3353 28.8927H54.2589C54.1872 28.5877 54.1513 28.2289 54.1513 27.8163C54.1513 27.3858 54.1872 27.027 54.2589 26.74H53.1826C53.1108 26.435 53.0749 26.0762 53.0749 25.6636C53.0749 25.233 53.1108 24.8743 53.1826 24.5872C53.1108 24.2823 53.0749 23.9235 53.0749 23.5109C53.0749 23.0803 53.1108 22.7215 53.1826 22.4345C53.1108 22.1295 53.0749 21.7707 53.0749 21.3581C53.0749 20.9276 53.1108 20.5688 53.1826 20.2818H54.2589C54.1872 19.9768 54.1513 19.618 54.1513 19.2054C54.1513 18.7749 54.1872 18.4161 54.2589 18.129H55.3353C55.2636 17.8241 55.2277 17.4653 55.2277 17.0527C55.2277 16.6221 55.2636 16.2633 55.3353 15.9763H60.7171C60.7889 16.2633 60.8248 16.6221 60.8248 17.0527C60.8248 17.4653 60.7889 17.8241 60.7171 18.129H61.7935C61.8653 18.4161 61.9011 18.7749 61.9011 19.2054C61.9011 19.618 61.8653 19.9768 61.7935 20.2818H59.6408C59.569 19.9768 59.5331 19.618 59.5331 19.2054C59.5331 18.7749 59.569 18.4161 59.6408 18.129H56.4117C56.4834 18.4161 56.5193 18.7749 56.5193 19.2054C56.5193 19.618 56.4834 19.9768 56.4117 20.2818H55.3353C55.4071 20.5688 55.4429 20.9276 55.4429 21.3581C55.4429 21.7707 55.4071 22.1295 55.3353 22.4345C55.4071 22.7215 55.4429 23.0803 55.4429 23.5109C55.4429 23.9235 55.4071 24.2823 55.3353 24.5872C55.4071 24.8743 55.4429 25.233 55.4429 25.6636C55.4429 26.0762 55.4071 26.435 55.3353 26.74H56.4117C56.4834 27.027 56.5193 27.3858 56.5193 27.8163C56.5193 28.2289 56.4834 28.5877 56.4117 28.8927H59.6408C59.569 28.5877 59.5331 28.2289 59.5331 27.8163C59.5331 27.3858 59.569 27.027 59.6408 26.74C59.569 26.435 59.5331 26.0762 59.5331 25.6636C59.5331 25.233 59.569 24.8743 59.6408 24.5872H58.0262C57.9545 24.2823 57.9186 23.9235 57.9186 23.5109C57.9186 23.0803 57.9545 22.7215 58.0262 22.4345H61.7935ZM81.7272 28.8927C81.799 29.1797 81.8349 29.5385 81.8349 29.969C81.8349 30.3817 81.799 30.7404 81.7272 31.0454H76.3454C76.2737 30.7404 76.2378 30.3817 76.2378 29.969C76.2378 29.5385 76.2737 29.1797 76.3454 28.8927H77.96C77.8882 28.5877 77.8523 28.2289 77.8523 27.8163C77.8523 27.3858 77.8882 27.027 77.96 26.74C77.8882 26.435 77.8523 26.0762 77.8523 25.6636C77.8523 25.233 77.8882 24.8743 77.96 24.5872C77.8882 24.2823 77.8523 23.9235 77.8523 23.5109C77.8523 23.0803 77.8882 22.7215 77.96 22.4345C77.8882 22.1295 77.8523 21.7707 77.8523 21.3581C77.8523 20.9276 77.8882 20.5688 77.96 20.2818C77.8882 19.9768 77.8523 19.618 77.8523 19.2054C77.8523 18.7749 77.8882 18.4161 77.96 18.129H76.3454C76.2737 17.8241 76.2378 17.4653 76.2378 17.0527C76.2378 16.6221 76.2737 16.2633 76.3454 15.9763H81.7272C81.799 16.2633 81.8349 16.6221 81.8349 17.0527C81.8349 17.4653 81.799 17.8241 81.7272 18.129H80.1127C80.1845 18.4161 80.2203 18.7749 80.2203 19.2054C80.2203 19.618 80.1845 19.9768 80.1127 20.2818C80.1845 20.5688 80.2203 20.9276 80.2203 21.3581C80.2203 21.7707 80.1845 22.1295 80.1127 22.4345C80.1845 22.7215 80.2203 23.0803 80.2203 23.5109C80.2203 23.9235 80.1845 24.2823 80.1127 24.5872C80.1845 24.8743 80.2203 25.233 80.2203 25.6636C80.2203 26.0762 80.1845 26.435 80.1127 26.74C80.1845 27.027 80.2203 27.3858 80.2203 27.8163C80.2203 28.2289 80.1845 28.5877 80.1127 28.8927H81.7272ZM94.1159 18.129C94.1877 18.4161 94.2236 18.7749 94.2236 19.2054C94.2236 19.618 94.1877 19.9768 94.1159 20.2818C94.1877 20.5688 94.2236 20.9276 94.2236 21.3581C94.2236 21.7707 94.1877 22.1295 94.1159 22.4345C94.1877 22.7215 94.2236 23.0803 94.2236 23.5109C94.2236 23.9235 94.1877 24.2823 94.1159 24.5872C94.1877 24.8743 94.2236 25.233 94.2236 25.6636C94.2236 26.0762 94.1877 26.435 94.1159 26.74C94.1877 27.027 94.2236 27.3858 94.2236 27.8163C94.2236 28.2289 94.1877 28.5877 94.1159 28.8927C94.1877 29.1797 94.2236 29.5385 94.2236 29.969C94.2236 30.3817 94.1877 30.7404 94.1159 31.0454H91.9632C91.8915 30.7404 91.8556 30.3817 91.8556 29.969C91.8556 29.5385 91.8915 29.1797 91.9632 28.8927H90.6178C90.546 28.5877 90.5101 28.2289 90.5101 27.8163C90.5101 27.3858 90.546 27.027 90.6178 26.74H89.8105C89.7387 26.435 89.7028 26.0762 89.7028 25.6636C89.7028 25.233 89.7387 24.8743 89.8105 24.5872H88.7341C88.6624 24.2823 88.6265 23.9235 88.6265 23.5109C88.6265 23.0803 88.6624 22.7215 88.7341 22.4345H87.6578C87.7295 22.7215 87.7654 23.0803 87.7654 23.5109C87.7654 23.9235 87.7295 24.2823 87.6578 24.5872C87.7295 24.8743 87.7654 25.233 87.7654 25.6636C87.7654 26.0762 87.7295 26.435 87.6578 26.74C87.7295 27.027 87.7654 27.3858 87.7654 27.8163C87.7654 28.2289 87.7295 28.5877 87.6578 28.8927C87.7295 29.1797 87.7654 29.5385 87.7654 29.969C87.7654 30.3817 87.7295 30.7404 87.6578 31.0454H85.505C85.4333 30.7404 85.3974 30.3817 85.3974 29.969C85.3974 29.5385 85.4333 29.1797 85.505 28.8927C85.4333 28.5877 85.3974 28.2289 85.3974 27.8163C85.3974 27.3858 85.4333 27.027 85.505 26.74C85.4333 26.435 85.3974 26.0762 85.3974 25.6636C85.3974 25.233 85.4333 24.8743 85.505 24.5872C85.4333 24.2823 85.3974 23.9235 85.3974 23.5109C85.3974 23.0803 85.4333 22.7215 85.505 22.4345C85.4333 22.1295 85.3974 21.7707 85.3974 21.3581C85.3974 20.9276 85.4333 20.5688 85.505 20.2818C85.4333 19.9768 85.3974 19.618 85.3974 19.2054C85.3974 18.7749 85.4333 18.4161 85.505 18.129C85.4333 17.8241 85.3974 17.4653 85.3974 17.0527C85.3974 16.6221 85.4333 16.2633 85.505 15.9763H88.1959C88.2677 16.2633 88.3036 16.6221 88.3036 17.0527C88.3036 17.4653 88.2677 17.8241 88.1959 18.129H89.0032C89.075 18.4161 89.1108 18.7749 89.1108 19.2054C89.1108 19.618 89.075 19.9768 89.0032 20.2818H89.8105C89.8822 20.5688 89.9181 20.9276 89.9181 21.3581C89.9181 21.7707 89.8822 22.1295 89.8105 22.4345H90.8868C90.9586 22.7215 90.9945 23.0803 90.9945 23.5109C90.9945 23.9235 90.9586 24.2823 90.8868 24.5872H91.9632C91.8915 24.2823 91.8556 23.9235 91.8556 23.5109C91.8556 23.0803 91.8915 22.7215 91.9632 22.4345C91.8915 22.1295 91.8556 21.7707 91.8556 21.3581C91.8556 20.9276 91.8915 20.5688 91.9632 20.2818C91.8915 19.9768 91.8556 19.618 91.8556 19.2054C91.8556 18.7749 91.8915 18.4161 91.9632 18.129C91.8915 17.8241 91.8556 17.4653 91.8556 17.0527C91.8556 16.6221 91.8915 16.2633 91.9632 15.9763H94.1159C94.1877 16.2633 94.2236 16.6221 94.2236 17.0527C94.2236 17.4653 94.1877 17.8241 94.1159 18.129Z" fill="white"/>
</svg>
