<svg width="191" height="49" viewBox="0 0 191 49" fill="none" xmlns="http://www.w3.org/2000/svg">
<g id="pixelface_colored">
<g id="Vector">
<path fill-rule="evenodd" clip-rule="evenodd" d="M29.9328 32.2H28.5075V28H29.9328V29.4H31.3582V30.8H29.9328V32.2ZM45.6119 29.4H47.0373V28H48.4627V32.2H47.0373V30.8H45.6119V29.4ZM64.1418 28V29.4H66.9925V30.8H68.4179V26.6H66.9925V28H64.1418Z" fill="#000082"/>
<path fill-rule="evenodd" clip-rule="evenodd" d="M0 37.8V21H1.42537V19.6H18.5299V21H21.3806V19.6H27.0821V21H29.9328V19.6H35.6343V21H37.0597V22.4H39.9104V21H41.3358V19.6H47.0373V21H49.8881V19.6H66.9925V21H69.8433V19.6H75.5448V21H76.9701V29.4H82.6716V30.8H84.097V29.4H85.5224V26.6H86.9478V23.8H88.3731V19.6H89.7985V18.2H91.2239V16.8H92.6492V11.2H94.0746V9.8H95.5V8.4H96.9254V7H98.3507V5.6H104.052V0H108.328V1.4H109.754V4.2H111.179V8.4H109.754V9.8H105.478V12.6H104.052V14H106.903V15.4H108.328V16.8H109.754V18.2H111.179V19.6H112.604V22.4H114.03V29.4H115.455V21H116.881V19.6H133.985V21H136.836V19.6H153.94V21H156.791V19.6H162.493V21H163.918V28H166.769V21H168.194V19.6H173.896V21H176.746V19.6H182.448V21H183.873V29.4H189.575V30.8H191V37.8H189.575V39.2H176.746V37.8H173.896V39.2H156.791V37.8H153.94V39.2H136.836V37.8H133.985V39.2H116.881V37.8H114.03V40.6H112.604V43.4H111.179V44.8H109.754V46.2H106.903V47.6H104.052V49H95.5V47.6H92.6492V46.2H89.7985V44.8H88.3731V43.4H86.9478V40.6H85.5224V37.8H82.6716V39.2H69.8433V37.8H66.9925V39.2H49.8881V37.8H48.4627V39.2H39.9104V37.8H37.0597V39.2H28.5075V37.8H27.0821V39.2H21.3806V37.8H19.9552V33.6H18.5299V35H8.55224V37.8H7.12687V39.2H1.42537V37.8H0ZM29.9328 32.2H28.5075V28H29.9328V29.4H31.3582V30.8H29.9328V32.2ZM47.0373 29.4H45.6119V30.8H47.0373V32.2H48.4627V28H47.0373V29.4ZM64.1418 28V29.4H66.9925V30.8H68.4179V26.6H66.9925V28H64.1418Z" fill="#000082"/>
<path fill-rule="evenodd" clip-rule="evenodd" d="M85.5224 30.8V36.4H86.9478V39.2H88.3731V42H89.7985V43.4H91.2239V44.8H94.0746V46.2H96.9254V47.6H102.627V46.2H105.478V44.8H108.328V43.4H109.754V42H111.179V39.2H112.604V36.4H114.03V30.8H112.604V23.8H111.179V21H109.754V19.6H108.328V18.2H106.903V16.8H105.478V15.4H102.627V14H101.201V12.6H102.627V9.8H104.052V8.4H102.627V7H99.7761V8.4H98.3507V9.8H96.9254V11.2H95.5V12.6H94.0746V15.4H95.5V16.8H94.0746V18.2H92.6492V19.6H91.2239V21H89.7985V25.2H88.3731V28H86.9478V30.8H85.5224ZM96.9254 18.2H95.5V16.8H96.9254V18.2ZM96.9254 18.2H98.3507V21H96.9254V22.4H95.5V19.6H96.9254V18.2ZM95.5 36.4H94.0746V35H92.6492V33.6H91.2239V30.8H92.6492V29.4H94.0746V30.8H96.9254V29.4H95.5V28H98.3507V26.6H99.7761V25.2H101.201V23.8H102.627V21H104.052V22.4H105.478V23.8H104.052V26.6H105.478V28H106.903V29.4H108.328V36.4H104.052V35H105.478V32.2H102.627V33.6H101.201V35H99.7761V36.4H98.3507V37.8H102.627V36.4H104.052V39.2H105.478V40.6H102.627V42H96.9254V40.6H94.0746V39.2H92.6492V37.8H95.5V36.4ZM105.478 26.6H106.903V25.2H105.478V26.6ZM102.627 21H101.201V19.6H102.627V21Z" fill="white"/>
<path d="M105.478 5.6V4.2H106.903V2.8H105.478V1.4H106.903V2.8H108.328V5.6H105.478Z" fill="white"/>
<path fill-rule="evenodd" clip-rule="evenodd" d="M1.42537 36.4V25.2H18.5299V32.2H17.1045V33.6H7.12687V36.4H5.70149V37.8H2.85075V36.4H1.42537ZM12.8284 28H7.12687V29.4H12.8284V28Z" fill="#00D0FF"/>
<path fill-rule="evenodd" clip-rule="evenodd" d="M136.836 36.4V23.8H153.94V36.4H152.515V37.8H138.261V36.4H136.836ZM142.537 28V30.8H143.963V32.2H146.813V30.8H148.239V28H146.813V26.6H143.963V28H142.537Z" fill="#00D0FF"/>
<path d="M21.3806 36.4V30.8H27.0821V36.4H25.6567V37.8H22.806V36.4H21.3806Z" fill="#00D0FF"/>
<path d="M29.9328 37.8V33.6H34.209V32.2H35.6343V29.4H32.7836V28H31.3582V26.6H29.9328V22.4H32.7836V23.8H34.209V25.2H35.6343V26.6H41.3358V25.2H42.7612V23.8H44.1866V22.4H47.0373V26.6H45.6119V28H44.1866V29.4H41.3358V32.2H42.7612V33.6H47.0373V37.8H41.3358V36.4H39.9104V35H37.0597V36.4H35.6343V37.8H29.9328Z" fill="#00D0FF"/>
<path d="M49.8881 36.4V23.8H52.7388V22.4H64.1418V23.8H66.9925V25.2H65.5672V26.6H62.7164V33.6H66.9925V36.4H65.5672V37.8H51.3134V36.4H49.8881Z" fill="#00D0FF"/>
<path d="M69.8433 36.4V32.2H82.6716V36.4H81.2463V37.8H71.2687V36.4H69.8433Z" fill="#00D0FF"/>
<path d="M116.881 36.4V33.6H118.306V30.8H116.881V23.8H133.985V26.6H132.56V28H133.985V36.4H132.56V37.8H118.306V36.4H116.881Z" fill="#00D0FF"/>
<path d="M156.791 36.4V32.2H173.896V36.4H172.47V37.8H158.216V36.4H156.791Z" fill="#00D0FF"/>
<path d="M176.746 36.4V32.2H189.575V36.4H188.149V37.8H178.172V36.4H176.746Z" fill="#00D0FF"/>
<path fill-rule="evenodd" clip-rule="evenodd" d="M2.85075 22.4H1.42537V33.6H2.85075V35H5.70149V33.6H7.12687V30.8H17.1045V29.4H18.5299V22.4H17.1045V21H2.85075V22.4ZM7.12687 29.4V25.2H12.8284V26.6H14.2537V28H12.8284V29.4H7.12687Z" fill="white"/>
<path d="M22.806 22.4H21.3806V33.6H22.806V35H25.6567V33.6H27.0821V22.4H25.6567V21H22.806V22.4Z" fill="white"/>
<path d="M29.9328 22.4H31.3582V21H34.209V22.4H35.6343V23.8H37.0597V25.2H39.9104V23.8H41.3358V22.4H42.7612V21H45.6119V22.4H47.0373V23.8H45.6119V25.2H44.1866V26.6H42.7612V28H41.3358V29.4H42.7612V30.8H44.1866V32.2H45.6119V33.6H47.0373V35H41.3358V33.6H39.9104V32.2H37.0597V33.6H35.6343V35H29.9328V33.6H31.3582V32.2H32.7836V30.8H34.209V29.4H35.6343V28H34.209V26.6H32.7836V25.2H31.3582V23.8H29.9328V22.4Z" fill="white"/>
<path d="M51.3134 22.4H49.8881V33.6H51.3134V35H65.5672V33.6H66.9925V32.2H65.5672V30.8H55.5896V29.4H61.291V28H62.7164V26.6H55.5896V25.2H65.5672V23.8H66.9925V22.4H65.5672V21H51.3134V22.4Z" fill="white"/>
<path d="M71.2687 22.4H69.8433V33.6H71.2687V35H81.2463V33.6H82.6716V32.2H81.2463V30.8H75.5448V22.4H74.1194V21H71.2687V22.4Z" fill="white"/>
<path d="M133.985 22.4V23.8H132.56V25.2H122.582V26.6H132.56V28H133.985V33.6H132.56V35H118.306V33.6H116.881V32.2H118.306V30.8H128.284V29.4H118.306V28H116.881V22.4H118.306V21H132.56V22.4H133.985Z" fill="white"/>
<path fill-rule="evenodd" clip-rule="evenodd" d="M136.836 22.4H138.261V21H152.515V22.4H153.94V33.6H152.515V35H138.261V33.6H136.836V22.4ZM143.963 25.2H142.537V30.8H143.963V32.2H146.813V30.8H148.239V25.2H146.813V23.8H143.963V25.2Z" fill="white"/>
<path d="M158.216 22.4H156.791V33.6H158.216V35H172.47V33.6H173.896V22.4H172.47V21H169.619V22.4H168.194V29.4H166.769V30.8H163.918V29.4H162.493V22.4H161.067V21H158.216V22.4Z" fill="white"/>
<path d="M178.172 22.4H176.746V33.6H178.172V35H188.149V33.6H189.575V32.2H188.149V30.8H182.448V22.4H181.022V21H178.172V22.4Z" fill="white"/>
<path d="M105.478 8.4V7H108.328V5.6H109.754V7H108.328V8.4H105.478Z" fill="#4691FF"/>
<path d="M89.7985 39.2V37.8H92.6492V39.2H94.0746V40.6H96.9254V42H102.627V40.6H105.478V39.2H106.903V42H105.478V43.4H98.3507V44.8H96.9254V43.4H95.5V42H94.0746V40.6H92.6492V39.2H89.7985Z" fill="#4691FF"/>
<path fill-rule="evenodd" clip-rule="evenodd" d="M99.7761 9.8H98.3507V11.2H96.9254V14H95.5V15.4H96.9254V16.8H98.3507V18.2H99.7761V22.4H98.3507V23.8H96.9254V25.2H95.5V23.8H94.0746V22.4H92.6492V21H91.2239V25.2H92.6492V26.6H91.2239V28H89.7985V30.8H88.3731V35H89.7985V32.2H91.2239V29.4H92.6492V26.6H94.0746V28H98.3507V26.6H99.7761V25.2H101.201V23.8H102.627V21H101.201V19.6H102.627V16.8H101.201V15.4H99.7761V14H98.3507V12.6H99.7761V9.8ZM104.052 21V22.4H105.478V21H106.903V23.8H105.478V25.2H108.328V26.6H106.903V29.4H108.328V36.4H106.903V37.8H109.754V36.4H111.179V35H109.754V32.2H111.179V30.8H109.754V28H111.179V26.6H109.754V25.2H108.328V21H106.903V19.6H105.478V18.2H104.052V19.6H105.478V21H104.052Z" fill="#4691FF"/>
<path d="M102.627 21H104.052V19.6H102.627V21Z" fill="#4691FF"/>
<path d="M86.9478 36.4V30.8H88.3731V28H89.7985V25.2H92.6492V26.6H94.0746V28H95.5V29.4H96.9254V30.8H94.0746V29.4H92.6492V30.8H91.2239V29.4H92.6492V26.6H91.2239V28H89.7985V30.8H88.3731V35H89.7985V32.2H91.2239V35H89.7985V36.4H91.2239V37.8H89.7985V39.2H92.6492V40.6H94.0746V42H95.5V43.4H96.9254V44.8H98.3507V43.4H105.478V42H106.903V39.2H104.052V36.4H106.903V37.8H109.754V36.4H111.179V35H109.754V32.2H111.179V30.8H109.754V28H111.179V30.8H112.604V36.4H111.179V39.2H109.754V42H108.328V43.4H105.478V44.8H102.627V46.2H96.9254V44.8H94.0746V43.4H91.2239V42H89.7985V39.2H88.3731V36.4H86.9478Z" fill="#4BFFFF"/>
<path d="M92.6492 22.4V19.6H94.0746V18.2H95.5V19.6H94.0746V22.4H95.5V23.8H96.9254V22.4H98.3507V21H99.7761V22.4H98.3507V23.8H96.9254V25.2H95.5V23.8H94.0746V22.4H92.6492Z" fill="#4BFFFF"/>
<path d="M102.627 8.4H99.7761V12.6H101.201V9.8H102.627V8.4Z" fill="#4BFFFF"/>
<path d="M95.5 12.6H96.9254V14H95.5V12.6Z" fill="#4BFFFF"/>
<path d="M105.478 19.6H106.903V18.2H105.478V19.6Z" fill="#4BFFFF"/>
<path d="M104.052 19.6V21H105.478V19.6H104.052Z" fill="#4BFFFF"/>
<path d="M108.328 19.6H106.903V21H108.328V19.6Z" fill="#4BFFFF"/>
<path d="M106.903 23.8V21H105.478V23.8H106.903Z" fill="#4BFFFF"/>
<path d="M109.754 21H108.328V25.2H109.754V26.6H111.179V23.8H109.754V21Z" fill="#4BFFFF"/>
<path d="M105.478 26.6V28H106.903V26.6H105.478Z" fill="#4BFFFF"/>
<path d="M105.478 23.8H104.052V26.6H105.478V23.8Z" fill="#4BFFFF"/>
<path d="M99.7761 12.6H98.3507V14H99.7761V12.6Z" fill="#4BFFFF"/>
<path d="M99.7761 14V15.4H101.201V14H99.7761Z" fill="#4BFFFF"/>
<path d="M101.201 15.4V16.8H102.627V15.4H101.201Z" fill="#4BFFFF"/>
<path d="M102.627 16.8V19.6H104.052V18.2H105.478V16.8H102.627Z" fill="#4BFFFF"/>
<path d="M108.328 25.2H106.903V26.6H108.328V25.2Z" fill="#4BFFFF"/>
<path d="M105.478 5.6H108.328V7H105.478V5.6Z" fill="#4BFFFF"/>
<path d="M102.627 30.8V32.2H104.052V30.8H102.627Z" fill="#4BFFFF"/>
<path d="M101.201 32.2V33.6H102.627V32.2H101.201Z" fill="#4BFFFF"/>
<path d="M99.7761 33.6V35H101.201V33.6H99.7761Z" fill="#4BFFFF"/>
<path d="M98.3507 35V36.4H99.7761V35H98.3507Z" fill="#4BFFFF"/>
<path d="M96.9254 36.4V37.8H98.3507V36.4H96.9254Z" fill="#4BFFFF"/>
</g>
</g>
</svg>
