<svg width="136" height="43" viewBox="0 0 136 43" fill="none" xmlns="http://www.w3.org/2000/svg">
<rect x="1.81787" y="1.43933" width="133.182" height="40.1212" rx="5.23569" fill="#0057FF" stroke="white" stroke-width="2"/>
<rect x="3.61328" y="35.6188" width="129.592" height="4.23569" fill="black" fill-opacity="0.24"/>
<rect x="3.61328" y="3.14526" width="129.592" height="4.23569" fill="white" fill-opacity="0.64"/>
<rect x="3.87679" y="3.49825" width="129.064" height="36.0034" rx="3.17677" stroke="#14192A" stroke-width="2.11785"/>
<path d="M40.8259 23.5871C40.8977 23.8741 40.9335 24.2329 40.9335 24.6635C40.9335 25.0761 40.8977 25.4349 40.8259 25.7398C40.8977 26.0269 40.9335 26.3857 40.9335 26.8162C40.9335 27.2288 40.8977 27.5876 40.8259 27.8926H39.7495C39.8213 28.1796 39.8572 28.5384 39.8572 28.9689C39.8572 29.3815 39.8213 29.7403 39.7495 30.0453H33.2914C33.2196 29.7403 33.1837 29.3815 33.1837 28.9689C33.1837 28.5384 33.2196 28.1796 33.2914 27.8926H32.215C32.1432 27.5876 32.1074 27.2288 32.1074 26.8162C32.1074 26.3857 32.1432 26.0269 32.215 25.7398H34.3677C34.4395 26.0269 34.4754 26.3857 34.4754 26.8162C34.4754 27.2288 34.4395 27.5876 34.3677 27.8926H38.6732C38.6014 27.5876 38.5655 27.2288 38.5655 26.8162C38.5655 26.3857 38.6014 26.0269 38.6732 25.7398C38.6014 25.4349 38.5655 25.0761 38.5655 24.6635C38.5655 24.2329 38.6014 23.8741 38.6732 23.5871H33.2914C33.2196 23.2821 33.1837 22.9233 33.1837 22.5107C33.1837 22.0802 33.2196 21.7214 33.2914 21.4344H32.215C32.1432 21.1294 32.1074 20.7706 32.1074 20.358C32.1074 19.9275 32.1432 19.5687 32.215 19.2817C32.1432 18.9767 32.1074 18.6179 32.1074 18.2053C32.1074 17.7747 32.1432 17.416 32.215 17.1289H33.2914C33.2196 16.824 33.1837 16.4652 33.1837 16.0526C33.1837 15.622 33.2196 15.2632 33.2914 14.9762H39.7495C39.8213 15.2632 39.8572 15.622 39.8572 16.0526C39.8572 16.4652 39.8213 16.824 39.7495 17.1289H40.8259C40.8977 17.416 40.9335 17.7747 40.9335 18.2053C40.9335 18.6179 40.8977 18.9767 40.8259 19.2817H38.6732C38.6014 18.9767 38.5655 18.6179 38.5655 18.2053C38.5655 17.7747 38.6014 17.416 38.6732 17.1289H34.3677C34.4395 17.416 34.4754 17.7747 34.4754 18.2053C34.4754 18.6179 34.4395 18.9767 34.3677 19.2817C34.4395 19.5687 34.4754 19.9275 34.4754 20.358C34.4754 20.7706 34.4395 21.1294 34.3677 21.4344H39.7495C39.8213 21.7214 39.8572 22.0802 39.8572 22.5107C39.8572 22.9233 39.8213 23.2821 39.7495 23.5871H40.8259ZM49.9855 27.8926C50.0573 28.1796 50.0931 28.5384 50.0931 28.9689C50.0931 29.3815 50.0573 29.7403 49.9855 30.0453H44.6037C44.5319 29.7403 44.496 29.3815 44.496 28.9689C44.496 28.5384 44.5319 28.1796 44.6037 27.8926H46.2182C46.1465 27.5876 46.1106 27.2288 46.1106 26.8162C46.1106 26.3857 46.1465 26.0269 46.2182 25.7398C46.1465 25.4349 46.1106 25.0761 46.1106 24.6635C46.1106 24.2329 46.1465 23.8741 46.2182 23.5871C46.1465 23.2821 46.1106 22.9233 46.1106 22.5107C46.1106 22.0802 46.1465 21.7214 46.2182 21.4344C46.1465 21.1294 46.1106 20.7706 46.1106 20.358C46.1106 19.9275 46.1465 19.5687 46.2182 19.2817C46.1465 18.9767 46.1106 18.6179 46.1106 18.2053C46.1106 17.7747 46.1465 17.416 46.2182 17.1289H44.6037C44.5319 16.824 44.496 16.4652 44.496 16.0526C44.496 15.622 44.5319 15.2632 44.6037 14.9762H49.9855C50.0573 15.2632 50.0931 15.622 50.0931 16.0526C50.0931 16.4652 50.0573 16.824 49.9855 17.1289H48.371C48.4427 17.416 48.4786 17.7747 48.4786 18.2053C48.4786 18.6179 48.4427 18.9767 48.371 19.2817C48.4427 19.5687 48.4786 19.9275 48.4786 20.358C48.4786 20.7706 48.4427 21.1294 48.371 21.4344C48.4427 21.7214 48.4786 22.0802 48.4786 22.5107C48.4786 22.9233 48.4427 23.2821 48.371 23.5871C48.4427 23.8741 48.4786 24.2329 48.4786 24.6635C48.4786 25.0761 48.4427 25.4349 48.371 25.7398C48.4427 26.0269 48.4786 26.3857 48.4786 26.8162C48.4786 27.2288 48.4427 27.5876 48.371 27.8926H49.9855ZM62.3742 21.4344C62.446 21.7214 62.4818 22.0802 62.4818 22.5107C62.4818 22.9233 62.446 23.2821 62.3742 23.5871C62.446 23.8741 62.4818 24.2329 62.4818 24.6635C62.4818 25.0761 62.446 25.4349 62.3742 25.7398C62.446 26.0269 62.4818 26.3857 62.4818 26.8162C62.4818 27.2288 62.446 27.5876 62.3742 27.8926H61.2978C61.3696 28.1796 61.4055 28.5384 61.4055 28.9689C61.4055 29.3815 61.3696 29.7403 61.2978 30.0453H55.916C55.8443 29.7403 55.8084 29.3815 55.8084 28.9689C55.8084 28.5384 55.8443 28.1796 55.916 27.8926H54.8396C54.7679 27.5876 54.732 27.2288 54.732 26.8162C54.732 26.3857 54.7679 26.0269 54.8396 25.7398H53.7633C53.6915 25.4349 53.6556 25.0761 53.6556 24.6635C53.6556 24.2329 53.6915 23.8741 53.7633 23.5871C53.6915 23.2821 53.6556 22.9233 53.6556 22.5107C53.6556 22.0802 53.6915 21.7214 53.7633 21.4344C53.6915 21.1294 53.6556 20.7706 53.6556 20.358C53.6556 19.9275 53.6915 19.5687 53.7633 19.2817H54.8396C54.7679 18.9767 54.732 18.6179 54.732 18.2053C54.732 17.7747 54.7679 17.416 54.8396 17.1289H55.916C55.8443 16.824 55.8084 16.4652 55.8084 16.0526C55.8084 15.622 55.8443 15.2632 55.916 14.9762H61.2978C61.3696 15.2632 61.4055 15.622 61.4055 16.0526C61.4055 16.4652 61.3696 16.824 61.2978 17.1289H62.3742C62.446 17.416 62.4818 17.7747 62.4818 18.2053C62.4818 18.6179 62.446 18.9767 62.3742 19.2817H60.2215C60.1497 18.9767 60.1138 18.6179 60.1138 18.2053C60.1138 17.7747 60.1497 17.416 60.2215 17.1289H56.9924C57.0641 17.416 57.1 17.7747 57.1 18.2053C57.1 18.6179 57.0641 18.9767 56.9924 19.2817H55.916C55.9878 19.5687 56.0236 19.9275 56.0236 20.358C56.0236 20.7706 55.9878 21.1294 55.916 21.4344C55.9878 21.7214 56.0236 22.0802 56.0236 22.5107C56.0236 22.9233 55.9878 23.2821 55.916 23.5871C55.9878 23.8741 56.0236 24.2329 56.0236 24.6635C56.0236 25.0761 55.9878 25.4349 55.916 25.7398H56.9924C57.0641 26.0269 57.1 26.3857 57.1 26.8162C57.1 27.2288 57.0641 27.5876 56.9924 27.8926H60.2215C60.1497 27.5876 60.1138 27.2288 60.1138 26.8162C60.1138 26.3857 60.1497 26.0269 60.2215 25.7398C60.1497 25.4349 60.1138 25.0761 60.1138 24.6635C60.1138 24.2329 60.1497 23.8741 60.2215 23.5871H58.6069C58.5352 23.2821 58.4993 22.9233 58.4993 22.5107C58.4993 22.0802 58.5352 21.7214 58.6069 21.4344H62.3742ZM73.1483 17.1289C73.2201 17.416 73.256 17.7747 73.256 18.2053C73.256 18.6179 73.2201 18.9767 73.1483 19.2817C73.2201 19.5687 73.256 19.9275 73.256 20.358C73.256 20.7706 73.2201 21.1294 73.1483 21.4344C73.2201 21.7214 73.256 22.0802 73.256 22.5107C73.256 22.9233 73.2201 23.2821 73.1483 23.5871C73.2201 23.8741 73.256 24.2329 73.256 24.6635C73.256 25.0761 73.2201 25.4349 73.1483 25.7398C73.2201 26.0269 73.256 26.3857 73.256 26.8162C73.256 27.2288 73.2201 27.5876 73.1483 27.8926C73.2201 28.1796 73.256 28.5384 73.256 28.9689C73.256 29.3815 73.2201 29.7403 73.1483 30.0453H70.9956C70.9239 29.7403 70.888 29.3815 70.888 28.9689C70.888 28.5384 70.9239 28.1796 70.9956 27.8926H69.6502C69.5784 27.5876 69.5425 27.2288 69.5425 26.8162C69.5425 26.3857 69.5784 26.0269 69.6502 25.7398H68.8429C68.7711 25.4349 68.7353 25.0761 68.7353 24.6635C68.7353 24.2329 68.7711 23.8741 68.8429 23.5871H67.7665C67.6948 23.2821 67.6589 22.9233 67.6589 22.5107C67.6589 22.0802 67.6948 21.7214 67.7665 21.4344H66.6902C66.7619 21.7214 66.7978 22.0802 66.7978 22.5107C66.7978 22.9233 66.7619 23.2821 66.6902 23.5871C66.7619 23.8741 66.7978 24.2329 66.7978 24.6635C66.7978 25.0761 66.7619 25.4349 66.6902 25.7398C66.7619 26.0269 66.7978 26.3857 66.7978 26.8162C66.7978 27.2288 66.7619 27.5876 66.6902 27.8926C66.7619 28.1796 66.7978 28.5384 66.7978 28.9689C66.7978 29.3815 66.7619 29.7403 66.6902 30.0453H64.5374C64.4657 29.7403 64.4298 29.3815 64.4298 28.9689C64.4298 28.5384 64.4657 28.1796 64.5374 27.8926C64.4657 27.5876 64.4298 27.2288 64.4298 26.8162C64.4298 26.3857 64.4657 26.0269 64.5374 25.7398C64.4657 25.4349 64.4298 25.0761 64.4298 24.6635C64.4298 24.2329 64.4657 23.8741 64.5374 23.5871C64.4657 23.2821 64.4298 22.9233 64.4298 22.5107C64.4298 22.0802 64.4657 21.7214 64.5374 21.4344C64.4657 21.1294 64.4298 20.7706 64.4298 20.358C64.4298 19.9275 64.4657 19.5687 64.5374 19.2817C64.4657 18.9767 64.4298 18.6179 64.4298 18.2053C64.4298 17.7747 64.4657 17.416 64.5374 17.1289C64.4657 16.824 64.4298 16.4652 64.4298 16.0526C64.4298 15.622 64.4657 15.2632 64.5374 14.9762H67.2283C67.3001 15.2632 67.336 15.622 67.336 16.0526C67.336 16.4652 67.3001 16.824 67.2283 17.1289H68.0356C68.1074 17.416 68.1433 17.7747 68.1433 18.2053C68.1433 18.6179 68.1074 18.9767 68.0356 19.2817H68.8429C68.9146 19.5687 68.9505 19.9275 68.9505 20.358C68.9505 20.7706 68.9146 21.1294 68.8429 21.4344H69.9193C69.991 21.7214 70.0269 22.0802 70.0269 22.5107C70.0269 22.9233 69.991 23.2821 69.9193 23.5871H70.9956C70.9239 23.2821 70.888 22.9233 70.888 22.5107C70.888 22.0802 70.9239 21.7214 70.9956 21.4344C70.9239 21.1294 70.888 20.7706 70.888 20.358C70.888 19.9275 70.9239 19.5687 70.9956 19.2817C70.9239 18.9767 70.888 18.6179 70.888 18.2053C70.888 17.7747 70.9239 17.416 70.9956 17.1289C70.9239 16.824 70.888 16.4652 70.888 16.0526C70.888 15.622 70.9239 15.2632 70.9956 14.9762H73.1483C73.2201 15.2632 73.256 15.622 73.256 16.0526C73.256 16.4652 73.2201 16.824 73.1483 17.1289ZM94.6966 17.1289C94.7684 17.416 94.8043 17.7747 94.8043 18.2053C94.8043 18.6179 94.7684 18.9767 94.6966 19.2817C94.7684 19.5687 94.8043 19.9275 94.8043 20.358C94.8043 20.7706 94.7684 21.1294 94.6966 21.4344C94.7684 21.7214 94.8043 22.0802 94.8043 22.5107C94.8043 22.9233 94.7684 23.2821 94.6966 23.5871C94.7684 23.8741 94.8043 24.2329 94.8043 24.6635C94.8043 25.0761 94.7684 25.4349 94.6966 25.7398C94.7684 26.0269 94.8043 26.3857 94.8043 26.8162C94.8043 27.2288 94.7684 27.5876 94.6966 27.8926H93.6203C93.692 28.1796 93.7279 28.5384 93.7279 28.9689C93.7279 29.3815 93.692 29.7403 93.6203 30.0453H87.1621C87.0903 29.7403 87.0545 29.3815 87.0545 28.9689C87.0545 28.5384 87.0903 28.1796 87.1621 27.8926H86.0857C86.014 27.5876 85.9781 27.2288 85.9781 26.8162C85.9781 26.3857 86.014 26.0269 86.0857 25.7398C86.014 25.4349 85.9781 25.0761 85.9781 24.6635C85.9781 24.2329 86.014 23.8741 86.0857 23.5871C86.014 23.2821 85.9781 22.9233 85.9781 22.5107C85.9781 22.0802 86.014 21.7214 86.0857 21.4344C86.014 21.1294 85.9781 20.7706 85.9781 20.358C85.9781 19.9275 86.014 19.5687 86.0857 19.2817C86.014 18.9767 85.9781 18.6179 85.9781 18.2053C85.9781 17.7747 86.014 17.416 86.0857 17.1289C86.014 16.824 85.9781 16.4652 85.9781 16.0526C85.9781 15.622 86.014 15.2632 86.0857 14.9762H88.2385C88.3102 15.2632 88.3461 15.622 88.3461 16.0526C88.3461 16.4652 88.3102 16.824 88.2385 17.1289C88.3102 17.416 88.3461 17.7747 88.3461 18.2053C88.3461 18.6179 88.3102 18.9767 88.2385 19.2817C88.3102 19.5687 88.3461 19.9275 88.3461 20.358C88.3461 20.7706 88.3102 21.1294 88.2385 21.4344C88.3102 21.7214 88.3461 22.0802 88.3461 22.5107C88.3461 22.9233 88.3102 23.2821 88.2385 23.5871C88.3102 23.8741 88.3461 24.2329 88.3461 24.6635C88.3461 25.0761 88.3102 25.4349 88.2385 25.7398C88.3102 26.0269 88.3461 26.3857 88.3461 26.8162C88.3461 27.2288 88.3102 27.5876 88.2385 27.8926H92.5439C92.4722 27.5876 92.4363 27.2288 92.4363 26.8162C92.4363 26.3857 92.4722 26.0269 92.5439 25.7398C92.4722 25.4349 92.4363 25.0761 92.4363 24.6635C92.4363 24.2329 92.4722 23.8741 92.5439 23.5871C92.4722 23.2821 92.4363 22.9233 92.4363 22.5107C92.4363 22.0802 92.4722 21.7214 92.5439 21.4344C92.4722 21.1294 92.4363 20.7706 92.4363 20.358C92.4363 19.9275 92.4722 19.5687 92.5439 19.2817C92.4722 18.9767 92.4363 18.6179 92.4363 18.2053C92.4363 17.7747 92.4722 17.416 92.5439 17.1289C92.4722 16.824 92.4363 16.4652 92.4363 16.0526C92.4363 15.622 92.4722 15.2632 92.5439 14.9762H94.6966C94.7684 15.2632 94.8043 15.622 94.8043 16.0526C94.8043 16.4652 94.7684 16.824 94.6966 17.1289ZM105.578 18.2053C105.578 18.6179 105.543 18.9767 105.471 19.2817C105.543 19.5687 105.578 19.9275 105.578 20.358C105.578 20.7706 105.543 21.1294 105.471 21.4344H104.394C104.466 21.7214 104.502 22.0802 104.502 22.5107C104.502 22.9233 104.466 23.2821 104.394 23.5871H99.0126C99.0844 23.8741 99.1202 24.2329 99.1202 24.6635C99.1202 25.0761 99.0844 25.4349 99.0126 25.7398C99.0844 26.0269 99.1202 26.3857 99.1202 26.8162C99.1202 27.2288 99.0844 27.5876 99.0126 27.8926C99.0844 28.1796 99.1202 28.5384 99.1202 28.9689C99.1202 29.3815 99.0844 29.7403 99.0126 30.0453H96.8599C96.7881 29.7403 96.7522 29.3815 96.7522 28.9689C96.7522 28.5384 96.7881 28.1796 96.8599 27.8926C96.7881 27.5876 96.7522 27.2288 96.7522 26.8162C96.7522 26.3857 96.7881 26.0269 96.8599 25.7398C96.7881 25.4349 96.7522 25.0761 96.7522 24.6635C96.7522 24.2329 96.7881 23.8741 96.8599 23.5871C96.7881 23.2821 96.7522 22.9233 96.7522 22.5107C96.7522 22.0802 96.7881 21.7214 96.8599 21.4344C96.7881 21.1294 96.7522 20.7706 96.7522 20.358C96.7522 19.9275 96.7881 19.5687 96.8599 19.2817C96.7881 18.9767 96.7522 18.6179 96.7522 18.2053C96.7522 17.7747 96.7881 17.416 96.8599 17.1289C96.7881 16.824 96.7522 16.4652 96.7522 16.0526C96.7522 15.622 96.7881 15.2632 96.8599 14.9762H104.394C104.466 15.2632 104.502 15.622 104.502 16.0526C104.502 16.4652 104.466 16.824 104.394 17.1289H105.471C105.543 17.416 105.578 17.7747 105.578 18.2053ZM103.318 21.4344C103.246 21.1294 103.21 20.7706 103.21 20.358C103.21 19.9275 103.246 19.5687 103.318 19.2817C103.246 18.9767 103.21 18.6179 103.21 18.2053C103.21 17.7747 103.246 17.416 103.318 17.1289H99.0126C99.0844 17.416 99.1202 17.7747 99.1202 18.2053C99.1202 18.6179 99.0844 18.9767 99.0126 19.2817C99.0844 19.5687 99.1202 19.9275 99.1202 20.358C99.1202 20.7706 99.0844 21.1294 99.0126 21.4344H103.318Z" fill="white"/>
</svg>
