<svg width="139" height="49" viewBox="0 0 139 49" fill="none" xmlns="http://www.w3.org/2000/svg">
<rect x="1.5" y="1" width="136.464" height="46.0065" rx="5.88961" fill="#4267B2" stroke="white" stroke-width="2"/>
<rect x="3.31445" y="40.302" width="132.834" height="4.88961" fill="black" fill-opacity="0.24"/>
<rect x="3.31445" y="2.81494" width="132.834" height="4.88961" fill="white" fill-opacity="0.64"/>
<rect x="3.7224" y="3.2224" width="132.019" height="41.5617" rx="3.66721" stroke="#14192A" stroke-width="2.4448"/>
<path d="M37.652 25.6731C37.7325 25.9949 37.7727 26.3973 37.7727 26.8801C37.7727 27.3428 37.7325 27.7452 37.652 28.0871C37.7325 28.409 37.7727 28.8114 37.7727 29.2942C37.7727 29.7569 37.7325 30.1592 37.652 30.5012H36.445C36.5254 30.8231 36.5657 31.2254 36.5657 31.7082C36.5657 32.1709 36.5254 32.5733 36.445 32.9153H29.2028C29.1223 32.5733 29.0821 32.1709 29.0821 31.7082C29.0821 31.2254 29.1223 30.8231 29.2028 30.5012H27.9957C27.9153 30.1592 27.875 29.7569 27.875 29.2942C27.875 28.8114 27.9153 28.409 27.9957 28.0871H30.4098C30.4903 28.409 30.5305 28.8114 30.5305 29.2942C30.5305 29.7569 30.4903 30.1592 30.4098 30.5012H35.2379C35.1575 30.1592 35.1172 29.7569 35.1172 29.2942C35.1172 28.8114 35.1575 28.409 35.2379 28.0871C35.1575 27.7452 35.1172 27.3428 35.1172 26.8801C35.1172 26.3973 35.1575 25.9949 35.2379 25.6731H29.2028C29.1223 25.3311 29.0821 24.9287 29.0821 24.466C29.0821 23.9832 29.1223 23.5809 29.2028 23.259H27.9957C27.9153 22.917 27.875 22.5147 27.875 22.052C27.875 21.5692 27.9153 21.1668 27.9957 20.8449C27.9153 20.5029 27.875 20.1006 27.875 19.6379C27.875 19.1551 27.9153 18.7527 27.9957 18.4309H29.2028C29.1223 18.0889 29.0821 17.6865 29.0821 17.2238C29.0821 16.741 29.1223 16.3387 29.2028 16.0168H36.445C36.5254 16.3387 36.5657 16.741 36.5657 17.2238C36.5657 17.6865 36.5254 18.0889 36.445 18.4309H37.652C37.7325 18.7527 37.7727 19.1551 37.7727 19.6379C37.7727 20.1006 37.7325 20.5029 37.652 20.8449H35.2379C35.1575 20.5029 35.1172 20.1006 35.1172 19.6379C35.1172 19.1551 35.1575 18.7527 35.2379 18.4309H30.4098C30.4903 18.7527 30.5305 19.1551 30.5305 19.6379C30.5305 20.1006 30.4903 20.5029 30.4098 20.8449C30.4903 21.1668 30.5305 21.5692 30.5305 22.052C30.5305 22.5147 30.4903 22.917 30.4098 23.259H36.445C36.5254 23.5809 36.5657 23.9832 36.5657 24.466C36.5657 24.9287 36.5254 25.3311 36.445 25.6731H37.652ZM43.699 18.4309C43.6185 18.0889 43.5783 17.6865 43.5783 17.2238C43.5783 16.741 43.6185 16.3387 43.699 16.0168H46.113C46.1935 16.3387 46.2337 16.741 46.2337 17.2238C46.2337 17.6865 46.1935 18.0889 46.113 18.4309H43.699ZM48.5271 30.5012C48.6076 30.8231 48.6478 31.2254 48.6478 31.7082C48.6478 32.1709 48.6076 32.5733 48.5271 32.9153H41.2849C41.2044 32.5733 41.1642 32.1709 41.1642 31.7082C41.1642 31.2254 41.2044 30.8231 41.2849 30.5012H43.699C43.6185 30.1592 43.5783 29.7569 43.5783 29.2942C43.5783 28.8114 43.6185 28.409 43.699 28.0871C43.6185 27.7452 43.5783 27.3428 43.5783 26.8801C43.5783 26.3973 43.6185 25.9949 43.699 25.6731C43.6185 25.3311 43.5783 24.9287 43.5783 24.466C43.5783 23.9832 43.6185 23.5809 43.699 23.259H41.8884C41.808 22.917 41.7677 22.5147 41.7677 22.052C41.7677 21.5692 41.808 21.1668 41.8884 20.8449H46.113C46.1935 21.1668 46.2337 21.5692 46.2337 22.052C46.2337 22.5147 46.1935 22.917 46.113 23.259C46.1935 23.5809 46.2337 23.9832 46.2337 24.466C46.2337 24.9287 46.1935 25.3311 46.113 25.6731C46.1935 25.9949 46.2337 26.3973 46.2337 26.8801C46.2337 27.3428 46.1935 27.7452 46.113 28.0871C46.1935 28.409 46.2337 28.8114 46.2337 29.2942C46.2337 29.7569 46.1935 30.1592 46.113 30.5012H48.5271ZM61.8163 23.259C61.8968 23.5809 61.937 23.9832 61.937 24.466C61.937 24.9287 61.8968 25.3311 61.8163 25.6731C61.8968 25.9949 61.937 26.3973 61.937 26.8801C61.937 27.3428 61.8968 27.7452 61.8163 28.0871C61.8968 28.409 61.937 28.8114 61.937 29.2942C61.937 29.7569 61.8968 30.1592 61.8163 30.5012C61.8968 30.8231 61.937 31.2254 61.937 31.7082C61.937 32.1709 61.8968 32.5733 61.8163 32.9153H60.6092C60.6897 33.2372 60.73 33.6395 60.73 34.1223C60.73 34.585 60.6897 34.9874 60.6092 35.3294H59.4022C59.4827 35.6512 59.5229 36.0536 59.5229 36.5364C59.5229 36.9991 59.4827 37.4014 59.4022 37.7434H54.5741C54.4936 37.4014 54.4534 36.9991 54.4534 36.5364C54.4534 36.0536 54.4936 35.6512 54.5741 35.3294H58.1952C58.1147 34.9874 58.0745 34.585 58.0745 34.1223C58.0745 33.6395 58.1147 33.2372 58.1952 32.9153H59.4022C59.3217 32.5733 59.2815 32.1709 59.2815 31.7082C59.2815 31.2254 59.3217 30.8231 59.4022 30.5012H58.1952C58.1147 30.1592 58.0745 29.7569 58.0745 29.2942C58.0745 28.8114 58.1147 28.409 58.1952 28.0871H59.4022C59.3217 27.7452 59.2815 27.3428 59.2815 26.8801C59.2815 26.3973 59.3217 25.9949 59.4022 25.6731C59.3217 25.3311 59.2815 24.9287 59.2815 24.466C59.2815 23.9832 59.3217 23.5809 59.4022 23.259H55.4793C55.5598 23.5809 55.6001 23.9832 55.6001 24.466C55.6001 24.9287 55.5598 25.3311 55.4793 25.6731H54.5741C54.6545 25.9949 54.6948 26.3973 54.6948 26.8801C54.6948 27.3428 54.6545 27.7452 54.5741 28.0871H55.4793C55.5598 28.409 55.6001 28.8114 55.6001 29.2942C55.6001 29.7569 55.5598 30.1592 55.4793 30.5012H58.1952C58.2756 30.8231 58.3159 31.2254 58.3159 31.7082C58.3159 32.1709 58.2756 32.5733 58.1952 32.9153H54.5741C54.4936 32.5733 54.4534 32.1709 54.4534 31.7082C54.4534 31.2254 54.4936 30.8231 54.5741 30.5012H53.0653C52.9848 30.1592 52.9446 29.7569 52.9446 29.2942C52.9446 28.8114 52.9848 28.409 53.0653 28.0871H52.16C52.0795 27.7452 52.0393 27.3428 52.0393 26.8801C52.0393 26.3973 52.0795 25.9949 52.16 25.6731H53.0653C52.9848 25.3311 52.9446 24.9287 52.9446 24.466C52.9446 23.9832 52.9848 23.5809 53.0653 23.259H54.5741C54.4936 22.917 54.4534 22.5147 54.4534 22.052C54.4534 21.5692 54.4936 21.1668 54.5741 20.8449H61.8163C61.8968 21.1668 61.937 21.5692 61.937 22.052C61.937 22.5147 61.8968 22.917 61.8163 23.259ZM66.4752 22.052C66.4752 22.5147 66.4349 22.917 66.3544 23.259H67.5615C67.642 23.5809 67.6822 23.9832 67.6822 24.466C67.6822 24.9287 67.642 25.3311 67.5615 25.6731H66.6562C66.7367 25.9949 66.7769 26.3973 66.7769 26.8801C66.7769 27.3428 66.7367 27.7452 66.6562 28.0871C66.7367 28.409 66.7769 28.8114 66.7769 29.2942C66.7769 29.7569 66.7367 30.1592 66.6562 30.5012C66.7367 30.8231 66.7769 31.2254 66.7769 31.7082C66.7769 32.1709 66.7367 32.5733 66.6562 32.9153H64.2421C64.1617 32.5733 64.1214 32.1709 64.1214 31.7082C64.1214 31.2254 64.1617 30.8231 64.2421 30.5012C64.1617 30.1592 64.1214 29.7569 64.1214 29.2942C64.1214 28.8114 64.1617 28.409 64.2421 28.0871C64.1617 27.7452 64.1214 27.3428 64.1214 26.8801C64.1214 26.3973 64.1617 25.9949 64.2421 25.6731C64.1617 25.3311 64.1214 24.9287 64.1214 24.466C64.1214 23.9832 64.1617 23.5809 64.2421 23.259C64.1617 22.917 64.1214 22.5147 64.1214 22.052C64.1214 21.5692 64.1617 21.1668 64.2421 20.8449H66.3544C66.4349 21.1668 66.4752 21.5692 66.4752 22.052ZM73.8984 25.6731C73.9789 25.9949 74.0191 26.3973 74.0191 26.8801C74.0191 27.3428 73.9789 27.7452 73.8984 28.0871C73.9789 28.409 74.0191 28.8114 74.0191 29.2942C74.0191 29.7569 73.9789 30.1592 73.8984 30.5012C73.9789 30.8231 74.0191 31.2254 74.0191 31.7082C74.0191 32.1709 73.9789 32.5733 73.8984 32.9153H71.4843C71.4039 32.5733 71.3636 32.1709 71.3636 31.7082C71.3636 31.2254 71.4039 30.8231 71.4843 30.5012C71.4039 30.1592 71.3636 29.7569 71.3636 29.2942C71.3636 28.8114 71.4039 28.409 71.4843 28.0871C71.4039 27.7452 71.3636 27.3428 71.3636 26.8801C71.3636 26.3973 71.4039 25.9949 71.4843 25.6731C71.4039 25.3311 71.3636 24.9287 71.3636 24.466C71.3636 23.9832 71.4039 23.5809 71.4843 23.259H67.5615C67.481 22.917 67.4408 22.5147 67.4408 22.052C67.4408 21.5692 67.481 21.1668 67.5615 20.8449H72.3896C72.4701 21.1668 72.5103 21.5692 72.5103 22.052C72.5103 22.5147 72.4701 22.917 72.3896 23.259H73.8984C73.9789 23.5809 74.0191 23.9832 74.0191 24.466C74.0191 24.9287 73.9789 25.3311 73.8984 25.6731ZM98.0627 18.4309C98.1432 18.7527 98.1834 19.1551 98.1834 19.6379C98.1834 20.1006 98.1432 20.5029 98.0627 20.8449C98.1432 21.1668 98.1834 21.5692 98.1834 22.052C98.1834 22.5147 98.1432 22.917 98.0627 23.259C98.1432 23.5809 98.1834 23.9832 98.1834 24.466C98.1834 24.9287 98.1432 25.3311 98.0627 25.6731C98.1432 25.9949 98.1834 26.3973 98.1834 26.8801C98.1834 27.3428 98.1432 27.7452 98.0627 28.0871C98.1432 28.409 98.1834 28.8114 98.1834 29.2942C98.1834 29.7569 98.1432 30.1592 98.0627 30.5012H96.8557C96.9361 30.8231 96.9764 31.2254 96.9764 31.7082C96.9764 32.1709 96.9361 32.5733 96.8557 32.9153H89.6134C89.533 32.5733 89.4927 32.1709 89.4927 31.7082C89.4927 31.2254 89.533 30.8231 89.6134 30.5012H88.4064C88.3259 30.1592 88.2857 29.7569 88.2857 29.2942C88.2857 28.8114 88.3259 28.409 88.4064 28.0871C88.3259 27.7452 88.2857 27.3428 88.2857 26.8801C88.2857 26.3973 88.3259 25.9949 88.4064 25.6731C88.3259 25.3311 88.2857 24.9287 88.2857 24.466C88.2857 23.9832 88.3259 23.5809 88.4064 23.259C88.3259 22.917 88.2857 22.5147 88.2857 22.052C88.2857 21.5692 88.3259 21.1668 88.4064 20.8449C88.3259 20.5029 88.2857 20.1006 88.2857 19.6379C88.2857 19.1551 88.3259 18.7527 88.4064 18.4309C88.3259 18.0889 88.2857 17.6865 88.2857 17.2238C88.2857 16.741 88.3259 16.3387 88.4064 16.0168H90.8205C90.901 16.3387 90.9412 16.741 90.9412 17.2238C90.9412 17.6865 90.901 18.0889 90.8205 18.4309C90.901 18.7527 90.9412 19.1551 90.9412 19.6379C90.9412 20.1006 90.901 20.5029 90.8205 20.8449C90.901 21.1668 90.9412 21.5692 90.9412 22.052C90.9412 22.5147 90.901 22.917 90.8205 23.259C90.901 23.5809 90.9412 23.9832 90.9412 24.466C90.9412 24.9287 90.901 25.3311 90.8205 25.6731C90.901 25.9949 90.9412 26.3973 90.9412 26.8801C90.9412 27.3428 90.901 27.7452 90.8205 28.0871C90.901 28.409 90.9412 28.8114 90.9412 29.2942C90.9412 29.7569 90.901 30.1592 90.8205 30.5012H95.6486C95.5682 30.1592 95.5279 29.7569 95.5279 29.2942C95.5279 28.8114 95.5682 28.409 95.6486 28.0871C95.5682 27.7452 95.5279 27.3428 95.5279 26.8801C95.5279 26.3973 95.5682 25.9949 95.6486 25.6731C95.5682 25.3311 95.5279 24.9287 95.5279 24.466C95.5279 23.9832 95.5682 23.5809 95.6486 23.259C95.5682 22.917 95.5279 22.5147 95.5279 22.052C95.5279 21.5692 95.5682 21.1668 95.6486 20.8449C95.5682 20.5029 95.5279 20.1006 95.5279 19.6379C95.5279 19.1551 95.5682 18.7527 95.6486 18.4309C95.5682 18.0889 95.5279 17.6865 95.5279 17.2238C95.5279 16.741 95.5682 16.3387 95.6486 16.0168H98.0627C98.1432 16.3387 98.1834 16.741 98.1834 17.2238C98.1834 17.6865 98.1432 18.0889 98.0627 18.4309ZM110.266 26.8801C110.266 27.3428 110.225 27.7452 110.145 28.0871H108.938C109.018 28.409 109.058 28.8114 109.058 29.2942C109.058 29.7569 109.018 30.1592 108.938 30.5012H107.731C107.811 30.8231 107.851 31.2254 107.851 31.7082C107.851 32.1709 107.811 32.5733 107.731 32.9153H102.903C102.983 33.2372 103.023 33.6395 103.023 34.1223C103.023 34.585 102.983 34.9874 102.903 35.3294C102.983 35.6512 103.023 36.0536 103.023 36.5364C103.023 36.9991 102.983 37.4014 102.903 37.7434H100.489C100.408 37.4014 100.368 36.9991 100.368 36.5364C100.368 36.0536 100.408 35.6512 100.489 35.3294C100.408 34.9874 100.368 34.585 100.368 34.1223C100.368 33.6395 100.408 33.2372 100.489 32.9153C100.408 32.5733 100.368 32.1709 100.368 31.7082C100.368 31.2254 100.408 30.8231 100.489 30.5012C100.408 30.1592 100.368 29.7569 100.368 29.2942C100.368 28.8114 100.408 28.409 100.489 28.0871C100.408 27.7452 100.368 27.3428 100.368 26.8801C100.368 26.3973 100.408 25.9949 100.489 25.6731C100.408 25.3311 100.368 24.9287 100.368 24.466C100.368 23.9832 100.408 23.5809 100.489 23.259C100.408 22.917 100.368 22.5147 100.368 22.052C100.368 21.5692 100.408 21.1668 100.489 20.8449H102.903C102.983 21.1668 103.023 21.5692 103.023 22.052C103.023 22.5147 102.983 22.917 102.903 23.259H104.11C104.19 23.5809 104.23 23.9832 104.23 24.466C104.23 24.9287 104.19 25.3311 104.11 25.6731H102.903C102.983 25.9949 103.023 26.3973 103.023 26.8801C103.023 27.3428 102.983 27.7452 102.903 28.0871C102.983 28.409 103.023 28.8114 103.023 29.2942C103.023 29.7569 102.983 30.1592 102.903 30.5012H106.524C106.443 30.1592 106.403 29.7569 106.403 29.2942C106.403 28.8114 106.443 28.409 106.524 28.0871H107.731C107.65 27.7452 107.61 27.3428 107.61 26.8801C107.61 26.3973 107.65 25.9949 107.731 25.6731H106.524C106.443 25.3311 106.403 24.9287 106.403 24.466C106.403 23.9832 106.443 23.5809 106.524 23.259H104.11C104.029 22.917 103.989 22.5147 103.989 22.052C103.989 21.5692 104.029 21.1668 104.11 20.8449H107.731C107.811 21.1668 107.851 21.5692 107.851 22.052C107.851 22.5147 107.811 22.917 107.731 23.259H108.938C109.018 23.5809 109.058 23.9832 109.058 24.466C109.058 24.9287 109.018 25.3311 108.938 25.6731H110.145C110.225 25.9949 110.266 26.3973 110.266 26.8801Z" fill="white"/>
</svg>
