<svg width="66" height="65" viewBox="0 0 66 65" fill="none" xmlns="http://www.w3.org/2000/svg">
<circle cx="33" cy="32.5" r="32.5" fill="#4691FF"/>
<g clip-path="url(#clip0_1478_90890)">
<path d="M39.2441 17.627H26.7559C25.5521 17.627 24.572 18.6071 24.572 19.8108V45.1884C24.572 46.3926 25.5521 47.3727 26.7559 47.3727H39.2436C40.4478 47.3727 41.428 46.3926 41.428 45.1889V19.8108C41.428 18.6071 40.4478 17.627 39.2441 17.627ZM25.5635 21.5931H40.4364V40.432H25.5635V21.5931ZM26.7559 18.6185H39.2436C39.9015 18.6185 40.4364 19.1534 40.4364 19.8108V20.6015H25.5635V19.8108C25.5635 19.1534 26.0985 18.6185 26.7559 18.6185ZM39.2441 46.3812H26.7559C26.0985 46.3812 25.5635 45.8463 25.5635 45.1889V41.4236H40.4364V45.1889C40.4364 45.8463 39.9015 46.3812 39.2441 46.3812Z" fill="white"/>
<path d="M33.0001 41.9194C31.9065 41.9194 31.0171 42.8088 31.0171 43.9025C31.0171 44.9961 31.9065 45.8855 33.0001 45.8855C34.0938 45.8855 34.9832 44.9961 34.9832 43.9025C34.9832 42.8088 34.0938 41.9194 33.0001 41.9194ZM33.0001 44.894C32.4533 44.894 32.0086 44.4493 32.0086 43.9025C32.0086 43.3557 32.4533 42.911 33.0001 42.911C33.547 42.911 33.9917 43.3557 33.9917 43.9025C33.9917 44.4493 33.547 44.894 33.0001 44.894Z" fill="white"/>
<path d="M31.017 20.1058H33.0001C33.2742 20.1058 33.4958 19.8842 33.4958 19.61C33.4958 19.3359 33.2742 19.1143 33.0001 19.1143H31.017C30.7428 19.1143 30.5212 19.3359 30.5212 19.61C30.5212 19.8842 30.7428 20.1058 31.017 20.1058Z" fill="white"/>
<path d="M34.4875 20.1058H34.9832C35.2574 20.1058 35.479 19.8842 35.479 19.61C35.479 19.3359 35.2574 19.1143 34.9832 19.1143H34.4875C34.2133 19.1143 33.9917 19.3359 33.9917 19.61C33.9917 19.8842 34.2133 20.1058 34.4875 20.1058Z" fill="white"/>
<path d="M46.1933 19.892C45.9995 19.6981 45.6861 19.6981 45.4923 19.892C45.2985 20.0858 45.2985 20.3991 45.4923 20.593C47.3445 22.4451 47.3445 25.4589 45.4923 27.3115C45.2985 27.5054 45.2985 27.8187 45.4923 28.0126C45.589 28.1092 45.7159 28.1578 45.8428 28.1578C45.9697 28.1578 46.0966 28.1092 46.1933 28.0126C48.4322 25.7742 48.4322 22.1308 46.1933 19.892Z" fill="white"/>
<path d="M44.1057 21.0204C43.9118 20.8265 43.5985 20.8265 43.4047 21.0204C43.2108 21.2142 43.2108 21.5275 43.4047 21.7214C44.0179 22.3346 44.3555 23.1517 44.3555 24.0212C44.3555 24.8908 44.0179 25.7073 43.4047 26.3206C43.2108 26.5144 43.2108 26.8277 43.4047 27.0216C43.5013 27.1183 43.6282 27.1668 43.7552 27.1668C43.8821 27.1668 44.009 27.1183 44.1057 27.0216C44.9063 26.2214 45.3471 25.1555 45.3471 24.0212C45.3471 22.8869 44.9068 21.8205 44.1057 21.0204Z" fill="white"/>
<path d="M20.5078 20.593C20.7017 20.3991 20.7017 20.0858 20.5078 19.892C20.314 19.6981 20.0007 19.6981 19.8068 19.892C17.568 22.1308 17.568 25.7737 19.8068 28.0126C19.9035 28.1092 20.0304 28.1578 20.1573 28.1578C20.2843 28.1578 20.4112 28.1092 20.5078 28.0126C20.7017 27.8187 20.7017 27.5054 20.5078 27.3115C18.6552 25.4594 18.6552 22.4456 20.5078 20.593Z" fill="white"/>
<path d="M22.5955 20.8837C22.4016 20.6898 22.0883 20.6898 21.8945 20.8837C21.0938 21.6838 20.6531 22.7497 20.6531 23.884C20.6531 25.0183 21.0938 26.0842 21.8945 26.8849C21.9911 26.9815 22.1181 27.0301 22.245 27.0301C22.3719 27.0301 22.4988 26.9815 22.5955 26.8849C22.7893 26.691 22.7893 26.3777 22.5955 26.1839C21.9822 25.5706 21.6446 24.7536 21.6446 23.884C21.6446 23.0145 21.9817 22.1979 22.5955 21.5847C22.7888 21.3913 22.7888 21.0775 22.5955 20.8837Z" fill="white"/>
</g>
<defs>
<clipPath id="clip0_1478_90890">
<rect width="29.7458" height="29.7458" fill="white" transform="translate(18.1272 17.627)"/>
</clipPath>
</defs>
</svg>
