<svg width="66" height="65" viewBox="0 0 66 65" fill="none" xmlns="http://www.w3.org/2000/svg">
<circle cx="33" cy="32.5" r="32.5" fill="#4691FF"/>
<g clip-path="url(#clip0_1478_90909)">
<path d="M19.6879 29.305C19.8295 29.3058 19.9655 29.2503 20.066 29.1506L22.1959 27.0206C22.4047 26.8118 22.4047 26.4733 22.1959 26.2645C21.9871 26.0557 21.6486 26.0557 21.4398 26.2645L19.3099 28.3945C19.209 28.4944 19.1523 28.6305 19.1523 28.7725C19.1523 28.9145 19.209 29.0506 19.3099 29.1506C19.4103 29.2503 19.5464 29.3058 19.6879 29.305Z" fill="white"/>
<path d="M19.6879 32.4999C19.8295 32.5007 19.9655 32.4452 20.066 32.3455L25.3908 27.0206C25.5996 26.8118 25.5996 26.4733 25.3908 26.2645C25.182 26.0557 24.8435 26.0557 24.6347 26.2645L19.3099 31.5894C19.209 31.6894 19.1523 31.8255 19.1523 31.9674C19.1523 32.1094 19.209 32.2455 19.3099 32.3455C19.4103 32.4452 19.5464 32.5007 19.6879 32.4999Z" fill="white"/>
<path d="M47.3771 16.5254H33.5325C32.6502 16.5254 31.935 17.2406 31.935 18.1228V23.9802H19.6878C18.2174 23.9802 17.0254 25.1722 17.0254 26.6426V40.4873C17.0254 41.9577 18.2174 43.1497 19.6878 43.1497H25.5452V45.2796H23.9477C23.0655 45.2796 22.3502 45.9948 22.3502 46.8771C22.3502 47.7593 23.0655 48.4745 23.9477 48.4745H47.3771C48.2593 48.4745 48.9745 47.7593 48.9745 46.8771V18.1228C48.9745 17.2406 48.2593 16.5254 47.3771 16.5254ZM19.6878 25.0452H38.8573C39.7396 25.0452 40.4548 25.7604 40.4548 26.6426V39.4223H18.0904V26.6426C18.0904 25.7604 18.8056 25.0452 19.6878 25.0452ZM18.0904 40.4873H40.4548C40.4548 41.3695 39.7396 42.0847 38.8573 42.0847H19.6878C18.8056 42.0847 18.0904 41.3695 18.0904 40.4873ZM26.6101 43.1497H31.935V45.2796H26.6101V43.1497ZM33.5325 47.4096H23.9477C23.6536 47.4096 23.4152 47.1712 23.4152 46.8771C23.4152 46.583 23.6536 46.3446 23.9477 46.3446H34.5974C34.8915 46.3446 35.1299 46.583 35.1299 46.8771C35.1299 47.1712 34.8915 47.4096 34.5974 47.4096H33.5325ZM47.9096 46.8771C47.9096 47.1712 47.6712 47.4096 47.3771 47.4096H36.099C36.2716 46.9214 36.1969 46.3798 35.8986 45.9566C35.6002 45.5334 35.1152 45.2811 34.5974 45.2796H33V43.1497H38.8573C40.3277 43.1497 41.5197 41.9577 41.5197 40.4873V26.6426C41.5197 25.1722 40.3277 23.9802 38.8573 23.9802H33V18.1228C33 17.8288 33.2384 17.5904 33.5325 17.5904H47.3771C47.6712 17.5904 47.9096 17.8288 47.9096 18.1228V46.8771Z" fill="white"/>
<path d="M45.7796 19.188H35.1299C34.5417 19.188 34.0649 19.6648 34.0649 20.253V21.3179C34.0649 21.9061 34.5417 22.3829 35.1299 22.3829H45.7796C46.3678 22.3829 46.8446 21.9061 46.8446 21.3179V20.253C46.8446 19.6648 46.3678 19.188 45.7796 19.188ZM35.1299 21.3179V20.253H45.7796V21.3179H35.1299Z" fill="white"/>
<path d="M44.7146 27.1749C45.5969 27.1749 46.3121 26.4597 46.3121 25.5774C46.3121 24.6952 45.5969 23.98 44.7146 23.98C43.8324 23.98 43.1172 24.6952 43.1172 25.5774C43.1172 26.4597 43.8324 27.1749 44.7146 27.1749ZM44.7146 25.045C45.0087 25.045 45.2471 25.2834 45.2471 25.5774C45.2471 25.8715 45.0087 26.1099 44.7146 26.1099C44.4206 26.1099 44.1822 25.8715 44.1822 25.5774C44.1822 25.2834 44.4206 25.045 44.7146 25.045Z" fill="white"/>
<path d="M46.3121 29.8377C46.3121 28.9554 45.5969 28.2402 44.7146 28.2402C43.8324 28.2402 43.1172 28.9554 43.1172 29.8377C43.1172 30.7199 43.8324 31.4351 44.7146 31.4351C45.5969 31.4351 46.3121 30.7199 46.3121 29.8377ZM44.7146 30.3702C44.4206 30.3702 44.1822 30.1318 44.1822 29.8377C44.1822 29.5436 44.4206 29.3052 44.7146 29.3052C45.0087 29.3052 45.2471 29.5436 45.2471 29.8377C45.2471 30.1318 45.0087 30.3702 44.7146 30.3702Z" fill="white"/>
<path d="M37.7923 44.2148C37.4982 44.2148 37.2598 44.4532 37.2598 44.7473V45.8123C37.2598 46.1064 37.4982 46.3448 37.7923 46.3448C38.0863 46.3448 38.3247 46.1064 38.3247 45.8123V44.7473C38.3247 44.4532 38.0863 44.2148 37.7923 44.2148Z" fill="white"/>
<path d="M39.9221 44.2148C39.6281 44.2148 39.3896 44.4532 39.3896 44.7473V45.8123C39.3896 46.1064 39.6281 46.3448 39.9221 46.3448C40.2162 46.3448 40.4546 46.1064 40.4546 45.8123V44.7473C40.4546 44.4532 40.2162 44.2148 39.9221 44.2148Z" fill="white"/>
<path d="M42.052 44.2148C41.7579 44.2148 41.5195 44.4532 41.5195 44.7473V45.8123C41.5195 46.1064 41.7579 46.3448 42.052 46.3448C42.3461 46.3448 42.5845 46.1064 42.5845 45.8123V44.7473C42.5845 44.4532 42.3461 44.2148 42.052 44.2148Z" fill="white"/>
<path d="M44.1824 44.2148C43.8883 44.2148 43.6499 44.4532 43.6499 44.7473V45.8123C43.6499 46.1064 43.8883 46.3448 44.1824 46.3448C44.4765 46.3448 44.7149 46.1064 44.7149 45.8123V44.7473C44.7149 44.4532 44.4765 44.2148 44.1824 44.2148Z" fill="white"/>
<path d="M46.3123 44.2148C46.0182 44.2148 45.7798 44.4532 45.7798 44.7473V45.8123C45.7798 46.1064 46.0182 46.3448 46.3123 46.3448C46.6064 46.3448 46.8448 46.1064 46.8448 45.8123V44.7473C46.8448 44.4532 46.6064 44.2148 46.3123 44.2148Z" fill="white"/>
</g>
<defs>
<clipPath id="clip0_1478_90909">
<rect width="31.9492" height="31.9492" fill="white" transform="translate(17.0254 16.5254)"/>
</clipPath>
</defs>
</svg>
