<svg width="66" height="65" viewBox="0 0 66 65" fill="none" xmlns="http://www.w3.org/2000/svg">
<circle cx="33" cy="32.5" r="32.5" fill="#4691FF"/>
<g clip-path="url(#clip0_1478_90932)">
<path d="M21.9055 27.2412H13.7202V29.5651H21.9055C22.5462 29.5651 23.0674 30.0863 23.0674 30.727C23.0674 31.3677 22.5462 31.889 21.9055 31.889H17.206C15.284 31.889 13.7202 33.4527 13.7202 35.3748V38.8606H16.0441V35.3748C16.0441 34.7341 16.5654 34.2129 17.206 34.2129H21.9055C23.8276 34.2129 25.3913 32.6491 25.3913 30.727C25.3913 28.805 23.8276 27.2412 21.9055 27.2412Z" fill="white"/>
<path d="M34.1318 27.2412C32.2097 27.2412 30.646 28.805 30.646 30.727V35.3748C30.646 36.0155 30.1247 36.5368 29.484 36.5368H24.2295V38.8606H29.484C31.4061 38.8606 32.9699 37.2969 32.9699 35.3748V30.727C32.9699 30.0863 33.4911 29.5651 34.1318 29.5651H39.3864V27.2412H34.1318Z" fill="white"/>
<path d="M51.0575 34.2127V29.5651C51.0575 28.2837 50.015 27.2412 48.7336 27.2412C48.2935 27.2412 47.8647 27.3652 47.4935 27.5996L40.1346 32.2473C39.4559 32.6759 39.0508 33.4107 39.0508 34.2129C39.0508 35.4943 40.0933 36.5368 41.3747 36.5368H48.7336V38.8606H51.0575V36.5368H53.3814V34.2129L51.0575 34.2127ZM48.7336 34.2126L41.3755 34.2122L48.7336 29.5651V34.2126Z" fill="white"/>
</g>
<defs>
<clipPath id="clip0_1478_90932">
<rect width="39.661" height="39.661" fill="white" transform="translate(13.7202 13.2202)"/>
</clipPath>
</defs>
</svg>
