<svg width="66" height="65" viewBox="0 0 66 65" fill="none" xmlns="http://www.w3.org/2000/svg">
<circle cx="33" cy="32.5" r="32.5" fill="#4691FF"/>
<g clip-path="url(#clip0_1478_90965)">
<path d="M46.2203 18.1777H20.8813C18.7528 18.1802 17.0278 19.9051 17.0254 22.0337V44.0676C17.0278 46.1961 18.7528 47.9211 20.8813 47.9235H46.2203C48.3489 47.9211 50.0738 46.1961 50.0762 44.0676V22.0337C50.0738 19.9051 48.3489 18.1802 46.2203 18.1777ZM48.9745 44.0676C48.9727 45.5879 47.7407 46.82 46.2203 46.8218H20.8813C19.361 46.82 18.1289 45.5879 18.1271 44.0676V22.0337C18.1289 20.5133 19.361 19.2813 20.8813 19.2794H46.2203C47.7407 19.2813 48.9727 20.5133 48.9745 22.0337V44.0676Z" fill="white"/>
<path d="M46.2203 22.5845H20.8813C19.9686 22.5845 19.2288 23.3243 19.2288 24.237V44.0675C19.2288 44.9802 19.9686 45.7201 20.8813 45.7201H46.2203C47.133 45.7201 47.8728 44.9802 47.8728 44.0675V24.237C47.8728 23.3243 47.133 22.5845 46.2203 22.5845ZM33.5508 33.5265L27.5515 30.2963L33.5508 27.0662L39.5501 30.2963L33.5508 33.5265ZM40.161 31.2185V37.6777L34.1016 40.942V34.4828L40.161 31.2185ZM32.9999 34.4828V40.942L26.9406 37.6777V31.2185L32.9999 34.4828ZM20.3305 24.237C20.3305 23.9328 20.5771 23.6862 20.8813 23.6862H32.9999V26.1099L26.1287 29.8116C26.1215 29.8154 26.1133 29.8171 26.1061 29.8215C25.9395 29.9216 25.838 30.102 25.8389 30.2963V34.9135L20.3305 37.6678V24.237ZM46.7711 44.0675C46.7711 44.3717 46.5245 44.6184 46.2203 44.6184H20.8813C20.5771 44.6184 20.3305 44.3717 20.3305 44.0675V38.8995L25.8389 36.1452V38.0082C25.839 38.2108 25.9503 38.3969 26.1287 38.4929L33.2897 42.3489C33.4527 42.4366 33.6489 42.4366 33.8119 42.3489L40.9729 38.4929C41.1513 38.3969 41.2626 38.2108 41.2627 38.0082V36.1452L46.7711 38.8995V44.0675ZM46.7711 37.6678L41.2627 34.9135V30.2963C41.2626 30.1026 41.1607 29.9231 40.9944 29.8237C40.9872 29.8193 40.979 29.8177 40.9718 29.8138L34.1016 26.1099V23.6862H46.2203C46.5245 23.6862 46.7711 23.9328 46.7711 24.237V37.6678Z" fill="white"/>
<path d="M20.3304 21.483C20.6346 21.483 20.8812 21.2364 20.8812 20.9322C20.8812 20.628 20.6346 20.3813 20.3304 20.3813C20.0262 20.3813 19.7795 20.628 19.7795 20.9322C19.7795 21.2364 20.0262 21.483 20.3304 21.483Z" fill="white"/>
<path d="M22.5338 21.483C22.838 21.483 23.0846 21.2364 23.0846 20.9322C23.0846 20.628 22.838 20.3813 22.5338 20.3813C22.2295 20.3813 21.9829 20.628 21.9829 20.9322C21.9829 21.2364 22.2295 21.483 22.5338 21.483Z" fill="white"/>
<path d="M24.7371 21.483C25.0413 21.483 25.288 21.2364 25.288 20.9322C25.288 20.628 25.0413 20.3813 24.7371 20.3813C24.4329 20.3813 24.1863 20.628 24.1863 20.9322C24.1863 21.2364 24.4329 21.483 24.7371 21.483Z" fill="white"/>
<path d="M38.5084 21.483H46.2202C46.5245 21.483 46.7711 21.2364 46.7711 20.9322C46.7711 20.628 46.5245 20.3813 46.2202 20.3813H38.5084C38.2041 20.3813 37.9575 20.628 37.9575 20.9322C37.9575 21.2364 38.2041 21.483 38.5084 21.483Z" fill="white"/>
</g>
<defs>
<clipPath id="clip0_1478_90965">
<rect width="33.0508" height="33.0508" fill="white" transform="translate(17.0254 16.5254)"/>
</clipPath>
</defs>
</svg>
