<svg width="66" height="65" viewBox="0 0 66 65" fill="none" xmlns="http://www.w3.org/2000/svg">
<circle cx="33" cy="32.5" r="32.5" fill="#4691FF"/>
<g clip-path="url(#clip0_1478_90983)">
<path d="M47.8522 42.4498L47.1906 39.9807C47.1045 39.6593 46.774 39.4683 46.4527 39.5547C46.1312 39.6408 45.9405 39.9711 46.0266 40.2926L46.3163 41.3735L42.0885 38.9619V28.9387C42.0885 28.723 41.9732 28.5238 41.7863 28.4163L33.0507 23.3939V18.6212L33.8297 19.4002C34.065 19.6355 34.4465 19.6355 34.6818 19.4002C34.9171 19.165 34.9171 18.7834 34.6818 18.5481L32.8742 16.7405C32.6387 16.504 32.253 16.5088 32.0221 16.7405L30.2145 18.5481C29.9792 18.7834 29.9792 19.1649 30.2145 19.4002C30.4498 19.6355 30.8313 19.6355 31.0667 19.4002L31.8457 18.6212V23.395L23.1687 28.4172C22.9826 28.5249 22.868 28.7237 22.868 28.9387V38.8645L18.5807 41.3007L18.8708 40.2178C18.9569 39.8964 18.7662 39.566 18.4447 39.4799C18.1232 39.3936 17.7929 39.5845 17.7068 39.9059L17.0453 42.3757C16.9615 42.6884 17.1488 43.0364 17.4894 43.1184L19.9405 43.7752C20.2645 43.862 20.593 43.6679 20.6785 43.3491C20.7646 43.0277 20.5739 42.6974 20.2524 42.6112L19.2069 42.331L23.4619 39.9131L32.1804 45.047C32.367 45.1569 32.5988 45.1584 32.7871 45.0498L34.9973 43.7756C35.2856 43.6095 35.3845 43.241 35.2184 42.9528C35.0522 42.6645 34.6837 42.5655 34.3954 42.7317L32.4894 43.8305L24.6706 39.2264L32.4102 34.8283L40.299 39.3284L39.0921 40.0242C38.8038 40.1903 38.7049 40.5588 38.871 40.847C39.0373 41.1354 39.4058 41.2344 39.694 41.0681L41.5118 40.0201L45.6922 42.4048L44.6452 42.6854C44.3238 42.7715 44.133 43.1018 44.2192 43.4233C44.3049 43.7431 44.6342 43.936 44.9571 43.8493L47.3719 43.2023C47.7167 43.1415 47.9447 42.7949 47.8522 42.4498ZM40.8834 38.2744L33.0506 33.8063V24.784L40.8834 29.2873V38.2744ZM24.073 29.2861L31.8456 24.7875V33.763L24.073 38.1797V29.2861Z" fill="white"/>
<path d="M37.0273 42.4726C37.3601 42.4726 37.6299 42.2029 37.6299 41.8701C37.6299 41.5373 37.3601 41.2676 37.0273 41.2676C36.6946 41.2676 36.4248 41.5373 36.4248 41.8701C36.4248 42.2029 36.6946 42.4726 37.0273 42.4726Z" fill="white"/>
</g>
<defs>
<clipPath id="clip0_1478_90983">
<rect width="30.8475" height="30.8475" fill="white" transform="translate(17.0254 15.4238)"/>
</clipPath>
</defs>
</svg>
