<svg width="66" height="65" viewBox="0 0 66 65" fill="none" xmlns="http://www.w3.org/2000/svg">
<circle cx="33" cy="32.5" r="32.5" fill="#4691FF"/>
<g clip-path="url(#clip0_1478_90951)">
<path d="M35.0671 40.9052C33.3811 41.4678 31.5213 41.4677 29.8305 40.9049C29.3567 40.7472 28.8452 41.0034 28.6876 41.477C28.53 41.9506 28.7861 42.4623 29.2597 42.6199C30.2894 42.9626 31.3703 43.1339 32.4509 43.1339C33.5316 43.1339 34.6119 42.9624 35.6392 42.6197C36.1126 42.4617 36.3684 41.9498 36.2103 41.4763C36.0524 41.003 35.5406 40.7473 35.0671 40.9052Z" fill="white"/>
<path d="M42.9768 23.5313C42.5921 20.7725 40.2232 18.595 37.2892 18.595H36.2568V18.5307C36.2568 18.0316 35.8522 17.627 35.3531 17.627H29.5451C29.046 17.627 28.6414 18.0316 28.6414 18.5307V18.5949H27.6091C24.6997 18.5949 22.3275 20.7421 21.924 23.5306C20.23 23.9162 18.9614 25.4335 18.9614 27.2426V34.9867C18.9614 37.4633 20.9787 38.4726 21.8951 38.6904C22.3089 44.2658 26.9904 48.4744 32.4491 48.4744C38.0159 48.4744 42.5925 44.1543 43.0027 38.6906C45.378 38.1267 45.9368 35.9717 45.9368 34.9867V27.2427C45.9369 25.4345 44.6695 23.9177 42.9768 23.5313ZM36.2568 20.4024H37.2891C39.8462 20.4024 40.9025 22.4931 41.1221 23.435H36.2568V20.4024ZM30.4489 19.4344H34.4494V23.435H30.4489V19.4344ZM27.6091 20.4024H28.6414V23.435H23.7798C24.366 20.9794 26.5905 20.4024 27.6091 20.4024ZM32.4491 46.6669C27.9886 46.6669 24.1757 43.2878 23.7188 38.7944H28.1754C29.2844 38.7944 30.3695 38.345 31.1524 37.5615C31.1571 37.5568 31.1617 37.5521 31.1662 37.5474C31.5062 37.2148 31.9727 37.0245 32.4491 37.0245C32.9257 37.0245 33.3921 37.2148 33.7321 37.5474C33.7366 37.5521 33.7412 37.5568 33.7459 37.5615C34.5288 38.345 35.6139 38.7944 36.7229 38.7944H41.1791C40.7253 43.2107 36.9833 46.6669 32.4491 46.6669ZM44.1294 34.9867C44.1294 36.1052 43.2178 36.9869 42.1291 36.9869H36.7229C36.0968 36.9869 35.4843 36.7362 35.0391 36.2984C35.0342 36.2933 35.0293 36.2882 35.0243 36.2832C34.3467 35.6056 33.4082 35.217 32.4492 35.217C31.4903 35.217 30.5517 35.6056 29.8741 36.2832C29.8691 36.2882 29.8641 36.2932 29.8593 36.2983C29.414 36.7362 28.8015 36.9869 28.1754 36.9869H22.7691C21.6839 36.9869 20.7688 36.109 20.7688 34.9867V27.2427C20.7688 26.1398 21.6662 25.2425 22.7691 25.2425H42.1291C43.232 25.2425 44.1293 26.1398 44.1293 27.2427V34.9867H44.1294Z" fill="white"/>
</g>
<defs>
<clipPath id="clip0_1478_90951">
<rect width="30.8475" height="30.8475" fill="white" transform="translate(17.0254 17.627)"/>
</clipPath>
</defs>
</svg>
