<svg width="22" height="21" viewBox="0 0 22 21" fill="none" xmlns="http://www.w3.org/2000/svg">
<g id="arrow 1" clip-path="url(#clip0_1478_90886)">
<g id="Group">
<g id="Group_2">
<path id="Vector" d="M1.76222 11.974C1.84814 11.9879 1.9351 11.9944 2.02211 11.9933L16.8372 11.9933L16.5141 12.1435C16.1984 12.293 15.9111 12.4964 15.6652 12.7445L11.5107 16.899C10.9635 17.4214 10.8716 18.2616 11.2928 18.8899C11.7831 19.5594 12.7232 19.7048 13.3928 19.2145C13.4469 19.1749 13.4983 19.1317 13.5466 19.0852L21.0593 11.5725C21.6464 10.9861 21.647 10.0347 21.0605 9.44762C21.0601 9.44725 21.0597 9.44682 21.0593 9.44645L13.5466 1.93375C12.959 1.34781 12.0077 1.34912 11.4217 1.93671C11.3756 1.98296 11.3325 2.03217 11.2928 2.08401C10.8716 2.7123 10.9635 3.55255 11.5107 4.07487L15.6577 8.2369C15.8781 8.45759 16.1316 8.64264 16.409 8.78533L16.8597 8.98817L2.1048 8.98817C1.33723 8.95967 0.663813 9.49584 0.519615 10.2503C0.386782 11.0694 0.943098 11.8411 1.76222 11.974Z" fill="#000082"/>
</g>
</g>
</g>
<defs>
<clipPath id="clip0_1478_90886">
<rect width="21" height="21" fill="white" transform="matrix(-1 0 0 -1 21.5 21)"/>
</clipPath>
</defs>
</svg>
