<svg width="22" height="34" viewBox="0 0 22 34" fill="none" xmlns="http://www.w3.org/2000/svg">
<path d="M0.625 26.1823V20.4994H1.55227V18.6052H2.47955V16.7109H3.40682V13.8694H4.33409V12.9223H5.26136V11.9751H6.18864V8.18654H7.11591V7.2394H8.04318V6.29225H8.97046V5.34511H9.89773V4.39796H13.6068V0.609375H16.3886V1.55652H17.3159V3.45081H18.2432V6.29225H17.3159V7.2394H14.5341V9.13369H13.6068V10.0808H15.4614V11.028H16.3886V11.9751H17.3159V12.9223H18.2432V13.8694H19.1705V15.7637H20.0977V20.4994H21.025V26.1823H20.0977V28.0766H19.1705V29.9709H18.2432V30.9181H17.3159V31.8652H15.4614V32.8123H13.6068V33.7595H8.04318V32.8123H6.18864V31.8652H4.33409V30.9181H3.40682V29.9709H2.47955V28.0766H1.55227V26.1823H0.625Z" fill="#000082"/>
<path fill-rule="evenodd" clip-rule="evenodd" d="M1.55227 21.4466V25.2352H2.47955V27.1295H3.40682V29.0238H4.33409V29.9709H5.26136V30.9181H7.11591V31.8652H8.97046V32.8123H12.6795V31.8652H14.5341V30.9181H16.3886V29.9709H17.3159V29.0238H18.2432V27.1295H19.1705V25.2352H20.0977V21.4466H19.1705V16.7109H18.2432V14.8166H17.3159V13.8694H16.3886V12.9223H15.4614V11.9751H14.5341V11.028H12.6795V10.0808H11.7523V9.13369H12.6795V7.2394H13.6068V6.29225H12.6795V5.34511H10.825V6.29225H9.89773V7.2394H8.97046V8.18654H8.04318V9.13369H7.11591V11.028H8.04318V11.9751H7.11591V12.9223H6.18864V13.8694H5.26136V14.8166H4.33409V17.658H3.40682V19.5523H2.47955V21.4466H1.55227ZM8.97046 12.9223H8.04318V11.9751H8.97046V12.9223ZM8.97046 12.9223H9.89773V14.8166H8.97046V15.7637H8.04318V13.8694H8.97046V12.9223ZM8.04318 25.2352H7.11591V24.288H6.18864V23.3409H5.26136V21.4466H6.18864V20.4994H7.11591V21.4466H8.97046V20.4994H8.04318V19.5523H9.89773V18.6052H10.825V17.658H11.7523V16.7109H12.6795V14.8166H13.6068V15.7637H14.5341V16.7109H13.6068V18.6052H14.5341V19.5523H15.4614V20.4994H16.3886V25.2352H13.6068V24.288H14.5341V22.3937H12.6795V23.3409H11.7523V24.288H10.825V25.2352H9.89773V26.1823H12.6795V25.2352H13.6068V27.1295H14.5341V28.0766H12.6795V29.0238H8.97046V28.0766H7.11591V27.1295H6.18864V26.1823H8.04318V25.2352ZM14.5341 18.6052H15.4614V17.658H14.5341V18.6052ZM12.6795 14.8166H11.7523V13.8694H12.6795V14.8166Z" fill="white"/>
<path d="M14.5341 4.39796V3.45081H15.4614V2.50367H14.5341V1.55652H15.4614V2.50367H16.3886V4.39796H14.5341Z" fill="white"/>
<path d="M14.5341 6.29225V5.34511H16.3886V4.39796H17.3159V5.34511H16.3886V6.29225H14.5341Z" fill="#4691FF"/>
<path d="M4.33409 27.1295V26.1823H6.18864V27.1295H7.11591V28.0766H8.97046V29.0238H12.6795V28.0766H14.5341V27.1295H15.4614V29.0238H14.5341V29.9709H9.89773V30.9181H8.97046V29.9709H8.04318V29.0238H7.11591V28.0766H6.18864V27.1295H4.33409Z" fill="#4691FF"/>
<path fill-rule="evenodd" clip-rule="evenodd" d="M10.825 7.2394H9.89773V8.18654H8.97046V10.0808H8.04318V11.028H8.97046V11.9751H9.89773V12.9223H10.825V15.7637H9.89773V16.7109H8.97046V17.658H8.04318V16.7109H7.11591V15.7637H6.18864V14.8166H5.26136V17.658H6.18864V18.6052H5.26136V19.5523H4.33409V21.4466H3.40682V24.288H4.33409V22.3937H5.26136V20.4994H6.18864V18.6052H7.11591V19.5523H9.89773V18.6052H10.825V17.658H11.7523V16.7109H12.6795V14.8166H11.7523V13.8694H12.6795V11.9751H11.7523V11.028H10.825V10.0808H9.89773V9.13369H10.825V7.2394ZM13.6068 14.8166V15.7637H14.5341V14.8166H15.4614V16.7109H14.5341V17.658H16.3886V18.6052H15.4614V20.4994H16.3886V25.2352H15.4614V26.1823H17.3159V25.2352H18.2432V24.288H17.3159V22.3937H18.2432V21.4466H17.3159V19.5523H18.2432V18.6052H17.3159V17.658H16.3886V14.8166H15.4614V13.8694H14.5341V12.9223H13.6068V13.8694H14.5341V14.8166H13.6068Z" fill="#4691FF"/>
<path d="M12.6795 14.8166H13.6068V13.8694H12.6795V14.8166Z" fill="#4691FF"/>
<path d="M2.47955 25.2352V21.4466H3.40682V19.5523H4.33409V17.658H6.18864V18.6052H7.11591V19.5523H8.04318V20.4994H8.97046V21.4466H7.11591V20.4994H6.18864V21.4466H5.26136V20.4994H6.18864V18.6052H5.26136V19.5523H4.33409V21.4466H3.40682V24.288H4.33409V22.3937H5.26136V24.288H4.33409V25.2352H5.26136V26.1823H4.33409V27.1295H6.18864V28.0766H7.11591V29.0238H8.04318V29.9709H8.97046V30.9181H9.89773V29.9709H14.5341V29.0238H15.4614V27.1295H13.6068V25.2352H15.4614V26.1823H17.3159V25.2352H18.2432V24.288H17.3159V22.3937H18.2432V21.4466H17.3159V19.5523H18.2432V21.4466H19.1705V25.2352H18.2432V27.1295H17.3159V29.0238H16.3886V29.9709H14.5341V30.9181H12.6795V31.8652H8.97046V30.9181H7.11591V29.9709H5.26136V29.0238H4.33409V27.1295H3.40682V25.2352H2.47955Z" fill="#4BFFFF"/>
<path d="M6.18864 15.7637V13.8694H7.11591V12.9223H8.04318V13.8694H7.11591V15.7637H8.04318V16.7109H8.97046V15.7637H9.89773V14.8166H10.825V15.7637H9.89773V16.7109H8.97046V17.658H8.04318V16.7109H7.11591V15.7637H6.18864Z" fill="#4BFFFF"/>
<path d="M12.6795 6.29225H10.825V9.13369H11.7523V7.2394H12.6795V6.29225Z" fill="#4BFFFF"/>
<path d="M8.04318 9.13369H8.97046V10.0808H8.04318V9.13369Z" fill="#4BFFFF"/>
<path d="M14.5341 13.8694H15.4614V12.9223H14.5341V13.8694Z" fill="#4BFFFF"/>
<path d="M13.6068 13.8694V14.8166H14.5341V13.8694H13.6068Z" fill="#4BFFFF"/>
<path d="M16.3886 13.8694H15.4614V14.8166H16.3886V13.8694Z" fill="#4BFFFF"/>
<path d="M15.4614 16.7109V14.8166H14.5341V16.7109H15.4614Z" fill="#4BFFFF"/>
<path d="M17.3159 14.8166H16.3886V17.658H17.3159V18.6052H18.2432V16.7109H17.3159V14.8166Z" fill="#4BFFFF"/>
<path d="M14.5341 18.6052V19.5523H15.4614V18.6052H14.5341Z" fill="#4BFFFF"/>
<path d="M14.5341 16.7109H13.6068V18.6052H14.5341V16.7109Z" fill="#4BFFFF"/>
<path d="M10.825 9.13369H9.89773V10.0808H10.825V9.13369Z" fill="#4BFFFF"/>
<path d="M10.825 10.0808V11.028H11.7523V10.0808H10.825Z" fill="#4BFFFF"/>
<path d="M11.7523 11.028V11.9751H12.6795V11.028H11.7523Z" fill="#4BFFFF"/>
<path d="M12.6795 11.9751V13.8694H13.6068V12.9223H14.5341V11.9751H12.6795Z" fill="#4BFFFF"/>
<path d="M16.3886 17.658H15.4614V18.6052H16.3886V17.658Z" fill="#4BFFFF"/>
<path d="M14.5341 4.39796H16.3886V5.34511H14.5341V4.39796Z" fill="#4BFFFF"/>
<path d="M12.6795 21.4466V22.3937H13.6068V21.4466H12.6795Z" fill="#4BFFFF"/>
<path d="M11.7523 22.3937V23.3409H12.6795V22.3937H11.7523Z" fill="#4BFFFF"/>
<path d="M10.825 23.3409V24.288H11.7523V23.3409H10.825Z" fill="#4BFFFF"/>
<path d="M9.89773 24.288V25.2352H10.825V24.288H9.89773Z" fill="#4BFFFF"/>
<path d="M8.97046 25.2352V26.1823H9.89773V25.2352H8.97046Z" fill="#4BFFFF"/>
</svg>
