<svg width="21" height="34" viewBox="0 0 21 34" fill="none" xmlns="http://www.w3.org/2000/svg">
<path d="M0.164062 25.821V20.1381H1.09134V18.2438H2.01861V16.3495H2.94588V13.5081H3.87315V12.5609H4.80043V11.6138H5.7277V7.82522H6.65497V6.87807H7.58224V5.93092H8.50952V4.98378H9.43679V4.03663H13.1459V0.248047H15.9277V1.19519H16.855V3.08949H17.7822V5.93092H16.855V6.87807H14.0732V8.77236H13.1459V9.71951H15.0004V10.6667H15.9277V11.6138H16.855V12.5609H17.7822V13.5081H18.7095V15.4024H19.6368V20.1381H20.5641V25.821H19.6368V27.7153H18.7095V29.6096H17.7822V30.5567H16.855V31.5039H15.0004V32.451H13.1459V33.3982H7.58224V32.451H5.7277V31.5039H3.87315V30.5567H2.94588V29.6096H2.01861V27.7153H1.09134V25.821H0.164062Z" fill="#6941C6"/>
<path fill-rule="evenodd" clip-rule="evenodd" d="M1.09134 21.0853V24.8738H2.01861V26.7681H2.94588V28.6624H3.87315V29.6096H4.80043V30.5567H6.65497V31.5039H8.50952V32.451H12.2186V31.5039H14.0732V30.5567H15.9277V29.6096H16.855V28.6624H17.7822V26.7681H18.7095V24.8738H19.6368V21.0853H18.7095V16.3495H17.7822V14.4552H16.855V13.5081H15.9277V12.5609H15.0004V11.6138H14.0732V10.6667H12.2186V9.71951H11.2913V8.77236H12.2186V6.87807H13.1459V5.93092H12.2186V4.98378H10.3641V5.93092H9.43679V6.87807H8.50952V7.82522H7.58224V8.77236H6.65497V10.6667H7.58224V11.6138H6.65497V12.5609H5.7277V13.5081H4.80043V14.4552H3.87315V17.2967H2.94588V19.191H2.01861V21.0853H1.09134ZM8.50952 12.5609H7.58224V11.6138H8.50952V12.5609ZM8.50952 12.5609H9.43679V14.4552H8.50952V15.4024H7.58224V13.5081H8.50952V12.5609ZM7.58224 24.8738H6.65497V23.9267H5.7277V22.9796H4.80043V21.0853H5.7277V20.1381H6.65497V21.0853H8.50952V20.1381H7.58224V19.191H9.43679V18.2438H10.3641V17.2967H11.2913V16.3495H12.2186V14.4552H13.1459V15.4024H14.0732V16.3495H13.1459V18.2438H14.0732V19.191H15.0004V20.1381H15.9277V24.8738H13.1459V23.9267H14.0732V22.0324H12.2186V22.9796H11.2913V23.9267H10.3641V24.8738H9.43679V25.821H12.2186V24.8738H13.1459V26.7681H14.0732V27.7153H12.2186V28.6624H8.50952V27.7153H6.65497V26.7681H5.7277V25.821H7.58224V24.8738ZM14.0732 18.2438H15.0004V17.2967H14.0732V18.2438ZM12.2186 14.4552H11.2913V13.5081H12.2186V14.4552Z" fill="white"/>
<path d="M14.0732 4.03663V3.08949H15.0004V2.14234H14.0732V1.19519H15.0004V2.14234H15.9277V4.03663H14.0732Z" fill="white"/>
<path d="M14.0732 5.93092V4.98378H15.9277V4.03663H16.855V4.98378H15.9277V5.93092H14.0732Z" fill="#9E77ED"/>
<path d="M3.87315 26.7681V25.821H5.7277V26.7681H6.65497V27.7153H8.50952V28.6624H12.2186V27.7153H14.0732V26.7681H15.0004V28.6624H14.0732V29.6096H9.43679V30.5567H8.50952V29.6096H7.58224V28.6624H6.65497V27.7153H5.7277V26.7681H3.87315Z" fill="#9E77ED"/>
<path fill-rule="evenodd" clip-rule="evenodd" d="M10.3641 6.87807H9.43679V7.82522H8.50952V9.71951H7.58224V10.6667H8.50952V11.6138H9.43679V12.5609H10.3641V15.4024H9.43679V16.3495H8.50952V17.2967H7.58224V16.3495H6.65497V15.4024H5.7277V14.4552H4.80043V17.2967H5.7277V18.2438H4.80043V19.191H3.87315V21.0853H2.94588V23.9267H3.87315V22.0324H4.80043V20.1381H5.7277V18.2438H6.65497V19.191H9.43679V18.2438H10.3641V17.2967H11.2913V16.3495H12.2186V14.4552H11.2913V13.5081H12.2186V11.6138H11.2913V10.6667H10.3641V9.71951H9.43679V8.77236H10.3641V6.87807ZM13.1459 14.4552V15.4024H14.0732V14.4552H15.0004V16.3495H14.0732V17.2967H15.9277V18.2438H15.0004V20.1381H15.9277V24.8738H15.0004V25.821H16.855V24.8738H17.7822V23.9267H16.855V22.0324H17.7822V21.0853H16.855V19.191H17.7822V18.2438H16.855V17.2967H15.9277V14.4552H15.0004V13.5081H14.0732V12.5609H13.1459V13.5081H14.0732V14.4552H13.1459Z" fill="#9E77ED"/>
<path d="M12.2186 14.4552H13.1459V13.5081H12.2186V14.4552Z" fill="#9E77ED"/>
<path d="M2.01861 24.8738V21.0853H2.94588V19.191H3.87315V17.2967H5.7277V18.2438H6.65497V19.191H7.58224V20.1381H8.50952V21.0853H6.65497V20.1381H5.7277V21.0853H4.80043V20.1381H5.7277V18.2438H4.80043V19.191H3.87315V21.0853H2.94588V23.9267H3.87315V22.0324H4.80043V23.9267H3.87315V24.8738H4.80043V25.821H3.87315V26.7681H5.7277V27.7153H6.65497V28.6624H7.58224V29.6096H8.50952V30.5567H9.43679V29.6096H14.0732V28.6624H15.0004V26.7681H13.1459V24.8738H15.0004V25.821H16.855V24.8738H17.7822V23.9267H16.855V22.0324H17.7822V21.0853H16.855V19.191H17.7822V21.0853H18.7095V24.8738H17.7822V26.7681H16.855V28.6624H15.9277V29.6096H14.0732V30.5567H12.2186V31.5039H8.50952V30.5567H6.65497V29.6096H4.80043V28.6624H3.87315V26.7681H2.94588V24.8738H2.01861Z" fill="#E9D7FE"/>
<path d="M5.7277 15.4024V13.5081H6.65497V12.5609H7.58224V13.5081H6.65497V15.4024H7.58224V16.3495H8.50952V15.4024H9.43679V14.4552H10.3641V15.4024H9.43679V16.3495H8.50952V17.2967H7.58224V16.3495H6.65497V15.4024H5.7277Z" fill="#E9D7FE"/>
<path d="M12.2186 5.93092H10.3641V8.77236H11.2913V6.87807H12.2186V5.93092Z" fill="#E9D7FE"/>
<path d="M7.58224 8.77236H8.50952V9.71951H7.58224V8.77236Z" fill="#E9D7FE"/>
<path d="M14.0732 13.5081H15.0004V12.5609H14.0732V13.5081Z" fill="#E9D7FE"/>
<path d="M13.1459 13.5081V14.4552H14.0732V13.5081H13.1459Z" fill="#E9D7FE"/>
<path d="M15.9277 13.5081H15.0004V14.4552H15.9277V13.5081Z" fill="#E9D7FE"/>
<path d="M15.0004 16.3495V14.4552H14.0732V16.3495H15.0004Z" fill="#E9D7FE"/>
<path d="M16.855 14.4552H15.9277V17.2967H16.855V18.2438H17.7822V16.3495H16.855V14.4552Z" fill="#E9D7FE"/>
<path d="M14.0732 18.2438V19.191H15.0004V18.2438H14.0732Z" fill="#E9D7FE"/>
<path d="M14.0732 16.3495H13.1459V18.2438H14.0732V16.3495Z" fill="#E9D7FE"/>
<path d="M10.3641 8.77236H9.43679V9.71951H10.3641V8.77236Z" fill="#E9D7FE"/>
<path d="M10.3641 9.71951V10.6667H11.2913V9.71951H10.3641Z" fill="#E9D7FE"/>
<path d="M11.2913 10.6667V11.6138H12.2186V10.6667H11.2913Z" fill="#E9D7FE"/>
<path d="M12.2186 11.6138V13.5081H13.1459V12.5609H14.0732V11.6138H12.2186Z" fill="#E9D7FE"/>
<path d="M15.9277 17.2967H15.0004V18.2438H15.9277V17.2967Z" fill="#E9D7FE"/>
<path d="M14.0732 4.03663H15.9277V4.98378H14.0732V4.03663Z" fill="#E9D7FE"/>
<path d="M12.2186 21.0853V22.0324H13.1459V21.0853H12.2186Z" fill="#E9D7FE"/>
<path d="M11.2913 22.0324V22.9796H12.2186V22.0324H11.2913Z" fill="#E9D7FE"/>
<path d="M10.3641 22.9796V23.9267H11.2913V22.9796H10.3641Z" fill="#E9D7FE"/>
<path d="M9.43679 23.9267V24.8738H10.3641V23.9267H9.43679Z" fill="#E9D7FE"/>
<path d="M8.50952 24.8738V25.821H9.43679V24.8738H8.50952Z" fill="#E9D7FE"/>
</svg>
