<svg width="22" height="34" viewBox="0 0 22 34" fill="none" xmlns="http://www.w3.org/2000/svg">
<path d="M0.704102 25.821V20.1381H1.63137V18.2438H2.55865V16.3495H3.48592V13.5081H4.41319V12.5609H5.34047V11.6138H6.26774V7.82522H7.19501V6.87807H8.12228V5.93092H9.04956V4.98378H9.97683V4.03663H13.6859V0.248047H16.4677V1.19519H17.395V3.08949H18.3223V5.93092H17.395V6.87807H14.6132V8.77236H13.6859V9.71951H15.5405V10.6667H16.4677V11.6138H17.395V12.5609H18.3223V13.5081H19.2496V15.4024H20.1768V20.1381H21.1041V25.821H20.1768V27.7153H19.2496V29.6096H18.3223V30.5567H17.395V31.5039H15.5405V32.451H13.6859V33.3982H8.12228V32.451H6.26774V31.5039H4.41319V30.5567H3.48592V29.6096H2.55865V27.7153H1.63137V25.821H0.704102Z" fill="#DC6803"/>
<path fill-rule="evenodd" clip-rule="evenodd" d="M1.63137 21.0853V24.8738H2.55865V26.7681H3.48592V28.6624H4.41319V29.6096H5.34047V30.5567H7.19501V31.5039H9.04956V32.451H12.7586V31.5039H14.6132V30.5567H16.4677V29.6096H17.395V28.6624H18.3223V26.7681H19.2496V24.8738H20.1768V21.0853H19.2496V16.3495H18.3223V14.4552H17.395V13.5081H16.4677V12.5609H15.5405V11.6138H14.6132V10.6667H12.7586V9.71951H11.8314V8.77236H12.7586V6.87807H13.6859V5.93092H12.7586V4.98378H10.9041V5.93092H9.97683V6.87807H9.04956V7.82522H8.12228V8.77236H7.19501V10.6667H8.12228V11.6138H7.19501V12.5609H6.26774V13.5081H5.34047V14.4552H4.41319V17.2967H3.48592V19.191H2.55865V21.0853H1.63137ZM9.04956 12.5609H8.12228V11.6138H9.04956V12.5609ZM9.04956 12.5609H9.97683V14.4552H9.04956V15.4024H8.12228V13.5081H9.04956V12.5609ZM8.12228 24.8738H7.19501V23.9267H6.26774V22.9796H5.34047V21.0853H6.26774V20.1381H7.19501V21.0853H9.04956V20.1381H8.12228V19.191H9.97683V18.2438H10.9041V17.2967H11.8314V16.3495H12.7586V14.4552H13.6859V15.4024H14.6132V16.3495H13.6859V18.2438H14.6132V19.191H15.5405V20.1381H16.4677V24.8738H13.6859V23.9267H14.6132V22.0324H12.7586V22.9796H11.8314V23.9267H10.9041V24.8738H9.97683V25.821H12.7586V24.8738H13.6859V26.7681H14.6132V27.7153H12.7586V28.6624H9.04956V27.7153H7.19501V26.7681H6.26774V25.821H8.12228V24.8738ZM14.6132 18.2438H15.5405V17.2967H14.6132V18.2438ZM12.7586 14.4552H11.8314V13.5081H12.7586V14.4552Z" fill="white"/>
<path d="M14.6132 4.03663V3.08949H15.5405V2.14234H14.6132V1.19519H15.5405V2.14234H16.4677V4.03663H14.6132Z" fill="white"/>
<path d="M14.6132 5.93092V4.98378H16.4677V4.03663H17.395V4.98378H16.4677V5.93092H14.6132Z" fill="#FDB022"/>
<path d="M4.41319 26.7681V25.821H6.26774V26.7681H7.19501V27.7153H9.04956V28.6624H12.7586V27.7153H14.6132V26.7681H15.5405V28.6624H14.6132V29.6096H9.97683V30.5567H9.04956V29.6096H8.12228V28.6624H7.19501V27.7153H6.26774V26.7681H4.41319Z" fill="#FDB022"/>
<path fill-rule="evenodd" clip-rule="evenodd" d="M10.9041 6.87807H9.97683V7.82522H9.04956V9.71951H8.12228V10.6667H9.04956V11.6138H9.97683V12.5609H10.9041V15.4024H9.97683V16.3495H9.04956V17.2967H8.12228V16.3495H7.19501V15.4024H6.26774V14.4552H5.34047V17.2967H6.26774V18.2438H5.34047V19.191H4.41319V21.0853H3.48592V23.9267H4.41319V22.0324H5.34047V20.1381H6.26774V18.2438H7.19501V19.191H9.97683V18.2438H10.9041V17.2967H11.8314V16.3495H12.7586V14.4552H11.8314V13.5081H12.7586V11.6138H11.8314V10.6667H10.9041V9.71951H9.97683V8.77236H10.9041V6.87807ZM13.6859 14.4552V15.4024H14.6132V14.4552H15.5405V16.3495H14.6132V17.2967H16.4677V18.2438H15.5405V20.1381H16.4677V24.8738H15.5405V25.821H17.395V24.8738H18.3223V23.9267H17.395V22.0324H18.3223V21.0853H17.395V19.191H18.3223V18.2438H17.395V17.2967H16.4677V14.4552H15.5405V13.5081H14.6132V12.5609H13.6859V13.5081H14.6132V14.4552H13.6859Z" fill="#FDB022"/>
<path d="M12.7586 14.4552H13.6859V13.5081H12.7586V14.4552Z" fill="#FDB022"/>
<path d="M2.55865 24.8738V21.0853H3.48592V19.191H4.41319V17.2967H6.26774V18.2438H7.19501V19.191H8.12228V20.1381H9.04956V21.0853H7.19501V20.1381H6.26774V21.0853H5.34047V20.1381H6.26774V18.2438H5.34047V19.191H4.41319V21.0853H3.48592V23.9267H4.41319V22.0324H5.34047V23.9267H4.41319V24.8738H5.34047V25.821H4.41319V26.7681H6.26774V27.7153H7.19501V28.6624H8.12228V29.6096H9.04956V30.5567H9.97683V29.6096H14.6132V28.6624H15.5405V26.7681H13.6859V24.8738H15.5405V25.821H17.395V24.8738H18.3223V23.9267H17.395V22.0324H18.3223V21.0853H17.395V19.191H18.3223V21.0853H19.2496V24.8738H18.3223V26.7681H17.395V28.6624H16.4677V29.6096H14.6132V30.5567H12.7586V31.5039H9.04956V30.5567H7.19501V29.6096H5.34047V28.6624H4.41319V26.7681H3.48592V24.8738H2.55865Z" fill="#FEDF89"/>
<path d="M6.26774 15.4024V13.5081H7.19501V12.5609H8.12228V13.5081H7.19501V15.4024H8.12228V16.3495H9.04956V15.4024H9.97683V14.4552H10.9041V15.4024H9.97683V16.3495H9.04956V17.2967H8.12228V16.3495H7.19501V15.4024H6.26774Z" fill="#FEDF89"/>
<path d="M12.7586 5.93092H10.9041V8.77236H11.8314V6.87807H12.7586V5.93092Z" fill="#FEDF89"/>
<path d="M8.12228 8.77236H9.04956V9.71951H8.12228V8.77236Z" fill="#FEDF89"/>
<path d="M14.6132 13.5081H15.5405V12.5609H14.6132V13.5081Z" fill="#FEDF89"/>
<path d="M13.6859 13.5081V14.4552H14.6132V13.5081H13.6859Z" fill="#FEDF89"/>
<path d="M16.4677 13.5081H15.5405V14.4552H16.4677V13.5081Z" fill="#FEDF89"/>
<path d="M15.5405 16.3495V14.4552H14.6132V16.3495H15.5405Z" fill="#FEDF89"/>
<path d="M17.395 14.4552H16.4677V17.2967H17.395V18.2438H18.3223V16.3495H17.395V14.4552Z" fill="#FEDF89"/>
<path d="M14.6132 18.2438V19.191H15.5405V18.2438H14.6132Z" fill="#FEDF89"/>
<path d="M14.6132 16.3495H13.6859V18.2438H14.6132V16.3495Z" fill="#FEDF89"/>
<path d="M10.9041 8.77236H9.97683V9.71951H10.9041V8.77236Z" fill="#FEDF89"/>
<path d="M10.9041 9.71951V10.6667H11.8314V9.71951H10.9041Z" fill="#FEDF89"/>
<path d="M11.8314 10.6667V11.6138H12.7586V10.6667H11.8314Z" fill="#FEDF89"/>
<path d="M12.7586 11.6138V13.5081H13.6859V12.5609H14.6132V11.6138H12.7586Z" fill="#FEDF89"/>
<path d="M16.4677 17.2967H15.5405V18.2438H16.4677V17.2967Z" fill="#FEDF89"/>
<path d="M14.6132 4.03663H16.4677V4.98378H14.6132V4.03663Z" fill="#FEDF89"/>
<path d="M12.7586 21.0853V22.0324H13.6859V21.0853H12.7586Z" fill="#FEDF89"/>
<path d="M11.8314 22.0324V22.9796H12.7586V22.0324H11.8314Z" fill="#FEDF89"/>
<path d="M10.9041 22.9796V23.9267H11.8314V22.9796H10.9041Z" fill="#FEDF89"/>
<path d="M9.97683 23.9267V24.8738H10.9041V23.9267H9.97683Z" fill="#FEDF89"/>
<path d="M9.04956 24.8738V25.821H9.97683V24.8738H9.04956Z" fill="#FEDF89"/>
</svg>
