<svg width="20" height="12" viewBox="0 0 20 12" fill="none" xmlns="http://www.w3.org/2000/svg">
<path d="M10.364 0.923794L18.014 8.57382V10.4863H1.43896V8.57382L9.08897 0.923794H10.364Z" fill="#4BFFFF"/>
<rect width="1.91241" height="1.9124" transform="matrix(-4.37112e-08 -1 -1 4.37115e-08 19.2871 11.7598)" fill="#4691FF"/>
<rect width="1.91241" height="1.9124" transform="matrix(-4.37112e-08 -1 -1 4.37115e-08 19.2871 9.84766)" fill="#4691FF"/>
<rect width="1.91241" height="1.9124" transform="matrix(-4.37112e-08 -1 -1 4.37115e-08 17.375 11.7598)" fill="#4691FF"/>
<rect width="1.91241" height="1.9124" transform="matrix(-4.37112e-08 -1 -1 4.37115e-08 15.4629 11.7598)" fill="#4691FF"/>
<rect width="1.91241" height="1.9124" transform="matrix(-4.37112e-08 -1 -1 4.37115e-08 13.5503 11.7598)" fill="#4691FF"/>
<rect width="1.91241" height="1.9124" transform="matrix(-4.37112e-08 -1 -1 4.37115e-08 11.6372 11.7598)" fill="#4691FF"/>
<rect width="1.91241" height="1.9124" transform="matrix(-4.37112e-08 -1 -1 4.37115e-08 9.72461 11.7598)" fill="#4691FF"/>
<rect width="1.91241" height="1.9124" transform="matrix(-4.37112e-08 -1 -1 4.37115e-08 7.8125 11.7598)" fill="#4691FF"/>
<rect width="1.91241" height="1.9124" transform="matrix(-4.37112e-08 -1 -1 4.37115e-08 5.90039 11.7598)" fill="#4691FF"/>
<rect width="1.91241" height="1.9124" transform="matrix(-4.37112e-08 -1 -1 4.37115e-08 3.98779 11.7598)" fill="#4691FF"/>
<rect width="1.91241" height="1.9124" transform="matrix(-4.37112e-08 -1 -1 4.37115e-08 17.375 7.93457)" fill="#4691FF"/>
<rect width="1.91241" height="1.9124" transform="matrix(-4.37112e-08 -1 -1 4.37115e-08 15.4629 6.02246)" fill="#4691FF"/>
<rect width="1.91241" height="1.9124" transform="matrix(-4.37112e-08 -1 -1 4.37115e-08 13.5508 4.11133)" fill="#4691FF"/>
<rect width="1.91241" height="1.9124" transform="matrix(-4.37112e-08 -1 -1 4.37115e-08 11.6372 2.19727)" fill="#4691FF"/>
<rect width="1.91241" height="1.9124" transform="matrix(-4.37112e-08 -1 -1 4.37115e-08 9.72461 2.19727)" fill="#4691FF"/>
<rect width="1.91241" height="1.9124" transform="matrix(-4.37112e-08 -1 -1 4.37115e-08 7.8125 4.11133)" fill="#4691FF"/>
<rect width="1.91241" height="1.9124" transform="matrix(-4.37112e-08 -1 -1 4.37115e-08 5.90039 6.02246)" fill="#4691FF"/>
<rect width="1.91241" height="1.9124" transform="matrix(-4.37112e-08 -1 -1 4.37115e-08 3.98779 7.93457)" fill="#4691FF"/>
<rect width="1.91241" height="1.9124" transform="matrix(-4.37112e-08 -1 -1 4.37115e-08 2.0752 9.84766)" fill="#4691FF"/>
<rect width="1.91241" height="1.9124" transform="matrix(-4.37112e-08 -1 -1 4.37115e-08 2.0752 11.7598)" fill="#4691FF"/>
</svg>
