<svg width="20" height="12" viewBox="0 0 20 12" fill="none" xmlns="http://www.w3.org/2000/svg">
<path d="M10.6638 0.922817L18.3138 8.57284V10.4854H1.73877V8.57284L9.38877 0.922817H10.6638Z" fill="white"/>
<rect width="1.91241" height="1.9124" transform="matrix(-4.37112e-08 -1 -1 4.37115e-08 19.5879 11.7598)" fill="#667085"/>
<rect width="1.91241" height="1.9124" transform="matrix(-4.37112e-08 -1 -1 4.37115e-08 19.5879 9.84766)" fill="#667085"/>
<rect width="1.91241" height="1.9124" transform="matrix(-4.37112e-08 -1 -1 4.37115e-08 17.6753 11.7598)" fill="#667085"/>
<rect width="1.91241" height="1.9124" transform="matrix(-4.37112e-08 -1 -1 4.37115e-08 15.7632 11.7598)" fill="#667085"/>
<rect width="1.91241" height="1.9124" transform="matrix(-4.37112e-08 -1 -1 4.37115e-08 13.8506 11.7598)" fill="#667085"/>
<rect width="1.91241" height="1.9124" transform="matrix(-4.37112e-08 -1 -1 4.37115e-08 11.938 11.7598)" fill="#667085"/>
<rect width="1.91241" height="1.9124" transform="matrix(-4.37112e-08 -1 -1 4.37115e-08 10.0254 11.7598)" fill="#667085"/>
<rect width="1.91241" height="1.9124" transform="matrix(-4.37112e-08 -1 -1 4.37115e-08 8.11328 11.7598)" fill="#667085"/>
<rect width="1.91241" height="1.9124" transform="matrix(-4.37112e-08 -1 -1 4.37115e-08 6.20068 11.7598)" fill="#667085"/>
<rect width="1.91241" height="1.9124" transform="matrix(-4.37112e-08 -1 -1 4.37115e-08 4.28809 11.7598)" fill="#667085"/>
<rect width="1.91241" height="1.9124" transform="matrix(-4.37112e-08 -1 -1 4.37115e-08 17.6753 7.93457)" fill="#667085"/>
<rect width="1.91241" height="1.9124" transform="matrix(-4.37112e-08 -1 -1 4.37115e-08 15.7637 6.02246)" fill="#667085"/>
<rect width="1.91241" height="1.9124" transform="matrix(-4.37112e-08 -1 -1 4.37115e-08 13.8511 4.11133)" fill="#667085"/>
<rect width="1.91241" height="1.9124" transform="matrix(-4.37112e-08 -1 -1 4.37115e-08 11.938 2.19727)" fill="#667085"/>
<rect width="1.91241" height="1.9124" transform="matrix(-4.37112e-08 -1 -1 4.37115e-08 10.0254 2.19727)" fill="#667085"/>
<rect width="1.91241" height="1.9124" transform="matrix(-4.37112e-08 -1 -1 4.37115e-08 8.11328 4.11133)" fill="#667085"/>
<rect width="1.91241" height="1.9124" transform="matrix(-4.37112e-08 -1 -1 4.37115e-08 6.20068 6.02246)" fill="#667085"/>
<rect width="1.91241" height="1.9124" transform="matrix(-4.37112e-08 -1 -1 4.37115e-08 4.28809 7.93457)" fill="#667085"/>
<rect width="1.91241" height="1.9124" transform="matrix(-4.37112e-08 -1 -1 4.37115e-08 2.37549 9.84766)" fill="#667085"/>
<rect width="1.91241" height="1.9124" transform="matrix(-4.37112e-08 -1 -1 4.37115e-08 2.37549 11.7598)" fill="#667085"/>
</svg>
